<svg xmlns="http://www.w3.org/2000/svg" viewbox="0 0 550 650">
<circle cx="275" cy="275" r="240" fill="none" stroke="black" stroke-width="1.0" />
<line x1="275" y1="15" x2="275" y2="55" fill="none" stroke="grey" stroke-width="1.0" stroke-linejoin="round" stroke-miterlimit="10" />
<line x1="495" y1="275" x2="535" y2="275" fill="none" stroke="grey" stroke-width="1.0" stroke-linejoin="round" stroke-miterlimit="10" />
<line x1="275" y1="495" x2="275" y2="535" fill="none" stroke="grey" stroke-width="1.0" stroke-linejoin="round" stroke-miterlimit="10" />
<line x1="15" y1="275" x2="55" y2="275" fill="none" stroke="grey" stroke-width="1.0" stroke-linejoin="round" stroke-miterlimit="10" />
<text x="275" y="10" style="text-anchor:middle" font-size="15">Archaeoglobus veneficus SNP6, complete genome.</text><text x="285" y="25" style="text-anchor:start">1,901,943</text><text x="525" y="265" style="text-anchor:start">0.47 Mbp</text><text x="285" y="530" style="text-anchor:start">0.95 Mbp</text><text x="-200" y="25" style="text-anchor:end" transform="rotate(-90)">1.42 Mbp</text><circle cx="352.851181" cy="47.977548" r="2.500000" fill="grey" stroke="black" stroke-width="1.0" />
<circle cx="422.283051" cy="85.506720" r="2.500000" fill="grey" stroke="black" stroke-width="1.0" />
<circle cx="475.786812" cy="143.528878" r="2.500000" fill="grey" stroke="black" stroke-width="1.0" />
<circle cx="507.576236" cy="215.769142" r="2.500000" fill="grey" stroke="black" stroke-width="1.0" />
<circle cx="514.213415" cy="294.415000" r="2.500000" fill="grey" stroke="black" stroke-width="1.0" />
<circle cx="494.980563" cy="370.961200" r="2.500000" fill="grey" stroke="black" stroke-width="1.0" />
<circle cx="451.957642" cy="437.129556" r="2.500000" fill="grey" stroke="black" stroke-width="1.0" />
<circle cx="389.797417" cy="485.764212" r="2.500000" fill="grey" stroke="black" stroke-width="1.0" />
<circle cx="315.222284" cy="511.605511" r="2.500000" fill="grey" stroke="black" stroke-width="1.0" />
<circle cx="236.297262" cy="511.858815" r="3.000000" fill="black" stroke="black" stroke-width="1.0" />
<circle cx="161.557796" cy="486.496729" r="2.500000" fill="grey" stroke="black" stroke-width="1.0" />
<circle cx="99.086677" cy="438.262068" r="2.500000" fill="grey" stroke="black" stroke-width="1.0" />
<circle cx="55.639922" cy="372.371229" r="2.500000" fill="grey" stroke="black" stroke-width="1.0" />
<circle cx="35.916134" cy="295.950058" r="2.500000" fill="grey" stroke="black" stroke-width="1.0" />
<circle cx="42.048366" cy="217.263217" r="2.500000" fill="grey" stroke="black" stroke-width="1.0" />
<circle cx="73.373440" cy="144.820391" r="2.500000" fill="grey" stroke="black" stroke-width="1.0" />
<circle cx="126.503669" cy="86.456001" r="2.500000" fill="grey" stroke="black" stroke-width="1.0" />
<circle cx="195.693216" cy="48.481934" r="2.500000" fill="grey" stroke="black" stroke-width="1.0" />
<circle cx="273.459494" cy="35.004944" r="2.500000" fill="grey" stroke="black" stroke-width="1.0" />

<circle cx="275" cy="275" r="185" fill="white" stroke="grey" stroke-width="0.5" />
<circle cx="275" cy="275" r="170" fill="none" stroke="black" stroke-width="0.5" />
<circle cx="275" cy="275" r="170" fill="aliceblue" stroke="black" stroke-width="0.5" />
<circle cx="275" cy="275" r="160" fill="white" stroke="none" stroke-width="0.5" />
<circle cx="275" cy="275" r="140" fill="none" stroke="black" stroke-width="0.5" />
<circle cx="275" cy="275" r="140" fill="aliceblue" stroke="black" stroke-width="0.5" />
<circle cx="275" cy="275" r="133" fill="white" stroke="none" stroke-width="0.5" />
<circle cx="275" cy="275" r="110" fill="none" stroke="black" stroke-width="0.5" />
<circle cx="275" cy="275" r="110" fill="white" stroke="black" stroke-width="0.5" />
<circle cx="275" cy="275" r="109" fill="aliceblue" stroke="none" stroke-width="0.5" />
<circle cx="275" cy="275" r="80" fill="none" stroke="black" stroke-width="0.5" />

<g style="fill:none;stroke-linejoin:round;stroke-miterlimit:10">
<path style="stroke:blue;stroke-width:1.0" d="M277.019747,122.143635L278.022031,122.543966L279.042864,122.052341L280.117424,120.142338L281.301033,116.131184L282.324253,116.744557L283.155706,120.841289L284.144114,121.401658L285.190271,120.989035L286.207410,121.062473L287.048907,123.346736L288.043985,123.506806L289.224113,121.661402L290.617142,117.934769L291.461787,119.857986L292.475519,120.067160L293.278460,122.029921L293.918899,125.084727L295.000695,124.523029L295.887352,125.425541L296.871550,125.591372L298.387788,122.281183L298.960167,125.166385L299.848472,125.934667L300.844919,126.032332L302.749420,121.099369L304.344890,118.190793L305.169812,119.473172L305.491622,123.186537L305.948139,126.019026L306.890702,126.418195L307.873459,126.624187L308.659186,127.693152L309.701822,127.621026L310.627189,128.049933L311.638200,128.124658L312.616164,128.337390L314.701463,124.350181L314.950458,127.370608L316.928029,124.026032L317.742738,124.944839L318.125483,127.311821L319.239992,127.133171L319.267061,130.525725L320.872688,128.742427L322.540198,126.860662L324.087693,125.442064L324.139002,128.558362L324.951964,129.333895L325.030945,132.185808L326.397016,131.335501L327.625808,130.909627L327.971508,132.884062L329.342864,132.097087L332.041213,127.933482L333.521198,127.025134L334.547770,127.290576L333.748809,132.004186L333.625834,134.943272L335.347175,133.463817L336.398427,133.595178L338.132105,132.192608L337.812035,135.417801L338.029225,137.372350L339.028741,137.595273L340.799851,136.197333L341.074856,137.963762L342.120920,138.113521L344.776756,135.044109L346.921642,133.097735L345.579652,137.997810L345.950886,139.484025L347.481911,138.758019L349.276176,137.582791L349.227257,139.816206L349.369984,141.652244L350.103667,142.403814L350.952371,142.947657L352.624296,142.080599L355.700350,138.886509L360.696114,132.613371L361.517287,133.375374L362.539154,133.808106L361.631178,137.312280L358.275568,144.565478L358.607723,145.933335L359.721788,146.088167L359.258710,148.620056L362.428393,145.724639L360.986432,149.649554L361.648859,150.455982L362.763552,150.614925L365.888529,147.975978L365.412704,150.389031L364.824428,152.905152L366.282564,152.625327L369.538313,149.992542L370.836817,150.000831L367.924342,155.443824L368.543218,156.274902L369.336017,156.882500L370.287885,157.294024L371.690064,157.162562L372.542473,157.712638L373.531137,158.103567L375.859483,156.933135L375.134025,159.338548L376.331891,159.505880L379.153402,157.860335L382.400150,155.804134L385.865546,153.581000L388.475689,152.359599L381.838135,161.052808L379.339020,165.181482L381.933782,163.929395L385.764706,161.461312L383.172410,165.574354L382.027127,168.154189L384.952284,166.674982L389.100229,164.064438L391.455659,163.261589L388.997247,167.057931L385.515209,171.731288L386.184344,172.473643L387.504564,172.623324L388.509759,173.071440L392.495167,170.886686L395.434287,169.694579L395.434674,171.090288L395.323477,172.565176L392.965299,175.909557L391.541418,178.411697L392.301271,179.082218L395.334448,177.921543L394.329581,180.026880L394.977726,180.799113L396.005221,181.278080L397.456306,181.442050L397.164093,182.937201L401.329663,181.100262L407.001551,178.231797L404.041792,181.706039L400.918844,185.224668L399.762571,187.286572L399.581047,188.638488L399.969168,189.586349L400.774369,190.249753L400.886757,191.378080L402.235597,191.688418L407.390561,189.557422L409.450448,189.481019L406.065463,192.845326L404.617990,194.940617L407.593958,194.307873L405.182856,196.949170L406.201454,197.512304L408.452474,197.367539L414.531022,195.060668L407.725532,200.120027L407.864185,201.194782L409.175789,201.622040L413.097062,200.658636L409.572684,203.698662L409.475128,204.884314L412.218478,204.603075L415.797737,203.937975L412.235466,206.869829L411.801231,208.208365L415.824317,207.392691L416.969592,207.993434L412.536728,211.193364L413.223724,211.981092L413.662140,212.884495L415.426754,213.204745L417.264883,213.514616L427.046216,210.476082L419.696001,214.720353L419.655660,215.855727L417.865208,217.686546L418.671562,218.462190L423.316240,217.763189L421.335835,219.635489L421.692912,220.605599L425.245037,220.414889L423.551465,222.138579L422.490569,223.611420L421.929492,224.893055L418.385145,227.156953L418.776854,228.079659L419.262929,228.973452L421.142210,229.435518L419.705010,230.930492L421.563902,231.420443L422.042312,232.333555L422.217112,233.335408L422.399602,234.333706L426.635952,234.241123L427.465806,235.096307L423.260603,237.241785L422.079326,238.575703L423.044536,239.373126L427.226667,239.429051L428.015726,240.309239L430.136230,240.904584L432.156437,241.547532L427.036938,243.685856L427.100931,244.718848L428.766219,245.442160L435.784111,245.193332L441.475879,245.274526L435.541573,247.427402L431.741483,249.145023L428.361425,250.742304L429.028739,251.678827L434.462094,251.932851L436.064331,252.786496L437.024782,253.743936L434.186916,255.185195L427.118939,257.084799L426.310313,258.192850L426.452470,259.189343L426.640044,260.181901L427.407313,261.122873L428.291165,262.063007L428.798112,263.043068L429.671706,264.002750L428.868345,265.081171L427.719766,266.168026L428.540026,267.138066L431.887101,268.005635L432.504807,269.020526L432.900077,270.050042L430.104091,271.163294L428.626853,272.215337L429.848517,273.216524L431.710579,274.230558L436.219608,275.273623L449.898097,276.452444L470.967067,277.922370L470.978970,279.217839L471.642503,280.532166L465.894198,281.632961L447.368455,282.129764L437.696800,282.806817L431.347504,283.537882L430.329124,284.511996L430.131119,285.529116L429.755305,286.531282L427.929408,287.411778L426.590537,288.311845L426.081263,289.273632L425.752060,290.248100L425.988519,291.280511L426.185005,292.312944L425.683516,293.264935L427.864955,294.555029L425.166808,295.219147L427.184606,296.515491L430.208716,297.990005L433.716903,299.582385L431.913623,300.365810L428.051580,300.780273L426.005172,301.462748L426.037582,302.498206L425.273423,303.386117L424.530260,304.270247L424.086450,305.207488L424.284687,306.275881L423.678486,307.175769L424.570266,308.404769L422.430391,308.951057L424.276174,310.416302L426.365248,311.969999L427.213579,313.244625L424.059364,313.500892L423.457300,314.393502L424.445590,315.714549L424.572080,316.812530L426.418531,318.409335L426.737282,319.587735L423.325932,319.652031L421.700185,320.221844L419.386634,320.555447L420.279497,321.894806L420.071591,322.888350L420.629573,324.141928L419.133207,324.700117L417.410802,325.161418L418.944314,326.773129L418.008295,327.506132L417.742901,328.481564L418.482249,329.842359L417.254796,330.453149L416.944163,331.415218L415.474814,331.908822L414.685158,332.666204L415.206626,333.968704L416.095604,335.442808L414.378907,335.800403L413.290948,336.416544L415.198729,338.376101L414.950697,339.380955L412.552293,339.382154L412.109349,340.282633L411.647106,341.173577L414.506326,343.699765L411.550285,343.368736L410.231840,343.829815L409.893223,344.783411L410.187897,346.071998L412.157667,348.268295L413.387629,350.104770L420.422693,355.171110L417.967862,355.053989L407.588636,350.397190L406.284106,350.807613L407.561596,352.717649L409.419759,355.005098L405.208697,353.668406L403.809600,353.989502L403.216393,354.796197L404.394555,356.720409L405.468435,358.609553L404.199955,359.006007L403.582119,359.818240L401.210963,359.456122L400.860281,360.430761L403.742984,363.635614L405.461830,366.095358L403.232147,365.804661L399.102677,364.117403L398.302125,364.783201L398.275205,366.015991L397.582702,366.762272L396.119990,366.922237L394.859852,367.220248L394.563501,368.256295L395.341660,370.148706L394.684453,370.920957L395.533474,372.916296L395.056943,373.853011L394.120283,374.409650L391.515748,373.549322L390.118605,373.679691L389.185239,374.195873L389.556104,375.853839L389.694507,377.328737L392.757204,381.466885L387.484114,378.058217L386.020498,378.074753L388.084026,381.390400L394.165547,388.605485L392.719797,388.721315L385.466982,383.134933L382.468869,381.599642L384.903823,385.465023L387.006767,389.076334L383.095470,386.557683L379.413686,384.192424L379.627305,385.873207L377.977546,385.579598L378.707896,387.849751L377.742454,388.292580L379.923228,392.244746L378.895072,392.650940L380.292548,395.833212L375.718449,392.137653L373.442204,391.032394L371.840135,390.684836L371.400083,391.717333L370.692056,392.431766L371.261683,394.737691L372.226466,397.587654L379.187761,408.162506L382.473810,414.248422L379.144183,411.793535L370.841169,402.628393L365.475119,397.155193L363.997038,396.834436L363.864476,398.355875L370.140062,408.924159L371.518993,412.784425L365.091061,405.433824L363.693873,405.242890L359.666994,401.112611L358.484611,401.144493L358.707452,403.315305L357.595711,403.457894L357.869051,405.774373L355.626210,404.113934L355.252548,405.425803L354.522797,406.173785L353.232014,405.989129L351.722419,405.411161L350.910633,406.004144L350.150306,406.690131L350.684747,409.686153L353.793986,417.414372L360.894939,432.699611L359.163301,431.980747L355.189699,426.971908L348.023873,415.635032L344.157753,410.368824L344.026386,412.344020L343.643105,413.860476L341.344645,411.473293L340.163124,411.326259L340.486954,414.362807L339.002330,413.574733L338.592652,415.112281L338.572981,417.564368L337.068899,416.701089L336.339555,417.592174L336.192751,419.880497L336.261300,422.759001L337.394317,428.347821L339.830167,437.399974L338.359367,436.812417L336.513029,435.206856L335.418730,435.518234L331.482743,428.122326L328.560084,423.207683L327.757777,424.061473L326.961860,424.955384L326.636473,427.260778L325.892939,428.393095L322.852395,422.481974L320.848570,419.552688L319.830201,419.651444L319.768400,422.900959L319.153157,424.421725L318.889186,427.222062L318.014247,427.977322L315.370242,422.302155L314.334175,422.333624L313.572879,423.409840L312.752338,424.297583L311.187814,422.195644L310.165176,422.225059L309.843268,425.264201L308.250159,422.825654L307.364484,423.462971L306.605056,424.726143L306.062471,427.122538L305.098246,427.534957L303.792210,426.168160L302.751916,426.132430L301.710568,426.073814L300.313187,423.902028L299.731321,426.532154L300.220323,436.221765L299.102390,436.036261L296.893937,428.187985L295.428795,425.006352L294.389066,424.765898L293.402584,424.918881L292.458733,425.442858L291.927008,429.785469L290.658227,427.500660L290.007869,431.325284L288.585652,427.066474L287.518279,426.398695L286.691928,428.769466L285.726137,429.570087L284.983778,434.085366L283.560150,427.514306L282.500060,426.512405L281.570244,428.223806L280.607235,429.628787L279.484922,426.271137L278.520300,427.813985L277.554000,430.477781L276.563689,434.259434L275.501646,431.223880L274.480085,428.092914L273.487945,426.152324L272.454188,428.252912L271.426921,428.868775L270.466736,426.952650L269.452850,427.194369L268.432624,427.497765L267.342519,429.115162L266.109524,432.877620L265.260247,429.739032L264.424841,426.987261L263.153913,430.416590L261.563581,437.137620L260.324987,438.917733L260.067326,430.240126L259.419167,426.471095L258.430856,426.254114L257.002788,429.832804L255.776625,431.366342L255.045061,428.913204L254.087436,428.346430L253.566552,424.768198L252.427576,425.623684L251.190793,427.016974L249.599822,430.449428L248.251887,432.166842L247.908852,428.061192L247.456135,424.843361L246.510343,424.429249L244.987017,426.954836L243.407588,429.571932L243.223261,425.401784L242.334809,424.709289L241.147384,425.374152L240.441581,423.910572L238.157944,429.119420L237.416224,427.751888L237.798688,422.004031L236.762178,422.008988L235.223891,423.878448L233.337050,426.908712L232.804089,424.960491L231.745201,424.917605L230.433519,425.717877L230.058368,423.374266L229.427340,421.950953L228.571838,421.286130L228.334761,418.732551L227.438694,418.262755L226.418272,418.166147L224.923968,419.426749L224.308710,418.138638L223.117327,418.483021L221.729994,419.330490L221.344470,417.470067L219.935804,418.332026L219.264207,417.265173L218.599713,416.207199L216.613661,418.421317L214.329768,421.256891L213.831379,419.748650L213.764183,417.278506L212.216618,418.260109L210.959663,418.541030L209.323359,419.632785L207.238453,421.642731L209.909459,413.452652L209.561654,411.836977L207.407537,413.974709L205.496756,415.535028L206.761401,410.713954L206.093621,409.815221L204.855914,410.027829L204.015900,409.465594L203.409255,408.471212L202.360094,408.305194L200.714063,409.207783L199.637459,409.054690L198.563175,408.887026L198.215664,407.455460L198.417501,405.118243L197.344257,404.969615L196.647245,404.189868L195.140841,404.732689L194.377618,404.054655L192.500891,405.137319L192.363490,403.469095L190.523291,404.442166L190.631609,402.428648L189.697996,402.007687L188.902951,401.379311L187.059734,402.269546L183.762990,405.192937L186.040287,400.175319L186.318581,398.053760L185.324021,397.716218L182.844203,399.376248L182.019959,398.770634L182.688361,396.204941L182.478502,394.829623L180.322413,395.961424L179.701450,395.111201L179.925346,393.216380L179.116214,392.622612L173.614769,397.706908L172.505444,397.393574L174.828887,393.025965L173.686925,392.785130L171.151082,394.132005L167.358830,396.847587L163.335493,399.731236L169.639751,391.136002L170.594846,388.566295L171.088709,386.540891L169.508090,386.748003L168.999544,385.810769L164.407046,389.092916L159.572198,392.517084L158.772278,391.777997L157.503064,391.503484L157.665543,389.814931L162.693680,383.451554L165.023875,379.805996L163.489423,379.871205L160.272567,381.476870L159.748648,380.554355L159.860756,379.061223L160.782652,376.865079L160.688627,375.600848L159.991504,374.873731L158.462073,374.858939L158.747221,373.290016L157.744710,372.816460L155.308382,373.515058L149.711558,376.740563L152.702856,372.977744L153.838109,370.760804L155.518891,368.156486L155.171877,367.160550L154.282291,366.581741L151.802390,367.187018L149.133356,367.893318L151.887825,364.610041L150.640976,364.266619L142.374187,368.879101L138.905484,369.990949L145.646836,364.020436L149.092765,360.428612L149.485151,358.956693L148.420659,358.463521L146.991767,358.197458L143.359093,359.326570L144.530002,357.365855L145.030615,355.853829L145.960452,354.097667L142.649630,354.928925L142.362518,353.911080L143.092232,352.301538L142.633907,351.399737L138.581729,352.541537L133.522312,354.185198L136.522547,351.308818L140.007018,348.230125L141.252287,346.414930L140.710654,345.567898L139.137194,345.253141L138.741417,344.320667L138.093878,343.515224L138.352370,342.260596L137.098010,341.749783L134.292356,341.963979L134.054026,340.938802L128.273027,342.465332L123.002847,343.675655L120.050553,343.780452L132.706470,337.040500L135.418429,334.763664L134.951549,333.871688L127.379086,335.910360L127.236944,334.829597L124.569711,334.755777L123.997149,333.831100L129.010559,330.769717L130.130038,329.247951L131.531696,327.644909L130.862011,326.812676L131.018722,325.684649L131.559046,324.431724L131.645044,323.344832L130.700808,322.603778L131.260740,321.368272L131.090637,320.375591L130.448618,319.530172L130.114253,318.587166L129.580646,317.701999L128.012761,317.109527L124.742540,316.974158L126.313791,315.478119L120.527285,315.959119L110.386993,317.485795L116.123809,314.887403L123.547473,311.961628L125.245662,310.500486L127.893320,308.847855L127.513774,307.910678L126.731101,307.058417L126.835723,306.012537L124.544586,305.455888L117.630776,305.774481L111.367296,305.878287L121.848648,302.853772L123.012758,301.605870L125.057551,300.228040L125.294919,299.172097L125.145315,298.181400L124.843241,297.213306L122.808382,296.487765L124.433840,295.244559L120.062249,294.791057L125.177614,293.132431L124.982532,292.151127L122.698266,291.393608L117.575900,290.893535L117.551904,289.845761L115.121939,289.009804L115.353987,287.927170L116.383581,286.789479L117.451022,285.663941L116.927863,284.650619L114.733408,283.722160L117.961536,282.506190L122.278285,281.288804L121.924325,280.290536L122.847846,279.252344L123.596472,278.230468L122.449066,277.246696L123.637510,276.228989L120.196393,275.234095L120.558874,274.213128L121.956373,273.208996L123.422192,272.224427L123.231940,271.217721L123.251750,270.214793L117.269779,268.982746L118.159415,267.978635L123.364681,267.207470L123.739056,266.224315L122.470457,265.139139L123.695100,264.213999L122.752233,263.135262L122.093872,262.067012L122.435481,261.080100L120.077603,259.832218L120.266886,258.817927L124.136458,258.214222L124.995173,257.305644L125.130092,256.316774L124.155733,255.182323L124.985740,254.282207L123.427136,253.045447L122.503561,251.881970L124.164059,251.113165L124.401388,250.129688L124.863212,249.185802L123.903997,247.991870L124.590428,247.087814L125.777053,246.286867L125.564738,245.220803L126.140369,244.311558L124.672288,242.972029L121.990068,241.342221L122.462664,240.388026L122.372101,239.305516L126.286873,239.183124L128.293325,238.639184L128.621008,237.692146L128.328085,236.583702L128.000748,235.458281L127.866755,234.377898L127.399211,233.197327L128.701407,232.520010L128.769634,231.490171L129.072628,230.528723L130.260286,229.843410L130.768895,228.954204L131.208398,228.045409L131.320249,227.029110L131.676024,226.093034L132.259218,225.236723L130.718439,223.627933L131.492958,222.832797L133.032306,222.327854L132.031784,220.879353L127.025416,217.863583L129.869256,217.856962L133.448098,218.183003L134.828497,217.658862L134.635130,216.494204L134.533256,215.359399L134.761506,214.359607L134.197362,213.008241L134.731762,212.133863L129.079238,208.439253L129.161559,207.309207L136.371677,209.539078L138.655441,209.512305L138.550400,208.348782L135.581958,205.754143L139.697820,206.680227L140.603686,206.019515L139.287838,204.207386L140.306234,203.602592L138.797947,201.646268L141.702817,202.070493L142.180413,201.187399L142.145340,200.014772L143.421882,199.584667L144.085638,198.811600L141.558498,196.156028L145.414405,197.274662L145.746440,196.307953L145.830698,195.184736L146.582709,194.472162L146.767099,193.402447L147.076305,192.406734L148.394012,192.067207L148.537131,190.961667L149.322241,190.281041L148.736304,188.667293L148.204106,187.068388L150.109178,187.161877L149.273784,185.326918L151.923408,185.984054L150.968582,184.039291L147.923193,180.508414L147.988870,179.247630L150.672751,179.976198L150.841014,178.798647L154.475923,180.334096L155.692613,180.008486L156.709774,179.534564L157.814524,179.140724L158.411867,178.336590L158.637036,177.218791L158.522393,175.802103L158.877586,174.773379L160.585361,174.920688L162.068355,174.893154L162.772293,174.185177L162.207403,172.323068L164.135783,172.730886L164.000879,171.240635L162.714747,168.639585L164.687338,169.116550L166.590448,169.558257L165.477987,167.058950L162.125129,162.274652L164.300737,162.976782L162.180769,159.312524L163.379631,159.018568L163.635320,157.743427L170.632765,163.646843L171.923482,163.557294L172.554720,162.761110L172.185499,160.850966L173.201708,160.466427L174.918350,160.888280L174.931489,159.371000L174.307101,157.083976L175.134140,156.475575L176.424694,156.426123L174.251157,152.169745L164.674430,138.666903L161.726254,133.116874L167.478506,138.481722L179.629084,152.249208L182.321215,154.073503L183.852744,154.430161L183.446277,152.214417L183.166851,150.126385L181.178227,145.640154L174.493125,134.478641L176.784693,135.747235L187.121993,148.639420L188.980032,149.550920L189.224216,148.117680L188.309115,144.919895L190.939326,147.042542L191.596584,146.196513L193.524229,147.332433L193.970658,146.162715L194.901701,145.756079L194.224834,142.719946L196.089777,143.833413L196.355628,142.298275L196.897026,141.204106L197.361881,139.958984L196.009332,135.481096L198.097589,137.051535L197.692871,134.145338L199.872044,135.945434L202.806519,139.239606L205.012408,141.263712L205.565208,140.158831L206.535810,139.857336L207.332199,139.211275L208.459584,139.233868L209.155691,138.377306L209.782095,137.359150L210.952795,137.489207L211.568535,136.426326L212.235383,135.454193L213.660662,136.178480L214.636862,135.909093L215.809941,136.106463L216.133656,134.295618L216.534004,132.617630L217.878056,133.232261L218.083325,131.004393L219.950176,132.989862L221.074428,133.115418L221.970583,132.648235L222.969453,132.457633L224.161261,132.813062L224.353106,130.341811L225.221148,129.751144L223.993790,122.900508L223.952653,119.374328L227.020040,125.395206L228.386775,126.285005L230.565789,129.884357L231.772480,130.419841L232.594774,129.678511L232.624104,126.128171L233.708603,126.211659L233.541295,121.684682L234.582358,121.517371L236.202429,123.614800L236.889743,122.103029L238.559169,124.572410L238.911681,121.605362L239.663881,120.222330L241.793382,124.989061L242.957863,125.577928L244.173451,126.466363L245.074733,125.863436L246.255485,126.673872L247.132067,125.930631L248.162137,125.997096L248.852496,124.122540L249.572854,122.289028L250.258170,120.094515L251.919400,124.100517L252.943539,124.133472L253.796480,122.956112L254.717039,122.182925L255.972502,123.999297L256.530733,120.189984L257.941806,123.515432L258.876565,122.778358L259.953394,123.387919L260.815218,121.777197L261.952996,123.143053L263.012215,123.761669L263.932428,122.593886L265.031560,123.917409L265.904294,121.736841L266.825194,119.936505L267.984275,122.801246L269.033213,123.852467L270.025874,123.630334L271.016016,123.216840L272.015283,123.007330L272.966167,118.891480L273.983632,116.701027L275.029433,117.311835L276.061736,118.721733Z" />
<line x1="50" y1="575" x2="100" y2="575" fill="none" stroke="blue" stroke-width="1.0" stroke-linejoin="round" stroke-miterlimit="10" />
<text x="125" y="578" style="text-anchor:start;fill:black">n1_4mer:GRV/n1_4mer:RV</text>
<path style="stroke:green;stroke-width:1.0" d="M276.249929,180.404133L276.887172,179.795543L277.432323,182.981533L278.098640,181.232460L278.769314,179.963761L279.410916,179.693147L279.990237,180.674807L280.616101,180.663491L281.516924,176.506268L282.166133,176.570769L282.347782,182.517328L282.733965,185.177527L283.392657,184.525593L284.675852,177.687705L285.461473,176.407180L285.873282,178.600663L286.024758,182.735217L285.980648,187.988235L286.632785,187.479728L287.136407,188.091115L287.955248,186.500290L289.490242,180.380852L290.171898,180.123356L289.955512,185.282273L290.555232,185.341112L292.542309,177.708869L294.145496,172.692918L294.878498,172.525390L294.295761,178.929143L293.390893,186.468241L293.601944,188.331777L294.706427,186.054169L294.959277,187.649753L295.470353,188.062214L296.280414,187.225511L296.801824,187.600772L298.503410,183.361961L299.245403,182.999219L299.339324,185.058613L300.815113,182.045238L301.439307,182.180620L301.982589,182.595020L300.978965,188.168449L301.479560,188.578739L303.710344,183.461758L305.399800,180.271614L307.595928,175.688353L308.266145,175.861868L308.247748,178.045455L306.513485,185.044217L306.885588,185.873678L307.810890,185.163216L307.797007,187.009728L307.516772,189.492151L310.421658,183.674104L310.274430,185.806184L312.723310,181.426582L312.057173,184.802077L311.236092,188.432216L313.198759,185.409948L314.081089,184.993550L315.660451,183.024406L313.425293,189.610522L312.606422,192.884387L313.022314,193.404679L313.522472,193.738085L313.214991,195.743852L315.294675,192.822994L319.220235,186.304526L320.438465,185.349361L317.044861,193.386705L318.406870,192.093011L317.914277,194.335376L322.368523,187.364224L319.725002,193.546156L320.993386,192.532390L320.835553,194.076928L320.445230,195.987996L322.347661,193.924576L323.639985,192.961222L327.093784,188.444636L328.190947,187.928985L328.930207,188.015975L328.545656,189.896929L326.716649,193.996212L325.195612,197.512179L327.431899,195.220142L326.629362,197.560934L330.644619,192.721486L325.921349,200.767198L327.754131,199.174288L325.615252,203.264277L331.146929,196.530156L329.114857,200.416402L327.226585,204.010436L331.893093,198.728329L335.824028,194.572744L336.742510,194.469755L332.728824,200.726271L334.077896,200.018305L333.533800,201.710218L334.009450,202.107576L334.374421,202.639622L333.715695,204.398869L334.066179,204.924429L336.352317,203.180520L338.858990,201.238624L335.958911,205.521421L338.216193,203.901759L339.684247,203.211508L340.347588,203.431878L339.896729,204.861974L338.477193,207.299007L336.082329,210.709854L341.590759,205.833122L346.636537,201.569403L341.310280,207.921479L340.829290,209.282233L344.660314,206.370641L348.238496,203.792836L351.214341,201.872859L346.692354,207.115720L341.341374,213.008639L337.892676,217.004812L340.918543,215.015577L340.202255,216.450215L350.870292,207.770788L356.957416,203.338014L353.946108,206.886167L352.821263,208.748529L347.877411,213.783228L346.013366,216.144868L341.063384,220.979671L346.315118,217.467334L344.220450,219.908194L347.339953,218.202060L348.560926,218.025010L349.596749,218.007272L344.845656,222.364348L354.401751,215.981370L363.623594,210.031476L363.091488,211.312076L358.397457,215.540795L352.338120,220.627991L350.193263,222.874865L346.623152,226.047166L348.607042,225.401541L349.629249,225.426548L352.023481,224.566409L356.447713,222.435055L361.588846,219.924023L357.459729,223.312454L359.290569,222.937389L362.508109,221.745572L351.366880,229.214414L353.046898,228.905432L353.627319,229.260628L363.804251,224.122766L353.200464,230.881521L353.608627,231.333403L360.073431,228.475103L367.267321,225.330019L360.020959,229.952908L357.678572,231.891175L364.374748,229.148250L364.016034,230.072718L358.655367,233.469522L358.326466,234.316807L359.343331,234.508231L365.410091,232.328399L360.509780,235.329931L361.136133,235.728847L359.246946,237.260487L361.470474,236.948383L364.891459,236.149858L371.371745,234.102681L362.811247,238.418263L365.565028,237.971357L369.175864,237.219325L369.830254,237.682282L372.521994,237.365227L371.266787,238.578548L373.852385,238.345085L381.107047,236.450541L377.692498,238.457302L367.661564,242.714910L365.001936,244.306897L359.914217,246.666836L360.176802,247.203282L365.736347,246.050908L368.400349,245.879471L366.732744,247.063048L364.308249,248.444935L368.713937,247.807551L361.825783,250.427036L364.212830,250.386940L368.524579,249.861128L370.185790,250.087761L364.319457,252.252600L363.393724,253.109233L364.811603,253.386864L368.233914,253.213944L363.961165,254.831285L365.316804,255.150420L366.933165,255.431020L368.250331,255.793784L369.832279,256.120229L374.396455,255.893433L377.807308,255.941256L369.726993,258.085809L366.343848,259.311932L367.949553,259.667693L370.005411,259.972672L372.788031,260.194116L375.709603,260.431751L375.550701,261.132352L374.857568,261.899665L372.354231,262.881823L366.422644,264.233063L368.064520,264.662639L366.987917,265.397057L365.428244,266.163451L370.300936,266.322574L373.883750,266.654715L375.838391,267.160386L370.716629,268.194491L369.551027,268.904948L365.371372,269.773711L371.910742,270.037738L370.994457,270.720360L370.475506,271.375391L370.377491,272.010042L364.949328,272.774984L363.000823,273.404884L370.336774,273.901954L369.328291,274.536852L366.396622,275.155119L361.952184,275.722096L363.284028,276.316540L361.714571,276.866262L364.194843,277.509329L365.386572,278.140643L364.370374,278.696672L365.228974,279.329533L363.908087,279.855126L366.152490,280.581967L364.283940,281.059912L365.773685,281.763820L369.147539,282.641031L365.306387,282.930209L362.351606,283.252676L367.526404,284.358757L367.797211,285.005966L364.411839,285.238993L366.577613,286.100479L371.165067,287.301778L364.187503,287.008614L370.162818,288.453889L376.964650,290.103326L376.652350,290.744115L379.720015,291.928472L371.063606,291.181120L367.738208,291.251813L365.858834,291.541942L365.447220,292.085159L364.781811,292.574609L364.204914,293.074455L367.222765,294.321126L368.219961,295.173894L368.530197,295.888875L364.284302,295.560866L367.707690,296.995228L363.452321,296.603917L361.896774,296.833365L364.492712,298.115282L359.985199,297.551027L363.832296,299.201229L360.324410,298.852242L364.203948,300.573383L368.079139,302.351142L365.410520,302.217178L365.332245,302.845845L360.965894,302.123111L362.530034,303.253843L359.942347,303.039596L358.204568,303.076941L358.609781,303.830385L358.490455,304.407879L360.890107,305.892499L363.862041,307.626094L368.060996,309.867217L363.889368,308.975650L361.640676,308.773894L362.659647,309.840025L358.447216,308.805937L358.286408,309.383116L362.814958,311.933591L362.053342,312.292079L359.797879,311.990857L355.481758,310.742841L367.755806,316.929777L365.388908,316.581245L359.978665,314.774761L355.920390,313.529073L353.519058,313.024127L359.895587,316.806756L355.327661,315.218888L353.829229,315.122217L350.352851,313.981788L356.644809,317.922923L362.300729,321.635203L364.136390,323.375481L372.959551,329.004817L372.063851,329.350315L357.842836,322.108993L354.966640,321.175278L362.743593,326.441941L365.084787,328.617431L357.158478,324.637825L357.076090,325.331260L356.216192,325.545357L357.179127,326.901039L357.352357,327.774786L352.850052,325.618222L352.704461,326.257171L351.087568,325.915236L350.160491,326.017032L350.185066,326.762623L349.692333,327.154142L351.193241,328.954500L352.220998,330.451945L353.566893,332.208967L352.219194,332.012126L352.661607,333.135491L350.700954,332.452127L347.250263,330.589399L347.409178,331.477199L352.518584,336.290437L347.903429,333.428363L346.735026,333.274501L351.243774,337.777932L354.448334,341.302151L348.821267,337.438219L345.822162,335.708771L345.965690,336.649856L345.977885,337.488090L345.453767,337.857805L350.406485,343.176666L342.166567,336.538171L344.162893,339.212900L343.641315,339.578325L351.852130,348.266340L350.723591,348.151556L343.876818,342.422772L335.604052,335.113875L341.773762,342.114728L344.570767,345.856238L336.196460,338.156535L337.895571,340.774136L338.630640,342.429177L338.225929,342.893420L337.498469,343.007712L336.964603,343.327449L340.823118,348.552967L337.900225,346.228312L336.241240,345.280147L336.234640,346.217161L334.971821,345.687912L332.583768,343.789338L333.394403,345.701588L331.716205,344.601222L333.131403,347.308314L333.998730,349.388344L334.566877,351.132499L335.516372,353.408026L332.126059,350.035162L328.348637,346.042548L329.646599,348.781233L328.687804,348.497090L327.129098,347.362217L335.865743,360.677824L334.508092,359.949997L330.722082,355.674422L328.974855,354.259603L328.419812,354.569518L324.132711,349.239082L327.765370,355.884131L327.991463,357.415559L329.005172,360.224731L324.557545,354.360913L323.654998,354.073715L324.346959,356.398387L321.086273,352.165350L318.560628,349.043444L318.850249,350.675359L319.361791,352.737675L321.269465,357.339659L321.115894,358.351107L320.749242,358.993745L321.072621,360.934301L318.351612,357.158024L317.611721,357.064954L316.749988,356.721088L316.322069,357.219850L317.286701,360.543209L315.906950,359.147051L315.632073,360.005416L315.605958,361.413553L315.228802,362.101445L315.186509,363.542045L314.017618,362.498210L312.477772,360.560422L313.312098,364.061704L313.958722,367.239015L313.948561,368.941860L315.845221,375.386156L315.459348,376.350920L316.207945,380.240273L315.429893,380.297139L314.291718,379.388774L312.746895,377.330234L309.795095,371.282531L309.273079,371.834929L307.515253,368.834925L307.687334,371.385339L308.650698,376.424379L304.733211,366.638312L301.615726,358.914826L301.548621,360.663153L302.577071,366.106119L303.345010,370.924292L304.687105,377.964599L303.612391,376.758074L301.096656,370.220972L300.625630,370.985665L299.490641,369.228179L298.829595,369.237898L296.899439,364.077005L296.833542,366.409881L295.963434,365.406377L294.760298,362.851580L294.722486,365.471361L293.991659,364.971294L294.948760,372.695251L293.694670,369.742752L292.204691,365.330036L292.169302,368.501231L291.815210,370.106100L290.231352,364.596745L290.458557,369.716676L291.411033,379.908084L290.141985,376.168747L288.340112,368.338391L287.063217,363.578851L287.063860,368.184213L286.238630,366.556863L286.179807,371.337005L286.266058,378.020103L284.794803,370.394829L284.273381,371.593583L283.071042,365.340522L282.305008,363.348299L282.062269,367.881290L281.603787,370.164539L281.492256,378.450114L280.424638,371.649582L279.593134,367.788167L279.044286,369.316269L278.503064,371.602789L277.618556,363.320807L277.122813,367.149967L276.554912,369.657127L275.992262,376.060424L275.303580,369.541734L274.693028,365.390301L274.092491,365.719014L273.417359,370.271918L272.866606,366.871083L272.260923,366.812442L271.572073,369.050317L271.001022,367.858270L270.198469,371.636056L269.085885,380.023224L268.715852,374.838574L268.616275,366.747541L267.586806,372.258556L266.277839,380.250542L265.506042,381.046105L265.906569,369.535331L265.883913,363.623228L264.903387,367.168571L263.865357,370.793060L263.105224,371.754216L262.394091,372.229858L262.074000,369.783023L261.962167,366.103065L261.222911,366.933231L260.213498,369.408829L259.095919,372.333188L258.484986,372.039092L259.047843,365.127454L258.479292,364.875492L257.872796,364.832786L256.638656,367.962934L254.646568,374.583068L256.341999,363.309774L255.839764,362.814129L254.719562,365.086201L254.276987,364.294469L252.066517,370.936424L251.933242,368.750314L252.920328,362.249633L252.545949,361.326761L250.466113,366.828162L249.271522,368.809488L248.221568,370.168153L246.698872,373.089402L247.366799,368.451788L246.246377,369.929746L246.592755,366.600351L246.256186,365.566181L246.957113,361.374266L246.647914,360.401312L246.327959,359.494025L243.515558,365.805831L244.411911,361.372579L244.565504,359.167472L242.563257,362.884559L243.365987,358.996933L242.908827,358.533278L241.309010,360.995988L240.905163,360.361914L237.666488,366.706752L234.910373,371.643511L235.137171,369.330895L236.911563,363.496670L236.189475,363.558466L235.073978,364.490821L233.221441,367.004544L231.194429,369.799616L235.538539,358.937601L237.029556,354.399330L234.278855,358.725448L230.829677,364.312056L232.680736,359.165189L232.405546,358.335982L229.799437,362.011382L230.713837,358.891537L231.757033,355.620632L230.475556,356.709077L230.599943,355.214823L230.379971,354.369990L228.953060,355.655991L228.504601,355.206065L229.390615,352.493072L226.085521,356.866397L226.550866,354.884073L226.370938,353.998817L225.862347,353.656109L226.070833,352.182780L223.182146,355.557527L222.574905,355.330045L225.513953,349.742922L223.347263,351.906688L224.160318,349.626066L221.407397,352.560674L215.362955,360.100576L220.219106,352.082262L218.948705,352.776413L219.575137,350.845613L217.859075,352.119119L218.071172,350.780964L217.963205,349.889163L218.391800,348.316358L217.632008,348.294158L217.969017,346.880001L218.103948,345.744883L216.508377,346.752877L209.805723,353.904867L210.761308,351.710447L210.686487,350.776981L212.806072,347.305770L214.322860,344.606785L215.001598,342.916955L209.142631,348.563850L209.695268,346.983794L210.844547,344.784842L207.518195,347.436601L207.195115,346.825986L208.315987,344.710141L204.770881,347.451678L197.543019,353.858978L199.821218,350.534713L198.153419,351.196833L197.585291,350.752380L203.957996,343.603581L208.603759,338.274862L201.865503,343.780048L198.809364,345.711427L197.128382,346.319670L200.450625,342.376673L202.536492,339.626793L203.182803,338.203431L204.729842,336.022821L202.779910,336.883901L205.140970,334.064783L201.775380,336.085288L198.780460,337.734321L192.069466,342.343795L195.539560,338.659333L199.227566,334.887058L202.720729,331.354372L205.511859,328.443758L203.276961,329.412238L200.654589,330.631613L198.305690,331.602676L202.150034,328.025531L197.580161,330.573026L191.069421,334.410209L190.266289,334.142248L194.514687,330.389736L196.942252,327.962525L197.455878,326.869146L197.311897,326.225757L196.190093,326.221580L191.390121,328.558841L192.336894,327.185311L196.139767,324.058874L198.512295,321.884844L194.713482,323.486567L194.301780,323.010439L191.305911,324.047012L190.085650,324.011298L187.204008,324.904138L186.825562,324.351318L191.130159,321.216971L189.408497,321.431128L191.926072,319.357534L192.439658,318.384751L189.336723,319.295525L189.025239,318.739100L185.530821,319.775214L188.409656,317.621435L190.623382,315.841477L187.791139,316.503448L189.085305,315.193500L180.698034,318.360217L180.420660,317.733025L177.629659,318.221684L187.886491,312.981809L189.497579,311.608973L186.689580,312.122749L175.101650,316.219393L182.337301,312.519338L178.600040,313.293182L178.049921,312.772001L179.956552,311.307736L183.345630,309.320860L180.382227,309.719474L184.589489,307.499486L185.387632,306.545569L186.593097,305.466234L193.099038,302.620170L192.113689,302.343892L192.328822,301.668564L192.648870,300.965866L190.571202,301.008945L191.023632,300.263299L190.750894,299.739522L185.981009,300.502538L179.639970,301.638657L186.614933,299.061823L188.615710,297.905174L190.429270,296.827283L187.498787,296.968025L182.397890,297.599324L183.925857,296.589867L184.980430,295.712651L183.289794,295.464590L182.846495,294.925254L182.803957,294.297723L181.620485,293.902318L173.125157,294.922227L165.863454,295.594597L180.282101,292.226428L178.181003,291.948486L183.473655,290.399444L185.593034,289.436076L189.411033,288.239973L188.617371,287.778937L186.431623,287.504870L186.243571,286.933855L180.667119,287.049661L188.256075,285.498286L185.986037,285.176747L181.593154,285.054220L172.856075,285.312449L174.935666,284.435053L170.470167,284.159747L168.009428,283.663450L165.847880,283.112947L166.070729,282.373043L166.082319,281.649642L167.721274,280.838411L171.271345,279.958065L183.858458,278.753044L178.542199,278.333733L178.131665,277.707273L183.306861,276.956439L181.725307,276.373704L181.520956,275.759004L178.829055,275.145430L177.739159,274.504460L181.485588,273.905641L184.345809,273.340012L185.259944,272.763548L181.846613,272.062515L176.791797,271.253453L179.044988,270.704332L182.943193,270.269206L183.049846,269.665341L182.446190,269.016501L186.366210,268.681605L181.781168,267.735414L178.920525,266.873480L180.035879,266.335527L174.973962,265.206883L175.040849,264.546218L180.860728,264.525627L189.250621,264.885125L187.322915,264.069915L182.954955,262.907270L185.114124,262.586267L181.426533,261.446362L181.797369,260.870744L178.759255,259.759025L176.209057,258.685364L180.898434,258.820378L180.797915,258.161552L179.203220,257.222557L181.898674,257.085659L182.967656,256.659956L181.071154,255.635919L179.059380,254.559435L181.482595,254.428864L181.677147,253.824278L180.564578,252.914761L183.548661,252.974363L186.764296,253.131041L186.970698,252.563827L187.079687,251.971918L183.635835,250.423711L184.669165,250.060508L182.293412,248.744157L186.444498,249.286582L178.309743,246.230486L182.313887,246.753964L185.697316,247.138920L187.361310,247.021339L189.534114,247.091446L188.505661,246.121815L189.771213,245.917068L187.831690,244.610782L188.070825,244.048495L188.629929,243.603039L189.477671,243.269932L189.971414,242.812412L182.007366,239.093388L182.462631,238.564809L188.773367,240.389809L192.771053,241.361911L189.823901,239.497559L190.491239,239.118530L193.901365,239.932217L192.035039,238.472674L191.889824,237.751256L181.651503,232.419728L182.478824,232.056372L190.926645,235.300181L189.377259,233.874516L192.425010,234.664787L183.133102,229.371744L193.562686,233.878868L193.670935,233.256903L192.761623,232.101342L195.091062,232.642501L195.233005,232.040245L198.933117,233.382314L198.601020,232.542351L193.647264,229.083256L193.895352,228.514048L197.651830,229.985586L196.302097,228.501308L199.932256,229.974426L199.243282,228.877857L198.312133,227.613645L198.584280,227.081276L196.428320,225.003028L196.438583,224.277231L196.662152,223.685077L202.986803,227.145092L201.113403,225.193291L198.029952,222.371788L195.727837,220.025593L196.931416,220.092859L194.659461,217.697840L195.111918,217.220424L195.994600,217.059945L196.919359,216.940911L197.054423,216.237640L198.747721,216.720086L197.118994,214.655933L200.181688,216.233791L201.500812,216.480579L206.965234,220.092940L206.074732,218.618215L203.717553,215.899607L207.954304,218.660689L206.613713,216.758969L204.120918,213.823431L207.517405,215.972486L203.962690,212.029864L206.389274,213.366573L205.295934,211.547257L206.242792,211.573415L206.360934,210.837817L206.777929,210.377732L207.636233,210.340985L210.311421,212.082330L207.027781,208.008968L205.968946,206.060390L204.614781,203.772979L204.525066,202.733356L206.045025,203.350920L205.392887,201.710232L210.736305,206.434753L214.377371,209.456946L212.409538,206.425987L210.142604,202.992559L211.557926,203.621126L212.525831,203.767812L216.496823,207.399675L215.593043,205.431716L218.227838,207.620739L217.294128,205.586987L213.926326,200.540634L211.973627,197.116146L213.052025,197.405919L214.820434,198.590991L220.456226,204.797345L220.761213,204.229687L220.350382,202.709335L221.751977,203.587398L220.934476,201.482349L221.898413,201.784446L219.898448,197.961042L219.993883,197.010590L223.857008,201.461029L220.108092,194.947198L222.495186,197.333178L221.119196,194.151585L223.560038,196.697905L224.578995,197.132670L223.227570,193.875759L225.099438,195.657717L225.657357,195.382370L225.456577,193.866071L224.539746,191.123678L227.250994,194.430021L227.345508,193.364499L226.991155,191.495102L224.305346,185.459517L227.220880,189.293243L227.324677,188.134899L228.916644,189.704173L233.971676,197.845924L232.688411,194.148598L233.296146,194.011835L234.087428,194.241958L235.508869,195.753295L235.820481,195.059836L235.560037,193.164621L236.235780,193.189028L234.843068,188.782163L236.888639,191.741142L237.122162,190.785458L237.951482,191.152802L239.803183,193.898232L238.733518,189.898212L237.710764,185.869973L237.953636,184.780907L239.721745,187.444882L238.136404,181.737421L239.739273,184.039116L241.349937,186.462689L242.066653,186.593973L243.289584,188.126462L244.869851,190.731316L243.619500,185.370687L244.272580,185.340989L242.075718,176.820452L241.361289,172.447227L244.910748,181.179657L245.019811,179.351100L247.783144,186.113725L249.552455,189.887320L248.555803,184.376497L247.695540,179.076013L249.499016,183.110419L248.580659,177.300623L250.096720,180.431868L250.361891,178.863955L250.652323,177.318003L252.722900,183.040228L252.579610,179.701361L254.663343,185.922297L255.886168,188.653236L255.460906,183.883356L255.469759,180.896128L256.251781,181.565748L258.635379,190.556033L259.071377,189.795625L259.637419,189.707474L258.609770,180.424386L259.106635,179.547241L259.021852,174.962824L261.317556,185.545055L262.103101,186.785015L262.331397,184.157360L263.271415,186.633805L264.019487,187.859531L263.400151,177.769675L264.892665,185.242235L265.640781,186.639442L266.419658,188.543059L266.786000,186.273073L267.472092,187.381023L268.143792,188.501829L268.235421,181.848287L268.879812,182.241871L269.309210,179.109862L269.940239,179.024128L270.903698,186.135055L271.493367,186.171786L271.968899,182.759305L272.721748,188.202388L273.175106,182.069708L273.692926,174.674453L274.343318,172.721958L275.018896,173.760603L275.656855,178.316604Z" />
<line x1="50" y1="625" x2="100" y2="625" fill="none" stroke="green" stroke-width="1.0" stroke-linejoin="round" stroke-miterlimit="10" />
<text x="125" y="628" style="text-anchor:start;fill:black">n0_4mer:PS</text>
<path style="stroke:red;stroke-width:1.0" d="M276.565863,156.493977L277.399494,153.949848L278.228882,152.846539L279.215820,147.425639L280.231861,143.088365L281.004361,145.263526L281.799709,146.472265L282.996933,140.671442L284.259892,135.050348L284.957419,138.231521L285.527545,142.495312L286.052973,146.630478L286.076475,155.593529L287.347382,150.819508L288.470490,148.049089L289.058142,150.364627L289.451687,154.055695L289.973536,156.348185L290.857728,155.693006L291.917258,153.855412L292.885513,152.820734L293.943233,151.303472L294.417022,153.576699L294.935637,155.406636L295.478887,156.961632L296.900867,153.535937L298.708617,148.309136L299.562550,148.378876L299.184508,154.588763L299.281546,158.111280L299.435810,161.151243L300.129621,161.576344L301.443824,159.270631L302.082270,159.981335L303.567207,157.169966L305.651033,152.126032L307.588740,147.938938L309.533186,143.961547L308.932527,149.608739L309.863261,149.464769L310.604340,150.005318L309.222079,157.802553L309.296241,160.368956L309.211865,163.342839L311.721758,157.918673L313.389664,155.374511L315.902539,150.380184L316.727094,150.646964L318.447252,148.302440L316.848034,155.544070L317.906697,155.067569L318.798885,155.077894L318.890696,157.246746L318.612568,160.314049L320.525415,157.624092L320.584898,159.735457L322.545688,157.061978L322.602368,159.134853L323.082187,160.131975L327.054100,152.914111L325.198698,159.388929L327.858186,155.432631L324.922782,164.060565L325.831259,164.007255L326.276886,164.960563L329.115661,160.844755L329.449329,162.074575L329.875406,163.087035L333.204489,158.255376L331.060357,164.392242L331.801879,164.741851L332.480703,165.212034L331.228312,169.309401L334.518957,164.884894L334.928036,165.858162L333.887266,169.413252L336.310325,166.756081L335.316368,170.132731L337.508266,167.964424L338.902863,167.218042L342.628091,162.633925L342.831628,163.962897L344.808322,162.406163L341.103315,169.938348L340.247697,172.802532L340.322023,174.161281L341.495674,173.820841L345.687867,168.975013L346.032301,169.968603L343.975158,174.448476L343.807077,176.100720L341.908758,180.171900L350.240877,169.844829L349.025893,172.974092L345.723757,178.867950L348.413188,176.581260L349.604940,176.350325L352.239975,174.256538L350.978043,177.246881L349.797148,180.067423L350.398313,180.594274L354.050046,177.352090L351.862679,181.326455L353.030593,181.174182L356.217995,178.643719L357.704646,178.185323L362.433591,174.008393L362.879492,174.838398L363.977210,174.928756L365.409471,174.660893L362.784166,178.859531L363.656733,179.183025L361.123895,183.145383L360.263883,185.258375L359.443124,187.290123L362.854645,184.945130L358.530678,190.501574L362.624037,187.524409L365.212540,186.122582L366.391879,186.142952L369.434447,184.390792L367.283267,187.618532L361.184666,194.466474L359.614047,196.974897L360.948058,196.789160L363.098873,195.889698L369.621010,191.155641L373.365462,188.991135L376.366945,187.541715L374.776556,190.057358L369.720353,195.435232L363.070576,202.008031L363.692339,202.475872L369.638543,198.651424L370.431898,199.046786L373.666815,197.531442L370.632845,200.929693L373.396117,199.824296L373.718714,200.605626L374.988302,200.679566L383.906777,195.162203L384.934188,195.520355L380.792590,199.573920L377.045430,203.257695L376.948834,204.327489L373.379080,207.760084L376.618512,206.526637L376.900229,207.311444L379.031868,206.881802L378.827316,207.991647L384.360026,205.440113L382.992938,207.307685L383.360116,208.070680L384.401891,208.421768L379.820010,212.155405L380.086879,212.935595L383.021183,212.161522L386.253250,211.261411L382.251007,214.492030L384.673189,214.077234L383.058360,215.905121L388.312348,214.000914L384.734930,216.858577L383.340613,218.510919L387.229327,217.423210L384.648403,219.659355L384.631797,220.573595L385.716006,220.944178L386.011923,221.705104L390.297079,220.582281L388.712835,222.245848L384.606516,225.028239L383.088468,226.580369L386.696461,225.847605L388.719652,225.851564L390.891734,225.818975L387.516225,228.126290L390.076059,227.949716L395.198377,226.779833L394.330460,228.040930L403.391041,225.452535L401.122142,227.283112L401.624297,228.047133L404.041243,228.118381L399.584391,230.667163L389.677899,235.043992L391.557287,235.250802L389.997813,236.628900L393.846259,236.215544L393.677248,237.136468L394.099228,237.867028L391.957763,239.380839L389.032382,241.093420L394.636364,240.285785L390.751138,242.240738L394.147503,242.128219L396.151502,242.435169L394.066520,243.837643L389.799749,245.763416L389.927080,246.538229L391.038744,247.075311L390.941168,247.907918L391.009467,248.699065L395.112426,248.602020L400.689288,248.245659L403.815614,248.468614L410.399716,248.043824L411.414192,248.777668L410.083335,249.957823L403.951485,251.974779L403.477066,252.934398L399.641733,254.439973L393.846115,256.201707L398.122087,256.358339L404.280037,256.298866L405.072950,257.060733L403.144444,258.188705L401.303916,259.278309L397.931959,260.522179L397.454294,261.398101L401.681558,261.775266L399.460988,262.837809L405.152485,263.149239L405.156429,264.015461L410.033188,264.501935L409.136423,265.462821L405.244401,266.604043L404.593572,267.505443L402.151201,268.489292L401.526614,269.359171L401.704555,270.189819L399.516365,271.096577L405.663973,271.767853L406.321762,272.619642L404.573153,273.507635L405.787184,274.357840L406.199608,275.222673L408.439589,276.108151L415.292258,277.092116L413.429396,277.979263L416.576294,278.982982L415.334082,279.876159L410.631324,280.610187L410.193765,281.487116L411.444377,282.451005L408.422607,283.170492L402.455157,283.650683L400.391260,284.343279L397.406937,284.934568L392.548579,285.322468L390.646089,285.925840L395.550186,287.193275L395.979450,288.044749L399.552972,289.263178L401.742392,290.362938L403.353112,291.419387L402.181394,292.124286L401.826451,292.930416L405.655051,294.353039L403.789949,294.947239L404.389594,295.916424L403.843246,296.702580L399.108548,296.749277L401.863475,298.097019L400.893903,298.780912L395.093095,298.507981L394.250947,299.162300L398.194746,300.809909L393.207059,300.581395L396.416616,302.116981L389.209224,301.300710L392.899000,302.971956L391.824281,303.533588L395.657638,305.315995L398.467951,306.890826L396.898727,307.346121L395.278575,307.768367L393.947268,308.251435L392.796757,308.770496L398.229866,311.210881L398.412754,312.152169L399.536269,313.389588L398.016831,313.813057L402.054295,316.011889L398.180928,315.662209L398.076493,316.531511L390.786386,314.925546L390.661606,315.739537L388.855072,315.950790L391.552471,317.792758L395.042953,319.976562L394.377506,320.628948L393.471619,321.182094L387.579812,319.744458L384.367060,319.306523L386.882245,321.188331L387.320384,322.240189L386.490047,322.760322L383.785968,322.455033L382.617373,322.794069L390.289569,327.116046L390.630284,328.192933L387.581738,327.694540L386.901242,328.280157L383.088114,327.343422L385.748448,329.537974L386.885032,331.019203L389.001103,333.023871L392.822338,335.952244L391.885754,336.450058L390.090298,336.480121L390.146063,337.491269L394.690113,340.984813L391.672735,340.330191L384.375999,337.197208L381.092421,336.261134L385.171196,339.590701L384.478531,340.160365L384.470030,341.138691L381.839266,340.516704L381.337589,341.179800L379.298271,340.870603L378.624574,341.406900L374.119469,339.447629L378.456936,343.244600L373.617089,340.991232L376.677007,344.015770L378.889646,346.524850L380.945066,348.976455L382.125906,350.858759L381.882041,351.751366L385.787195,355.670378L384.847623,356.102200L380.047335,353.635746L371.885689,348.529970L371.335705,349.120754L370.514628,349.498825L375.486291,354.449964L376.873419,356.646326L379.699332,360.053308L380.872768,362.173982L376.292119,359.531482L371.347683,356.491120L368.791067,355.397721L366.794985,354.744840L368.166142,357.022369L369.155732,359.004347L369.464945,360.407840L366.401886,358.742629L365.999601,359.486754L363.790482,358.534830L368.501985,364.139341L367.291590,364.156806L364.098893,362.217942L358.457763,357.782741L361.470691,361.912235L362.809827,364.432304L359.288619,361.988317L359.108842,362.958282L356.783974,361.666206L357.512376,363.603639L359.781514,367.255007L355.856637,364.159415L356.923481,366.544055L359.417666,370.594695L358.741359,371.101173L356.590274,369.891187L352.141624,365.925710L350.655533,365.377795L355.104821,371.987686L351.420626,368.782175L351.943961,370.708821L354.946608,375.800404L355.750337,378.207105L358.076387,382.637906L357.066990,382.795111L353.116907,379.025602L347.162253,372.430034L346.124404,372.367304L344.949448,372.099266L350.828140,381.739681L350.046382,382.131479L348.665783,381.653309L344.327527,376.804298L342.416918,375.418394L339.166602,371.955155L342.335353,378.218485L342.294114,379.659916L342.247217,381.121797L338.662485,376.948410L338.657664,378.455928L337.955822,378.846365L339.262187,382.598506L335.069520,377.104911L334.652010,377.945533L334.167797,378.683077L335.159476,382.057877L341.257529,394.755641L345.389433,404.232133L344.222683,404.113620L342.640403,403.189046L335.484121,391.485006L330.495252,383.625955L330.631850,385.692480L329.511855,385.273889L328.725027,385.514290L327.627896,385.101599L327.903759,387.584506L325.892130,385.189165L326.721560,388.956967L324.248318,385.440869L324.216490,387.359496L324.236196,389.456262L323.930761,390.848902L324.263735,393.821511L324.564434,396.815548L324.092319,397.976565L323.978110,400.084367L323.021974,400.070242L322.815132,402.033463L320.452906,398.220903L318.961457,396.647041L317.823705,395.993812L316.444447,394.603456L314.928301,392.736823L315.793168,397.952034L312.559596,390.759377L311.730825,390.805999L311.511471,392.809802L312.476939,398.812225L312.602866,402.254436L312.740935,405.897915L310.992235,403.003999L308.700577,397.966009L307.007239,394.889194L306.069997,394.542367L305.513014,395.668534L303.842809,392.319489L303.347452,393.681485L302.023294,391.539978L300.933436,390.296503L300.432354,391.663771L300.825244,397.344799L300.597201,400.357416L299.162136,397.451334L298.082784,396.191874L297.295696,396.418743L296.383938,395.946626L295.913497,398.021339L295.273633,399.219299L295.470913,405.861001L294.554673,405.651414L292.360835,396.470680L291.356277,395.102311L290.345438,393.531923L289.653368,394.375441L289.203524,397.392538L288.656276,399.876946L287.935531,400.983421L287.371597,403.865283L285.787794,395.749583L285.023628,396.227862L284.410912,398.770084L283.572624,398.536668L283.140352,404.711503L282.211499,403.485684L281.218560,400.624203L280.381429,400.499588L279.449276,397.696155L278.419836,390.347020L277.731883,393.589296L277.018913,397.903755L276.215419,398.788639L275.392274,397.162876L274.599838,392.830626L273.817611,393.197283L272.929849,399.619059L272.198770,395.630374L271.387030,396.104867L270.405402,401.059685L269.616127,400.016231L268.645849,402.884227L267.565546,407.021492L266.663513,407.444830L266.103818,402.856831L265.125370,404.551755L263.838561,409.685373L263.053067,408.445473L263.486021,394.699363L262.941753,392.225810L261.664487,396.735387L260.886829,396.417794L259.181344,403.671755L258.516097,402.140978L258.602990,395.235039L257.725760,395.705352L256.479964,398.582474L255.480110,399.630552L254.461398,400.696518L254.120666,397.683008L253.813151,394.702731L252.918929,395.124822L252.371341,393.688109L251.759588,392.665508L250.053757,397.054278L250.658615,390.209674L249.242861,393.048690L248.161119,394.218970L246.781086,396.593949L245.357905,399.000205L244.319482,399.694949L244.581509,395.201161L243.944021,394.397702L242.483887,396.704927L239.720116,403.635196L239.696271,400.466295L238.842755,400.318064L237.340292,402.360096L237.148367,399.966720L236.984463,397.582692L236.927355,394.959517L236.556683,393.408394L235.604567,393.665755L235.710333,390.783248L234.176763,392.740308L234.776239,388.581137L233.148113,390.742595L232.989742,388.823173L232.031668,389.092641L231.503405,388.221575L228.519128,393.642059L229.304455,389.406153L226.938247,393.059809L225.599289,394.089613L224.297983,394.980612L225.809693,389.291336L225.398705,388.181016L224.609460,387.946159L221.649599,392.487998L220.540625,392.855507L222.872082,385.880142L222.852770,384.044158L221.217432,385.580623L219.177767,387.872128L221.024151,382.347982L218.668081,385.213309L217.417788,385.846138L217.350674,384.205454L215.677474,385.598785L217.314386,380.861810L216.584612,380.535449L215.261942,381.261900L213.432230,382.842334L213.126797,381.733274L213.511732,379.472242L210.229328,383.404335L210.580269,381.216771L208.501570,383.027937L210.326557,378.524713L209.455336,378.392714L209.401913,376.980673L209.221629,375.791033L210.469689,372.465533L210.343685,371.267950L209.797208,370.709251L205.843080,375.085777L200.401839,381.449715L201.083451,379.008065L198.898746,380.597605L198.968760,379.044208L198.885041,377.727049L198.333377,377.054984L200.202621,373.208764L199.830506,372.356099L197.713069,373.742876L194.373745,376.618716L197.788912,371.004719L196.356541,371.473548L193.572341,373.552187L195.427917,370.020770L195.498445,368.672192L192.545509,370.860411L190.512043,371.921758L184.124152,377.869588L187.180309,373.096153L190.479534,368.164824L191.314164,366.028939L188.379730,367.980292L186.589387,368.653716L186.919635,367.077462L185.677451,367.149362L182.460017,369.214988L182.258382,368.180699L179.810090,369.385066L180.382349,367.585924L181.213531,365.567372L185.807913,359.999044L180.148547,364.203970L175.563325,367.285739L173.204402,368.230739L172.479311,367.656751L175.029484,364.158999L178.120840,360.259457L179.791199,357.679615L181.521048,355.100180L181.123400,354.371286L182.259347,352.365912L181.211196,352.195126L174.306379,356.768322L177.836718,352.841876L178.906209,350.948127L182.728574,346.941764L179.741814,348.263659L179.701654,347.297498L180.234255,345.911858L177.736237,346.783542L177.902357,345.674763L178.200761,344.483826L171.028606,348.596088L171.143829,347.489301L173.225477,345.040903L176.193265,342.040804L175.221021,341.742008L174.847592,341.038205L175.731848,339.518178L168.792013,343.034743L166.871782,343.261464L170.240118,340.171021L170.590570,339.000087L172.538012,336.878758L170.892240,336.937664L167.141644,338.207929L163.081678,339.597588L156.417984,342.403228L156.430698,341.363353L159.331930,338.739573L163.615950,335.422903L167.052220,332.638991L166.581342,331.973074L165.871148,331.429312L162.500095,332.233594L162.042721,331.529929L164.106829,329.583754L163.090878,329.168251L164.638306,327.522080L162.934476,327.427651L160.527654,327.634595L158.707864,327.543343L155.214623,328.171486L163.525921,323.603107L165.120513,322.046331L162.334061,322.360995L153.646316,325.072150L157.327610,322.645818L153.941173,323.088482L153.413316,322.370485L154.456039,321.049238L158.706421,318.547249L156.871601,318.346570L158.411297,316.909650L155.484474,317.072154L158.299475,315.216605L163.520014,312.595360L166.657039,310.741948L163.691155,310.906675L164.290150,309.907561L166.718142,308.357064L159.490085,309.749794L160.371046,308.660482L156.776767,308.869092L157.510713,307.820427L155.602999,307.504467L150.610542,307.982411L144.071643,308.791956L144.857389,307.673560L149.005154,305.748742L152.296395,304.087889L151.191298,303.487211L153.941333,302.013525L152.879087,301.404749L151.583357,300.832564L152.221105,299.853477L148.461027,299.745443L141.799291,300.135621L156.085518,296.627082L152.693326,296.410188L157.264199,294.809224L153.470972,294.622657L155.175125,293.536013L155.132722,292.732459L155.851560,291.822435L156.137453,290.981811L157.192909,290.048152L158.954993,289.044483L160.076899,288.138875L158.072468,287.585964L150.273591,287.592377L151.310355,286.662681L148.122742,286.118008L144.618410,285.557514L139.242238,285.090464L139.875050,284.146137L141.641006,283.141832L142.691117,282.200623L143.721728,281.274893L149.895621,280.151572L151.826987,279.257053L149.062371,278.519701L151.690168,277.631038L153.710868,276.786288L156.220047,275.964435L151.577426,275.186640L156.556938,274.396537L157.013663,273.619256L154.657402,272.796382L156.898717,272.056746L155.844750,271.242576L154.398734,270.399180L152.157028,269.500624L153.153867,268.738334L149.198642,267.701400L152.804511,267.100201L152.546994,266.270750L151.117771,265.345802L151.164757,264.525863L149.878705,263.584004L146.768627,262.445421L148.158666,261.734864L153.021584,261.428115L157.383892,261.126171L157.847158,260.395380L156.691260,259.456788L154.243631,258.322882L153.026309,257.332735L152.500631,256.429441L145.969253,254.566301L148.109049,254.044843L148.726094,253.288735L149.899914,252.638592L149.498709,251.710157L152.871575,251.500332L150.962762,250.282076L153.416410,249.934703L152.295674,248.857311L158.945087,249.471261L158.060090,248.465374L158.460313,247.745323L157.469471,246.693310L159.185263,246.295659L158.764182,245.374786L156.702939,244.015642L153.823022,242.404283L152.632270,241.215424L150.579428,239.762299L150.225995,238.769997L148.948503,237.494253L154.135707,238.166681L153.416316,237.067739L156.130868,237.051017L157.903709,236.762660L161.556434,237.124177L160.895288,236.063631L160.717622,235.158088L159.108698,233.736406L155.030266,231.389000L161.064852,232.728349L162.377840,232.366858L158.486682,230.011507L161.566884,230.337424L162.415440,229.810098L161.720091,228.659633L163.805290,228.652684L164.510300,228.087315L166.505440,228.085971L167.456699,227.651467L168.266045,227.163430L159.905980,222.500658L160.421063,221.818280L160.350160,220.861827L162.698197,221.060288L163.924666,220.743290L161.802148,218.777131L168.495171,221.221224L168.249150,220.208873L168.468872,219.429321L171.345962,220.055886L173.296669,220.226091L174.462107,219.993744L174.508368,219.153202L167.328368,214.228463L165.213302,212.074640L167.204725,212.266245L162.622282,208.601575L172.966798,213.800566L174.521376,213.826686L176.337519,214.035267L176.206303,213.048507L173.628842,210.495194L175.443992,210.722183L170.882497,206.798207L174.030638,207.902860L169.899295,204.151964L169.879580,203.123992L174.388494,205.226984L171.473580,202.187872L171.962226,201.509243L173.063279,201.273603L173.568404,200.613284L173.103979,199.232306L176.425295,200.685555L178.198824,201.014483L176.766047,198.885983L177.671293,198.552951L180.909238,200.085745L182.929418,200.694975L184.008169,200.567474L183.261349,198.939336L186.353298,200.509102L182.232913,195.995116L181.225810,194.062393L184.448837,195.794243L179.789093,190.601480L182.649420,192.040920L180.290247,188.784175L185.470516,192.411576L188.692012,194.321325L186.645432,191.307545L187.783988,191.285836L187.478426,189.874408L187.262094,188.528601L188.370846,188.485602L186.146920,185.084244L189.034195,186.848654L186.564647,183.109434L187.492712,182.863025L191.097182,185.481066L192.461318,185.762080L194.376644,186.669176L191.228673,181.993508L192.646858,182.344224L192.619835,181.071270L196.440109,184.224176L193.262320,179.281410L197.120971,182.570343L198.434074,182.900680L196.917487,179.803919L192.073081,172.524358L191.335367,170.204316L193.083212,170.991596L199.788590,178.196273L203.247669,181.378162L203.800915,180.817655L204.596340,180.579433L201.595992,175.186110L201.111731,173.124127L200.036678,170.191768L201.742350,171.132989L205.794005,175.488075L204.822166,172.654638L205.211233,171.766194L206.969447,172.919817L207.201179,171.796393L204.075930,165.468904L205.443475,166.009165L209.263474,170.478411L210.501964,170.928139L210.769355,169.813795L209.525069,166.165899L211.103772,167.183771L214.392956,171.175866L213.373008,167.808176L211.697454,163.190567L215.122024,167.590171L215.148661,165.950030L216.819464,167.313466L217.752784,167.346173L215.760809,161.802369L216.692208,161.767274L220.617175,167.652790L219.471032,163.570226L219.413103,161.582945L220.514912,161.946955L222.439195,164.071660L223.305478,164.010697L224.572167,164.834325L225.228881,164.342892L225.499627,162.972104L226.256469,162.683407L225.963698,159.932952L226.853449,159.918440L227.367023,158.999306L229.741367,162.675144L230.443722,162.275420L230.309873,159.714416L231.044733,159.348476L231.648102,158.626495L231.717710,156.424272L234.336257,161.270721L234.290856,158.726116L235.933565,161.008721L235.185696,156.274547L234.787501,152.406025L237.331830,157.548072L236.937829,153.566316L239.626367,159.474882L240.622173,160.018809L240.735636,157.577012L239.967147,151.925199L241.314953,153.620180L242.296481,154.061580L243.275683,154.529549L243.659297,152.710938L243.723158,149.518444L244.093615,147.418578L245.056763,147.725242L247.305484,153.693736L248.324726,154.494414L249.116026,154.295281L250.021487,154.644348L250.889111,154.840166L252.377422,158.264010L253.373401,159.316375L253.969348,158.238534L253.973650,153.672844L253.396587,145.253701L254.639166,147.523381L255.612070,148.242957L257.603340,156.006578L257.947453,152.721458L258.942868,154.021413L260.221340,157.717737L260.440841,152.964643L261.404423,154.265049L262.596204,157.895540L263.418518,158.303081L264.205434,158.398021L265.135238,160.181874L265.851792,159.585875L266.394805,156.502074L267.211422,156.955604L267.604224,150.380756L268.290361,147.728472L269.095348,146.904822L270.156965,152.318757L270.966778,152.263353L271.811863,153.537292L272.587930,152.168589L273.332648,147.021068L274.197688,150.040103L275.023246,150.455091L275.817888,154.613909Z" />
<line x1="50" y1="600" x2="100" y2="600" fill="none" stroke="red" stroke-width="1.0" stroke-linejoin="round" stroke-miterlimit="10" />
<text x="125" y="603" style="text-anchor:start;fill:black">n0_4mer:D</text>
<path style="stroke:black;stroke-width:1.0" d="M277.413949,92.309984L278.613263,92.717393L279.744534,95.507126L280.875437,97.204192L281.978675,99.045703L283.167652,98.521195L284.484069,95.732635L285.741103,94.576222L287.070779,92.567922L288.235008,93.212742L289.297182,95.048875L290.464372,95.396375L291.597571,96.075083L292.909258,94.882427L294.329762,92.829125L295.481111,93.420458L296.658125,93.745940L297.725296,94.922458L298.912938,95.088929L300.237693,94.272718L301.472869,94.158906L302.769315,93.670457L303.810815,94.833122L304.893672,95.668643L306.026587,96.165688L307.227446,96.263858L308.506548,95.952294L309.800693,95.600761L310.768602,96.913205L311.738496,98.144878L312.845848,98.672606L314.042481,98.780038L315.392508,98.225281L316.777350,97.571188L317.827954,98.349220L318.821693,99.327446L319.959677,99.705581L320.476529,102.436312L321.860599,101.835482L322.920055,102.450015L324.274822,102.012924L326.064955,100.122186L326.997102,101.205967L328.499493,100.393862L329.636996,100.798863L330.706542,101.413632L332.066648,101.132181L333.130643,101.761914L334.229364,102.279850L335.456045,102.427184L336.599138,102.818617L337.465213,103.969167L338.812178,103.799898L340.106331,103.792895L341.520894,103.492494L342.960646,103.156842L344.127264,103.528450L344.379773,106.128201L345.296094,107.063097L346.708132,106.818221L347.519010,107.983708L349.540884,106.385487L350.258280,107.759499L350.466276,110.215390L351.289353,111.284180L351.566098,113.486282L353.060504,113.106074L354.315580,113.243717L355.951540,112.630099L357.237332,112.744756L357.145323,115.547682L358.423191,115.661961L359.433027,116.293880L360.961271,115.964376L363.484327,113.851016L364.242654,114.985071L365.310259,115.556441L366.031392,116.730963L366.211383,118.814849L367.056424,119.732752L367.551656,121.222685L368.741619,121.549491L369.891771,121.949071L371.606628,121.457746L372.834262,121.762196L373.572705,122.831637L374.919244,122.963870L375.803683,123.804191L376.688389,124.639200L377.920054,124.963832L379.258955,125.144259L380.535082,125.427783L381.812002,125.721646L382.964823,126.197889L383.893754,126.984958L384.435786,128.288865L385.334861,129.104859L386.106229,130.085063L386.800422,131.157916L387.670988,131.997928L388.816198,132.491495L389.755278,133.246597L390.927251,133.717953L391.714294,134.659991L392.373099,135.749637L393.144413,136.699267L393.040941,138.654870L393.370303,140.086166L393.337041,141.908223L393.485751,143.501006L393.947367,144.729858L394.746042,145.582829L397.035044,144.844690L399.158134,144.321541L400.807854,144.325164L402.358153,144.452300L402.971822,145.545554L403.709328,146.508721L405.080900,146.844264L406.767352,146.887328L407.746237,147.630890L408.811820,148.295846L408.230221,150.505702L407.708039,152.626011L407.570552,154.363717L408.401918,155.208843L410.397489,155.023310L413.154185,154.200642L415.397511,153.866572L415.680748,155.234447L416.019069,156.544471L415.893844,158.228662L414.736376,160.736932L413.639568,163.154094L415.050451,163.535364L416.295159,164.061664L418.517489,163.841700L422.010452,162.682415L422.869141,163.565889L422.779423,165.156842L423.703590,165.987803L424.066006,167.229037L424.561038,168.368686L425.875917,168.927772L426.172752,170.204706L426.717347,171.304563L427.627244,172.155544L426.762221,174.189966L426.985692,175.482500L426.536978,177.200656L426.388699,178.707221L428.186797,178.979194L429.253957,179.724055L430.841234,180.160379L432.901212,180.330694L434.169115,180.994578L434.667874,182.117420L435.137054,183.255176L435.238864,184.597787L435.974732,185.579550L436.178129,186.855019L436.723968,187.939637L436.964248,189.185649L436.696303,190.691122L438.128539,191.310488L438.432388,192.514041L437.406147,194.373914L437.036577,195.887496L436.733026,197.354783L437.977367,198.078220L439.083089,198.877860L440.253584,199.657649L440.108858,201.037345L439.689962,202.527640L441.312764,203.121375L441.795550,204.216901L442.144176,205.368552L443.607327,206.062788L445.312214,206.675589L446.469547,207.523093L448.777743,207.937325L448.609018,209.316988L447.011353,211.217405L447.640517,212.278449L447.320914,213.680320L447.273687,214.976500L448.139804,215.954628L448.028071,217.266054L449.059406,218.197208L448.859223,219.530865L449.723184,220.524490L450.354357,221.596319L450.152151,222.919965L452.125286,223.604546L452.364761,224.803183L452.945622,225.906319L452.034655,227.414097L451.825143,228.720926L450.891338,230.204938L450.600984,231.512294L452.355180,232.319528L451.647238,233.722673L451.026078,235.092477L449.197972,236.715246L447.515156,238.278261L448.733578,239.217128L449.787689,240.202234L451.057313,241.157235L450.514960,242.462481L448.695466,243.985417L448.342139,245.228938L449.867221,246.155128L453.153345,246.820882L456.401088,247.534436L458.595359,248.441829L459.125969,249.605905L458.781522,250.889665L458.626663,252.143055L459.059235,253.323158L458.701433,254.594930L458.944147,255.797422L458.258255,257.092204L458.907926,258.254651L459.450554,259.433313L459.923297,260.623261L461.061736,261.770900L460.533773,263.039919L459.934786,264.304992L458.565613,265.600622L456.562998,266.905530L453.976585,268.205377L453.780158,269.395480L453.413358,270.586708L453.976101,271.755853L454.368651,272.934113L452.528176,274.128344L450.117262,275.297210L447.548745,276.432934L446.122991,277.551881L445.777430,278.675454L446.749148,279.831838L447.875419,281.006866L449.505736,282.218169L452.251368,283.505201L452.740555,284.706122L452.510330,285.870322L452.422162,287.042062L452.201589,288.203822L454.502916,289.568488L455.797551,290.876644L457.095120,292.203713L457.611822,293.470615L457.920833,294.723650L458.544168,296.018553L457.867630,297.166097L457.630382,298.362729L457.026005,299.508816L457.181941,300.756441L458.343386,302.157401L456.702150,303.142385L456.351808,304.316355L456.659598,305.599057L456.120987,306.740364L457.420147,308.211779L457.233586,309.423279L456.609572,310.549708L456.395233,311.753805L455.536643,312.823320L454.989552,313.951851L453.910800,314.957634L452.509901,315.877928L450.654636,316.674686L448.165143,317.294485L447.651551,318.379795L447.772715,319.625869L447.111596,320.670227L447.167951,321.904968L446.432890,322.923669L445.980321,324.017396L447.787738,325.773375L449.124428,327.418408L449.168540,328.689247L450.359899,330.327826L450.287945,331.581241L449.862796,332.722471L450.247550,334.136357L448.872057,334.954689L447.257614,335.674374L445.805998,336.434598L444.856530,337.363581L444.206645,338.396751L443.503822,339.406205L444.006437,340.881358L444.159963,342.232044L443.654129,343.324759L444.343024,344.909857L444.234666,346.177442L443.094189,347.008513L443.027269,348.297502L442.345087,349.319809L442.864260,350.882160L442.484169,352.047067L440.691995,352.553106L440.209842,353.662276L439.191436,354.512366L438.281184,355.407673L438.227043,356.725399L436.669643,357.286032L435.311871,357.933071L435.579278,359.420945L436.208898,361.116230L436.438506,362.614781L436.064118,363.794182L434.743100,364.447181L433.844343,365.327630L433.124986,366.306389L432.820239,367.526179L432.871517,368.963314L432.643158,370.243530L431.061935,370.701365L429.386061,371.083038L428.705583,372.074279L428.218736,373.188883L428.834838,375.023646L429.047210,376.616099L427.032162,376.734798L423.822452,376.016900L421.380668,375.778621L419.953115,376.213940L419.301628,377.183897L418.542105,378.076742L417.645706,378.868349L417.670400,380.335764L418.432506,382.369902L419.303357,384.516912L419.924139,386.504727L418.927957,387.259911L419.016669,388.867464L419.539124,390.840702L420.032032,392.817888L418.198473,392.907385L415.842202,392.537280L414.041217,392.601422L412.160152,392.573709L412.097602,394.100476L411.729952,395.375432L410.586484,395.968248L410.210850,397.247111L409.833436,398.534720L409.096745,399.499432L408.617243,400.708223L407.702326,401.510661L406.521894,402.054609L405.420486,402.667202L403.251644,402.214321L402.425965,403.076637L401.033935,403.362685L399.452323,403.438433L400.173486,405.902346L399.691978,407.135674L399.923809,409.145986L400.235981,411.275537L398.627413,411.322115L396.231726,410.468411L393.885882,409.626557L391.934318,409.193250L391.289659,410.247294L391.598610,412.433085L391.602840,414.293284L391.547734,416.111296L389.633599,415.676526L387.534514,414.979091L385.542922,414.377662L382.809283,412.791177L381.621551,413.144193L381.047273,414.293246L381.002950,416.160487L382.166265,419.690782L382.019104,421.506136L381.319163,422.585333L379.567038,422.194067L377.681306,421.581353L377.129777,422.863475L376.101345,423.462694L376.316784,425.912693L375.821150,427.339846L375.174448,428.557594L373.921052,428.848061L372.460762,428.801328L371.859624,430.109946L370.721312,430.565514L370.430222,432.413268L369.689378,433.544800L368.100965,433.251071L367.122303,433.981726L365.908786,434.304608L365.148233,435.424909L366.168284,439.780010L366.722025,443.397902L365.400656,443.614613L364.016260,443.699608L361.154115,440.922269L358.031191,437.524579L357.314857,438.784517L355.726785,438.304963L354.203323,437.924051L353.249145,438.703220L351.756446,438.345418L351.178758,439.938542L350.619515,441.610803L349.399950,441.844180L348.456484,442.698543L347.495089,443.524737L346.594075,444.506763L345.755059,445.657443L344.720199,446.352797L343.693141,447.076747L342.445322,447.247469L341.458157,448.086134L340.335133,448.579951L338.797464,447.952223L337.287954,447.358830L335.476250,445.869195L333.920291,445.036538L332.887907,445.694421L331.849398,446.346072L331.159763,448.085439L330.287082,449.310702L329.152696,449.731889L328.174517,450.672172L327.048104,451.139557L326.118713,452.296430L325.034170,452.943212L323.609565,452.365636L322.565622,453.166072L321.214465,452.810977L319.854760,452.385233L318.872799,453.454684L317.382014,452.439592L316.265211,452.959309L315.192769,453.691546L313.923392,453.550118L313.042361,455.222305L311.675710,454.612303L310.468836,454.752581L309.226625,454.700545L307.819570,453.730050L306.579203,453.610603L305.362802,453.605831L304.264640,454.308412L303.170108,455.078366L302.149948,456.398031L301.049897,457.266498L299.787723,457.013468L298.451383,456.144228L297.165696,455.575530L295.973577,455.730457L294.898615,456.958704L293.838979,458.479056L292.705159,459.420849L291.371707,458.251250L290.089513,457.495745L288.867308,457.379545L287.671530,457.604373L286.496094,458.183190L285.307255,458.642087L284.073297,458.294132L282.767264,456.139334L281.576183,456.349113L280.366737,456.013722L279.185621,456.695138L278.024891,459.143803L276.800931,458.422213L275.589048,458.442610L274.382110,456.942319L273.187521,456.184209L271.965338,457.680759L270.751743,457.944180L269.506949,459.124231L268.266868,459.733569L267.055072,459.485211L265.813384,459.890679L264.570208,460.212882L263.408762,459.154256L262.185352,459.173424L260.956432,459.246787L259.708433,459.523744L258.432751,460.053724L257.381622,458.160714L256.148824,458.264157L254.945202,458.073470L253.679767,458.421270L252.358523,459.169789L251.336687,457.516042L250.313746,456.017927L249.201526,455.269224L247.896164,455.861374L246.516085,456.864045L245.226413,457.214750L243.918283,457.630274L242.749350,457.211654L241.573290,456.847048L240.517705,455.860844L239.660212,453.924287L238.598981,453.098968L237.877893,450.701825L236.541937,451.258858L235.098163,452.244941L233.803611,452.513267L232.361354,453.367990L231.867785,450.302432L230.572475,450.559006L229.533100,449.801876L228.488877,449.087008L227.009025,449.981540L226.243369,448.276704L225.376832,446.989856L224.464895,445.902966L223.072274,446.438774L221.811093,446.509861L220.497547,446.726653L218.962636,447.599423L217.799848,447.296602L216.421684,447.625227L215.028501,447.966754L213.640778,448.262023L212.425094,448.052698L211.309060,447.565114L210.082177,447.374525L209.303367,446.008244L208.215979,445.465688L207.833095,443.163160L206.921470,442.229401L205.664775,442.145470L204.532748,441.752812L202.938310,442.431906L201.843684,441.929234L200.966485,440.939899L199.830372,440.538196L198.544261,440.457828L197.394230,440.073518L195.560968,441.113568L194.339415,440.843657L193.644463,439.500274L192.520061,439.037346L191.796503,437.787511L190.832268,437.023441L189.401757,437.149252L188.131381,436.954731L187.039303,436.421159L185.647773,436.427114L184.380992,436.192853L183.460516,435.340900L182.528526,434.516279L182.224864,432.630501L181.300832,431.820914L180.778904,430.353963L180.514725,428.493087L179.317185,428.162340L179.411754,425.784634L177.991516,425.812179L176.416445,426.057836L175.696607,424.986232L173.718031,425.800544L172.843548,424.952434L171.236743,425.169009L169.428931,425.647281L168.399687,424.997429L168.076108,423.366897L168.433238,420.830245L168.104673,419.269164L167.424126,418.199917L165.957689,418.172270L163.554838,419.338689L161.979474,419.396622L160.584995,419.204961L160.504386,417.364516L159.961224,416.120432L159.540966,414.740482L158.804818,413.754137L157.461849,413.488565L158.073897,410.936612L158.295516,408.879480L158.431566,406.953066L156.795137,407.036930L154.085751,408.280792L151.862505,408.942326L150.468933,408.674658L150.309324,407.085332L149.508482,406.186338L148.374726,405.632615L147.190260,405.123140L145.081013,405.534083L144.017220,404.875303L143.054759,404.111977L142.168615,403.272124L141.984668,401.762098L142.233766,399.861294L142.722045,397.765255L142.669793,396.196232L142.613918,394.648672L141.527719,394.037648L139.477191,394.268180L137.096915,394.755463L135.226475,394.769042L134.104069,394.125439L133.444871,393.087821L133.131065,391.768631L132.479120,390.734175L132.127345,389.461711L133.306394,386.988130L132.470982,386.126374L131.482222,385.380409L130.268034,384.800007L127.984258,385.009788L127.491975,383.865299L127.463229,382.388048L127.031139,381.214085L126.087711,380.407473L125.527794,379.328280L124.388620,378.650273L123.365695,377.884542L122.938628,376.713621L122.144675,375.789303L120.947499,375.124627L120.205115,374.158552L120.536473,372.512997L120.596167,371.054475L120.476507,369.718619L120.014588,368.598661L118.045824,368.378006L117.443080,367.332639L117.843423,365.708435L118.280043,364.081222L119.243987,362.176791L118.485267,361.248368L116.863908,360.784650L115.638897,360.091265L114.250175,359.472653L113.029278,358.753253L112.624302,357.607579L112.104411,356.521758L111.513264,355.471320L111.153943,354.307694L110.543220,353.266398L110.403378,352.003292L109.534735,351.081233L109.548342,349.754696L109.766482,348.345444L109.239651,347.272119L109.179490,345.998207L108.437426,345.017340L107.897556,343.948699L107.746935,342.721146L106.629276,341.882298L106.330839,340.713940L104.942712,339.963922L103.358145,339.272944L103.007653,338.111651L101.959137,337.202271L101.551939,336.057619L101.530534,334.779962L101.186734,333.616551L101.373110,332.278878L101.295900,331.034510L100.917544,329.889371L100.044943,328.896259L99.165916,327.897608L98.400427,326.857986L98.061652,325.690047L99.837705,323.931280L102.184059,322.047162L104.450876,320.221850L105.802079,318.669139L104.632103,317.772507L101.486973,317.345440L100.456785,316.376891L97.787120,315.775007L96.338041,314.867359L96.652837,313.561881L95.557638,312.559411L96.109844,311.211781L95.800880,310.043446L94.848457,308.995472L94.799975,307.773138L94.328773,306.627096L94.271694,305.407807L94.605426,304.127369L93.576803,303.064813L94.965942,301.633177L95.685177,300.317260L95.187286,299.176941L95.688714,297.904424L94.548417,296.839365L94.271434,295.662252L94.474466,294.431589L93.864925,293.287395L92.752344,292.184108L91.895555,291.045087L91.718776,289.841006L90.664748,288.701082L90.515883,287.487087L90.387493,286.270962L89.505653,285.095126L90.641784,283.812031L91.162171,282.570109L91.778355,281.332428L93.440065,280.074231L93.260517,278.877741L93.713871,277.669894L94.287742,276.467294L93.031837,275.275173L93.234013,274.073909L92.806575,272.867868L92.987132,271.667124L93.313069,270.472100L92.959595,269.259564L92.476812,268.036919L91.640079,266.791430L91.723286,265.581420L91.502462,264.354049L91.726512,263.151578L91.571867,261.924045L91.462845,260.696866L91.910151,259.514036L93.211650,258.413734L93.138573,257.194735L93.931606,256.063769L93.973697,254.858173L93.129903,253.546862L93.734621,252.402922L94.594395,251.298602L95.175987,250.165316L96.729711,249.178461L96.397433,247.924354L95.073804,246.506344L94.649266,245.216332L93.999852,243.879222L94.024822,242.651023L94.832506,241.565502L95.683438,240.496323L95.706892,239.270783L96.975373,238.298993L97.013884,237.079286L97.488088,235.952490L97.298861,234.678152L97.654361,233.524876L98.381960,232.462353L97.829590,231.088837L98.474895,230.008757L98.014111,228.643868L97.563689,227.270935L98.232382,226.196128L97.403959,224.702239L97.908236,223.578751L98.922860,222.609471L99.763153,221.596679L101.229702,220.786308L101.484504,219.605160L101.640377,218.390087L101.211836,216.976703L101.409687,215.765141L102.265230,214.780012L102.325337,213.518447L102.641324,212.344746L102.930125,211.159493L102.642475,209.754024L103.088985,208.621172L104.101293,207.711216L104.213151,206.448496L105.283058,205.572460L108.838010,205.741649L109.011550,204.523169L110.536495,203.884494L111.090042,202.834686L109.265969,200.720474L109.987840,199.730843L110.692864,198.736978L111.675119,197.877252L111.692400,196.561679L112.517505,195.632554L111.869798,193.976838L111.560556,192.472537L112.342953,191.514362L111.955946,189.950034L113.261499,189.266932L114.271745,188.437300L115.417483,187.689271L116.358442,186.837205L117.902471,186.331721L118.654432,185.388952L118.839322,184.118969L120.207376,183.540708L119.903752,181.973393L120.222781,180.768660L120.933833,179.800664L121.545002,178.771532L121.878269,177.565111L121.947722,176.182595L121.798715,174.646054L121.590482,173.054818L122.619842,172.281042L123.425678,171.361171L124.237012,170.447461L125.064023,169.547136L125.560471,168.413613L127.301195,168.175877L129.401413,168.222613L130.611682,167.635946L130.815084,166.300491L130.215375,164.340546L129.803328,162.498144L130.235199,161.294166L131.175446,160.488128L132.003273,159.595327L132.943058,158.795535L133.540699,157.715864L137.056008,159.083992L138.005721,158.329125L138.448327,157.140645L139.738139,156.685472L138.530155,154.028010L139.444007,153.229237L140.565836,152.622399L141.028148,151.414744L141.071324,149.806627L142.391522,149.388734L142.890631,148.195012L143.570013,147.168028L145.183218,147.057138L145.686394,145.857692L146.823661,145.290681L148.285710,145.064205L149.632433,144.734260L150.659421,144.081020L151.270651,142.988708L151.517394,141.494949L151.163264,139.324664L151.518548,137.905637L152.443646,137.111466L155.302766,138.522861L157.581495,139.323110L158.740272,138.854501L160.842578,139.513831L161.036941,137.916564L162.619055,137.988201L165.492822,139.678219L166.748088,139.407066L166.803191,137.624284L166.048790,134.770171L165.791342,132.505463L165.106776,129.632942L166.577785,129.591551L169.318449,131.295494L170.974848,131.571911L172.848408,132.179118L173.102539,130.526560L172.089269,127.023730L171.513836,124.078714L171.498013,121.896506L172.380111,121.018346L173.715469,120.824324L174.586841,119.927634L176.212173,120.205496L177.283658,119.630255L178.457213,119.221806L180.609184,120.422513L181.671217,119.866514L183.220876,120.135160L183.704067,118.603638L183.748647,116.280603L184.583735,115.300399L186.346980,115.973152L188.710888,117.780039L190.369551,118.357240L191.300695,117.602816L191.003441,114.494577L191.184358,112.231470L192.131668,111.424748L192.980041,110.410854L194.256348,110.254212L195.151205,109.318900L196.065611,108.410834L197.410803,108.414246L198.585988,108.064386L200.203421,108.703296L201.384631,108.395699L202.193362,107.236332L203.425906,107.046475L204.373099,106.185126L205.523254,105.803126L206.946360,106.101499L207.944288,105.353267L208.795506,104.214544L209.747685,103.313414L210.992559,103.178911L212.219210,103.006377L213.866240,104.019713L215.947407,106.333365L216.779375,105.119039L217.688422,104.098026L218.351264,102.297633L218.890337,100.046236L220.264363,100.371233L221.865890,101.471758L222.995658,101.064596L223.554168,98.696617L224.470293,97.482811L225.831476,97.827425L227.306638,98.628766L228.969616,100.203450L230.237246,100.339106L231.265231,99.537689L232.563815,99.823617L233.879611,100.216373L235.288528,101.057608L236.173854,99.602832L236.974452,97.675490L237.966508,96.559031L239.121694,96.195671L240.634456,97.668501L241.788470,97.347006L242.836646,96.430149L243.805833,95.002064L244.667245,92.826804L245.883369,92.704440L247.007168,91.984656L248.249528,92.026361L249.383056,91.308816L250.556155,90.833750L251.917281,91.817388L253.458342,94.437094L254.840659,95.975820L256.117418,96.729206L257.259874,96.247566L258.236161,93.918454L259.415824,93.612355L260.545458,92.640975L261.740673,92.412298L263.000009,93.127042L264.277463,94.324646L265.544488,95.643494L266.708993,95.135357L267.852185,93.935255L268.995683,92.280149L270.160414,90.619823L271.390269,91.179332L272.603320,91.040868L273.819606,91.154077L275.034120,92.200553L276.242908,92.054735Z" />
<line x1="50" y1="550" x2="100" y2="550" fill="none" stroke="black" stroke-width="1.0" stroke-linejoin="round" stroke-miterlimit="10" />
<text x="125" y="553" style="text-anchor:start;fill:black">GC-content</text>
</g>
<g style="fill:pink;stroke:black">
<a href="" title="CP002588:1 [212000-234099];"><path  d="M423.232508,99.138908L426.279130,101.752706L429.279672,104.419278L432.233219,107.137810L435.138870,109.907474L421.213751,124.263346L421.213751,124.263346L418.560765,121.734522L415.864048,119.252384L413.124423,116.817689L410.342724,114.431177Z" />
</a><a href="" title="CP002588:2 [274000-296099];"><path  d="M455.902758,132.964117L458.354074,136.142938L460.749538,139.364057L463.088421,142.626491L465.370010,145.929248L448.816097,157.152791L448.816097,157.152791L446.732906,154.137231L444.597404,151.158486L442.410241,148.217465L440.172084,145.315063Z" />
</a><a href="" title="CP002588:3 [410000-432099];"><path  d="M499.638803,225.629887L500.466217,229.557894L501.224952,233.499743L501.914776,237.454234L502.535480,241.420161L482.749786,244.340147L482.749786,244.340147L482.183056,240.719083L481.553217,237.108461L480.860459,233.509382L480.104994,229.922941Z" />
</a><a href="" title="CP002588:4 [471000-488599];"><path  d="M504.974746,271.591766L504.999202,275.605898L504.953598,279.619845L504.837947,283.632385L484.852039,282.881743L484.852039,282.881743L484.957633,279.218120L484.999271,275.553211L484.976942,271.888134Z" />
</a><a href="" title="CP002588:5 [744500-765099];"><path  d="M419.996083,453.538892L416.858066,456.042230L413.676838,458.490421L410.453368,460.882719L398.674814,444.719004L398.674814,444.719004L401.617983,442.534732L404.522582,440.299427L407.387728,438.013771Z" />
</a><a href="" title="CP002588:6 [790500-816599];"><path  d="M391.297957,473.430807L387.817149,475.430264L384.301976,477.368668L380.753509,479.245429L377.172828,481.059975L368.288234,463.141716L368.288234,463.141716L371.557552,461.484957L374.797457,459.771393L378.006962,458.001546L381.185091,456.175954Z" />
</a><a href="" title="CP002588:7 [969000-987099];"><path  d="M261.309698,504.592194L257.304847,504.318297L253.305386,503.974548L249.312533,503.561051L251.546226,483.686177L251.546226,483.686177L255.191874,484.063718L258.843556,484.377576L262.500159,484.627656Z" />
</a><a href="" title="CP002588:8 [1160000-1202099];"><path  d="M128.500953,452.307725L125.428819,449.723959L122.402246,447.086970L119.422155,444.397563L116.489456,441.656555L113.605040,438.864782L110.769786,436.023094L107.984559,433.132357L122.507640,419.381717L122.507640,419.381717L125.050674,422.021086L127.639384,424.615670L130.272981,427.164681L132.950664,429.667340L135.671616,432.122886L138.435009,434.530571L141.240000,436.889662Z" />
</a><a href="" title="CP002588:9 [1262000-1284099];"><path  d="M78.117665,393.900572L76.072550,390.446393L74.088030,386.957047L72.164710,383.433598L70.303176,379.877119L88.102900,370.757370L88.102900,370.757370L89.802561,374.004589L91.558636,377.221652L93.370589,380.407576L95.237868,383.561392Z" />
</a><a href="" title="CP002588:10 [1343500-1382099];"><path  d="M53.583243,337.246443L52.530616,333.372707L51.545754,329.481191L50.628960,325.573079L49.780511,321.649562L49.000666,317.711835L48.289662,313.761097L47.647717,309.798553L67.417480,306.772592L67.417480,306.772592L68.003604,310.390567L68.652782,313.997762L69.364814,317.593078L70.139485,321.175420L70.976558,324.743696L71.875779,328.296820L72.836874,331.833709Z" />
</a><a href="" title="CP002588:11 [1688000-1710099];"><path  d="M125.641733,100.094002L128.717012,97.513980L131.836849,94.988022L135.000296,92.516897L138.206388,90.101358L150.101485,106.179501L150.101485,106.179501L147.174183,108.384993L144.285819,110.641237L141.437272,112.947547L138.629409,115.303219Z" />
</a></g>
<text x="275" y="280" style="text-anchor:middle" font-size="25" font-weight="bold">CP002588</text>
<path  style="fill:pink;stroke:black" d="M350,550L375,550L375,565L350,565Z" />
<text x="405" y="565" style="text-anchor:start;fill:black">Selected loci;</text>
</svg>