<svg xmlns="http://www.w3.org/2000/svg" viewbox="0 0 550 650">
<circle cx="275" cy="275" r="240" fill="none" stroke="black" stroke-width="1.0" />
<line x1="275" y1="15" x2="275" y2="55" fill="none" stroke="grey" stroke-width="1.0" stroke-linejoin="round" stroke-miterlimit="10" />
<line x1="495" y1="275" x2="535" y2="275" fill="none" stroke="grey" stroke-width="1.0" stroke-linejoin="round" stroke-miterlimit="10" />
<line x1="275" y1="495" x2="275" y2="535" fill="none" stroke="grey" stroke-width="1.0" stroke-linejoin="round" stroke-miterlimit="10" />
<line x1="15" y1="275" x2="55" y2="275" fill="none" stroke="grey" stroke-width="1.0" stroke-linejoin="round" stroke-miterlimit="10" />
<text x="275" y="10" style="text-anchor:middle" font-size="15">Caldivirga maquilingensis IC-167, complete genome.</text><text x="285" y="25" style="text-anchor:start">2,077,567</text><text x="525" y="265" style="text-anchor:start">0.51 Mbp</text><text x="285" y="530" style="text-anchor:start">1.03 Mbp</text><text x="-200" y="25" style="text-anchor:end" transform="rotate(-90)">1.55 Mbp</text><circle cx="346.481786" cy="45.892265" r="2.500000" fill="grey" stroke="black" stroke-width="1.0" />
<circle cx="411.475250" cy="77.580381" r="2.500000" fill="grey" stroke="black" stroke-width="1.0" />
<circle cx="464.081010" cy="127.188053" r="2.500000" fill="grey" stroke="black" stroke-width="1.0" />
<circle cx="499.524099" cy="190.212449" r="2.500000" fill="grey" stroke="black" stroke-width="1.0" />
<circle cx="514.587389" cy="260.932916" r="2.500000" fill="grey" stroke="black" stroke-width="1.0" />
<circle cx="507.903602" cy="332.930236" r="2.500000" fill="grey" stroke="black" stroke-width="1.0" />
<circle cx="480.079417" cy="399.669293" r="2.500000" fill="grey" stroke="black" stroke-width="1.0" />
<circle cx="433.640404" cy="455.092260" r="2.500000" fill="grey" stroke="black" stroke-width="1.0" />
<circle cx="372.801781" cy="494.168455" r="2.500000" fill="grey" stroke="black" stroke-width="1.0" />
<circle cx="303.085800" cy="513.350976" r="3.000000" fill="black" stroke="black" stroke-width="1.0" />
<circle cx="230.820503" cy="510.898648" r="2.500000" fill="grey" stroke="black" stroke-width="1.0" />
<circle cx="162.565329" cy="487.034065" r="2.500000" fill="grey" stroke="black" stroke-width="1.0" />
<circle cx="104.515723" cy="443.923389" r="2.500000" fill="grey" stroke="black" stroke-width="1.0" />
<circle cx="61.940783" cy="385.479727" r="2.500000" fill="grey" stroke="black" stroke-width="1.0" />
<circle cx="38.704988" cy="317.007945" r="2.500000" fill="grey" stroke="black" stroke-width="1.0" />
<circle cx="36.917425" cy="244.723149" r="2.500000" fill="grey" stroke="black" stroke-width="1.0" />
<circle cx="56.740350" cy="175.186549" r="2.500000" fill="grey" stroke="black" stroke-width="1.0" />
<circle cx="96.374456" cy="114.709903" r="2.500000" fill="grey" stroke="black" stroke-width="1.0" />
<circle cx="152.222202" cy="68.782609" r="2.500000" fill="grey" stroke="black" stroke-width="1.0" />
<circle cx="219.214351" cy="41.573435" r="3.000000" fill="black" stroke="black" stroke-width="1.0" />

<circle cx="275" cy="275" r="185" fill="white" stroke="grey" stroke-width="0.5" />
<circle cx="275" cy="275" r="170" fill="none" stroke="black" stroke-width="0.5" />
<circle cx="275" cy="275" r="170" fill="aliceblue" stroke="black" stroke-width="0.5" />
<circle cx="275" cy="275" r="168" fill="white" stroke="none" stroke-width="0.5" />
<circle cx="275" cy="275" r="140" fill="none" stroke="black" stroke-width="0.5" />
<circle cx="275" cy="275" r="140" fill="aliceblue" stroke="black" stroke-width="0.5" />
<circle cx="275" cy="275" r="133" fill="white" stroke="none" stroke-width="0.5" />
<circle cx="275" cy="275" r="110" fill="none" stroke="black" stroke-width="0.5" />
<circle cx="275" cy="275" r="110" fill="white" stroke="black" stroke-width="0.5" />
<circle cx="275" cy="275" r="109" fill="aliceblue" stroke="none" stroke-width="0.5" />
<circle cx="275" cy="275" r="80" fill="none" stroke="black" stroke-width="0.5" />

<g style="fill:none;stroke-linejoin:round;stroke-miterlimit:10">
<path style="stroke:blue;stroke-width:1.0" d="M276.872201,120.225004L277.833312,118.862635L278.729610,120.868658L279.619870,122.280590L280.532833,122.605652L281.529540,120.870558L282.470710,120.726440L283.583657,117.471976L284.664528,115.409650L285.569352,116.375882L286.670904,114.485632L287.359123,118.143870L288.279538,118.552698L289.114340,119.858565L289.746407,123.099430L290.650110,123.334899L291.569525,123.410872L292.491079,123.470898L293.419296,123.480718L294.365517,123.359328L295.502578,121.834166L296.520784,121.302878L297.230105,122.940252L298.453787,121.080163L299.768780,118.800523L300.933557,117.615349L301.801257,118.265016L302.487701,119.903154L303.595235,119.146108L304.286105,120.646398L305.265848,120.588303L305.809967,122.698584L306.518453,123.904766L307.600273,123.314217L308.754484,122.441542L308.870108,126.191930L310.092258,125.020364L311.708014,122.284749L312.275298,123.951169L312.697231,126.118603L313.677005,126.041444L314.533549,126.442450L315.746471,125.528451L316.861999,125.017430L317.027375,127.867651L318.027304,127.745494L319.015071,127.680848L319.958058,127.777121L320.803788,128.192559L321.771969,128.217955L323.680053,125.364773L325.041234,124.285579L325.846341,124.902694L325.330157,129.331873L325.750765,130.943414L326.675658,131.101294L327.686564,131.029909L329.373084,129.160745L330.950913,127.657572L333.711831,123.160643L335.712301,120.766955L344.011276,102.748550L346.603478,99.363209L348.897688,96.826240L341.414944,117.565514L337.204303,130.001964L336.720994,133.496999L337.424777,134.213413L338.172025,134.822493L339.009524,135.227285L339.475340,136.430339L340.422254,136.590251L341.185501,137.139998L342.183310,137.204088L343.588977,136.454681L343.741738,138.232921L344.291056,139.193467L345.399613,139.058180L346.336529,139.265860L346.918654,140.145287L348.263265,139.602809L349.036842,140.128651L350.138080,140.063863L352.331256,138.080300L351.114036,142.118947L352.152383,142.175464L353.503631,141.711987L354.591935,141.714440L355.246203,142.446834L356.663957,141.928471L357.996714,141.573852L359.473367,141.013794L359.776384,142.318896L359.416346,144.627177L360.172051,145.187893L361.176095,145.373872L361.478987,146.609496L361.250261,148.605808L361.816617,149.414161L363.004966,149.327062L363.840447,149.753181L366.498853,147.644827L366.336558,149.479942L365.845416,151.729074L366.474675,152.434486L369.137423,150.445572L369.643213,151.338493L370.539393,151.719738L371.285275,152.297370L371.192291,153.930929L371.945876,154.486313L371.703377,156.265471L372.300596,156.997103L373.604327,156.878900L376.134445,155.326863L376.645517,156.187323L376.170162,158.180848L376.575290,159.136672L377.043301,160.013405L376.963805,161.493380L377.761202,161.988238L378.501790,162.547859L379.304514,163.042378L380.268676,163.368972L382.353866,162.528524L386.693437,159.390301L384.535951,162.987265L384.351996,164.520181L383.771891,166.427686L384.025383,167.483258L385.573245,167.268254L386.112870,168.044893L387.906815,167.626178L388.345069,168.507560L388.489074,169.657380L388.106093,171.279351L388.670891,172.020182L389.977098,172.096176L391.287422,172.183429L390.923783,173.747625L392.169100,173.902746L394.255884,173.354030L394.404736,174.467693L397.511152,173.112169L394.043024,177.208466L395.031288,177.606591L394.715629,179.057712L394.947559,180.057598L395.480516,180.815422L395.962492,181.611890L396.393097,182.445923L396.931557,183.196280L398.906921,182.878011L404.131402,180.201117L404.188714,181.356288L405.101943,181.889506L401.296225,185.763376L400.719338,187.306204L401.219559,188.087442L401.478813,189.032010L402.196765,189.664229L404.209428,189.442682L405.611470,189.646190L406.566638,190.153177L407.246012,190.843240L408.259882,191.326168L408.706742,192.168923L407.720621,193.886550L407.150202,195.329020L406.602829,196.740428L407.745943,197.143640L407.924506,198.115682L407.668975,199.330690L408.180416,200.102938L408.398587,201.038716L409.254185,201.622480L410.735940,201.875385L414.421370,200.974477L423.185511,197.466499L421.361817,199.544785L418.393583,202.169475L416.981666,203.963633L412.716560,207.135932L414.981256,207.069114L416.628816,207.324892L418.165119,207.651408L418.735181,208.442030L415.489335,210.974155L414.557172,212.415629L415.644413,212.947088L416.143145,213.744248L415.530727,215.017520L415.777163,215.916388L416.267140,216.713193L417.562954,217.185144L418.644197,217.755933L418.138673,218.958277L418.403592,219.852556L417.930829,221.024456L418.468365,221.810751L419.586187,222.388866L424.276176,221.702529L420.613957,224.000995L419.451433,225.386993L419.874056,226.219475L420.296743,227.053655L421.535628,227.625741L421.995330,228.457263L421.566967,229.566444L421.049893,230.693212L421.760901,231.445146L423.237935,231.980667L423.182784,232.966764L422.206779,234.204017L423.529553,234.803220L423.672099,235.728198L423.181882,236.815004L423.313399,237.736294L424.986460,238.278963L424.102355,239.449935L425.396823,240.101330L424.308368,241.304310L426.453771,241.781578L425.904956,242.857367L426.217879,243.745649L427.905672,244.359991L425.604601,245.767481L424.981457,246.828697L426.683658,247.457746L428.008904,248.172078L427.581974,249.197217L429.388448,249.851298L429.586190,250.777994L431.751506,251.409209L428.189991,252.891932L427.407498,253.945102L426.736670,254.972317L426.444974,255.942074L426.521655,256.862735L428.415745,257.576588L427.996445,258.560926L427.682439,259.528247L426.893138,260.535847L427.185751,261.436317L427.384277,262.347167L429.524734,263.110080L433.651287,263.757425L430.272316,264.940374L429.439561,265.932033L427.296955,266.981879L428.152193,267.865492L427.690715,268.812310L427.384682,269.747724L429.442954,270.611871L431.862726,271.492533L433.377467,272.416986L432.163427,273.387575L432.041490,274.338760L428.256985,275.281689L427.672640,276.204096L428.683485,277.141751L428.627272,278.070468L427.599028,278.973419L427.458386,279.892698L428.248517,280.846140L428.920345,281.804353L428.208154,282.701635L428.300559,283.636171L427.962506,284.545600L428.960280,285.543101L427.791655,286.391979L427.509541,287.298972L428.085293,288.277843L427.362110,289.144127L427.017725,290.040107L426.755985,290.941674L426.598398,291.852797L426.490344,292.769049L427.310277,293.799836L427.048652,294.701946L426.618142,295.579380L426.569217,296.507189L426.590910,297.446456L426.539111,298.376334L425.882217,299.210229L426.121940,300.187227L426.429659,301.180856L426.655823,302.165683L426.820219,303.143935L426.528014,304.038871L427.043448,305.092192L426.179563,305.872609L424.458699,306.464080L424.717228,307.465436L424.750571,308.422296L424.236865,309.256575L423.819132,310.109592L425.152974,311.384421L424.952082,312.297420L424.907214,313.250547L423.541007,313.860396L422.698344,314.595980L422.441381,315.484565L422.090224,316.346515L422.742507,317.495769L425.975088,319.416044L424.116692,319.851084L426.213093,321.480837L423.371139,321.591334L421.912482,322.111398L422.859259,323.403245L423.456373,324.594883L425.122775,326.163007L423.027275,326.450274L421.480685,326.907864L419.967952,327.360899L419.590156,328.215282L419.503239,329.177955L423.299367,331.626652L424.220425,333.014927L420.435333,332.558381L417.718297,332.483935L417.434557,333.373405L416.288197,333.904220L416.758874,335.109483L416.384213,335.962160L415.302568,336.504829L414.498204,337.160820L413.985314,337.942602L413.536708,338.752038L413.720135,339.856046L414.034325,341.030644L413.188581,341.656319L412.063046,342.138343L413.168497,343.719173L411.749115,344.048104L411.099573,344.756401L412.215275,346.379502L409.901355,346.215856L410.092942,347.365203L409.405465,348.046595L409.522402,349.167643L408.379524,349.593056L408.754309,350.868336L407.350900,351.134050L407.225925,352.130323L408.214708,353.790874L411.833666,357.052542L411.428349,357.935519L410.735057,358.642636L406.978736,357.433468L404.669816,357.085773L403.372009,357.356038L403.108915,358.285328L402.891954,359.249150L402.333795,359.990313L402.268302,361.063865L403.180651,362.815350L402.320006,363.362009L399.980433,362.863114L399.812927,363.878245L399.359209,364.693694L398.789060,365.425725L397.589040,365.691348L397.036602,366.429946L396.472482,367.159691L395.919151,367.897598L395.359021,368.630381L394.960814,369.490829L395.323294,370.961343L396.267845,372.920528L395.982967,373.905351L393.312347,372.921925L392.379713,373.352390L391.912324,374.170543L391.777127,375.276707L392.263733,376.933288L391.000394,377.073452L390.006042,377.439346L388.996319,377.783251L388.481133,378.569991L387.428852,378.863024L387.542125,380.236441L386.068650,380.125024L386.165679,381.498971L386.454543,383.076135L383.912935,381.897334L383.424615,382.713342L383.218980,383.817521L384.776926,386.727631L381.915730,385.140331L381.070944,385.600819L380.614153,386.466364L380.185205,387.367212L379.505599,388.003515L379.573351,389.457921L380.476834,391.858450L380.749370,393.594784L378.530968,392.530393L376.865644,392.059836L375.981552,392.471208L374.822560,392.553909L373.877599,392.878835L372.622985,392.823240L373.823144,395.751002L375.103277,398.835924L373.671581,398.586392L371.045831,396.801347L369.468749,396.303246L369.027830,397.255363L369.959504,400.024363L368.201252,399.262774L366.333683,398.319757L365.313249,398.496828L365.100367,399.782809L364.193306,400.114175L363.022183,400.064955L362.418313,400.817013L362.766695,402.963288L364.170576,406.711051L362.698105,406.239098L359.612395,403.294456L358.986115,404.036295L360.433499,408.012929L358.529157,406.794413L357.073371,406.246455L355.595185,405.633702L354.994505,406.432517L353.953105,406.505956L352.977163,406.678700L352.449909,407.611335L351.965507,408.631447L351.247064,409.255194L349.932728,408.819404L349.469290,409.899403L349.813415,412.481691L350.780321,416.287373L350.861631,418.516317L350.110820,419.200321L345.242905,411.868993L344.098073,411.666971L343.542343,412.628922L343.436252,414.524422L341.739039,413.171810L340.644809,413.031997L339.874600,413.567259L339.314084,414.562128L338.511191,415.042148L337.335763,414.690475L336.485440,415.055267L336.064461,416.414103L335.575415,417.646095L334.155365,416.677923L333.264241,416.952506L332.344752,417.154047L331.396014,417.276642L330.532016,417.608998L329.587386,417.730395L328.747375,418.122671L328.285285,419.542617L326.935981,418.551979L326.269228,419.433912L325.552035,420.193345L324.752953,420.730939L323.788493,420.783925L322.645848,420.283650L321.863627,420.872381L321.470087,422.709525L319.920922,420.861441L319.181630,421.607591L318.309416,421.924250L317.735192,423.277332L316.722900,423.126088L315.459309,422.042387L314.623132,422.485263L313.719818,422.682120L312.783101,422.746472L312.026379,423.524350L312.093685,427.724270L310.419028,424.773465L309.407160,424.527317L309.138300,427.576075L309.190852,432.269321L307.628348,429.580349L305.731044,425.078222L305.046478,426.388738L303.964466,425.705144L303.085356,426.054905L302.044819,425.518768L301.205640,426.093214L300.237904,425.929850L299.605584,427.825343L299.209667,431.387975L297.871728,428.896766L296.949243,429.093983L295.819294,427.774649L294.753613,426.812359L293.882023,427.308323L292.983184,427.612839L292.264008,429.547181L291.200748,428.435030L290.315124,428.959809L289.406394,429.293670L288.524926,429.974398L287.514075,429.151295L286.455326,427.544603L285.502117,427.171723L284.592684,427.410077L283.689397,427.795019L282.891278,430.329449L282.313992,438.473800L281.075936,432.074304L279.977207,427.555178L279.059080,427.759506L278.170828,429.525809L277.213163,427.956190L276.285938,427.726964L275.362243,427.777120L274.436742,428.160618L273.512578,427.925361L272.592623,427.596878L271.671108,427.513870L270.746753,427.560047L269.808104,428.001793L268.807375,429.852630L267.757577,432.272149L266.863509,431.130367L266.119252,427.641427L265.208541,427.392113L264.192222,428.677301L263.150891,430.074933L262.294230,429.017313L261.475702,427.664085L260.522679,427.894971L259.572740,428.056695L258.691153,427.549918L257.721881,427.863085L256.590824,429.491013L255.669289,429.276465L254.370860,431.938302L253.888982,428.416923L253.241467,426.338575L252.322384,426.231543L251.098470,428.074372L249.718691,430.725584L248.502729,432.198373L248.117592,428.801549L247.024899,429.536044L246.743068,425.880571L245.913669,425.279643L244.912161,425.566679L243.989865,425.440804L242.740205,426.852222L241.597335,427.682661L240.330209,429.006922L239.601336,427.921709L238.670197,427.733515L237.739577,427.541545L237.355625,425.167154L236.474197,424.834897L235.682093,424.168609L234.715705,424.168200L233.724863,424.244799L230.841320,430.992436L229.300875,432.786255L228.571845,431.748956L228.425880,428.818866L229.054359,423.498774L228.514573,422.086726L227.274577,422.891105L226.035755,423.647601L225.974332,420.859149L224.969112,420.921253L224.317281,419.958520L223.506156,419.467683L222.716057,418.925703L221.988614,418.222788L221.043396,418.111438L219.759980,418.873190L219.076616,418.060996L218.402007,417.243412L217.702469,416.503839L216.763401,416.359115L215.324853,417.399263L213.725735,418.769407L213.414348,417.110653L212.716120,416.371902L212.227098,415.177655L211.092811,415.427283L210.730322,413.987752L210.135271,413.076117L209.297756,412.688670L207.675050,413.921114L207.140891,412.891821L206.405685,412.283515L205.903179,411.222211L205.093975,410.775600L204.207649,410.477276L203.402437,410.022210L202.379774,409.971932L201.574168,409.512901L200.310426,409.881637L199.768671,408.941857L199.471362,407.586507L198.724323,407.034568L197.797850,406.791435L197.023256,406.286465L196.137105,405.967663L195.349787,405.482681L194.015211,405.882227L192.153103,407.099198L191.797158,405.900998L191.118297,405.222433L191.318823,403.201121L188.583317,405.658491L187.581152,405.451927L188.557793,402.322422L187.919656,401.607652L187.755118,400.217959L186.907081,399.818664L186.013418,399.479806L185.533813,398.564048L184.385329,398.569851L183.023514,398.849034L181.575648,399.221784L180.507491,399.072636L179.450028,398.899152L177.549202,399.795687L177.590668,398.199096L177.019888,397.392032L178.895546,393.571851L177.339656,394.012604L176.278386,393.832839L176.007139,392.703581L176.042771,391.226759L175.309660,390.663115L174.496443,390.190330L174.058410,389.289491L172.901758,389.199437L171.518677,389.346898L170.521603,389.054394L170.648568,387.541486L170.583660,386.254151L168.258413,387.361877L167.621132,386.672180L164.920317,388.103664L166.009556,385.637661L166.897350,383.416882L166.125432,382.878081L165.984437,381.718787L164.972194,381.414079L164.140009,380.928692L162.500918,381.200603L160.978149,381.341225L160.759963,380.259918L161.495635,378.319703L160.582342,377.892453L160.943655,376.326490L160.077626,375.858761L158.515129,375.989370L158.772498,374.541217L158.127173,373.874770L156.956050,373.646740L156.113737,373.135488L156.620667,371.519090L156.100381,370.751893L154.975490,370.466770L153.895325,370.135699L154.476375,368.505931L153.163149,368.349754L152.232433,367.889786L151.344051,367.391170L151.309166,366.256650L151.268037,365.136338L150.145923,364.802873L149.716157,363.967127L149.157736,363.223549L147.903452,362.961118L148.709472,361.278221L148.236454,360.481389L147.597928,359.795489L147.030837,359.060473L144.968383,359.293819L145.347409,357.938677L144.546701,357.343207L144.273703,356.413969L144.186486,355.374267L142.350339,355.401271L142.173042,354.414158L142.457367,353.159806L141.658902,352.547518L138.816456,353.102134L139.255194,351.763151L140.726933,349.862647L139.340079,349.563854L140.351715,347.950846L140.450120,346.848229L140.065963,346.007843L138.021995,346.028838L137.941304,345.022033L138.505794,343.695747L137.897942,342.965484L136.814728,342.464335L136.926253,341.378703L136.697626,340.461714L136.045048,339.744738L136.034832,338.729334L135.861657,337.792967L135.246211,337.055994L134.761032,336.258641L134.679305,335.286301L134.198049,334.486810L133.810366,333.646721L133.162054,332.912578L132.586866,332.144888L131.041072,331.756641L130.128284,331.106433L129.926139,330.177959L130.595821,328.925736L131.045217,327.767987L130.879212,326.842154L130.993935,325.819269L130.506098,325.010678L129.981693,324.211986L130.132027,323.185804L129.870714,322.299720L129.266778,321.523345L129.078246,320.612821L129.099656,319.639226L128.872696,318.743835L128.380182,317.926689L127.242789,317.291061L125.142206,316.913287L125.438727,315.856588L122.269942,315.731108L125.128931,313.999222L126.862360,312.592946L125.660859,311.937849L124.618222,311.231920L123.266949,310.587840L124.982887,309.229414L124.966911,308.279629L125.171919,307.284578L125.135903,306.345006L124.825547,305.463023L123.421317,304.794465L123.409730,303.845528L124.713508,302.656571L123.909578,301.860719L123.572706,300.976740L121.265140,300.416329L124.249405,298.987125L124.010677,298.089603L123.497485,297.231129L121.037365,296.641643L114.080225,296.627829L91.349962,298.552820L66.296751,300.483707L59.311421,300.013547L61.357901,298.467502L86.720083,294.529775L81.629029,293.876376L91.475232,291.795216L98.134662,290.107617L111.857562,287.941942L107.796156,287.246892L103.782660,286.500129L112.741420,284.912921L117.371703,283.673394L119.772137,282.599860L121.943844,281.565803L120.866460,280.678244L120.222906,279.764695L121.218259,278.803170L120.649541,277.883188L121.771387,276.935184L121.745785,276.008446L122.045489,275.081298L121.699940,274.154223L122.000251,273.230375L121.961162,272.304053L122.544075,271.391781L122.474191,270.466899L122.135867,269.531236L122.362920,268.614725L122.466965,267.694607L122.072243,266.748301L122.169167,265.826113L121.839133,264.876207L122.510143,263.993798L122.142577,263.037461L121.436364,262.047206L120.903363,261.063057L121.014880,260.133605L119.019807,258.988168L122.662102,258.430330L122.244082,257.449345L117.247282,255.907783L119.286350,255.198207L112.108624,253.283449L101.263555,250.767176L106.081728,250.396728L110.762491,250.063102L117.043564,250.038433L119.185684,249.410018L121.311421,248.803500L120.314875,247.669820L123.680083,247.319527L124.958613,246.614446L125.273534,245.734889L125.096672,244.757850L125.198776,243.834319L125.470197,242.945993L125.121890,241.921875L125.440187,241.042153L125.665698,240.142209L123.826375,238.747287L126.899433,238.535528L127.076967,237.628845L125.900592,236.370763L124.197724,234.954668L125.273390,234.269240L127.421004,233.893168L128.133699,233.132799L126.923435,231.817663L127.275758,230.949170L125.848406,229.539372L127.728165,229.136960L128.655763,228.452963L128.071080,227.286476L128.811994,226.547664L128.369065,225.414531L130.164504,225.043439L129.240202,223.736024L131.137265,223.423325L130.703088,222.280539L130.519539,221.220716L130.724405,220.301143L132.137508,219.846282L132.193657,218.873105L132.823747,218.125562L133.632315,217.454686L133.806575,216.527618L134.162117,215.674370L134.326182,214.739050L134.371672,213.749216L133.284938,212.253394L133.188469,211.181995L134.122225,210.574713L133.097743,209.065499L135.441716,209.125337L136.462697,208.579658L136.723793,207.673204L137.404072,206.971810L138.029180,206.246769L138.777953,205.587910L139.249946,204.790915L139.326370,203.787018L140.375401,203.295687L140.747272,202.447965L140.158834,201.072702L139.073634,199.404872L139.538996,198.587274L141.248148,198.481291L142.619319,198.199241L142.733939,197.192667L143.572224,196.611914L144.091639,195.844325L144.703073,195.133809L145.288117,194.409034L144.983028,193.125358L146.012001,192.679561L146.543631,191.921151L145.697320,190.260193L147.052871,190.037862L148.001576,189.556479L148.363184,188.682512L149.409558,188.278540L149.929250,187.515486L148.396727,185.298213L147.030655,183.162688L149.540036,183.808835L148.528083,181.898986L150.607805,182.264624L150.372079,180.910775L151.901175,180.890848L153.340200,180.819593L154.156335,180.276906L154.979070,179.744208L155.654673,179.098141L156.205725,178.352644L156.514803,177.407166L155.420124,175.285422L155.766462,174.345334L157.327723,174.438072L158.810597,174.482946L159.573938,173.916198L160.623111,173.606085L160.978692,172.682994L161.917280,172.283714L161.658502,170.790547L161.585603,169.450520L160.367260,167.015421L159.294161,164.676077L160.570943,164.564409L161.504750,164.131930L164.203244,165.450496L166.027023,165.942374L167.194939,165.798079L167.938756,165.231399L168.675591,164.659454L169.167932,163.832433L169.021495,162.321669L169.579709,161.547902L168.761396,159.271303L167.897378,156.904143L171.542515,159.527498L172.039441,158.674027L173.714452,159.162211L174.644398,158.815014L174.780350,157.543697L176.062070,157.615277L176.841270,157.099926L177.314825,156.214861L178.317285,155.973588L179.482751,155.944091L179.194362,154.093590L180.593419,154.367323L180.754071,153.060068L181.542148,152.556170L181.425708,150.853798L180.865285,148.525953L180.392135,146.271875L183.676523,149.152649L186.190978,151.047307L185.918436,149.064911L187.408222,149.568647L186.039684,145.953045L188.098426,147.293308L188.391899,146.054540L190.633491,147.735523L190.047066,145.152303L191.173891,145.167251L191.742200,144.319602L190.189303,140.088363L193.405330,143.444875L193.267742,141.426020L193.804845,140.482941L188.557172,129.811265L188.170715,127.134764L189.111887,126.690347L192.782913,131.028345L197.357057,137.108023L198.636699,137.441040L199.837799,137.653523L200.126034,136.193112L200.517092,134.896513L201.825154,135.325216L204.643401,138.705468L205.635432,138.609512L206.085363,137.441320L206.275210,135.723001L208.279855,137.698965L208.701225,136.440369L209.961001,136.934483L210.071858,134.979188L211.465747,135.784924L211.172484,132.872540L213.085367,134.870150L213.528258,133.564487L215.059041,134.772445L215.440343,133.299087L216.269753,132.871814L216.951493,132.078451L217.762833,131.594179L218.935352,132.026034L220.141125,132.572165L220.621430,131.232530L221.059699,129.742058L222.457817,130.841131L223.457774,130.881189L224.180437,130.144536L225.258684,130.424451L226.193179,130.301479L227.063387,129.991060L227.922737,129.646268L228.271197,127.688375L228.900040,126.561470L230.359225,128.129430L231.491422,128.679402L231.916787,126.835375L232.621963,125.902709L233.605892,125.941975L235.010643,127.546854L235.710243,126.578556L236.688894,126.654153L237.020331,124.175285L238.484216,126.193384L239.377537,125.944219L240.167030,125.246827L241.342463,126.227923L242.149823,125.603603L243.091046,125.580843L243.939947,125.122986L244.745649,124.433190L245.558459,123.747143L246.613464,124.312901L247.602535,124.567360L248.454637,124.072921L249.282105,123.408739L250.204028,123.283755L251.032523,122.566540L251.955178,122.425775L253.059576,123.539508L253.952569,123.239934L254.568187,120.831394L255.212453,118.426978L256.535640,121.435474L257.585556,122.384678L258.598355,123.109821L259.483251,122.678444L260.214118,120.595499L261.285492,122.038875L262.278904,122.772035L263.140717,121.934049L264.099873,122.328879L265.053239,122.720814L265.944407,122.155665L266.882807,122.362170L267.802225,122.231603L268.743720,122.613088L269.552657,119.352141L270.567258,121.846147L271.491216,121.713617L272.397611,120.458136L273.332118,120.417743L274.271680,121.366181L275.202675,120.050836L276.139421,120.118762Z" />
<line x1="50" y1="575" x2="100" y2="575" fill="none" stroke="blue" stroke-width="1.0" stroke-linejoin="round" stroke-miterlimit="10" />
<text x="125" y="578" style="text-anchor:start;fill:black">n1_4mer:GRV/n1_4mer:RV</text>
<path style="stroke:green;stroke-width:1.0" d="M276.203412,175.513865L276.872405,171.816024L277.374498,176.870548L277.856676,180.566644L278.427496,180.594287L279.132333,177.456496L279.629456,179.399621L280.367961,176.486710L281.263327,171.573681L281.859777,172.048928L282.364534,173.712779L282.707539,177.179572L283.069188,179.936247L283.760318,178.708689L283.839038,183.950364L284.282703,185.041391L284.751529,185.786475L285.955929,180.086353L286.330101,181.797264L286.669752,183.620613L287.835695,179.110111L288.882237,175.855845L289.350396,176.839524L289.338499,180.900934L290.384514,177.980563L291.866119,172.643492L292.138234,174.774821L292.769023,174.739906L293.578657,173.739913L293.745354,176.201853L294.443169,175.803947L293.437170,183.860428L293.244235,187.539587L293.595857,188.475352L295.274546,183.366148L295.144656,186.494605L297.134671,180.399364L298.301299,178.060304L298.517616,179.700738L298.274782,183.078605L297.642292,187.796684L298.752740,185.742926L300.587782,181.135542L301.386235,180.463775L299.849733,188.004331L299.952507,189.603781L302.139782,184.162711L303.102668,182.972987L303.631758,183.231277L305.474625,179.363064L307.267699,175.813904L306.870317,179.012831L307.503003,179.051834L304.609903,189.301498L304.579225,191.039053L305.923370,188.889185L307.346550,186.610561L308.236841,185.852287L310.199011,182.306111L312.535628,177.926113L313.272461,177.772945L313.832525,178.074407L311.424657,185.653643L313.542064,182.071727L313.730576,183.190417L314.031343,184.018062L312.098356,189.947439L311.809917,191.982601L312.229711,192.387988L313.311654,191.341763L314.637284,189.812005L316.686342,186.806828L316.751474,188.034453L317.966040,186.874769L318.751352,186.625085L316.874913,191.686577L316.170286,194.308578L316.214471,195.414759L318.444054,192.337703L317.924514,194.512216L320.306587,191.269297L319.895205,193.215355L320.565652,193.171277L322.708799,190.528665L322.870919,191.426215L321.713016,194.579482L323.814804,192.119397L324.082598,192.805723L322.551370,196.453172L322.584864,197.460400L325.296594,194.142814L328.096206,190.782222L326.934121,193.719387L326.140118,196.019069L327.697849,194.682351L328.775983,194.110137L330.198495,193.049888L329.753001,194.763010L327.065066,199.684521L325.749901,202.528077L325.792320,203.393241L330.253540,198.093854L327.674357,202.611808L329.193062,201.463776L330.115002,201.152255L334.294286,196.546973L335.560859,195.870743L335.186046,197.338301L336.657696,196.425560L336.871086,197.128116L338.177896,196.463383L333.816301,202.784054L335.832725,201.224114L334.428056,203.809338L338.514168,199.843215L341.405877,197.378672L339.274411,200.783629L338.739373,202.294759L337.870073,204.155413L333.893701,209.439236L336.486926,207.379675L338.600879,205.899214L337.701018,207.698437L337.917213,208.280122L343.293241,203.451187L348.819878,198.591805L345.150749,203.263029L342.121038,207.186696L339.107722,211.009904L339.179771,211.708318L342.096247,209.627985L342.692785,209.840230L344.738984,208.678572L342.537592,211.545604L345.023099,210.003287L341.870279,213.678557L343.245516,213.173170L346.168385,211.304716L347.458781,210.934916L345.374780,213.531909L346.200046,213.566319L348.536950,212.321880L348.630439,213.007166L351.396139,211.464258L346.556871,216.217419L347.531882,216.147618L346.493925,217.703465L347.255927,217.807078L348.346096,217.662338L344.696540,221.191352L348.491401,218.967746L347.586218,220.348972L348.400935,220.428067L358.305213,213.843372L357.197154,215.418583L361.242176,213.278773L356.214390,217.616670L353.912530,219.955650L354.948710,219.948731L351.331213,223.117469L351.087429,223.953266L354.860781,222.119384L356.940776,221.452196L357.626313,221.714606L360.025087,220.892994L361.452327,220.716615L359.516276,222.642324L361.933056,221.870049L356.224475,226.031225L352.080864,229.162723L354.671396,228.272207L355.498690,228.439083L357.366590,228.021247L356.967516,228.903687L355.283449,230.487782L355.699094,230.893372L358.281175,230.134182L362.398114,228.596130L367.888111,226.399159L366.148599,228.009348L364.258237,229.665166L363.278729,230.832324L357.191362,234.497680L362.574203,232.501501L363.905755,232.517780L367.527685,231.472573L368.620557,231.648093L362.542564,235.103828L357.282019,238.100654L359.626710,237.662336L362.459272,237.042907L363.728517,237.128165L359.863925,239.382950L366.029611,237.441192L363.704322,239.026927L363.844016,239.594513L362.865513,240.598851L361.692628,241.661387L358.165498,243.593878L357.081714,244.569147L365.284122,242.147968L371.402366,240.580561L366.380463,242.995426L365.759095,243.828059L364.995885,244.697497L361.234057,246.543699L368.291563,244.839290L369.073745,245.213683L366.581761,246.611031L363.373452,248.190368L360.986312,249.481478L365.583670,248.712201L363.658287,249.851365L360.718943,251.244379L364.577515,250.757500L366.598366,250.804250L365.818276,251.597034L365.241525,252.326839L366.077945,252.701477L363.138519,253.985375L366.050581,253.872265L363.011133,255.137779L366.096900,255.019677L368.092583,255.171356L366.852435,256.015550L369.850930,255.993293L365.794288,257.376728L364.663379,258.158357L368.445521,258.032449L371.440674,258.090508L370.331160,258.878769L371.041078,259.355640L368.640813,260.327484L372.727407,260.292219L369.688206,261.334791L366.849828,262.311066L366.050962,262.982208L365.208784,263.648073L362.512698,264.524659L368.722826,264.355907L368.398815,264.964538L368.341730,265.541413L364.779509,266.450670L365.548361,266.929801L366.331901,267.416492L372.670699,267.484719L373.447127,268.023698L373.996352,268.586324L374.054903,269.183961L368.992046,270.051512L368.588610,270.640228L366.242901,271.302442L366.444977,271.848146L370.116590,272.297488L372.645479,272.816637L377.915044,273.321535L376.592469,273.957708L376.899393,274.570942L364.593499,275.164675L370.117448,275.750170L370.828412,276.335476L371.298134,276.924660L367.496363,277.408448L367.048210,277.954014L365.379178,278.447794L371.879563,279.282753L368.502900,279.700306L368.533160,280.269181L369.478575,280.895920L373.165939,281.722340L371.305003,282.180396L369.244055,282.600213L367.478669,283.021131L365.023278,283.357069L363.896043,283.795067L365.302372,284.486090L364.324277,284.929946L364.880591,285.542537L370.197382,286.750325L366.280629,286.827833L370.844706,288.009159L369.750309,288.444767L369.893806,289.051170L367.761444,289.309326L366.243893,289.640794L368.148452,290.524888L370.105192,291.442851L373.270649,292.602946L371.148463,292.823687L368.501030,292.918564L369.637183,293.730438L368.976002,294.190982L368.185879,294.617513L368.217545,295.213761L371.294575,296.491643L365.102298,295.682531L364.273199,296.061443L366.256582,297.112901L363.936407,297.121057L366.329928,298.303880L365.593677,298.700567L366.066383,299.413697L363.521067,299.306181L362.311649,299.542980L363.797797,300.541266L370.946019,303.226793L371.572172,304.046826L373.298839,305.215719L368.187691,304.262692L365.161574,303.912708L365.432675,304.604064L367.006116,305.736522L371.301317,307.820236L367.847977,307.271444L365.557570,307.090579L362.760739,306.698255L362.680951,307.270292L363.471412,308.170192L371.201614,311.733639L372.922939,313.071143L364.064377,310.248665L361.849433,309.981129L361.712229,310.536938L356.637806,309.035478L361.212344,311.556297L361.846744,312.446650L358.504036,311.605898L356.686499,311.399750L358.157452,312.659708L356.408992,312.462917L358.842738,314.199129L362.359096,316.488873L361.838000,316.886974L358.098271,315.704481L357.243109,315.904247L357.121484,316.465225L358.049738,317.566267L362.348768,320.438903L357.276532,318.434654L356.753292,318.792766L355.685816,318.851075L355.555333,319.413414L355.081564,319.785949L355.124932,320.448593L353.526356,320.171809L354.375190,321.301313L357.898527,324.030978L364.063582,328.407130L362.014557,327.896612L360.383373,327.614929L356.710096,326.035847L352.303393,323.935897L350.460247,323.410919L350.267490,323.932407L351.821326,325.606244L353.684661,327.518924L354.915492,329.042019L358.968313,332.525896L356.534990,331.586516L347.643571,326.069517L350.004961,328.410408L350.304368,329.313042L350.354812,330.045362L351.979744,331.949600L352.242524,332.870177L348.500204,330.763708L347.071893,330.370102L343.181749,328.040338L347.890418,332.414382L349.761367,334.624376L355.235727,339.788195L354.193360,339.741734L353.018030,339.572092L350.704987,338.433162L348.556934,337.394458L349.997669,339.400619L350.356854,340.505094L346.364863,337.796838L345.825618,338.086511L344.101262,337.304225L343.486960,337.505490L342.472832,337.332152L345.834726,341.236482L340.499333,336.994262L343.667831,340.785172L343.526150,341.448986L338.722221,337.542944L339.642556,339.218497L339.380921,339.737002L344.763510,346.003187L338.084439,339.987079L337.444946,340.111725L338.503310,342.022107L337.863471,342.155766L339.873661,345.148889L339.894117,346.028093L343.290912,350.659932L343.769558,352.123021L338.788871,347.414382L336.247758,345.383422L337.015269,347.141974L336.812726,347.792438L333.033333,344.185556L331.078183,342.681942L334.406197,347.587833L337.511074,352.331300L337.163512,352.859948L333.560940,349.264560L332.407083,348.713959L330.426952,347.066345L331.309922,349.138047L329.836321,348.111822L330.226363,349.567251L330.891560,351.427662L331.513466,353.267262L331.247223,353.899697L328.781811,351.415053L327.482777,350.535960L328.733374,353.342920L332.682056,360.200350L331.764722,359.947684L326.294289,352.775519L326.610225,354.293967L329.291594,359.527546L328.032162,358.675484L323.559187,352.652728L323.029620,352.849404L323.159956,354.127738L322.591496,354.269399L322.102353,354.540937L322.725269,356.716192L322.907319,358.179137L322.522831,358.677804L320.113641,355.566672L320.122532,356.738426L318.646225,355.206962L317.839626,354.871637L320.796739,361.639046L321.828916,364.903754L316.616134,356.089447L317.191394,358.449071L316.905480,359.143695L317.507074,361.661306L316.354392,360.617223L314.677720,358.430739L314.146707,358.614417L314.302160,360.286033L313.605324,360.124723L313.248217,360.711820L313.590640,362.904103L313.412841,363.957102L311.352271,360.604194L311.524769,362.477331L311.441281,363.783980L310.982811,364.199135L310.039774,363.398826L309.264547,362.993073L307.682047,360.454201L307.592974,361.791095L307.756452,363.855739L305.829156,360.212337L307.439509,366.387472L306.279453,364.839477L305.970031,365.714048L304.772116,363.961469L304.020726,363.491174L303.622408,364.092950L304.425180,368.530692L301.981685,362.611456L302.952457,367.754439L302.147779,367.096993L302.278327,369.646996L300.866514,366.832197L299.034669,362.349863L299.883790,367.622470L298.256796,363.704265L297.060352,361.264472L297.167414,363.920411L297.982538,369.625037L296.483935,365.847307L295.033844,362.063476L296.589200,371.489733L296.912154,375.790400L295.548904,372.352667L293.335222,364.541946L294.080354,371.136084L293.310939,370.273731L292.059772,366.754656L291.645848,367.642978L290.217523,362.739298L290.486166,367.611678L290.698455,372.503141L290.307393,373.881667L289.052838,369.557188L288.795683,371.852170L288.437751,373.607940L286.943951,366.792800L286.428923,367.189278L285.834692,366.947735L285.595916,369.854508L284.597746,365.898920L283.977186,365.245821L283.497850,366.012674L283.083198,367.620743L282.996244,373.499598L282.417791,373.778849L281.603593,370.683575L280.860234,368.108319L280.145822,365.484525L279.773824,368.966465L279.890635,384.309752L279.071205,380.248259L278.042813,368.264540L277.420792,366.104146L276.918722,368.506216L276.280839,363.521381L275.742660,363.203434L275.218373,367.099661L274.665589,365.932593L274.090326,368.525798L273.538278,367.654461L273.029363,365.285137L272.494142,364.882813L271.870071,367.236961L271.170296,370.765493L270.265720,377.806817L269.685802,376.973656L269.690537,366.258533L269.223157,364.909509L268.142261,372.511141L267.393574,374.548929L266.860862,373.661328L266.565107,370.214203L265.860226,371.525148L265.196384,372.263483L265.016621,368.382667L264.059341,371.794268L263.222519,373.837395L262.995603,370.805887L261.773206,375.624195L262.063727,369.009828L262.714162,360.452506L262.191114,360.419365L260.347401,368.840744L258.755237,375.063061L257.943444,376.190154L258.103972,371.666761L257.494955,371.698862L259.051702,360.157452L257.980199,362.935792L257.794103,361.102388L256.491976,364.788774L254.446943,371.746662L253.400388,373.731233L251.993137,377.198948L251.343243,377.196845L251.105511,375.454417L251.561639,370.954997L251.265374,369.679779L250.867454,368.856513L250.114069,369.414985L249.853267,368.115515L249.087792,368.694718L245.572008,378.955646L245.080805,378.302582L244.509290,377.941565L244.508310,375.703935L245.524392,370.266744L246.015188,366.712207L244.354210,369.964894L243.296381,371.247107L245.420067,363.004997L244.054428,365.256576L242.683318,367.429501L242.731285,365.530948L242.697736,363.920721L243.330446,360.562786L242.597024,360.943817L241.122132,363.235250L240.842346,362.380765L241.351252,359.566828L242.030764,356.421893L241.323256,356.744381L238.315879,362.537141L235.742162,367.111689L236.757913,363.244709L235.895588,363.759165L236.934765,360.003165L235.164816,362.532353L235.778693,359.818867L236.061943,357.886583L236.657412,355.352506L234.076523,359.443211L234.533864,357.228447L234.172439,356.711597L233.632034,356.555644L234.636865,353.395659L234.729770,352.066250L231.116489,357.757686L232.494204,354.001260L231.497470,354.694726L231.625376,353.330080L229.351564,356.272474L230.546249,353.036195L231.099627,350.992334L230.212695,351.456201L230.501325,349.920719L226.440096,355.643465L227.893940,352.168972L229.185608,349.042172L225.799869,353.449502L226.471345,351.348946L227.412090,348.878011L226.687398,349.015806L223.158376,353.382415L221.049464,355.508397L224.434869,349.478373L224.690554,348.145792L224.172469,347.950063L222.184832,349.833696L222.130212,348.957453L222.370608,347.687805L221.502621,347.953563L219.508800,349.720528L217.006012,352.111765L215.532680,353.083091L213.815933,354.337062L211.826572,355.900019L213.670057,352.567450L212.713213,352.805652L218.123551,345.173084L214.122970,349.187060L215.122272,347.075811L213.421903,348.217022L214.812216,345.691461L212.159856,347.908637L217.890418,340.455113L218.053356,339.476921L216.460538,340.477852L210.078097,346.738725L208.410705,347.692555L209.400128,345.748498L210.729952,343.478838L206.364588,347.249288L207.758818,344.929675L204.350358,347.590446L206.423506,344.612919L210.439971,339.747691L210.012687,339.392509L211.455502,337.205721L208.710456,339.112346L209.732901,337.363873L209.052088,337.255690L204.634974,340.625167L207.175671,337.492831L204.811308,338.890713L204.538601,338.363875L203.646216,338.389972L204.196213,337.139182L199.505389,340.451875L204.545894,335.339311L202.143463,336.636854L200.667828,337.117765L204.485718,333.206502L206.496024,330.853849L202.396805,333.468593L200.647782,334.139304L200.593861,333.450923L203.147103,330.745685L203.047913,330.128720L200.444916,331.410712L200.388930,330.746644L202.010777,328.850004L197.533619,331.432758L197.804089,330.524134L197.124388,330.301381L197.208833,329.536629L193.575916,331.352069L198.096178,327.538579L199.517403,325.900731L199.495089,325.254095L197.802022,325.709862L196.296529,326.020024L196.411620,325.272935L197.424455,323.966329L199.664274,321.917725L201.443638,320.194404L192.746228,324.855444L193.733143,323.587570L192.048652,323.916044L191.429319,323.602411L189.446321,324.065582L190.403652,322.838900L195.158152,319.515048L191.660184,320.806734L196.255426,317.662877L195.789171,317.297754L194.284337,317.475903L195.812675,316.061948L192.191020,317.306350L191.716629,316.915430L190.384463,316.946387L192.069955,315.487819L191.592910,315.097807L191.629209,314.461324L188.689426,315.215591L191.279712,313.394069L192.825339,312.085326L190.296129,312.611738L190.054342,312.105632L191.780849,310.753634L192.135322,310.009141L192.156537,309.411148L189.061527,310.088767L190.775827,308.795906L182.681684,311.397031L181.451814,311.229674L183.609251,309.759915L185.534023,308.409827L186.818503,307.323762L189.755493,305.663577L189.261892,305.256698L188.978364,304.772885L187.801416,304.590854L190.764847,303.018191L190.555833,302.521567L187.727548,302.860541L187.412151,302.378570L189.256343,301.233869L188.014646,301.039439L188.157325,300.425407L186.692356,300.275409L184.668437,300.264570L183.237571,300.067316L177.296587,301.056222L180.206094,299.667126L183.664834,298.178160L187.943377,296.532763L190.406709,295.381308L187.807062,295.450444L188.017779,294.846739L184.575055,295.057633L181.283015,295.193900L182.862896,294.271047L186.741532,292.903310L182.496597,293.182566L184.256104,292.267306L183.409608,291.854982L182.360594,291.469350L180.733712,291.171000L179.725283,290.751363L186.152444,289.137241L186.384650,288.551245L184.957564,288.212619L179.628855,288.405774L173.309698,288.667310L153.067313,290.637669L145.254225,290.842606L144.465407,290.138183L142.340250,289.572001L149.187361,288.050211L147.618381,287.434665L158.845628,285.629834L169.848529,283.981908L174.724042,282.954801L160.964586,283.352556L160.873037,282.665548L168.217120,281.523724L173.042199,280.610161L177.028311,279.796633L180.921093,279.035797L178.752246,278.545745L174.638046,278.089566L179.973467,277.350097L181.533616,276.745904L184.916601,276.137698L183.671223,275.600963L180.964217,275.049982L180.611306,274.479245L182.806860,273.933676L185.688118,273.426673L182.130994,272.802042L185.480446,272.339459L184.824507,271.773942L181.896901,271.105213L181.369687,270.515684L184.103951,270.095417L186.339422,269.678023L180.638614,268.762799L177.708516,267.977830L180.815745,267.629191L180.005183,266.987372L180.567513,266.459255L178.182145,265.652782L177.458114,264.987035L179.097028,264.568711L180.329548,264.122985L166.935520,261.921363L168.564078,261.464757L163.537969,260.139969L159.123341,258.837480L166.744766,259.232416L173.310212,259.559995L176.452948,259.426789L176.365593,258.800893L176.810416,258.263406L175.419853,257.405914L181.814762,257.953920L191.230698,259.152119L188.758100,258.143402L188.188141,257.486197L186.218455,256.529274L185.799429,255.878489L182.473517,254.579389L181.562105,253.784744L184.158045,253.795562L180.480936,252.333529L187.165283,253.373840L187.276750,252.837669L183.174983,251.209628L182.531219,250.445045L182.944119,249.957651L183.126412,249.409420L183.764929,248.991603L182.737481,248.094249L183.046843,247.579904L182.577831,246.830205L185.687424,247.186493L184.761934,246.298395L184.263168,245.534228L185.505402,245.338043L187.147807,245.291452L187.700842,244.888834L183.327165,242.758504L192.147260,245.296208L186.816661,242.781860L188.722123,242.885191L189.620999,242.630466L190.709239,242.458576L187.770694,240.716438L190.142152,241.054512L190.317008,240.528831L191.620960,240.470269L189.657021,239.050681L189.343769,238.307132L190.141720,238.039906L185.309320,235.288019L184.617257,234.325971L186.928036,234.723515L184.641727,233.015272L188.433795,234.138795L190.739866,234.602311L190.511773,233.862615L193.496893,234.704412L196.368228,235.530364L190.671491,232.030318L190.395591,231.243125L188.790831,229.750145L191.602351,230.580398L192.731701,230.541071L190.759000,228.814479L186.889613,225.997616L190.706628,227.450623L191.408356,227.177674L196.434792,229.420331L196.853452,229.029216L196.386991,228.112473L199.186485,229.158237L195.626279,226.347458L195.437515,225.567231L194.015734,224.002367L195.374733,224.182971L199.663943,226.276586L193.544883,221.617573L199.448909,224.830979L200.277188,224.727091L198.486695,222.847423L199.301356,222.729327L198.510604,221.497182L199.706503,221.652554L195.979241,218.290683L199.693231,220.262921L196.524873,217.231334L201.774357,220.409697L197.815715,216.728872L200.459315,218.013586L202.797444,219.105891L203.905443,219.272657L203.191173,218.008218L203.493416,217.539733L202.447864,215.973821L201.011771,214.058033L199.669276,212.183650L198.865214,210.728474L200.648197,211.459455L206.046935,215.347753L206.919382,215.378736L209.615852,217.037637L209.237577,215.988098L207.922845,214.071892L205.321568,210.935633L205.495240,210.315168L203.528740,207.673737L201.685557,205.095689L206.226420,208.626553L203.043485,204.709129L206.235447,207.009537L209.543455,209.492609L205.620954,204.721991L208.361443,206.676292L209.201690,206.716324L209.955574,206.676374L211.065742,207.023899L209.136706,204.118685L207.491871,201.461498L203.540011,196.205209L210.733559,203.269987L212.709414,204.623410L214.828617,206.183469L215.878673,206.553292L213.017768,202.357521L214.460831,203.173416L215.825365,203.924366L214.573864,201.521840L213.210377,198.930590L215.672656,201.052404L213.496389,197.382639L216.462345,200.200616L216.667449,199.526530L215.517875,197.069478L216.643169,197.577251L217.022232,197.104369L214.044894,192.061477L217.895170,196.307294L221.563380,200.417342L219.480132,196.511262L226.371060,205.363398L218.518216,193.066813L221.251343,196.013362L223.385300,198.154057L221.477776,194.263249L220.173841,191.200062L222.995101,194.453030L223.931364,194.843310L219.677301,186.996055L223.326370,191.686583L226.810558,196.244613L226.412455,194.504388L222.664724,187.098058L224.901890,189.685825L226.172436,190.685665L227.881169,192.489463L225.033422,186.260573L226.932238,188.411924L226.077359,185.601975L227.728822,187.365199L227.470698,185.596657L227.521030,184.373026L231.497133,190.726415L234.377872,195.125333L232.175244,189.518639L231.249420,186.335495L235.070859,192.831229L235.574188,192.602912L235.703154,191.580215L234.879625,188.478388L238.100168,194.145773L235.996473,188.149178L237.975496,191.203361L235.613439,184.378548L237.138890,186.426662L237.626768,186.083754L239.048149,187.995916L238.401040,184.889498L238.491833,183.529999L241.159629,188.701553L241.354515,187.647614L241.236833,185.736065L240.476186,182.029474L243.053066,187.347877L245.104445,191.408116L244.208706,187.232869L245.953355,190.574517L247.394004,193.155975L247.186992,190.865252L246.415544,186.743863L245.759617,182.820271L247.339157,185.934091L248.474029,187.728116L249.921160,190.659142L249.262633,186.488326L248.591071,182.086310L249.185923,182.044854L250.969036,186.390392L251.639237,186.752109L251.567272,184.265267L251.324072,180.978246L253.116626,185.822377L253.519822,185.120065L253.712407,183.480827L254.276844,183.400102L255.166276,184.799972L255.914368,185.628251L256.306220,184.795133L256.605305,183.455135L256.778745,181.390195L257.786856,183.625743L258.235330,182.949384L259.222812,185.296767L259.367431,182.855566L260.468708,186.089063L260.745668,184.342268L261.492399,185.569424L261.798785,183.868559L262.384671,184.038628L262.131204,177.898271L262.223024,173.899556L263.863897,182.383176L264.382169,181.948289L265.403078,186.126097L265.980664,186.460876L265.772449,178.639475L266.582748,181.120415L267.483598,185.054404L267.749058,181.413204L268.241093,180.332304L269.229824,186.661926L269.549826,183.009539L270.129972,183.422707L270.665058,182.993503L271.358487,186.302089L271.660179,179.570721L272.357714,183.707476L272.988567,187.127581L273.420212,181.184919L273.968713,179.418473L274.550161,180.109682L275.126306,178.436411L275.723027,176.719169Z" />
<line x1="50" y1="625" x2="100" y2="625" fill="none" stroke="green" stroke-width="1.0" stroke-linejoin="round" stroke-miterlimit="10" />
<text x="125" y="628" style="text-anchor:start;fill:black">n0_4mer:PS</text>
<path style="stroke:red;stroke-width:1.0" d="M276.749719,130.350649L277.595585,131.963208L278.350291,136.544544L278.896652,146.188077L279.662199,146.586076L280.429495,146.837061L281.084207,149.358354L282.086762,144.943128L282.951226,143.701402L283.844720,142.259037L284.529451,143.937851L284.954281,148.664990L285.504812,151.241964L286.122618,152.742852L286.829917,153.141766L287.625507,152.646304L288.134594,154.835932L288.975813,153.924425L290.009087,151.533497L290.511924,153.534690L291.443921,152.154626L292.842534,147.572200L293.306770,149.776892L293.403294,154.224965L294.538407,151.784845L296.032150,147.360836L296.189035,151.085550L297.169168,149.912492L298.248867,148.285657L298.978895,148.618267L299.722991,148.867108L299.475177,154.013045L300.324794,153.596339L301.704789,150.745309L302.320319,151.521718L302.592328,153.773310L304.075923,150.733381L305.452248,148.310427L305.195443,152.640512L304.450776,158.687141L305.235204,158.553749L306.403537,156.993077L308.206573,153.187294L308.946464,153.377092L308.318015,158.357983L308.997783,158.647677L311.609562,152.467206L311.627124,155.058195L312.432017,155.025237L313.730576,153.453842L315.636070,150.090778L315.828137,152.033629L316.073421,153.752143L315.495598,157.795561L315.546257,159.909017L316.057557,160.669005L318.250609,156.814381L319.210351,156.419186L319.885175,156.798341L322.178294,152.988443L326.102543,145.179509L332.043459,132.620100L333.715706,130.975736L334.321627,131.970392L332.328873,139.103752L328.928293,149.293320L325.403943,159.442738L325.923112,160.153114L326.676329,160.331221L326.487633,162.570382L327.902618,161.302302L329.511583,159.673272L330.315573,159.781337L331.168592,159.795757L332.497603,158.858542L331.935731,161.721899L330.987278,165.268116L331.019016,166.827148L330.989059,168.467949L330.753148,170.457238L334.701768,164.665692L334.123853,167.295329L336.729803,164.143012L337.823037,163.767986L337.781876,165.394438L338.575280,165.549627L337.826007,168.330365L338.431171,168.777439L338.497624,170.112655L339.426597,170.016773L340.231579,170.133218L343.949783,165.636301L343.904672,167.159261L343.026752,169.939309L344.901582,168.461863L345.044660,169.638785L346.165990,169.343844L347.425567,168.865005L345.749075,172.656897L344.096680,176.328491L343.671048,178.187898L347.735226,173.761492L348.358414,174.186563L348.758238,174.915190L349.238541,175.528918L353.484743,171.155833L352.640572,173.554268L352.619230,174.843209L353.913146,174.435811L353.726489,175.913651L356.416067,173.791462L352.102273,180.332137L352.813830,180.629999L354.156436,180.176116L355.903434,179.266368L358.941702,176.881179L355.940699,181.539402L356.340893,182.217330L356.690090,182.948242L357.756817,182.874695L357.793015,183.948276L357.665186,185.186315L360.077472,183.680161L359.043615,185.876858L362.342274,183.494078L365.691894,181.128213L363.828465,184.162980L363.818491,185.265462L360.387448,189.769223L361.436513,189.759554L362.093728,190.144397L365.431845,187.952049L367.225751,187.293768L365.533560,189.939929L367.779695,188.880202L364.203104,193.198891L364.992615,193.471448L368.993101,190.876729L368.131389,192.657043L366.358455,195.203946L367.512843,195.176954L370.995458,193.179707L369.442161,195.484827L372.715057,193.734131L368.154195,198.475636L370.457139,197.546060L370.439660,198.512917L368.494796,200.995822L370.814736,200.097677L368.406274,202.886444L373.199689,200.129338L369.662867,203.727201L372.050955,202.844813L380.583466,197.488299L380.453045,198.561321L381.530213,198.759165L376.724414,203.124983L375.325082,205.019619L377.228676,204.607140L377.966207,205.013592L378.433446,205.606939L375.350295,208.552046L378.699695,207.232873L378.916478,207.984660L381.152237,207.448410L383.666820,206.768143L383.655529,207.688102L385.007857,207.767668L379.625880,211.922939L377.006863,214.340108L380.482366,213.133905L381.332105,213.496884L382.816140,213.505797L382.080341,214.780914L381.399432,216.008081L385.190762,214.774504L387.246553,214.529751L388.097431,214.951124L391.671964,213.954991L389.011668,216.222546L389.340512,216.925717L389.991826,217.467209L384.066478,221.254140L389.103826,219.627057L391.663806,219.254030L396.203895,217.982538L395.251442,219.316404L395.190787,220.224905L390.776366,223.080124L388.079321,225.108924L388.069105,225.928307L388.573114,226.523790L387.980545,227.582517L389.546378,227.738176L388.852573,228.828327L388.982449,229.576522L388.375536,230.611155L386.093554,232.277740L385.524305,233.262262L388.509352,232.917712L389.979900,233.161820L398.678683,230.841842L397.193067,232.203794L397.051913,233.080289L394.107947,234.895179L398.060787,234.391279L394.682783,236.307136L395.184130,236.946422L400.785986,236.008235L393.359401,239.093607L393.885081,239.717971L395.056444,240.159066L393.440882,241.403293L390.632031,242.954449L396.088150,242.229729L394.890922,243.330759L393.324316,244.509001L393.232412,245.294135L397.963890,244.894872L395.112260,246.361964L397.761615,246.513912L395.382647,247.832224L396.891713,248.265437L398.076204,248.784869L396.895603,249.806101L398.276154,250.297303L394.138871,251.875014L395.049062,252.450956L399.348552,252.421171L400.875043,252.929612L400.999436,253.692529L403.201567,254.116941L398.509673,255.647353L398.835828,256.362954L398.025037,257.245277L395.193307,258.395451L394.457610,259.232822L394.783382,259.926388L395.207815,260.611027L400.574583,260.738506L399.335467,261.640475L399.873596,262.346197L398.547645,263.235070L398.108345,264.027865L396.392830,264.920461L400.115673,265.372963L403.369674,265.903284L401.392638,266.811401L401.240250,267.587765L398.473588,268.499370L401.327566,269.115102L399.294107,269.963063L394.037129,270.897121L398.884179,271.480126L400.791905,272.187280L404.288026,272.891412L401.671636,273.700407L403.131969,274.460487L397.658429,275.225449L399.543937,275.982251L401.962450,276.769364L402.204482,277.542369L400.318921,278.263091L398.994445,278.979233L397.321450,279.666331L399.536498,280.505382L398.399144,281.203163L400.500254,282.070044L400.668518,282.842323L402.524181,283.732774L399.835630,284.307609L400.478042,285.119045L400.126043,285.852799L398.286868,286.445005L399.066188,287.274679L396.054850,287.716579L394.063847,288.236017L393.961067,288.953530L398.691871,290.267433L398.166491,290.959494L400.766405,292.070481L395.875536,292.151853L397.570174,293.149281L396.217971,293.699013L397.144232,294.598995L397.173074,295.362371L396.218807,295.957665L399.856486,297.365193L395.508981,297.339560L392.412478,297.500960L397.380748,299.221399L395.779599,299.664586L395.290858,300.323659L395.492611,301.128223L394.040355,301.568193L390.423384,301.494860L393.461961,302.947691L394.074753,303.853681L393.991725,304.596683L390.697304,304.521495L392.784531,305.814073L392.556037,306.515225L394.450961,307.798934L390.891790,307.576751L390.427582,308.200898L395.846971,310.552517L395.702348,311.304662L399.092125,313.144223L396.076604,313.020336L392.305626,312.617171L392.383924,313.426832L391.972782,314.077147L395.917575,316.209648L392.859162,315.964655L392.368773,316.591574L392.666262,317.499815L392.232344,318.146452L391.291350,318.600597L395.263810,320.921551L400.709599,323.874229L392.045358,321.322590L389.076917,320.947789L386.934007,320.873482L386.629035,321.539070L387.907037,322.875547L390.806380,324.933489L387.528015,324.329220L386.024699,324.472941L386.734628,325.601520L386.307513,326.221664L386.645230,327.197673L389.715553,329.481093L388.533140,329.763578L387.487758,330.100495L385.034943,329.726732L384.314165,330.195501L384.524399,331.135576L386.770210,333.142958L381.678868,331.316905L381.512534,332.055543L381.565305,332.916043L382.468933,334.251971L381.488758,334.554283L382.769825,336.129374L379.529382,335.129891L380.616939,336.608709L382.699241,338.699552L385.865782,341.480856L387.771144,343.554179L385.746096,343.243942L382.489244,342.137415L380.613133,341.857006L380.142976,342.453637L377.160689,341.416037L380.303880,344.369199L379.297429,344.614442L378.160522,344.761229L382.281385,348.497461L378.866766,347.085106L372.179251,343.318467L374.330916,345.732717L372.441741,345.279554L373.751947,347.136556L376.395646,350.012480L377.071254,351.471887L375.442358,351.204393L372.409850,349.836294L370.627560,349.391141L373.707297,352.749841L374.270177,354.170868L372.925836,354.072483L373.705543,355.693230L375.520864,358.196697L370.904197,355.358068L373.418688,358.483370L372.812546,358.991791L373.738928,360.830319L368.248848,357.053444L369.712426,359.363210L368.555209,359.352799L367.309940,359.247834L363.906863,357.133148L366.676862,360.725648L363.157175,358.439613L364.020027,360.282988L364.294527,361.587833L361.284219,359.687398L363.617184,363.035849L362.742740,363.228031L363.908429,365.488306L361.476938,364.085101L357.734247,361.267504L357.410112,361.976558L358.131159,363.807324L360.326367,367.264716L358.604086,366.506581L361.172012,370.470516L360.684751,371.092908L356.045802,367.004790L354.600706,366.473880L355.515686,368.663394L354.215776,368.286769L351.895407,366.672341L352.078538,368.027714L355.029684,372.787463L355.719730,374.856894L355.045432,375.257095L352.853675,373.730808L351.005334,372.595171L350.585973,373.277186L350.040198,373.798462L348.096713,372.457922L347.789041,373.280575L346.269370,372.455703L348.156847,376.317200L348.195068,377.672957L347.640167,378.209656L347.187670,378.896274L345.766263,378.176765L348.325952,383.307456L347.952982,384.173209L345.742535,382.264131L341.857879,377.720468L343.575338,381.766161L342.710536,381.835393L339.036215,377.402595L337.905203,376.960676L337.316014,377.386414L338.683012,381.071767L337.295476,380.197303L337.645572,382.263044L336.816700,382.329314L336.489850,383.270814L334.203434,380.729078L334.855721,383.427260L334.010949,383.442116L335.335361,387.491272L336.796536,391.907732L335.170956,390.518260L331.883385,385.837837L330.399976,384.573922L330.971817,387.388059L329.856817,386.839347L329.284304,387.386403L328.618341,387.743822L326.269042,384.506811L325.637488,384.883793L325.925909,387.291608L326.555091,390.531676L325.406355,389.818655L324.270881,389.102333L323.008488,388.052852L321.874846,387.265909L321.723781,388.835821L320.608784,388.061318L319.812302,388.053094L318.922522,387.795237L318.695114,389.250221L318.456542,390.719446L316.844795,388.508941L316.002649,388.332053L316.255118,391.222504L316.455951,394.067968L315.198137,392.744011L313.966628,391.435406L313.566744,392.599278L313.055077,393.454014L311.756473,391.833891L309.742233,387.810512L310.057955,391.332563L309.897571,393.387639L309.696406,395.385337L308.948919,395.526633L307.176669,391.940559L307.450869,395.788658L306.740661,396.062762L305.104171,392.718901L303.981313,391.253084L304.589222,396.826460L303.085408,393.762404L301.825407,391.578387L302.202211,396.576253L303.175698,404.601127L302.112187,403.446933L299.666721,395.462476L300.036944,401.148272L299.278675,401.324486L298.526753,401.536812L297.252503,398.846986L295.494422,393.164186L295.286485,396.318955L295.012620,399.298436L294.785711,402.810401L293.815650,401.604679L293.043696,401.675215L292.222235,401.378969L291.269795,400.038186L290.529313,400.264313L289.695514,399.712294L289.060323,400.867839L287.748524,395.739504L287.051433,396.150591L286.416495,397.271604L286.317525,404.681050L285.400715,403.118423L284.671027,403.784028L283.544876,398.812032L282.600939,395.764920L281.779133,394.204789L281.152095,396.095924L280.997349,409.045745L279.952997,403.044239L279.046225,399.019871L278.277328,398.339055L277.523040,397.956808L276.747761,395.791292L275.989192,392.483374L275.287674,396.327599L274.551732,396.892489L273.852220,393.005961L273.110415,394.775496L272.411257,393.603826L271.666636,394.564679L270.844359,397.464042L269.907268,402.348730L269.083482,403.479584L268.320827,403.166029L267.814441,398.504687L267.202384,396.360379L266.287567,398.883296L265.367165,401.069503L264.857057,397.951135L264.169540,397.255688L263.221633,399.391318L262.302820,400.971069L261.798368,398.485604L260.719487,401.342647L259.786683,402.671156L258.935014,403.213043L257.830027,405.622336L257.774329,400.181526L258.056569,392.847771L257.142644,394.086388L255.950392,397.000839L254.832735,399.224543L253.039995,405.280477L253.046570,400.601532L251.991272,402.101519L252.526372,395.000072L251.231035,397.806534L250.634584,396.930318L249.602433,398.212311L248.222923,401.044157L247.290097,401.661206L245.776446,404.814156L244.004425,408.900429L245.017157,401.050364L244.921155,398.140669L245.115740,394.211281L243.971142,395.677710L243.586216,394.181073L243.345878,392.211643L242.003442,394.310680L239.242883,401.313554L237.244272,405.359934L237.341539,402.141054L236.551228,401.983537L237.874790,394.990669L238.510620,390.457764L236.639855,393.870068L233.259679,401.716926L236.909334,388.325782L234.381960,393.467521L234.373853,391.195545L233.875492,390.376168L233.844610,388.291347L232.848983,388.880935L233.364964,385.430410L231.763609,387.609616L230.071647,389.933942L230.728272,386.264750L230.371794,385.215262L229.136050,386.326683L226.925900,389.716373L226.005835,389.956287L226.054381,387.943415L225.149747,388.150066L224.508533,387.752084L223.456198,388.260435L223.602607,386.150519L224.376540,382.761042L223.948365,381.986173L222.700806,382.916342L221.729364,383.247591L220.055539,384.964924L220.099426,383.234756L219.054406,383.660829L218.944215,382.275502L217.912002,382.659357L218.594731,379.834818L217.984787,379.449367L216.235147,381.123241L215.368105,381.168625L213.665658,382.669175L215.540161,377.926050L213.876682,379.343334L212.795997,379.730503L211.477222,380.492320L212.880769,376.763492L212.864985,375.418477L209.049692,380.157622L209.694546,377.743475L209.462593,376.743769L209.752869,374.959819L205.494262,380.089834L205.189979,379.174922L207.775583,374.016161L206.818441,374.130374L206.968984,372.641315L205.182959,373.923612L204.080670,374.206242L203.773047,373.373374L202.412812,373.986047L202.892444,372.094938L199.600316,375.255266L197.600026,376.629420L196.439358,376.869177L194.937741,377.527890L195.747341,375.235324L193.733492,376.514205L200.136675,367.364950L197.685546,369.218329L197.324152,368.499703L197.665361,366.951721L196.802190,366.844508L194.974201,367.847845L196.358680,365.133324L195.395032,365.131444L193.941431,365.666035L191.428288,367.346770L189.599822,368.227556L189.300015,367.426174L190.257148,365.292325L185.395958,369.321985L185.993132,367.565614L184.449056,368.038455L184.366990,367.002783L186.660106,363.596680L184.989568,364.186601L188.999369,359.188741L188.561106,358.599915L188.889518,357.280096L185.555670,359.436616L181.280045,362.406885L182.553127,360.179859L182.391416,359.298885L182.431782,358.243891L181.873270,357.732835L181.369376,357.172586L180.092634,357.282232L182.602577,354.132321L181.351854,354.226619L181.202378,353.384615L180.623635,352.903624L181.896209,350.910997L180.821212,350.843785L180.871417,349.869306L178.034652,351.172667L176.072165,351.751254L176.622249,350.375708L173.864352,351.522399L173.171370,351.082601L173.084773,350.191038L171.645442,350.291793L171.035200,349.777996L171.804683,348.281523L173.898203,345.878885L173.397635,345.317076L175.467744,342.997704L174.269400,342.926402L174.870575,341.643529L172.965241,342.024664L169.414390,343.446540L169.931612,342.212179L166.792516,343.301464L170.238235,340.243729L172.982526,337.681442L168.684242,339.439834L169.562823,338.038444L168.833054,337.606179L166.805360,337.923029L166.061904,337.476695L168.152676,335.421739L167.000276,335.214199L166.855563,334.440297L168.219687,332.852308L167.366912,332.474943L167.076154,331.793969L167.462985,330.762451L163.873515,331.773504L164.523712,330.601269L166.209439,328.930650L165.990555,328.220214L167.845544,326.514310L166.900257,326.166110L165.755295,325.901531L167.423576,324.334477L166.900901,323.784993L165.618464,323.569559L161.579935,324.543712L165.133950,322.202002L163.910473,321.933736L159.629933,322.921904L163.325316,320.596888L163.825827,319.609900L157.984021,321.134227L156.144757,321.030681L157.312058,319.761891L155.150946,319.755965L158.332850,317.765447L159.964270,316.379874L162.713424,314.625565L159.999881,314.802607L162.379404,313.217817L165.271017,311.497917L161.518891,311.985124L161.119918,311.354664L158.671221,311.362528L162.251039,309.496329L161.568875,308.956094L157.521070,309.394951L157.765925,308.554731L152.518727,309.256428L154.475370,307.924467L151.307195,307.987253L153.458682,306.627298L153.176044,305.915312L154.042096,304.917975L154.439805,304.046919L153.313124,303.540736L153.572930,302.706023L152.626751,302.144254L149.883348,301.959821L153.083452,300.499603L153.917993,299.561594L153.616043,298.859358L151.895779,298.425027L153.546509,297.350559L153.345659,296.627599L149.445548,296.538359L151.596392,295.401792L154.988763,294.095942L150.642989,294.016934L147.937975,293.644788L148.155254,292.829837L142.166210,292.853036L128.102694,293.839341L120.531508,293.861373L119.071018,293.083187L118.868543,292.150249L122.093795,290.860554L120.957607,290.037221L128.834154,288.376325L134.093739,287.036038L139.693909,285.733710L131.056620,285.543173L131.208740,284.658006L136.541533,283.458892L141.766339,282.331095L144.238023,281.402025L149.678019,280.376063L144.969401,279.790297L145.900728,278.974223L150.297265,278.084018L153.231351,277.274576L151.765134,276.556381L150.820302,275.817129L148.983616,275.066980L148.013364,274.299398L149.888290,273.552934L154.497447,272.877215L153.885241,272.133541L153.505072,271.389144L153.136383,270.640289L153.006541,269.896641L152.054813,269.111682L148.829291,268.192062L150.992560,267.556278L152.071819,266.874560L151.016033,266.051257L152.227223,265.391869L147.347767,264.232782L147.174891,263.439130L142.971577,262.253400L145.376209,261.693731L150.147453,261.419890L149.348261,260.563438L142.791531,258.999307L142.111003,258.100772L137.370112,256.651290L132.594270,255.137196L135.691759,254.709486L135.585269,253.832053L141.327530,253.875984L144.539799,253.574021L147.166196,253.210494L147.612652,252.492864L150.002827,252.134663L153.822039,252.074968L155.282436,251.600344L154.047400,250.598496L155.560759,250.151035L155.949201,249.479635L154.947703,248.504437L155.224462,247.804730L157.123436,247.485111L154.469338,246.095728L158.509304,246.318329L157.722312,245.371060L154.045851,243.662743L148.406745,241.383339L152.710653,241.733114L157.935422,242.392691L153.990641,240.503842L157.325715,240.683627L155.705213,239.426730L156.859088,238.991266L158.336398,238.668903L156.902529,237.437282L157.394198,236.808831L158.124747,236.263040L159.478066,235.934510L159.364499,235.115082L156.921604,233.471622L163.976783,235.196723L161.648553,233.586590L164.421171,233.839761L164.510979,233.110565L165.190890,232.606922L162.625849,230.833809L160.238384,229.092176L162.925678,229.378881L163.694172,228.904958L162.367435,227.555394L161.845233,226.527485L162.342771,225.932051L158.178060,223.275221L159.021205,222.807239L159.815556,222.324616L158.685629,220.954841L161.720682,221.529602L162.680325,221.149441L163.101083,220.516328L167.586084,221.893964L169.727073,222.157695L165.496474,219.202361L164.562139,217.882224L162.858384,216.138607L166.892065,217.419103L166.199021,216.202443L164.791284,214.577557L163.242621,212.846397L165.782492,213.391070L166.564091,212.964405L171.318748,214.849238L169.146900,212.730455L170.135395,212.455111L173.613153,213.694944L171.152438,211.346087L171.264098,210.548106L169.963873,208.856364L172.016485,209.275683L173.851699,209.582579L170.760357,206.685505L172.686079,207.059363L173.264791,206.553368L175.634799,207.271240L176.307265,206.851676L176.534826,206.125560L177.217631,205.718590L174.204694,202.664160L175.765078,202.870630L173.682311,200.416015L173.991570,199.697408L175.340328,199.760831L177.281636,200.294231L179.610791,201.156426L179.961508,200.504246L179.123097,198.906352L180.122565,198.759709L180.211060,197.882644L181.461567,197.955096L181.500368,197.033066L179.186622,194.116184L180.940811,194.617657L185.240403,197.347736L186.349725,197.364961L188.286190,198.129115L186.797588,195.851576L188.436469,196.371856L185.985054,193.157083L185.835670,192.018924L183.669260,188.966014L181.771149,186.107575L180.658460,183.950890L180.273801,182.466517L183.762246,184.789319L188.978338,188.911518L187.592137,186.459570L188.576990,186.391531L191.243479,188.079786L189.992739,185.707118L188.970825,183.532170L190.309427,183.856985L189.528741,181.893756L187.870177,178.926991L192.354413,182.756382L192.671671,181.984547L195.740991,184.353422L196.714375,184.366153L194.404299,180.542744L196.501220,181.865269L197.286563,181.657105L195.715433,178.589995L196.608670,178.492173L197.625302,178.557576L196.381624,175.783860L196.486012,174.674869L198.009221,175.385613L196.073901,171.594950L196.323141,170.618413L198.429709,172.124514L198.240813,170.557665L201.327920,173.476970L203.770453,175.583364L202.927738,173.111054L208.100808,179.200412L201.981941,169.079083L202.131328,167.915438L203.237844,168.157752L200.060523,161.955933L203.097354,165.099227L203.344548,164.017582L204.294998,164.022317L203.800647,161.740451L204.225350,160.890000L205.247919,161.005070L207.214247,162.698469L204.469830,156.538047L206.420077,158.212369L206.820209,157.268677L208.196873,158.019977L210.800055,160.982461L213.314690,163.881610L213.498055,162.615379L214.859790,163.507635L215.655010,163.371167L215.752154,161.908815L217.778237,164.150222L219.518695,165.907961L217.582303,160.390058L218.599980,160.700261L221.956294,165.843228L224.531032,169.523518L224.635173,168.084980L222.286580,161.320852L223.453193,162.051593L222.456673,157.999526L223.750485,159.008247L222.949681,155.241499L225.385018,158.929324L226.702457,160.093263L228.646461,162.823656L228.319137,160.066789L228.616460,158.787580L230.238955,160.852060L229.854669,157.791038L230.647374,157.739380L230.627789,155.508339L232.954500,159.640658L233.497466,158.953483L234.798156,160.409154L235.068054,158.935861L236.343751,160.395075L237.098247,160.346655L236.443406,155.954320L237.405996,156.485646L238.031503,155.964119L238.655931,155.426043L239.202984,154.613608L240.576722,156.617184L240.799515,154.673527L240.981852,152.502422L242.391141,154.761039L242.792597,153.332936L243.454962,152.853295L243.411458,149.555704L245.335801,154.114492L245.445704,151.335369L246.098953,150.749223L247.858187,155.028535L249.074448,157.095490L249.893191,157.433056L249.817052,153.482339L249.411576,147.654107L250.101945,147.088828L252.134606,153.621333L253.292929,155.811894L254.079931,156.056259L254.987731,157.039918L256.096384,159.336633L256.439708,156.956307L257.136537,156.730306L257.596215,154.857116L258.035287,152.677899L258.636877,151.531764L258.817746,146.954596L259.971154,150.007985L260.868934,151.159281L261.663404,151.494225L262.724417,154.495642L263.088092,150.607547L264.080220,153.209132L265.166175,157.322787L265.586268,153.498400L266.003174,148.987198L267.227524,156.007865L267.783877,153.203055L268.405004,150.985955L269.288922,153.785841L270.186521,157.756020L270.679933,151.561983L271.547515,155.714609L272.208179,153.035213L272.908562,150.800748L273.632526,148.260127L274.374632,143.083134L275.178836,138.276095L276.052024,131.998688Z" />
<line x1="50" y1="600" x2="100" y2="600" fill="none" stroke="red" stroke-width="1.0" stroke-linejoin="round" stroke-miterlimit="10" />
<text x="125" y="603" style="text-anchor:start;fill:black">n0_4mer:D</text>
<path style="stroke:black;stroke-width:1.0" d="M277.198711,93.232450L278.297649,93.274073L279.363201,94.684611L280.405007,96.326265L281.462041,97.011879L282.561777,96.504645L283.650954,96.353857L284.834738,94.512028L285.951945,94.150540L287.001572,94.881208L288.080840,95.094251L289.049951,96.684677L290.096525,97.146624L291.115372,97.863697L292.184082,97.989298L293.282658,97.822894L294.343123,98.036139L295.473355,97.634772L296.575958,97.513647L297.721950,97.076958L298.638482,98.407188L299.683646,98.714347L300.545118,100.264691L301.424526,101.584136L302.684416,100.413631L303.581365,101.546423L304.754309,100.995432L305.838967,100.993940L306.800647,101.675507L307.815804,102.042980L308.870963,102.195560L309.754440,103.200059L310.780183,103.474607L311.924711,103.193042L312.992929,103.285257L314.447038,101.689731L315.659789,101.225477L316.637087,101.778473L317.609186,102.336922L318.299882,103.991502L319.261183,104.534840L320.268937,104.890243L321.277301,105.239535L322.585575,104.511080L323.502607,105.198709L324.399041,105.939178L325.753542,105.127076L326.718030,105.640430L327.618592,106.350176L328.637718,106.671528L329.461505,107.593452L330.354896,108.281869L331.574876,107.992183L333.077996,106.907681L333.906719,107.792650L334.887429,108.234371L335.791913,108.881417L336.267138,110.669544L337.730415,109.804275L339.102683,109.218927L342.219799,104.235360L345.413417,99.248818L347.546498,97.050067L348.645459,97.434386L347.997974,101.960654L347.298491,106.472445L347.161939,109.559845L348.247440,109.805063L349.163109,110.433488L349.771953,111.726190L350.262408,113.246898L351.570633,113.004328L352.430039,113.718374L353.524676,113.942448L354.941134,113.524055L355.377400,115.082859L356.218201,115.816940L357.352013,115.978067L357.754023,117.541453L358.351937,118.706731L359.105379,119.565594L360.050011,120.066195L361.374832,119.884428L362.286886,120.453251L363.362991,120.734534L363.729329,122.244744L364.467666,123.096612L365.724531,123.071668L365.897272,124.853067L366.646849,125.661335L367.614489,126.112245L368.113313,127.309668L368.722216,128.318030L369.967838,128.331425L371.031546,128.636761L372.274978,128.678926L374.387422,127.445066L375.348565,127.945652L376.541882,128.113113L377.987820,127.931233L379.389022,127.832877L381.130705,127.279086L381.647124,128.439264L381.834488,130.033013L381.969113,131.673727L381.861689,133.609933L382.205872,134.924033L383.495330,135.001908L384.664272,135.247638L385.670882,135.707954L387.671103,134.938241L387.576736,136.775813L387.559735,138.491332L387.734429,139.952024L388.081190,141.190191L389.953111,140.632176L391.189323,140.838524L393.045325,140.349887L393.442706,141.533881L394.256172,142.243431L395.334523,142.661955L395.176085,144.431648L395.588680,145.563399L396.146379,146.531634L396.739944,147.456654L397.622093,148.078457L399.043085,148.152101L398.673577,150.050891L399.427077,150.801224L400.505374,151.231310L400.786080,152.446356L401.714196,153.027357L401.833617,154.381859L402.223754,155.467955L403.109352,156.086573L404.738445,156.027137L406.437765,155.924333L407.947414,156.012850L409.207896,156.338880L409.885508,157.185711L410.784952,157.840392L410.406467,159.588323L411.035122,160.465811L412.379007,160.747143L413.019259,161.619857L415.139285,161.290959L415.561104,162.351769L415.759573,163.584210L416.233920,164.591632L416.156980,166.020899L416.992513,166.740253L417.864452,167.435654L419.184630,167.801994L420.817982,167.951044L421.341342,168.923036L421.756621,169.970197L420.612661,172.115038L420.268471,173.669975L420.991977,174.472504L421.018353,175.750933L421.813247,176.503615L422.802418,177.131147L423.402145,178.020091L424.259183,178.743322L425.830093,179.016978L426.926680,179.605293L427.150194,180.743239L426.672150,182.304146L427.005218,183.358788L427.180653,184.503520L427.833080,185.362403L428.816153,186.031830L429.232016,187.031956L430.153554,187.745840L431.247021,188.370670L432.415374,188.963577L432.866855,189.952863L432.539210,191.354842L433.651495,191.990496L434.117345,192.968813L435.357405,193.553441L436.394941,194.250769L435.590803,195.863945L436.662624,196.547458L436.874753,197.650688L437.294394,198.652499L437.878006,199.577760L438.353974,200.553948L438.846906,201.522905L439.093897,202.601076L439.712295,203.515299L439.187328,204.920215L438.835866,206.238743L438.590054,207.502761L438.670939,208.625031L439.185551,209.569938L439.752923,210.495855L440.338431,211.417270L440.684904,212.431743L442.197347,213.013504L442.005315,214.231131L443.040921,215.002777L444.061479,215.788868L443.517934,217.121160L444.587661,217.898161L445.452305,218.752593L445.337380,219.930750L445.560088,220.996017L446.468724,221.847273L445.662546,223.226534L445.229514,224.480266L446.192314,225.319200L446.297246,226.410161L447.310860,227.246827L448.513673,228.041730L448.226440,229.242158L448.875329,230.194058L449.118911,231.252666L449.283190,232.330419L449.951555,233.286781L450.298084,234.323143L450.357991,235.425470L450.496462,236.508285L449.271026,237.880413L449.161802,239.003502L449.511180,240.030570L449.670413,241.096280L451.051809,241.931853L451.445410,242.961583L451.488205,244.055318L452.189862,245.035835L452.725690,246.049839L452.403511,247.202764L453.458488,248.142352L452.974258,249.315117L453.089208,250.397208L452.813363,251.530462L451.364389,252.806201L452.016747,253.810952L452.365263,254.856644L452.148247,255.965877L452.819839,256.981001L451.954845,258.149324L451.156972,259.299861L451.560180,260.339783L452.268859,261.360032L453.482915,262.352087L453.381496,263.443199L453.510536,264.518698L452.746705,265.642002L453.237137,266.696924L453.334063,267.773130L453.362019,268.852357L454.095746,269.911420L454.223236,270.992550L455.644185,272.053833L455.296175,273.150244L455.179050,274.241337L454.842802,275.330555L453.737409,276.409663L454.163125,277.496839L454.569714,278.588966L453.619919,279.650959L453.588520,280.731267L454.375090,281.842820L453.868313,282.907228L454.841049,284.040446L455.219940,285.152671L454.269346,286.187274L454.011315,287.258579L453.896493,288.338328L454.074226,289.441253L454.618796,290.579225L454.259870,291.641108L453.596099,292.669680L452.690234,293.666017L452.251030,294.704533L452.327267,295.799589L452.955067,296.965203L452.893341,298.050812L451.722461,298.986830L451.215193,300.004374L450.491860,300.985532L450.714493,302.105614L451.966850,303.395712L452.383770,304.564240L451.265475,305.474750L450.819502,306.494055L449.458039,307.340460L448.350652,308.220968L448.624826,309.363544L448.769014,310.485635L449.811240,311.801303L449.683188,312.879181L449.707107,313.992257L448.322705,314.785359L447.288000,315.646397L447.148346,316.714245L445.970860,317.525398L446.933973,318.870927L446.399392,319.840468L447.127275,321.145054L447.785334,322.443526L446.652749,323.250949L445.937255,324.167367L444.809197,324.956935L444.970822,326.123556L445.220127,327.323340L445.461116,328.528004L444.931855,329.493172L443.862510,330.278875L442.517185,330.962537L442.116461,331.954587L441.768911,332.964360L441.108886,333.863443L440.761567,334.871333L439.974040,335.717411L440.352944,336.995041L440.640648,338.248249L441.105647,339.579678L441.479198,340.886831L439.767254,341.364793L437.743336,341.696474L438.225438,343.050038L437.868395,344.060475L438.079092,345.316576L439.288106,347.019436L438.369882,347.798112L437.163562,348.439388L436.341620,349.246438L435.153462,349.876804L434.618587,350.806591L434.787710,352.074824L434.801356,353.276374L435.175683,354.664617L434.411905,355.491123L433.643999,356.311308L433.193643,357.292467L431.786440,357.769224L430.798054,358.456305L431.114226,359.844858L430.893773,360.950545L431.222114,362.367870L431.082272,363.533239L430.153803,364.251281L429.729908,365.257396L429.288753,366.255281L428.648194,367.135403L428.355161,368.225418L428.011981,369.289019L427.216201,370.073720L426.046831,370.618212L425.023777,371.246557L423.946258,371.831964L422.961122,372.469766L423.429472,374.070849L423.293538,375.281961L422.240787,375.873268L421.114432,376.405625L420.293857,377.143755L419.103101,377.614617L418.500073,378.498983L418.689125,379.962372L418.333032,381.037749L417.588983,381.827810L416.950180,382.695871L416.474624,383.689589L415.449525,384.259302L414.776274,385.099085L414.469408,386.230929L413.706531,387.001799L412.929755,387.759599L411.908120,388.312829L411.153159,389.082649L409.593068,389.168185L408.473247,389.613691L408.400277,390.960225L407.123936,391.261211L406.502323,392.133081L405.958557,393.077025L405.352773,393.968106L405.301149,395.373650L405.429025,396.962210L404.679863,397.740294L403.989253,398.574316L403.122773,399.239118L401.860401,399.512655L400.688115,399.863593L399.322299,400.009905L398.423707,400.616911L398.001246,401.710990L397.362375,402.587994L396.605610,403.343927L395.767285,404.013230L394.874386,404.622021L394.754328,406.073846L394.587562,407.491814L394.025274,408.483317L393.273559,409.266473L392.081770,409.545587L390.793150,409.701448L389.458395,409.789487L388.271445,410.038736L387.675914,410.990938L385.956597,410.576746L385.331000,411.488452L384.909030,412.661323L383.625394,412.754229L383.343252,414.118896L381.943425,414.048270L380.737474,414.214715L380.081020,415.101755L379.871568,416.598762L379.411680,417.775413L378.838922,418.809764L378.047008,419.547185L376.825445,419.677107L376.176761,420.618892L375.626467,421.712755L375.213811,423.022667L374.650056,424.125040L373.925196,424.996394L372.647864,425.026211L371.407584,425.098678L370.116474,425.077173L369.127442,425.522549L368.070864,425.855061L367.189203,426.468642L366.181260,426.873428L365.133575,427.207026L364.431962,428.127255L363.335662,428.372892L362.332275,428.773941L361.284516,429.092113L359.849429,428.702786L358.326619,428.126073L356.938000,427.767958L355.989106,428.216560L355.447829,429.446495L355.642387,432.132486L355.609928,434.435918L354.945046,435.524866L353.956122,435.971810L352.480791,435.410777L351.546703,435.955519L350.630062,436.540115L350.033546,437.823454L349.197066,438.604498L347.676309,437.862981L346.483853,437.830260L344.893022,436.859433L343.433849,436.151538L342.766138,437.300843L341.868657,437.915937L341.307625,439.372449L341.030841,441.583517L339.926779,441.735221L338.952809,442.218299L337.905049,442.508434L336.415051,441.595567L335.478568,442.163842L334.462178,442.514811L332.979253,441.525475L331.974992,441.884951L331.008178,442.356923L330.045530,442.847058L329.361962,444.212444L328.251185,444.263878L327.196971,444.487293L326.232185,445.003396L325.309014,445.669910L324.455819,446.595741L323.403449,446.843605L322.293508,446.880107L321.272477,447.235462L320.175955,447.306615L319.086461,447.395035L318.021744,447.573629L316.593557,446.251403L315.666299,446.962160L314.502081,446.668927L313.310146,446.221522L312.340197,446.755517L311.205110,446.525644L310.460384,448.174445L309.563171,449.146029L308.756956,450.640973L307.693964,450.841941L306.623142,450.999562L305.583656,451.335429L304.353635,450.543092L303.074708,449.372083L301.835892,448.352682L300.698654,447.918274L299.669906,448.194317L298.937542,450.656749L297.847211,450.587574L296.680151,449.878907L295.689287,450.577962L294.507556,449.631402L293.443054,449.671605L292.380018,449.717763L291.275257,449.309347L290.192379,449.080791L289.204914,449.979435L288.271726,451.732660L287.247264,452.458240L286.176814,452.578980L285.125226,453.042740L284.043063,453.000842L282.947250,452.627655L281.899774,453.372040L280.820345,453.398016L279.745504,453.592420L278.674423,454.067818L277.580582,453.349252L276.497357,452.836552L275.421763,452.879860L274.349332,451.929045L273.263735,453.509496L272.182069,453.620729L271.123001,452.625527L270.021169,453.586068L268.978806,452.440687L267.915146,452.163682L266.847140,452.042658L265.807666,451.390844L264.707521,451.906118L263.604816,452.352137L262.481431,453.003272L261.390709,453.111275L260.308502,453.087996L259.277928,452.472859L258.211830,452.299841L257.087071,452.717472L256.047016,452.282675L254.869750,453.096478L253.744076,453.381115L252.581584,453.919130L251.507937,453.718283L250.412040,453.684385L249.388637,453.136416L248.350569,452.718615L247.297330,452.418303L246.216697,452.296856L244.920415,453.450903L244.015944,452.268196L242.895300,452.348180L241.763353,452.470234L240.790295,451.750455L239.577298,452.263595L238.573901,451.715503L237.490105,451.565317L236.273204,452.019119L235.230657,451.659676L234.523723,449.856920L233.663552,448.781866L233.019584,446.864863L231.916979,446.862452L230.302311,448.838649L229.181555,448.831063L228.130966,448.550747L227.305357,447.456782L226.310786,446.996739L225.295689,446.615037L224.095254,446.862651L222.987829,446.778944L222.189951,445.684909L221.369490,444.694819L220.685765,443.308458L219.727403,442.798746L218.466526,443.196063L217.340741,443.170336L215.874866,444.104818L215.012606,443.296619L213.859158,443.306712L213.089616,442.265537L212.722944,440.180134L211.599512,440.127210L211.098007,438.471560L209.809986,438.837082L208.576212,439.042337L207.728069,438.290796L206.785112,437.777140L205.693958,437.614574L204.473033,437.742994L203.051456,438.308751L201.283249,439.616274L200.459791,438.791887L199.596378,438.065698L198.978220,436.825884L198.339985,435.652283L197.609564,434.690658L196.236598,435.049685L194.845297,435.420281L193.808588,435.066318L192.853347,434.550068L192.271926,433.318997L191.965930,431.589739L191.381632,430.413076L190.251460,430.255604L189.731810,428.985522L188.140785,429.644146L186.730524,429.952370L185.838674,429.339857L184.369661,429.714633L183.793026,428.561697L182.814275,428.092896L181.355852,428.407493L179.811333,428.837589L178.650100,428.629706L177.769567,427.970263L176.920564,427.263752L176.589046,425.767413L175.665127,425.190265L174.967292,424.275125L174.487551,423.046757L173.558497,422.487595L172.703998,421.820035L172.077331,420.830904L171.262579,420.114171L170.577368,419.220779L169.751307,418.526045L168.698765,418.137730L167.481764,417.961732L166.740210,417.149656L166.493151,415.700267L165.228611,415.573461L164.527673,414.720605L163.661146,414.079129L162.499211,413.801339L162.200986,412.461162L161.850929,411.199408L160.844114,410.732583L159.360651,410.820161L158.696325,409.938302L158.013774,409.081643L157.411808,408.137338L157.300254,406.650109L155.591760,406.946147L153.858523,407.244733L153.919356,405.583694L152.558517,405.459689L152.202181,404.263522L151.985795,402.932661L149.348293,404.103465L148.596021,403.314373L147.998758,402.370408L147.115227,401.714293L147.181947,400.125140L146.076993,399.688690L145.063042,399.157073L143.505369,399.132649L142.391251,398.676091L141.930625,397.609129L141.727659,396.313913L141.888710,394.703089L141.840033,393.297953L140.722901,392.844954L139.908661,392.120697L138.927359,391.537275L137.852740,391.027003L137.604318,389.818558L136.112124,389.645958L136.244801,388.132294L135.767523,387.126290L135.444092,386.001925L136.092586,384.120922L134.496745,384.006743L133.492654,383.421023L132.370888,382.917653L131.079799,382.531873L130.401838,381.681662L130.264446,380.437047L129.487265,379.661874L129.988291,377.976368L129.808257,376.788783L128.177539,376.613049L128.143679,375.328206L126.451190,375.172006L125.494166,374.507176L125.062208,373.491241L124.206965,372.752540L123.565806,371.872355L122.845205,371.041372L121.948720,370.317563L121.332379,369.416258L121.127603,368.264742L120.813091,367.184778L120.732146,365.971073L120.022621,365.130585L118.710324,364.633129L119.193948,363.107706L118.423653,362.297625L118.270987,361.144228L119.456560,359.271593L117.659432,359.018218L117.519206,357.872874L117.309379,356.769198L116.138576,356.160848L116.108423,354.968051L116.299686,353.672368L116.309804,352.475178L115.652552,351.605996L115.203411,350.635424L114.624198,349.725580L113.322880,349.145020L113.082475,348.073184L113.066204,346.904760L112.702983,345.893953L112.208227,344.940601L111.431170,344.105491L111.258622,343.014163L110.815508,342.036696L110.471047,341.019112L109.888651,340.096106L108.891727,339.331002L108.622504,338.280667L109.015756,336.984511L108.162624,336.155818L107.031135,335.420623L106.633382,334.416029L105.497359,333.666435L106.104529,332.314706L106.698089,330.980371L106.196160,330.015597L106.188038,328.890918L105.220824,328.070273L104.592112,327.137479L103.872674,326.227699L102.810081,325.412988L101.787168,324.576968L100.214277,323.885306L101.332771,322.441763L101.858312,321.174623L102.308108,319.937622L102.148516,318.864587L99.786859,318.337577L98.178864,317.602032L97.388881,316.657345L98.566196,315.256913L99.424370,313.945354L99.851956,312.740460L99.125176,311.785311L98.771123,310.748187L97.343705,309.920308L96.693614,308.929234L99.553134,307.286725L100.321123,306.054253L101.183819,304.817463L101.820699,303.630996L99.132057,302.983746L97.569569,302.133033L96.481016,301.195463L94.827874,300.325761L93.922186,299.337096L93.207894,298.314543L94.447643,297.046343L95.795378,295.782478L97.449987,294.502969L99.598412,293.193940L100.026598,292.080452L101.134091,290.911289L101.489455,289.821055L98.673715,288.987805L97.121091,288.028790L94.900105,287.096742L93.869402,286.065876L94.529779,284.930256L94.535449,283.835432L95.971628,282.679959L96.153325,281.588670L96.129241,280.506400L95.624293,279.436133L95.325755,278.356223L95.596255,277.265760L96.135889,276.176964L96.394575,275.094932L96.509780,274.015245L95.556445,272.924521L95.034798,271.829715L96.232083,270.769047L96.673314,269.700091L97.783080,268.660007L97.387497,267.569927L96.723914,266.461673L95.617864,265.320872L95.704648,264.237543L97.644177,263.276942L97.718329,262.204409L98.422139,261.181113L99.219021,260.173216L99.984258,259.171073L99.672559,258.073124L99.193648,256.952954L97.777346,255.723636L96.518578,254.493653L96.807220,253.433999L97.077342,252.373931L97.638777,251.354340L97.995532,250.311351L99.360462,249.417763L101.211718,248.612966L101.436242,247.572036L100.939156,246.413321L99.784277,245.134159L98.318468,243.783436L98.141591,242.647852L98.831857,241.671660L100.423109,240.877695L101.318955,239.960829L101.913492,238.989888L101.914439,237.896455L101.177613,236.637368L101.827334,235.680808L102.275290,234.682391L102.291332,233.583002L102.338641,232.488310L102.489848,231.417175L103.543246,230.578337L104.032560,229.599837L105.046147,228.766738L104.702659,227.565173L103.946721,226.237813L105.276933,225.505073L105.375746,224.418666L106.497967,223.641459L106.429737,222.504256L106.369114,221.364352L107.421927,220.580895L107.564282,219.505354L107.855636,218.477605L107.266927,217.145623L106.299067,215.667587L106.260912,214.504827L107.170058,213.682651L109.688080,213.466720L110.098361,212.481241L110.082997,211.331883L110.901616,210.504736L109.066120,208.621854L109.887492,207.789088L109.650226,206.523758L109.813968,205.418114L110.076978,204.351332L110.495856,203.350085L110.806502,202.300707L111.625443,201.478205L112.732542,200.792925L113.207031,199.823334L115.394427,199.662563L115.920667,198.730985L116.699615,197.923417L117.168713,196.967337L117.565375,195.974853L116.898941,194.439437L117.688926,193.639689L118.394235,192.800065L117.879159,191.313645L118.982123,190.685777L118.979737,189.461163L119.663861,188.610173L121.561205,188.446112L121.523272,187.196797L121.689502,186.056791L122.456568,185.264224L122.433078,184.003794L123.745818,183.541923L124.280457,182.615659L123.769499,181.039355L124.446380,180.192964L124.369206,178.867080L126.076652,178.684182L126.986090,177.997601L127.356817,176.958874L128.491897,176.430523L128.305692,175.011035L128.995463,174.182402L128.624494,172.613231L129.419876,171.852609L130.300351,171.156171L132.225501,171.223684L133.631033,170.932674L134.814332,170.490464L135.309345,169.538998L135.512793,168.361916L136.101038,167.474254L136.409586,166.366148L136.667716,165.211221L137.110173,164.196409L137.792595,163.372290L137.669370,161.884728L138.077626,160.823960L138.789838,160.013993L139.611380,159.297806L141.022780,159.094461L142.478685,158.945116L142.425326,157.473939L143.268879,156.791096L143.801205,155.828362L144.239132,154.774674L146.076053,155.016506L147.432030,154.830373L149.002668,154.863280L150.703143,155.040986L150.626141,153.505138L150.643209,152.043107L150.761804,150.665297L150.444614,148.830717L151.803600,148.688218L152.561183,147.936365L153.719875,147.605565L155.040810,147.457143L154.503943,145.323538L155.670946,145.011508L156.047850,143.838355L156.876734,143.158509L158.306066,143.157908L158.628373,141.908634L159.247559,140.989586L159.841154,140.035128L160.973823,139.713855L162.194141,139.507016L162.650472,138.383013L163.502510,137.735070L163.497715,136.019805L163.447509,134.221111L164.709411,134.070745L165.357431,133.139152L167.279402,133.869830L168.473624,133.670105L169.390130,133.108588L170.265108,132.492542L170.490197,130.981372L171.217592,130.148624L171.366462,128.492707L173.099119,129.078023L174.827967,129.689187L175.511794,128.796552L176.844046,128.861654L176.790336,126.853518L176.113986,123.856058L177.145276,123.439251L178.701942,123.851777L179.597972,123.240325L181.591709,124.397770L183.254716,125.061861L183.698160,123.739065L185.267081,124.285253L186.775388,124.758604L188.312255,125.309560L189.107661,124.592552L188.957841,122.191220L189.295117,120.613345L189.156228,118.134721L190.100673,117.607356L191.318304,117.593453L191.912222,116.403597L192.649378,115.470694L193.536467,114.819504L194.971591,115.257416L196.127355,115.157455L197.532738,115.582854L198.557755,115.241252L199.141876,113.967523L199.580849,112.354798L200.425856,111.594520L201.323401,110.941165L202.428223,110.750101L203.936296,111.495093L205.054324,111.367131L206.118009,111.119927L207.449486,111.526621L208.566519,111.433760L209.274387,110.326660L210.326393,110.071791L211.073523,109.030324L211.861854,108.073736L213.164255,108.480108L214.245370,108.308814L215.107377,107.532386L215.947589,106.677726L216.763418,105.732550L217.692413,105.099098L218.713270,104.731838L219.855886,104.739405L220.875387,104.373227L221.630334,103.153544L222.816157,103.312328L224.005228,103.503119L225.116774,103.449902L226.302290,103.668404L227.316074,103.292667L228.123201,102.150723L228.900816,100.855183L229.954985,100.579535L231.029119,100.383007L232.407878,101.431506L233.554391,101.578312L234.533294,101.026385L235.633220,100.992091L236.597840,100.354235L237.667953,100.186282L238.657512,99.633155L239.521871,98.436017L240.482990,97.672449L241.653401,97.982904L242.832230,98.374807L243.983438,98.651347L245.462598,100.895080L246.588815,101.163769L247.739825,101.624944L248.803930,101.562121L249.622258,99.810803L250.637713,99.338550L251.666167,98.934149L252.794237,99.292350L253.755938,98.317224L254.766893,97.682701L255.764617,96.867522L256.794270,96.281820L257.851757,95.926078L258.910649,95.551696L260.072347,96.367106L261.180132,96.629080L262.264614,96.623572L263.381251,97.123653L264.387119,95.871061L265.493357,96.234598L266.594810,96.604949L267.705792,97.331817L268.858395,99.514865L269.888474,98.393746L270.971086,98.990974L272.016186,97.807344L273.068384,95.974411L274.148600,95.403368L275.237501,93.426012L276.337414,93.205720Z" />
<line x1="50" y1="550" x2="100" y2="550" fill="none" stroke="black" stroke-width="1.0" stroke-linejoin="round" stroke-miterlimit="10" />
<text x="125" y="553" style="text-anchor:start;fill:black">GC-content</text>
</g>
<g style="fill:pink;stroke:black">
<a href="" title="CP000852 AAXQ01000000 AAXQ01000001 AAXQ01000002:1 [118000-143099];"><path  d="M355.348358,59.490972L359.097272,60.926067L362.820569,62.426371L366.517115,63.991427L370.185784,65.620759L361.908759,83.827649L361.908759,83.827649L358.559105,82.339999L355.183998,80.911035L351.784466,79.541192L348.361545,78.230887Z" />
</a><a href="" title="CP000852 AAXQ01000000 AAXQ01000001 AAXQ01000002:2 [1521500-1542099];"><path  d="M46.413346,300.458622L46.003846,296.465357L45.664101,292.465554L45.394214,288.460431L65.359935,287.289959L65.359935,287.289959L65.606353,290.946810L65.916555,294.598805L66.290446,298.244829Z" />
</a><a href="" title="CP000852 AAXQ01000000 AAXQ01000001 AAXQ01000002:3 [1596500-1616599];"><path  d="M46.543192,248.401376L47.042197,244.418306L47.610640,240.444552L48.248348,236.481323L67.965883,239.830773L67.965883,239.830773L67.383628,243.449373L66.864615,247.077584L66.409001,250.714300Z" />
</a><a href="" title="CP000852 AAXQ01000000 AAXQ01000001 AAXQ01000002:4 [1893500-1913099];"><path  d="M153.476026,79.726029L156.902535,77.634885L160.365018,75.603859L163.862420,73.633572L173.526557,91.143696L173.526557,91.143696L170.333277,92.942654L167.171880,94.797069L164.043328,96.706374Z" />
</a></g>
<path  style="fill:pink;stroke:black" d="M350,550L375,550L375,565L350,565Z" />
<text x="405" y="565" style="text-anchor:start;fill:black">Selected loci;</text>
</svg>