<svg xmlns="http://www.w3.org/2000/svg" viewbox="0 0 550 650">
<circle cx="275" cy="275" r="240" fill="none" stroke="black" stroke-width="1.0" />
<line x1="275" y1="15" x2="275" y2="55" fill="none" stroke="grey" stroke-width="1.0" stroke-linejoin="round" stroke-miterlimit="10" />
<line x1="495" y1="275" x2="535" y2="275" fill="none" stroke="grey" stroke-width="1.0" stroke-linejoin="round" stroke-miterlimit="10" />
<line x1="275" y1="495" x2="275" y2="535" fill="none" stroke="grey" stroke-width="1.0" stroke-linejoin="round" stroke-miterlimit="10" />
<line x1="15" y1="275" x2="55" y2="275" fill="none" stroke="grey" stroke-width="1.0" stroke-linejoin="round" stroke-miterlimit="10" />
<text x="275" y="10" style="text-anchor:middle" font-size="15">Candidatus Nitrosocaldus cavascurensis strain SCU2 genome assembly,</text><text x="285" y="25" style="text-anchor:start">1,577,284</text><text x="525" y="265" style="text-anchor:start">0.39 Mbp</text><text x="285" y="530" style="text-anchor:start">0.78 Mbp</text><text x="-200" y="25" style="text-anchor:end" transform="rotate(-90)">1.18 Mbp</text><circle cx="368.096580" cy="53.791892" r="2.500000" fill="grey" stroke="black" stroke-width="1.0" />
<circle cx="446.614318" cy="107.224776" r="2.500000" fill="grey" stroke="black" stroke-width="1.0" />
<circle cx="498.257409" cy="186.931110" r="2.500000" fill="grey" stroke="black" stroke-width="1.0" />
<circle cx="514.938589" cy="280.428952" r="2.500000" fill="grey" stroke="black" stroke-width="1.0" />
<circle cx="494.045601" cy="373.076626" r="2.500000" fill="grey" stroke="black" stroke-width="1.0" />
<circle cx="438.850269" cy="450.365588" r="2.500000" fill="grey" stroke="black" stroke-width="1.0" />
<circle cx="357.996131" cy="500.192456" r="2.500000" fill="grey" stroke="black" stroke-width="1.0" />
<circle cx="264.144873" cy="514.754387" r="2.500000" fill="grey" stroke="black" stroke-width="1.0" />
<circle cx="171.993519" cy="491.770996" r="2.500000" fill="grey" stroke="black" stroke-width="1.0" />
<circle cx="95.972887" cy="434.841462" r="3.000000" fill="black" stroke="black" stroke-width="1.0" />
<circle cx="47.987741" cy="352.880898" r="2.500000" fill="grey" stroke="black" stroke-width="1.0" />
<circle cx="35.552511" cy="258.724255" r="2.500000" fill="grey" stroke="black" stroke-width="1.0" />
<circle cx="60.614543" cy="167.116379" r="2.500000" fill="grey" stroke="black" stroke-width="1.0" />
<circle cx="119.249145" cy="92.402981" r="2.500000" fill="grey" stroke="black" stroke-width="1.0" />
<circle cx="202.274192" cy="46.284113" r="2.500000" fill="grey" stroke="black" stroke-width="1.0" />

<circle cx="275" cy="275" r="185" fill="white" stroke="grey" stroke-width="0.5" />
<circle cx="275" cy="275" r="170" fill="none" stroke="black" stroke-width="0.5" />
<circle cx="275" cy="275" r="170" fill="aliceblue" stroke="black" stroke-width="0.5" />
<circle cx="275" cy="275" r="167" fill="white" stroke="none" stroke-width="0.5" />
<circle cx="275" cy="275" r="140" fill="none" stroke="black" stroke-width="0.5" />
<circle cx="275" cy="275" r="140" fill="aliceblue" stroke="black" stroke-width="0.5" />
<circle cx="275" cy="275" r="133" fill="white" stroke="none" stroke-width="0.5" />
<circle cx="275" cy="275" r="110" fill="none" stroke="black" stroke-width="0.5" />
<circle cx="275" cy="275" r="110" fill="white" stroke="black" stroke-width="0.5" />
<circle cx="275" cy="275" r="109" fill="aliceblue" stroke="none" stroke-width="0.5" />
<circle cx="275" cy="275" r="80" fill="none" stroke="black" stroke-width="0.5" />

<g style="fill:none;stroke-linejoin:round;stroke-miterlimit:10">
<path style="stroke:blue;stroke-width:1.0" d="M277.419951,123.122263L278.686328,120.785150L279.951082,119.682539L281.169545,120.198512L282.316446,122.054720L283.506900,122.616384L284.764354,122.004539L286.220961,118.773574L287.288179,121.085974L288.562248,120.639879L289.595494,122.797896L290.859127,122.423534L291.943478,123.721882L293.168544,123.692033L294.346786,124.049549L295.765390,122.619054L297.561739,118.751935L299.582804,113.843205L300.307201,117.521166L301.444387,118.418467L302.707553,118.540847L304.128874,117.818527L305.001831,120.010328L305.528720,123.756657L306.374766,125.707898L308.685195,120.827290L310.731712,117.488992L313.165121,112.764094L313.050059,118.845021L313.118529,123.811165L313.472162,127.379930L315.129417,125.898819L316.138093,126.864018L317.193309,127.628447L318.060979,129.003712L319.319266,129.033589L320.576024,129.086373L322.801343,126.139820L324.881552,123.810367L324.924405,127.636849L326.804932,126.002786L327.366636,128.169079L327.443421,131.575630L329.326545,130.017472L330.301792,130.918924L330.574120,133.587567L331.934403,133.449532L332.919872,134.248949L333.992523,134.826245L334.750423,136.130399L336.153671,135.931414L337.142102,136.684767L338.411978,136.814025L339.729363,136.857368L342.069335,134.782040L341.501572,138.768039L342.819982,138.830025L345.309325,136.605918L345.993468,137.973807L346.350392,139.930441L347.162841,140.988592L350.273987,137.840089L349.055492,142.572889L351.171898,141.300029L352.134879,142.083092L352.975632,143.066889L356.864916,138.972256L355.291249,143.961533L355.670236,145.667429L356.380863,146.813879L357.548668,147.235497L360.114770,145.538383L360.478604,147.214569L361.071795,148.519991L361.824266,149.574448L362.608276,150.571969L365.752548,148.263396L365.150942,151.199250L366.271990,151.735598L369.024387,150.111348L374.193249,145.407487L373.998228,147.775296L374.315477,149.444416L373.931320,151.957601L372.326234,155.909366L371.914716,158.322533L373.260559,158.601601L377.078728,156.014901L378.924174,155.798801L380.160102,156.303730L381.670402,156.514413L381.030308,159.095899L378.550474,163.601862L379.460554,164.403011L380.905573,164.647737L381.607828,165.672978L383.370635,165.622293L386.650221,164.093610L389.428686,163.130693L391.806739,162.611857L388.482535,167.538246L389.617448,168.182623L390.782225,168.808063L392.193018,169.220797L395.848465,167.656140L396.419812,168.867120L395.850578,171.051450L393.957836,174.317220L393.415620,176.384577L394.831725,176.811475L396.510238,177.043713L399.175206,176.517210L401.140732,176.585220L400.229751,178.891121L398.777861,181.562887L400.383305,181.909808L398.981757,184.473661L399.253477,185.784224L400.909773,186.106660L400.973018,187.557529L402.179901,188.213027L404.541497,188.106003L405.935427,188.675521L407.463716,189.174129L409.502367,189.366913L407.590653,192.061127L406.574338,194.148089L406.679833,195.521506L405.757109,197.492933L406.481310,198.472616L406.782799,199.696289L407.832374,200.494050L408.831543,201.329109L408.513314,202.884305L409.654431,203.647830L411.055051,204.288170L411.137192,205.617421L411.707927,206.693095L414.530552,206.666459L413.825821,208.377608L414.200266,209.557176L414.878087,210.594199L414.053958,212.311513L415.731068,212.899730L415.180097,214.472505L417.321575,214.888554L420.011432,215.109338L417.571613,217.442300L419.477425,218.007308L417.429779,220.122302L417.961087,221.221686L419.089497,222.103741L419.249959,223.345193L419.677366,224.488934L419.877365,225.710488L420.139171,226.908137L419.268406,228.468929L420.433543,229.369100L421.828177,230.213299L424.841531,230.595881L424.671763,231.940329L423.886759,233.447634L421.066915,235.486231L424.771563,235.761895L425.559862,236.834584L433.122133,236.255674L430.626861,238.178887L423.046987,241.215490L424.000191,242.244645L431.187693,241.966831L432.639226,242.969763L430.259034,244.739363L431.802032,245.733356L429.062054,247.513093L427.746395,249.001752L426.270606,250.491388L424.962741,251.927861L425.516084,253.068812L427.040141,254.082373L425.999313,255.450051L426.698447,256.587148L429.193396,257.529710L435.364090,258.123461L436.866389,259.268183L435.328285,260.706118L432.705286,262.205536L428.394895,263.784620L427.084563,265.097890L429.338551,266.185363L430.878850,267.342805L428.964397,268.666002L427.078538,269.956888L427.925698,271.148212L426.939722,272.384115L427.038482,273.593938L427.479155,274.804718L426.787017,276.014921L426.637686,277.222179L426.709814,278.432348L426.073991,279.622443L425.954429,280.822898L426.327926,282.045139L425.946196,283.233050L426.456938,284.471720L426.809741,285.708627L426.021261,286.862901L425.364670,288.017467L425.180135,289.207816L427.592745,290.663614L429.057373,292.055322L431.744024,293.617997L433.087617,295.056094L426.112271,295.395720L426.760922,296.715740L428.050964,298.146120L429.704929,299.658537L425.823561,300.273629L424.473110,301.273301L424.782529,302.559641L424.010496,303.646789L423.218550,304.720960L426.023896,306.537122L431.013513,308.878430L427.347692,309.355627L427.140134,310.584896L422.674901,310.783746L425.730527,312.798050L424.787338,313.832510L425.230694,315.227468L421.952905,315.607215L421.860776,316.843958L421.259940,317.935524L422.969602,319.720914L422.985335,321.015510L420.065056,321.378128L421.106456,322.997396L419.581733,323.776093L420.322385,325.319030L421.061366,326.881745L424.404993,329.413759L421.271972,329.596513L417.722868,329.571193L417.187418,330.668891L416.777707,331.815287L415.386406,332.560015L416.120896,334.178829L417.171675,335.955848L415.208922,336.441283L413.327751,336.935262L416.901313,339.897371L418.261973,341.904849L417.606123,342.987709L421.148946,346.111272L425.550558,349.742174L436.484499,356.780492L447.661912,364.176520L448.016086,366.112832L436.982718,361.957904L417.254092,352.833173L411.902920,351.328799L411.073229,352.293688L408.221906,352.084321L407.777814,353.245951L408.331613,355.010249L404.594974,354.179025L405.433945,356.125717L409.691920,360.269710L409.463836,361.633593L405.536426,360.582537L401.846189,359.615745L400.003280,359.833190L399.484917,360.937872L398.573649,361.770578L398.403823,363.127544L398.486553,364.680734L398.306305,366.059125L396.036130,365.881692L396.625072,367.848376L394.410270,367.672626L395.614824,370.156815L393.794544,370.266013L393.782987,371.821739L391.881589,371.831957L391.750252,373.302181L393.191843,376.136101L391.085276,375.946613L390.390384,376.968149L391.054390,379.213268L395.449282,384.905701L393.419433,384.795209L387.219348,380.721712L384.658618,379.970836L383.763089,380.786936L382.834425,381.568656L381.942013,382.384271L380.899222,383.045279L382.041740,385.965791L385.857263,391.768849L381.152438,388.612328L378.734851,387.813304L376.523114,387.188931L376.960686,389.492849L378.198780,392.758864L377.789485,394.194411L377.656406,395.975656L379.514811,400.173653L376.791168,398.904955L372.454653,395.572117L369.321152,393.616014L368.303298,394.274419L368.346008,396.308251L367.613287,397.360825L365.821903,397.001882L364.753782,397.594222L364.133896,398.804978L363.280547,399.703057L362.317443,400.450142L361.136637,400.880853L360.590246,402.245849L361.319736,405.564619L360.858951,407.144186L357.429644,404.106067L355.578884,403.452221L354.574442,404.124997L355.629075,408.200816L353.146823,406.452895L352.185590,407.222982L350.296767,406.380362L350.962407,410.024050L351.394233,413.359715L351.653117,416.480834L349.987725,416.079043L347.594017,414.241116L344.624347,411.180861L343.045113,410.749561L342.230111,411.834208L341.196825,412.488044L339.636549,412.029918L338.622905,412.713965L337.479220,413.118112L336.789209,414.542762L338.568187,421.706504L337.328981,422.046984L334.274174,418.000206L332.143559,416.026018L331.233098,417.019569L330.321203,418.035408L330.741055,422.605694L330.192264,424.751621L326.936885,419.455432L325.150449,418.056372L323.921166,418.193921L323.319716,420.204670L323.125085,423.560080L323.732655,429.626873L325.519394,439.866424L323.441496,437.701640L319.951670,430.499561L316.724800,423.769623L314.837287,421.519305L313.969610,422.974642L313.339102,425.437142L312.788100,428.370901L311.701642,429.241367L310.017895,427.552201L308.591941,426.879323L307.264728,426.596529L305.536286,424.307944L304.435707,425.004762L303.227215,425.168185L301.927865,424.820452L300.829035,425.587860L299.511158,425.070554L298.271373,424.981405L297.350033,427.027885L296.047580,426.549240L294.975133,427.749158L293.761112,427.932534L292.361586,426.501922L291.093699,426.069226L289.898261,426.280410L288.637481,425.785590L287.601496,427.900686L286.297846,426.852557L285.089138,426.959756L283.849684,426.547806L282.660641,426.982920L281.447327,426.986753L280.246513,427.331508L279.049016,427.984189L277.876641,430.530021L276.667970,433.448141L275.418859,438.653010L274.141291,433.793284L272.952583,428.071520L271.759420,426.818498L270.556013,426.582174L269.337124,426.846943L268.128468,426.776460L266.951967,426.106949L265.735316,426.250848L264.486623,426.807142L263.273884,426.765461L262.114480,426.088679L260.934607,425.730000L259.753760,425.420038L258.462510,426.146859L257.177705,426.700969L256.115232,425.394914L254.906212,425.325134L253.689074,425.302275L252.302062,426.396557L250.844597,427.805092L250.013973,425.286029L248.744614,425.499623L247.392962,426.125697L246.018834,426.796532L245.139757,424.907293L244.107681,423.887299L243.100298,422.812480L241.592540,424.030890L240.510737,423.310772L238.889709,424.859508L237.035974,427.217143L237.050611,422.155255L235.970556,421.506172L234.781908,421.273024L231.826237,427.266597L230.191351,428.366100L228.069015,431.002190L227.955166,426.980783L228.796796,420.157581L227.939230,418.875532L225.461732,422.463252L223.859369,423.308276L221.237632,426.971673L221.251358,423.167713L218.820263,426.103156L213.644398,436.083652L208.833930,444.637578L215.193193,424.797259L215.398613,420.896452L206.160888,439.747696L199.889852,450.805134L210.172607,423.452105L212.955521,414.048127L211.164088,415.053596L210.068848,414.500733L209.178393,413.518359L208.484924,412.148261L207.281967,411.841127L205.859151,411.960378L205.011443,410.936588L204.286987,409.695928L203.332924,408.910009L202.111150,408.622946L200.682735,408.696709L197.805556,411.304063L196.680875,410.756135L196.742840,408.185903L196.144473,406.789011L195.692970,405.178350L194.096811,405.447808L192.570061,405.575370L191.237430,405.373589L189.512669,405.755550L188.732840,404.680697L189.245720,401.708925L188.215080,401.056371L186.318553,401.639017L183.815033,403.030941L184.723988,399.641124L184.217413,398.261354L183.037964,397.801655L182.612226,396.343107L181.500941,395.793728L180.013250,395.716382L178.999106,395.025067L177.684065,394.701500L176.078255,394.715352L174.613323,394.535844L173.617664,393.786753L173.268089,392.290904L171.544856,392.375252L171.896072,390.114768L169.997236,390.371942L167.213981,391.550995L165.243144,391.801374L159.426856,396.043882L162.884004,390.565505L164.624188,386.972822L163.968514,385.857357L165.585171,382.516232L164.569095,381.798716L163.496112,381.130270L163.076650,379.842740L162.876427,378.365538L162.708158,376.877720L159.220659,378.372126L147.230537,387.260819L137.152151,394.183315L135.075135,394.044249L149.703532,379.889563L155.015540,373.827623L156.531553,371.005036L156.110568,369.786976L155.121832,369.022926L152.640787,369.404071L152.223276,368.175252L153.097073,365.990733L152.576860,364.869208L152.250148,363.612795L150.977233,363.037237L148.963193,362.965239L149.791703,360.911705L149.271723,359.803182L148.571502,358.817763L147.484022,358.083920L146.731837,357.125740L146.022689,356.138287L144.912621,355.397219L143.816674,354.637238L142.753095,353.847895L140.871026,353.528350L142.976017,350.890077L141.839905,350.138103L142.204487,348.543735L141.471333,347.565719L140.452557,346.736791L139.490007,345.869304L139.285352,344.605035L138.327844,343.726385L137.936111,342.560672L136.965225,341.677621L134.849940,341.327528L132.534679,341.039185L133.476472,339.237824L134.687318,337.344849L135.906303,335.480916L135.639156,334.281382L133.376950,333.915661L128.943625,334.399395L123.547777,335.192129L127.825277,332.138602L132.423955,329.050100L130.885005,328.324250L127.389140,328.284624L127.519826,326.913132L128.193357,325.365154L131.381047,322.996109L131.171557,321.795602L129.540677,321.047942L129.269879,319.859454L122.875184,320.504286L123.046912,319.137080L122.308198,318.035521L126.187490,315.665216L127.406738,314.071060L127.227398,312.861338L126.235793,311.854925L127.739879,310.239485L127.441697,309.070247L127.267441,307.872985L126.415661,306.822293L125.476100,305.779702L124.746226,304.684152L125.577099,303.284992L125.668650,302.037124L124.549636,301.003538L124.780504,299.732739L125.440527,298.401793L123.827255,297.421839L122.811793,296.334717L120.920999,295.349464L121.611139,294.016217L123.278323,292.583356L122.127315,291.483552L124.395296,290.026190L122.675872,288.973027L120.817655,287.905642L120.254127,286.712100L117.865402,285.634547L120.694819,284.208703L119.485689,283.038017L119.730876,281.785479L121.987916,280.465853L123.695697,279.198172L122.857488,278.008605L123.485205,276.788752L123.439983,275.581713L123.208971,274.373259L118.205673,273.103317L117.378238,271.837189L113.128078,270.461504L116.875093,269.305467L117.764661,268.082782L123.293959,267.114586L123.872508,265.936832L123.535661,264.704956L123.492192,263.488665L122.127374,262.159219L124.328198,261.134359L124.732525,259.963322L119.589627,258.197101L121.847987,257.205744L124.723452,256.325255L122.408762,254.801878L124.739641,253.890985L122.754650,252.373824L123.374306,251.229728L121.939198,249.753738L124.248253,248.899221L118.252224,246.573020L122.112249,246.013074L124.709966,245.263272L122.140202,243.487261L115.591198,240.810947L120.080204,240.480450L121.536497,239.519272L120.739478,238.037881L124.706773,237.719884L126.477745,236.900562L128.431130,236.154506L128.717587,234.980451L127.943152,233.506501L122.924508,230.779408L117.460751,227.826208L119.844477,227.189768L121.791395,226.449851L128.782724,227.380149L131.345624,226.945609L131.044910,225.566339L129.150845,223.613315L130.034347,222.622589L131.073177,221.697787L133.463985,221.297094L132.181202,219.504730L131.248623,217.820031L129.413763,215.742460L128.670435,214.076491L128.611945,212.679101L130.911073,212.297222L134.204369,212.391531L137.039355,212.330986L135.450754,210.263242L137.561470,209.906807L139.006015,209.259400L138.411464,207.624259L138.352350,206.236147L139.571747,205.492102L140.128938,204.414890L140.771285,203.383008L135.633731,199.209349L136.356137,198.164688L136.345999,196.708689L134.553319,194.214038L138.762034,195.183694L142.487704,195.941633L145.140922,196.114982L144.592570,194.352566L142.396379,191.526607L142.451691,190.079472L143.314902,189.145100L140.585109,185.831254L142.882523,185.831421L143.291943,184.572139L141.750605,181.943223L143.433475,181.550296L145.833787,181.698102L151.286876,184.128458L153.058367,183.925148L153.684889,182.878358L154.512000,181.983722L154.977377,180.807390L156.090176,180.140194L156.969004,179.292590L157.495720,178.157861L156.732691,175.936257L158.638063,175.944101L158.938980,174.594593L159.035427,173.051425L160.584569,172.785813L162.057126,172.471732L162.998090,171.686355L163.235572,170.245091L164.565248,169.826117L165.254080,168.801958L166.824483,168.639725L167.521359,167.627487L166.119579,164.479939L166.400278,162.993801L167.712922,162.568969L169.817727,163.001572L171.780426,163.321653L172.791840,162.633009L173.570719,161.688678L174.267129,160.646288L175.790014,160.549505L176.285992,159.271512L176.327629,157.436070L178.080131,157.637836L179.344844,157.271381L179.210766,155.168138L175.692938,148.717488L177.407504,148.842083L182.293433,153.164695L183.561908,152.823960L184.565944,152.137059L184.783516,150.364788L183.402288,146.310350L186.450800,148.471541L188.666466,149.521168L189.841710,149.092834L189.646738,146.612170L192.112271,148.140092L193.192187,147.587466L192.440018,144.134340L193.886969,144.128894L195.228104,143.972856L196.371936,143.504370L194.547432,137.986525L196.851615,139.448770L198.268686,139.421768L201.058604,141.888340L200.794534,138.869226L203.059876,140.485791L204.307688,140.248305L205.360014,139.643728L206.386676,138.986288L207.846371,139.200064L208.790133,138.379882L208.663373,135.293019L210.353276,136.004706L210.110825,132.525815L212.799908,135.494121L214.386027,136.086324L215.516362,135.658617L216.289452,134.377329L217.092339,133.131743L217.686770,131.327056L219.337737,132.169568L220.601898,132.057690L222.284464,133.087964L222.915697,131.289984L224.257099,131.430771L225.290296,130.705282L226.789182,131.349872L227.859945,130.740114L228.580176,129.014986L229.712842,128.546726L230.502741,126.931637L230.536301,122.649993L230.205541,116.842248L232.008179,118.460870L234.179266,121.590471L235.800215,122.813112L237.928218,126.176017L239.408593,127.105049L240.639484,127.047859L241.746482,126.453472L243.001211,126.519004L244.254839,126.605017L245.199593,125.165692L246.604103,126.033817L247.614287,124.838872L248.947006,125.403579L250.110268,125.023604L251.288608,124.720340L252.340949,123.562497L253.403791,122.366350L254.698940,122.787184L256.190217,124.849054L257.414728,124.939994L258.429792,123.145697L259.482939,121.463016L260.517743,119.313349L261.112318,111.599311L261.408022,98.417031L262.596729,95.145051L263.531118,86.867969L266.196197,108.792937L268.107696,121.778596L269.391645,123.431500L270.553548,121.812994L271.804487,123.224184L273.001908,122.295629L274.220022,122.568492L275.433077,123.055769L276.634391,123.915707Z" />
<line x1="50" y1="575" x2="100" y2="575" fill="none" stroke="blue" stroke-width="1.0" stroke-linejoin="round" stroke-miterlimit="10" />
<text x="125" y="578" style="text-anchor:start;fill:black">n1_4mer:GRV/n1_4mer:RV</text>
<path style="stroke:green;stroke-width:1.0" d="M276.397673,187.281087L277.240702,181.261839L278.001170,180.852089L278.835438,178.764146L279.525597,180.395495L280.061599,184.331871L280.758501,184.771350L281.881603,179.189296L282.359102,182.824498L283.237822,181.240384L283.543637,185.906781L284.780269,180.906618L285.306112,182.982932L286.168401,181.989354L286.823819,182.746387L288.042996,179.287662L289.367793,175.497927L291.059936,169.716329L291.102357,174.800044L291.727966,175.950985L292.594294,175.648450L293.718377,173.994309L293.929467,177.210236L293.649528,182.607757L293.450495,187.206094L296.233952,177.814993L298.629403,170.837876L300.239990,167.707465L299.947296,172.617911L299.125622,179.310981L298.049721,186.556792L300.207166,181.342566L301.142984,180.860568L300.694040,185.256613L301.179305,186.240259L301.709313,187.032331L302.247359,187.766391L305.398186,180.335724L307.032857,177.909277L306.667070,181.527494L308.573327,178.439074L308.976634,179.732845L307.861480,185.129107L308.483114,185.642826L308.942943,186.566415L308.805136,188.980346L309.362174,189.568668L309.641139,190.818586L309.961971,191.925902L309.319822,195.235209L311.659684,191.632798L311.616517,193.499345L312.781817,192.666704L313.684522,192.441152L317.675722,185.780349L315.497912,192.037902L315.507932,193.667568L319.846696,186.725547L319.190612,189.706642L317.268653,194.983504L318.581482,194.066160L322.784399,187.930029L320.159880,194.244444L322.706270,191.264041L322.166642,193.723613L321.484192,196.349734L328.474058,186.146852L324.246296,194.628115L324.891004,195.013476L323.795960,198.139611L322.392134,201.648939L327.751461,194.763756L326.718627,197.683727L327.050555,198.513217L327.103916,199.731152L327.130427,200.960346L332.039109,195.344463L329.167939,200.613296L330.603727,199.906205L334.875068,195.470457L341.918497,187.573322L340.282481,191.104111L340.876765,191.717959L337.273085,197.550010L336.804829,199.374180L335.567134,202.082078L339.444577,198.659650L343.224081,195.476585L342.703389,197.344101L344.763217,196.256888L345.290600,196.923768L342.709308,200.985441L340.345962,204.701737L340.183731,205.987113L341.047937,206.178887L338.869002,209.501923L340.124404,209.270405L345.937481,204.535115L349.384205,202.279516L350.455203,202.399136L346.826052,206.984657L347.782202,207.170851L348.154644,207.904784L350.271933,207.059049L354.625412,204.272589L354.551769,205.463915L353.143637,207.785446L349.813640,211.679705L349.532769,212.929805L349.433813,214.009922L352.941662,212.166811L355.397449,211.237149L355.849734,211.921178L356.153582,212.717836L352.042875,216.842073L354.161025,216.227303L351.695133,219.000394L349.905351,221.216885L354.370958,218.963448L353.599334,220.441332L355.358947,220.163428L358.415839,219.046226L358.211581,220.139398L358.875516,220.655388L362.747022,219.134452L361.960247,220.604123L359.955652,222.795088L357.046270,225.479023L354.367190,227.954618L353.535102,229.289428L353.669111,230.046667L352.224533,231.684601L355.668376,230.594093L355.132979,231.717085L356.716544,231.699140L358.830583,231.430769L358.570936,232.407914L358.053102,233.502038L362.438385,232.178020L360.078322,234.170986L358.939778,235.537029L358.581187,236.515678L357.706946,237.713947L360.181087,237.412219L359.697158,238.429139L364.955089,237.006249L366.799151,237.086355L359.445823,240.908309L364.349433,239.753907L360.862681,241.917408L360.958735,242.664517L361.241757,243.340049L358.768602,245.003104L359.507140,245.496105L360.133170,246.036384L362.814811,245.902563L360.730028,247.349386L363.749812,247.154060L365.405655,247.423746L370.726242,246.632435L366.683172,248.623300L367.023908,249.317319L360.242959,251.940222L364.384735,251.582419L366.166196,251.890283L373.209481,250.935942L374.371407,251.488855L363.960637,254.699070L367.390419,254.689416L374.105951,254.039427L376.703698,254.335133L377.122488,255.095899L377.885429,255.796734L372.175214,257.662531L373.133784,258.297109L369.477161,259.692967L366.993264,260.846608L364.938270,261.895400L368.710093,262.107400L364.704710,263.385891L365.129081,264.060314L368.823947,264.369639L377.787203,264.182789L380.316008,264.764323L379.129318,265.716471L377.433895,266.689646L368.638608,268.153667L367.789290,268.958560L371.843712,269.469028L373.875203,270.142980L367.068765,271.212349L365.414966,272.001728L366.289813,272.700654L364.222738,273.463888L365.123667,274.166530L365.382178,274.884247L364.788369,275.600368L368.717414,276.373384L368.257832,277.109905L365.257600,277.761631L362.080901,278.359048L364.947683,279.187555L362.117318,279.751635L363.800260,280.553336L361.963287,281.134372L363.659423,281.964304L365.381333,282.824551L365.308667,283.543666L367.902161,284.536388L370.727414,285.597752L372.589172,286.591606L375.017069,287.688861L366.322330,287.325834L364.118637,287.752144L367.777410,289.030863L374.169848,290.806758L366.921389,290.403343L366.076302,291.008733L369.519551,292.391380L362.995468,291.916846L363.089294,292.663770L368.354527,294.494485L373.196818,296.323499L370.195399,296.467326L370.550250,297.348776L362.130276,296.112915L366.824626,298.026469L365.535903,298.471519L368.041866,299.913942L362.994817,299.315439L364.152907,300.401681L363.426517,300.958159L369.169428,303.460865L366.822041,303.551735L362.038714,302.826775L362.202180,303.646766L360.349059,303.793358L361.642630,305.000699L365.474456,307.136990L373.385178,310.832185L366.344207,309.094537L358.704278,307.004978L359.001266,307.887982L361.128923,309.514873L359.263768,309.549098L363.314450,312.034528L366.056713,314.040401L361.498548,312.904733L358.267162,312.282277L364.886464,316.108818L366.724967,317.836525L363.959676,317.411675L363.854751,318.233801L361.554697,317.970855L359.144286,317.613137L354.904627,316.269186L354.898124,317.075535L351.325853,315.974347L353.267827,317.823607L356.052084,320.189746L356.279045,321.168943L354.504679,321.002676L353.393361,321.197199L354.394384,322.643348L349.063898,320.251039L352.152388,322.986303L354.689029,325.448909L353.154065,325.353817L351.998548,325.481933L348.807925,324.235319L348.385428,324.802853L348.091134,325.458294L347.806377,326.122965L347.942450,327.091085L347.825200,327.888490L347.407552,328.471462L346.637748,328.790218L345.927035,329.145579L347.322302,331.128318L352.290131,335.976606L348.385581,333.850780L350.762862,336.755410L345.194271,333.153288L345.316176,334.205298L350.685609,339.763754L345.938405,336.687339L346.326114,338.029445L347.477310,340.082392L353.022206,346.192498L350.430748,344.937294L344.352484,340.336891L341.491700,338.649256L340.657569,338.860940L340.402492,339.634793L338.222779,338.484237L337.408201,338.672909L340.173294,342.562486L346.220223,350.018120L341.556472,346.233745L338.134309,343.659568L336.388852,342.838243L334.100018,341.364102L333.870631,342.176557L334.143336,343.582454L339.113950,350.555218L339.160616,351.842877L337.714094,351.338519L337.266395,352.036764L330.556089,344.866002L329.780743,345.029050L331.528427,348.461787L331.226220,349.286173L328.699910,347.135574L328.924569,348.655287L327.841389,348.395501L328.737620,350.908518L328.099050,351.288118L326.753396,350.632876L327.052396,352.385586L330.004149,358.197610L329.806950,359.352530L325.683997,354.384202L322.635259,350.936206L322.034658,351.322874L326.400812,359.915151L322.950819,355.659376L322.357674,356.126190L319.666449,352.935541L323.367835,360.974383L325.285105,366.072749L325.569743,368.338010L324.242548,367.643051L321.315643,363.837098L317.611946,358.346298L315.182316,355.163461L313.942733,354.260587L315.593256,359.310499L314.319367,358.357323L313.762416,358.902582L311.185961,354.993581L312.960579,360.728951L315.438297,368.325946L314.104325,367.255207L312.016871,364.303989L309.894602,361.117261L309.535621,362.221479L307.445092,358.888215L310.767155,369.713594L310.801664,372.139650L306.621079,362.949762L304.423560,358.932006L303.314316,357.876968L304.202607,362.756206L305.263057,368.420764L306.292417,374.289658L307.605421,381.405458L306.634793,381.252555L304.237212,376.139149L301.257578,368.621301L298.769275,362.422059L298.965933,366.002972L299.166192,369.824674L299.650250,375.048191L298.842844,375.201317L296.961798,370.674528L296.340433,371.486552L295.382331,370.766824L293.238353,364.176889L292.618190,364.782533L292.172223,366.355863L290.624116,361.928989L290.792317,367.072012L289.324002,362.699278L288.686878,363.210404L288.868525,369.335542L287.621809,365.881017L287.130998,367.765331L286.704457,370.409705L285.073483,362.903947L284.481165,363.998331L283.470760,361.014068L283.084851,364.391797L282.508101,366.099799L281.655052,364.449498L280.967757,364.884676L280.286396,365.527717L279.445057,363.187492L278.748676,363.369815L278.108082,365.242585L277.460083,367.949463L276.685601,366.134606L275.979035,368.003082L275.242659,369.809776L274.456287,375.543822L273.715442,371.037693L272.969056,370.148034L272.206794,370.274867L271.715032,363.084626L270.961690,364.197036L270.337254,362.546028L269.656412,362.236890L268.566617,367.894365L267.949665,366.249086L267.342596,364.786599L266.590267,365.121837L265.865355,365.122788L265.176971,364.779036L264.215493,366.796269L263.883538,363.529516L262.856466,365.847897L262.245604,364.954549L260.979479,368.517683L260.227264,368.451114L259.963646,365.440707L259.578354,363.399077L258.931787,362.960176L256.768888,370.490276L256.525349,367.748241L256.207870,365.569745L255.693152,364.461436L254.825339,364.999293L254.461079,363.321497L253.195572,365.489466L251.649491,368.624100L252.525465,362.148856L251.481814,363.281025L250.852717,362.823565L247.661439,371.418506L246.427692,372.794142L244.341519,376.911139L244.531939,373.428657L246.624420,364.148158L246.025713,363.581020L243.653202,368.311717L242.618920,368.905414L241.360818,370.088868L241.692697,366.817519L239.280807,371.071699L236.400439,376.339701L234.806130,378.049657L236.044912,372.570255L238.433663,364.509642L234.867840,371.045414L233.056031,373.175351L236.708187,362.686701L236.371045,361.571504L234.635388,363.558445L232.739224,365.794774L232.880577,363.638269L233.669830,360.219191L232.802791,360.269956L230.779305,362.596307L229.765596,362.857370L230.470516,359.820881L229.398447,360.206551L227.754155,361.613097L227.502411,360.448130L225.300165,362.756179L224.619436,362.328231L226.071642,358.271199L224.757734,358.968478L224.458706,357.960896L223.096475,358.688927L223.557200,356.489357L222.174579,357.220970L220.010414,359.108293L221.914854,354.799993L224.946691,348.957836L223.473240,349.843375L219.232126,354.637725L216.004676,357.834123L218.847057,352.528523L219.823981,349.916028L218.950439,349.845873L220.845313,346.127355L219.324200,346.928932L217.298163,348.331881L216.713418,347.872768L215.650257,348.001953L213.319084,349.646404L211.555509,350.546785L211.434721,349.477600L210.170841,349.744203L209.262835,349.582239L211.020049,346.433139L207.139807,349.561487L205.810335,349.816051L204.074931,350.477249L198.956497,354.643077L203.066515,349.146685L205.762649,345.239135L207.233217,342.660505L211.276021,337.618223L209.817843,338.038247L208.983933,337.834608L208.835366,336.978859L206.286262,338.346470L206.765892,336.905969L204.536767,337.912210L202.670110,338.550495L198.655086,341.007848L198.508243,340.077095L202.375522,335.796205L202.792717,334.474987L202.265873,333.942635L203.289483,332.172643L204.383745,330.385788L197.879443,334.500992L198.610416,332.972053L203.221343,328.576995L202.298514,328.369199L201.438255,328.104030L201.506259,327.169340L197.683187,328.961950L199.285099,326.951799L200.519589,325.236717L201.008429,324.053876L199.596775,324.129494L197.955292,324.329105L199.410140,322.552796L194.129515,324.979960L194.166186,324.071646L191.869777,324.563679L186.841775,326.613904L191.217268,323.160023L193.044948,321.244689L196.100369,318.695554L196.729010,317.536115L198.313141,315.887207L192.286925,318.257459L194.531500,316.270510L193.003772,316.232277L195.994237,313.943024L192.731624,314.739693L188.310406,316.026786L185.331940,316.565242L185.614223,315.572390L188.456980,313.453484L190.400082,311.785855L189.771875,311.254381L186.120417,311.974202L179.298007,313.920865L173.511561,315.334866L177.118562,313.001149L190.364232,307.085135L189.436749,306.659413L183.796261,307.922760L183.314247,307.273454L185.639578,305.657001L189.395185,303.608327L190.441702,302.511641L188.235947,302.466827L186.652211,302.195706L177.523442,304.157643L179.815993,302.647639L179.490577,301.918916L185.302954,299.511042L184.994639,298.826324L186.520482,297.669649L182.259307,297.975629L183.736855,296.839356L186.609875,295.408702L187.609232,294.445919L188.284915,293.571761L183.512945,293.832737L183.428284,293.090918L184.188828,292.190091L183.601364,291.548141L183.036849,290.894726L183.848295,290.007582L186.696139,288.817036L181.608648,288.851742L181.697873,288.079689L178.933832,287.687615L181.739238,286.561901L183.838118,285.564949L178.482999,285.406980L183.983285,284.080954L181.164528,283.607734L178.299180,283.094222L175.940510,282.497419L172.467845,281.939166L173.612422,281.050659L171.049702,280.372845L169.655417,279.603707L173.073742,278.640980L181.922698,277.582574L181.788971,276.843240L181.882127,276.099330L184.618414,275.346900L184.326329,274.625611L175.289880,273.793843L175.606023,273.005578L168.645169,272.018069L174.688307,271.387487L175.487471,270.622169L185.521465,270.349063L187.154315,269.731864L182.983255,268.745614L183.282533,268.031445L178.096228,266.860412L181.819836,266.425053L185.585000,266.052591L178.608933,264.578242L180.399250,264.008633L184.872704,263.799954L179.453724,262.352777L184.710187,262.315823L182.746519,261.289608L185.149504,260.914190L181.616516,259.597076L188.039275,259.943838L176.038968,257.052930L179.644750,256.921014L183.955371,256.985703L179.889884,255.392619L170.441701,252.574957L172.791915,252.225782L175.571592,252.012174L173.444626,250.666478L179.789967,251.383227L183.058168,251.414766L187.119877,251.708923L187.467211,251.053015L185.014495,249.609728L177.237747,246.572640L173.107159,244.489053L172.272331,243.345092L172.831324,242.623853L185.046285,245.703992L191.016369,246.906305L187.182606,244.843822L182.076427,242.260459L183.763561,242.035444L185.866326,241.990016L189.434920,242.534104L188.173905,241.261881L186.468362,239.784781L182.848374,237.491794L180.421536,235.622777L181.234583,235.081817L183.461962,235.165646L186.934711,235.839460L190.032594,236.403315L188.303867,234.781749L193.938947,236.608126L192.557687,235.146715L189.639200,232.893632L190.636582,232.546627L193.380383,233.109125L194.808668,233.031665L192.789074,231.136813L184.387356,225.722716L184.904057,225.069554L185.523264,224.476749L184.389457,222.880151L188.586016,224.373547L194.444936,226.939918L196.850610,227.526877L194.405306,225.158091L191.485730,222.428137L190.882099,221.107675L191.128986,220.318509L188.470644,217.597772L189.039390,216.983561L187.568014,214.971117L188.534295,214.615337L187.995016,213.201682L190.573286,214.015223L200.200663,220.057316L203.077855,221.283328L203.710969,220.866079L203.085925,219.482608L203.898879,219.200518L205.517048,219.570271L203.475989,217.003558L206.281864,218.365371L199.886188,212.082737L205.712544,216.017386L205.025947,214.464833L201.633562,210.500958L205.563563,212.968254L210.195488,216.171195L208.733275,213.873749L208.099035,212.294856L209.365707,212.492381L206.296177,208.517242L208.700521,209.813061L211.498463,211.561167L207.788996,206.776860L206.251155,204.094691L208.150100,204.944936L210.084903,205.878193L213.889677,208.881727L212.669065,206.473772L212.767268,205.476948L214.927681,206.804856L217.784266,208.994860L214.645921,204.243210L212.131383,200.094718L215.807226,203.322313L217.837665,204.646837L216.304235,201.571886L211.481816,194.227941L212.963954,194.805943L218.953732,201.343792L220.821743,202.609110L222.981282,204.327811L222.636623,202.659334L217.697067,194.492593L221.171199,198.083717L222.274073,198.367115L223.836996,199.355118L223.408471,197.396353L225.753636,199.628299L226.442716,199.373891L223.562910,193.467173L223.304346,191.592102L225.844511,194.260997L228.619432,197.434285L222.501408,185.593102L225.163103,188.556081L227.525042,191.115462L231.898474,197.407258L229.093552,190.784098L232.060844,194.712029L233.295298,195.503672L234.658334,196.589624L234.017219,193.758927L235.246945,194.610267L235.042416,192.549905L233.462305,187.520334L235.204809,189.437362L233.696935,184.312755L237.637945,191.202274L239.496281,193.633414L240.369211,193.876817L240.064070,191.321956L240.584613,190.685579L240.674482,188.952709L240.785735,187.205541L242.091179,188.525240L243.662972,190.639642L242.790318,186.127658L243.792743,186.703869L244.896177,187.616203L244.993800,185.592794L246.121286,186.624204L247.318950,187.946278L247.830785,187.137995L247.925738,184.908120L247.228571,179.844232L245.783594,171.844360L247.084546,173.355994L249.328574,178.523505L250.908140,181.467211L252.902718,186.290870L253.566342,185.935532L254.590997,187.121353L254.795864,184.746265L255.673395,185.320558L256.730478,186.820097L256.579358,182.382332L258.365782,187.736127L258.630724,185.244116L259.808446,187.770023L260.487331,187.551981L261.448385,189.111659L261.388613,184.030858L262.095429,183.795485L262.888332,184.189420L263.412447,182.501216L263.401561,176.027297L264.163220,175.688529L265.425619,180.264178L266.332656,181.824623L266.730421,177.701196L267.520814,177.832620L268.335905,178.366591L268.986098,176.349793L270.122955,182.926242L270.831749,182.336453L271.590633,182.860222L272.206132,178.747016L273.057284,182.727710L273.795617,182.954888L274.536052,184.330489L275.249730,187.382691L275.907046,191.152023Z" />
<line x1="50" y1="625" x2="100" y2="625" fill="none" stroke="green" stroke-width="1.0" stroke-linejoin="round" stroke-miterlimit="10" />
<text x="125" y="628" style="text-anchor:start;fill:black">n0_4mer:PS</text>
<path style="stroke:red;stroke-width:1.0" d="M276.855166,158.568552L277.879719,154.529025L278.868200,153.652989L279.894289,152.196260L280.869091,152.310669L281.933558,150.799571L282.846371,152.056990L284.045782,149.058014L284.867847,151.401537L285.776561,152.345464L286.696628,153.027327L287.864462,151.234417L288.698674,152.692781L289.425771,154.861919L290.438468,154.543622L291.784366,151.832676L293.220856,148.814093L295.055305,143.524005L295.527123,147.266106L296.159830,149.709195L297.873824,145.835972L298.837919,146.368897L299.177420,150.099275L299.520064,153.524341L300.235616,154.920116L302.168450,150.653578L304.475423,145.067697L306.891962,139.430632L306.448079,145.939119L306.573163,149.771935L306.643394,153.582335L307.330601,154.875385L308.164288,155.577244L308.376400,158.423891L309.015854,159.670799L309.978407,159.797901L311.704660,157.488431L314.466758,152.094902L316.064196,150.535533L315.828027,154.486861L317.383751,153.099234L317.854051,154.841435L317.124742,159.795568L318.420023,159.123963L318.621468,161.350374L319.378472,162.075715L320.180135,162.673025L321.668853,161.590044L322.267536,162.686309L322.806021,163.891113L324.326002,162.828527L323.960878,166.023397L324.694310,166.707263L326.064948,166.019377L329.453115,161.158038L328.896640,164.589903L329.664074,165.244654L331.367473,164.048506L331.846782,165.278665L331.263063,168.491445L331.851316,169.423156L336.440144,163.047320L334.260190,169.030064L335.669668,168.510166L336.242467,169.468502L336.767433,170.490816L342.582316,162.704398L340.398767,168.266649L341.471479,168.431237L339.959774,172.679367L340.231906,174.037475L342.241455,172.724126L342.404955,174.233599L343.741687,173.986083L343.713558,175.737013L345.558081,174.787971L347.280930,174.059147L347.207454,175.840337L348.575288,175.635300L350.838733,174.266590L356.429321,168.615438L356.482831,170.284701L356.152771,172.405884L354.499962,176.124680L354.100184,178.211182L358.416090,174.573786L358.453243,176.142189L362.096401,173.478615L359.264967,178.347944L360.799315,178.156630L362.669984,177.619384L360.866753,181.137132L359.234439,184.381780L359.201133,185.852552L360.602781,185.802989L361.149200,186.653434L361.303742,187.894251L364.749773,185.848153L368.312476,183.774605L370.056307,183.539508L366.554842,188.302571L367.871212,188.448960L369.182903,188.618304L371.045613,188.308587L376.691062,184.672737L374.807426,187.758474L372.852012,190.833462L371.942950,192.950040L370.718680,195.286377L370.196208,196.997491L372.474040,196.420655L374.594389,196.012144L375.954391,196.235559L376.827752,196.851230L372.444673,201.441216L376.339801,199.760785L373.688868,202.941481L374.402991,203.627229L377.816542,202.410672L375.179205,205.461956L377.627125,204.967726L380.212657,204.425331L382.123476,204.374513L383.990852,204.382663L386.608173,203.942868L386.540375,205.228619L386.280897,206.618329L382.663226,210.017300L381.306067,211.986436L380.952665,213.331309L381.125004,214.357741L379.467155,216.404159L382.444473,215.854526L381.506947,217.471486L384.069161,217.205234L384.184057,218.253820L385.893822,218.482753L385.084216,219.995786L390.445512,218.461840L389.099744,220.243631L388.420862,221.676959L387.536348,223.183495L385.179011,225.328954L386.916632,225.614650L388.191414,226.125781L389.424509,226.671258L392.707559,226.386015L387.044213,229.766541L389.598996,229.793593L390.608223,230.456554L387.747860,232.587131L387.368685,233.748672L388.528594,234.346279L387.132918,235.851144L390.647980,235.654775L392.515762,236.061153L391.265449,237.500758L391.928372,238.312818L395.583237,238.218740L397.456654,238.711130L395.778181,240.252840L395.128117,241.473799L390.042925,243.878787L392.093366,244.323136L393.460545,244.971440L401.361766,244.037848L401.684827,245.026535L393.908098,247.865022L395.809589,248.441907L400.602944,248.435402L404.729107,248.640735L404.891746,249.683554L405.441242,250.653521L398.083561,253.040106L396.794047,254.270006L397.455522,255.159960L398.409916,256.013079L396.589770,257.283567L396.950766,258.222058L395.436476,259.407035L394.671139,260.474558L397.486563,261.122131L404.073046,261.416496L409.247884,261.952430L406.264484,263.297267L405.453252,264.416465L400.743517,265.806335L401.268944,266.778725L399.730307,267.876359L399.700587,268.874366L393.626065,270.119799L393.974947,271.054644L394.878047,271.980593L394.942353,272.935000L395.406609,273.886471L395.901843,274.845160L394.830773,275.801247L395.073912,276.759626L395.689304,277.730527L395.234321,278.678835L392.840156,279.545552L396.128745,280.639203L396.767411,281.641553L395.732177,282.550274L396.613166,283.578567L395.618511,284.474729L395.884889,285.465324L394.596854,286.314480L395.752104,287.395179L397.532657,288.565296L400.685827,289.928916L400.775991,290.956817L392.190133,290.817228L392.698299,291.841659L395.158014,293.171671L400.176501,294.951978L396.591445,295.375179L398.567943,296.719879L397.583882,297.555152L393.581794,297.796969L391.587345,298.378233L395.688934,300.202512L399.634027,302.064355L396.174673,302.325861L397.014984,303.538758L392.961860,303.583850L394.562788,304.982250L392.619398,305.492941L393.713431,306.788050L394.438523,308.004218L394.727959,309.113205L394.367824,310.041174L395.302730,311.359144L394.325530,312.103846L391.691623,312.306979L392.766860,313.687562L393.216830,314.881629L389.335451,314.589558L391.964329,316.546328L397.782860,319.717896L394.053241,319.437029L390.449282,319.142926L387.796310,319.161752L386.234353,319.575497L385.473107,320.295224L389.720616,323.107913L391.024419,324.745259L387.184009,324.160420L384.320623,323.947527L388.991004,327.132826L392.045301,329.661387L391.084082,330.343281L392.526396,332.184481L394.721133,334.436629L397.029767,336.799457L398.838394,338.960122L397.096834,339.298000L393.567202,338.650959L390.379548,338.128985L392.311873,340.406014L391.657756,341.265115L390.525454,341.844872L386.999852,341.001500L384.028867,340.426545L378.047575,337.959281L380.910052,340.872645L381.219521,342.244626L381.448979,343.583924L378.416551,342.802153L374.377168,341.291886L372.838700,341.398010L371.327575,341.499517L372.521071,343.477056L372.429592,344.578320L372.509442,345.815146L370.927572,345.840504L370.461439,346.678573L369.716610,347.306502L370.834454,349.375768L373.961846,353.074102L370.513749,351.596228L371.006178,353.256031L367.974868,352.026147L368.011285,353.314282L372.364241,358.314038L368.763197,356.535553L370.553900,359.439049L369.423267,359.789185L375.099777,366.337499L371.113631,364.113889L365.862593,360.601539L362.571717,358.828125L361.372024,359.008572L360.958537,359.949549L359.766000,360.116549L360.045145,361.768593L360.222987,363.347182L365.178022,369.986864L359.838529,365.800579L359.380842,366.765511L357.871000,366.577263L359.655187,370.060301L359.421506,371.332347L359.446261,372.923658L359.946303,375.105147L359.326097,375.994353L357.676216,375.637344L355.320759,374.373849L349.837077,369.113309L349.773777,370.587177L349.459942,371.764772L349.012398,372.785300L348.152060,373.265824L345.811663,371.721280L346.770136,374.687105L345.152612,374.095955L345.364589,376.093750L344.009531,375.851146L343.329891,376.585116L344.708408,380.438827L344.310277,381.674377L341.994046,379.929942L339.631079,378.029543L338.374760,377.837865L340.288591,382.858034L336.742219,378.858264L337.267825,381.668066L334.920711,379.551696L335.930293,383.304296L337.112716,387.494064L337.969748,391.225051L336.568725,390.833049L333.983811,388.135655L331.180128,384.884811L328.878825,382.487909L329.448861,385.820384L327.622847,384.295458L327.053527,385.353827L325.636785,384.605062L323.756340,382.781975L323.872813,385.372789L325.321827,391.135755L324.839907,392.582670L323.049523,390.920496L322.076886,391.182224L320.539452,390.012217L320.561441,392.801115L320.878443,396.488897L319.646240,396.137390L316.596407,390.694787L314.926293,388.891516L313.681116,388.220944L313.405646,390.412084L313.780009,394.712228L314.156086,399.240782L315.354725,406.694755L314.448821,407.497721L311.270501,400.469132L308.474533,394.353326L306.895438,392.309633L306.029951,392.826325L306.040998,396.800427L306.337159,402.188407L305.408275,402.793026L303.582074,399.515146L302.888887,401.094093L301.345684,398.785768L300.008810,397.281208L298.785630,396.211894L298.010462,397.415170L296.994502,397.372356L295.922961,396.984576L294.398226,393.766420L293.236055,392.529344L293.001674,397.449773L291.689905,395.172599L290.796234,395.793260L290.176064,398.708760L288.876465,396.089806L287.956809,396.623699L286.750453,394.316833L285.764754,394.022692L284.832896,394.307773L283.873476,394.266983L282.933574,394.493265L282.039754,395.553373L281.028897,394.610006L280.115921,395.600712L279.180714,396.386244L278.219325,396.635930L277.352610,402.197499L276.349471,403.192519L275.326807,402.686989L274.303198,403.853152L273.335576,399.437759L272.322135,400.455758L271.266545,402.346292L270.494503,395.812451L269.610349,394.045079L268.693137,393.415373L267.686951,394.389378L266.540038,397.157005L265.315055,400.347569L264.596126,396.990237L263.651168,396.618317L263.016945,393.225317L261.874745,394.960224L261.015191,394.036808L259.978061,394.632033L258.856864,395.769615L257.514797,398.320116L256.739460,396.798854L255.758487,396.720229L254.868841,396.084955L253.948336,395.671143L252.655062,397.320050L251.594485,397.592583L250.948846,395.743940L250.024567,395.370529L249.880840,391.393730L248.501349,393.210651L247.198627,394.551501L246.663779,392.596732L244.772147,396.198880L245.698633,388.621066L244.510782,389.448429L243.202774,390.646373L240.136964,397.956061L238.273426,400.703663L236.402032,403.302602L236.268673,400.123567L237.615080,392.452993L236.016161,394.182507L234.283873,396.201907L233.649911,394.915621L231.968452,396.638548L230.818538,396.794076L229.866880,396.391755L226.199695,403.120843L224.103758,405.488560L222.306071,406.981735L221.112524,406.909540L220.562319,405.281788L221.242034,400.827557L221.885564,396.629908L222.224399,393.275608L222.026166,391.222605L219.247232,394.781517L219.460081,391.881049L219.117083,390.225680L218.835984,388.493361L216.841455,390.205647L215.017839,391.501477L214.631754,389.990955L213.629174,389.671454L212.509174,389.560847L211.882095,388.549067L208.802686,391.886169L209.467117,388.592829L209.298021,386.818235L206.811467,388.961565L202.584588,393.866118L196.983661,400.793068L194.760871,402.104959L197.183354,396.118961L199.331223,390.737764L204.006235,381.721039L206.560092,376.125531L204.782151,376.992456L201.870894,379.429939L200.277590,379.916203L202.480996,375.124607L202.985544,372.778657L202.089975,372.360521L202.370928,370.391812L200.005167,371.887665L197.880123,373.009802L198.649817,370.456776L197.860465,369.883926L195.700145,370.968890L193.680662,371.831333L193.408781,370.598073L192.942050,369.607985L192.496823,368.604154L190.078077,369.814695L188.913887,369.587244L187.860141,369.225924L184.528660,371.278057L181.052617,373.394450L185.268792,367.491997L187.388194,363.879448L187.668957,362.194083L188.544506,359.955294L186.540158,360.550305L186.559541,359.178318L187.218163,357.228492L185.687101,357.336619L184.499600,357.107250L178.375897,361.269614L169.644171,367.567749L165.843591,369.376682L163.375238,369.967295L170.215526,362.718336L175.497261,356.957441L179.515869,352.378894L180.801591,350.101565L178.750114,350.490775L176.769401,350.788069L176.927723,349.427048L180.049813,345.872679L178.333828,345.961358L176.503301,346.104508L174.233283,346.528991L173.025273,346.171521L174.704947,343.817477L174.516016,342.776015L174.823884,341.413332L173.661134,341.028041L173.773765,339.811714L175.032151,337.888736L169.755451,340.043735L169.532487,339.025983L167.819416,338.902921L164.400116,339.752798L167.951278,336.533788L169.752476,334.387907L170.318573,332.973820L169.371253,332.403599L168.849230,331.596509L165.917500,332.048198L164.839166,331.499050L163.019690,331.309947L165.953681,328.750427L165.181754,328.047642L161.830380,328.558744L161.272352,327.717961L160.459754,326.990056L162.112796,325.158942L164.317955,323.126922L164.135699,322.159509L161.149699,322.362104L154.398597,324.047160L151.037949,324.266624L153.827518,322.043583L161.294920,318.105214L162.577052,316.597818L158.804185,316.944409L157.351533,316.412349L160.031289,314.442471L159.569212,313.575888L162.004724,311.763813L160.807015,311.149982L160.059406,310.381651L153.976828,311.201017L155.876645,309.601186L150.224088,310.167549L154.113172,308.034111L154.876088,306.799341L157.891787,305.004707L154.309817,304.899851L156.925066,303.255442L156.328048,302.400578L157.124238,301.229344L155.217175,300.653876L154.029385,299.901969L152.710954,299.159437L153.680435,297.965174L153.100274,297.070503L152.912025,296.101440L154.715079,294.804191L156.073846,293.608552L154.142394,292.925518L153.616159,292.016364L152.414229,291.190102L154.437208,289.946641L156.794875,288.699049L150.474291,288.427029L155.391383,286.933636L152.782647,286.211266L152.225196,285.276713L151.021363,284.383450L145.515873,283.763220L146.725679,282.655220L144.468624,281.746732L144.837201,280.688298L146.491298,279.590550L150.406293,278.457045L148.180062,277.507853L148.026424,276.499023L151.229467,275.475052L154.379978,274.501964L146.435262,273.444800L148.274409,272.457146L141.884759,271.267772L146.718307,270.380207L147.281908,269.381328L154.228049,268.722486L153.572678,267.717961L152.788317,266.693261L148.201283,265.366025L148.869316,264.405451L153.043685,263.776915L153.783646,262.870354L152.071651,261.709043L150.228337,260.503168L148.779154,259.314638L148.788004,258.293633L152.830264,257.837238L151.870412,256.700908L156.171763,256.371366L154.459999,255.117807L153.032132,253.882790L148.982621,252.146128L153.075644,251.883614L153.144817,250.889456L153.044090,249.858237L145.665878,247.261186L148.374619,246.785070L149.064913,245.883835L148.235020,244.626045L152.249738,244.551895L154.091364,243.984102L158.670616,244.168949L159.228062,243.327425L159.287946,242.350735L151.222137,239.007807L147.392093,236.788895L147.511087,235.715065L148.662925,234.965148L159.878745,237.507460L162.667342,237.423160L159.709381,235.409615L157.249297,233.513175L159.795397,233.375528L158.230004,231.755113L160.092185,231.400612L161.336459,230.833623L159.931458,229.229199L156.795173,226.887435L156.378871,225.612746L156.821713,224.688674L160.281678,225.078346L162.293461,224.882082L163.523731,224.361589L161.472548,222.334726L166.186454,223.464080L165.623633,222.126573L165.065399,220.771985L166.042109,220.170191L168.574691,220.377723L169.901368,219.996366L168.753929,218.312994L160.335146,212.642559L161.924313,212.334365L161.261745,210.777425L159.724103,208.692458L161.938309,208.761735L165.293341,209.547739L167.239863,209.539345L167.230800,208.352651L166.567307,206.742099L167.068184,205.850670L167.031967,204.607945L167.513594,203.695192L167.391180,202.372776L167.074195,200.900512L166.868722,199.484849L166.247941,197.755065L169.684039,198.926089L177.329087,203.257357L180.908852,204.725909L179.160098,202.223170L180.484101,202.034085L182.056284,202.058658L181.077459,200.073693L182.118013,199.685085L180.884894,197.434245L179.702972,195.176756L181.851747,195.705308L182.294841,194.799953L181.460020,192.765680L183.296963,193.076161L187.198647,195.294922L184.820406,191.815860L184.449225,190.128290L186.145304,190.378147L184.704793,187.623867L187.068974,188.544503L188.025515,188.111396L188.214162,186.907246L187.427355,184.680440L187.199136,182.989464L187.546617,181.879352L188.182874,181.068269L189.349055,180.835903L190.461973,180.558676L193.696319,182.702643L197.396036,185.474616L195.452481,181.741563L192.766974,177.022850L197.134388,180.711009L197.193437,179.238730L199.255323,180.243780L194.946652,173.201220L196.747626,173.843078L202.228578,179.363535L202.679313,178.367897L204.698666,179.489204L204.835319,178.066608L201.751701,172.090248L204.462365,174.208369L205.292587,173.685893L206.154425,173.211306L205.558828,170.547034L207.760916,172.090390L207.972905,170.607868L209.235779,170.757267L209.755005,169.731037L210.340848,168.795879L213.291988,171.801046L209.628942,163.670853L211.865909,165.491611L213.782074,166.832711L215.983038,168.755783L216.362142,167.428179L218.132733,168.669137L219.060996,168.370645L218.717934,165.606948L219.489550,164.960405L221.432440,166.674189L222.446095,166.558146L221.821042,163.003476L223.676602,164.650854L223.292694,161.468642L225.880961,164.833046L227.870371,166.989426L228.116107,165.173723L228.765531,164.259856L228.949914,162.181673L229.272678,160.370638L230.223381,160.102338L231.592709,160.938329L232.719537,161.179539L233.539483,160.602932L235.151476,162.254734L235.659905,160.805639L236.118825,159.148702L236.550356,157.334857L237.904589,158.339195L238.410531,156.674014L238.696568,154.197281L238.876284,151.226032L238.848941,147.359878L239.985147,147.506106L242.545725,153.032691L244.122945,155.124780L245.630119,157.095155L246.173496,155.215627L247.620884,157.108904L248.230121,155.416485L248.697524,152.951077L249.979120,154.233907L250.400574,151.315851L252.351017,156.182392L253.450534,156.840138L254.837679,159.227855L255.342284,156.549813L256.035093,154.802928L256.983526,154.590284L257.802200,153.452602L258.565055,151.774452L259.559639,151.745794L259.716425,144.581012L259.528803,133.217361L259.914007,125.728312L261.426649,129.084236L262.877376,132.366760L264.289291,135.849633L265.561560,138.136904L266.496076,135.504227L268.059559,143.971361L269.456373,151.760744L270.473222,152.661659L271.395303,150.812707L272.464001,154.548843L273.429266,154.956517L274.387310,155.261747L275.336089,157.083701L276.237926,160.565266Z" />
<line x1="50" y1="600" x2="100" y2="600" fill="none" stroke="red" stroke-width="1.0" stroke-linejoin="round" stroke-miterlimit="10" />
<text x="125" y="603" style="text-anchor:start;fill:black">n0_4mer:D</text>
<path style="stroke:black;stroke-width:1.0" d="M277.806420,98.867212L279.227209,98.157779L280.643148,97.972156L282.072768,97.535559L283.502533,97.260384L284.932949,97.071640L286.371690,96.819566L287.824032,96.454450L289.222221,96.861371L290.599423,97.453570L292.034922,97.359485L293.383729,98.135003L294.758835,98.585253L296.165197,98.735858L297.503663,99.418481L298.982833,99.008761L300.494969,98.438277L301.915910,98.548131L303.295063,98.928632L304.665700,99.344552L306.081647,99.487993L307.547306,99.372423L308.950252,99.612754L310.200546,100.611813L311.506505,101.289288L313.084103,100.694068L314.609878,100.393427L316.254501,99.631467L317.629637,100.050731L318.633954,101.935435L319.935709,102.578899L321.187748,103.389037L322.416357,104.256336L323.995394,103.870327L325.233448,104.685785L326.744928,104.577021L328.216592,104.624759L329.698418,104.661347L331.065523,105.066919L332.309294,105.838681L333.745508,106.040854L334.682388,107.656426L335.979376,108.231158L337.126238,109.202248L338.400381,109.819184L339.878980,109.910667L341.355469,110.026850L342.634404,110.641667L343.752577,111.635113L344.617116,113.198616L345.984497,113.575288L347.345167,113.974893L348.584047,114.647276L350.310118,114.276373L350.822206,116.482921L352.088191,117.080794L353.750750,116.883066L354.906046,117.716114L356.823712,117.070094L357.845773,118.169158L358.618443,119.714742L359.822875,120.440657L360.996643,121.219549L362.596585,121.246961L364.044652,121.560466L365.512353,121.855022L366.781159,122.495305L367.986721,123.242026L369.199443,123.977061L369.944020,125.450031L371.322436,125.917182L372.459048,126.762439L373.623064,127.564383L374.949290,128.127414L376.123368,128.918093L377.204826,129.840823L378.496357,130.466574L379.791754,131.093597L381.016766,131.822523L382.108982,132.731629L383.033875,133.857519L384.224027,134.633907L385.431928,135.390892L385.843495,137.142247L386.724693,138.291077L387.882200,139.098977L388.598450,140.432501L390.603059,140.250659L391.689370,141.157100L392.818317,142.016154L393.121252,143.795228L393.774650,145.164773L395.307460,145.574935L396.180256,146.701126L397.700637,147.147493L399.169197,147.663680L399.994968,148.843474L400.863050,149.975469L401.381342,151.445377L402.082422,152.724885L403.134253,153.663870L404.316369,154.484009L406.267450,154.605485L407.148226,155.722127L408.281254,156.612693L408.890777,157.966267L410.131705,158.767665L410.833963,160.033710L411.313296,161.479559L412.677547,162.188846L412.949047,163.791459L414.212673,164.591064L415.639851,165.273032L415.706264,167.013509L415.923546,168.619996L416.917168,169.634327L417.529988,170.930512L418.740477,171.792279L419.711364,172.832581L419.853197,174.452107L420.226285,175.898258L421.769119,176.550038L423.634295,177.006826L425.302095,177.616289L427.106655,178.158861L427.343422,179.705261L427.586539,181.236175L427.825669,182.758434L427.340481,184.699258L427.331161,186.337168L427.142641,188.062208L427.165334,189.650153L428.420937,190.545642L430.023879,191.265619L431.282585,192.187266L432.869192,192.950717L433.874298,194.029412L434.245951,195.431842L435.930196,196.186221L436.057080,197.708846L436.701689,198.978485L437.756447,200.060032L437.242826,201.857477L438.117779,203.021166L438.709013,204.313100L439.002102,205.731490L439.537205,207.045067L440.258861,208.283213L440.261825,209.808388L440.600978,211.194520L441.630608,212.317816L441.878259,213.737827L442.890675,214.879633L443.258100,216.256215L443.744443,217.590540L444.065932,218.980004L443.328975,220.708643L443.696531,222.070158L444.447684,223.313717L445.213681,224.558787L446.222871,225.740205L445.815158,227.327702L444.669000,229.101435L444.049722,230.711280L443.960948,232.170094L443.713978,233.660377L444.913906,234.798591L446.447622,235.875436L447.339967,237.113762L449.752301,238.040479L450.384246,239.364206L450.441719,240.805674L450.450501,242.252674L450.262771,243.730577L449.446441,245.308289L449.517031,246.725041L449.909745,248.089702L450.576313,249.417371L451.084181,250.774403L451.085627,252.202114L451.596752,253.565042L451.115971,255.045857L451.468283,256.428673L451.847056,257.812210L451.505196,259.263884L451.587583,260.673635L452.431745,262.027180L452.442142,263.446878L452.378780,264.869482L452.441374,266.283595L451.918109,267.721701L451.595640,269.143870L452.186586,270.537145L452.091521,271.951086L452.185197,273.361379L452.655186,274.772475L451.326225,276.179002L451.386237,277.584857L451.085081,278.983825L450.260523,280.362483L450.462084,281.768253L448.829100,283.092692L447.123834,284.388140L446.806510,285.744329L446.254045,287.080224L447.236663,288.529397L448.680280,290.035961L448.853680,291.447455L450.371142,293.001812L450.905566,294.474083L451.253819,295.935363L451.441095,297.384544L450.612918,298.702588L450.839273,300.161154L450.237681,301.501449L449.304930,302.782596L448.646516,304.098091L447.633474,305.344263L447.091158,306.664377L446.747489,308.017903L446.883484,309.466280L447.704818,311.064577L448.291623,312.630382L448.937556,314.224315L448.692574,315.625915L447.403548,316.775852L447.368400,318.224087L447.575232,319.740293L446.875177,321.023240L446.310255,322.337835L446.204208,323.779953L445.498264,325.050836L444.699188,326.288255L444.655259,327.753695L444.253401,329.111280L444.232622,330.594567L443.950168,331.997028L443.750605,333.431237L442.938094,334.652471L441.740961,335.727572L442.223972,337.416919L441.382753,338.617733L439.834567,339.535650L438.572493,340.549221L438.241711,341.930949L437.922339,343.321231L437.464773,344.656477L437.660389,346.279793L435.912104,347.047244L435.116985,348.228155L433.531699,349.035971L431.560088,349.640285L428.847060,349.856921L425.636761,349.784970L422.760975,349.830497L421.460334,350.643914L421.749011,352.280201L421.921723,353.872642L423.844056,356.438819L424.085877,358.121280L422.984106,359.059425L422.742537,360.486190L422.616845,361.990590L421.736872,363.054539L422.054812,364.846514L420.920323,365.757746L419.389851,366.409201L418.457336,367.428007L418.918723,369.356264L419.784815,371.582129L419.983120,373.392463L419.204913,374.551525L418.090041,375.474540L417.305365,376.625881L415.601036,377.109937L415.255722,378.575915L414.336107,379.622489L412.733009,380.145148L412.987206,382.089924L413.052236,383.913736L412.053351,384.908467L411.812915,386.518195L410.583161,387.325500L410.018670,388.683949L410.011039,390.528194L408.954269,391.485314L409.352231,393.724349L408.299770,394.699088L407.498888,395.900540L406.944003,397.334814L404.764045,397.250551L402.946086,397.476536L401.392704,397.934142L400.071380,398.603283L398.191673,398.701131L397.342248,399.821525L396.500140,400.954222L396.095328,402.552870L396.346978,404.874667L394.834547,405.321980L392.290958,404.613312L389.683220,403.779131L387.615411,403.504067L386.236975,403.990098L385.715368,405.472756L384.247713,405.842082L383.908112,407.568031L384.090141,409.967689L383.797259,411.820817L383.597263,413.825483L382.571656,414.795259L381.280961,415.418578L380.173802,416.280919L379.724299,418.042374L378.698226,419.034504L377.778558,420.182611L376.404370,420.689018L375.494600,421.863708L374.419030,422.804914L373.107315,423.394154L371.649493,423.751742L370.084577,423.926954L368.430021,423.938445L367.535607,425.157007L366.582372,426.295876L365.297429,426.891760L364.620157,428.524052L362.567412,427.790602L361.341219,428.472508L360.478325,429.812167L359.307731,430.609172L358.434973,431.971374L357.245307,432.753059L355.911894,433.258597L354.407589,433.417627L353.198082,434.157445L351.688966,434.279784L350.193547,434.410824L349.015509,435.209114L347.767688,435.862054L346.564775,436.619586L345.254997,437.138730L343.312118,436.162444L342.092985,436.863255L341.167487,438.296397L339.938041,439.004348L339.319330,441.300463L337.930539,441.643882L336.471190,441.788055L335.038924,441.990160L333.470864,441.790726L331.978517,441.778063L330.647986,442.226718L329.602875,443.556741L328.464929,444.642201L327.368081,445.899481L325.676664,445.208951L323.975292,444.418318L322.519324,444.429978L320.931806,443.934608L319.906006,445.516211L318.922734,447.346516L317.631994,448.030858L316.405482,449.009602L314.933923,448.968417L313.425157,448.731755L312.026802,448.971236L310.566953,448.905515L309.247721,449.526851L307.911605,450.089037L306.424952,449.841207L305.121870,450.615851L303.580717,449.986593L302.158855,450.035790L300.830759,450.704249L299.419784,450.830170L298.130019,451.874468L296.732303,452.152400L295.276115,451.934890L293.773127,451.220630L292.326921,450.941596L290.864961,450.414166L289.481307,450.709426L288.168158,451.991130L286.768417,452.252587L285.321617,451.754146L283.917493,451.918169L282.494455,451.671342L281.080220,451.538031L279.633855,450.081207L278.193291,447.650181L276.809393,446.882588L275.439145,446.579010L274.062965,448.277251L272.652899,450.476865L271.226935,451.764962L269.815469,451.841758L268.388564,452.282062L266.972408,452.311184L265.670395,450.169278L264.298810,449.702567L262.931477,449.262558L261.738047,446.643066L260.324243,447.080040L258.871276,447.841428L257.383819,448.801974L255.756306,450.880614L254.322124,451.007290L252.982831,450.340797L251.586588,450.159821L250.265541,449.447861L248.793088,449.801617L247.286105,450.315824L246.005059,449.398855L244.365167,450.603238L242.888477,450.784028L241.643757,449.712152L240.260209,449.404076L239.047081,448.277150L237.949909,446.677649L236.419255,447.108952L235.094592,446.601290L233.857566,445.743154L232.177877,446.695732L230.711435,446.736494L229.563452,445.556740L228.365154,444.610731L227.356371,443.031064L226.261090,441.818162L224.519426,442.801295L223.076948,442.740123L221.719458,442.392603L220.869463,440.489427L219.668176,439.709245L218.243582,439.594110L216.729759,439.714211L215.542960,438.903930L214.178030,438.589084L212.418305,439.302650L210.997720,439.090020L208.839517,440.711220L207.625406,439.924251L207.065493,437.582772L206.342099,435.702806L205.324116,434.554954L204.274201,433.503868L202.837355,433.322136L201.319794,433.297555L200.377543,432.039318L199.336081,431.012374L198.001269,430.595086L196.803522,429.898578L195.623429,429.170635L194.275638,428.765796L193.147530,427.941428L191.955589,427.240555L190.295855,427.382698L189.127634,426.626876L187.628728,426.446868L186.108258,426.284904L185.708160,424.230924L184.879802,422.927601L184.679304,420.632539L184.269347,418.724340L182.181121,419.469425L180.143735,420.085628L177.522907,421.531976L175.307536,422.303726L173.839383,421.937282L172.722140,421.054988L171.656045,420.103126L170.745285,418.941060L170.143015,417.371069L168.719818,416.921415L167.827270,415.761829L166.808698,414.774997L165.041435,414.743703L164.259551,413.453188L162.994397,412.770230L161.900334,411.873508L160.909929,410.853216L159.814974,409.958966L158.948194,408.800900L157.753623,408.022124L156.714237,407.065175L155.076798,406.765795L154.141170,405.686866L152.795628,405.047809L151.642549,404.196665L151.478949,402.321463L150.933637,400.861459L151.403416,398.402749L151.699314,396.161137L151.169287,394.757790L150.056107,393.922572L148.674672,393.333606L146.724836,393.255519L144.721997,393.195815L140.744359,394.868458L135.867973,397.244196L133.082731,397.701737L131.804972,396.826414L134.079005,392.969339L135.768324,389.680981L136.519947,387.222138L136.656651,385.297000L135.142909,384.692808L134.728732,383.223798L134.717441,381.460430L133.533094,380.593669L132.847484,379.352281L132.040892,378.201804L130.795059,377.363501L130.076369,376.146975L129.336980,374.946719L128.607512,373.741104L127.596253,372.723634L126.508134,371.750905L125.878901,370.477165L124.699694,369.552362L123.578957,368.581951L123.222909,367.139059L122.783576,365.754068L122.723470,364.153180L122.798392,362.488588L121.518258,361.604977L120.155088,360.754954L119.213168,359.661847L118.036160,358.688563L117.374394,357.435374L116.400042,356.342403L115.287924,355.312142L114.854985,353.937675L114.197399,352.675606L113.651460,351.359938L112.900771,350.140398L112.671552,348.681220L112.580941,347.167330L112.962704,345.457284L112.935696,343.938991L111.860641,342.866516L110.711359,341.814241L109.243232,340.877228L108.980038,339.455012L108.413345,338.152441L108.079641,336.762503L108.956907,334.938299L108.956341,333.447493L108.401359,332.155221L108.959132,330.489303L108.248890,329.253654L107.619327,327.987567L107.166642,326.663395L105.526713,325.693641L104.119764,324.634757L102.273781,323.682135L102.361729,322.175957L102.631876,320.629490L102.516024,319.192726L104.013892,317.360190L103.535935,316.031512L103.299746,314.644466L102.916129,313.291562L101.687470,312.118328L101.274801,310.761573L100.688788,309.436942L100.604212,308.012232L101.355467,306.439137L101.529345,304.982319L100.901245,303.664316L100.690753,302.274427L100.318228,300.908682L99.325005,299.627245L99.716890,298.149925L99.525610,296.754246L98.650012,295.437584L99.375278,293.936798L99.540977,292.505964L98.809509,291.162341L99.271861,289.709106L99.085455,288.314272L98.585827,286.939349L98.970520,285.505177L98.168288,284.139842L97.976186,282.736190L98.844696,281.292568L98.737670,279.890671L99.866718,278.463246L100.157202,277.064157L99.671250,275.672941L99.071383,274.273596L98.657732,272.866853L99.580255,271.480058L99.738832,270.086102L101.732524,268.760139L101.887652,267.384309L102.016244,266.008607L102.455263,264.652432L101.981903,263.239945L102.978612,261.930074L101.892262,260.459538L101.142172,259.000655L100.404396,257.528902L98.597757,255.927470L99.512806,254.610688L100.772558,253.348897L101.520681,252.036975L101.857693,250.676462L100.449427,249.058899L99.303061,247.456093L99.059354,245.979875L98.803409,244.493765L98.990540,243.079819L99.434676,241.713494L99.460166,240.267289L100.048555,238.932968L100.781503,237.634652L101.938884,236.438163L102.763170,235.178882L103.863968,233.994367L104.001950,232.584069L103.739831,231.067754L104.457805,229.800799L104.377158,228.321462L104.706334,226.950010L104.254248,225.350460L104.164203,223.844670L104.577180,222.485243L105.966292,221.435048L107.099744,220.318464L107.611856,219.006332L108.642639,217.873479L109.657229,216.745176L109.703318,215.276804L110.325061,214.013879L110.044725,212.411141L109.220191,210.582743L110.749285,209.666012L111.703443,208.533881L112.088126,207.172538L112.691191,205.901255L112.387113,204.236201L112.784704,202.866715L114.582440,202.129869L115.179429,200.859394L116.125432,199.754340L117.135153,198.686847L116.357895,196.745780L116.941713,195.461882L117.991932,194.416366L117.941115,192.802837L119.174516,191.860171L119.556290,190.466059L119.042828,188.569792L118.952574,186.887451L119.323582,185.453782L120.656781,184.576559L121.822260,183.612390L123.570249,183.011525L124.201602,181.742247L124.600238,180.324015L125.317190,179.101807L125.593759,177.591424L126.030772,176.176134L126.874642,175.027399L127.665520,173.843380L128.168625,172.458037L129.408118,171.588298L130.814269,170.848907L131.628467,169.688681L133.113075,169.028557L134.270500,168.135879L135.126354,167.018078L135.932079,165.860821L136.532366,164.538035L137.552758,163.548602L138.271402,162.313978L139.729367,161.693835L140.293672,160.327996L140.767175,158.874005L141.734168,157.841273L142.037835,156.216900L143.182785,155.337819L144.186264,154.333809L144.759547,152.927825L146.044031,152.187210L147.314061,151.441907L148.730394,150.849265L150.077284,150.200636L151.233452,149.369640L152.386219,148.540159L153.294050,147.458775L154.254126,146.429400L154.925895,145.085903L155.788080,143.939185L156.710956,142.853859L157.602248,141.728024L159.347405,141.581004L160.235539,140.454581L161.262884,139.487067L162.887439,139.240709L163.539004,137.818172L164.557412,136.836864L165.306184,135.509310L166.069122,134.184946L167.058189,133.142482L168.266703,132.387099L169.450753,131.601689L170.098096,130.076696L171.799737,130.009418L173.316556,129.703945L174.881273,129.485501L176.295908,129.065266L177.143328,127.804622L178.360169,127.092462L179.622671,126.453464L180.795829,125.677159L181.922615,124.825112L182.517410,123.095254L183.531681,122.030645L184.734302,121.274430L185.880727,120.419364L187.416822,120.247373L188.682871,119.609152L190.198849,119.431321L191.382000,118.650407L192.670947,118.066678L193.809461,117.193411L194.967933,116.350662L196.677757,116.614582L198.007526,116.130615L199.179163,115.318981L200.390484,114.583957L201.401441,113.403022L202.955947,113.415530L204.275577,112.915432L205.628050,112.495087L206.881581,111.843729L207.730063,110.195057L209.082257,109.757241L210.428076,109.307208L212.074796,109.650959L213.742391,110.092412L215.279664,110.220785L216.531867,109.573417L217.672512,108.592778L218.765418,107.442069L219.946815,106.524037L221.222622,105.876327L222.235652,104.366385L223.449249,103.460549L224.680945,102.587253L226.212867,102.745140L227.682786,102.711519L229.140493,102.654121L230.714603,103.069038L232.079741,102.697410L233.559140,102.798497L234.884309,102.266785L236.291790,102.086861L237.654817,101.710634L239.171023,102.067408L240.623076,102.155289L241.930995,101.518480L243.246884,100.891563L244.617856,100.545582L245.978000,100.124071L247.362417,99.836658L248.738473,99.486026L250.001018,98.316865L251.435891,98.321574L253.080439,100.024946L254.783640,102.488184L256.461097,105.103993L258.027691,107.063742L259.376601,107.045883L260.717306,106.951655L262.078670,107.129886L263.409622,106.932494L264.777892,107.319667L265.979890,104.709284L267.212168,101.870282L268.513156,99.689919L269.855288,97.756861L271.283864,98.496423L272.709260,99.929965L274.105141,100.117318L275.499067,99.903187L276.900947,99.275098Z" />
<line x1="50" y1="550" x2="100" y2="550" fill="none" stroke="black" stroke-width="1.0" stroke-linejoin="round" stroke-miterlimit="10" />
<text x="125" y="553" style="text-anchor:start;fill:black">GC-content</text>
</g>
<g style="fill:pink;stroke:black">
<a href="" title="LT981265:1 [503500-527599];"><path  d="M483.587892,371.907644L481.864851,375.533245L480.078798,379.128223L478.230275,382.691482L476.319847,386.221937L474.348094,389.718513L457.013477,379.742991L457.013477,379.742991L458.813773,376.550464L460.558077,373.327005L462.245859,370.073594L463.876603,366.791223Z" />
</a><a href="" title="LT981265:2 [707000-726099];"><path  d="M348.490008,492.943155L344.675183,494.192538L340.839134,495.375154L336.983029,496.490641L333.108044,497.538660L328.055171,478.187472L328.055171,478.187472L331.593201,477.230585L335.113992,476.212097L338.616471,475.132318L342.099573,473.991576Z" />
</a><a href="" title="LT981265:3 [873000-894099];"><path  d="M199.156344,492.135303L195.378361,490.778578L191.624633,489.356125L187.896301,487.868376L184.194502,486.315786L192.090632,467.940500L192.090632,467.940500L195.470536,469.358083L198.874665,470.716462L202.301982,472.015223L205.751444,473.253972Z" />
</a><a href="" title="LT981265:4 [970000-992099];"><path  d="M122.918656,447.543516L119.930519,444.863051L116.989618,442.130845L114.096849,439.347728L111.253092,436.514550L108.459213,433.632173L122.941021,419.838071L122.941021,419.838071L125.491953,422.469807L128.088427,425.056622L130.729651,427.597728L133.414822,430.092351L136.143121,432.539732Z" />
</a><a href="" title="LT981265:5 [995500-1018099];"><path  d="M106.205692,431.232140L103.504774,428.262479L100.856094,425.246132L98.260461,422.184018L95.718664,419.077071L93.231477,415.926237L109.037436,403.671781L109.037436,403.671781L111.308345,406.548630L113.629116,409.385408L115.999043,412.181251L118.417402,414.935307L120.883458,417.646737Z" />
</a><a href="" title="LT981265:6 [1550000-1577499];"><path  d="M250.051154,46.357145L254.045322,45.956551L258.045873,45.625726L262.051588,45.364771L266.061247,45.173764L270.073630,45.052765L274.087512,45.001810L274.166859,65.001653L274.166859,65.001653L270.502010,65.048177L266.838530,65.158654L263.177537,65.333051L259.520145,65.571315L255.867468,65.873373L252.220619,66.239133Z" />
</a></g>
<text x="275" y="280" style="text-anchor:middle" font-size="25" font-weight="bold">LT981265</text>
<path  style="fill:pink;stroke:black" d="M350,550L375,550L375,565L350,565Z" />
<text x="405" y="565" style="text-anchor:start;fill:black">Selected loci;</text>
</svg>