<svg xmlns="http://www.w3.org/2000/svg" viewbox="0 0 550 650">
<circle cx="275" cy="275" r="240" fill="none" stroke="black" stroke-width="1.0" />
<line x1="275" y1="15" x2="275" y2="55" fill="none" stroke="grey" stroke-width="1.0" stroke-linejoin="round" stroke-miterlimit="10" />
<line x1="495" y1="275" x2="535" y2="275" fill="none" stroke="grey" stroke-width="1.0" stroke-linejoin="round" stroke-miterlimit="10" />
<line x1="275" y1="495" x2="275" y2="535" fill="none" stroke="grey" stroke-width="1.0" stroke-linejoin="round" stroke-miterlimit="10" />
<line x1="15" y1="275" x2="55" y2="275" fill="none" stroke="grey" stroke-width="1.0" stroke-linejoin="round" stroke-miterlimit="10" />
<text x="275" y="10" style="text-anchor:middle" font-size="15">Candidatus Nitrosotenuis aquarius strain AQ6F chromosome, complete</text><text x="285" y="25" style="text-anchor:start">1,697,207</text><text x="525" y="265" style="text-anchor:start">0.42 Mbp</text><text x="285" y="530" style="text-anchor:start">0.84 Mbp</text><text x="-200" y="25" style="text-anchor:end" transform="rotate(-90)">1.27 Mbp</text><circle cx="361.834101" cy="51.259439" r="2.500000" fill="grey" stroke="black" stroke-width="1.0" />
<circle cx="436.902588" cy="97.834676" r="2.500000" fill="grey" stroke="black" stroke-width="1.0" />
<circle cx="490.034032" cy="168.414987" r="2.500000" fill="grey" stroke="black" stroke-width="1.0" />
<circle cx="514.029370" cy="253.437068" r="2.500000" fill="grey" stroke="black" stroke-width="1.0" />
<circle cx="505.637348" cy="341.380825" r="2.500000" fill="grey" stroke="black" stroke-width="1.0" />
<circle cx="465.995043" cy="420.330291" r="2.500000" fill="grey" stroke="black" stroke-width="1.0" />
<circle cx="400.473804" cy="479.588183" r="2.500000" fill="grey" stroke="black" stroke-width="1.0" />
<circle cx="317.951451" cy="511.125333" r="2.500000" fill="grey" stroke="black" stroke-width="1.0" />
<circle cx="229.609378" cy="510.668605" r="2.500000" fill="grey" stroke="black" stroke-width="1.0" />
<circle cx="147.417522" cy="478.279884" r="3.000000" fill="black" stroke="black" stroke-width="1.0" />
<circle cx="82.512494" cy="418.347690" r="2.500000" fill="grey" stroke="black" stroke-width="1.0" />
<circle cx="43.688623" cy="338.992554" r="2.500000" fill="grey" stroke="black" stroke-width="1.0" />
<circle cx="36.206362" cy="250.966727" r="2.500000" fill="grey" stroke="black" stroke-width="1.0" />
<circle cx="61.079521" cy="166.197295" r="2.500000" fill="grey" stroke="black" stroke-width="1.0" />
<circle cx="114.937904" cy="96.170122" r="2.500000" fill="grey" stroke="black" stroke-width="1.0" />
<circle cx="190.483952" cy="50.373560" r="2.500000" fill="grey" stroke="black" stroke-width="1.0" />

<circle cx="275" cy="275" r="185" fill="white" stroke="grey" stroke-width="0.5" />
<circle cx="275" cy="275" r="170" fill="none" stroke="black" stroke-width="0.5" />
<circle cx="275" cy="275" r="170" fill="aliceblue" stroke="black" stroke-width="0.5" />
<circle cx="275" cy="275" r="161" fill="white" stroke="none" stroke-width="0.5" />
<circle cx="275" cy="275" r="140" fill="none" stroke="black" stroke-width="0.5" />
<circle cx="275" cy="275" r="140" fill="aliceblue" stroke="black" stroke-width="0.5" />
<circle cx="275" cy="275" r="133" fill="white" stroke="none" stroke-width="0.5" />
<circle cx="275" cy="275" r="110" fill="none" stroke="black" stroke-width="0.5" />
<circle cx="275" cy="275" r="110" fill="white" stroke="black" stroke-width="0.5" />
<circle cx="275" cy="275" r="109" fill="aliceblue" stroke="none" stroke-width="0.5" />
<circle cx="275" cy="275" r="80" fill="none" stroke="black" stroke-width="0.5" />

<g style="fill:none;stroke-linejoin:round;stroke-miterlimit:10">
<path style="stroke:blue;stroke-width:1.0" d="M277.278045,121.156252L278.353838,124.023103L279.520974,122.385028L280.720396,120.544165L281.984571,117.874847L283.009063,120.604352L284.007574,123.103397L285.146968,122.949676L286.856538,115.154978L287.433753,122.670982L288.594774,122.391101L289.574594,124.046789L290.627042,124.781963L291.802783,124.328402L292.970928,124.011466L295.015803,116.819328L296.861502,111.936599L297.148993,118.594204L298.152719,119.792878L298.479087,125.213604L299.451704,126.217675L300.562456,126.345654L301.670881,126.491792L302.926382,125.856653L305.000807,121.086377L306.789280,118.106140L307.316699,121.357009L307.148292,127.585017L308.258700,127.739345L309.361670,127.931630L310.472340,128.096044L311.590569,128.236311L312.711658,128.373455L314.073175,127.612136L315.557590,126.461707L317.595893,123.422410L320.673670,116.972058L319.235704,126.089694L320.066814,127.306872L322.930261,121.990491L327.773573,110.800928L327.866719,114.597834L326.063088,123.844046L325.384331,129.417234L325.668867,132.029009L326.755193,132.327735L328.410467,131.097376L329.441126,131.584613L330.240814,132.663309L331.250180,133.184608L331.966495,134.424632L332.713397,135.556669L333.950930,135.498753L335.079319,135.713880L335.843605,136.765403L337.681957,135.401213L340.351722,132.292526L340.477236,134.770569L341.737356,134.789349L340.859882,139.232492L341.973896,139.500112L343.149185,139.654391L343.854674,140.737433L344.994547,140.968147L345.832409,141.777083L346.991913,141.981741L349.440311,139.857904L352.881375,136.055207L352.961645,138.295077L351.816049,142.591736L352.179302,144.206346L355.015518,141.665406L355.031678,143.849218L354.887103,146.239977L355.643510,147.143766L356.518465,147.852752L357.313911,148.680373L358.288383,149.230706L359.304085,149.721870L360.729766,149.617616L361.861943,149.958991L362.612798,150.850099L363.215314,151.940636L364.096314,152.635238L364.794408,153.576103L365.623450,154.334191L366.888536,154.517904L372.070588,149.658908L372.316437,151.245198L371.217063,154.490361L370.440056,157.262074L371.163235,158.149291L371.772875,159.167199L373.037925,159.403378L373.845959,160.184889L374.182052,161.504983L375.511264,161.688233L377.578695,161.068046L381.982571,157.931629L385.109349,156.287204L386.540551,156.515889L387.033064,157.744480L383.797000,162.806395L383.139813,165.123750L383.139172,166.739557L383.795701,167.683341L383.967731,169.093974L384.871370,169.786387L387.697901,168.668063L390.196927,167.911275L388.806220,170.764219L388.815905,172.294582L390.327545,172.469480L393.565001,171.152744L396.936113,169.785280L392.404682,175.202202L391.363820,177.561823L392.298146,178.247834L393.871121,178.420382L398.203857,176.405509L404.639390,172.820772L402.843415,175.762057L398.548052,180.553933L398.084172,182.344344L396.660334,184.819641L401.065779,182.992519L403.367741,182.761383L403.776936,183.905511L400.195667,187.822427L399.421713,189.722285L400.161962,190.570127L402.487985,190.367740L407.899518,188.186063L417.150761,183.637293L415.399926,186.224615L413.120377,189.090869L412.415290,190.934041L408.539515,194.657797L406.866279,196.988368L406.679816,198.409168L408.187124,198.846573L409.896222,199.189112L410.890032,199.949064L413.830360,199.661169L417.030121,199.280637L420.056517,199.041078L413.361616,203.847212L412.040373,205.804823L410.855852,207.660588L413.208941,207.764335L414.510693,208.403918L417.531397,208.253228L413.533808,211.371647L415.093236,211.907259L414.123250,213.579027L414.647185,214.579213L415.916499,215.264775L418.546389,215.399877L419.425291,216.284829L421.446736,216.722781L420.918130,218.180970L419.342033,220.021945L417.434009,221.952912L418.296398,222.836583L425.901340,221.330172L427.238929,222.120915L426.484244,223.636779L419.894010,227.064486L418.749593,228.621067L419.141188,229.670274L419.144860,230.839237L419.743887,231.825379L419.769220,232.982533L422.154334,233.469106L428.143745,233.000419L435.269151,232.319626L426.874850,235.756969L421.855013,238.211787L421.509980,239.448962L421.788369,240.530204L423.039108,241.391057L423.280861,242.488736L425.014401,243.270909L424.355014,244.563905L428.154934,244.968859L428.652636,246.050985L437.486460,245.630710L431.009337,247.992726L428.231250,249.640722L425.834564,251.183372L426.460088,252.232674L426.763991,253.334808L427.197897,254.421533L430.015811,255.208122L425.834647,256.875914L428.540318,257.703049L427.166490,258.997848L425.567459,260.292302L425.225942,261.447779L426.999074,262.421667L425.315144,263.680928L427.081587,264.679720L432.404033,265.488781L437.120468,266.408018L431.428492,267.870717L428.789031,269.131689L426.695623,270.336084L427.487039,271.441619L430.259138,272.526940L428.488821,273.691768L427.998638,274.828802L426.773112,275.953936L426.274887,277.070983L427.528424,278.217834L427.658245,279.351577L428.741168,280.521955L426.810397,281.578404L426.528915,282.690637L426.349474,283.805473L430.669251,285.213815L428.113954,286.185289L428.235570,287.335445L432.973208,288.894785L433.399790,290.114986L436.687718,291.637667L437.684491,292.958479L436.014810,293.981880L431.975375,294.685147L432.045429,295.876125L429.560344,296.711560L432.026389,298.244817L434.878737,299.878109L432.366443,300.681956L429.953918,301.467541L424.663721,301.705855L424.790197,302.874340L436.159899,306.226418L449.048098,310.062646L450.264420,311.660069L438.648574,310.497058L429.570221,309.728127L425.887407,310.076254L424.299787,310.874392L423.320641,311.802804L422.347676,312.721689L423.784967,314.265717L423.450614,315.355506L421.603780,316.021518L421.533709,317.174266L421.031914,318.203172L422.804469,319.920364L426.625871,322.310899L429.599959,324.497943L429.488358,325.726340L427.487905,326.323331L429.260384,328.194653L421.832154,326.852707L420.352096,327.543652L419.315989,328.380542L416.175112,328.410351L416.722677,329.820430L417.537235,331.352297L416.128370,332.007131L416.076547,333.204852L414.147092,333.618157L414.916924,335.166116L413.791711,335.903827L413.165497,336.853018L413.989478,338.461366L412.649322,339.085312L412.038380,340.039752L411.462856,341.008978L412.320893,342.683196L410.360646,342.967314L410.184659,344.136933L412.768443,346.750123L413.691646,348.541429L410.029904,347.885744L410.049843,349.192977L409.671983,350.288794L411.645218,352.725432L414.303805,355.608608L412.861916,356.142680L411.691039,356.822206L408.568518,356.302413L408.701179,357.746056L408.715530,359.130527L403.270686,357.036693L402.121310,357.634153L401.673822,358.683975L401.314541,359.796673L399.937581,360.220973L399.230335,361.093206L398.899982,362.229254L402.996517,366.538232L402.958196,367.950462L400.877903,367.870858L397.257501,366.605428L397.661514,368.334176L396.321147,368.740710L395.778826,369.758072L395.063981,370.641813L393.937411,371.192405L392.249609,371.272028L392.556757,372.990384L390.863107,373.041614L390.627710,374.320849L390.624945,375.815788L388.543834,375.490698L390.754754,378.985957L387.687184,377.748063L386.517438,378.203948L385.972142,379.235224L384.543365,379.430567L383.844250,380.313371L385.347359,383.361071L384.416230,384.049753L381.683369,382.912295L380.489943,383.297300L380.572023,384.999391L380.641330,386.715667L379.449207,387.106163L378.195570,387.418108L376.605769,387.344718L375.356046,387.628043L375.151215,389.087749L374.022759,389.501230L373.814180,390.984717L373.187045,391.992381L372.825633,393.330033L370.597514,392.394136L371.104242,394.817422L372.344087,398.221442L374.404571,402.763164L372.185705,401.837948L370.038282,400.956182L367.379733,399.336881L367.493221,401.434478L365.469683,400.609585L364.476530,401.190452L365.072551,404.045499L364.528547,405.311351L364.088509,406.750392L363.339482,407.750382L359.308135,403.749142L357.460810,402.985777L356.590622,403.718534L355.899457,404.742683L355.057404,405.535062L353.632022,405.367062L353.283825,406.989695L354.217187,410.845814L355.333770,415.134730L357.926121,422.171733L355.106975,419.662593L351.723431,416.005854L348.870904,413.190801L347.027788,412.176246L345.233984,411.200613L343.781625,410.843959L343.161929,412.130067L342.063013,412.463466L341.382935,413.665515L339.581088,412.506623L338.196747,412.189833L337.119506,412.521724L337.010087,415.034037L335.886756,415.293912L337.129734,421.110745L333.448451,415.329744L332.785466,416.684566L332.032591,417.854337L330.542637,417.170285L329.322202,417.142554L327.830636,416.369773L327.062710,417.524219L328.091043,423.747480L327.593567,425.872943L329.248741,434.408639L328.565149,436.306119L326.538681,434.133458L324.426506,431.556947L321.895018,427.461415L319.591518,423.886656L317.898212,422.189346L316.611755,421.813246L315.503367,422.043876L314.073899,421.070083L312.894754,420.983406L311.926444,421.711325L310.845351,422.006065L309.655581,421.842265L308.822829,423.214144L307.523471,422.548447L306.416382,422.720617L305.411787,423.388322L304.544123,424.784866L303.756080,426.697027L302.261087,424.866078L301.384288,426.404127L300.952930,430.738120L299.491518,428.991935L297.804514,425.563088L296.639657,425.384147L295.422501,424.784041L294.337354,425.120767L293.279290,425.704803L292.088365,425.180453L290.980357,425.344333L290.187357,428.703148L289.139614,429.804430L288.086481,431.018876L287.549810,439.209069L286.435204,440.769666L284.897258,435.808732L283.505444,432.165301L282.180997,428.785702L280.939468,426.220129L279.841204,426.936112L278.732550,427.639504L277.578583,426.272077L276.477640,428.274222L275.344885,429.238051L274.206020,428.629716L273.026416,431.971217L271.904580,429.933296L270.818788,427.669282L269.752420,425.798069L268.570805,427.300498L267.120695,433.749181L265.502428,441.451993L264.155964,443.149468L263.041067,441.260051L262.329860,434.622515L261.569582,429.673158L260.543496,428.310056L259.701693,425.320586L258.571171,425.367540L257.458629,425.238862L256.324762,425.281635L254.755785,428.605200L253.528799,429.098720L252.466815,428.401879L251.349759,428.113492L250.401867,426.791810L249.586049,424.793736L248.486424,424.552037L247.404286,424.219522L245.564390,427.831532L244.733422,426.112570L242.315059,432.135851L239.333852,440.319361L238.727464,437.291624L239.004890,430.628117L238.802983,426.386712L238.836321,421.444580L237.516452,422.101217L236.108562,423.036825L234.903044,423.153122L234.259500,421.228772L233.375395,420.234126L231.474124,422.729130L229.568797,425.087742L229.362518,421.839459L229.095940,418.928425L227.891300,419.013326L226.128615,420.741187L225.795854,418.207110L224.728695,417.862150L222.826701,419.833437L222.430730,417.612121L221.604298,416.614189L220.446541,416.502091L219.292952,416.366820L218.267709,415.901010L217.637548,414.476474L216.315316,414.741129L214.798464,415.431362L214.532237,413.217393L213.491285,412.808995L212.113791,413.138022L211.454990,411.888244L210.040584,412.264762L209.168251,411.485209L208.471844,410.358562L207.021574,410.760750L206.147562,410.000175L205.191455,409.406671L204.033763,409.197090L203.373931,408.051572L201.449275,409.235903L200.038932,409.438140L199.621085,407.865064L198.986044,406.702725L198.129518,405.937813L196.209802,406.960090L193.739337,408.836327L195.150237,404.344012L193.899808,404.219197L190.360337,407.666907L185.118461,413.609027L185.393404,410.969012L183.456965,411.693765L182.992673,410.210885L183.995463,406.631106L181.000296,408.834059L177.752887,411.300699L175.869019,411.787567L168.932658,419.101199L170.354520,414.986487L171.961108,410.730005L172.419341,408.068972L168.673506,410.836149L165.240097,413.103411L173.922408,400.263649L178.618566,392.650589L177.916251,391.733983L174.870601,393.598822L175.245781,391.395041L174.896036,390.067809L174.814203,388.454449L173.709739,388.007648L171.029335,389.284214L166.918051,392.050410L162.043937,395.526151L163.598499,392.117272L159.747315,394.383386L155.905487,396.548859L157.075024,393.585932L154.447631,394.446077L153.508806,393.606594L154.082541,391.310427L153.976300,389.699616L153.806914,388.168656L154.557566,385.809774L150.677830,387.691039L148.238933,388.203415L144.519972,389.799411L141.778619,390.472666L146.588164,384.649375L147.028108,382.645590L148.312853,379.973083L146.158908,380.158699L143.176326,380.976542L132.665618,387.701639L134.577352,384.506172L140.764934,378.091716L145.246986,373.130784L149.986882,368.099086L152.305008,364.968184L152.227227,363.634947L150.870026,363.224076L149.880286,362.540419L146.907368,363.215005L144.672366,363.338770L146.293517,360.856049L148.154330,358.264302L146.629494,357.911767L146.592973,356.594387L146.460629,355.348706L146.532874,353.986761L145.747560,353.156777L145.390264,352.068108L144.246881,351.443292L140.635089,352.225711L138.997808,351.832766L138.048847,351.036786L140.351455,348.459390L141.755597,346.418267L139.861963,346.150273L136.119135,346.812610L131.823954,347.695127L133.687028,345.438059L136.667370,342.678460L135.893189,341.785307L133.630225,341.588308L133.324564,340.454997L131.345097,340.083224L125.584310,341.364226L127.077930,339.393796L123.461273,339.637828L123.311231,338.378516L129.873656,334.378355L130.206945,332.994210L132.025492,331.041003L133.901045,329.104093L133.719753,327.977120L133.249941,326.959469L132.680761,325.975981L132.549437,324.836105L132.092575,323.811371L131.587247,322.801213L129.886144,322.177316L131.069028,320.617240L128.752859,320.162485L125.744923,319.883610L126.223665,318.541113L128.513764,316.695911L128.870358,315.427222L128.525780,314.357393L128.120968,313.302429L128.182233,312.127684L127.656437,311.102077L127.267736,310.039896L127.658972,308.796792L127.615985,307.659911L127.042953,306.639464L125.688659,305.774799L126.575198,304.448153L126.662704,303.290900L125.980984,302.279016L125.789681,301.173764L126.012202,299.999113L125.887379,298.886310L125.906417,297.752343L125.085101,296.743099L124.278270,295.721879L123.383354,294.702247L120.612045,293.901055L123.346786,292.427571L123.397185,291.285413L122.829766,290.207558L124.079733,288.954857L124.788612,287.768361L124.252428,286.690403L123.586236,285.614860L122.172405,284.577427L121.811767,283.461852L121.736859,282.328189L122.427320,281.163302L123.552263,279.995003L123.179165,278.882236L122.140526,277.776455L124.109552,276.623237L123.939877,275.506530L123.392474,274.385835L120.538331,273.230542L120.891365,272.093276L121.400037,270.965009L123.381835,269.893453L123.703360,268.782489L122.968492,267.624361L123.543076,266.527763L123.295198,265.386650L124.560012,264.347902L124.288666,263.206597L124.593817,262.109356L123.906634,260.922790L122.623894,259.664463L123.372937,258.604942L124.237610,257.568194L124.455670,256.462864L122.987960,255.138491L125.227543,254.302128L124.423262,253.053611L123.631633,251.792413L122.605002,250.478798L123.641401,249.494472L122.739112,248.181583L119.480936,246.418924L117.137647,244.778296L122.924370,244.717189L126.412901,244.266365L127.028048,243.249349L126.601843,242.006698L126.515203,240.831764L121.759365,238.540628L123.088568,237.666312L126.773454,237.405987L127.998147,236.555963L127.605257,235.284958L129.297094,234.581355L128.922338,233.310166L128.349043,231.969776L128.097002,230.711893L128.965349,229.791483L128.264622,228.381227L124.132778,225.835797L125.431748,225.031087L121.336975,222.395182L120.760507,220.918718L121.872252,220.032023L123.343645,219.289226L131.518411,221.083187L133.101736,220.475801L133.681126,219.494147L130.658783,217.069846L132.764810,216.688652L131.534913,214.939871L133.724625,214.623377L136.335611,214.521142L136.461561,213.351209L135.694944,211.770282L133.662708,209.581506L130.557872,206.841343L127.953728,204.276640L132.315538,205.068984L134.075247,204.632631L138.739099,205.696272L137.808661,203.939633L135.241073,201.292215L140.159713,202.605173L141.918155,202.274788L143.065103,201.627797L143.251025,200.448706L142.671250,198.821666L144.689337,198.693316L145.016258,197.586671L145.866775,196.792194L145.821683,195.451693L147.037075,194.887382L147.784588,194.038130L147.894492,192.779510L145.558848,189.902656L143.740738,187.308653L146.993560,188.104153L149.134210,188.189025L150.794588,187.970108L151.885812,187.368505L152.556077,186.472418L152.853395,185.302793L152.994391,184.008221L154.575950,183.792436L155.111771,182.793488L155.217588,181.455264L156.423844,180.975636L157.512268,180.413449L158.147617,179.490411L158.761067,178.547428L159.271711,177.515327L159.877419,176.559169L160.782606,175.859799L161.283436,174.808610L162.557603,174.442676L162.745685,173.105001L161.807517,170.714401L164.328601,171.511701L165.180303,170.773353L164.815733,168.865690L164.438246,166.912554L167.175265,168.015539L168.653625,167.908201L169.229680,166.899121L170.070763,166.158157L169.958895,164.415031L170.425151,163.260576L172.056521,163.358231L171.802809,161.406836L171.128571,158.949753L175.208767,161.833301L175.812814,160.825210L175.946460,159.259159L175.232839,156.662797L177.467478,157.559805L179.288761,158.001047L179.664206,156.683205L178.244937,153.085126L173.720266,145.425084L174.234059,144.096285L177.058422,145.797417L179.618904,147.220831L182.014737,148.487049L183.050173,147.934950L182.928036,145.762087L184.450613,145.886930L185.895545,145.924752L186.217232,144.331860L188.391137,145.478629L190.584348,146.712972L192.494589,147.571213L193.132762,146.480972L193.475991,144.903981L194.136312,143.808862L195.996177,144.675770L197.374867,144.784833L197.691656,143.105624L196.322008,138.461542L196.001981,135.529115L197.819270,136.353648L200.185235,138.230723L201.837320,138.866515L202.783226,138.207235L204.293528,138.631929L204.722028,136.966846L204.448783,133.855146L203.777079,129.833627L202.041895,123.469979L205.511084,127.898613L208.470713,131.420779L210.275235,132.559828L212.922429,135.655310L213.696393,134.605307L214.786335,134.269238L215.271494,132.494816L217.003711,133.702130L217.370017,131.580685L218.969066,132.519842L220.294770,132.808689L221.519850,132.861451L221.969413,130.826452L223.242681,131.006260L224.409452,130.909563L225.878062,131.706839L226.544035,130.162420L226.702906,127.004275L228.195725,127.894491L229.304469,127.610943L230.122803,126.368515L230.904233,124.950465L232.695848,127.004968L234.429500,128.987366L235.451888,128.469367L236.366877,127.527743L237.504670,127.422217L238.579041,127.070116L239.986707,128.110834L240.949041,127.308222L241.556720,124.875042L242.665892,124.616278L244.329285,127.029889L245.453998,126.948616L246.525239,126.599695L247.533986,125.900019L247.467450,119.067357L248.500433,118.143802L248.803145,112.625178L250.292469,114.298260L252.291040,119.647583L253.882339,122.660917L255.320072,124.867713L256.477778,125.094971L257.617660,125.215838L258.635253,124.244674L259.543262,122.063212L260.751504,122.759243L261.511378,118.388472L262.978890,122.202444L264.146788,122.626463L265.383855,124.252493L266.469373,123.637299L267.577471,123.315931L268.723276,123.807603L269.830535,123.403022L270.945460,123.082162L272.045068,121.743326L273.153177,119.477519L274.324988,124.000277L275.442551,124.159738L276.596260,120.599071Z" />
<line x1="50" y1="575" x2="100" y2="575" fill="none" stroke="blue" stroke-width="1.0" stroke-linejoin="round" stroke-miterlimit="10" />
<text x="125" y="578" style="text-anchor:start;fill:black">n1_4mer:GRV/n1_4mer:RV</text>
<path style="stroke:green;stroke-width:1.0" d="M276.367546,182.645229L277.026939,183.754976L277.822861,179.708408L278.619320,177.275096L279.371680,176.654536L279.979099,179.014847L280.292180,185.756865L281.547420,176.888194L282.673814,171.544759L282.959459,177.486677L283.899383,175.099471L284.388681,177.758767L284.957013,179.286240L285.448674,181.306090L286.024050,182.377899L287.671191,174.862246L288.551077,173.923470L288.671790,178.456230L289.615599,177.022524L288.775253,187.119856L289.589247,186.228190L290.086376,187.267612L291.078724,185.470807L292.348356,182.349551L294.016311,177.440313L295.220756,175.201817L295.149739,179.202276L294.328928,186.367810L294.831995,187.189214L295.003080,189.386572L295.974071,188.138685L296.738295,187.808342L297.125703,188.973142L298.302818,187.099476L298.668587,188.316064L301.299402,181.413513L304.962342,171.332237L301.789930,184.817269L303.173413,182.669988L306.427936,174.671460L310.155301,165.618212L310.343264,167.765502L308.811764,174.911078L307.481348,181.146924L305.482513,188.988306L305.581183,190.697606L307.205634,188.229081L309.306389,184.625968L309.295049,186.633386L309.915962,186.971466L309.133541,190.769172L308.631793,193.741065L310.754933,190.389669L311.462603,190.466177L311.812620,191.362981L314.442080,187.158669L315.993463,185.483253L316.424480,186.283193L317.660668,185.372835L313.578176,195.472636L316.268318,191.506985L316.985027,191.616918L317.122965,192.862693L318.335620,192.017057L317.831014,194.442629L318.481539,194.659885L322.182321,189.343214L326.559069,183.015694L325.742002,186.024434L323.084792,192.115969L322.780197,194.028206L326.250592,189.598105L325.159337,192.802096L323.292954,197.162631L323.931741,197.421184L325.981700,195.482030L326.714996,195.637728L326.268056,197.582874L326.718109,198.145505L327.597401,198.074705L330.252404,195.462102L330.168543,196.824559L331.135190,196.692045L330.260112,199.105833L328.432285,202.746544L327.601336,204.960923L331.264531,201.227265L335.478894,196.907441L337.038134,196.107706L336.714224,197.704366L332.308174,204.302792L334.933159,202.173496L334.467247,203.820367L334.503524,204.839331L335.237073,205.031269L336.470944,204.658182L338.703201,203.183947L338.616602,204.342406L343.612857,199.918655L345.676124,198.801563L349.432742,195.933712L349.690529,196.827749L346.494126,201.273852L345.656445,203.209001L343.504063,206.419115L343.126057,207.800094L343.092080,208.821127L344.111127,208.818688L341.907992,211.871439L341.039185,213.609022L343.084442,212.641062L342.209961,214.350945L347.046895,210.947604L351.128054,208.321895L350.570476,209.792685L347.031453,213.770922L344.972264,216.408164L346.009224,216.428773L347.396363,216.179885L350.095432,214.904512L358.828018,208.928398L356.553235,211.694625L350.252052,217.473716L351.294115,217.567097L348.120310,220.799789L356.576687,215.462309L355.390052,217.235743L356.720028,217.192721L354.239241,219.823292L349.423523,223.990672L351.875208,223.142679L355.166825,221.781655L355.293646,222.549791L358.239122,221.500803L353.950851,225.079089L353.837463,225.964094L357.318650,224.640275L355.220976,226.736159L356.796056,226.609738L355.373525,228.251187L354.941914,229.290997L355.471323,229.775587L362.543509,226.650447L367.115668,225.011750L366.182824,226.388443L369.718397,225.400661L359.767464,231.408132L357.284190,233.452615L357.992921,233.863057L357.327416,234.949490L359.557890,234.635896L362.004453,234.256230L360.593785,235.686914L361.937605,235.846562L357.366598,238.636297L356.038952,239.937086L355.049615,241.066559L361.347037,239.148914L362.356246,239.485882L366.038327,238.772081L365.258552,239.854241L363.540914,241.275886L361.784208,242.678720L365.412079,242.087777L369.040017,241.553567L373.913270,240.643195L371.706723,242.209997L364.443698,245.409200L361.175826,247.196493L362.771723,247.397424L362.334737,248.243800L361.559763,249.180706L361.231757,249.972304L362.836381,250.210221L367.298139,249.687290L369.549453,249.821069L364.976033,251.751040L360.608066,253.554578L362.852896,253.682260L361.645559,254.653328L363.162362,254.984723L366.297086,254.982692L366.618287,255.622094L367.310667,256.188604L373.539233,255.678092L374.941168,256.170526L379.345376,256.139662L376.674996,257.398717L372.406065,258.879610L366.696623,260.521194L366.989129,261.172288L366.173255,261.984488L367.093179,262.548209L371.167124,262.721717L366.712227,263.979984L372.659532,263.998251L369.338362,265.079177L365.460646,266.163643L366.220679,266.770777L366.720764,267.409859L363.439053,268.340338L369.475987,268.588845L375.425991,268.931708L376.135496,269.640070L371.646980,270.595280L368.552445,271.430208L363.148351,272.289859L365.163215,272.895985L368.714156,273.507265L369.288885,274.196347L367.589937,274.896396L363.086265,275.553647L365.006985,276.232213L364.003770,276.877679L365.956249,277.592740L365.389747,278.246548L365.876259,278.937943L366.922997,279.665422L369.038326,280.471125L374.761567,281.545584L374.464820,282.266110L372.532671,282.851368L375.814351,283.867287L373.589148,284.407674L374.506924,285.239263L376.564406,286.211531L374.421239,286.720673L371.641062,287.119057L372.113497,287.909344L369.716484,288.305111L374.117545,289.672497L376.518874,290.796958L373.302768,291.042857L371.198186,291.431527L364.567874,290.982408L364.205037,291.600095L379.586924,295.264812L385.360974,297.232634L387.066151,298.440883L379.169463,297.595427L370.392773,296.432410L370.556925,297.213775L368.573898,297.484337L366.479552,297.698823L363.610401,297.684674L366.670721,299.192744L369.204289,300.608932L366.072109,300.483082L367.766958,301.699511L367.485786,302.361686L367.755155,303.189914L371.596434,305.140398L373.856089,306.650546L377.224678,308.565531L378.626738,309.877975L378.910965,310.832322L367.025264,307.498052L366.269430,307.993189L365.412376,308.442321L357.951428,306.382762L361.098805,308.304293L362.822171,309.720619L362.262662,310.248717L361.944013,310.871047L361.753829,311.546575L362.453421,312.606120L359.496156,312.078146L359.264253,312.722865L360.272019,313.934449L359.343699,314.267845L360.054725,315.367802L359.022111,315.642661L357.740901,315.781621L358.087324,316.719823L358.612238,317.761462L359.606636,319.063331L363.789958,322.080993L358.316580,319.972193L356.100919,319.554799L355.661359,320.093985L354.508994,320.225666L355.130899,321.368010L354.855106,322.001068L353.128787,321.767292L353.213006,322.607821L354.545153,324.229541L358.328358,327.428156L353.928936,325.479724L353.508783,326.033983L352.359899,326.105933L350.367440,325.595189L352.039210,327.549091L350.425193,327.270621L350.706202,328.299407L354.148769,331.604184L355.531629,333.499200L355.178366,334.154415L353.116910,333.531648L353.831793,334.983774L352.486543,334.871207L346.318608,330.953630L349.041288,333.980579L350.820423,336.320898L350.029973,336.606070L348.177716,335.997876L344.657892,333.943458L346.652804,336.547681L344.593939,335.680400L342.175299,334.452746L346.461228,339.195758L343.977533,337.893646L343.109859,338.032352L342.164462,338.087029L340.758695,337.689491L343.368924,341.151054L343.928744,342.688005L342.613560,342.387096L340.043085,340.792341L339.620432,341.340147L343.404088,346.272747L343.787969,347.743252L339.977178,344.740521L338.683652,344.375029L335.530641,341.928265L336.413946,343.923924L338.349896,347.165345L336.320687,345.905863L335.983332,346.580157L336.279221,348.015762L335.817604,348.565065L331.937667,344.919686L332.972080,347.276363L334.478276,350.289616L337.942882,355.899517L336.291835,354.992531L333.030759,351.909354L332.761780,352.743455L333.623690,355.136204L331.078017,352.859634L332.371628,355.912298L330.424225,354.405398L329.143672,353.807657L331.714872,358.873966L329.375658,356.711927L326.052390,352.963431L323.812625,350.761101L325.566447,354.774351L325.419175,355.859863L327.091873,359.936753L324.419749,356.934908L324.529428,358.508618L325.031295,360.796305L326.178888,364.276772L330.292201,373.128899L324.916035,365.141751L324.185052,365.394553L320.501650,360.120246L318.903830,358.614432L317.740299,357.883736L316.682176,357.322448L316.858968,359.213036L316.784850,360.649154L315.932376,360.502532L314.667221,359.459797L313.644935,358.891852L312.657869,358.367937L312.886915,360.557978L312.829302,362.165439L314.149654,367.068398L311.990163,363.810224L310.583789,362.248127L310.523665,363.979116L309.245703,362.657367L307.532262,360.125762L305.786835,357.382652L307.011561,362.633215L307.649368,366.475151L307.749187,368.946210L309.531976,376.471392L309.282958,378.239718L308.421174,378.192922L308.575325,381.348817L306.224575,376.514897L304.776820,374.421849L302.146404,368.142842L301.189391,367.400564L301.002367,369.399285L298.949374,364.530023L297.131705,360.258809L296.995178,362.388370L296.798307,364.397460L296.566404,366.380939L296.366553,368.629820L294.930008,365.415986L294.018570,364.425793L294.317721,369.257011L293.607734,369.338795L293.048260,370.210034L291.781977,367.257843L291.796446,371.385064L291.341931,373.064517L290.414316,371.918463L288.560188,364.528930L288.604776,369.545985L287.670124,367.926051L287.097675,368.917311L285.915369,364.992472L285.066640,363.470283L284.089756,360.517074L283.930834,365.384216L283.778692,371.111566L283.170315,372.407645L283.250530,382.954764L282.548543,384.426955L281.357213,378.290769L280.378824,374.390986L279.548282,372.404396L278.487394,363.789806L278.033979,370.218244L277.312728,369.577066L276.623138,370.221081L275.917222,370.142563L275.207099,367.617900L274.513418,369.150365L273.778970,372.115963L273.114679,369.364925L272.523890,365.410614L271.883051,364.570796L270.802365,374.437313L269.838704,378.987784L268.621306,386.791339L267.781999,386.923560L266.967636,386.670595L266.518696,381.850214L266.702939,370.554185L266.122469,369.145501L265.452359,368.814758L265.070108,365.884958L264.151099,367.918988L263.263464,369.445159L262.122401,372.710191L261.433762,372.364835L260.448460,374.064277L260.094970,371.496318L259.987985,367.637148L260.043782,363.154249L258.693402,366.978727L258.130517,366.219100L256.290840,372.139133L256.274612,368.490634L254.527865,373.421667L251.905315,382.048244L251.453211,380.353721L251.479053,376.694945L250.869875,375.919375L252.766810,365.033156L251.567562,366.958750L250.746132,367.320209L249.291416,369.989931L249.265628,367.367683L249.789838,362.961815L249.289352,362.263303L246.643690,368.678668L245.862133,368.751637L246.645756,363.902413L245.802398,364.258328L244.538483,365.840431L245.509047,360.832485L244.316291,362.197670L243.905147,361.319525L243.658589,360.024295L242.434300,361.369596L241.209912,362.645554L241.116378,360.985887L240.726316,360.122539L240.444827,359.020706L238.746465,361.327634L238.985499,359.010570L238.041643,359.479522L237.808515,358.326747L238.400651,355.395397L236.269197,358.433641L236.657521,356.020914L235.678213,356.523616L235.261854,355.851457L233.661198,357.558351L232.565274,358.202507L232.981447,355.900896L231.753870,356.778394L228.903862,360.627534L228.862657,359.204308L228.094873,359.121508L229.042262,356.006443L230.226520,352.575087L227.388365,356.099574L225.490987,357.919119L223.761268,359.390202L225.711542,354.839522L225.867767,353.283756L226.522890,350.984568L221.196727,357.971647L222.472833,354.704701L219.400572,358.022102L219.652079,356.337451L219.841430,354.782654L220.744112,352.247964L221.301264,350.263676L219.812584,351.151293L219.894517,349.865325L221.076956,347.134005L221.597049,345.346085L222.076184,343.653465L219.524972,345.871463L217.351727,347.534897L217.587086,346.150796L218.236484,344.289912L215.248882,346.845042L211.110954,350.673735L214.473089,345.623903L211.712609,347.747783L211.999851,346.343917L215.473532,341.412566L215.743201,340.134880L215.806582,339.105190L215.331159,338.667726L213.365751,339.796570L213.078224,339.141077L212.083172,339.213443L212.680842,337.668450L214.159850,335.281828L212.341058,336.171213L212.510895,335.108230L212.654712,334.087440L210.799923,334.949265L211.041144,333.843600L209.345943,334.511702L208.684128,334.223099L207.254578,334.604022L206.477587,334.393362L206.876905,333.169519L206.824902,332.346567L206.415713,331.829001L205.868761,331.424166L205.620100,330.776339L203.342243,331.739254L204.832293,329.719072L205.461175,328.405396L204.192424,328.550994L202.590531,328.924384L201.521038,328.879695L200.530972,328.762395L200.117752,328.221772L199.336695,327.938080L193.808057,330.915376L193.885395,329.981159L195.985128,327.708338L198.728455,325.066328L197.733494,324.904785L198.541662,323.584345L197.688950,323.326382L198.411875,322.089462L196.548421,322.438351L196.498623,321.678227L195.478061,321.491578L190.077060,323.809131L189.286217,323.422947L190.648975,321.832617L192.629478,319.938386L193.042999,318.928501L188.353608,320.619387L184.528453,321.781087L182.889352,321.767567L183.197202,320.759499L187.647305,317.736814L188.144971,316.699179L182.604418,318.520374L179.340881,319.195151L177.824494,319.025613L175.141833,319.352839L177.618584,317.392315L175.693028,317.358723L181.921398,313.890049L188.071630,310.566690L190.396570,308.886357L187.878684,309.148506L190.232468,307.503929L192.035951,306.109773L192.349466,305.296128L190.534736,305.253813L192.275096,303.941177L188.205483,304.645481L192.629729,302.455012L188.759403,303.037294L187.628800,302.691281L182.479379,303.571233L181.613576,303.082930L181.414959,302.388743L182.801273,301.243489L185.501031,299.760169L190.914519,297.593637L188.271891,297.616552L186.841763,297.293699L182.641248,297.629715L185.275616,296.281289L188.171561,294.916535L186.687265,294.569870L187.019428,293.813961L186.083353,293.326752L185.270461,292.802747L183.987169,292.357974L183.539392,291.742530L182.115365,291.293381L184.515542,290.182661L183.224822,289.701441L185.973044,288.585909L186.515353,287.833484L180.784994,287.953089L179.188406,287.450504L176.986723,286.999345L183.050328,285.566604L180.568635,285.143966L181.077075,284.386451L183.020437,283.504899L184.470445,282.695249L182.960690,282.137605L180.815750,281.602786L182.735208,280.782066L181.616796,280.158326L184.468985,279.328688L180.267927,278.826782L183.479752,278.018493L180.787728,277.409118L178.131507,276.759466L183.783466,275.981282L186.307539,275.297401L182.980544,274.627228L176.029301,273.866227L179.919168,273.206631L180.321809,272.512854L180.954461,271.832517L181.901215,271.174120L179.662665,270.374816L182.270081,269.812850L179.604711,268.954916L182.286890,268.435328L184.406848,267.910941L181.013556,266.944841L181.499517,266.288658L181.272621,265.567027L180.351942,264.765940L181.663658,264.208044L184.790112,263.892089L182.028998,262.852644L186.988729,262.837243L185.845651,262.005854L184.866572,261.180868L182.235019,260.073599L181.078687,259.173263L180.079617,258.281232L175.051727,256.631646L174.997019,255.855090L178.897966,255.863208L180.296006,255.411503L182.802726,255.217038L185.825439,255.173856L184.206036,254.107157L178.806429,252.113400L178.520836,251.289322L181.651436,251.324436L186.150773,251.764082L184.158563,250.523066L184.132152,249.792848L182.051864,248.473067L181.629838,247.603391L180.175080,246.412318L181.642574,246.098977L181.329491,245.240278L176.907455,243.033867L176.069317,241.948476L171.578256,239.594723L172.769254,239.154642L174.722430,239.003551L180.554673,240.305626L185.946990,241.536094L188.222903,241.656028L188.662038,241.089015L183.751667,238.378236L183.631546,237.542197L184.333157,237.043293L187.284896,237.513341L192.816560,239.155465L190.208230,237.268161L188.878962,235.910184L183.821194,232.797548L182.488493,231.346115L179.429080,229.034220L184.806295,230.795205L186.124130,230.621982L187.489691,230.491336L190.198313,231.075659L182.707826,226.325816L190.594633,229.683336L196.741076,232.233860L198.596778,232.510311L196.305425,230.469996L191.635229,227.008998L199.016065,230.505697L197.492166,228.839309L197.968440,228.346869L198.121308,227.657923L197.922429,226.744726L197.083063,225.412447L199.628840,226.244806L195.509993,222.741592L195.349279,221.787153L195.809475,221.242331L199.049973,222.616458L198.253162,221.224010L199.825386,221.491433L202.290056,222.430339L203.647983,222.603319L200.581282,219.498523L204.891502,221.900762L204.324724,220.643365L202.766533,218.588875L203.106264,217.992225L203.919356,217.774681L206.215880,218.779127L204.311682,216.344351L204.336342,215.475888L207.436105,217.226400L204.821774,214.085605L206.858114,214.962746L209.294385,216.239416L207.991592,214.175419L205.386288,210.864048L207.856603,212.214529L209.267233,212.614962L208.677152,211.114929L206.770271,208.297212L208.649203,209.166272L212.038095,211.596770L212.895448,211.527026L213.435459,211.139839L210.690765,207.296649L210.189216,205.748935L211.802873,206.462982L212.567483,206.278100L211.743313,204.326531L216.509041,208.669237L216.960243,208.190190L216.082064,206.156307L214.446491,203.175435L215.359704,203.186334L218.652306,206.119675L219.283012,205.852252L218.134817,203.347816L212.426689,194.945174L213.542471,195.161329L213.992932,194.520688L215.488846,195.274707L216.578601,195.513602L217.964634,196.183085L217.498760,194.287698L216.827660,192.052897L216.146608,189.745944L215.816818,187.895751L219.857354,192.535563L221.617855,193.874798L225.152298,198.010719L224.869581,196.302919L223.856815,193.385702L225.953666,195.428506L226.923408,195.693143L227.212959,194.837851L225.595278,190.711492L223.544512,185.703707L223.733854,184.489697L224.997313,185.175894L227.719632,188.566504L228.387529,188.268375L228.571203,187.054733L230.819930,189.792087L231.475964,189.514324L230.727827,186.429034L228.430472,180.082110L229.000259,179.461036L231.100017,182.067936L233.695342,185.858949L235.054897,187.092577L237.571829,190.985487L237.337764,188.747683L238.406316,189.473617L238.556556,188.050233L239.866426,189.403157L240.506400,189.158426L241.312833,189.337445L242.350880,190.137526L243.600633,191.547347L244.401510,191.812295L243.957064,188.635627L244.558914,188.298637L246.187134,190.950251L246.828089,190.792590L247.441428,190.552874L247.150350,187.468746L247.333636,185.763280L246.838182,181.729182L247.571189,181.664954L248.640966,182.786685L249.878103,184.586661L250.885484,185.652743L251.536092,185.432416L252.343673,185.827016L254.053059,189.920457L254.483765,188.929472L254.325108,185.325239L254.568243,183.283020L255.320338,183.471238L257.731803,191.690009L258.078594,190.208915L258.487478,188.942622L258.511496,185.491723L258.437136,181.194988L258.806371,179.146698L258.455497,172.452929L259.600041,174.836202L260.906768,178.587941L261.803550,179.803137L263.129546,184.443855L263.248721,179.893925L264.528137,184.763638L265.137329,184.143101L265.388034,179.894340L266.374985,182.844396L266.184715,172.648896L267.722618,182.498870L268.247275,180.195200L269.212715,184.275615L269.741515,181.696360L270.428361,181.575672L271.186149,183.132781L271.842952,182.418094L272.535091,182.643372L273.172801,180.232899L273.851294,178.266554L274.597452,184.950309L275.261701,185.800951L275.941075,183.972981Z" />
<line x1="50" y1="625" x2="100" y2="625" fill="none" stroke="green" stroke-width="1.0" stroke-linejoin="round" stroke-miterlimit="10" />
<text x="125" y="628" style="text-anchor:start;fill:black">n0_4mer:PS</text>
<path style="stroke:red;stroke-width:1.0" d="M276.773493,155.230297L277.645163,155.924908L278.580370,154.137095L279.485083,153.898738L280.483565,151.641528L281.469372,150.285936L282.417299,149.920532L283.505011,147.554088L284.853697,142.156469L285.405214,147.523115L286.305122,148.093710L287.061036,150.080425L288.137572,148.712486L288.444339,154.443774L289.534812,152.881103L290.568670,151.964082L291.681283,150.575483L292.620889,150.569546L293.813362,148.882300L293.379812,157.744767L294.033499,159.186056L294.919530,159.161182L295.633035,160.111594L297.436642,155.175101L298.868028,152.549472L300.352818,149.872868L300.749210,152.580763L301.208577,154.821394L302.874451,151.579362L301.974442,159.549054L302.693781,160.309904L304.016475,158.615779L304.303633,161.064663L305.606786,159.548192L306.688532,158.943781L309.932754,150.691708L312.317616,145.883463L311.975561,150.529459L312.661168,151.576681L314.242482,149.724801L318.344074,140.139758L318.662365,142.524635L317.108288,150.351869L315.996710,156.542249L314.751062,162.835487L315.099992,164.457340L316.002959,164.526647L319.065886,158.916322L319.673340,159.892078L320.263277,160.884288L319.639905,164.842774L321.235412,163.289024L323.042043,161.313502L323.333309,162.945484L326.107639,158.885185L326.526256,160.246040L327.172745,161.071239L328.257701,160.940556L329.565298,160.362016L327.529944,166.711625L330.034691,163.655208L328.889664,167.974077L330.663712,166.459034L331.262238,167.264007L332.212363,167.393920L334.213908,165.591449L336.939368,162.552645L339.446891,160.023090L340.643559,159.894711L340.884260,161.434923L341.113363,162.959490L340.598558,165.689239L339.324777,169.588681L339.576856,170.916647L340.560479,171.057155L341.070782,171.947053L343.113972,170.471719L343.375664,171.749597L343.813641,172.741086L344.282776,173.671837L345.179973,173.973309L345.857288,174.593147L346.568364,175.162943L348.047158,174.677127L345.547873,179.602104L346.216459,180.174746L347.811692,179.531015L350.826156,177.090495L352.078921,176.980725L351.956032,178.614355L352.071406,179.922233L352.294824,181.076838L355.086295,179.140289L354.472716,181.293636L354.750938,182.364823L355.287471,183.126241L357.578151,181.905198L357.207733,183.693636L361.879405,179.930025L364.522506,178.482610L367.278563,176.976964L365.576263,180.201497L363.136008,184.112416L364.423555,184.140542L361.685303,188.217485L363.238295,187.961275L362.335402,190.118492L363.112231,190.623094L364.726790,190.341605L365.689656,190.693588L363.507791,193.935198L367.055391,191.930877L369.439557,191.039687L372.666202,189.457326L369.972620,193.051204L366.237386,197.445255L366.449035,198.424418L367.490808,198.709911L365.790939,201.234782L370.234217,198.788351L379.888123,192.329236L377.594252,195.361620L375.847695,197.907177L373.312825,200.991790L376.481147,199.777403L377.155747,200.442947L377.033004,201.684204L377.755618,202.312524L377.275474,203.782458L374.510306,206.796378L374.493449,207.885206L379.136351,205.869605L381.704872,205.297189L384.111876,204.871945L382.328372,207.135879L382.068301,208.404869L381.706338,209.720724L380.864511,211.308080L379.902446,212.940078L380.668370,213.538581L380.531643,214.659360L381.280952,215.270726L388.806941,212.145371L393.626267,210.625289L400.414649,208.138709L399.453398,209.829912L385.785517,218.028286L382.637550,220.651058L381.547567,222.187770L381.707756,223.088981L385.150141,222.419315L388.918669,221.652432L388.131827,223.038736L387.731791,224.229828L384.258397,226.763943L383.606827,228.009365L386.113729,227.898322L388.139297,228.024830L388.939779,228.678517L391.246689,228.740630L392.857220,229.107602L390.734663,230.918130L387.564980,233.077116L389.476409,233.327769L391.671151,233.504539L397.319957,232.513052L396.367482,233.848362L391.332559,236.513516L393.061594,236.908965L394.919073,237.287679L391.773782,239.224744L390.785346,240.463216L388.689696,242.002979L390.085955,242.519661L392.508773,242.773289L394.192064,243.258634L391.565681,244.880526L386.694789,247.019670L390.781855,246.905224L388.591840,248.325628L392.486433,248.327353L395.134593,248.659936L399.220895,248.726415L395.628329,250.417931L397.965028,250.888599L399.414846,251.559548L406.473199,251.236330L403.869020,252.691073L398.227952,254.606171L392.249286,256.486454L391.852383,257.434869L391.418374,258.380600L393.628849,258.960358L397.116260,259.408622L396.865688,260.356785L399.237521,261.004130L396.186933,262.255724L397.123764,263.070733L397.899211,263.912985L398.022506,264.819556L393.567506,266.071597L397.334211,266.698381L402.712624,267.282899L403.175687,268.207007L396.557564,269.459971L395.410839,270.405340L388.228960,271.518750L394.377606,272.214249L394.596207,273.095001L399.087056,273.942368L403.176577,274.856577L396.412981,275.763114L399.117205,276.699189L394.838167,277.528180L398.117189,278.509499L400.717591,279.515426L400.129593,280.422244L400.294475,281.359145L397.185309,282.108709L398.393881,283.096154L398.925333,284.053000L397.183041,284.835720L405.743169,286.499723L403.064566,287.220307L401.635804,288.030825L401.728500,288.989355L401.939789,289.964809L395.908214,290.162225L397.928217,291.340907L397.264967,292.174930L400.784676,293.620066L403.663386,295.020810L398.626430,295.175639L395.225786,295.535660L393.544007,296.152882L395.905226,297.499159L407.144772,300.604433L414.997393,303.203003L416.017871,304.496716L407.089869,303.651650L400.029992,303.091164L396.340585,303.207610L394.178631,303.636752L392.907003,304.256267L392.614939,305.109970L399.553304,307.870759L403.126256,309.830438L402.534631,310.685739L400.160774,311.022863L398.189336,311.445253L397.459640,312.217627L395.501302,312.599289L399.245055,314.779277L404.230684,317.432968L405.205880,318.823800L404.891930,319.791514L393.752964,316.936745L392.541855,317.490467L390.056636,317.557901L384.216351,316.319491L388.669912,318.969205L390.261529,320.568808L393.625781,322.917477L394.404774,324.263590L394.799303,325.467561L391.552943,325.119297L387.874760,324.531091L387.096701,325.182712L389.705772,327.373641L390.206909,328.636811L389.759478,329.465968L388.930289,330.109662L382.721952,328.094368L382.898807,329.178170L382.859742,330.162264L383.902919,331.716891L387.392054,334.596036L381.601387,332.540746L379.584783,332.456242L378.870208,333.068965L377.776489,333.460495L381.044381,336.362932L383.478104,338.847974L385.202685,340.966481L381.610188,339.893027L382.223405,341.359279L382.770217,342.806373L379.257093,341.678579L379.560555,342.968721L377.785594,342.902798L374.822884,342.012462L372.550386,341.539937L376.331727,345.224179L373.120912,344.080026L376.002311,347.233005L377.418843,349.398351L376.865184,350.154629L378.566939,352.600913L385.802554,359.310594L379.229234,355.534371L373.838436,352.544549L373.302396,353.306744L371.908449,353.376154L370.334547,353.277874L376.051082,359.231945L370.929066,356.173729L372.513829,358.761551L370.638012,358.388767L368.008360,357.316007L368.133891,358.664960L365.446193,357.468749L362.754071,356.212111L361.438574,356.191045L363.754066,359.611583L363.141235,360.281956L360.948971,359.401862L359.846497,359.562313L363.363610,364.381505L361.565474,363.869203L364.838411,368.605960L363.420701,368.504859L357.156515,363.179239L357.086143,364.422142L354.021665,362.373648L355.708369,365.577758L354.760111,365.859123L355.367653,367.930102L354.788579,368.653115L354.620122,369.869416L354.946230,371.703080L352.985353,370.766331L352.250833,371.312040L352.390506,372.963524L354.528636,377.216931L354.223025,378.394691L351.780548,376.758833L350.842735,377.079199L350.758264,378.558471L348.590930,377.174849L349.255296,379.723656L346.186683,376.988019L344.948378,376.811857L346.439150,380.649271L344.544030,379.505894L343.204793,379.157311L341.636350,378.424949L341.603097,380.074000L340.184326,379.539507L341.961257,384.181555L339.980587,382.733822L341.268864,386.731983L338.505844,383.903173L339.451386,387.429401L342.920682,395.541084L338.389794,389.473578L336.582074,388.178371L333.995804,385.363849L331.971045,383.500820L330.783480,383.177605L331.657963,386.899681L330.061421,385.774100L328.154572,383.954420L326.145774,381.837022L326.418122,384.479919L326.027171,385.771668L325.767187,387.389673L326.062512,390.311719L323.990542,387.882920L324.302733,390.945435L321.757584,387.260969L319.562569,384.263257L319.971273,387.643338L319.263515,388.299565L317.643700,386.583923L317.124281,387.720581L317.493242,391.327331L317.577993,394.292612L316.705843,394.639788L317.158979,398.883161L317.159159,401.958114L316.934614,404.479452L317.343800,409.122693L314.754109,404.245449L313.171554,402.451034L310.460144,396.668366L308.070325,391.677651L308.264633,395.764294L306.768546,393.760457L305.094212,390.933082L305.939901,397.926378L303.453672,391.691905L302.777246,392.697456L302.969807,397.565767L301.280087,394.224238L299.695700,391.119802L299.740755,395.717637L298.738081,395.348988L298.105984,396.891058L296.894679,395.364596L296.523758,398.512364L296.096367,401.594896L295.309514,402.697326L293.547428,397.456371L292.904617,399.427601L291.626347,396.942039L290.262077,393.483362L289.404146,393.755922L288.049143,389.681905L287.176034,389.552995L286.566503,392.058414L286.159883,397.181502L285.448713,399.571035L285.353194,410.467250L284.649500,414.883330L283.149180,407.406302L281.979277,403.964490L280.758572,398.323552L279.793240,397.036921L278.967170,399.505467L278.052684,399.836973L277.191188,403.545620L276.234408,403.043980L275.275258,398.099800L274.358416,399.142087L273.468422,396.815752L272.646344,392.806230L271.800897,391.809394L270.927563,392.028358L269.679813,401.029322L268.564644,404.657052L267.087596,413.670749L266.015027,414.322518L264.979440,414.311656L264.255554,410.362000L263.686963,405.288057L262.897567,403.345316L262.288772,399.900049L261.768366,396.104694L260.807222,396.558726L259.832199,397.056917L258.780841,398.064645L257.111928,403.382622L256.017774,404.227588L255.018241,404.363452L254.772874,399.818901L254.440299,396.182041L253.295073,397.428452L253.221543,392.763614L250.968558,399.772754L250.645632,396.594558L248.832116,400.804503L246.046310,409.205847L245.175382,408.442163L245.518594,402.465527L245.191045,399.669935L245.610963,394.010710L244.425046,394.988987L243.170012,396.158038L242.269926,395.933436L241.775562,394.251574L242.214127,389.394543L241.349078,389.213014L239.398591,392.613770L238.137138,393.606953L236.016425,397.229811L235.404517,396.045098L235.277265,393.458656L234.946294,391.575044L233.829394,391.999573L234.606427,387.132838L233.083734,388.712203L231.814259,389.535693L230.095899,391.473352L230.789830,387.191391L230.197031,386.273200L230.202321,383.925301L228.854420,384.882768L228.350507,383.818681L225.556191,388.018805L225.784155,385.267075L223.390788,388.366581L223.701621,385.506632L221.877180,387.253030L221.747034,385.406334L222.844759,381.115348L220.695413,383.452519L218.799945,385.192427L218.116179,384.521909L215.170615,388.137314L213.617267,389.023696L214.719762,385.016212L215.039517,382.535499L215.749451,379.436738L215.827429,377.523131L213.081027,380.470067L210.371925,383.240959L207.858371,385.582275L210.166358,380.020267L208.879358,380.351862L209.789103,377.213640L205.225657,382.601115L205.698413,380.158201L203.138066,382.305578L202.383281,381.715098L204.130232,377.507702L202.743369,377.876901L200.026657,380.081979L199.535014,379.131642L196.640547,381.457755L196.831941,379.567077L196.763017,378.059203L194.736856,379.118400L193.508671,379.108279L193.356956,377.725883L196.549583,372.222197L198.845856,367.959604L194.355878,371.966894L189.874728,375.827101L191.764619,372.120559L192.598821,369.718758L191.741877,369.284866L196.091239,363.037027L193.670752,364.396844L190.669610,366.327985L187.931202,367.903973L187.677288,366.803052L184.830565,368.401143L182.858073,369.040824L180.902774,369.624630L178.213672,370.898134L179.362558,368.366696L178.265573,368.048784L179.857161,365.171157L178.908815,364.728801L179.541780,362.823730L178.905189,362.104530L178.362976,361.301271L176.025240,362.080332L176.126762,360.700631L177.660505,358.117064L175.290718,358.872047L173.421117,359.168353L174.579456,356.962156L172.174291,357.664311L172.470923,356.183441L173.430423,354.207276L171.492859,354.492856L173.915621,351.449009L175.259587,349.278136L179.870293,344.755471L177.506946,345.384430L180.038735,342.492722L178.863629,342.262128L172.228774,345.776625L173.515545,343.788266L171.607494,343.969891L171.554596,342.903850L171.348980,341.945980L170.698853,341.276655L171.500517,339.696516L171.303748,338.756630L171.523464,337.570521L167.282662,339.050524L169.913255,336.437745L166.100430,337.589606L165.484226,336.869590L167.909833,334.457638L170.515507,332.002971L168.854535,331.893385L164.102521,333.387602L162.964732,332.931270L159.261970,333.763956L160.064309,332.290190L162.723490,329.930650L161.822563,329.336591L156.931922,330.612691L151.596859,332.013075L149.161426,332.011490L148.517936,331.178065L150.333665,329.270052L149.352431,328.594128L153.911440,325.593154L159.915206,322.086873L158.946916,321.482941L155.885281,321.688801L154.331750,321.269983L154.355429,320.239176L161.484875,316.609758L160.548289,315.994375L165.060780,313.462063L164.659092,312.687972L167.933243,310.686651L163.616864,311.211273L162.108224,310.779729L153.990104,312.368987L150.183055,312.534636L147.490362,312.317169L149.081695,310.841445L150.443510,309.458942L156.462285,306.850898L157.571385,305.622486L154.616048,305.443027L154.705282,304.474577L157.014502,302.984405L158.881306,301.635075L159.189463,300.663311L153.695693,300.939983L152.879064,300.170541L153.017775,299.201826L155.814888,297.730993L155.605857,296.855968L155.484018,295.964925L155.464400,295.057240L150.409579,294.958105L150.729484,293.964232L147.988269,293.421309L147.781507,292.490552L148.779137,291.402122L141.328441,291.364835L147.135587,289.693828L150.462012,288.378066L147.302904,287.761767L150.247876,286.535217L153.448960,285.332157L153.702810,284.406540L153.517507,283.516529L154.901132,282.526377L155.466484,281.602824L156.202707,280.680224L152.253456,279.958450L149.403819,279.142375L151.053317,278.169461L149.810903,277.273865L154.135797,276.300223L154.174210,275.405149L154.062704,274.510081L150.312799,273.571628L156.639675,272.767544L156.890460,271.897324L155.828922,270.986281L156.480113,270.129444L151.783898,269.022308L153.736921,268.216754L150.479834,267.109308L153.560660,266.401330L156.778751,265.748998L155.112493,264.724976L154.598064,263.782278L154.558330,262.878430L151.894358,261.688892L151.448303,260.714413L153.051993,259.984046L153.011289,259.061263L152.726504,258.102359L155.982651,257.653356L155.068029,256.612197L152.874378,255.349309L152.177866,254.303169L150.043912,252.990904L146.075179,251.306377L146.876477,250.471598L150.819458,250.271936L148.640741,248.863953L148.495151,247.855590L155.117799,248.346638L153.059109,246.939854L152.885849,245.946314L152.923333,244.998491L149.254122,243.107655L155.140702,243.654304L153.324688,242.214977L150.769285,240.537838L149.959769,239.314144L150.556455,238.485860L150.823082,237.563319L153.289856,237.321716L152.982483,236.234251L149.402967,234.070778L151.045760,233.588413L149.042479,231.879851L147.114107,230.159130L146.214767,228.770210L151.675655,229.696955L156.815419,230.589173L161.266928,231.298235L161.565863,230.446443L158.668064,228.311139L160.030862,227.866760L156.181573,225.257932L158.863190,225.366804L160.354461,224.997030L158.848085,223.313081L157.075367,221.474726L155.628049,219.748246L154.462858,218.121513L153.557144,216.590857L158.444333,217.874956L160.257711,217.706212L161.502339,217.273896L165.321944,218.190561L158.624332,213.624366L162.648274,214.679128L166.257530,215.575522L167.983925,215.485760L168.083650,214.500461L167.455618,213.089403L170.207033,213.635845L171.624961,213.433793L169.112273,210.870518L171.697381,211.386008L173.902466,211.706759L172.229326,209.595142L169.029759,206.451238L170.480785,206.286863L168.847718,204.082060L171.404881,204.675525L177.696740,207.888906L175.577251,205.335152L178.227465,206.118241L181.633765,207.495735L181.445154,206.298881L180.247346,204.333474L181.848757,204.448495L179.224173,201.338431L180.512470,201.209441L180.582443,200.132076L178.613479,197.401527L181.355110,198.459114L178.132392,194.621338L181.472531,196.216370L181.956433,195.438841L182.401691,194.625071L182.417630,193.429153L186.597047,195.941169L183.210645,191.681366L183.177647,190.402959L186.360186,192.113332L188.766050,193.157893L186.614759,189.863466L186.144132,188.132674L190.187039,190.847983L189.315406,188.714809L189.867989,187.992177L193.422222,190.380347L192.911254,188.578770L192.371616,186.710625L189.919775,182.730854L192.991287,184.729819L192.354361,182.664245L198.296070,188.015099L198.252889,186.656074L198.850933,186.022291L197.695537,183.306563L198.228920,182.558931L201.152771,184.727964L201.383520,183.638030L201.895161,182.885263L196.519415,174.593780L197.292265,174.050898L197.393360,172.622862L198.902634,173.054661L198.842792,171.382794L197.938280,168.508757L195.757329,163.770077L196.313397,162.801904L198.658172,164.412483L200.844827,165.860368L203.511312,168.090469L206.169290,170.397511L206.374403,169.008448L208.074202,169.936746L209.538732,170.536904L211.546100,172.054048L211.792230,170.732843L211.978132,169.281623L210.252064,164.534710L210.141267,162.443601L210.417982,160.980544L211.967369,161.769090L211.322810,158.591385L211.942956,157.670028L212.959575,157.483241L214.884803,159.058796L215.792240,158.709879L217.151498,159.268213L215.501366,153.730039L214.547881,149.444232L217.153975,152.545499L215.796298,147.230384L220.312004,154.647803L221.993326,156.016630L222.174722,154.021984L223.432585,154.477166L222.819297,150.502988L225.336135,154.002632L228.176207,158.473222L230.093334,160.807564L231.298736,161.410494L232.537355,162.143572L233.430732,161.986187L234.185424,161.450003L234.441999,159.483953L235.690016,160.329202L236.407679,159.645403L236.259123,156.287182L236.418154,153.737528L236.182393,149.795404L237.950823,152.294605L237.508886,147.424847L238.927766,148.806443L240.821032,151.990396L241.449143,150.689938L243.369805,154.259664L245.101708,157.323382L246.601122,159.653153L246.538114,155.595558L246.017864,149.293608L247.934915,153.506393L249.092193,154.504562L250.982123,159.126344L252.700015,163.257515L253.418407,162.524429L254.049202,161.268040L254.081746,156.527912L254.269061,152.289459L254.030038,145.022802L255.229732,146.411009L256.217938,146.511566L257.778823,150.769470L258.552807,149.529279L259.727240,151.393684L260.788076,152.535412L262.061240,155.805555L262.921633,155.490519L264.052728,158.031795L264.097085,148.410180L265.706449,156.871819L266.162398,150.924597L267.219401,153.027438L268.157525,153.590921L268.986316,152.106578L269.829914,150.464071L270.744508,150.205699L271.745778,153.068948L272.599077,150.476853L273.549447,152.847778L274.459544,154.100193L275.347318,156.619133L276.227894,156.229879Z" />
<line x1="50" y1="600" x2="100" y2="600" fill="none" stroke="red" stroke-width="1.0" stroke-linejoin="round" stroke-miterlimit="10" />
<text x="125" y="603" style="text-anchor:start;fill:black">n0_4mer:D</text>
<path style="stroke:black;stroke-width:1.0" d="M277.621463,97.964151L278.947727,97.288498L280.277105,96.860244L281.564921,97.741229L282.903273,97.207702L284.181234,98.007693L285.532890,97.381663L286.856026,97.339780L288.138745,97.868789L289.449878,97.970925L290.724723,98.481237L292.044467,98.465622L293.387293,98.248495L294.799390,97.457640L296.033598,98.279455L297.313225,98.663282L298.505264,99.675892L299.774687,100.052782L301.093309,100.080269L302.360610,100.451171L303.700891,100.362470L304.997371,100.555119L306.308041,100.671261L307.694564,100.391751L308.926686,100.945376L310.221918,101.164585L311.600680,100.989716L312.672300,102.254854L313.997106,102.331212L315.163562,103.099457L316.517389,103.061279L318.000998,102.524272L319.435657,102.229899L320.937892,101.717751L322.282194,101.833487L323.630679,101.947607L325.052958,101.820006L326.291104,102.339157L327.732281,102.185575L328.965523,102.723905L330.143958,103.425741L331.303223,104.171186L332.190406,105.706078L333.168362,106.925702L333.730507,109.281694L335.070994,109.403773L336.434638,109.478032L338.079982,108.827096L339.742833,108.179856L341.026910,108.535961L342.173099,109.237947L343.006540,110.687051L344.415914,110.734458L345.437141,111.700611L346.800416,111.871900L348.129162,112.134276L349.416311,112.498332L350.384723,113.552183L351.153570,115.006522L352.467039,115.304803L353.342641,116.499153L354.615248,116.882566L355.989153,117.075912L357.428205,117.159061L358.283561,118.358724L359.970654,118.001138L361.414248,118.119910L362.396166,119.080281L364.248044,118.504496L365.140818,119.623754L366.085459,120.639961L367.103632,121.522266L368.009546,122.581920L369.142103,123.264125L370.189624,124.081633L370.784871,125.600932L371.683651,126.628447L372.765751,127.369214L374.023651,127.848202L375.667897,127.770145L377.090462,128.036969L378.240663,128.704956L378.650919,130.408142L379.232975,131.846567L380.141371,132.823273L381.063549,133.775582L382.879574,133.550830L384.498021,133.612152L385.874158,134.004195L386.961864,134.770363L387.737279,135.923664L388.557375,137.013171L388.838521,138.740385L388.979063,140.607165L390.068872,141.341068L391.507792,141.678965L392.616156,142.404966L394.657019,142.099519L395.865448,142.739941L396.399318,144.115087L397.562164,144.808165L398.315483,145.936128L399.145859,146.978350L400.388494,147.598102L401.584565,148.273479L402.652892,149.082506L401.806628,151.756303L400.828544,154.505682L400.344198,156.736117L400.960021,157.905748L403.446100,157.355467L406.039957,156.751909L408.724444,156.113946L410.165281,156.613094L410.422892,158.147975L410.789048,159.574893L410.997749,161.121196L411.673239,162.266488L412.310125,163.439182L413.737541,163.974602L415.085974,164.586979L415.000974,166.324800L416.864495,166.551964L417.893286,167.432383L418.494986,168.634771L420.035949,169.147385L420.764953,170.260620L420.883262,171.804804L421.120102,173.252102L420.838252,175.043549L420.755584,176.678391L420.635917,178.320327L420.144115,180.187526L420.379400,181.562192L420.644577,182.908402L421.619677,183.804412L423.239995,184.311858L424.753663,184.902779L426.029947,185.651209L426.482029,186.891321L426.207756,188.542778L427.301480,189.407458L430.152562,189.310528L433.123186,189.191564L434.416090,190.011797L435.129580,191.148060L433.044451,193.725268L431.175598,196.142960L431.475154,197.440259L431.258192,198.983764L431.658790,200.218194L432.344046,201.316535L433.589647,202.160033L433.543269,203.598056L434.616545,204.531523L435.088030,205.735126L435.607994,206.917450L436.835073,207.806458L437.675576,208.865293L439.055188,209.715649L439.580660,210.913971L439.396409,212.383487L439.679789,213.667855L440.293847,214.828970L440.299013,216.209470L441.509196,217.164242L441.269841,218.623479L441.291026,219.985678L441.765184,221.195386L442.361724,222.367846L443.165191,223.480278L443.829557,224.641036L444.569980,225.784421L443.377655,227.479316L443.736943,228.723994L444.111191,229.964953L444.076877,231.312127L445.984329,232.167223L446.746293,233.325303L447.463945,234.500898L449.002592,235.496633L449.827614,236.668238L450.816030,237.813684L450.804796,239.173874L450.758538,240.536668L450.591185,241.917640L450.130090,243.345384L448.610458,244.945740L449.173569,246.174835L449.073505,247.513966L449.531858,248.764548L451.614865,249.787201L451.140094,251.184342L451.621621,252.449567L452.019578,253.729569L452.333713,255.022625L452.153508,256.370160L452.348801,257.676253L451.774950,259.052733L450.779330,260.453786L451.218803,261.730323L451.150075,263.046428L451.857692,264.313283L451.694772,265.635616L451.996547,266.933320L451.664155,268.258815L451.046955,269.587397L450.619773,270.901802L448.770306,272.232083L448.811039,273.518555L448.317181,274.806066L448.826420,276.092547L449.301082,277.386216L448.103751,278.651904L448.409372,279.943096L448.380513,281.227346L448.529490,282.519558L449.829977,283.873249L450.745443,285.224824L451.288657,286.566702L452.195651,287.944507L452.182181,289.263145L450.739196,290.457420L450.433255,291.740371L450.068218,293.014520L449.109916,294.219713L449.658113,295.590275L449.873005,296.929560L449.854554,298.243501L449.467204,299.507937L448.984160,300.755098L448.306935,301.967619L447.584304,303.165487L447.605173,304.482536L447.332922,305.750926L448.120633,307.215883L448.883769,308.691801L449.462910,310.146211L449.430400,311.485617L447.591643,312.436902L446.529087,313.538367L446.214690,314.801664L446.656793,316.246429L447.511523,317.805288L447.504746,319.162016L447.898301,320.629447L447.664292,321.937865L446.698031,323.043195L445.628791,324.109137L444.193579,325.055492L443.016916,326.063280L442.717773,327.331957L443.397264,328.915397L443.777380,330.418149L445.068611,332.240524L444.604680,333.485930L442.398781,334.115661L441.486217,335.183473L439.558678,335.868040L439.407507,337.199793L440.563162,339.042283L439.956564,340.215810L439.840111,341.585208L439.007448,342.665600L438.928228,344.057646L438.722515,345.402833L438.253998,346.638235L438.540654,348.212801L438.062331,349.452817L437.393272,350.605338L436.862915,351.821719L435.749488,352.756759L434.922668,353.823237L434.893283,355.285647L434.027329,356.330692L432.899658,357.234506L432.109740,358.307648L430.135466,358.738221L429.259199,359.746113L428.714801,360.934741L426.639926,361.254601L424.969180,361.780163L423.212830,362.235014L422.047993,363.021799L422.833883,364.985661L422.960849,366.571195L423.400422,368.369900L424.337467,370.510146L423.982585,371.844894L424.492303,373.758448L423.974962,375.008922L422.424841,375.559721L421.665972,376.641389L420.776501,377.630971L419.910930,378.634776L419.888119,380.248573L419.597815,381.682132L419.184147,383.034683L419.414984,384.886575L418.221498,385.662363L416.985119,386.395652L416.019548,387.334817L414.406316,387.746938L413.712636,388.895022L412.999987,390.031003L411.896378,390.839651L410.864240,391.703441L409.949320,392.665113L408.718676,393.346216L407.717866,394.224427L407.080905,395.431238L406.451687,396.652123L405.574698,397.647744L404.500151,398.455895L403.465726,399.298331L402.238615,399.948279L401.079776,400.657486L400.638136,402.085410L399.545449,402.859922L398.699229,403.886797L398.067952,405.144313L395.839717,404.698227L395.155093,405.893296L394.140727,406.732986L392.945863,407.368824L393.216175,409.666536L392.085010,410.386832L391.006419,411.164382L390.003104,412.029146L388.802167,412.655272L387.858778,413.591038L387.064208,414.715419L386.383156,415.992571L385.221031,416.665393L384.868634,418.390554L383.826537,419.230038L382.681106,419.931495L382.114377,421.421005L380.318612,421.226080L379.225824,421.991662L377.798328,422.277516L376.379410,422.560619L375.641222,423.835361L374.418734,424.399505L373.255054,425.047845L372.378380,426.139040L370.774768,426.095647L369.693107,426.864279L369.017075,428.296561L367.924676,429.063405L367.151321,430.370852L366.092881,431.210882L364.933786,431.881059L363.763624,432.531744L362.631151,433.250259L361.307675,433.620218L359.989426,433.990295L358.815732,434.626274L357.322145,434.642470L356.375068,435.716055L354.832318,435.608880L352.906450,434.689970L351.333290,434.450544L349.868945,434.411619L348.796438,435.200034L348.045723,436.710456L347.271601,438.207059L345.553558,437.567943L344.245225,437.844273L343.085682,438.467912L341.807390,438.805482L340.894026,440.050319L339.492754,440.079546L338.295502,440.622597L337.229407,441.519993L336.320773,442.868620L335.403968,444.236421L333.815948,443.722823L332.436215,443.774956L331.149559,444.088812L330.000074,444.821033L329.181556,446.618424L327.935122,447.098528L326.619985,447.354011L325.268989,447.479439L323.782606,447.113213L322.463770,447.313000L321.012198,447.007548L319.536350,446.569078L318.298383,447.027484L316.872452,446.723922L315.637176,447.187417L314.372299,447.532331L312.862345,446.769187L311.662331,447.387201L310.410057,447.776397L309.311280,448.953733L308.278492,450.554119L307.103055,451.484489L305.881319,452.209983L304.564286,452.409110L303.208688,452.363869L301.801091,451.949838L300.451033,451.871195L299.081655,451.621244L297.639116,450.753180L296.245381,450.158937L294.933774,450.187224L293.597808,449.969499L292.395236,451.047917L291.217509,452.553808L289.951554,453.254534L288.703736,454.307707L287.370590,454.329424L285.990259,453.567600L284.634050,453.019914L283.311048,452.986462L282.003297,453.305449L280.698445,453.839728L279.377813,454.026992L278.028086,452.642027L276.710919,452.472063L275.397246,452.654888L274.083350,452.365427L272.764961,452.766298L271.446579,452.857368L270.142128,452.376296L268.819388,452.610334L267.478153,453.184225L266.157829,453.148621L264.789905,453.939477L263.455648,454.008684L262.141333,453.768669L260.836863,453.431778L259.572364,452.674377L258.259619,452.530387L256.973475,452.127953L255.600040,452.561298L254.271396,452.536964L252.969800,452.279372L251.502631,453.288866L250.176309,453.159530L248.787024,453.453235L247.508446,452.982449L246.327390,451.934862L245.022318,451.693067L243.741079,451.318551L242.441006,451.057688L241.140717,450.799517L239.948040,450.004645L238.637978,449.813758L237.181180,450.297404L235.900662,449.939382L234.572663,449.791253L233.451128,448.769763L232.318517,447.838383L230.972065,447.784147L229.614551,447.755706L228.382422,447.245989L227.145284,446.763636L226.022950,445.887845L224.882688,445.100815L223.592024,444.832768L222.180142,444.948891L220.710548,445.220136L219.537221,444.552103L218.176049,444.456833L217.081364,443.570356L215.805795,443.219450L214.443274,443.105889L213.087844,442.957894L211.841557,442.506585L210.558085,442.151011L209.542252,441.111004L208.514929,440.123133L207.422553,439.314174L206.299781,438.590319L205.262830,437.675014L204.280753,436.650263L202.917673,436.498951L201.951807,435.460188L199.928797,436.717893L198.364494,436.937332L197.325102,436.038933L196.686327,434.337443L195.894942,432.981918L194.892118,432.068921L193.178187,432.536553L191.938042,432.070088L190.409954,432.133272L189.272874,431.458799L188.463821,430.197403L187.064173,429.998242L186.412656,428.487534L184.962187,428.366468L183.765028,427.802955L182.402588,427.507954L182.464600,424.892744L182.739630,422.001019L182.164772,420.512897L181.511640,419.171215L180.054628,419.070069L178.378363,419.277227L178.086412,417.420962L177.013244,416.730352L176.857533,414.732405L177.292339,411.946198L176.405770,411.046921L176.549848,408.752621L175.487380,408.120152L173.929984,408.136464L173.328632,406.889428L172.316370,406.182251L170.507835,406.475376L167.401871,408.344435L164.151704,410.309953L161.777955,411.138751L159.547227,411.748678L158.497217,410.937570L157.912392,409.590220L157.076309,408.541558L157.976561,405.560860L158.670412,402.869102L159.211034,400.396943L159.012409,398.760845L157.539204,398.487456L157.791631,396.409163L157.289640,395.136181L156.764792,393.897902L156.473823,392.438480L155.366019,391.793477L153.954946,391.433161L153.232291,390.404747L152.180143,389.687716L150.911144,389.164565L150.652806,387.713723L149.448692,387.123045L148.847228,385.992189L148.435103,384.703008L147.464700,383.900911L146.231370,383.315780L145.423294,382.367374L144.719056,381.333891L143.993782,380.319368L144.236897,378.539396L143.454150,377.583754L141.706722,377.368429L139.925411,377.155433L136.686142,378.004340L134.062178,378.345049L132.013581,378.228047L130.315711,377.832839L129.271481,376.959437L128.623521,375.806749L127.963939,374.664088L127.406848,373.454752L127.173128,372.036827L126.941785,370.627638L126.775936,369.186837L126.029628,368.119925L125.546587,366.889975L125.127071,365.625640L124.062598,364.749893L123.790748,363.402732L123.183708,362.255825L122.128202,361.363042L120.968316,360.520084L119.527223,359.820339L118.749208,358.749564L117.447558,357.951473L116.948745,356.725248L116.047007,355.705596L115.688775,354.409365L115.172566,353.194672L115.195298,351.722384L114.654239,350.526420L113.622777,349.557354L113.063785,348.365620L112.068007,347.367605L112.293186,345.829927L113.130118,344.044513L113.996030,342.270588L113.687495,341.000913L113.261267,339.781492L111.505721,339.084035L109.273121,338.547618L108.280397,337.516343L107.376053,336.443722L106.607941,335.314757L106.862197,333.822746L106.667887,332.495412L106.045179,331.314694L105.811187,330.004218L105.527743,328.712252L104.991359,327.500258L104.583359,326.247262L104.352570,324.941942L103.049605,323.944041L102.776276,322.646231L102.367853,321.385987L101.629939,320.210636L101.639309,318.839932L101.270897,317.567055L101.264591,316.207455L101.597876,314.774635L102.394422,313.248943L103.741902,311.622213L104.001943,310.244683L103.598525,309.006829L102.160253,307.964009L100.297689,306.980530L99.708599,305.748784L99.325457,304.476963L99.358907,303.135899L100.168797,301.680018L98.652232,300.576824L98.158066,299.312999L97.487005,298.067421L95.670692,296.954518L96.568739,295.504831L96.322371,294.193832L96.769817,292.811932L98.136636,291.353688L98.369186,290.014082L98.886069,288.657552L99.350968,287.313874L98.441122,286.064623L97.590121,284.799814L97.897044,283.468076L97.239615,282.180780L96.866456,280.875146L97.602682,279.536256L97.048979,278.232204L97.204937,276.912669L97.470682,275.595285L96.258499,274.275915L96.068747,272.950228L96.263820,271.628763L96.406155,270.308433L97.520312,269.022429L97.594417,267.709546L97.016429,266.365326L96.985383,265.042172L98.012208,263.784498L98.112570,262.475256L98.434495,261.183466L99.164428,259.929917L98.421940,258.548408L99.506371,257.337854L99.902965,256.067192L99.501516,254.708098L99.433228,253.381749L98.978293,252.001448L98.546592,250.614942L98.348481,249.253241L99.161813,248.040734L99.144070,246.703804L99.974786,245.506397L101.650777,244.467196L101.242223,243.067039L101.434305,241.771995L101.513434,240.453631L100.378337,238.881397L100.638325,237.586851L101.005539,236.315882L100.687571,234.888498L100.892041,233.575826L100.924294,232.219229L101.839595,231.082128L102.423503,229.867662L103.619442,228.822057L104.375630,227.668029L104.706714,226.399148L106.342784,225.512715L106.378671,224.164281L107.583710,223.172285L107.590765,221.813010L106.848066,220.203102L106.535098,218.717949L105.560766,216.994373L105.546588,215.584233L105.944086,214.314320L106.480186,213.094456L109.096436,212.657566L111.219671,212.067650L111.922840,210.948139L112.714810,209.868181L111.211934,207.852743L110.272111,206.038425L110.890685,204.864873L111.288420,203.596740L111.924378,202.432307L112.170167,201.092529L112.075169,199.589632L112.050065,198.107969L112.928034,197.049884L114.171948,196.176638L115.129067,195.172314L116.404229,194.336522L116.672790,192.991982L116.930469,191.635343L117.838417,190.621022L118.961141,189.729472L120.765817,189.226622L121.938257,188.388693L122.594564,187.264023L122.741308,185.841097L122.267077,184.038132L122.602567,182.702538L123.077220,181.445600L124.261496,180.628476L125.512798,179.864015L126.063837,178.657957L126.666334,177.482319L127.070179,176.171430L127.609443,174.945445L128.446915,173.920778L129.230046,172.859979L129.725486,171.594999L130.292467,170.375714L131.111386,169.336754L131.757370,168.169652L132.532345,167.096904L133.414450,166.105992L134.411797,165.206866L135.757535,164.588392L136.734655,163.685892L137.572303,162.673127L137.859364,161.203644L138.189365,159.756440L139.169907,158.852263L140.250742,158.038231L141.692619,157.547877L143.274119,157.197441L143.677855,155.796834L144.904233,155.141201L146.617060,154.949725L148.071647,154.536031L150.245600,154.831099L151.165578,153.936920L150.743039,151.711369L151.183598,150.315719L151.716725,149.000282L152.115061,147.532923L153.174133,146.744402L153.264298,144.924009L153.662927,143.410455L154.548082,142.413887L155.683139,141.693360L158.236155,142.585775L159.687092,142.262822L161.193284,142.020552L162.172936,141.172005L162.208445,139.186203L163.296270,138.451571L163.847560,137.053907L165.027402,136.430555L166.549122,136.250489L167.587032,135.461220L168.879906,135.008481L169.926801,134.236615L169.868740,131.961569L170.681503,130.842741L171.352754,129.514305L172.167189,128.372173L173.887752,128.530460L174.665857,127.330849L175.852300,126.727114L176.842890,125.829986L177.576351,124.530142L178.941626,124.203063L180.087325,123.538346L181.263838,122.924895L182.372942,122.202962L183.135520,120.898511L184.114653,119.942143L185.152854,119.078496L186.278965,118.363146L187.313456,117.481156L188.236158,116.386553L189.158440,115.274978L190.104113,114.190503L191.763201,114.465307L193.016488,113.975963L194.484856,113.921302L195.861420,113.699952L196.304025,111.552736L197.772668,111.517127L199.316349,111.664422L200.962205,112.064588L202.547089,112.365923L203.242955,110.665324L204.387903,109.966128L205.225162,108.525451L206.948606,109.204617L208.975107,110.688917L210.559507,111.135309L212.313216,112.062818L213.481712,111.497840L214.624930,110.859107L215.820754,110.357761L216.560989,108.555811L218.026036,108.801768L219.845164,110.139123L221.614184,111.411017L222.637355,110.424573L223.661110,109.408522L223.981569,106.028993L224.500876,103.161054L226.080368,103.861656L227.355524,103.528233L228.887026,104.145744L230.232511,104.111340L231.499012,103.784562L232.561677,102.629575L233.723136,101.833649L234.801376,100.643493L236.172259,100.704510L237.458566,100.397359L238.749829,100.111944L240.226759,100.755565L241.659180,101.239533L243.105169,101.858066L244.522771,102.389950L245.755810,101.897834L246.759505,99.958177L248.065802,99.815662L249.287674,99.101497L250.621643,99.138839L252.112885,100.401041L253.311209,99.467121L254.644609,99.596966L255.881804,98.879348L257.154912,98.431668L258.472047,98.403959L259.712447,97.501732L261.080025,98.066411L262.353133,97.444458L263.695174,97.779877L265.086423,99.098990L266.380525,98.855598L267.667318,98.371919L268.956967,97.785214L270.243229,96.770554L271.563225,96.752719L272.886872,97.051806L274.208218,97.878739L275.517935,98.465376L276.831589,97.836424Z" />
<line x1="50" y1="550" x2="100" y2="550" fill="none" stroke="black" stroke-width="1.0" stroke-linejoin="round" stroke-miterlimit="10" />
<text x="125" y="553" style="text-anchor:start;fill:black">GC-content</text>
</g>
<g style="fill:pink;stroke:black">
<a href="" title="CP024808:1 [66000-88099];"><path  d="M330.639975,51.831469L334.526329,52.836510L338.394550,53.909225L342.243461,55.049285L346.071889,56.256345L339.891724,75.277532L339.891724,75.277532L336.396203,74.175434L332.881981,73.134509L329.350126,72.155075L325.801716,71.237428Z" />
</a><a href="" title="CP024808:2 [196000-214099];"><path  d="M427.625524,102.937659L430.605181,105.627547L433.537438,108.369028L436.421404,111.161267L422.384760,125.408113L422.384760,125.408113L419.751574,122.858678L417.074295,120.355587L414.353740,117.899601Z" />
</a><a href="" title="CP024808:3 [234000-256099];"><path  d="M450.243506,126.037879L452.816563,129.118988L455.335456,132.244533L457.799416,135.413563L460.207694,138.625112L444.102677,150.483798L444.102677,150.483798L441.903815,147.551514L439.654112,144.658052L437.354254,141.804293L435.004941,138.991107Z" />
</a><a href="" title="CP024808:4 [286000-304099];"><path  d="M475.505906,162.317341L477.441952,165.833814L479.316331,169.383540L481.128474,172.965437L463.204259,181.838008L463.204259,181.838008L461.549694,178.567580L459.838304,175.326526L458.070610,172.115833Z" />
</a><a href="" title="CP024808:5 [366000-388099];"><path  d="M499.663402,225.741947L500.488856,229.670367L501.245624,233.612594L501.933476,237.567428L502.552201,241.533664L482.765053,244.443780L482.765053,244.443780L482.200130,240.822434L481.572092,237.211499L480.881130,233.612074L480.127454,230.025256Z" />
</a><a href="" title="CP024808:6 [466000-488099];"><path  d="M502.264977,310.364251L501.613172,314.325186L500.892339,318.274142L500.102696,322.209916L499.244485,326.131309L479.744965,321.685108L479.744965,321.685108L480.528549,318.104706L481.249527,314.511173L481.907679,310.905604L482.502805,307.289099Z" />
</a><a href="" title="CP024808:7 [500000-522599];"><path  d="M496.027458,338.614957L494.883560,342.462729L493.672684,346.289952L492.395198,350.095459L491.051491,353.878091L472.264405,347.019126L472.264405,347.019126L473.491268,343.565419L474.657668,340.090826L475.763251,336.596405L476.807679,333.083222Z" />
</a><a href="" title="CP024808:8 [753000-770599];"><path  d="M354.715242,490.744015L350.937849,492.102379L347.137324,493.394612L343.314826,494.620319L337.374406,475.522900L337.374406,475.522900L340.864513,474.403776L344.334557,473.223912L347.783482,471.983666Z" />
</a><a href="" title="CP024808:9 [821000-841599];"><path  d="M298.462857,503.800119L294.466171,504.174755L290.463555,504.479582L286.456229,504.714507L282.445414,504.879459L281.797986,484.889941L281.797986,484.889941L285.460036,484.739333L289.118898,484.524836L292.773461,484.246515L296.422609,483.904456Z" />
</a><a href="" title="CP024808:10 [856000-875099];"><path  d="M268.702838,504.913779L264.691248,504.768861L260.682799,504.553954L256.678710,504.269122L252.680203,503.914453L254.621055,484.008848L254.621055,484.008848L258.271866,484.332677L261.927773,484.592741L265.587661,484.788960L269.250417,484.921276Z" />
</a><a href="" title="CP024808:11 [898000-917599];"><path  d="M233.174051,501.164962L229.233298,500.400552L225.306487,499.567484L221.394812,498.666010L217.499466,497.696405L222.499513,478.331500L222.499513,478.331500L226.056133,479.216791L229.627662,480.039876L233.213011,480.800504L236.811090,481.498443Z" />
</a><a href="" title="CP024808:12 [1054000-1075099];"><path  d="M116.482567,441.650003L113.598266,438.858111L110.763130,436.016305L107.978022,433.125453L105.243791,430.186435L120.005200,416.691962L120.005200,416.691962L122.501673,419.375414L125.044597,422.014888L127.633200,424.609579L130.266692,427.158698Z" />
</a><a href="" title="CP024808:13 [1153500-1171599];"><path  d="M67.108093,373.391844L65.422581,369.748644L63.800909,366.076583L62.243570,362.376779L80.744129,354.778798L80.744129,354.778798L82.166047,358.156880L83.646705,361.509631L85.185650,364.836031Z" />
</a><a href="" title="CP024808:14 [1354500-1372099];"><path  d="M55.413760,206.575712L56.641372,202.753825L57.935499,198.953945L59.295746,195.177230L78.052637,202.118340L78.052637,202.118340L76.810673,205.566646L75.629079,209.036101L74.508216,212.525650Z" />
</a><a href="" title="CP024808:15 [1384000-1406099];"><path  d="M64.179821,183.049730L65.816684,179.384415L67.517265,175.748225L69.281048,172.142269L71.107495,168.567644L88.837278,177.822631L88.837278,177.822631L87.169653,181.086419L85.559242,184.378814L84.006537,187.698814L82.512011,191.045406Z" />
</a><a href="" title="CP024808:16 [1567500-1588099];"><path  d="M168.753077,71.010806L172.329361,69.187610L175.936920,67.427106L179.574654,65.729832L183.241456,64.096303L191.220460,82.435754L191.220460,82.435754L187.872510,83.927238L184.551101,85.476923L181.257243,87.084339L177.991940,88.748997Z" />
</a></g>
<text x="275" y="280" style="text-anchor:middle" font-size="25" font-weight="bold">CP024808</text>
<path  style="fill:pink;stroke:black" d="M350,550L375,550L375,565L350,565Z" />
<text x="405" y="565" style="text-anchor:start;fill:black">Selected loci;</text>
</svg>