<svg xmlns="http://www.w3.org/2000/svg" viewbox="0 0 550 650">
<circle cx="275" cy="275" r="240" fill="none" stroke="black" stroke-width="1.0" />
<line x1="275" y1="15" x2="275" y2="55" fill="none" stroke="grey" stroke-width="1.0" stroke-linejoin="round" stroke-miterlimit="10" />
<line x1="495" y1="275" x2="535" y2="275" fill="none" stroke="grey" stroke-width="1.0" stroke-linejoin="round" stroke-miterlimit="10" />
<line x1="275" y1="495" x2="275" y2="535" fill="none" stroke="grey" stroke-width="1.0" stroke-linejoin="round" stroke-miterlimit="10" />
<line x1="15" y1="275" x2="55" y2="275" fill="none" stroke="grey" stroke-width="1.0" stroke-linejoin="round" stroke-miterlimit="10" />
<text x="275" y="10" style="text-anchor:middle" font-size="15">Candidatus Nitrosotalea devanaterra genome assembly, chromosome: 1.</text><text x="285" y="25" style="text-anchor:start">1,805,304</text><text x="525" y="265" style="text-anchor:start">0.45 Mbp</text><text x="285" y="530" style="text-anchor:start">0.9 Mbp</text><text x="-200" y="25" style="text-anchor:end" transform="rotate(-90)">1.35 Mbp</text><circle cx="356.853501" cy="49.389707" r="2.500000" fill="grey" stroke="black" stroke-width="1.0" />
<circle cx="428.891603" cy="90.833297" r="2.500000" fill="grey" stroke="black" stroke-width="1.0" />
<circle cx="482.475913" cy="154.361094" r="2.500000" fill="grey" stroke="black" stroke-width="1.0" />
<circle cx="511.180910" cy="232.355212" r="2.500000" fill="grey" stroke="black" stroke-width="1.0" />
<circle cx="511.564456" cy="315.463046" r="2.500000" fill="grey" stroke="black" stroke-width="1.0" />
<circle cx="483.580560" cy="393.718786" r="2.500000" fill="grey" stroke="black" stroke-width="1.0" />
<circle cx="430.584887" cy="457.738455" r="2.500000" fill="grey" stroke="black" stroke-width="1.0" />
<circle cx="358.932374" cy="499.845184" r="2.500000" fill="grey" stroke="black" stroke-width="1.0" />
<circle cx="277.215175" cy="514.989777" r="2.500000" fill="grey" stroke="black" stroke-width="1.0" />
<circle cx="195.232346" cy="501.356182" r="3.000000" fill="black" stroke="black" stroke-width="1.0" />
<circle cx="122.814792" cy="460.579262" r="2.500000" fill="grey" stroke="black" stroke-width="1.0" />
<circle cx="68.646410" cy="397.548749" r="2.500000" fill="grey" stroke="black" stroke-width="1.0" />
<circle cx="39.222758" cy="319.822897" r="2.500000" fill="grey" stroke="black" stroke-width="1.0" />
<circle cx="38.072151" cy="236.722143" r="2.500000" fill="grey" stroke="black" stroke-width="1.0" />
<circle cx="65.332563" cy="158.211448" r="2.500000" fill="grey" stroke="black" stroke-width="1.0" />
<circle cx="117.735083" cy="93.705362" r="2.500000" fill="grey" stroke="black" stroke-width="1.0" />
<circle cx="188.995903" cy="50.939081" r="2.500000" fill="grey" stroke="black" stroke-width="1.0" />
<circle cx="270.569838" cy="35.040892" r="2.500000" fill="grey" stroke="black" stroke-width="1.0" />

<circle cx="275" cy="275" r="185" fill="white" stroke="grey" stroke-width="0.5" />
<circle cx="275" cy="275" r="170" fill="none" stroke="black" stroke-width="0.5" />
<circle cx="275" cy="275" r="170" fill="aliceblue" stroke="black" stroke-width="0.5" />
<circle cx="275" cy="275" r="164" fill="white" stroke="none" stroke-width="0.5" />
<circle cx="275" cy="275" r="140" fill="none" stroke="black" stroke-width="0.5" />
<circle cx="275" cy="275" r="140" fill="aliceblue" stroke="black" stroke-width="0.5" />
<circle cx="275" cy="275" r="133" fill="white" stroke="none" stroke-width="0.5" />
<circle cx="275" cy="275" r="110" fill="none" stroke="black" stroke-width="0.5" />
<circle cx="275" cy="275" r="110" fill="white" stroke="black" stroke-width="0.5" />
<circle cx="275" cy="275" r="109" fill="aliceblue" stroke="none" stroke-width="0.5" />
<circle cx="275" cy="275" r="80" fill="none" stroke="black" stroke-width="0.5" />

<g style="fill:none;stroke-linejoin:round;stroke-miterlimit:10">
<path style="stroke:blue;stroke-width:1.0" d="M277.122836,122.505870L278.211257,121.231522L279.306216,120.370915L280.326079,122.023599L281.402586,121.781864L282.404695,123.147734L283.389632,124.492629L284.465757,124.097401L285.906942,118.558431L286.987797,118.740220L287.878760,121.173672L288.964803,121.095027L289.806912,123.536884L290.739229,124.804216L291.753938,125.189113L292.978407,123.777835L294.076918,123.538829L294.911552,125.322945L296.192568,123.754973L296.903249,126.226298L298.031022,125.781584L299.246587,124.846603L300.196037,125.583228L301.283536,125.488863L302.515556,124.626441L303.828953,123.415869L304.374211,126.199570L305.297103,126.955696L306.214279,127.701478L307.365252,127.345570L308.284869,128.048532L309.396879,127.899215L310.295526,128.658204L312.156506,125.515201L313.010262,126.503606L315.492174,121.269891L317.103666,119.552937L317.033315,123.986282L318.346819,123.361244L317.857122,128.929640L318.789973,129.506833L320.180002,128.589089L322.304845,125.407046L324.149116,123.257254L324.323672,126.258294L325.087104,127.403007L325.104409,130.661525L325.948413,131.463106L327.234991,131.025516L329.097932,129.067197L330.123174,129.418902L331.756342,128.199521L331.903613,130.810753L332.795968,131.483315L333.058541,133.678205L333.415553,135.578146L334.064110,136.738409L335.648053,135.722245L336.403749,136.626223L337.192050,137.440519L338.260403,137.632808L339.017782,138.497101L340.449932,137.933383L343.195209,134.704060L345.473712,132.547121L349.361455,127.284643L350.079403,128.408099L346.494451,137.770461L346.278274,140.478910L348.164078,139.213032L349.528193,138.957646L349.372672,141.456086L350.373475,141.847983L352.294419,140.644708L357.682704,133.565498L360.856126,130.455883L359.655144,134.711153L358.972860,138.006635L357.267049,142.862708L356.631680,145.894944L357.276271,146.858920L359.596891,145.240307L359.154345,147.862358L358.880243,150.173068L360.648673,149.438246L362.458434,148.682948L363.737933,148.722214L364.088791,150.080480L364.218780,151.722510L365.140642,152.256765L365.808463,153.134623L366.468788,154.015359L367.305035,154.659780L370.287540,152.545992L371.462558,152.800576L370.417617,155.839285L371.129797,156.647880L372.992069,156.056575L375.590321,154.620115L376.112512,155.692900L376.181364,157.282843L380.945553,153.461813L379.191211,157.140771L384.205010,153.188570L390.424755,148.040070L385.848625,154.765714L390.282821,151.689575L388.493798,155.284554L381.786030,163.918979L380.188198,167.094614L382.854415,165.889419L385.620175,164.638629L385.575572,166.208353L385.736795,167.556401L387.676591,167.186786L388.904486,167.520632L387.164352,170.628913L386.358956,172.815387L387.506072,173.196188L387.783476,174.364129L388.500678,175.134526L390.036343,175.195376L390.437493,176.247283L390.937407,177.208984L391.318019,178.265591L391.525941,179.456898L395.643922,177.476845L400.620783,174.891509L410.473233,168.573381L411.127803,169.583196L404.253697,176.338037L397.887106,182.544447L398.912370,183.116825L397.731269,185.309903L398.022300,186.404251L402.938791,184.209293L401.856444,186.298573L399.556079,189.191725L399.680071,190.379986L400.763501,190.917331L403.004234,190.702567L406.042311,190.003644L404.862148,192.047606L405.717760,192.776582L408.990530,192.014014L415.383063,189.401077L417.561601,189.428272L408.901674,195.888964L404.848528,199.497996L412.138267,196.531500L416.527622,195.322488L420.182549,194.590547L415.811294,198.287496L410.672033,202.307381L413.793385,201.873834L410.972965,204.564650L409.777641,206.369485L411.791976,206.538625L418.917412,204.220877L422.526745,203.716747L425.650806,203.496402L421.277428,206.815642L417.961446,209.568769L416.875618,211.256401L414.212729,213.613849L414.647383,214.579718L414.780435,215.673826L415.292499,216.605578L414.980126,217.875498L416.173552,218.531579L416.767476,219.435555L416.958952,220.497370L417.876321,221.283272L418.913169,222.033836L418.949708,223.155232L423.185561,222.792046L423.443887,223.859758L424.454434,224.672646L421.427220,226.824224L427.670785,225.945114L427.778220,227.081247L422.229557,229.944801L424.079966,230.511042L421.367489,232.427796L419.887311,233.949979L420.762703,234.795891L420.580775,235.934451L420.529914,237.032041L422.110314,237.711465L422.163176,238.786352L421.946282,239.922691L422.523281,240.868568L423.100335,241.819411L424.910006,242.508153L423.519375,243.890329L427.760401,244.110373L432.899573,244.213642L433.649914,245.212122L440.507920,245.115618L437.956830,246.746088L435.427950,248.333462L436.600922,249.293124L428.314230,251.704344L431.042759,252.399857L427.736975,253.963042L425.985851,255.274142L430.614246,255.770162L426.122550,257.392316L429.299659,258.109908L429.220504,259.204125L426.573448,260.540646L426.429335,261.617367L426.176633,262.699595L425.516377,263.807388L426.077618,264.822560L426.529049,265.851221L427.226535,266.872162L427.526098,267.920520L425.388994,269.068475L426.255260,270.088532L428.512536,271.084709L428.066049,272.162080L429.097728,273.215845L426.845255,274.298963L429.104697,275.361230L427.271946,276.416910L429.110436,277.506930L430.062766,278.602208L425.767303,279.552637L429.106977,280.727413L429.653076,281.826002L426.485910,282.743072L425.022986,283.715694L430.626571,285.128638L430.708111,286.222901L431.257843,287.356421L436.925539,288.939430L435.700536,289.961564L440.026241,291.523739L432.075915,291.832814L429.357136,292.629078L425.489811,293.249448L426.570182,294.451949L426.717465,295.545297L425.747985,296.483608L424.340407,297.344722L424.262485,298.396434L424.949535,299.574727L425.021912,300.660152L424.385267,301.622815L426.142034,303.022750L427.711760,304.414764L439.477379,307.869998L434.905966,308.115584L428.398637,307.883153L423.355020,307.883738L426.763223,309.749213L425.226210,310.499576L429.813782,312.723351L427.967180,313.403321L425.545776,313.911351L421.685486,314.004830L420.898234,314.884904L420.801290,315.951241L419.041296,316.540788L418.717076,317.533072L418.604822,318.589269L419.264477,319.888556L419.958612,321.213680L419.880033,322.302099L419.927158,323.436391L420.329837,324.698219L419.061265,325.387149L417.628985,326.003196L416.295234,326.638337L417.029347,328.030191L416.036040,328.780833L415.114012,329.549356L414.979956,330.622293L415.606086,332.007520L416.160593,333.379710L417.039848,334.904525L415.914308,335.588599L416.113392,336.841568L416.357041,338.124886L412.755395,337.670236L412.740770,338.824503L412.483230,339.871417L411.447520,340.547811L410.355124,341.186556L410.358297,342.359603L409.962119,343.338636L410.026677,344.556400L413.730120,347.690499L419.261753,351.873488L423.849574,355.653521L423.469758,356.789695L418.338478,355.268522L415.111423,354.747560L409.783070,352.961905L408.966993,353.739432L407.388860,354.056874L406.722744,354.908169L408.604588,357.327429L406.203287,357.113248L406.140367,358.349839L404.286019,358.440364L403.321000,359.088549L403.055991,360.194891L402.436813,361.068622L401.242748,361.547822L400.181882,362.107602L399.761423,363.110263L398.660851,363.629503L399.116804,365.270617L399.194623,366.655749L398.111398,367.186876L397.766380,368.269246L399.099501,370.651751L399.113167,372.046906L400.237132,374.338213L399.117022,374.865104L399.002836,376.203221L395.344442,374.621134L392.212928,373.411850L390.033631,372.955343L389.232840,373.653370L389.231470,375.048793L389.269105,376.495960L389.142108,377.813370L387.836643,378.069168L386.191210,377.995041L386.023692,379.285109L386.215133,380.931716L385.351873,381.584295L383.963294,381.719110L382.911575,382.170859L382.307048,383.064502L381.475813,383.730777L381.196291,384.966236L381.018370,386.322399L381.382939,388.273667L380.590499,389.009923L379.260791,389.157946L378.620991,390.055629L377.319864,390.213655L377.797505,392.387141L376.718826,392.799800L375.052619,392.513962L373.887212,392.796587L375.286092,396.165753L375.828835,398.562540L376.381053,401.019971L371.216786,396.320115L370.647716,397.342171L368.759997,396.663512L368.562686,398.171310L369.909537,401.766698L367.349447,400.153736L365.830330,399.905567L364.528733,399.934792L363.290345,400.035806L362.043997,400.109979L361.295057,400.893781L360.737813,401.967009L360.184185,403.060192L359.471432,403.925842L358.645930,404.625325L359.185504,407.476567L363.468520,416.380929L363.227305,418.202601L356.120164,408.742672L353.235701,406.035477L354.063240,409.540427L354.835770,413.045948L351.727765,409.828756L348.804810,406.818586L347.736156,407.058045L347.004844,407.911255L346.986841,410.115203L345.301539,409.194637L346.236055,413.312145L345.340718,413.941230L343.953621,413.586850L344.448576,417.052441L342.179611,414.870545L343.419344,420.029883L343.018905,421.820911L343.523108,425.649800L344.067083,429.693910L341.846386,427.563983L339.384362,424.772492L336.735994,421.412335L333.398987,416.236433L331.946210,415.484354L331.054101,416.096701L329.821976,415.844703L328.982933,416.597117L328.197633,417.509588L326.906403,417.060932L326.182597,418.163675L325.349121,418.986307L324.319763,419.257574L323.792258,421.027453L322.894690,421.731411L321.198491,419.947575L320.299599,420.623017L320.345549,424.430178L319.754479,426.263724L319.525538,429.433211L318.660968,430.492557L318.390355,433.766727L318.023805,436.847281L318.622604,443.824270L318.328878,447.639966L314.614352,437.625982L311.160488,428.073029L308.760726,422.495668L308.295900,425.266471L307.740150,427.786022L306.226113,425.837755L305.474435,427.548294L304.165049,426.474931L303.319193,427.803222L302.356275,428.565817L300.695720,425.295960L299.630252,425.357188L298.851418,427.237881L297.924333,428.290784L297.088141,430.071068L295.349347,425.353102L294.175886,424.505643L293.234820,425.461205L292.822102,431.148455L291.864443,432.479703L290.726340,432.178321L289.669502,432.688396L288.300395,429.634539L287.009686,427.014446L286.149673,429.849973L285.400898,434.990264L284.329550,435.792233L282.939011,430.542271L281.712577,427.336000L280.609092,426.221132L279.670698,430.052691L278.731876,436.151806L277.645985,438.393028L276.503629,437.870866L275.369324,437.628452L274.250217,434.872659L273.155528,433.307770L272.166447,427.230213L271.125374,426.483713L270.091905,425.811582L269.022116,426.283610L267.564306,434.948244L266.202583,439.541211L265.182948,437.400179L264.222207,434.815300L263.431696,430.415014L262.676073,426.328892L261.623659,426.232094L260.593203,425.905832L259.392835,427.268259L258.053366,429.711661L256.810198,431.019529L256.173087,427.262212L255.207965,426.406236L254.234450,425.684961L253.312306,424.665637L252.212207,424.898095L250.947451,426.130149L250.125252,424.580813L249.162730,423.953963L248.153678,423.620188L246.774696,425.267108L245.990366,423.729093L245.020720,423.202647L243.658697,424.570718L242.257915,426.011233L241.704474,423.562453L240.351781,424.707121L239.841622,422.238249L238.168669,424.626152L237.706789,422.083627L236.495870,422.540893L235.510561,422.117476L233.302842,426.132758L232.944619,423.394402L232.287586,421.809532L231.101127,422.063399L227.438863,430.377773L227.828036,425.358763L226.119238,427.090699L224.908333,427.212975L223.511436,427.865873L219.483198,436.109416L219.407260,432.756054L221.270237,424.149301L221.344323,420.753762L221.059764,418.438983L220.506056,416.905332L219.112601,417.560794L218.501909,416.217796L217.019309,417.048486L216.019661,416.670974L215.409555,415.374564L214.690655,414.363027L214.006134,413.295718L213.264126,412.380119L212.139563,412.317967L210.805639,412.691317L209.828939,412.282892L208.347226,412.917843L204.554624,418.212363L200.105606,424.618401L201.661653,418.996924L202.355581,415.212401L202.941961,411.741846L201.555332,412.051578L199.730059,413.139333L199.894520,410.582628L198.685172,410.531462L199.620192,406.717870L198.918697,405.822804L198.006759,405.295394L197.311660,404.406523L196.101310,404.373342L195.599790,403.179948L193.849857,403.990562L188.222316,410.828764L184.789114,414.059498L186.613568,409.191956L187.263575,406.207713L188.454241,402.497429L187.919842,401.382524L187.008593,400.821424L186.049841,400.325752L181.650011,404.603965L182.246565,401.903647L182.290013,400.008300L182.826462,397.493630L179.969581,399.477271L178.254338,399.911644L178.752257,397.497844L178.490265,396.086738L177.968296,395.018015L176.356370,395.289464L177.821274,391.834917L175.746815,392.653450L174.157359,392.863081L175.482882,389.688023L174.949103,388.694661L174.620844,387.479224L172.647239,388.096114L171.214365,388.087128L171.254575,386.475633L171.083184,385.112841L169.865602,384.860859L170.633354,382.549802L169.301405,382.416096L167.225243,383.011706L164.806401,383.909043L166.254642,380.991519L164.797148,380.926318L165.341677,378.944130L164.821720,377.990499L163.899491,377.412822L163.379109,376.464471L162.203041,376.108590L160.869546,375.879999L158.611186,376.441845L159.538175,374.228167L159.749144,372.660381L158.881544,372.015028L158.303292,371.126785L157.037656,370.798899L155.681760,370.529443L156.023495,368.904316L155.885770,367.674716L154.737964,367.231106L153.701438,366.692192L149.993120,368.135158L148.897017,367.593799L145.694149,368.567245L148.205286,365.412143L148.179845,364.105221L149.416705,361.936822L148.893294,361.006893L148.381178,360.070911L147.314022,359.503877L147.980307,357.797318L147.029981,357.153229L144.922762,357.233072L142.983153,357.178673L142.696336,356.084911L142.680877,354.832745L141.858154,354.070256L137.176276,355.558326L136.767100,354.511755L141.974587,350.288970L142.402792,348.832740L141.262785,348.252659L140.566448,347.422159L139.906094,346.569145L139.138672,345.769009L139.960490,344.150202L139.363717,343.268298L139.656547,341.944253L138.889172,341.148607L136.965252,340.899830L137.127623,339.647753L135.337298,339.305160L135.874322,337.887897L133.168240,337.925831L134.216444,336.291509L135.145917,334.732322L135.204291,333.560182L136.365207,331.942810L132.612900,332.328976L131.952191,331.441066L132.672869,330.014889L131.581845,329.292207L130.851794,328.424391L131.092184,327.198901L124.129811,328.538949L118.702511,329.242957L115.302914,329.180260L118.799926,326.784241L127.316802,322.822312L126.716762,321.878760L125.983914,320.971988L127.315713,319.437677L129.210657,317.763099L126.686551,317.384535L127.022170,316.176650L128.904623,314.559251L129.280086,313.370917L127.698807,312.692858L125.023632,312.267053L124.587413,311.265709L125.173883,310.022600L126.406888,308.645288L126.872002,307.457710L125.767894,306.612631L121.980102,306.303701L110.913642,307.379297L116.500000,305.132241L122.529925,302.887663L122.174107,301.854744L125.027398,300.278493L124.543314,299.284278L123.483970,298.374308L123.982398,297.222331L123.780989,296.177653L124.877376,294.959659L124.450948,293.950857L122.324321,293.139895L125.207913,291.740750L125.225849,290.683979L124.047051,289.745900L121.049986,288.957545L124.290109,287.606751L124.228056,286.555702L121.692131,285.677204L119.510085,284.742099L117.043484,283.793284L119.121790,282.589590L118.308946,281.536238L107.802751,280.808962L83.956848,280.306326L68.806776,279.291003L102.319566,277.391221L115.804689,276.096233L121.932048,274.988546L122.059129,273.923946L122.768442,272.869161L122.090664,271.794972L120.776676,270.693266L118.896416,269.553076L118.093048,268.431232L120.095959,267.434603L115.822747,266.114863L113.818368,264.877074L114.236107,263.779341L108.965237,262.249506L115.380419,261.623905L118.603476,260.797049L122.567142,260.086504L124.025230,259.167453L122.359665,257.917800L121.502651,256.739183L121.660153,255.674530L122.184784,254.659071L121.971609,253.545598L120.792129,252.284640L123.667188,251.630769L125.488344,250.845294L121.626850,249.124724L113.875105,246.662087L100.689174,243.090577L99.309743,241.572496L111.929472,242.795802L121.797375,243.635030L123.641932,242.913346L123.942969,241.876789L125.922462,241.221570L124.625633,239.825509L125.969686,239.043967L126.350748,238.039096L113.671492,233.691971L116.053834,233.120913L119.639326,232.906964L127.136864,233.831422L129.250382,233.324554L127.151082,231.608753L126.231724,230.211874L120.858124,227.421423L123.701488,227.143074L128.904188,227.667552L130.634021,227.115077L131.894151,226.424748L131.725818,225.252748L132.788879,224.509909L130.430633,222.536654L131.857391,221.923938L131.913172,220.808735L133.745947,220.375597L130.243763,217.859817L131.241370,217.093805L134.612407,217.312689L135.657700,216.605236L134.256572,214.862928L135.083054,214.060868L137.632102,214.030023L137.934221,213.018517L138.061300,211.924217L138.892315,211.154853L138.974960,210.034635L136.886824,207.852717L136.067383,206.254576L139.331798,206.690188L140.198259,205.946087L140.659623,204.997679L139.767686,203.331610L139.228907,201.831061L140.853277,201.496938L141.625081,200.708064L141.400366,199.359634L138.753164,196.603493L139.626312,195.846543L144.470707,197.454859L143.728125,195.772297L147.030281,196.544885L147.286269,195.473435L146.902125,193.991419L145.647158,191.931697L148.882831,192.764093L149.290485,191.777111L148.535043,190.004994L148.049620,188.389868L149.564082,188.137430L150.877009,187.762087L150.555887,186.235879L148.230511,183.239188L144.483221,179.135210L138.209657,173.053849L138.435521,171.735853L149.506264,178.726780L154.849803,181.490398L155.625629,180.752663L157.100673,180.577620L157.701281,179.710905L157.946431,178.549850L159.567555,178.528785L160.014227,177.534674L158.909450,175.201296L158.502939,173.433127L158.044551,171.591803L159.012492,171.000166L162.273382,172.499597L161.871980,170.686891L159.713809,167.202485L161.256364,167.151117L161.436565,165.810807L163.915770,166.696415L164.788349,166.040505L167.487094,167.218466L169.094569,167.341483L167.266365,163.947266L164.424917,159.419239L170.520650,164.257886L172.293697,164.607792L171.648168,162.351717L170.812347,159.841760L174.057755,161.855730L174.749834,161.044513L172.814300,157.200973L175.563601,158.745293L176.766248,158.519607L177.809180,158.114967L179.298491,158.262634L180.606930,158.209953L181.316534,157.423166L182.334114,157.024570L181.635419,154.416514L180.957159,151.778096L177.558327,145.464959L178.079728,144.273751L175.767771,139.189521L175.680217,137.064250L177.573432,137.687932L185.160572,146.495093L189.692222,151.150127L190.265470,150.130625L187.695513,144.395943L190.363865,146.460028L190.995573,145.465262L189.199690,140.656760L188.992304,138.242809L186.401896,131.923580L188.565904,133.222824L192.548260,137.612428L196.088116,141.412052L198.199693,142.895369L199.490777,143.010176L199.323171,140.554534L201.826173,142.857797L201.873979,140.747485L203.992307,142.448301L204.981193,142.079701L205.795662,141.378411L206.662223,140.771827L206.112917,137.331084L206.647322,135.989478L208.249949,136.828096L210.645430,139.384664L211.150299,137.994414L210.570162,134.198020L213.687975,138.508436L214.404596,137.552035L215.228295,136.822622L216.309529,136.687921L215.492206,132.001766L214.407691,126.489718L215.949161,127.337500L217.209354,127.519343L218.787670,128.554410L219.068762,126.198915L220.592411,127.135441L222.480587,129.142074L224.820201,132.536291L226.029523,132.818902L226.999129,132.418300L228.081427,132.357180L228.861644,131.368409L228.955094,128.156749L229.431961,126.053848L229.443820,122.301168L229.661814,119.078271L232.831018,126.119821L233.991608,126.276887L235.108251,126.294843L236.092594,125.822453L235.434771,118.857501L236.496818,118.481079L239.182479,124.901924L240.496811,125.817893L241.678644,126.217959L242.664378,125.755579L243.650502,125.278548L244.346152,123.345841L245.414248,123.196309L246.118411,121.112002L246.435154,116.730729L249.120454,125.669596L249.931996,124.117533L250.669367,121.975021L251.746859,121.886635L252.910919,122.403504L253.957203,122.134043L255.432749,125.138828L256.530712,125.446293L257.509618,124.784176L258.612383,125.184662L259.657111,125.088914L260.697387,124.948094L261.776584,125.241494L262.785115,124.732094L263.701937,122.908061L264.588211,120.266942L265.676930,120.387420L266.937998,123.789057L267.953672,122.936771L268.964140,121.667540L270.013306,121.064657L271.129664,122.792828L272.217792,124.316316L273.252789,123.088386L274.312053,123.477023L275.367255,123.280972L276.431584,122.406752Z" />
<line x1="50" y1="575" x2="100" y2="575" fill="none" stroke="blue" stroke-width="1.0" stroke-linejoin="round" stroke-miterlimit="10" />
<text x="125" y="578" style="text-anchor:start;fill:black">n1_4mer:GRV/n1_4mer:RV</text>
<path style="stroke:green;stroke-width:1.0" d="M276.303039,181.396048L276.998790,179.289544L277.521399,184.460716L278.142257,184.747657L278.860349,182.619300L279.467735,183.377637L280.169486,182.261042L280.844507,181.827181L281.691739,179.018361L282.192141,181.251133L282.513372,185.258877L283.021702,186.593470L283.758943,185.402871L284.405436,185.246129L284.201384,192.722780L285.276457,188.561419L285.530287,191.394800L286.649643,187.428509L287.197566,187.949613L287.922280,187.227844L288.692919,186.283324L289.444541,185.548361L289.508566,188.961741L290.636780,186.051818L291.519297,184.721417L292.156909,184.788081L292.178022,187.981591L292.113274,191.377396L292.975261,190.175701L294.458066,186.229811L294.573480,188.583810L295.654503,186.669499L295.985558,187.989985L297.941342,182.704404L299.474427,179.384659L302.165334,171.865755L302.510232,173.432012L301.330514,180.401970L302.268149,179.608728L300.570601,187.847462L301.280356,187.682929L301.936025,187.710762L303.595561,184.571746L305.425211,181.065350L305.209301,183.900070L306.004612,183.635414L305.609630,186.821185L304.876036,190.830285L305.850481,189.967303L308.219827,185.387287L309.348935,184.283967L310.316997,183.652463L310.098878,186.062224L310.016061,188.049489L309.770546,190.364114L310.352873,190.622419L310.375816,192.189702L310.044092,194.521531L311.977747,191.670390L314.907994,186.729507L312.953552,192.585526L312.607202,194.811467L311.582611,198.387930L313.220881,196.369338L314.421601,195.314676L315.581027,194.387794L316.694299,193.592233L316.207565,195.904419L315.996435,197.628807L317.877799,195.422064L319.453378,193.855644L318.391082,197.086772L319.390805,196.580832L321.538021,194.106328L324.453508,190.406343L331.174756,180.426312L329.536573,184.623060L328.514541,187.696352L326.574720,192.160712L324.135826,197.288950L324.492220,197.918402L327.987165,193.725166L326.990781,196.454022L324.505149,201.328588L325.347049,201.190756L329.102476,196.859277L330.413679,196.144019L330.632845,196.992113L331.047885,197.556186L330.794328,199.025654L332.295672,198.108944L328.717936,203.947947L330.387790,202.789651L332.259452,201.415884L331.566074,203.341714L332.063499,203.737192L331.423611,205.532944L331.801170,206.054362L333.153362,205.405879L331.555436,208.267754L332.082249,208.588955L336.803392,204.100637L333.290693,209.062614L335.961959,207.000707L336.278169,207.597890L339.150546,205.417764L340.268880,205.186187L340.555164,205.851149L338.957538,208.470056L338.529027,209.829912L340.011250,209.231573L338.403675,211.744662L341.745158,209.331647L343.226477,208.802507L344.235412,208.752945L345.278232,208.686019L343.370562,211.379877L339.000609,216.272101L342.392961,214.017866L341.519132,215.645465L340.139606,217.685826L343.418613,215.640551L344.584186,215.473175L341.899905,218.571192L344.145082,217.496367L346.193675,216.626178L347.833812,216.124401L351.599319,213.957217L351.626142,214.803155L356.189722,212.127017L351.541253,216.574512L350.376619,218.289518L353.164920,217.039354L352.711333,218.209770L350.630639,220.533833L353.699846,219.151304L352.729901,220.649168L350.879242,222.725820L353.074844,222.010822L355.215600,221.369640L358.073197,220.291987L363.222827,217.777117L362.518431,219.095616L359.549960,221.816816L356.884581,224.285426L360.804526,222.680476L361.964539,222.800068L354.893439,227.797807L351.113120,230.743102L359.974196,226.379014L359.253227,227.566945L364.870701,225.225051L363.824383,226.609416L361.254063,228.785363L362.419735,228.941105L359.857485,231.042977L358.402030,232.530610L355.619679,234.651624L358.173153,234.095132L363.548228,232.214499L365.074794,232.247677L364.186532,233.427445L362.734604,234.845236L362.308501,235.772978L360.984626,237.084895L361.251179,237.682290L363.065965,237.622689L362.635727,238.523084L359.269622,240.610403L359.191888,241.323841L357.619574,242.618025L364.106854,240.788999L362.706539,242.025268L363.802461,242.316919L363.829477,243.007273L363.700865,243.749380L364.071800,244.313971L364.331967,244.918313L355.581996,248.487852L364.649077,246.194717L363.444334,247.259513L358.335346,249.497712L361.708342,249.124197L365.031177,248.813682L363.430424,249.945557L365.952030,249.913711L366.109549,250.551411L364.595976,251.624900L366.122103,251.902981L365.596685,252.706132L364.164354,253.715722L364.716093,254.243014L363.849959,255.093941L361.438773,256.265057L362.930841,256.581531L366.413235,256.515362L373.064796,255.879886L373.832216,256.443407L380.319027,255.983424L375.555154,257.565466L374.451742,258.469005L377.280954,258.729525L370.753112,260.450590L369.381513,261.330441L366.021032,262.463378L365.081356,263.231136L367.191969,263.607492L367.212859,264.256038L369.595576,264.645292L369.895525,265.280424L365.523334,266.364524L365.944881,266.962707L370.697862,267.213595L376.748751,267.433818L370.027502,268.598412L370.172403,269.253833L363.864222,270.255268L369.406008,270.618157L372.516733,271.153821L372.176288,271.844552L373.074811,272.498631L371.172391,273.216917L369.912604,273.901095L366.231528,274.578803L369.049791,275.220458L367.220820,275.858126L368.677750,276.523865L372.581650,277.266885L367.110846,277.781420L370.007619,278.530975L369.081849,279.152539L367.130246,279.709158L368.121807,280.409979L372.586612,281.351226L375.052862,282.211464L376.081724,282.993252L375.588218,283.659180L377.880419,284.578387L377.350820,285.248178L374.833353,285.698497L378.490636,286.819632L373.623294,286.959751L372.925693,287.567416L368.428659,287.651935L368.073644,288.264241L367.318022,288.812876L368.286331,289.622345L365.858475,289.890491L364.500850,290.308467L363.901133,290.843587L363.561205,291.419843L363.697200,292.084521L365.456729,293.077334L368.651597,294.394694L366.654224,294.647370L360.210524,293.887400L359.941670,294.449087L360.579807,295.223148L357.839381,295.185406L355.477761,295.204421L359.028793,296.718802L360.306606,297.683701L360.280551,298.313556L362.606042,299.605929L361.459429,299.934466L361.333073,300.550275L361.792715,301.344735L362.834570,302.330131L365.958554,303.998136L362.347840,303.518327L359.767540,303.330327L362.287776,304.849666L361.990528,305.425976L360.847105,305.698366L360.573392,306.274004L359.337301,306.489430L356.358524,306.024192L355.565656,306.365919L357.858662,307.924634L356.450573,308.023430L357.986186,309.320552L360.057144,310.872383L358.931555,311.087857L358.089678,311.413241L361.787119,313.755954L355.234728,311.501869L358.118272,313.514250L358.945541,314.609676L361.216764,316.417536L357.286700,315.236920L358.044916,316.326411L358.828598,317.446963L359.262418,318.406167L363.799367,321.528254L365.052391,322.986672L371.424687,327.247315L368.721409,326.629676L367.319002,326.697981L368.132103,328.008226L361.329740,324.935285L360.097978,325.016548L362.674471,327.355384L361.129817,327.249716L361.210509,328.123098L357.783452,326.809816L358.436194,328.030150L356.907299,327.862443L354.688168,327.219531L356.390333,329.148506L355.287114,329.224530L357.278247,331.407225L357.525104,332.424954L353.343597,330.328601L349.446197,328.356655L349.717491,329.342311L351.492751,331.451722L352.443740,332.990540L355.690066,336.302627L358.360391,339.251405L356.947158,339.076345L357.240337,340.233114L355.650622,339.891847L353.296937,338.900976L351.765043,338.546106L346.977616,335.432330L343.404004,333.248510L345.370559,335.773179L342.184241,333.842823L344.590744,336.811803L344.819702,337.890015L342.189848,336.373695L345.325516,340.141654L344.435661,340.221264L345.446835,342.100168L342.729566,340.417178L343.547183,342.135400L343.574351,343.103650L343.015313,343.495416L343.741984,345.197814L337.897786,340.130643L340.027806,343.281105L341.571319,345.883334L340.409018,345.624509L341.191802,347.475185L341.728277,349.091781L338.684480,346.709651L340.954574,350.315242L338.247912,348.246927L333.713477,343.960247L333.618815,344.828001L336.609591,349.436767L337.328451,351.381541L337.791120,353.051419L333.636114,348.934502L332.955384,349.130234L333.021733,350.289334L334.471134,353.291227L333.930891,353.711526L332.132999,352.427732L330.092819,350.761035L329.279619,350.745659L327.072476,348.744462L327.773561,350.852435L326.581511,350.251025L326.818955,351.737411L326.497121,352.417319L325.353992,351.853566L328.034872,357.187652L329.802708,361.239011L331.753877,365.697977L330.751696,365.491124L325.582257,358.394879L322.306826,354.233297L325.442747,360.837473L326.530014,364.101785L324.736239,362.398287L320.396641,356.080365L319.444199,355.691838L317.796490,353.996564L317.784700,355.304446L318.038290,357.153361L315.476115,353.588551L314.115292,352.262884L314.714826,354.821082L316.990062,360.887878L317.519791,363.527849L317.657175,365.421286L319.118862,370.231928L321.392591,376.995293L320.243413,376.334530L316.507885,369.733743L315.754056,369.803090L313.640885,366.640256L313.094401,367.130320L311.870803,365.959011L312.199194,368.636030L309.854986,364.546941L310.357247,367.741981L308.448578,364.604419L307.299992,363.400789L305.404769,360.045674L305.370402,361.852004L305.327304,363.705685L304.969814,364.694876L304.737214,366.103696L303.107767,363.188003L301.867076,361.368639L301.084582,360.958245L301.821799,365.653835L301.910857,368.338121L301.603816,369.745847L301.491271,371.932425L301.473711,374.589010L302.059698,379.724002L301.656750,381.211389L299.702378,376.408916L296.838661,367.446486L295.791972,365.837084L296.269224,370.989334L295.689967,371.552331L294.569207,369.529062L294.016497,370.192387L293.325235,370.176036L293.026760,372.267848L291.783890,369.217207L291.183981,369.661172L290.266185,368.193552L289.676009,368.673445L288.962020,368.361449L288.047904,366.603564L287.429956,366.839925L287.154715,369.764775L287.005123,374.058022L286.954331,379.737937L286.197613,379.562996L285.487932,379.822582L284.895194,381.367436L283.913547,378.631675L282.917025,375.210966L282.322680,376.699553L281.657291,377.404788L280.904705,376.765973L279.843951,369.903398L279.232576,371.054580L278.462856,368.358585L277.938167,372.538026L277.360812,376.945791L276.695258,379.684399L275.947644,377.647428L275.220239,371.980463L274.534954,374.159624L273.898291,369.557783L273.227111,370.246949L272.708119,364.604183L272.111220,363.763853L271.612592,360.725879L270.672141,368.096016L269.974542,368.992922L269.475521,366.389591L268.767903,367.410804L268.354178,364.283660L267.733275,364.230113L267.292634,362.139004L266.644246,362.523413L265.871655,364.058922L264.368536,372.058294L263.764048,371.374216L262.984332,372.176430L262.903330,367.537799L262.799958,363.529454L261.644287,367.167074L261.394840,364.494737L260.293011,367.408890L260.628514,361.420919L260.259289,359.981400L260.071167,357.645438L258.348727,363.648772L258.287217,360.684541L257.244692,362.773407L256.393737,363.795037L255.892680,363.125723L254.978379,364.335158L255.145354,360.787435L254.731395,359.882013L252.271843,367.332440L252.265307,364.665142L250.486225,368.932374L250.670045,365.640983L250.080729,365.320742L250.230691,362.399680L249.272465,363.429733L247.300154,367.795854L245.560839,371.174978L245.086026,370.349605L244.369558,370.305498L243.092943,371.955610L241.813237,373.529133L240.850145,374.102668L239.557919,375.574335L239.414583,373.782124L240.459636,368.827687L241.184570,364.922685L241.906832,361.176492L241.791932,359.709050L242.024325,357.423176L239.428721,362.147052L240.637034,357.539961L238.948281,359.925434L237.631062,361.352261L238.126376,358.606183L237.317700,358.853981L236.944653,358.131507L237.253322,355.963339L233.497912,362.424181L234.060446,359.712077L229.577505,367.341942L226.473286,371.943028L228.044393,367.195465L230.788426,360.333616L230.423222,359.591685L228.392919,361.971242L227.281895,362.574763L229.354219,357.401112L227.543128,359.281121L227.619046,357.792971L225.433577,360.230118L223.253812,362.569893L225.273388,357.830293L225.594834,356.011630L223.632346,357.925513L222.169298,358.975970L221.383971,358.922486L218.170810,362.601830L219.768365,358.854965L220.223450,356.917012L222.761679,351.956418L222.816542,350.735705L220.404814,353.067215L220.199000,352.211514L213.674001,360.142941L214.423822,357.879279L214.758023,356.229082L219.050680,349.353610L217.717055,350.033076L213.773945,354.051060L215.995105,350.097578L213.387611,352.302494L213.093457,351.571883L212.014237,351.807024L210.576970,352.453776L213.056302,348.427264L213.292084,347.123111L215.170536,343.950178L215.629507,342.466742L212.395215,345.151393L214.161291,342.224582L215.822435,339.481187L213.602635,340.972164L211.990965,341.765939L214.140540,338.595480L212.610844,339.292009L211.728487,339.299615L206.321674,343.829319L206.787702,342.417129L208.300954,340.009977L207.464543,339.914675L206.514300,339.916973L203.213245,342.103550L203.004960,341.365269L201.783839,341.554200L201.084976,341.255721L201.053187,340.361647L198.487619,341.686452L199.292581,340.063136L202.960260,336.044479L201.661157,336.273377L202.391258,334.810127L200.328347,335.641913L200.229132,334.863600L197.158632,336.437680L198.940399,334.176825L201.382137,331.458855L197.927086,333.261073L196.570998,333.432764L195.735156,333.201899L196.335802,331.922345L189.896542,335.683807L194.015471,331.900611L199.209983,327.466717L198.035308,327.491214L201.273757,324.534173L197.702197,326.156471L200.100304,323.823090L196.677357,325.280981L198.254495,323.517472L195.963152,324.199352L196.762371,322.949474L195.655694,322.871189L192.707341,323.871950L189.492761,324.979204L189.962538,323.913665L194.353732,320.643719L191.953646,321.241847L188.098426,322.599102L187.588147,322.090589L187.339715,321.440078L189.708965,319.427374L191.223189,317.899914L191.395048,317.079948L192.095009,316.006880L188.828885,316.878367L189.699434,315.723752L188.417171,315.598309L191.513265,313.439954L194.911469,311.201795L189.242625,313.047572L192.411752,310.955608L191.596078,310.622198L191.302719,310.060647L192.934547,308.707538L189.100976,309.585317L193.539792,307.141010L193.898321,306.348906L191.316292,306.679206L194.737704,304.746914L190.404886,305.684727L184.834266,306.996902L177.769775,308.743696L174.757090,309.009305L177.016627,307.483945L185.861642,303.864505L183.878424,303.807481L184.078065,303.049738L183.845633,302.428025L184.327899,301.596046L185.499515,300.577157L183.822791,300.371179L183.400258,299.803093L183.234801,299.163580L180.872196,299.086335L179.115080,298.826077L179.306434,298.072504L183.629013,296.358423L183.848620,295.639008L184.129043,294.911585L178.102637,295.526284L174.864234,295.485049L166.456556,296.418968L175.230245,293.967106L178.903959,292.576524L177.386298,292.152794L182.374754,290.612363L180.491786,290.253983L178.182567,289.935981L177.612967,289.330561L177.052219,288.717218L177.489163,287.964622L180.681390,286.872665L180.682722,286.206143L187.505102,284.778422L188.922087,284.013866L182.081196,284.076811L179.577782,283.651249L177.859822,283.125691L181.568449,282.160929L184.044380,281.334650L181.087825,280.883994L170.705008,280.806000L173.630264,279.935615L174.707966,279.183600L171.865424,278.583222L164.272451,278.075517L162.541972,277.340318L170.286207,276.450042L181.234957,275.645674L180.569478,274.992934L178.314747,274.319747L180.434779,273.676337L180.405161,273.017262L176.561482,272.251074L179.856153,271.680145L176.450041,270.874295L173.430724,270.039433L170.587807,269.171801L168.465453,268.309155L169.237801,267.618233L167.830717,266.770029L170.898127,266.276280L173.004429,265.737402L176.571459,265.370097L185.287758,265.591982L187.588320,265.217633L185.662275,264.371934L185.264011,263.690545L181.940404,262.613022L181.855762,261.941287L181.140144,261.174114L183.764055,260.911093L185.178942,260.488748L180.688825,259.088951L175.251945,257.456766L168.867510,255.571335L166.782921,254.410202L168.729604,254.013051L179.254559,255.398163L180.862005,255.043527L177.919572,253.712573L183.691249,254.310993L179.201568,252.591519L178.380241,251.688882L175.082070,250.155899L175.117961,249.425288L176.441922,249.031948L174.883196,247.874601L179.596629,248.437455L184.707457,249.181874L187.795153,249.406799L184.844233,247.857736L179.714783,245.588556L178.671774,244.530614L183.674698,245.412224L185.507926,245.316268L178.954116,242.398586L181.189339,242.427331L183.666517,242.573311L181.666379,241.129795L183.331355,241.010046L184.026953,240.545784L191.375819,242.661665L189.900406,241.408312L187.851866,239.896599L192.982393,241.297768L189.539220,239.185591L186.632280,237.242102L187.015090,236.679238L189.337609,236.979225L189.159283,236.182616L190.234788,235.956018L193.213081,236.635540L186.295474,232.634845L187.725395,232.569200L186.718729,231.317432L187.497933,230.942146L189.023957,230.957674L188.566591,229.961127L188.118971,228.956097L190.591473,229.511065L196.311950,231.884429L195.787500,230.877386L196.074174,230.314411L190.838865,226.573635L191.945845,226.437952L192.369871,225.910904L195.772907,227.183355L197.896063,227.729456L194.709172,225.003389L193.838048,223.673508L191.688057,221.498418L194.711176,222.646904L195.926396,222.651267L196.693824,222.371714L197.801072,222.332104L197.734173,221.494526L197.633151,220.623914L197.498670,219.719462L194.903260,217.022785L196.377874,217.251918L195.404818,215.679859L191.324897,211.728510L195.769208,214.217656L199.557880,216.285468L202.538963,217.791240L203.713470,217.908547L205.760742,218.752615L205.638103,217.846976L206.073117,217.395224L203.353763,214.270541L199.680509,210.250651L197.951162,207.825691L199.664755,208.391031L202.369627,209.876205L206.742867,212.934946L206.004777,211.380870L204.349946,208.939181L206.643408,210.185982L206.073286,208.728208L207.703255,209.387818L207.415708,208.183559L210.863539,210.703289L210.342730,209.272438L210.476027,208.488148L210.510497,207.591089L213.433453,209.742995L212.040023,207.328487L212.735051,207.134346L211.132384,204.407353L215.599216,208.418774L217.266309,209.373466L213.941030,204.611606L215.959747,205.973896L216.043888,205.092957L218.938193,207.578137L218.046321,205.527506L221.178209,208.407722L218.900430,204.592594L218.235842,202.732025L218.173670,201.606890L218.136917,200.493772L215.971008,196.529233L217.394421,197.301485L215.370484,193.390292L214.741265,191.312404L214.691532,190.001826L220.554958,197.122666L222.501223,198.782250L225.238702,201.669066L222.384418,196.289172L224.341675,198.063361L223.015276,194.839610L221.853160,191.784465L224.672734,194.976748L222.681117,190.510624L222.692399,189.200249L225.873139,193.140962L228.062808,195.541205L228.084711,194.300754L230.360711,196.970698L229.878488,194.838307L229.874661,193.509637L228.714055,190.023345L230.056891,191.103660L232.405616,194.140891L232.335789,192.622799L233.635703,193.752784L234.101013,193.264514L232.542904,188.653959L235.781832,193.818804L235.552131,191.870922L236.249008,191.850004L236.798781,191.516828L239.169465,195.234802L240.177707,196.012933L240.928406,196.234913L238.599482,189.217227L239.400941,189.454860L238.087981,184.529536L239.388717,185.950443L238.358693,181.492065L240.471546,185.045718L241.246871,185.202199L242.952236,187.903169L242.902597,185.858475L243.694679,186.122161L245.261764,188.657875L246.317895,189.802729L247.906046,192.628397L246.571108,186.499080L247.061685,185.901047L246.491265,181.814809L245.614840,176.504479L245.368035,173.093250L248.478300,181.363511L249.365795,182.033693L249.363435,179.434137L250.428916,180.790329L248.750172,171.406165L250.972736,177.326997L251.875168,178.092319L253.170107,180.613667L254.720947,184.452695L254.965222,182.529883L254.783262,178.447279L255.582144,178.933804L255.838217,176.681412L257.232453,180.330272L257.538448,178.250761L259.610905,186.201697L260.700435,188.931970L261.558231,190.459394L261.861388,188.487083L262.384350,187.848168L262.897345,187.079939L263.333224,185.646792L263.963664,185.634083L264.609771,185.763707L265.041090,183.955796L265.487660,182.057583L266.223144,182.920037L266.714162,181.160807L267.884096,187.459922L268.426577,186.510091L268.882182,184.081069L269.332917,181.017826L270.286435,186.592360L270.762231,183.546858L271.489316,185.816054L272.036109,183.507004L272.673171,183.493729L273.354506,185.880427L273.934084,182.323723L274.588287,184.318576L275.215102,186.137998L275.847389,184.676381Z" />
<line x1="50" y1="625" x2="100" y2="625" fill="none" stroke="green" stroke-width="1.0" stroke-linejoin="round" stroke-miterlimit="10" />
<text x="125" y="628" style="text-anchor:start;fill:black">n0_4mer:PS</text>
<path style="stroke:red;stroke-width:1.0" d="M276.958934,134.279741L277.739078,143.841411L278.650681,143.910093L279.536001,144.716347L280.253169,149.288190L281.378675,144.188907L282.135870,146.984727L283.116938,145.600189L284.099852,144.478065L284.993060,144.741428L285.627236,148.066298L286.567205,147.518757L287.256542,149.625168L288.075690,150.221753L288.440514,154.817190L288.917522,157.935246L289.972967,156.122148L290.705129,156.943031L291.463660,157.503774L292.791998,154.151198L293.687684,153.922151L293.957932,157.597996L295.114569,155.717195L295.616608,157.724588L296.737638,156.202986L297.728940,155.490053L298.330842,156.813358L299.404426,155.749778L300.443374,154.934073L302.133932,151.211525L303.020591,151.290125L303.867804,151.544711L303.609996,156.377650L304.667534,155.644175L307.104637,149.575374L310.355305,140.772211L310.951745,142.265880L310.706953,146.715097L312.764153,142.890900L309.971681,155.805668L310.167892,158.153891L311.805692,155.726988L310.579526,162.486232L315.001389,151.499904L316.079404,151.119914L315.526214,155.577097L316.211777,156.279010L314.974275,162.380530L316.533580,160.521647L318.992634,156.326917L320.052041,156.016910L320.665567,156.885850L320.966487,158.524563L322.791341,156.326413L323.545626,156.833835L324.353511,157.206747L321.887231,165.242939L323.475428,163.676578L325.648244,160.863829L327.431889,159.028529L327.703478,160.556707L326.787617,164.575057L325.483152,169.277127L327.060672,167.897156L328.963651,165.919930L330.907067,163.943374L330.365763,166.898816L329.753890,169.903017L329.853344,171.477127L332.038006,169.141797L333.632801,167.972794L335.822974,165.785986L335.614814,167.920091L338.571056,164.499036L340.704400,162.608066L348.804098,150.746221L349.697212,151.213244L348.936490,154.379975L343.795606,164.500533L342.632792,168.034967L342.974113,169.133800L342.523266,171.428839L341.466883,174.583999L342.164244,175.049091L346.097924,170.769779L346.391993,171.887862L348.670542,170.163740L346.728067,174.423535L348.413746,173.561017L349.853629,173.072874L354.142077,168.790967L353.359557,171.354779L350.410579,176.685476L350.650884,177.781056L348.627247,181.728503L350.683014,180.484518L350.892421,181.563530L351.688667,181.914786L352.751787,181.951772L354.493890,181.201664L356.855781,179.766753L356.425385,181.590760L356.042845,183.325788L355.244761,185.491936L355.818984,186.104229L358.789623,184.115828L360.046807,184.031044L360.941642,184.347099L360.500071,186.061071L358.287752,189.560785L359.590780,189.424003L363.308745,186.897860L368.340766,183.165108L367.802461,184.957387L367.017216,186.954455L373.675989,181.890121L367.094674,189.304135L361.433590,195.687269L362.491663,195.831075L360.960839,198.297772L363.437079,197.187154L365.327545,196.632534L364.167567,198.720281L363.950648,199.971806L361.791876,202.820634L367.141957,199.450055L369.065581,198.961588L371.563529,198.047533L372.032906,198.771775L376.068900,196.732664L372.512315,200.566877L370.596528,203.076833L372.848712,202.443481L372.826279,203.510081L378.825406,200.229087L378.159420,201.793769L379.256608,202.100983L377.332231,204.502018L374.168769,207.694434L376.112065,207.398731L379.208763,206.373119L388.219530,201.563814L387.729624,202.991395L386.084997,205.125882L388.997607,204.396475L381.464252,210.083157L381.664597,210.975229L382.447646,211.518384L376.099820,216.214282L378.704109,215.662033L379.003309,216.448002L383.543396,214.883167L384.499758,215.345690L384.175268,216.504258L385.864184,216.588912L381.771823,219.691132L381.595357,220.720268L377.857791,223.521938L381.194265,222.773263L383.908109,222.376835L385.751162,222.434025L388.430223,222.126723L388.647666,222.985231L385.987725,225.134089L385.970831,226.067175L387.960911,226.125972L390.703835,225.892513L387.032731,228.368236L387.193313,229.215021L388.663112,229.535561L384.759710,231.980701L387.723716,231.721722L395.175396,229.818062L394.876627,230.880305L393.913307,232.172314L388.008553,235.185424L386.954297,236.430747L391.666764,235.713581L387.712054,237.916795L393.805670,236.826366L389.757729,239.006340L386.440587,240.896944L388.088654,241.251693L389.447166,241.712088L391.966806,241.860522L392.989559,242.456250L393.594612,243.175992L391.700545,244.553466L391.391782,245.497792L391.673263,246.289255L396.196885,246.069288L399.201473,246.264372L395.375253,248.030974L394.583922,249.081100L399.649379,248.890267L394.170454,250.902584L410.579371,248.565508L408.979422,249.844218L411.391399,250.372945L401.558100,253.057002L401.318242,254.003221L405.452819,254.248049L394.031528,256.913502L394.982113,257.622629L396.964038,258.201498L395.166335,259.300621L396.194809,260.023501L398.995536,260.552955L399.924337,261.325417L401.657100,262.027278L401.524663,262.930176L404.046652,263.595447L397.374251,265.043085L402.374535,265.528248L406.574200,266.136420L404.082275,267.206476L398.485424,268.406737L403.018110,269.058055L398.286725,270.137422L399.431942,270.959523L402.800796,271.740479L396.352503,272.750065L401.010512,273.541041L404.792124,274.400777L405.292551,275.305413L401.118024,276.173544L399.411381,277.023812L397.223047,277.839320L400.706152,278.795879L392.564101,279.369291L394.155217,280.259215L395.600376,281.164384L393.571895,281.888520L396.939969,282.936215L401.225753,284.097915L398.438571,284.761168L399.744609,285.738694L402.314990,286.853298L403.153895,287.831787L403.996850,288.823761L404.947549,289.841267L398.730442,290.004419L396.307579,290.568160L394.515967,291.184630L400.034348,292.819070L399.287033,293.596167L397.571181,294.212655L397.537627,295.082282L395.792186,295.660621L398.446738,297.000159L397.377059,297.689530L395.334437,298.178366L398.677934,299.716429L402.733530,301.452862L399.775437,301.747368L399.733637,302.647923L400.206105,303.668431L401.744135,304.950586L402.209616,305.997066L399.704093,306.307705L395.468870,306.137416L390.995328,305.844074L390.419327,306.552738L388.955772,307.006783L390.415259,308.285182L393.666507,310.119356L390.385240,310.023603L393.986734,312.023270L401.870187,315.446981L401.232278,316.213765L389.387503,313.229673L392.250548,315.095988L395.575365,317.172675L395.606965,318.128265L391.856802,317.706967L385.975091,316.435312L384.262398,316.664689L381.783544,316.573098L383.585444,318.147402L384.251146,319.294932L386.193973,320.986431L386.695173,322.106825L386.962063,323.140070L389.996301,325.396008L392.908953,327.653827L391.123015,327.828833L392.396354,329.397576L392.203924,330.302634L387.136628,328.869139L384.150582,328.372942L383.370913,328.929621L384.464216,330.427666L382.805816,330.534096L383.208772,331.698211L386.265602,334.290663L391.711502,338.239641L389.356036,337.996973L387.465696,337.979985L388.831332,339.789657L384.416576,338.289289L383.032199,338.496193L386.087564,341.336666L385.623120,342.108312L385.558706,343.126508L379.637587,340.487172L380.708288,342.185787L383.380195,344.947880L384.192368,346.553587L381.593364,345.915933L384.417619,348.898770L380.509591,347.333860L380.899650,348.690092L378.534238,348.118987L372.868612,345.143836L373.420557,346.581640L379.750917,352.306276L379.777357,353.458188L377.619569,352.963118L376.770844,353.441567L375.380646,353.489908L375.759975,354.922908L376.431827,356.612496L376.032243,357.456085L373.702341,356.705802L368.105738,353.171479L366.896167,353.252946L365.742743,353.366934L365.160105,353.966065L364.799290,354.761413L363.051058,354.311887L363.157136,355.525993L365.167628,358.521157L366.310977,360.768858L367.368453,362.980372L367.672713,364.508729L365.097546,363.241917L366.978026,366.346679L365.513433,366.152344L364.332320,366.224216L359.282035,362.274028L362.412953,366.786166L363.370046,369.094027L368.718508,376.191301L367.244317,376.000786L366.002753,376.044960L363.662249,374.834981L359.912265,371.963522L358.028396,371.154555L356.257839,370.439087L353.709786,368.760801L355.269386,371.981549L354.511607,372.438954L351.028663,369.506119L350.982412,370.806515L351.257914,372.540842L349.974511,372.287357L349.337653,372.862369L347.387822,371.685387L349.098994,375.420373L350.174135,378.375910L348.478583,377.537265L347.830058,378.141119L346.559823,377.854283L347.457476,380.706468L347.421875,382.247767L346.313382,382.207758L349.346172,388.472005L346.923559,386.459276L342.969153,381.958081L343.676919,384.752109L343.593603,386.334948L339.299517,381.010501L339.339990,382.761817L341.224453,387.692905L343.095587,392.745715L339.649219,388.603906L333.341910,379.201176L332.082877,378.638323L331.254982,378.839128L332.267420,382.487688L333.587415,386.834207L332.265132,386.186158L331.898977,387.390292L330.525495,386.598250L329.441281,386.356017L329.011791,387.454637L327.365495,386.000212L327.899971,389.186224L329.984205,395.884177L329.425521,396.900279L325.620649,390.531869L324.448292,390.027837L322.211471,386.966154L323.383591,392.014458L323.065290,393.575429L320.407794,389.298327L318.372552,386.429661L319.035642,390.505394L317.117680,387.827825L315.554061,385.991079L314.287865,384.892727L314.614543,388.288010L314.655345,390.989688L312.352697,386.790670L312.265576,389.167783L312.298795,392.024814L311.773090,393.213152L312.433240,398.356224L310.591758,395.295042L309.599115,395.004220L307.921522,392.245490L307.652666,394.477171L307.843641,398.551459L308.810407,405.849988L307.305066,403.716590L304.462240,395.949238L302.645047,392.025829L300.907270,388.185072L301.189106,393.193068L300.407129,393.565555L299.058535,391.214762L298.961136,394.944159L297.899484,393.933374L297.265772,395.140488L295.946230,392.582708L295.264264,393.527013L294.784193,395.774064L293.815402,395.094195L293.516655,398.817455L292.077855,394.896069L292.143214,401.664279L290.850367,398.578083L290.230124,400.668517L289.776454,404.463992L288.883587,404.644546L288.118421,406.113245L287.304430,407.265277L286.002279,402.915922L285.111622,402.989408L284.614162,408.524343L283.895460,411.833099L282.546540,405.062545L281.234900,397.155079L280.225965,393.598670L279.402025,393.678598L278.726894,398.721336L277.907287,400.543968L277.055714,401.943048L276.145885,399.120587L275.272865,395.153579L274.435138,395.442914L273.636829,391.998555L272.757839,395.458215L272.040575,390.702728L271.263224,389.820344L270.458576,389.930811L269.292476,397.773812L268.208590,402.022159L267.332994,401.832695L266.301070,403.989500L265.592217,401.389376L265.092589,396.655831L264.680895,391.667167L263.424241,396.251768L262.624334,395.740777L260.872413,403.975612L259.789388,405.466098L259.132449,403.328445L258.176344,403.698559L258.435168,395.202504L257.642174,394.785446L256.918766,393.938350L256.352338,392.169450L255.729628,390.879686L255.066398,389.918838L254.446572,388.782975L253.687215,388.465935L253.369287,385.898207L252.475833,386.348276L251.005800,389.507994L250.571080,387.669713L249.139732,390.386820L248.879255,387.861831L249.089633,383.508902L246.830373,389.438247L246.091568,389.014237L244.163684,393.159210L242.402566,396.441388L240.591217,399.715799L240.037440,398.367047L240.532486,393.470467L241.522474,387.151371L239.501862,390.969086L238.243536,392.159771L237.464443,391.790510L235.537838,394.913220L233.384343,398.553919L232.559376,398.162426L232.440375,395.771856L231.403932,396.019015L232.303894,390.982473L231.334085,391.117297L231.272150,388.869810L229.670962,390.627918L231.826643,382.912430L227.802339,390.630845L226.400463,391.736252L222.330590,399.070989L221.482076,398.669389L222.431591,394.192081L222.341078,392.181284L224.378824,385.581430L223.561245,385.331652L222.555428,385.474533L221.868570,384.939493L219.197631,388.443772L216.932907,391.002082L215.800061,391.236723L216.520425,387.872562L214.366322,390.062263L215.311350,386.382132L213.787311,387.340729L213.440156,386.129648L209.699267,390.970959L210.883786,387.035986L212.423436,382.601227L211.989112,381.633105L212.796660,378.612949L212.584894,377.344550L209.874110,380.136160L207.492605,382.305010L207.260043,381.029963L205.607130,381.968662L207.304598,377.777974L206.171202,377.931812L207.139271,374.971028L206.174871,374.888353L203.158315,377.728476L203.634788,375.549554L198.687457,380.949753L200.384712,377.087347L198.562064,378.067390L197.692861,377.736991L192.201386,383.455224L191.640476,382.628341L193.871093,378.255577L193.842003,376.825553L195.092066,373.837711L197.705304,369.255833L195.788528,370.233454L198.609835,365.551920L198.910075,363.932548L198.498395,363.163906L197.794491,362.733887L195.693196,363.866734L193.533495,365.017553L195.233337,361.915524L195.848761,360.048902L192.468736,362.452179L190.047255,363.771912L189.164488,363.453474L190.457002,360.916741L184.980034,365.217879L185.626323,363.331824L189.039046,358.784101L185.987836,360.557957L186.945384,358.466172L183.609092,360.428773L183.938915,358.940414L183.331051,358.327963L182.761895,357.680107L181.083469,358.012897L179.711184,358.051566L182.623424,354.388649L182.604696,353.293220L180.012036,354.360855L182.348433,351.320038L180.728558,351.559179L180.578715,350.596260L177.748311,351.757620L178.866329,349.795099L181.582783,346.643334L175.879538,349.927289L175.500089,349.131439L173.029957,349.873674L173.480379,348.460799L168.394705,351.015891L173.759950,346.132361L177.516632,342.484248L173.412780,344.284192L171.853265,344.300808L173.862445,341.933861L173.827082,340.949193L170.839173,341.868384L168.412879,342.382937L163.410930,344.462663L163.266798,343.477897L167.108656,340.094613L172.669603,335.771958L169.391421,336.728490L170.081781,335.349104L169.138661,334.914802L168.653144,334.216026L163.099556,336.291878L162.379114,335.671221L165.561759,332.977458L163.935100,332.852761L166.098784,330.765465L165.018191,330.355918L163.407138,330.196618L163.370341,329.250985L166.862846,326.626277L162.131697,327.923452L163.991984,326.111629L164.919445,324.758856L158.015020,326.902177L155.888908,326.856188L160.604127,323.859003L163.673253,321.634583L164.017409,320.584953L165.103352,319.247423L160.876360,320.028721L160.674020,319.191371L162.508952,317.584478L158.000780,318.362399L150.179311,320.275531L159.739802,315.902116L157.888885,315.643348L153.363484,316.267491L155.813123,314.513438L158.181713,312.827733L157.899086,312.020676L158.931586,310.807515L158.395993,310.085731L154.287464,310.407541L152.234879,310.083417L150.158668,309.738635L158.394869,306.573974L158.851785,305.584107L154.062363,305.946695L153.286319,305.244166L151.114206,304.869882L151.904494,303.774187L148.637499,303.611708L151.708715,302.015506L151.512292,301.159058L150.218119,300.526972L142.580206,301.130507L149.190267,298.917534L147.004699,298.411084L148.880937,297.161789L150.882791,295.920461L146.085137,295.807347L143.590392,295.272500L144.727882,294.169621L141.216088,293.735933L145.947267,292.158297L146.660619,291.155141L152.513776,289.552988L159.560028,287.901561L159.807994,287.062622L154.247864,286.795721L153.023593,286.058727L149.060849,285.534700L154.016306,284.272624L145.844540,283.995098L141.473104,283.366023L142.913995,282.353098L147.053704,281.229607L148.452325,280.278832L140.502676,279.672863L119.564662,279.317300L117.239303,278.283094L130.203476,277.005094L137.625809,275.945970L151.222544,274.990738L145.639413,274.089851L147.216618,273.211371L156.567767,272.517623L150.992150,271.537043L155.162935,270.818524L149.694727,269.754208L145.825020,268.691191L144.155863,267.696393L143.885319,266.765413L145.208668,265.941098L145.726485,265.072554L149.687393,264.498824L151.718246,263.804324L156.260864,263.382979L160.572144,263.000085L158.823275,261.998495L145.838536,259.634302L147.423546,258.921499L142.806935,257.404044L144.565834,256.713282L150.510228,256.662220L155.381282,256.528147L156.452915,255.847848L155.043058,254.762306L151.240573,253.233755L145.283157,251.253973L144.527434,250.175788L145.432602,249.412212L151.189070,249.652353L152.845504,249.104261L145.972459,246.707332L148.245341,246.279554L155.979947,247.159685L154.923425,246.029536L153.538805,244.799272L151.107973,243.277550L151.938245,242.575727L151.841838,241.631833L155.400053,241.700559L156.874218,241.223275L157.602526,240.545755L153.174402,238.323227L152.211940,237.099324L148.835631,235.093204L153.237599,235.551145L156.293045,235.625949L153.754581,233.844962L156.260223,233.771514L161.201566,234.597441L156.627330,232.043277L158.540857,231.817941L159.821762,231.378553L161.558047,231.130824L160.191719,229.681288L162.901534,229.846567L159.705779,227.623922L160.638186,227.073913L161.198836,226.374860L159.516959,224.702759L163.500319,225.511487L161.815693,223.817778L159.991110,222.025379L165.115271,223.455470L159.000029,219.598580L162.751762,220.427624L163.300896,219.730025L162.090837,218.149510L162.613334,217.428496L164.891319,217.624374L166.791611,217.653343L169.197284,217.981438L167.793949,216.258550L167.292276,215.005096L168.551341,214.731755L165.661552,212.086594L168.799103,212.903974L164.860527,209.568090L164.722049,208.442950L171.089211,211.294829L167.108539,207.816642L170.415589,208.861239L168.308348,206.484346L171.842607,207.735234L173.824043,208.018948L173.463755,206.759169L169.998115,203.363923L171.435017,203.282738L175.271895,204.907653L175.024703,203.689119L173.688942,201.667016L175.774391,202.118626L174.598581,200.173532L173.222793,198.040482L175.935639,199.002222L176.861150,198.621226L180.148051,200.113376L179.520342,198.532926L184.508033,201.487708L186.196105,201.827101L181.895345,197.188954L178.718226,193.388735L174.013224,188.185445L172.965437,186.042120L175.170664,186.734154L181.148630,190.848465L181.728069,190.189414L181.475387,188.762805L182.366359,188.383587L184.758215,189.434988L187.758759,191.119122L183.488345,185.779052L186.217682,187.226372L185.059153,184.834430L190.624610,189.227918L190.592920,187.992475L191.810776,188.044842L192.155055,187.189114L189.675092,183.289903L190.079982,182.441464L191.934054,183.187507L194.987447,185.315428L197.516116,186.923201L196.905812,184.973514L196.681310,183.434775L191.847240,176.401851L196.812645,180.969190L193.478246,175.559197L198.983391,180.946662L198.612206,179.129989L200.694659,180.399873L200.018222,178.158520L196.311427,171.896397L198.315646,173.058905L199.538944,173.217982L198.543146,170.360186L198.934051,169.359276L197.298855,165.488753L202.335220,171.061440L202.599304,169.888634L204.813062,171.568741L203.088536,167.423297L204.535270,167.982655L205.370368,167.631181L204.450327,164.535694L208.219711,168.815493L209.357890,168.995044L207.969321,165.050098L209.913625,166.547964L208.974825,163.227638L207.623879,159.105964L212.457680,165.676271L213.459437,165.668653L213.923765,164.704440L214.237444,163.445645L215.635138,164.182241L215.433637,161.922111L217.536122,164.047205L219.152914,165.305879L219.314955,163.714990L218.589397,160.276368L222.425590,166.171523L221.914720,163.132604L221.669343,160.565669L221.147897,157.314110L222.258678,157.588358L223.564476,158.329301L225.521361,160.617640L227.589014,163.269562L228.327731,162.845750L227.249283,157.964150L228.410092,158.497299L228.404374,156.088827L230.315307,158.586462L230.333968,156.169196L231.422888,156.569637L231.484998,154.149298L233.233995,156.423597L233.307752,153.950542L234.825769,155.666537L237.076274,159.703499L236.423435,154.908737L239.557214,161.968302L238.826089,156.760002L238.149227,151.480642L238.254344,148.628685L239.236155,148.733550L241.526778,153.604315L241.755711,151.074693L243.167232,152.947807L242.722437,147.617966L243.632088,147.486598L244.393737,146.740393L246.870565,153.376216L247.458942,152.027369L247.631919,148.683164L247.359832,142.993861L248.555483,144.170716L250.322151,148.378625L251.861815,151.714230L252.986638,153.030543L253.594221,151.484171L255.293940,156.390677L256.182033,156.646359L256.439581,152.786480L257.578573,154.648742L258.744575,156.912030L259.809040,158.655857L260.111072,154.437998L260.749154,152.606871L261.558510,152.118105L262.434288,152.223931L263.240717,151.630729L264.199853,152.685625L265.013876,152.150378L265.703192,149.848501L266.593279,150.064927L267.474309,150.194924L268.337045,150.029588L269.248489,150.879555L270.075140,149.890917L270.777272,144.647716L271.933895,154.420527L272.698466,150.349512L273.609326,154.087584L274.414670,146.078871L275.317385,143.882881L276.268076,139.835160Z" />
<line x1="50" y1="600" x2="100" y2="600" fill="none" stroke="red" stroke-width="1.0" stroke-linejoin="round" stroke-miterlimit="10" />
<text x="125" y="603" style="text-anchor:start;fill:black">n0_4mer:D</text>
<path style="stroke:black;stroke-width:1.0" d="M277.410040,101.874506L278.626289,101.358026L279.852280,100.762639L281.038886,101.550275L282.215284,102.333461L283.382292,103.099611L284.555683,103.574035L285.761227,103.445070L286.961204,103.436833L288.221105,102.664168L289.413071,102.847578L290.637015,102.665715L291.825265,102.890715L292.929056,103.907212L294.072315,104.458576L295.160065,105.427213L296.285251,106.005775L297.495682,105.897790L298.620171,106.429892L299.772943,106.734441L300.871133,107.380455L301.969505,107.984216L303.239503,107.534959L304.346058,108.068029L305.595077,107.796745L306.646080,108.603269L307.813244,108.778521L309.129890,108.227099L310.346944,108.199650L311.718606,107.485012L312.916887,107.598347L314.106827,107.756774L315.217257,108.251794L316.464430,108.183937L317.708292,108.149602L319.126587,107.471698L320.432180,107.264040L321.511488,107.897482L322.639160,108.345486L323.565753,109.472857L324.763608,109.659297L326.171336,109.173493L327.256525,109.748257L328.420944,110.068432L329.512609,110.610404L330.607354,111.135897L331.881914,111.137198L333.054599,111.442857L334.349430,111.416099L335.491004,111.821456L336.612103,112.281547L337.896531,112.317901L339.229323,112.247984L340.215871,113.058504L340.790447,114.857772L341.517078,116.242034L342.183445,117.732077L343.136769,118.524470L344.777019,117.757001L345.952260,118.064248L346.598437,119.527132L347.317948,120.798944L347.823924,122.490614L347.960101,124.901393L348.953241,125.513734L349.620979,126.769112L350.673765,127.247613L352.428203,126.380960L354.157364,125.608968L356.132261,124.424691L357.640911,124.148844L359.254631,123.711994L360.348778,124.225978L361.857534,124.021838L363.587763,123.464485L365.029863,123.429138L366.218368,123.834707L367.183448,124.611878L367.243527,126.838493L367.551048,128.625354L367.932761,130.261984L368.521513,131.551196L369.517759,132.205651L370.502452,132.877401L371.919148,132.915625L372.720785,133.860935L374.434011,133.501248L375.518163,134.054315L376.364884,134.939707L377.581548,135.316159L378.282454,136.394470L378.845162,137.645282L379.517218,138.738473L380.248198,139.745551L380.381538,141.501952L380.980038,142.648579L381.583462,143.777642L381.707315,145.477952L382.269621,146.626769L383.322251,147.185812L384.103373,148.066161L384.639266,149.224475L385.768786,149.700337L386.120884,151.051532L386.997785,151.809519L387.920361,152.518561L388.821414,153.252746L390.199374,153.485480L391.406303,153.911774L393.738581,153.194203L395.409693,153.187912L397.033505,153.252001L398.510725,153.481884L399.811179,153.900574L400.714327,154.711787L401.857729,155.298055L402.111284,156.720505L402.010396,158.453396L402.781491,159.373859L403.079528,160.715574L404.219202,161.304320L405.130237,162.100032L405.874954,163.041078L405.991730,164.510946L407.036390,165.193606L407.439833,166.408622L407.618885,167.796820L408.586753,168.543346L408.449594,170.163135L409.502286,170.841990L410.532104,171.545603L411.358829,172.408838L412.642031,172.936043L413.328951,173.911360L414.161133,174.781707L414.641255,175.904736L415.122741,177.022421L416.120490,177.780291L416.669663,178.849197L417.616117,179.650048L418.871499,180.253149L419.705826,181.141247L420.387255,182.130592L421.421713,182.898562L422.016748,183.946328L421.953191,185.394925L422.648381,186.374963L422.691242,187.741889L422.570952,189.193078L423.587841,189.980222L424.132467,191.041096L425.391318,191.705667L426.285831,192.581079L426.216733,193.978583L427.230513,194.794206L427.663010,195.919040L428.577407,196.796401L429.319275,197.766597L429.864357,198.837129L430.818499,199.710265L431.598559,200.673412L432.236776,201.707157L432.447584,202.938689L432.238355,204.354044L432.097158,205.727672L433.218066,206.544867L433.817319,207.594115L433.890250,208.864572L434.497226,209.910763L434.818750,211.073632L435.434446,212.119209L436.381778,213.040319L437.265527,213.993578L437.897426,215.046822L437.393365,216.512585L437.301318,217.818858L436.785285,219.263528L435.972699,220.793980L435.728596,222.118952L435.521486,223.422593L435.292114,224.724520L436.164177,225.680528L437.557770,226.488949L438.839829,227.345820L440.117790,228.218203L440.632251,229.315495L440.728898,230.527848L440.611059,231.792981L441.247114,232.860798L441.888450,233.932393L441.659551,235.216969L441.603578,236.454093L441.245694,237.754101L441.097736,238.999587L442.898275,239.831120L444.584929,240.708291L445.678452,241.722089L446.397431,242.818667L446.063667,244.112464L445.609363,245.419271L445.687810,246.628055L445.313234,247.907202L445.621291,249.074586L446.094557,250.219860L446.077131,251.436993L446.261795,252.625150L446.326541,253.828535L446.035145,255.072247L446.132432,256.267343L446.482536,257.436079L446.961547,258.595723L447.432704,259.761186L447.347695,260.977023L446.718036,262.230802L447.226851,263.397829L447.266002,264.599198L447.658804,265.781220L448.193339,266.961252L446.608667,268.231545L446.164319,269.442058L445.386522,270.654343L446.062613,271.828415L447.205610,273.006190L447.852890,274.201975L449.141914,275.408198L447.697237,276.606970L447.056872,277.798866L446.183344,278.976700L445.576706,280.150811L446.011452,281.355671L445.525940,282.526591L446.206048,283.751049L445.791532,284.922258L445.818130,286.117350L446.684267,287.374407L446.083003,288.528753L446.159065,289.734302L446.388446,290.956631L445.663695,292.088206L445.764360,293.299717L445.508636,294.473735L445.480649,295.673677L446.101406,296.958513L446.155017,298.177494L446.595987,299.454727L445.148122,300.458029L443.855225,301.467536L442.877333,302.512854L441.806851,303.531094L440.927292,304.570865L440.447011,305.674988L439.959412,306.773861L439.133547,307.801285L439.586790,309.084955L440.897976,310.562562L440.377898,311.656956L439.302256,312.620274L438.695749,313.682528L436.139043,314.264623L436.540844,315.555791L437.985474,317.126622L438.896465,318.581365L439.686511,320.021146L439.393212,321.173158L438.395157,322.122344L438.027229,323.247912L438.536784,324.639342L439.261630,326.110763L439.926220,327.579474L439.271011,328.633088L438.573569,329.668245L437.715913,330.643709L437.029635,331.671801L436.913748,332.899302L436.142802,333.891911L435.073104,334.767276L434.980272,336.004778L434.272162,337.008030L433.871535,338.129031L433.300819,339.181697L431.983789,339.923700L432.000349,341.214034L431.547131,342.310208L431.647323,343.649162L431.725017,344.987662L431.643709,346.263258L431.790420,347.651479L431.326137,348.762437L429.682034,349.307460L427.880742,349.756311L426.483680,350.384227L426.111425,351.515905L427.053273,353.327324L427.024829,354.656535L427.305176,356.159628L426.890439,357.301201L426.445281,358.428865L426.689871,359.945243L426.138373,361.023796L425.287024,361.929780L423.934619,362.536692L423.461224,363.654592L422.680197,364.588584L422.127518,365.660287L422.383060,367.239319L421.515867,368.122157L421.000668,369.227891L420.581733,370.399481L419.705984,371.272033L419.374235,372.507864L418.485787,373.369076L417.633402,374.251212L416.898237,375.212796L415.872083,375.965039L415.873600,377.457897L416.001950,379.059572L414.823887,379.701332L414.191246,380.747702L412.956706,381.332421L412.016244,382.136115L411.874435,383.568933L411.203060,384.589584L410.204485,385.345294L408.816796,385.773549L407.563767,386.300398L406.186174,386.709823L405.225642,387.465019L405.041532,388.895919L404.628803,390.138732L404.102877,391.289265L403.170293,392.075492L401.627707,392.293677L400.644168,393.018195L400.245090,394.295162L399.474616,395.224867L398.911620,396.359564L397.921939,397.078190L396.928265,397.788926L396.324266,398.893693L395.632623,399.915055L395.139550,401.150053L394.908980,402.675829L394.391126,403.910965L393.347595,404.581966L392.492937,405.458352L391.050713,405.674790L390.006529,406.328944L389.212152,407.268226L388.215759,407.974355L386.990011,408.404925L385.875364,408.959722L385.066680,409.883227L383.960564,410.441551L383.085064,411.284872L381.741105,411.531630L380.650796,412.093080L379.648593,412.765437L378.672122,413.470517L378.410911,415.144444L377.388781,415.800201L376.508173,416.651758L375.714410,417.630629L374.447841,417.938259L373.549429,418.771390L372.784158,419.806145L371.739210,420.431243L370.827326,421.257951L369.847610,421.984464L368.366243,421.923623L367.129074,422.230835L365.865933,422.485384L364.649106,422.804324L363.868047,423.843391L363.070521,424.867947L362.212955,425.802015L360.715955,425.623121L359.036361,425.092578L357.555309,424.885468L355.896629,424.324294L354.919922,425.005144L353.815823,425.447073L351.999650,424.502758L350.793379,424.711656L349.910936,425.560195L349.311360,426.998941L349.074240,429.225430L348.638998,431.094091L347.697826,431.920507L346.546844,432.297560L345.475685,432.848846L344.129392,432.774504L343.192420,433.630888L342.217723,434.412739L340.867615,434.299117L339.766571,434.776918L338.597447,435.084451L337.304747,435.068903L336.407257,436.071103L335.555661,437.220794L334.240528,437.133458L333.308325,438.095167L332.307824,438.886515L331.016023,438.843765L329.866267,439.205995L328.721941,439.583927L327.499084,439.715661L326.570358,440.781406L325.632959,441.854131L324.558974,442.502228L323.239446,442.314599L321.951976,442.213029L320.707812,442.246375L319.414075,442.077206L318.340715,442.733330L317.193418,443.115829L315.886081,442.846720L314.616157,442.701417L313.403239,442.778130L312.174948,442.772859L311.011462,443.052008L309.866165,443.421024L308.746862,443.929344L307.537079,443.988289L306.200536,443.350221L304.924888,442.984855L303.615814,442.375783L302.292425,441.608619L301.319742,442.992596L300.155297,443.208823L299.038478,443.763524L297.920184,444.347974L296.621556,443.573414L295.567962,444.712693L294.451349,445.423112L293.357788,446.424513L292.201439,446.921328L291.013585,447.136480L289.797856,447.044487L288.615693,447.342727L287.451642,447.932099L286.244359,447.964681L284.995225,447.264965L283.747458,446.381482L282.523483,445.738810L281.303321,444.937521L280.127804,445.227197L278.946244,445.408745L277.770097,446.057082L276.580844,446.234733L275.390218,446.829161L274.196436,446.340158L273.009479,445.842886L271.810096,446.374865L270.628784,445.898600L269.438494,445.889023L268.280704,445.046695L267.173846,443.347378L266.082307,441.790776L264.968303,440.950976L263.780597,441.363584L262.583878,441.805075L261.255658,443.770560L259.911598,445.588554L258.576026,447.035017L257.242538,448.247222L255.977143,448.666217L254.681894,449.274644L253.618113,447.925506L252.479757,447.276639L251.439849,445.963947L250.348989,445.115331L249.063995,445.607036L247.863316,445.508792L246.642240,445.525417L245.567046,444.683378L244.524416,443.711639L243.355411,443.470845L242.453941,441.859946L241.169325,442.242028L239.839360,442.797818L238.629829,442.744491L237.074854,444.219514L235.962711,443.671296L234.894107,442.957731L233.696085,442.795887L232.642786,442.055946L231.386272,442.119954L230.006904,442.621289L228.924348,442.002760L227.626650,442.159108L226.425829,441.957347L225.425770,441.076123L224.197774,440.966107L223.077437,440.501110L221.892256,440.242798L220.704250,439.987876L219.573088,439.558550L218.270137,439.629711L217.096480,439.313376L216.093960,438.518209L214.849208,438.397514L213.902512,437.471695L212.988189,436.482285L211.687703,436.500651L210.806546,435.452468L209.842413,434.631362L208.833740,433.931581L207.587392,433.800885L206.766662,432.673816L205.801952,431.897641L204.732001,431.366557L204.150021,429.771038L202.614831,430.259886L201.010452,430.859042L199.508484,431.206956L197.882231,431.777046L196.580167,431.661260L195.429177,431.234143L194.435614,430.498882L193.506710,429.646769L192.638902,428.690101L191.577081,428.102105L190.810231,426.981856L189.858638,426.206963L189.118661,425.068132L188.201852,424.250559L187.056940,423.825733L186.544344,422.341789L185.449276,421.839908L184.363497,421.319288L183.147488,421.002296L181.285371,421.686817L179.926402,421.555338L178.970460,420.796041L178.034377,420.009756L177.259052,418.989950L176.287515,418.264934L175.464625,417.328473L174.512502,416.581210L173.741315,415.584132L172.794705,414.835518L171.444022,414.632818L170.279146,414.168332L168.781939,414.131600L167.601710,413.665618L167.079346,412.354362L166.562220,411.052357L165.900774,409.944270L165.439741,408.601580L164.800226,407.489711L163.606591,407.044316L163.283463,405.572296L162.451028,404.706521L161.716078,403.732251L161.247273,402.464894L160.253724,401.790502L160.176985,400.113702L159.411085,399.201598L159.072755,397.839389L158.747764,396.478515L156.355300,397.263334L154.814425,397.138476L152.907534,397.360893L151.356331,397.202322L151.126434,395.736625L150.081716,395.070703L150.110912,393.381234L149.244251,392.551729L148.236017,391.851465L148.091771,390.360810L146.947411,389.783384L146.254571,388.798187L145.550389,387.825339L144.379443,387.255618L143.582148,386.359845L142.781403,385.466427L142.343756,384.273161L141.722209,383.236791L140.796365,382.447097L139.904505,381.626515L139.382650,380.514677L139.722846,378.746467L138.435519,378.232028L138.391935,376.778508L136.195421,376.920217L134.010644,377.021567L133.446417,375.936091L132.072134,375.422674L132.414748,373.706669L131.638176,372.775173L131.199731,371.614545L130.655808,370.528452L130.067666,369.473606L129.076921,368.678599L127.921166,367.981252L126.874205,367.206272L126.044107,366.290558L126.118743,364.825258L126.507497,363.186702L126.328972,361.898603L126.215348,360.581137L125.536205,359.592673L124.743470,358.665799L123.123103,358.188412L122.239559,357.295237L121.493670,356.323555L120.920228,355.258842L121.489175,353.608879L120.521376,352.752003L120.521781,351.408786L119.780024,350.435476L119.168443,349.396290L118.993935,348.150560L118.136505,347.224953L117.705916,346.100420L116.174924,345.465176L116.055077,344.198239L116.359042,342.756283L116.548503,341.375059L117.281423,339.781277L116.382040,338.863968L114.987756,338.134569L113.397754,337.465459L112.171818,336.640044L111.324696,335.661549L111.400009,334.341737L111.886320,332.883768L112.054262,331.550228L111.119994,330.599394L109.597772,329.834986L108.637303,328.871049L108.981555,327.485628L109.886514,325.938093L109.811288,324.704696L109.301362,323.602917L107.813109,322.778126L107.315972,321.660141L108.189879,320.168325L109.064282,318.694135L108.667268,317.562833L107.622806,316.590918L106.936299,315.521538L105.404450,314.643803L105.717868,313.329813L106.114604,312.006058L106.081248,310.782958L106.387420,309.493539L106.261789,308.297251L106.365706,307.058859L105.863794,305.935995L105.874186,304.718985L105.831677,303.514010L105.155965,302.413470L104.746864,301.264873L104.456850,300.095527L103.778688,298.978900L104.235550,297.704108L104.069246,296.516471L104.134658,295.301069L104.494456,294.055685L104.701651,292.833222L105.066895,291.599984L104.195983,290.485577L103.992666,289.304615L103.049617,288.178893L102.138939,287.038996L102.146666,285.829990L102.275184,284.615421L102.924184,283.378239L100.933976,282.261021L98.426328,281.134729L95.288711,279.991577L94.495889,278.756397L96.899186,277.466281L98.736521,276.213765L101.345169,274.987006L101.699501,273.780701L102.324703,272.583003L102.820666,271.391067L102.412574,270.180443L102.575242,268.983581L101.946805,267.755285L102.288619,266.564906L102.800875,265.387993L102.098381,264.141007L101.966145,262.922948L101.618133,261.685292L102.250703,260.523637L102.642012,259.347529L102.842235,258.156688L103.013382,256.963965L102.049780,255.644892L101.803862,254.395715L102.112724,253.210961L102.504033,252.039405L103.150874,250.906953L104.002988,249.811541L104.540760,248.677213L104.752799,247.495314L104.726484,246.273498L104.905942,245.084631L104.220599,243.737041L104.516038,242.563066L105.297864,241.486150L105.351544,240.268097L106.159984,239.207318L106.107932,237.965990L106.040611,236.716681L106.639855,235.618405L107.331256,234.547137L108.344830,233.562013L108.806859,232.446386L109.276336,231.335180L108.944765,230.009406L109.189695,228.834508L109.358801,227.636782L109.680502,226.481422L110.477124,225.468799L110.288339,224.158874L110.562785,222.987197L110.001165,221.543309L110.851896,220.553520L111.483462,219.496630L112.121777,218.445889L113.320496,217.597929L112.983618,216.205239L113.807059,215.231028L114.250383,214.119308L114.293270,212.853046L115.229774,211.933288L115.742214,210.850721L116.608881,209.914777L117.169530,208.857321L117.541787,207.721008L117.750296,206.511795L118.345101,205.469595L119.231567,204.561131L120.066295,203.635479L120.544162,202.548135L120.928133,201.415496L121.185474,200.219101L120.925389,198.762147L121.135980,197.528476L121.834740,196.539140L122.440030,195.503781L123.107541,194.502317L123.990696,193.618976L123.672773,192.083218L124.067935,190.928456L124.765582,189.941486L125.242099,188.829219L126.093760,187.934014L127.187070,187.186957L128.358465,186.496106L129.756107,185.954510L130.835777,185.229814L131.199987,184.061450L131.310508,182.724932L131.694493,181.556272L131.754223,180.167660L131.878250,178.810238L131.993605,177.435875L132.665912,176.435690L133.744107,175.720493L134.601433,174.855806L135.899404,174.313441L136.271130,173.103415L136.983767,172.140227L138.231593,171.581651L138.657206,170.403864L139.783207,169.764480L140.411068,168.740605L141.134458,167.790710L142.456452,167.326576L143.112669,166.327082L143.843531,165.387630L143.932596,163.903410L143.637838,162.072862L143.823998,160.635429L144.379730,159.509814L145.419489,158.812043L147.665060,159.216498L148.768189,158.604144L149.910185,158.035677L151.171897,157.589277L151.099996,155.872382L152.155997,155.231011L152.512579,153.904205L153.279003,152.974875L154.595994,152.602909L155.659802,151.983124L157.080724,151.742578L157.890070,150.870197L158.705850,150.003115L159.257577,148.846597L159.962369,147.849319L161.258027,147.508755L162.098673,146.663796L162.978340,145.862140L163.514281,144.657996L163.561876,142.862561L164.588260,142.215033L165.832251,141.836421L167.382624,141.847869L168.974261,141.933076L169.918519,141.217944L170.913518,140.568818L171.722842,139.678610L172.734920,139.052916L173.140167,137.611261L173.295038,135.805307L174.288317,135.131173L175.112430,134.219420L176.467268,134.060327L178.074760,134.283889L179.428644,134.160894L180.362672,133.426304L181.701052,133.303498L182.607999,132.531633L183.433699,131.628564L184.640211,131.322731L185.451632,130.389006L186.362789,129.609071L187.518494,129.231437L188.058397,127.818742L188.632601,126.438963L190.041262,126.492461L190.482222,124.847937L191.977600,125.072583L193.567392,125.497369L194.651339,125.011299L195.604095,124.278673L196.442424,123.318930L197.335654,122.452701L198.097288,121.312073L199.615757,121.689211L201.163295,122.158794L202.164657,121.513006L203.324581,121.202370L204.646554,121.252841L205.446956,120.162449L206.854228,120.425609L207.931833,119.955008L208.988270,119.434378L209.914219,118.597768L210.886405,117.859131L212.079258,117.660423L212.774608,116.201955L213.818750,115.609269L214.771361,114.765984L215.732755,113.928258L216.957017,113.801911L218.396134,114.297947L219.345125,113.411390L220.511139,113.146387L221.818765,113.317304L222.712258,112.224984L223.988699,112.318263L224.804132,110.927076L225.668643,109.647226L226.890628,109.547937L228.040057,109.205039L229.284977,109.207578L230.582646,109.424668L231.628980,108.708207L232.719990,108.143732L233.757034,107.343609L234.869914,106.829546L236.064015,106.651725L237.138430,105.945603L238.445805,106.284839L239.485284,105.385963L240.433961,103.991011L241.706460,104.171752L242.954010,104.251318L244.405337,105.484120L245.951078,107.381635L247.319329,108.392080L248.664243,109.364006L249.827217,109.246502L250.893837,108.469038L251.983704,107.797500L253.033197,106.761200L254.134313,106.041634L255.231374,105.217515L256.356572,104.562071L257.530671,104.312062L258.714465,104.144817L259.958020,104.645799L261.133036,104.408157L262.296740,103.991618L263.486555,103.894864L264.666566,103.631683L265.891617,104.163130L267.092564,104.353631L268.262388,103.840524L269.455973,103.860246L270.650229,103.938280L271.837359,103.712155L273.026081,103.377193L274.221774,103.592664L275.417519,102.516134L276.624342,101.860583Z" />
<line x1="50" y1="550" x2="100" y2="550" fill="none" stroke="black" stroke-width="1.0" stroke-linejoin="round" stroke-miterlimit="10" />
<text x="125" y="553" style="text-anchor:start;fill:black">GC-content</text>
</g>
<g style="fill:pink;stroke:black">
<a href="" title="LN890280:1 [144000-166099];"><path  d="M385.505574,73.286049L389.009137,75.245359L392.477972,77.265516L395.911022,79.345905L399.307242,81.485893L388.497916,98.313206L388.497916,98.313206L385.397020,96.359305L382.262496,94.459819L379.095299,92.615328L375.896393,90.826392Z" />
</a><a href="" title="LN890280:2 [390000-412099];"><path  d="M499.780886,226.280872L500.596917,230.211260L501.344228,234.155291L502.022594,238.111763L502.631805,242.079472L482.837735,244.942126L482.837735,244.942126L482.281498,241.319436L481.662122,237.707004L480.979793,234.105933L480.234722,230.517318Z" />
</a><a href="" title="LN890280:3 [820000-842099];"><path  d="M340.253604,495.549240L336.394551,496.654481L332.516796,497.692205L328.621521,498.662094L324.709912,499.563854L320.387311,480.036563L320.387311,480.036563L323.958780,479.213217L327.515335,478.327665L331.055894,477.380179L334.579378,476.371045Z" />
</a><a href="" title="LN890280:4 [1288000-1310099];"><path  d="M51.037345,327.351973L50.157788,323.435312L49.346719,319.503898L48.604387,315.558927L47.931018,311.601601L67.676146,308.418853L67.676146,308.418853L68.290962,312.032064L68.968744,315.633994L69.709284,319.223546L70.512358,322.799628Z" />
</a><a href="" title="LN890280:5 [1337500-1361599];"><path  d="M45.378135,288.183289L45.183027,284.173827L45.057924,280.161570L45.002864,276.147742L45.017863,272.133563L65.016309,272.382819L65.016309,272.382819L65.002615,276.047938L65.052887,279.712738L65.167112,283.376103L65.345254,287.036916Z" />
</a><a href="" title="LN890280:6 [1618000-1636099];"><path  d="M135.460698,92.164600L138.672869,89.757151L141.926565,87.406127L145.220798,85.112247L156.505946,101.624226L156.505946,101.624226L153.498168,103.718638L150.527402,105.865224L147.594551,108.063331Z" />
</a></g>
<text x="275" y="280" style="text-anchor:middle" font-size="25" font-weight="bold">LN890280</text>
<path  style="fill:pink;stroke:black" d="M350,550L375,550L375,565L350,565Z" />
<text x="405" y="565" style="text-anchor:start;fill:black">Selected loci;</text>
</svg>