<svg xmlns="http://www.w3.org/2000/svg" viewbox="0 0 550 650">
<circle cx="275" cy="275" r="240" fill="none" stroke="black" stroke-width="1.0" />
<line x1="275" y1="15" x2="275" y2="55" fill="none" stroke="grey" stroke-width="1.0" stroke-linejoin="round" stroke-miterlimit="10" />
<line x1="495" y1="275" x2="535" y2="275" fill="none" stroke="grey" stroke-width="1.0" stroke-linejoin="round" stroke-miterlimit="10" />
<line x1="275" y1="495" x2="275" y2="535" fill="none" stroke="grey" stroke-width="1.0" stroke-linejoin="round" stroke-miterlimit="10" />
<line x1="15" y1="275" x2="55" y2="275" fill="none" stroke="grey" stroke-width="1.0" stroke-linejoin="round" stroke-miterlimit="10" />
<text x="275" y="10" style="text-anchor:middle" font-size="15">Candidatus Methanoliparum sp. LAM-1 DNA, complete genome.</text><text x="285" y="25" style="text-anchor:start">1,254,503</text><text x="525" y="265" style="text-anchor:start">0.31 Mbp</text><text x="285" y="530" style="text-anchor:start">0.62 Mbp</text><text x="-200" y="25" style="text-anchor:end" transform="rotate(-90)">0.94 Mbp</text><circle cx="390.241233" cy="64.478129" r="2.500000" fill="grey" stroke="black" stroke-width="1.0" />
<circle cx="477.173333" cy="145.671181" r="2.500000" fill="grey" stroke="black" stroke-width="1.0" />
<circle cx="514.441337" cy="258.633996" r="2.500000" fill="grey" stroke="black" stroke-width="1.0" />
<circle cx="492.890320" cy="375.617137" r="2.500000" fill="grey" stroke="black" stroke-width="1.0" />
<circle cx="417.814313" cy="467.883571" r="2.500000" fill="grey" stroke="black" stroke-width="1.0" />
<circle cx="307.655816" cy="512.767949" r="2.500000" fill="grey" stroke="black" stroke-width="1.0" />
<circle cx="189.475383" cy="499.244376" r="2.500000" fill="grey" stroke="black" stroke-width="1.0" />
<circle cx="92.304164" cy="430.634931" r="2.500000" fill="grey" stroke="black" stroke-width="1.0" />
<circle cx="40.012373" cy="323.793598" r="2.500000" fill="grey" stroke="black" stroke-width="1.0" />
<circle cx="45.445544" cy="204.966066" r="3.000000" fill="black" stroke="black" stroke-width="1.0" />
<circle cx="107.269014" cy="103.342445" r="2.500000" fill="grey" stroke="black" stroke-width="1.0" />
<circle cx="210.295779" cy="43.886686" r="2.500000" fill="grey" stroke="black" stroke-width="1.0" />

<circle cx="275" cy="275" r="185" fill="white" stroke="grey" stroke-width="0.5" />
<circle cx="275" cy="275" r="170" fill="none" stroke="black" stroke-width="0.5" />
<circle cx="275" cy="275" r="170" fill="aliceblue" stroke="black" stroke-width="0.5" />
<circle cx="275" cy="275" r="157" fill="white" stroke="none" stroke-width="0.5" />
<circle cx="275" cy="275" r="140" fill="none" stroke="black" stroke-width="0.5" />
<circle cx="275" cy="275" r="140" fill="aliceblue" stroke="black" stroke-width="0.5" />
<circle cx="275" cy="275" r="133" fill="white" stroke="none" stroke-width="0.5" />
<circle cx="275" cy="275" r="110" fill="none" stroke="black" stroke-width="0.5" />
<circle cx="275" cy="275" r="110" fill="white" stroke="black" stroke-width="0.5" />
<circle cx="275" cy="275" r="109" fill="aliceblue" stroke="none" stroke-width="0.5" />
<circle cx="275" cy="275" r="80" fill="none" stroke="black" stroke-width="0.5" />

<g style="fill:none;stroke-linejoin:round;stroke-miterlimit:10">
<path style="stroke:blue;stroke-width:1.0" d="M278.138428,118.346447L279.775384,116.125448L281.378249,115.889809L282.624615,122.886366L284.293034,120.558900L285.653420,123.310398L286.994086,125.644369L288.570645,124.874965L290.729030,118.498423L293.152307,110.922767L294.777486,111.257274L295.963166,114.926591L297.505246,115.571764L298.958725,116.745526L299.254631,124.961615L300.520069,126.586065L302.517577,124.039506L305.583769,116.248986L305.512008,124.740180L306.465003,127.632128L307.872493,128.254208L309.428631,128.216278L311.970603,124.189949L314.548690,120.387494L315.130279,124.413107L315.223253,129.920631L316.880203,129.616643L319.584315,125.862338L320.240377,129.012798L320.938695,131.847015L324.635475,125.491449L332.567077,107.239036L334.330116,107.582856L336.420340,107.047439L334.243275,117.897422L335.078124,120.392405L336.423194,121.503244L337.806749,122.492669L338.561642,124.946279L340.174702,125.330576L339.029508,131.893883L339.829297,133.914503L343.167771,130.482506L344.682704,131.026415L348.798241,126.339293L346.451278,134.615653L348.402452,134.286835L350.328532,134.055716L351.403913,135.425040L355.167573,131.970048L353.538045,138.110622L353.438649,141.402221L354.811353,142.130684L356.961370,141.597122L359.122261,141.105755L363.320885,137.500035L363.776173,139.789178L360.354711,147.796018L359.797586,151.322115L362.008505,150.783911L367.989494,145.035404L370.943374,143.706260L366.356353,152.576726L366.151511,155.370219L368.977016,154.191622L370.968331,154.149355L371.549070,155.887765L373.093724,156.430099L374.275731,157.419546L379.165454,154.106036L380.721295,154.757332L376.857907,161.465256L376.644113,163.961587L380.550958,161.987712L387.958365,156.459625L384.178812,162.700169L381.092369,168.039693L383.691308,167.593026L388.946379,164.634002L390.010684,165.814621L385.160157,172.497773L386.011386,173.761401L387.046960,174.854286L388.319773,175.740533L400.019123,167.686769L400.620925,169.337141L396.190098,175.119599L396.552985,176.848491L401.090732,175.254272L398.768239,179.091353L395.312914,183.682967L395.630675,185.331944L396.406605,186.629369L397.543796,187.665981L398.868319,188.579821L399.367096,190.071221L399.692662,191.668036L400.776517,192.754245L401.462545,194.102378L402.505181,195.223881L403.853449,196.165181L405.385181,197.012126L406.645838,198.037960L406.682200,199.776339L408.804844,200.331431L409.845959,201.512049L413.034935,201.557811L414.240507,202.696562L415.399813,203.870995L414.518346,206.065008L413.451476,208.309143L414.284632,209.618564L418.149147,209.546280L417.750346,211.449691L419.069285,212.584059L417.573044,214.921222L413.727159,218.171400L414.920634,219.312650L420.319470,218.843556L422.862335,219.556717L417.207618,223.295793L416.856504,225.026488L421.920996,224.890948L426.595434,224.986136L425.621585,226.974971L426.276690,228.430228L427.533644,229.710925L428.761521,231.017452L429.148735,232.572425L422.120723,236.087847L421.485868,237.821664L427.500752,237.917011L429.974543,238.955702L423.453474,242.036296L424.484037,243.375240L431.632524,243.498711L438.782807,243.764274L429.130139,247.202257L422.951547,249.844111L424.549091,251.111257L434.395023,251.173324L436.047029,252.573225L436.608846,254.142976L437.406673,255.691855L434.557382,257.649605L430.890794,259.626671L426.830414,261.561303L425.169957,263.223019L426.605129,264.637288L432.064106,265.843784L432.104682,267.419618L434.217489,268.915551L435.668858,270.471297L433.101230,272.128235L430.320825,273.734871L426.781063,275.284124L426.102354,276.796531L426.443807,278.318051L425.825773,279.816442L424.766062,281.284870L425.931750,282.849023L430.453864,284.646450L431.255289,286.268449L431.631458,287.873909L433.538435,289.630828L435.268527,291.411128L436.902454,293.218959L430.745791,294.107846L424.052081,294.804066L424.424344,296.378818L425.055674,298.005276L424.736056,299.493850L423.949590,300.899720L424.784076,302.593324L424.420782,304.076856L427.867128,306.339921L425.342871,307.394978L424.804562,308.852701L424.341707,310.324077L425.238228,312.129095L431.261103,315.282604L428.443105,316.199637L424.755900,316.822263L422.596267,317.817450L420.267716,318.724201L421.896390,320.824094L423.255753,322.882903L422.248937,324.191924L417.808989,324.304221L416.931904,325.598183L417.372231,327.368365L416.231580,328.560922L415.784865,330.010785L422.315525,334.270306L429.166618,338.828336L434.921556,343.095414L422.523143,339.569313L413.802927,337.416670L411.044480,337.822047L411.030328,339.476429L410.615313,340.951365L409.963315,342.314190L408.810433,343.421455L411.510221,346.535830L409.752677,347.344451L406.736128,347.434158L408.211811,349.993039L411.073721,353.409460L418.219850,359.449406L411.240940,357.184514L410.965394,358.887219L407.885371,358.836227L404.640347,358.616064L403.537681,359.739975L401.185030,360.014441L399.428725,360.655702L401.026744,363.629395L400.228983,364.956549L400.903399,367.366880L399.727099,368.440038L394.371413,366.308811L393.680545,367.679368L393.263825,369.276128L391.828697,370.061518L391.901050,372.082744L390.640800,373.009914L389.870684,374.351412L387.558850,374.340134L387.672665,376.466320L386.949027,377.864026L384.282693,377.451804L383.713382,378.983628L382.477653,379.883244L382.089499,381.619476L381.350309,383.026264L379.857130,383.665641L378.345454,384.268644L377.047399,385.084393L380.017719,390.589742L377.247695,389.831218L375.418808,390.077827L374.727505,391.623411L373.559429,392.622632L372.223923,393.418420L374.192621,398.314505L374.553883,401.334175L369.283589,397.143318L365.709501,394.978804L367.307119,399.668412L372.603651,409.620866L368.561643,406.804201L363.160339,401.868642L360.493361,400.699131L358.025465,399.739531L356.749528,400.530721L355.626413,401.560556L355.244291,403.789707L353.372802,403.639313L351.940709,404.183517L350.543164,404.776510L349.289490,405.614730L349.178255,408.513718L349.769306,412.811317L348.645950,414.045809L346.110141,412.572373L342.850669,409.553804L341.413304,410.051503L340.864890,412.394866L340.670008,415.583861L342.260140,422.831943L339.415551,420.426960L336.574193,417.859865L334.746867,417.531388L331.826337,414.466319L330.724423,415.781276L329.083812,415.740043L328.150179,417.559101L326.653222,417.900929L325.474392,419.139874L324.310806,420.472449L322.371844,419.497054L321.378582,421.405437L320.323487,423.215700L318.784556,423.485903L317.210294,423.618797L315.444179,423.026526L313.164560,420.396143L311.864350,421.399056L311.351130,425.721007L310.617783,429.452247L308.780811,428.492394L307.632743,430.689161L306.681525,434.070659L305.594820,437.072531L303.190580,433.003301L301.305146,431.485218L299.565478,430.658215L297.687050,428.741563L295.547557,424.604583L294.204291,426.032358L292.889433,427.917961L291.228001,426.884188L289.665811,426.625822L288.116464,426.421119L286.892545,430.379571L285.480560,432.672692L283.908505,432.908979L282.274160,431.865729L280.591852,428.885855L279.018203,427.721022L277.456538,425.808723L275.945121,425.719368L274.430124,427.113775L272.914920,426.485257L271.365533,427.805856L269.794631,428.958221L268.070498,433.054579L266.621868,430.486108L265.041201,430.763622L263.224113,434.133444L261.399928,436.752055L259.962468,434.674073L258.744108,430.868797L257.720876,426.002956L256.230120,425.654143L254.694012,425.666106L253.487690,423.373194L252.024184,423.010821L250.297721,424.253654L248.814744,423.937105L247.378272,423.376757L246.107830,422.001580L244.331300,423.180810L241.150112,430.677299L239.230222,431.919333L239.195570,425.115795L238.778891,420.393521L236.091997,424.766948L231.289832,436.583312L231.438784,429.861618L231.779552,422.948479L231.140185,419.734719L229.753954,419.092731L228.270282,418.763298L227.039219,417.673270L223.844633,422.275322L222.932578,420.192226L219.254222,425.681935L219.302888,421.038165L220.065827,414.815120L218.685365,414.215099L215.620941,417.662944L212.042593,422.089474L211.480264,419.387732L209.930774,418.979581L209.575471,415.985372L207.707961,416.285748L206.284655,415.628028L205.145027,414.402682L203.335114,414.507807L202.570713,412.587279L201.864307,410.615908L201.578723,407.940580L200.671836,406.453766L199.320006,405.769694L197.177074,406.418197L193.111789,410.176214L192.180024,408.674237L194.109037,402.685963L193.142815,401.392585L191.797089,400.692855L189.966216,400.704617L188.884895,399.595401L187.353822,399.133510L186.986775,397.040243L185.099433,397.061238L183.393427,396.803254L183.257657,394.473448L181.216685,394.631261L180.506162,393.082152L179.869954,391.466305L179.027296,390.124667L176.886090,390.324542L175.876758,389.173632L175.326413,387.510886L173.794172,386.960659L172.524057,386.107925L171.466433,385.022534L169.432347,384.956096L168.604652,383.619094L166.142566,383.928198L164.447298,383.430234L162.432561,383.215444L163.190574,380.352155L162.426577,378.963054L161.779323,377.478587L162.019842,375.220434L161.060425,374.049966L158.510636,374.235464L154.288886,375.762830L156.217777,372.150455L156.774194,369.734891L155.009337,369.191024L153.308275,368.571509L146.558452,371.729888L138.178278,375.909174L136.259291,375.194418L137.910860,371.927241L140.089180,368.374301L146.543082,362.017329L144.895174,361.245083L146.633279,358.254178L147.179848,356.092424L146.454804,354.757846L145.771186,353.400189L144.570851,352.351761L141.248457,352.521745L137.783869,352.704112L137.408037,351.106902L138.728668,348.603505L139.026292,346.692754L138.540010,345.211346L139.802738,342.857584L140.266239,340.943715L138.976715,339.894097L131.722468,341.601405L125.925576,342.488454L119.227961,343.648829L117.047708,342.728408L120.047952,339.612192L125.899855,335.426065L128.244099,332.771367L127.438072,331.388125L129.990501,328.754381L133.658645,325.790148L132.395627,324.636812L128.597395,324.320342L123.464832,324.364838L129.977146,320.641668L131.113585,318.704861L130.457256,317.327492L130.406145,315.774403L129.891441,314.354773L127.288113,313.476605L128.132812,311.689618L127.959792,310.171872L128.502972,308.494175L127.583909,307.153944L125.863374,305.967606L124.982702,304.586157L121.341659,303.708273L123.175593,301.794610L126.791296,299.628297L125.875668,298.247921L125.865717,296.721621L124.804022,295.342013L121.811355,294.186755L121.957118,292.613316L121.745005,291.083976L122.890672,289.424843L125.413416,287.675104L125.322175,286.173976L122.532351,284.847561L124.494878,283.207833L125.110676,281.669114L124.573913,280.183815L123.024942,278.713526L124.988990,277.162292L124.189193,275.663001L123.288161,274.147250L121.202975,272.594756L113.943190,270.867210L121.472083,269.521054L124.909637,268.137770L123.955984,266.577250L117.384935,264.626146L116.029477,262.936516L120.265515,261.697827L125.392203,260.627507L124.616808,259.031208L118.792481,256.828625L118.074711,255.150021L120.530352,253.886514L112.897099,251.186726L115.792129,249.980354L124.054622,249.726954L126.317087,248.572028L121.492310,246.125285L120.136805,244.261077L124.006903,243.453981L124.115024,241.895821L124.999573,240.511486L124.076615,238.703827L125.372901,237.426190L129.169940,236.822823L128.741001,235.140874L129.725506,233.841549L130.941520,232.622711L131.489889,231.217415L126.736750,228.138892L121.945604,224.932851L128.851880,225.566026L129.477527,224.147595L129.627495,222.560187L128.648379,220.544161L127.613283,218.471889L130.092518,217.751226L130.612401,216.277840L133.344320,215.728417L134.418927,214.516290L136.315517,213.678743L138.154101,212.845565L139.093443,211.622428L139.417137,210.112079L140.520699,208.976575L141.180881,207.628847L139.496803,205.070948L139.426906,203.306162L142.615296,203.286209L141.204918,200.779168L138.609357,197.542618L144.379848,199.079353L146.163040,198.379079L144.067440,195.346674L146.700026,195.176541L145.516670,192.629857L139.492064,186.878351L141.731070,186.422364L140.913796,183.929621L140.164549,181.433444L140.050385,179.337401L132.060353,171.506668L133.868901,170.645487L137.683995,171.322950L139.527434,170.567861L140.415493,169.086386L140.103861,166.635569L142.509412,166.366601L152.022456,172.089490L155.973851,173.351692L161.176660,175.806097L162.369269,174.842805L163.293868,173.643126L162.674235,171.010506L164.427322,170.557250L164.680519,168.685353L164.535120,166.390181L167.687247,167.354167L170.304104,167.853718L167.888972,163.162558L167.393466,160.368279L168.821042,159.593886L174.012213,163.005164L175.823938,162.774139L176.020098,160.709055L175.669745,157.955639L174.811313,154.518352L173.553711,150.489914L176.277556,151.323511L180.758391,154.480464L182.748243,154.558115L184.014624,153.713808L183.278029,150.145865L185.157805,150.101586L184.626348,146.670319L188.679048,149.779199L190.824373,150.235048L192.209430,149.596686L193.526854,148.862119L190.480313,141.224027L189.617607,136.812248L193.409122,139.941677L196.527234,142.113534L199.613417,144.368568L201.197411,144.101876L202.498403,143.343939L201.398831,138.120008L198.038612,128.368160L201.408144,131.308362L205.848572,136.578361L209.018174,139.545935L208.383695,134.690689L208.375780,130.967704L210.408129,131.609031L213.593361,134.950542L215.925649,136.514086L217.242035,135.751444L218.421949,134.639517L219.521764,133.290556L219.306370,128.432154L220.276659,126.523251L222.993591,129.417089L225.703234,132.512842L226.727016,130.813625L225.467617,121.977188L226.447141,119.711172L230.831441,128.600752L233.152893,131.098159L233.865497,128.075432L234.835440,125.799127L236.974415,127.889705L238.631368,128.248417L240.026841,127.569669L241.475941,127.096856L243.242446,128.079114L244.304201,125.767698L245.331268,123.064341L247.270424,125.023386L248.973223,125.893872L250.661785,126.819862L251.376416,121.576991L252.829113,120.754597L254.389321,120.645427L255.538875,117.223044L257.152351,117.319381L259.233951,122.012380L260.803966,122.257763L262.280104,121.464550L263.512887,117.142544L265.289876,120.148023L267.044080,123.905976L268.550423,123.656900L270.017656,122.093902L271.576420,123.243102L273.104787,123.860000L274.608945,119.929527L276.206934,113.975989L277.758064,117.522579Z" />
<line x1="50" y1="575" x2="100" y2="575" fill="none" stroke="blue" stroke-width="1.0" stroke-linejoin="round" stroke-miterlimit="10" />
<text x="125" y="578" style="text-anchor:start;fill:black">n1_4mer:GRV/n1_4mer:RV</text>
<path style="stroke:green;stroke-width:1.0" d="M276.921458,179.091110L277.958006,176.588660L278.752976,181.379216L279.497466,185.274030L280.694853,180.357128L281.371508,184.278754L282.122985,186.301461L283.204156,184.241660L285.031677,175.186263L287.068126,165.917185L287.859484,168.533132L288.283384,173.568923L289.230085,174.193402L290.364059,173.515840L289.852372,183.123691L290.549982,184.567876L291.588237,183.997493L293.480977,179.070887L293.105972,185.835102L293.867309,186.634041L294.813484,186.550810L296.101512,185.035388L297.935251,181.442791L300.402084,175.692541L300.608944,178.903699L299.141022,187.926875L300.462989,186.607527L302.666979,182.452013L302.371638,186.673841L301.721306,191.731751L304.266403,186.845760L308.551405,177.225085L310.316074,175.345444L311.374242,175.535440L312.172894,176.424130L312.425169,178.688483L313.398413,179.042245L314.497574,179.092001L314.126191,182.632491L314.988878,183.168167L314.479756,186.762642L315.293277,187.311296L316.752226,186.484167L317.939473,186.281430L320.718716,182.903271L317.219443,192.049084L318.875609,190.890061L321.784458,187.463422L322.959979,187.386527L324.430656,186.808926L324.300107,189.071442L323.878595,191.749309L324.777905,192.130134L326.013117,191.969462L328.454611,189.918302L333.082960,184.575126L333.043423,186.596787L329.287029,194.096132L326.396032,200.038520L330.337872,195.997906L336.005936,189.736478L338.275246,188.410971L330.845357,200.163700L329.619804,203.315448L329.709911,204.669871L331.827096,203.438985L332.483228,204.083151L331.492939,206.714671L335.968661,202.789776L336.462154,203.667296L338.291549,203.015025L336.206860,206.776478L336.666083,207.634524L340.815630,204.531906L345.972519,200.520265L342.395015,205.678411L339.137911,210.337379L340.998056,209.781800L344.705603,207.484661L347.625657,206.052841L340.954577,213.630343L342.232800,213.685979L342.045696,215.075669L346.403292,212.456169L358.273426,203.520211L354.355616,208.252034L352.216113,211.361332L352.228349,212.639713L353.177958,213.156300L351.842876,215.454059L348.335542,219.338609L346.623665,221.760185L347.556921,222.186556L347.509986,223.323875L348.954041,223.403905L350.413569,223.500990L350.670005,224.429822L353.264878,223.822291L352.932650,225.146772L352.223000,226.683914L350.863757,228.585212L350.091198,230.085364L353.426134,229.150960L359.085834,226.965837L360.451935,227.314329L357.124530,230.244017L359.779035,229.892884L364.369347,228.593167L366.877911,228.453041L364.260772,230.896907L360.265923,233.928156L361.732162,234.287158L362.930926,234.794338L362.486569,236.052294L363.429248,236.689303L359.448043,239.414484L357.575804,241.173406L359.502125,241.368796L368.114757,239.017254L368.560253,239.918128L363.244024,242.916014L363.764355,243.729904L366.200909,243.894908L372.522151,242.825815L370.492213,244.552729L368.651416,246.169880L370.313570,246.700254L367.236843,248.616212L366.441608,249.831804L360.890833,252.282621L362.515170,252.788517L368.817205,252.186851L370.017233,252.900697L361.482409,255.796808L366.346696,255.674743L371.898886,255.512095L376.843219,255.577040L371.165583,257.656305L363.398241,259.969834L364.605065,260.686624L375.343728,260.000426L376.790125,260.825108L377.299272,261.797391L374.404903,263.181986L376.792949,263.930955L373.743481,265.262311L367.615137,266.802520L364.563613,267.976032L362.442354,269.023026L366.121438,269.687981L366.780315,270.571552L367.753780,271.455442L372.115455,272.262649L368.796306,273.296275L369.279839,274.232066L368.500150,275.175026L366.309619,276.085626L366.505749,277.004841L365.092175,277.876987L365.816864,278.811092L366.914626,279.779909L374.227268,281.157395L374.280096,282.159647L371.493217,282.931005L376.033289,284.323927L379.815816,285.732898L382.032312,287.044396L377.296849,287.550403L364.127227,286.842045L363.897408,287.718955L365.967976,288.946446L364.353812,289.616512L365.036947,290.655845L366.784152,291.908539L367.507766,293.001746L373.370395,295.167321L366.640637,294.746174L366.410981,295.656972L369.537468,297.361126L369.801053,298.428640L374.217136,300.577220L373.967525,301.572886L369.365825,301.353502L364.909276,301.082543L366.153853,302.436443L370.551726,304.807208L372.706865,306.556876L372.196494,307.470744L363.373721,305.510667L360.201343,305.373955L361.504305,306.818628L360.680934,307.493794L359.012210,307.827234L367.877529,312.367953L374.910603,316.365165L379.498813,319.496127L370.886686,316.968584L363.225113,314.672922L357.668155,313.174153L354.943432,312.892042L354.268991,313.549468L356.440950,315.619420L357.061024,316.960365L362.490188,320.847726L358.631515,319.899115L354.332089,318.620176L358.651302,322.092411L360.133652,324.056377L360.738690,325.555712L359.034680,325.692173L359.331500,327.030408L357.522755,327.062890L358.148108,328.629272L352.926039,326.373656L350.463589,325.841965L353.374516,328.952367L353.783908,330.405463L352.498510,330.670008L352.040011,331.519090L350.281167,331.397328L344.977187,328.526499L345.608266,330.139025L344.278045,330.226236L346.254991,332.978971L347.218902,334.975588L348.405690,337.214074L348.712062,338.753406L343.189718,335.181636L343.310448,336.516339L343.078949,337.554137L341.516732,337.358997L341.890072,338.979910L338.605186,337.069817L338.880119,338.599744L338.564808,339.566515L336.497984,338.731649L334.289776,337.687938L336.525530,341.371124L339.270470,345.740511L336.320118,343.866724L335.787365,344.661033L332.291545,341.997920L334.746411,346.302464L332.420198,344.937613L338.834731,354.358204L340.335113,357.910454L335.960940,353.974204L330.006071,347.754921L332.280375,352.361892L337.974065,361.857644L335.744079,360.572725L330.290086,354.566144L328.605506,353.815073L324.541034,349.431685L323.106560,348.870165L322.819042,350.062306L321.997183,350.429084L321.951874,352.065725L321.512667,353.094808L320.057114,352.404157L319.078142,352.497564L320.522102,356.935402L320.493157,358.850877L318.914568,357.912050L317.269582,356.776335L315.105264,354.532242L314.579720,355.485390L314.052887,356.464740L314.921520,360.462475L317.086358,367.502157L315.771161,367.046499L312.959954,363.071862L311.677569,362.497555L309.214181,358.970324L309.601427,362.416484L308.678219,362.639419L308.327347,364.390418L307.078697,363.747137L306.837425,365.918232L305.532851,365.075359L302.663590,359.381499L302.797354,362.749207L303.021633,366.635622L302.173479,367.153008L301.341766,367.747080L299.617874,365.101925L298.283237,363.702525L297.465704,364.217846L296.859253,365.634007L295.813901,365.256988L295.161099,366.607490L294.955963,370.208888L295.033959,375.589069L294.351282,377.511183L293.099035,376.441943L291.022206,370.313607L289.667029,367.937070L288.522002,366.633497L287.035113,362.626383L286.502297,365.459946L285.896256,368.140644L284.922433,367.867917L283.879821,366.806047L283.032824,367.733774L282.700502,375.609309L281.781579,377.024117L280.757480,377.055034L279.695523,376.257963L278.542812,372.496977L277.511199,370.443882L276.459229,364.583151L275.556582,363.758726L274.668669,363.440401L273.792629,362.717942L272.913653,362.717416L271.866576,367.676684L270.811253,370.540865L269.852941,370.522025L268.867070,370.923950L268.040605,369.045786L266.883455,371.533889L265.997768,370.589028L265.227526,368.702872L264.701612,364.998029L263.513308,367.196527L263.093316,363.345062L261.967184,364.889025L260.680933,367.243811L259.494898,368.683385L258.940324,366.344597L258.222000,365.127064L257.686616,363.089432L255.909213,367.240241L253.075559,375.831583L251.508427,378.055770L251.735394,372.540580L252.917885,363.638821L251.587323,365.121438L249.428257,369.531025L249.120586,367.002206L249.457756,362.433988L248.336559,362.987731L247.285470,363.261023L246.084294,363.958751L246.640055,359.364891L245.202885,360.785324L245.024436,358.588139L241.334504,365.998498L240.441751,365.611939L241.171323,361.098695L240.681940,359.837488L237.314352,365.542787L234.790889,368.941877L235.090031,365.719991L233.599512,366.607435L233.080654,365.333315L231.221504,366.916929L230.338044,366.402040L231.879134,361.052061L230.473772,361.677824L231.067935,358.453718L229.896817,358.635073L230.679076,355.249889L230.991838,352.831044L231.734525,349.759690L229.351980,352.085002L227.142122,354.000953L224.342646,356.762679L226.173887,352.071764L227.073551,349.001419L224.002742,352.040465L222.441574,352.696610L223.977177,348.822230L222.139359,349.866664L221.789156,348.782824L221.450587,347.705967L222.803507,344.402255L222.538963,343.318519L221.670026,343.028434L219.145016,344.797955L218.425929,344.262796L217.458828,344.023879L215.047045,345.469590L215.367740,343.686532L215.191106,342.511884L215.489857,340.834102L212.981639,342.242430L213.351067,340.512781L211.547480,341.090239L210.271126,341.081758L208.099502,341.943987L205.653392,343.015244L202.836724,344.373356L205.362652,340.615619L204.245387,340.342827L205.246376,338.135577L208.237953,334.222093L205.044332,335.813870L200.921754,338.106097L196.351142,340.651631L195.811831,339.766986L199.866159,335.205098L200.966133,333.115570L200.419368,332.346728L199.070379,332.182928L193.256727,335.287548L193.433871,333.904635L192.691422,333.195298L190.884623,333.217824L195.879613,328.596528L194.694372,328.233732L196.225545,326.090364L199.750410,322.740294L198.522718,322.451507L198.423365,321.457306L195.303505,322.264467L192.412257,322.867455L188.517844,323.973973L189.820651,322.115661L196.597587,317.347076L195.432038,316.952569L195.544852,315.881235L195.082236,315.111954L194.881712,314.212871L190.045618,315.530104L183.600393,317.486370L179.912734,318.047576L178.514333,317.521290L179.451135,315.970425L180.641378,314.345833L180.640570,313.241203L181.031377,311.991329L179.106389,311.644011L181.548513,309.642054L184.524396,307.511853L189.034184,304.922428L186.067148,304.959840L183.576987,304.782408L187.137900,302.652006L190.705187,300.604176L190.579406,299.721490L190.293734,298.886543L189.854459,298.092252L187.954228,297.674044L190.261241,296.169008L191.424347,294.991213L189.729608,294.495695L186.468198,294.310284L186.310490,293.416011L181.143281,293.510263L178.403340,293.047333L182.415369,291.339725L187.329917,289.568408L188.719229,288.450847L187.794584,287.701593L183.987762,287.326376L184.427522,286.344130L178.907524,286.059038L181.537806,284.808775L183.825442,283.646272L183.703619,282.735929L184.231999,281.776151L183.487272,280.910612L184.616857,279.929066L187.077223,278.912000L183.917684,278.138777L179.683313,277.329073L183.038607,276.325552L181.584445,275.410678L179.628416,274.463930L175.258646,273.440137L171.594831,272.346577L176.646756,271.490071L184.214017,270.849205L184.264137,269.940247L178.470116,268.646629L174.628590,267.383312L180.168359,266.847539L186.304466,266.479215L182.816574,265.211287L177.949376,263.710253L177.845485,262.710617L180.382872,262.067379L176.357048,260.509133L177.943026,259.747418L181.747550,259.386581L186.744376,259.312810L181.058723,257.329696L178.381234,255.822061L183.632174,255.911106L185.091684,255.274106L182.437360,253.717741L181.168214,252.434015L182.220012,251.701429L188.182933,252.271966L189.420486,251.677506L186.769279,250.002909L187.365040,249.220663L185.439184,247.676462L182.850345,245.874543L180.729153,244.162123L184.950209,244.541045L184.336278,243.317826L180.593961,240.945176L179.266943,239.378775L177.548159,237.623711L181.370137,238.009537L182.821748,237.511281L187.349700,238.325353L191.881021,239.238826L192.835038,238.669629L196.249786,239.232212L196.029363,238.173468L193.124497,235.815615L193.295290,234.886579L194.314658,234.379014L187.408672,229.796797L190.072073,230.088367L197.551847,233.045753L192.270320,229.106941L188.907746,226.107492L194.200555,228.036755L195.828204,227.915562L192.179381,224.615758L196.139737,225.936085L197.955878,225.988785L190.513655,220.058007L191.104820,219.238791L191.403320,218.221740L192.061549,217.446403L193.798683,217.438302L190.265237,213.649051L189.079595,211.469126L190.443688,211.157850L188.354995,208.207708L189.486532,207.703692L190.367268,207.013044L192.624248,207.457407L201.352781,213.370269L204.548779,214.834671L207.087652,215.816260L206.588779,214.165129L204.729339,211.239717L204.260993,209.510897L206.723228,210.508356L207.993716,210.426187L208.458824,209.576264L210.405871,210.205382L212.805140,211.349482L208.963157,206.049195L208.809926,204.488649L209.597954,203.914390L214.361839,207.752652L215.324065,207.471777L213.901717,204.450521L212.100046,200.882754L210.700987,197.677387L210.245359,195.523401L213.946866,198.514483L217.350448,201.275694L220.495646,203.840302L220.834969,202.796415L219.771307,199.821387L222.282943,201.712867L221.226342,198.641945L223.265329,199.951512L223.769543,199.066317L224.361127,198.297031L224.172210,196.307694L222.552904,191.987846L221.655451,188.664129L222.731483,188.479320L227.125616,193.929101L229.620639,196.365704L231.985390,198.708209L233.308427,199.292036L232.094586,195.206529L229.416473,188.151302L230.383363,187.883871L233.198041,191.324277L235.897155,194.725784L233.334455,187.242748L231.799879,181.607348L232.422660,180.480273L235.315002,184.490853L239.037522,190.694432L239.892981,190.360562L239.607978,187.198437L240.222855,186.167871L239.332930,181.135664L240.154803,180.457134L242.565106,184.204146L245.510324,189.763169L245.531447,186.980503L244.699133,181.390052L244.029655,175.946130L247.908008,185.202021L250.142428,189.520962L249.790927,184.958021L250.420100,183.692076L251.590775,184.436290L252.960170,186.066769L254.295427,187.719293L255.203403,187.660368L256.613292,189.937043L256.612693,185.607303L257.175381,183.718875L258.837673,187.585354L259.464857,185.999929L259.983061,183.571270L259.678190,175.492735L261.396657,180.359981L262.793505,183.584849L262.889062,176.813130L263.670644,174.907269L265.073343,178.675567L266.338399,181.805495L267.230148,181.214034L267.685416,174.482008L268.827103,176.557873L270.233850,184.484161L271.016321,181.520641L271.964723,181.848609L272.904353,182.106319L273.857440,183.882760L274.758926,179.403598L275.763771,173.101009L276.711297,177.289942Z" />
<line x1="50" y1="625" x2="100" y2="625" fill="none" stroke="green" stroke-width="1.0" stroke-linejoin="round" stroke-miterlimit="10" />
<text x="125" y="628" style="text-anchor:start;fill:black">n0_4mer:PS</text>
<path style="stroke:red;stroke-width:1.0" d="M277.539175,148.257979L278.833660,147.456104L279.933468,151.930955L280.975895,155.778887L282.435233,151.433729L283.361477,155.944420L284.774992,153.277504L286.482507,147.974959L288.267918,142.986131L290.136675,138.180819L291.138823,141.382668L291.819028,146.570969L293.324503,145.188348L294.473852,146.369439L294.956905,151.547210L295.542837,155.531541L297.675271,150.604233L298.921570,150.830424L300.103009,151.377406L300.913838,153.631283L302.038710,154.296745L303.547145,153.291525L304.256195,155.658473L306.853453,150.471419L307.762010,152.062172L307.256061,158.657121L308.312496,159.358668L310.604958,155.898918L310.678723,159.867517L311.421097,161.505510L313.388300,159.369412L316.814771,153.144130L319.076798,150.624519L320.056595,151.793739L321.050976,152.881042L321.484885,155.373822L322.816735,155.505829L323.949998,156.139626L324.142233,158.987030L325.792573,158.358190L326.175550,160.622513L328.748308,158.029633L332.177027,153.783177L334.640983,151.773926L335.485206,153.157348L335.942691,155.262466L336.760046,156.605434L337.835982,157.430040L338.209543,159.528565L337.928607,162.726729L337.459015,166.135874L338.338918,167.120289L339.314638,167.929494L342.172482,165.667977L344.747181,163.986030L347.579637,162.006368L346.326664,166.365706L344.973496,170.718618L346.432410,170.815319L346.469247,172.968246L351.698093,167.804701L352.703254,168.666957L348.881346,175.994337L347.807517,179.445388L348.455554,180.572163L349.675273,180.963199L350.719438,181.585205L351.133698,182.974082L353.816916,181.650612L355.015463,182.134408L356.033456,182.836175L355.970556,184.747101L357.181763,185.222715L361.203050,182.703312L365.292836,180.245206L361.953518,185.560802L361.783700,187.506326L361.302721,189.717062L364.128624,188.671943L366.994538,187.664997L365.154534,191.112679L365.325384,192.626329L363.800366,195.631705L368.602962,193.010954L383.437033,181.920412L387.689726,180.213892L378.013723,190.099895L374.743557,194.459150L374.151006,196.565296L373.607372,198.588639L371.780331,201.544105L371.806668,203.040975L372.978078,203.682755L373.961603,204.472443L374.069082,205.881699L376.647550,205.586123L376.869379,206.920810L379.646486,206.571254L379.759674,207.985624L379.309287,209.736848L374.253687,214.274839L375.133246,215.106851L379.119879,214.130030L388.973931,209.892216L399.657108,205.436241L399.814460,206.978985L402.730787,207.040186L399.859953,210.163955L399.034694,212.161851L397.506486,214.470443L397.968237,215.767283L397.707670,217.399937L390.793142,222.054579L391.945954,222.937418L387.634764,226.202612L385.515480,228.429941L387.635111,228.859823L391.905095,228.472660L399.339787,226.950827L397.547355,229.048963L393.477199,231.923759L389.051678,234.821632L390.424774,235.633087L398.997863,234.091035L397.582135,235.915226L394.422365,238.236423L395.366755,239.261662L395.472509,240.539572L394.556059,242.093641L387.905729,245.137416L392.454007,245.189995L397.353367,245.247828L398.186826,246.348955L390.739744,249.300294L394.455723,249.728013L397.342381,250.395004L401.930635,250.792511L398.768337,252.678081L393.944065,254.776192L392.515142,256.228311L400.736245,256.204703L402.113840,257.298627L404.229385,258.321826L402.363022,259.858112L403.635670,261.012057L403.456254,262.332156L397.557064,264.152323L397.462642,265.395947L397.224239,266.645569L395.300554,267.986954L395.401306,269.190575L397.661334,270.312534L397.226770,271.554847L396.165216,272.799144L396.166551,274.013067L396.587380,275.227603L395.335336,276.430727L395.373483,277.637318L396.415958,278.877274L395.106441,280.040217L397.424480,281.366537L401.195492,282.830867L400.826128,284.074031L398.920606,285.185327L401.566181,286.680247L405.292963,288.341699L404.992838,289.628155L402.806501,290.680083L401.482632,291.805337L401.039979,293.033111L398.640123,293.955466L396.270759,294.837492L392.851184,295.492253L393.165247,296.768482L392.804819,297.924480L396.783543,299.967347L397.836163,301.467998L399.762837,303.193795L399.694877,304.494315L399.947177,305.878796L402.734641,307.928757L400.985206,308.827162L395.904756,308.765017L391.478078,308.790111L392.233663,310.286218L395.722647,312.659237L397.455834,314.550174L397.893166,316.055314L396.445327,316.928504L396.019243,318.142899L393.562289,318.610423L395.123848,320.555987L391.574552,320.550760L395.917928,323.649609L401.765177,327.483543L407.701936,331.505161L399.649494,329.557760L392.584294,327.875110L386.522442,326.498364L382.695424,326.046089L380.599638,326.354380L383.340359,329.035747L385.516511,331.510545L390.472617,335.511437L389.267661,336.346693L386.679255,336.406031L386.033056,337.507268L384.146222,337.893087L386.775283,340.908157L386.034308,341.979137L386.640470,343.879355L388.500425,346.606433L386.455584,346.887166L381.283118,345.068393L378.549347,344.764138L379.490525,346.930411L383.211235,351.100484L378.587148,349.410428L375.801449,348.951263L374.950238,349.878308L367.210251,345.532871L366.049339,346.101756L368.324575,349.395358L367.319315,350.118652L370.462692,354.278845L371.114909,356.460989L372.081459,358.965549L365.453922,354.831170L366.210036,357.138349L365.361144,358.028065L362.363265,356.902484L362.928974,359.103480L359.841044,357.793062L359.116341,358.747148L360.151816,361.493708L356.934078,359.910001L354.646670,359.211577L358.240705,364.796531L359.600141,368.116749L355.992126,365.959747L355.784046,367.576806L353.621163,366.941217L353.274223,368.413894L351.452509,368.118906L355.605955,375.207892L357.002664,379.061625L355.223019,378.928010L351.221749,375.816277L349.568087,375.710379L352.321793,381.646899L350.652525,381.574876L347.610610,379.491539L344.758116,377.563924L341.971975,375.620366L338.916535,373.147217L339.089828,375.602816L337.285760,374.966797L337.708732,377.928671L336.798110,378.759081L337.102772,381.687099L335.698217,381.718745L335.304848,383.542921L335.254275,386.057885L335.590735,389.397164L332.893097,387.002179L328.981421,382.049873L328.200210,383.182666L327.313138,384.125767L326.530154,385.313798L328.203967,391.937696L327.391435,393.280865L324.617091,390.117887L325.135888,394.603554L322.270647,391.014220L321.394293,392.209788L320.354360,393.023755L318.257427,391.024821L315.956479,388.307915L315.119267,389.568713L313.868643,389.666889L312.234907,388.576629L311.428983,389.997071L311.332137,393.812417L310.384362,394.998450L308.470983,392.848438L306.762417,391.251100L305.379029,390.735481L305.929670,397.830715L306.766448,406.711751L307.633705,416.512151L305.539950,413.766650L304.301503,414.795982L302.689645,414.027714L301.277994,414.204642L299.004600,409.541609L296.326447,401.867714L293.817119,394.233954L292.570560,394.069045L291.142044,392.528511L290.237133,394.832602L289.143137,395.894813L287.917452,395.899471L286.648720,395.432939L285.469558,395.864292L284.893184,404.257346L283.788636,407.218891L282.247844,403.472696L280.875864,401.711767L279.520238,399.395386L278.263763,399.046800L276.974689,396.227650L275.748894,394.426969L274.548985,395.386893L273.350059,394.871567L272.139491,395.265930L270.892427,396.488909L269.590458,398.385907L268.303223,399.282562L267.036700,399.552407L265.832672,398.882692L264.426100,400.760364L263.294501,399.293322L262.221574,397.525295L261.518073,392.819103L260.138674,394.282618L259.035464,393.453461L257.365786,396.625466L255.980029,397.527165L254.762010,397.279971L253.286061,398.505044L252.303085,396.921938L251.919647,392.431415L250.092084,395.346646L247.379993,402.025774L245.743127,403.347707L245.158279,400.116183L244.762503,396.374971L244.065157,394.076199L242.228209,396.147430L241.596799,393.749524L241.026494,391.295151L238.244367,396.291351L239.120052,389.265004L237.900383,389.136434L236.873186,388.419279L235.534949,388.619126L233.781409,389.939799L231.720814,391.984492L230.673705,391.223815L230.103011,389.269088L229.525818,387.416476L226.344138,391.899605L224.168013,393.760454L224.185909,390.506327L222.245051,391.731611L221.953036,389.312567L219.473607,391.582704L218.054856,391.539956L219.043776,386.666320L217.877894,386.197829L216.429512,386.260987L217.443269,381.727755L216.879342,380.236443L215.255559,380.661588L214.870788,378.899039L214.735210,376.768083L210.928849,380.764865L208.997948,381.529540L206.160519,383.662760L207.680485,378.945519L208.007624,376.203947L207.997463,374.049199L207.395523,372.813351L205.115201,373.978023L204.889011,372.216778L204.426354,370.820381L203.377729,370.231438L203.385415,368.261640L201.538526,368.708447L200.644690,367.916483L199.629754,367.274674L197.397510,368.088561L197.388662,366.225514L196.373244,365.565059L196.411197,363.710521L193.951690,364.661064L192.085437,364.898808L192.252024,362.934207L190.402500,363.114215L189.447325,362.340793L188.199208,361.857219L186.335892,361.961873L183.322626,363.133015L184.808622,359.982603L183.101923,359.869097L183.341262,357.962390L187.840212,352.316159L182.702610,355.235979L178.149815,357.505155L176.890142,356.896577L175.134622,356.678610L177.238946,353.336389L178.415829,350.817249L177.974417,349.605156L176.665087,349.056451L172.589699,350.529958L172.188207,349.247623L171.407821,348.243614L167.382666,349.483968L173.250430,343.925644L170.766194,344.095463L171.687521,342.004870L173.529715,339.375384L171.721218,339.080911L174.462253,335.993969L171.490246,336.387058L168.354928,336.810967L166.302349,336.554384L165.486356,335.575807L171.599089,330.849381L172.145035,329.230746L168.790059,329.647101L167.705278,328.852870L166.730946,327.990903L162.686064,328.582822L159.700226,328.596169L157.282952,328.292452L157.337491,326.853937L157.429151,325.413237L157.801159,323.869790L156.592003,322.987406L156.362339,321.702448L154.048411,321.219465L155.985652,319.118093L157.078202,317.374474L162.857557,314.033819L158.908456,314.109103L158.501662,312.951069L157.890080,311.856895L160.746940,309.703860L158.130139,309.223843L157.905852,308.019688L159.063806,306.442960L156.956360,305.748497L161.942329,303.243496L159.537568,302.618499L161.919871,300.853942L157.492063,300.630469L157.613718,299.374778L151.295746,299.396743L148.008273,298.726100L151.120031,296.862858L153.873527,295.127959L158.383980,293.179998L159.177857,291.869660L156.680188,291.024818L157.026510,289.776085L151.745793,289.185013L153.021476,287.801538L155.798201,286.304153L151.440843,285.469690L155.894801,283.891622L152.504369,282.911732L150.122779,281.810209L156.573107,280.269237L152.724107,279.213735L150.888788,278.032670L151.815642,276.775607L151.635766,275.542339L152.499819,274.311444L148.328514,273.018974L146.065500,271.691483L151.559513,270.594783L151.120160,269.336132L153.776326,268.240138L148.542736,266.676879L148.296872,265.385129L152.955352,264.508099L154.530385,263.426748L154.572329,262.212106L150.324354,260.496678L152.101757,259.454211L151.756227,258.154583L149.035748,256.495574L150.737968,255.472121L154.100307,254.757555L158.551871,254.301671L152.157347,251.893362L150.091410,250.206791L153.991260,249.718420L157.902287,249.308750L157.017553,247.873148L156.235305,246.437800L155.235917,244.925281L158.168996,244.414550L157.944761,243.099607L155.813518,241.232675L158.186174,240.637196L158.263328,239.385553L154.544949,236.928144L152.915809,235.063823L157.639648,235.303365L153.415725,232.512729L152.567341,230.835213L151.157655,228.919616L150.819390,227.372267L156.065789,228.012518L158.650114,227.680724L159.393159,226.627775L166.711594,228.409912L162.292396,225.164778L161.624854,223.505814L162.544190,222.558261L165.543290,222.615663L165.521847,221.251039L164.255607,219.245803L162.102028,216.736812L165.058425,216.860635L168.000775,217.037714L166.162004,214.623740L166.543217,213.406490L170.530714,214.279080L171.257375,213.302988L166.467721,208.973971L172.023400,210.931800L170.966581,208.819684L167.556039,205.128527L167.889642,203.808746L169.340446,203.236795L170.256931,202.315494L169.510028,200.220647L167.858427,197.425732L168.205532,196.034521L168.540606,194.620471L167.282501,191.963492L169.286788,191.807153L170.541794,191.086893L171.681772,190.285980L177.349596,193.283838L180.860201,194.604630L184.775528,196.371859L185.720742,195.608168L184.559079,192.938175L183.919959,190.679476L185.412711,190.379251L186.122601,189.349041L187.407585,188.878543L186.668235,186.394069L188.301624,186.272467L189.923451,186.169337L189.380430,183.790681L190.100211,182.722256L193.106159,184.180234L194.233165,183.605691L194.697687,182.275851L194.489635,180.131783L193.516682,177.012446L194.146459,175.764419L198.079334,178.636118L200.589750,179.841515L202.770079,180.698187L202.765603,178.709417L203.114349,177.147537L202.124357,173.688447L203.745226,173.818935L205.410090,174.049951L206.956722,174.146385L208.437954,174.178117L207.962637,171.211803L205.332325,164.731478L205.978889,163.292283L207.922239,163.965407L210.023664,164.968506L213.904660,169.132730L215.068791,168.704504L217.011785,169.698871L217.719532,168.472479L215.923184,162.443010L217.340428,162.416912L218.500474,161.903898L220.382690,162.876146L219.249282,157.576121L218.585381,153.039442L220.516012,154.048065L222.955401,156.302444L225.335424,158.573089L227.061957,159.426272L227.259243,156.563333L228.725381,156.799585L229.966271,156.485610L230.528202,154.337997L232.484837,155.986184L235.233970,160.060440L235.753196,157.773886L235.944796,154.344850L235.967644,150.161032L238.876850,155.267726L242.147501,162.028389L241.712656,156.103981L242.682778,154.949944L244.315361,156.289761L245.725989,156.876024L246.946149,156.738208L248.137019,156.484536L248.557291,152.667334L249.468565,150.875041L251.279660,153.526473L253.146751,156.805759L254.402231,156.996392L254.972241,153.063529L255.592314,148.957077L256.314565,145.003281L257.369768,142.966167L258.213155,138.904211L260.133498,143.657250L262.025878,149.104154L263.332971,149.468592L264.700318,150.677732L265.709332,147.326384L267.152143,149.846485L268.655468,154.508484L269.871453,154.655645L270.975918,151.502580L272.270927,154.028482L273.463553,152.470936L274.683199,149.374271L275.963303,146.480272L277.208210,148.917655Z" />
<line x1="50" y1="600" x2="100" y2="600" fill="none" stroke="red" stroke-width="1.0" stroke-linejoin="round" stroke-miterlimit="10" />
<text x="125" y="603" style="text-anchor:start;fill:black">n0_4mer:D</text>
<path style="stroke:black;stroke-width:1.0" d="M278.403465,105.117225L280.089584,105.672172L281.720362,107.355548L283.443728,106.544778L285.190014,105.651968L286.849926,106.273841L288.688543,104.544249L290.450434,104.079828L292.182992,104.031706L293.995046,103.305323L295.544534,104.906691L297.109317,106.174652L298.760862,106.676922L300.432637,107.009900L302.050249,107.668006L303.739861,107.861114L305.408139,108.181980L306.933341,109.243768L308.783655,108.628588L310.474580,108.853081L312.221783,108.838584L314.195503,107.893099L315.798959,108.573365L317.423707,109.147842L318.831794,110.523352L320.203247,111.958524L321.931036,112.083132L323.564175,112.549429L325.303697,112.673858L327.167826,112.435956L328.840855,112.824291L330.568142,113.064299L332.170735,113.676175L333.564843,114.855734L335.267500,115.181361L336.675176,116.282483L338.503448,116.304685L340.237466,116.590401L341.781948,117.343913L343.282946,118.192697L344.411138,119.865924L346.123424,120.216837L347.680961,120.914421L349.808971,120.434878L351.686999,120.520119L353.145492,121.463153L354.610143,122.386637L355.910929,123.610710L357.291250,124.670031L358.670705,125.719980L359.944074,126.945112L360.416441,129.517550L362.165547,129.887479L364.171013,129.862481L366.691125,129.058678L369.067270,128.553932L370.371664,129.743895L371.480564,131.215179L371.968692,133.570469L373.416366,134.497687L375.029781,135.195712L377.325035,134.973274L378.139340,136.786781L379.404974,137.976005L379.336876,140.873919L379.337959,143.609681L380.672457,144.632275L381.582548,146.169310L383.464494,146.536535L384.484719,147.932520L386.239076,148.481656L387.676127,149.406852L389.451878,149.970084L391.014269,150.784757L391.571375,152.668072L392.817050,153.814996L394.174696,154.850341L395.114360,156.304953L397.231193,156.609511L398.474425,157.779570L399.935284,158.749759L400.197470,160.824176L401.950063,161.534139L405.845063,160.389718L409.244228,159.768173L411.491981,160.193228L411.564280,162.448765L410.253214,165.785840L408.477444,169.410917L410.170738,170.255498L410.834759,171.901947L411.509496,173.528785L412.680788,174.783556L412.914182,176.711876L413.932811,178.069659L415.196173,179.261736L416.709415,180.295759L418.665869,181.056328L419.747117,182.405805L420.275226,184.105704L419.941387,186.322296L420.650725,187.881277L423.102579,188.417114L426.763084,188.305104L429.130397,188.988942L430.159860,190.441439L431.506771,191.729777L430.646598,194.177369L431.437225,195.746162L431.774926,197.538658L431.934776,199.405900L432.536999,201.050743L432.041935,203.193922L431.965282,205.121414L430.489297,207.636504L430.672405,209.401289L432.571090,210.452117L434.359678,211.576058L436.456297,212.607731L436.862467,214.307150L436.322636,216.345907L436.454002,218.122640L436.364857,219.964707L436.777447,221.626920L436.958548,223.360230L436.404299,225.312494L436.258737,227.120340L436.393704,228.834313L437.197588,230.357076L437.539944,232.009597L438.689460,233.455366L438.599343,235.218211L437.735438,237.150657L438.972911,238.590246L439.806398,240.133649L440.686652,241.677782L442.436629,243.067438L442.981851,244.704067L443.092023,246.419668L442.666206,248.217257L443.074443,249.875908L443.255764,251.569365L443.506822,253.252732L444.386570,254.862032L444.865642,256.528677L444.818202,258.253206L444.342336,260.011301L443.923131,261.752313L443.847797,263.458695L443.181150,265.195705L443.146050,266.886866L443.556178,268.558676L443.074890,270.262546L444.001376,271.930244L443.948640,273.623869L444.866561,275.317979L444.667343,277.017260L444.913593,278.722714L445.942365,280.458841L445.904090,282.171919L446.323063,283.909448L445.526480,285.581758L445.312175,287.282171L444.918952,288.966039L445.280927,290.714492L445.724364,292.481782L446.310922,294.277699L446.469073,296.036875L446.088643,297.731993L445.716226,299.425143L442.942133,300.747478L441.984894,302.315418L442.170939,304.068092L441.699256,305.709450L442.720860,307.637999L441.809915,309.198389L440.078004,310.570016L439.518318,312.177703L439.879779,313.999326L441.277049,316.092846L442.103982,318.077794L441.652021,319.746245L440.882382,321.325899L438.885189,322.542841L437.598677,323.940656L438.627887,326.043458L438.560449,327.825938L438.295814,329.552755L437.859347,331.226525L436.581424,332.603162L435.210204,333.929655L434.845661,335.620160L435.639368,337.768805L435.814426,339.701397L436.555892,341.887656L438.166729,344.477225L436.408961,345.646989L433.846109,346.429654L431.147760,347.105255L427.875875,347.460976L426.748883,348.797315L426.706853,350.665183L427.299277,352.875378L427.397432,354.861250L427.239688,356.732674L425.942291,357.994527L425.038012,359.465532L423.512826,360.577219L421.980492,361.666864L421.511769,363.380178L420.065874,364.501986L420.071365,366.524265L420.061313,368.562353L419.743084,370.423577L418.935499,371.973437L417.874530,373.353641L418.467199,375.894545L417.286901,377.209874L416.971614,379.155052L414.540454,379.537551L410.775504,378.856523L408.762770,379.457297L406.898354,380.145138L407.409432,382.739296L407.679649,385.186388L406.550198,386.493725L405.700995,388.043014L403.690398,388.577221L402.109634,389.467398L401.094739,390.861770L399.271175,391.503407L398.278630,392.915192L396.670785,393.733768L394.881766,394.355597L394.241502,396.120607L392.874698,397.156019L391.559263,398.239796L391.534288,400.712233L389.008203,400.485289L387.587559,401.443598L385.929023,402.122310L383.926982,402.381470L383.504688,404.491487L382.448068,405.871393L382.236592,408.314627L381.615428,410.295296L380.277765,411.386147L379.011877,412.573467L377.464944,413.387396L375.985540,414.285373L374.498437,415.167611L372.875389,415.849251L371.213537,416.460786L369.299912,416.678541L368.210301,418.129343L366.933128,419.308885L365.007001,419.458567L363.971750,421.036184L362.402110,421.748220L360.745383,422.303024L360.025797,424.491152L359.015896,426.220526L357.884444,427.768763L357.233587,430.259532L355.094466,429.953789L352.682704,429.051588L350.506779,428.543091L348.359707,428.029134L346.653846,428.393834L346.666905,432.517629L345.237370,433.570516L343.561350,434.070948L342.554149,436.156343L339.955288,434.416837L338.198739,434.664267L336.537939,435.137604L334.721148,435.183718L332.697143,434.621706L331.070552,435.120846L329.307313,435.212709L327.563453,435.332878L326.064272,436.196972L324.560355,437.070996L323.054648,437.967001L321.412991,438.416129L319.714440,438.655770L318.564848,440.969708L317.266493,442.852538L316.107687,445.442898L314.777570,447.490665L312.996708,447.648479L311.206422,447.739004L309.335116,447.394149L307.618144,447.790852L305.617798,446.607434L303.739792,445.968546L301.641864,443.815151L299.661175,442.119463L298.008042,442.519115L296.197991,441.711836L294.696957,443.368585L293.069214,444.116825L291.486224,445.446582L289.943128,447.508774L288.180039,447.201058L286.454466,447.324441L284.710845,447.130972L282.923606,445.870889L281.213891,446.004153L279.490465,445.670403L277.755820,444.181832L276.063365,444.575988L274.367412,443.853047L272.681575,443.438227L271.010822,442.719161L269.322557,442.920677L267.634235,443.005257L265.925489,443.409901L264.203912,443.859502L262.587744,442.733022L260.917638,442.488157L259.274635,441.977745L257.541885,442.396253L255.760805,443.132097L254.059070,443.079814L252.463321,442.217363L250.543708,443.678218L248.757511,444.054815L246.863343,445.004511L244.984336,445.723784L243.511390,444.148644L242.011512,442.843391L240.385115,442.247446L238.398125,443.333825L236.597092,443.470678L235.134806,442.141195L233.568352,441.308908L232.316331,439.300462L231.022000,437.573407L229.091066,438.207836L227.661865,437.043785L225.642256,437.877548L224.065647,437.207985L222.563192,436.321078L221.045498,435.503335L220.055761,433.183412L218.241917,433.272335L216.524906,433.059330L214.548095,433.505261L212.428515,434.253143L210.662982,434.047188L209.140314,433.233170L207.819342,431.956395L206.502212,430.703423L205.090150,429.690498L203.302078,429.504103L201.284970,429.771400L199.656020,429.193728L198.020054,428.621289L196.919257,426.997355L195.633581,425.765112L194.073966,425.061579L192.659498,424.090218L191.539411,422.605002L190.184039,421.556001L188.873146,420.440894L187.504815,419.431874L184.567832,420.960572L182.702193,420.691606L181.594039,419.224614L180.719897,417.426932L180.271605,415.036066L179.300119,413.463108L177.860271,412.579251L175.221953,413.353494L174.011611,412.115573L173.131640,410.447679L171.764765,409.440315L171.148290,407.474641L169.232881,407.169561L167.716554,406.345532L165.990006,405.763632L165.147384,404.122390L164.343049,402.458563L162.607630,401.867763L161.753235,400.281149L160.580277,399.057781L159.394754,397.850806L158.377772,396.470210L156.274574,396.206879L155.066420,395.011544L152.567221,395.082229L150.748660,394.447631L150.486481,392.322556L148.986895,391.374780L148.958289,389.083193L148.785142,386.960437L146.820844,386.428720L144.378790,386.274163L143.030794,385.160450L141.885570,383.872582L141.367529,382.080323L141.481669,379.810058L141.102506,377.956800L140.487362,376.302053L139.328465,375.060884L137.988388,373.945716L136.738734,372.755978L135.499195,371.551115L133.762780,370.674766L132.519745,369.448621L132.147208,367.649338L130.529602,366.655772L129.948059,364.999711L130.218857,362.835433L128.582838,361.833544L127.947524,360.230902L127.688591,358.420966L127.451102,356.614429L127.212966,354.823420L126.509270,353.292410L125.487916,351.926905L123.987423,350.795533L122.460982,349.658270L121.043799,348.449547L119.658266,347.209352L118.976916,345.634227L118.357291,344.032534L118.202194,342.233375L117.825060,340.539098L116.967899,339.045933L115.741022,337.693281L114.992566,336.143951L115.243836,334.220905L114.093923,332.820610L114.219416,330.963471L113.607668,329.370105L113.332656,327.665545L113.027873,325.975952L113.075630,324.183809L112.291144,322.647205L111.039932,321.235532L111.429623,319.361787L110.291788,317.903878L110.258412,316.154911L110.620425,314.319431L109.771705,312.776776L109.694736,311.055875L109.390825,309.388063L107.914000,307.952418L107.457126,306.302346L107.398207,304.579070L107.751614,302.792180L108.519213,300.953727L107.970686,299.328057L108.230914,297.586616L108.298341,295.879249L107.091574,294.324153L106.856698,292.646491L106.153205,291.012091L104.905076,289.412862L105.068443,287.685988L105.848136,285.925159L105.023172,284.269727L104.976314,282.564964L106.008552,280.823594L105.121341,279.151002L104.963282,277.450948L104.072161,275.751441L103.773176,274.037559L103.953908,272.324996L104.314218,270.620126L105.128764,268.937811L104.910774,267.223409L105.683724,265.558324L105.749371,263.860320L105.669995,262.150387L106.342794,260.500923L106.434269,258.806260L107.400563,257.203061L107.959776,255.568473L108.137993,253.893094L106.834263,252.014481L106.306075,250.218490L106.846821,248.574592L106.935008,246.860587L108.591566,245.421367L108.441613,243.670456L108.727006,241.996336L108.906855,240.299225L108.444635,238.457736L108.709376,236.765998L108.845448,235.040822L109.666302,233.482006L110.731458,231.995771L112.135400,230.615445L112.443827,228.945389L112.577489,227.220614L112.717469,225.490257L113.197702,223.859647L114.181482,222.393051L113.792794,220.472355L114.052033,218.757201L113.435740,216.719381L114.039350,215.108301L114.437246,213.418405L115.876050,212.134709L118.239235,211.245696L119.035642,209.741379L120.753661,208.636935L120.317076,206.604812L120.372520,204.769297L120.392628,202.901640L120.795559,201.200071L120.902881,199.345089L121.690768,197.816561L123.071503,196.594353L124.627051,195.479694L126.651287,194.638385L126.862432,192.822887L127.182089,191.052978L127.284606,189.143047L128.345442,187.782736L130.486733,187.084799L131.693061,185.839767L132.192526,184.153772L132.679987,182.448415L132.979095,180.605335L134.955590,179.882850L136.244058,178.712892L137.246109,177.349516L137.978019,175.791266L137.380369,173.241921L138.027437,171.582258L138.684083,169.917744L139.723866,168.542098L140.923727,167.294181L142.657039,166.487646L144.268355,165.600675L145.627429,164.515849L147.607707,163.981128L148.249710,162.286948L149.098088,160.762545L150.331267,159.583573L151.057393,157.928523L151.678185,156.155031L153.481008,155.521702L154.392634,154.018290L155.462009,152.664248L157.653252,152.475173L157.757030,150.102719L158.599228,148.483777L159.880733,147.333440L161.463351,146.523954L162.944209,145.610477L164.472402,144.761412L165.622661,143.468562L166.843022,142.253551L169.332419,142.622854L171.387603,142.496765L173.100156,141.961782L174.047786,140.427720L175.082577,138.990020L176.143372,137.569741L176.884312,135.676707L178.902116,135.596370L178.883954,132.536982L179.682128,130.621515L181.024599,129.505951L180.650415,125.665472L181.842162,124.228023L184.365535,124.971722L185.968244,124.232848L188.701418,125.460030L191.867585,127.554262L192.962743,126.028079L195.210995,126.612162L196.248200,124.956952L197.367592,123.418991L198.409366,121.687169L199.286477,119.567738L200.675637,118.455739L202.121482,117.446782L203.785477,116.907049L205.643729,116.819901L206.991319,115.569652L208.304335,114.203562L210.067917,113.914589L211.775891,113.505081L213.974014,114.399098L215.914364,114.687363L217.531566,114.127100L218.786189,112.519846L220.218101,111.372172L221.759783,110.522396L223.421193,110.033145L225.336216,110.386512L227.088851,110.245420L228.997731,110.688705L230.834402,110.936316L232.505047,110.598977L234.283269,110.703342L236.006070,110.619996L237.494310,109.530494L239.061229,108.735429L240.874565,109.093999L242.629178,109.226747L244.373152,109.353365L245.810379,107.774095L247.008736,104.578737L248.393793,102.206391L249.871625,100.179013L251.624040,99.936077L253.452261,100.306268L255.407100,101.900417L257.318849,103.428969L259.125106,104.194061L260.951410,105.426550L262.565417,104.122287L264.244054,103.469791L266.092943,105.842541L267.789942,105.811768L269.502543,106.285316L271.210007,107.001115L272.866313,104.842084L274.569573,104.316622L276.276211,104.733465L277.971170,105.354849Z" />
<line x1="50" y1="550" x2="100" y2="550" fill="none" stroke="black" stroke-width="1.0" stroke-linejoin="round" stroke-miterlimit="10" />
<text x="125" y="553" style="text-anchor:start;fill:black">GC-content</text>
</g>
<g style="fill:pink;stroke:black">
<a href="" title="AP025251:1 [14500-34099];"><path  d="M291.688687,45.606261L295.689618,45.932456L299.684247,46.328428L303.671357,46.794055L307.649733,47.329196L311.618164,47.933688L308.433976,67.678585L308.433976,67.678585L304.810626,67.126657L301.178195,66.638050L297.537791,66.212912L293.890521,65.851373Z" />
</a><a href="" title="AP025251:2 [81500-99599];"><path  d="M366.298875,63.896908L369.969227,65.522445L373.610650,67.211791L377.222035,68.964431L380.802283,70.779832L384.350302,72.657440L374.841580,90.252446L374.841580,90.252446L371.602084,88.538108L368.333163,86.880568L365.035811,85.280331L361.711033,83.737885L358.359842,82.253699Z" />
</a><a href="" title="AP025251:3 [107500-130099];"><path  d="M392.938324,77.539747L396.366518,79.628128L399.757743,81.776022L403.110965,83.982774L406.425163,86.247711L409.699328,88.570145L412.932463,90.949366L400.938335,106.953769L400.938335,106.953769L397.986343,104.781436L394.996888,102.660954L391.970881,100.592967L388.909243,98.578107L385.812908,96.616987L382.682818,94.710203Z" />
</a><a href="" title="AP025251:4 [165000-188099];"><path  d="M444.164853,119.169155L446.858712,122.145222L449.500221,125.167851L452.088575,128.236120L454.622987,131.349094L457.102683,134.505826L459.526909,137.705354L443.481091,149.644019L443.481091,149.644019L441.267667,146.722711L439.003596,143.840477L436.689569,140.998196L434.326289,138.196733L431.914476,135.436942L429.454866,132.719663Z" />
</a><a href="" title="AP025251:5 [384000-402099];"><path  d="M490.860279,354.399875L489.441683,358.155063L487.957767,361.884921L486.408981,365.588314L484.795799,369.264112L483.118710,372.911197L465.021431,364.397180L465.021431,364.397180L466.552686,361.067233L468.025592,357.711069L469.439700,354.329711L470.794580,350.924188L472.089820,347.495538Z" />
</a><a href="" title="AP025251:6 [572000-593599];"><path  d="M337.838086,496.249576L333.967178,497.312555L330.078308,498.307814L326.172661,499.235053L322.251425,500.093987L318.315797,500.884355L314.366974,501.605916L310.943759,481.901054L310.943759,481.901054L314.549206,481.242237L318.142606,480.520596L321.722864,479.736352L325.288890,478.889744L328.839597,477.981028L332.373905,477.010483Z" />
</a><a href="" title="AP025251:7 [1064000-1085599];"><path  d="M87.362780,141.987694L89.712742,138.733232L92.119146,135.520277L94.581256,132.349810L97.098324,129.222795L99.669582,126.140185L102.294248,123.102919L117.312139,136.311361L117.312139,136.311361L114.915705,139.084517L112.568035,141.899073L110.269842,144.754174L108.021829,147.648949L105.824678,150.582516L103.679060,153.553982Z" />
</a><a href="" title="AP025251:8 [1160500-1178599];"><path  d="M170.669156,70.024209L174.262367,68.234603L177.886264,66.507980L181.539742,64.844866L185.221689,63.245768L188.930984,61.711171L196.415246,80.258026L196.415246,80.258026L193.028499,81.659179L189.666721,83.119226L186.330936,84.637721L183.022161,86.214203L179.741404,87.848191Z" />
</a><a href="" title="AP025251:9 [1220000-1242099];"><path  d="M235.451578,48.425680L239.411868,47.769974L243.382999,47.183483L247.363761,46.666388L251.352941,46.218846L255.349324,45.840992L259.351693,45.532942L260.712416,65.486600L260.712416,65.486600L257.058079,65.767862L253.409207,66.112859L249.766912,66.521485L246.132304,66.993615L242.506488,67.529106L238.890571,68.127795Z" />
</a></g>
<text x="275" y="280" style="text-anchor:middle" font-size="25" font-weight="bold">AP025251</text>
<path  style="fill:pink;stroke:black" d="M350,550L375,550L375,565L350,565Z" />
<text x="405" y="565" style="text-anchor:start;fill:black">Selected loci;</text>
</svg>