<svg xmlns="http://www.w3.org/2000/svg" viewbox="0 0 550 650">
<circle cx="275" cy="275" r="240" fill="none" stroke="black" stroke-width="1.0" />
<line x1="275" y1="15" x2="275" y2="55" fill="none" stroke="grey" stroke-width="1.0" stroke-linejoin="round" stroke-miterlimit="10" />
<line x1="495" y1="275" x2="535" y2="275" fill="none" stroke="grey" stroke-width="1.0" stroke-linejoin="round" stroke-miterlimit="10" />
<line x1="275" y1="495" x2="275" y2="535" fill="none" stroke="grey" stroke-width="1.0" stroke-linejoin="round" stroke-miterlimit="10" />
<line x1="15" y1="275" x2="55" y2="275" fill="none" stroke="grey" stroke-width="1.0" stroke-linejoin="round" stroke-miterlimit="10" />
<text x="275" y="10" style="text-anchor:middle" font-size="15">Candidatus Nitrosopumilus koreensis AR1, complete genome.</text><text x="285" y="25" style="text-anchor:start">1,639,964</text><text x="525" y="265" style="text-anchor:start">0.4 Mbp</text><text x="285" y="530" style="text-anchor:start">0.81 Mbp</text><text x="-200" y="25" style="text-anchor:end" transform="rotate(-90)">1.22 Mbp</text><circle cx="364.717969" cy="52.400166" r="2.500000" fill="grey" stroke="black" stroke-width="1.0" />
<circle cx="441.426709" cy="102.077617" r="2.500000" fill="grey" stroke="black" stroke-width="1.0" />
<circle cx="494.003345" cy="176.829053" r="2.500000" fill="grey" stroke="black" stroke-width="1.0" />
<circle cx="514.824193" cy="265.815412" r="2.500000" fill="grey" stroke="black" stroke-width="1.0" />
<circle cx="500.870200" cy="356.133549" r="2.500000" fill="grey" stroke="black" stroke-width="1.0" />
<circle cx="454.164715" cy="434.687209" r="2.500000" fill="grey" stroke="black" stroke-width="1.0" />
<circle cx="381.480099" cy="490.086003" r="2.500000" fill="grey" stroke="black" stroke-width="1.0" />
<circle cx="293.355721" cy="514.297028" r="2.500000" fill="grey" stroke="black" stroke-width="1.0" />
<circle cx="202.569737" cy="503.809652" r="2.500000" fill="grey" stroke="black" stroke-width="1.0" />
<circle cx="122.286242" cy="460.144560" r="3.000000" fill="black" stroke="black" stroke-width="1.0" />
<circle cx="64.146454" cy="389.633251" r="2.500000" fill="grey" stroke="black" stroke-width="1.0" />
<circle cx="36.580722" cy="302.499961" r="2.500000" fill="grey" stroke="black" stroke-width="1.0" />
<circle cx="43.586116" cy="211.379138" r="2.500000" fill="grey" stroke="black" stroke-width="1.0" />
<circle cx="84.146843" cy="129.483429" r="2.500000" fill="grey" stroke="black" stroke-width="1.0" />
<circle cx="152.381543" cy="68.687824" r="2.500000" fill="grey" stroke="black" stroke-width="1.0" />
<circle cx="238.396089" cy="37.807771" r="2.500000" fill="grey" stroke="black" stroke-width="1.0" />

<circle cx="275" cy="275" r="185" fill="white" stroke="grey" stroke-width="0.5" />
<circle cx="275" cy="275" r="170" fill="none" stroke="black" stroke-width="0.5" />
<circle cx="275" cy="275" r="170" fill="aliceblue" stroke="black" stroke-width="0.5" />
<circle cx="275" cy="275" r="162" fill="white" stroke="none" stroke-width="0.5" />
<circle cx="275" cy="275" r="140" fill="none" stroke="black" stroke-width="0.5" />
<circle cx="275" cy="275" r="140" fill="aliceblue" stroke="black" stroke-width="0.5" />
<circle cx="275" cy="275" r="133" fill="white" stroke="none" stroke-width="0.5" />
<circle cx="275" cy="275" r="110" fill="none" stroke="black" stroke-width="0.5" />
<circle cx="275" cy="275" r="110" fill="white" stroke="black" stroke-width="0.5" />
<circle cx="275" cy="275" r="109" fill="aliceblue" stroke="none" stroke-width="0.5" />
<circle cx="275" cy="275" r="80" fill="none" stroke="black" stroke-width="0.5" />

<g style="fill:none;stroke-linejoin:round;stroke-miterlimit:10">
<path style="stroke:blue;stroke-width:1.0" d="M277.316337,123.847120L278.483248,123.487926L279.689292,122.045273L280.874860,121.728591L282.103220,120.602434L283.320513,120.020138L284.389297,122.019289L285.483372,123.223063L286.575171,124.231158L287.948671,121.737231L289.197511,121.029292L290.227666,122.635765L291.180514,124.745986L292.453164,123.819330L294.183570,119.311293L295.243443,120.474511L296.193996,122.312095L297.063459,124.524250L298.138555,125.198046L299.329684,125.108984L300.726021,123.839621L301.852912,124.213141L302.745305,125.833128L303.827812,126.357784L304.906026,126.879783L306.753878,123.712682L310.025672,114.261302L310.668603,117.135503L310.662626,122.603636L311.368561,124.784473L311.678449,128.424679L312.931795,128.201943L313.910534,129.040783L315.881028,126.238441L317.050754,126.446409L319.136008,123.518638L319.767086,125.624257L320.894900,126.021874L323.595975,121.445843L324.843353,121.600534L326.400202,120.838592L326.611513,124.069060L326.607500,127.775356L328.358460,126.436734L329.299996,127.380804L330.628478,127.272901L331.711615,127.825957L333.084521,127.638576L334.623839,127.066090L335.433391,128.309485L336.281583,129.427864L336.988738,130.847000L337.605750,132.432369L338.405984,133.563948L339.166757,134.755799L340.923015,133.787442L340.835418,136.748847L343.688598,133.559622L344.910724,133.806640L344.219709,137.855077L344.368218,140.139858L346.185326,139.176063L347.777273,138.689218L349.318318,138.333804L350.402470,138.836625L350.594211,140.924904L351.760824,141.261585L352.970192,141.533852L355.179834,140.134867L354.845104,143.010932L355.054353,144.926111L355.277644,146.774925L356.721917,146.664996L357.838193,147.086027L358.411330,148.338882L359.699471,148.503760L360.775971,148.995324L361.908608,149.411137L362.117295,151.148558L363.760077,150.845737L366.569122,148.969064L366.302268,151.340163L366.872749,152.542417L366.953752,154.371131L367.643551,155.378598L368.577661,156.066282L370.313164,155.752244L370.337876,157.577600L373.188904,155.942183L374.617656,156.078058L373.888888,158.769049L374.422297,159.940236L379.140387,156.330426L382.370931,154.523901L378.455185,160.693146L377.627417,163.339521L379.566001,162.965622L380.405394,163.787033L380.821381,165.047964L382.563521,164.938346L382.667197,166.507942L384.927331,165.915129L386.597322,165.942355L387.055435,167.160856L388.548090,167.388029L390.965580,166.771507L391.390871,168.031448L391.224974,169.815271L389.592447,172.879010L389.457082,174.562563L390.708733,175.023129L393.502590,174.184670L396.020700,173.630584L394.010615,176.856153L393.326340,178.934212L393.450328,180.330160L394.720176,180.809491L400.955631,177.456935L406.829154,174.514811L409.301851,174.247625L410.445348,175.002503L404.854267,180.659077L401.743115,184.394978L403.557562,184.578303L402.857293,186.527413L406.565024,185.444798L405.541136,187.597939L402.460221,191.068030L403.698816,191.659134L404.737351,192.390677L404.421178,193.979035L404.423987,195.351100L404.982072,196.374444L405.345383,197.512648L407.103816,197.831106L409.593855,197.753670L411.093226,198.273425L416.262168,196.779656L415.540908,198.580216L415.347513,200.073016L416.070530,201.070445L413.183910,203.927486L414.917278,204.386410L418.924797,203.742320L419.201559,204.975934L416.980283,207.394103L417.863027,208.311821L420.141121,208.598106L423.850181,208.275730L424.029116,209.562266L423.536746,211.131556L419.848597,214.028232L418.103282,216.049604L417.050078,217.752664L418.061428,218.615448L417.677527,220.026082L418.704999,220.891123L419.969042,221.679877L421.378297,222.431366L421.974514,223.485238L423.258624,224.307373L425.665253,224.770610L427.182182,225.557330L425.258719,227.452014L423.876499,229.141404L422.864553,230.690749L422.837647,231.930550L424.608658,232.655543L426.045043,233.496429L423.918863,235.305358L426.722747,235.800653L429.446185,236.357006L431.247213,237.176182L432.665838,238.109349L426.847549,240.695785L423.903847,242.557975L424.471756,243.631976L423.947379,244.931719L424.396491,246.030654L425.572414,246.998037L424.716402,248.342455L426.959144,249.142829L426.036145,250.489195L426.288436,251.636590L426.537131,252.785661L430.099985,253.476039L428.444819,254.902913L427.050453,256.269458L428.031326,257.337939L428.261332,258.500386L430.571457,259.456612L426.961665,260.992439L426.094249,262.239205L425.836965,263.424250L426.234567,264.558747L426.725005,265.692441L426.607553,266.865199L427.327414,267.996698L427.786851,269.148403L427.009838,270.344340L426.792801,271.514953L426.732607,272.679431L426.558440,273.843583L426.110318,275.004921L426.299920,276.164299L427.194917,277.337554L426.470103,278.487508L426.155424,279.639346L426.289360,280.804113L425.960793,281.950324L427.083121,283.170253L431.461270,284.608334L428.992620,285.641747L427.735852,286.731484L427.263893,287.869567L426.867094,289.008820L427.193289,290.215882L426.539509,291.324232L426.764670,292.525887L427.994845,293.856995L430.279438,295.347660L429.101948,296.395689L425.396666,297.057161L424.836871,298.149238L424.286955,299.236918L425.563292,300.629745L424.281678,301.590172L429.014987,303.652557L435.145294,306.064460L437.589882,307.833340L435.873851,308.771799L431.248364,309.052852L424.425535,308.767282L422.764940,309.584190L422.652839,310.753501L422.344290,311.876272L421.235924,312.791922L424.042708,314.738051L425.231619,316.290585L425.198243,317.521896L428.916494,319.851273L426.194340,320.317791L432.972137,323.671601L435.539316,325.812690L428.643217,324.928411L426.285261,325.447040L422.013620,325.277629L419.572408,325.683394L417.804118,326.295545L417.447804,327.403336L417.175729,328.543638L415.989084,329.333905L419.398234,331.922292L427.218170,336.356685L429.152628,338.513842L430.526818,340.478525L426.761011,340.266539L418.372652,337.965156L418.730008,339.440320L416.833285,339.899735L416.054300,340.855059L420.271383,344.184608L419.329318,345.097723L417.177098,345.403919L413.510329,344.914849L410.793139,344.854046L409.491099,345.492697L408.988034,346.543079L408.014069,347.338255L408.853134,349.129171L412.636862,352.608660L414.888338,355.297061L415.402973,357.029140L411.451196,356.129147L408.299957,355.644388L406.486748,355.930153L407.279221,357.822165L407.956211,359.671081L408.549082,361.494075L403.452559,359.597414L400.642472,359.134078L399.598603,359.825093L400.239624,361.673319L399.039184,362.255746L397.825618,362.816605L397.137724,363.746902L396.924021,365.027152L395.967560,365.761391L395.279133,366.693711L394.161858,367.294220L394.267557,368.846986L393.156266,369.447427L393.319604,371.073106L391.830968,371.359154L391.572427,372.656372L393.184339,375.557849L389.650480,374.075542L389.527859,375.512749L389.905309,377.413231L388.440803,377.678468L388.266980,379.111162L388.728990,381.154986L385.425421,379.666203L384.175150,380.080932L383.960192,381.494405L383.315858,382.499750L383.098854,383.941213L383.946370,386.491145L381.932922,386.121450L379.626229,385.405274L378.244398,385.632828L377.361673,386.385905L376.937865,387.645124L375.605866,387.900127L375.495942,389.531719L374.337820,389.977138L373.910958,391.272234L373.111321,392.139202L373.595669,394.566900L375.747930,399.102183L373.886943,398.735490L373.869701,400.676546L372.818446,401.320223L369.376228,398.823502L368.783259,400.021073L367.085329,399.737416L365.056460,398.965965L364.339573,399.982047L362.711729,399.713788L361.352970,399.803298L360.635773,400.816341L360.057796,402.049286L358.216688,401.383472L357.407368,402.266885L357.034741,403.844779L357.914558,407.456119L356.543598,407.512979L354.637161,406.664689L354.453798,408.663734L353.054525,408.630489L351.623373,408.519081L351.958524,411.515647L351.123059,412.485758L349.535129,412.086170L348.860245,413.360862L346.397645,411.250631L344.695530,410.518176L343.822749,411.380508L343.771978,413.916274L342.822095,414.679265L340.776836,413.151314L339.663159,413.537383L339.118220,415.162246L337.871594,415.268492L336.724184,415.584975L335.401872,415.488002L334.954211,417.444955L334.126798,418.545554L332.976076,418.872637L330.944038,416.958083L329.582430,416.676033L330.012026,421.118904L332.568216,431.535600L334.500020,440.696824L334.792071,445.608990L331.361498,439.856705L328.118277,434.348909L324.938973,428.727818L323.643267,428.738399L322.424364,428.978520L321.002212,428.533391L320.036597,429.609811L317.513985,425.227392L316.700651,426.782768L315.122871,425.546269L313.459579,423.880643L313.211892,427.745548L313.078271,432.322058L311.680621,431.792568L311.012556,434.435096L309.633792,433.990074L307.168346,428.311667L305.821711,427.706743L304.862648,429.031722L303.718741,429.456307L302.184422,427.706004L301.150431,428.714645L299.406333,425.425192L298.126884,424.791068L296.926366,424.608638L296.055693,426.764115L294.675757,425.268128L293.457522,424.876720L292.306336,424.994584L291.233959,425.842597L290.027542,425.460871L289.204339,429.154569L288.245373,431.896412L287.214550,434.232762L285.940650,433.547575L284.806779,434.953169L283.398285,431.619013L282.031274,428.050857L280.782336,426.114673L279.694090,428.437491L278.494790,427.446273L277.333575,427.927871L276.158520,427.523377L274.989835,426.607605L273.826594,426.803071L272.664486,426.721363L271.475228,427.859488L270.137994,433.232019L268.974809,431.910715L267.864170,429.873726L266.842017,426.757039L265.636458,427.389210L264.186683,431.396933L262.826387,433.420523L261.489758,434.778275L260.038265,437.136357L258.863403,436.346324L257.273208,439.506340L256.043959,439.099373L255.206385,435.548448L254.570168,430.864801L254.183896,424.889551L252.939423,425.383839L251.846378,424.831010L250.740482,424.393591L249.303991,425.921104L248.251919,425.138216L246.726380,426.948962L246.032601,424.306865L244.922815,423.915008L243.623108,424.439949L242.658656,423.370678L241.087173,425.045531L239.420033,426.995888L237.937295,428.036448L237.180719,426.090092L236.125077,425.405188L234.696573,426.142288L232.371354,430.079091L228.724315,438.436085L230.299430,428.379636L230.995053,421.795876L230.083909,420.765116L227.978670,423.542963L227.534478,421.047108L226.299798,421.029902L224.811911,421.735275L223.883635,420.791340L223.253717,419.043336L222.139594,418.674967L221.632683,416.692727L220.485860,416.442234L218.979369,417.096575L217.205895,418.365604L216.565793,416.810108L215.328514,416.720077L213.868650,417.132159L213.684547,414.603176L212.534872,414.311600L211.190658,414.437609L210.159358,413.869038L207.333727,417.070618L207.353519,414.270057L206.612495,413.093081L206.077674,411.532309L203.145791,414.669526L191.632359,434.041515L176.033547,460.331975L170.446683,467.234658L191.503977,425.754351L198.434643,410.775650L198.339449,408.542380L196.092048,410.049984L195.417220,408.839854L193.888314,409.061932L192.358262,409.257180L191.275122,408.710735L189.076569,409.912469L187.444509,410.177719L189.566852,404.711798L190.902773,400.578072L189.149171,401.095948L186.858350,402.351921L186.544427,400.735595L186.599120,398.633809L185.990714,397.489947L185.121459,396.713974L183.937209,396.360552L182.726923,396.030459L181.651590,395.514347L180.128742,395.560721L179.168510,394.879290L178.472951,393.870286L176.336548,394.616419L177.857355,390.951070L176.602021,390.637792L175.758381,389.834660L175.133586,388.783487L174.379847,387.885680L173.595382,387.025669L172.119465,386.920383L171.553489,385.819608L171.215785,384.487341L169.828645,384.261555L169.242025,383.199247L167.905495,382.900095L166.121122,383.029551L166.571576,380.946247L165.126917,380.724313L163.970695,380.210330L162.093772,380.358689L161.420811,379.370039L160.637533,378.484797L160.114105,377.368287L159.901182,375.986519L160.111036,374.254721L158.762237,373.874725L157.613887,373.311237L156.220843,372.939210L156.861600,370.899688L156.129544,369.992188L154.381824,369.883550L150.902875,371.090103L145.390670,373.779025L140.491441,375.892950L146.430288,369.907608L150.391126,365.516944L150.112681,364.265354L148.733144,363.797501L147.233228,363.396920L148.427676,361.143940L148.109380,359.945234L146.777800,359.421053L145.049910,359.138428L145.970475,357.146115L146.493860,355.435793L146.147562,354.284911L144.684673,353.814865L145.274022,352.107022L144.525392,351.205118L142.220864,351.192651L142.023355,349.957426L142.398630,348.412699L141.943583,347.338168L139.035168,347.575164L139.249719,346.129488L136.184867,346.385067L133.907484,346.194502L131.893893,345.840056L129.356423,345.711896L134.387895,341.942525L135.120444,340.283753L134.936887,339.067031L133.523387,338.407243L131.108616,338.169953L128.762950,337.867662L128.828915,336.516583L127.330203,335.819629L128.863097,333.882645L130.184225,332.064452L132.236351,329.995795L132.318972,328.712089L132.066920,327.560098L131.307133,326.593033L128.060578,326.491084L126.232878,325.855034L122.187284,325.933610L122.331719,324.588959L124.581943,322.586996L127.593526,320.394652L127.778536,319.105478L128.896812,317.553221L129.605611,316.140842L129.254134,315.036674L129.006805,313.904016L128.499506,312.839339L128.184505,311.723009L127.552048,310.682958L125.689445,309.924822L118.233051,310.404205L118.821834,309.015616L122.533392,306.985544L125.203773,305.228889L125.318641,304.013874L125.440618,302.802899L125.916711,301.534210L126.224327,300.304919L126.177698,299.140999L125.555556,298.068092L125.005495,296.977634L123.151718,296.062034L122.621379,294.946756L123.077565,293.704136L124.304382,292.381956L123.541786,291.294930L123.277594,290.148256L123.275092,288.975185L119.347184,288.134982L113.928864,287.349983L104.643557,286.749625L105.891467,285.362244L112.146712,283.726950L118.606127,282.179450L122.974033,280.811957L121.246287,279.698457L120.323537,278.540581L120.503534,277.352182L121.235049,276.162648L123.560616,274.984624L121.903007,273.811313L120.761370,272.620417L118.822175,271.393323L119.101190,270.204306L117.916676,268.962756L117.772287,267.750277L121.220749,266.727992L122.004337,265.593899L121.976508,264.414622L123.274041,263.335559L124.140902,262.238691L124.504883,261.107270L124.331000,259.926018L121.497738,258.453626L122.501312,257.378691L121.537026,256.074563L122.517687,255.008176L123.056293,253.893283L122.603149,252.638756L125.780829,251.935658L125.835267,250.772367L126.309789,249.678550L126.130848,248.472715L122.681201,246.652129L123.951152,245.689230L125.430282,244.785211L124.734437,243.444350L120.907955,241.405966L122.959259,240.630712L126.568361,240.248972L127.709801,239.323558L125.722121,237.628864L127.459040,236.859961L128.785645,236.005250L129.186731,234.912966L129.017331,233.660680L129.959930,232.724466L130.411175,231.651226L129.578071,230.184168L129.761116,229.019067L125.526619,226.415236L126.264216,225.391702L128.437522,224.865368L129.249308,223.892243L129.553365,222.743932L130.321059,221.764551L131.274687,220.861468L132.460739,220.057403L132.680792,218.885928L130.432442,216.715563L128.930686,214.804855L128.508408,213.313513L132.140680,213.550059L133.280397,212.749157L133.110254,211.372995L136.829051,211.764544L137.277908,210.689105L137.498932,209.504323L136.622539,207.781175L138.218621,207.256212L139.873099,206.781286L140.434900,205.765939L140.396693,204.436656L137.300612,201.463035L132.642189,197.567531L129.095304,194.183408L128.577970,192.424379L127.809146,190.497739L129.634027,190.057825L130.322742,188.966417L136.670883,191.300017L142.658976,193.531455L145.174262,193.701536L145.305028,192.393216L145.661063,191.219996L146.744711,190.519823L147.985268,189.934326L149.414117,189.490104L149.547909,188.166845L147.265243,185.131423L146.721284,183.271226L149.045414,183.466442L151.554463,183.836224L152.357890,182.968983L149.436578,179.264166L148.377956,176.913683L147.189221,174.416413L147.795238,173.305339L153.579463,176.395105L155.004049,176.016544L156.910079,176.058516L156.863704,174.468983L157.712693,173.631707L159.615452,173.721310L161.245759,173.598620L162.703550,173.343228L163.299938,172.314884L164.435870,171.784835L164.207113,169.970991L164.500887,168.630074L166.734127,169.169602L167.106744,167.904897L168.526369,167.681873L168.789796,166.293935L170.538830,166.432135L171.251815,165.506147L171.568699,164.151570L172.204533,163.126573L173.400978,162.713747L173.447479,161.021710L175.295530,161.354487L175.604905,159.940531L173.498862,155.666272L176.090296,156.891028L178.630431,158.116268L178.095175,155.614963L177.566674,153.066154L179.315706,153.355267L180.314575,152.708259L180.686742,151.241413L178.332926,146.116041L181.027288,147.687588L181.858124,146.768251L184.252422,148.029709L187.149458,150.070531L188.170701,149.489780L189.647068,149.580616L190.671578,149.021373L191.006568,147.417711L191.638906,146.240754L193.282959,146.634665L194.550755,146.462513L195.132872,145.191326L194.632425,142.107018L195.027350,140.442284L196.472166,140.537908L196.414393,138.039775L198.481197,139.242483L198.878390,137.494483L201.901157,140.533373L203.925677,141.835841L204.622517,140.673650L205.028752,138.922636L206.813195,139.856519L208.110420,139.862648L208.018337,137.027383L205.008692,127.970894L207.459303,130.271605L208.285774,129.136302L212.166815,134.791293L214.187916,136.466499L215.215165,135.920726L216.481378,135.939032L216.892395,133.901168L218.110982,133.796903L218.800378,132.364534L219.950797,132.083018L221.394744,132.587870L222.778283,132.972005L223.782645,132.337973L224.194762,130.001749L225.531495,130.272611L226.687830,130.035553L228.268977,131.113490L229.233127,130.317833L230.515956,130.532764L231.393849,129.427003L232.391896,128.689584L233.501629,128.322775L234.819545,128.710979L235.868545,128.132953L236.241612,124.919900L237.067785,123.327986L237.679349,120.761561L240.067224,125.632215L241.464754,126.484814L242.753313,126.919080L243.819174,126.343763L244.844474,125.540735L245.572579,123.157144L246.925756,123.951992L248.309686,125.009657L249.447757,124.738883L250.736397,125.389244L251.856442,125.032354L252.712552,122.854485L254.238676,125.281769L255.278569,124.302316L256.457001,124.343550L257.416638,122.512066L258.682403,123.281912L259.890818,123.616150L261.093449,123.963213L262.257001,123.930116L263.371876,123.274870L264.560841,123.567787L265.718745,123.447269L266.897801,123.707539L268.061947,123.750763L269.087549,120.205527L270.373243,123.421428L271.518280,122.665382L272.708330,124.136343L273.856342,123.053627L275.020546,123.935817L276.182626,123.357108Z" />
<line x1="50" y1="575" x2="100" y2="575" fill="none" stroke="blue" stroke-width="1.0" stroke-linejoin="round" stroke-miterlimit="10" />
<text x="125" y="578" style="text-anchor:start;fill:black">n1_4mer:GRV/n1_4mer:RV</text>
<path style="stroke:green;stroke-width:1.0" d="M276.303267,189.955103L277.099508,183.676965L277.852275,181.964869L278.741147,177.395822L279.529320,176.549443L280.132463,179.401513L280.794434,180.590740L281.273294,184.176042L282.103200,182.479440L282.928384,181.158233L283.511610,182.692367L283.855114,186.397940L284.390675,187.797171L285.693741,182.369979L286.798131,179.249534L287.443662,180.013051L288.265511,179.431277L289.037402,179.263033L289.541162,180.858660L289.823011,183.677965L290.367030,184.706749L290.906192,185.682137L291.497883,186.302557L292.321597,185.686230L292.853138,186.575991L294.070677,184.140181L295.709643,179.959963L296.345595,180.527231L296.213364,184.349369L297.123943,183.619982L296.823703,187.787582L298.338267,184.679669L298.197819,187.981520L299.134004,187.179018L300.123491,186.245710L300.663187,186.920117L300.813346,188.867798L301.422054,189.232123L301.839981,190.190698L301.687160,192.866758L302.641401,192.096876L303.688070,191.105590L304.507255,190.822407L305.666434,189.616995L305.998434,190.728098L306.678078,190.875632L307.241349,191.329491L307.730880,191.961196L307.353398,194.727331L307.367336,196.434475L307.560829,197.652954L309.335834,195.153021L311.456259,191.980750L313.852719,188.333494L314.597878,188.454054L312.813746,193.999825L312.024748,197.249842L315.202355,192.217174L315.710895,192.779309L314.901038,195.944124L313.957144,199.262635L316.834462,195.178474L318.674375,193.198526L320.388019,191.534603L322.051568,190.033284L321.958027,191.714495L321.440288,194.088278L322.507467,193.678683L323.009612,194.246245L324.119549,193.802242L324.017989,195.354607L322.394395,199.298353L323.671368,198.567136L325.530460,196.973770L326.212656,197.232959L325.230205,199.982624L327.661757,197.640017L326.888810,200.017133L326.779704,201.386706L328.037846,200.812651L329.200802,200.400860L329.307505,201.445888L328.836541,203.241042L331.440287,200.959215L330.662252,203.128871L331.931620,202.642034L334.033113,201.142770L331.142485,205.852400L334.188574,203.231581L334.529725,203.934379L337.148288,201.952818L336.992187,203.257476L336.936406,204.422512L338.329985,203.940268L337.183680,206.293721L337.972241,206.485067L337.306734,208.243156L338.531880,207.967673L341.275807,206.137168L339.362659,209.142536L338.096144,211.420463L339.843875,210.653076L342.685563,208.854792L343.977271,208.618125L348.307424,205.524975L349.780461,205.208803L351.388944,204.795055L350.567447,206.610727L346.853664,210.966397L347.080329,211.748662L346.335197,213.363599L350.437454,210.822062L351.249912,211.131513L351.560539,211.863230L350.616941,213.608758L350.325498,214.797103L349.423631,216.446797L354.294074,213.592766L353.819325,214.920916L353.591001,216.041542L357.115403,214.375291L351.860033,219.160122L354.024358,218.507750L358.546760,216.236908L357.254134,218.083137L359.884547,217.219805L359.598848,218.357980L358.401697,220.080366L355.816983,222.665740L356.241942,223.269779L357.790772,223.170861L356.825851,224.643500L361.080393,222.930368L358.911060,225.116792L359.519830,225.627454L355.660574,228.707149L358.699167,227.812123L367.056051,224.026295L364.903837,226.114363L363.592200,227.703499L362.293829,229.252714L356.939901,232.855624L358.824952,232.695141L360.745143,232.547274L358.490416,234.457176L360.855094,234.118896L359.827581,235.402652L365.221470,233.723782L366.901743,233.803700L364.962550,235.498018L364.163809,236.660977L364.641889,237.266639L362.928162,238.778609L363.820507,239.204614L365.640351,239.276076L363.713243,240.818621L361.656014,242.371632L360.190401,243.666671L359.698758,244.582253L362.795337,244.227618L362.959666,244.924809L368.737497,243.749415L371.308601,243.710172L367.162727,245.835955L366.295105,246.878266L363.932532,248.350382L367.289496,248.113358L368.928861,248.414864L367.540254,249.572148L368.516245,250.073044L366.589843,251.336693L366.218599,252.176777L370.338173,251.920844L372.066706,252.288333L365.542309,254.545387L370.726612,254.143822L371.753895,254.695304L368.149852,256.195668L368.092105,256.948590L368.534446,257.605392L367.722959,258.490343L376.095356,257.797745L370.695873,259.470056L367.970022,260.642678L367.475313,261.443732L370.121003,261.799607L370.899977,262.439718L370.038579,263.292543L373.653836,263.613899L375.521959,264.178135L375.058611,265.002987L373.744497,265.897904L371.676447,266.835107L369.086643,267.779466L366.960297,268.651050L369.175866,269.222788L365.037194,270.168877L361.772905,271.010588L367.340315,271.463450L367.364703,272.171113L364.482701,272.945546L366.029706,273.607809L361.212025,274.342187L361.578551,275.002820L364.862438,275.691519L365.790433,276.394446L366.619297,277.109479L364.448560,277.745405L366.274820,278.501696L368.328396,279.296895L367.716336,279.980933L372.393572,280.980969L371.281372,281.653578L371.994937,282.450082L371.043740,283.117757L372.506302,283.994366L373.003708,284.798151L370.263037,285.261984L372.330623,286.239806L369.784919,286.682477L372.440849,287.768550L372.942796,288.598489L368.729857,288.746412L369.952842,289.669860L368.990697,290.259504L372.961950,291.675644L370.931906,292.087468L369.898354,292.654649L376.509200,294.690422L375.677396,295.330756L379.498489,296.937076L372.523915,296.254414L368.345976,296.094386L368.252487,296.825622L367.647852,297.434279L364.108451,297.301424L364.529059,298.137100L367.645348,299.701279L367.478426,300.417341L370.793466,302.119624L368.865401,302.352382L371.278196,303.857662L372.808551,305.135053L375.777523,306.897339L370.851563,306.148243L368.054681,306.029680L369.403487,307.285332L361.438889,305.303267L359.363979,305.303722L361.467042,306.809275L361.069901,307.414081L361.537152,308.349400L364.525306,310.291190L366.948399,312.062914L370.993813,314.551294L373.314382,316.391451L373.873336,317.521596L369.692715,316.586324L369.124531,317.200060L369.115233,318.065023L366.294556,317.623361L369.148476,319.837636L366.706525,319.539936L363.482559,318.815206L365.019737,320.438606L362.574130,320.049458L363.990426,321.643794L362.951489,321.961808L362.095679,322.366038L360.756652,322.492871L364.290336,325.347728L362.810493,325.403948L363.176027,326.516030L362.130569,326.804813L361.157090,327.123691L357.783576,325.953328L359.012703,327.601716L359.966929,329.109858L360.793776,330.564989L355.457923,327.988685L352.240926,326.722909L347.616770,324.436544L345.089234,323.505947L346.093563,325.010986L349.900429,328.551543L350.939284,330.178498L354.647437,333.810658L352.925784,333.467349L349.220803,331.581559L349.549766,332.740896L347.168012,331.786192L347.685338,333.100543L350.346500,336.179821L347.508554,334.803176L348.598852,336.656062L350.330299,339.095234L346.783667,337.032063L347.029308,338.214870L348.118934,340.169715L346.703680,339.901022L348.489947,342.549463L349.863351,344.877679L345.732652,342.043603L345.029517,342.403315L343.752315,342.196439L342.892140,342.380605L343.428734,343.961964L342.407656,343.982167L341.112665,343.702277L338.827983,342.353530L340.825527,345.536168L338.580040,344.185273L340.071833,346.906791L340.155512,348.117661L340.162681,349.263634L340.455258,350.760251L336.617889,347.433325L336.348216,348.246197L336.221874,349.243725L338.686205,353.449225L338.122175,353.983666L337.717673,354.722508L334.303130,351.582535L330.243897,347.481100L330.950695,349.587042L328.474984,347.436418L328.184276,348.210074L328.268892,349.520785L327.301425,349.365297L324.398465,346.394085L324.168893,347.239089L323.020852,346.727875L319.698675,342.885106L319.024564,342.989905L320.965645,347.194211L324.180196,353.565430L323.623075,354.015258L322.878933,354.158583L322.002600,354.071651L320.946827,353.661639L319.177972,351.981761L321.853007,358.111893L320.663140,357.472137L320.521687,358.724195L320.819197,360.832151L318.697463,358.389401L317.117768,356.895109L318.555380,361.310194L318.340341,362.545522L316.248623,359.951333L314.183640,357.297533L314.765980,360.196499L314.427831,361.189127L314.512818,363.154332L315.368551,366.944702L314.646406,367.213108L313.266883,365.918126L311.426318,363.434283L311.556179,365.717315L310.684573,365.549659L309.135321,363.602813L309.895564,367.687036L311.530293,374.330703L312.645082,379.834763L311.646327,379.565585L310.389804,378.514753L309.857060,379.567293L306.789393,372.857720L306.128040,373.381038L304.823766,371.832492L302.927164,368.207523L302.174328,368.288968L300.113462,363.740915L300.038916,366.137090L299.919714,368.502030L298.716077,366.807161L297.681254,365.664461L297.324736,367.235634L296.606663,367.358418L296.344025,369.494449L295.693492,369.995656L294.668109,368.736576L293.722928,367.763094L292.653287,366.055762L292.085286,366.888785L290.636978,362.839293L289.816056,362.090142L288.422886,357.730175L288.267042,360.929622L287.443072,359.901944L287.689009,366.459171L286.488898,362.743269L285.529565,360.501006L285.218023,363.559939L284.357173,361.944922L283.963041,364.741024L283.891609,371.497429L283.229802,372.485089L282.865201,377.533260L281.986945,376.252039L281.272313,377.304369L280.139881,370.853267L279.298814,368.572977L278.518254,366.945508L277.839696,367.822207L277.138491,368.283145L276.390877,366.149346L275.694772,366.469332L274.993959,365.099109L274.296298,366.037632L273.627636,364.152505L272.830418,369.088679L271.888644,376.257823L271.148962,375.290461L270.321000,376.551494L269.764639,372.389627L268.971980,373.104457L268.091661,374.917824L267.319867,374.944915L266.495989,375.572303L265.962133,372.940963L264.926779,375.719941L264.073965,376.394662L263.315250,376.152988L262.311436,377.918500L261.852326,375.307217L261.727183,370.572959L260.543135,373.550405L259.917866,372.599041L259.748091,368.923442L259.075983,368.526987L258.205654,369.267440L256.689490,373.404908L256.324252,371.260537L255.349381,372.292085L254.487983,372.693386L254.595016,368.610868L254.154609,367.229344L252.860625,369.578334L251.311578,372.812397L250.725674,371.977259L249.788098,372.543626L249.601474,370.247269L247.840016,373.805524L245.896509,377.787472L247.529436,369.258867L246.966264,368.517595L247.395956,364.582744L245.985282,366.659087L243.938463,370.573535L242.086677,373.692186L240.279583,376.512330L239.452866,376.385618L239.651046,373.398975L240.072410,369.933442L240.475088,366.665258L241.060386,363.059628L238.958067,366.420522L238.336386,365.948743L236.400335,368.674973L234.930974,370.164137L234.085839,370.126609L233.406229,369.700803L234.147730,366.109957L233.840302,364.943098L233.548334,363.776927L232.726185,363.757171L233.487791,360.465019L233.623402,358.550670L231.901736,360.375898L230.432828,361.629244L225.241088,369.925712L223.138542,372.119642L223.938827,368.882503L228.242398,359.422128L230.386209,354.114976L228.981311,355.164377L226.692022,357.678506L225.057936,358.991016L223.592086,359.967341L222.514557,360.266207L221.887583,359.821866L218.197073,364.188979L218.216431,362.668668L221.487950,356.246500L220.294039,356.689603L222.877256,351.556823L222.564439,350.761794L221.545608,350.982999L219.582698,352.504344L218.541074,352.695836L218.169801,351.959742L218.355790,350.490467L220.837271,346.042825L219.361452,346.830290L217.603523,347.938430L216.163112,348.601322L214.106054,349.989144L214.803869,347.979867L212.182565,349.979930L213.149977,347.686453L212.006584,347.891067L210.046902,349.004760L212.094176,345.574000L213.296666,343.166099L211.403645,344.184403L210.552473,344.040992L211.449187,342.043042L209.923957,342.606904L212.570216,338.870886L212.709064,337.759503L214.289849,335.236572L215.574488,333.065124L212.238480,335.391666L210.660258,335.967737L209.400363,336.214443L206.195443,338.225793L209.784851,334.012162L207.416605,335.219719L207.715490,334.034738L208.425967,332.514550L207.503968,332.413799L205.503213,333.203777L203.807456,333.701726L200.468935,335.501123L198.829426,335.869704L195.557345,337.493078L195.072600,336.888880L195.684350,335.448754L193.434682,336.180981L196.093578,333.247154L194.972192,333.132879L195.616372,331.740810L192.640220,332.919733L191.985003,332.434886L192.935931,330.852038L193.275248,329.709546L192.563086,329.276179L193.035739,328.069175L195.232801,325.783458L197.468742,323.529107L194.986550,324.233522L189.983947,326.417810L190.258513,325.368969L189.107185,325.166636L189.203405,324.232659L189.000822,323.476761L189.478105,322.347876L191.155449,320.583380L189.744306,320.507694L189.706722,319.691378L186.851006,320.330229L188.674376,318.559432L187.355114,318.385770L183.586896,319.382279L188.235896,316.306601L186.508247,316.300343L189.254039,314.221527L186.407726,314.705445L185.977520,314.081880L185.346246,313.542366L183.840902,313.364607L182.241730,313.203639L181.686430,312.598647L180.506009,312.235224L183.780444,310.139841L184.608894,309.027615L183.974997,308.472190L183.114293,307.991633L180.066839,308.266847L183.288711,306.350883L181.467551,306.175058L177.190643,306.769954L181.972564,304.430617L184.324194,302.924124L183.525072,302.404601L186.438255,300.794013L187.694302,299.704048L186.414414,299.334633L185.386370,298.880086L188.644922,297.304492L186.327458,297.179693L182.111587,297.479344L178.691262,297.527312L172.094635,298.240119L177.320802,296.274536L176.142764,295.738984L181.736707,293.820539L180.798820,293.259730L184.690432,291.788434L185.286330,290.967459L186.730228,290.013606L186.417585,289.369271L186.099367,288.722611L190.360037,287.401695L185.302006,287.441512L189.334301,286.213862L186.474130,285.898982L186.072924,285.257276L181.312559,285.079548L180.777544,284.407351L182.852048,283.487629L180.343899,282.987688L174.058269,282.739615L167.589672,282.408179L165.989291,281.679708L169.872245,280.633565L176.684056,279.513313L181.391511,278.578655L183.965741,277.781855L181.191696,277.147294L180.288859,276.441961L180.004986,275.718277L180.090675,274.990364L179.765930,274.260577L176.472636,273.479927L176.721124,272.730406L177.656209,272.005551L180.779065,271.378771L180.830357,270.657866L179.568212,269.866586L179.610348,269.135489L182.589213,268.607497L188.261377,268.331678L184.516814,267.345944L189.720089,267.127513L188.696291,266.365573L187.999784,265.622040L189.252013,265.091772L182.724199,263.620318L181.633356,262.758780L184.727647,262.460139L187.681938,262.187790L187.392096,261.458719L182.611842,259.994131L180.438023,258.896409L184.516516,258.876571L182.551727,257.794562L182.272772,257.006440L180.175670,255.844404L177.510891,254.527364L174.906621,253.178365L177.151319,252.880997L179.632552,252.672437L185.785420,253.390559L184.798418,252.418385L186.303267,252.071473L185.773091,251.203561L185.100624,250.284832L183.341284,249.044118L183.502922,248.330902L185.896701,248.286188L183.832907,246.904312L184.521850,246.355675L182.330569,244.878768L179.633845,243.192236L184.766257,244.133740L184.607929,243.303848L185.386896,242.803803L185.753359,242.161185L185.540429,241.302318L190.876715,242.574185L193.004704,242.670633L188.417351,240.092992L189.004694,239.561346L188.679687,238.651177L192.538752,239.529869L189.018318,237.232238L187.934189,235.957455L192.179522,237.096297L195.393727,237.826947L193.723157,236.285524L190.789999,234.093791L191.870158,233.828238L197.744780,235.997761L200.214605,236.522738L198.411420,234.849825L194.592934,232.059420L188.012656,227.685106L184.042549,224.618679L183.534411,223.417408L180.189157,220.569100L180.806574,219.959647L180.967376,219.082687L186.350524,221.360103L192.304078,224.092759L189.584969,221.512064L181.966363,215.743967L182.820320,215.290108L187.523453,217.380278L190.464918,218.384255L196.343039,221.443434L198.585804,222.109007L195.675923,219.191056L194.181226,217.208596L197.621615,218.767677L198.724076,218.670695L198.509075,217.600974L200.989866,218.570972L197.037924,214.607570L195.933739,212.777016L193.886419,210.153229L199.080461,213.346194L202.399293,215.112406L202.354084,214.133715L203.147354,213.855205L203.374053,213.095603L204.022462,212.699526L205.856688,213.365135L206.801332,213.262906L203.547572,209.314263L204.281064,208.981603L203.864382,207.565134L204.356966,206.996791L211.841540,213.262309L208.315691,208.808996L210.850237,210.341434L210.475366,208.959086L210.507366,207.971959L211.301848,207.774187L211.549211,206.999111L212.839159,207.349680L212.836001,206.296951L214.121869,206.672939L213.772683,205.211655L213.605543,203.929958L211.658695,200.530352L212.411473,200.262475L216.426438,203.957900L217.323188,203.943184L217.697304,203.288005L218.740379,203.476385L218.506913,202.035887L217.992824,200.194743L214.439636,194.256277L218.472638,198.417824L218.339868,196.993972L220.686997,199.007473L223.385713,201.600960L222.757339,199.484155L225.517184,202.288915L227.371717,203.847884L224.981608,199.024285L224.222825,196.569758L227.179457,199.881029L227.588167,199.247918L227.619549,197.992179L226.800911,195.299689L226.764756,193.841951L229.242175,196.649529L229.308155,195.367539L232.511389,199.617897L231.002318,195.522910L230.631549,193.383442L233.045719,196.394868L234.016097,196.775859L233.570369,194.429265L234.467718,194.666662L235.617348,195.435031L235.233438,193.086588L234.702216,190.347387L234.010585,187.166553L235.647327,188.959484L238.921423,194.492692L240.697356,196.856561L239.344090,192.052575L240.779459,193.679876L241.344173,193.275795L242.018014,193.136069L240.823839,188.260403L241.480140,187.976811L243.703254,191.854493L243.878273,190.357885L244.805386,190.895210L244.448209,187.805127L246.735252,192.307322L247.170771,191.496221L247.615466,190.682028L247.782434,188.957494L249.320950,191.604222L249.419052,189.601605L250.069807,189.393119L251.012474,190.215376L251.077483,187.902888L252.352067,189.998432L251.758364,185.003818L252.316167,184.298661L253.014279,184.137617L254.784070,188.559439L255.187011,187.255609L255.959519,187.563672L256.048259,184.646573L257.055870,186.063846L257.809108,186.296538L257.822224,182.578319L259.178670,186.089589L259.957181,186.540025L261.077499,189.153067L261.596913,188.149512L262.289181,188.229447L262.755865,186.702634L263.402439,186.379374L264.296553,188.037624L264.862546,187.085107L265.562073,187.247849L266.093760,185.765461L266.466916,182.323565L267.625762,187.577460L268.184192,186.066529L268.857620,185.897591L269.505583,185.282185L270.164843,184.713053L270.724796,181.800751L271.516072,183.786948L272.390412,189.506514L272.993539,187.211920L273.667539,187.282317L274.351967,188.902309L275.012167,185.540520L275.682566,187.477668Z" />
<line x1="50" y1="625" x2="100" y2="625" fill="none" stroke="green" stroke-width="1.0" stroke-linejoin="round" stroke-miterlimit="10" />
<text x="125" y="628" style="text-anchor:start;fill:black">n0_4mer:PS</text>
<path style="stroke:red;stroke-width:1.0" d="M276.799278,157.587885L277.719446,156.711263L278.912253,147.390630L280.228594,138.589264L281.397468,135.942864L282.567549,134.045020L283.173378,141.830372L283.523460,151.598427L284.282884,154.088634L285.419111,151.677543L286.475253,150.551930L287.102480,153.905599L287.849190,155.681022L289.149197,152.438552L290.282294,150.973002L291.014267,152.757332L292.120456,151.659095L292.836063,153.355662L294.305151,150.015992L294.952784,152.074313L295.045920,157.214632L295.448560,160.175429L297.044372,156.483010L298.059044,156.102756L298.102146,160.578413L299.862515,156.545707L302.259418,149.901945L302.582251,152.924620L303.320666,153.977882L304.099117,154.809952L303.146228,162.521349L305.539905,156.808948L305.605872,160.192808L306.171715,161.569560L307.442824,160.388548L310.027592,154.780082L311.419906,153.476553L312.272018,154.012363L312.641801,156.058977L312.682269,159.027867L313.440620,159.707457L314.890792,158.344733L315.056858,160.726751L317.461073,156.777779L318.880142,155.708069L318.703756,158.940217L321.572288,154.138835L322.869415,153.554475L323.480860,154.713160L324.447388,154.975910L324.873108,156.528274L324.096259,160.828083L321.796397,168.433887L324.363580,164.887525L327.612335,160.009385L325.442875,166.947184L327.906642,163.898644L328.254917,165.339944L330.768720,162.368168L329.556138,166.907993L330.867492,166.386889L333.522252,163.337624L335.057189,162.513751L338.743811,157.779584L337.784598,161.622245L339.968872,159.770174L337.470647,166.158994L336.949800,168.956896L337.602595,169.700365L338.459037,170.098149L337.045123,174.187863L336.275278,177.126835L337.414742,176.984725L339.771978,174.982837L341.058558,174.689277L342.169168,174.684767L344.203003,173.340971L345.256308,173.474847L344.101609,176.760793L344.415810,177.903771L344.106687,179.885180L345.751376,179.174302L344.986480,181.714719L350.182684,176.372136L349.591214,178.687786L350.490829,179.053972L354.090765,176.048334L352.592397,179.433728L353.863173,179.375374L355.897796,178.425523L356.549591,179.149124L355.044400,182.365952L353.269128,185.811124L354.317446,186.001456L353.923052,187.798515L355.694406,187.203033L359.573231,184.386327L361.563511,183.667057L361.969945,184.635251L361.224811,186.772642L359.767883,189.582692L361.540330,189.122897L362.416870,189.572520L366.592233,186.854093L369.628438,185.318592L372.160812,184.321643L372.844657,185.076271L371.844882,187.354442L371.467055,189.031759L367.269365,194.032546L367.736729,194.871839L370.441416,193.803819L370.536143,194.976971L370.482272,196.259146L369.994493,197.876675L371.634617,197.766075L373.099774,197.819461L376.585713,196.329585L376.017976,198.000261L374.953864,200.015261L379.210791,198.062560L372.804926,203.943367L374.801229,203.654960L379.389780,201.576851L380.648248,201.895263L382.008297,202.160356L383.141135,202.595558L384.089175,203.165280L381.226820,206.211215L383.799191,205.722899L381.819415,208.128316L382.479095,208.856221L384.238912,208.921886L384.182226,210.093661L387.364147,209.362101L389.481725,209.296457L391.616426,209.254046L392.464420,209.957055L399.262599,207.431624L389.260298,214.000134L387.553872,216.014912L388.051622,216.853846L390.050831,216.936033L395.883587,215.150105L400.280603,214.163923L399.517260,215.709366L397.637429,217.753090L397.349778,219.025119L395.619584,220.930508L399.598045,220.289793L397.458201,222.344916L396.504988,223.854362L394.841895,225.631969L393.240720,227.348029L392.852720,228.550912L391.073064,230.276831L391.474330,231.144218L393.101914,231.561701L388.320122,234.303502L391.066174,234.318652L396.701190,233.387898L397.341090,234.213434L402.678575,233.518340L400.993150,235.130629L398.647140,236.912832L395.488347,238.894332L398.453262,239.034438L398.873918,239.939370L398.670612,241.018269L400.633891,241.512017L397.958499,243.232233L395.938904,244.740649L398.387975,245.130639L403.729222,244.879938L397.894506,247.236631L395.698543,248.703130L398.067873,249.173074L392.246291,251.331276L395.566746,251.621006L396.393475,252.424446L396.399887,253.384313L400.979950,253.563415L406.403100,253.675331L400.868217,255.562223L403.689219,256.135013L398.877166,257.808977L400.143505,258.609613L398.479698,259.788985L401.531350,260.396425L402.177299,261.308508L400.839639,262.427164L400.426672,263.438388L402.205430,264.256756L400.093859,265.399865L398.842312,266.449912L403.410334,267.122678L398.065988,268.396653L394.926307,269.486349L398.836596,270.257171L400.744912,271.148765L396.036602,272.221092L394.442957,273.173263L391.892666,274.108089L396.631445,275.003961L400.667696,275.967052L405.192752,276.999624L403.308650,277.954230L403.293279,278.937649L397.733281,279.708579L399.413731,280.728082L398.638717,281.642154L402.010609,282.799760L400.504554,283.673063L401.336884,284.703806L400.719870,285.626027L403.767338,286.878007L406.605115,288.157531L400.859445,288.557909L402.034803,289.670065L398.445841,290.215007L403.174093,291.795803L402.844833,292.750122L398.544037,293.118957L399.034281,294.162834L395.440821,294.553713L398.704290,296.057652L398.702311,297.033955L397.119086,297.718725L404.179994,300.057912L402.761561,300.800122L406.016983,302.504030L400.647151,302.383607L396.385361,302.430745L395.096837,303.108507L395.661083,304.217563L391.953588,304.270305L394.675501,305.927881L393.880392,306.696117L392.782551,307.372083L395.961546,309.244837L393.915229,309.651903L395.538862,311.129361L397.104528,312.620703L400.443325,314.704372L394.099176,313.702864L396.804394,315.616456L394.755843,315.955661L389.459367,315.126531L388.369412,315.722536L388.437346,316.731042L392.266876,319.162919L388.454001,318.722526L389.471165,320.124936L392.561923,322.387312L394.205917,324.115126L399.146720,327.267153L399.584215,328.578850L395.784334,328.045015L391.597260,327.275547L392.327488,328.686431L391.442586,329.364407L391.291674,330.383199L388.907860,330.322659L387.887096,330.899959L389.840115,332.967008L386.212317,332.209300L388.214840,334.340875L388.136562,335.409409L386.516416,335.646990L384.657934,335.729634L386.189291,337.695790L385.255680,338.287671L385.901663,339.793273L386.853566,341.504249L383.762392,340.799545L385.445271,342.979114L382.806759,342.499560L383.403638,344.035159L383.705303,345.403814L379.180232,343.611932L380.008853,345.317170L374.311667,342.610079L373.645463,343.268567L372.081221,343.292084L372.884007,344.984107L372.219862,345.641251L375.760422,349.400219L373.147805,348.639836L372.879119,349.617262L372.426664,350.459699L370.266800,349.961727L368.810151,349.986521L371.069172,353.006208L366.594076,350.544420L368.017886,352.923995L373.176766,358.534286L369.268243,356.462174L368.417271,356.985526L370.826958,360.409007L368.598425,359.718572L368.482882,360.926291L369.588889,363.289557L366.586319,361.809651L366.689878,363.251382L363.579614,361.575043L362.224184,361.566991L362.996643,363.682356L361.180491,363.193500L360.402678,363.747873L358.285126,362.885391L359.476957,365.522341L356.390772,363.566204L358.220543,366.961789L357.080172,367.110552L360.689121,372.656902L359.462025,372.759362L357.873656,372.419997L355.912768,371.605132L355.170154,372.222291L356.955200,375.953133L356.613384,377.121390L358.019276,380.528547L354.139988,377.199344L354.686101,379.549762L353.624324,379.812921L351.120923,378.112269L350.614043,379.085458L350.282853,380.317326L345.720807,375.555077L343.805154,374.441978L343.289593,375.331280L341.419600,374.209752L340.402501,374.328577L337.905622,372.149111L338.724445,375.086401L339.144590,377.471069L338.594703,378.345005L338.035175,379.216507L338.921181,382.533484L337.861500,382.619808L336.265839,381.758006L337.500414,385.868608L337.039360,387.049208L337.207119,389.412302L335.179816,387.733600L332.592771,384.906304L332.672763,387.140729L332.358814,388.663350L333.102290,392.363988L329.882212,388.029641L326.779556,383.752779L326.626335,385.606679L325.129845,384.583697L324.388012,385.186198L326.093806,391.372887L325.872022,393.322636L325.156573,394.166789L323.228822,392.087907L321.414322,390.181148L321.890204,393.983965L319.901708,391.548415L319.676284,393.665866L321.143112,400.469230L322.601423,407.561378L321.036659,406.359688L319.364587,404.765885L318.159510,404.473719L314.922137,397.892857L313.163494,395.616783L311.890495,394.776910L310.680150,394.083283L310.414901,396.578707L309.292902,396.177378L307.778520,394.307835L308.054416,399.024499L306.459838,396.783987L305.598071,397.310594L303.810845,394.033277L303.091515,395.078140L302.542684,396.937206L301.927051,398.611466L300.652680,397.258544L299.638684,397.072819L298.261389,394.982386L297.196058,394.375748L296.025324,393.107834L295.249291,394.027201L294.090923,392.664366L293.101175,392.239933L291.814937,389.732187L291.507179,393.979574L290.500428,393.380214L289.064007,389.200990L288.662973,393.417438L287.587476,391.960233L286.840089,393.547010L286.241292,396.997688L285.469578,399.016076L284.986707,405.189894L283.929561,404.403661L282.984350,405.228491L281.663528,399.267651L280.536363,395.510904L279.526684,393.299648L278.667670,394.886516L277.797502,397.029872L276.806619,393.394515L275.896516,393.029596L274.992039,393.739443L274.084841,393.393723L273.179883,393.239756L272.180281,397.283307L271.170479,399.630199L270.194857,400.137668L269.155858,401.839358L268.524229,395.464077L267.283866,400.578078L266.283019,401.076873L265.225025,402.206002L263.955776,405.614025L263.159138,403.316278L262.104860,403.935700L261.170484,403.339247L260.141889,403.624259L259.074351,404.174902L258.288719,402.494952L258.144344,396.371740L256.668510,399.963180L255.876718,398.749994L255.373132,395.865069L254.873701,393.208367L253.873653,393.583164L251.976196,398.735237L251.466036,396.301272L249.868549,399.428207L247.999519,403.596246L248.413705,396.968545L247.214655,397.934806L246.253355,397.804272L244.512981,400.884633L244.208630,398.013206L242.534950,400.605703L242.566020,396.630995L240.239420,401.455793L238.639968,403.416065L240.062948,394.878389L238.308639,397.398521L238.759794,392.609473L237.769731,392.612464L236.228206,394.297297L232.800916,401.535987L230.121472,406.211673L227.678429,409.968032L229.612456,401.342857L230.151170,396.899446L230.198866,393.949108L231.376773,388.184702L228.814468,392.149804L228.545470,390.236349L225.699933,394.643069L223.456750,397.415478L223.266028,395.282984L222.634400,394.226128L223.108821,390.729263L221.860705,391.121182L221.906477,388.710264L220.500379,389.426205L220.348589,387.515906L220.462864,385.125397L219.541039,384.861934L215.489284,390.676362L207.829815,403.141421L203.740628,408.445625L203.537647,406.392683L210.223454,391.955825L213.108237,384.754523L212.071224,384.621682L211.466975,383.735986L208.745759,386.424329L207.911056,385.885052L207.277456,385.019924L206.635589,384.179683L203.850178,386.715721L203.038249,386.102403L205.819822,380.035171L203.831613,381.272100L204.920293,377.931645L202.990342,379.043530L203.490864,376.647001L202.502226,376.392384L201.091532,376.708988L202.845368,372.712166L200.667792,374.063488L199.074357,374.588263L199.117858,372.965105L197.229473,373.829414L198.404329,370.816465L194.290697,374.391185L197.303183,369.197140L195.584171,369.792048L195.797242,368.079473L193.238657,369.607848L192.297684,369.227454L193.318779,366.638106L194.396820,364.045503L189.772673,367.716033L189.569389,366.519634L191.984058,362.577814L189.730865,363.585321L189.540666,362.432040L187.940121,362.714763L188.093307,361.228763L189.022027,359.009738L186.225320,360.422578L187.432229,357.978400L183.821056,360.083827L182.911690,359.621668L183.829257,357.498970L180.579079,359.133113L182.666971,356.012050L182.675384,354.760960L181.310221,354.694851L178.519014,355.803128L180.483172,352.933736L176.735020,354.767298L176.687185,353.564092L173.598176,354.767124L173.757968,353.393092L175.556964,350.788418L173.760589,350.938237L174.185199,349.419484L171.322744,350.312039L171.952040,348.655297L167.228308,350.790728L169.501027,347.990686L169.328093,346.919312L171.761198,344.111840L170.026923,344.113911L170.426978,342.707607L170.525783,341.513080L170.898698,340.160083L172.451891,338.099448L167.352752,340.105184L169.390495,337.772581L165.357342,339.037991L165.616633,337.767457L164.898495,337.062969L168.762146,333.816946L169.245553,332.495032L167.766161,332.239165L166.333428,331.938354L165.056128,331.538149L166.311279,329.843727L165.577669,329.165990L161.015215,330.341131L161.621044,328.977384L158.350076,329.442157L160.425737,327.408037L161.820480,325.725001L158.938671,325.952243L158.490811,325.087582L158.181652,324.163387L155.511925,324.212639L154.288560,323.638015L153.149192,323.015139L161.014820,318.909676L159.142472,318.614417L158.853117,317.710138L158.155263,316.953191L156.451752,316.542138L157.630516,315.121964L155.609149,314.793855L152.305234,314.853110L155.034393,312.952909L156.498280,311.493271L154.762936,311.021332L157.245885,309.296424L155.159706,308.910047L158.224278,307.078519L160.840384,305.421059L161.743502,304.252809L156.393413,304.667105L154.603212,304.136474L153.426911,303.436827L147.226124,303.856417L153.577027,301.445932L152.416481,300.716454L157.135334,298.785098L151.375757,298.963025L153.680935,297.553060L152.501016,296.802670L155.656526,295.298862L155.362844,294.406772L155.304924,293.476010L160.583958,291.764574L158.042555,291.222519L158.994274,290.185450L157.555710,289.459313L156.680780,288.647506L153.781095,288.041574L153.047676,287.175954L157.222717,285.848313L153.601345,285.244397L147.572235,284.770408L141.653731,284.197003L140.176932,283.261378L142.641708,282.092790L148.247871,280.818710L151.185138,279.733445L151.053205,278.787608L152.661043,277.800367L151.186307,276.885042L148.349806,275.957628L152.043974,274.987516L153.361183,274.055563L150.778328,273.083517L147.927500,272.065464L148.008881,271.093552L148.638164,270.143487L152.141395,269.335026L151.405831,268.351691L148.496729,267.222639L154.043942,266.632882L155.410279,265.806140L152.294559,264.620234L154.235250,263.851784L153.753085,262.869609L154.189806,261.977582L156.804171,261.342406L155.729133,260.291219L151.850595,258.853988L156.416806,258.527439L159.123919,257.997462L153.105133,256.159091L154.462470,255.422054L151.220992,253.920845L156.080687,253.809535L155.107108,252.686876L155.184078,251.749926L151.113640,249.973543L151.028177,248.966015L147.143844,247.125725L148.093308,246.312342L152.744844,246.377448L155.735567,246.111922L154.921773,244.938883L158.778493,244.956189L155.833829,243.218886L158.901321,243.082111L158.012902,241.871635L158.090030,240.923683L161.082462,240.846700L153.668115,237.608188L156.610088,237.519138L149.080081,234.071043L151.732453,233.886200L153.816149,233.546636L154.731075,232.827473L159.036381,233.336590L161.834871,233.360239L159.223639,231.389295L161.013439,231.063209L162.544633,230.660738L161.300875,229.160605L162.104502,228.475780L159.768457,226.476880L167.140183,228.604851L161.131956,224.983054L161.891214,224.279117L166.287935,225.246726L163.271859,222.827276L163.415813,221.849272L161.612250,219.920283L166.033787,221.032245L167.721637,220.840599L171.261032,221.626057L170.969165,220.463721L165.810971,216.688704L162.353267,213.728233L159.195459,210.855879L159.430769,209.824009L155.568385,206.434316L159.957085,207.776597L156.471863,204.516218L162.521237,206.941512L168.479162,209.426247L157.702315,201.546756L151.286029,196.202703L149.642202,193.798800L155.347273,196.186225L166.721834,202.482780L172.718575,205.357825L176.595224,206.887966L174.186015,204.071698L172.164531,201.465030L174.400796,201.892674L173.347896,199.930542L173.007903,198.464816L168.444777,193.756968L168.066910,192.165507L163.422174,187.191304L166.839970,188.530773L173.015317,192.178846L177.586865,194.644883L180.151463,195.531279L181.057401,195.057211L180.737375,193.531326L180.302540,191.879384L185.539997,195.254686L183.952393,192.578821L182.636332,190.090701L184.064259,190.108567L183.011119,187.796738L184.469297,187.852294L190.988768,192.878627L189.928327,190.557655L190.748899,190.080662L191.301786,189.334941L191.011647,187.709802L192.700317,188.142486L192.419439,186.497530L192.084308,184.761950L194.859258,186.429229L192.970239,182.933237L195.316026,184.174321L196.339030,183.942294L192.948347,178.532809L193.909633,178.169260L199.997666,184.031941L200.230829,182.885699L202.378984,184.117751L202.067505,182.279936L201.644833,180.257529L201.583467,178.662257L195.819942,169.431073L199.626929,172.886022L198.173582,169.230325L200.000400,170.063635L206.444911,177.509982L204.110468,172.530433L208.307149,177.000130L208.513560,175.675594L206.654488,171.186205L205.676309,167.922877L208.573510,170.653850L210.967887,172.692927L211.886735,172.421512L210.949550,169.088440L210.330538,166.190612L213.181321,169.148756L211.269466,163.929429L215.217201,168.935033L214.288853,165.331830L214.624863,163.938858L218.414218,168.981430L217.220146,164.718180L219.823456,167.694803L219.856713,165.708243L222.512424,168.959088L222.309345,166.464810L222.587445,164.898169L223.320610,164.259728L223.817158,163.094054L227.470366,168.940304L229.300467,170.893779L228.556367,166.956769L229.342800,166.502326L229.797210,165.237072L229.657858,162.457174L229.218617,158.806178L230.447541,159.334329L231.412909,159.202952L233.771856,162.871349L233.822897,160.304328L234.538711,159.523400L237.456133,165.159894L237.276325,161.807162L238.403906,162.319303L238.316280,159.032275L240.443580,162.773906L241.063805,161.708791L241.979192,161.611049L243.065366,162.126086L243.174008,159.127910L244.827280,161.756617L245.077639,159.134736L245.221826,155.931931L245.906617,154.763136L246.494468,153.114234L248.306937,156.786309L250.251648,161.352394L250.926062,160.226227L251.304108,157.556499L252.055606,156.608982L252.878737,155.980849L253.690813,155.249730L254.827386,156.374035L255.118479,152.409409L256.184679,153.078843L257.345037,154.478198L258.646577,157.068909L259.350180,155.414784L260.563615,157.708589L261.400829,157.064103L262.078282,154.856184L263.024479,155.013321L263.811652,153.485171L264.935143,155.679824L265.816835,155.176975L266.733732,155.088102L267.661572,155.171510L268.350945,150.842114L269.515953,155.448027L270.358876,153.490272L271.470591,159.371984L272.311044,157.350946L273.232897,158.669261L274.114448,157.345630L275.017076,149.450004L275.927714,156.043410Z" />
<line x1="50" y1="600" x2="100" y2="600" fill="none" stroke="red" stroke-width="1.0" stroke-linejoin="round" stroke-miterlimit="10" />
<text x="125" y="603" style="text-anchor:start;fill:black">n0_4mer:D</text>
<path style="stroke:black;stroke-width:1.0" d="M277.574845,106.978098L278.866550,106.815286L280.162433,106.612433L281.485114,105.807451L282.831349,104.775624L284.171657,104.166516L285.430622,105.052884L286.697219,105.649144L287.901701,106.952839L289.173199,107.243490L290.437558,107.581095L291.651576,108.388478L292.887595,108.893853L294.059499,109.905129L295.357616,109.783049L296.562912,110.402529L297.811478,110.659267L299.109972,110.566760L300.374961,110.719265L301.649044,110.819804L302.944049,110.806984L304.260540,110.693612L305.628414,110.332689L306.944026,110.289937L308.237345,110.380239L309.271786,111.716430L310.604455,111.605169L312.029003,111.114552L313.374844,111.013572L314.797946,110.619855L315.904604,111.536014L317.227883,111.575853L318.417699,112.133736L319.902906,111.603271L320.864192,112.974595L321.523853,115.323199L322.501965,116.498699L323.159319,118.671406L324.091733,119.879342L325.340718,120.069827L326.308911,121.112397L327.636236,121.072394L329.132599,120.571813L330.234027,121.214687L331.367630,121.759763L332.571020,122.114283L333.466616,123.271502L334.600015,123.793742L335.887739,123.930202L336.891140,124.771079L338.079258,125.157554L339.595976,124.783945L342.046981,122.318670L344.524140,119.916533L346.344992,119.066900L347.913206,118.813874L348.452101,120.754186L348.812664,123.008382L349.697771,124.138606L351.116305,124.190860L352.401169,124.522837L353.824687,124.599913L355.587169,124.061395L357.099713,124.024363L358.296550,124.581329L358.930934,126.138758L359.689506,127.447645L360.054602,129.407051L360.765229,130.740049L362.191645,130.866630L362.939671,132.113892L363.753330,133.236967L365.132443,133.457219L366.465806,133.763763L368.019773,133.748344L369.572364,133.758876L370.581500,134.591028L371.398478,135.697629L372.240087,136.757358L372.954798,137.984505L373.840142,138.961614L375.228641,139.250279L376.550977,139.642264L377.638229,140.354777L378.399017,141.491135L378.846948,143.014401L380.011349,143.618695L381.196218,144.203979L382.863476,144.211393L384.287953,144.533814L384.887494,145.841627L385.702297,146.886079L386.012797,148.499209L386.795862,149.558885L388.055779,150.085523L389.263412,150.679349L390.852422,150.873096L391.671147,151.900566L392.281546,153.140460L392.783697,154.480809L393.730138,155.360246L394.900736,156.018159L396.586791,156.180221L398.394458,156.248485L399.536693,156.973894L401.141161,157.274829L401.726570,158.532467L402.142554,159.934755L402.497850,161.378143L402.425068,163.183002L402.984880,164.416058L403.647556,165.553904L404.453661,166.566964L405.743688,167.180303L406.022505,168.626557L406.501712,169.899016L406.723500,171.365809L406.989870,172.783875L407.948194,173.661836L408.440787,174.893589L410.099055,175.258166L410.758221,176.369773L411.815094,177.194808L413.848929,177.339811L414.305325,178.605792L415.670265,179.246938L416.576443,180.209398L416.682594,181.702663L418.169847,182.288199L418.601872,183.562543L418.821458,184.964092L419.645548,185.983590L420.205726,187.165727L421.046432,188.178733L422.463045,188.858961L423.812707,189.593163L424.430099,190.754369L425.694645,191.556661L426.582213,192.576454L425.930047,194.423345L426.576255,195.564805L427.269417,196.682849L428.132911,197.716731L430.838079,197.844012L431.683366,198.914787L431.245914,200.601323L432.185237,201.626241L432.447273,202.968055L433.142899,204.110134L434.219445,205.087757L433.808715,206.714772L433.555291,208.258612L433.276018,209.799301L433.063656,211.299061L433.837896,212.397496L434.091279,213.701832L435.117892,214.711219L436.091411,215.750013L435.787673,217.256546L436.225413,218.490279L436.499906,219.779911L437.523142,220.817379L438.421027,221.905927L438.537007,223.250222L438.498626,224.637334L438.748001,225.931098L439.347234,227.120822L440.382909,228.190881L441.243030,229.320385L440.827143,230.798419L441.403052,232.007825L442.152065,233.177949L442.382566,234.480571L443.515883,235.570655L442.764357,237.099984L441.303095,238.767161L441.673728,240.021983L440.809453,241.527741L441.281980,242.756404L442.851575,243.784630L442.433513,245.187860L443.223956,246.375230L443.734518,247.617026L443.692285,248.948920L444.010643,250.224160L444.368887,251.495875L444.655577,252.779745L444.262509,254.149167L444.491825,255.438156L444.052544,256.800356L443.428219,258.172073L443.091613,259.505608L442.844145,260.824578L443.271925,262.086231L443.789980,263.346720L444.697873,264.589896L444.485536,265.905921L445.087244,267.180184L445.054723,268.487059L444.624800,269.804840L444.659628,271.104745L443.209483,272.427437L442.499187,273.721952L443.016627,275.005472L443.824230,276.299154L444.646825,277.605597L443.684510,278.883860L441.862916,280.121449L442.106099,281.410911L442.688974,282.720500L444.909385,284.127920L446.518991,285.533033L445.834599,286.805621L445.003697,288.057810L444.039107,289.287432L444.061603,290.594909L443.713232,291.867502L443.690898,293.171825L443.919275,294.506913L443.405021,295.756337L443.278218,297.051007L443.166226,298.348390L442.747366,299.601813L442.294475,300.846373L441.548556,302.039360L441.336477,303.314747L440.696165,304.513934L440.145592,305.723267L440.641694,307.130633L440.059766,308.332108L440.496901,309.742303L440.140325,310.990770L439.859697,312.255104L439.435491,313.485911L438.333837,314.550587L438.790018,315.992191L438.204821,317.177214L437.297026,318.271942L436.972744,319.517589L436.542671,320.733562L436.187494,321.970043L436.385688,323.372465L436.500137,324.758586L436.173714,326.013485L436.384457,327.444030L436.808037,328.955927L436.496310,330.230608L436.174541,331.503678L434.736778,332.377793L433.295140,333.233214L432.867679,334.453255L431.462593,335.297034L430.902929,336.457483L430.763689,337.785826L430.231784,338.958475L429.898453,340.213976L430.060306,341.685438L428.892333,342.585098L428.883281,343.992468L428.713883,345.336030L427.830586,346.353140L428.329039,348.022017L427.292698,348.965370L426.609434,350.074667L426.699347,351.572173L425.808001,352.577919L425.375223,353.818266L424.810975,354.991758L423.490757,355.755084L422.900420,356.908696L422.420908,358.125545L422.061530,359.414532L422.338696,361.081273L421.868194,362.322732L420.873878,363.251414L420.544703,364.582830L419.355989,365.383626L418.617006,366.460241L417.670634,367.401717L415.883025,367.783980L414.523893,368.429507L413.504203,369.291844L412.623426,370.243652L412.022506,371.388904L411.747706,372.770477L410.994524,373.815438L410.112672,374.765485L409.814243,376.150492L408.657421,376.892528L407.684954,377.768240L407.129389,378.967460L406.231206,379.898793L405.743833,381.161326L404.936177,382.167991L403.612859,382.743018L402.764458,383.709150L402.381756,385.077311L401.619113,386.124361L402.266465,388.430528L401.393566,389.402379L400.071448,389.961428L399.132048,390.865232L397.460274,391.073380L396.927554,392.355104L396.319777,393.574291L395.132565,394.227424L394.620513,395.552654L393.798112,396.573005L392.689699,397.299567L392.127489,398.597042L390.477569,398.741436L389.534468,399.631856L388.676773,400.617053L387.644356,401.409747L387.183646,402.851787L385.930973,403.395467L385.186896,404.527374L384.439999,405.664984L383.356029,406.403282L382.448400,407.355880L381.797892,408.634321L381.010403,409.753329L380.089554,410.709945L379.304250,411.849267L378.320095,412.734487L376.934970,413.079594L375.131823,412.835067L374.043641,413.557601L371.950601,412.850170L371.211573,414.051634L370.691937,415.590888L369.250194,415.779806L367.742445,415.850501L366.089684,415.675531L364.639797,415.789375L363.704297,416.705234L363.670725,419.094965L362.583403,419.802266L361.675696,420.813006L360.511719,421.397315L359.437218,422.134995L358.559023,423.224180L357.638802,424.253834L356.570348,425.025453L354.935623,424.741742L353.803286,425.383074L352.768729,426.215957L351.900628,427.387792L351.135595,428.790447L349.812965,429.076927L348.216338,428.776524L346.856096,428.947868L345.559946,429.243840L344.708346,430.521499L343.660361,431.383034L342.603257,432.237620L341.677724,433.419322L340.361888,433.682843L339.218821,434.364549L337.601611,433.851685L335.996054,433.323453L334.697415,433.563891L333.636007,434.439066L332.640734,435.519047L331.653013,436.652089L330.424821,437.116936L329.026785,437.074331L327.636527,437.031737L326.038913,436.309906L324.808735,436.720152L323.385094,436.486311L322.055378,436.540251L320.894490,437.172741L319.584252,437.278550L318.284751,437.410055L316.917064,437.264893L315.578423,437.205357L314.090231,436.503018L312.999649,437.430797L311.847555,438.131809L310.548577,438.189493L309.410049,438.995439L308.055960,438.776369L306.776256,438.902122L305.574268,439.435779L304.473326,440.563715L303.222697,440.895615L302.012758,441.489547L300.795371,442.074656L299.385691,441.389179L298.085963,441.397789L296.828114,441.706153L295.435482,440.937930L294.250788,441.847216L292.995833,442.213563L291.726452,442.470944L290.481713,443.017454L289.169635,442.844634L287.903186,443.210045L286.524390,442.006900L285.213758,441.591177L283.926909,441.477295L282.652734,441.578276L281.430117,443.043668L280.185488,444.500022L278.888259,444.609769L277.592322,444.884586L276.288889,444.686942L274.988710,443.391674L273.700629,443.099116L272.424920,442.284220L271.137414,442.509542L269.805605,444.049481L268.498901,444.304532L267.189134,444.524490L265.952119,443.311177L264.746269,441.876801L263.492881,441.431651L262.299350,440.279082L261.003777,440.525710L259.732398,440.450950L258.356839,441.411342L256.897364,442.994213L255.630721,442.676704L254.211851,443.615235L252.949690,443.227876L251.817778,441.927148L250.376072,442.857840L249.159314,442.219454L247.900794,441.880801L246.471783,442.555597L245.329056,441.544383L244.076648,441.189233L242.839844,440.763313L241.412223,441.296282L239.979692,441.792590L238.857096,440.810895L237.568337,440.614439L236.431485,439.762821L235.393757,438.539028L234.026446,438.691586L232.807773,438.239678L231.757893,437.162660L230.393987,437.272570L228.930502,437.707877L227.548685,437.818179L226.198378,437.797080L224.922924,437.513936L223.765905,436.851319L222.422891,436.774999L220.868426,437.316133L219.282371,437.902032L218.118494,437.234363L217.236303,435.793686L216.178581,434.877043L215.320981,433.450591L214.212009,432.720350L212.881459,432.563950L211.862914,431.619545L210.655142,431.154276L209.106351,431.497746L208.106698,430.528866L207.037575,429.737020L206.002226,428.880902L205.355754,427.188172L204.006537,427.046520L202.805932,426.577075L201.482729,426.356794L200.319566,425.800227L199.442302,424.676710L196.330255,427.917500L193.326736,430.809130L190.851492,432.582785L189.395611,432.394626L189.785097,428.857835L190.653514,424.574159L190.287871,422.568198L188.856885,422.432875L188.017230,421.284928L186.206419,421.758619L185.222105,420.850356L184.445530,419.617766L183.084856,419.320341L182.450642,417.887797L181.832956,416.454050L181.503076,414.614158L181.540625,412.271224L181.010895,410.800647L179.627806,410.567258L177.973756,410.696887L176.238665,410.910209L174.992214,410.431049L173.567242,410.180740L172.102360,409.966223L170.918090,409.371474L169.930177,408.520878L169.284848,407.243142L168.865688,405.701353L168.082083,404.623868L166.851123,404.088290L165.597802,403.570006L164.182601,403.229250L163.491928,402.047491L162.638156,401.058675L162.162128,399.656434L161.540215,398.429204L160.290663,397.885187L159.533031,396.812083L158.360281,396.175933L157.356546,395.359084L155.750820,395.146200L154.833699,394.228924L154.084584,393.147382L152.633317,392.746159L151.698379,391.839462L150.285726,391.377393L149.195128,390.604447L148.275922,389.670624L147.466313,388.638015L146.843633,387.443079L146.676389,385.861163L146.982903,383.894519L146.382279,382.717744L145.309882,381.935830L143.494557,381.750480L142.006570,381.278190L141.549843,379.977749L140.956947,378.791372L140.722390,377.336856L139.692154,376.492484L138.646872,375.653172L137.404231,374.950734L135.889771,374.431423L134.958117,373.484825L134.187026,372.423086L134.292127,370.764463L133.687124,369.600021L132.809775,368.617553L132.096603,367.525270L131.465643,366.380557L131.575014,364.773940L131.572763,363.253012L131.392809,361.853800L130.398364,360.948873L129.452555,360.008574L128.740389,358.928151L128.243159,357.725166L127.537024,356.640598L126.915781,355.508264L126.248089,354.400637L125.145738,353.519593L124.226068,352.534827L123.692188,351.349084L122.853913,350.315006L122.213800,349.179734L121.672458,347.996082L120.879727,346.930095L120.730990,345.565028L120.594100,344.201914L120.217184,342.951415L119.345008,341.916458L119.251647,340.547208L119.204784,339.166183L118.764066,337.951827L118.716635,336.583240L117.549387,335.653547L116.118151,334.810868L115.946115,333.488125L115.149635,332.394394L113.947663,331.436587L113.259696,330.289828L111.891976,329.365113L112.241155,327.866527L112.162664,326.516020L111.796598,325.259405L113.021018,323.526623L113.062033,322.165172L113.643666,320.657439L113.310607,319.416392L112.552213,318.288808L111.535334,317.220983L110.974056,316.027865L111.381392,314.596317L110.656734,313.441082L110.732837,312.098051L109.512825,311.043119L109.155856,309.791980L109.482348,308.401473L108.519427,307.270193L108.547445,305.943318L109.238338,304.502667L108.967842,303.240035L109.422701,301.858887L109.518281,300.543589L107.632791,299.523134L106.805879,298.329274L106.012265,297.120932L106.306816,295.768890L106.438268,294.442719L106.058070,293.175950L105.861558,291.887106L105.189375,290.641037L104.763079,289.365682L104.969624,288.036924L104.126404,286.785293L104.153418,285.468745L105.039458,284.107812L104.712403,282.817259L105.332094,281.486408L104.775047,280.201791L104.927660,278.892996L104.965324,277.588748L104.700455,276.287670L105.858233,274.982827L105.188266,273.681535L105.778358,272.389260L107.915531,271.141451L108.687246,269.883956L109.418409,268.636139L108.797666,267.336460L107.051157,265.965789L106.002292,264.610101L104.926993,263.235224L106.006851,262.008086L106.908616,260.780996L107.744525,259.560063L109.348040,258.427018L108.957852,257.101922L109.397925,255.864587L107.576609,254.352930L106.921630,252.963391L106.860150,251.643453L106.487446,250.274093L108.287986,249.231844L108.305231,247.925103L109.257035,246.774523L108.788948,245.382528L107.890044,243.899364L108.243712,242.641228L108.374017,241.339651L109.615608,240.269408L110.485105,239.133652L111.435425,238.025713L110.981026,236.599643L110.733324,235.211537L111.479610,234.063306L111.459185,232.723923L112.259022,231.597669L112.029818,230.196181L112.606455,229.013454L113.563701,227.945377L113.821222,226.677439L115.128100,225.731006L114.687939,224.247076L114.380073,222.792168L113.670056,221.191133L113.519328,219.762301L114.360234,218.671361L114.325959,217.273029L115.852402,216.440725L116.574865,215.324331L116.231897,213.801900L117.368411,212.848513L118.243495,211.801419L119.368078,210.864105L119.115177,209.358095L119.255241,208.007478L119.372534,206.640078L119.102411,205.091519L121.052248,204.544116L121.075575,203.123242L121.405119,201.838382L121.869025,200.614445L122.734775,199.587520L124.343815,198.941338L124.686475,197.663338L124.574851,196.142342L123.827126,194.267656L123.527680,192.609890L124.174378,191.457707L125.385192,190.623792L126.860102,189.952893L127.548508,188.839187L128.739562,188.024965L129.549351,186.990931L130.110885,185.806906L130.237019,184.347652L129.807645,182.522449L129.660125,180.855300L131.314956,180.356434L133.176589,180.016498L135.179598,179.797993L136.930849,179.433798L137.421790,178.206001L137.638719,176.776520L137.566114,175.124220L138.154431,173.940382L138.362858,172.467068L137.522119,170.179987L137.914248,168.808092L138.496188,167.575235L139.469810,166.649522L142.390507,167.308621L144.155045,167.067310L145.627959,166.605807L146.490892,165.641980L147.247496,164.586916L147.946959,163.479300L148.879875,162.575578L149.531865,161.419512L150.065330,160.148398L151.460802,159.672193L152.429785,158.806365L153.584910,158.122011L154.573453,157.282486L154.991002,155.878783L155.951318,155.007084L157.616879,154.858464L158.627591,154.052628L159.979101,153.609140L161.202618,153.042130L161.768286,151.768693L162.975893,151.192043L163.952811,150.365294L164.531829,149.085766L165.704204,148.479509L166.466284,147.398151L167.358930,146.464825L168.410615,145.720964L169.183743,144.636236L170.794484,144.591034L171.016171,142.803956L171.588273,141.437731L171.773623,139.545549L171.644397,137.198381L173.289857,137.205067L173.966655,135.903783L175.384373,135.621899L177.433278,136.253459L178.470839,135.468801L179.852310,135.187994L180.856873,134.359139L181.552335,133.057151L182.608747,132.292803L184.094340,132.200710L185.204476,131.529530L186.155780,130.600787L186.760240,129.089852L187.510411,127.794685L188.388756,126.696801L188.961494,125.050748L190.579534,125.223574L191.862883,124.821722L193.601212,125.265477L195.951798,126.896059L197.460285,127.003418L198.556570,126.335789L199.613484,125.586984L200.682935,124.856862L201.731855,124.078134L203.153745,124.074251L204.507936,123.947320L205.381459,122.786320L206.232864,121.550017L207.310196,120.798649L208.241960,119.698747L209.729705,119.894667L211.262877,120.231384L212.595491,120.107011L213.958340,120.075372L215.232622,119.833843L216.440956,119.427230L217.509640,118.642815L218.384151,117.300882L219.321345,116.093005L220.443564,115.387121L221.846072,115.507479L223.201042,115.509135L224.541547,115.486409L225.827847,115.307569L226.880744,114.360636L228.179472,114.224693L229.286864,113.425563L230.357406,112.465219L231.829446,112.973524L233.203535,113.155872L234.629917,113.580167L236.100254,114.235492L237.145359,113.138718L238.262824,112.304654L239.164751,110.439944L240.105951,108.640773L241.263023,107.790059L242.324055,106.395050L243.824838,107.268107L245.218321,107.637254L246.530957,107.586509L248.018737,108.631993L249.233311,108.034764L250.578673,108.287531L251.836220,107.956700L253.045495,107.238693L254.424771,107.832275L255.637561,107.083400L256.931477,107.002114L258.276406,107.440825L259.539043,107.081070L260.873464,107.528109L262.128476,107.050831L263.412327,106.907245L264.662472,106.199480L265.954875,106.100257L267.294020,107.010004L268.602944,107.518049L269.878836,107.224034L271.149433,106.527308L272.447053,106.936118L273.734450,106.858976L275.022851,106.991749L276.306316,107.496967Z" />
<line x1="50" y1="550" x2="100" y2="550" fill="none" stroke="black" stroke-width="1.0" stroke-linejoin="round" stroke-miterlimit="10" />
<text x="125" y="553" style="text-anchor:start;fill:black">GC-content</text>
</g>
<g style="fill:pink;stroke:black">
<a href="" title="CP003842:1 [455000-472599];"><path  d="M501.588768,314.465555L500.865489,318.414064L500.073409,322.349348L499.212769,326.270209L479.716006,321.811930L479.716006,321.811930L480.501808,318.232013L481.225012,314.638928L481.885397,311.033768Z" />
</a><a href="" title="CP003842:2 [507500-525099];"><path  d="M489.135683,358.939916L487.638115,362.664314L486.075776,366.362010L484.449141,370.031875L466.236172,361.768234L466.236172,361.768234L467.721361,358.417487L469.147844,355.041331L470.515188,351.640793Z" />
</a><a href="" title="CP003842:3 [720500-738099];"><path  d="M360.556185,488.495057L356.817152,489.955702L353.053196,491.350869L349.265465,492.680134L342.807599,473.751427L342.807599,473.751427L346.265962,472.537750L349.702617,471.263902L353.116517,469.930269Z" />
</a><a href="" title="CP003842:4 [938500-963099];"><path  d="M174.114324,481.693204L170.522396,479.901025L166.962292,478.046432L163.435098,476.129989L159.941888,474.152280L156.483725,472.113908L166.789488,454.973568L166.789488,454.973568L169.946941,456.834691L173.136394,458.640425L176.356876,460.390221L179.607405,462.083545L182.886992,463.719882Z" />
</a><a href="" title="CP003842:5 [1205500-1223099];"><path  d="M46.010288,296.533968L45.669345,292.534267L45.398258,288.529224L45.197110,284.520061L65.179970,283.692229L65.179970,283.692229L65.363627,287.352770L65.611141,291.009548L65.922437,294.661449Z" />
</a><a href="" title="CP003842:6 [1358000-1378099];"><path  d="M72.118582,166.652732L74.040403,163.128465L76.023437,159.638275L78.067082,156.183226L80.170715,152.764369L97.112392,163.393554L97.112392,163.393554L95.191684,166.515119L93.325747,169.669730L91.515150,172.856425L89.760445,176.074234Z" />
</a></g>
<text x="275" y="280" style="text-anchor:middle" font-size="25" font-weight="bold">CP003842</text>
<path  style="fill:pink;stroke:black" d="M350,550L375,550L375,565L350,565Z" />
<text x="405" y="565" style="text-anchor:start;fill:black">Selected loci;</text>
</svg>