<svg xmlns="http://www.w3.org/2000/svg" viewbox="0 0 550 650">
<circle cx="275" cy="275" r="240" fill="none" stroke="black" stroke-width="1.0" />
<line x1="275" y1="15" x2="275" y2="55" fill="none" stroke="grey" stroke-width="1.0" stroke-linejoin="round" stroke-miterlimit="10" />
<line x1="495" y1="275" x2="535" y2="275" fill="none" stroke="grey" stroke-width="1.0" stroke-linejoin="round" stroke-miterlimit="10" />
<line x1="275" y1="495" x2="275" y2="535" fill="none" stroke="grey" stroke-width="1.0" stroke-linejoin="round" stroke-miterlimit="10" />
<line x1="15" y1="275" x2="55" y2="275" fill="none" stroke="grey" stroke-width="1.0" stroke-linejoin="round" stroke-miterlimit="10" />
<text x="275" y="10" style="text-anchor:middle" font-size="15">Candidatus Methanomassiliicoccus intestinalis Issoire-Mx1, complete</text><text x="285" y="25" style="text-anchor:start">1,931,651</text><text x="525" y="265" style="text-anchor:start">0.48 Mbp</text><text x="285" y="530" style="text-anchor:start">0.96 Mbp</text><text x="-200" y="25" style="text-anchor:end" transform="rotate(-90)">1.44 Mbp</text><circle cx="351.696739" cy="47.584938" r="2.500000" fill="grey" stroke="black" stroke-width="1.0" />
<circle cx="420.349947" cy="84.019915" r="2.500000" fill="grey" stroke="black" stroke-width="1.0" />
<circle cx="473.759654" cy="140.483830" r="2.500000" fill="grey" stroke="black" stroke-width="1.0" />
<circle cx="506.324544" cy="211.055059" r="2.500000" fill="grey" stroke="black" stroke-width="1.0" />
<circle cx="514.629391" cy="288.332482" r="2.500000" fill="grey" stroke="black" stroke-width="1.0" />
<circle cx="497.803228" cy="364.211667" r="2.500000" fill="grey" stroke="black" stroke-width="1.0" />
<circle cx="457.610691" cy="430.734824" r="2.500000" fill="grey" stroke="black" stroke-width="1.0" />
<circle cx="398.266952" cy="480.925371" r="2.500000" fill="grey" stroke="black" stroke-width="1.0" />
<circle cx="325.995654" cy="509.519601" r="2.500000" fill="grey" stroke="black" stroke-width="1.0" />
<circle cx="248.376213" cy="513.518708" r="3.000000" fill="black" stroke="black" stroke-width="1.0" />
<circle cx="173.548928" cy="492.503287" r="2.500000" fill="grey" stroke="black" stroke-width="1.0" />
<circle cx="109.361272" cy="448.677321" r="2.500000" fill="grey" stroke="black" stroke-width="1.0" />
<circle cx="62.544893" cy="386.637035" r="2.500000" fill="grey" stroke="black" stroke-width="1.0" />
<circle cx="38.009634" cy="312.888872" r="2.500000" fill="grey" stroke="black" stroke-width="1.0" />
<circle cx="38.328619" cy="235.167133" r="2.500000" fill="grey" stroke="black" stroke-width="1.0" />
<circle cx="63.468393" cy="161.622845" r="2.500000" fill="grey" stroke="black" stroke-width="1.0" />
<circle cx="110.792436" cy="99.968929" r="2.500000" fill="grey" stroke="black" stroke-width="1.0" />
<circle cx="175.337663" cy="56.671306" r="2.500000" fill="grey" stroke="black" stroke-width="1.0" />
<circle cx="250.334927" cy="36.270793" r="2.500000" fill="grey" stroke="black" stroke-width="1.0" />

<circle cx="275" cy="275" r="185" fill="white" stroke="grey" stroke-width="0.5" />
<circle cx="275" cy="275" r="170" fill="none" stroke="black" stroke-width="0.5" />
<circle cx="275" cy="275" r="170" fill="aliceblue" stroke="black" stroke-width="0.5" />
<circle cx="275" cy="275" r="163" fill="white" stroke="none" stroke-width="0.5" />
<circle cx="275" cy="275" r="140" fill="none" stroke="black" stroke-width="0.5" />
<circle cx="275" cy="275" r="140" fill="aliceblue" stroke="black" stroke-width="0.5" />
<circle cx="275" cy="275" r="133" fill="white" stroke="none" stroke-width="0.5" />
<circle cx="275" cy="275" r="110" fill="none" stroke="black" stroke-width="0.5" />
<circle cx="275" cy="275" r="110" fill="white" stroke="black" stroke-width="0.5" />
<circle cx="275" cy="275" r="109" fill="aliceblue" stroke="none" stroke-width="0.5" />
<circle cx="275" cy="275" r="80" fill="none" stroke="black" stroke-width="0.5" />

<g style="fill:none;stroke-linejoin:round;stroke-miterlimit:10">
<path style="stroke:blue;stroke-width:1.0" d="M276.988673,122.144221L278.025296,119.994742L279.127514,116.409752L280.166998,116.198124L281.079866,119.310615L281.936625,122.775645L282.896006,123.414555L283.888975,123.349654L284.969649,121.963062L286.136181,119.643271L287.099740,120.318216L288.506732,115.670216L289.387687,117.461618L290.951760,112.047185L290.908852,122.709753L291.842565,123.326791L292.785330,123.810061L294.546383,117.667759L295.055736,121.724585L295.791612,123.755637L296.660302,124.690630L297.597736,125.099658L298.474571,125.871505L299.639466,124.837493L301.218072,121.474348L302.479683,120.163957L303.422505,120.692785L304.576776,120.089913L305.477773,120.822523L305.876439,123.976808L306.781263,124.545383L307.829127,124.435379L309.135328,123.196134L309.951896,124.156230L311.272667,122.960821L311.608302,125.859015L313.000809,124.424009L313.363449,127.050496L313.753749,129.449138L314.667949,129.820916L315.841978,129.259847L317.489308,127.091574L318.763456,126.308221L319.205988,128.334091L321.132159,125.471049L322.117319,125.731932L323.123593,125.929435L324.066662,126.323486L325.815967,124.323732L324.688570,130.772029L325.262597,132.130684L326.709123,131.017896L328.615003,128.709828L330.076169,127.696049L331.031375,128.062467L330.142462,133.171942L330.876837,134.005818L331.868103,134.186061L333.081251,133.833997L334.375404,133.315135L335.782638,132.563727L335.728136,135.217508L336.416190,136.113063L338.232728,134.483748L341.299612,130.193256L339.865240,135.727029L342.551554,132.390677L342.495018,134.873634L344.566845,132.943542L345.053605,134.274780L345.122802,136.403232L344.558043,139.711557L345.296266,140.435724L347.256718,138.848547L348.220712,139.173469L348.920493,139.985616L348.630551,142.567807L349.302242,143.383132L350.320150,143.584452L351.408577,143.673144L353.328414,142.366049L355.452796,140.770878L354.628433,144.085252L355.667505,144.299663L357.627902,143.051717L357.288172,145.475169L357.962496,146.271663L359.247049,146.127459L360.049463,146.729801L360.650041,147.630923L361.052226,148.813438L362.651157,148.248181L364.623504,147.181516L363.515226,150.493142L364.750880,150.478418L364.587305,152.394811L365.223163,153.196015L366.597539,153.007889L366.844512,154.322061L367.543358,155.031358L369.507313,154.119659L371.848408,152.772381L372.535327,153.537237L372.679925,154.965103L372.836282,156.357926L374.386284,156.063171L374.642850,157.320545L375.124003,158.300291L376.832747,157.859377L377.639971,158.470595L379.648080,157.737637L380.445183,158.380566L381.182413,159.089965L380.633925,161.184186L380.191702,163.129155L381.156693,163.564490L379.997678,166.207169L380.567125,167.031704L382.538458,166.437463L383.352892,167.029277L383.551835,168.229387L385.429667,167.786821L384.074154,170.472651L384.479875,171.441700L386.695017,170.714756L389.073934,169.874310L394.879927,165.957386L399.085312,163.598639L398.056731,165.959499L391.567129,173.055938L390.460409,175.341965L391.147861,176.059782L393.309676,175.539112L391.633832,178.235955L392.476132,178.820512L395.691334,177.492693L400.016461,175.335530L401.152576,175.765170L400.058153,177.936370L397.180645,181.437029L398.175428,181.940186L397.829813,183.450350L399.533060,183.435006L398.310311,185.564063L399.499364,185.931860L399.922968,186.851765L398.974930,188.723303L399.199216,189.761117L399.600445,190.672859L400.330275,191.362517L400.606296,192.354263L401.109184,193.193963L402.056247,193.749078L402.395481,194.695015L404.649319,194.448065L404.933694,195.438264L406.483392,195.660774L404.949886,197.734829L405.473948,198.567692L406.273318,199.242143L409.821566,198.359281L408.303316,200.365576L406.498169,202.495811L408.641903,202.443500L412.001142,201.769636L415.928975,200.844811L410.587960,204.777655L410.982806,205.691332L410.909649,206.838804L412.184467,207.312768L417.024241,206.070018L416.869402,207.281928L422.361507,205.833855L422.907624,206.748162L421.146724,208.710501L420.451106,210.163588L414.897816,213.726835L415.484928,214.555855L417.803897,214.656041L423.240734,213.492106L423.767066,214.405103L420.794866,216.718640L418.420422,218.747149L415.608517,220.902824L417.040755,221.409983L417.254502,222.383935L420.545444,222.240517L426.932717,221.040826L430.991962,220.739367L428.597061,222.690029L423.095008,225.636659L423.366665,226.616242L424.004216,227.478511L422.925758,228.880495L424.513945,229.450404L423.933626,230.683933L421.737202,232.374619L422.700121,233.134897L425.584812,233.373644L422.750021,235.190063L421.400781,236.573386L422.713493,237.254250L425.464483,237.592328L423.206856,239.175723L427.014037,239.300539L427.412633,240.251556L427.690716,241.231586L427.482771,242.316589L427.639540,243.320174L428.161104,244.249849L430.253462,244.879125L434.699569,245.093220L433.569989,246.371226L429.099297,248.212352L428.574884,249.331638L430.514966,250.046225L431.912536,250.867974L431.937115,251.908267L432.420395,252.882443L440.688995,252.818886L446.868568,253.128771L454.781806,253.309313L457.358253,254.201139L450.513208,256.137665L438.720891,258.481632L433.251587,260.072768L429.261238,261.461032L428.481979,262.535034L427.610132,263.604682L426.408428,264.684426L425.329579,265.740017L429.507288,266.491251L435.667674,267.200032L440.808967,268.031324L431.045387,269.458355L430.068699,270.502894L431.934098,271.470412L430.413249,272.516037L428.351267,273.546787L425.662603,274.552444L426.688551,275.536211L426.371373,276.519886L426.213641,277.502201L426.112090,278.483970L425.877514,279.460780L426.423434,280.463071L426.039788,281.433345L426.312043,282.431376L427.319949,283.474517L428.898121,284.566983L428.637198,285.554533L425.337996,286.310979L425.375883,287.298135L431.278807,288.804924L433.093062,290.002298L427.373635,290.460377L425.515475,291.261769L427.701663,292.503684L424.479489,293.120304L424.641815,294.128576L429.771656,295.808506L437.976006,297.991919L433.687955,298.440854L431.368306,299.138669L429.156570,299.825054L429.665633,300.940402L434.770933,302.866470L432.053698,303.446549L425.952269,303.356869L424.721120,304.135226L423.892023,304.980472L423.213824,305.848542L423.898388,307.003031L422.232549,307.648476L427.955853,309.963113L423.917560,310.060963L422.122443,310.650047L422.057261,311.648722L421.365879,312.489398L422.004389,313.673737L421.199141,314.480577L420.201634,315.226498L420.005093,316.189630L419.726095,317.129762L419.519822,318.091510L422.360870,319.984557L423.063802,321.254242L420.797310,321.589387L418.576269,321.911227L418.556263,322.940512L420.354339,324.594341L418.038044,324.845219L417.227804,325.602866L416.908849,326.531864L416.295581,327.352055L415.913610,328.255625L415.789708,329.258123L415.692300,330.274453L416.348859,331.596612L416.006792,332.526831L415.372432,333.336066L414.898846,334.209458L415.018518,335.337141L414.587736,336.231266L413.279288,336.733064L413.641956,337.979837L412.021726,338.322369L411.719654,339.265426L412.935428,340.935887L416.777940,343.909329L413.101543,343.236659L410.613787,343.108627L412.651298,345.256969L418.158986,349.245948L416.272766,349.437921L412.667508,348.686474L408.745941,347.710742L407.867836,348.357193L407.321505,349.182839L406.479885,349.839315L408.283590,352.018289L406.838226,352.331479L406.180969,353.097382L406.080396,354.196997L405.436431,354.970822L406.576140,356.852037L406.962773,358.288125L407.259709,359.683676L403.641850,358.552144L401.616653,358.412957L401.466442,359.498884L401.473610,360.698971L400.629941,361.325135L401.224748,362.948167L400.903777,363.946789L400.602937,364.964855L398.516428,364.691852L396.041425,364.102996L396.118531,365.380538L397.054833,367.321443L396.432818,368.099069L397.105537,369.882434L397.908558,371.795337L399.618159,374.462016L398.604932,374.976562L395.703004,373.935209L394.298323,374.088333L393.308477,374.573890L392.143909,374.902836L391.614852,375.769375L390.406071,376.043657L389.499146,376.573042L388.498422,377.012398L387.966256,377.870508L387.901408,379.163029L385.058913,377.873995L384.602794,378.791833L386.485797,381.959226L384.349503,381.284424L383.347793,381.690288L381.595640,381.339628L382.177858,383.320703L380.422185,382.941858L381.706455,385.688317L380.229277,385.586877L379.011584,385.740960L377.360654,385.413917L377.365774,386.870434L375.998053,386.827829L375.803328,388.082564L376.431777,390.288827L375.691706,390.960163L377.770679,394.921428L373.651528,391.642109L372.413043,391.709223L370.797745,391.303682L369.979851,391.851525L369.149053,392.381394L368.433944,393.055205L368.644372,394.915998L368.388518,396.205643L366.748154,395.692605L365.388578,395.523582L367.065300,399.437692L365.508460,399.012699L363.217268,397.539561L362.963184,398.878327L362.230689,399.555399L360.917317,399.394529L360.099408,399.940776L359.545989,400.880614L358.468105,401.039605L357.751150,401.740381L360.370435,407.628921L358.120488,405.998206L358.817405,409.015877L355.773488,406.037459L354.007834,405.059701L354.749667,408.226456L353.219088,407.619706L352.860944,408.997019L351.704295,409.005787L349.652792,407.412323L348.286566,406.988834L347.659690,407.889536L347.902072,410.418354L346.446163,409.807819L348.236344,415.385297L347.962033,417.106268L343.352020,410.286319L342.324522,410.434512L343.087260,414.234004L344.044604,418.550616L342.632848,417.989473L340.341086,415.501791L338.482893,413.861665L336.792088,412.522192L337.515480,416.588859L338.065478,420.386978L339.074147,425.384541L334.494222,417.193460L333.048221,416.312315L331.348058,414.753324L330.564834,415.438251L331.475383,420.499439L331.701888,423.948335L329.068385,419.857744L327.069563,417.321931L326.351932,418.241594L325.261177,418.123236L325.338083,421.381472L324.662800,422.531874L324.634160,425.681769L324.157328,427.567181L321.977964,424.119711L320.838346,423.874809L318.902981,420.958667L317.969251,421.298140L318.008150,425.033574L316.019981,421.693902L314.629283,420.360171L313.798397,421.050014L315.048039,429.805689L314.098327,430.294177L313.565615,432.498892L312.380445,432.075162L309.435291,423.996565L308.020808,422.235626L307.313601,423.603123L306.274978,423.472152L305.824683,426.204821L304.919414,426.803179L303.456063,424.498240L302.203628,423.159167L301.272495,423.521172L300.225289,423.216240L299.378361,424.097796L298.711343,426.188076L299.436810,437.722659L300.014951,449.285270L298.882398,449.457333L298.490706,455.318056L296.788498,451.192077L293.891693,436.379805L292.101444,429.800885L290.820192,427.273097L289.877132,427.864779L288.930482,428.488533L288.649154,437.096674L287.580024,436.997541L287.091949,445.035822L284.956202,429.171732L283.928022,428.802382L282.799853,426.384076L281.891382,428.131878L281.076074,432.877300L280.106064,434.702015L279.165701,438.607488L278.012720,433.958975L276.935822,430.541730L275.924678,430.680259L274.905889,441.280769L273.731277,454.410945L272.652776,447.871838L271.570237,445.760669L270.532129,443.001215L269.493643,441.327044L268.481857,439.517569L267.416226,439.374282L266.515442,436.123782L265.743547,431.399924L264.866603,429.201231L264.079095,426.150425L263.069477,426.413073L262.140846,425.674580L260.938224,428.010868L259.333501,434.107328L258.183561,435.098832L258.183119,425.662260L256.892489,428.179355L255.046059,434.871003L253.570604,438.054098L252.801085,435.804956L251.850697,434.998787L251.008159,433.537495L250.338808,431.089985L249.125201,432.132867L247.846215,433.462821L246.929717,432.643712L245.658061,433.792881L244.416824,434.689073L244.541460,428.621793L243.892848,426.712805L243.465901,423.866611L241.612721,427.707996L239.797862,431.134002L239.578370,427.477407L239.458885,423.599119L238.553652,423.117997L237.264140,424.169228L236.243708,424.116099L235.652567,422.443956L234.536127,422.762131L233.562770,422.541886L232.608367,422.253396L231.272042,423.260428L230.989435,420.718142L229.932977,420.782716L228.888033,420.794765L226.332835,425.462193L226.417194,421.930105L226.274496,419.207398L224.922047,420.090740L223.025071,422.469122L222.730287,420.283760L222.688535,417.483067L221.739924,417.200617L221.031687,416.286391L219.253927,418.139952L217.454541,419.964332L213.972038,425.867692L215.479065,419.432105L215.947511,415.690231L215.622251,413.925606L214.529407,413.973794L213.670792,413.477675L212.651059,413.342408L211.290998,413.940115L211.093083,412.012092L209.716782,412.618636L207.365182,415.212986L206.311117,415.062318L205.858357,413.695860L206.854577,409.498936L206.000588,409.014807L204.633356,409.512904L204.009765,408.581887L201.482047,411.192790L201.595325,408.891778L200.183342,409.385869L197.534412,412.038576L198.496295,408.305127L196.628171,409.525463L195.950994,408.680780L196.086756,406.491186L195.728642,405.161233L193.524609,406.841809L193.163874,405.519144L191.442901,406.357386L187.751400,410.210243L190.469357,404.146240L191.476950,400.812977L190.973683,399.801422L189.818552,399.757468L188.657025,399.708694L187.410077,399.767532L185.079471,401.331675L182.318030,403.434468L181.682881,402.557592L181.026865,401.716120L179.931223,401.465637L179.250554,400.660712L179.115397,399.154287L179.106339,397.510187L177.762463,397.575720L177.517606,396.255803L177.155296,395.098081L177.243196,393.408705L175.253622,394.230153L170.831968,397.882251L171.753315,395.201231L174.861273,390.059987L174.060697,389.467541L174.464140,387.525822L173.461674,387.170510L172.808270,386.426711L170.633350,387.322450L171.046343,385.428526L169.233915,385.899367L168.466335,385.259021L168.195114,384.110247L167.997148,382.899268L167.897120,381.604032L167.175198,380.935165L166.935944,379.797382L165.698312,379.626447L164.845473,379.078058L164.472433,378.077879L164.101337,377.083151L162.927275,376.825009L162.372723,375.999166L160.028201,376.760009L155.412876,379.465471L154.604060,378.798879L157.231841,375.205167L157.175935,373.938554L156.938778,372.835181L155.606041,372.636501L153.591856,372.972583L155.995363,369.761351L156.537913,368.076497L156.193048,367.103762L154.777114,366.955559L147.122211,371.498512L143.464659,372.922118L147.376955,368.725403L150.181118,365.422018L152.474434,362.550967L151.180672,362.264253L147.971263,363.294924L147.852556,362.156153L145.382800,362.615155L147.392599,360.052445L148.756652,357.962261L148.084387,357.226847L146.815534,356.869930L143.615143,357.715557L145.961780,355.070775L145.906478,353.946564L143.598005,354.188403L142.037043,353.954556L140.513827,353.680194L140.880826,352.298754L141.343615,350.878012L142.414872,349.133507L141.383805,348.573139L138.381253,349.072307L125.140584,354.994086L108.445145,362.518553L101.201260,364.887013L102.939941,362.573777L130.350736,347.441549L139.594947,341.713724L139.734651,340.554787L139.044442,339.800509L137.047297,339.654466L135.452519,339.298008L137.760492,337.155447L137.096550,336.378157L137.231787,335.247254L136.741696,334.393151L136.297940,333.517901L136.181816,332.505962L132.093035,333.113446L131.238797,332.373787L133.241670,330.508119L133.367468,329.398881L130.813938,329.305942L129.733199,328.636518L128.238668,328.106007L125.782339,327.899557L121.291313,328.368630L122.744251,326.756739L125.378017,324.777972L122.427184,324.659630L127.415097,321.976558L129.881472,320.153921L129.107575,319.355816L127.043442,318.933933L121.363600,319.534967L117.727998,319.481796L125.263430,316.300404L126.204269,315.001119L127.962500,313.504541L127.688316,312.554013L124.519669,312.320933L120.543825,312.242071L109.222198,313.832515L110.631963,312.376015L118.743359,309.464020L122.484862,307.599814L125.988860,305.838552L125.834773,304.859829L125.824055,303.853920L123.850037,303.216911L122.921289,302.367691L123.602305,301.229496L122.583859,300.385771L124.367718,299.082611L126.232922,297.792882L125.861505,296.857766L123.951647,296.134864L123.501513,295.193877L120.640427,294.554085L121.572599,293.422679L122.421408,292.314618L121.918034,291.363770L121.806650,290.368375L119.432275,289.584992L119.069297,288.596307L120.205125,287.483155L121.765960,286.354448L120.837369,285.415314L117.128916,284.634578L114.018059,283.773661L110.820427,282.877055L104.898572,282.052363L104.835292,280.946359L106.175591,279.800127L105.383792,278.718497L107.634937,277.579967L104.188206,276.521714L107.297438,275.402985L107.310332,274.312043L108.150365,273.229985L118.477681,272.321086L119.505814,271.326691L118.235253,270.276101L118.218888,269.254526L121.468221,268.373207L117.642981,267.182203L120.511690,266.316881L123.266465,265.481116L123.988243,264.539706L119.715068,263.228185L123.184106,262.497345L124.173398,261.590416L124.687216,260.649923L124.339110,259.627003L125.424724,258.753915L124.508743,257.663139L125.199402,256.754488L124.185452,255.634506L125.562628,254.822308L125.838357,253.870592L124.870823,252.736340L121.926638,251.281010L124.822966,250.728342L125.345548,249.812727L126.747950,249.055880L126.634373,248.040104L125.942563,246.911480L126.468862,246.008832L123.699072,244.445106L117.735561,242.174563L118.361529,241.240350L125.129901,241.677392L126.592520,240.987919L127.827546,240.261724L127.868376,239.259300L128.678872,238.446510L127.573204,237.149681L128.708982,236.425140L127.755305,235.147389L128.621142,234.357889L128.227189,233.218193L129.596537,232.583516L130.666755,231.874898L130.723008,230.867313L130.912009,229.897995L128.500453,228.094553L131.109086,227.895559L131.283542,226.915302L128.489727,224.918400L125.001110,222.633600L132.969374,224.376447L133.489281,223.521777L133.972954,222.656385L134.209468,221.699543L132.717010,220.073614L135.129830,219.956876L134.748065,218.750209L135.255859,217.895753L134.879782,216.675458L134.300458,215.357474L135.546018,214.812254L132.878916,212.561246L134.327578,212.102767L137.895853,212.624828L138.427549,211.791157L138.986038,210.972001L138.857359,209.826143L136.147502,207.415086L136.145478,206.293206L138.157328,206.176904L139.598971,205.794660L138.409825,204.062396L136.831491,202.097512L137.494082,201.299577L136.561641,199.636400L136.990958,198.702069L138.252739,198.233921L137.006465,196.349331L137.763777,195.593730L139.396937,195.356721L142.976202,196.299316L143.464441,195.426051L144.150843,194.673910L147.319096,195.470592L146.922363,194.062280L141.768742,189.587594L136.479858,184.920128L142.143118,187.367905L145.089406,188.093200L148.948791,189.482812L150.429640,189.298811L147.652354,186.162027L142.887129,181.554236L137.837183,176.637375L139.217665,176.283462L139.453104,175.100321L150.450976,181.949468L154.820829,183.990007L155.234746,183.071421L152.101164,179.389202L153.377124,179.105289L156.957811,180.676758L155.946576,178.593042L152.864593,174.774757L152.763078,173.353584L156.975123,175.550301L158.944244,175.911325L158.610290,174.309726L157.339758,171.864668L155.800425,169.136209L159.735760,171.282146L163.783091,173.606965L164.164022,172.626018L165.035897,172.097614L165.903019,171.569644L166.029094,170.334706L166.549285,169.469393L167.352572,168.878948L168.499719,168.634824L168.485114,167.227056L166.727835,164.014088L167.266446,163.119233L164.727874,158.981729L169.455951,162.499532L171.932856,163.697361L173.539882,163.992864L173.890985,162.921483L173.183690,160.650456L172.199085,158.021171L173.392889,157.851374L173.968780,156.972799L176.600768,158.522176L176.926304,157.363592L177.632915,156.654236L179.669295,157.580721L180.320538,156.819940L181.086597,156.200485L180.437680,153.766735L181.811437,153.911774L184.095900,155.276737L184.603102,154.322680L185.603824,154.026410L185.565584,152.312752L186.808776,152.349855L186.345674,149.998098L187.998713,150.621973L188.161318,149.118742L185.921614,144.057708L189.168210,147.048104L189.731420,146.082724L190.580812,145.544421L192.191916,146.191282L192.493906,144.806785L194.817179,146.633459L196.197016,146.996660L196.538899,145.674937L197.709573,145.715386L198.589740,145.278934L198.969033,143.981192L198.682415,141.494105L198.220886,138.635332L199.222296,138.341925L199.779200,137.240667L197.793547,131.390858L197.722946,128.989957L200.059304,131.148613L203.540761,135.626045L205.900015,138.040177L206.857729,137.725025L208.780285,139.390012L209.919480,139.494259L210.837031,139.147103L210.898833,136.959520L211.086034,134.985295L211.251600,132.908233L212.409088,133.022254L215.172003,136.861782L215.181398,134.382107L214.756948,130.786975L213.422450,124.853483L213.990704,123.437972L215.392809,124.094506L215.897255,122.475009L218.958919,127.535837L219.089429,124.946828L221.239745,127.798004L224.064956,132.667013L225.126346,132.721996L225.126753,129.702122L226.292460,130.033806L227.749962,131.281593L227.487264,127.249804L227.375333,123.527551L227.969705,121.945104L229.244806,122.569904L230.039365,121.599791L232.051824,124.853963L233.932911,127.815561L235.157161,128.528941L236.143915,128.397539L236.592391,126.187086L237.765237,126.752334L238.695281,126.369283L239.571880,125.752559L240.676181,126.100589L241.369071,124.644300L242.164038,123.580768L243.740416,126.182182L244.594876,125.419516L245.563204,125.197372L246.593864,125.301535L247.017211,122.108767L248.392790,124.087305L249.385566,123.979056L250.176352,122.635814L251.215978,122.784118L251.973001,121.070284L253.273899,123.015578L253.952125,120.596281L255.089498,121.483933L256.299703,123.072625L257.124168,121.543844L258.041160,120.687488L259.053042,120.654460L259.777105,117.656150L260.794060,117.483253L261.986177,119.392175L262.857990,117.484718L263.869506,117.218386L265.001949,118.801674L266.070306,119.644667L267.084771,119.660867L268.147387,120.780589L269.056713,118.257915L269.938721,113.834706L271.062390,116.822295L272.101501,117.344455L273.202915,123.704642L274.178843,122.140526L275.175124,120.513086L276.186900,119.631168Z" />
<line x1="50" y1="575" x2="100" y2="575" fill="none" stroke="blue" stroke-width="1.0" stroke-linejoin="round" stroke-miterlimit="10" />
<text x="125" y="578" style="text-anchor:start;fill:black">n1_4mer:GRV/n1_4mer:RV</text>
<path style="stroke:green;stroke-width:1.0" d="M276.210961,181.921598L277.011817,171.921748L277.680743,171.998618L278.328179,172.712150L278.911942,174.825431L279.329968,179.978782L279.774934,183.332072L280.261318,185.239291L281.023806,182.532867L281.739773,180.975926L282.408007,180.296830L283.280034,177.326034L283.976923,176.706928L284.607770,176.853268L284.637819,182.740303L285.415089,181.208474L286.104698,180.600928L286.893312,179.268661L287.282383,181.132227L288.018101,180.302461L288.177419,183.556696L288.772021,183.644356L289.492524,182.932360L290.119098,182.858322L292.010025,175.394083L293.411424,171.259643L293.870845,172.549231L295.417559,168.061843L294.427024,176.724788L294.840468,177.956075L294.726745,181.612276L294.906768,183.701349L294.642271,187.648480L295.112748,188.198335L296.875366,183.308019L297.698605,182.526650L298.330869,182.552791L298.911164,182.786058L298.811877,185.567641L298.199924,190.091557L298.945800,189.552020L300.426736,186.487649L300.626194,187.931823L301.529951,186.979361L301.709605,188.425704L300.505113,194.199585L302.726455,189.112849L303.692737,188.058357L305.817379,183.622271L304.581950,189.134286L304.372339,191.510362L305.209230,190.883536L306.178498,189.928516L306.227707,191.479945L307.642776,189.397085L309.111538,187.264107L310.167433,186.261917L309.825559,188.766701L309.677712,190.716106L311.816269,187.146987L313.481851,184.822746L312.144240,189.502325L312.634859,189.892306L311.498500,193.892754L314.563293,188.588760L314.390926,190.423248L313.985359,192.697295L312.699752,196.731569L317.242714,188.739796L316.821692,190.987667L316.877718,192.229257L316.053411,195.152267L317.296722,194.033710L316.798006,196.241106L315.942954,199.049641L317.391056,197.573537L319.209406,195.484792L319.113815,196.858049L322.411739,192.277917L321.831188,194.509132L321.541194,196.191530L320.149983,199.670828L320.079740,200.885735L324.332536,195.069685L325.815196,193.853344L326.577735,193.814609L327.509829,193.523390L328.032018,193.877030L327.607416,195.658362L326.882243,197.846581L326.697950,199.190380L325.806762,201.528643L329.132766,197.797394L327.810495,200.715957L328.218165,201.164400L326.831100,204.066270L327.741387,203.797540L329.348017,202.617823L330.414867,202.188334L331.537255,201.707892L332.556878,201.381411L336.782481,197.027365L335.102035,200.153691L335.110561,201.132570L336.261546,200.710619L336.137661,201.835784L337.002574,201.774183L338.451342,201.044176L337.976994,202.556070L340.344988,200.812405L342.946142,198.863628L346.501092,195.921785L345.804111,197.709356L342.412455,202.366105L339.551538,206.349764L340.107285,206.655148L340.450670,207.183608L341.441899,207.046850L341.578993,207.786982L345.858999,204.390926L341.279234,209.808339L343.331913,208.658393L339.220987,213.456094L339.548371,213.942937L342.262377,212.199765L343.889975,211.513927L348.234028,208.386431L351.814487,206.037459L350.816368,207.819158L345.976177,212.927614L344.291725,215.191818L345.329821,215.089746L352.224226,210.078935L351.215837,211.768323L350.767323,212.968145L350.501389,214.001941L352.380698,213.311274L350.655759,215.487253L354.088703,213.615465L348.944785,218.374879L351.320915,217.339066L354.089070,216.051960L348.728390,220.789980L347.968756,222.076371L350.566798,220.938727L353.041655,219.932191L352.703615,220.924461L349.995127,223.530264L350.699219,223.768251L350.631097,224.528599L349.756669,225.812020L352.170565,224.940061L353.667873,224.692854L354.573858,224.839842L354.245952,225.763993L353.191195,227.121524L354.932599,226.767365L354.128841,227.951837L353.422989,229.059411L353.766450,229.543866L356.521223,228.658415L357.451857,228.836506L357.192805,229.681326L356.836015,230.569813L357.076223,231.128310L360.341070,230.094521L357.351887,232.349144L355.076473,234.186064L357.628087,233.560490L357.240147,234.422462L360.621700,233.444402L362.121105,233.414759L364.736419,232.880981L368.369412,231.914770L367.734850,232.937157L367.544998,233.747061L363.762360,236.123405L362.360511,237.412826L362.731847,237.927574L364.192994,237.992134L367.821818,237.192381L365.406987,238.859892L362.205774,240.795851L362.192557,241.453873L364.054049,241.401136L359.893672,243.600143L362.656813,243.224851L366.756167,242.412634L368.801524,242.371844L368.020148,243.320480L363.987836,245.338386L365.756831,245.403348L367.168598,245.604932L363.008409,247.561207L367.338894,246.868849L365.125916,248.182509L363.183901,249.383644L365.850589,249.248706L376.913189,246.828004L372.465163,248.738874L367.738502,250.658418L367.258049,251.424975L371.157059,251.093948L379.891862,249.645740L382.594179,249.732240L384.078059,250.131373L383.615790,250.979005L386.870829,251.021420L386.276279,251.904980L386.134167,252.687596L383.187714,254.010396L380.450973,255.252301L373.995521,257.127007L367.714697,258.883063L367.894570,259.473688L371.648319,259.491908L368.454153,260.627419L368.911473,261.181863L368.641376,261.843392L377.662679,261.256344L385.517442,260.936042L390.019630,261.122874L391.850361,261.672638L387.441478,262.915959L380.201235,264.385883L376.468437,265.428893L376.213437,266.116851L370.360452,267.255346L366.369408,268.177494L366.510227,268.765337L366.261822,269.378465L369.196542,269.812577L376.946668,270.050773L378.778603,270.638357L373.590695,271.498745L371.250183,272.208674L371.989159,272.818627L371.935576,273.450683L369.926584,274.100441L368.348789,274.722699L366.109681,275.322068L364.803434,275.901696L367.494364,276.530546L366.969066,277.120396L368.686215,277.769886L372.299578,278.510385L369.175825,279.011298L369.196976,279.626288L367.319065,280.136290L368.439969,280.808639L365.309929,281.204091L363.915783,281.689757L365.151959,282.372864L369.382563,283.337305L371.624792,284.169244L370.770184,284.717187L368.985411,285.154232L369.456114,285.827191L365.321681,285.949036L363.928238,286.367615L368.143802,287.522857L369.980407,288.399407L366.383937,288.498929L366.602753,289.140772L370.503896,290.379749L372.897595,291.419310L375.981848,292.612763L367.481207,291.750775L363.211607,291.570834L366.815895,292.867064L369.690029,294.066514L368.373484,294.434326L364.389293,294.212621L361.013713,294.073341L368.376923,296.344380L362.741697,295.657795L360.872653,295.808274L361.150038,296.469792L364.259957,297.862583L365.058879,298.692581L368.317652,300.200112L366.572080,300.369026L361.382332,299.537457L363.579653,300.785534L360.894360,300.611142L369.397604,303.816567L366.502457,303.584818L362.002184,302.801462L360.608928,302.971334L361.734417,303.964897L365.233941,305.787473L362.300669,305.422123L358.226549,304.610961L362.299059,306.701217L358.781899,306.042405L358.082450,306.399436L360.180268,307.827126L362.404405,309.338984L356.584311,307.666663L361.006895,310.088409L356.603831,308.912973L360.247996,311.079551L357.204528,310.423787L357.641998,311.251567L362.093555,313.881832L367.438052,316.991138L362.773651,315.563170L358.987047,314.478328L357.023471,314.208855L361.444358,317.015159L360.329454,317.161707L357.472525,316.419759L361.303189,319.048989L366.550774,322.480596L365.022395,322.433629L365.678978,323.535884L360.903851,321.701475L357.652736,320.633111L355.440563,320.097049L353.988706,319.960951L356.849605,322.297019L354.839277,321.830798L355.037716,322.649717L353.083967,322.177273L353.756054,323.285485L351.064752,322.319027L352.877976,324.152579L354.943794,326.186672L355.081110,327.012222L352.233259,325.879994L356.231935,329.275329L355.499626,329.546834L353.125089,328.682735L355.083112,330.798590L353.473599,330.438961L352.877494,330.780841L350.269136,329.656925L348.661392,329.224830L349.255318,330.410477L349.895870,331.650725L349.828950,332.369216L350.388406,333.580762L347.588345,332.166185L347.015843,332.478308L350.080464,335.728052L351.621932,337.803796L349.704310,337.048865L350.757468,338.760991L350.178528,339.113859L352.243466,341.747722L350.911254,341.464014L348.233833,339.966277L347.125238,339.826175L345.833272,339.502931L344.400649,339.029156L339.648873,335.428435L342.359601,338.788304L342.186289,339.458377L342.342934,340.455304L341.257068,340.243467L339.592247,339.437115L340.601973,341.301492L339.885093,341.435897L341.133748,343.601597L341.580953,344.970827L338.483408,342.590679L336.802279,341.664597L339.040756,344.986939L335.935206,342.469140L337.435883,345.041435L337.510782,346.050660L338.183903,347.764838L337.837514,348.324070L335.687835,346.755169L334.995991,346.880370L334.741282,347.529171L332.871523,346.198003L333.291343,347.675390L331.642000,346.568026L332.699902,348.887423L334.680258,352.456889L331.417953,349.216531L331.234656,349.982949L330.799422,350.419851L330.632129,351.225919L328.632529,349.499095L332.261514,355.641244L329.779683,353.219092L328.499222,352.458315L328.206953,353.117088L326.284387,351.357379L325.584685,351.384550L324.298367,350.504616L328.560040,358.209256L326.463678,356.106953L326.374988,357.143608L323.037116,352.929799L323.215924,354.371226L323.202850,355.525663L322.819891,356.078162L322.718671,357.122812L321.048718,355.449142L319.212956,353.420916L319.836590,355.750532L318.188907,353.989517L316.684871,352.431223L316.976711,354.203538L319.417173,360.142399L320.202090,363.038943L318.031473,360.170411L316.911425,359.311826L316.275424,359.405549L317.173140,362.682163L316.845995,363.470868L315.363545,361.793023L314.769025,361.990253L313.224017,360.069963L312.044222,358.900006L312.977165,362.550041L313.426122,365.187619L310.931035,360.876544L310.199900,360.690469L309.474250,360.502344L307.597828,357.389914L308.787011,362.046619L307.737696,360.997582L306.473628,359.322822L307.958381,365.085266L308.143848,367.451782L306.881529,365.785530L306.044439,365.276195L305.499745,365.604728L305.633290,367.998014L305.253164,368.895258L302.508631,362.319216L301.190482,360.062036L301.037708,361.564261L300.240159,360.935600L300.487720,363.913700L299.165304,361.418929L298.603679,361.578270L297.736177,360.586499L300.360293,373.030207L299.125233,370.822726L299.203867,373.846659L297.811801,370.856734L295.278375,362.741619L294.311580,361.107901L294.907615,366.550732L294.210847,366.199929L294.720049,371.733077L294.010897,371.456255L292.234585,365.544503L291.427067,364.466763L290.750953,364.041793L290.201690,364.320573L289.300775,362.463389L289.559592,367.834755L288.714361,366.322775L288.656940,370.151237L287.829816,368.719881L286.864814,366.076027L286.522653,368.177610L285.817371,367.405975L285.391026,369.058722L285.059523,371.825291L284.990108,377.649873L283.575744,369.489074L282.616164,365.449183L281.944256,364.423707L281.653488,368.560711L280.792122,364.690970L280.503966,369.816421L279.752372,367.236784L279.179932,367.881351L278.631062,369.347478L277.865450,364.622487L277.339029,366.865137L276.722749,365.896734L276.143197,366.854931L275.562865,369.764848L274.941656,378.085542L274.215813,385.892413L273.494032,385.913719L272.830845,382.997686L272.128206,382.985396L271.534108,379.692012L270.717309,383.094880L269.803649,387.628160L269.240429,384.375625L268.615419,382.875889L268.136286,379.446028L267.608836,377.297156L266.971255,376.894698L266.462610,375.035171L266.350012,369.123396L266.282145,363.537620L265.835527,362.249240L264.861164,365.833726L263.955538,368.429930L262.167542,377.813672L260.053083,388.729570L259.537132,387.010237L259.608229,381.381808L259.271173,378.935699L259.200565,375.000581L258.269334,376.602238L257.333259,378.098760L257.035261,375.890616L256.091908,377.326927L255.486125,376.891073L256.626970,367.666881L255.783568,368.720532L256.411267,362.753946L254.595663,368.326127L253.330276,371.112932L253.420341,367.892689L253.514087,364.833639L252.876145,364.911367L252.827699,362.646739L252.434698,361.820736L251.379933,363.509869L250.253430,365.367177L250.315894,362.890519L248.864988,365.783700L248.381871,365.249246L248.960532,361.216182L248.936502,359.310153L248.101165,360.047540L246.679886,362.556085L246.571316,360.977527L246.848966,358.315452L244.574495,363.151746L242.903749,366.067098L243.893280,361.461184L244.447174,358.218094L243.856016,358.152224L241.948023,361.528452L241.035462,362.211207L239.586675,364.210671L239.085636,363.784176L238.887612,362.629474L238.364415,362.282839L239.193977,358.775043L238.821846,358.144799L238.065451,358.395999L236.198637,361.094069L235.992112,360.070560L235.614908,359.438964L235.376319,358.527698L232.795459,362.493762L232.634166,361.387441L231.506721,362.246086L233.519066,356.871110L231.529922,359.430200L230.383648,360.288635L228.320209,362.837076L230.434976,357.557181L228.950880,358.994630L228.619251,358.309217L227.692136,358.688802L229.757938,353.832769L228.774549,354.346114L228.418263,353.774968L228.864424,351.874570L228.521287,351.316676L225.758161,354.682134L223.165429,357.670138L220.503160,360.672703L220.686482,359.170335L221.040004,357.440288L222.199867,354.534235L220.387253,356.114450L219.589691,356.154406L217.629402,357.862703L217.141125,357.417119L212.101314,363.367989L210.941196,363.769782L210.602774,363.026239L209.517587,363.298398L209.186469,362.548724L207.370898,363.755825L207.304677,362.653954L210.683520,357.168352L211.889035,354.556437L214.407609,350.369292L217.673271,345.364873L216.863639,345.418129L217.113222,344.193985L215.017295,345.758846L212.582765,347.667016L212.817973,346.447515L214.240172,343.903072L214.190093,343.062130L216.364979,339.774754L213.895599,341.626355L214.369482,340.252342L212.512978,341.379095L210.551415,342.576551L210.241618,342.022906L207.473502,343.984043L210.636336,339.902870L211.240388,338.462642L210.090403,338.772051L209.594334,338.428515L204.903678,342.098040L205.041990,341.098906L201.849421,343.220144L205.735474,338.758578L205.355607,338.276242L204.134936,338.548659L205.464199,336.545212L200.972018,339.667229L200.366208,339.345226L203.997903,335.413418L204.632012,334.089007L203.043918,334.628692L202.075554,334.635243L200.263261,335.310216L202.086776,333.059549L199.507524,334.314971L201.795352,331.751085L200.129000,332.267005L195.255618,335.176316L193.755320,335.482993L197.724385,331.750629L201.209408,328.455808L201.197468,327.735794L201.970815,326.468841L192.796051,332.138185L193.164774,331.095846L190.647133,332.018586L196.533729,327.299069L198.756319,325.104408L197.659674,325.107713L198.782558,323.679195L197.042099,324.079714L199.949897,321.570078L200.153209,320.772220L198.220866,321.270355L195.374666,322.282213L193.380907,322.750679L194.317759,321.500710L193.341736,321.358180L195.369013,319.524785L195.491294,318.779910L193.077384,319.417017L190.901976,319.891036L188.724288,320.334767L188.675675,319.646099L187.112952,319.732059L188.899206,318.119991L190.735793,316.516759L190.160649,316.116411L191.726947,314.690443L193.326729,313.277914L193.467482,312.566988L195.530047,310.991753L192.959339,311.514711L191.537873,311.498724L191.422986,310.903104L192.493259,309.809298L192.716411,309.086291L188.496776,310.176735L189.429688,309.150333L191.867959,307.551902L192.348257,306.745266L185.108011,308.856734L186.920645,307.521333L182.426834,308.497864L182.663904,307.734319L185.514933,306.069782L183.996136,305.935208L185.831622,304.665567L187.476554,303.487263L185.230066,303.573942L184.508674,303.156557L189.507847,300.992263L182.712550,302.403656L182.086415,301.933093L181.814342,301.356029L184.108153,300.069828L189.263178,298.048839L184.381822,298.730078L188.727723,296.993301L182.501751,297.940678L181.839280,297.462670L177.771224,297.775292L175.710295,297.577708L178.522175,296.279183L182.117967,294.853354L182.895934,294.061367L187.160645,292.583643L187.778162,291.870628L188.098326,291.222940L186.911045,290.852260L184.259626,290.720677L181.209169,290.621394L182.618603,289.769644L184.112240,288.925084L184.324365,288.289438L179.849882,288.313517L183.466870,287.200839L187.465032,286.088824L184.780191,285.833075L184.687134,285.248704L179.826705,285.173595L181.180950,284.411938L178.377161,284.058713L178.344830,283.427804L180.302632,282.636699L182.287036,281.869913L181.912301,281.289057L179.892797,280.804216L177.875746,280.293359L177.039090,279.699997L172.770493,279.238410L171.143875,278.629224L174.789575,277.849249L173.651899,277.221855L175.315523,276.536657L171.413247,275.922825L174.239955,275.242124L170.366543,274.570735L168.301149,273.868091L174.147622,273.273889L173.544932,272.603281L171.994063,271.896052L172.570666,271.246327L178.314607,270.826831L171.606500,269.863214L180.185933,269.670912L180.776122,269.088939L185.000983,268.765941L184.281510,268.122827L185.106087,267.596872L182.267179,266.755376L183.668246,266.280730L183.412207,265.654649L182.890908,264.995591L184.227185,264.542810L182.629221,263.749363L182.007590,263.059216L183.666873,262.667799L185.868231,262.374090L183.359597,261.410031L179.532316,260.207112L185.028496,260.458778L184.359322,259.744914L184.840869,259.222145L186.590504,258.934885L184.601623,257.965247L184.633714,257.361784L186.232260,257.073548L182.860098,255.767854L182.609662,255.087488L186.362401,255.292027L185.671594,254.527683L186.774254,254.175381L184.061255,252.909478L187.989298,253.263256L186.063406,252.166441L187.536636,251.937155L185.440088,250.760103L184.657570,249.916411L186.399187,249.778012L185.843429,248.991622L188.250286,249.080190L187.030058,248.090998L188.496848,247.923034L185.521335,246.351196L186.306959,245.965254L183.700471,244.452975L179.932163,242.502966L178.078289,241.163476L183.187906,242.275689L189.166695,243.775892L190.865996,243.772813L191.078608,243.229052L191.256408,242.671941L192.160417,242.400129L192.389499,241.868026L189.397130,240.019732L187.578435,238.611085L189.390477,238.710129L188.983383,237.875594L188.324029,236.920220L188.479831,236.315237L190.139328,236.392860L193.919182,237.473949L193.324998,236.551837L195.166492,236.782307L189.362598,233.316944L192.282984,234.070682L190.642528,232.573597L189.354670,231.225487L185.408470,228.470969L181.222157,225.519564L182.646778,225.500520L182.018194,224.382211L183.514334,224.422394L188.301687,226.329997L189.491014,226.263376L192.732775,227.399350L195.173148,228.115570L195.239886,227.454212L194.591284,226.355822L191.390833,223.673743L194.498703,224.857651L196.368547,225.309432L192.892591,222.362267L186.204129,217.255902L190.240776,219.093010L195.192027,221.610547L200.266523,224.298409L202.747133,225.291894L197.640670,221.033976L192.925530,216.947280L187.829840,212.488265L190.477935,213.550728L191.706238,213.611504L199.502486,218.595834L201.272738,219.167383L200.373085,217.718392L196.512603,213.939677L198.714835,214.852237L202.827439,217.329518L199.047304,213.495104L196.495565,210.578664L195.956058,209.270814L195.675329,208.159730L196.861668,208.285310L198.884949,209.151865L195.394568,205.221691L195.343370,204.255177L201.784702,209.118912L206.386163,212.446875L208.710874,213.771851L207.664771,211.988931L207.503701,211.009538L206.428137,209.137519L207.494019,209.311662L209.271473,210.203464L212.999377,213.078030L211.217448,210.464106L208.543264,206.877584L209.306987,206.778129L208.056880,204.568557L211.043400,206.828015L213.771491,208.879078L214.668560,208.991598L213.076678,206.358504L207.924140,199.667334L208.537668,199.371434L211.216773,201.460684L211.552269,200.878772L215.654614,204.751266L212.806117,200.400333L214.214099,201.117189L215.700712,201.960788L218.111270,203.990793L216.487872,200.982744L218.754449,202.890604L218.265125,201.279307L221.523361,204.569758L221.837359,204.029367L222.380751,203.794051L221.514105,201.627382L223.079002,202.791932L222.035967,200.321130L222.416945,199.826669L223.070390,199.722894L220.418607,194.767151L222.177549,196.256067L223.418429,197.013998L224.786309,197.998045L225.837032,198.526562L225.203061,196.421276L226.925396,198.036249L227.211727,197.375293L227.511025,196.725357L229.408313,198.738245L229.594727,197.915844L231.464232,199.977879L228.505603,193.665192L227.030234,189.802596L228.715087,191.529443L229.135046,191.002947L227.443408,186.541573L226.893745,184.106313L228.336402,185.427528L231.510413,190.177998L232.290751,190.348011L235.308267,195.039623L233.723821,190.471364L234.039821,189.715809L234.920072,190.138368L235.915926,190.833290L237.627763,193.129587L238.393221,193.405452L238.848575,192.996116L239.080763,192.065259L238.541985,189.296740L237.540529,185.327525L237.086505,182.554308L239.687597,187.275347L238.917318,183.650704L238.222449,180.089084L240.685349,184.705859L240.699726,182.944689L242.391532,185.714122L243.759282,187.700877L245.474851,190.771576L245.934060,190.320945L246.193771,189.265236L245.022545,183.818864L245.621385,183.641420L246.502204,184.361446L246.070407,180.851839L248.106714,185.406974L247.914806,182.588617L249.289341,185.116005L249.863581,184.911077L250.294905,184.178626L252.085065,188.542861L250.113200,178.574386L251.549624,181.633932L252.380741,182.397254L253.063344,182.587821L254.823108,187.471064L255.004663,185.605715L254.953683,182.558731L255.777584,183.487649L256.782486,185.377455L257.251842,184.680363L257.487483,182.710187L258.156285,182.969989L258.527082,181.567714L259.761767,185.156422L259.872909,182.151967L261.036625,185.635489L261.241445,183.027508L262.323743,186.323547L262.155132,180.772177L263.108682,183.314295L263.787699,183.907569L263.976496,180.368067L264.942853,183.487633L265.645215,184.458006L265.762858,179.524888L266.242834,177.899748L266.920238,178.389319L267.792025,181.492734L267.833008,173.403479L268.335590,170.882739L269.100052,172.355003L269.984514,176.569340L270.768112,179.760528L271.083930,171.721628L271.695409,169.772556L272.449961,172.562401L273.133485,173.476269L273.858244,178.876350L274.520010,185.649335L275.097344,189.127719L275.694989,184.023866Z" />
<line x1="50" y1="625" x2="100" y2="625" fill="none" stroke="green" stroke-width="1.0" stroke-linejoin="round" stroke-miterlimit="10" />
<text x="125" y="628" style="text-anchor:start;fill:black">n0_4mer:PS</text>
<path style="stroke:red;stroke-width:1.0" d="M276.622710,150.273299L277.529397,145.402813L278.428480,143.268533L279.166990,146.932241L279.931312,148.722059L280.578040,152.589808L281.265604,154.714587L282.143001,153.136836L283.066302,151.179980L283.880532,151.110986L284.566302,152.705412L285.531479,150.767262L286.166153,152.735898L287.286003,149.494182L287.751181,152.937111L288.945336,149.417360L289.978501,147.670419L291.740523,140.252619L291.841155,146.291932L292.090452,150.678970L292.153594,155.964455L292.940300,155.994396L293.874975,155.091665L294.620708,155.423756L296.252414,150.551847L297.878506,146.089585L299.406955,142.493410L300.949978,139.085477L299.733394,149.881531L299.993353,152.752227L300.742092,153.135224L301.513410,153.401228L302.540925,152.522226L303.177492,153.392889L303.723370,154.604177L304.490383,154.857173L304.856370,156.695873L305.980354,155.523571L306.804118,155.550476L307.262972,156.922086L306.943822,161.011950L308.662731,157.817541L310.753589,153.522741L310.978118,155.632385L312.576209,153.203594L314.158115,150.946759L313.445591,155.908602L313.051910,159.699200L314.462404,157.988596L313.742642,162.544105L315.503399,159.870793L316.039050,160.728311L317.022661,160.339887L319.044957,157.199574L320.706231,155.139282L321.404341,155.646650L319.953188,161.569492L320.337079,162.738604L321.407748,162.206350L322.930121,160.626501L324.166587,159.784445L325.076839,159.734395L325.002084,161.924990L326.373444,160.837539L328.328001,158.524895L328.647816,159.812100L327.994537,163.122262L330.187408,160.425457L329.488850,163.733018L329.610445,165.297340L329.589866,167.103869L328.440363,171.059993L332.420040,165.083974L332.424834,166.795881L335.603834,162.578143L335.771050,164.002825L335.247789,166.638095L333.913888,170.641621L336.059968,168.465040L338.032643,166.662964L339.841509,165.203503L340.413034,165.863531L339.209348,169.435313L340.637552,168.651722L342.405301,167.360649L342.640644,168.530955L341.891743,171.207767L342.103366,172.352118L343.334181,171.939514L346.129689,169.223951L344.418425,173.205162L346.300704,171.892475L348.131525,170.701907L345.644359,175.630574L346.339079,176.023198L345.652579,178.308034L347.445413,177.196512L347.887494,177.926439L348.339015,178.637127L349.796197,178.037902L351.292475,177.417495L356.008335,172.763359L355.622197,174.599508L356.802643,174.476050L354.955406,178.041336L355.886770,178.201774L356.574012,178.660070L356.687394,179.789113L357.674495,179.897568L359.334443,179.253261L359.532642,180.277791L364.652657,175.846660L363.584129,178.300469L360.639034,182.727784L359.080037,185.581304L358.372823,187.481325L359.372378,187.577973L359.380846,188.699874L360.811387,188.371439L363.413903,186.897939L361.333702,190.082944L362.246035,190.295183L362.714866,190.941567L362.103945,192.607355L364.418487,191.513476L365.412318,191.679850L368.834448,189.648317L370.790928,189.000782L368.878452,191.814355L366.923670,194.607934L364.981230,197.333961L365.021028,198.315850L372.118725,193.353976L370.788331,195.530208L372.093641,195.507966L373.831092,195.153724L373.370540,196.577946L373.050072,197.871316L374.760132,197.571377L372.272557,200.511037L375.106041,199.369254L377.370407,198.699510L376.909789,200.069140L373.292597,203.709202L373.717019,204.376817L375.372756,204.174904L375.659401,204.949058L376.005013,205.679479L375.591643,206.921546L374.556433,208.562346L374.849786,209.301389L375.621144,209.727855L380.611099,207.462989L378.926753,209.488756L377.810149,211.123410L376.084831,213.103164L375.930348,214.096979L374.973680,215.557982L377.493853,214.958575L380.882304,213.895302L380.099274,215.255227L379.023132,216.759089L382.513328,215.720341L383.552691,216.064867L383.362113,217.077877L383.394754,217.963940L381.699455,219.739297L379.279855,221.849914L383.843365,220.413044L386.274824,220.096664L389.527821,219.415119L387.641550,221.233166L389.192189,221.402330L392.564598,220.749924L390.321126,222.692433L391.334764,223.142514L387.585233,225.689341L386.766870,226.911902L391.920521,225.593455L393.521596,225.823140L392.941533,226.960772L392.832038,227.896754L390.661147,229.634987L386.767748,231.998909L389.850934,231.668327L386.844893,233.631621L391.703854,232.695447L394.025088,232.728029L392.429914,234.152886L392.017560,235.147772L389.764794,236.746356L393.248269,236.438132L396.334994,236.302977L393.802485,237.960394L396.890832,237.865817L394.424958,239.464409L393.829902,240.481351L398.656930,239.949858L404.619074,239.169230L401.037101,241.040418L397.354098,242.885051L396.849916,243.863261L401.599578,243.525492L408.968022,242.617506L411.413237,242.964281L412.263534,243.705388L410.808361,244.965214L411.999640,245.635269L411.931327,246.580361L410.733092,247.748871L412.353774,248.351861L411.024671,249.526795L410.040553,250.619312L406.609551,252.121827L401.860319,253.796685L402.202453,254.589223L405.490708,254.931462L404.225735,255.985721L404.268888,256.837728L409.959080,256.932761L414.542565,257.242434L419.355063,257.583552L417.253420,258.775294L413.833914,260.079574L407.537156,261.627867L404.388018,262.795352L403.929819,263.684281L397.520139,265.049585L393.801663,266.129142L394.333737,266.869699L392.828690,267.742003L393.723331,268.461881L399.930606,268.934967L400.961796,269.706034L400.411189,270.546268L399.593205,271.386705L402.756194,272.126649L401.619929,272.976240L401.807196,273.798328L398.892052,274.631968L396.534654,275.429618L396.215012,276.217093L398.744703,277.047660L396.895884,277.810375L396.672131,278.597306L400.290873,279.520258L396.641196,280.181150L399.390895,281.109200L398.596692,281.876462L398.209516,282.659245L397.784738,283.435038L395.461605,284.063170L394.453833,284.769248L398.457692,285.905663L398.560131,286.725283L395.439064,287.220181L396.652479,288.143396L399.628321,289.285731L397.771208,289.882654L395.080331,290.349759L397.839736,291.515371L400.841794,292.753192L397.698670,293.124637L396.497493,293.755641L397.685191,294.756969L399.555905,295.890421L404.332542,297.557554L398.957862,297.452024L394.265944,297.404491L397.157723,298.771481L397.353533,299.636758L396.543224,300.297446L397.457941,301.320132L396.926148,302.036840L400.207322,303.620269L397.775021,303.905997L392.811693,303.547598L392.877621,304.376748L391.751600,304.904150L391.497599,305.648048L391.144043,306.364301L390.502151,306.998586L388.181525,307.149940L390.050905,308.491315L388.337205,308.793782L395.899178,311.906649L396.006517,312.801709L393.943061,313.008138L387.898794,311.887857L386.451580,312.219176L389.640207,314.114797L387.429471,314.178889L389.886542,315.875188L389.310473,316.509968L388.859957,317.186760L389.452841,318.255280L389.052939,318.954196L390.123607,320.229159L391.462071,321.631849L390.695487,322.200525L385.972110,321.117861L385.229559,321.652511L385.561129,322.643287L385.404749,323.429917L391.365269,326.949823L393.194826,328.691473L389.199529,327.775461L387.567899,327.912831L386.618730,328.355980L386.887608,329.381521L384.981717,329.342513L388.083960,331.793586L387.041416,332.185733L390.177793,334.734178L388.240081,334.667241L387.762930,335.356309L385.578842,335.115990L384.766975,335.603058L383.610783,335.889999L382.614868,336.255173L383.705116,337.815550L380.368590,336.805359L377.573166,336.065990L377.257797,336.782774L380.381604,339.609661L379.753348,340.165879L381.270725,342.072624L380.859709,342.780198L380.021163,343.210643L375.392286,341.136777L377.845396,343.716420L377.553383,344.490539L375.280517,343.906577L378.058868,346.807144L376.733898,346.871581L374.944052,346.586321L371.689376,345.211301L373.429443,347.457493L372.509936,347.763436L373.402708,349.431137L371.695283,349.133509L376.738001,354.055786L378.757567,356.713176L379.380362,358.309538L378.006369,358.315629L374.494677,356.551630L372.133649,355.678513L373.084566,357.552510L372.017352,357.738477L373.642072,360.238713L373.420458,361.171922L371.290373,360.419904L369.831726,360.234769L368.529680,360.170971L366.948575,359.831910L362.285771,356.587541L363.445678,358.756433L363.508441,359.914802L362.080835,359.639949L360.805218,359.492570L359.410076,359.207347L358.648637,359.540588L359.313829,361.328996L359.959241,363.129583L362.209646,366.649802L359.289555,364.742949L356.495996,362.907725L357.367794,365.015642L354.928438,363.498970L354.477372,364.158812L355.076418,366.016016L355.397032,367.588092L355.393769,368.810177L354.092573,368.516286L353.574839,369.139431L352.074054,368.572101L350.893760,368.370348L351.513780,370.394418L350.217036,370.037866L349.959880,370.989631L350.908398,373.518816L347.381165,370.215772L348.905187,373.544729L348.792178,374.739297L346.057344,372.361208L345.659645,373.150874L346.687630,375.957506L346.262216,376.754254L344.843362,376.122014L342.923428,374.723442L342.492287,375.489338L341.388835,375.249341L340.849812,375.854553L341.032226,377.585666L340.258221,377.847205L339.740539,378.513825L338.206810,377.539334L338.197906,379.033998L337.028781,378.622685L337.497632,380.964130L336.191804,380.309786L336.975653,383.274201L335.240947,381.849906L334.328425,381.850274L333.365056,381.745642L332.036223,380.946940L331.701461,381.986855L333.296833,386.748045L333.591434,389.117024L332.026958,387.871093L331.084534,387.823400L329.817240,387.097680L329.086833,387.451920L329.535589,390.299227L328.511013,390.063793L326.266739,387.140206L325.160426,386.635193L323.965015,385.898941L323.633381,387.116176L324.276082,390.652900L322.319670,388.095818L320.744490,386.360171L320.028867,386.679694L318.988224,386.178759L319.652420,390.039541L320.063190,393.375019L318.708289,392.101410L317.268405,390.532389L317.684825,394.065478L315.299570,389.756663L315.088749,391.576749L315.271630,394.633792L314.181128,393.947953L314.344238,397.110778L312.632189,394.453902L310.623080,390.697438L310.050719,391.528676L308.996674,390.749053L307.808120,389.450857L307.225094,390.242004L306.607322,390.935628L305.864206,391.183092L306.609881,397.187991L306.824658,401.403980L304.615680,395.948072L303.675126,395.494822L301.882146,391.315188L302.040503,395.570198L301.563041,397.157564L301.508736,400.845300L301.060943,402.837169L299.501977,399.316540L297.567554,393.562068L296.581749,392.540717L295.910161,393.207335L295.367032,394.670577L294.384172,393.553389L294.146146,397.079502L294.005982,401.559236L293.910644,406.755072L292.831098,405.253499L292.233734,407.288632L291.482863,408.288205L291.370625,414.843915L290.962377,419.490138L290.788004,426.963281L289.044963,419.314123L287.231105,409.764496L286.229977,408.366643L284.850622,401.850041L284.253248,405.118280L283.190526,401.830251L282.033625,396.167745L281.190981,395.158149L280.447434,396.046227L279.889004,402.033136L279.083834,402.729782L278.370302,407.368305L277.497699,406.785146L276.615226,404.782059L275.743443,400.167200L274.928486,401.354528L274.039633,410.806085L273.083633,416.139424L272.158002,416.497117L271.229376,416.783269L270.218698,419.425753L269.236472,420.471122L268.287522,420.489416L267.544680,416.578311L267.058622,409.180015L266.293657,407.485568L265.612682,404.924863L264.659135,406.238348L263.925297,404.765634L263.494804,400.191862L262.737721,399.534423L261.993490,398.826872L261.271018,397.997803L260.140626,400.701946L258.700382,405.592564L257.127649,410.988905L256.453779,409.345497L256.121182,405.482891L255.481412,403.978348L254.680569,403.609343L253.628369,404.785962L253.034433,403.185654L252.384647,402.008631L251.709974,401.041100L250.954556,400.552516L250.862869,396.738909L250.083248,396.521581L250.104639,392.526365L248.929435,394.242534L247.712145,396.031343L247.036480,395.372919L246.077312,395.927159L245.546248,394.700077L244.236642,396.607046L243.839834,394.889754L242.972766,395.013476L242.097584,395.149922L242.265604,391.554475L241.305178,392.043782L240.581513,391.696499L240.544356,389.081979L239.795194,388.880438L238.618727,390.028692L237.760352,390.132228L236.545537,391.298724L236.865006,387.863854L234.822042,391.407507L233.116654,393.836147L233.998060,388.964965L233.934532,386.851845L233.134262,386.778545L231.910314,387.806678L231.298552,387.212804L230.542907,386.993075L229.451887,387.599840L227.650066,389.898238L227.603023,387.921432L228.163817,384.582213L226.498374,386.466658L225.962513,385.723707L224.863900,386.244050L223.453524,387.415407L222.548929,387.451535L222.865257,384.901325L220.731860,387.502676L220.900647,385.313059L219.494736,386.341733L218.786378,385.949085L217.421382,386.832654L217.280845,385.335959L215.270655,387.392341L216.036806,384.229945L215.752403,383.068949L214.681159,383.344853L211.928318,386.575394L210.868110,386.747657L211.487278,384.019763L213.595589,378.841781L214.390393,375.992289L212.648218,377.379787L208.623996,382.408290L205.891861,385.219478L203.591345,387.259215L203.817553,385.312324L205.460940,381.242043L205.539005,379.630933L203.210558,381.626409L203.511602,379.702510L202.015716,380.414188L199.916920,381.952150L196.397810,385.430248L195.619769,385.001522L194.124900,385.550272L193.333325,385.121730L191.520947,386.048358L190.502661,385.893547L190.671528,384.191059L193.708239,378.855342L192.293719,379.257906L193.844928,375.946673L193.851652,374.604378L194.856176,372.074843L193.978473,371.847718L190.758955,374.375298L188.147455,376.114945L192.757280,369.497370L193.153310,367.816069L194.182805,365.455497L194.373829,364.068621L193.751846,363.590482L190.347076,366.105959L191.668098,363.522323L189.851261,364.281373L191.151279,361.780812L188.907551,362.950737L187.760888,362.969957L188.601235,360.996350L188.618113,359.868038L187.842214,359.523090L184.749454,361.390194L182.885291,362.033372L181.952333,361.776145L184.405514,358.392985L183.278530,358.334634L182.592098,357.867324L181.898065,357.403283L179.391478,358.518935L179.256821,357.544600L180.317645,355.562193L180.602863,354.266627L181.858805,352.184409L182.671449,350.503290L179.349090,352.187299L181.225675,349.670887L178.522834,350.802790L176.261950,351.545569L176.114531,350.635088L170.789987,353.638450L166.204955,355.992995L168.276872,353.376661L172.520350,349.238903L175.092183,346.389394L178.092680,343.297454L172.580368,346.189668L172.826908,345.036907L172.015418,344.612752L174.141839,342.223634L177.000756,339.401325L174.589108,340.054810L171.905536,340.845236L171.113654,340.403405L172.754485,338.445370L173.969428,336.784793L171.859160,337.157035L170.511150,337.046385L167.221759,338.054905L167.522961,336.943725L168.972854,335.192628L167.891997,334.888254L168.009405,333.912274L166.949194,333.583267L162.688689,334.951125L156.214998,337.417223L153.630482,337.771131L153.248037,336.968357L159.457302,332.864740L162.478210,330.439198L163.964202,328.812215L166.660481,326.637874L165.929610,326.118156L164.172130,326.065138L161.862046,326.239910L163.505156,324.624198L164.300534,323.409853L164.565495,322.440574L166.400855,320.817590L165.802627,320.235428L162.854011,320.604424L161.142757,320.439389L163.593206,318.623409L161.722552,318.508128L161.533822,317.735668L160.693105,317.205265L160.587200,316.400598L156.537221,316.996560L157.899494,315.658038L159.261701,314.343256L159.380979,313.465473L156.729862,313.494743L156.394589,312.752330L156.926760,311.738725L156.132706,311.139339L155.241048,310.560991L153.408584,310.246007L152.778629,309.568302L156.412987,307.708720L155.760085,307.055557L158.208083,305.584165L159.807172,304.365987L155.049182,304.749246L156.061233,303.678206L152.625849,303.665455L151.235239,303.143146L154.066375,301.673163L156.091675,300.416423L156.249439,299.575983L157.761368,298.468777L156.280456,297.962980L152.130055,297.937553L150.133944,297.470572L151.893636,296.328052L149.006058,295.985004L150.320507,294.933361L152.853550,293.714286L154.256844,292.696140L155.084539,291.778713L155.354363,290.948075L153.713635,290.364411L152.147014,289.751479L152.047142,288.952690L151.145145,288.239524L153.087812,287.230245L152.926080,286.444836L152.932485,285.643622L155.261070,284.656131L155.710113,283.839229L156.713455,282.991505L149.925789,282.633046L148.924226,281.871243L146.743543,281.153525L147.622122,280.281055L146.320976,279.496653L149.148106,278.578304L146.227540,277.823079L148.817589,276.945128L147.216568,276.138386L147.185676,275.307135L146.780426,274.473972L146.256224,273.634229L147.007620,272.809382L145.983779,271.952191L143.800750,271.046483L144.607904,270.221590L146.761243,269.464913L146.656092,268.623630L152.891225,268.136794L153.199853,267.358964L154.512831,266.654085L153.296519,265.773922L152.249755,264.891019L152.839876,264.139075L148.591616,262.932031L151.721311,262.421003L149.774802,261.398693L151.752302,260.801646L151.086812,259.907539L152.928121,259.325237L155.816394,258.907305L157.336904,258.332501L155.996997,257.352248L153.429056,256.162365L154.711207,255.558889L154.478638,254.715909L155.380662,254.066607L157.452047,253.640062L154.517805,252.296225L154.520244,251.484063L156.184046,251.005376L153.682671,249.677719L151.424083,248.366187L157.767908,248.934233L157.116645,247.983449L156.931655,247.131397L157.802624,246.530823L157.990309,245.769002L158.271735,245.031214L160.210280,244.731584L159.271960,243.677550L157.497128,242.375311L157.629985,241.588285L159.515549,241.311364L162.478753,241.379955L160.865270,240.087487L162.482033,239.779952L158.286043,237.631145L159.595711,237.221002L155.491132,235.014685L151.075988,232.639060L153.468380,232.571863L158.983323,233.648521L163.438994,234.416768L165.688120,234.427790L162.402686,232.372926L161.845528,231.318277L165.379618,231.861078L163.237777,230.176364L160.889054,228.370355L160.765623,227.450347L160.577010,226.496102L163.552151,226.899582L161.001952,224.916678L162.280595,224.601076L163.218762,224.145419L165.061271,224.117850L166.099584,223.735589L165.390045,222.527802L163.302236,220.632352L165.718167,220.926108L165.218215,219.786796L162.198136,217.345407L158.031535,214.252858L153.686319,210.990703L157.873799,212.222698L157.692338,211.139609L158.843744,210.783324L161.987439,211.557917L163.739378,211.585997L165.185738,211.460355L167.001615,211.569681L167.557150,210.952261L164.093664,207.905936L164.990063,207.466756L168.305092,208.542271L173.378127,210.780805L172.193986,209.092725L166.570384,204.488046L167.610767,204.166308L172.933770,206.720353L173.976149,206.462175L174.888077,206.125584L174.221262,204.696550L172.157593,202.257752L166.465996,197.167758L168.404554,197.502928L172.489882,199.448821L176.099364,201.111370L176.717853,200.572315L178.429916,200.875408L177.498140,199.147121L177.926819,198.461729L180.861653,199.777453L178.035261,196.479995L175.045463,192.976547L174.211790,191.189314L175.239839,190.940450L176.401290,190.816191L174.069049,187.683302L173.959724,186.432933L173.940756,185.247040L178.313549,187.998939L179.476739,187.914382L181.185244,188.347720L184.060124,189.900136L185.927134,190.553683L187.437008,190.896760L187.957836,190.301504L188.762476,189.985273L190.392191,190.499523L191.224460,190.234978L190.058486,187.929501L191.648601,188.439981L190.273779,185.858799L193.525531,188.155541L196.080831,189.774860L196.080331,188.654286L193.762174,184.948534L189.708149,179.209018L190.432531,178.769305L193.419956,180.941721L195.268375,181.855519L196.670401,182.279141L196.575044,180.931656L196.123689,179.129026L197.128733,179.085594L198.045016,178.943849L197.457421,176.909414L196.917253,174.894310L200.645061,178.383984L203.935992,181.406698L204.821152,181.313210L205.136368,180.458436L204.487774,178.270449L204.434303,176.862197L204.460592,175.539990L206.058639,176.440649L208.173625,178.128560L206.043041,173.635543L207.739849,174.733375L209.524163,176.007304L210.022902,175.358579L211.621429,176.414063L211.149556,174.245085L211.896555,173.976228L212.716431,173.829912L212.723816,172.352047L213.624734,172.336865L215.629825,174.207744L215.504615,172.475794L213.729215,167.816171L213.669653,166.073341L213.249174,163.638100L211.342202,158.417142L211.444669,156.782854L212.680634,157.251550L214.860729,159.560486L216.455424,160.814779L219.019265,164.043224L221.858789,167.945183L220.559562,163.512550L220.736050,162.015703L220.974474,160.611213L221.808016,160.452211L223.943748,163.152363L224.321341,162.039984L225.744006,163.270441L227.138080,164.490528L226.130466,160.120503L224.604840,154.361383L223.537273,149.516780L223.484251,147.022269L225.852592,150.575181L226.445418,149.696392L228.278084,152.057898L230.226528,154.836651L230.739648,153.809874L233.629241,159.393470L235.304907,161.759078L235.976533,161.311254L236.681504,160.954280L237.097035,159.712182L236.791469,156.183061L235.921452,150.708878L236.388517,149.343197L237.187965,149.031957L238.468652,150.359491L240.029366,152.743303L241.568045,155.179877L242.703999,156.272780L243.950117,157.850027L242.710050,149.890375L244.288647,152.724847L245.092522,152.559447L245.994034,152.807055L248.486863,159.983937L247.816408,153.468776L248.964227,154.939050L249.359529,152.933149L249.685936,150.465399L250.965018,152.686981L251.552492,151.433177L252.506556,152.101230L253.331557,152.099362L254.035189,151.392912L255.206161,153.508102L255.653258,151.182363L256.242164,149.608571L257.343676,151.485604L257.322432,145.320298L258.403923,147.039166L259.346306,147.824230L259.891385,145.299184L261.211849,149.538335L261.971127,148.897681L262.301194,143.745126L263.163570,143.756590L264.188968,145.731203L265.126771,146.917054L265.421134,139.213673L266.376630,140.278142L267.397148,142.728545L268.509698,147.625560L269.401537,149.005491L270.041439,144.228036L270.698465,138.027072L271.665561,141.052287L272.628858,146.028509L273.552462,153.132701L274.341813,152.477646L275.139181,152.220596L275.966525,148.478903Z" />
<line x1="50" y1="600" x2="100" y2="600" fill="none" stroke="red" stroke-width="1.0" stroke-linejoin="round" stroke-miterlimit="10" />
<text x="125" y="603" style="text-anchor:start;fill:black">n0_4mer:D</text>
<path style="stroke:black;stroke-width:1.0" d="M277.274692,100.159815L278.462314,97.603481L279.664751,95.767656L280.806655,96.538997L281.978723,96.293232L283.097326,97.304035L284.193320,98.509059L285.371273,98.060915L286.504244,98.406581L287.698408,97.849211L288.729695,99.481041L289.869125,99.598987L290.976901,100.060472L291.800387,103.378170L293.277603,100.034471L294.648627,98.057220L295.943901,96.959609L297.559459,93.414989L298.514821,95.288621L299.467201,97.018304L300.481888,98.171140L301.564613,98.785681L302.529619,100.110728L303.606044,100.663620L304.996322,99.349979L306.109972,99.708855L307.711646,97.406823L308.878003,97.561987L309.556421,100.189923L310.279730,102.439381L310.846063,105.302348L311.685603,106.748378L312.365237,108.832342L313.597830,108.421276L314.970798,107.459869L316.453262,106.120811L318.217906,103.751568L319.585211,103.056135L320.529148,104.002178L321.274851,105.640589L322.210334,106.535065L322.911783,108.215534L323.491020,110.245736L324.569012,110.540740L325.243495,112.144907L325.989537,113.464714L327.818969,111.384752L329.332809,110.366573L331.013926,108.911076L332.899498,106.938670L333.186705,109.606739L333.581125,111.883064L334.240953,113.359253L334.827153,114.989305L335.782199,115.603835L337.687661,113.765465L339.435341,112.410121L341.273500,110.896889L343.134042,109.400773L343.794359,110.839105L344.546813,112.026014L344.355214,115.359917L345.245656,116.146056L345.605528,118.099854L345.786853,120.392553L347.245066,119.881712L348.258005,120.343684L348.774305,121.837212L350.379447,121.074130L352.047755,120.224779L353.470657,119.903811L355.072468,119.261296L355.730824,120.461422L355.955013,122.458577L355.788869,125.134321L357.674665,123.996287L359.457151,123.095044L361.494516,121.786086L362.564011,122.221858L362.663301,124.329144L362.675345,126.538837L362.386028,129.203330L364.794400,127.371688L365.759456,127.948328L367.099008,127.927331L369.622536,126.060392L370.575910,126.700124L372.783632,125.420577L374.383320,125.111714L375.272596,125.885910L375.972878,126.933868L377.133074,127.305967L378.034313,128.055403L378.560696,129.329956L379.710831,129.722779L380.307055,130.881463L381.182855,131.649950L382.120673,132.333755L383.137371,132.914266L383.998329,133.699946L385.731448,133.368049L386.790237,133.915032L387.682212,134.674508L388.513802,135.507494L388.726893,137.088029L389.830090,137.581371L390.487356,138.607985L391.779224,138.887768L392.859073,139.423913L393.738564,140.193510L394.762862,140.800919L395.482434,141.749786L396.600078,142.259851L397.078341,143.466067L397.477561,144.745731L397.994662,145.889226L397.929093,147.627622L398.859987,148.322762L399.619875,149.193381L400.506512,149.936159L401.682878,150.395856L402.149960,151.553541L403.266258,152.080579L403.836137,153.132384L404.278978,154.297304L405.125821,155.081573L405.579510,156.225060L406.851773,156.626062L408.021400,157.129811L409.001826,157.808382L410.215639,158.290515L411.057677,159.099663L411.856630,159.947010L411.572715,161.693868L411.542755,163.210379L411.771161,164.501697L412.242725,165.588621L413.914527,165.726295L415.402662,166.026761L416.714073,166.478804L417.965670,166.988533L418.865782,167.771457L419.973262,168.406008L419.641518,170.092717L419.934561,171.312307L420.054441,172.646581L419.537177,174.413614L420.466783,175.165021L421.030351,176.169518L421.202257,177.433879L422.376945,178.029731L422.836853,179.099396L422.278000,180.817513L423.934584,181.117631L424.510324,182.108299L424.674338,183.350561L426.262850,183.725526L427.315493,184.436761L428.127952,185.296860L428.686616,186.307424L429.934183,186.926056L428.856724,188.858047L428.209611,190.524767L427.569349,192.167463L427.972681,193.232470L429.231566,193.845142L430.810855,194.304018L432.368379,194.791384L431.300002,196.612666L431.358193,197.852393L432.531580,198.543693L434.368211,198.929278L436.014046,199.425849L436.366068,200.537776L435.913483,202.012568L436.088014,203.193267L437.696877,203.741186L438.673775,204.578770L440.337576,205.134092L442.474458,205.511669L441.695702,207.102520L442.563390,208.016693L441.936511,209.523587L439.605331,211.670382L440.142500,212.694013L439.958074,213.986502L439.810857,215.256903L439.442064,216.598109L440.586012,217.402149L441.075549,218.440278L443.266432,218.913077L444.958922,219.574804L446.113895,220.427134L446.668190,221.478206L446.163659,222.854794L446.858736,223.862433L446.191334,225.270989L447.172746,226.198213L448.390305,227.069492L446.875715,228.689609L445.117713,230.348273L443.854211,231.852087L442.796789,233.283263L445.045337,233.896967L447.317258,234.532466L447.905969,235.579295L447.621669,236.823743L447.206279,238.089020L446.928648,239.316784L450.160104,239.833110L452.876537,240.490000L454.965045,241.298124L455.598774,242.394073L453.540768,243.963601L453.467625,245.171088L453.090091,246.423844L454.458427,247.400577L454.485756,248.590460L454.505205,249.779529L455.099163,250.889768L454.929759,252.102939L455.496901,253.223036L455.609909,254.400546L455.218036,255.632039L454.295393,256.910266L453.127311,258.197971L451.339886,259.523266L449.879270,260.797263L449.618893,261.961299L449.774857,263.092453L450.210482,264.207406L451.550215,265.277343L451.659677,266.423664L452.011505,267.560500L453.130614,268.674041L453.867791,269.812703L453.972742,270.974743L453.695142,272.143924L452.634855,273.316667L451.379394,274.476050L450.641483,275.620883L450.383708,276.760988L450.831036,277.909556L450.695903,279.050763L450.778298,280.196986L450.815730,281.343099L450.271135,282.465447L448.932749,283.542344L448.199455,284.636175L448.120625,285.761938L447.785034,286.869947L449.025590,288.093163L450.045667,289.315694L450.197894,290.476145L449.944159,291.601389L449.297636,292.684865L449.154041,293.815692L449.139734,294.961059L449.142710,296.110045L448.456066,297.172730L446.685051,298.082453L445.045778,298.989290L444.972689,300.107797L445.818882,301.369414L447.618530,302.798130L448.901231,304.166582L449.237381,305.389638L449.540353,306.613842L448.618372,307.614769L447.727598,308.612209L447.198890,309.673477L445.904863,310.571350L444.997604,311.537928L445.305540,312.764858L444.154404,313.665826L444.471221,314.900092L444.694064,316.119501L444.216753,317.171176L444.641245,318.451030L444.935315,319.706377L445.642629,321.081457L445.182616,322.147201L445.389410,323.400208L445.058936,324.504152L443.702980,325.302208L442.523235,326.139482L440.945987,326.840529L440.760038,327.968457L441.564630,329.422302L443.483767,331.265034L444.392008,332.795901L443.280505,333.641592L442.388987,334.554899L441.904007,335.608445L440.521476,336.328100L440.411363,337.514086L440.409464,338.746187L440.223981,339.912331L440.703452,341.348282L440.360922,342.462635L439.791559,343.484183L439.480705,344.613250L439.139168,345.731274L437.931401,346.471149L436.355686,347.035234L434.005583,347.230268L432.942214,347.990433L432.882652,349.213148L433.648506,350.837151L433.893886,352.228313L434.340801,353.731082L434.294462,355.001653L434.204910,356.257893L435.049052,358.005572L434.361894,358.969249L432.467578,359.284452L429.565490,359.029252L426.903316,358.866805L426.888844,360.152793L427.711498,361.924506L428.907146,363.935667L428.778224,365.200678L426.533902,365.214313L424.937992,365.590501L422.864037,365.655721L421.591780,366.193097L420.773413,367.004692L420.392891,368.092633L420.926990,369.778744L421.403497,371.448202L420.741775,372.377748L419.981011,373.239651L419.452188,374.258621L418.300801,374.846053L418.362964,376.281118L417.833174,377.306253L416.345219,377.638285L416.953135,379.496866L416.540855,380.619995L416.279488,381.862840L414.906658,382.262434L412.063767,381.505767L409.698344,381.080258L407.754709,380.956075L408.151249,382.698001L408.869102,384.726909L409.364176,386.601923L409.371796,388.093523L408.813959,389.119412L408.466014,390.330822L408.089143,391.526050L407.010301,392.107317L406.180585,392.905129L404.763749,393.166817L403.202074,393.279450L403.069211,394.708536L402.378514,395.625113L400.995699,395.879993L400.923827,397.394168L400.329812,398.412516L400.019936,399.719674L400.050053,401.383470L398.342995,401.290989L397.249830,401.811709L395.775937,401.925072L394.399916,402.124892L394.241826,403.623222L392.938379,403.888955L392.097402,404.653472L391.301380,405.468493L389.913401,405.612237L389.553074,406.923409L388.749372,407.732286L388.117601,408.746285L387.717765,410.045601L386.964018,410.930417L386.282376,411.908147L384.935694,412.063567L384.227907,413.011117L383.774049,414.290257L382.224662,414.163084L381.718051,415.385163L379.969943,414.966286L378.291320,414.611052L378.125266,416.299969L377.875840,417.901279L378.160001,420.279965L376.947359,420.569112L375.671391,420.756068L373.911720,420.219660L372.239996,419.780735L371.655010,420.952268L370.840171,421.787323L370.309508,423.069964L369.049520,423.222403L368.427987,424.382264L367.427970,424.944326L365.879382,424.602194L365.077594,425.479859L363.728386,425.438119L362.615941,425.785160L361.782209,426.612349L360.683550,426.977678L360.045038,428.165799L358.686974,428.057675L357.102818,427.509087L356.360672,428.514959L355.036456,428.420298L354.059533,428.982211L353.636807,430.642571L352.444540,430.792616L350.946107,430.304834L349.858308,430.637886L349.052696,431.562326L348.074793,432.131446L347.186178,432.899119L346.362396,433.821516L344.832828,433.161631L344.170585,434.461287L343.366965,435.459954L342.693205,436.789342L342.332791,438.914627L340.830260,438.270893L339.366570,437.684341L337.682607,436.491322L336.119216,435.552069L335.488762,437.058948L334.897111,438.716999L333.818133,439.067888L332.749551,439.447056L331.133760,438.235105L330.062675,438.573130L329.228155,439.628441L328.259540,440.299014L327.104181,440.391593L325.868942,440.213290L325.135170,441.678033L324.183666,442.456464L323.299939,443.493936L322.377852,444.430649L321.475209,445.471022L320.589914,446.615532L319.932777,448.687642L318.975887,449.667300L317.520519,448.650404L316.204710,448.144982L315.007072,448.104862L313.729630,447.690543L312.639912,448.097652L311.525919,448.400020L310.292216,448.119485L309.044374,447.732134L307.868523,447.679770L306.703828,447.668612L305.523249,447.551135L304.494467,448.300647L303.199007,447.464824L301.960227,446.903586L300.507157,444.850009L299.197409,443.589255L297.993324,442.962782L296.653070,441.212098L295.640369,441.907761L294.516328,441.715668L293.487635,442.348568L292.503206,443.472503L291.644192,446.021588L290.483806,445.603331L289.300197,444.828427L288.280258,446.014698L287.093843,445.062457L286.178998,448.106722L285.154774,449.935541L283.992078,449.523471L282.824496,448.866407L281.623055,447.089752L280.475427,446.254534L279.332582,445.161754L278.249436,446.448770L277.149105,447.678839L276.034540,449.176825L274.899118,453.242877L273.733203,454.138539L272.537130,456.389081L271.304443,458.994020L270.100243,459.241022L268.846345,460.879540L267.671393,459.973643L266.513151,458.947967L265.389636,457.503110L264.366543,454.666230L263.235665,454.019418L262.179420,452.442810L261.013560,452.505207L259.930328,451.575892L259.014187,448.946952L258.078927,446.848653L257.027933,446.100846L255.585163,448.937317L254.051908,452.209077L252.654886,454.029089L251.555852,453.384136L250.570258,451.964666L249.449970,451.591659L248.133347,452.534181L246.787779,453.565787L245.701880,452.922064L244.718174,451.717300L243.786153,450.298074L243.021233,448.062885L242.147669,446.537396L241.304745,444.946607L240.330453,444.086975L239.010989,444.897421L237.644809,445.856582L236.347126,446.439244L235.359952,445.636183L234.509539,444.292577L233.612190,443.200102L232.791719,441.848636L231.691461,441.631019L230.469759,441.865142L229.365355,441.644267L228.180814,441.704943L226.952054,441.901408L225.976935,441.213584L224.817156,441.154437L223.803768,440.609469L222.731256,440.260990L221.738058,439.667670L220.805310,438.902258L219.392038,439.576635L218.224677,439.495016L216.598914,440.702137L215.217463,441.165669L214.366101,440.151252L213.104449,440.256722L212.276040,439.208244L211.281706,438.610332L210.131056,438.413125L209.163111,437.755878L207.796086,438.075440L206.659213,437.819234L205.198555,438.313839L203.833333,438.555559L202.735398,438.169141L201.511062,438.060294L200.441413,437.601492L199.654705,436.535197L198.739392,435.759245L197.803823,435.034533L196.841423,434.371808L196.386355,432.696385L195.881951,431.155659L194.919264,430.537621L193.544040,430.711244L191.781843,431.591093L189.790998,432.850584L189.246703,431.415943L188.097175,431.095071L186.419125,431.701799L185.196233,431.480037L183.758520,431.616254L183.015209,430.556650L182.712830,428.775828L182.111066,427.520891L180.207300,428.391605L179.151653,427.867015L177.823718,427.767658L176.032109,428.371774L176.330440,425.747732L176.637926,423.165392L176.060134,421.952007L175.895763,420.148901L174.540851,420.097261L173.699615,419.297410L173.437240,417.688147L173.615791,415.493635L172.357035,415.305332L170.396448,416.050485L168.459426,416.726043L166.524384,417.362422L166.097238,416.010594L166.600038,413.487775L166.796904,411.398688L166.460171,410.009858L166.010564,408.777522L164.856057,408.412726L164.110801,407.549537L163.816726,406.157811L162.599276,405.858491L159.419487,407.802690L157.557505,408.182549L156.660259,407.453004L155.675248,406.819370L157.076347,403.580315L157.357132,401.610705L155.867574,401.552721L154.442846,401.408311L152.928112,401.340597L150.936954,401.740921L150.159086,400.886768L149.059239,400.354173L148.612044,399.172998L149.269766,396.929529L149.282976,395.339638L149.047992,394.004099L147.718777,393.702319L145.174052,394.505876L143.233500,394.718023L142.941448,393.424275L142.211284,392.529524L141.242377,391.844127L140.655514,390.824562L139.390712,390.385614L138.499337,389.621561L138.468880,388.140849L137.038945,387.820069L136.181442,387.022244L136.345584,385.408134L136.121774,384.117602L135.859465,382.867145L133.790357,383.007818L130.476180,384.059858L128.415990,384.125172L128.847797,382.333077L129.408034,380.470577L130.576221,378.198393L130.807171,376.622902L128.393742,376.902835L128.331990,375.536976L127.214975,374.895753L125.871256,374.396776L126.679998,372.470187L126.888406,370.959426L126.920510,369.576650L127.324014,367.971913L126.987880,366.844456L126.286868,365.944849L126.062432,364.756082L125.481679,363.785275L125.284923,362.589757L124.544977,361.713820L123.973175,360.739378L123.102158,359.931997L121.928634,359.285747L121.482467,358.234535L122.863227,356.209726L124.817090,353.915688L124.795476,352.684315L124.605243,351.546741L120.947045,352.150995L117.981256,352.362734L116.671297,351.732175L115.261365,351.136240L116.863643,349.113964L116.839014,347.874382L115.525563,347.225594L115.001970,346.212028L113.201947,345.755715L112.710612,344.716450L112.525432,343.547437L112.533378,342.302418L112.434822,341.107504L112.228812,339.960500L112.985394,338.439842L112.237676,337.514510L111.834435,336.454343L111.414643,335.400235L109.790835,334.781408L109.770699,333.575887L110.869377,331.987193L110.513958,330.914218L110.307901,329.791672L111.072387,328.355407L108.834643,327.890752L107.706235,327.053790L108.339980,325.669809L106.791469,324.947515L107.742868,323.483243L108.333226,322.138952L107.439567,321.216589L107.601223,320.002221L106.538004,319.114949L106.012298,318.079857L105.905495,316.937472L105.077200,315.971343L104.826430,314.862199L104.534138,313.762613L104.676237,312.566670L104.900018,311.358540L104.667088,310.251192L104.478143,309.134990L103.977383,308.079548L104.404846,306.846970L104.619610,305.661213L103.389033,304.731425L103.273237,303.602064L101.856323,302.681661L100.481240,301.738346L101.065523,300.491870L101.547176,299.269724L102.074519,298.049972L103.590155,296.713993L103.167037,295.632713L102.638949,294.559531L101.831662,293.510913L101.005874,292.455111L101.244518,291.290155L100.320235,290.231123L100.324535,289.086389L100.099452,287.959908L99.869165,286.831937L100.719296,285.636027L100.903453,284.488419L100.857897,283.355040L100.444995,282.237007L99.714442,281.125306L98.891023,280.007247L98.824679,278.862293L99.178284,277.710328L99.164372,276.566470L99.545450,275.421613L99.908962,274.281679L99.442307,273.137606L97.133188,271.955770L98.444058,270.829139L98.899787,269.693452L98.763131,268.541541L100.757305,267.479275L99.311578,266.271464L98.111411,265.057858L99.602214,263.996558L100.762544,262.930906L101.492968,261.846806L101.357938,260.699872L98.366435,259.295989L98.111430,258.112783L98.560831,256.996663L99.626248,255.951819L101.678887,255.033099L100.385316,253.732165L100.167775,252.550492L99.648505,251.323270L99.731976,250.172508L100.997802,249.196049L100.082187,247.896173L100.472015,246.792734L101.904356,245.867507L101.604962,244.655856L102.999148,243.745287L103.464106,242.675619L103.383540,241.502905L104.646691,240.597519L104.923051,239.500238L105.023162,238.365586L103.971506,236.972966L103.040502,235.590258L102.193302,234.211071L102.195048,233.022825L102.690104,231.954076L102.549974,230.725223L103.687837,229.827420L104.914519,228.965401L105.904209,228.050529L107.752270,227.389599L106.889405,225.959487L105.666792,224.405199L105.545236,223.165719L105.730928,222.015886L108.258028,221.613441L107.373223,220.125336L106.986853,218.786109L106.315108,217.338451L105.159406,215.706625L108.822435,215.769825L109.211271,214.690016L109.665725,213.634511L109.589072,212.378757L108.133918,210.583650L110.848244,210.401340L111.248755,209.325517L112.281240,208.507536L112.140166,207.210174L110.892628,205.434896L111.681520,204.512438L111.720040,203.265413L113.183068,202.648666L114.419583,201.944361L114.489809,200.712225L115.372365,199.855964L116.169044,198.964850L116.981789,198.086387L118.617186,197.620008L120.162566,197.126692L121.128849,196.354326L121.499502,195.280082L122.319900,194.440695L122.329329,193.171573L123.238212,192.383341L123.986760,191.512733L124.685697,190.617764L125.846054,189.988352L126.423892,189.032358L126.770699,187.940996L126.856967,186.690481L127.541561,185.793321L127.357910,184.365012L127.515589,183.135457L127.006670,181.476704L125.513309,179.166498L125.353882,177.684888L125.207440,176.197171L127.765284,176.503814L129.816139,176.502606L130.017102,175.255512L131.038170,174.571938L129.306233,171.948229L128.740283,170.113778L130.386320,169.862893L131.687228,169.376778L132.918208,168.850743L134.149944,168.336237L134.975742,167.521156L135.510161,166.482009L136.837550,166.064504L137.060823,164.777795L136.410893,162.773457L136.457755,161.311181L138.344158,161.363496L139.841562,161.113280L141.127239,160.699125L141.486015,159.495289L140.848882,157.409555L141.233459,156.198963L142.864114,156.100588L144.961518,156.447916L146.102848,155.943761L147.017014,155.235874L147.172846,153.812338L147.810656,152.836108L148.410966,151.819460L149.286214,151.068760L150.731983,150.889627L150.830189,149.363606L151.763628,148.674816L152.553353,147.839758L153.253990,146.909955L154.603065,146.667691L155.839695,146.318289L156.485363,145.333579L156.636368,143.794882L157.475796,143.008974L157.693249,141.514745L159.006442,141.264420L161.041448,141.870766L161.772776,140.969881L162.959310,140.610609L163.422923,139.382563L163.850510,138.096649L165.478231,138.293590L166.586966,137.858597L167.689028,137.422374L168.159328,136.172369L168.701848,135.002337L169.419976,134.053634L170.019650,132.937438L170.761949,132.004940L171.511944,131.076099L172.168371,130.008212L173.687040,130.161843L174.503643,129.320591L175.024542,128.039372L175.731987,127.018343L176.614016,126.250565L178.130080,126.451406L179.118788,125.855914L180.613037,126.058976L181.537603,125.373876L183.030729,125.610050L184.309300,125.517259L185.328578,125.005549L185.798663,123.563628L185.618614,120.975355L186.064123,119.420341L186.446370,117.723031L187.247090,116.745748L187.924979,115.530852L188.905044,114.857651L190.235218,114.842375L191.255807,114.249981L192.668372,114.420561L194.204677,114.859400L195.320437,114.482750L197.079485,115.428185L198.557624,115.837459L200.091189,116.394824L201.851184,117.475603L203.308388,117.947003L204.807518,118.544719L205.509108,117.370721L205.209444,113.859003L204.923224,110.267822L205.336189,108.235060L205.630355,105.853767L206.568806,105.000162L207.749666,104.744620L208.967088,104.590497L210.467895,105.192908L211.735438,105.210136L213.270207,105.976456L215.230377,107.979650L216.996415,109.529183L218.784379,111.224611L219.827113,110.791265L219.893074,107.383634L220.112067,104.315180L220.668662,102.196675L221.588345,101.177674L222.759806,100.965596L224.061863,101.205283L225.502985,101.959340L227.180753,103.615827L228.372171,103.585821L229.494692,103.310281L230.440745,102.352112L231.470435,101.690013L232.619583,101.495512L233.705896,101.041026L234.984479,101.409538L235.866285,100.042684L237.005291,99.791803L238.341218,100.478164L239.253216,99.140783L240.340165,98.617547L241.702768,99.525781L242.745983,98.771800L243.979937,99.058169L245.062461,98.490326L246.058590,97.361549L247.158853,96.818832L248.266805,96.295291L249.553765,96.991464L250.614394,96.111245L251.783488,95.993584L253.058461,96.739708L254.156391,96.066784L255.311316,95.847986L256.461781,95.574468L257.512642,94.250650L258.655182,93.767180L259.910590,94.574124L261.094271,94.604424L262.290115,94.829542L263.512786,95.536661L264.667608,95.241072L265.848692,95.402395L267.028350,95.596447L268.174780,94.998710L269.320802,94.158412L270.511380,94.687689L271.701495,95.587264L272.905342,98.652100L274.065036,100.955249L275.196305,101.828068L276.325157,101.532943Z" />
<line x1="50" y1="550" x2="100" y2="550" fill="none" stroke="black" stroke-width="1.0" stroke-linejoin="round" stroke-miterlimit="10" />
<text x="125" y="553" style="text-anchor:start;fill:black">GC-content</text>
</g>
<g style="fill:pink;stroke:black">
<a href="" title="CP005934:1 [434500-457099];"><path  d="M502.154084,238.930315L502.748990,242.900194L503.274522,246.879851L503.730519,250.868074L504.116842,254.863647L484.193638,256.614634L484.193638,256.614634L483.840908,252.966502L483.424563,249.325081L482.944730,245.691482L482.401555,242.066810Z" />
</a><a href="" title="CP005934:2 [916000-933599];"><path  d="M312.113148,501.985934L308.146045,502.599077L304.168845,503.142891L300.182760,503.617210L297.992954,483.737452L297.992954,483.737452L301.632423,483.304378L305.263780,482.807853L308.885918,482.248027Z" />
</a><a href="" title="CP005934:3 [961000-989099];"><path  d="M278.609969,504.971668L274.595861,504.999645L270.581875,504.957562L266.569235,504.845431L262.559163,504.663287L258.552881,504.411186L259.983065,484.462387L259.983065,484.462387L263.640975,484.692567L267.302345,484.858872L270.966060,484.961252L274.631003,484.999676L278.296059,484.974132Z" />
</a><a href="" title="CP005934:4 [996000-1018099];"><path  d="M252.461677,503.893040L248.470375,503.464831L244.487154,502.967029L240.513228,502.399786L236.549807,501.763275L239.893302,482.044729L239.893302,482.044729L243.512078,482.625891L247.140445,483.143809L250.777299,483.598324L254.421531,483.989298Z" />
</a><a href="" title="CP005934:5 [1245500-1265099];"><path  d="M93.454757,416.213755L91.017887,413.023847L88.637060,409.791894L86.313002,406.518883L102.720567,395.082458L102.720567,395.082458L104.842533,398.070860L107.016332,401.021773L109.241300,403.934298Z" />
</a><a href="" title="CP005934:6 [1293500-1315599];"><path  d="M73.704510,386.266013L71.793309,382.735976L69.944006,379.173122L68.157165,375.578535L66.433331,371.953311L84.569563,363.522589L84.569563,363.522589L86.143499,366.832576L87.774962,370.114589L89.463456,373.367631L91.208466,376.590708Z" />
</a><a href="" title="CP005934:7 [1634000-1653099];"><path  d="M85.512524,144.637059L87.816531,141.349901L90.177556,138.103455L92.594879,134.898708L108.456194,147.081429L108.456194,147.081429L106.249073,150.007502L104.093354,152.971649L101.989696,155.972967Z" />
</a></g>
<text x="275" y="280" style="text-anchor:middle" font-size="25" font-weight="bold">CP005934</text>
<path  style="fill:pink;stroke:black" d="M350,550L375,550L375,565L350,565Z" />
<text x="405" y="565" style="text-anchor:start;fill:black">Selected loci;</text>
</svg>