<svg xmlns="http://www.w3.org/2000/svg" viewbox="0 0 550 650">
<circle cx="275" cy="275" r="240" fill="none" stroke="black" stroke-width="1.0" />
<line x1="275" y1="15" x2="275" y2="55" fill="none" stroke="grey" stroke-width="1.0" stroke-linejoin="round" stroke-miterlimit="10" />
<line x1="495" y1="275" x2="535" y2="275" fill="none" stroke="grey" stroke-width="1.0" stroke-linejoin="round" stroke-miterlimit="10" />
<line x1="275" y1="495" x2="275" y2="535" fill="none" stroke="grey" stroke-width="1.0" stroke-linejoin="round" stroke-miterlimit="10" />
<line x1="15" y1="275" x2="55" y2="275" fill="none" stroke="grey" stroke-width="1.0" stroke-linejoin="round" stroke-miterlimit="10" />
<text x="275" y="10" style="text-anchor:middle" font-size="15">Candidatus Methanomassiliicoccus intestinalis isolate</text><text x="285" y="25" style="text-anchor:start">1,931,651</text><text x="525" y="265" style="text-anchor:start">0.48 Mbp</text><text x="285" y="530" style="text-anchor:start">0.96 Mbp</text><text x="-200" y="25" style="text-anchor:end" transform="rotate(-90)">1.44 Mbp</text><circle cx="351.696739" cy="47.584938" r="2.500000" fill="grey" stroke="black" stroke-width="1.0" />
<circle cx="420.349947" cy="84.019915" r="2.500000" fill="grey" stroke="black" stroke-width="1.0" />
<circle cx="473.759654" cy="140.483830" r="2.500000" fill="grey" stroke="black" stroke-width="1.0" />
<circle cx="506.324544" cy="211.055059" r="2.500000" fill="grey" stroke="black" stroke-width="1.0" />
<circle cx="514.629391" cy="288.332482" r="2.500000" fill="grey" stroke="black" stroke-width="1.0" />
<circle cx="497.803228" cy="364.211667" r="2.500000" fill="grey" stroke="black" stroke-width="1.0" />
<circle cx="457.610691" cy="430.734824" r="2.500000" fill="grey" stroke="black" stroke-width="1.0" />
<circle cx="398.266952" cy="480.925371" r="2.500000" fill="grey" stroke="black" stroke-width="1.0" />
<circle cx="325.995654" cy="509.519601" r="2.500000" fill="grey" stroke="black" stroke-width="1.0" />
<circle cx="248.376213" cy="513.518708" r="3.000000" fill="black" stroke="black" stroke-width="1.0" />
<circle cx="173.548928" cy="492.503287" r="2.500000" fill="grey" stroke="black" stroke-width="1.0" />
<circle cx="109.361272" cy="448.677321" r="2.500000" fill="grey" stroke="black" stroke-width="1.0" />
<circle cx="62.544893" cy="386.637035" r="2.500000" fill="grey" stroke="black" stroke-width="1.0" />
<circle cx="38.009634" cy="312.888872" r="2.500000" fill="grey" stroke="black" stroke-width="1.0" />
<circle cx="38.328619" cy="235.167133" r="2.500000" fill="grey" stroke="black" stroke-width="1.0" />
<circle cx="63.468393" cy="161.622845" r="2.500000" fill="grey" stroke="black" stroke-width="1.0" />
<circle cx="110.792436" cy="99.968929" r="2.500000" fill="grey" stroke="black" stroke-width="1.0" />
<circle cx="175.337663" cy="56.671306" r="2.500000" fill="grey" stroke="black" stroke-width="1.0" />
<circle cx="250.334927" cy="36.270793" r="2.500000" fill="grey" stroke="black" stroke-width="1.0" />

<circle cx="275" cy="275" r="185" fill="white" stroke="grey" stroke-width="0.5" />
<circle cx="275" cy="275" r="170" fill="none" stroke="black" stroke-width="0.5" />
<circle cx="275" cy="275" r="170" fill="aliceblue" stroke="black" stroke-width="0.5" />
<circle cx="275" cy="275" r="163" fill="white" stroke="none" stroke-width="0.5" />
<circle cx="275" cy="275" r="140" fill="none" stroke="black" stroke-width="0.5" />
<circle cx="275" cy="275" r="140" fill="aliceblue" stroke="black" stroke-width="0.5" />
<circle cx="275" cy="275" r="133" fill="white" stroke="none" stroke-width="0.5" />
<circle cx="275" cy="275" r="110" fill="none" stroke="black" stroke-width="0.5" />
<circle cx="275" cy="275" r="110" fill="white" stroke="black" stroke-width="0.5" />
<circle cx="275" cy="275" r="109" fill="aliceblue" stroke="none" stroke-width="0.5" />
<circle cx="275" cy="275" r="80" fill="none" stroke="black" stroke-width="0.5" />

<g style="fill:none;stroke-linejoin:round;stroke-miterlimit:10">
<path style="stroke:blue;stroke-width:1.0" d="M276.985259,122.406584L278.030334,119.736578L279.140731,115.901923L280.179848,115.803210L281.097900,118.848804L281.951377,122.451915L282.901833,123.302686L283.900433,123.154167L284.979374,121.813772L286.154781,119.383779L287.102020,120.289063L288.509278,115.640175L289.385165,117.489228L290.901364,112.561997L290.906803,122.729370L291.867934,123.098337L292.820035,123.515045L294.617451,117.095725L295.105440,121.344725L295.830186,123.475032L296.697308,124.433829L297.633813,124.860338L298.500029,125.709774L299.649995,124.773325L301.274958,121.141243L302.529455,119.883512L303.518365,120.172358L304.684828,119.523984L305.524335,120.586979L305.875651,123.980661L306.718843,124.840882L307.745293,124.819869L309.010361,123.751874L309.834630,124.662319L311.187843,123.316362L311.554713,126.077333L313.017895,124.356308L313.406276,126.885334L313.771101,129.383968L314.634270,129.944176L315.782850,129.470841L317.373680,127.494084L318.620048,126.795467L319.079187,128.754790L320.956568,126.040196L321.926838,126.335379L322.960567,126.434432L323.940187,126.706717L325.766125,124.471522L324.738689,130.626552L325.229370,132.225129L326.607752,131.300158L328.477409,129.085259L329.878980,128.223441L330.834222,128.579484L330.039511,133.436735L330.822712,134.142394L331.875927,134.166687L333.211729,133.516872L334.443593,133.152419L335.817912,132.481068L335.638861,135.423000L336.320884,136.328589L338.089656,134.801684L341.112221,130.602540L339.678569,136.127832L342.351001,132.814069L342.214091,135.456868L344.265797,133.558288L344.850703,134.682375L344.983821,136.677926L344.523708,139.778337L345.236167,140.550767L347.117391,139.111077L347.973513,139.632031L348.709404,140.371167L348.523501,142.760347L349.296545,143.393222L350.329641,143.567892L351.314045,143.835621L353.119898,142.719131L355.113630,141.336750L354.394417,144.469991L355.407530,144.720884L357.430464,143.367005L357.291873,145.469343L357.962969,146.270931L359.393793,145.902985L360.241796,146.439727L360.884620,147.282084L361.255723,148.515032L362.897328,147.892195L364.925646,146.750610L363.702033,150.230377L364.950575,150.201358L364.750841,152.171003L365.364818,153.004776L366.764667,152.785303L366.992631,154.127442L367.688168,154.843633L369.741253,153.820437L372.065564,152.498319L372.786220,153.224796L372.947309,154.636526L373.031254,156.121491L374.608640,155.797074L374.837862,157.090233L375.338954,158.049754L377.132421,157.514654L377.992629,158.070214L380.086924,157.245894L380.866653,157.914432L381.586301,158.649075L381.004792,160.784593L380.515080,162.785244L381.430817,163.276735L380.090640,166.110847L380.665531,166.931060L382.649026,166.325842L383.484668,166.897966L383.729873,168.054270L385.559175,167.661085L384.215587,170.337114L384.564853,171.361318L386.745160,170.667940L389.159113,169.795813L394.935043,165.907252L399.229399,163.469280L398.243437,165.794058L391.762874,172.884749L390.701216,175.134116L391.418321,175.829392L393.587876,175.305235L391.798570,178.099282L392.560232,178.751658L395.689667,177.494040L399.989951,175.356664L401.256827,175.683164L400.222720,177.808641L397.397797,181.270738L398.497491,181.696865L398.169536,183.197142L399.965474,183.117066L398.602845,185.351890L399.726410,185.769429L400.120871,186.712120L398.990665,188.712353L399.296610,189.694275L399.681487,190.618011L400.326495,191.365040L400.650820,192.324967L401.149674,193.167698L401.912366,193.841088L402.423083,194.677615L404.685164,194.425794L404.858997,195.484003L406.582125,195.601197L405.085785,197.654027L405.637951,198.471618L406.486183,199.119298L410.155275,198.169581L408.374554,200.325691L406.372277,202.565225L408.243936,202.659564L411.620484,201.973107L415.728203,200.950455L410.519162,204.813286L411.095859,205.633711L410.725672,206.931072L411.844202,207.480656L416.872169,206.143825L416.963394,207.237063L422.677923,205.685341L423.155273,206.633885L421.270843,208.654203L420.510148,210.137270L415.122403,213.628470L415.803916,214.418609L418.235815,214.473528L423.870188,213.230933L424.268744,214.200763L421.334643,216.502864L418.890028,218.562958L415.664127,220.881428L417.097087,221.388730L417.232127,222.392210L420.443068,222.277628L426.723724,221.115050L430.935488,220.759011L428.541527,222.708942L423.311963,225.564343L423.692174,226.510090L424.381180,227.358287L423.325323,228.755921L424.819054,229.357452L424.330988,230.565696L422.041776,232.286143L423.106037,233.019841L426.133778,233.221892L422.956987,235.134298L421.337681,236.589948L422.348444,237.347532L424.995295,237.708975L423.048583,239.213980L427.082624,239.284432L427.550545,240.220113L427.773729,241.213227L427.493652,242.314257L427.614131,243.325447L428.407841,244.200311L430.670429,244.798229L435.269314,244.986524L434.176281,246.261764L429.649725,248.116669L429.109989,249.242201L431.017878,249.965529L432.559571,250.768465L432.658467,251.802128L433.195667,252.773518L441.545151,252.704271L447.744002,253.017367L455.681357,253.200782L458.294683,254.094335L451.386046,256.043861L439.408027,258.412304L433.742482,260.026464L429.468001,261.442885L428.408912,262.540968L427.415639,263.619204L426.265657,264.694153L425.275697,265.743336L429.666381,266.482490L435.872470,267.190089L441.119736,268.018263L431.529083,269.441177L430.636482,270.486428L432.472038,271.458313L430.870386,272.508731L428.696439,273.543516L425.757683,274.552161L426.634302,275.536019L426.284018,276.519009L426.191939,277.501842L426.092855,278.483527L425.878021,279.460795L426.431188,280.463351L426.007544,281.431971L426.033029,282.417672L426.962712,283.454642L428.595279,284.548157L428.254346,285.528232L425.163671,286.297864L425.335648,287.294844L431.309430,288.807629L433.115764,290.004452L427.280162,290.450893L425.424843,291.251977L427.624854,292.494880L424.455754,293.117426L424.577043,294.120296L429.536819,295.776933L437.544169,297.930997L433.142225,298.360240L430.830057,299.055580L428.989738,299.798188L429.697040,300.945669L434.924079,302.893181L432.310871,303.493130L426.072562,303.379467L424.766627,304.144081L423.857786,304.973579L423.011971,305.806529L423.570871,306.932637L422.003845,307.597761L427.582432,309.877755L423.626382,309.992409L421.870250,310.588937L421.791881,311.582585L421.202274,312.447493L421.910954,313.649156L421.252318,314.494937L420.268755,315.245093L420.171921,316.237018L419.891718,317.177975L419.512867,318.089437L422.176739,319.928348L422.719316,321.146627L420.423461,321.469924L418.416883,321.859150L418.761558,323.009070L420.721425,324.719589L418.286026,324.931635L417.397317,325.663177L417.040083,326.579520L416.308833,327.356965L415.982470,328.281650L415.925186,329.310334L415.893021,330.353311L416.698257,331.736512L416.322051,332.655447L415.666285,333.458186L415.197299,334.335772L415.370377,335.488765L414.896241,336.366594L413.440631,336.805093L413.516232,337.922725L411.859102,338.247215L411.632474,339.224447L412.951251,340.943450L416.853828,343.946214L413.291680,343.330606L410.887009,343.245846L412.981366,345.425435L418.632488,349.491518L416.718652,349.672862L412.961238,348.843692L408.698433,347.684914L407.528606,348.169902L407.059340,349.035863L406.441183,349.817286L408.467933,352.124812L407.077425,352.471784L406.221382,353.121441L406.000328,354.148621L405.145705,354.792578L406.181172,356.606331L406.480970,357.984036L406.752280,359.358778L403.374991,358.378821L401.507077,358.340769L401.361815,359.428977L401.333908,360.604308L400.513247,361.244951L400.985460,362.781442L400.777721,363.857734L400.520075,364.905504L398.314710,364.545373L396.080852,364.132019L396.209364,365.448319L397.215853,367.443237L396.491950,368.144404L396.736693,369.595823L397.309890,371.323862L398.942276,373.922571L398.006372,374.492423L395.389202,373.677999L394.153181,373.967779L393.277440,374.547768L392.130807,374.891663L391.648241,375.798227L390.481282,376.109507L389.518863,376.590533L388.505371,377.018643L387.891097,377.802066L387.707019,378.983686L384.978313,377.798657L384.569280,378.760096L386.342979,381.822206L384.324844,381.260456L383.342954,381.685523L381.673073,381.416875L382.405812,383.551087L380.501984,383.023564L381.712192,385.694268L380.121369,385.473474L378.799197,385.514832L377.295572,385.343715L377.243708,386.737034L375.867177,386.682920L375.675898,387.939611L376.211742,390.038732L375.578935,390.830292L377.693648,394.831542L373.594563,391.574755L372.438476,391.739694L370.816009,391.325855L370.008838,391.887188L369.124272,392.350499L368.425621,393.044689L368.705948,394.994849L368.334504,396.135541L366.766954,395.717336L365.263524,395.356835L366.873983,399.179103L365.419397,398.890667L363.212792,397.533344L363.119858,399.098971L362.351792,399.728319L360.990634,399.500681L360.048299,399.865739L359.398777,400.661429L358.374466,400.898207L357.677182,401.627093L360.406306,407.684649L358.105894,405.975207L358.867464,409.095916L355.796704,406.075122L353.921755,404.918001L354.693253,408.132213L353.086310,407.394582L352.707615,408.733144L351.556004,408.746716L349.495907,407.134056L348.194948,406.823831L347.526052,407.645121L347.704487,410.051333L346.291040,409.515127L348.038076,415.005241L347.764697,416.721921L343.267341,410.118718L342.207222,410.198544L342.898219,413.847427L343.829231,418.102835L342.450551,417.604060L340.172040,415.138295L338.337687,413.544043L336.704659,412.327612L337.363323,416.244243L337.958593,420.140572L338.995451,425.199839L334.456955,417.104392L333.115926,416.477135L331.344747,414.745113L330.498943,415.271712L331.301732,420.052056L331.441134,423.263370L328.859479,419.298052L326.977203,417.069482L326.259299,417.983201L325.167038,417.855168L325.157683,420.856874L324.468080,421.953426L324.487702,425.237145L324.018583,427.136566L321.811164,423.590246L320.637848,423.223626L318.778874,420.546063L317.885646,421.013487L317.970460,424.902095L316.008697,421.653551L314.642878,420.410037L313.843770,421.220812L315.171687,430.283648L314.234552,430.835248L313.666028,432.908971L312.458624,432.403678L309.499679,424.275160L308.069085,422.450886L307.362750,423.829148L306.326559,423.717023L305.857643,426.366502L304.927159,426.842478L303.453521,424.484885L302.181418,423.038201L301.238241,423.327534L300.210903,423.131711L299.337562,423.848268L298.643518,425.755607L299.290536,436.748630L299.828395,447.985489L298.715589,448.238823L298.330056,454.084887L296.660239,450.154914L293.832540,435.874499L292.075083,429.562267L290.805950,427.136009L289.863852,427.728331L288.903698,428.193422L288.570759,436.165658L287.496940,435.927630L287.011915,443.910393L284.925834,428.701487L283.923530,428.725002L282.790791,426.208184L281.875148,427.771164L281.051457,432.237662L280.079287,433.864509L279.140016,437.598710L277.996201,433.087383L276.927368,429.862391L275.922465,430.307684L274.905682,441.645841L273.728234,454.841248L272.644931,448.449625L271.555369,446.500942L270.511080,443.792716L269.467350,442.121246L268.451410,440.286052L267.380588,440.146729L266.479580,436.804814L265.712697,431.921188L264.838844,429.623638L264.061819,426.389523L263.046643,426.702869L262.124042,425.871478L260.961778,427.754570L259.415215,433.277445L258.284762,434.135363L258.211606,425.407043L256.865481,428.407825L254.989140,435.327044L253.524693,438.403424L252.771945,436.016038L251.820099,435.210269L250.956180,433.880973L250.274296,431.498307L249.061497,432.519731L247.788857,433.797548L246.889308,432.870647L245.677085,433.689926L244.472604,434.397819L244.628923,428.180662L244.002800,426.176558L243.540884,423.512628L241.640631,427.580344L239.792714,431.156834L239.593135,427.413848L239.522628,423.332607L238.664827,422.666179L237.401477,423.626338L236.388046,423.560753L235.772329,421.995183L234.668085,422.280258L233.698377,422.059044L232.693514,421.957628L231.371569,422.922980L231.095278,420.367698L230.048016,420.410589L229.024768,420.362441L226.507818,424.921205L226.592345,421.400393L226.391166,418.862102L225.019531,419.808298L223.030975,422.452369L222.701004,420.365152L222.701518,417.447705L221.721441,417.249965L221.049200,416.240543L219.281151,418.070047L217.473270,419.917151L214.008274,425.778113L215.477422,419.436093L215.936691,415.716007L215.552447,414.088926L214.439105,414.181325L213.580886,413.680677L212.543869,413.580246L211.162338,414.220705L211.000881,412.209765L209.626495,412.808963L207.287576,415.373869L206.251393,415.184100L205.871323,413.669851L206.933295,409.343570L206.068368,408.883161L204.646006,409.488722L203.940040,408.713089L201.241404,411.638585L201.434044,409.185958L200.001587,409.712337L197.251871,412.538398L198.297816,408.650970L196.366784,409.974134L195.683352,409.133393L195.915125,406.777172L195.569198,405.423034L193.283030,407.232727L192.976111,405.818605L191.201783,406.736440L187.387661,410.773933L190.251519,404.479054L191.357481,400.992938L190.898765,399.912695L189.840044,399.725991L188.590032,399.805454L187.342658,399.863568L185.088523,401.318957L182.428756,403.281028L181.815680,402.376065L181.051822,401.682468L179.848529,401.575641L179.103214,400.854079L179.014133,399.285407L179.134041,397.474797L177.950846,397.338248L177.771049,395.940552L177.484555,394.693936L177.588739,392.990163L175.719614,393.673138L171.371464,397.245833L172.203242,394.677420L174.929431,389.981673L173.975426,389.564240L174.348788,387.654931L173.328246,387.317908L172.975995,386.243829L170.967112,386.963245L171.239805,385.223014L169.343930,385.784013L168.482298,385.242500L168.094328,384.213209L167.894277,383.003000L167.774363,381.726217L167.086222,381.022581L167.058325,379.678701L165.917131,379.416988L165.086219,378.850592L164.639615,377.921965L164.080748,377.102103L162.784072,376.955118L162.273477,376.088166L159.965641,376.815380L155.313647,379.552153L154.549740,378.845711L157.096368,375.320437L156.977735,374.104986L156.835559,372.920716L155.413720,372.793775L153.392884,373.133147L155.903712,369.834332L156.470289,368.129630L156.219544,367.083221L154.611895,367.081931L146.641514,371.861253L142.949243,373.305822L146.937992,369.047774L149.883141,365.637880L152.406631,362.599416L151.218253,362.237766L147.789927,363.420967L147.733839,362.237530L145.165952,362.761733L147.082793,360.258936L148.621978,358.050764L148.062939,357.240742L146.882819,356.826955L143.863059,357.559478L146.196164,354.925335L146.110505,353.821793L143.842547,354.041031L142.265955,353.818626L140.773689,353.528163L141.150191,352.143507L141.607259,350.728339L142.681075,348.984663L141.587708,348.460863L138.626103,348.939554L125.727086,354.681014L109.473950,361.977953L102.315842,364.310562L104.191527,361.936754L131.031933,347.100400L139.791539,341.616863L139.763720,340.540699L138.915042,339.862185L137.340543,339.517030L135.839357,339.119769L137.958354,337.065836L137.325612,336.276206L137.162753,335.277443L136.683388,334.418199L136.276972,333.526748L136.181163,332.506233L132.146779,333.091591L131.332202,332.336511L133.570493,330.379362L133.687665,329.275898L131.104485,329.196511L130.025233,328.528691L128.346471,328.066998L125.963322,327.835396L121.847688,328.175453L123.231514,326.591102L125.831722,324.627028L123.190234,324.411272L127.740220,321.873071L130.065319,320.096717L129.479991,319.242590L127.115293,318.912598L121.714178,319.433344L118.212514,319.344759L125.631896,316.198774L126.749069,314.854659L128.242774,313.431146L128.030311,312.466828L124.890925,312.228857L120.780834,312.184924L109.477014,313.772826L110.793968,312.339177L118.966560,309.414791L122.773794,307.538055L126.301008,305.773951L126.220804,304.782554L126.207687,303.779717L124.433008,303.108081L123.579104,302.249312L124.010324,301.158807L122.884333,300.335725L124.435633,299.071753L126.160361,297.803999L125.894906,296.852871L124.129151,296.110027L123.864437,295.145501L121.343227,294.465055L122.178971,293.349869L122.967313,292.252669L122.279132,291.325170L122.033687,290.345598L119.722805,289.557754L119.230997,288.582208L120.370232,287.469840L121.930609,286.342247L121.002648,285.404147L117.461497,284.614282L114.423536,283.751562L111.155615,282.860973L105.210816,282.039417L105.017272,280.940000L106.248751,279.798047L105.445919,278.717135L107.735307,277.578420L104.299666,276.520721L107.427720,275.402672L107.498314,274.312814L108.320082,273.231786L118.159952,272.315648L119.548197,271.327692L118.382207,270.280529L118.165082,269.252554L121.721925,268.384157L117.540806,267.177127L120.173391,266.297866L123.230567,265.478864L124.260127,264.558538L120.114775,263.258485L123.496390,262.523063L124.032796,261.577915L124.441724,260.626487L124.186729,259.611454L125.477782,258.759677L124.806942,257.697492L125.206629,256.755368L124.110156,255.624838L125.407394,254.801348L125.673221,253.847200L124.891348,252.739383L121.811987,251.263244L124.710338,250.710139L125.439980,249.828620L126.745711,249.055488L126.808264,248.071702L126.169211,246.954190L126.644796,246.043171L124.040471,244.514051L118.130129,242.256920L118.699971,241.313293L125.275857,241.709845L126.560888,240.980669L127.601717,240.208420L127.606505,239.195687L128.507301,238.403648L127.320854,237.084893L128.577533,236.390479L127.745077,235.144621L128.723381,234.386276L128.651060,233.338856L129.743305,232.626330L130.592598,231.852741L130.564341,230.818778L130.763538,229.851521L128.698320,228.157905L131.032711,227.870557L130.972734,226.811312L127.929884,224.727029L124.233336,222.365561L132.899385,224.351500L133.462577,223.512063L133.916010,222.635250L134.071731,221.647398L132.378761,219.943038L135.098507,219.944549L134.730153,218.743025L135.307155,217.916714L134.835217,216.656908L133.981172,215.222129L135.344523,214.725290L132.673618,212.471051L134.224207,212.056547L137.877284,212.616380L138.339427,211.750372L138.952091,210.956021L138.895833,209.844561L136.253972,207.466909L136.355817,206.397285L138.493445,206.345949L139.910354,205.953813L138.575227,204.148297L136.975238,202.173358L137.593045,201.352619L136.738245,199.732540L137.253230,198.847065L138.743426,198.509379L137.635794,196.708022L138.543116,196.044664L140.109301,195.775111L143.431315,196.570613L143.913404,195.697656L144.386857,194.818795L147.528558,195.601061L147.003014,194.113247L141.654724,189.514498L136.331151,184.823424L141.952038,187.241869L145.050731,188.067328L149.079124,189.571234L150.488836,189.339536L147.773309,186.246405L142.712867,181.430977L137.574117,176.448724L139.016676,176.137338L139.278864,174.971904L150.296506,181.834063L154.738648,183.927773L155.148114,183.004925L151.976145,179.291943L153.336483,179.073244L156.851033,180.591435L155.605907,178.317175L152.424547,174.413651L152.529243,173.159138L156.829136,175.427290L158.883148,175.859161L158.471477,174.189637L157.035669,171.598118L155.419975,168.798323L159.460361,171.034335L163.767726,173.592957L164.228492,172.685566L165.076496,172.135605L165.835920,171.506030L165.963571,170.271772L166.465778,169.388135L167.301558,168.828658L168.553512,168.688549L168.450363,167.191894L166.716309,164.002273L167.237015,163.088669L164.683832,158.935392L169.476128,162.521040L172.016285,163.787456L173.596038,164.054305L173.818073,162.840661L173.106430,160.563685L172.048575,157.849903L173.297694,157.741618L174.044056,157.060739L176.689899,158.627682L177.045200,157.506204L177.693680,156.728093L179.668615,157.579884L180.450595,156.982278L181.295927,156.465284L180.713234,154.120008L181.942526,154.082109L184.133411,155.326140L184.610176,154.332124L185.563561,153.971925L185.499915,152.222667L186.741235,152.255924L186.194072,149.784340L187.943061,150.542412L188.067359,148.982538L185.741464,143.792894L188.983546,146.772821L189.565636,145.832076L190.495685,145.413879L192.116010,146.073209L192.466804,144.764019L194.777907,146.570587L196.245533,147.075469L196.661119,145.876389L197.818025,145.896795L198.598456,145.293731L198.848160,143.772900L198.530603,141.228532L198.041170,138.316146L199.009826,137.958754L199.496142,136.722273L197.453418,130.758195L197.353592,128.292087L199.700782,130.460417L203.262790,135.083892L205.697816,137.639407L206.663577,137.333901L208.711141,139.248413L209.895635,139.444610L210.859706,139.195113L210.998520,137.174193L211.259578,135.365473L211.495770,133.452475L212.630185,133.523777L215.215813,136.962936L215.046321,134.064576L214.561987,130.320266L213.149104,124.186976L213.688722,122.687775L215.121119,123.406677L215.633846,121.795236L218.783771,127.074958L218.905590,124.453440L221.085358,127.375273L224.023436,132.550989L225.198402,132.927555L225.288524,130.173418L226.441529,130.477473L227.721744,131.195763L227.359377,126.852115L227.158690,122.838507L227.735539,121.183038L229.035173,121.871527L229.836273,120.906867L231.893764,124.301387L233.845045,127.500649L235.085977,128.267254L236.082913,128.167377L236.514628,125.885790L237.692322,126.462029L238.624289,126.078644L239.494734,125.427564L240.608344,125.806306L241.279383,124.243328L242.088436,123.232137L243.698350,125.981918L244.540439,125.151707L245.504823,124.900274L246.551926,125.080523L246.949803,121.740466L248.334618,123.757359L249.322814,123.609074L250.096745,122.147198L251.149641,122.359562L251.906079,120.622926L253.219795,122.637090L253.896062,120.185012L255.037202,121.080712L256.258462,122.737574L257.077005,121.138969L257.985512,120.181133L258.999728,120.138452L259.717711,117.042249L260.735448,116.833352L261.939810,118.837754L262.803901,116.783037L263.822106,116.546472L264.966179,118.242847L266.039739,119.112886L267.053125,119.039806L268.124210,120.258986L269.035936,117.709951L269.919096,113.209780L271.048818,116.277123L272.092218,116.839533L273.202604,123.678389L274.181002,122.542408L275.174488,121.074640L276.182967,120.146017Z" />
<line x1="50" y1="575" x2="100" y2="575" fill="none" stroke="blue" stroke-width="1.0" stroke-linejoin="round" stroke-miterlimit="10" />
<text x="125" y="578" style="text-anchor:start;fill:black">n1_4mer:GRV/n1_4mer:RV</text>
<path style="stroke:green;stroke-width:1.0" d="M276.210961,181.921598L277.011817,171.921748L277.680743,171.998618L278.328179,172.712150L278.911942,174.825431L279.329968,179.978782L279.774934,183.332072L280.261318,185.239291L281.023806,182.532867L281.739773,180.975926L282.408007,180.296830L283.280034,177.326034L283.976923,176.706928L284.607770,176.853268L284.637819,182.740303L285.415089,181.208474L286.104698,180.600928L286.893312,179.268661L287.282383,181.132227L288.018101,180.302461L288.177419,183.556696L288.772021,183.644356L289.492524,182.932360L290.119098,182.858322L292.010025,175.394083L293.411424,171.259643L293.870845,172.549231L295.417559,168.061843L294.427024,176.724788L294.840468,177.956075L294.726745,181.612276L294.906768,183.701349L294.642271,187.648480L295.112748,188.198335L296.875366,183.308019L297.698605,182.526650L298.330869,182.552791L298.911164,182.786058L298.811877,185.567641L298.199924,190.091557L298.945800,189.552020L300.426736,186.487649L300.626194,187.931823L301.529951,186.979361L301.709605,188.425704L300.505113,194.199585L302.726455,189.112849L303.692737,188.058357L305.817379,183.622271L304.581950,189.134286L304.372339,191.510362L305.209230,190.883536L306.178498,189.928516L306.227707,191.479945L307.642776,189.397085L309.111538,187.264107L310.167433,186.261917L309.825559,188.766701L309.677712,190.716106L311.816269,187.146987L313.481851,184.822746L312.144240,189.502325L312.634859,189.892306L311.498500,193.892754L314.563293,188.588760L314.390926,190.423248L313.985359,192.697295L312.699752,196.731569L317.242714,188.739796L316.821692,190.987667L316.877718,192.229257L316.053411,195.152267L317.296722,194.033710L316.798006,196.241106L315.942954,199.049641L317.391056,197.573537L319.209406,195.484792L319.113815,196.858049L322.411739,192.277917L321.831188,194.509132L321.541194,196.191530L320.149983,199.670828L320.079740,200.885735L324.332536,195.069685L325.815196,193.853344L326.577735,193.814609L327.509829,193.523390L328.032018,193.877030L327.607416,195.658362L326.882243,197.846581L326.697950,199.190380L325.806762,201.528643L329.132766,197.797394L327.810495,200.715957L328.218165,201.164400L326.831100,204.066270L327.741387,203.797540L329.348017,202.617823L330.414867,202.188334L331.537255,201.707892L332.556878,201.381411L336.782481,197.027365L335.102035,200.153691L335.110561,201.132570L336.261546,200.710619L336.137661,201.835784L337.002574,201.774183L338.451342,201.044176L337.976994,202.556070L340.344988,200.812405L342.946142,198.863628L346.501092,195.921785L345.804111,197.709356L342.412455,202.366105L339.551538,206.349764L340.107285,206.655148L340.450670,207.183608L341.441899,207.046850L341.578993,207.786982L345.858999,204.390926L341.279234,209.808339L343.331913,208.658393L339.220987,213.456094L339.548371,213.942937L342.262377,212.199765L343.889975,211.513927L348.234028,208.386431L351.814487,206.037459L350.816368,207.819158L345.976177,212.927614L344.291725,215.191818L345.329821,215.089746L352.224226,210.078935L351.215837,211.768323L350.767323,212.968145L350.501389,214.001941L352.380698,213.311274L350.655759,215.487253L354.088703,213.615465L348.944785,218.374879L351.320915,217.339066L354.089070,216.051960L348.728390,220.789980L347.968756,222.076371L350.566798,220.938727L353.041655,219.932191L352.703615,220.924461L349.995127,223.530264L350.699219,223.768251L350.631097,224.528599L349.756669,225.812020L352.170565,224.940061L353.667873,224.692854L354.573858,224.839842L354.245952,225.763993L353.191195,227.121524L354.932599,226.767365L354.128841,227.951837L353.422989,229.059411L353.766450,229.543866L356.521223,228.658415L357.451857,228.836506L357.192805,229.681326L356.836015,230.569813L357.076223,231.128310L360.341070,230.094521L357.351887,232.349144L355.076473,234.186064L357.628087,233.560490L357.240147,234.422462L360.621700,233.444402L362.121105,233.414759L364.736419,232.880981L368.369412,231.914770L367.734850,232.937157L367.544998,233.747061L363.762360,236.123405L362.360511,237.412826L362.731847,237.927574L364.192994,237.992134L367.821818,237.192381L365.406987,238.859892L362.205774,240.795851L362.192557,241.453873L364.054049,241.401136L359.893672,243.600143L362.656813,243.224851L366.756167,242.412634L368.801524,242.371844L368.020148,243.320480L363.987836,245.338386L365.756831,245.403348L367.168598,245.604932L363.008409,247.561207L367.338894,246.868849L365.125916,248.182509L363.183901,249.383644L365.850589,249.248706L376.913189,246.828004L372.465163,248.738874L367.738502,250.658418L367.258049,251.424975L371.157059,251.093948L379.891862,249.645740L382.594179,249.732240L384.078059,250.131373L383.615790,250.979005L386.870829,251.021420L386.276279,251.904980L386.134167,252.687596L383.187714,254.010396L380.450973,255.252301L373.995521,257.127007L367.714697,258.883063L367.894570,259.473688L371.648319,259.491908L368.454153,260.627419L368.911473,261.181863L368.641376,261.843392L377.662679,261.256344L385.517442,260.936042L390.019630,261.122874L391.850361,261.672638L387.441478,262.915959L380.201235,264.385883L376.468437,265.428893L376.213437,266.116851L370.360452,267.255346L366.369408,268.177494L366.510227,268.765337L366.261822,269.378465L369.196542,269.812577L376.946668,270.050773L378.778603,270.638357L373.590695,271.498745L371.250183,272.208674L371.989159,272.818627L371.935576,273.450683L369.926584,274.100441L368.348789,274.722699L366.109681,275.322068L364.803434,275.901696L367.494364,276.530546L366.969066,277.120396L368.686215,277.769886L372.299578,278.510385L369.175825,279.011298L369.196976,279.626288L367.319065,280.136290L368.439969,280.808639L365.309929,281.204091L363.915783,281.689757L365.151959,282.372864L369.382563,283.337305L371.624792,284.169244L370.770184,284.717187L368.985411,285.154232L369.456114,285.827191L365.321681,285.949036L363.928238,286.367615L368.143802,287.522857L369.980407,288.399407L366.383937,288.498929L366.602753,289.140772L370.503896,290.379749L372.897595,291.419310L375.981848,292.612763L367.481207,291.750775L363.211607,291.570834L366.815895,292.867064L369.690029,294.066514L368.373484,294.434326L364.389293,294.212621L361.013713,294.073341L368.376923,296.344380L362.741697,295.657795L360.872653,295.808274L361.150038,296.469792L364.259957,297.862583L365.058879,298.692581L368.317652,300.200112L366.572080,300.369026L361.382332,299.537457L363.579653,300.785534L360.894360,300.611142L369.397604,303.816567L366.502457,303.584818L362.002184,302.801462L360.608928,302.971334L361.734417,303.964897L365.233941,305.787473L362.300669,305.422123L358.226549,304.610961L362.299059,306.701217L358.781899,306.042405L358.082450,306.399436L360.180268,307.827126L362.404405,309.338984L356.584311,307.666663L361.006895,310.088409L356.603831,308.912973L360.247996,311.079551L357.204528,310.423787L357.641998,311.251567L362.093555,313.881832L367.438052,316.991138L362.773651,315.563170L358.987047,314.478328L357.023471,314.208855L361.444358,317.015159L360.329454,317.161707L357.472525,316.419759L361.303189,319.048989L366.550774,322.480596L365.022395,322.433629L365.678978,323.535884L360.903851,321.701475L357.652736,320.633111L355.440563,320.097049L353.988706,319.960951L356.849605,322.297019L354.839277,321.830798L355.037716,322.649717L353.083967,322.177273L353.756054,323.285485L351.064752,322.319027L352.877976,324.152579L354.943794,326.186672L355.081110,327.012222L352.233259,325.879994L356.231935,329.275329L355.499626,329.546834L353.125089,328.682735L355.083112,330.798590L353.473599,330.438961L352.877494,330.780841L350.269136,329.656925L348.661392,329.224830L349.255318,330.410477L349.895870,331.650725L349.828950,332.369216L350.388406,333.580762L347.588345,332.166185L347.015843,332.478308L350.080464,335.728052L351.621932,337.803796L349.704310,337.048865L350.757468,338.760991L350.178528,339.113859L352.243466,341.747722L350.911254,341.464014L348.233833,339.966277L347.125238,339.826175L345.833272,339.502931L344.400649,339.029156L339.648873,335.428435L342.359601,338.788304L342.186289,339.458377L342.342934,340.455304L341.257068,340.243467L339.592247,339.437115L340.601973,341.301492L339.885093,341.435897L341.133748,343.601597L341.580953,344.970827L338.483408,342.590679L336.802279,341.664597L339.040756,344.986939L335.935206,342.469140L337.435883,345.041435L337.510782,346.050660L338.183903,347.764838L337.837514,348.324070L335.687835,346.755169L334.995991,346.880370L334.741282,347.529171L332.871523,346.198003L333.291343,347.675390L331.642000,346.568026L332.699902,348.887423L334.680258,352.456889L331.417953,349.216531L331.234656,349.982949L330.799422,350.419851L330.632129,351.225919L328.632529,349.499095L332.261514,355.641244L329.779683,353.219092L328.499222,352.458315L328.206953,353.117088L326.284387,351.357379L325.584685,351.384550L324.298367,350.504616L328.560040,358.209256L326.463678,356.106953L326.374988,357.143608L323.037116,352.929799L323.215924,354.371226L323.202850,355.525663L322.819891,356.078162L322.718671,357.122812L321.048718,355.449142L319.212956,353.420916L319.836590,355.750532L318.188907,353.989517L316.684871,352.431223L316.976711,354.203538L319.417173,360.142399L320.202090,363.038943L318.031473,360.170411L316.911425,359.311826L316.275424,359.405549L317.173140,362.682163L316.845995,363.470868L315.363545,361.793023L314.769025,361.990253L313.224017,360.069963L312.044222,358.900006L312.977165,362.550041L313.426122,365.187619L310.931035,360.876544L310.199900,360.690469L309.474250,360.502344L307.597828,357.389914L308.787011,362.046619L307.737696,360.997582L306.473628,359.322822L307.958381,365.085266L308.143848,367.451782L306.881529,365.785530L306.044439,365.276195L305.499745,365.604728L305.633290,367.998014L305.253164,368.895258L302.508631,362.319216L301.190482,360.062036L301.037708,361.564261L300.240159,360.935600L300.487720,363.913700L299.165304,361.418929L298.603679,361.578270L297.736177,360.586499L300.360293,373.030207L299.125233,370.822726L299.203867,373.846659L297.811801,370.856734L295.278375,362.741619L294.311580,361.107901L294.907615,366.550732L294.210847,366.199929L294.720049,371.733077L294.010897,371.456255L292.234585,365.544503L291.427067,364.466763L290.750953,364.041793L290.201690,364.320573L289.300775,362.463389L289.559592,367.834755L288.714361,366.322775L288.656940,370.151237L287.829816,368.719881L286.864814,366.076027L286.522653,368.177610L285.817371,367.405975L285.391026,369.058722L285.059523,371.825291L284.990108,377.649873L283.575744,369.489074L282.616164,365.449183L281.944256,364.423707L281.653488,368.560711L280.792122,364.690970L280.503966,369.816421L279.752372,367.236784L279.179932,367.881351L278.631062,369.347478L277.865450,364.622487L277.339029,366.865137L276.722749,365.896734L276.143197,366.854931L275.562865,369.764848L274.941656,378.085542L274.215813,385.892413L273.494032,385.913719L272.830845,382.997686L272.128206,382.985396L271.534108,379.692012L270.717309,383.094880L269.803649,387.628160L269.240429,384.375625L268.615419,382.875889L268.136286,379.446028L267.608836,377.297156L266.971255,376.894698L266.462610,375.035171L266.350012,369.123396L266.282145,363.537620L265.835527,362.249240L264.861164,365.833726L263.955538,368.429930L262.167542,377.813672L260.053083,388.729570L259.537132,387.010237L259.608229,381.381808L259.271173,378.935699L259.200565,375.000581L258.269334,376.602238L257.333259,378.098760L257.035261,375.890616L256.091908,377.326927L255.486125,376.891073L256.626970,367.666881L255.783568,368.720532L256.411267,362.753946L254.595663,368.326127L253.330276,371.112932L253.420341,367.892689L253.514087,364.833639L252.876145,364.911367L252.827699,362.646739L252.434698,361.820736L251.379933,363.509869L250.253430,365.367177L250.315894,362.890519L248.864988,365.783700L248.381871,365.249246L248.960532,361.216182L248.936502,359.310153L248.101165,360.047540L246.679886,362.556085L246.571316,360.977527L246.848966,358.315452L244.574495,363.151746L242.903749,366.067098L243.893280,361.461184L244.447174,358.218094L243.856016,358.152224L241.948023,361.528452L241.035462,362.211207L239.586675,364.210671L239.085636,363.784176L238.887612,362.629474L238.364415,362.282839L239.193977,358.775043L238.821846,358.144799L238.065451,358.395999L236.198637,361.094069L235.992112,360.070560L235.614908,359.438964L235.376319,358.527698L232.795459,362.493762L232.634166,361.387441L231.506721,362.246086L233.519066,356.871110L231.529922,359.430200L230.383648,360.288635L228.320209,362.837076L230.434976,357.557181L228.950880,358.994630L228.619251,358.309217L227.692136,358.688802L229.757938,353.832769L228.774549,354.346114L228.418263,353.774968L228.864424,351.874570L228.521287,351.316676L225.758161,354.682134L223.165429,357.670138L220.503160,360.672703L220.686482,359.170335L221.040004,357.440288L222.199867,354.534235L220.387253,356.114450L219.589691,356.154406L217.629402,357.862703L217.141125,357.417119L212.101314,363.367989L210.941196,363.769782L210.602774,363.026239L209.517587,363.298398L209.186469,362.548724L207.370898,363.755825L207.304677,362.653954L210.683520,357.168352L211.889035,354.556437L214.407609,350.369292L217.673271,345.364873L216.863639,345.418129L217.113222,344.193985L215.017295,345.758846L212.582765,347.667016L212.817973,346.447515L214.240172,343.903072L214.190093,343.062130L216.364979,339.774754L213.895599,341.626355L214.369482,340.252342L212.512978,341.379095L210.551415,342.576551L210.241618,342.022906L207.473502,343.984043L210.636336,339.902870L211.240388,338.462642L210.090403,338.772051L209.594334,338.428515L204.903678,342.098040L205.041990,341.098906L201.849421,343.220144L205.735474,338.758578L205.355607,338.276242L204.134936,338.548659L205.464199,336.545212L200.972018,339.667229L200.366208,339.345226L203.997903,335.413418L204.632012,334.089007L203.043918,334.628692L202.075554,334.635243L200.263261,335.310216L202.086776,333.059549L199.507524,334.314971L201.795352,331.751085L200.129000,332.267005L195.255618,335.176316L193.755320,335.482993L197.724385,331.750629L201.209408,328.455808L201.197468,327.735794L201.970815,326.468841L192.796051,332.138185L193.164774,331.095846L190.647133,332.018586L196.533729,327.299069L198.756319,325.104408L197.659674,325.107713L198.782558,323.679195L197.042099,324.079714L199.949897,321.570078L200.153209,320.772220L198.220866,321.270355L195.374666,322.282213L193.380907,322.750679L194.317759,321.500710L193.341736,321.358180L195.369013,319.524785L195.491294,318.779910L193.077384,319.417017L190.901976,319.891036L188.724288,320.334767L188.675675,319.646099L187.112952,319.732059L188.899206,318.119991L190.735793,316.516759L190.160649,316.116411L191.726947,314.690443L193.326729,313.277914L193.467482,312.566988L195.530047,310.991753L192.959339,311.514711L191.537873,311.498724L191.422986,310.903104L192.493259,309.809298L192.716411,309.086291L188.496776,310.176735L189.429688,309.150333L191.867959,307.551902L192.348257,306.745266L185.108011,308.856734L186.920645,307.521333L182.426834,308.497864L182.663904,307.734319L185.514933,306.069782L183.996136,305.935208L185.831622,304.665567L187.476554,303.487263L185.230066,303.573942L184.508674,303.156557L189.507847,300.992263L182.712550,302.403656L182.086415,301.933093L181.814342,301.356029L184.108153,300.069828L189.263178,298.048839L184.381822,298.730078L188.727723,296.993301L182.501751,297.940678L181.839280,297.462670L177.771224,297.775292L175.710295,297.577708L178.522175,296.279183L182.117967,294.853354L182.895934,294.061367L187.160645,292.583643L187.778162,291.870628L188.098326,291.222940L186.911045,290.852260L184.259626,290.720677L181.209169,290.621394L182.618603,289.769644L184.112240,288.925084L184.324365,288.289438L179.849882,288.313517L183.466870,287.200839L187.465032,286.088824L184.780191,285.833075L184.687134,285.248704L179.826705,285.173595L181.180950,284.411938L178.377161,284.058713L178.344830,283.427804L180.302632,282.636699L182.287036,281.869913L181.912301,281.289057L179.892797,280.804216L177.875746,280.293359L177.039090,279.699997L172.770493,279.238410L171.143875,278.629224L174.789575,277.849249L173.651899,277.221855L175.315523,276.536657L171.413247,275.922825L174.239955,275.242124L170.366543,274.570735L168.301149,273.868091L174.147622,273.273889L173.544932,272.603281L171.994063,271.896052L172.570666,271.246327L178.314607,270.826831L171.606500,269.863214L180.185933,269.670912L180.776122,269.088939L185.000983,268.765941L184.281510,268.122827L185.106087,267.596872L182.267179,266.755376L183.668246,266.280730L183.412207,265.654649L182.890908,264.995591L184.227185,264.542810L182.629221,263.749363L182.007590,263.059216L183.666873,262.667799L185.868231,262.374090L183.359597,261.410031L179.532316,260.207112L185.028496,260.458778L184.359322,259.744914L184.840869,259.222145L186.590504,258.934885L184.601623,257.965247L184.633714,257.361784L186.232260,257.073548L182.860098,255.767854L182.609662,255.087488L186.362401,255.292027L185.671594,254.527683L186.774254,254.175381L184.061255,252.909478L187.989298,253.263256L186.063406,252.166441L187.536636,251.937155L185.440088,250.760103L184.657570,249.916411L186.399187,249.778012L185.843429,248.991622L188.250286,249.080190L187.030058,248.090998L188.496848,247.923034L185.521335,246.351196L186.306959,245.965254L183.700471,244.452975L179.932163,242.502966L178.078289,241.163476L183.187906,242.275689L189.166695,243.775892L190.865996,243.772813L191.078608,243.229052L191.256408,242.671941L192.160417,242.400129L192.389499,241.868026L189.397130,240.019732L187.578435,238.611085L189.390477,238.710129L188.983383,237.875594L188.324029,236.920220L188.479831,236.315237L190.139328,236.392860L193.919182,237.473949L193.324998,236.551837L195.166492,236.782307L189.362598,233.316944L192.282984,234.070682L190.642528,232.573597L189.354670,231.225487L185.408470,228.470969L181.222157,225.519564L182.646778,225.500520L182.018194,224.382211L183.514334,224.422394L188.301687,226.329997L189.491014,226.263376L192.732775,227.399350L195.173148,228.115570L195.239886,227.454212L194.591284,226.355822L191.390833,223.673743L194.498703,224.857651L196.368547,225.309432L192.892591,222.362267L186.204129,217.255902L190.240776,219.093010L195.192027,221.610547L200.266523,224.298409L202.747133,225.291894L197.640670,221.033976L192.925530,216.947280L187.829840,212.488265L190.477935,213.550728L191.706238,213.611504L199.502486,218.595834L201.272738,219.167383L200.373085,217.718392L196.512603,213.939677L198.714835,214.852237L202.827439,217.329518L199.047304,213.495104L196.495565,210.578664L195.956058,209.270814L195.675329,208.159730L196.861668,208.285310L198.884949,209.151865L195.394568,205.221691L195.343370,204.255177L201.784702,209.118912L206.386163,212.446875L208.710874,213.771851L207.664771,211.988931L207.503701,211.009538L206.428137,209.137519L207.494019,209.311662L209.271473,210.203464L212.999377,213.078030L211.217448,210.464106L208.543264,206.877584L209.306987,206.778129L208.056880,204.568557L211.043400,206.828015L213.771491,208.879078L214.668560,208.991598L213.076678,206.358504L207.924140,199.667334L208.537668,199.371434L211.216773,201.460684L211.552269,200.878772L215.654614,204.751266L212.806117,200.400333L214.214099,201.117189L215.700712,201.960788L218.111270,203.990793L216.487872,200.982744L218.754449,202.890604L218.265125,201.279307L221.523361,204.569758L221.837359,204.029367L222.380751,203.794051L221.514105,201.627382L223.079002,202.791932L222.035967,200.321130L222.416945,199.826669L223.070390,199.722894L220.418607,194.767151L222.177549,196.256067L223.418429,197.013998L224.786309,197.998045L225.837032,198.526562L225.203061,196.421276L226.925396,198.036249L227.211727,197.375293L227.511025,196.725357L229.408313,198.738245L229.594727,197.915844L231.464232,199.977879L228.505603,193.665192L227.030234,189.802596L228.715087,191.529443L229.135046,191.002947L227.443408,186.541573L226.893745,184.106313L228.336402,185.427528L231.510413,190.177998L232.290751,190.348011L235.308267,195.039623L233.723821,190.471364L234.039821,189.715809L234.920072,190.138368L235.915926,190.833290L237.627763,193.129587L238.393221,193.405452L238.848575,192.996116L239.080763,192.065259L238.541985,189.296740L237.540529,185.327525L237.086505,182.554308L239.687597,187.275347L238.917318,183.650704L238.222449,180.089084L240.685349,184.705859L240.699726,182.944689L242.391532,185.714122L243.759282,187.700877L245.474851,190.771576L245.934060,190.320945L246.193771,189.265236L245.022545,183.818864L245.621385,183.641420L246.502204,184.361446L246.070407,180.851839L248.106714,185.406974L247.914806,182.588617L249.289341,185.116005L249.863581,184.911077L250.294905,184.178626L252.085065,188.542861L250.113200,178.574386L251.549624,181.633932L252.380741,182.397254L253.063344,182.587821L254.823108,187.471064L255.004663,185.605715L254.953683,182.558731L255.777584,183.487649L256.782486,185.377455L257.251842,184.680363L257.487483,182.710187L258.156285,182.969989L258.527082,181.567714L259.761767,185.156422L259.872909,182.151967L261.036625,185.635489L261.241445,183.027508L262.323743,186.323547L262.155132,180.772177L263.108682,183.314295L263.787699,183.907569L263.976496,180.368067L264.942853,183.487633L265.645215,184.458006L265.762858,179.524888L266.242834,177.899748L266.920238,178.389319L267.792025,181.492734L267.833008,173.403479L268.335590,170.882739L269.100052,172.355003L269.984514,176.569340L270.768112,179.760528L271.083930,171.721628L271.695409,169.772556L272.449961,172.562401L273.133485,173.476269L273.858244,178.876350L274.520010,185.649335L275.097344,189.127719L275.694989,184.023866Z" />
<line x1="50" y1="625" x2="100" y2="625" fill="none" stroke="green" stroke-width="1.0" stroke-linejoin="round" stroke-miterlimit="10" />
<text x="125" y="628" style="text-anchor:start;fill:black">n0_4mer:PS</text>
<path style="stroke:red;stroke-width:1.0" d="M276.609348,151.300348L277.557462,143.964854L278.465440,141.848439L279.205098,145.761029L279.994598,147.101475L280.653563,150.932464L281.284531,154.351220L282.229104,151.667882L283.114452,150.440857L283.891208,150.962056L284.585201,152.463807L285.501027,151.126479L286.154812,152.860073L287.159178,150.789741L287.832047,152.163003L289.007891,148.854031L290.159306,146.133430L291.808062,139.708982L291.979899,145.231583L292.295806,149.185164L292.404083,154.226210L293.204661,154.240781L293.739208,155.954165L294.396217,156.791896L296.127483,151.283404L297.770234,146.699647L299.407433,142.490815L300.911974,139.284525L299.952142,148.774953L300.083416,152.311708L300.480444,154.373882L301.289163,154.429696L302.258218,153.779458L302.800765,155.018747L303.352103,156.160365L304.101736,156.440510L304.922494,156.433863L305.823242,156.129474L306.767067,155.689633L306.810824,158.576882L306.975470,160.899017L308.642550,157.887792L310.501839,154.378092L310.829822,156.124401L312.241699,154.287849L313.626971,152.629428L313.015152,157.241956L312.936416,160.049157L314.227187,158.686046L313.803704,162.366862L315.244669,160.606222L315.596656,161.960140L316.487462,161.800193L318.594051,158.405544L320.222287,156.408385L320.944144,156.830290L320.135234,161.110135L320.688343,161.868821L321.849289,161.133190L323.602732,159.021480L324.135254,159.857869L324.776212,160.426370L324.294251,163.525688L325.805916,162.098704L327.719003,159.855024L328.083455,161.023848L327.421740,164.331504L329.481363,161.891276L328.992214,164.747154L329.035554,166.452194L329.111004,168.050333L328.556659,170.833801L331.735986,166.393423L331.847573,167.883599L334.731752,164.195880L335.101113,165.226453L335.472042,166.234753L334.712885,169.226301L337.037894,166.758794L337.805079,167.054087L339.332210,166.065901L339.736964,166.991500L338.719612,170.240474L339.974284,169.726373L341.683069,168.513978L343.228532,167.605596L342.754465,169.869128L343.097436,170.831491L344.151901,170.706242L346.867146,168.127289L345.319171,171.884313L347.225534,170.555083L348.245010,170.540057L346.220991,174.819475L346.889906,175.258974L346.488073,177.164614L348.299550,176.043402L349.103075,176.307496L349.177931,177.534844L349.853395,177.963753L351.988150,176.527686L356.123091,172.618532L356.599168,173.382867L357.537100,173.573506L355.952736,176.831915L356.474801,177.498070L357.417395,177.664023L357.744799,178.556653L358.697807,178.720427L360.032704,178.460511L359.853938,179.917765L364.554985,175.954683L364.056682,177.784624L361.541030,181.755924L360.081873,184.515857L359.442116,186.358861L360.314612,186.601682L359.537301,188.539860L360.764237,188.419037L363.545979,186.766329L361.550535,189.869669L363.272864,189.298262L363.874711,189.830071L362.544788,192.190356L364.900493,191.063446L366.084379,191.060507L369.685447,188.874250L370.253251,189.483498L368.964299,191.738287L366.374094,195.088567L365.013138,197.306420L364.722926,198.569786L371.911692,193.528025L371.125179,195.250745L371.216286,196.226270L373.119948,195.728262L372.448121,197.313308L372.333035,198.435355L374.420871,197.834694L373.366661,199.673199L376.171813,198.564056L377.954286,198.264324L378.049320,199.231281L373.615545,203.474970L374.411725,203.879817L376.058744,203.690856L375.480896,205.073283L376.724807,205.185478L376.101408,206.576547L373.458299,209.295171L373.808842,209.986304L374.524859,210.439006L379.776807,207.996508L378.927967,209.487991L377.520858,211.303148L376.820171,212.652896L376.385635,213.822252L375.852255,215.035602L378.690883,214.257349L382.341623,213.053128L381.124060,214.672677L379.895617,216.270598L382.510568,215.721863L383.000738,216.364532L382.240323,217.677501L383.075164,218.132104L381.698994,219.739536L379.200900,221.890157L383.924217,220.372495L386.067101,220.199155L388.095921,220.110076L386.741830,221.662627L389.333248,221.336122L393.455318,220.338902L391.186891,222.299737L390.060765,223.710413L386.735679,226.061433L386.164399,227.171118L392.247719,225.455193L394.600055,225.375667L393.984319,226.536030L393.631820,227.577042L392.026211,229.099577L388.531242,231.320430L390.351152,231.479602L388.531968,233.007617L390.185947,233.245680L392.335869,233.327958L392.284267,234.203548L392.008262,235.150938L390.335206,236.556225L394.955557,235.881370L397.547756,235.916194L394.636034,237.700515L396.907721,237.860672L395.074411,239.271160L393.559714,240.559838L398.317045,240.046198L404.282015,239.262404L402.041139,240.769889L396.940083,242.993720L397.170509,243.781339L401.437173,243.565868L408.211188,242.800447L411.419463,242.962818L412.429542,243.667539L410.494358,245.034658L411.643411,245.711624L411.668206,246.634971L410.651947,247.765162L412.942530,248.237636L411.434937,249.449964L410.874331,250.468779L407.356781,251.991934L403.169148,253.577929L403.394221,254.397993L406.806916,254.729039L405.644942,255.776899L404.722019,256.774064L410.905497,256.806062L414.923572,257.193949L419.266077,257.594288L417.011956,258.802834L413.253664,260.141933L407.918446,261.589397L404.844059,262.752335L404.595998,263.625813L398.495420,264.970378L394.188377,266.100267L395.437196,266.794520L393.483217,267.701685L393.374896,268.481070L399.439934,268.958787L401.189445,269.696467L400.613959,270.539067L400.563591,271.358564L403.596778,272.107744L401.348676,272.980575L402.133124,273.795240L399.157353,274.631180L395.453372,275.425796L396.049326,276.215429L398.015214,277.035589L396.016872,277.790109L396.034524,278.578455L399.224207,279.481775L396.610436,280.179839L399.059545,281.092926L397.682405,281.825594L396.767110,282.569578L396.957798,283.378229L394.087653,283.959798L394.198986,284.748406L396.751953,285.754986L397.169765,286.593344L395.672548,287.243871L396.677875,288.146140L399.913567,289.318427L398.261937,289.942142L394.849919,290.320305L396.567242,291.344289L399.467054,292.559250L395.863361,292.853531L395.207291,293.556472L396.037667,294.491655L397.895554,295.611949L402.390625,297.218854L398.850686,297.432612L395.212911,297.582382L396.174853,298.580218L397.103769,299.586466L395.525883,300.085702L396.291988,301.069532L395.233016,301.661392L398.443179,303.217016L396.438834,303.591407L391.593781,303.252479L392.350982,304.245502L391.458004,304.828950L391.657415,305.690092L391.677616,306.508390L390.243405,306.926904L388.882579,307.349079L390.874669,308.731113L388.936339,308.972426L394.941177,311.614202L395.433149,312.622592L392.687590,312.606953L388.433389,312.062528L387.674146,312.627451L390.441946,314.388347L387.942206,314.357564L389.383324,315.696150L389.669324,316.640279L387.122631,316.543056L388.818663,318.015604L387.969369,318.536605L388.880475,319.740764L390.956467,321.429403L390.338055,322.054703L387.672585,321.824546L386.564414,322.217462L386.895215,323.218175L387.258697,324.243166L391.801681,327.144654L392.613155,328.427242L388.604836,327.500633L386.946747,327.620857L385.661324,327.898320L387.288232,329.576239L386.202470,329.945694L389.112462,332.310126L388.184550,332.769186L389.952844,334.617514L387.994945,334.538076L387.655989,335.299069L385.788884,335.230179L385.187513,335.835240L384.080786,336.153494L383.569459,336.798533L384.810107,338.454072L381.603033,337.529438L378.049985,336.349860L376.219690,336.155564L378.993628,338.758690L378.630964,339.467657L380.102710,341.335433L379.690492,342.031568L379.187830,342.669398L375.940930,341.498215L378.399647,344.086744L376.963032,344.090515L374.481626,343.357629L377.735005,346.581489L375.657988,346.111487L374.485983,346.258222L372.001624,345.438041L374.111966,347.959923L372.553481,347.795930L374.062438,349.930152L372.095605,349.440424L375.862343,353.375353L377.621867,355.818768L378.203854,357.370527L377.253004,357.706278L373.803782,355.985331L370.927612,354.676788L372.594923,357.140404L371.829737,357.578475L374.054187,360.594830L373.692582,361.410180L371.175955,360.318403L370.190702,360.557416L367.522669,359.253956L365.938261,358.899793L361.455676,355.811636L363.227260,358.549594L362.700328,359.139499L361.724507,359.293609L361.352064,360.031050L360.203812,359.999177L358.839193,359.733176L359.810300,361.837332L360.602125,363.796457L362.487622,366.941931L359.676066,365.154466L356.821978,363.259354L357.101109,364.724195L354.693470,363.238807L354.820083,364.543270L354.502074,365.363210L354.805876,366.907296L354.814023,368.133681L354.082530,368.504411L354.489124,370.234824L352.265504,368.804531L352.101487,369.856186L350.790357,369.492483L349.955694,369.707656L351.046709,372.381367L351.016749,373.659441L347.582173,370.480193L348.943739,373.596134L348.057265,373.745971L346.138703,372.472684L346.258047,373.982093L347.234767,376.728038L346.736580,377.431591L345.439778,376.985529L343.031914,374.882718L342.163130,374.999256L341.429932,375.311399L341.632766,377.053714L341.448705,378.232695L340.833985,378.754612L339.889653,378.752243L337.931086,377.092033L338.504386,379.538513L336.374061,377.528939L336.628689,379.490845L336.037611,380.044423L336.535088,382.504513L334.822828,381.108284L333.957383,381.182029L332.676158,380.485695L331.436836,379.833556L331.059196,380.775001L333.032730,386.241791L333.026573,388.016858L331.470873,386.770458L330.716932,387.083908L329.573506,386.599258L328.904573,387.072982L329.175404,389.537724L328.167484,389.325108L325.943847,386.433916L325.023829,386.331188L323.487213,384.816786L323.115437,385.922143L323.481028,388.786879L321.670665,386.544669L321.097156,387.218698L319.799226,386.110142L318.578882,385.144160L319.194676,388.860240L319.588669,392.128517L318.121129,390.528315L317.326892,390.692252L317.723969,394.174668L315.341187,389.875171L314.765675,390.637259L314.986025,393.785353L314.056322,393.569061L313.888371,395.695924L312.325834,393.481454L310.276134,389.570620L309.662718,390.238736L308.726628,389.829623L307.936589,389.899019L307.451989,391.053417L306.686226,391.225046L306.251362,392.640475L306.946524,398.489282L307.057703,402.329609L304.938536,397.266591L303.532350,394.894867L302.332608,393.264271L302.433379,397.321980L301.707717,397.822899L301.635962,401.449282L301.070899,402.886007L299.645876,400.046647L297.664450,394.071125L296.761129,393.517673L295.725575,392.163855L295.195830,393.664644L294.318148,393.149588L293.979270,396.015468L293.788202,400.109051L293.646438,404.914282L292.587459,403.473752L292.010783,405.577229L291.223764,406.193008L291.165028,413.087628L290.718012,417.278170L290.585996,425.018899L288.907685,417.903569L287.035856,407.613207L286.065543,406.413841L284.823603,401.502103L284.147913,403.637072L283.102281,400.463784L282.041245,396.299012L281.116050,393.703853L280.414731,395.319553L279.832624,400.568200L279.040991,401.389786L278.332982,405.902534L277.467632,405.198732L276.597013,403.318709L275.735573,398.842270L274.928473,401.377587L274.046710,409.805285L273.086734,415.911056L272.138226,417.481726L271.216649,417.261862L270.200449,419.976985L269.218409,420.927037L268.268324,420.905507L267.520778,417.032215L267.019858,409.834983L266.245632,408.216360L265.566804,405.559841L264.608613,406.879538L263.824874,405.942326L263.553993,399.547809L262.834259,398.553999L262.075512,398.045996L261.317891,397.577871L259.959795,402.231674L258.584960,406.517330L256.997046,411.982650L256.515688,408.897033L256.108506,405.570501L255.497815,403.869956L254.674844,403.645581L253.534881,405.353694L252.883958,404.063793L252.330762,402.311251L251.927277,399.865101L251.178029,399.385661L251.074742,395.670297L250.146326,396.213945L250.149692,392.313675L249.141105,393.274392L247.895275,395.219097L247.225224,394.560443L246.416768,394.507875L245.766779,393.803838L244.577220,395.260746L244.133428,393.760144L243.409323,393.377594L242.070516,395.248764L242.148570,391.971187L241.271515,392.160713L240.891874,390.644213L240.859731,388.037778L239.939940,388.412214L238.896170,389.151483L238.044082,389.255033L236.715187,390.785648L236.894448,387.776720L235.193197,390.332159L233.697404,392.188376L234.458293,387.685746L234.268425,385.942407L233.509412,385.776919L232.040942,387.464701L231.433252,386.866932L230.416129,387.312444L229.811165,386.711666L227.932537,389.212802L227.814411,387.417808L227.855894,385.302657L225.758546,388.166935L225.251337,387.329498L224.166805,387.790793L223.138171,388.103146L222.298024,387.989459L222.811553,385.014534L221.049197,386.844807L220.728333,385.664421L219.490140,386.350952L218.714885,386.090191L217.000728,387.649675L216.571560,386.691829L214.693446,388.478472L215.263098,385.663246L215.285564,383.920474L214.422670,383.809152L211.692002,386.993442L210.245177,387.833097L210.665304,385.430685L212.611645,380.505741L213.477002,377.514249L212.026151,378.401203L208.143333,383.186088L205.921982,385.171440L203.627401,387.202532L203.408831,385.945727L204.895641,382.105708L205.466955,379.739463L202.507734,382.670289L202.945040,380.532303L201.531762,381.113183L199.523510,382.512544L196.574055,385.182638L195.885128,384.633798L194.489958,385.051265L193.531859,384.854021L191.650420,385.876126L190.659495,385.687719L190.871783,383.931763L193.815984,378.717691L192.518812,378.974158L194.052591,375.688366L194.720489,373.537936L195.640948,371.124282L194.992667,370.635418L191.741452,373.216291L189.437046,374.613585L193.389324,368.771147L192.002551,369.121057L193.173509,366.585163L192.995849,365.590890L193.164892,364.230479L190.909752,365.500391L192.098565,363.065043L190.423703,363.681148L190.204170,362.761040L188.458191,363.409796L187.240754,363.494449L187.895574,361.698724L187.680195,360.789520L186.944849,360.393328L184.815426,361.327043L183.641979,361.318425L182.670693,361.106204L183.496182,359.230033L182.150027,359.359949L182.231830,358.190397L182.209932,357.127254L180.102271,357.898021L179.744249,357.124365L180.590762,355.329807L179.457829,355.228129L180.996766,352.898765L181.601212,351.378495L178.462922,352.902408L180.220055,350.471645L177.487713,351.616092L175.772958,351.924656L174.949445,351.526234L169.893935,354.314625L165.188068,356.750022L167.123064,354.224008L171.272291,350.143028L174.121842,347.082754L178.737397,342.843076L171.700793,346.801042L172.486354,345.270347L171.750499,344.791825L173.188274,342.859200L176.699547,339.599268L174.713754,339.974053L171.139401,341.334558L171.148546,340.381438L171.980992,338.925338L174.214080,336.635177L172.062013,337.034787L170.137065,337.268519L168.718270,337.179382L168.759394,336.231115L169.881980,334.676509L168.256480,334.684458L169.041601,333.343915L167.848884,333.095471L164.008289,334.246730L158.109764,336.421592L155.366031,336.873521L155.051561,336.050414L161.068684,332.057747L162.490220,330.433281L163.974045,328.807445L165.248981,327.310638L165.947813,326.109625L163.816591,326.228956L161.807474,326.264626L163.702985,324.536148L164.027787,323.529127L165.213189,322.162337L166.830073,320.636504L165.158483,320.502267L164.201123,320.056618L162.585469,319.863616L164.767931,318.163423L162.924924,318.046316L161.683461,317.679308L160.826126,317.156150L160.710690,316.355913L158.303708,316.370318L159.414840,315.131900L159.440864,314.282352L159.412341,313.455039L157.145142,313.359577L156.489690,312.722059L156.839275,311.765946L156.602596,310.996478L154.923725,310.655216L154.669736,309.880434L154.168377,309.175235L157.685557,307.357719L157.100709,306.695154L156.649485,305.992313L158.006218,304.825102L155.256663,304.697788L156.197791,303.645279L154.108107,303.318244L152.866047,302.772313L155.292839,301.402654L156.987763,300.224886L157.364874,299.345139L158.827269,298.255406L156.750343,297.872093L152.950598,297.784373L151.149183,297.287872L151.265232,296.436922L149.702350,295.869032L149.998770,294.984800L152.817954,293.719740L154.546895,292.653630L154.909734,291.803172L155.576537,290.918460L155.240700,290.170964L153.429709,289.597460L153.553424,288.781757L152.715785,288.071630L154.918335,287.046607L153.810742,286.361896L153.541839,285.590489L155.350102,284.648951L154.983653,283.893059L156.338828,283.016815L150.498017,282.598124L150.361799,281.792894L148.096700,281.088603L148.960958,280.225547L148.053796,279.436100L151.179997,278.520532L148.160312,277.780707L150.690550,276.916256L148.288388,276.128838L148.833853,275.303174L148.201268,274.479801L146.960019,273.641695L147.892577,272.824528L146.930974,271.974567L143.839513,271.047651L144.353835,270.212280L146.011034,269.432532L146.439710,268.612880L151.938283,268.083233L152.343405,267.305235L154.859340,266.678087L154.348329,265.853657L153.390341,264.984951L154.095238,264.250685L149.882131,263.055234L152.788015,262.529846L151.141956,261.547186L153.036862,260.949629L151.130622,259.912875L153.001579,259.334670L155.971445,258.928241L157.072896,258.295103L155.355374,257.257098L153.469444,256.168624L155.078525,255.618255L154.986365,254.801361L154.540606,253.919597L157.751660,253.694505L153.316381,252.069827L154.723801,251.523794L156.503069,251.069802L155.026899,249.958296L152.872385,248.678334L158.878438,249.181152L157.402767,248.049022L155.239694,246.732030L156.097461,246.116610L156.101693,245.297194L157.493250,244.831346L159.145572,244.450836L158.463780,243.458812L157.284608,242.316304L158.699443,241.892728L160.452506,241.584689L162.265881,241.316351L159.594021,239.698627L162.365697,239.743537L159.325926,237.964089L158.541893,236.876022L154.503489,234.684239L150.494908,232.440430L152.344654,232.179557L157.934323,233.274629L162.843069,234.199985L164.754069,234.081107L161.959565,232.205170L161.482469,231.178123L164.662874,231.579018L163.493081,230.278757L161.417760,228.586402L161.119727,227.597742L160.140700,226.311150L162.022140,226.239236L160.807321,224.831170L162.677791,224.778670L162.564364,223.847702L164.095392,223.670819L165.768603,223.579781L165.026476,222.353755L163.168390,220.567203L166.219549,221.174198L165.434769,219.895709L162.543167,217.521757L158.429033,214.459298L153.495875,210.890218L158.211721,212.403817L158.121381,211.373173L158.728117,210.719400L162.250135,211.705386L163.364531,211.372349L164.893719,211.291390L166.877005,211.496495L167.061637,210.656881L164.231400,207.989261L165.214838,207.604742L169.136033,209.059844L173.395809,210.791979L170.983029,208.316401L166.517568,204.453700L167.112296,203.837518L172.033030,206.117782L175.225394,207.309703L176.247574,207.060882L175.852213,205.834305L172.836535,202.737979L167.101970,197.623830L169.051162,197.973025L172.592649,199.524561L174.664197,200.039157L175.301863,199.500006L177.708169,200.321414L177.251899,198.955554L178.391648,198.828228L180.918162,199.822608L177.158757,195.770220L175.525176,193.370203L175.010680,191.853633L175.358030,191.040039L176.499851,190.900343L174.272175,187.859029L174.095584,186.552022L174.146997,185.430207L178.488393,188.156269L180.204107,188.577500L182.116967,189.208309L184.666783,190.467836L186.532361,191.127474L187.375125,190.837322L187.727361,190.077235L188.495775,189.722353L191.089132,191.195580L190.777239,189.782476L190.752700,188.641115L192.114956,188.924288L191.112195,186.740904L193.491345,188.119102L195.518620,189.167727L195.694588,188.232245L193.925490,185.129568L189.879406,179.401356L190.182196,178.484445L192.530318,179.916005L194.743835,181.242739L196.911765,182.564850L196.343228,180.653601L196.580691,179.684493L197.436275,179.464395L198.951323,180.075113L198.106638,177.730666L197.568633,175.729408L200.908024,178.725676L203.446850,180.762484L203.927194,180.119801L204.736023,179.916677L204.214319,177.895320L204.074497,176.361804L203.940562,174.806751L206.181490,176.616278L207.451380,177.081595L205.294128,172.534665L206.596502,173.028956L209.174001,175.477895L209.983562,175.298251L211.657472,176.470129L211.162980,174.266268L210.857198,172.312297L212.522591,173.515048L212.430924,171.869282L213.168809,171.574233L215.170811,173.428482L214.962753,171.542042L213.271973,167.016296L212.927529,164.755280L212.734019,162.709066L210.878443,157.567814L210.889518,155.750235L212.387801,156.698260L214.725141,159.300219L215.878934,159.690393L218.370708,162.757750L220.939454,166.093150L219.751639,161.858022L220.031895,160.549564L220.280414,159.141673L221.293923,159.345123L223.776741,162.786506L224.468549,162.368103L226.110651,164.102117L227.321248,164.913448L225.466758,158.560299L224.070272,153.081706L223.053752,148.337796L223.026081,145.884061L225.476922,149.624110L226.217325,149.107758L227.953138,151.202850L229.905274,153.974465L230.566277,153.335161L233.251069,158.336706L235.595851,162.589074L236.309279,162.280658L236.900773,161.606881L237.055874,159.586985L236.362265,154.848367L235.442888,149.186781L235.991636,148.051591L236.805446,147.757623L238.076625,149.021942L239.804708,151.957902L241.283251,154.159177L242.444518,155.318872L243.551560,156.346286L242.466550,148.946920L243.904348,151.194786L245.095957,152.573510L245.835411,152.138828L248.238876,158.908150L247.525747,152.169304L248.751082,153.956156L249.139330,151.884845L249.469334,149.399812L250.713725,151.408158L251.288097,150.039832L252.361795,151.310286L253.139165,151.008139L253.885280,150.509061L254.891038,151.573919L255.446535,149.859352L256.095427,148.627667L257.184073,150.369106L257.196887,144.399316L258.229534,145.694568L259.201586,146.648477L259.748987,144.076755L261.121633,148.717443L261.770551,146.956367L262.157204,142.256851L263.115837,143.227325L264.095948,144.618959L265.082027,146.336602L265.324619,137.845512L266.282864,138.813261L267.334927,141.646046L268.438299,146.224322L269.329283,147.379391L269.998210,143.087959L270.691014,137.789804L271.637686,139.932536L272.606975,144.838263L273.548834,152.827344L274.343723,152.833283L275.138351,152.953139L275.954064,150.110106Z" />
<line x1="50" y1="600" x2="100" y2="600" fill="none" stroke="red" stroke-width="1.0" stroke-linejoin="round" stroke-miterlimit="10" />
<text x="125" y="603" style="text-anchor:start;fill:black">n0_4mer:D</text>
<path style="stroke:black;stroke-width:1.0" d="M277.274692,100.159815L278.462314,97.603481L279.664751,95.767656L280.806655,96.538997L281.978723,96.293232L283.097326,97.304035L284.193320,98.509059L285.371273,98.060915L286.504244,98.406581L287.698408,97.849211L288.729695,99.481041L289.869125,99.598987L290.976901,100.060472L291.800387,103.378170L293.277603,100.034471L294.648627,98.057220L295.943901,96.959609L297.559459,93.414989L298.514821,95.288621L299.467201,97.018304L300.481888,98.171140L301.564613,98.785681L302.529619,100.110728L303.606044,100.663620L304.996322,99.349979L306.109972,99.708855L307.711646,97.406823L308.878003,97.561987L309.556421,100.189923L310.279730,102.439381L310.846063,105.302348L311.685603,106.748378L312.365237,108.832342L313.597830,108.421276L314.970798,107.459869L316.453262,106.120811L318.217906,103.751568L319.585211,103.056135L320.529148,104.002178L321.274851,105.640589L322.210334,106.535065L322.911783,108.215534L323.491020,110.245736L324.569012,110.540740L325.243495,112.144907L325.989537,113.464714L327.818969,111.384752L329.332809,110.366573L331.013926,108.911076L332.899498,106.938670L333.186705,109.606739L333.581125,111.883064L334.240953,113.359253L334.827153,114.989305L335.782199,115.603835L337.687661,113.765465L339.435341,112.410121L341.273500,110.896889L343.134042,109.400773L343.794359,110.839105L344.546813,112.026014L344.355214,115.359917L345.245656,116.146056L345.605528,118.099854L345.786853,120.392553L347.245066,119.881712L348.258005,120.343684L348.774305,121.837212L350.379447,121.074130L352.047755,120.224779L353.470657,119.903811L355.072468,119.261296L355.730824,120.461422L355.955013,122.458577L355.788869,125.134321L357.674665,123.996287L359.457151,123.095044L361.494516,121.786086L362.564011,122.221858L362.663301,124.329144L362.675345,126.538837L362.386028,129.203330L364.794400,127.371688L365.759456,127.948328L367.099008,127.927331L369.622536,126.060392L370.575910,126.700124L372.783632,125.420577L374.383320,125.111714L375.272596,125.885910L375.972878,126.933868L377.133074,127.305967L378.034313,128.055403L378.560696,129.329956L379.710831,129.722779L380.307055,130.881463L381.182855,131.649950L382.120673,132.333755L383.137371,132.914266L383.998329,133.699946L385.731448,133.368049L386.790237,133.915032L387.682212,134.674508L388.513802,135.507494L388.726893,137.088029L389.830090,137.581371L390.487356,138.607985L391.779224,138.887768L392.859073,139.423913L393.738564,140.193510L394.762862,140.800919L395.482434,141.749786L396.600078,142.259851L397.078341,143.466067L397.477561,144.745731L397.994662,145.889226L397.929093,147.627622L398.859987,148.322762L399.619875,149.193381L400.506512,149.936159L401.682878,150.395856L402.149960,151.553541L403.266258,152.080579L403.836137,153.132384L404.278978,154.297304L405.125821,155.081573L405.579510,156.225060L406.851773,156.626062L408.021400,157.129811L409.001826,157.808382L410.215639,158.290515L411.057677,159.099663L411.856630,159.947010L411.572715,161.693868L411.542755,163.210379L411.771161,164.501697L412.242725,165.588621L413.914527,165.726295L415.402662,166.026761L416.714073,166.478804L417.965670,166.988533L418.865782,167.771457L419.973262,168.406008L419.641518,170.092717L419.934561,171.312307L420.054441,172.646581L419.537177,174.413614L420.466783,175.165021L421.030351,176.169518L421.202257,177.433879L422.376945,178.029731L422.836853,179.099396L422.278000,180.817513L423.934584,181.117631L424.510324,182.108299L424.674338,183.350561L426.262850,183.725526L427.315493,184.436761L428.127952,185.296860L428.686616,186.307424L429.934183,186.926056L428.856724,188.858047L428.209611,190.524767L427.569349,192.167463L427.972681,193.232470L429.231566,193.845142L430.810855,194.304018L432.368379,194.791384L431.300002,196.612666L431.358193,197.852393L432.531580,198.543693L434.368211,198.929278L436.014046,199.425849L436.366068,200.537776L435.913483,202.012568L436.088014,203.193267L437.696877,203.741186L438.673775,204.578770L440.337576,205.134092L442.474458,205.511669L441.695702,207.102520L442.563390,208.016693L441.936511,209.523587L439.605331,211.670382L440.142500,212.694013L439.958074,213.986502L439.810857,215.256903L439.442064,216.598109L440.586012,217.402149L441.075549,218.440278L443.266432,218.913077L444.958922,219.574804L446.113895,220.427134L446.668190,221.478206L446.163659,222.854794L446.858736,223.862433L446.191334,225.270989L447.172746,226.198213L448.390305,227.069492L446.875715,228.689609L445.117713,230.348273L443.854211,231.852087L442.796789,233.283263L445.045337,233.896967L447.317258,234.532466L447.905969,235.579295L447.621669,236.823743L447.206279,238.089020L446.928648,239.316784L450.160104,239.833110L452.876537,240.490000L454.965045,241.298124L455.598774,242.394073L453.540768,243.963601L453.467625,245.171088L453.090091,246.423844L454.458427,247.400577L454.485756,248.590460L454.505205,249.779529L455.099163,250.889768L454.929759,252.102939L455.496901,253.223036L455.609909,254.400546L455.218036,255.632039L454.295393,256.910266L453.127311,258.197971L451.339886,259.523266L449.879270,260.797263L449.618893,261.961299L449.774857,263.092453L450.210482,264.207406L451.550215,265.277343L451.659677,266.423664L452.011505,267.560500L453.130614,268.674041L453.867791,269.812703L453.972742,270.974743L453.695142,272.143924L452.634855,273.316667L451.379394,274.476050L450.641483,275.620883L450.383708,276.760988L450.831036,277.909556L450.695903,279.050763L450.778298,280.196986L450.815730,281.343099L450.271135,282.465447L448.932749,283.542344L448.199455,284.636175L448.120625,285.761938L447.785034,286.869947L449.025590,288.093163L450.045667,289.315694L450.197894,290.476145L449.944159,291.601389L449.297636,292.684865L449.154041,293.815692L449.139734,294.961059L449.142710,296.110045L448.456066,297.172730L446.685051,298.082453L445.045778,298.989290L444.972689,300.107797L445.818882,301.369414L447.618530,302.798130L448.901231,304.166582L449.237381,305.389638L449.540353,306.613842L448.618372,307.614769L447.727598,308.612209L447.198890,309.673477L445.904863,310.571350L444.997604,311.537928L445.305540,312.764858L444.154404,313.665826L444.471221,314.900092L444.694064,316.119501L444.216753,317.171176L444.641245,318.451030L444.935315,319.706377L445.642629,321.081457L445.182616,322.147201L445.389410,323.400208L445.058936,324.504152L443.702980,325.302208L442.523235,326.139482L440.945987,326.840529L440.760038,327.968457L441.564630,329.422302L443.483767,331.265034L444.392008,332.795901L443.280505,333.641592L442.388987,334.554899L441.904007,335.608445L440.521476,336.328100L440.411363,337.514086L440.409464,338.746187L440.223981,339.912331L440.703452,341.348282L440.360922,342.462635L439.791559,343.484183L439.480705,344.613250L439.139168,345.731274L437.931401,346.471149L436.355686,347.035234L434.005583,347.230268L432.942214,347.990433L432.882652,349.213148L433.648506,350.837151L433.893886,352.228313L434.340801,353.731082L434.294462,355.001653L434.204910,356.257893L435.049052,358.005572L434.361894,358.969249L432.467578,359.284452L429.565490,359.029252L426.903316,358.866805L426.888844,360.152793L427.711498,361.924506L428.907146,363.935667L428.778224,365.200678L426.533902,365.214313L424.937992,365.590501L422.864037,365.655721L421.591780,366.193097L420.773413,367.004692L420.392891,368.092633L420.926990,369.778744L421.403497,371.448202L420.741775,372.377748L419.981011,373.239651L419.452188,374.258621L418.300801,374.846053L418.362964,376.281118L417.833174,377.306253L416.345219,377.638285L416.953135,379.496866L416.540855,380.619995L416.279488,381.862840L414.906658,382.262434L412.063767,381.505767L409.698344,381.080258L407.754709,380.956075L408.151249,382.698001L408.869102,384.726909L409.364176,386.601923L409.371796,388.093523L408.813959,389.119412L408.466014,390.330822L408.089143,391.526050L407.010301,392.107317L406.180585,392.905129L404.763749,393.166817L403.202074,393.279450L403.069211,394.708536L402.378514,395.625113L400.995699,395.879993L400.923827,397.394168L400.329812,398.412516L400.019936,399.719674L400.050053,401.383470L398.342995,401.290989L397.249830,401.811709L395.775937,401.925072L394.399916,402.124892L394.241826,403.623222L392.938379,403.888955L392.097402,404.653472L391.301380,405.468493L389.913401,405.612237L389.553074,406.923409L388.749372,407.732286L388.117601,408.746285L387.717765,410.045601L386.964018,410.930417L386.282376,411.908147L384.935694,412.063567L384.227907,413.011117L383.774049,414.290257L382.224662,414.163084L381.718051,415.385163L379.969943,414.966286L378.291320,414.611052L378.125266,416.299969L377.875840,417.901279L378.160001,420.279965L376.947359,420.569112L375.671391,420.756068L373.911720,420.219660L372.239996,419.780735L371.655010,420.952268L370.840171,421.787323L370.309508,423.069964L369.049520,423.222403L368.427987,424.382264L367.427970,424.944326L365.879382,424.602194L365.077594,425.479859L363.728386,425.438119L362.615941,425.785160L361.782209,426.612349L360.683550,426.977678L360.045038,428.165799L358.686974,428.057675L357.102818,427.509087L356.360672,428.514959L355.036456,428.420298L354.059533,428.982211L353.636807,430.642571L352.444540,430.792616L350.946107,430.304834L349.858308,430.637886L349.052696,431.562326L348.074793,432.131446L347.186178,432.899119L346.362396,433.821516L344.832828,433.161631L344.170585,434.461287L343.366965,435.459954L342.693205,436.789342L342.332791,438.914627L340.830260,438.270893L339.366570,437.684341L337.682607,436.491322L336.119216,435.552069L335.488762,437.058948L334.897111,438.716999L333.818133,439.067888L332.749551,439.447056L331.133760,438.235105L330.062675,438.573130L329.228155,439.628441L328.259540,440.299014L327.104181,440.391593L325.868942,440.213290L325.135170,441.678033L324.183666,442.456464L323.299939,443.493936L322.377852,444.430649L321.475209,445.471022L320.589914,446.615532L319.932777,448.687642L318.975887,449.667300L317.520519,448.650404L316.204710,448.144982L315.007072,448.104862L313.729630,447.690543L312.639912,448.097652L311.525919,448.400020L310.292216,448.119485L309.044374,447.732134L307.868523,447.679770L306.703828,447.668612L305.523249,447.551135L304.494467,448.300647L303.199007,447.464824L301.960227,446.903586L300.507157,444.850009L299.197409,443.589255L297.993324,442.962782L296.653070,441.212098L295.640369,441.907761L294.516328,441.715668L293.487635,442.348568L292.503206,443.472503L291.644192,446.021588L290.483806,445.603331L289.300197,444.828427L288.280258,446.014698L287.093843,445.062457L286.178998,448.106722L285.154774,449.935541L283.992078,449.523471L282.824496,448.866407L281.623055,447.089752L280.475427,446.254534L279.332582,445.161754L278.249436,446.448770L277.149105,447.678839L276.034540,449.176825L274.899118,453.242877L273.733203,454.138539L272.537130,456.389081L271.304443,458.994020L270.100243,459.241022L268.846345,460.879540L267.671393,459.973643L266.513151,458.947967L265.389636,457.503110L264.366543,454.666230L263.235665,454.019418L262.179420,452.442810L261.013560,452.505207L259.930328,451.575892L259.014187,448.946952L258.078927,446.848653L257.027933,446.100846L255.585163,448.937317L254.051908,452.209077L252.654886,454.029089L251.555852,453.384136L250.570258,451.964666L249.449970,451.591659L248.133347,452.534181L246.787779,453.565787L245.701880,452.922064L244.718174,451.717300L243.786153,450.298074L243.021233,448.062885L242.147669,446.537396L241.304745,444.946607L240.330453,444.086975L239.010989,444.897421L237.644809,445.856582L236.347126,446.439244L235.359952,445.636183L234.509539,444.292577L233.612190,443.200102L232.791719,441.848636L231.691461,441.631019L230.469759,441.865142L229.365355,441.644267L228.180814,441.704943L226.952054,441.901408L225.976935,441.213584L224.817156,441.154437L223.803768,440.609469L222.731256,440.260990L221.738058,439.667670L220.805310,438.902258L219.392038,439.576635L218.224677,439.495016L216.598914,440.702137L215.217463,441.165669L214.366101,440.151252L213.104449,440.256722L212.276040,439.208244L211.281706,438.610332L210.131056,438.413125L209.163111,437.755878L207.796086,438.075440L206.659213,437.819234L205.198555,438.313839L203.833333,438.555559L202.735398,438.169141L201.511062,438.060294L200.441413,437.601492L199.654705,436.535197L198.739392,435.759245L197.803823,435.034533L196.841423,434.371808L196.386355,432.696385L195.881951,431.155659L194.919264,430.537621L193.544040,430.711244L191.781843,431.591093L189.790998,432.850584L189.246703,431.415943L188.097175,431.095071L186.419125,431.701799L185.196233,431.480037L183.758520,431.616254L183.015209,430.556650L182.712830,428.775828L182.111066,427.520891L180.207300,428.391605L179.151653,427.867015L177.823718,427.767658L176.032109,428.371774L176.330440,425.747732L176.637926,423.165392L176.060134,421.952007L175.895763,420.148901L174.540851,420.097261L173.699615,419.297410L173.437240,417.688147L173.615791,415.493635L172.357035,415.305332L170.396448,416.050485L168.459426,416.726043L166.524384,417.362422L166.097238,416.010594L166.600038,413.487775L166.796904,411.398688L166.460171,410.009858L166.010564,408.777522L164.856057,408.412726L164.110801,407.549537L163.816726,406.157811L162.599276,405.858491L159.419487,407.802690L157.557505,408.182549L156.660259,407.453004L155.675248,406.819370L157.076347,403.580315L157.357132,401.610705L155.867574,401.552721L154.442846,401.408311L152.928112,401.340597L150.936954,401.740921L150.159086,400.886768L149.059239,400.354173L148.612044,399.172998L149.269766,396.929529L149.282976,395.339638L149.047992,394.004099L147.718777,393.702319L145.174052,394.505876L143.233500,394.718023L142.941448,393.424275L142.211284,392.529524L141.242377,391.844127L140.655514,390.824562L139.390712,390.385614L138.499337,389.621561L138.468880,388.140849L137.038945,387.820069L136.181442,387.022244L136.345584,385.408134L136.121774,384.117602L135.859465,382.867145L133.790357,383.007818L130.476180,384.059858L128.415990,384.125172L128.847797,382.333077L129.408034,380.470577L130.576221,378.198393L130.807171,376.622902L128.393742,376.902835L128.331990,375.536976L127.214975,374.895753L125.871256,374.396776L126.679998,372.470187L126.888406,370.959426L126.920510,369.576650L127.324014,367.971913L126.987880,366.844456L126.286868,365.944849L126.062432,364.756082L125.481679,363.785275L125.284923,362.589757L124.544977,361.713820L123.973175,360.739378L123.102158,359.931997L121.928634,359.285747L121.482467,358.234535L122.863227,356.209726L124.817090,353.915688L124.795476,352.684315L124.605243,351.546741L120.947045,352.150995L117.981256,352.362734L116.671297,351.732175L115.261365,351.136240L116.863643,349.113964L116.839014,347.874382L115.525563,347.225594L115.001970,346.212028L113.201947,345.755715L112.710612,344.716450L112.525432,343.547437L112.533378,342.302418L112.434822,341.107504L112.228812,339.960500L112.985394,338.439842L112.237676,337.514510L111.834435,336.454343L111.414643,335.400235L109.790835,334.781408L109.770699,333.575887L110.869377,331.987193L110.513958,330.914218L110.307901,329.791672L111.072387,328.355407L108.834643,327.890752L107.706235,327.053790L108.339980,325.669809L106.791469,324.947515L107.742868,323.483243L108.333226,322.138952L107.439567,321.216589L107.601223,320.002221L106.538004,319.114949L106.012298,318.079857L105.905495,316.937472L105.077200,315.971343L104.826430,314.862199L104.534138,313.762613L104.676237,312.566670L104.900018,311.358540L104.667088,310.251192L104.478143,309.134990L103.977383,308.079548L104.404846,306.846970L104.619610,305.661213L103.389033,304.731425L103.273237,303.602064L101.856323,302.681661L100.481240,301.738346L101.065523,300.491870L101.547176,299.269724L102.074519,298.049972L103.590155,296.713993L103.167037,295.632713L102.638949,294.559531L101.831662,293.510913L101.005874,292.455111L101.244518,291.290155L100.320235,290.231123L100.324535,289.086389L100.099452,287.959908L99.869165,286.831937L100.719296,285.636027L100.903453,284.488419L100.857897,283.355040L100.444995,282.237007L99.714442,281.125306L98.891023,280.007247L98.824679,278.862293L99.178284,277.710328L99.164372,276.566470L99.545450,275.421613L99.908962,274.281679L99.442307,273.137606L97.133188,271.955770L98.444058,270.829139L98.899787,269.693452L98.763131,268.541541L100.757305,267.479275L99.311578,266.271464L98.111411,265.057858L99.602214,263.996558L100.762544,262.930906L101.492968,261.846806L101.357938,260.699872L98.366435,259.295989L98.111430,258.112783L98.560831,256.996663L99.626248,255.951819L101.678887,255.033099L100.385316,253.732165L100.167775,252.550492L99.648505,251.323270L99.731976,250.172508L100.997802,249.196049L100.082187,247.896173L100.472015,246.792734L101.904356,245.867507L101.604962,244.655856L102.999148,243.745287L103.464106,242.675619L103.383540,241.502905L104.646691,240.597519L104.923051,239.500238L105.023162,238.365586L103.971506,236.972966L103.040502,235.590258L102.193302,234.211071L102.195048,233.022825L102.690104,231.954076L102.549974,230.725223L103.687837,229.827420L104.914519,228.965401L105.904209,228.050529L107.752270,227.389599L106.889405,225.959487L105.666792,224.405199L105.545236,223.165719L105.730928,222.015886L108.258028,221.613441L107.373223,220.125336L106.986853,218.786109L106.315108,217.338451L105.159406,215.706625L108.822435,215.769825L109.211271,214.690016L109.665725,213.634511L109.589072,212.378757L108.133918,210.583650L110.848244,210.401340L111.248755,209.325517L112.281240,208.507536L112.140166,207.210174L110.892628,205.434896L111.681520,204.512438L111.720040,203.265413L113.183068,202.648666L114.419583,201.944361L114.489809,200.712225L115.372365,199.855964L116.169044,198.964850L116.981789,198.086387L118.617186,197.620008L120.162566,197.126692L121.128849,196.354326L121.499502,195.280082L122.319900,194.440695L122.329329,193.171573L123.238212,192.383341L123.986760,191.512733L124.685697,190.617764L125.846054,189.988352L126.423892,189.032358L126.770699,187.940996L126.856967,186.690481L127.541561,185.793321L127.357910,184.365012L127.515589,183.135457L127.006670,181.476704L125.513309,179.166498L125.353882,177.684888L125.207440,176.197171L127.765284,176.503814L129.816139,176.502606L130.017102,175.255512L131.038170,174.571938L129.306233,171.948229L128.740283,170.113778L130.386320,169.862893L131.687228,169.376778L132.918208,168.850743L134.149944,168.336237L134.975742,167.521156L135.510161,166.482009L136.837550,166.064504L137.060823,164.777795L136.410893,162.773457L136.457755,161.311181L138.344158,161.363496L139.841562,161.113280L141.127239,160.699125L141.486015,159.495289L140.848882,157.409555L141.233459,156.198963L142.864114,156.100588L144.961518,156.447916L146.102848,155.943761L147.017014,155.235874L147.172846,153.812338L147.810656,152.836108L148.410966,151.819460L149.286214,151.068760L150.731983,150.889627L150.830189,149.363606L151.763628,148.674816L152.553353,147.839758L153.253990,146.909955L154.603065,146.667691L155.839695,146.318289L156.485363,145.333579L156.636368,143.794882L157.475796,143.008974L157.693249,141.514745L159.006442,141.264420L161.041448,141.870766L161.772776,140.969881L162.959310,140.610609L163.422923,139.382563L163.850510,138.096649L165.478231,138.293590L166.586966,137.858597L167.689028,137.422374L168.159328,136.172369L168.701848,135.002337L169.419976,134.053634L170.019650,132.937438L170.761949,132.004940L171.511944,131.076099L172.168371,130.008212L173.687040,130.161843L174.503643,129.320591L175.024542,128.039372L175.731987,127.018343L176.614016,126.250565L178.130080,126.451406L179.118788,125.855914L180.613037,126.058976L181.537603,125.373876L183.030729,125.610050L184.309300,125.517259L185.328578,125.005549L185.798663,123.563628L185.618614,120.975355L186.064123,119.420341L186.446370,117.723031L187.247090,116.745748L187.924979,115.530852L188.905044,114.857651L190.235218,114.842375L191.255807,114.249981L192.668372,114.420561L194.204677,114.859400L195.320437,114.482750L197.079485,115.428185L198.557624,115.837459L200.091189,116.394824L201.851184,117.475603L203.308388,117.947003L204.807518,118.544719L205.509108,117.370721L205.209444,113.859003L204.923224,110.267822L205.336189,108.235060L205.630355,105.853767L206.568806,105.000162L207.749666,104.744620L208.967088,104.590497L210.467895,105.192908L211.735438,105.210136L213.270207,105.976456L215.230377,107.979650L216.996415,109.529183L218.784379,111.224611L219.827113,110.791265L219.893074,107.383634L220.112067,104.315180L220.668662,102.196675L221.588345,101.177674L222.759806,100.965596L224.061863,101.205283L225.502985,101.959340L227.180753,103.615827L228.372171,103.585821L229.494692,103.310281L230.440745,102.352112L231.470435,101.690013L232.619583,101.495512L233.705896,101.041026L234.984479,101.409538L235.866285,100.042684L237.005291,99.791803L238.341218,100.478164L239.253216,99.140783L240.340165,98.617547L241.702768,99.525781L242.745983,98.771800L243.979937,99.058169L245.062461,98.490326L246.058590,97.361549L247.158853,96.818832L248.266805,96.295291L249.553765,96.991464L250.614394,96.111245L251.783488,95.993584L253.058461,96.739708L254.156391,96.066784L255.311316,95.847986L256.461781,95.574468L257.512642,94.250650L258.655182,93.767180L259.910590,94.574124L261.094271,94.604424L262.290115,94.829542L263.512786,95.536661L264.667608,95.241072L265.848692,95.402395L267.028350,95.596447L268.174780,94.998710L269.320802,94.158412L270.511380,94.687689L271.701495,95.587264L272.905342,98.652100L274.065036,100.955249L275.196305,101.828068L276.325157,101.532943Z" />
<line x1="50" y1="550" x2="100" y2="550" fill="none" stroke="black" stroke-width="1.0" stroke-linejoin="round" stroke-miterlimit="10" />
<text x="125" y="553" style="text-anchor:start;fill:black">GC-content</text>
</g>
<g style="fill:pink;stroke:black">
<a href="" title="LR698974:1 [434500-457099];"><path  d="M502.154084,238.930315L502.748990,242.900194L503.274522,246.879851L503.730519,250.868074L504.116842,254.863647L484.193638,256.614634L484.193638,256.614634L483.840908,252.966502L483.424563,249.325081L482.944730,245.691482L482.401555,242.066810Z" />
</a><a href="" title="LR698974:2 [961000-989099];"><path  d="M278.609969,504.971668L274.595861,504.999645L270.581875,504.957562L266.569235,504.845431L262.559163,504.663287L258.552881,504.411186L259.983065,484.462387L259.983065,484.462387L263.640975,484.692567L267.302345,484.858872L270.966060,484.961252L274.631003,484.999676L278.296059,484.974132Z" />
</a><a href="" title="LR698974:3 [996000-1018099];"><path  d="M252.461677,503.893040L248.470375,503.464831L244.487154,502.967029L240.513228,502.399786L236.549807,501.763275L239.893302,482.044729L239.893302,482.044729L243.512078,482.625891L247.140445,483.143809L250.777299,483.598324L254.421531,483.989298Z" />
</a><a href="" title="LR698974:4 [1245000-1265099];"><path  d="M93.684664,416.508830L91.242609,413.322888L88.856529,410.094812L86.527150,406.825585L102.916094,395.362491L102.916094,395.362491L105.042918,398.347437L107.221513,401.294811L109.451215,404.203714Z" />
</a><a href="" title="LR698974:5 [1294500-1312099];"><path  d="M73.343655,385.610661L71.443946,382.074426L69.606242,378.505575L67.831103,374.905195L85.845790,366.217787L85.845790,366.217787L87.466569,369.505090L89.144472,372.763606L90.878989,375.992343Z" />
</a><a href="" title="LR698974:6 [1773500-1791099];"><path  d="M161.831843,74.767714L165.343615,72.823154L168.888788,70.940179L172.466284,69.119362L181.382260,87.022026L181.382260,87.022026L178.115850,88.684511L174.878952,90.403749L171.672553,92.179217Z" />
</a><a href="" title="LR698974:7 [1804000-1825099];"><path  d="M182.220584,64.543401L185.907689,62.956231L189.621932,61.433651L193.362183,59.976125L200.461123,78.673853L200.461123,78.673853L197.046112,80.004638L193.654847,81.394819L190.288360,82.843975Z" />
</a></g>
<text x="275" y="280" style="text-anchor:middle" font-size="25" font-weight="bold">LR698974</text>
<path  style="fill:pink;stroke:black" d="M350,550L375,550L375,565L350,565Z" />
<text x="405" y="565" style="text-anchor:start;fill:black">Selected loci;</text>
</svg>