<svg xmlns="http://www.w3.org/2000/svg" viewbox="0 0 550 650">
<circle cx="275" cy="275" r="240" fill="none" stroke="black" stroke-width="1.0" />
<line x1="275" y1="15" x2="275" y2="55" fill="none" stroke="grey" stroke-width="1.0" stroke-linejoin="round" stroke-miterlimit="10" />
<line x1="495" y1="275" x2="535" y2="275" fill="none" stroke="grey" stroke-width="1.0" stroke-linejoin="round" stroke-miterlimit="10" />
<line x1="275" y1="495" x2="275" y2="535" fill="none" stroke="grey" stroke-width="1.0" stroke-linejoin="round" stroke-miterlimit="10" />
<line x1="15" y1="275" x2="55" y2="275" fill="none" stroke="grey" stroke-width="1.0" stroke-linejoin="round" stroke-miterlimit="10" />
<text x="275" y="10" style="text-anchor:middle" font-size="15">MAG: Methanosarcinales archaeon Met12 chromosome, complete genome.</text><text x="285" y="25" style="text-anchor:start">1,067,436</text><text x="525" y="265" style="text-anchor:start">0.26 Mbp</text><text x="285" y="530" style="text-anchor:start">0.53 Mbp</text><text x="-200" y="25" style="text-anchor:end" transform="rotate(-90)">0.8 Mbp</text><circle cx="408.252125" cy="75.390704" r="2.500000" fill="grey" stroke="black" stroke-width="1.0" />
<circle cx="496.653024" cy="182.967740" r="2.500000" fill="grey" stroke="black" stroke-width="1.0" />
<circle cx="510.447910" cy="321.521840" r="2.500000" fill="grey" stroke="black" stroke-width="1.0" />
<circle cx="444.993573" cy="444.417192" r="2.500000" fill="grey" stroke="black" stroke-width="1.0" />
<circle cx="322.321237" cy="510.288547" r="2.500000" fill="grey" stroke="black" stroke-width="1.0" />
<circle cx="183.721083" cy="496.964320" r="2.500000" fill="grey" stroke="black" stroke-width="1.0" />
<circle cx="75.844426" cy="408.929300" r="2.500000" fill="grey" stroke="black" stroke-width="1.0" />
<circle cx="35.001384" cy="275.815125" r="2.500000" fill="grey" stroke="black" stroke-width="1.0" />
<circle cx="74.939283" cy="142.426588" r="2.500000" fill="grey" stroke="black" stroke-width="1.0" />
<circle cx="182.215458" cy="53.660829" r="3.000000" fill="black" stroke="black" stroke-width="1.0" />

<circle cx="275" cy="275" r="185" fill="white" stroke="grey" stroke-width="0.5" />
<circle cx="275" cy="275" r="170" fill="none" stroke="black" stroke-width="0.5" />
<circle cx="275" cy="275" r="170" fill="aliceblue" stroke="black" stroke-width="0.5" />
<circle cx="275" cy="275" r="157" fill="white" stroke="none" stroke-width="0.5" />
<circle cx="275" cy="275" r="140" fill="none" stroke="black" stroke-width="0.5" />
<circle cx="275" cy="275" r="140" fill="aliceblue" stroke="black" stroke-width="0.5" />
<circle cx="275" cy="275" r="133" fill="white" stroke="none" stroke-width="0.5" />
<circle cx="275" cy="275" r="110" fill="none" stroke="black" stroke-width="0.5" />
<circle cx="275" cy="275" r="110" fill="white" stroke="black" stroke-width="0.5" />
<circle cx="275" cy="275" r="107" fill="aliceblue" stroke="none" stroke-width="0.5" />
<circle cx="275" cy="275" r="80" fill="none" stroke="black" stroke-width="0.5" />

<g style="fill:none;stroke-linejoin:round;stroke-miterlimit:10">
<path style="stroke:blue;stroke-width:1.0" d="M278.576150,123.123099L280.326120,124.243065L282.160162,123.049950L283.882513,124.263784L285.651168,124.452688L287.532937,123.253838L289.454163,121.975180L291.771230,117.298013L293.966302,114.633824L295.206475,119.831827L296.551786,123.455370L298.562335,122.241246L300.939048,119.041737L302.771751,119.366163L305.179078,116.676348L306.677834,118.832000L307.379534,124.489485L309.690023,122.503345L311.511980,122.800829L312.925532,124.729573L315.396064,122.528722L316.982988,123.754085L318.551475,124.979090L320.875727,123.650743L323.551912,121.360741L324.014928,126.022753L324.622537,129.950517L325.476157,132.938391L327.118547,133.614316L328.716854,134.401262L330.512303,134.679343L332.176717,135.302555L335.704180,131.525699L338.227838,130.330912L339.690207,131.609100L339.764043,135.839416L340.173827,139.162485L343.311160,136.818441L348.870569,129.897979L348.143831,135.414590L347.734222,140.083777L348.172409,143.014734L350.159926,143.115258L351.262840,144.768174L353.017676,145.297591L354.171991,146.819462L356.122183,147.055832L359.355931,145.356008L360.941148,146.260879L362.454119,147.276578L365.233496,146.489344L371.205807,141.357018L374.414659,140.273261L378.997765,137.480699L380.169968,139.281667L377.473548,145.928672L373.479688,153.914131L373.528365,156.726333L375.915775,156.720138L380.808433,153.902307L389.123420,147.448050L391.720953,147.595462L393.753546,148.401779L387.814901,157.535164L386.718049,161.385207L389.356999,161.407809L388.847121,164.546280L394.698584,161.574008L397.878835,161.275785L395.349300,166.219011L396.308654,167.919525L396.188406,170.538011L396.013496,173.147090L397.339752,174.467309L396.759895,177.322270L400.537718,176.698013L396.076140,182.470091L396.557498,184.348936L396.976569,186.251632L397.898065,187.775205L398.815939,189.297551L401.790722,189.428510L404.973627,189.489973L403.420720,192.661291L403.283568,194.864412L404.473359,196.224809L405.287223,197.816376L407.915010,198.358988L407.450434,200.690663L407.637584,202.625252L410.333037,203.208925L414.340280,203.172219L413.033221,205.890469L411.513789,208.649487L412.357941,210.226956L411.809276,212.443642L413.291911,213.723683L413.246136,215.680982L417.569149,215.803559L419.089803,217.151320L417.393438,219.769823L418.971474,221.098864L416.593924,223.881293L417.480701,225.449182L419.595942,226.614001L420.217056,228.299782L419.517899,230.394914L421.669343,231.615266L420.000662,233.958882L421.493038,235.393124L420.845288,237.404961L423.857922,238.491687L424.684421,240.151842L428.058135,241.260837L429.775386,242.788068L430.552842,244.532243L430.020417,246.527244L427.833641,248.784892L424.781396,251.120038L426.139243,252.724731L432.727632,253.647698L441.048260,254.508846L442.148700,256.367962L434.962567,259.073144L427.761418,261.604301L426.235659,263.530437L430.192503,265.066309L433.765737,266.712988L439.495556,268.354606L437.040754,270.363691L429.786525,272.394433L426.583259,274.233100L427.184106,276.021666L428.579205,277.839349L428.842433,279.656419L433.932118,281.683965L432.597596,283.487444L434.265662,285.458948L432.268133,287.188716L426.614040,288.547825L426.566567,290.344122L425.712590,292.052336L427.412608,294.064436L428.908436,296.094573L433.868385,298.682956L428.396795,299.716614L424.318362,300.866459L425.427391,302.886434L426.808319,304.995140L428.243387,307.157632L433.148344,310.135609L423.434546,309.816096L421.458554,311.176777L423.046375,313.423677L425.956759,316.081778L425.882259,317.975535L425.805378,319.879567L424.359692,321.370212L419.858778,321.849522L418.244171,323.197265L417.558447,324.842323L419.128331,327.303313L420.312724,329.677495L421.139943,331.961599L416.706757,332.164291L414.271761,333.097586L413.155605,334.550951L412.250049,336.086460L412.372165,338.088673L411.485956,339.638016L410.295188,341.035100L412.205743,343.979302L410.715834,345.243806L409.957728,346.878275L407.568444,347.621838L407.207445,349.460785L405.267854,350.402000L404.981593,352.293297L408.519390,356.539812L413.395167,361.770620L413.936345,364.405568L416.896365,368.690686L420.468738,373.527945L422.361756,377.361236L417.041385,376.165141L407.465803,371.715677L399.338507,368.045422L394.767180,366.843759L393.626740,368.207297L392.250275,369.379208L392.830081,372.153816L391.143234,373.082427L393.441478,377.436146L393.521568,379.969581L391.934104,381.046028L388.246518,380.157807L386.030982,380.561703L386.720741,383.750025L385.070396,384.696545L388.158076,390.460655L387.616514,392.647156L384.395220,392.008964L382.996747,393.273962L377.367170,389.793914L374.131213,388.835079L372.430790,389.578511L372.674887,392.644292L370.802125,393.192498L371.338650,396.757082L372.224600,400.894633L373.814216,406.115157L370.591442,404.995016L371.047579,408.889684L365.435302,404.252128L364.218772,405.764083L361.619715,405.221535L357.379916,402.066382L356.299676,403.694305L355.083780,405.137696L354.243410,407.234850L351.584313,406.278272L349.701438,406.585693L347.949056,407.097161L347.607422,410.215970L345.050179,409.221116L343.027852,409.173772L342.208076,411.518141L342.195622,415.647420L338.932245,412.969372L336.809209,412.611703L336.026772,415.264694L335.633476,418.970307L331.952792,414.809543L330.097765,414.949071L328.772939,416.446842L327.583829,418.378204L325.827249,418.803230L325.317281,422.878455L323.875142,424.384222L321.834239,424.061465L319.659986,423.221077L317.685204,422.950453L315.876765,423.211455L314.483397,425.028434L313.016451,426.687664L311.076148,426.486560L309.213709,426.561400L307.045437,425.165075L305.120131,424.759697L303.439965,425.553464L301.696416,426.051923L300.097135,427.453913L298.402937,428.409128L296.753635,429.800365L294.720163,428.414946L292.650968,426.391067L290.863789,426.552549L289.344011,429.589418L287.395359,428.168358L285.452919,426.299670L283.676906,426.514268L281.891602,426.582939L280.116792,426.954496L278.318045,426.567855L276.576798,430.873991L274.740635,431.528789L272.947111,427.855409L271.154831,427.542005L269.337147,428.086153L267.604913,426.583548L265.911752,424.987470L264.077431,425.826575L262.363757,424.962062L260.615738,424.631374L258.645655,426.391824L256.680569,427.722779L254.839313,427.834946L253.261274,426.059871L251.690611,424.471621L249.078424,429.270520L247.066099,430.053815L244.394661,434.123398L241.680096,437.875057L240.986370,431.839709L239.114325,431.550802L235.847035,437.021971L231.812217,444.931448L228.252573,450.268230L227.479718,445.098246L227.516196,437.558216L226.980703,432.479030L226.401892,427.901626L224.128601,428.759661L222.578018,427.405921L221.188188,425.656426L219.699052,424.254921L218.217337,422.886426L216.041589,423.311365L215.576381,419.502520L215.524658,414.922272L214.295297,413.270089L211.154457,415.894260L208.642058,416.968933L207.536030,415.014320L207.143267,411.690724L206.598591,408.809261L204.724752,408.571324L201.351435,411.071040L194.046100,420.451314L189.811434,423.907085L196.456807,408.616793L196.560524,404.914927L194.618001,404.657684L193.278132,403.418130L192.578680,401.211959L190.853430,400.598874L188.473650,400.919564L184.984827,402.748298L182.360749,403.239076L182.484175,399.942808L181.516480,398.190432L180.670227,396.312982L176.799261,398.268748L175.743338,396.628202L177.513914,391.628303L177.040376,389.429827L175.822184,388.129407L173.716923,387.823290L171.403767,387.702337L167.659678,389.051059L169.963574,384.003006L169.026942,382.415030L167.190617,381.733426L162.691318,383.599819L160.059596,383.555613L157.534392,383.352839L159.106305,379.404650L161.062912,375.237515L160.820133,373.090888L159.434226,371.940483L158.740187,370.213644L155.521795,370.521799L151.330363,371.508467L148.996172,370.964898L152.213835,366.250565L152.784983,363.611972L151.881608,362.074220L149.120699,361.821954L149.360683,359.491197L147.966974,358.273592L147.519022,356.437900L145.307157,355.716951L140.574474,356.482798L126.728144,362.505755L134.904474,355.471847L140.193775,350.337091L139.644250,348.566624L138.779017,346.972618L139.578082,344.523647L140.212400,342.204946L138.971659,340.835657L138.482891,339.099755L135.923703,338.314047L133.008987,337.633606L132.756548,335.754811L133.462672,333.492761L134.816741,331.010274L134.574215,329.198992L132.726375,327.996384L131.613114,326.497136L129.309916,325.396025L127.997313,323.920180L128.086118,321.976957L124.750652,321.101062L124.312889,319.301307L128.604310,316.173618L129.560188,314.063168L129.064323,312.360111L127.997334,310.794715L128.600131,308.827394L127.121441,307.340110L125.792910,305.794745L126.477059,303.834916L125.088769,302.277190L122.385959,300.916734L120.352939,299.392548L121.774922,297.322882L124.069278,295.177106L125.329042,293.217942L119.354752,292.088230L108.032509,291.344455L107.564230,289.402471L116.977403,286.720497L124.197190,284.401392L124.780951,282.590895L122.938827,280.890258L123.041063,279.095413L123.822099,277.293815L121.906797,275.520412L122.437902,273.722541L122.213234,271.921593L121.408244,270.095971L123.116055,268.359870L122.244891,266.519029L121.681081,264.675951L121.543050,262.850372L112.639789,260.220228L115.603715,258.595880L120.941356,257.310028L121.477791,255.537894L121.641838,253.721443L120.777686,251.747896L119.599700,249.695844L122.129948,248.256839L126.607401,247.235915L127.365069,245.574748L127.739465,243.842557L128.163145,242.121587L128.720248,240.433051L129.221923,238.734459L128.025641,236.594040L129.319708,235.094330L129.452541,233.282646L130.004743,231.587395L126.082320,228.495858L130.151586,227.888102L131.642928,226.499698L133.086006,225.118480L130.988175,222.468274L129.465309,219.963034L128.947270,217.792945L129.521100,216.033064L133.043867,215.505789L136.819233,215.166023L137.159370,213.376356L137.545923,211.597212L137.739423,209.715970L136.969247,207.345789L134.348113,203.995446L137.820490,203.709669L141.676585,203.707823L142.727419,202.254527L140.088897,198.721229L140.328906,196.750579L145.895777,197.938061L146.849410,196.446544L146.926692,194.404480L146.753310,192.171875L146.798929,190.046066L145.605578,187.045737L144.165723,183.796838L145.857276,182.698093L149.704146,183.199995L152.084111,182.700475L153.941502,181.846466L154.560247,180.044419L155.776355,178.705787L155.758452,176.349445L154.704546,173.068474L153.829609,169.851622L154.497844,167.918848L158.030387,168.567390L163.622627,171.233013L166.029015,171.051891L167.030193,169.551566L168.649188,168.657952L169.644812,167.143451L171.075530,166.071770L172.587254,165.094351L173.586960,163.565353L174.167939,161.548994L175.743963,160.638837L177.275492,159.688765L178.293553,158.127958L179.081272,156.261268L176.478260,150.058181L174.597130,144.542809L176.631182,144.024073L179.004596,144.000582L183.907900,147.572156L187.248317,149.139106L190.208721,150.280927L190.735919,147.862716L191.512611,145.755912L193.429194,145.400571L195.165057,144.782902L197.459480,145.118317L199.211467,144.588957L200.897522,143.963222L201.218819,140.870376L201.540378,137.650469L203.801253,138.024306L205.036646,136.438996L207.327763,136.961256L208.609877,135.443498L207.356892,128.384890L211.298533,132.543174L212.191035,129.981563L216.128237,134.561524L218.211967,134.929886L220.017909,134.661780L221.388012,133.268694L223.044362,132.603929L224.453674,131.232489L226.782691,132.518078L228.414042,131.808740L230.039497,131.067119L231.061413,128.291998L232.942119,128.310118L235.193266,129.727869L236.804050,128.878546L238.660044,128.974161L239.765543,125.950385L241.431362,125.138485L243.552440,126.428734L245.247584,125.787737L247.203309,126.500826L248.921359,126.000834L250.727253,126.011289L252.411922,125.265619L254.151418,124.831646L255.899082,124.426390L257.546451,123.110764L259.209803,121.693174L260.932676,120.607169L262.953409,123.003661L264.733099,122.716979L266.525338,122.585445L268.421607,124.811837L270.122342,122.627840L271.880033,120.781553L273.653161,115.719891L275.516136,119.392319L277.282130,123.770668Z" />
<line x1="50" y1="575" x2="100" y2="575" fill="none" stroke="blue" stroke-width="1.0" stroke-linejoin="round" stroke-miterlimit="10" />
<text x="125" y="578" style="text-anchor:start;fill:black">n1_4mer:GRV/n1_4mer:RV</text>
<path style="stroke:green;stroke-width:1.0" d="M277.143602,183.962518L278.140187,186.116355L279.339152,182.916277L280.310414,184.882298L281.578410,182.018468L282.724082,181.478440L284.025357,179.449423L284.950635,181.432925L286.085678,181.267030L287.006063,182.803862L287.349133,188.165210L289.320652,182.156695L290.414645,182.319605L291.662045,181.625334L293.799028,176.377676L294.947747,176.659953L295.799401,178.317676L297.822402,174.673173L298.759920,175.957436L299.663638,177.276507L301.850579,173.654928L302.218503,176.943917L303.257164,177.663102L305.007300,176.002495L306.278831,176.020244L306.457846,179.386205L305.396891,186.148167L304.693066,191.430947L306.432659,189.730395L307.088193,191.012216L308.240643,190.976303L308.953149,192.043712L311.351561,189.083101L312.345726,189.550737L314.368758,187.736070L314.186529,190.798644L313.710813,194.317602L316.780875,190.484580L317.681023,191.162787L316.884549,195.068832L318.866761,193.630632L319.339515,195.022276L320.578811,195.021877L321.309372,195.918837L323.461448,194.434072L322.884175,197.474865L322.099270,200.716041L321.430703,203.642106L325.956359,198.667801L326.579223,199.670502L334.200648,190.686363L337.120068,188.706755L339.108275,188.120471L339.536112,189.662003L342.107716,188.399733L340.924340,191.964503L340.162337,194.879537L338.897166,198.297701L339.094567,199.876993L342.080496,198.226409L347.188774,194.317009L347.515826,195.846729L348.721846,196.408203L346.748823,200.293878L345.843906,202.953310L349.386930,201.110563L350.394783,201.852483L353.765579,200.361992L356.226613,199.824867L354.096250,203.506702L355.203886,204.203153L356.306049,204.915807L354.648451,207.962630L354.196831,209.920004L351.943748,213.274498L351.667176,214.965965L348.640444,218.721830L348.707444,220.032941L348.706715,221.372072L350.771905,221.222189L351.086848,222.334493L356.697380,219.862161L354.736066,222.541411L348.421983,227.924487L351.126135,227.445877L354.740184,226.483855L351.883995,229.453052L356.463770,228.026631L354.955650,230.142077L354.317131,231.719980L359.681928,230.078178L363.199931,229.534286L362.606719,231.137666L357.977750,234.669889L358.982480,235.396896L358.672591,236.740514L357.927566,238.255293L357.048652,239.794347L364.545774,237.819508L364.635522,239.013438L365.124480,240.043396L365.776915,241.014248L360.556541,244.112094L359.299750,245.682896L359.892222,246.592598L362.221957,246.950372L361.326275,248.355612L361.666327,249.364135L361.699312,250.460548L364.438055,250.818906L360.998964,252.831753L368.273007,252.124226L370.547359,252.755538L376.931192,252.530936L374.136135,254.367737L374.357094,255.539168L373.196915,256.964074L370.510878,258.617298L369.054570,260.004683L365.462958,261.667349L371.850883,261.888859L376.594491,262.462751L379.345775,263.368594L376.644680,264.879631L367.894302,266.854068L367.849119,267.958415L376.543578,268.500314L379.239453,269.559068L382.702952,270.648949L380.863231,271.971042L373.107082,273.348535L365.619647,274.541531L366.775680,275.616123L370.410260,276.763930L370.312333,277.884862L375.603717,279.230937L376.591888,280.471247L375.806944,281.619974L372.350308,282.544918L364.200516,282.970720L365.043942,284.115765L371.767043,285.948681L373.504173,287.321333L370.463930,288.084214L372.752748,289.572277L369.568931,290.237761L366.939784,290.926753L363.743607,291.451410L360.581351,291.909644L366.506286,294.202300L361.729312,294.268537L360.011570,294.939907L363.206038,296.787803L363.650390,298.008155L368.789273,300.524065L367.402078,301.318725L370.071289,303.293144L368.459654,304.015485L362.952137,303.445052L362.858410,304.561657L363.390755,305.903820L365.285341,307.764013L368.770866,310.283600L369.953064,312.010267L363.719238,310.789206L358.074750,309.654853L359.199742,311.293676L356.492883,311.270382L356.670995,312.507706L356.858920,313.767345L355.359918,314.222202L358.533745,316.996051L356.798966,317.337512L356.080912,318.183567L354.476899,318.537951L355.884052,320.554848L350.949186,318.961118L354.171925,322.079429L357.077205,325.124255L359.754887,328.139385L356.596977,327.507672L352.856534,326.406758L351.778452,327.003084L350.039355,327.124251L350.517876,328.785568L349.054127,329.068257L346.277338,328.338505L346.228938,329.622088L345.745067,330.585751L343.904856,330.464141L341.163525,329.553463L342.352551,331.878919L346.989045,337.260962L351.089305,342.389106L350.231610,343.226575L347.621929,342.434858L345.515291,342.041775L344.729970,342.875812L346.164965,345.923256L347.829694,349.311657L347.459129,350.695919L346.055812,351.001191L345.450025,352.154209L339.101876,346.883449L335.447846,344.413912L333.322391,343.587074L334.477123,346.637083L333.285711,346.907943L333.023549,348.332749L333.741224,351.063104L334.123540,353.450171L334.206729,355.515364L337.540720,362.181346L332.331708,356.939742L331.453062,357.740804L329.842848,357.449126L325.292526,352.573389L324.616763,353.541455L323.169224,353.275923L325.680120,359.570793L322.868683,357.054897L320.038913,354.335509L318.483206,353.739991L321.028866,360.719030L318.183516,357.742682L316.494544,356.841178L317.290278,360.903220L318.525049,366.102451L314.994237,361.309808L313.125428,359.882255L312.363502,360.876738L312.826935,364.817636L309.355396,359.336729L308.763773,360.760442L309.002654,364.442164L309.008255,367.728934L308.024722,368.435348L308.287665,372.829777L307.307362,373.745701L305.323067,371.510604L304.384909,372.524949L301.565743,367.079065L299.817404,364.983235L299.559285,368.320011L298.166552,367.435777L297.401676,369.066385L296.561029,370.511998L294.795961,367.763970L294.695508,372.927639L293.776577,374.398106L292.050751,371.475448L290.756818,370.715651L290.187079,374.553169L289.196418,376.022688L287.817200,374.712671L286.134975,370.503871L285.207992,372.520661L284.409694,376.410901L283.208528,376.432058L281.521479,369.394459L280.351544,368.447512L279.130668,365.855319L278.032102,365.045004L276.992013,365.994882L275.999107,373.766515L274.834314,374.992818L273.724116,370.000639L272.725856,365.217754L271.693673,364.381252L270.624192,364.694759L269.695546,362.541807L268.236669,368.392874L267.396144,365.239636L266.568981,362.703140L265.546334,362.512381L263.729143,368.961244L262.502188,369.743914L261.741342,367.132868L261.172116,363.671407L260.910801,358.850922L259.377296,361.717562L258.014385,363.311676L256.753287,364.193967L256.177390,361.792640L256.218371,356.934618L253.727668,363.028712L251.490209,367.504235L250.670171,366.218841L249.867193,364.962566L249.556749,362.103585L248.740767,361.117018L247.070667,362.872565L245.994771,362.668793L243.454508,366.711903L242.554590,365.837109L241.086592,366.530853L239.705620,366.921714L238.285847,367.355373L238.612248,363.485386L239.059295,359.554456L238.862093,357.313088L236.404757,360.171930L235.120189,360.320521L235.870245,356.209659L235.908966,353.745049L234.685754,353.864158L233.732993,353.435707L228.935647,360.107217L223.380564,367.745561L220.076586,371.004497L223.722935,362.231964L227.983133,352.871413L226.833591,352.693328L225.401669,352.939051L224.631895,352.128796L224.458469,350.439313L222.649279,351.184653L219.984877,353.076707L219.132450,352.336581L217.422370,352.758705L216.000813,352.747771L216.871675,349.756042L216.900105,347.931236L215.558561,347.838993L216.307260,345.217556L216.488553,343.349126L215.661688,342.685580L214.005924,342.943752L211.380658,344.211479L206.605695,347.670202L211.936586,340.444931L210.963620,339.907721L208.683910,340.654243L203.324719,344.308289L200.815939,345.063232L201.036162,343.225857L202.636728,340.189586L205.254388,336.359536L206.759907,333.624445L207.318256,331.773738L206.554877,331.054705L202.385828,333.054407L197.836508,335.216319L195.121275,335.835879L200.395981,330.443208L201.365860,328.388417L200.281448,327.843930L201.003424,326.037202L202.712349,323.612729L197.951379,325.507459L196.573358,325.100816L196.319884,323.968154L195.231879,323.351900L194.144909,322.718333L198.213672,319.106602L197.705119,318.196607L194.702484,318.642159L187.722905,321.113021L191.436796,317.900136L192.071806,316.347905L188.607518,316.812653L190.968565,314.455820L185.800901,315.607610L189.526670,312.703110L187.291025,312.462127L187.063131,311.341440L190.633920,308.708499L187.941117,308.601405L184.161045,308.837165L183.948069,307.701133L181.434867,307.365352L180.020823,306.607575L183.154162,304.368484L184.369717,302.808123L186.303898,301.076240L186.091695,300.005358L187.641025,298.463440L189.877048,296.791813L189.826182,295.739573L188.499562,294.986933L182.475216,295.234588L179.207899,294.770464L184.440556,292.581620L185.160725,291.346760L181.879430,290.813624L183.542773,289.425588L182.620101,288.458538L187.459579,286.702802L188.290517,285.554274L184.975374,284.883768L181.300993,284.172200L176.943440,283.434618L182.145441,281.887000L188.355799,280.401598L188.957167,279.347932L181.322330,278.628708L184.228025,277.446376L183.352484,276.390563L179.049223,275.326167L177.852169,274.186545L182.019736,273.126598L181.744575,272.022449L182.797831,270.969065L180.532156,269.755141L175.949454,268.330225L172.626845,266.894823L169.101675,265.359996L174.167852,264.622953L179.668946,264.053495L180.866928,263.066692L180.567097,261.897366L179.052836,260.534042L176.682460,258.990749L182.201069,258.765710L187.918749,258.707198L186.163346,257.293886L183.540726,255.649010L183.514332,254.515336L183.979840,253.491287L182.818826,252.067881L189.155138,252.567827L186.302600,250.703445L185.013557,249.207751L184.270952,247.835081L175.615792,243.964214L183.814999,245.342109L186.618111,245.098801L190.053809,245.142162L185.533162,242.364851L182.367107,239.968947L183.160243,239.027499L185.327805,238.653185L188.161991,238.605949L190.897228,238.582462L188.815949,236.470175L190.936343,236.224357L192.105330,235.573544L191.235983,233.944015L186.813147,230.481094L187.090100,229.314417L195.522591,232.500958L195.724551,231.401168L186.305753,224.852251L190.556005,225.934580L199.627070,230.010115L199.667427,228.822812L197.273487,226.087320L196.591511,224.359877L196.750535,223.147080L195.363906,220.868347L191.993769,217.137253L193.147571,216.497786L197.074936,217.906960L196.019945,215.692602L196.969240,214.955962L195.170376,212.061741L198.471318,213.189533L199.261015,212.339853L200.158438,211.583517L199.658566,209.620747L198.673978,207.174838L201.286752,207.927081L205.177770,209.948704L209.869897,212.871985L208.039301,209.603006L210.662705,210.668007L212.012051,210.516580L213.144126,210.165887L212.252622,207.661787L212.293710,206.097093L210.304003,202.207419L211.877491,202.271290L216.053456,205.445302L212.822710,199.857265L215.354631,201.164414L212.957751,196.320193L208.106646,188.082971L211.893349,190.974876L213.405662,190.945742L217.852727,195.057241L221.851722,198.770239L223.437772,199.157375L220.867126,193.324551L222.478456,193.693120L224.917016,195.428319L226.125089,195.281160L225.909148,192.771992L229.289101,196.344222L231.180487,197.513146L230.348933,193.827122L229.637412,190.184286L230.946156,190.247022L231.493247,188.835758L232.137769,187.569040L233.738193,188.264908L232.710279,183.337859L236.891503,189.777231L237.010717,187.287258L239.843345,191.133867L242.027597,193.672157L242.238373,191.378071L242.993794,190.386810L242.361686,185.547384L242.712639,183.165955L245.579440,188.062384L246.873614,188.547928L247.142075,185.817915L247.698177,183.841041L249.909108,187.487746L252.114582,191.481133L253.506049,192.773291L252.909585,186.233483L252.443155,179.579513L253.551259,179.245716L255.839744,184.479036L256.200990,180.720501L257.731688,182.746930L259.155400,184.472575L260.522226,186.133880L261.755690,187.204635L262.892279,187.790400L263.768379,186.460499L264.709166,185.444178L265.589334,183.631958L266.368475,180.266592L267.711723,183.041090L268.678774,181.240898L269.802045,181.516157L271.038548,184.557974L272.076131,183.661846L273.083803,180.283299L274.182068,178.269580L275.306961,182.455558L276.341012,186.135465Z" />
<line x1="50" y1="625" x2="100" y2="625" fill="none" stroke="green" stroke-width="1.0" stroke-linejoin="round" stroke-miterlimit="10" />
<text x="125" y="628" style="text-anchor:start;fill:black">n0_4mer:PS</text>
<path style="stroke:red;stroke-width:1.0" d="M277.899538,151.858370L279.281073,153.823347L280.870321,150.422427L282.269159,151.642394L284.114124,146.177801L285.018600,153.696901L286.477318,153.490742L287.690461,155.670003L289.328993,153.843765L290.924394,152.714488L291.984925,155.567941L293.636753,154.174658L294.894470,155.384705L296.151291,156.467441L298.618770,151.092640L299.430290,154.561544L301.929997,149.820689L303.349636,150.375561L304.624327,151.511819L305.929193,152.450817L308.255177,149.481353L308.719748,153.522842L310.237130,153.619351L313.699925,147.324535L314.162202,151.073847L314.928304,153.640872L315.102956,157.776790L316.086712,159.364327L317.008753,161.039872L317.791146,162.998260L319.541259,162.411285L320.676168,163.401359L321.622854,164.806906L322.981239,165.216046L324.705242,164.824446L326.244113,164.890124L325.503445,169.738996L327.906734,167.978907L330.908278,165.180836L330.052808,169.938936L331.247639,170.665083L332.277067,171.686073L335.280804,169.223973L336.159299,170.560050L338.866974,168.822775L340.125489,169.560940L336.805052,177.522396L339.560668,175.778729L342.338208,174.127928L345.236718,172.421938L347.900161,171.175501L351.993661,168.045307L353.882726,168.098136L354.288879,170.153985L356.737532,169.520444L356.162256,172.771471L355.553235,175.955632L354.370071,179.723991L354.193553,182.179998L357.693965,180.356803L364.740999,174.699471L365.919717,175.758311L365.245282,178.793255L363.466898,182.886728L363.283243,185.217888L366.137546,184.471973L368.249001,184.530439L372.625266,182.490613L373.417031,183.915155L372.124066,187.211770L373.837053,187.755453L375.442856,188.420262L374.481912,191.269486L374.318652,193.384898L373.352453,196.100094L372.531141,198.628491L369.610050,202.696247L371.961912,202.691005L371.776178,204.587068L375.851582,203.422318L375.959994,205.117893L377.298577,205.958342L376.228653,208.401375L374.376305,211.283516L377.474761,210.986538L377.492079,212.640970L375.728733,215.327160L377.018972,216.174159L377.898596,217.270280L383.012196,216.062290L386.474122,215.865533L387.910199,216.796521L386.795687,219.026898L383.447299,222.290790L385.123172,223.069890L385.603127,224.426464L381.638809,227.748983L385.057979,227.776031L389.216330,227.575994L387.729134,229.741894L391.858081,229.674228L392.615259,230.966304L387.488412,234.389061L388.122266,235.659228L387.715364,237.282167L389.835527,238.070149L388.583925,239.942607L390.169004,240.933054L393.388854,241.491112L394.772205,242.617554L395.791945,243.863047L395.327181,245.489025L397.437256,246.495278L404.716278,246.406168L401.846772,248.600585L401.038027,250.313238L399.446298,252.142823L395.707849,254.295336L394.794961,255.900838L392.735299,257.647885L396.375918,258.568794L402.680877,259.243565L406.342780,260.359242L403.398017,262.215904L400.403528,264.003323L404.107441,265.208619L403.510120,266.774217L406.902483,268.115155L407.110350,269.662924L405.698799,271.260447L403.779608,272.832215L395.310606,274.391317L397.004063,275.819057L398.556668,277.284297L396.184386,278.667943L404.419458,280.442796L403.426197,281.916413L403.829606,283.460217L399.120930,284.619716L396.307002,285.839669L393.666529,287.013426L397.997100,288.916474L399.555409,290.579936L397.886609,291.842745L399.019510,293.487937L398.671149,294.926962L394.936045,295.776552L389.684316,296.260334L390.415108,297.804365L393.909720,299.952822L392.677924,301.144349L387.737484,301.443164L389.616007,303.311338L389.346616,304.677305L394.551379,307.535033L395.302166,309.265460L397.184578,311.362038L394.166778,311.996519L388.391358,311.672482L396.246500,315.795724L397.275817,317.750962L399.688477,320.248706L394.863530,320.101608L396.151037,322.221565L389.655917,321.252023L384.280081,320.586476L383.571142,321.798787L385.950968,324.381417L385.007858,325.521514L381.577070,325.473547L388.134464,330.218857L388.609382,332.116384L388.006022,333.489661L388.128480,335.252052L384.547290,335.010703L385.067318,336.991205L378.195517,334.731915L378.452708,336.517948L379.067342,338.553553L382.629838,342.481459L380.980195,343.198278L379.591937,344.059488L377.773139,344.609638L378.922552,347.187257L377.707864,348.150903L373.927400,347.228683L372.451264,347.925067L368.233892,346.496642L370.527452,350.057745L365.262509,347.655729L364.200512,348.548029L364.519295,350.598633L368.198250,355.604107L370.178378,359.295497L372.377318,363.310232L368.353269,361.685447L367.483205,362.927571L363.809132,361.447648L364.607723,364.303373L367.147723,369.022776L365.050811,369.073431L362.961389,369.083371L362.414907,370.733508L357.293062,367.282933L354.405681,366.183713L353.442936,367.248815L353.465665,369.507788L358.228427,377.680140L359.205222,381.422314L359.281024,384.134197L358.664199,386.012818L354.101517,382.570330L353.215446,384.031809L351.029410,383.662910L349.281323,383.870913L344.699248,379.783801L341.889621,378.173474L343.174274,382.917291L345.331843,389.290608L343.282084,388.943495L341.689777,389.317388L340.372976,390.153718L335.652156,384.829763L334.785133,386.337169L331.899270,384.023041L332.547330,388.502663L332.813434,392.435034L334.026541,398.548684L330.147078,394.010489L326.215728,389.026433L323.448545,386.354739L322.840068,388.593179L320.983847,387.882625L319.599671,388.283770L318.915733,390.517987L318.611203,393.912906L318.051304,396.803103L317.754032,400.650671L316.229572,401.015951L313.610489,397.887360L313.147887,401.608210L309.247652,393.705199L306.854635,390.498909L306.659160,395.298014L305.401676,396.304309L304.922963,400.648857L303.127121,399.598762L301.733236,400.272073L301.511529,406.817440L300.468789,409.824863L299.669930,414.585791L297.663315,412.669538L295.517806,409.496740L293.231597,404.737299L291.379742,402.427812L289.945828,403.189278L288.260584,401.683185L286.973467,404.041401L285.202592,401.072537L283.570665,399.055186L282.298499,402.444828L280.905834,404.900653L279.448018,407.093764L277.828376,404.199841L276.351757,408.627620L274.790633,401.354636L273.362311,396.940152L271.956065,395.756210L270.604670,393.820718L269.236631,393.136807L267.898296,392.202643L265.583602,405.028308L264.454448,400.150551L263.367757,396.003673L262.298139,392.580858L260.634919,394.756722L258.917131,396.921662L257.698799,395.224029L256.648738,392.677601L255.349748,391.947160L253.585091,393.868588L251.930230,394.944442L249.606234,399.130342L249.013173,394.827445L247.428838,395.278846L245.558627,396.833666L243.638910,398.396827L241.563615,400.361681L240.494538,398.511865L239.410564,396.838494L238.942024,393.251943L237.975837,391.487144L236.832446,390.362076L234.770916,391.957628L234.010577,389.757704L232.140297,390.676526L229.544432,393.385809L229.001574,390.710196L228.096588,389.056689L226.875692,388.217718L226.359225,385.791486L224.670310,386.067493L223.971263,384.172997L223.852074,381.152100L220.672636,384.437140L217.969247,386.565581L216.011874,387.118026L209.058281,396.832086L204.515491,401.640774L204.408530,398.391794L206.276864,391.911023L209.892334,382.834194L211.915639,376.756268L208.304742,379.805244L206.855759,379.349434L210.048774,371.947515L206.530124,374.642443L206.270296,372.540252L205.297018,371.488755L201.593258,374.135952L199.720922,374.201037L201.538615,369.475152L201.048127,367.829798L198.595694,368.625135L196.423868,369.005220L196.038611,367.237369L193.266204,368.231493L193.004794,366.337755L193.349951,363.827084L189.978531,365.336869L189.865113,363.349909L188.557283,362.618940L185.184728,363.918899L181.721003,365.198568L182.837440,362.043049L181.014463,361.694309L179.931464,360.643980L180.076814,358.509808L183.097387,353.952701L183.264172,351.951118L179.938646,352.852679L177.927311,352.608781L177.517757,351.072528L175.270941,350.953954L177.794090,347.240176L175.668542,347.020253L175.014425,345.713773L176.841484,342.702268L175.481592,341.925144L173.376445,341.616995L171.212823,341.301732L174.488016,337.555657L170.331222,338.445575L165.181255,339.811843L168.174706,336.361194L173.522841,331.710986L172.264502,330.837331L163.821609,333.741317L164.573868,331.691174L167.356945,328.670707L163.976836,328.733530L160.815849,328.613618L155.109575,329.579739L153.241734,328.708746L160.330590,323.977428L158.510153,323.141454L161.104643,320.506933L162.077033,318.583954L157.369769,318.816814L157.228816,317.297304L154.535442,316.670200L154.827881,314.991390L157.523039,312.564252L158.301098,310.806766L159.513519,308.952486L160.223301,307.280814L159.845265,305.929006L158.704230,304.772178L154.870382,304.251207L155.257492,302.667900L153.967296,301.469090L148.787994,301.048806L153.748051,298.540402L153.613201,297.087009L154.227462,295.509448L156.181549,293.741285L155.142915,292.461604L161.407080,290.185619L159.032065,289.115612L157.484487,287.901981L146.402430,287.588422L147.994715,285.924726L155.603381,283.855618L158.637081,282.254331L158.973607,280.863066L154.506084,279.667465L156.827451,278.184843L155.616964,276.811393L151.886798,275.418501L149.738127,273.951136L144.490674,272.370448L142.255783,270.761612L147.066540,269.406948L142.281202,267.631446L142.636323,266.087016L146.425132,264.820358L138.047678,262.533127L148.140093,261.944331L150.348710,260.686764L150.446081,259.210222L149.023268,257.520637L143.054697,255.106602L142.596010,253.440381L147.397823,252.677213L150.940184,251.788550L150.700388,250.225732L151.351605,248.838423L149.887689,246.985955L148.474575,245.101139L151.950347,244.388660L159.565845,244.835831L160.394226,243.606459L154.737041,240.529783L155.281516,239.155439L146.307111,234.811673L157.117286,236.658686L153.710069,233.965413L156.109576,233.211063L160.921094,233.387016L154.204899,229.318823L156.703309,228.664644L154.815162,226.285501L154.455773,224.479579L155.030485,223.051720L154.193587,220.991749L158.931992,221.461862L162.910337,221.687789L165.039650,221.104179L164.577490,219.255984L161.449118,215.989146L160.706335,213.883623L160.566626,212.065491L159.931762,209.940390L162.454338,209.606361L170.539597,212.647886L170.263150,210.798645L170.199121,209.049636L171.533491,208.176155L170.718755,205.896818L168.879629,202.865986L169.010604,201.115937L172.071538,201.434157L172.984616,200.256803L169.969375,196.130808L171.963884,195.714543L168.188287,190.788866L174.268024,193.641085L177.405826,194.258684L179.604113,194.166951L178.105195,190.917317L179.064762,189.749610L181.799615,190.195408L185.632704,191.739147L186.610110,190.684328L186.869882,188.927948L191.068838,191.075754L189.901732,187.881314L190.634350,186.572309L190.344577,184.150866L191.507358,183.256639L192.884886,182.608332L191.071493,178.298964L193.423319,178.742592L193.174221,176.111599L192.836039,173.288429L192.798293,170.754675L190.440035,165.128085L191.523903,163.853405L195.554374,166.585113L200.206361,170.371914L207.145402,177.677190L206.032057,173.555395L205.679795,170.409972L207.395757,170.344089L206.039644,165.436013L208.766330,166.967652L209.015481,164.474813L212.599116,167.625386L215.657656,170.063838L217.457514,170.391320L216.312760,165.270808L216.441898,162.343010L217.203482,160.535168L217.708282,158.135579L221.234838,161.982014L222.750407,161.750032L225.556632,164.428838L226.463513,162.935017L229.452739,166.347097L232.126939,169.251761L232.461052,166.422095L232.291412,162.093463L232.167114,157.606874L233.207420,156.130525L234.568038,155.523741L237.159873,158.690800L238.465323,158.040868L239.204132,155.479992L240.891479,156.035974L242.908887,157.885536L244.527561,158.425415L246.238078,159.425183L245.713926,151.113373L246.974293,149.883962L249.093351,152.606288L249.833305,148.785728L252.341614,153.951366L253.587988,152.663415L255.870009,157.578074L257.626373,159.831760L258.883000,158.912328L260.431302,160.154132L261.323949,155.984381L262.509256,153.727521L263.985469,154.112430L265.265192,152.172294L266.559133,149.801482L267.983449,148.809185L269.514678,149.767221L271.033058,151.077491L272.545842,153.692166L273.958176,151.791533L275.400601,154.224650L276.816860,154.602604Z" />
<line x1="50" y1="600" x2="100" y2="600" fill="none" stroke="red" stroke-width="1.0" stroke-linejoin="round" stroke-miterlimit="10" />
<text x="125" y="603" style="text-anchor:start;fill:black">n0_4mer:D</text>
<path style="stroke:black;stroke-width:1.0" d="M279.242307,94.831786L281.417283,93.357479L283.551641,93.520538L285.697759,93.459066L287.853566,93.323234L289.840146,95.318631L291.843856,96.675723L293.744974,98.738657L295.629248,100.573081L297.726411,100.480907L299.877882,100.067426L302.118455,99.186293L303.979132,100.763268L306.155650,100.402675L308.307203,100.265766L310.528416,99.849086L313.258344,97.162877L315.302088,97.832818L317.303287,98.659926L319.067285,100.394417L321.225381,100.526493L323.215929,101.299588L325.421237,101.314956L327.763394,100.927546L329.484991,102.585914L331.370254,103.666782L333.367132,104.389571L335.170641,105.653947L336.913582,107.042631L339.047144,107.362712L340.790819,108.697926L342.672971,109.657503L344.556272,110.603782L346.396641,111.640200L348.551288,111.967821L350.776657,112.176259L352.461068,113.552998L353.636059,115.932972L354.538979,118.763671L356.657038,119.168251L359.381670,118.478684L361.867018,118.312983L365.067333,116.956909L366.612058,118.556762L368.118753,120.192434L370.388028,120.565475L370.472315,124.423111L371.174687,127.192131L373.088516,128.064224L374.896233,129.105342L378.043597,128.245182L380.757410,128.088538L382.538937,129.263241L383.734361,131.217359L385.450096,132.467839L387.306921,133.542973L388.222920,135.786565L389.725896,137.282780L391.566381,138.376609L392.837637,140.134890L395.192371,140.664986L396.951252,141.886429L398.321678,143.531883L400.215849,144.623081L401.514101,146.337948L403.277188,147.580717L404.543989,149.317283L405.696968,151.151975L407.705558,152.181165L409.559561,153.374680L411.281954,154.702430L413.342055,155.751908L413.464183,158.459445L414.304955,160.526153L414.950553,162.729434L413.998650,166.157464L416.829817,166.609527L417.895550,168.436161L419.867985,169.596172L423.249896,169.782177L423.070002,172.509466L423.893236,174.511448L423.384410,177.377465L424.470740,179.164781L427.104783,179.983885L428.511835,181.599133L429.084451,183.718629L430.007566,185.620051L430.961801,187.499962L432.771200,188.910895L435.209428,190.012569L436.643299,191.675354L437.355902,193.712755L436.986053,196.269069L438.105198,198.085479L439.078936,199.974527L438.202023,202.686162L440.443619,204.011014L440.817564,206.150535L440.688464,208.479964L442.917011,209.869989L443.484772,211.921389L445.226922,213.544113L445.277356,215.782280L446.140511,217.731417L445.731714,220.094547L446.820172,221.968137L448.403603,223.707282L449.512663,225.605778L451.035442,227.405835L451.111405,229.603161L452.556394,231.453212L453.482890,233.447246L454.423611,235.449000L455.439789,237.446779L455.476780,239.650452L453.507311,242.213383L452.402318,244.570699L451.921087,246.793100L451.041193,249.054621L452.895387,250.917498L454.481753,252.851088L455.500383,254.879652L456.197459,256.958867L456.795807,259.058265L457.469510,261.161693L456.958543,263.353046L457.170437,265.491345L456.632691,267.662289L455.819238,269.826402L455.892613,271.954981L455.278353,274.087924L455.751646,276.213451L454.812378,278.324343L454.923229,280.445819L455.371254,282.585598L454.919919,284.689616L454.356769,286.778327L452.709981,288.773015L452.610240,290.870776L452.224528,292.941654L453.528978,295.199613L453.489696,297.326272L452.607595,299.342762L451.047497,301.243895L450.479502,303.274770L451.686567,305.607460L449.285804,307.309339L447.642401,309.111655L447.583685,311.216131L444.814418,312.727446L447.425667,315.443339L450.263091,318.291795L449.487192,320.286077L450.437777,322.744107L449.839519,324.799240L449.313050,326.875432L447.950039,328.694071L448.031548,330.961022L447.917668,333.181486L446.831326,335.076920L447.334356,337.539111L446.036259,339.356609L444.358242,341.011496L443.256373,342.874366L441.638029,344.513497L439.924159,346.089338L439.795400,348.346186L437.511799,349.634143L437.017379,351.729374L437.956617,354.536136L436.294164,356.089600L436.871641,358.781529L436.359633,360.939889L435.281928,362.803461L434.095575,364.604496L431.926092,365.832395L429.868098,367.092008L426.799415,367.703358L425.326857,369.251519L422.367122,369.830775L419.727815,370.560223L417.754418,371.689499L416.103167,373.013861L416.477162,375.763288L416.795670,378.527581L417.829197,381.882439L417.781270,384.492171L417.603052,387.045944L415.232115,387.878165L411.588268,387.620406L410.892951,389.760973L409.958051,391.720788L410.483830,394.992345L410.654682,398.023479L408.198470,398.684677L406.343606,399.873746L403.923849,400.495693L403.048547,402.613633L401.266115,403.835420L399.740688,405.312924L399.188361,407.831686L397.346282,408.989031L395.236267,409.832209L393.788443,411.408013L391.396932,411.882676L388.763255,412.021889L389.803071,416.634245L389.795558,420.083744L388.660379,422.177069L387.461646,424.223735L384.504770,423.915782L381.425154,423.355954L379.420457,424.240021L378.241146,426.316069L376.300343,427.291960L374.289685,428.148749L372.693565,429.645211L371.108703,431.178506L369.083544,431.998838L367.140608,432.944352L365.305729,434.072465L362.610960,433.647139L360.388319,434.017689L358.701292,435.377617L356.977093,436.686361L355.874172,439.277754L354.667596,441.752557L352.152395,441.499199L349.428900,440.708117L346.689939,439.773050L344.240590,439.407348L342.616348,440.986782L340.987370,442.608815L339.556092,444.811349L337.681701,445.911663L335.831994,447.109201L334.143973,448.819393L332.295784,450.121457L329.773075,449.328759L327.579993,449.506619L325.074974,448.564007L322.815547,448.370171L320.644014,448.437456L318.434993,448.307936L316.542369,449.439648L314.535502,450.136111L312.794552,452.105452L311.029924,454.143659L309.127359,455.660985L307.048258,456.333368L305.045368,457.512227L302.789136,457.161199L300.352238,455.408269L298.060916,454.404667L295.989315,455.023819L293.760558,454.226443L291.814536,456.214954L289.662928,456.188507L287.541847,456.535644L285.463943,457.719123L283.324701,458.104396L281.174051,458.352136L279.004766,457.937168L276.857236,458.596682L274.699021,456.643081L272.579169,455.251903L270.534556,452.149004L268.467453,451.596932L266.336581,452.581650L264.109795,454.725997L261.821406,456.979372L259.733555,456.176292L257.705843,454.901373L255.771811,452.994938L253.566081,453.687189L251.585008,452.505312L249.594941,451.536791L247.535810,451.114314L245.996849,447.610311L244.020051,446.961635L242.200896,445.529233L240.436200,443.955500L238.356879,443.964514L236.543514,442.765933L234.400886,443.006394L232.404337,442.601626L230.598558,441.472523L228.655340,440.890122L226.642564,440.549049L224.310530,441.235851L221.951890,441.902428L219.896512,441.551222L217.321584,442.687902L215.095010,442.715439L212.812052,442.842643L210.087649,444.059623L208.212779,443.004932L206.215845,442.264867L204.119492,441.754179L202.452821,440.244280L201.750949,436.645908L199.958968,435.545894L198.323813,434.133302L196.389070,433.353999L193.113466,435.189342L190.214699,436.150409L187.424915,436.801291L184.942567,436.807795L183.286082,435.313207L182.203438,432.864463L180.739156,431.118975L179.599482,428.882839L177.640179,427.991683L175.866382,426.803539L175.658764,423.278739L174.592688,421.120169L172.533846,420.418559L170.367844,419.840667L167.360650,420.367158L165.339412,419.508200L164.459270,417.161113L163.159491,415.390383L161.767470,413.754102L159.700903,412.939050L157.686674,412.037516L156.073328,410.656384L154.467891,409.265560L153.454020,407.229866L152.051461,405.635075L150.600189,404.097627L148.474445,403.247184L147.168911,401.555311L146.137288,399.607172L145.515483,397.291819L144.700486,395.191113L142.960220,393.950103L141.184230,392.726023L139.200711,391.663937L137.568544,390.282158L135.427844,389.305823L133.877065,387.826575L133.603333,385.342167L131.767152,384.086572L131.325715,381.773916L129.542285,380.464086L127.616754,379.235289L127.377543,376.818727L125.348850,375.638917L123.850361,374.082685L123.558310,371.744576L123.554973,369.254861L123.899145,366.590643L126.621166,362.568890L124.592406,361.395171L121.435903,360.820016L119.370800,359.585360L115.136077,359.464411L114.453105,357.422446L113.975019,355.286875L111.555641,354.104594L110.567834,352.206892L108.555289,350.773432L107.240151,349.000488L107.771738,346.426286L107.612601,344.175752L107.007206,342.121585L106.217014,340.143789L105.192374,338.252695L103.647680,336.540871L102.627900,334.625669L103.278322,332.146271L104.201198,329.614362L104.825022,327.214850L105.073701,324.957539L103.269832,323.298911L101.059056,321.718187L100.121470,319.769596L99.472938,317.740321L98.994134,315.668204L98.307743,313.641484L96.971315,311.743214L96.526557,309.649642L96.684505,307.445505L97.288589,305.178739L97.945893,302.926821L97.035596,300.927077L96.507273,298.861720L97.330814,296.625885L99.946726,294.219029L102.208583,291.914560L101.797234,289.898536L99.863488,287.989832L97.027600,286.095207L94.661904,284.112876L94.742012,281.982492L95.872018,279.827641L94.977591,277.731471L93.870280,275.615717L93.513051,273.480342L91.668663,271.306170L90.700245,269.115496L92.156149,267.006351L91.501500,264.812155L92.382547,262.703073L94.421811,260.703106L93.606623,258.487625L95.243706,256.500548L94.902624,254.320099L93.670276,252.012718L93.594347,249.829834L92.555784,247.492879L94.027439,245.531859L95.088814,243.526250L96.504016,241.603606L98.393044,239.800308L97.767812,237.501142L98.465527,235.471958L98.930926,233.393621L100.075911,231.483739L102.971018,230.047002L102.089364,227.635221L102.827181,225.651187L102.018832,223.208215L100.337408,220.456215L103.428763,219.196512L104.144951,217.196632L105.344415,215.367555L106.246090,213.443012L104.830870,210.647009L105.611880,208.652761L105.547307,206.315771L106.021718,204.180731L108.392932,202.857084L109.436365,200.982387L113.020987,200.284711L114.521417,198.672996L114.645278,196.403948L114.800431,194.127292L113.777932,191.215077L114.543925,189.199147L115.532247,187.298096L117.152517,185.752994L118.992363,184.353174L120.435266,182.740755L120.796635,180.476774L122.121104,178.794520L122.760166,176.675902L123.334202,174.496892L124.445142,172.662191L126.050033,171.168586L127.526779,169.596776L128.717320,167.823662L130.159105,166.236634L130.429025,163.753805L131.051625,161.510049L132.708845,160.074687L134.283543,158.582888L136.464966,157.613291L137.667624,155.826689L139.360424,154.467368L142.295955,154.250366L143.497968,152.483466L145.374531,151.349449L147.044860,150.032942L147.985606,147.996073L148.991594,145.999881L150.536201,144.543513L151.773771,142.758075L153.440063,141.427545L154.522631,139.445112L155.856345,137.724653L157.739281,136.636773L158.906026,134.697670L160.542172,133.311535L161.831045,131.483096L162.834543,129.259241L164.332778,127.649018L166.525848,126.971550L169.090249,126.843891L171.392261,126.397008L172.804417,124.681024L174.456767,123.300802L176.134251,121.949178L177.490015,120.076456L179.588471,119.376259L181.497610,118.381914L183.561403,117.659538L185.801526,117.268693L188.007998,116.853922L190.034947,116.138438L191.570803,114.494760L193.156171,112.909955L194.750823,111.306642L197.725299,112.563383L199.946653,112.323341L202.361934,112.558085L204.408450,112.012498L206.003410,110.408768L207.997461,109.735372L209.601045,108.073409L211.491056,107.104612L212.970602,104.994530L214.797939,103.768951L216.898027,103.308942L219.062474,103.064827L221.097862,102.442099L223.028969,101.472206L225.044366,100.764260L227.241032,100.706701L229.274027,100.071884L231.387810,99.751946L233.534418,99.591333L235.659623,99.371531L237.621155,98.406893L239.641520,97.672593L241.738406,97.305498L243.795927,96.716905L246.031560,97.188623L248.352442,98.355687L250.530056,98.747664L252.584605,98.298181L254.776221,99.002874L256.771365,98.018409L258.727909,96.409233L260.802801,95.868638L262.913397,95.726392L264.998308,95.122202L267.137895,95.504018L269.316702,97.460613L271.408284,97.463185L273.500965,97.720766L275.587083,98.002974L277.709552,95.446800Z" />
<line x1="50" y1="550" x2="100" y2="550" fill="none" stroke="black" stroke-width="1.0" stroke-linejoin="round" stroke-miterlimit="10" />
<text x="125" y="553" style="text-anchor:start;fill:black">GC-content</text>
</g>
<g style="fill:pink;stroke:black">
<a href="" title="CP017966:1 [415000-437099];"><path  d="M422.959346,451.090976L419.863600,453.646403L416.723727,456.147413L413.540683,458.593243L410.315439,460.983150L407.048976,463.316404L403.742290,465.592294L400.396388,467.810129L389.492354,451.044031L389.492354,451.044031L392.547308,449.019051L395.566457,446.941064L398.548879,444.810702L401.493667,442.628614L404.399925,440.395464L407.266765,438.111933L410.093316,435.778717Z" />
</a><a href="" title="CP017966:2 [613000-633599];"><path  d="M171.518979,480.406130L167.949908,478.568853L164.413446,476.669567L160.910670,474.708850L157.442646,472.687300L154.010431,470.605532L150.615071,468.464182L161.431152,451.641209L161.431152,451.641209L164.531263,453.596356L167.665025,455.497100L170.831481,457.342863L174.029668,459.133082L177.258612,460.867213L180.517328,462.544727Z" />
</a><a href="" title="CP017966:3 [810000-827599];"><path  d="M45.353705,262.249349L45.611211,258.243411L45.938590,254.242577L46.335745,250.248065L46.802552,246.261094L47.338871,242.282876L67.135491,245.127843L67.135491,245.127843L66.645808,248.760129L66.219593,252.400407L65.856974,256.047570L65.558062,259.700506L65.322948,263.358102Z" />
</a><a href="" title="CP017966:4 [948000-966099];"><path  d="M126.297761,99.535918L129.382679,96.967430L132.511954,94.453173L135.684632,91.993912L138.899747,89.590396L142.156320,87.243358L145.453358,84.953512L156.718283,101.479294L156.718283,101.479294L153.707944,103.570022L150.734552,105.712970L147.799012,107.907485L144.902219,110.152897L142.045055,112.448523L139.228390,114.793665Z" />
</a></g>
<text x="275" y="280" style="text-anchor:middle" font-size="25" font-weight="bold">CP017966</text>
<path  style="fill:pink;stroke:black" d="M350,550L375,550L375,565L350,565Z" />
<text x="405" y="565" style="text-anchor:start;fill:black">Selected loci;</text>
</svg>