<svg xmlns="http://www.w3.org/2000/svg" viewbox="0 0 550 650">
<circle cx="275" cy="275" r="240" fill="none" stroke="black" stroke-width="1.0" />
<line x1="275" y1="15" x2="275" y2="55" fill="none" stroke="grey" stroke-width="1.0" stroke-linejoin="round" stroke-miterlimit="10" />
<line x1="495" y1="275" x2="535" y2="275" fill="none" stroke="grey" stroke-width="1.0" stroke-linejoin="round" stroke-miterlimit="10" />
<line x1="275" y1="495" x2="275" y2="535" fill="none" stroke="grey" stroke-width="1.0" stroke-linejoin="round" stroke-miterlimit="10" />
<line x1="15" y1="275" x2="55" y2="275" fill="none" stroke="grey" stroke-width="1.0" stroke-linejoin="round" stroke-miterlimit="10" />
<text x="275" y="10" style="text-anchor:middle" font-size="15">MAG: Candidatus Nitrosoabyssus spongiisocia isolate AB1(1)</text><text x="285" y="25" style="text-anchor:start">1,455,463</text><text x="525" y="265" style="text-anchor:start">0.36 Mbp</text><text x="285" y="530" style="text-anchor:start">0.72 Mbp</text><text x="-200" y="25" style="text-anchor:end" transform="rotate(-90)">1.09 Mbp</text><circle cx="375.418980" cy="57.018284" r="2.500000" fill="grey" stroke="black" stroke-width="1.0" />
<circle cx="457.412513" cy="119.033096" r="2.500000" fill="grey" stroke="black" stroke-width="1.0" />
<circle cx="505.935958" cy="209.665605" r="2.500000" fill="grey" stroke="black" stroke-width="1.0" />
<circle cx="512.085957" cy="312.286041" r="2.500000" fill="grey" stroke="black" stroke-width="1.0" />
<circle cx="474.734073" cy="408.065022" r="2.500000" fill="grey" stroke="black" stroke-width="1.0" />
<circle cx="400.733843" cy="479.428474" r="2.500000" fill="grey" stroke="black" stroke-width="1.0" />
<circle cx="303.663250" cy="513.282224" r="2.500000" fill="grey" stroke="black" stroke-width="1.0" />
<circle cx="201.333360" cy="503.414593" r="2.500000" fill="grey" stroke="black" stroke-width="1.0" />
<circle cx="112.520246" cy="451.636150" r="2.500000" fill="grey" stroke="black" stroke-width="1.0" />
<circle cx="53.519843" cy="367.447500" r="3.000000" fill="black" stroke="black" stroke-width="1.0" />
<circle cx="35.157882" cy="266.296055" r="2.500000" fill="grey" stroke="black" stroke-width="1.0" />
<circle cx="60.803521" cy="166.741660" r="2.500000" fill="grey" stroke="black" stroke-width="1.0" />
<circle cx="125.751150" cy="87.051122" r="2.500000" fill="grey" stroke="black" stroke-width="1.0" />
<circle cx="218.083809" cy="41.846516" r="2.500000" fill="grey" stroke="black" stroke-width="1.0" />

<circle cx="275" cy="275" r="185" fill="white" stroke="grey" stroke-width="0.5" />
<circle cx="275" cy="275" r="170" fill="none" stroke="black" stroke-width="0.5" />
<circle cx="275" cy="275" r="170" fill="aliceblue" stroke="black" stroke-width="0.5" />
<circle cx="275" cy="275" r="161" fill="white" stroke="none" stroke-width="0.5" />
<circle cx="275" cy="275" r="140" fill="none" stroke="black" stroke-width="0.5" />
<circle cx="275" cy="275" r="140" fill="aliceblue" stroke="black" stroke-width="0.5" />
<circle cx="275" cy="275" r="133" fill="white" stroke="none" stroke-width="0.5" />
<circle cx="275" cy="275" r="110" fill="none" stroke="black" stroke-width="0.5" />
<circle cx="275" cy="275" r="110" fill="white" stroke="black" stroke-width="0.5" />
<circle cx="275" cy="275" r="109" fill="aliceblue" stroke="none" stroke-width="0.5" />
<circle cx="275" cy="275" r="80" fill="none" stroke="black" stroke-width="0.5" />

<g style="fill:none;stroke-linejoin:round;stroke-miterlimit:10">
<path style="stroke:blue;stroke-width:1.0" d="M277.626739,122.878914L278.996407,120.730935L280.389493,118.996743L281.718269,119.464133L283.086731,119.029512L284.358057,120.344530L285.542561,122.605378L286.854152,122.750433L288.697956,116.737889L289.491114,122.874573L290.739927,123.621569L292.021461,123.983611L293.543928,122.331142L294.815730,122.847247L295.771575,125.592418L297.045708,125.879135L298.639010,124.117824L300.332382,121.962034L301.605161,122.459254L303.281610,120.728555L304.543958,121.335035L306.405348,118.933343L307.970327,118.170034L307.962102,124.667902L309.034372,125.941078L310.196767,126.759727L311.419127,127.297097L312.633729,127.848840L313.925207,128.094696L315.270034,128.152092L316.158061,129.839586L317.258155,130.718168L318.858146,129.911152L320.306040,129.663733L322.685550,126.553835L322.822135,130.427410L323.972346,131.128366L324.820578,132.676684L326.130056,132.882707L328.240367,130.934142L329.737718,130.725759L330.991211,131.178318L332.131308,131.916409L332.707311,134.020613L333.615357,135.256003L334.513178,136.480724L335.516693,137.432121L337.471261,136.251603L338.169248,137.876329L339.574567,137.951916L341.031541,137.941396L342.217185,138.506934L343.121167,139.632809L346.405888,136.105164L348.551425,134.919444L348.981663,137.007950L351.900426,134.490629L350.479836,139.869789L351.680512,140.461940L353.620410,139.785501L353.766960,142.185749L353.720711,144.838392L353.786606,147.233712L355.047296,147.663362L356.238144,148.211848L358.901911,146.510371L362.737663,143.137300L366.478401,140.056197L367.636088,140.856805L366.116043,145.464204L366.357317,147.475327L365.040430,151.578492L366.767387,151.465670L367.732276,152.392501L372.948067,147.794208L374.712667,147.789881L373.287139,151.814060L372.907301,154.440096L372.638158,156.870464L375.454339,155.578092L377.396283,155.381395L377.251872,157.616920L376.103894,160.938282L376.830673,162.097332L378.273710,162.466352L379.773819,162.792058L380.957953,163.470053L382.089888,164.210104L384.309747,163.850185L385.462309,164.601214L386.430668,165.540071L387.688665,166.200074L388.312217,167.472762L389.372474,168.328143L389.051767,170.453888L388.933784,172.358121L388.927388,174.132142L389.518599,175.359168L391.189883,175.654537L391.610387,177.025119L394.593983,176.267164L393.832228,178.609139L395.219581,179.192775L396.820634,179.624920L396.526178,181.536522L398.969098,181.349956L399.538138,182.598059L399.886404,184.000902L397.406011,187.416143L398.676979,188.111375L401.328048,187.868146L403.536551,187.972950L404.285009,189.084711L405.685574,189.771357L405.758087,191.324221L404.369299,193.778705L406.729296,193.874172L411.902146,192.310184L414.855766,192.165701L421.947023,189.670789L422.044572,191.303377L422.250274,192.861343L419.892239,195.809120L420.705220,196.990949L416.695843,200.704393L415.753502,202.740906L419.755218,202.258798L425.075127,201.201447L428.185582,201.307409L428.049785,202.993279L427.198131,204.992449L421.638946,209.077457L416.350133,212.916497L415.163112,214.876053L416.851235,215.596696L419.725236,215.856572L429.878153,213.262557L429.990259,214.763397L424.608261,218.336978L421.444683,220.976249L418.182454,223.579733L417.406013,225.242411L418.116014,226.376705L419.830530,227.184953L424.318558,227.128949L421.530305,229.414204L420.740029,231.036491L421.844618,232.082942L422.057539,233.395416L426.581993,233.525478L424.736586,235.416761L423.600087,237.086768L421.886771,238.871725L421.238074,240.367467L421.599889,241.615809L422.177544,242.818292L423.040045,243.966487L423.301481,245.245993L423.076478,246.618815L425.389392,247.519469L424.782332,248.964716L424.803829,250.291490L425.066937,251.577150L434.409392,251.526952L432.921924,253.137299L425.741453,255.456248L424.764694,256.896242L424.130391,258.277984L424.533877,259.538807L424.530057,260.842905L425.530009,262.058510L426.986474,263.254286L426.871449,264.581408L427.739138,265.846078L427.131780,267.200042L426.213064,268.555595L426.310609,269.859767L429.435942,271.088165L436.356620,272.306632L439.985798,273.670757L441.364767,275.096058L443.818502,276.555087L432.231397,277.806133L427.364073,279.035421L426.036995,280.305562L426.672996,281.639484L428.857672,283.066597L428.796649,284.395554L429.651733,285.788768L430.705821,287.214047L429.266194,288.442180L430.943530,289.946021L425.593988,290.746588L424.816331,291.974135L425.119472,293.322558L426.374168,294.803554L425.099011,295.956380L427.813461,297.682121L428.584727,299.153628L426.630131,300.189637L423.934514,301.065136L422.965596,302.214244L423.184441,303.579326L422.669821,304.804708L423.257873,306.257949L428.119267,308.666241L423.598806,309.019937L425.066548,310.722268L421.806143,311.288281L422.364832,312.779380L424.767989,314.776633L428.610187,317.220186L437.090328,321.059793L431.367612,320.896326L430.502134,322.104298L422.487148,321.070339L419.241150,321.427006L418.547733,322.575444L417.895622,323.732552L419.042667,325.516169L419.481718,327.075307L419.464275,328.482784L417.535858,329.172693L415.775023,329.899089L416.723551,331.683516L419.756076,334.351203L424.323518,337.735261L418.580832,336.786414L418.607540,338.272925L413.153742,337.299842L412.183662,338.293287L411.780650,339.545454L412.530219,341.356988L411.207533,342.174683L413.130313,344.612016L414.362383,346.748399L413.535725,347.842743L412.240718,348.681283L408.930643,348.400806L406.485374,348.543945L405.489820,349.473427L406.270655,351.429097L408.843953,354.482525L413.473371,358.857244L409.359780,357.959975L406.668498,357.876925L403.684783,357.558627L406.238970,360.805723L402.664389,360.051013L404.657081,363.004251L406.455924,365.892887L405.659393,367.019623L410.221018,371.989533L398.957493,365.541572L396.008206,364.999735L400.218699,369.821351L405.423508,375.546155L404.283727,376.459066L397.501935,372.857635L393.935263,371.702365L395.523815,374.734737L392.940268,374.324799L390.762363,374.211562L390.568642,375.789184L390.614349,377.599851L390.606721,379.391115L387.235641,378.120116L386.913619,379.620471L385.808508,380.394807L383.392435,379.894074L384.610296,382.920750L385.098069,385.289182L385.409946,387.528168L380.515543,384.413721L379.092116,384.819683L377.946540,385.506558L376.838259,386.227051L378.421127,389.932635L379.306874,392.949320L378.038455,393.562224L374.169774,391.120589L372.420455,391.087042L371.714849,392.288006L372.949444,395.896820L370.852383,395.419369L369.991732,396.475966L367.606966,395.557014L366.318721,396.028788L364.741439,396.098949L364.292842,397.694091L363.679726,399.089487L363.308096,400.852449L361.730663,400.902438L361.946529,403.578075L361.048677,404.648668L358.673578,403.463765L356.110209,401.910878L355.224351,402.945969L353.658755,402.889287L353.044243,404.380259L352.218807,405.547175L351.376741,406.705521L350.241972,407.369186L349.030658,407.896013L348.337635,409.367786L346.968144,409.609444L345.970826,410.545805L344.021468,409.638927L343.575482,411.662781L343.101490,413.692631L341.639548,413.730098L341.720537,417.027660L339.046226,414.450885L339.738461,419.228512L344.093261,432.557713L345.323805,439.203997L345.836682,444.428933L340.033031,434.400969L335.897114,428.027836L332.759355,423.871711L331.552403,424.577852L331.660812,428.867654L329.389235,426.726076L327.248463,424.813657L325.272841,423.253258L322.441191,418.978370L323.646679,427.040927L324.141407,433.282753L322.606675,433.148637L321.374805,434.017822L317.345978,425.009943L315.708731,424.122621L313.790489,422.082689L312.394634,421.922866L311.365005,423.219567L310.040269,423.343100L308.632054,423.084695L307.130587,422.352928L305.951152,423.074470L304.462870,422.292935L303.248452,422.847381L302.065125,423.603055L301.344346,427.082722L300.558251,430.516936L300.079415,436.293756L297.504405,428.448166L295.615641,424.551992L294.333886,424.803591L292.945070,424.177550L291.784618,425.476158L290.485048,425.617813L289.164876,425.541972L287.804514,424.955047L286.489640,424.803022L285.196737,424.909843L284.107846,428.459592L282.964883,432.129274L281.612459,432.299230L280.360633,435.540357L278.932327,433.882526L277.479545,428.891306L276.155339,429.516424L274.820628,430.039276L273.482528,429.983388L272.063992,434.332733L270.874498,427.427419L269.573710,426.963534L268.039540,431.923802L265.994406,444.884435L264.650595,442.812339L263.262017,441.865216L261.909101,440.652546L260.934017,435.350472L259.840184,432.214776L258.646086,430.530679L257.174175,431.522499L254.874500,439.100375L253.097631,441.666040L252.803997,433.307740L252.259318,427.598987L251.531095,423.669331L250.203444,423.730719L248.401485,426.465212L246.845722,427.579515L246.408129,422.788815L244.655619,424.895668L242.200945,430.121990L239.708284,435.069798L240.277155,426.266050L239.198972,425.011439L237.639232,425.769798L235.414388,429.039176L231.098677,439.913068L229.500916,440.165205L229.115863,436.116977L229.962268,428.113972L230.488005,421.637993L229.488591,420.401670L228.830734,418.155872L227.141005,419.123521L225.394967,420.178486L222.362679,424.812877L220.935753,424.727898L220.941402,420.760118L220.289318,418.700546L219.486447,417.107300L218.812695,415.247108L217.936500,413.946952L216.780616,413.350162L215.521476,412.997377L214.166402,412.854527L212.669328,413.008618L210.819028,413.895986L210.301188,411.900005L208.675885,412.258778L207.341394,411.988572L204.946693,413.805737L201.013660,418.504881L198.603376,420.090464L199.591281,415.263170L199.542803,412.493705L200.532019,407.956488L199.365385,407.346186L197.476297,407.973403L197.694010,405.007115L195.953718,405.358468L195.170229,404.122720L193.777877,403.873742L192.126211,404.011456L189.410305,405.743060L187.403178,406.320726L185.457084,406.759604L185.488471,404.297850L182.728892,405.855321L183.186042,402.848813L183.526914,400.080540L181.764715,400.206931L181.943674,397.739983L176.463239,402.663941L177.277845,399.373503L178.398836,395.785421L179.006010,392.924335L178.813472,391.098948L177.659266,390.448487L176.315024,390.012961L174.336339,390.289758L173.603809,389.124712L173.489147,387.286110L173.266893,385.597300L172.017352,385.033722L170.692054,384.538623L168.109516,385.327406L167.795499,383.756686L167.091762,382.596463L165.797037,382.023187L164.738438,381.209914L161.434053,382.518117L163.888978,378.389436L163.705531,376.781476L163.203147,375.482227L161.763674,375.022113L160.622768,374.285124L156.708448,375.905330L158.981009,372.248810L157.264157,371.969557L156.357938,371.008820L156.928526,368.871753L154.802853,368.879515L152.377402,369.080713L153.521647,366.547492L151.815130,366.176678L147.516961,367.665118L151.823390,362.919544L151.884462,361.281223L150.214703,360.854499L150.486996,359.092546L149.570275,358.143861L148.243444,357.457017L146.386794,357.093241L147.394053,354.908158L145.350361,354.637940L145.004121,353.312878L145.163611,351.696837L143.406110,351.210126L144.516699,349.069965L143.478970,348.164870L140.984754,348.044445L139.858208,347.152082L137.771993,346.750312L131.896071,348.256276L138.085266,343.602609L139.680456,341.347916L138.433740,340.502757L136.876557,339.788758L132.279343,340.447814L131.331559,339.387054L130.781514,338.144024L130.527691,336.774234L110.501562,343.663314L93.332524,348.994626L106.320261,342.012543L122.754574,333.966798L131.085998,329.315707L129.619745,328.439719L124.134786,328.981992L123.686892,327.673066L125.618553,325.558901L128.466492,323.188988L131.840698,320.713489L129.717378,320.013011L128.221829,319.091124L126.529888,318.205399L128.702156,316.206569L128.416320,314.924360L128.653677,313.505585L129.270660,312.000943L128.613699,310.825288L127.033347,309.860821L128.068275,308.280663L127.782454,307.011701L127.151404,305.814520L126.442663,304.626256L125.503021,303.473838L125.293056,302.176545L124.003777,301.066011L120.153820,300.355860L117.384289,299.413973L120.184958,297.613223L119.247090,296.378458L119.227861,295.012421L118.081336,293.784023L121.185181,292.066776L123.709928,290.465561L125.182030,289.009161L125.510486,287.677498L124.834875,286.429876L122.322757,285.296083L120.336796,284.089332L123.311734,282.600944L123.537569,281.279162L124.641878,279.933400L123.408296,278.663972L124.163693,277.342882L124.073116,276.041025L120.873234,274.732359L123.636459,273.430238L123.397917,272.118552L120.683536,270.733869L115.094617,269.197330L109.861782,267.579287L114.657839,266.407052L104.116700,264.361785L106.377801,263.040210L118.647123,262.552835L122.601715,261.542578L123.404445,260.293351L122.954348,258.923436L121.688583,257.449864L121.964799,256.141516L123.906960,255.055067L123.510120,253.670386L124.254285,252.446185L124.799177,251.200108L123.923984,249.722435L123.200650,248.252110L125.182600,247.265600L126.542881,246.189567L127.570385,245.065884L126.226680,243.453223L125.705731,241.993299L126.827637,240.896895L127.739610,239.765306L127.646534,238.395143L128.716489,237.317078L128.550311,235.922888L128.392476,234.521686L127.677797,232.952124L129.516983,232.115251L129.980700,230.887553L127.437633,228.718367L127.444730,227.317453L125.543797,225.273997L126.084699,224.021761L127.870136,223.209551L128.196774,221.895610L130.769491,221.413586L131.673635,220.336652L129.048860,217.887352L130.002761,216.812102L129.710321,215.233205L129.677795,213.747538L131.525654,213.062214L131.838995,211.725563L133.471850,210.980974L134.513580,209.985291L136.267432,209.336733L137.874134,208.642054L139.289891,207.874962L141.013846,207.281609L139.068227,204.818353L137.355397,202.422035L139.069390,201.818985L140.644559,201.163746L141.623367,200.195118L141.984898,198.880805L143.869337,198.448755L144.226641,197.135755L142.997903,194.852392L142.130446,192.747283L146.017904,193.605106L147.737425,193.145420L146.108359,190.515566L145.289925,188.368890L146.075579,187.274585L147.714168,186.772202L149.900729,186.679108L151.382301,186.115958L149.396252,183.032512L147.497032,179.940053L143.600475,175.258392L147.711232,176.635042L150.434941,177.010524L153.649094,177.831207L156.966524,178.803377L158.801493,178.617367L159.108302,177.170601L159.973645,176.187731L157.874361,172.613674L157.345471,170.345603L158.581991,169.631079L159.366962,168.510977L161.668611,168.807721L163.708501,168.899828L164.472813,167.791705L164.678809,166.127189L164.613827,164.165572L167.931411,165.623979L170.835181,166.736042L170.427801,164.417378L169.798701,161.810328L169.520992,159.528102L169.116600,157.056367L171.671388,157.883617L173.627565,158.081359L176.518220,159.413975L178.477045,159.711311L179.284112,158.648957L180.258745,157.785467L180.360008,155.820512L179.874468,153.061923L181.348596,152.790364L183.697219,153.700166L184.504256,152.586814L184.542822,150.402743L184.864039,148.563256L184.253483,145.353082L185.448451,144.679547L187.121172,144.718048L190.875597,147.931191L193.206203,149.103407L193.349391,146.916637L192.321150,142.799247L190.342133,136.998708L190.852277,135.135216L188.924822,129.094436L193.232390,133.620997L193.684753,131.559677L198.639760,137.547526L201.639989,140.219954L202.709834,139.410496L205.145548,141.209187L206.008201,140.033813L207.397831,139.886450L208.637024,139.451058L209.190869,137.590811L210.332657,136.927328L211.593900,136.519904L210.897743,131.744629L209.187083,124.448443L206.732023,115.084363L213.110932,126.488728L216.646746,131.496339L219.117048,134.097026L219.326856,131.010685L220.327146,129.885186L221.823094,130.075402L223.225474,130.039265L224.622283,130.010120L225.854507,129.517010L226.796716,128.136267L227.365825,125.526857L229.294593,127.179627L231.183829,128.829739L232.989993,130.325233L233.575862,127.602414L234.469312,125.849306L234.235984,119.704476L235.054377,117.289809L237.364346,120.829428L239.460725,123.761020L241.278360,125.719890L242.986596,127.362573L244.032617,125.985655L245.575612,127.007773L246.965552,127.344422L248.161170,126.664293L248.792299,122.656343L250.021145,121.899821L251.572190,123.169259L252.862649,122.826264L254.402888,124.291311L255.891164,125.576017L257.182967,125.424918L258.248851,123.227323L259.369633,121.216822L260.526943,119.247268L261.462844,114.267364L262.736269,112.636369L264.389334,116.287780L266.100573,122.054756L267.506508,123.701861L268.805699,123.462492L270.122474,123.668943L271.462238,125.032052L272.742640,124.035603L274.047347,124.215184L275.348715,124.435881L276.653115,124.036446Z" />
<line x1="50" y1="575" x2="100" y2="575" fill="none" stroke="blue" stroke-width="1.0" stroke-linejoin="round" stroke-miterlimit="10" />
<text x="125" y="578" style="text-anchor:start;fill:black">n1_4mer:GRV/n1_4mer:RV</text>
<path style="stroke:green;stroke-width:1.0" d="M276.647233,179.604571L277.620428,173.846384L278.714661,167.476111L279.592417,168.680119L280.532921,168.285379L281.274712,171.301279L281.915703,175.032274L282.410701,179.820186L283.001229,182.556179L283.816914,182.441435L284.899671,179.790108L285.837714,178.846540L287.352293,173.305768L287.675697,177.671150L287.894462,182.251598L288.943672,180.682666L289.904446,179.868465L291.061709,177.968015L292.180534,176.495373L293.286389,175.250811L293.956653,176.402059L294.824896,176.481583L295.968698,175.258185L295.584878,181.117398L295.466450,185.363943L296.825221,183.077447L297.344621,184.378239L298.530160,182.995021L299.169913,183.781770L300.103458,183.458228L300.561773,184.846154L300.839390,186.776684L302.464573,184.143374L302.562837,186.581771L303.955328,184.861426L304.341450,186.296946L304.726621,187.668724L305.702971,187.290285L305.534167,190.129504L307.784238,186.287437L308.072298,187.830114L309.311151,186.866749L310.215297,186.804379L309.570542,190.543910L309.584654,192.547245L310.045949,193.429167L310.474774,194.357963L312.769514,191.114075L311.846940,195.015073L313.246332,193.828933L314.352024,193.318831L315.020160,193.733962L315.305543,194.906713L318.889200,189.629123L321.658943,186.136860L321.482656,188.299637L321.704793,189.662878L317.870498,198.249708L317.733113,200.023583L317.822760,201.351719L319.313807,200.279520L320.821861,199.235351L321.173374,200.121783L324.597586,196.101772L325.847200,195.642912L326.150886,196.666166L329.217133,193.515980L332.587710,190.049843L333.054310,190.933512L333.754770,191.470847L334.831111,191.482411L330.127868,199.434340L329.840743,201.175141L331.416336,200.408216L336.495987,195.134762L336.141534,196.997654L334.709232,200.164799L334.308391,201.969554L335.170700,202.201239L338.224650,199.837409L338.728512,200.552808L337.597840,203.138947L338.331812,203.551364L340.509243,202.367971L345.491825,198.187592L349.270343,195.459878L351.151280,194.844165L349.838902,197.575377L348.714451,200.044676L350.039982,200.003171L349.227658,202.085116L350.692208,201.919832L351.551025,202.357169L351.290979,203.845638L349.145527,207.034139L346.957564,210.174105L346.340854,211.836969L345.849558,213.354914L346.842130,213.573054L347.585846,214.014098L348.852295,214.029988L347.848883,215.908568L349.326611,215.766502L348.745500,217.263615L348.371385,218.571459L350.771433,217.759945L351.500214,218.240132L351.726781,219.092651L350.946283,220.658973L350.195860,222.171535L358.277659,217.561158L362.709282,215.615490L364.363962,215.613914L363.121332,217.530294L359.347362,221.023750L356.475880,223.847397L357.719193,224.057171L360.080565,223.610767L362.640649,223.091867L366.796195,221.695777L365.952864,223.230339L366.169572,224.144093L367.363799,224.518548L364.021269,227.338944L363.802696,228.437940L365.456542,228.562024L365.806083,229.368874L370.392839,228.091137L369.700467,229.442692L366.398126,231.999094L364.735471,233.723800L364.263294,234.871075L359.730496,237.784853L358.834347,239.038671L362.574868,238.326111L365.703472,237.933111L368.990803,237.533438L372.120409,237.254379L371.604951,238.411590L368.110076,240.651498L366.851895,242.013772L361.919753,244.629672L363.255918,245.015280L363.154243,245.896335L366.946583,245.522220L365.508322,246.842726L364.538799,247.989989L367.416936,247.990069L361.612922,250.496023L368.366362,249.453923L368.146087,250.376600L364.774736,252.095233L368.348603,252.039975L372.832062,251.831122L373.993600,252.456864L369.476385,254.341880L368.274737,255.446894L364.843456,256.974538L365.004533,257.749216L364.810854,258.588936L362.155877,259.850496L365.443216,260.082377L366.320961,260.746379L370.823089,260.890041L371.038948,261.704374L367.263570,263.037953L368.128228,263.742534L364.821312,264.928321L365.377177,265.655369L364.263921,266.548737L364.364798,267.317056L364.758261,268.063364L366.941808,268.692665L365.298339,269.588263L365.247762,270.372901L364.510184,271.185251L367.762800,271.848718L369.237280,272.612987L370.557582,273.404951L371.759166,274.220439L376.680225,275.058710L378.400268,275.952481L373.677038,276.761104L369.615041,277.505916L367.665099,278.255099L365.270894,278.951608L365.850666,279.763205L368.475139,280.710467L366.098921,281.355216L372.350093,282.636443L368.545766,283.151228L366.144533,283.735522L364.729303,284.382382L363.990726,285.082616L363.971493,285.859253L368.288923,287.204541L365.207976,287.594571L360.731876,287.725193L360.163078,288.393241L361.886758,289.434110L362.632462,290.336620L364.065000,291.381083L368.054320,292.946754L365.340654,293.233765L366.350027,294.259783L371.022913,296.112500L371.539985,297.101686L368.953437,297.364943L364.291313,297.071476L362.691689,297.481196L365.217213,298.960641L364.670110,299.646078L371.058791,302.296188L366.749625,301.929942L365.930713,302.544493L363.402240,302.614075L358.538808,301.888698L359.800096,303.104953L363.115252,305.050473L355.599655,303.266526L357.750172,304.825508L355.683414,304.870178L357.298200,306.278552L360.501111,308.343508L361.682223,309.669278L360.327040,309.984801L363.911666,312.354441L357.718950,310.596027L359.839119,312.379787L356.749005,311.864366L357.281746,312.962846L356.809142,313.604936L358.546255,315.310252L357.146664,315.513002L359.557668,317.613599L358.378206,317.925879L356.727954,317.972947L355.213425,318.064683L353.793829,318.183027L352.988060,318.621199L352.631876,319.306229L351.603910,319.600734L356.630660,323.475937L360.224220,326.610416L358.917959,326.814850L353.770915,324.581269L351.387114,324.006690L350.511291,324.370252L349.836205,324.856464L349.036074,325.251704L350.290453,327.058260L353.492833,330.280227L354.475735,332.005298L347.690819,328.095145L342.884609,325.489112L349.173436,331.167532L348.565124,331.712861L353.065556,336.264156L346.164591,331.848070L343.933500,331.047570L343.857661,331.980446L345.617402,334.471285L345.040089,335.026303L341.936882,333.376681L342.509094,334.909718L341.530578,335.076103L341.758110,336.336168L342.619905,338.213274L339.783595,336.618504L338.354394,336.309634L340.420683,339.412281L342.903089,343.020958L343.219839,344.528641L337.374931,339.679318L337.803249,341.258936L336.651815,341.179300L335.092107,340.632189L331.898716,338.231949L330.718661,338.006185L331.997136,340.584322L331.830177,341.544002L333.375535,344.560783L332.730041,345.010360L334.714623,348.704431L333.774788,348.838779L332.464633,348.486099L331.983550,349.181964L328.813179,346.321014L328.139398,346.707400L327.086071,346.569602L326.263081,346.732397L325.137602,346.453698L323.936945,346.039244L322.130018,344.696710L322.742644,346.933357L323.315181,349.178136L322.337666,349.067923L322.667193,351.022120L322.344606,351.976401L320.977254,351.220215L320.447445,351.834074L319.550946,351.824509L319.704947,353.647027L317.899541,352.011041L318.059182,353.892194L317.811464,355.074698L318.252893,357.607862L316.451037,355.857787L316.579000,357.862002L315.021047,356.505181L313.598290,355.353855L314.100978,358.234048L313.401455,358.613309L313.459468,360.682479L315.375093,367.069867L317.161933,373.446862L316.486614,374.228712L314.012522,370.622696L313.009932,370.514832L309.590076,364.154110L309.062980,365.094623L308.797704,366.780780L307.479566,365.606113L305.554466,362.609778L305.585153,365.194794L304.976295,365.974488L304.307103,366.596780L304.068974,368.630149L303.929565,371.103568L303.197810,371.689449L301.460301,368.735190L300.898907,369.871857L298.750454,365.055081L297.871515,364.861786L296.714871,363.507311L296.111560,364.375863L295.064340,363.344935L294.597603,364.875862L294.324011,367.448663L293.154367,365.758637L292.879483,368.578040L291.950497,368.067945L291.444481,369.931999L291.196607,373.553168L290.664421,375.742911L288.945234,370.086744L287.871755,368.375542L286.533628,364.365320L285.682463,363.803422L285.242063,366.821356L284.289045,365.351389L283.658413,367.020191L282.758810,365.864259L282.072319,367.209567L281.347363,368.317329L280.657139,370.318064L279.946436,372.582087L278.984477,369.783980L278.204695,370.974261L277.276433,366.977447L276.478551,366.765274L275.697898,368.337745L274.890497,369.648157L274.083148,368.640437L273.184265,373.537176L272.381083,371.762703L271.784859,365.040178L270.967298,365.917405L270.235593,364.877311L269.527058,363.742024L269.053373,359.536267L268.198811,361.062410L267.377346,361.897316L266.160928,366.665536L265.742196,363.044527L265.070566,362.186976L264.441400,361.093272L263.848462,359.857613L263.399199,357.739968L262.716298,357.428511L261.257789,362.053287L260.128098,364.202254L258.581478,368.495252L257.429449,370.221983L257.260500,366.693884L256.785864,364.974486L254.797785,370.545675L253.168377,374.019937L253.689127,367.838347L253.081762,366.840557L253.307704,362.539505L252.025407,364.400847L248.982215,372.734473L248.284487,371.979384L246.934157,373.550044L246.286568,372.616541L246.723700,368.151968L246.423560,366.297153L245.728493,365.761420L245.214159,364.697668L244.207676,365.119543L241.926713,369.131013L240.817087,369.667659L241.396517,365.606265L241.348582,363.387257L241.181578,361.570655L241.426504,358.801593L240.784200,358.313871L239.381677,359.641924L238.705407,359.207851L238.609007,357.465337L237.435629,358.172646L236.722688,357.837090L235.566825,358.438965L233.168119,361.571722L232.388514,361.275596L230.236620,363.695511L227.670420,366.801079L226.639609,366.844786L227.426408,363.488744L228.179085,360.314341L228.971973,357.179277L227.504111,358.108769L225.721304,359.525836L227.172680,355.432214L224.608207,358.103175L224.255308,357.078310L222.939574,357.603381L222.354211,356.954861L226.709565,348.766348L225.564956,349.110518L224.081044,349.925654L224.190682,348.393178L219.857553,353.200888L221.577623,349.389424L219.200265,351.300706L219.268524,349.842556L217.447316,350.911180L215.526960,352.053098L215.539115,350.677399L215.853093,348.954431L215.985900,347.496189L214.984990,347.439246L212.326338,349.332494L211.360236,349.169321L209.308223,350.236575L209.842126,348.337307L211.256888,345.509368L208.764428,347.006800L210.636543,343.770330L210.570276,342.660648L210.683515,341.384497L209.342411,341.608228L210.729888,339.084418L208.627527,340.047627L208.339362,339.211141L206.746643,339.618599L206.679854,338.572283L207.022637,337.166938L206.748266,336.344179L207.184615,334.901608L204.481543,336.213527L200.333349,338.692317L202.772589,335.542069L202.173053,334.981706L201.292310,334.646539L201.470756,333.458820L200.135715,333.472459L198.031001,334.053539L200.542987,331.111666L199.175673,331.122235L195.523826,332.769795L197.091424,330.608662L198.737944,328.445597L198.290416,327.777556L197.429308,327.389042L199.029449,325.358756L198.995469,324.442073L196.978189,324.800977L196.854813,323.935321L197.736651,322.459399L197.398834,321.748949L197.742390,320.637547L198.335729,319.398670L195.762278,319.979973L193.153667,320.530941L189.019619,321.863245L190.151251,320.300671L192.767973,317.995404L190.214968,318.402272L191.697454,316.739642L187.660414,317.823079L187.915869,316.769107L186.131108,316.685213L184.829970,316.349525L185.113944,315.283714L183.674002,314.985796L183.814018,313.989784L178.405014,315.319726L179.885668,313.740833L185.032633,310.741946L186.460711,309.292514L185.300508,308.854185L187.567575,307.138919L184.893789,307.241447L183.950436,306.694939L181.096448,306.782129L184.893157,304.632523L185.732960,303.504664L187.719203,302.042267L186.232115,301.665244L187.712539,300.401002L186.009105,300.065369L183.302467,299.975259L184.424376,298.831602L185.415837,297.745581L186.889076,296.563488L188.432599,295.395208L187.892797,294.730154L185.988139,294.355173L187.490561,293.238667L187.740464,292.401856L188.231457,291.526310L186.567194,291.053351L182.649336,290.942210L181.922839,290.241264L180.542100,289.631109L177.002253,289.314145L175.617664,288.641101L178.173525,287.439530L179.982048,286.374169L178.182396,285.742556L178.650227,284.849313L177.587682,284.108820L176.762889,283.331024L175.430722,282.578754L175.449439,281.713383L176.580076,280.783996L178.640770,279.828462L181.918759,278.858859L185.398555,277.939913L182.913784,277.225724L182.611379,276.435037L181.594683,275.644267L178.018370,274.831591L180.934628,274.024466L182.007887,273.232531L185.532326,272.526636L184.057539,271.699866L184.075998,270.914205L185.425128,270.199565L186.551735,269.493718L184.324009,268.568665L178.824154,267.343494L174.360825,266.113129L172.863148,265.091459L173.099491,264.225538L173.583458,263.390466L178.461799,263.103625L183.670213,262.944074L185.627204,262.416405L184.228655,261.419248L184.128102,260.601002L182.930532,259.595225L183.313984,258.844414L183.721135,258.102333L187.625434,258.043595L186.194895,256.969007L183.878293,255.678013L182.670895,254.587434L180.637582,253.281703L179.700397,252.197858L181.309208,251.725773L181.266414,250.854043L181.028311,249.925572L184.283472,249.953181L183.702001,248.942238L183.118395,247.915605L183.578488,247.191105L183.219398,246.213825L180.999401,244.623668L178.485710,242.888453L175.800253,241.040908L172.666538,238.978109L178.600021,240.128409L179.828377,239.640588L185.242856,240.767457L184.027680,239.401305L184.055763,238.503760L179.618993,235.763785L176.725466,233.577857L178.160038,233.194249L179.688052,232.873935L178.255634,231.238529L176.234761,229.293139L178.531779,229.340796L186.779368,232.308274L192.703628,234.294505L195.188776,234.662342L196.121077,234.274770L191.198301,230.812602L191.788007,230.201127L190.101412,228.343209L190.046433,227.353412L192.431916,227.749605L197.264197,229.619519L194.256853,226.924427L196.577725,227.384410L197.166936,226.817547L199.752477,227.514617L199.084117,226.171327L195.489071,222.883076L191.144645,218.994463L191.957180,218.494291L193.276394,218.353525L196.787175,219.781241L200.190618,221.210289L200.159109,220.201247L197.313485,217.080752L193.635217,213.238328L196.081752,214.014335L198.469957,214.797412L201.254674,215.950220L204.464967,217.514342L205.998139,217.765349L202.627338,213.906978L204.666000,214.580263L200.148846,209.568257L197.607555,206.158964L197.281621,204.657775L196.626669,202.824266L200.341379,205.044367L203.142868,206.494731L204.614712,206.728230L207.243905,208.133458L205.475342,205.193017L207.979345,206.534985L206.784228,204.099771L206.420281,202.478572L207.280716,202.138509L204.815993,198.166888L207.286231,199.573560L208.523734,199.653397L210.916686,201.089039L214.017585,203.426203L215.997816,204.526769L216.030830,203.317811L217.482504,203.838958L218.218811,203.495841L219.020110,203.241346L220.911309,204.417403L221.880969,204.428989L223.213808,204.949051L222.686416,202.942379L223.011499,202.073981L222.828880,200.464634L224.478859,201.478793L225.536296,201.669163L225.936376,200.890038L223.210606,195.286030L222.610265,192.817472L221.970412,190.207440L219.296733,184.197774L220.923270,185.117234L222.133723,185.386663L222.765884,184.685422L225.012070,186.821152L229.372941,192.868878L230.237918,192.761252L230.764187,192.030042L231.366095,191.428869L231.496012,189.894706L233.867799,192.790839L235.784437,194.900698L235.361152,192.234251L235.157744,189.931921L237.717310,193.573916L236.078244,188.017875L234.939762,183.359459L235.401857,182.242567L237.580791,185.207498L239.133529,186.796353L238.735560,183.563037L237.633279,178.357199L237.766356,176.173015L238.355623,175.131993L237.653955,170.436800L238.164155,168.984382L239.903657,171.106019L241.327155,172.406994L242.945849,174.416025L245.040644,178.105487L246.525234,180.008496L247.733625,181.099601L249.147634,183.010725L249.357895,180.638469L249.710719,178.657379L250.833797,179.588885L250.722657,175.550370L252.137525,177.707714L254.024513,182.144996L255.411670,184.663756L256.037421,183.752500L257.488880,186.926473L257.493841,182.796220L258.399815,183.252330L258.588870,179.603175L259.802585,181.852134L260.411343,180.453957L261.293949,180.783624L261.952644,179.532738L262.879647,180.223354L263.815466,181.105151L264.426078,179.195685L265.237326,178.947545L265.768195,175.651334L266.808984,177.744443L267.604447,177.087800L268.649661,180.012902L269.387263,178.539699L270.315566,180.418445L271.358629,185.917419L272.009861,182.227384L272.631489,174.597330L273.511093,175.427059L274.381088,177.039279L275.225714,177.543711L276.004939,183.228317Z" />
<line x1="50" y1="625" x2="100" y2="625" fill="none" stroke="green" stroke-width="1.0" stroke-linejoin="round" stroke-miterlimit="10" />
<text x="125" y="628" style="text-anchor:start;fill:black">n0_4mer:PS</text>
<path style="stroke:red;stroke-width:1.0" d="M277.213826,146.791779L278.496644,140.022744L279.864156,134.203039L280.975811,136.652931L282.139646,137.296134L282.955028,143.531628L283.765100,148.298904L284.477189,153.279113L285.305911,155.928562L286.412459,155.193805L287.678504,153.064742L288.892099,151.747676L290.472456,147.618025L291.458817,148.622910L291.866790,153.679091L293.338950,150.952271L293.991587,153.781216L295.213280,152.887551L296.546700,151.461953L298.110439,148.936426L299.174230,149.264230L300.085138,150.341182L301.463960,149.118873L302.153030,151.161664L303.411071,150.569217L305.020495,148.560933L305.645759,150.711808L307.363801,148.454717L307.407670,152.692142L308.338573,153.428219L308.631785,156.384017L308.841129,159.456381L310.399806,157.892519L311.062119,159.317108L312.692440,157.662607L313.548225,158.463656L314.692612,158.390499L315.951993,158.011724L316.127461,160.685174L317.696932,159.464166L318.553984,160.203145L320.580813,157.918959L321.704036,158.031189L321.173500,162.197800L321.796864,163.432296L322.349947,164.791126L323.296891,165.210444L326.628096,160.334225L325.507188,165.362301L327.012100,164.613527L327.368498,166.301139L327.752182,167.879966L329.269021,167.159144L331.479829,165.138520L333.212736,164.132367L334.078590,164.805453L335.262732,164.890355L333.136090,170.919990L334.970660,169.779833L334.871862,172.029997L336.461175,171.366193L336.988236,172.504883L336.425113,175.388416L339.615683,172.211471L341.779301,170.777725L342.741627,171.258661L344.920511,169.915057L347.543363,167.988103L347.574722,169.906993L349.472831,169.125149L349.818247,170.562033L348.727083,173.939756L349.059091,175.304014L350.646654,174.982536L355.452608,170.515674L355.998060,171.665356L353.713038,176.346813L355.306667,176.112951L355.288948,177.860762L357.686208,176.701162L357.836250,178.231287L355.812481,182.228907L358.168553,181.172278L359.673200,181.120328L367.452747,174.257566L374.702938,168.222738L373.882859,170.917205L372.018063,174.629915L369.753600,178.651363L370.611594,179.443389L370.879465,180.816239L371.422501,181.904914L371.690208,183.246161L371.691471,184.818697L369.291958,188.566814L371.302037,188.242397L370.173640,190.736143L369.252107,192.992724L369.993825,193.777735L369.471172,195.626266L371.533080,195.305483L370.914504,197.198870L371.763067,197.886098L371.665615,199.319136L369.710876,202.159662L372.467105,201.370371L372.818459,202.422910L374.746609,202.319139L375.739959,202.918620L379.567667,201.536524L388.151241,196.956544L392.734137,195.286840L394.110859,195.845859L391.551611,198.989042L386.291506,203.781433L382.793221,207.324709L383.421122,208.228571L383.305403,209.582809L384.407524,210.199700L387.689489,209.563457L389.447168,209.857565L390.579231,210.527979L390.597862,211.819967L387.453434,214.793608L386.941269,216.305656L390.839578,215.531050L391.292486,216.561657L396.271961,215.365233L397.204409,216.211442L396.201882,217.977051L394.015805,220.255536L392.188571,222.317075L389.003422,224.927661L386.970789,226.969347L390.179891,226.765904L391.400972,227.431568L393.060678,227.938718L396.642468,227.723938L395.522811,229.352877L395.223745,230.649208L394.516558,232.078726L391.114255,234.428922L390.937282,235.610608L390.157770,236.981260L396.346717,236.096632L393.133454,238.248506L394.390078,238.985140L395.723241,239.717220L391.072352,242.161548L395.363693,242.067153L395.515127,243.141527L395.243779,244.321483L397.058765,244.978422L401.054950,245.147294L402.705366,245.918530L399.099801,247.864450L398.871029,249.033018L395.334418,250.857078L396.698729,251.674525L399.254420,252.295091L396.174173,253.937409L395.047832,255.199418L393.860477,256.447938L399.072090,256.730373L398.442688,257.910602L397.732884,259.087582L397.955920,260.136922L395.661963,261.470154L394.028855,262.692902L391.833933,263.938485L393.868389,264.780549L397.235141,265.553508L397.395839,266.603476L395.621465,267.770946L396.168109,268.787582L394.694584,269.898851L396.858189,270.860307L398.895149,271.861758L398.833746,272.932964L400.447853,273.989303L403.031565,275.073925L404.228548,276.190400L400.550777,277.240724L400.324085,278.319257L398.886441,279.351829L394.269557,280.221024L395.378941,281.311342L397.085383,282.458288L396.604973,283.483370L399.280166,284.748921L397.324860,285.658931L396.093946,286.605949L393.659959,287.407464L394.687640,288.560565L395.336379,289.687437L399.378079,291.271786L397.038112,292.038601L394.811897,292.783695L391.332070,293.295058L393.211123,294.637887L392.024882,295.480608L392.455625,296.602765L397.797482,298.683115L394.977525,299.215477L397.021369,300.726376L398.774784,302.214287L398.916827,303.369290L398.415639,304.378210L393.936070,304.399216L393.115738,305.280897L391.856658,306.035767L391.503454,307.021297L397.409388,309.784007L393.220591,309.699582L392.475007,310.585220L390.281613,311.010344L387.876824,311.331747L389.589547,312.977950L389.833038,314.162200L386.990367,314.275337L388.560946,315.930584L384.984286,315.717788L384.393380,316.576443L390.830122,320.171140L390.890177,321.351243L391.313621,322.689558L394.120160,325.045930L388.527075,323.853532L389.137448,325.288517L387.360694,325.668577L386.798432,326.581145L385.748298,327.261041L386.615196,328.853242L386.365523,329.923128L389.039881,332.471425L387.600879,332.970685L382.764766,331.663227L382.924426,332.942062L379.679753,332.369830L380.193360,333.837987L379.918239,334.879160L380.013580,336.141563L382.222775,338.673679L386.452960,342.494119L384.450349,342.579734L379.739005,340.926526L376.735762,340.269293L374.617851,340.131430L375.011784,341.628632L373.536218,341.881084L373.806145,343.317771L375.218836,345.581221L376.213367,347.596978L371.066517,345.169323L370.311258,345.887655L373.524544,349.607310L372.987458,350.540540L374.250967,352.890007L368.287422,349.520345L369.680075,351.981267L370.466121,353.999229L368.994442,354.158537L367.654586,354.407555L364.952878,353.449284L363.697030,353.712567L362.313669,353.842919L362.726219,355.601294L362.660314,356.947697L362.618176,358.337470L362.669047,359.839533L362.740308,361.387869L363.280275,363.433516L363.355605,365.050713L358.702220,361.794523L359.786871,364.452185L357.119580,363.150142L354.570931,361.906828L352.400725,361.015977L351.229122,361.199238L351.738565,363.299994L351.291144,364.331378L353.015704,367.964175L351.338427,367.577116L353.986578,372.491377L351.909780,371.621773L351.201890,372.447410L350.080889,372.741327L345.928809,369.005126L345.222763,369.760045L344.751669,370.843267L343.303733,370.577371L343.242948,372.256566L341.940660,372.174309L340.711486,372.175315L340.739878,374.049608L340.675876,375.831952L340.130399,376.907715L339.259259,377.484010L338.082696,377.564566L335.638496,375.525343L334.419522,375.455460L335.282480,378.952268L334.565827,379.790979L332.998850,379.116539L333.614977,382.393218L331.812098,381.261528L331.570282,383.042485L330.514163,383.290473L329.335709,383.284608L329.529614,386.052719L327.100670,383.463086L326.854868,385.383187L325.724840,385.445601L325.158722,386.746831L325.823278,390.895520L327.168422,396.811717L326.335902,397.786484L323.649740,394.244260L322.957012,395.510762L320.506268,392.290021L318.641426,390.429062L317.986247,391.733113L317.007459,392.185450L314.879894,389.348871L314.618543,391.834018L313.881820,393.001697L313.334517,394.811170L312.294514,395.124324L311.544155,396.399116L310.664935,397.293997L309.195606,396.137382L308.317831,397.048570L306.480202,394.364122L305.163941,393.513600L304.072959,393.498029L302.790039,392.649225L301.444998,391.439497L300.958492,394.047308L300.335915,396.210421L298.997760,394.971356L298.501595,398.003173L297.154378,396.640235L296.494710,399.086363L295.952013,402.488879L294.864478,402.754827L293.330608,399.988780L291.918568,397.732323L290.818915,397.568749L289.433624,394.986861L288.469214,395.753158L287.336779,394.995661L286.265587,394.728811L285.044687,392.634414L284.326998,396.606281L283.364965,397.979596L282.755159,405.667944L281.703506,407.245122L280.615794,408.590255L279.449592,408.256461L278.226437,405.361598L276.980401,397.912237L275.932139,399.665453L274.853605,401.535438L273.777142,399.893653L272.627780,403.736791L271.667503,398.127785L270.742522,394.230889L269.636435,395.921740L268.524895,397.148475L267.643091,394.289962L266.601172,394.396340L265.464343,395.664436L264.481549,394.909046L263.355410,395.760142L262.381942,395.001557L261.362161,394.749221L259.787537,399.040192L259.093357,396.041576L258.177029,394.985862L257.271553,393.964905L256.263623,393.690014L255.180939,393.875508L253.184368,399.229091L252.295283,398.046124L251.669314,395.594220L250.235061,397.334250L248.815330,398.839487L247.024604,401.885753L246.867022,397.558058L245.861857,397.092995L245.681513,393.315083L244.594973,393.314839L242.229378,398.101160L240.824280,399.060516L239.520831,399.581105L238.310420,399.732912L237.742518,397.739105L237.494457,394.824211L237.070726,392.606338L235.909134,392.719006L233.167291,397.431312L230.719032,401.029577L229.917478,399.853514L229.857336,396.719769L229.994630,393.209023L230.438383,389.071804L228.724595,390.506371L228.666568,387.819739L228.182311,386.255640L227.325877,385.609737L226.849659,384.113100L225.287841,385.069507L224.412684,384.477544L222.453736,386.185718L220.339932,388.119852L219.532487,387.305232L217.594785,388.744425L215.032301,391.314141L214.014014,390.822984L214.555631,387.428894L215.134377,384.083647L214.666239,382.720994L212.961440,383.555677L211.142719,384.531918L211.957364,381.020131L210.210649,381.846777L208.294296,382.894860L207.532973,382.048768L206.679259,381.356405L210.423495,373.644234L208.065136,375.345364L206.596127,375.654163L206.935358,373.318194L201.979731,378.554524L204.293615,373.457006L202.311325,374.394687L201.848360,373.236330L200.563677,373.180461L198.591091,373.995160L198.365511,372.534687L198.111376,371.137815L197.059119,370.746896L195.271984,371.233215L193.565347,371.583486L190.280767,373.736508L188.796925,373.728097L188.783532,372.039439L191.197886,367.697609L190.353346,367.022073L191.950550,363.735726L191.655153,362.524298L191.082578,361.615676L188.472957,362.779845L187.554940,362.192408L187.479441,360.773581L188.680620,358.147506L187.940573,357.423172L188.076658,355.882662L186.391060,356.035013L185.065587,355.832419L183.344083,355.960049L181.487042,356.173897L178.561134,357.264502L180.072565,354.569560L179.065336,354.013677L177.870447,353.600233L177.321308,352.658639L175.828020,352.457890L175.667693,351.211518L177.453199,348.512397L176.456895,347.937797L173.845970,348.527037L173.305963,347.585967L175.826094,344.502566L176.197304,342.978009L175.237503,342.376757L175.434494,340.999193L174.944561,340.087544L173.313840,339.905827L172.437290,339.225826L170.057828,339.461254L171.894514,337.113410L173.005321,335.250206L171.654078,334.850847L168.982896,335.181518L167.709702,334.685365L165.375289,334.750487L165.258190,333.591054L166.360981,331.802424L165.376771,331.117184L166.077647,329.576724L163.583013,329.628361L161.545971,329.417187L160.896822,328.521712L158.481745,328.432104L161.539911,325.848752L160.022840,325.341123L159.791757,324.261350L150.519302,326.959504L148.754536,326.420794L151.999094,323.865404L156.373294,320.945794L155.614753,320.058118L152.500516,320.029072L148.186694,320.375834L149.859590,318.562182L150.137097,317.260476L155.727270,314.224013L159.042560,312.027417L161.458406,310.178667L162.330605,308.845089L159.592526,308.584039L159.663512,307.485926L155.158070,307.640826L156.401912,306.204670L156.936479,304.976541L158.583423,303.490763L156.919606,302.819644L157.727007,301.562834L157.768461,300.491397L157.634869,299.461174L157.462329,298.440115L158.507349,297.187692L154.818952,296.816661L151.362768,296.343113L146.001901,296.123270L147.510025,294.747630L146.099121,293.828043L146.259964,292.670703L150.855028,290.949203L152.839078,289.623331L151.487525,288.704530L151.554628,287.619149L151.366751,286.560683L150.289347,285.576120L148.550606,284.624744L149.532437,283.461146L150.545793,282.313993L149.656403,281.280839L150.682530,280.153816L153.283825,278.993629L150.772818,278.002572L154.756857,276.867691L151.571397,275.851354L148.933061,274.781085L151.148673,273.715562L152.967719,272.680575L156.213891,271.716118L152.341299,270.548943L151.574167,269.453690L154.153752,268.523690L153.530382,267.437997L151.661583,266.252032L147.525522,264.851828L140.612253,263.132986L136.002002,261.515470L140.955383,260.826777L144.694457,260.083433L149.539321,259.539516L149.462625,258.428525L151.562572,257.620141L148.633585,256.093693L152.357505,255.566830L155.363747,254.982837L150.969465,253.145130L154.359262,252.666823L156.141912,251.933723L156.181065,250.874998L152.974338,249.124955L151.727846,247.746394L152.465080,246.797566L151.557305,245.464117L154.476533,245.060125L154.807220,244.038102L154.991209,242.978102L155.737132,242.071541L151.326848,239.701904L153.654626,239.230424L155.405976,238.621497L154.023528,237.056798L154.462068,236.048118L151.399913,233.876660L146.375669,230.967977L145.336251,229.357711L144.505804,227.795215L148.987808,228.182295L153.159156,228.531031L154.932056,228.015796L156.957701,227.629213L152.231182,224.497454L149.656889,222.168609L152.370559,222.060947L150.523874,219.983924L148.965238,217.989273L145.122523,214.894928L148.293923,215.028970L155.499431,217.171287L163.472626,219.836244L165.569043,219.692134L166.516531,218.989927L166.497072,217.788009L165.530049,216.064620L163.916994,213.953324L163.411638,212.415168L165.885664,212.558252L171.029392,214.304207L168.385708,211.520393L170.365948,211.469426L172.220131,211.374261L174.836642,211.791336L171.340849,208.327011L168.084812,204.920442L164.438326,201.157775L165.623291,200.575643L168.499246,201.179318L172.235960,202.447925L176.027738,203.836609L173.633771,200.779305L174.446499,200.032251L172.385683,197.108418L172.741171,195.977431L175.223986,196.510900L177.853545,197.212334L180.349607,197.860459L182.498870,198.273520L180.712744,195.407883L179.547409,193.002382L179.737841,191.725812L178.417977,189.089722L176.488784,185.838360L177.066847,184.811193L179.700986,185.704179L183.056079,187.344915L184.222772,186.948616L187.548968,188.697091L185.855357,185.493359L187.800263,185.921024L188.301170,184.889360L184.802588,179.618375L184.629995,177.767824L184.680736,176.124053L184.589726,174.291899L188.593805,177.064096L190.894351,177.996132L194.786329,180.854876L197.253665,182.138431L199.586142,183.327853L201.092357,183.560955L200.089072,180.665186L200.037725,178.908494L201.992763,179.729801L203.978397,180.644619L204.305302,179.371600L206.324652,180.405406L206.734051,179.241056L206.332641,176.896935L208.053243,177.575312L208.783514,176.832861L209.290073,175.746016L208.717388,172.978144L207.142995,168.554334L206.844981,166.022374L205.262392,161.320312L207.929559,163.519946L209.182284,163.432749L209.615982,161.948790L212.039056,163.936719L214.528068,166.147321L215.981484,166.568742L216.334419,164.965156L217.649016,165.156825L218.309959,164.099303L219.263313,163.601480L222.148457,167.048682L221.998384,164.332849L222.158213,162.176335L224.452688,164.603736L224.276976,161.644466L224.666717,159.859166L224.358924,156.374836L226.920519,159.626718L229.087636,162.091262L227.494565,155.220052L225.963968,148.176468L224.946008,142.144749L224.914914,138.501631L226.234018,138.462727L226.650608,135.847751L228.437786,137.164166L231.223246,141.622832L233.773169,145.632714L236.029516,148.961707L238.265368,152.453675L239.523628,152.825873L241.353379,155.276791L242.078481,153.850629L242.760052,152.177959L244.614701,155.035134L244.734757,151.021555L245.748721,150.519870L247.394502,152.795038L248.986922,155.034500L249.582698,152.692518L250.650533,152.532482L251.167631,149.476492L252.691641,151.703784L253.887367,152.273645L255.396913,154.848926L256.145027,152.804856L256.970273,151.062368L258.037215,150.883615L259.479244,153.633466L260.528507,153.510928L261.492065,152.612250L262.581761,152.820123L263.407477,150.246317L264.532534,150.715149L265.367980,147.478472L266.646080,150.043733L267.728491,150.032097L268.856474,150.958492L270.047006,153.829853L271.037726,152.065737L271.993749,147.563144L273.087648,147.108548L274.202247,148.732654L275.294390,147.891560L276.372904,149.625501Z" />
<line x1="50" y1="600" x2="100" y2="600" fill="none" stroke="red" stroke-width="1.0" stroke-linejoin="round" stroke-miterlimit="10" />
<text x="125" y="603" style="text-anchor:start;fill:black">n0_4mer:D</text>
<path style="stroke:black;stroke-width:1.0" d="M277.924740,105.620949L279.443353,103.477971L280.981486,101.861011L282.448062,102.568583L283.888626,103.563190L285.258209,105.468219L286.575723,107.670831L287.951082,108.661944L289.323131,109.514806L290.846207,108.649019L292.536565,106.342431L294.192303,104.723650L295.706947,104.523389L297.123147,105.130017L298.392701,106.738957L299.795200,107.281110L301.248137,107.464386L302.679341,107.783589L304.233723,107.388386L305.720340,107.425693L307.335948,106.813249L308.818899,106.939374L310.320084,106.992942L311.485495,108.598567L312.867942,109.151349L314.465942,108.778997L315.734986,109.793527L317.324002,109.509461L318.748039,109.893132L320.125625,110.445789L321.398037,111.358709L322.542100,112.677216L323.504093,114.541716L324.541642,116.076436L326.026618,116.153018L327.537512,116.172207L329.035755,116.253015L330.928901,115.226929L332.530574,115.092303L334.099722,115.079009L335.837457,114.648452L337.169747,115.307837L338.421017,116.164029L339.638467,117.087749L341.028458,117.582541L341.862007,119.376035L343.047093,120.313852L344.990864,119.550598L345.922377,121.046343L347.403473,121.336450L348.461601,122.519165L349.151246,124.426439L350.190000,125.585954L351.397190,126.396357L352.752912,126.917605L353.904484,127.825807L355.220235,128.424807L356.086482,129.832310L357.107766,130.939675L358.078286,132.118668L359.634032,132.292885L361.568178,131.862912L363.588185,131.338734L365.191167,131.526823L366.224192,132.626650L367.559381,133.252090L368.682804,134.202229L370.056278,134.778315L371.675415,135.007593L373.038717,135.622533L374.223863,136.494503L375.651773,137.033160L377.390868,137.164679L378.026583,138.781714L379.961538,138.685767L381.427609,139.223180L382.354208,140.450056L383.882299,140.925837L383.801304,143.364501L384.684295,144.605356L384.781659,146.753852L385.145790,148.554862L386.971427,148.677927L388.484921,149.175924L391.037831,148.557748L393.575637,148.010945L394.702061,149.003186L394.907889,150.949234L394.966380,153.014164L395.953215,154.116341L396.956722,155.200179L398.067451,156.179447L399.687254,156.678460L399.945359,158.467124L399.923891,160.487902L400.424925,162.005860L400.459809,163.921686L400.980323,165.386502L402.853190,165.682097L404.376125,166.299474L405.666510,167.126052L407.039620,167.895952L407.802990,169.164613L408.367279,170.584889L409.234081,171.763115L410.030630,172.993737L410.414347,174.528379L410.529072,176.246070L411.681655,177.201644L413.564337,177.652338L416.066814,177.702423L418.744262,177.676406L419.849895,178.741195L419.701730,180.630501L418.931599,182.894120L417.921528,185.270276L418.179960,186.822251L418.925233,188.068192L420.068411,189.078336L422.037297,189.618369L422.649473,190.959072L423.500579,192.163902L424.188296,193.461109L423.178417,195.666826L424.223215,196.757553L425.693941,197.637750L427.652034,198.290556L430.911341,198.331523L432.153291,199.398674L432.720978,200.795580L432.492586,202.557125L432.142976,204.355298L431.968714,206.056537L430.731335,208.197955L431.659758,209.395304L431.838445,210.906387L432.583392,212.184196L434.098666,213.166674L433.410717,215.003113L433.090061,216.680245L432.787614,218.334668L433.129349,219.748574L433.387420,221.188284L434.724596,222.267754L436.328682,223.278542L435.945554,224.929598L438.119307,225.793909L439.162042,227.021722L438.535630,228.733539L440.171001,229.807374L438.862936,231.682425L438.092155,233.389320L438.263239,234.843769L437.898281,236.421948L439.078551,237.635513L439.333968,239.066884L440.298807,240.348547L440.959539,241.703224L441.412725,243.104385L443.391317,244.229992L443.133394,245.774920L442.281646,247.408715L441.760156,248.971628L440.049227,250.696486L440.649178,252.067538L441.993994,253.349093L441.802364,254.836705L442.193860,256.252524L442.498714,257.681316L442.554876,259.136365L443.096630,260.548258L443.065566,262.011673L442.622661,263.500853L442.154133,264.982162L442.134513,266.430836L442.439583,267.864052L442.007673,269.326516L442.637817,270.753764L442.793228,272.199192L442.123592,273.653533L443.204122,275.097120L443.434534,276.551550L443.552356,278.008180L443.757548,279.469609L442.988024,280.901010L441.494511,282.288296L440.763705,283.690818L442.117496,285.209334L442.010650,286.650947L442.639167,288.150136L443.129646,289.650189L441.217324,290.930687L441.931516,292.454893L442.097566,293.932092L441.319818,295.299862L441.944089,296.840492L440.090182,298.049403L438.438193,299.259151L437.852159,300.611078L438.438915,302.151378L439.725388,303.828708L440.195771,305.383266L440.700637,306.957555L440.357273,308.374628L439.830539,309.752047L440.244737,311.332261L440.765745,312.950105L440.067060,314.293032L439.733795,315.719728L439.012789,317.047356L438.003265,318.291768L436.743435,319.455632L436.618145,320.925617L436.059665,322.273517L434.712266,323.379620L435.040387,324.991576L434.555202,326.356152L434.319458,327.802603L434.342759,329.341618L432.192453,330.127836L430.910885,331.194703L430.079905,332.412845L430.536685,334.113835L433.270086,336.721770L433.404531,338.355214L434.077738,340.223204L435.122278,342.272142L432.744077,342.881211L431.808912,344.089399L430.089714,344.937047L426.960051,345.110763L426.507347,346.494839L427.505791,348.582555L427.145112,350.034761L427.150281,351.677505L426.916075,353.211458L425.670824,354.223436L425.267585,355.675098L424.247520,356.795234L422.619244,357.568131L421.509986,358.616490L421.247158,360.148796L420.162577,361.204030L419.626767,362.583642L418.343969,363.507231L416.336592,363.962374L415.657939,365.240089L414.277154,366.061192L413.256866,367.107804L413.583955,369.063333L413.229394,370.576283L412.981657,372.176481L412.178144,373.393314L409.778938,373.445819L408.623012,374.381985L406.952700,374.920645L405.104890,375.300526L406.368189,378.094906L406.957876,380.411279L407.594846,382.808524L407.651147,384.770233L405.474489,384.880642L402.745851,384.481744L400.608691,384.545265L399.733019,385.692049L398.930409,386.907280L398.557984,388.522885L398.660009,390.601377L397.421798,391.440714L396.340037,392.423793L395.339514,393.484587L393.861608,394.067933L392.942988,395.205732L392.421447,396.759478L391.451822,397.859470L390.148132,398.604191L388.316864,398.763906L385.998104,398.352983L384.647379,398.988317L383.564598,399.920936L383.440025,401.975378L383.151379,403.874101L382.169880,404.967028L381.571054,406.538281L380.571546,407.629556L379.276192,408.348986L377.717363,408.718867L376.363255,409.341259L375.214485,410.231493L374.418358,411.607199L373.416929,412.714749L371.384113,412.361999L369.265498,411.840370L367.282194,411.468551L366.141989,412.322710L365.505640,413.953006L364.820963,415.540351L364.454284,417.666348L363.422228,418.763471L361.783808,418.868543L360.691189,419.870700L359.349405,420.453738L357.880391,420.807048L357.506667,423.111707L356.332629,424.016058L354.789562,424.238650L353.805431,425.508965L352.189355,425.571877L350.679014,425.819276L349.004866,425.715198L347.078358,425.052603L345.732303,425.567486L344.695794,426.751959L343.992204,428.705275L342.496884,428.917393L341.588737,430.482725L340.243845,431.051845L339.064099,432.026042L338.256042,433.955566L336.582841,433.726547L334.905069,433.445461L332.826361,432.032811L331.481068,432.561526L330.176239,433.208561L329.029049,434.330212L327.972220,435.764386L326.445084,435.787097L324.873327,435.640242L323.484528,436.064853L322.004614,436.177416L320.835441,437.371310L319.537200,438.146921L317.916546,437.727543L316.337305,437.413555L314.781593,437.145185L313.391672,437.531276L312.125413,438.466240L310.944406,439.843348L309.563321,440.355572L308.109861,440.525236L306.778050,441.320667L305.302800,441.379747L304.091359,442.940896L302.808573,444.209701L301.288986,444.072894L299.715789,443.526674L297.998638,441.838964L296.498115,441.572558L295.044224,441.627840L293.823809,443.757760L292.391653,444.162712L290.802830,442.949886L289.387291,443.491120L287.922471,443.484408L286.493624,443.976354L285.135014,445.766516L283.735582,447.333433L282.249985,447.464884L280.793642,448.508124L279.269096,447.489371L277.747670,445.532310L276.275034,445.524674L274.802663,445.566832L273.321825,446.396335L271.817898,447.687899L270.386926,445.442022L269.005202,442.884627L267.646790,440.778370L266.346133,438.249349L264.928524,438.305805L263.555789,437.688992L262.149618,437.609046L260.670780,438.351345L259.202170,438.831289L257.739897,439.148809L256.316235,439.055776L255.040509,437.746759L253.777839,436.490002L252.195146,437.650225L250.471079,439.598783L248.643461,441.961736L247.042564,442.689801L245.446604,443.291779L244.006046,442.968877L242.720833,441.848116L241.085542,442.531193L239.611923,442.366679L238.372794,441.127072L236.766435,441.560096L235.396557,440.944104L234.377251,438.933556L232.888713,438.867312L231.687738,437.700288L230.148498,437.814430L228.456831,438.431095L226.973445,438.275021L225.576441,437.818395L224.460085,436.466942L223.006495,436.214941L221.399840,436.412577L219.664649,436.949341L218.028110,437.149643L216.443447,437.169088L215.241112,436.130013L214.208026,434.673385L212.790760,434.247368L211.910987,432.474211L210.838692,431.229783L209.671634,430.243656L208.739480,428.732429L207.530736,427.891556L205.966215,427.850224L204.675326,427.191758L202.845802,427.675294L201.008164,428.127245L199.661168,427.538749L198.065349,427.440639L197.210376,425.881781L196.108623,424.828433L195.362595,423.128692L193.641560,423.246605L191.863712,423.433040L190.448800,422.948514L188.803096,422.850208L187.957893,421.380548L186.963077,420.185303L186.094151,418.803056L185.115856,417.617623L184.273004,416.236717L183.714312,414.444008L182.791273,413.234662L182.001747,411.844025L180.667177,411.262127L179.061967,411.055612L177.788770,410.364390L176.365391,409.873226L175.256861,408.946416L173.371482,409.046583L171.622126,408.936073L169.921213,408.736478L168.715813,407.892604L168.472129,405.864739L167.649314,404.574297L165.688444,404.646174L163.978899,404.390168L161.928552,404.500355L161.121908,403.173497L160.832751,401.285967L160.389903,399.596287L160.172697,397.689364L158.824580,397.001209L157.836465,395.930773L156.454466,395.261923L155.633029,394.022087L154.493791,393.100812L153.955823,391.596314L153.198778,390.314831L151.978904,389.471828L150.921356,388.472913L149.444187,387.848683L148.127871,387.066673L146.589146,386.467006L145.964438,385.070209L144.856045,384.088561L144.314690,382.634993L143.322232,381.557716L141.878711,380.836984L141.078272,379.599045L140.606673,378.111664L140.280533,376.526148L139.901372,374.994781L139.154306,373.743781L137.981219,372.799645L137.193129,371.577130L136.405633,370.355385L135.421755,369.267182L134.863154,367.892801L134.506491,366.393108L133.490823,365.324683L133.087093,363.867324L132.623386,362.455548L131.702280,361.326251L131.048406,360.034958L129.962589,358.995688L128.546983,358.135312L126.534604,357.590985L125.750223,356.347962L126.012895,354.544083L125.331678,353.254789L126.186185,351.179222L124.740447,350.289175L123.501092,349.280747L122.673788,348.061874L121.777023,346.871409L122.207669,345.066410L122.213061,343.473639L120.505271,342.643331L116.041750,342.968209L111.884423,343.086094L110.353263,342.061942L110.930609,340.180959L112.705504,337.858944L114.847283,335.444487L113.228395,334.464947L111.343839,333.558798L110.513766,332.258716L110.475519,330.684137L111.414112,328.796831L113.992568,326.412736L115.907162,324.291839L116.193924,322.704222L116.232107,321.202095L114.046155,320.334610L112.490714,319.261948L112.017900,317.882670L111.035762,316.630817L112.139624,314.857008L112.251807,313.343340L110.792901,312.193609L109.818229,310.917929L109.489800,309.495541L109.921488,307.921015L109.704811,306.482833L109.316149,305.076859L106.561818,304.076963L104.145694,302.977170L103.626365,301.545014L104.504523,299.903602L105.596336,298.252144L106.517863,296.645305L106.871018,295.125959L106.243784,293.724623L106.536132,292.221145L106.443515,290.761360L107.247981,289.226255L107.193734,287.772639L107.027345,286.327558L106.823486,284.883490L105.758036,283.480542L106.015886,282.005556L106.873823,280.516388L105.932612,279.086360L106.203634,277.621849L105.099679,276.171895L103.295671,274.701835L105.942333,273.246736L108.063655,271.827098L109.909305,270.436012L110.679477,269.037112L110.724595,267.618059L110.794452,266.200008L112.011994,264.853300L111.856269,263.428779L110.317252,261.889698L107.896149,260.244013L105.827341,258.588154L106.025073,257.133417L105.452821,255.591295L105.974128,254.170990L105.949563,252.684613L105.356246,251.114340L105.952076,249.707900L106.608907,248.317790L107.622353,246.994897L108.892270,245.730894L109.188044,244.304666L109.017429,242.788478L109.460994,241.388952L107.996288,239.587542L108.051915,238.090308L109.607296,236.933490L109.212618,235.332390L111.575326,234.402809L111.338716,232.840530L110.283497,231.048761L110.645002,229.621611L110.285563,227.988130L111.489029,226.801062L112.413604,225.543936L113.168731,224.243052L113.743844,222.890007L113.998105,221.432597L112.940823,219.522212L111.975394,217.614522L112.065466,216.060293L114.092149,215.217402L116.529959,214.560994L118.245165,213.659721L118.594974,212.234117L117.778449,210.324875L117.524779,208.625112L118.057807,207.248153L118.088323,205.648028L117.895614,203.935199L117.709498,202.208649L118.897517,201.115409L121.634334,200.783290L123.446222,200.038354L124.779682,199.076646L126.307243,198.229850L126.489034,196.692362L126.510203,195.057490L127.370289,193.868750L126.495226,191.710432L127.143915,190.387907L128.430573,189.435938L129.335906,188.269608L130.367988,187.183897L131.057160,185.892380L132.191328,184.879765L132.280780,183.203792L132.921818,181.872201L133.429676,180.447636L134.644060,179.496115L137.158898,179.455848L137.498734,177.923220L138.433354,176.805359L138.691121,175.194179L139.096867,173.677303L139.578426,172.205370L140.164330,170.803022L141.059148,169.635028L141.368809,167.998066L143.053508,167.464346L144.227426,166.528684L145.197481,165.427851L146.214727,164.368267L146.920570,163.038329L147.555728,161.637569L148.140670,160.180730L148.621749,158.615472L150.935834,158.751037L151.989374,157.727354L153.428232,157.078769L155.785598,157.350735L155.985358,155.502065L157.073990,154.532569L157.875783,153.266659L157.866057,151.133632L158.241970,149.376047L159.111718,148.132673L160.386769,147.332200L162.444454,147.425477L164.876827,147.988631L165.953202,147.014032L167.246858,146.297780L168.099972,145.053656L169.225890,144.135543L171.207100,144.294319L172.547077,143.669199L174.118220,143.355143L174.927778,142.049570L176.034789,141.130203L177.186941,140.270627L178.368331,139.451507L179.248312,138.202340L180.652453,137.700141L181.470873,136.341377L181.864076,134.319406L182.823344,133.122164L183.507395,131.477733L184.451651,130.216179L185.528562,129.152079L186.771788,128.352897L188.250823,127.951943L189.417242,127.024474L191.154258,127.095876L192.980765,127.361036L193.989566,126.164280L195.630500,126.132294L196.924542,125.463662L197.934013,124.238569L199.149032,123.399931L200.570690,122.975259L201.626820,121.797108L202.856838,120.965543L204.444454,120.905382L205.563051,119.822689L207.215875,119.939169L209.087273,120.601464L210.514149,120.257393L211.725428,119.393721L212.361487,117.063591L213.064677,114.814601L213.854973,112.706493L215.034532,111.574332L216.435141,111.027372L217.705322,110.102720L219.355209,110.277459L221.169330,110.990984L223.077035,112.068895L225.065479,113.501831L226.677068,113.795231L228.150864,113.660158L229.795885,114.152297L231.124013,113.538790L232.449847,112.899969L233.860185,112.574996L234.926083,110.841335L236.016015,109.101905L237.433276,108.698341L239.079786,109.345388L240.356195,108.294791L241.972318,108.884728L243.480049,108.986510L244.850007,108.363807L246.597168,109.896193L247.947208,109.188261L249.297828,108.429593L250.565954,107.038616L251.851116,105.620047L253.446000,106.455745L254.947825,106.660761L256.395127,106.431778L257.825926,106.028680L259.199839,104.965553L260.614967,104.200144L262.174903,105.204257L263.702245,106.010437L265.204538,106.655540L266.729478,108.013162L268.174585,108.022926L269.608839,107.732814L271.009561,105.842785L272.458716,105.047756L273.926860,105.144675L275.392504,105.529337L276.848824,106.164161Z" />
<line x1="50" y1="550" x2="100" y2="550" fill="none" stroke="black" stroke-width="1.0" stroke-linejoin="round" stroke-miterlimit="10" />
<text x="125" y="553" style="text-anchor:start;fill:black">GC-content</text>
</g>
<g style="fill:pink;stroke:black">
<a href="" title="CP136752:1 [250500-273099];"><path  d="M478.001882,166.878605L479.857942,170.437944L481.651601,174.029133L483.382311,177.651079L485.049547,181.302679L486.652799,184.982819L468.248207,192.810400L468.248207,192.810400L466.784369,189.450272L465.262110,186.116203L463.681896,182.809209L462.044208,179.530297L460.349544,176.280465Z" />
</a><a href="" title="CP136752:2 [993500-1011599];"><path  d="M65.317428,369.515708L63.699837,365.841848L62.146611,362.140316L60.658221,358.412240L59.235122,354.658756L77.997285,347.731908L77.997285,347.731908L79.296637,351.159002L80.655601,354.562897L82.073765,357.942557L83.550695,361.296951Z" />
</a></g>
<text x="275" y="280" style="text-anchor:middle" font-size="25" font-weight="bold">CP136752</text>
<path  style="fill:pink;stroke:black" d="M350,550L375,550L375,565L350,565Z" />
<text x="405" y="565" style="text-anchor:start;fill:black">Selected loci;</text>
</svg>