<svg xmlns="http://www.w3.org/2000/svg" viewbox="0 0 550 650">
<circle cx="275" cy="275" r="240" fill="none" stroke="black" stroke-width="1.0" />
<line x1="275" y1="15" x2="275" y2="55" fill="none" stroke="grey" stroke-width="1.0" stroke-linejoin="round" stroke-miterlimit="10" />
<line x1="495" y1="275" x2="535" y2="275" fill="none" stroke="grey" stroke-width="1.0" stroke-linejoin="round" stroke-miterlimit="10" />
<line x1="275" y1="495" x2="275" y2="535" fill="none" stroke="grey" stroke-width="1.0" stroke-linejoin="round" stroke-miterlimit="10" />
<line x1="15" y1="275" x2="55" y2="275" fill="none" stroke="grey" stroke-width="1.0" stroke-linejoin="round" stroke-miterlimit="10" />
<text x="275" y="10" style="text-anchor:middle" font-size="15">MAG: uncultured Nitrososphaerales archaeon isolate</text><text x="285" y="25" style="text-anchor:start">1,817,757</text><text x="525" y="265" style="text-anchor:start">0.45 Mbp</text><text x="285" y="530" style="text-anchor:start">0.9 Mbp</text><text x="-200" y="25" style="text-anchor:end" transform="rotate(-90)">1.36 Mbp</text><circle cx="356.315338" cy="49.195182" r="2.500000" fill="grey" stroke="black" stroke-width="1.0" />
<circle cx="428.011625" cy="90.101535" r="2.500000" fill="grey" stroke="black" stroke-width="1.0" />
<circle cx="481.607681" cy="152.880115" r="2.500000" fill="grey" stroke="black" stroke-width="1.0" />
<circle cx="510.763456" cy="230.104646" r="2.500000" fill="grey" stroke="black" stroke-width="1.0" />
<circle cx="512.030022" cy="312.639990" r="2.500000" fill="grey" stroke="black" stroke-width="1.0" />
<circle cx="485.257552" cy="390.722781" r="2.500000" fill="grey" stroke="black" stroke-width="1.0" />
<circle cx="433.613046" cy="455.116355" r="2.500000" fill="grey" stroke="black" stroke-width="1.0" />
<circle cx="363.205699" cy="498.203393" r="2.500000" fill="grey" stroke="black" stroke-width="1.0" />
<circle cx="282.364219" cy="514.886991" r="2.500000" fill="grey" stroke="black" stroke-width="1.0" />
<circle cx="200.651602" cy="503.193593" r="3.000000" fill="black" stroke="black" stroke-width="1.0" />
<circle cx="127.733894" cy="464.506448" r="2.500000" fill="grey" stroke="black" stroke-width="1.0" />
<circle cx="72.236762" cy="403.401983" r="2.500000" fill="grey" stroke="black" stroke-width="1.0" />
<circle cx="40.725139" cy="327.108439" r="2.500000" fill="grey" stroke="black" stroke-width="1.0" />
<circle cx="36.926635" cy="244.650821" r="2.500000" fill="grey" stroke="black" stroke-width="1.0" />
<circle cx="61.290587" cy="165.783304" r="2.500000" fill="grey" stroke="black" stroke-width="1.0" />
<circle cx="110.934905" cy="99.835378" r="2.500000" fill="grey" stroke="black" stroke-width="1.0" />
<circle cx="179.987006" cy="54.608233" r="2.500000" fill="grey" stroke="black" stroke-width="1.0" />
<circle cx="260.278497" cy="35.451931" r="2.500000" fill="grey" stroke="black" stroke-width="1.0" />

<circle cx="275" cy="275" r="185" fill="white" stroke="grey" stroke-width="0.5" />
<circle cx="275" cy="275" r="170" fill="none" stroke="black" stroke-width="0.5" />
<circle cx="275" cy="275" r="170" fill="aliceblue" stroke="black" stroke-width="0.5" />
<circle cx="275" cy="275" r="169" fill="white" stroke="none" stroke-width="0.5" />
<circle cx="275" cy="275" r="140" fill="none" stroke="black" stroke-width="0.5" />
<circle cx="275" cy="275" r="140" fill="aliceblue" stroke="black" stroke-width="0.5" />
<circle cx="275" cy="275" r="133" fill="white" stroke="none" stroke-width="0.5" />
<circle cx="275" cy="275" r="110" fill="none" stroke="black" stroke-width="0.5" />
<circle cx="275" cy="275" r="110" fill="white" stroke="black" stroke-width="0.5" />
<circle cx="275" cy="275" r="109" fill="aliceblue" stroke="none" stroke-width="0.5" />
<circle cx="275" cy="275" r="80" fill="none" stroke="black" stroke-width="0.5" />

<g style="fill:none;stroke-linejoin:round;stroke-miterlimit:10">
<path style="stroke:blue;stroke-width:1.0" d="M277.457295,97.262175L278.810454,91.280432L279.833093,100.253881L280.608937,112.787145L281.437698,119.877690L282.426734,121.643517L283.618533,119.317488L284.834273,117.138250L285.945585,116.917719L287.248692,114.233841L288.111868,117.304063L288.704410,122.917264L289.575952,124.864409L290.534129,125.731444L291.514789,126.300455L292.625397,125.714890L293.639849,125.977373L294.805554,125.080726L295.858592,125.098271L297.071895,124.031834L298.660620,120.628307L298.959650,125.582394L299.899871,126.301844L301.091486,125.536637L302.562643,123.307097L303.024775,126.603569L303.994909,127.081791L304.746598,128.615371L306.079211,127.297270L307.188729,127.105895L308.597115,125.612276L309.688760,125.590877L310.427907,127.057364L311.650231,126.493659L312.401431,127.830920L313.923904,126.158178L314.509634,128.075570L315.577990,128.158241L316.722593,127.982617L317.620501,128.677733L318.488783,129.451900L321.278032,123.932065L323.513891,120.456436L324.194219,121.998769L325.160344,122.617158L324.923160,126.795396L325.338327,128.909129L326.102033,129.956078L326.563452,131.812512L327.911182,131.196428L328.806172,131.826064L330.602812,130.095344L333.185759,126.442720L332.483105,131.172730L332.701936,133.472173L333.115587,135.229362L334.221164,135.302506L334.463593,137.385893L335.838065,136.836082L337.441972,135.810544L338.812235,135.349295L338.910645,137.653716L339.253285,139.376496L340.067071,140.077427L341.432441,139.645801L343.194966,138.449536L345.250607,136.733066L343.866358,141.746751L344.657177,142.470920L347.340050,139.646920L351.176114,134.809392L354.107601,131.783431L355.988523,130.743572L352.241000,139.619678L351.039210,143.840962L352.772269,142.963761L353.073081,144.524167L353.642005,145.611923L354.580567,146.084199L357.267513,143.769888L358.196361,144.304653L357.956373,146.649066L361.772613,142.758900L365.081154,139.764256L367.813698,137.728310L367.200446,140.646437L365.007557,145.766025L363.028663,150.452182L362.399835,153.138056L363.479042,153.416946L366.482288,151.099515L367.961820,150.900305L366.944036,154.011215L367.094450,155.536724L368.033168,156.029093L368.511637,157.105952L369.765147,157.207390L370.524800,157.929529L372.389846,157.314195L373.995221,157.044034L372.370673,160.595271L374.134113,160.141623L378.286038,156.990407L380.955424,155.615971L376.226822,162.519825L376.251691,164.044503L376.825968,164.952827L379.238055,163.896711L379.894175,164.735028L379.999983,166.140793L381.621717,165.977950L383.131444,165.952613L390.047722,160.570876L390.806800,161.397616L390.982491,162.788062L390.168866,165.106447L388.592094,168.101446L392.674350,165.783797L391.948990,167.952368L393.915782,167.653465L392.761774,170.163562L392.627992,171.731410L392.916722,172.912710L394.069809,173.345991L396.610733,172.621682L395.700622,174.805417L393.617574,177.911766L392.866829,179.879327L393.273943,180.893463L393.323652,182.182463L394.521868,182.570067L396.427145,182.431005L397.293308,183.100468L398.870230,183.248460L398.428354,184.890471L397.999289,186.500694L398.829375,187.196247L402.151788,186.154967L407.186283,183.990658L411.067853,182.698222L412.623732,183.025538L404.624550,189.661819L403.002856,191.992168L404.286039,192.424026L407.731478,191.509656L406.489592,193.554011L406.898314,194.557155L404.586026,197.191306L404.025970,198.736142L405.493672,199.080977L409.985079,197.711988L409.991341,198.942685L411.481300,199.341429L409.287286,201.766699L407.412687,203.972189L408.350780,204.651745L409.207722,205.381380L408.825717,206.749466L409.808275,207.418599L409.487905,208.738593L412.867162,208.254104L412.480262,209.610700L413.227794,210.423090L413.799529,211.321205L411.663320,213.441289L412.155632,214.356564L412.309880,215.419736L414.852510,215.461891L414.424416,216.779362L415.360664,217.524672L415.215902,218.712635L414.712036,220.033308L415.089647,221.000090L415.631633,221.904880L416.184488,222.808415L415.401171,224.198438L416.146018,225.029701L419.528149,224.953960L418.466641,226.429619L418.901123,227.388779L419.222288,228.386181L421.090996,228.895177L427.988219,227.878933L426.784985,229.395964L424.579985,231.183551L420.985260,233.330168L419.391069,234.862623L420.298413,235.690426L427.787052,234.795869L424.646428,236.726452L420.993870,238.734041L420.662053,239.883768L426.501412,239.582406L422.313542,241.633773L422.974748,242.557793L427.198800,242.732797L427.045113,243.862140L430.083743,244.355364L422.646749,246.884042L423.564271,247.772224L430.524321,247.606520L431.397030,248.566200L427.109514,250.371210L428.057082,251.302429L426.164523,252.664393L423.841057,254.058066L423.618164,255.136179L423.914048,256.143533L422.962149,257.302457L424.393986,258.177902L424.613591,259.199787L426.037873,260.104407L426.333253,261.130934L426.177476,262.198445L425.412936,263.309868L424.539057,264.417270L426.891182,265.305614L426.482489,266.382734L427.088730,267.402659L427.423403,268.441944L429.584476,269.419301L426.674511,270.574020L425.864997,271.641284L428.153786,272.649478L427.697037,273.712254L431.771751,274.761703L430.831148,275.840421L427.100551,276.871877L425.910911,277.900765L427.034622,278.973942L427.086325,280.027610L425.685834,281.024416L425.690323,282.068305L426.180833,283.139100L426.600055,284.213145L428.888013,285.420431L428.962000,286.495197L425.891601,287.315458L425.124645,288.298210L424.674888,289.301866L424.011828,290.278754L426.092388,291.548348L425.652412,292.554947L426.232797,293.683134L433.273183,295.664724L434.022328,296.881643L433.558312,297.935762L430.627772,298.611356L432.022770,299.934688L434.276331,301.422666L433.230306,302.374416L429.380367,302.808889L425.494236,303.184371L423.628210,303.899821L430.218191,306.296330L433.609198,308.122723L434.708072,309.506119L427.500754,309.054062L422.521276,309.014482L421.298353,309.799373L422.321265,311.120552L425.535330,313.013701L431.427993,315.654132L423.868550,314.790158L422.161470,315.425943L425.869256,317.568324L428.796205,319.544290L426.271185,319.948736L421.010035,319.486222L417.906655,319.622622L418.348256,320.850487L418.767279,322.082519L420.285068,323.694216L423.352280,325.865685L422.803905,326.822302L424.718631,328.658736L423.818792,329.500088L421.158924,329.674850L420.242672,330.479672L418.839479,331.086184L419.464652,332.483624L423.658404,335.346062L425.200217,337.184822L425.417250,338.496283L418.321123,336.671553L412.616148,335.347576L411.316108,335.904504L413.219922,337.904950L411.607812,338.314873L410.916666,339.139676L410.132770,339.915737L410.311175,341.156583L409.807822,342.069136L411.925469,344.307678L408.835007,343.909742L410.383037,345.895088L408.841686,346.271234L409.474787,347.806040L409.137515,348.827088L416.384814,354.094256L408.320674,350.797791L407.182035,351.364382L404.730613,351.149133L403.698072,351.744195L404.367810,353.360956L404.621611,354.744723L404.126035,355.675638L402.196493,355.697989L401.856085,356.717420L400.845779,357.303130L399.860245,357.896575L400.149764,359.341088L400.535937,360.869259L401.758713,362.998101L400.115579,363.145396L400.202976,364.508472L400.010387,365.683199L398.191066,365.669802L398.096362,366.918794L395.241453,366.088449L395.286522,367.438266L393.513073,367.385524L392.719174,368.082101L393.556970,370.083934L394.003409,371.801394L398.524306,376.905859L398.001157,377.911541L394.898293,376.732781L398.042490,380.872256L395.982838,380.564355L392.799089,379.229458L392.356835,380.293530L389.255643,378.945725L389.261050,380.403483L390.670525,383.193334L392.432858,386.373767L394.061339,389.491993L394.027138,391.053481L392.433396,391.093932L391.340129,391.614408L387.581536,389.418119L386.773851,390.179226L382.814542,387.647119L383.867247,390.332692L380.685551,388.524097L378.669705,387.913926L377.964017,388.713352L379.789487,392.349794L380.529082,394.835334L381.497464,397.633968L380.996731,398.775486L378.346861,397.383591L378.582572,399.397209L380.703177,403.743578L382.542951,407.846425L379.167346,405.511258L376.358235,403.808119L373.420280,401.869517L370.061453,399.304721L368.313986,398.783785L366.020756,397.494343L368.249729,402.323296L366.948221,402.384298L365.158873,401.742519L366.182376,405.075822L363.828701,403.600554L363.833262,405.527672L363.977857,407.703257L362.343642,407.233177L361.265067,407.584305L360.171336,407.904251L357.236791,405.299230L356.565351,406.236768L354.760879,405.334560L355.045542,407.853900L354.235668,408.590330L354.189472,410.640876L353.858962,412.245105L351.751743,410.741532L350.268270,410.292405L348.632855,409.533595L351.735994,417.534149L353.217290,422.723257L356.427742,431.391457L356.509477,434.226081L352.697559,429.401928L349.409136,425.448398L346.787039,422.707686L342.438471,416.235378L340.059542,413.711294L339.089078,414.136053L337.208161,412.547054L338.265070,417.499528L337.236417,417.837011L335.838137,417.306328L336.872615,422.539636L337.812869,427.733808L335.829300,425.867226L334.535941,425.654176L332.642731,423.866180L330.068521,420.191035L328.228150,418.319069L327.071458,418.230729L325.259985,416.282054L324.561773,417.429873L323.462879,417.436734L322.440827,417.659439L322.999423,422.742411L322.298404,424.084007L322.438325,428.191087L320.392812,425.253754L319.805562,427.100222L319.390188,429.625822L317.895708,428.410901L318.779330,435.850628L316.918483,433.324899L314.379404,428.002162L314.150525,431.589576L311.944337,427.230207L310.335315,425.120830L309.242747,425.125089L307.772273,423.402761L307.726517,428.218338L307.829287,434.075101L307.089991,436.111620L307.301677,443.237011L305.855974,441.931224L304.109327,438.809670L302.817979,438.079412L300.746481,432.496518L299.636265,432.537622L298.221936,430.529666L296.900422,428.958716L296.025618,430.512073L294.390032,426.284344L293.121979,424.584371L291.996098,423.905642L291.326092,427.377680L290.052973,425.296968L289.042800,425.710812L288.056404,426.451718L286.981715,426.192840L285.916331,425.996911L284.870956,426.049433L283.981739,428.771733L283.210217,434.497430L281.761799,426.792053L280.646071,425.075065L279.682155,427.511058L278.600819,426.408421L277.534993,425.300603L276.491076,424.830367L275.457854,425.692872L274.420388,424.584232L273.367456,426.324875L272.327657,425.955185L271.294359,425.518743L270.271852,424.920376L269.157171,426.922221L268.103168,426.964004L267.197408,424.148408L266.149679,424.375178L265.018772,425.798258L264.029674,424.999033L262.679148,428.838163L261.750115,427.208078L260.902123,424.944019L259.855920,424.941664L258.505699,427.741350L257.551766,426.740241L256.815647,424.054851L255.770237,424.045084L254.415507,426.296100L253.744394,423.534463L252.669377,423.708264L251.497260,424.470082L249.773413,428.509611L248.333757,430.542448L247.557890,428.681212L247.178443,424.813748L246.525569,422.636522L245.515967,422.384469L244.053880,424.319061L243.546142,421.659365L242.575621,421.246305L241.419798,421.654484L239.990957,423.178795L239.022508,422.707085L237.735977,423.516112L237.559691,419.965665L236.203914,421.037855L235.378602,420.094803L234.428753,419.631154L232.377588,423.001178L230.713215,424.876507L229.164187,426.262957L229.525260,421.416598L228.461971,421.262750L228.090170,418.978696L227.195619,418.352107L225.385592,420.422155L223.775025,421.813786L221.976516,423.656416L220.100749,425.616543L220.704347,420.819524L221.384462,416.004344L220.416966,415.614884L217.014483,421.372535L215.300993,422.707528L216.133486,417.798284L216.818355,413.413499L216.154457,412.327535L214.909782,412.596909L214.070826,411.929152L211.157949,415.845806L209.947280,415.917778L209.425723,414.505090L208.733496,413.482914L206.121605,416.421890L204.623451,416.995853L200.509404,422.721131L202.532630,416.271160L204.030737,411.026828L203.380390,409.989535L201.559420,411.140086L201.955708,408.193574L201.805224,406.306709L201.170191,405.319309L199.654958,405.875969L197.458878,407.562678L193.804999,411.633126L193.708896,409.666233L193.734039,407.544813L194.052349,405.000225L195.054675,401.434096L193.425442,402.057635L191.777956,402.673603L189.683449,403.929637L189.585570,402.158609L188.251012,402.236181L186.027730,403.578269L184.822200,403.414081L184.567882,401.901768L186.638721,397.199453L185.398703,397.127286L184.706131,396.304024L183.728748,395.863577L181.583604,396.942081L178.162704,399.613585L179.688803,395.915157L181.018542,392.547553L176.650279,396.282555L174.431629,397.280819L176.412903,393.196702L177.580099,390.169298L176.551095,389.767213L174.975729,389.985529L175.342645,387.976918L172.826918,389.227312L173.870084,386.500173L172.065091,386.925532L169.722056,387.896754L171.925959,384.012614L171.323897,383.141944L170.625936,382.374131L168.120538,383.441432L160.537286,389.540782L156.809761,391.646817L160.060994,386.880089L163.609333,381.936513L165.552101,378.627039L164.890867,377.818890L163.881232,377.332878L162.305466,377.353324L160.483260,377.572601L159.941325,376.633254L159.538377,375.576792L159.075154,374.579217L154.238137,377.291895L152.474451,377.339498L149.901160,378.029085L147.259026,378.731389L150.786865,374.449617L150.578490,373.212689L151.706717,370.946185L152.565829,368.925907L153.626817,366.786096L154.270967,364.993856L153.361529,364.370306L152.329547,363.829286L149.327764,364.685193L146.518042,365.356329L147.600675,363.284990L148.487963,361.381681L144.557239,362.749571L147.101250,359.759826L149.259474,357.084209L146.952101,357.333681L148.060171,355.386308L146.096134,355.386992L144.862898,354.911877L141.978699,355.421938L143.319621,353.373338L143.762857,351.885906L143.308959,350.933870L141.572218,350.711069L139.782914,350.495437L138.305241,350.085641L139.302132,348.321513L139.215613,347.160006L139.710936,345.701740L138.439048,345.168840L131.662142,347.402886L130.575496,346.702946L130.952450,345.278751L136.035998,341.613193L137.663066,339.669499L139.584080,337.624903L137.712579,337.341990L136.570172,336.710032L132.179900,337.487230L129.281056,337.558933L132.240537,335.123022L133.892912,333.281932L132.909049,332.541689L136.363313,330.030346L135.773116,329.153507L135.661274,328.090969L132.245563,328.265227L131.180972,327.532690L127.773693,327.626564L125.295998,327.347926L114.883759,329.749567L112.559158,329.293099L117.540692,326.420739L124.160708,323.107477L124.934872,321.720126L122.361311,321.366338L124.782516,319.498924L124.770585,318.375060L128.733591,316.137554L124.844924,316.113250L112.550816,318.274480L115.569162,316.292204L118.937630,314.270569L122.940531,312.147460L123.953925,310.795223L123.349061,309.833100L125.534867,308.244959L127.310759,306.780077L127.589725,305.655364L127.161698,304.679667L124.905978,304.054561L126.864977,302.614301L125.429593,301.813306L126.365293,300.586309L126.866865,299.446795L126.590534,298.439668L126.610859,297.386167L127.131425,296.263208L126.767958,295.270561L126.404543,294.274761L125.601846,293.329621L125.914799,292.245937L124.152485,291.393845L123.528465,290.402932L124.067727,289.294617L125.690665,288.100123L122.268860,287.336998L119.581739,286.473203L118.702679,285.452243L118.701392,284.367471L122.330630,283.091168L124.540337,281.931356L124.547172,280.889051L124.384484,279.852866L120.312521,278.913804L114.220808,277.955912L110.074867,276.891729L117.693569,275.716789L122.547399,274.640743L125.208103,273.611445L122.734259,272.535707L119.748712,271.413699L118.426555,270.299979L121.243404,269.320402L121.839609,268.281876L120.210724,267.137950L119.482396,266.022676L118.155382,264.857723L120.295928,263.921683L122.350720,263.007590L123.417269,262.036413L122.257294,260.872913L123.644600,259.945243L124.600698,258.989589L124.132095,257.884124L120.459722,256.384523L125.991433,256.004908L123.801266,254.662519L122.618071,253.429861L109.319048,250.377857L110.301458,249.358913L121.608699,250.031978L122.302502,249.060088L127.621723,248.914210L127.721873,247.880585L127.466594,246.777720L127.450083,245.715788L123.643449,243.871212L121.795493,242.385643L119.287575,240.724836L123.563089,240.566639L121.159212,238.899768L124.307710,238.537672L128.720035,238.533035L123.364777,236.082631L126.161851,235.701825L124.956117,234.271842L126.644737,233.626952L125.712963,232.252630L120.912650,229.723222L119.730452,228.207380L125.649812,228.862646L130.412122,229.236518L131.394495,228.452821L129.931768,226.867960L130.010161,225.778722L128.658893,224.189054L129.224048,223.253289L130.807615,222.690210L130.483228,221.439123L134.199846,221.706647L135.291393,221.012696L135.277197,219.894061L133.832570,218.193499L132.751853,216.612791L134.056464,216.006506L134.270505,214.949438L132.077739,212.842349L131.748485,211.517959L130.390713,209.716541L132.611105,209.530236L137.866394,210.794469L138.593433,209.981407L138.863331,208.951267L139.839912,208.266850L140.179745,207.271416L139.634989,205.821690L140.039501,204.847554L143.007459,205.227074L141.094586,203.027167L142.453072,202.571885L143.899622,202.180919L143.575633,200.807501L143.410795,199.510125L142.481556,197.754557L144.092928,197.476441L145.130392,196.873157L144.233324,195.097176L141.794080,192.336645L138.532648,189.000325L135.583799,185.789532L130.668479,181.231691L132.954191,181.313885L134.857921,181.172838L131.484135,177.470465L134.879923,178.355428L144.877314,183.917023L148.527174,185.162776L152.827437,186.940337L152.782605,185.617720L151.943422,183.691629L151.596760,182.104770L150.272917,179.750252L146.516906,175.468216L152.599889,178.819238L155.876052,180.054305L156.074631,178.860686L156.845085,178.125289L156.699402,176.630434L156.655158,175.201810L156.512032,173.671252L156.032340,171.828621L156.860839,171.107523L158.626167,171.224540L161.528877,172.396023L162.373932,171.736017L162.302758,170.227551L158.683241,165.353725L161.872811,166.873672L163.548890,166.991492L163.611613,165.548937L164.905204,165.313820L169.016063,167.939343L169.421164,166.863502L170.955712,166.950879L170.479288,164.943408L168.393132,161.181232L170.151354,161.495790L168.713488,158.331299L171.475302,159.772797L173.397104,160.327061L174.967885,160.515088L177.112207,161.393644L176.028691,158.517349L174.361296,154.881867L171.428639,149.631096L163.814999,138.504227L165.831851,139.071881L167.782359,139.593734L172.457353,143.642072L175.114586,145.206035L176.321074,144.923077L178.518886,145.977430L178.689447,144.331680L180.292294,144.628780L181.190378,143.969570L183.818866,145.762667L187.189701,148.695727L186.927757,146.431628L186.962307,144.557013L186.224000,141.481709L184.487422,136.807327L185.197622,135.801586L190.149330,141.459398L191.650509,141.796498L192.078847,140.420922L192.346124,138.754627L192.496412,136.857772L194.979506,138.886649L196.600983,139.509490L196.442320,137.043961L197.538400,136.754940L196.869980,133.273262L195.902480,129.142284L197.457962,129.621253L197.740289,127.707369L198.144462,125.982570L199.117695,125.338911L200.362908,125.236843L201.902234,125.749876L202.521661,124.387610L207.762772,132.770731L205.665989,125.672273L209.980249,132.391240L211.752140,133.697759L212.546580,132.845303L213.446744,132.221988L213.021245,128.456588L214.102804,128.193181L217.024983,132.461438L219.247648,135.163903L219.604721,133.218110L219.387998,129.708148L221.224818,131.544234L222.903968,133.045564L224.130467,133.367924L224.400379,130.997864L224.098484,126.872476L224.580901,124.908235L226.860176,128.342372L228.531449,130.060052L230.252915,132.037418L231.018736,130.999537L230.106457,124.290983L231.571025,125.436285L232.542107,124.913752L233.563733,124.562305L235.325264,126.967944L236.379805,126.813231L236.241092,121.953278L237.772716,123.611182L239.245244,125.139097L240.675963,126.598405L242.227605,128.707813L243.304344,128.782894L244.275321,128.373576L245.310843,128.269204L246.238680,127.620469L246.743360,124.686370L246.697022,118.488410L247.593443,117.224391L248.787464,117.654889L250.044605,118.535639L251.020202,117.667139L252.411228,119.588407L254.045074,123.477558L255.388231,125.585119L256.499135,126.077120L257.456028,125.329472L258.316712,123.629240L259.346590,123.353260L260.516786,124.510895L261.722672,126.264965L262.640876,124.836234L263.409799,121.178143L264.575950,122.600148L265.727382,124.120369L266.805830,124.705240L267.844602,124.643332L268.731490,120.841985L269.714183,118.337599L270.886493,121.629346L271.927901,120.652423L272.959681,117.916504L274.072234,122.280813L275.126622,123.938712L276.209148,119.010865Z" />
<line x1="50" y1="575" x2="100" y2="575" fill="none" stroke="blue" stroke-width="1.0" stroke-linejoin="round" stroke-miterlimit="10" />
<text x="125" y="578" style="text-anchor:start;fill:black">n1_4mer:GRV/n1_4mer:RV</text>
<path style="stroke:green;stroke-width:1.0" d="M276.476615,168.195458L277.272480,165.433289L278.008818,166.212668L278.568972,171.783803L279.062642,177.106866L279.820166,175.467187L280.133374,182.272322L280.761401,182.516824L281.600311,179.674596L282.520516,176.291950L282.912440,179.837389L283.388050,181.914815L283.480981,187.643982L284.226327,186.343562L284.736871,187.328984L285.484526,186.197259L286.150205,185.855883L286.994023,184.210557L288.192500,180.191173L288.802991,180.589787L290.412391,174.443171L289.749914,183.016317L289.770290,186.794127L290.158462,188.165748L291.286453,185.366385L292.479779,182.441293L293.354660,181.363272L293.635941,183.291520L294.662391,181.555259L295.012777,183.049436L295.650074,183.180581L295.945416,184.785294L296.979297,183.217123L298.884442,178.220498L298.444376,182.749860L299.372918,181.799955L299.133197,185.255910L300.094429,184.189439L300.540063,185.004796L300.601011,187.108072L300.898992,188.321346L300.686038,191.151648L302.727044,186.674036L303.916643,185.065005L305.043907,183.729176L304.877342,186.304499L304.469435,189.474405L307.067914,183.980998L305.082563,191.463184L306.358181,189.773809L307.282243,189.099525L309.214896,185.833688L311.222299,182.518846L309.462639,188.771754L309.948765,189.279778L310.821720,188.847130L309.763295,192.996459L310.717362,192.340802L311.371437,192.400063L312.553004,191.290565L315.437859,186.503248L312.940357,193.464802L312.364298,196.132795L312.416737,197.412945L313.984020,195.571174L318.624896,187.647515L321.305634,183.861456L318.339552,191.139952L316.736915,195.591745L320.103548,190.608239L324.617634,183.686254L321.669082,190.510195L321.808570,191.624765L318.033026,199.576003L321.666252,194.505993L320.781160,197.275996L321.490571,197.304898L321.943981,197.764031L322.373020,198.258515L325.175177,194.962403L326.723504,193.746190L324.328322,198.678724L325.161408,198.554223L326.057327,198.349387L326.772228,198.428746L329.890528,195.014075L329.745422,196.395840L330.612908,196.315783L328.872359,199.885552L327.881947,202.332524L329.802688,200.777113L332.033396,198.863075L329.689504,203.034303L329.005971,204.944419L330.349781,204.218646L330.777885,204.678479L329.752450,206.942975L332.591693,204.418469L336.949095,200.140767L337.300944,200.766437L334.745723,204.802342L334.546368,206.008620L337.471879,203.622675L338.027794,203.984174L338.004705,204.991082L337.009300,207.047823L338.145188,206.756608L344.091730,201.357812L339.667202,207.021705L340.523644,207.068066L339.158881,209.396735L337.914428,211.552646L339.834281,210.514326L341.045614,210.211583L347.742830,204.622016L349.200265,204.198480L351.267042,203.227078L345.704277,209.377775L344.243960,211.618504L344.873614,211.924349L346.574861,211.281076L349.370997,209.707820L347.893433,211.891962L346.455281,213.996158L353.012947,209.324594L349.305127,213.318700L344.915840,217.774032L346.573472,217.238907L346.073649,218.449125L347.486547,218.138818L348.735552,217.978032L349.223788,218.416099L348.368929,219.865583L347.776426,221.093995L348.120100,221.618280L347.360906,222.935553L349.645167,222.071317L354.132998,219.707236L356.168383,219.116130L357.569636,218.988797L357.758563,219.692138L355.756298,221.834179L354.714964,223.306104L361.478630,219.765443L363.077965,219.597470L364.306825,219.682446L357.763438,224.523794L355.334286,226.764043L351.140161,229.995553L353.902663,229.095758L357.760002,227.614348L355.772432,229.490901L359.220612,228.312204L358.889868,229.250829L353.373984,232.959221L352.303187,234.219254L353.836529,234.104512L353.855509,234.784033L352.188896,236.304054L357.300040,234.451250L364.977452,231.439042L363.165967,233.065901L362.580614,234.084311L359.099217,236.416751L357.523068,237.828258L356.971576,238.756224L355.496208,240.071812L358.963388,239.255048L362.027581,238.659154L364.591077,238.313963L362.749764,239.774302L359.569842,241.727817L355.468037,243.982242L357.407117,243.887400L359.242798,243.858015L358.712967,244.710014L359.238328,245.176881L369.988073,242.108297L366.748993,243.938538L365.072168,245.198663L365.340225,245.801303L373.811309,243.816162L379.080959,242.942591L376.517346,244.498954L373.202057,246.233682L366.638215,248.842914L361.008972,251.091496L362.683903,251.277670L365.506655,251.184229L364.371329,252.142402L365.827276,252.437832L367.128761,252.789583L368.884803,253.051863L368.597228,253.800412L364.712501,255.331296L370.451094,254.763705L371.745266,255.187192L373.657354,255.505250L363.721484,258.105016L363.750846,258.734392L369.024350,258.438898L373.564742,258.340856L370.233722,259.580246L372.890413,259.843792L365.794882,261.584427L366.811149,262.082173L366.224820,262.807187L363.285687,263.820691L362.997237,264.474775L365.706283,264.786269L372.349310,264.719250L378.373889,264.805104L376.364141,265.710396L370.933094,266.876483L370.631455,267.567499L366.907370,268.495807L366.834726,269.138690L368.999444,269.652727L374.270294,270.041117L371.558128,270.845562L371.762713,271.506741L368.345519,272.276105L370.014496,272.884687L371.520446,273.518656L373.089558,274.172777L372.885732,274.851211L372.147183,275.523929L369.115375,276.158263L368.758242,276.802193L365.140446,277.356127L366.513825,278.025228L363.433343,278.535563L362.737735,279.115441L366.710483,279.937404L368.776019,280.699022L368.859378,281.355630L367.770460,281.926480L362.269351,282.122743L361.675646,282.677827L366.565970,283.749391L366.867602,284.419537L366.589530,285.031316L364.967253,285.483538L364.868719,286.102283L369.797235,287.377072L372.210794,288.376310L371.252814,288.923153L369.034236,289.266578L367.524702,289.692612L370.120995,290.779811L369.729498,291.388546L363.188128,290.885529L361.570066,291.212733L364.426379,292.388397L368.035648,293.758590L375.818645,296.054189L370.409681,295.613973L365.308150,295.166191L363.696914,295.451149L364.884757,296.380508L368.188649,297.848198L369.117038,298.766760L372.956601,300.457979L364.850456,299.015575L365.839264,299.953970L367.635546,301.137465L368.123761,301.971613L367.597890,302.514547L362.722294,301.727159L360.447211,301.680903L362.036884,302.839080L364.928804,304.450892L367.213072,305.906433L370.178789,307.634040L371.615197,308.874761L376.436453,311.354539L375.684986,311.872632L375.359979,312.542469L374.233778,312.905234L371.253274,312.531273L370.991518,313.195782L377.868817,316.758339L379.291755,318.178129L375.758965,317.533817L371.293009,316.435200L364.142113,314.090692L358.317609,312.225370L356.163619,311.938188L361.904540,315.278443L366.273753,318.072488L363.346024,317.440092L366.067778,319.525022L360.218387,317.397566L360.684219,318.370852L354.187545,315.772541L354.019046,316.379351L354.313786,317.234909L356.481865,319.115124L358.500976,320.957568L365.111617,325.410727L356.424977,321.293146L353.912506,320.589438L353.890506,321.307063L352.740767,321.357746L357.252945,324.822436L353.664287,323.395185L352.130480,323.189745L349.691911,322.387211L350.026881,323.330383L354.578677,327.044449L347.954484,323.435567L346.902635,323.456715L350.610738,326.719358L346.878928,324.899601L349.258178,327.315760L347.095498,326.541569L348.165031,328.074303L349.639757,329.935575L347.883698,329.423880L348.216294,330.464721L346.673432,330.079885L350.813357,334.099444L351.404627,335.414144L353.109002,337.644239L356.688780,341.448414L358.647220,344.007810L360.075144,346.179933L355.168290,343.022179L350.119439,339.636732L345.499046,336.514397L347.194075,338.877822L352.277751,344.334242L352.217179,345.249446L354.219576,348.078439L352.755285,347.729017L348.534098,344.740017L340.766763,338.242761L345.803305,344.034425L342.250565,341.483494L342.582314,342.741643L343.329053,344.443730L350.619329,352.923197L351.947969,355.397012L350.788349,355.289294L347.716452,353.109727L341.390220,347.310232L335.865931,342.220270L335.948603,343.254042L336.487996,344.823734L335.719476,344.919696L337.927005,348.481706L339.913960,351.871261L338.070561,350.744419L341.520433,356.020068L334.831321,348.908862L334.947191,350.107830L333.005165,348.714151L333.920757,350.952313L334.246091,352.471663L330.553217,348.692999L331.784069,351.419132L334.910176,356.801429L331.985543,353.947296L334.522041,358.674220L332.606229,357.177916L329.991028,354.612518L329.170947,354.596397L335.427459,365.122654L337.007286,368.875413L336.149232,368.982752L333.904303,366.916279L328.782209,360.214664L328.535215,361.136926L324.399522,355.722092L323.310623,355.182538L322.492137,355.071140L321.604629,354.827438L319.551263,352.536435L318.490039,351.915575L318.489058,353.170246L320.274983,357.721310L321.214186,360.841069L320.639951,361.196826L317.081068,355.821590L320.627344,364.131516L314.694667,353.881927L314.840536,355.553883L314.914600,357.127545L315.622813,360.075748L315.258788,360.834428L314.398339,360.532973L314.798937,362.998527L314.864215,364.790968L313.884523,364.242751L312.082782,361.740240L314.978216,370.330890L314.068978,369.998904L310.135451,362.142019L309.737625,362.902671L311.248369,368.613819L309.757887,366.640988L307.803226,363.324089L306.967944,362.932855L307.352542,365.943793L309.537150,374.252339L307.937544,371.806384L306.159053,368.698474L305.293186,368.242546L304.550240,368.142005L303.469467,366.935553L302.498782,366.023115L302.179324,367.264912L300.330879,363.235895L299.992785,364.383432L301.328156,371.732875L300.773503,372.345777L297.643754,362.978560L297.572648,365.283370L296.717278,364.486672L297.575327,370.910474L298.417322,377.664880L296.851873,373.951887L294.440094,366.014235L293.795833,366.075663L293.209071,366.420810L293.555184,371.641070L293.491866,375.041236L292.874023,375.584179L291.683186,372.803084L289.303391,362.496783L289.223798,365.954668L289.231542,370.316208L288.555988,370.297819L287.854899,370.078869L286.604932,365.543665L285.870927,364.731969L285.353624,365.709821L285.639525,374.302772L284.786153,372.710213L283.920894,370.741247L282.955034,367.276832L282.453209,369.049295L281.907099,370.540396L280.775123,363.373315L280.411874,367.653919L280.160875,375.258786L279.074374,366.463473L278.292168,362.507271L277.684336,362.436429L277.120145,364.148571L276.473739,362.378462L275.859389,361.355428L275.286867,369.416002L274.639421,368.056888L274.003711,367.348694L273.430484,363.658751L272.778482,365.235445L272.055393,368.367743L271.140008,375.365515L270.524260,373.617954L269.874333,372.978339L269.556508,366.874920L268.348343,375.494482L268.362000,365.762440L267.283856,371.343780L266.556998,371.989004L266.036010,370.340359L265.595512,368.113914L264.909094,368.444309L264.154909,369.315372L263.912218,365.885152L263.610979,363.273455L262.588509,366.224504L261.812771,367.152538L261.320573,366.096603L260.516746,367.108971L260.660930,362.256555L259.076919,367.878286L258.827406,365.569708L258.304616,364.901440L257.720022,364.594619L256.895947,365.498346L256.481979,364.351864L256.394210,361.752896L256.185013,359.862760L255.519214,360.078246L253.584255,365.643990L253.179366,364.585518L251.579040,368.344456L252.723679,361.252005L251.188918,364.630675L251.662780,360.461633L251.649083,358.242945L249.005914,365.261325L247.485431,368.115532L245.654589,371.842914L247.023907,365.075596L246.041006,366.014215L246.263366,363.200345L245.116217,364.613195L243.714796,366.698398L244.669047,361.930292L243.668965,362.839559L240.296788,370.208547L240.671831,367.193702L242.188055,361.292648L242.347315,359.118692L240.197731,362.851183L237.623093,367.478095L238.720155,363.007583L239.029432,360.573588L240.116459,356.407536L237.487194,360.898275L235.530839,363.701002L232.045977,369.763467L232.674365,366.686165L234.976901,360.146590L234.037726,360.602450L231.598633,364.112172L232.977949,359.786155L232.709585,358.865457L230.993784,360.787703L231.146232,359.054543L230.076137,359.673057L227.277317,363.465671L229.129875,358.642482L230.277178,355.229859L229.980135,354.465974L227.282562,357.886223L223.910384,362.341738L219.888586,367.740251L221.171233,364.172331L218.939074,366.435392L220.761091,362.106547L222.704544,357.705633L224.255756,354.037433L222.813306,355.061279L219.503557,358.865748L221.380899,354.824103L222.266292,352.345405L221.842534,351.820507L221.935816,350.563923L218.970631,353.625007L221.768613,348.616480L221.494704,347.928148L221.573020,346.775722L222.024763,345.151078L219.944019,346.867907L215.776235,351.211192L217.067428,348.495311L219.031176,345.003152L214.281353,349.876803L209.170899,355.041431L212.995749,349.337294L216.043429,344.698150L214.292391,345.770144L216.065819,342.749337L213.711814,344.479572L213.612037,343.630424L213.614934,342.679731L214.208628,341.101061L214.656850,339.710095L215.359716,338.076437L216.125583,336.410429L212.451265,339.346600L209.119295,341.843506L204.755365,345.292545L202.868400,346.189648L206.272875,341.898063L211.005294,336.435763L209.707350,336.820136L207.066285,338.435875L205.147760,339.329193L207.511952,336.295130L205.765369,337.013433L205.208308,336.648169L204.685696,336.249677L204.088503,335.912838L202.801370,336.156184L201.844068,336.103512L198.365938,338.114392L197.501283,337.932427L199.802720,335.205716L202.845307,331.955638L203.057941,330.984932L199.392338,333.002747L201.268444,330.758047L203.480934,328.311754L203.882967,327.251159L203.367338,326.871319L199.817737,328.653345L195.672648,330.787819L196.195853,329.609577L194.773617,329.778107L190.522636,331.828393L195.980045,327.367342L196.943381,325.955854L194.736678,326.608615L197.927656,323.807070L192.628389,326.368561L197.863844,322.366161L191.517817,325.471608L192.922421,323.850815L196.806691,320.809923L197.285007,319.810947L194.755889,320.533002L188.388770,323.357444L182.895534,325.592451L185.273886,323.481635L188.123674,321.168755L187.170261,320.899611L188.260841,319.569008L187.894590,318.998725L191.757423,316.327738L187.571762,317.654994L191.537260,315.008344L189.431691,315.292582L194.451586,312.250691L194.020496,311.772658L189.970055,312.905130L185.767830,314.041221L184.698631,313.767487L183.211551,313.656624L192.134453,309.226234L189.090528,309.790225L192.994860,307.551061L189.762909,308.153708L187.811164,308.220770L183.872595,309.001898L179.778927,309.781344L183.565475,307.683594L186.302826,306.015291L183.464296,306.299387L187.303796,304.310970L184.309122,304.616490L188.458619,302.600816L183.549456,303.471511L186.563790,301.863852L191.425415,299.757298L188.876691,299.865994L191.429736,298.504209L183.359105,300.091760L174.778659,301.697742L177.376655,300.284212L181.816395,298.448146L182.728464,297.541531L181.923101,297.057563L186.408114,295.348901L180.723929,295.969467L181.250151,295.173287L180.457173,294.661077L178.698335,294.333294L184.343292,292.548939L188.681675,291.090862L184.137787,291.288759L184.207806,290.629170L190.634355,288.923081L187.893770,288.757486L187.033627,288.270714L187.921748,287.521680L186.371590,287.119833L184.053543,286.796937L180.788847,286.558742L183.789040,285.551137L185.821271,284.691789L182.750627,284.380712L186.995826,283.334771L184.396215,282.949408L178.411748,282.802004L173.232605,282.512618L172.774431,281.836243L174.143752,281.044634L177.949057,280.143504L182.661945,279.253818L189.712698,278.338331L185.602770,277.880399L180.262121,277.396998L176.408023,276.812605L172.210742,276.179017L177.939147,275.442271L183.079863,274.783389L181.242923,274.130882L176.110376,273.399554L174.721958,272.683580L180.837996,272.173445L181.278720,271.538040L182.643182,270.948923L177.928351,270.069541L176.651458,269.322786L172.148949,268.349190L170.000899,267.481043L180.873588,267.605255L185.876887,267.378055L182.937666,266.485206L185.324285,266.080291L180.999032,264.993343L178.164196,264.014034L173.841141,262.814695L183.344278,263.316049L186.268730,263.064910L185.198762,262.288353L176.785748,260.404204L177.941237,259.889409L181.391503,259.763028L183.285285,259.419708L183.945589,258.883472L186.613473,258.724733L185.218333,257.825291L189.153439,257.962045L185.266135,256.544860L182.016632,255.205590L179.675652,254.017361L182.369674,253.937939L181.865415,253.145067L182.552640,252.630933L186.501337,252.937664L182.572036,251.278248L187.471739,251.889655L187.870761,251.349496L184.239587,249.688900L181.984698,248.365674L180.987514,247.375523L178.869284,246.029683L183.307483,246.674290L187.419581,247.279939L186.453593,246.299252L189.087199,246.495080L185.896103,244.750931L180.813321,242.297539L181.518451,241.816456L190.873013,244.480600L188.551247,242.960321L187.850951,242.013779L186.705691,240.880615L186.271282,240.005860L182.514436,237.783333L181.084452,236.451401L184.695797,237.202166L185.424613,236.777363L183.481581,235.198153L180.261015,233.016331L179.534611,231.902417L181.314597,231.923879L185.411295,233.054845L186.125332,232.637627L190.599562,234.051870L191.117973,233.584579L192.982218,233.797376L193.972701,233.590986L185.957857,228.715908L191.029901,230.612344L188.652072,228.588845L193.000514,230.192714L196.501039,231.398126L197.824002,231.432127L193.562826,228.281258L187.222776,223.834363L190.364782,224.878771L193.628407,226.048550L196.419379,226.984606L197.334583,226.803314L194.057711,223.991385L188.782720,219.830774L184.450618,216.172501L186.890823,216.887715L195.771266,221.955209L191.062416,217.958268L196.424960,220.804689L197.097564,220.470033L196.926417,219.542127L202.053317,222.421416L202.150167,221.722117L204.342850,222.572170L202.947636,220.760574L197.461153,215.786271L196.832409,214.446043L199.916439,216.000101L206.634000,220.510055L202.545537,216.427784L199.512831,213.108392L191.913619,205.911835L196.515251,208.815147L198.293029,209.401598L203.553647,213.040147L200.933319,209.865198L203.956783,211.647764L208.378015,214.758412L211.591247,216.862125L206.669260,211.474231L202.590383,206.742899L209.323654,212.226919L208.129375,210.194935L207.214470,208.393430L205.676171,205.933466L206.182409,205.483272L206.466018,204.805772L213.968497,211.619295L212.184868,208.857901L209.942503,205.541397L210.604060,205.287986L209.224836,202.799843L210.208592,202.884525L213.610229,205.713142L215.441326,206.836196L216.294560,206.867796L213.200737,202.266376L212.201051,200.045810L210.808733,197.299092L209.466698,194.548333L215.597453,201.036334L219.669826,205.122951L218.470033,202.584672L217.849383,200.736853L215.725584,196.865448L218.183253,199.019921L218.278164,198.043252L220.955403,200.604152L221.647716,200.479150L222.714182,200.891690L218.964297,194.399560L220.053855,194.789298L217.655238,190.033870L217.382229,188.343400L216.211114,185.242383L217.324120,185.599350L221.814643,191.295245L224.181221,193.784875L226.343921,196.032329L226.223682,194.597870L222.404976,186.936026L226.734329,192.901004L227.317518,192.594326L230.635191,197.090452L231.186622,196.806636L228.978533,191.517718L226.030738,184.699512L225.853382,182.858060L229.385652,188.038021L234.694740,196.850963L232.601443,191.378210L227.517085,179.723092L232.013085,187.229843L232.821464,187.351604L235.281868,190.982842L232.237355,182.900200L233.434787,183.834417L236.938252,189.966130L235.978398,186.180140L236.055393,184.664672L237.979704,187.468710L236.972051,183.324806L240.023100,189.005079L241.359019,190.622870L240.252677,186.065685L240.386012,184.567536L241.057672,184.452233L244.045146,190.652330L244.562205,190.254419L244.278187,187.568382L243.444224,183.170143L243.507466,181.250406L245.988234,186.615865L247.385510,188.867710L248.419174,190.076849L248.473432,188.148515L246.844554,180.481295L248.261855,182.917325L248.883328,182.679042L250.924593,187.592301L250.217122,182.531574L250.621200,181.457862L251.033035,180.362005L251.455416,179.253378L254.253776,188.045196L255.085594,188.899126L255.910924,189.788567L256.316703,188.810975L256.657023,187.462382L256.906167,185.576021L255.780418,176.514499L256.919293,178.818122L255.581578,167.618785L256.688881,169.585517L258.546419,176.234640L259.928582,180.505811L259.262967,171.748402L260.329913,174.069252L262.006951,181.048892L262.698767,181.281417L263.585160,183.116144L264.578540,186.092803L264.723064,181.755334L265.004760,178.168342L266.028000,181.775646L266.871479,183.942834L267.746612,186.871096L268.120695,183.699809L269.312994,191.855838L269.802192,190.423742L270.189992,186.776412L270.884524,188.521329L271.032754,177.435713L271.672545,176.380020L272.384363,177.476892L273.054198,177.239527L273.729443,177.180230L274.440864,182.960840L275.075030,185.488949L275.743649,179.063760Z" />
<line x1="50" y1="625" x2="100" y2="625" fill="none" stroke="green" stroke-width="1.0" stroke-linejoin="round" stroke-miterlimit="10" />
<text x="125" y="628" style="text-anchor:start;fill:black">n0_4mer:PS</text>
<path style="stroke:red;stroke-width:1.0" d="M276.876383,139.279953L277.815378,139.257636L278.763297,138.933611L279.576252,142.652842L280.305370,147.162181L281.443277,141.951158L282.012248,148.332928L282.860420,148.822941L283.728243,148.941813L284.677950,147.975267L285.489424,148.844090L285.928933,153.717725L286.539928,156.136137L287.405248,155.797087L288.059692,157.410227L289.157880,155.084368L289.452700,159.452959L290.720570,156.002250L291.820102,154.121161L292.968682,152.097143L294.092317,150.433810L294.505098,153.361954L295.155845,154.632432L296.086887,154.205154L296.524582,156.537979L298.031022,153.046423L298.197425,156.657793L299.271319,155.559519L299.753612,157.359429L300.792496,156.493982L302.475370,152.832278L302.623714,156.020974L303.747141,154.955431L305.147016,152.844614L305.007304,156.925712L306.353288,155.107591L306.198539,158.982029L307.923723,155.857150L308.296237,157.674464L309.156099,157.737234L309.846765,158.374974L311.160157,156.960405L311.906049,157.433830L312.165809,159.408888L313.156816,159.082851L313.189529,161.628491L313.377236,163.622365L315.831677,159.106634L315.676037,162.045971L315.204942,165.729822L317.339582,162.337747L319.448418,159.164443L320.205968,159.582144L320.161745,162.001745L321.075693,161.988320L321.305412,163.633372L320.461647,167.759991L322.265915,165.614469L325.139475,161.132698L325.774009,161.819611L328.342795,158.261275L328.839609,159.296736L328.202615,162.701851L326.710908,167.772664L327.895838,167.226242L330.564769,163.739663L333.424001,160.010140L332.568398,163.607786L333.304808,164.069829L334.895033,162.932381L337.000554,160.897364L338.447533,160.134451L340.024969,159.177789L335.747544,168.527763L338.237317,165.922780L339.439747,165.598769L341.650995,163.612773L339.897235,168.225911L340.164145,169.437947L339.971158,171.360398L341.199335,171.005726L339.255603,175.583085L344.254642,169.456214L349.054954,163.823840L351.755957,161.477750L348.343183,168.125051L346.115502,172.891473L346.401488,173.977229L345.193414,177.129039L346.557723,176.669296L346.402494,178.294902L350.234873,174.564952L349.658839,176.756736L351.239789,176.103108L352.173302,176.310706L353.318338,176.260783L350.800479,180.780379L351.888592,180.769144L357.339413,175.501124L356.172044,178.280919L352.587223,183.839644L351.629114,186.216276L354.124460,184.596249L355.612233,184.171114L359.069011,181.585065L358.112489,183.922138L355.442078,188.063205L358.504109,185.996218L358.123923,187.619962L357.554086,189.411678L359.280961,188.821654L363.918115,185.328691L365.995077,184.494193L365.864725,185.864911L369.132285,183.927926L368.142392,186.123998L370.303845,185.312040L368.633461,188.096686L368.146002,189.740101L367.382874,191.605002L369.736162,190.661920L366.945690,194.278552L369.471231,193.210820L367.513612,196.017934L372.320743,193.070274L371.348699,195.020149L367.735874,199.095883L367.196670,200.595611L367.907876,201.076376L368.071003,201.991594L370.366157,201.250420L370.714335,202.032956L370.655722,203.117767L370.797305,204.042270L372.126001,204.092644L372.238458,205.035888L373.034190,205.486851L377.897410,203.102279L379.204636,203.255829L379.621571,204.029842L380.750558,204.326501L380.476904,205.559396L383.431393,204.683953L383.278283,205.841839L386.213576,205.044780L385.501905,206.553998L382.537286,209.414588L379.221361,212.421277L375.617031,215.527919L380.176538,213.810060L382.536903,213.427909L382.778666,214.274949L383.270044,214.980373L382.112388,216.586474L380.767962,218.264751L377.271637,221.047326L379.243262,220.925079L378.982863,221.969192L380.676886,222.022599L385.770047,220.424244L388.892049,219.861222L389.096485,220.732651L389.091800,221.698883L387.811150,223.244219L386.324909,224.854739L387.127137,225.422926L384.794313,227.359043L387.503993,227.104721L390.037389,226.962860L390.466589,227.718376L386.691891,230.163129L385.987802,231.334240L385.301677,232.482364L385.672292,233.215954L387.050216,233.578464L386.174178,234.773684L388.927365,234.665993L393.726688,233.888281L396.716738,233.793011L391.319980,236.514295L393.409544,236.729070L399.706216,235.643994L405.279238,234.873402L403.191257,236.484736L399.282411,238.593966L393.786788,241.093662L392.451357,242.351240L392.086447,243.322996L392.846800,243.989988L394.268126,244.496002L391.251959,246.122153L391.696097,246.866885L396.383712,246.623241L394.667497,247.895547L392.517946,249.235188L395.784848,249.392773L394.282586,250.571694L398.758870,250.545176L391.156090,252.880720L391.131845,253.716202L393.872404,254.062253L397.974054,254.215260L395.375569,255.509407L399.575079,255.712250L398.630274,256.732770L394.845561,258.137731L396.418533,258.771594L396.443702,259.622007L401.391790,259.882457L399.639639,260.965297L401.067471,261.686417L400.090247,262.663403L400.080430,263.536896L398.820264,264.515026L396.860975,265.528934L392.610094,266.676851L392.310971,267.512680L398.770391,267.959171L404.512981,268.530394L404.007843,269.449404L401.840057,270.420910L396.991546,271.440192L400.380835,272.208639L398.585951,273.103269L398.734850,273.956502L399.879901,274.810180L400.433203,275.676480L401.157741,276.552603L399.787622,277.398630L398.712413,278.233645L397.462187,279.048307L395.428774,279.814739L395.523505,280.653296L396.605296,281.546847L398.049744,282.478065L397.695179,283.308228L394.022072,283.886493L391.791321,284.532265L392.643995,285.421038L395.016870,286.467957L397.143071,287.523797L396.394621,288.295709L393.428704,288.800042L393.667070,289.660000L398.630334,291.141627L397.645273,291.876121L398.601321,292.879167L397.910823,293.647643L396.994866,294.372375L397.633652,295.343940L397.186273,296.138668L393.964896,296.429419L392.412285,296.988824L391.811053,297.713175L399.048584,300.011665L403.158445,301.763623L397.997772,301.574585L401.452155,303.237300L398.557476,303.489067L398.942487,304.481677L393.936972,304.161228L394.367782,305.143165L396.872078,306.673382L392.413052,306.382612L395.508294,308.104191L396.930875,309.403252L395.283409,309.837914L394.271264,310.440276L389.245428,309.808206L390.319100,311.008404L393.679517,312.960097L397.750815,315.199812L401.665057,317.453472L405.619429,319.785605L403.022686,319.886705L403.826767,321.171150L403.272889,321.975813L401.977666,322.499562L401.617462,323.365230L399.140011,323.404927L400.070079,324.766370L401.965657,326.540156L401.421154,327.339985L400.729645,328.074798L396.720409,327.376694L392.818777,326.666013L385.667514,324.445001L385.386195,325.237607L387.567889,327.172870L388.459282,328.541938L388.301819,329.428478L386.177813,329.357257L384.812516,329.633555L386.653560,331.515775L384.697705,331.481789L386.086852,333.172075L379.769734,330.790303L383.285894,333.627103L382.087931,333.939441L386.992242,337.651305L381.604552,335.608676L378.920419,335.037043L377.804909,335.344313L374.942372,334.596828L382.155994,339.906765L379.623575,339.365641L383.046060,342.505247L381.294599,342.437083L380.268584,342.811308L381.513243,344.659653L375.705587,341.859938L371.757320,340.206816L374.358034,342.963015L375.861366,345.019713L375.853805,346.052692L375.316310,346.716823L375.385910,347.820473L373.501945,347.498373L374.536270,349.325948L370.843554,347.605914L370.064303,348.055395L372.341266,350.881282L371.614840,351.394626L371.294869,352.229495L378.263089,358.997686L380.022603,361.642207L382.826322,365.215192L383.657692,367.195216L375.667449,361.619590L371.825403,359.485630L369.697704,358.789191L370.682491,360.847128L374.573899,365.588796L376.228514,368.381234L373.728491,367.346469L372.970286,367.915390L369.469828,365.844258L370.158585,367.781236L368.445995,367.380135L366.068493,366.283192L370.717087,372.278554L370.364389,373.269823L373.797276,378.225671L367.811419,373.323336L365.774424,372.507033L360.020670,367.601959L357.629773,366.256234L358.783589,368.826081L358.581249,369.912101L358.842959,371.546851L360.053665,374.319654L358.370405,373.727426L358.741414,375.569024L363.468542,382.752263L363.686664,384.553496L362.879111,385.103730L357.816357,380.244721L353.250407,375.869366L350.013346,373.089319L348.391539,372.356066L348.447731,373.844834L352.877294,381.333755L350.177907,379.150845L354.129667,386.238008L352.633163,385.747251L349.596470,382.996033L348.791726,383.426303L349.959222,386.795600L350.985859,390.038156L349.612865,389.675560L347.167213,387.612175L344.148975,384.562376L343.434669,385.109803L339.364530,380.175905L337.756779,379.159239L338.167694,381.499930L340.173657,386.633678L339.292844,386.894425L336.560136,383.873972L335.925929,384.512487L335.870547,386.215755L337.453370,391.004727L339.463316,396.747135L338.702004,397.347113L337.384029,396.865149L335.012073,394.257027L331.924035,390.095140L332.717340,393.758134L328.852643,387.782782L329.845735,391.934775L329.651992,393.648335L326.991347,389.956888L325.616769,389.010239L327.028856,394.409930L323.608414,388.699815L325.581613,395.615440L326.318002,399.783249L323.347105,394.909215L322.556670,395.340937L323.337917,399.835880L319.762101,393.017620L319.393336,394.530955L318.476407,394.588690L317.780401,395.256762L318.989809,401.417248L318.402836,402.564814L317.152654,401.757360L316.280129,402.060397L314.827348,400.535327L314.576475,402.803061L313.168165,401.339607L311.309358,398.258387L310.367066,398.195280L309.842519,399.609719L310.225194,404.421683L308.185409,400.340331L306.491982,397.356888L305.432232,396.719190L304.195571,395.301192L304.127926,398.748961L304.221383,403.110711L303.366628,403.452667L301.877388,400.834008L301.882405,405.259340L301.038488,405.729331L300.388473,407.230930L299.333641,406.645315L298.339373,406.339860L297.053684,404.286956L295.424445,399.940527L294.574526,400.170123L293.664357,400.005133L293.028791,401.741369L291.841330,399.563763L290.071420,392.589801L289.666982,396.065769L288.924976,396.999030L288.491015,400.916820L287.592568,400.730966L286.502109,398.443492L285.568354,397.590827L284.732802,397.814637L283.818515,396.979488L282.865476,395.360752L282.054351,395.773914L281.455827,400.415432L280.374276,395.644290L279.440730,393.036558L278.710016,395.845742L277.941221,398.673449L277.027174,395.191857L276.220547,397.646338L275.377481,399.239702L274.526718,397.142762L273.684262,396.959296L272.864101,395.652532L272.060617,394.394259L271.009827,401.520626L270.145052,401.235840L269.301847,400.552448L268.538329,398.516391L268.011940,392.944059L266.718727,400.115013L266.410611,392.444105L265.531227,393.227102L264.418010,396.560632L263.676757,395.433203L263.049727,393.319746L261.929997,396.031491L261.208080,394.942755L260.813291,391.286668L260.020582,391.101724L258.942948,393.019389L257.873039,394.683436L256.773644,396.376358L254.838261,403.222357L254.082325,402.288883L253.189844,402.217209L252.839340,399.104054L252.622291,395.499671L252.240864,393.003398L251.198838,393.976991L250.164174,394.836095L249.771141,392.634169L249.255515,391.117439L248.381145,391.252264L247.952084,389.482640L246.353206,392.610601L245.465806,392.708807L244.826260,391.830136L243.253428,394.501777L243.100165,391.818199L242.909590,389.398086L241.315325,391.965963L239.009118,396.801293L237.761127,397.892160L237.943567,394.311884L237.818438,391.856637L237.508158,390.072396L235.862535,392.362425L234.061541,394.992542L234.012570,392.472380L231.619236,396.622128L229.871439,398.810574L230.864422,393.533043L232.243176,387.446843L231.798772,386.293477L229.517287,389.811772L227.303589,393.010655L227.711003,389.713563L228.098941,386.577108L227.049413,386.902032L226.625564,385.769658L224.209540,389.143918L221.159098,393.781668L219.673716,394.848286L222.463254,386.768575L223.042667,383.579787L219.900321,388.131277L220.738613,384.480958L218.455988,387.131543L217.045387,387.979337L218.433529,383.420989L217.403577,383.558458L214.835666,386.529315L215.315151,383.833122L215.198469,382.280091L215.966659,379.201599L211.971132,384.482508L209.075263,387.703549L205.958689,391.181169L206.312375,388.787403L205.080180,389.039254L206.803270,384.522515L206.200183,383.807397L208.489643,378.594170L206.630194,379.888309L206.506496,378.506793L206.806915,376.520760L205.029873,377.626347L201.177274,381.684907L199.404950,382.648101L201.628363,377.961101L202.928214,374.671858L204.739582,370.765513L202.500571,372.398334L202.530398,370.965983L201.845273,370.493297L196.263218,376.321218L197.874160,372.844570L199.365640,369.599872L196.620996,371.655139L192.336389,375.510468L196.788138,368.768702L198.854814,365.018441L195.991011,367.105052L197.425276,364.178063L194.745533,365.980764L195.485431,363.895580L195.846340,362.270386L195.359717,361.596289L194.605267,361.212781L193.836434,360.839775L191.836694,361.745560L190.416985,362.014220L187.220310,364.062530L185.418923,364.642175L184.532541,364.286063L185.259657,362.352048L188.900571,357.656589L188.773401,356.640738L187.371646,356.826547L186.048290,356.918515L185.466990,356.317175L186.537601,354.235737L184.772997,354.699022L186.206143,352.346923L186.328430,351.168706L182.863176,353.044923L182.160202,352.544466L178.633529,354.365639L174.712377,356.438039L178.123090,352.563226L176.137137,353.037854L178.088030,350.416386L174.865831,351.818364L176.501279,349.487732L175.593173,349.099854L177.033771,346.977819L175.989130,346.696685L174.680203,346.592587L171.199093,347.999112L174.111776,344.913367L172.542332,344.957499L169.777921,345.783478L170.595423,344.189994L171.617047,342.489044L170.984391,341.881128L173.507082,339.271719L169.873433,340.559000L170.966336,338.882822L165.547022,341.173015L166.589128,339.523826L165.287713,339.275466L165.173194,338.326817L164.315684,337.805720L162.383329,337.877001L160.579889,337.850306L157.042233,338.736020L160.878994,335.647418L159.314776,335.456820L158.741911,334.736660L153.109682,336.569295L157.609531,333.281262L158.844337,331.670696L165.559016,327.461165L166.600662,326.043304L168.741018,324.140887L164.698151,325.087886L162.671913,325.074250L158.176123,326.113257L158.413449,325.052039L158.745082,323.960656L165.576441,320.195578L166.409732,318.975125L165.900559,318.305853L163.053543,318.542548L162.539118,317.849948L157.905315,318.690936L157.077541,318.073466L157.174537,317.117128L155.176319,316.899489L150.841646,317.454258L149.915106,316.807507L148.588606,316.281569L153.446786,313.767210L155.051041,312.343989L155.459524,311.312249L155.713914,310.336116L154.954092,309.660312L156.372053,308.364213L157.370921,307.207461L150.291168,308.220911L154.444606,306.223557L152.646926,305.788171L153.245699,304.744041L156.530645,303.075122L156.835213,302.141578L155.235855,301.638682L153.720763,301.097118L155.761956,299.796682L152.585584,299.575628L153.478079,298.523696L153.462336,297.656206L152.299528,296.996365L156.381563,295.419241L159.513476,294.059041L158.288107,293.433380L157.591827,292.712340L156.426931,292.050572L154.517198,291.475884L155.269954,290.530542L154.209113,289.819803L157.731317,288.565453L156.912360,287.833559L157.048850,286.994290L158.465130,286.036879L156.203221,285.423008L151.224535,284.998077L146.307778,284.500248L146.406686,283.599563L146.073316,282.726985L150.294966,281.609115L157.159076,280.428681L156.970320,279.619939L155.800999,278.840619L152.124837,278.108909L142.388039,277.438060L145.858175,276.481287L150.722474,275.566288L151.839197,274.709770L152.977185,273.868861L148.687377,272.955736L147.263502,272.049290L149.028193,271.218579L151.599276,270.441714L152.103478,269.609350L152.082095,268.756759L146.502953,267.582450L141.842099,266.389413L144.780263,265.675000L150.887777,265.249514L153.507922,264.609812L156.506950,264.040644L155.979596,263.161485L158.547666,262.603335L153.979508,261.270296L145.452659,259.395100L154.265008,259.609125L154.748616,258.825194L156.145482,258.175771L151.118197,256.589703L151.019939,255.698168L153.986493,255.302221L153.912779,254.429972L154.255217,253.628309L152.495527,252.442342L153.638601,251.784272L155.873600,251.356999L155.971941,250.520061L153.339457,249.100759L153.069736,248.160910L152.378791,247.118684L153.099763,246.394928L154.236910,245.779504L158.323488,245.913048L154.264212,244.013009L158.848580,244.332198L156.303534,242.780836L155.578734,241.696013L154.263075,240.427768L152.744850,239.076744L151.165816,237.680860L155.683544,238.140685L158.417740,238.100571L158.499634,237.238472L160.007169,236.846647L160.974373,236.290480L157.771353,234.297161L160.699630,234.426310L161.975551,233.997244L160.729445,232.648991L159.849890,231.415279L163.216853,231.803873L161.840235,230.370383L154.371370,226.458418L154.581470,225.572981L157.563982,225.845841L157.651368,224.926266L159.824015,224.909352L156.283044,222.390471L157.583945,221.992850L156.874691,220.686522L162.900477,222.515350L162.451892,221.353612L162.922532,220.623946L165.575015,220.973149L168.134551,221.314851L163.360452,217.946591L159.537689,214.982708L164.037270,216.343698L163.854730,215.260520L167.801229,216.422974L172.494351,218.063725L173.380407,217.633077L169.406775,214.423455L166.471771,211.738533L167.369325,211.260793L168.301301,210.812292L170.332735,211.044791L170.744616,210.302426L164.634044,205.449032L162.513948,203.021756L159.834060,200.179784L159.466078,198.799763L161.904329,199.280801L161.410438,197.807578L167.746278,201.024234L174.562379,204.695907L173.938517,203.213172L176.481947,203.990058L179.407900,205.089822L180.630104,204.977238L180.223486,203.654337L174.886973,198.547153L172.237051,195.392798L172.777715,194.674769L177.892401,197.602057L177.170964,195.914969L179.430746,196.643176L172.933695,190.129609L174.872248,190.563971L174.485911,189.042185L178.920105,191.677396L179.614180,191.116985L181.628828,191.736984L184.996717,193.616344L187.953370,195.189155L185.210329,191.524278L181.162215,186.543585L185.748943,189.694344L186.838972,189.562169L186.205654,187.750010L187.318772,187.644201L189.947474,189.083402L189.251097,187.173818L192.319713,189.137215L192.198677,187.813152L191.812758,186.185183L192.350274,185.527296L191.408288,183.242954L191.611883,182.185631L193.860589,183.422939L196.397501,185.040889L198.238889,185.912792L193.166867,178.687843L193.097047,177.244072L192.655478,175.325318L192.032118,173.144848L193.220898,173.174700L194.261727,173.034801L194.162219,171.446175L196.374942,172.832350L197.590905,172.960616L197.734997,171.674811L198.336804,170.988023L197.585329,168.433750L199.773206,169.925500L200.190335,168.967083L203.991935,172.863666L204.447051,172.006394L201.943928,166.754860L201.836150,164.962238L201.618783,162.963123L204.221127,165.289020L206.878661,167.788536L206.341684,165.274938L207.150383,164.881669L207.773330,164.184595L206.628089,160.519546L209.011068,162.754072L212.008365,166.136788L211.732606,163.895406L212.995777,164.341589L211.964880,160.655195L211.367896,157.660881L211.451447,155.856768L213.626448,157.993713L213.606485,155.962334L212.471874,151.677080L213.071485,150.737253L216.044201,154.624772L215.801508,151.983571L219.338228,157.256700L220.552794,157.734642L222.643828,160.166451L225.574031,164.577287L224.806972,160.752058L225.460655,160.089276L226.514442,160.360088L225.258463,155.086484L229.477703,163.077949L231.505715,165.909156L231.382909,163.363887L231.844338,162.251567L232.462472,161.522865L234.814774,165.500852L235.153219,164.057714L235.108534,161.472344L234.794626,157.999112L234.926973,155.707281L237.620479,161.123559L238.048558,159.744843L239.410312,161.294408L239.665848,159.311323L239.000894,154.149885L240.881818,157.501439L241.793523,157.616985L243.279214,159.835141L243.527365,157.571145L243.327122,153.470279L244.202083,153.388726L245.207341,153.844897L247.292422,158.867684L248.719482,161.374941L249.471908,161.045544L249.657729,158.092069L250.351124,157.368941L251.242866,157.586657L251.029028,152.167301L252.230493,153.875644L251.490977,144.998322L253.036648,148.560141L254.034125,149.148848L255.152312,150.559737L255.759862,148.764326L256.916825,150.587083L258.220829,153.671916L259.317784,155.522948L260.028178,154.484179L260.754881,153.472534L261.492328,152.442235L262.231473,151.301359L263.041871,150.748015L264.140995,153.355458L265.378625,158.099973L266.019039,155.807230L267.092564,159.393104L267.746321,156.971585L268.506203,155.892909L269.248410,154.141605L269.980702,151.563167L270.788142,150.167864L271.680148,151.220473L272.533929,151.100295L273.333051,146.662145L274.256355,152.588798L275.104153,150.744352L275.989307,147.372005Z" />
<line x1="50" y1="600" x2="100" y2="600" fill="none" stroke="red" stroke-width="1.0" stroke-linejoin="round" stroke-miterlimit="10" />
<text x="125" y="603" style="text-anchor:start;fill:black">n0_4mer:D</text>
<path style="stroke:black;stroke-width:1.0" d="M277.661060,82.523707L278.966452,83.759094L280.277703,84.178484L281.595010,84.269505L282.934120,83.820022L284.247708,84.041770L285.533042,84.734385L286.794475,85.672686L288.109070,85.671444L289.407150,85.903712L290.779302,85.222938L292.274872,83.294574L293.632348,83.082614L294.984520,82.967319L296.350216,82.762157L297.644944,83.199899L299.035497,82.840022L300.350239,83.109924L301.646891,83.500255L302.941167,83.886964L304.301450,83.825187L305.794560,82.958402L307.226719,82.547051L308.588636,82.589705L309.866574,83.109407L311.029899,84.214937L312.309470,84.664862L313.562139,85.233612L314.713486,86.263217L316.123634,86.053646L317.497426,86.037528L318.907331,85.885258L320.228202,86.132522L321.341067,87.226494L322.413265,88.435837L323.578507,89.239765L325.014103,89.012614L326.461814,88.772362L327.942533,88.447053L329.416216,88.181360L330.720721,88.514093L332.235608,88.162648L333.664398,88.121462L334.820966,88.948031L335.918101,89.936011L337.112196,90.610361L338.295811,91.304183L339.377257,92.276742L340.909980,91.973375L342.190948,92.386458L343.135112,93.697895L344.489847,93.904798L345.594213,94.762011L346.583343,95.892821L348.211553,95.431120L349.302384,96.299375L350.775067,96.253311L352.331268,96.035479L353.793326,96.059486L355.489002,95.581892L356.514382,96.608804L357.772035,97.119909L358.223646,99.334548L358.909291,101.006347L359.972411,101.871142L361.089033,102.619280L362.743004,102.304608L364.261925,102.282262L365.581760,102.660008L365.663164,105.363146L366.177141,107.202272L366.700277,108.985624L367.631551,110.005058L369.773597,108.890290L372.198785,107.343089L374.472177,106.123196L375.739963,106.643246L377.070239,107.065931L377.611454,108.775527L378.140580,110.473940L379.423187,110.958874L379.319657,113.595579L378.882947,116.682822L379.143253,118.653309L379.885487,119.874105L381.966924,119.128875L384.663796,117.543352L386.593908,117.110771L387.558878,118.058701L388.736762,118.709170L389.903602,119.378488L391.613762,119.326065L393.375492,119.230169L394.670860,119.765098L395.764252,120.566556L396.689134,121.581399L397.825183,122.328904L398.664277,123.443178L399.772807,124.224648L400.972880,124.899293L402.153374,125.602374L402.880902,126.835131L403.696280,127.957902L404.369481,129.234458L404.587967,131.005781L405.782558,131.683443L407.041886,132.297342L407.794292,133.459729L408.769596,134.381126L409.226445,135.840126L409.249972,137.727710L409.570753,139.289346L409.521839,141.201470L410.889806,141.696896L411.996772,142.456950L412.584169,143.717877L414.371541,143.841082L414.496056,145.530583L414.991220,146.860982L416.282021,147.463225L417.141639,148.459589L418.830368,148.727681L420.257501,149.242224L421.408638,150.005887L422.470072,150.851929L423.209361,151.970186L423.775781,153.227337L424.828079,154.086016L426.022346,154.836677L427.055997,155.721540L427.352804,157.180896L427.785857,158.524947L428.867243,159.373659L430.125009,160.097828L432.046502,160.347362L432.754168,161.494186L432.912991,163.028562L434.041956,163.872284L434.754903,165.009854L435.687333,165.997571L436.655310,166.965143L436.364556,168.765821L436.748963,170.108350L438.355236,170.663772L439.517066,171.515983L440.696154,172.366119L442.084793,173.097438L442.785259,174.254941L441.798811,176.409609L442.400746,177.609063L442.147845,179.296647L442.304433,180.736724L444.450030,181.065174L445.292919,182.131099L446.140175,183.198284L447.611069,183.940259L448.502782,184.997548L448.931502,186.295690L449.752905,187.393759L449.748784,188.902293L450.463582,190.052477L451.317588,191.138626L452.380153,192.131991L453.630554,193.047428L453.223951,194.720693L453.728933,195.974907L454.030130,197.316862L454.114280,198.747343L454.533314,200.030749L454.387847,201.543697L455.088597,202.706398L455.805102,203.866127L457.004096,204.843460L457.753746,206.001782L458.085656,207.318836L457.632222,208.917915L457.872561,210.257142L458.670164,211.400179L459.531734,212.527103L460.267792,213.702176L461.091574,214.853686L461.026044,216.292085L461.570822,217.535338L462.023485,218.808501L462.179521,220.169523L463.251337,221.265797L462.606539,222.849723L463.409079,224.027105L463.394256,225.426248L463.490227,226.791768L463.612731,228.147201L464.163035,229.396543L464.875494,230.611416L464.555990,232.065941L463.724806,233.623689L463.284779,235.082319L463.323533,236.432553L464.235666,237.606924L465.987912,238.630705L466.542190,239.895544L467.285086,241.131614L466.528487,242.628377L466.414495,244.007150L465.450512,245.512867L464.672792,246.974530L466.013307,248.124431L467.185844,249.313065L468.040966,250.555895L468.106033,251.902861L467.329361,253.343282L466.678804,254.757414L467.274487,256.037587L468.135495,257.299931L468.564666,258.609141L469.109591,259.913753L468.323848,261.318664L468.089428,262.676155L467.882938,264.027619L466.992760,265.409320L467.816364,266.704027L468.681179,268.007860L469.524648,269.323620L469.796712,270.663230L469.109532,272.020911L468.812960,273.365509L469.007152,274.705105L469.379596,276.048318L470.267748,277.403128L469.821495,278.744801L468.966130,280.069965L469.338772,281.424375L468.827528,282.749219L468.819277,284.091319L468.889115,285.438380L468.899670,286.783807L469.025616,288.138324L469.266759,289.504454L469.996675,290.915223L469.894445,292.263970L469.558878,293.590660L468.791456,294.870181L467.990818,296.137261L468.125686,297.504194L468.226051,298.870935L468.192772,300.223952L468.063320,301.565720L467.367772,302.826365L467.294411,304.174303L467.446191,305.559808L467.230331,306.889471L467.387159,308.283675L467.103255,309.603999L466.847157,310.928893L465.330206,312.008512L463.170301,312.940397L462.352829,314.125322L461.650191,315.327164L462.855476,316.948920L463.413727,318.443193L462.865654,319.686811L462.576526,320.990425L461.235940,322.028943L460.676483,323.255533L460.531694,324.589624L459.834850,325.774996L459.070341,326.936134L458.983089,328.287375L458.909907,329.647010L459.340933,331.164850L460.678592,332.978165L461.809389,334.751697L462.449239,336.387977L463.217584,338.083617L463.096281,339.492747L462.351007,340.688119L461.562905,341.863620L460.650127,342.988378L460.468411,344.379668L460.299675,345.780611L459.398275,346.900953L458.385719,347.970623L456.139355,348.531307L454.702640,349.399205L454.702303,350.858509L453.783154,351.930982L453.338646,353.205248L452.268697,354.201660L450.704240,354.964352L449.625487,355.935273L449.593181,357.391295L449.323689,358.742461L448.471061,359.813784L449.145383,361.640228L449.111130,363.129975L448.942312,364.560424L449.205015,366.224721L446.583984,366.369159L444.826885,366.946032L443.683393,367.840572L441.630113,368.217117L442.166317,370.040305L442.003249,371.481340L441.353840,372.646195L441.351289,374.197257L439.913053,374.891498L438.760697,375.747486L438.123924,376.916911L437.795494,378.283265L437.697675,379.805649L437.084349,381.003152L436.181027,382.010482L434.462899,382.465440L433.365343,383.325274L432.191650,384.125175L431.535704,385.281244L430.433974,386.120821L429.823985,387.310142L429.778876,388.918732L428.076104,389.305334L428.348505,391.168569L427.749925,392.385872L427.072815,393.546642L426.337918,394.664884L424.648830,395.019931L423.563395,395.846485L421.750439,396.067100L420.938752,397.102769L420.529656,398.480795L418.829150,398.758196L417.979585,399.757759L417.488220,401.074573L416.966852,402.373843L416.831948,404.033668L416.111131,405.172133L415.125700,406.067674L413.535958,406.388027L411.804338,406.554050L410.614145,407.226094L409.456773,407.923138L408.667097,408.982225L408.360213,410.535766L407.672542,411.714630L407.701037,413.649102L407.116959,414.963167L406.078081,415.799954L405.067770,416.665905L403.304947,416.699848L401.581215,416.753528L400.242967,417.221769L399.174815,417.989792L398.402904,419.101184L397.718341,420.323343L396.614784,421.052945L395.126226,421.310457L393.521953,421.408645L392.756545,422.537165L392.043033,423.740681L391.540715,425.227820L391.046187,426.744882L390.024494,427.583422L389.391935,428.946918L387.541961,428.664935L386.564779,429.560913L385.761747,430.705395L384.244963,430.842927L383.520254,432.108733L382.304950,432.669154L380.697208,432.638813L379.763390,433.605659L378.896246,434.682384L377.803359,435.417861L377.145648,436.843612L375.951781,437.429087L375.159292,438.666919L373.825455,439.023464L372.351178,439.132849L370.987281,439.413255L369.792333,439.975336L368.963396,441.181703L367.933883,442.045801L367.040958,443.166791L365.200624,442.544181L363.461079,442.069950L361.767070,441.646257L360.373701,441.774716L359.499716,442.919292L358.769155,444.373493L357.776597,445.319598L357.173575,447.094885L356.247342,448.224766L355.147262,448.998037L354.426745,450.618673L352.774523,450.180915L351.556634,450.702928L350.359816,451.273951L348.979875,451.410255L347.430480,451.119690L345.963453,451.001685L344.772614,451.557814L343.721929,452.478946L342.861341,453.919974L341.757763,454.748130L340.628885,455.522564L339.630759,456.678655L338.591012,457.746889L337.571790,458.904082L336.003084,458.442539L334.196543,457.207190L332.825882,457.266495L331.227956,456.575164L330.047295,457.210847L328.676834,457.215284L327.233055,456.945143L326.064903,457.626959L324.676411,457.517226L323.573455,458.460538L322.363225,459.021979L321.026260,459.090313L320.014938,460.485350L318.846164,461.278869L317.629642,461.894431L316.471400,462.795038L314.887533,461.744635L313.390933,461.024190L312.060061,461.064451L310.591391,460.370850L309.356779,460.870626L308.106019,461.300635L306.874078,461.857783L305.670300,462.616528L304.357110,462.725259L303.138035,463.455395L301.882095,463.979590L300.764300,465.560851L299.602078,466.949620L298.400829,468.157618L297.106072,468.674980L295.621488,467.468257L294.301662,467.718169L292.842506,466.490205L291.491452,466.297591L290.242677,467.341713L288.948700,467.941252L287.663465,468.781567L286.376024,469.763060L285.025487,469.762140L283.652139,469.227312L282.282437,468.570398L280.934891,468.316221L279.608448,468.777562L278.266001,468.642293L276.935223,469.460305L275.589683,469.081489L274.248746,468.880905L272.908183,468.896080L271.573792,468.539497L270.241461,468.286226L268.921531,467.736402L267.578227,467.977099L266.226204,468.320820L264.886056,468.330453L263.528349,468.617826L262.237193,467.822862L260.942801,467.206357L259.659314,466.543811L258.329021,466.507910L256.947000,467.010420L255.621308,466.868591L254.209469,467.525516L252.821900,467.873978L251.455773,467.989061L250.051803,468.367233L248.766201,467.818521L247.550744,466.815775L246.379452,465.595308L245.153807,464.812457L244.012621,463.565360L242.775283,462.964660L241.454666,462.860466L239.978733,463.582806L238.259200,465.496655L236.869592,465.605872L235.420908,465.974273L234.227472,465.109364L233.201047,463.529209L231.990812,462.833601L230.914671,461.594959L229.430517,462.087401L227.876609,462.810715L226.419951,463.097784L224.812639,463.917370L223.465028,463.722687L222.246021,463.060989L220.798438,463.208376L219.558861,462.625365L218.560406,461.256539L217.474387,460.217212L216.354545,459.314759L215.120494,458.786070L213.989820,457.952644L213.029270,456.639113L212.030412,455.474535L210.901883,454.705211L209.506976,454.680645L207.961033,455.043698L206.309205,455.651000L204.971516,455.404906L203.560281,455.334904L202.188837,455.149675L201.111953,454.237492L199.811661,453.872239L198.611370,453.267745L197.420845,452.643752L196.499578,451.417887L195.720568,449.903145L194.518586,449.339552L193.379106,448.643245L191.727367,449.022110L189.989873,449.543742L188.657585,449.209520L187.027529,449.456827L185.823600,448.844498L184.866807,447.758345L184.190281,446.159293L183.436565,444.735233L182.115079,444.372229L180.447287,444.621471L178.808607,444.790442L177.331503,444.652293L176.205205,443.897514L175.199630,442.941824L174.389899,441.669937L173.416536,440.682670L172.300020,439.934008L171.523063,438.649507L170.103788,438.382614L168.792499,437.936329L168.061887,436.603955L167.637379,434.833433L167.344884,432.899546L166.412388,431.925379L165.495392,430.935646L163.716269,431.162462L161.628472,431.787439L160.887478,430.536282L159.874690,429.663472L159.041792,428.554636L158.553227,427.005028L157.758333,425.870636L156.199636,425.714345L154.418931,425.817084L152.938254,425.523665L151.424128,425.255578L150.460423,424.311296L149.705709,423.122256L148.652166,422.290504L147.874901,421.139998L146.991714,420.117053L146.008238,419.210020L144.905203,418.435226L143.493603,417.992534L142.252447,417.354297L141.125501,416.587630L140.582478,415.207548L139.938837,413.943282L139.262360,412.721353L138.437243,411.655898L137.335634,410.866635L136.498211,409.815786L136.047506,408.396230L135.219430,407.346503L133.997184,406.667126L132.483393,406.248166L130.626275,406.125532L129.611499,405.224425L128.780311,404.158299L127.777805,403.242923L127.340482,401.839238L126.772420,400.556858L125.802435,399.617307L124.568159,398.892874L122.841842,398.559235L121.708293,397.730993L120.392493,397.040144L119.897831,395.699694L119.285350,394.457172L118.253858,393.536205L117.909247,392.098615L116.982595,391.098663L116.639425,389.673554L115.952223,388.503436L115.559955,387.127938L115.569552,385.481869L115.336140,384.017553L115.136075,382.541351L113.969197,381.716780L112.994532,380.758192L111.920282,379.858834L111.294340,378.668752L111.408997,377.018575L111.219007,375.571216L110.859313,374.236077L109.994583,373.207686L109.071515,372.209994L108.544253,370.979415L108.450118,369.505577L107.855352,368.321477L107.323782,367.103577L105.679193,366.488967L105.139086,365.269322L104.618825,364.040793L104.229743,362.746538L105.479585,360.628232L105.048447,359.376450L104.087196,358.385926L102.522779,357.677947L99.783752,357.506188L97.776511,356.959372L96.952348,355.851143L96.660296,354.501282L95.954614,353.336664L95.739001,351.958950L95.983202,350.392766L95.616496,349.091368L95.490971,347.694655L94.748705,346.548819L93.699131,345.518549L93.286058,344.236812L92.870325,342.957106L92.780653,341.559152L94.067148,339.675087L95.193887,337.873918L96.218517,336.131892L96.831724,334.549728L95.390408,333.654253L93.893455,332.760673L93.319433,331.563034L93.171987,330.233041L92.159208,329.162926L91.873222,327.873367L90.440998,326.907379L88.193503,326.148602L87.494045,324.949298L86.390781,323.849334L85.524150,322.678531L85.259795,321.352699L85.065536,320.011077L84.844200,318.677382L84.888493,317.285777L84.454050,316.002073L84.579063,314.599840L84.604025,313.223445L84.000670,311.972837L83.368653,310.722583L82.523315,309.505063L82.695950,308.103646L83.273454,306.641129L83.787860,305.199887L84.078123,303.802707L83.227733,302.576472L82.509067,301.322913L82.034150,300.030177L82.051854,298.672758L82.675194,297.247825L83.346262,295.828594L83.579975,294.465239L83.474877,293.139118L82.046416,291.929389L81.510319,290.629306L80.521694,289.356673L79.815882,288.052763L80.379228,286.664239L80.964897,285.283468L81.597789,283.909628L81.940562,282.556767L81.518082,281.234032L81.317141,279.900440L81.000405,278.566667L80.742870,277.228174L81.257168,275.882817L80.355585,274.541318L81.976039,273.210688L82.880516,271.890707L83.943954,270.586610L84.841249,269.291815L83.873318,267.939992L83.052422,266.580542L81.567015,265.175161L80.603652,263.778383L80.448838,262.419449L81.799890,261.164993L82.822423,259.902174L83.604017,258.631523L84.344168,257.366349L82.952925,255.897794L82.269101,254.483276L81.881400,253.090807L81.354823,251.674059L81.582710,250.343840L81.299352,248.945660L81.818306,247.654526L81.282384,246.211278L81.918377,244.940094L82.673721,243.694400L82.093610,242.229491L82.583279,240.942456L82.392998,239.533843L82.826964,238.238419L83.588449,237.010575L84.210759,235.761277L84.914543,234.534382L85.772663,233.347588L86.918459,232.234471L87.023859,230.889576L86.664988,229.429434L86.365875,227.974325L88.003258,227.007053L89.705373,226.076114L90.940824,225.038675L90.724631,223.609617L88.247921,221.524759L86.535023,219.621756L86.323869,218.139845L87.115627,216.958642L87.426010,215.630993L88.066870,214.408940L89.854740,213.570844L90.485074,212.360710L91.607490,211.324474L92.546880,210.233838L91.929529,208.586105L92.193747,207.248257L93.824001,206.424247L94.477317,205.240998L94.545208,203.829578L95.076319,202.597784L94.968182,201.104096L95.806231,199.996444L96.076051,198.651515L96.482021,197.361582L96.268656,195.795040L96.227974,194.293868L97.142284,193.221833L97.847736,192.057857L98.515635,190.878207L99.483812,189.845706L101.500314,189.337282L102.934489,188.560812L103.858991,187.538360L103.990731,186.109409L103.084095,184.123080L102.637292,182.356753L103.940092,181.527093L105.650462,180.935605L107.328124,180.344832L108.420243,179.436803L109.009253,178.243440L109.402427,176.932622L110.320005,175.931956L111.926229,175.356457L113.139465,174.554503L114.493468,173.851194L115.712534,173.074189L116.483860,172.016325L117.690077,171.246459L119.055162,170.592660L120.276980,169.854382L120.173976,168.212342L119.328429,166.033374L119.025476,164.206886L117.929052,161.786243L118.594368,160.614548L120.764292,160.556615L122.088492,159.891598L123.335004,159.178702L125.275854,159.013446L125.039291,157.162400L124.958081,155.411667L125.448114,154.102198L125.552728,152.468820L127.028179,151.958156L128.312378,151.300825L129.427553,150.509100L130.905550,150.038115L131.378574,148.698226L131.583338,147.109307L132.127787,145.810679L132.784715,144.606416L133.900121,143.822168L135.838287,143.818873L137.570882,143.646026L138.419382,142.638207L138.784808,141.153932L138.987128,139.491940L139.346674,137.968535L139.511206,136.228971L140.499791,135.322660L141.201724,134.115174L141.819929,132.810365L143.052080,132.159391L143.916412,131.112017L145.056288,130.367358L146.772239,130.277214L147.858038,129.488368L148.940451,128.698142L150.343406,128.287476L151.456963,127.544216L153.379023,127.782773L155.307629,128.060192L156.921241,127.977048L158.359519,127.693532L158.726762,126.053079L159.431369,124.826814L160.260726,123.752593L161.279104,122.922959L162.600164,122.502716L163.458688,121.456243L164.857576,121.156409L165.649870,120.010491L165.789085,117.913583L167.011881,117.358315L167.327951,115.465336L168.066539,114.173052L169.742579,114.295215L170.795061,113.476858L172.504166,113.688894L173.820710,113.302123L175.190158,113.010978L176.513395,112.656200L177.516248,111.775307L178.640624,111.094519L179.638270,110.194242L180.909772,109.767076L182.048175,109.109666L183.480872,108.985613L185.184970,109.378939L186.290880,108.684786L187.495012,108.175147L188.742060,107.751980L189.809862,106.981266L190.783829,106.015929L191.899052,105.325502L193.160745,104.935315L193.478143,102.553954L194.372130,101.348189L195.273721,100.135200L195.738785,97.922272L196.964829,97.378565L198.021379,96.441542L198.809587,94.854353L199.989706,94.170283L201.651364,94.663542L203.376676,95.356887L204.784055,95.285240L206.086209,94.955909L207.424662,94.729634L208.457144,93.679980L209.868567,93.659628L211.057430,93.024989L212.028507,91.747867L213.026141,90.511066L214.135353,89.576290L215.582772,89.671862L216.809362,89.086573L218.344303,89.501770L219.742226,89.497939L221.057309,89.228423L222.448343,89.232867L223.703941,88.765538L224.940835,88.222169L226.062986,87.227307L227.128987,85.972447L228.439876,85.658168L229.630969,84.842249L231.008602,84.801114L232.390099,84.794325L233.801366,84.944146L235.252108,85.312377L236.534629,84.895091L237.876095,84.768691L239.344500,85.327496L240.867913,86.254233L242.321169,86.872667L243.601943,86.527935L244.614192,84.488245L245.852824,83.763667L247.002924,82.379070L248.246138,81.546175L249.639453,81.787285L250.971127,81.579364L252.276811,81.144709L253.613379,80.954975L254.927096,80.538184L256.208428,79.744530L257.642059,80.553192L259.100523,81.820839L260.506811,82.650508L261.833470,82.505022L263.189054,82.817898L264.506333,82.528629L265.808032,81.848801L267.137423,81.639977L268.468419,81.415320L269.785387,80.574980L271.127345,80.431085L272.466400,79.938934L273.810449,79.188409L275.163538,79.897543L276.504149,80.953567Z" />
<line x1="50" y1="550" x2="100" y2="550" fill="none" stroke="black" stroke-width="1.0" stroke-linejoin="round" stroke-miterlimit="10" />
<text x="125" y="553" style="text-anchor:start;fill:black">GC-content</text>
</g>
<g style="fill:pink;stroke:black">
<a href="" title="OY970160:1 [-12000-9099];"><path  d="M265.462631,45.197827L269.474685,45.066377L273.488421,45.004967L277.502618,45.013616L281.516053,45.092321L280.949440,65.084293L280.949440,65.084293L277.284999,65.012432L273.619863,65.004535L269.955147,65.060605L266.291967,65.180625Z" />
</a><a href="" title="OY970160:2 [705000-722599];"><path  d="M423.998407,450.212655L420.917832,452.786350L417.792808,455.305890L414.624288,457.770507L402.483046,441.877419L402.483046,441.877419L405.376042,439.627117L408.229325,437.326668L411.042024,434.976772Z" />
</a><a href="" title="OY970160:3 [762000-784099];"><path  d="M386.817639,475.989591L383.292857,477.910466L379.735087,479.769533L376.145414,481.566225L372.524932,483.299995L364.044503,465.186952L364.044503,465.186952L367.350161,463.603944L370.627688,461.963486L373.876086,460.266078L377.094366,458.512235Z" />
</a><a href="" title="OY970160:4 [844000-866099];"><path  d="M326.147732,499.240740L322.226401,500.099238L318.290685,500.889169L314.341782,501.610291L310.380895,502.262386L307.304295,482.500440L307.304295,482.500440L310.920757,481.905049L314.526278,481.246632L318.119758,480.525391L321.700103,479.741545Z" />
</a><a href="" title="OY970160:5 [1523000-1543099];"><path  d="M79.154303,154.399573L81.288899,150.999962L83.482501,147.638123L85.734442,144.315080L102.192316,155.678986L102.192316,155.678986L100.136197,158.713069L98.133343,161.782574L96.184364,164.886567Z" />
</a></g>
<text x="275" y="280" style="text-anchor:middle" font-size="25" font-weight="bold">OY970160</text>
<path  style="fill:pink;stroke:black" d="M350,550L375,550L375,565L350,565Z" />
<text x="405" y="565" style="text-anchor:start;fill:black">Selected loci;</text>
</svg>