<svg xmlns="http://www.w3.org/2000/svg" viewbox="0 0 550 650">
<circle cx="275" cy="275" r="240" fill="none" stroke="black" stroke-width="1.0" />
<line x1="275" y1="15" x2="275" y2="55" fill="none" stroke="grey" stroke-width="1.0" stroke-linejoin="round" stroke-miterlimit="10" />
<line x1="495" y1="275" x2="535" y2="275" fill="none" stroke="grey" stroke-width="1.0" stroke-linejoin="round" stroke-miterlimit="10" />
<line x1="275" y1="495" x2="275" y2="535" fill="none" stroke="grey" stroke-width="1.0" stroke-linejoin="round" stroke-miterlimit="10" />
<line x1="15" y1="275" x2="55" y2="275" fill="none" stroke="grey" stroke-width="1.0" stroke-linejoin="round" stroke-miterlimit="10" />
<text x="275" y="10" style="text-anchor:middle" font-size="15">MAG: uncultured archaeon isolate MFD01231.bin.c.7 genome assembly,</text><text x="285" y="25" style="text-anchor:start">1,959,773</text><text x="525" y="265" style="text-anchor:start">0.48 Mbp</text><text x="285" y="530" style="text-anchor:start">0.97 Mbp</text><text x="-200" y="25" style="text-anchor:end" transform="rotate(-90)">1.46 Mbp</text><circle cx="350.634430" cy="47.229429" r="2.500000" fill="grey" stroke="black" stroke-width="1.0" />
<circle cx="418.560811" cy="82.671392" r="2.500000" fill="grey" stroke="black" stroke-width="1.0" />
<circle cx="471.856635" cy="137.713930" r="2.500000" fill="grey" stroke="black" stroke-width="1.0" />
<circle cx="505.090425" cy="206.747553" r="2.500000" fill="grey" stroke="black" stroke-width="1.0" />
<circle cx="514.875260" cy="282.736914" r="2.500000" fill="grey" stroke="black" stroke-width="1.0" />
<circle cx="500.213949" cy="357.937790" r="2.500000" fill="grey" stroke="black" stroke-width="1.0" />
<circle cx="462.600655" cy="424.686319" r="2.500000" fill="grey" stroke="black" stroke-width="1.0" />
<circle cx="405.868621" cy="476.180029" r="2.500000" fill="grey" stroke="black" stroke-width="1.0" />
<circle cx="335.799516" cy="507.171098" r="2.500000" fill="grey" stroke="black" stroke-width="1.0" />
<circle cx="259.534215" cy="514.501168" r="3.000000" fill="black" stroke="black" stroke-width="1.0" />
<circle cx="184.845063" cy="497.423217" r="2.500000" fill="grey" stroke="black" stroke-width="1.0" />
<circle cx="119.343772" cy="457.677691" r="2.500000" fill="grey" stroke="black" stroke-width="1.0" />
<circle cx="69.705705" cy="399.315133" r="2.500000" fill="grey" stroke="black" stroke-width="1.0" />
<circle cx="40.989570" cy="328.283383" r="2.500000" fill="grey" stroke="black" stroke-width="1.0" />
<circle cx="36.121886" cy="251.821421" r="2.500000" fill="grey" stroke="black" stroke-width="1.0" />
<circle cx="55.598725" cy="177.721633" r="2.500000" fill="grey" stroke="black" stroke-width="1.0" />
<circle cx="97.435168" cy="113.535669" r="2.500000" fill="grey" stroke="black" stroke-width="1.0" />
<circle cx="157.367581" cy="65.804842" r="2.500000" fill="grey" stroke="black" stroke-width="1.0" />
<circle cx="229.288138" cy="39.393494" r="2.500000" fill="grey" stroke="black" stroke-width="1.0" />

<circle cx="275" cy="275" r="185" fill="white" stroke="grey" stroke-width="0.5" />
<circle cx="275" cy="275" r="170" fill="none" stroke="black" stroke-width="0.5" />
<circle cx="275" cy="275" r="170" fill="aliceblue" stroke="black" stroke-width="0.5" />
<circle cx="275" cy="275" r="164" fill="white" stroke="none" stroke-width="0.5" />
<circle cx="275" cy="275" r="140" fill="none" stroke="black" stroke-width="0.5" />
<circle cx="275" cy="275" r="140" fill="aliceblue" stroke="black" stroke-width="0.5" />
<circle cx="275" cy="275" r="133" fill="white" stroke="none" stroke-width="0.5" />
<circle cx="275" cy="275" r="110" fill="none" stroke="black" stroke-width="0.5" />
<circle cx="275" cy="275" r="110" fill="white" stroke="black" stroke-width="0.5" />
<circle cx="275" cy="275" r="109" fill="aliceblue" stroke="none" stroke-width="0.5" />
<circle cx="275" cy="275" r="80" fill="none" stroke="black" stroke-width="0.5" />

<g style="fill:none;stroke-linejoin:round;stroke-miterlimit:10">
<path style="stroke:blue;stroke-width:1.0" d="M276.943081,123.473987L277.983283,119.921454L278.969750,120.249884L279.882817,122.745807L280.825053,123.661887L281.893885,121.508034L282.962958,119.899657L283.790572,122.840132L284.861596,121.411671L285.709050,123.419607L286.627185,124.186562L287.786355,121.961685L288.624902,123.629855L289.583886,123.837845L290.595921,123.516161L291.656421,122.801570L292.876565,120.801886L294.040243,119.487832L294.735008,121.955160L295.511429,123.594474L296.208547,125.653559L297.198090,125.574845L298.140938,125.815837L299.126464,125.785355L300.662281,122.499197L301.146289,125.487809L302.051390,125.950838L303.086663,125.701528L305.206414,119.913535L306.091351,120.650903L309.622569,108.638375L313.377296,96.347422L310.858315,113.135287L311.391287,115.577278L312.108949,117.106639L312.944571,118.075883L312.087323,125.815114L312.431758,128.449674L313.456597,128.365123L314.410903,128.559522L315.186856,129.402995L316.302139,129.018543L316.973596,130.196259L318.013918,130.088741L319.015633,130.125898L319.928480,130.460002L321.050906,130.132773L322.794365,127.921478L323.993526,127.456834L324.803101,128.173437L325.174255,130.139425L326.003033,130.744284L326.632902,131.889349L327.257462,133.016786L328.809732,131.641906L329.301134,133.104956L329.933165,134.165445L331.001958,134.100725L332.949362,131.881629L333.673303,132.723086L336.314313,128.982495L337.908394,127.836895L338.677719,128.640944L338.481621,131.611991L337.669316,135.863807L338.373436,136.676123L339.167421,137.282048L339.636729,138.566884L341.131406,137.694417L341.905981,138.334706L343.562412,137.195795L344.664503,137.203324L346.513572,135.770334L347.643286,135.774787L346.747255,139.615941L347.443668,140.395036L348.812910,139.933435L349.605568,140.539069L352.060090,138.190505L360.332132,125.750872L367.496158,115.601522L367.219821,118.399537L363.592444,126.741690L359.906750,134.956871L358.903411,138.592437L361.554468,136.283534L363.968983,134.428993L365.658968,133.770984L365.248967,136.373132L363.079607,141.584246L363.545658,142.730782L365.257929,142.025462L367.812369,140.131313L368.165959,141.459215L366.904716,145.050726L365.526261,148.725165L365.075719,151.039963L366.823900,150.323151L369.909362,147.849377L373.616273,144.635458L371.161241,149.560762L369.730181,153.054984L370.973798,153.075908L369.537513,156.472280L369.826589,157.661236L370.931628,157.838615L371.943657,158.139417L373.372825,157.952156L374.471067,158.174581L375.415613,158.585844L378.987869,155.995900L387.000164,148.473251L394.274453,141.983852L401.775471,135.429619L400.610801,138.481025L401.126398,139.672515L394.681768,148.226920L390.302118,154.424387L387.010238,159.360485L386.614957,161.237386L388.286425,161.005204L388.723898,162.023185L388.039043,164.134600L385.277987,168.221219L384.817326,170.023216L384.998336,171.191824L385.617399,171.940558L386.456398,172.486001L387.589698,172.768519L388.645159,173.131989L389.342538,173.821619L388.939681,175.473419L389.290401,176.451901L389.661053,177.407130L390.561236,177.911834L391.585129,178.320024L393.042662,178.382023L393.382561,179.364847L393.409095,180.591726L393.870346,181.464396L395.308939,181.575244L395.797974,182.431009L396.039389,183.471894L396.648615,184.231369L397.338066,184.932325L398.216569,185.498171L398.909902,186.202682L399.657091,186.871524L401.840338,186.542372L404.496381,185.918785L401.826671,188.948112L401.897049,190.083502L400.901234,191.913704L401.750547,192.515018L402.405660,193.246795L402.874548,194.098758L404.408515,194.285517L405.507287,194.757959L407.018917,194.990517L408.414850,195.309692L406.903460,197.355647L406.652378,198.635872L407.693175,199.165085L410.495201,198.712106L410.984827,199.580685L409.272912,201.651980L408.635706,203.108783L410.726457,203.102360L417.259301,200.805970L421.838897,199.611210L414.268389,204.622710L411.795826,206.969793L410.863234,208.516778L410.990062,209.532140L411.631169,210.299341L413.715573,210.397928L414.837099,210.963516L416.074966,211.487756L416.957647,212.181982L419.625481,212.107264L417.449759,214.136550L417.199701,215.318719L420.780985,214.912146L416.747260,217.635295L418.365641,218.047429L421.444789,217.908693L420.917159,219.189561L419.787538,220.683247L418.982007,222.036094L419.158740,223.018077L423.047129,222.686243L424.309974,223.314528L425.022506,224.142744L424.386812,225.423912L422.718696,227.026795L423.765335,227.739225L425.814356,228.150773L427.666046,228.646824L426.521776,230.053354L429.013487,230.386657L427.352292,231.924788L436.601887,230.426651L439.930189,230.644653L433.562643,233.445505L428.100550,235.924338L423.814080,238.033101L422.577214,239.343448L421.916760,240.498540L424.654235,240.866699L423.972499,242.025663L424.238794,242.969138L423.996897,244.019098L423.755899,245.062983L426.278637,245.563306L427.096788,246.415053L426.044409,247.614373L425.917457,248.635761L426.789650,249.485288L427.831546,250.316751L426.284444,251.560964L426.807436,252.475739L425.103550,253.711306L424.747491,254.740447L424.856672,255.703333L425.430782,256.609190L425.246702,257.608747L425.487793,258.558009L425.710635,259.510906L426.439325,260.416692L427.827314,261.271475L426.964606,262.330704L430.067500,263.072723L430.832495,264.018534L431.153944,265.001697L429.669979,266.092152L430.304696,267.054382L430.722278,268.033833L434.376219,268.894086L432.055170,269.991315L431.825283,271.005066L428.491752,272.074688L430.729746,273.030853L432.643851,274.017580L434.841240,275.028826L432.815175,276.040411L429.528437,277.009702L428.927138,277.989150L426.249566,278.907489L425.720165,279.861072L425.912675,280.836177L427.933907,281.896703L426.982918,282.830633L427.251735,283.823673L428.279483,284.869769L428.318354,285.859871L427.741507,286.803789L428.031279,287.813806L428.607517,288.854464L429.336950,289.918528L430.649871,291.053453L427.597365,291.728178L425.782180,292.508351L428.336145,293.802138L427.612441,294.707480L432.383849,296.350495L435.135803,297.770459L425.789310,297.428785L424.965880,298.290138L425.121640,299.301144L425.201391,300.303447L426.714674,301.559902L429.506344,303.070869L425.554702,303.351353L425.372625,304.316692L427.689380,305.785935L426.694255,306.598847L425.719575,307.405550L425.676800,308.408589L425.273762,309.331629L424.588614,310.185844L423.855621,311.022261L423.855591,312.034219L425.535595,313.478849L425.064758,314.385304L426.337650,315.758389L425.958787,316.696345L424.857759,317.428300L425.838426,318.752594L421.773066,318.595616L420.252994,319.159617L420.033592,320.110847L418.980030,320.797726L419.312857,321.924671L419.147053,322.894925L423.366712,325.355617L423.285348,326.390686L422.193333,327.071788L424.288952,328.892672L419.189463,328.099270L418.266065,328.804930L419.646795,330.384362L417.495935,330.611067L418.197812,331.945708L418.052546,332.953006L416.147939,333.237778L415.170534,333.889110L414.960946,334.859780L413.761760,335.402325L413.097937,336.169622L413.464414,337.397042L416.227822,339.734977L414.474172,340.016591L413.556041,340.673359L412.120090,341.072804L410.553911,341.392468L410.422392,342.408118L410.771611,343.671731L409.967978,344.355647L409.247508,345.077156L408.670186,345.870136L408.276363,346.759898L409.321670,348.437571L409.793385,349.822108L410.788919,351.517782L412.801346,353.820215L414.985372,356.265120L422.985571,362.182898L415.580410,359.039194L409.858563,356.796959L405.966122,355.589263L405.463940,356.438149L407.202547,358.706183L404.446966,358.128992L404.070989,359.061332L403.834726,360.088924L401.773877,359.900291L401.144681,360.655618L401.330686,361.970662L403.530499,364.705259L402.164167,364.969704L399.252056,364.110364L398.449758,364.739250L397.766917,365.451702L400.201799,368.490173L410.693177,377.686023L412.061465,380.110394L411.683600,381.219393L402.113501,375.096158L401.981786,376.318268L402.865613,378.372261L403.974243,380.643189L400.440283,379.099627L398.200500,378.582078L394.591316,376.863631L392.495893,376.385978L390.775406,376.203735L388.616398,375.608931L388.120340,376.471187L386.932803,376.708702L387.938689,378.952584L387.797166,380.166300L387.162410,380.926978L386.099031,381.278708L385.751673,382.314861L384.843650,382.809207L383.276419,382.642745L384.041765,384.802777L380.994742,383.112232L379.831554,383.306373L379.366094,384.218254L378.710056,384.934430L379.679084,387.396814L380.111794,389.322540L381.002572,391.785569L378.783566,390.824568L376.591428,389.851426L375.638522,390.254966L374.328103,390.237393L373.281391,390.512565L374.069437,392.963058L373.920277,394.330859L373.880716,395.852010L374.083257,397.696480L372.921064,397.860772L371.061899,397.126621L372.335613,400.392285L374.978515,405.516217L375.512831,407.971328L376.468833,411.040719L371.709785,406.410052L367.928386,402.982851L367.271775,403.807733L366.159024,403.993563L365.087455,404.227470L362.723732,402.572727L361.755588,402.913898L361.310518,404.031023L359.688014,403.379131L357.612754,401.997426L356.834344,402.583173L355.807734,402.778196L354.764602,402.937415L354.380898,404.159372L353.507611,404.593958L352.432812,404.689018L351.938876,405.759400L351.164992,406.364129L349.900476,406.113495L349.203656,406.849487L348.641165,407.835708L347.812644,408.350502L347.678143,410.157426L347.528690,411.977981L346.606512,412.358954L345.959136,413.272928L345.816593,415.201082L343.418099,412.638607L341.454625,410.867403L340.702282,411.540562L341.404623,415.295490L340.202868,415.072208L338.208470,413.095324L337.256656,413.353265L336.366797,413.746355L335.439875,414.054162L334.301457,413.863868L333.884393,415.372562L334.595562,419.661319L333.340812,419.234665L332.333497,419.401109L330.639385,417.797236L329.286442,417.010079L328.429275,417.500696L327.311700,417.288888L327.102669,419.576028L325.559384,418.165194L325.050742,419.672682L326.249875,426.271196L325.685904,427.824011L322.901680,422.589856L321.071224,420.112411L319.816632,419.363850L319.125460,420.424146L317.962124,419.928370L316.988767,420.051713L316.279456,421.102432L316.328589,424.944352L314.770809,422.990476L314.683680,426.536459L313.495009,425.940128L312.578496,426.393849L310.844457,423.473252L309.473189,421.916473L308.812109,423.370510L308.150641,424.898260L306.647584,422.583886L305.968324,424.072480L305.809600,428.235870L305.105808,429.867577L303.771218,428.241503L302.872710,428.890397L301.234601,425.336714L300.237378,425.307045L299.110715,424.459342L298.336538,425.804226L297.470872,426.637646L296.752475,428.574579L295.565441,427.216891L294.385736,425.764929L293.313136,425.022044L292.588227,427.190823L291.792725,428.957376L290.589910,426.963453L289.483812,425.693474L288.546062,426.104638L287.538049,425.721554L286.589741,426.038549L285.724243,427.578264L284.918079,430.344228L284.174030,434.798279L282.978058,431.496778L281.926239,430.463288L280.974753,431.697944L279.825975,427.195188L278.857796,427.531937L277.911198,429.224004L276.949320,431.412717L275.932130,429.072480L274.943993,429.592975L273.948712,430.182105L272.980408,428.145981L271.963648,429.905921L271.062177,426.357041L270.073913,426.878299L268.985241,429.801100L267.856555,432.767580L267.050053,428.754262L266.179764,426.714510L265.248433,426.015286L264.268953,426.109526L263.270004,426.427974L262.324260,426.051870L261.197567,427.720057L260.341432,426.360009L259.260017,427.338945L258.149172,428.458435L257.165160,428.350381L255.880888,430.686662L254.969647,429.890848L253.946555,429.982470L253.320615,427.263931L252.516908,425.965657L251.510701,426.067032L250.440416,426.543366L249.642158,425.357275L248.627074,425.485435L247.957461,423.692432L246.864685,424.258144L245.627910,425.510969L244.141325,427.906555L242.311396,431.782883L241.422784,431.030894L240.855202,428.864720L240.706251,424.982271L240.113195,423.196304L238.803386,424.457147L237.172950,426.924316L234.525037,433.224731L227.345461,456.437512L227.868485,449.874628L228.996157,441.435787L229.320747,436.228279L231.532957,424.752136L230.834414,423.592924L229.783639,423.631735L229.274018,421.917021L229.034604,419.416186L228.303770,418.521502L226.812183,419.940420L226.360165,418.225739L225.366326,418.131400L223.999931,419.080482L221.109210,424.198735L219.890153,424.565201L219.205470,423.481676L218.504668,422.467951L219.716478,416.580580L219.105020,415.481168L217.105793,417.832723L214.877087,420.641682L214.158680,419.743519L214.567647,416.228631L213.705868,415.740522L213.749534,413.212536L212.578290,413.451897L211.160509,414.207329L209.393870,415.672014L209.243111,413.667076L209.114990,411.666772L208.550006,410.608895L207.531445,410.482012L206.294019,410.777984L204.276939,412.567426L204.057558,410.844888L203.914910,409.016692L203.155590,408.375182L202.390780,407.749179L201.521591,407.315948L200.548862,407.065252L199.950231,406.154103L197.065933,409.191140L193.253889,413.699377L193.988243,410.460157L195.571736,405.899580L195.272671,404.512586L193.866398,404.923424L193.746041,403.277948L193.554287,401.775058L192.593792,401.479320L191.247580,401.760941L190.789815,400.693935L190.160179,399.894359L189.104360,399.720556L186.516123,401.731355L180.697375,408.236944L183.075742,403.126411L184.083292,400.021693L184.011019,398.449106L183.696716,397.226729L183.442749,395.941463L182.905503,395.043807L180.816619,396.150104L179.140263,396.688052L180.112299,393.878009L179.933694,392.547868L177.048834,394.539081L174.087099,396.555261L172.446265,396.932344L171.587622,396.364857L171.806998,394.546064L172.958825,391.690570L172.301226,390.933925L169.940462,392.077781L166.807417,394.024948L166.931025,392.368055L168.550047,389.132320L169.121549,387.070171L168.493540,386.296566L167.311491,386.096833L168.545285,383.424129L167.263501,383.331296L163.908265,385.281652L162.807423,384.955142L161.162442,385.145171L162.150691,382.796561L164.329713,379.366200L163.757982,378.565793L161.786730,379.053890L159.055205,380.200959L153.683851,383.664460L151.762148,383.969652L154.818224,379.901989L155.040264,378.360459L155.375730,376.742232L153.438491,377.053828L153.170599,375.954071L155.435617,372.790872L154.044412,372.641051L155.979347,369.825051L156.004482,368.564007L155.524650,367.707767L155.033349,366.862667L154.377455,366.143922L151.905070,366.778093L152.068723,365.435447L150.362380,365.464784L148.841873,365.338994L150.748477,362.773958L149.777806,362.261433L148.990034,361.615356L146.987075,361.788750L144.004408,362.590149L142.320747,362.490039L143.224764,360.686637L142.233328,360.125051L144.191187,357.691000L144.655144,356.232629L144.647126,355.081749L145.322732,353.525831L143.971361,353.200318L143.939713,352.083820L141.979556,352.092989L140.729602,351.671503L138.848428,351.592214L137.415526,351.241052L136.596496,350.539021L139.412223,347.877755L138.094680,347.458327L137.564651,346.614539L139.569776,344.469185L137.936363,344.200549L137.068675,343.532310L135.226725,343.333529L136.514626,341.607083L138.420976,339.615132L137.623042,338.917836L136.201307,338.499871L133.244894,338.756416L134.513911,337.105713L134.899012,335.864574L133.948355,335.205400L132.534813,334.731741L132.730783,333.579820L132.851326,332.466967L133.207212,331.268018L131.528526,330.872030L131.751382,329.730031L130.963565,328.975197L132.357544,327.412229L133.327068,326.027322L132.418097,325.324217L130.681486,324.898816L129.902225,324.128925L130.663914,322.841634L131.287330,321.614402L130.737124,320.772616L130.447227,319.846448L129.893369,319.000287L129.405270,318.130841L127.924233,317.545678L127.406554,316.671728L128.482816,315.355290L128.501588,314.341255L129.087183,313.182619L126.553492,312.830285L125.163632,312.162963L126.478179,310.827586L126.156832,309.896706L125.492482,309.042608L126.656012,307.778598L124.917011,307.154925L121.296935,306.901110L123.078020,305.516671L125.136683,304.104698L126.271896,302.895811L123.061671,302.490600L119.957417,302.026734L117.073119,301.487247L122.227328,299.616701L124.172098,298.312103L124.223112,297.315284L124.571148,296.278993L123.166995,295.485447L123.024719,294.513258L123.430416,293.474056L120.179354,292.863603L120.675182,291.804392L121.801577,290.688439L120.295433,289.840928L117.979436,289.047609L118.759186,287.968556L112.571648,287.433996L109.153097,286.626530L111.283464,285.422707L108.683925,284.517857L107.852893,283.490512L101.508147,282.697824L100.388899,281.625951L102.021818,280.453481L107.548704,279.204646L115.569427,277.980461L117.352421,276.936022L116.094175,275.932458L113.383818,274.912043L118.092314,273.908472L117.856027,272.899089L117.571631,271.885550L119.879738,270.936028L116.908960,269.843612L120.984651,268.987706L121.564750,268.024741L121.316107,267.025654L123.508982,266.165101L124.491427,265.253655L123.847731,264.238277L124.407916,263.307190L122.699590,262.191582L122.349321,261.175836L121.993169,260.153844L124.017918,259.372447L123.364661,258.321439L123.107355,257.306686L122.751243,256.274961L122.069847,255.194912L122.180861,254.212112L122.869919,253.311431L122.112459,252.202250L120.573935,250.959630L120.672483,249.960390L124.276291,249.552155L125.765844,248.818377L124.971254,247.686226L125.504040,246.791689L119.839995,244.691348L113.990886,242.475626L114.251051,241.453967L113.410081,240.195741L123.022912,241.245080L125.915104,240.882893L125.530383,239.784742L124.180531,238.444398L123.781886,237.319564L127.103855,237.138489L128.244946,236.426259L128.005326,235.353890L128.061738,234.356610L127.845233,233.279135L128.518453,232.453380L128.534366,231.437694L126.155514,229.689327L125.201777,228.347385L126.668380,227.758659L125.929729,226.468424L130.181997,226.823619L131.801389,226.340317L131.465473,225.197276L130.206309,223.717830L131.279203,223.058286L131.368549,222.046861L132.853519,221.556511L133.620029,220.807487L133.868836,219.862368L133.657087,218.732357L134.047633,217.838094L132.793679,216.264967L132.584664,215.106813L134.081505,214.670019L135.012384,214.003464L134.739502,212.811423L136.406141,212.483941L136.860648,211.619853L137.327235,210.762149L137.237362,209.641298L135.689860,207.809422L136.909098,207.302632L135.389285,205.443693L136.641719,204.956722L137.871191,204.470884L135.155838,201.936626L136.769837,201.647773L141.516940,203.066143L142.576445,202.537580L143.000892,201.666114L143.561239,200.870526L142.532895,199.166900L142.321483,197.912132L142.674335,196.977961L143.345117,196.231457L144.022300,195.491725L143.066755,193.749421L145.347998,194.003102L146.357026,193.482025L147.293091,192.922796L146.698660,191.373418L147.477739,190.711232L148.479999,190.203025L148.491541,189.030089L149.367728,188.442753L150.495413,188.037153L151.304574,187.416899L151.913195,186.657479L151.386292,185.072800L152.564814,184.723953L151.568108,182.761466L149.268433,179.780468L153.585138,181.818568L153.184723,180.263943L151.544455,177.711515L154.322628,178.640108L152.786052,176.123237L154.388563,176.133453L157.921386,177.767539L159.705794,177.993587L160.338591,177.263471L160.911037,176.481375L161.445263,175.664518L161.902476,174.777089L161.450381,173.069150L160.363078,170.757994L163.406948,172.210950L164.287312,171.701827L164.827895,170.876806L165.780040,170.442694L164.873052,168.212750L166.040035,167.980239L167.157252,167.710331L168.416989,167.594996L169.400058,167.212022L168.603001,164.996219L170.409239,165.466864L170.994046,164.671510L171.189794,163.454765L172.531706,163.471177L171.777935,161.194596L173.559395,161.707302L175.037773,161.907524L175.450229,160.908139L176.292915,160.398792L177.022774,159.759987L177.705317,159.064524L178.061205,157.972823L178.489764,156.957573L179.206673,156.289146L179.292448,154.826809L179.854085,153.947275L180.396549,153.035814L180.766440,151.890720L181.806505,151.618325L183.537998,152.282430L183.028799,149.933467L184.820800,150.708277L184.838584,149.041451L184.992053,147.536869L187.585490,149.509468L188.799606,149.544839L190.426511,150.205695L190.957507,149.260604L191.184885,147.843459L191.044876,145.836196L192.935497,146.955495L194.237240,147.189987L194.452355,145.701856L194.857040,144.494257L196.464249,145.253076L197.619437,145.291280L198.153961,144.289579L198.807909,143.478863L199.183648,142.171062L199.880853,141.410102L201.019256,141.437160L202.530753,142.163505L202.465932,139.992750L202.652675,138.244234L203.705216,138.117526L204.888653,138.256622L206.749018,139.755988L207.236868,138.554465L208.595469,139.109752L208.648528,136.981794L208.261739,133.866831L209.257168,133.633381L208.995415,130.657063L211.107870,132.874031L212.500752,133.554132L211.797517,129.445042L212.894335,129.422984L213.853943,129.087106L214.535255,128.077060L217.028095,131.527206L219.096257,134.050371L219.451166,132.281662L220.797863,133.055616L222.054108,133.632062L222.781853,132.805836L222.731160,129.797241L224.402385,131.560337L225.621098,132.101013L225.649633,129.160869L225.613279,125.911634L226.887412,126.576397L227.933552,126.565636L228.732713,125.771527L229.618862,125.241406L231.427927,127.817499L232.966825,129.596800L233.667736,128.506950L234.322045,127.206293L235.760308,128.773575L236.445951,127.558251L236.736380,124.738839L238.444301,127.497186L239.509082,127.756308L239.719345,124.395902L239.273975,117.967310L241.201174,121.906622L242.676179,123.994570L244.186513,126.401353L245.306774,127.037974L245.978693,125.420658L246.950068,125.299871L247.785316,124.430273L248.218213,121.197184L248.539052,117.053767L248.734480,111.805614L249.522054,109.960311L249.712383,103.925142L251.322841,107.397769L251.621381,101.485279L252.630369,100.527101L254.057834,102.920236L255.990042,109.980427L257.217961,111.420294L258.503325,113.619383L260.105817,119.442559L261.451702,123.249520L262.465285,123.651912L263.456661,123.845154L264.341576,122.565112L265.314159,122.420089L266.254749,121.695529L267.172926,120.358221L268.250859,122.261805L269.219806,121.941880L270.107812,118.923782L271.013460,115.075326L272.067426,116.588717L273.048940,113.738408L274.120404,120.306006L275.110974,122.180391L276.081722,123.465540Z" />
<line x1="50" y1="575" x2="100" y2="575" fill="none" stroke="blue" stroke-width="1.0" stroke-linejoin="round" stroke-miterlimit="10" />
<text x="125" y="578" style="text-anchor:start;fill:black">n1_4mer:GRV/n1_4mer:RV</text>
<path style="stroke:green;stroke-width:1.0" d="M276.192918,181.973473L276.863426,178.134425L277.428836,180.318321L277.926890,183.734810L278.400900,186.642719L279.182305,181.881221L279.791426,181.673902L280.210855,184.803027L280.984133,181.800787L281.592832,181.682287L282.181419,181.851525L282.771321,181.986013L283.286279,182.940962L283.769395,184.105115L284.939916,178.453180L285.522047,178.854556L285.461167,184.764984L286.109308,184.264150L286.777255,183.667475L287.970715,179.256407L287.636913,186.013331L287.927264,187.980873L288.599581,187.326713L289.308531,186.506201L291.069159,179.507332L290.449674,186.654206L291.481856,184.187406L292.394681,182.536211L293.082197,182.161970L293.272287,184.289533L295.191194,177.981208L297.201828,171.646864L296.971006,175.822708L298.897901,170.308226L299.377778,171.275982L299.012957,175.691668L297.812840,183.234657L297.396842,187.313376L298.744245,184.463271L298.865478,186.322202L299.214135,187.272176L300.286997,185.623693L300.553376,186.843998L301.925221,184.290577L302.061793,185.928170L301.267856,190.493338L302.728354,187.771973L304.539345,184.098004L306.199400,181.043540L306.782624,181.300342L306.080327,185.266450L306.040840,187.204856L304.679611,192.737173L306.247804,190.099902L309.646118,182.696968L309.837287,183.966203L309.329995,186.986692L309.359141,188.553414L310.720166,186.781395L311.527847,186.423609L313.163302,184.115671L315.743704,179.687282L316.273196,180.136269L314.347890,186.123638L315.596451,184.869199L314.222644,189.389552L314.014964,191.264970L313.504004,193.726994L316.002370,189.868674L317.045827,189.115223L318.122099,188.328507L319.277634,187.418656L322.099522,183.302011L323.054709,182.900268L320.407474,189.318001L317.645755,195.761462L321.180984,190.495719L318.698186,196.243160L319.888809,195.306149L326.590353,184.766520L328.751230,182.370593L327.934184,185.111323L325.092423,191.170978L322.615414,196.464293L325.417792,193.032317L327.124621,191.462507L326.833695,193.102754L327.957096,192.503158L333.635353,184.933203L332.664923,187.653910L331.020746,191.316390L333.032610,189.502144L336.975980,184.940678L338.004816,184.691128L335.825136,188.995901L335.751422,190.258007L333.560045,194.411075L329.590248,200.878338L333.705769,196.351541L337.692279,192.124730L335.680921,195.843695L334.355479,198.592410L334.581637,199.308122L333.059540,202.207046L334.301280,201.620382L335.228969,201.442304L333.287905,204.736935L338.690501,199.218545L331.935734,208.130898L331.581975,209.403200L334.124834,207.337323L335.280053,206.901536L343.147973,199.000650L342.495496,200.692471L342.937915,201.162285L338.052507,207.347729L340.130754,206.010158L338.164790,208.946285L340.617461,207.256449L340.837663,207.895511L346.111921,203.443422L345.402351,205.060141L345.783934,205.577181L342.838449,209.314118L342.787513,210.200433L340.907284,212.801650L340.803589,213.692455L342.608378,212.815995L345.409133,211.068485L344.951971,212.297213L345.215316,212.868512L345.285305,213.605620L341.176809,217.938351L345.086072,215.346781L342.904001,217.950810L345.715341,216.358237L345.899534,216.968696L347.335826,216.563624L344.985918,219.199812L344.879794,220.013631L350.404767,216.445149L350.843766,216.879978L352.161369,216.651771L350.832836,218.417007L347.919451,221.315275L346.970368,222.722294L348.946942,222.007543L346.476849,224.468212L353.533489,220.231255L355.520423,219.609594L354.868045,220.809537L356.200073,220.662836L352.581171,223.801677L356.914472,221.692824L355.833676,223.130938L355.602061,224.006218L355.333918,224.894250L358.427219,223.705008L360.074495,223.440977L364.532125,221.521376L360.221539,224.834741L358.200634,226.739999L354.864799,229.356806L353.625834,230.731279L353.827925,231.280798L356.087811,230.704913L354.050751,232.473531L356.150459,232.012607L362.831343,229.192371L371.555453,225.427312L361.646411,231.214474L357.183024,234.129395L357.447734,234.655082L354.923115,236.523694L356.109862,236.591037L358.663293,236.036660L358.788610,236.630154L359.428785,236.989985L357.932793,238.301211L360.090647,237.996952L360.822974,238.331056L362.310629,238.355689L365.745887,237.596455L358.333250,241.275275L360.004738,241.231530L365.805886,239.599446L364.985757,240.582220L361.695385,242.476401L362.273373,242.896415L358.924397,244.737863L367.639886,242.264880L372.160062,241.366857L372.401134,241.981258L371.599072,242.942257L367.889219,244.833246L369.832312,244.873032L368.964030,245.810854L373.054100,245.228357L371.545777,246.361154L369.484940,247.630390L365.531979,249.403508L375.180388,247.368049L369.206686,249.664613L368.513300,250.492980L366.999944,251.518970L362.968095,253.147849L364.573998,253.357770L362.837240,254.372585L366.725346,254.079183L365.769662,254.908578L363.896911,255.920211L368.050610,255.652001L368.182216,256.247146L373.504205,255.832468L372.198130,256.732662L366.930926,258.332147L369.635119,258.467897L373.149931,258.501726L370.315545,259.605944L365.907632,260.915358L369.302708,261.007939L365.665273,262.141242L368.145502,262.398211L367.860791,263.042549L362.271277,264.330711L361.667055,264.968175L362.415309,265.449180L360.958447,266.165730L360.840472,266.733732L366.133275,266.813470L371.240894,266.976392L373.228594,267.444583L368.227466,268.430290L366.529874,269.139479L369.368326,269.565081L369.198904,270.180645L371.319269,270.691200L377.119487,271.087667L373.796519,271.849256L372.392158,272.519053L366.772992,273.250951L368.060502,273.823283L372.363977,274.393238L380.339461,275.018997L378.427025,275.681852L376.023345,276.313848L372.395742,276.891352L370.221311,277.460015L368.318489,278.009736L366.494551,278.538327L369.366089,279.255530L366.571720,279.718060L370.329486,280.524773L371.230780,281.196365L364.669277,281.351469L367.829748,282.173837L368.791287,282.853449L368.224951,283.408323L372.956048,284.468634L371.871292,284.991134L368.137072,285.209963L368.040940,285.803620L370.679677,286.732279L368.722374,287.102761L368.743222,287.717088L370.125883,288.526394L364.712513,288.344067L362.213220,288.544467L365.486358,289.647602L363.730492,289.947846L368.645600,291.394050L366.682861,291.657035L365.815707,292.101745L366.329145,292.805557L374.010483,294.962949L366.055518,293.967425L365.328385,294.421107L362.555348,294.413079L361.385103,294.735590L361.209825,295.278050L364.411469,296.637095L366.756510,297.828371L365.692249,298.182114L367.417348,299.255430L373.058813,301.409285L368.740009,300.891939L367.857303,301.290114L363.378357,300.635261L363.850282,301.390964L362.174697,301.502733L362.716904,302.283223L361.078385,302.380146L360.304702,302.737619L361.539583,303.754017L367.693527,306.460155L370.931003,308.246441L366.386596,307.329341L367.434202,308.368351L364.122193,307.820175L362.022330,307.682062L366.905890,310.190196L369.891302,312.032681L368.688201,312.257140L368.380316,312.829946L362.196351,310.977300L355.337574,308.751803L357.594291,310.324683L356.074614,310.291389L358.285615,311.890845L363.052050,314.679419L360.555075,314.216111L358.181427,313.775443L360.467944,315.510446L355.860902,313.963704L355.223851,314.292555L354.676608,314.659986L355.027593,315.477043L357.126123,317.201939L360.334635,319.544652L357.447575,318.712596L358.303838,319.853227L361.150763,322.101133L357.325345,320.697761L357.816486,321.667533L362.937907,325.299108L364.828753,327.147909L365.664547,328.413301L362.380572,327.236246L358.175188,325.448984L355.389165,324.467018L355.139887,325.024888L358.668795,327.976252L355.563314,326.736609L352.234762,325.301443L353.967452,327.154072L353.859865,327.812343L356.879740,330.598537L355.611689,330.496033L356.294503,331.737852L354.448411,331.210410L350.048901,328.823133L350.845450,330.134283L350.995216,330.991442L354.658151,334.482007L359.267823,338.769806L360.296416,340.412549L361.044538,341.866827L353.015532,336.433718L350.972277,335.617981L349.936822,335.582267L354.439029,340.068747L348.166367,335.718864L346.420506,335.047519L346.731719,336.098528L343.960993,334.505721L346.537905,337.534034L342.704694,334.953466L341.618677,334.758273L340.545116,334.558132L345.606273,339.988398L347.449641,342.548334L343.241528,339.447784L343.408983,340.440880L340.459093,338.427786L339.028586,337.842695L338.265123,337.894872L341.296920,341.759611L340.597328,341.907787L339.351737,341.484784L339.610608,342.614466L340.367364,344.290522L339.405579,344.154043L339.466880,345.115990L338.594504,345.063586L335.369140,342.373186L337.703566,345.887810L336.286410,345.187469L334.178553,343.657127L334.609208,345.060186L331.205441,341.924430L331.732561,343.438397L331.698820,344.297297L333.568682,347.526593L334.942384,350.209228L335.669680,352.131341L333.067876,349.805751L331.941683,349.334101L330.410912,348.304697L331.231767,350.390736L333.817920,354.922274L328.712875,348.974457L329.518383,351.105497L329.981355,352.800755L327.842766,350.801197L328.580081,352.919132L326.863641,351.468625L327.860729,354.024830L327.257304,354.217200L326.585201,354.299956L324.205754,351.713833L321.598689,348.684734L322.388518,351.008209L322.890263,352.921469L321.274930,351.386879L321.681817,353.185447L322.189816,355.200184L322.760958,357.374809L319.556727,352.996677L318.608550,352.486275L319.829823,355.865116L319.030669,355.638630L320.463671,359.547466L320.017669,360.020554L320.098167,361.509410L318.632955,360.024378L318.080347,360.289492L316.897019,359.285408L315.902157,358.625027L313.317445,354.630194L314.386828,358.214001L312.861071,356.335130L313.784224,359.734213L313.255937,360.016351L312.255392,359.232031L312.614413,361.539568L311.056580,359.432262L311.635889,362.335087L312.703065,366.519822L309.299217,359.797176L310.675455,364.852801L308.769366,361.668321L307.536038,360.112325L307.934582,362.839502L306.320378,360.192065L306.793976,363.222865L303.757154,356.429465L303.319591,356.858350L304.173239,361.108908L305.934697,368.271780L304.893725,367.105552L302.428312,361.392071L301.413283,360.082771L300.714516,359.747253L300.081466,359.609784L300.485363,363.040109L300.692812,365.935846L300.677006,368.158806L300.783953,370.944228L301.461099,376.044592L299.934099,372.767376L298.884862,371.225810L296.478769,363.968364L295.126584,360.774680L295.682266,365.755602L295.908200,369.541242L293.628715,361.872291L293.330315,363.236794L294.383413,371.406125L293.740915,371.405319L293.038698,371.077864L291.302094,365.006884L290.746185,365.233114L290.460416,367.078088L289.905790,367.399150L289.124165,366.272483L288.798129,368.112351L288.192681,368.141600L287.074624,364.371373L286.242325,362.432759L285.603144,361.861434L285.829553,368.708060L285.147393,368.032307L284.228207,364.952426L283.532627,363.775742L283.326294,367.878776L282.527031,365.483438L281.735586,362.778767L281.173615,362.834587L280.889048,367.238583L280.870337,377.252747L280.201299,377.028144L279.428035,374.389710L278.731649,372.868773L277.906966,366.676049L277.120761,358.851957L276.764033,368.451661L276.212323,372.276311L275.567948,368.876607L274.966269,368.106525L274.362920,369.040173L273.801918,365.850782L273.127038,370.553093L272.706075,363.170982L272.116522,363.901742L271.424425,367.024114L270.827011,367.163133L270.254320,366.782820L269.457323,370.338110L269.337549,362.690173L268.578912,365.418728L268.272341,361.850477L267.612322,363.036098L267.026701,363.222320L266.309590,364.734587L265.765117,364.379532L264.790993,367.972186L264.086948,368.834348L263.511367,368.551783L262.552304,371.255625L262.797640,364.826242L261.825508,367.530297L261.312756,366.904785L261.136543,364.160227L260.203206,366.302684L260.454755,361.244857L259.364966,364.214406L259.268817,361.497348L258.356200,363.295532L257.225870,366.079715L256.899870,364.687210L255.940198,366.415673L256.114516,362.759479L255.482163,362.952092L255.372342,360.840741L254.022064,364.112563L254.000637,361.707140L251.652624,368.769780L249.601767,374.286778L246.661926,382.892966L247.460699,377.180567L245.896211,380.293637L246.078970,377.078900L249.461609,362.984560L248.529652,364.058173L248.023726,363.674326L247.723754,362.638246L247.794382,360.475857L247.430430,359.735450L243.883592,368.592644L245.958268,360.516809L246.240229,357.936160L243.903070,362.852051L240.264535,371.166477L237.917478,375.639998L238.440292,372.293527L239.762021,366.980566L243.085537,356.732641L242.471166,356.754902L241.123153,358.578694L236.446525,368.391899L238.001771,363.020013L237.808180,361.916188L237.929598,360.119203L237.947425,358.609656L237.128559,358.999186L234.921793,362.393870L233.310198,364.390860L234.248720,360.935647L235.263292,357.426755L236.369942,353.834913L235.514742,354.289414L233.177687,357.650001L230.010836,362.510968L229.316654,362.477239L231.457749,357.090189L234.301889,350.553797L233.894653,350.151627L233.109176,350.434732L231.560358,352.055468L231.479231,351.055229L226.823254,357.953357L224.053733,361.441000L224.114518,360.085865L226.980661,354.136960L230.568214,347.176952L227.346910,351.309353L227.601969,349.828626L228.077394,348.037804L224.579176,352.387271L223.214471,353.378420L223.709044,351.557985L223.850744,350.297819L224.195256,348.768539L218.990184,355.220263L211.574196,364.612142L215.145682,358.426498L217.298615,354.346525L218.342205,351.870342L216.785240,352.931477L217.495012,350.960531L216.289777,351.527902L216.066733,350.807127L214.513245,351.784223L216.953095,347.722812L215.420258,348.669336L213.316512,350.278200L210.225349,353.024708L210.279048,351.950658L212.953001,347.818412L213.574788,346.159305L212.881620,346.036316L213.748402,344.145306L212.494444,344.655854L210.494932,345.963389L206.809770,349.057839L209.188813,345.560702L204.828805,349.274772L201.295742,352.019092L203.509414,348.753251L209.496147,341.715675L209.501693,340.859913L204.123746,345.359423L204.748908,343.850088L202.821691,344.837164L203.205532,343.579921L206.690737,339.418178L207.881938,337.486598L206.498876,337.959125L199.112591,343.855426L200.738666,341.516847L199.858360,341.441911L198.434504,341.831037L199.798170,339.795872L203.675985,335.662142L201.360000,336.822562L198.372578,338.497400L203.388587,333.570474L201.993579,333.934223L205.167327,330.636451L207.504284,328.070651L206.281232,328.322828L204.818587,328.740366L202.393361,329.862496L203.238016,328.504868L204.536115,326.837361L201.609149,328.268728L199.398352,329.136638L200.285938,327.779626L200.067773,327.216730L197.595845,328.205224L199.124826,326.440990L193.110507,329.755376L192.487256,329.409736L189.519591,330.583500L188.949722,330.172237L195.932855,324.982422L194.611010,325.099476L194.200998,324.638532L194.280483,323.879555L197.758743,321.099012L192.703982,323.402850L192.612329,322.748388L192.312044,322.216736L188.344977,323.747877L194.405197,319.660799L188.239291,322.352985L194.038792,318.516246L191.975058,318.941670L189.252388,319.681196L195.375597,315.843486L189.302211,318.267013L190.210185,317.128515L187.224661,317.912343L192.954573,314.461254L195.607230,312.560484L194.515188,312.447437L189.806927,313.975505L184.939568,315.505987L188.136153,313.400536L190.709955,311.618426L192.677380,310.137955L191.417256,310.043949L191.354843,309.441170L187.374700,310.424602L187.274896,309.812192L190.132486,308.049917L190.296311,307.362166L185.288995,308.617669L184.119926,308.392773L189.907326,305.648418L189.576094,305.150328L187.729641,305.174144L186.455122,304.980574L183.096215,305.462426L182.159458,305.113603L185.375265,303.436689L184.812380,302.980054L188.849374,301.123219L188.817766,300.530541L186.830145,300.505536L185.851381,300.170339L182.794535,300.396191L183.425558,299.591758L183.433086,298.961326L184.230211,298.131881L184.804759,297.370553L180.335034,297.835818L183.886591,296.361799L176.658874,297.392107L187.001990,294.444343L179.464510,295.468253L169.832440,296.827554L171.075581,295.875369L174.997226,294.421367L183.517662,292.158653L184.468021,291.380188L182.283452,291.162176L182.386287,290.533026L179.169295,290.441478L183.682044,289.114189L185.020168,288.317197L189.411891,287.106911L180.970325,287.686569L184.273506,286.649062L183.750578,286.121934L176.531596,286.361537L173.238283,286.080809L181.797234,284.544523L181.349014,283.984011L180.048962,283.494652L180.193539,282.869281L166.403890,283.313103L164.490612,282.747149L171.495667,281.589410L175.457499,280.696571L170.075594,280.329807L165.725779,279.848491L166.140398,279.130885L163.416212,278.517901L167.904697,277.689128L167.368786,277.012102L171.192658,276.274827L181.205293,275.550387L181.584765,274.949160L171.824057,274.282257L171.522090,273.616569L172.777362,272.977701L180.353415,272.520368L176.470953,271.786320L180.956942,271.328843L179.666900,270.666100L179.508778,270.045154L188.504211,269.955598L189.520315,269.464670L187.714749,268.785474L181.865077,267.768485L179.961824,267.007318L175.455982,265.985216L179.375968,265.721661L180.732908,265.242789L186.666239,265.284059L186.380589,264.677110L187.884893,264.285733L189.046083,263.868612L185.682627,262.850216L181.435834,261.660936L174.905966,260.074528L174.169625,259.303171L176.267393,258.980654L187.787487,260.275239L187.118762,259.582126L182.003900,258.069415L183.598014,257.753409L180.770520,256.593398L170.805216,253.952309L175.720968,254.281870L181.632430,254.889902L179.036809,253.686065L170.894949,251.176238L169.692948,250.189506L171.138705,249.826114L174.017000,249.837118L172.680386,248.806111L184.368944,251.178137L187.518193,251.405177L188.401199,251.046615L186.147997,249.808954L188.571897,249.896335L185.932774,248.509324L185.513794,247.758949L182.728951,246.263440L182.552008,245.556735L177.527561,243.266703L183.994496,244.725340L188.346669,245.554717L186.832871,244.408314L184.625504,242.991697L187.681544,243.442492L186.935245,242.532841L187.416146,242.070682L189.498318,242.226256L186.547158,240.442925L182.867048,238.322504L186.277902,239.019588L183.630313,237.261863L185.350409,237.297602L187.886597,237.705038L192.616010,239.102982L191.639620,238.039747L192.287256,237.690448L189.625803,235.829199L193.200899,236.832695L192.240116,235.736244L191.863590,234.902535L191.022274,233.830952L191.819038,233.557905L188.381034,231.149525L186.583536,229.524982L184.277526,227.600881L189.193666,229.466626L194.069220,231.386503L195.620020,231.563124L196.591707,231.439215L195.809641,230.337834L196.905600,230.293501L197.373214,229.897872L195.914669,228.369599L193.330128,226.137271L196.098568,227.103932L195.138147,225.817386L199.615704,227.905516L196.015827,224.949619L196.922716,224.819746L197.181425,224.277993L197.906648,224.043378L197.513716,223.066690L196.392081,221.581313L201.121539,224.099733L198.724733,221.723936L200.847340,222.495876L202.851029,223.216854L198.882064,219.625293L202.127232,221.268179L197.720541,217.250387L199.046088,217.478280L200.507082,217.829430L199.911838,216.603742L198.321500,214.573917L201.202147,216.073019L199.616468,214.011220L203.877664,216.700224L205.510933,217.290118L208.240970,218.830187L205.665680,215.899943L201.953405,211.922469L199.897815,209.302066L201.681655,210.027951L203.736619,211.028522L204.515867,210.907147L208.483345,213.731099L208.817618,213.249903L209.421767,213.022288L211.155065,213.880637L208.628987,210.641747L208.206768,209.396127L203.817372,204.182437L202.540072,201.981245L201.338781,199.812517L204.139719,201.737606L210.244106,207.184104L210.180648,206.240271L215.709990,211.292218L215.917371,210.693122L213.287915,206.960586L212.615347,205.326464L213.999404,205.986848L214.871313,206.087800L211.461272,201.230068L209.179791,197.582808L208.815510,196.135152L210.901120,197.618071L213.117588,199.311137L210.677957,195.289598L213.333020,197.569144L210.686005,193.174265L210.106289,191.338056L211.441564,191.965534L208.009696,186.309518L215.855428,195.643786L210.301376,187.019931L215.067821,192.396986L220.523353,198.894281L219.376389,196.229626L224.230612,202.116476L222.505442,198.599965L221.426842,195.948928L221.723070,195.290216L219.997348,191.555063L219.813235,190.095922L223.227124,194.219248L224.297589,194.761586L224.560625,194.032796L229.664869,201.175737L226.519800,194.907090L227.207354,194.887855L226.176965,191.954997L225.852072,190.161910L224.991055,187.385192L230.093290,195.139099L232.111491,197.570242L233.708499,199.312470L231.331828,193.720679L226.282394,182.910715L225.369792,179.712444L226.650851,180.701057L229.816573,185.465935L232.331208,189.083573L231.447100,185.873336L231.737336,185.008999L232.651377,185.444244L232.587789,183.801147L232.172450,181.342046L233.762785,183.269153L234.347922,182.997797L232.823405,177.867543L232.642646,175.713449L233.468451,175.893226L237.486281,183.845627L238.526941,184.734006L240.682164,188.474734L240.677798,186.817993L242.988796,191.169162L244.958283,194.787249L244.257699,191.286269L242.566650,184.900203L244.144734,187.528111L244.748785,187.455160L246.249277,190.036488L245.245974,185.178706L247.243038,189.371926L247.243003,187.462225L246.296405,182.420685L247.124241,183.009479L248.522540,185.561546L249.582844,187.075740L251.012956,189.983240L249.628267,182.817820L250.176113,182.493968L251.843652,186.443482L252.272691,185.749901L252.397541,183.798728L252.765779,182.755306L252.289404,178.054272L250.899741,169.068022L252.205505,171.751259L253.532384,174.710912L255.197417,179.501654L256.207846,181.358267L256.815105,181.272842L257.642116,182.362430L257.683950,179.196096L258.606443,180.854852L259.236750,180.908665L259.168183,176.632878L259.852974,176.881393L259.637414,171.069596L260.890497,175.123819L260.491618,167.319650L261.890897,172.754985L262.614372,173.228482L263.495186,175.130261L264.409477,177.576160L265.236488,179.487322L266.182908,182.912752L266.239085,176.871577L266.933372,177.601000L267.802330,180.749733L268.014511,175.094770L269.040004,181.112885L269.541043,179.304354L270.092832,178.047662L271.011442,184.735888L271.637273,185.955799L271.880212,175.468931L272.381085,169.939184L273.108906,172.847219L273.755032,172.099219L274.454995,179.150327L275.066361,183.615558L275.648643,184.133986Z" />
<line x1="50" y1="625" x2="100" y2="625" fill="none" stroke="green" stroke-width="1.0" stroke-linejoin="round" stroke-miterlimit="10" />
<text x="125" y="628" style="text-anchor:start;fill:black">n0_4mer:PS</text>
<path style="stroke:red;stroke-width:1.0" d="M276.512311,157.066445L277.365591,152.030630L278.150945,152.168816L278.848126,155.009162L279.482231,158.549162L280.483611,152.907710L281.481980,148.745752L282.193693,150.481208L283.298752,145.752011L284.045223,146.970108L284.469646,152.171492L285.227493,152.588399L285.764878,155.404187L286.478146,156.028880L287.639884,152.228277L288.468373,151.932436L289.231000,152.247480L289.973054,152.706811L290.813424,152.367019L291.714499,151.621594L291.858486,156.285841L293.250062,152.150763L293.947087,152.852604L294.427446,154.847311L296.220872,148.892736L296.221604,153.648609L296.823509,154.755686L298.184600,151.759108L298.988439,151.838005L299.482808,153.458185L302.065298,144.951101L304.804228,136.256452L302.792320,149.545253L303.946372,148.191915L304.628663,148.934202L305.003613,150.916626L304.664565,155.673385L305.502004,155.580586L306.620433,154.431393L307.368520,154.727150L307.478083,157.331886L308.669426,155.996191L309.385193,156.375314L311.242651,152.900724L311.174176,155.935458L311.076257,158.938602L311.600630,159.861510L312.764462,158.786692L314.146147,157.112048L315.559438,155.425058L315.683209,157.541495L315.370830,160.816145L314.843189,164.566836L316.346101,162.662889L319.235124,157.150257L319.317378,159.193645L319.217110,161.638664L320.044490,161.669392L320.370670,162.947407L321.708572,161.736367L322.524608,161.822110L323.973145,160.435955L326.921364,155.662154L326.763845,158.079314L326.528002,160.599358L325.199378,165.430864L326.528740,164.407547L327.795856,163.560215L329.299669,162.260105L329.797690,163.067669L330.556045,163.337408L330.612286,164.998668L332.384214,163.278758L333.777763,162.348893L332.153508,167.153729L331.653827,169.733568L334.048819,166.949508L334.145914,168.401861L334.792069,168.847480L341.892659,158.002207L345.992191,152.659272L347.709604,151.530256L344.594464,158.534564L341.916857,164.628964L340.142886,169.092716L345.067202,162.706842L348.460854,158.931840L348.056910,161.191562L348.270041,162.453600L345.739976,167.848894L346.161112,168.699761L348.796769,166.277239L350.475570,165.323982L349.813317,167.765241L348.326423,171.319624L348.841471,171.998734L350.303406,171.369265L351.319762,171.374393L352.807766,170.760485L358.875684,164.121594L352.683752,173.664051L351.010978,177.151987L351.624402,177.657175L352.075811,178.365132L352.858005,178.658224L355.484936,176.703673L355.557782,177.891745L356.290810,178.277007L354.500071,181.629844L352.717886,184.899847L358.590086,179.339198L363.853079,174.622547L371.642965,167.222730L377.487099,162.169313L376.177284,165.036374L376.875738,165.692293L373.805220,170.340433L368.471950,177.252987L365.686558,181.375080L365.998965,182.250063L368.668656,180.745641L367.304415,183.301957L365.098620,186.633899L362.950217,189.840511L361.698694,192.122822L360.928063,193.907541L362.181163,193.775508L363.828806,193.298130L366.869228,191.582713L366.439888,193.036108L366.156198,194.338535L367.185929,194.475373L365.230681,197.197647L366.808725,196.857713L368.897228,196.112737L370.256761,196.006894L372.056740,195.559010L372.986041,195.842141L370.423499,198.918278L369.699048,200.484085L372.639469,199.179004L372.645286,200.173203L373.299329,200.667574L372.244403,202.440676L372.065973,203.538134L374.255861,202.902707L376.468703,202.284676L376.101783,203.524354L376.799680,204.005564L377.958966,204.174007L376.599068,206.065039L377.751325,206.241249L376.899085,207.753499L377.586351,208.240262L378.671684,208.476327L376.623247,210.706933L379.720792,209.683706L383.879390,208.055811L386.831810,207.224824L389.649794,206.518287L385.475859,209.968904L381.592734,213.171560L381.033553,214.401212L378.975138,216.458854L381.087543,216.162187L379.164927,218.098791L379.279970,218.901116L380.696714,219.009853L384.479295,217.902081L390.585605,215.657012L384.796121,219.516099L381.012655,222.278634L384.073152,221.626218L382.373871,223.308447L382.945190,223.883370L383.082563,224.664213L383.354395,225.380589L388.567240,223.871792L389.296887,224.422211L394.255015,223.140022L390.594961,225.610600L389.050793,227.132829L390.246860,227.497670L388.556608,229.043970L389.402801,229.553032L394.090204,228.572842L393.384772,229.720157L386.500412,233.170845L388.972163,233.075242L388.174097,234.190770L393.616863,233.085687L396.154835,233.060773L397.156893,233.589117L394.947705,235.193688L392.340944,236.892290L395.926953,236.583110L395.953381,237.426837L400.202780,236.985349L395.911701,239.133371L399.940336,238.808325L402.212429,239.032688L405.267762,239.069291L410.435771,238.576707L401.947993,241.730753L395.670584,244.201398L391.966422,245.944376L392.625469,246.580174L390.217328,247.942733L396.140026,247.370251L394.804452,248.481869L397.283124,248.754587L396.996542,249.633278L394.662178,250.918073L399.112769,250.849402L398.258196,251.834955L393.772345,253.465571L394.613780,254.104297L396.977281,254.496526L401.581522,254.556294L400.909330,255.492421L397.653789,256.801379L399.107172,257.398287L397.021081,258.491592L395.789529,259.446236L396.126057,260.191819L393.404848,261.294483L394.708436,261.920899L397.427607,262.417658L398.198959,263.136184L400.426669,263.732883L403.359038,264.298701L402.156503,265.219544L403.666064,265.932944L398.288742,267.106006L401.632548,267.706901L400.854162,268.561115L401.702282,269.332030L402.686173,270.108174L404.649108,270.865329L402.236360,271.758808L398.237587,272.651285L401.162691,273.404718L401.813141,274.209714L403.007510,275.023085L402.053903,275.837615L399.006141,276.612748L399.897056,277.425407L396.786363,278.146316L396.629832,278.922842L395.056531,279.642891L397.405688,280.520003L394.385266,281.151100L394.176248,281.906800L396.648729,282.833044L396.569284,283.611016L396.838704,284.415635L396.308732,285.157574L396.007690,285.914157L398.874507,286.973966L399.008327,287.790000L396.820395,288.354314L394.657017,288.894195L394.871197,289.698653L395.099891,290.508999L402.283577,292.267130L400.811208,292.889684L395.501285,292.923668L392.862880,293.304448L395.393725,294.488898L395.464377,295.293846L394.599640,295.937689L399.022006,297.532443L393.432940,297.302419L391.591827,297.730777L399.471477,300.096512L391.959392,299.363361L393.070790,300.385879L392.997108,301.162733L392.539696,301.853186L391.211368,302.334935L393.571925,303.693769L392.917642,304.337076L395.179391,305.719410L395.530468,306.633870L398.144208,308.165306L399.271538,309.325057L395.601954,309.145285L396.827515,310.337612L389.203799,308.921653L389.003162,309.659086L392.180170,311.447395L389.985064,311.574895L389.945584,312.375628L389.493865,313.042228L394.611946,315.596258L397.253239,317.368838L396.070018,317.830284L396.126706,318.726222L389.723631,317.248171L386.779943,316.980018L391.767565,319.709578L392.863297,320.997829L392.410376,321.690777L392.226494,322.490436L388.205614,321.708747L385.514670,321.429948L385.356287,322.198188L383.221761,322.108411L384.356234,323.438663L386.583021,325.283320L387.664427,326.642297L386.614822,327.029814L386.266805,327.738695L383.332455,327.201170L382.941386,327.868228L383.163657,328.839756L382.117098,329.178605L384.399954,331.217073L385.823983,332.850084L383.894843,332.734582L381.240723,332.203117L386.418066,335.915503L380.984350,333.830576L386.881963,338.046085L386.934589,339.024835L388.351718,340.803597L396.316084,346.471075L390.406738,343.990333L384.167999,341.214634L381.266119,340.390256L378.856545,339.829291L381.533333,342.453304L376.500997,340.182490L376.041675,340.806405L376.824537,342.250038L377.236912,343.467919L378.391220,345.205408L379.290219,346.797198L380.919777,348.924563L378.749027,348.403298L375.473899,347.057284L375.367268,347.959911L377.312508,350.381387L374.949183,349.633643L377.741705,352.749945L379.021081,354.772216L379.321675,356.070333L377.942184,356.062335L377.760507,356.992205L379.648824,359.602773L381.792697,362.474218L380.291787,362.378914L376.941161,360.708071L374.217921,359.510298L369.947802,356.929466L372.631939,360.343833L370.613851,359.667420L368.334360,358.722771L366.457539,358.103677L365.809472,358.584104L366.363827,360.182952L366.234416,361.162431L364.707483,360.815289L365.016174,362.222820L362.849325,361.222244L362.000230,361.491072L362.132734,362.740840L363.199697,364.961690L359.989802,362.806933L360.188335,364.148888L359.555217,364.629973L360.283964,366.571740L362.033622,369.660213L362.819995,371.753388L356.835540,366.330125L355.374253,365.864925L354.089693,365.576448L352.667896,365.107891L352.340190,365.899850L353.151010,368.055259L353.283478,369.435994L352.684815,369.946380L352.966287,371.546977L353.338900,373.291189L353.000962,374.165164L353.817016,376.535763L356.560364,381.472378L360.236805,387.762231L360.496862,389.626869L355.152128,383.911372L349.022782,376.945672L347.416099,376.089998L348.895749,379.565358L346.335872,377.328945L344.688013,376.344181L345.431190,378.844931L343.929927,378.047686L343.367312,378.638470L342.084294,378.126119L340.340702,376.868894L340.283861,378.230887L338.642816,377.079083L338.407704,378.169646L337.949566,378.912006L337.899864,380.348384L335.963233,378.608426L338.028252,383.706786L335.114487,380.230579L333.410567,378.787382L333.620465,380.741007L331.997781,379.386853L332.827285,382.539718L331.378257,381.476207L331.294866,382.987439L331.509285,385.115550L329.851068,383.592898L327.731883,381.082207L328.256846,383.884361L327.749201,384.621848L329.150774,389.406332L328.628013,390.206498L326.843120,388.264764L324.777627,385.621058L324.338144,386.550350L324.417287,388.694467L323.582057,388.762675L323.133938,389.744907L324.072942,394.118880L321.763951,390.613456L321.031548,390.935829L319.642980,389.575209L318.818927,389.627686L317.859691,389.310662L316.488116,387.848518L316.810245,391.016305L315.521405,389.741408L314.817677,390.093799L315.290699,393.923650L314.276475,393.423229L312.315317,389.972217L311.026194,388.473170L310.587703,389.635518L310.056061,390.534156L309.506737,391.404981L309.577006,394.447518L308.082132,392.089233L308.659782,397.121133L307.166994,394.696050L307.046832,397.374322L305.879242,396.078468L305.178056,396.579429L303.667139,393.743697L302.143380,390.678583L302.610684,396.158109L301.561400,395.103491L300.646127,394.596968L300.307752,396.824139L300.316706,400.916190L299.424463,400.642112L298.368736,399.466754L297.574934,399.640394L295.658681,393.384047L295.054395,394.438594L294.467289,395.675319L293.736114,396.075593L293.080111,397.007968L292.527483,398.745726L290.975178,393.241663L290.101384,392.445073L289.387760,392.865182L289.286660,398.622384L288.492234,398.698137L287.507447,396.916985L286.859979,398.394412L285.992585,397.620913L285.353204,399.457240L284.359767,396.977325L283.314997,393.300917L282.766606,396.646279L282.289633,401.974813L281.420759,400.948956L280.531069,399.147930L279.762460,399.903499L278.790628,394.543804L278.063300,396.118655L277.328694,398.365216L276.539868,398.558393L275.744730,398.097007L274.955791,397.027874L274.162176,398.672288L273.397624,396.508412L272.589531,397.975196L271.967713,391.551198L271.140771,393.985541L270.306668,395.791701L269.482562,396.856163L268.729327,396.276617L267.900517,397.116313L267.172007,396.226323L266.223144,398.591541L265.764919,394.219952L265.086889,393.130695L264.542989,390.703900L263.668976,392.000781L262.731110,393.744079L261.535084,397.623352L260.147262,402.709191L259.519669,401.056120L258.586319,401.923827L257.852125,401.232076L257.573521,397.393884L257.076108,395.352314L256.447769,394.315201L255.481699,395.436446L255.401380,391.208434L254.431242,392.366517L253.831264,391.395533L252.847205,392.520808L251.452830,395.662416L250.361694,397.084256L247.843645,405.248806L247.340084,403.533629L247.682822,398.097811L248.456778,391.085669L247.656197,391.154249L246.245254,393.729402L243.952439,399.695936L241.628454,405.456052L236.431177,421.845009L236.373847,418.316719L237.578582,410.385713L237.603815,406.992581L240.478314,393.933700L240.775219,390.147578L240.234421,389.278728L238.461638,392.397312L238.231560,390.520768L237.342418,390.741094L235.158183,394.837130L235.882787,390.185252L235.912858,387.717775L233.736327,391.574155L231.859112,394.437215L230.075494,396.922726L229.659719,395.660590L229.749350,393.116319L231.072879,387.496944L230.500970,386.839662L228.089406,390.734684L226.885795,391.551802L226.811476,389.642098L227.023068,387.120680L225.901398,387.737756L226.883278,383.576060L225.948624,383.796379L222.979922,388.434115L221.268714,390.210090L221.288521,388.265910L221.124563,386.755042L219.905242,387.435515L222.024109,381.379635L220.717253,382.274532L218.689546,384.532650L217.718695,384.685715L218.497543,381.524061L218.145918,380.546466L218.244713,378.763926L217.619545,378.327623L216.287350,379.147514L217.662729,375.200419L213.756041,380.453199L209.378573,386.340477L209.226205,384.980686L209.821495,382.415654L210.790929,379.304045L209.825510,379.367274L208.365765,380.197371L208.340456,378.759512L208.286956,377.393019L207.591168,377.024598L205.868706,378.186857L204.410808,378.915729L205.056268,376.558369L202.846334,378.342350L197.322519,384.747848L200.746324,378.496696L201.517735,376.047183L201.344092,374.932496L199.963467,375.450604L201.281121,372.378077L200.393309,372.248712L199.080825,372.656464L198.199297,372.493778L199.455504,369.644292L198.618597,369.444304L197.314314,369.807196L195.031351,371.326732L194.251553,371.006716L194.818870,369.100644L195.398510,367.215990L193.790627,367.868080L194.555490,365.811676L193.684159,365.617934L190.366332,368.107287L189.199559,368.183367L187.434619,368.884871L183.661454,371.679980L183.696185,370.410185L184.638241,368.221694L189.376330,362.207709L188.894454,361.580922L184.282710,365.055777L184.252311,363.937925L182.355711,364.639318L183.613124,362.295093L185.617710,359.290827L184.588971,359.172240L184.386355,358.282660L180.085320,361.119565L177.026199,362.756414L179.068993,359.824333L179.682294,358.199111L179.931985,356.913099L183.907554,352.475489L181.740770,353.293380L179.503106,354.133609L181.096868,351.802714L179.069287,352.439792L180.454854,350.325148L181.984586,348.136324L179.322084,349.241976L176.094071,350.735734L174.990753,350.568254L174.867928,349.657263L177.891848,346.438444L173.604451,348.595166L174.778794,346.766149L177.131810,344.136202L176.064222,343.943672L175.226870,343.580967L174.002148,343.473378L169.908037,345.269698L167.206787,346.079933L167.595282,344.839746L162.617548,347.055448L167.144314,343.181144L169.743990,340.596930L169.268484,339.955719L169.283740,339.016287L172.750884,336.024166L168.921692,337.390533L167.475201,337.316798L165.839262,337.333307L164.303789,337.272273L163.977052,336.522250L164.149103,335.501129L167.243329,332.918675L165.057238,333.188159L163.926289,332.878069L167.769760,330.003951L163.826809,331.129007L164.302731,330.000846L163.308657,329.604599L167.764221,326.577016L169.554225,324.886084L169.886130,323.906681L164.599875,325.507635L160.730193,326.394504L160.323378,325.695933L162.211640,323.999051L163.334719,322.662350L160.474824,323.017262L162.385942,321.369211L162.202676,320.600989L161.844133,319.903951L158.819315,320.244191L159.006981,319.316668L157.000865,319.218163L156.902031,318.393656L159.114689,316.739216L162.012926,314.878735L157.329581,315.685110L160.407234,313.800177L156.029362,314.434004L155.173856,313.866608L153.420821,313.575393L155.433548,312.094623L158.453413,310.340103L159.044585,309.350519L153.519991,310.141407L154.811541,308.934168L152.188439,308.826040L154.185777,307.443922L157.504254,305.746410L155.856045,305.362787L156.859657,304.301599L153.738461,304.251649L153.840240,303.406252L151.793293,303.053958L154.113609,301.711473L149.682376,301.849004L145.421607,301.894028L142.041548,301.707455L145.849877,300.082024L154.372505,297.625191L158.578736,296.064404L154.652994,295.978666L151.971854,295.634086L154.288087,294.450659L157.190064,293.208815L154.207554,292.877526L155.706521,291.874722L148.905059,292.012844L151.116479,290.906344L149.381889,290.310962L147.164314,289.750009L146.912601,288.947406L150.742633,287.724701L149.183851,287.069640L146.701364,286.478044L146.456900,285.669545L143.092898,285.097574L140.933430,284.398602L144.137023,283.331147L143.223906,282.541220L140.416325,281.836399L135.418312,281.193232L133.347315,280.375281L134.540540,279.428264L138.933077,278.416595L144.350262,277.442420L143.460162,276.615401L141.604412,275.782764L144.280581,274.928858L143.332899,274.084058L144.774319,273.258969L142.538706,272.379481L149.359151,271.708354L151.865779,270.983784L150.582623,270.143121L150.027673,269.318683L153.075875,268.673604L150.204393,267.721967L154.556911,267.200577L152.919559,266.308130L146.448653,265.018556L143.199036,263.915579L143.853007,263.123226L140.519474,261.951440L153.760456,262.450979L157.104842,262.032563L154.510003,260.964644L156.416845,260.415486L153.484659,259.263260L151.159650,258.154078L152.768387,257.573935L151.299767,256.554501L150.342108,255.593808L150.911954,254.866739L154.041213,254.577596L156.812804,254.265252L155.894135,253.315951L157.193704,252.771194L150.431586,250.667050L140.764552,247.883995L145.326413,247.938956L141.548815,246.256440L144.409426,245.995139L143.253453,244.850661L138.743727,242.897825L141.522907,242.647840L144.780395,242.551959L148.500559,242.616059L155.173998,243.504409L157.305013,243.256344L160.783042,243.407383L159.351647,242.211736L157.146452,240.768588L156.379960,239.719625L154.135952,238.207025L152.680149,236.905150L155.051586,236.798274L151.707915,234.860815L159.693998,236.641331L162.028213,236.611559L162.637276,236.013076L158.136694,233.610048L162.271135,234.258990L160.612170,232.828215L159.180102,231.454642L161.043588,231.319242L157.926840,229.261436L158.981522,228.813840L160.328747,228.496152L157.652385,226.532281L161.138232,227.115100L162.844962,226.984221L163.811989,226.552261L165.979713,226.662680L165.412940,225.568148L165.184407,224.615166L165.885958,224.087595L165.978715,223.277053L165.220952,222.052542L165.701001,221.417509L163.325795,219.362112L162.663261,218.130015L161.880976,216.819776L161.882460,215.900292L164.813064,216.528991L168.567892,217.643868L169.654503,217.354744L169.956055,216.641419L169.480876,215.488809L169.725168,214.733590L169.042653,213.437465L169.866418,213.010994L169.610994,211.946217L170.761592,211.723457L169.783976,210.203118L176.244074,213.304665L174.045539,211.027573L174.080399,210.138994L172.697656,208.319517L171.987749,206.911687L173.711360,207.113736L173.257065,205.859714L174.171189,205.531668L174.860244,205.055281L174.824419,204.070230L176.287685,204.151669L175.325314,202.488095L177.516948,203.122096L172.540867,198.434049L171.581969,196.679044L176.606840,199.486876L178.134361,199.667342L177.693754,198.318331L179.396185,198.661137L179.325424,197.594822L180.455514,197.500824L184.524240,199.860907L183.629609,198.122642L183.232631,196.778180L179.230585,192.300755L178.986688,191.009416L182.218402,192.780324L184.386897,193.658726L183.206101,191.529683L186.171315,193.179349L184.739395,190.784218L186.619561,191.472019L186.886097,190.647723L186.678862,189.357280L188.080172,189.627917L187.200520,187.650806L185.177696,184.484966L183.955797,182.069356L185.735998,182.710013L187.980499,183.868443L190.610607,185.480565L193.754679,187.700989L192.979671,185.727207L192.352651,183.878833L192.813560,183.211081L192.747482,181.943441L192.337715,180.262526L190.246254,176.598942L190.250043,175.317794L187.994014,171.324443L187.900247,169.850785L190.453874,171.590970L191.585445,171.629407L193.797634,173.039944L191.610350,168.904595L190.868255,166.536094L191.707918,166.184964L191.983599,165.092087L196.019311,169.029017L196.914651,168.816066L198.749294,169.905570L201.716471,172.620430L203.146949,173.246598L206.380519,176.491238L206.403059,175.164723L205.042366,171.772448L206.070366,171.871568L205.841238,170.078723L205.668798,168.334899L206.621548,168.309717L204.903343,164.069484L206.784479,165.497851L209.765673,168.771651L210.257454,168.040481L212.227672,169.778249L210.799579,165.799003L209.158209,161.345325L208.467639,158.436453L209.377244,158.298232L212.093075,161.429535L212.578872,160.581756L213.225082,160.018694L212.930314,157.671716L212.121831,154.277013L213.349366,154.758180L217.032863,160.134135L218.518171,161.270114L218.628262,159.640861L216.929150,154.206379L217.241160,152.855850L217.573767,151.516540L220.572178,155.973849L224.356602,162.345404L223.047547,157.423228L223.101111,155.477154L224.070894,155.621077L225.826032,157.656113L226.383241,156.866414L228.240493,159.276408L231.190540,164.543583L231.596102,163.484929L231.872518,162.057888L232.703287,162.065855L232.588083,159.508979L233.438358,159.541820L234.852248,161.184754L234.872106,158.872765L236.778720,162.049306L235.297067,155.145001L236.851039,157.313413L237.677280,157.294619L238.605306,157.614153L238.929582,155.966954L240.581242,158.736566L242.117762,161.252167L242.702339,160.528099L241.908853,154.771160L243.244489,156.663321L243.685460,155.244214L245.068690,157.459801L245.977620,157.894246L246.603587,157.189784L246.275207,152.381200L245.848427,146.865120L246.822215,147.367390L248.040645,149.055453L249.497293,152.012692L250.656648,153.696520L251.918334,156.034291L252.491715,154.875171L253.070682,153.672430L253.990390,154.345724L253.845061,148.725499L254.793505,149.451882L255.210737,146.810161L255.354558,142.095377L256.727944,145.658577L256.693945,139.133552L257.923166,141.808499L258.427280,138.823556L259.774381,142.831101L260.938407,145.645254L261.598579,143.899060L263.034943,150.034857L263.839457,149.994053L264.833019,152.240684L265.715723,153.426554L266.171317,148.733736L267.186454,151.914130L267.893100,150.415861L268.673476,150.005036L269.701516,155.091264L270.381038,152.691018L271.070359,149.632064L271.775695,145.653269L272.552225,142.776502L273.427407,145.019951L274.302577,152.344666L275.087782,154.117186L275.862225,154.213977Z" />
<line x1="50" y1="600" x2="100" y2="600" fill="none" stroke="red" stroke-width="1.0" stroke-linejoin="round" stroke-miterlimit="10" />
<text x="125" y="603" style="text-anchor:start;fill:black">n0_4mer:D</text>
<path style="stroke:black;stroke-width:1.0" d="M277.501418,79.933527L278.754078,79.853583L280.010111,79.694204L281.267940,79.555413L282.460439,81.173653L283.639177,82.649218L284.873656,82.683597L286.171501,81.627594L287.359929,82.501658L288.650382,81.786758L289.919758,81.479391L291.066648,82.700271L292.436095,81.288196L293.661031,81.578193L294.818949,82.497719L295.940005,83.660229L297.111758,84.270331L298.306936,84.639395L299.643785,83.887636L301.123814,82.166547L302.408962,81.991453L303.803976,81.107707L305.075387,81.111080L306.308029,81.369619L307.526145,81.709961L308.693806,82.328880L309.897288,82.721098L310.949203,83.907128L311.743566,86.350342L312.772241,87.484468L313.472036,90.141668L314.399266,91.589982L316.015245,89.856866L317.507598,88.782980L319.247076,86.734909L320.700155,86.001781L321.838707,86.589875L323.005631,87.051549L324.105134,87.762286L325.307963,88.068931L326.705126,87.672298L327.898422,88.031746L329.221494,87.942518L330.512306,87.982435L331.506827,89.012084L332.854096,88.876835L333.925156,89.632879L335.290265,89.467604L336.632331,89.395290L337.503937,90.729582L338.491910,91.689366L339.295127,93.149255L340.574407,93.247752L342.079602,92.745119L343.510454,92.476734L345.027921,92.009070L346.118067,92.671503L346.907079,94.083908L347.709069,95.429369L348.353792,97.124362L348.791023,99.269726L349.926136,99.723505L351.168189,99.932417L352.628261,99.658515L354.747000,97.948540L356.250341,97.656575L357.924367,97.025355L359.240487,97.187906L360.248711,98.002039L361.370896,98.574759L362.283196,99.568723L363.158107,100.622899L363.817471,102.081397L364.693097,103.097802L365.512517,104.206678L366.724297,104.570396L367.707312,105.359511L368.398909,106.668002L368.838274,108.403166L368.725617,111.070349L368.833644,113.296635L369.690950,114.203260L371.207415,113.998136L373.093340,113.207229L374.705138,112.902478L375.067447,114.626966L375.445197,116.296573L376.528290,116.838697L378.331555,116.277631L380.738504,114.835998L382.903861,113.813562L384.419636,113.795043L385.550271,114.355788L386.356322,115.385792L387.377497,116.103103L388.299360,116.959031L388.479976,118.831589L388.848852,120.418066L389.209553,121.992799L389.411465,123.755202L391.618674,122.874700L393.634755,122.282915L394.789403,122.820818L396.815101,122.272624L397.626887,123.261046L398.050851,124.717883L398.796436,125.769776L399.662294,126.671914L399.792260,128.435692L400.623330,129.361951L400.221978,131.695508L399.307033,134.570163L398.953018,136.766266L398.416295,139.127822L399.877519,139.277986L400.975352,139.834580L402.620424,139.817888L404.685583,139.383075L406.674538,139.059036L408.357743,139.076232L410.019671,139.136061L411.535509,139.361430L412.768371,139.880797L414.233684,140.184309L415.230828,140.950285L416.214776,141.732090L417.139577,142.572140L417.893783,143.570908L419.668382,143.641064L420.889371,144.229273L421.865325,145.043152L422.818003,145.880624L423.444066,147.002544L424.080867,148.110971L424.460697,149.431380L424.435190,151.078616L424.646266,152.514457L425.243810,153.625790L426.654356,154.085082L428.035689,154.580685L429.416876,155.089051L430.291738,155.998009L430.413419,157.478786L431.003468,158.597350L431.575501,159.726057L432.220398,160.798530L433.670918,161.291961L434.529470,162.217896L435.495464,163.071506L436.148063,164.145434L436.514174,165.412643L437.743424,166.095958L437.812329,167.554879L438.382672,168.676067L439.103161,169.698874L439.574259,170.880281L440.376400,171.851682L441.865068,172.403479L442.936462,173.222847L443.789538,174.179962L443.775348,175.651184L442.700296,177.726505L442.267736,179.405523L442.267219,180.823499L443.359622,181.625117L444.426659,182.448869L445.567101,183.241017L446.284531,184.266374L446.596774,185.505281L446.777846,186.807264L447.339816,187.910536L448.667070,188.633281L449.408189,189.655216L450.492526,190.515002L451.121036,191.599213L451.504864,192.798848L450.857575,194.468432L450.070785,196.182768L450.401087,197.382845L449.828976,198.972784L451.565962,199.559974L453.440883,200.108279L453.247051,201.530317L453.552243,202.740425L453.163768,204.223735L452.938362,205.630966L453.986689,206.541117L454.468796,207.672642L455.624258,208.557211L457.399025,209.229086L457.887729,210.375010L458.912669,211.336382L459.790696,212.356414L459.880078,213.644979L459.461156,215.094293L460.127440,216.187466L460.130645,217.490702L459.646270,218.936839L460.984757,219.830432L459.377397,221.591093L458.356683,223.158784L456.889646,224.830842L455.867538,226.358557L458.038063,227.031235L460.195208,227.732859L463.600486,228.149761L465.258030,229.031214L465.938331,230.160656L466.502258,231.321956L466.644122,232.580508L466.948850,233.802353L466.327805,235.217239L466.382869,236.484335L466.773159,237.683642L466.848769,238.944098L466.337959,240.308812L465.595894,241.704211L464.621926,243.125963L464.538550,244.388341L465.929293,245.418647L465.719329,246.702229L466.849939,247.790552L467.900063,248.902273L468.013842,250.146093L469.583886,251.211284L469.496467,252.486779L470.046937,253.689567L470.403421,254.917662L470.764611,256.148255L470.707146,257.419566L468.797599,258.843086L466.678490,260.256727L465.970964,261.542337L465.716478,262.788709L468.112301,263.878158L469.865152,265.030411L468.751100,266.332631L469.252419,267.557933L466.972036,268.877773L467.144818,270.105343L467.897212,271.323681L466.754267,272.575335L466.403334,273.807195L466.819599,275.034593L467.778034,276.270907L468.703459,277.519189L470.583203,278.798079L470.529834,280.051457L470.755820,281.313575L469.961779,282.539667L470.071781,283.796951L469.536934,285.023148L468.208122,286.197280L467.695702,287.407806L467.100897,288.606922L467.907135,289.907769L468.368188,291.191346L468.360000,292.439896L467.385592,293.596388L466.752536,294.777018L467.205856,296.070178L467.762215,297.382940L466.820578,298.521114L465.859905,299.646535L463.753015,300.605996L464.476094,301.942492L465.981152,303.407022L466.993364,304.817128L466.995680,306.079562L465.387072,307.073266L464.955844,308.254586L463.028978,309.161295L464.071486,310.604550L464.698236,311.983624L464.065035,313.120162L464.783587,314.533089L463.450636,315.517939L462.369212,316.544159L462.598663,317.858897L462.210466,319.035158L462.398141,320.349344L462.600905,321.673779L461.280352,322.615672L461.479070,323.942436L460.630269,324.994107L460.137181,326.136763L459.853595,327.336455L458.613708,328.259479L459.730486,329.870008L460.140360,331.286120L460.420264,332.672605L460.439791,333.985407L459.391982,334.956772L458.968150,336.126056L458.738157,337.360675L458.452639,338.578480L458.300483,339.845218L457.704538,340.955555L457.465569,342.194845L456.317048,343.095338L455.398011,344.073281L454.765059,345.155873L454.241816,346.279387L455.229436,348.013994L455.439392,349.449469L456.237657,351.142425L456.021563,352.420960L454.501233,353.136021L453.985096,354.280334L451.603834,354.584036L449.123833,354.813611L449.333659,356.266517L449.102702,357.521911L449.256981,358.967618L449.961211,360.693630L448.982851,361.602048L447.464575,362.230613L447.724531,363.757509L448.060623,365.337589L448.007979,366.726505L447.086039,367.656164L445.545030,368.241938L444.418982,369.042340L442.015413,369.114078L440.681439,369.767192L439.324362,370.394532L437.147464,370.526110L437.926558,372.397758L438.431722,374.127691L438.910706,375.861527L439.522598,377.698231L438.871266,378.757744L438.696996,380.123872L436.573914,380.229832L435.217783,380.815871L435.315039,382.362760L435.295587,383.844998L437.106908,386.600320L438.469065,389.089923L437.570858,390.020231L436.017270,390.477425L434.767899,391.139972L432.741686,391.220268L430.781167,391.324272L429.523668,391.936026L427.193361,391.714820L425.583042,392.020910L424.692089,392.875779L422.995057,393.084675L422.079292,393.905454L421.091393,394.663898L420.782866,395.981407L420.425155,397.267683L420.437612,398.878587L420.085152,400.192462L419.938289,401.696132L419.918473,403.327362L419.092644,404.253958L418.816035,405.679675L417.598016,406.252029L416.817488,407.223362L415.875852,408.044157L415.173435,409.091644L413.754098,409.448324L412.362739,409.818608L411.867809,411.066808L410.428734,411.373902L410.733037,413.444618L410.651128,415.147514L409.663329,415.924059L408.782676,416.811919L406.217679,415.892035L404.600806,415.957478L403.450641,416.517143L402.941027,417.784785L403.099615,419.819535L402.398616,420.901619L401.362515,421.601881L400.460395,422.456725L398.724389,422.319978L397.402227,422.657926L396.152083,423.072074L395.137303,423.768062L394.609466,425.073035L393.807030,426.043247L392.000508,425.725522L389.678420,424.706101L387.939661,424.411141L386.822336,424.921809L387.014685,427.206476L386.866436,429.064718L385.890817,429.799177L384.996957,430.649971L384.189684,431.628983L384.118132,433.685652L383.989570,435.696055L383.436532,437.108594L382.264048,437.602294L380.912456,437.815166L379.967534,438.648786L378.889314,439.276221L378.005787,440.214818L376.859196,440.733445L375.742581,441.297631L374.789549,442.133394L374.026473,443.297783L373.001729,444.026628L371.866287,444.564710L370.924182,445.443815L369.805060,446.011652L368.173346,445.639491L367.331863,446.706878L366.053461,446.963939L364.810239,447.278193L364.114691,448.651343L362.988115,449.196869L361.763606,449.544777L360.801914,450.423203L360.385432,452.445510L359.657702,453.859442L358.276959,453.899913L356.597411,453.270743L354.842166,452.433628L353.429732,452.324546L352.475481,453.248019L351.659898,454.511441L349.844746,453.419922L347.851530,451.838646L346.659870,452.163070L345.868408,453.490361L345.235327,455.257395L344.127156,455.832498L343.295391,457.149967L341.983664,457.196928L340.267253,456.105503L339.425193,457.427962L337.890348,456.785821L336.262102,455.823689L335.329639,456.901017L334.393589,457.997575L333.472427,459.172986L332.764721,461.072383L332.300023,463.843512L330.714884,462.948513L329.181831,462.173095L327.582848,461.109088L326.046261,460.201058L325.389785,462.504569L324.148444,462.678694L323.064506,463.462420L321.972532,464.239942L320.705329,464.318501L319.810315,465.970828L318.726533,466.875873L317.357627,466.529770L315.908464,465.770646L314.430101,464.805011L312.830281,463.154214L311.608724,463.319287L310.347389,463.267557L309.210767,463.883984L308.198786,465.244801L306.965812,465.379790L305.897725,466.531179L304.732061,467.133060L303.495806,467.295022L302.383176,468.327871L301.199883,468.920706L299.970253,469.196312L298.768460,469.712305L297.588345,470.456816L296.235634,469.690404L294.852858,468.516756L293.658245,469.125401L292.381853,468.892403L291.233583,470.146056L289.882477,468.949785L288.500928,467.083310L287.198097,466.055553L285.986391,466.366980L284.836751,467.956704L283.708347,470.463690L282.506753,471.877192L281.220823,471.184057L280.006677,472.957074L278.726633,472.422638L277.438382,470.654890L276.180519,470.128946L274.929605,469.307401L273.686819,468.840408L272.428918,469.965546L271.167315,470.532512L269.947107,469.216691L268.732672,468.230680L267.554942,466.612511L266.353031,465.973861L265.055717,467.325282L263.760311,468.330887L262.466102,469.103181L261.268684,468.357904L260.065823,467.792242L258.803789,468.003963L257.630699,467.186447L256.351737,467.556412L255.114857,467.457750L253.927600,466.903774L252.716300,466.603278L251.602462,465.525828L250.384477,465.347087L249.209891,464.850866L247.852100,465.671733L246.467995,466.581874L244.998119,467.951479L243.691511,468.187056L242.445102,468.031641L241.223137,467.732730L240.182622,466.442104L239.064631,465.637511L238.171027,463.722166L237.260925,461.999341L236.437733,459.954466L235.205236,459.923390L233.725090,460.994728L232.159916,462.359308L230.512538,463.979113L229.737209,461.891725L228.856921,460.323878L228.053732,458.522359L227.614721,455.412344L226.322233,455.611771L224.758795,456.765998L223.417118,457.065572L221.341203,459.864648L219.519374,461.661816L218.178076,461.780645L216.914713,461.627319L215.832980,460.893651L214.677037,460.403451L213.524946,459.906074L212.031026,460.419581L211.044088,459.433239L210.334181,457.687645L209.397683,456.622551L208.191224,456.315474L206.849686,456.363169L205.240925,457.089871L203.888345,457.116281L203.216584,455.413663L202.169238,454.683193L201.533782,452.964490L200.825310,451.464048L199.257614,452.007728L198.104211,451.564267L196.320242,452.541980L195.424940,451.498177L194.393864,450.768396L193.035977,450.746445L192.017888,449.991353L190.007191,451.302513L188.614420,451.292764L188.048645,449.604963L187.421918,448.073367L186.399691,447.341474L185.192272,446.969282L183.452907,447.593699L181.968661,447.707546L180.905148,447.030691L179.828280,446.380090L178.823418,445.602961L178.253028,444.071303L178.840989,440.571847L178.606498,438.551741L177.161938,438.595505L174.941124,439.899296L171.624814,442.927208L170.219082,442.791093L169.867822,440.975174L169.244952,439.613971L168.723917,438.115464L167.652621,437.472378L166.411246,437.081912L165.718403,435.875574L164.802552,435.006805L163.814620,434.245665L162.506910,433.937628L161.577549,433.091149L160.286782,432.744831L158.840041,432.599777L158.033887,431.581283L157.153007,430.668585L156.286627,429.741115L155.250813,429.035950L154.729744,427.675709L153.550471,427.155422L152.467271,426.509632L151.973706,425.140632L151.117327,424.223642L149.994050,423.627141L149.384146,422.422875L148.988755,420.980329L148.935855,419.162363L148.204723,418.135829L147.080790,417.552476L145.992769,416.923581L144.543433,416.682047L143.944602,415.513510L142.951869,414.770241L141.211305,414.805813L139.743327,414.537524L138.229521,414.300736L138.432251,412.321719L139.275749,409.734547L138.682462,408.598984L138.161037,407.400512L136.537443,407.262994L134.236974,407.744774L133.022694,407.180201L133.632358,404.930467L133.450230,403.433291L133.309399,401.914123L132.957431,400.597202L131.250845,400.473035L129.833646,400.079144L129.006040,399.170048L126.824510,399.396909L124.730386,399.521085L123.025390,399.298970L121.579746,398.848059L121.072327,397.635854L120.082760,396.808602L119.472800,395.682463L118.960238,394.485111L118.267115,393.429353L117.370640,392.526546L116.509516,391.594883L115.330105,390.891996L115.372927,389.305352L115.378446,387.760111L114.792036,386.641364L113.976448,385.682614L112.421543,385.223098L112.476768,383.671092L113.150512,381.725186L112.909693,380.398964L113.531666,378.527489L112.258258,377.877452L110.668278,377.413690L109.919100,376.416768L109.304279,375.336739L109.211802,373.945466L108.354467,373.013475L108.421664,371.541715L108.153454,370.273237L108.221522,368.821414L107.995143,367.544061L106.231006,367.112151L103.959052,366.933659L102.301284,366.402292L101.142244,365.593455L101.888621,363.797803L102.929821,361.874617L102.958488,360.480237L103.020402,359.078826L101.144138,358.619168L98.792124,358.363425L99.009304,356.883778L97.999036,355.977264L97.597454,354.789370L98.530178,353.013306L97.494661,352.114280L97.877691,350.601525L97.880794,349.261220L96.807145,348.371497L96.293981,347.246139L95.590383,346.195606L95.754975,344.803307L95.042474,343.755155L94.523361,342.630542L93.072516,341.847032L91.036245,341.259501L90.697685,340.049416L88.807463,339.376960L89.677349,337.748740L90.050141,336.303474L90.005716,335.004437L89.767758,333.771630L88.523085,332.853109L87.820976,331.757784L87.089300,330.666483L85.655397,329.773092L85.572765,328.483136L85.571196,327.174456L84.697221,326.104650L85.498217,324.589025L84.978198,323.425382L84.744399,322.187888L85.624574,320.682609L85.116458,319.518739L84.798334,318.308596L85.916155,316.780617L85.554347,315.588283L86.485332,314.126267L86.226069,312.919148L83.802344,312.132170L84.157969,310.794803L84.412143,309.483560L85.562008,308.022477L87.117256,306.511397L85.228160,305.578484L83.627535,304.578709L81.710448,303.607244L79.958940,302.589636L80.021439,301.306684L80.327957,299.995419L81.127234,298.630179L81.811785,297.290551L82.095382,296.005337L82.536739,294.709394L82.961872,293.422366L83.806485,292.104840L83.464022,290.898183L83.951878,289.624858L84.834763,288.331342L84.615951,287.120445L85.827705,285.825862L86.274082,284.586643L86.691083,283.355256L86.891231,282.138145L86.149588,280.953885L85.040497,279.769820L83.376399,278.582291L83.244863,277.354887L83.883775,276.121468L84.568099,274.896361L83.847606,273.670248L83.685055,272.442245L83.455407,271.210620L83.171211,269.974307L83.482268,268.753348L81.977245,267.464975L81.330163,266.195652L79.879943,264.875616L78.813160,263.558458L79.464428,262.337882L79.462348,261.078132L80.826969,259.923322L81.600344,258.735147L81.845569,257.507784L82.546529,256.326361L82.409085,255.065683L83.187049,253.902253L83.847813,252.733512L84.093782,251.520489L84.496221,250.328972L84.670718,249.109632L83.640130,247.718599L82.508321,246.296699L81.732811,244.913015L81.670561,243.632336L81.505856,242.330893L82.113343,241.159987L83.601132,240.154508L84.319891,239.020674L87.560583,238.385951L89.502523,237.528896L89.416181,236.271281L89.546116,235.055770L87.255385,233.300922L84.650602,231.439781L83.169410,229.804435L82.551920,228.354461L82.782189,227.103285L84.377026,226.200392L84.863126,225.023592L85.766861,223.961703L86.881207,222.966001L87.435218,221.822212L89.388779,221.087884L90.145700,220.020007L91.937201,219.272717L93.181565,218.375127L93.095731,217.066286L93.470948,215.901087L91.659087,214.008262L90.941279,212.455825L90.165023,210.867101L90.191168,209.545505L91.578766,208.710267L91.385915,207.306316L91.753538,206.103956L91.346919,204.603734L91.743861,203.404831L93.879269,202.897080L95.457498,202.188228L97.441742,201.663667L98.088493,200.599347L97.902622,199.181128L98.186127,197.957229L98.443768,196.718652L98.288387,195.290021L98.280447,193.918751L98.894614,192.829561L99.549364,191.760988L100.728545,190.947253L102.303804,190.337812L103.790153,189.700496L103.782936,188.322106L103.875318,186.985872L103.556760,185.427283L103.052415,183.755528L103.971177,182.832778L104.225703,181.551981L105.025122,180.568163L105.263893,179.271401L105.327879,177.868241L106.029853,176.826244L106.684366,175.757506L108.214609,175.213027L109.092990,174.288351L110.497961,173.692054L111.394800,172.791677L111.187621,171.196015L111.477987,169.904436L111.212642,168.243695L111.921401,167.209454L113.955562,167.063856L115.560891,166.651783L116.289794,165.652948L116.225525,164.100629L115.287014,161.914505L115.466970,160.499099L118.165673,160.905277L118.950796,159.939079L120.923546,159.861311L123.279505,160.098429L122.333410,157.834018L123.512175,157.187526L124.751851,156.597747L124.478607,154.809901L125.709168,154.216780L126.834776,153.547305L126.231684,151.449600L125.725986,149.403605L125.877914,147.889447L126.705488,146.944043L127.332049,145.822940L128.191452,144.903606L128.796085,143.756149L129.205922,142.426071L130.316465,141.731102L131.466477,141.079029L132.500775,140.324582L133.520779,139.560596L134.796014,139.047825L136.071992,138.545825L137.623368,138.327914L138.370460,137.316742L138.809918,135.988052L139.565016,134.973868L140.327526,133.963657L140.694382,132.529926L141.389237,131.433732L142.769283,131.077079L143.283306,129.778418L144.192173,128.908880L145.769132,128.794385L146.873660,128.157145L147.671011,127.168101L148.653934,126.392790L148.693258,124.494012L149.190395,123.119188L149.739555,121.792966L151.007140,121.343177L152.555708,121.255380L153.544053,120.473414L154.974138,120.260861L156.417134,120.080125L157.578703,119.542409L159.071001,119.454256L160.863241,119.791754L161.853458,119.052968L163.568840,119.326899L164.605380,118.666651L164.745456,116.720769L165.090055,115.038204L165.949683,114.088364L166.198699,112.217944L167.540561,111.972478L169.214929,112.251123L169.478157,110.355219L170.469266,109.576302L171.195008,108.368278L171.683359,106.757961L173.437527,107.211213L175.002269,107.379384L176.300885,107.118830L177.166319,106.121618L177.439361,104.075447L178.243236,102.930338L179.493934,102.575924L180.751181,102.241439L182.121202,102.125219L183.214066,101.500072L183.999278,100.283095L185.840132,101.104874L187.137236,100.893894L188.177580,100.177333L189.404634,99.837624L189.467895,97.084012L190.546340,96.403608L191.977928,96.477881L193.779400,97.381733L195.858016,98.951225L197.145120,98.801862L198.301419,98.363606L199.509193,98.047921L200.485932,97.187010L201.875024,97.314036L202.884731,96.524252L203.574319,94.915042L204.762254,94.542306L205.564037,93.161320L206.753358,92.778364L207.763732,91.910299L208.888296,91.341785L210.204529,91.310701L211.461276,91.123505L213.451069,93.111940L215.161123,94.358720L216.062361,93.181953L217.025362,92.164267L217.465888,89.432005L218.011610,86.937258L219.300282,86.851416L220.525216,86.558180L221.612436,85.779610L222.999346,86.067947L224.480800,86.740570L225.581449,86.009279L226.862165,85.962815L228.078290,85.670171L229.102846,84.583218L230.484444,84.974469L231.762064,84.948928L232.978886,84.663381L234.221144,84.495647L235.418135,84.115673L236.692116,84.110937L237.943098,84.004227L239.233013,84.114597L240.537776,84.332059L241.964808,85.285045L243.586822,87.493748L244.904997,88.012055L246.098881,87.785861L247.382177,88.160916L248.519572,87.554416L249.730385,87.450422L251.071810,88.371051L252.199514,87.650597L253.334045,86.924537L254.525590,86.652767L255.677777,85.978137L256.763900,84.538994L257.829892,82.682693L259.030386,82.177865L260.242361,81.755333L261.526243,82.300705L262.749457,82.018648L264.001367,82.193689L265.265062,82.664008L266.500750,82.655498L267.741336,82.792344L268.995876,83.449496L270.250723,84.477237L271.468309,84.225711L272.697614,84.700099L273.907221,82.813809L275.140562,81.435410L276.382877,81.277754Z" />
<line x1="50" y1="550" x2="100" y2="550" fill="none" stroke="black" stroke-width="1.0" stroke-linejoin="round" stroke-miterlimit="10" />
<text x="125" y="553" style="text-anchor:start;fill:black">GC-content</text>
</g>
<g style="fill:pink;stroke:black">
<a href="" title="OY970211:1 [58500-76599];"><path  d="M317.885315,49.033521L321.822442,49.816388L325.745307,50.667849L329.652714,51.587644L324.900304,71.014805L324.900304,71.014805L321.332672,70.174993L317.750926,69.397572L314.156157,68.682780Z" />
</a><a href="" title="OY970211:2 [155500-179099];"><path  d="M384.974104,72.995801L388.482813,74.945880L391.956955,76.956897L395.395471,79.028240L398.797313,81.159278L388.032329,98.014993L388.032329,98.014993L384.926299,96.069263L381.786785,94.178036L378.614743,92.341890L375.411138,90.561383Z" />
</a><a href="" title="OY970211:3 [219500-249099];"><path  d="M423.825921,99.640810L426.863694,102.264889L429.855207,104.941584L432.799551,107.670081L435.695827,110.449548L438.543153,113.279139L424.322010,127.341822L424.322010,127.341822L421.722277,124.758283L419.077851,122.220509L416.389537,119.729273L413.658155,117.285333L410.884536,114.889436Z" />
</a><a href="" title="OY970211:4 [399000-417599];"><path  d="M495.292486,208.884791L496.412803,212.739495L497.465677,216.613164L498.450785,220.504618L479.020282,225.243347L479.020282,225.243347L478.120835,221.690280L477.159516,218.153452L476.136617,214.633940Z" />
</a><a href="" title="OY970211:5 [646000-668099];"><path  d="M476.807576,385.334503L474.851237,388.839726L472.834021,392.310273L470.756544,395.745085L468.619437,399.143118L451.782964,388.348064L451.782964,388.348064L453.734235,385.245513L455.631063,382.109379L457.472868,378.940619L459.259091,375.740198Z" />
</a><a href="" title="OY970211:6 [694000-716099];"><path  d="M457.509988,414.964653L455.039471,418.128575L452.514112,421.248897L449.934681,424.324671L447.301962,427.354960L432.319183,414.106702L432.319183,414.106702L434.722969,411.339917L437.078102,408.531602L439.383865,405.682612L441.639554,402.793814Z" />
</a><a href="" title="OY970211:7 [770000-792099];"><path  d="M418.351235,454.862234L415.190373,457.336664L411.986808,459.755553L408.741515,462.118163L405.455484,464.423776L394.111529,447.952143L394.111529,447.952143L397.111818,445.847019L400.074912,443.689853L402.999906,441.481302L405.885910,439.222040Z" />
</a><a href="" title="OY970211:8 [1052000-1077599];"><path  d="M222.296137,498.880108L218.396917,497.926201L214.514939,496.904388L210.651386,495.814981L206.807434,494.658312L212.737222,475.557589L212.737222,475.557589L216.246918,476.613678L219.774510,477.608354L223.318924,478.541314L226.879081,479.412273Z" />
</a><a href="" title="OY970211:9 [1438000-1458099];"><path  d="M46.196563,298.430476L45.822493,294.433737L45.518232,290.431078L45.283874,286.423719L65.259189,285.430352L65.259189,285.430352L65.473168,289.089245L65.750972,292.743847L66.092514,296.393043Z" />
</a><a href="" title="OY970211:10 [1526500-1544599];"><path  d="M48.785831,233.441007L49.545589,229.499355L50.374023,225.571563L51.270880,221.658828L70.725586,226.297190L70.725586,226.297190L69.906716,229.869688L69.150321,233.455933L68.456629,237.054833Z" />
</a><a href="" title="OY970211:11 [1904000-1925599];"><path  d="M234.091918,48.667217L238.048200,47.987744L242.015738,47.377421L245.993324,46.836434L248.515643,66.676744L248.515643,66.676744L244.883935,67.170689L241.261400,67.727940L237.649143,68.348328Z" />
</a></g>
<text x="275" y="280" style="text-anchor:middle" font-size="25" font-weight="bold">OY970211</text>
<path  style="fill:pink;stroke:black" d="M350,550L375,550L375,565L350,565Z" />
<text x="405" y="565" style="text-anchor:start;fill:black">Selected loci;</text>
</svg>