<svg xmlns="http://www.w3.org/2000/svg" viewbox="0 0 550 650">
<circle cx="275" cy="275" r="240" fill="none" stroke="black" stroke-width="1.0" />
<line x1="275" y1="15" x2="275" y2="55" fill="none" stroke="grey" stroke-width="1.0" stroke-linejoin="round" stroke-miterlimit="10" />
<line x1="495" y1="275" x2="535" y2="275" fill="none" stroke="grey" stroke-width="1.0" stroke-linejoin="round" stroke-miterlimit="10" />
<line x1="275" y1="495" x2="275" y2="535" fill="none" stroke="grey" stroke-width="1.0" stroke-linejoin="round" stroke-miterlimit="10" />
<line x1="15" y1="275" x2="55" y2="275" fill="none" stroke="grey" stroke-width="1.0" stroke-linejoin="round" stroke-miterlimit="10" />
<text x="275" y="10" style="text-anchor:middle" font-size="15">MAG: Candidatus Bathyarchaeota archaeon isolate MFD01299.bin.2.105</text><text x="285" y="25" style="text-anchor:start">1,032,112</text><text x="525" y="265" style="text-anchor:start">0.25 Mbp</text><text x="285" y="530" style="text-anchor:start">0.51 Mbp</text><text x="-200" y="25" style="text-anchor:end" transform="rotate(-90)">0.77 Mbp</text><circle cx="412.246071" cy="78.115475" r="2.500000" fill="grey" stroke="black" stroke-width="1.0" />
<circle cx="500.180228" cy="191.970700" r="2.500000" fill="grey" stroke="black" stroke-width="1.0" />
<circle cx="507.208115" cy="335.657988" r="2.500000" fill="grey" stroke="black" stroke-width="1.0" />
<circle cx="430.804640" cy="457.551127" r="2.500000" fill="grey" stroke="black" stroke-width="1.0" />
<circle cx="298.421240" cy="513.854444" r="2.500000" fill="grey" stroke="black" stroke-width="1.0" />
<circle cx="157.622691" cy="484.338404" r="2.500000" fill="grey" stroke="black" stroke-width="1.0" />
<circle cx="58.997295" cy="379.607990" r="2.500000" fill="grey" stroke="black" stroke-width="1.0" />
<circle cx="37.980727" cy="237.292383" r="2.500000" fill="grey" stroke="black" stroke-width="1.0" />
<circle cx="102.124148" cy="108.524958" r="2.500000" fill="grey" stroke="black" stroke-width="1.0" />
<circle cx="228.381106" cy="39.571287" r="3.000000" fill="black" stroke="black" stroke-width="1.0" />

<circle cx="275" cy="275" r="185" fill="white" stroke="grey" stroke-width="0.5" />
<circle cx="275" cy="275" r="170" fill="none" stroke="black" stroke-width="0.5" />
<circle cx="275" cy="275" r="170" fill="aliceblue" stroke="black" stroke-width="0.5" />
<circle cx="275" cy="275" r="162" fill="white" stroke="none" stroke-width="0.5" />
<circle cx="275" cy="275" r="140" fill="none" stroke="black" stroke-width="0.5" />
<circle cx="275" cy="275" r="140" fill="aliceblue" stroke="black" stroke-width="0.5" />
<circle cx="275" cy="275" r="133" fill="white" stroke="none" stroke-width="0.5" />
<circle cx="275" cy="275" r="110" fill="none" stroke="black" stroke-width="0.5" />
<circle cx="275" cy="275" r="110" fill="white" stroke="black" stroke-width="0.5" />
<circle cx="275" cy="275" r="109" fill="aliceblue" stroke="none" stroke-width="0.5" />
<circle cx="275" cy="275" r="80" fill="none" stroke="black" stroke-width="0.5" />

<g style="fill:none;stroke-linejoin:round;stroke-miterlimit:10">
<path style="stroke:blue;stroke-width:1.0" d="M279.102088,106.554099L281.318986,102.063710L283.551744,99.533067L285.973207,94.961518L287.388369,105.712662L288.992426,111.214973L290.536837,115.989149L292.454938,116.342068L294.341893,116.921263L296.218970,117.510722L298.546923,114.980340L299.715227,120.154491L300.990362,124.000937L302.663902,125.210933L304.395803,126.013698L306.164453,126.587858L308.137192,126.223487L310.338767,124.970931L312.737547,123.098692L314.873500,122.462538L316.489808,123.826111L317.201486,128.257096L319.303214,127.723839L321.065614,128.361427L323.142572,128.032482L324.335802,130.366627L325.820780,131.745550L327.393231,132.830563L329.103836,133.521978L330.905723,133.980839L332.610926,134.690397L335.303352,133.075982L336.366255,135.324213L339.194853,133.586774L339.376812,137.653721L341.615428,137.266722L342.714009,139.237604L344.647548,139.516449L347.539055,138.019385L350.799226,135.982310L354.451047,133.413943L354.456936,137.357522L353.775400,142.296343L354.285250,145.067933L356.086810,145.683240L358.823493,144.866390L359.797459,146.809990L360.740290,148.752468L361.604633,150.761671L363.225674,151.664747L364.779119,152.668517L366.687050,153.205846L369.358136,152.783323L370.453982,154.427713L372.923939,154.355637L375.737223,153.932333L374.508518,158.327925L375.654724,159.853440L377.689662,160.372521L386.006832,154.083519L385.696696,157.329838L383.232876,162.719957L382.506137,166.157685L384.475583,166.830180L387.074942,166.926654L389.642979,167.112930L393.001893,166.630496L391.489733,170.604952L390.031182,174.410301L394.133030,173.356219L393.501116,176.362926L392.689710,179.439807L396.754598,178.575041L399.316314,178.985793L401.065818,180.062353L402.656976,181.277820L401.822667,184.245815L400.861811,187.230642L401.326746,189.173320L402.808966,190.422160L406.812088,190.062413L404.238796,193.930286L404.227472,196.113385L407.877373,196.089751L408.760899,197.752298L409.963643,199.233789L410.826717,200.909537L411.151359,202.869303L411.068140,205.021562L413.329321,205.975190L414.869665,207.320825L431.077498,201.809899L430.763572,204.257607L431.225007,206.329973L419.714325,213.480887L418.394078,216.093008L416.963369,218.690951L416.965349,220.681071L418.661673,222.028031L420.072777,223.505316L422.142904,224.779172L420.407562,227.340001L420.212248,229.354290L420.815870,231.107993L422.496514,232.553590L421.849749,234.669077L421.723210,236.618679L425.568272,237.565402L427.748382,238.992245L424.613179,241.648731L424.795249,243.517502L423.872421,245.599360L424.108961,247.434481L424.917867,249.168485L425.304495,250.982363L426.844184,252.628711L427.246381,254.460053L426.377360,256.450936L427.304487,258.216829L426.391423,260.180669L425.852240,262.085617L427.289257,263.828513L427.610812,265.671445L428.486561,267.492354L429.177061,269.339209L427.543583,271.258227L427.734534,273.113802L427.196148,274.973594L427.764060,276.833546L430.335998,278.756335L434.755206,280.810090L430.596089,282.556712L428.861276,284.351403L428.529608,286.208916L430.047005,288.219301L426.766739,289.802904L430.204053,292.048181L431.657832,294.140934L427.782068,295.558240L426.681550,297.293555L426.045113,299.082235L426.610066,301.068921L425.480858,302.765142L423.778658,304.328487L424.384302,306.342007L424.149349,308.193551L424.114333,310.096478L424.421293,312.094385L423.280408,313.733699L424.778797,316.079471L424.158844,317.868755L421.329290,318.991180L420.584673,320.707274L419.385165,322.269412L419.032225,324.103338L422.389819,327.259555L420.467726,328.580577L420.097308,330.459570L416.245811,330.967718L415.579201,332.693622L414.428119,334.214793L413.429917,335.790737L413.002170,337.618028L412.778393,339.550710L411.952726,341.209107L410.445262,342.527005L409.658500,344.194400L408.999993,345.931402L411.129945,349.194586L409.683891,350.547712L409.745748,352.754120L406.952909,353.299327L407.372951,355.743728L409.982176,359.607202L412.353425,363.440899L415.435785,367.863608L417.151177,371.505757L416.667439,373.718319L409.531850,371.200299L403.706122,369.423717L402.729118,371.120805L395.470640,367.977326L393.721124,368.955549L392.486539,370.327598L393.408436,373.490394L390.346588,373.344065L388.932293,374.559024L387.722553,375.948494L386.512475,377.338504L385.227995,378.660162L383.978023,380.014048L384.271203,382.892968L382.244803,383.502401L381.154832,385.047845L379.298157,385.791482L377.704147,386.794715L377.823236,389.696476L381.474719,396.719229L382.414992,400.853806L378.560593,399.373037L371.294434,393.552682L369.465390,394.238508L367.651756,394.920452L366.354223,396.264442L365.964772,398.856907L363.403545,398.493327L361.536821,399.049272L361.748683,402.637017L361.313700,405.383796L359.530618,406.131428L357.098166,405.828778L354.656508,405.438667L354.029502,408.026530L355.261625,413.925073L350.506753,409.447771L347.571031,407.987283L345.880281,408.736008L344.592943,410.261879L342.627773,410.471781L340.914826,411.164158L339.479766,412.441804L338.656263,415.097602L337.224632,416.496191L335.337880,416.868484L333.085076,416.324791L330.798656,415.606657L329.515254,417.405721L327.728389,417.926016L325.663898,417.655113L323.904069,418.205053L322.587241,420.102009L320.600070,419.980662L318.681665,420.027511L317.182532,421.485613L317.599618,430.006874L318.661657,441.792627L316.547140,441.988040L314.280363,441.504011L310.211114,432.829721L307.004228,427.148812L304.790147,425.709563L303.022382,426.435841L301.157768,426.656844L298.954227,424.743849L297.383077,426.744821L295.912677,429.809978L294.417865,433.244132L292.039892,429.392464L289.862971,426.570770L288.013154,426.701709L286.314582,428.880435L284.521928,430.339506L282.433791,426.447617L280.629865,427.625235L278.777336,427.930031L276.960383,431.580037L275.053062,429.269580L273.137472,432.414573L271.229985,432.009088L269.258776,433.605993L267.628904,427.309994L265.810597,426.622654L264.010564,425.877506L262.156069,425.948325L260.327856,425.691969L258.467187,425.748974L256.659147,425.322456L254.862640,424.847478L252.982738,424.979393L251.099223,425.071509L249.375331,424.178663L247.434185,424.543402L245.712877,423.702400L243.338893,426.033318L241.970606,423.531130L240.005899,423.793085L238.323808,422.844517L236.619634,422.030262L234.905686,421.284591L233.160261,420.671984L230.898384,421.787380L229.328625,420.557140L227.673417,419.643170L225.997813,418.815783L222.377286,423.494409L221.314053,420.830435L219.893230,419.248008L218.902931,416.642748L217.522365,415.120911L215.607466,414.912911L214.022980,413.918429L212.274610,413.301429L209.365051,415.154796L206.750330,416.235037L206.764695,411.924411L205.606192,410.103212L203.538412,410.057265L201.442033,410.016660L199.973412,408.808301L197.765213,408.898476L194.893338,410.051147L192.299355,410.633160L192.294038,406.998936L190.271007,406.637928L189.896299,403.748326L189.950587,400.322160L187.873598,400.077704L185.366484,400.393665L182.934679,400.536324L183.361364,396.816248L182.377493,395.053203L180.028262,395.047214L178.833324,393.561960L177.443555,392.326282L176.276602,390.831489L174.640945,389.887340L172.372819,389.636346L170.655268,388.737459L169.325331,387.408527L169.303894,384.723253L167.266656,384.146745L161.978295,386.749818L156.717014,389.137579L156.010909,387.053579L157.513482,382.970055L156.164799,381.570067L159.580095,375.999076L158.470945,374.490745L155.926991,374.181840L151.716315,375.172075L154.062679,370.844813L154.992202,367.751910L154.189902,366.044229L152.835764,364.753675L150.036105,364.488482L146.548043,364.640690L146.833076,362.140778L148.662655,358.665937L145.025603,358.816131L141.765275,358.639612L142.379143,356.020171L142.818391,353.558031L142.911702,351.341826L142.903426,349.215926L141.063229,348.118797L140.808966,346.150747L139.313912,344.840454L139.161117,342.839958L137.847989,341.421889L136.959056,339.789559L136.847635,337.800817L135.613671,336.325151L135.110363,334.524420L134.883055,332.616566L134.293192,330.866163L133.755647,329.098269L132.303162,327.671476L131.024208,326.160575L129.749426,324.630255L128.158722,323.185370L126.331541,321.787825L122.949568,320.825209L126.539751,317.778561L125.287609,316.172015L126.845038,313.809822L126.276684,312.029742L126.767619,309.996533L127.217623,307.996041L126.877083,306.183755L125.435892,304.590221L124.215318,302.928471L124.064298,301.059879L125.095002,299.006213L124.923353,297.163152L123.656681,295.470648L123.341849,293.635952L123.579854,291.737971L123.167801,289.914737L124.125707,287.968084L123.054553,286.198346L122.510413,284.373325L122.575860,282.507767L123.706168,280.606578L122.717133,278.787324L123.176852,276.926710L123.141840,275.078117L123.350940,273.231543L123.580124,271.390015L123.137824,269.528809L119.779781,267.514583L110.646149,265.067114L112.966184,263.225740L117.198559,261.600042L118.910467,259.829180L123.060388,258.362818L124.421092,256.653905L124.358418,254.782065L120.865288,252.399568L119.439540,250.252227L123.903204,249.072364L124.955453,247.368252L118.459765,244.196923L114.838808,241.453916L118.511015,240.228982L116.555158,237.764439L118.228338,236.137593L119.775226,234.508822L116.389637,231.556451L120.578514,230.675731L128.122774,230.898685L130.319844,229.630884L125.713108,226.182182L112.850654,219.781885L113.127103,217.667339L116.903632,216.829077L124.852573,217.668814L131.259171,218.100337L134.661504,217.461057L135.530695,215.823830L134.820035,213.497736L134.867905,211.473125L136.138499,209.999563L138.030142,208.840209L138.803376,207.156361L140.149635,205.765111L140.985421,204.119355L141.780103,202.450366L142.269909,200.607701L135.534053,194.585485L127.882667,187.770080L121.868876,181.665990L121.633510,178.942269L128.433071,180.697258L134.540827,182.189733L142.181982,184.896613L148.568809,186.962792L151.555540,186.791598L150.763284,183.920342L152.341236,182.760301L154.820324,182.312592L155.048355,180.137107L155.913876,178.441818L157.561734,177.384295L159.764240,176.818250L159.496724,174.137606L158.737347,170.952577L162.504583,171.830047L164.385592,171.047486L166.001373,170.037738L167.146464,168.579408L167.760706,166.577127L168.343926,164.507941L169.274849,162.769369L171.041166,161.916946L173.611660,161.981654L174.257568,159.912974L175.133853,158.071621L177.470007,157.950698L178.540593,156.326904L180.434566,155.718778L182.002126,154.716340L183.513973,153.646706L185.243630,152.875730L186.910579,152.034072L187.919972,150.262692L188.515846,147.845461L188.688837,144.716554L190.714067,144.345979L193.571291,145.336248L195.774151,145.365920L197.083478,143.948660L197.923690,141.693336L196.728467,135.740462L200.212503,138.062060L201.728676,136.866432L204.845646,138.761143L207.209885,139.318786L208.865124,138.499947L210.526134,137.692530L212.199576,136.910984L212.627637,133.298986L213.307065,130.082656L217.151639,134.387506L218.832786,133.605230L220.842745,133.673769L221.917856,131.266010L220.400865,121.430405L220.744972,116.302733L218.890503,104.108878L223.989238,113.009578L227.927287,118.906591L230.389078,120.279792L233.917509,125.712676L234.901519,122.032005L237.379876,124.015298L239.747728,125.798134L241.666281,125.824800L243.351813,124.798035L245.565469,126.355909L247.321218,125.705492L249.110374,125.202686L250.626418,122.966967L252.310220,121.538321L254.126283,120.874506L256.236881,122.521679L258.292581,124.091794L260.059657,123.173126L261.968089,123.685423L263.806051,123.466590L265.696575,124.067708L267.501696,123.294253L269.337532,122.898562L271.185357,122.663405L273.007103,120.042990L274.894310,120.678127L276.841576,114.737981L278.941023,108.503777Z" />
<line x1="50" y1="575" x2="100" y2="575" fill="none" stroke="blue" stroke-width="1.0" stroke-linejoin="round" stroke-miterlimit="10" />
<text x="125" y="578" style="text-anchor:start;fill:black">n1_4mer:GRV/n1_4mer:RV</text>
<path style="stroke:green;stroke-width:1.0" d="M277.174537,185.705990L278.220875,186.851967L279.386147,185.003877L280.494569,184.850062L281.826337,181.717958L283.082320,180.394315L284.180196,181.045825L285.029435,183.836723L286.154780,183.833459L287.817956,179.863871L289.953716,173.377868L290.599320,177.267348L291.062198,181.681682L291.624615,184.984297L292.293852,187.349833L293.722684,185.838364L295.527520,182.837306L297.543580,179.292295L298.325934,181.108367L300.139832,178.826698L301.300295,179.171216L301.048159,184.425406L300.891980,188.927883L301.109928,191.885455L303.520742,187.933139L304.426688,188.732401L305.361929,189.415295L307.565913,186.632144L308.494424,187.414254L307.719230,192.467512L309.816722,190.204965L312.660886,186.365055L312.863549,188.818744L315.099063,186.666782L315.095382,189.457530L315.664571,190.922410L316.022964,192.751498L317.552715,192.223318L322.232870,185.806840L323.360377,186.305850L325.450331,185.094786L322.975041,191.893303L323.085056,193.996757L322.792568,196.677901L325.065521,195.155806L326.109521,195.653909L326.344529,197.381452L327.479090,197.727627L326.568624,201.022437L324.939961,205.186334L331.309004,198.274319L331.194287,200.353301L332.902521,200.002188L333.837533,200.679623L331.670918,205.180231L333.712927,204.437830L332.816861,207.210697L337.834587,203.118759L339.645308,202.839584L347.347647,196.193834L345.311843,200.258781L341.047624,206.482648L338.456879,210.754425L337.650047,213.097208L341.813613,210.571944L346.156213,208.037022L345.784915,209.993194L345.067221,212.207592L345.210626,213.603902L348.158552,212.581443L347.942378,214.284768L342.392619,220.279399L347.116014,217.886890L350.928050,216.357885L350.417432,218.204640L355.620491,215.810691L351.458469,220.286389L350.236110,222.534324L349.942794,224.083694L354.948816,222.093710L358.990313,220.877995L352.736810,226.236772L353.740423,226.933089L359.152027,225.025672L357.929533,227.107709L361.040327,226.698476L358.358483,229.529796L360.099401,229.915771L360.457214,231.050238L360.541487,232.315739L363.883874,231.991480L374.489509,228.345951L375.186134,229.498945L371.550722,232.560312L364.877256,236.792524L362.278529,239.145551L359.425023,241.513243L356.769875,243.713125L360.882468,243.332796L363.831791,243.468481L370.329891,242.463290L367.754062,244.598152L365.134626,246.667273L363.215815,248.446175L366.540343,248.656605L365.135485,250.245124L362.512179,252.107691L364.533104,252.740093L369.799933,252.652577L364.826727,254.976127L367.459552,255.567757L366.001131,257.028293L370.769069,257.295336L369.876873,258.652293L364.634622,260.676996L365.165324,261.715892L367.855824,262.472585L367.066904,263.718558L369.253152,264.613788L368.719900,265.825991L367.802423,267.055232L372.512931,267.846741L366.902171,269.382348L367.103197,270.494861L370.100505,271.508274L366.383885,272.758426L365.742122,273.879378L364.768530,274.984425L372.758168,276.173340L379.049667,277.516129L387.612696,279.095578L382.313958,280.211832L378.554584,281.293856L374.749699,282.282543L368.465112,282.968831L371.731501,284.434921L372.280741,285.685672L375.375856,287.264230L370.871954,287.900458L368.860761,288.795284L369.131511,290.008080L375.178152,292.225349L368.821195,292.310898L364.443320,292.631811L362.979604,293.458816L364.672042,294.956731L365.692887,296.346043L363.636464,297.004328L363.044717,297.998976L368.059117,300.523101L369.323519,302.108898L365.267805,302.137337L368.932872,304.490848L364.802455,304.399899L365.246064,305.766608L364.681184,306.797982L363.068743,307.438632L360.944677,307.850057L359.819975,308.609354L360.693042,310.168374L357.583908,310.073190L358.081226,311.484663L359.886747,313.517080L360.652205,315.129011L359.525902,315.863623L359.847319,317.301113L355.384188,316.305493L354.473602,317.068465L362.593432,322.740844L358.386821,321.773846L359.962435,324.026997L351.471397,320.377241L353.418941,322.833319L361.653159,329.314440L363.060091,331.701269L364.968494,334.491952L366.464348,337.094710L369.968933,341.177334L366.972087,340.766897L360.507502,337.731563L356.795560,336.554133L347.905212,331.267084L348.263667,332.980651L345.807651,332.452738L345.295110,333.470438L343.233990,333.176042L341.386243,333.011204L341.659407,334.696720L340.889380,335.468756L342.818551,338.777645L340.517387,338.134252L343.075322,342.216690L339.280276,340.034054L339.933087,342.314376L337.987084,341.908492L337.723516,343.275312L339.213056,346.627888L342.893680,352.614353L342.129166,353.652532L339.583525,352.562796L334.212927,347.899866L332.964118,348.164944L331.257162,347.814425L329.125943,346.847278L329.867318,349.706903L328.743913,350.076340L327.079120,349.654660L328.164734,353.223528L328.572277,355.925239L326.819583,355.387156L325.963001,356.212862L325.097359,357.035140L325.655298,360.265608L326.872646,364.786509L325.203306,364.392305L321.611960,360.416974L319.749037,359.431911L317.902279,358.385506L316.487989,358.108632L315.344325,358.341661L314.305958,358.782589L314.499810,361.932980L312.199441,359.589962L311.654744,361.183886L309.620279,359.233404L307.969420,358.079419L308.282217,361.940401L306.926820,361.541107L305.974032,362.214058L304.585679,361.635301L303.966787,363.324916L303.576037,365.854527L301.511745,363.021653L300.726504,364.339413L301.608866,371.821460L302.600330,380.436484L300.770562,378.578141L299.706621,379.727938L297.131050,374.199856L294.204735,366.299740L293.310195,367.632020L293.142791,373.045512L291.666843,371.630600L290.316290,370.745949L289.441288,372.903902L288.020477,371.386500L287.187652,374.322167L285.286167,368.199336L283.868378,365.438642L282.863466,366.668873L282.094884,371.491746L280.810109,369.785382L279.416579,364.978382L278.304959,364.597209L277.217708,364.786601L276.174378,368.800103L275.031045,365.258781L273.908395,367.258803L272.809844,366.213006L271.519549,371.150304L270.450867,368.999385L269.424797,366.989326L268.551702,363.530768L267.398612,364.335331L266.301441,364.339568L265.025005,365.953685L264.085885,364.452574L263.159760,363.106390L261.716337,365.486991L260.871467,363.712191L259.577524,364.784744L258.033513,367.042490L257.537774,363.662685L255.026077,370.281818L255.126917,364.368019L253.915451,364.650401L252.589429,365.338715L252.512154,361.148055L250.904540,362.912578L248.443158,367.462045L247.821063,365.462104L245.996582,367.435459L245.833491,364.140944L245.084390,362.798873L241.996186,368.132443L240.600025,368.442765L241.324560,363.149154L241.332179,360.009837L239.916467,360.527817L238.361417,361.310693L238.733070,357.623666L238.326571,355.860202L235.638777,359.050711L232.773464,362.383080L232.410693,360.461857L232.542260,357.661223L230.432049,359.230224L228.364487,360.600125L227.997424,358.828079L225.985864,359.973603L224.395087,360.314396L221.458618,362.810523L223.508492,357.180584L222.411590,356.703194L222.167313,354.927429L224.299329,349.708541L221.062681,352.431821L216.950130,356.209421L215.610488,355.980991L215.649730,353.894967L217.723973,349.238657L217.005651,348.306651L215.413870,348.462541L214.876758,347.307232L212.168616,348.719634L211.557677,347.626429L210.054460,347.545298L208.056646,347.969347L209.005637,345.199692L209.131159,343.378522L207.530345,343.354819L205.860432,343.361508L200.862855,346.538897L199.673540,345.935910L200.070513,343.860164L200.018419,342.242635L205.936688,335.434383L208.764112,331.551200L202.909050,335.048142L193.278378,341.401523L196.788963,336.983531L201.380827,331.898960L198.424770,332.708195L198.455222,331.237205L194.793362,332.437152L193.748554,331.701632L197.639341,327.597564L198.750679,325.495528L194.739007,326.757623L189.654631,328.576525L194.824169,323.980679L195.640437,322.164889L197.441756,319.825605L195.511938,319.658843L192.959348,319.787654L195.196799,317.313239L190.588348,318.448435L191.404653,316.748759L190.297683,316.020819L188.129244,315.772816L188.777204,314.194856L188.454984,313.076805L188.135236,311.961814L191.574238,309.304959L191.920167,307.985977L190.618167,307.319247L188.424740,306.956186L186.772471,306.350903L187.844375,304.779957L182.706700,305.285672L180.796322,304.647076L177.538905,304.372985L186.482358,300.506204L185.574192,299.592759L185.136926,298.540014L182.850094,297.943862L185.083343,296.228636L184.742824,295.152129L184.790096,293.991548L181.587595,293.480996L183.706365,291.909487L183.606438,290.779601L186.101205,289.236506L184.466631,288.369867L181.862102,287.597802L181.670511,286.468449L182.221937,285.255680L184.139587,283.925374L184.781658,282.754529L186.303189,281.536936L183.326592,280.635038L184.211675,279.471848L186.146346,278.292698L181.834985,277.317044L185.897728,276.130751L180.647109,275.048536L186.029718,273.962472L186.603977,272.892560L185.704982,271.782937L179.968581,270.417157L169.975189,268.652722L176.549575,267.846056L177.510973,266.721565L179.299367,265.698562L183.118343,264.939083L185.903308,264.144719L185.488602,262.986480L175.104916,260.352605L174.309495,258.981368L179.414314,258.597860L182.986550,258.055082L176.395161,255.597113L170.880589,253.191980L177.216935,253.273124L170.649131,250.476872L175.159326,250.250317L175.885888,249.145576L172.898139,247.034190L179.081923,247.468218L185.450589,248.111919L187.503968,247.562805L181.515285,244.429869L170.897769,239.549170L171.536031,238.354800L175.268440,238.304174L183.202314,239.948649L187.723338,240.451621L191.328706,240.694674L192.407129,239.956233L190.280025,237.830135L193.110408,237.876528L193.836046,237.007522L192.176288,234.994122L194.918845,235.109166L194.526639,233.683358L193.678119,231.988655L193.229810,230.469134L192.393088,228.700641L187.849474,224.749976L185.063409,221.674117L180.945336,217.673320L181.347592,216.342872L185.986792,217.727943L187.338085,217.076223L190.338964,217.566181L198.792608,221.934883L202.030480,222.858942L198.931568,219.233179L198.884416,217.760889L201.371175,218.214484L202.281916,217.491428L202.911821,216.548997L204.617547,216.497495L203.209671,213.834090L205.453916,214.269389L203.929117,211.396237L206.197097,211.900610L205.281171,209.480077L207.199597,209.710337L209.589554,210.458598L211.371085,210.668825L212.774619,210.536625L212.940725,209.122093L215.100947,209.843750L213.979935,206.980473L214.275843,205.629403L215.508699,205.344550L216.841271,205.201588L217.840781,204.677553L217.257018,202.165212L219.283996,202.936795L218.807147,200.461974L220.070684,200.262100L221.194571,199.891839L223.111017,200.671912L222.666793,198.056369L225.108309,199.690373L226.701241,200.130721L225.022880,195.418475L225.504503,194.012504L227.912842,195.801968L228.167144,194.000640L226.135888,188.061705L228.064800,189.060373L229.183065,188.624372L232.142129,191.770563L233.103489,191.144567L233.637729,189.629731L234.613948,188.991404L235.588835,188.340570L235.536350,185.344279L234.721984,180.386522L239.518442,188.754681L241.186005,189.876994L242.100580,189.147219L242.787228,187.775371L239.623990,175.498800L238.880294,169.348988L239.156466,165.832352L241.480011,168.553499L243.781519,171.479323L246.420431,175.879949L248.597609,179.057856L250.339019,180.923100L251.878727,182.205023L253.826960,185.387137L254.848772,184.819137L255.827734,184.008624L257.103480,184.622753L258.662064,186.876033L259.675370,186.331727L260.178891,182.551621L261.525899,183.868303L262.573689,183.247711L263.920105,184.959332L264.862482,183.433814L266.066134,184.212195L267.298348,185.575494L268.283624,184.079867L269.450408,184.967283L270.564927,185.269579L271.539724,182.052380L272.624975,180.154106L273.841118,184.891521L274.935619,180.994518L276.050603,183.571936L277.102360,186.181663Z" />
<line x1="50" y1="625" x2="100" y2="625" fill="none" stroke="green" stroke-width="1.0" stroke-linejoin="round" stroke-miterlimit="10" />
<text x="125" y="628" style="text-anchor:start;fill:black">n0_4mer:PS</text>
<path style="stroke:red;stroke-width:1.0" d="M278.138502,146.122300L279.805474,143.485106L281.442333,142.814509L282.998158,143.773448L284.504600,145.119426L286.026395,145.933143L287.670951,145.319898L289.169511,146.205198L290.666203,146.962193L291.630343,151.567963L294.519705,142.348421L295.105958,149.032419L295.930245,153.399256L297.079667,155.447351L298.367439,156.567163L300.035664,155.774532L302.023984,153.670043L304.724777,148.804863L305.749192,151.228245L307.073825,152.300468L308.484059,152.996171L309.048888,156.605291L310.276751,157.730304L312.201774,156.577283L312.776207,159.678462L313.938641,160.847056L315.311578,161.369061L319.496124,154.259423L322.388669,151.081704L322.142438,156.085751L322.494668,159.328227L322.343902,163.576065L322.745400,166.326653L325.308245,164.177234L327.554175,162.877014L328.465690,164.454966L330.287296,164.152395L333.390776,161.413951L337.362484,157.236522L339.743752,156.258328L342.147697,155.339178L339.618740,163.061585L336.035971,172.179873L336.894342,173.568021L338.632599,173.519111L341.851184,171.215422L341.219385,174.894835L344.675931,172.406291L342.978681,177.481456L343.718384,178.935002L348.941646,174.248385L350.737834,174.392277L351.829188,175.487564L353.546200,175.784705L352.874812,179.056586L354.626353,179.303728L352.506881,184.124477L354.402122,184.165901L354.594132,186.152938L365.193789,176.754556L362.294913,182.205843L358.662186,188.209422L360.031430,188.911727L361.251968,189.776797L363.770120,189.399386L366.533638,188.860438L366.619586,190.859238L366.639392,192.875177L367.306771,194.281797L371.510472,192.657687L371.889028,194.352235L371.921082,196.303253L372.882980,197.480444L371.621347,200.375666L371.870515,202.048752L376.036701,200.821681L371.864414,205.683914L373.262135,206.477193L379.722956,203.850984L376.466920,207.854062L381.025375,206.678956L377.923940,210.437232L379.488620,211.215161L383.053589,210.831546L385.216776,211.349167L383.981513,213.819699L380.521729,217.440236L384.279518,217.105552L384.132280,218.874396L383.671055,220.774339L385.906221,221.335458L396.951395,217.812801L398.598064,218.866061L395.924697,221.846524L388.091808,226.923849L386.635397,229.139630L387.425493,230.406999L387.177953,232.078355L386.958877,233.717715L389.327512,234.418581L395.387307,233.911031L396.004644,235.338505L394.847491,237.327394L392.022900,239.774960L392.121188,241.294973L394.117735,242.285418L394.432944,243.757539L399.057537,244.156556L395.572576,246.577128L390.692167,249.210290L391.782962,250.455701L390.683328,252.153835L400.381698,251.820900L402.188234,253.084902L397.415089,255.438900L398.700492,256.775137L401.748738,257.900005L400.714574,259.595532L396.550506,261.605760L399.892500,262.774583L400.192011,264.282376L404.593540,265.493403L403.355323,267.154097L404.270792,268.676844L406.235089,270.181550L402.035355,271.883924L402.705858,273.422894L396.462794,274.978926L403.934537,276.547533L407.045578,278.193126L420.177699,280.279925L413.682958,281.735305L416.760077,283.615915L411.020953,284.930641L405.083923,286.090950L407.043768,287.879181L397.769095,288.485406L404.315054,290.800110L403.601300,292.304494L407.585861,294.486946L406.029388,295.890981L403.867098,297.158332L406.284820,299.223291L393.245108,298.309459L397.992990,300.804901L403.800420,303.664847L403.047885,305.138148L404.445980,307.135440L404.146414,308.735532L397.682538,308.647845L398.155818,310.395398L396.091755,311.403985L394.987061,312.670734L394.459833,314.109254L397.515244,316.767788L392.788124,316.763773L393.993167,318.829121L384.891764,317.003192L384.871787,318.535969L384.546638,319.957876L384.549979,321.525617L384.869950,323.248784L392.065564,328.118112L388.907691,328.367020L384.291289,327.836324L386.269226,330.473905L381.948244,329.955458L382.492447,331.899928L387.465834,336.296991L382.328964,335.203619L387.185160,339.735686L381.533461,338.215721L381.601902,340.024123L386.277783,344.749223L384.639960,345.596394L385.943558,348.361779L388.211926,351.859037L390.726018,355.641523L387.141426,355.189477L379.072739,351.351728L378.308293,352.743247L368.719220,347.331005L370.020532,350.198970L369.672359,351.816363L368.767652,352.994553L371.597454,357.358624L369.347409,357.444895L368.674552,358.890088L367.527983,359.915840L366.548272,361.093452L363.865145,360.632757L365.030724,363.895169L362.268884,363.292236L360.974271,364.127203L359.437906,364.694785L359.708761,367.206519L358.402844,368.033566L360.526205,372.771413L359.796122,374.352190L359.450976,376.422984L351.746547,369.486343L349.676100,369.259568L346.914429,368.079843L347.249718,370.904944L346.246078,372.008091L344.092932,371.517803L341.347549,370.108245L341.985219,373.558194L341.223300,375.035629L340.737754,376.978262L340.266542,379.006487L338.940859,379.704067L339.757165,384.002596L342.537670,391.901145L339.858690,390.487767L336.722893,388.107942L333.981719,386.285954L330.135308,382.161804L330.643683,386.465283L330.200742,389.031442L328.239225,388.482035L327.246233,389.985889L326.929583,393.085684L325.397897,393.497257L321.035919,387.008403L318.873394,385.556271L320.006579,392.566991L316.581556,387.711318L316.430015,391.655128L314.902914,391.847107L311.609259,386.628178L311.482811,390.993289L309.906869,390.894309L309.613297,395.200230L308.108447,395.471431L308.864208,404.365228L306.457683,401.436061L304.808623,401.354618L302.535620,398.425211L299.693489,392.393398L297.907834,390.891662L297.980798,399.190606L296.717340,400.912247L295.752644,404.729951L294.498522,407.189143L291.428406,396.614330L290.038318,397.553409L288.274096,395.271914L286.460775,391.875585L284.943909,390.921785L283.809689,394.813423L282.303757,394.152562L280.731408,391.765211L279.365178,393.339658L277.916820,393.091022L276.564977,399.998114L275.042560,398.737803L273.556679,396.984629L272.068596,397.083593L270.455959,400.532830L269.036207,398.230699L267.764279,394.387429L266.497314,391.736116L264.915149,393.522233L263.423509,393.897702L262.023945,393.317852L260.455062,394.210960L259.181334,392.710922L258.165956,389.671827L256.533984,390.946982L254.590868,393.815469L253.005368,394.319966L251.399185,394.830745L249.390743,397.164114L248.235518,395.358210L246.069153,398.012448L244.998716,395.937458L243.896899,394.151993L241.858219,395.918190L238.357966,402.575313L237.694980,399.165657L236.296746,398.349362L236.045658,394.055278L236.284838,388.624548L232.876353,393.867416L230.795774,395.074654L230.637151,391.124618L229.745679,389.265263L229.157675,386.755960L226.437003,389.401422L225.232876,388.379938L225.228205,384.740416L224.230232,383.412158L220.694493,387.379155L220.463288,384.436122L218.710872,384.589632L215.934924,386.628749L213.314865,388.223912L210.063773,390.812360L209.453564,388.634907L210.962231,382.960734L207.654387,385.450146L210.275593,378.300326L208.841402,377.786313L207.594873,376.973207L207.240059,374.845746L204.027079,376.887943L200.235173,379.592970L198.773315,378.939438L199.619502,375.204126L200.033494,372.168275L201.466874,367.948145L199.109766,368.563542L198.770439,366.677501L195.704349,368.037046L194.412212,367.253924L193.327568,366.229526L191.883220,365.598645L191.713644,363.593575L190.045677,363.191183L188.301717,362.835717L187.581143,361.435092L178.661071,367.962585L178.029186,366.318681L177.977913,364.163253L177.871076,362.104122L180.672566,357.541947L178.305312,357.556462L176.696067,356.882241L171.758108,358.887455L177.296593,352.431555L177.769112,350.148039L172.012724,352.612694L173.499314,349.572231L173.035795,348.018066L173.293194,345.976484L173.492686,344.014891L175.074573,341.174847L170.123976,342.631032L167.233760,342.651482L162.934289,343.462709L165.948453,339.811397L171.118843,335.039211L172.385057,332.652237L166.392394,334.291092L168.231093,331.610992L166.439093,330.878559L164.430750,330.219928L161.970333,329.739583L159.972973,328.987970L159.514779,327.496866L161.790576,324.808220L163.196029,322.573692L166.917149,319.444038L164.963606,318.688797L164.127035,317.465666L158.852145,317.871861L156.918421,316.959286L154.382370,316.213495L157.430326,313.580012L155.105449,312.732316L154.995708,311.167091L155.201310,309.519783L151.889811,308.856212L152.782885,307.015292L148.196852,306.571968L152.399566,303.945026L150.387582,302.822779L150.037586,301.307862L150.130455,299.704573L155.795023,297.079250L151.188888,296.376669L155.595963,294.121702L153.839384,292.892865L153.824154,291.390206L152.546127,290.047292L151.719987,288.627363L156.556768,286.634881L157.383396,285.109489L157.136795,283.686492L150.833579,282.632339L155.113154,280.905118L157.323598,279.360798L153.225930,278.028561L154.258740,276.532265L152.657920,275.062934L158.827881,273.645257L158.427414,272.220805L156.691509,270.737659L152.214396,269.078726L146.430334,267.229766L151.309177,266.011951L152.373458,264.586974L151.279913,262.975265L152.954711,261.636206L152.191271,260.037343L150.611907,258.305603L149.374387,256.579794L151.055266,255.281903L148.532671,253.298687L151.503483,252.257256L144.373942,249.296164L141.513625,247.041010L146.727998,246.498645L143.558687,244.110442L150.149089,244.050485L149.529017,242.270251L146.685895,239.854628L150.282639,239.201835L158.701479,240.080239L156.305239,237.779440L152.714477,235.011811L141.960322,229.694851L144.449177,228.761091L150.313653,229.122160L158.228913,230.412989L162.595767,230.504897L165.877113,230.259492L166.545557,228.983290L161.279272,225.106406L162.982027,224.218259L167.021617,224.455811L165.030895,221.882233L162.081535,218.751913L164.481970,218.257820L167.950827,218.381426L170.290588,217.976765L169.428098,215.829269L163.802394,210.884697L161.523854,207.716867L154.855091,201.771215L154.413021,199.472995L160.781833,201.510800L160.864088,199.583177L167.011413,201.740833L171.994661,203.274800L175.998436,204.257500L177.705664,203.672174L178.731890,202.606139L178.327341,200.442151L178.716778,198.855109L175.384971,194.229498L179.949959,195.993581L181.200449,195.082064L184.929551,196.346637L184.037365,193.594428L184.382046,191.893948L182.298520,187.881585L184.230674,187.591984L191.307290,192.419233L188.927881,187.977921L190.391190,187.348155L189.296945,184.023464L191.128838,183.767665L192.795705,183.366253L192.092642,180.287563L191.198826,176.881311L194.727090,178.661553L196.319726,178.200404L199.715160,180.038583L202.238558,180.890187L201.453099,177.442383L205.138411,179.944958L205.939193,178.596526L207.321762,178.054680L204.833566,171.836817L205.258434,169.727735L209.847905,174.005885L209.957801,171.429458L210.164612,168.912455L211.393282,168.016971L214.069813,169.618722L213.025416,164.735750L214.375832,163.995501L215.061439,162.001807L218.505504,165.288412L219.932774,164.783515L221.768645,165.132358L221.997941,162.123588L222.480561,159.517377L222.569087,155.884527L223.749868,154.612909L226.706242,157.611959L228.788265,158.667050L233.097276,165.652617L232.683741,160.417499L231.367790,152.276797L230.332241,144.345728L231.029369,141.079882L233.788714,144.128917L236.358325,146.863967L239.649707,152.397631L240.174781,148.450618L242.921406,152.626333L245.395663,156.185877L246.871710,155.949705L248.088877,154.567230L248.804648,150.677135L251.730032,157.486891L252.244012,152.258181L254.593430,156.927637L256.105394,157.142715L257.076276,153.773401L258.340946,151.994359L260.087809,153.816212L261.664168,154.545341L263.433090,157.454661L264.629142,154.583129L266.134556,154.987759L267.796447,158.134570L269.098218,155.595096L270.463112,153.133125L271.851630,149.270839L273.428846,152.835493L274.912470,147.193713L276.491623,145.192425L278.081180,144.829516Z" />
<line x1="50" y1="600" x2="100" y2="600" fill="none" stroke="red" stroke-width="1.0" stroke-linejoin="round" stroke-miterlimit="10" />
<text x="125" y="603" style="text-anchor:start;fill:black">n0_4mer:D</text>
<path style="stroke:black;stroke-width:1.0" d="M279.203946,102.371471L281.275274,103.260002L283.334723,103.985957L285.410893,104.187458L287.614782,102.618725L289.762620,102.199647L292.005195,100.961326L294.098264,101.404944L296.278708,101.091928L298.603139,99.815186L300.870782,99.187913L303.208409,98.269048L305.402567,98.366859L307.364661,99.758186L309.568447,99.797264L311.922508,99.166702L314.133941,99.299801L316.533902,98.669776L318.605320,99.479711L320.438704,101.172659L322.346559,102.486221L324.246472,103.760288L325.881124,105.857042L327.921697,106.536769L330.202332,106.480758L332.427564,106.644729L334.803254,106.425606L337.395921,105.688186L339.327651,106.787363L340.974662,108.582486L343.242839,108.796705L344.948433,110.376271L347.138645,110.805168L349.447608,111.001236L351.682858,111.399088L353.603712,112.479887L355.063237,114.478167L357.651823,114.219573L360.047858,114.398130L361.841296,115.730876L364.624357,115.284557L366.174756,117.058856L366.355181,121.104664L368.033255,122.537806L369.816187,123.787711L371.460629,125.247593L374.069914,125.234035L376.918470,124.931049L378.337670,126.757359L378.927489,129.714364L380.954933,130.627630L382.306328,132.457695L383.445569,134.536679L385.574475,135.328328L386.266217,137.917668L387.631102,139.638072L390.244306,139.877977L392.942271,140.076906L395.226888,140.796568L397.198551,141.892709L398.244731,143.991325L398.876253,146.491625L400.001199,148.445179L400.385578,151.109951L401.299713,153.209773L403.201053,154.353833L404.255288,156.295705L406.072655,157.536119L408.584741,158.186032L410.615238,159.293671L413.195767,159.969639L415.876817,160.612635L417.190450,162.390632L417.264699,165.123573L417.413507,167.751235L419.041266,169.248933L420.612951,170.799505L423.091088,171.729122L426.074689,172.359511L425.884854,175.151645L427.015772,177.043484L427.879422,179.100847L429.441151,180.721753L431.394476,182.123938L432.188881,184.222501L432.977220,186.314372L432.399022,189.142323L432.305884,191.661992L433.386695,193.543360L435.004314,195.159607L436.932310,196.645304L438.100661,198.516496L438.974235,200.528609L439.788665,202.565745L441.084034,204.396468L442.428573,206.219519L443.485989,208.170889L444.333856,210.209305L444.441551,212.522288L445.118976,214.614977L446.563276,216.444341L447.322879,218.518011L445.851058,221.295041L445.606404,223.645799L446.291085,225.706010L447.047321,227.748797L449.847357,229.261684L451.689413,231.071109L450.982183,233.515284L450.937329,235.780640L451.083697,237.992454L451.337246,240.175364L452.104673,242.258961L453.759133,244.199006L454.787516,246.271176L455.618689,248.389347L456.870877,250.463337L455.878031,252.836063L455.550435,255.104271L455.629980,257.318579L454.860296,259.602252L455.894730,261.730100L456.916364,263.880102L458.037197,266.046913L458.494936,268.262769L457.438560,270.524927L457.004499,272.752332L455.605698,274.968665L455.817705,277.170259L456.052834,279.378220L456.848147,281.613582L455.055937,283.744634L454.524333,285.911156L452.607673,287.966811L451.053979,290.010355L453.085388,292.369952L452.090245,294.452240L454.756467,296.963196L454.810267,299.195134L454.935265,301.446174L454.636981,303.640848L453.769811,305.738963L453.492957,307.933639L452.698526,310.029412L453.103096,312.367437L453.184078,314.655301L452.809755,316.850411L452.274910,319.009148L451.302605,321.053637L449.583479,322.882592L447.858138,324.680012L447.084828,326.734104L446.489915,328.840397L445.263283,330.741498L444.406346,332.753861L442.677308,334.452828L441.331019,336.265219L440.432650,338.232212L440.766281,340.683792L440.798567,343.043635L440.118937,345.125622L439.882468,347.407229L439.204987,349.507469L438.036625,351.384472L437.162085,353.396445L436.520039,355.526733L434.649210,357.035900L434.257330,359.301091L434.305878,361.826112L433.520443,363.918256L433.671338,366.560220L432.738345,368.600106L430.871989,370.077472L427.976246,370.885935L425.946089,372.193119L424.417873,373.803042L423.607246,375.888751L423.967982,378.805567L422.601575,380.546127L420.852008,382.002593L419.977950,384.101178L417.956007,385.331176L416.690347,387.133324L415.168993,388.731952L413.764295,390.422099L412.424841,392.167900L410.903401,393.758340L409.354305,395.320773L406.884675,396.034713L405.610754,397.828433L404.528727,399.817238L403.248549,401.630953L401.670934,403.156332L400.049154,404.635077L398.187353,405.856669L396.686523,407.457263L395.732423,409.673679L394.462438,411.566464L393.375217,413.695458L391.637815,415.078372L389.001517,415.352718L386.639913,415.916972L384.166916,416.296253L382.205338,417.305357L380.923622,419.224759L379.101605,420.422376L377.952792,422.581328L376.331054,424.092677L374.266795,424.950490L372.914692,426.893997L370.592959,427.333610L368.854995,428.688891L367.110951,430.045899L365.479089,431.610512L363.326892,432.275387L361.165964,432.900160L359.242982,433.948582L357.255768,434.873535L355.571215,436.400051L353.507581,437.177759L351.134313,437.284047L348.547777,436.867296L346.415566,437.395990L344.389051,438.149906L342.663680,439.630160L341.092352,441.545672L338.930128,441.999424L336.918118,442.835775L335.050020,444.083762L332.942517,444.672207L331.125676,446.137224L329.109171,447.034461L326.913278,447.357294L324.710641,447.628180L322.519057,447.907196L320.391379,448.400365L318.264775,448.891630L316.132939,449.356824L314.105076,450.283956L311.950066,450.661435L309.811057,451.110550L307.898611,452.787491L305.597725,452.398719L303.504728,453.190162L301.459010,454.377376L299.110774,453.484485L296.948103,453.864075L294.789361,454.304430L292.515782,453.623819L290.308737,453.462617L288.147637,453.810326L285.968866,453.944668L283.817578,454.639332L281.614591,454.321101L279.405537,453.363528L277.214368,451.866374L275.060809,451.792714L272.912626,451.417830L270.754674,451.804271L268.576602,452.451602L266.386977,452.972104L264.140621,454.176787L261.904534,454.791873L259.686844,454.967892L257.627694,453.424300L255.436206,453.385972L253.259734,453.184197L251.046979,453.240835L248.949471,452.453603L246.706339,452.654159L244.492570,452.604542L242.389136,451.912586L240.054026,452.434644L237.970716,451.641189L235.806555,451.250483L233.426039,451.770306L231.258865,451.323840L229.162712,450.596775L227.180214,449.471070L225.297686,448.046840L223.435520,446.626702L221.551877,445.342058L219.260312,445.355954L216.968583,445.315535L214.222798,446.505306L211.910305,446.374413L210.047094,445.021348L208.119982,443.869243L206.334632,442.394744L204.350524,441.431253L202.480186,440.215333L201.212458,437.692053L199.661292,435.875897L197.686439,434.991742L195.443149,434.642797L193.054144,434.540866L190.743597,434.238547L188.577842,433.629059L186.163793,433.437457L184.010268,432.744804L182.313301,431.259725L180.665008,429.714067L179.432202,427.526459L177.663456,426.225460L175.629569,425.331613L174.347186,423.314109L172.734694,421.810947L170.678578,420.941451L169.205190,419.257266L167.201160,418.298184L165.281205,417.212657L163.821605,415.532930L162.000715,414.314545L160.049158,413.245659L158.771881,411.369659L157.136631,409.925633L156.178060,407.726173L154.841358,405.974879L153.238507,404.520445L151.583876,403.118424L148.487513,403.172261L146.100737,402.448698L143.155188,402.224111L141.707007,400.523751L140.676481,398.443251L138.950825,397.007364L137.654212,395.185489L135.697216,393.934611L134.182655,392.293780L133.871112,389.671893L132.847948,387.657836L131.793503,385.681776L131.065575,383.471055L129.967168,381.555160L129.229462,379.388425L128.235880,377.419903L127.072154,375.576242L124.743315,374.506336L122.670919,373.231917L120.586235,371.934996L118.371995,370.686516L117.691473,368.491433L117.246766,366.175147L117.183814,363.665997L116.664640,361.438481L115.822790,359.398913L114.417980,357.654909L113.188679,355.810980L112.588092,353.655103L110.748451,352.091514L109.924456,350.039461L109.354926,347.878088L108.583437,345.811888L108.438925,343.490483L108.209974,341.222232L106.470436,339.548830L104.594597,337.899110L103.841425,335.819746L102.285522,334.014319L102.161859,331.716135L101.984993,329.449988L101.837613,327.187965L100.890709,325.169288L99.219988,323.340803L98.729117,321.174907L97.670488,319.152230L98.180275,316.745787L99.002845,314.295682L99.565067,311.933650L99.802911,309.661528L99.578276,307.491766L99.528309,305.296153L97.765209,303.382883L96.418652,301.372695L96.643515,299.124441L96.065219,296.987739L97.239755,294.649603L97.312295,292.454567L95.394076,290.437651L95.244369,288.247951L94.035766,286.123623L93.913748,283.919542L95.617564,281.647472L94.350147,279.492821L94.621350,277.289093L94.981897,275.092603L95.269128,272.904066L96.170330,270.736541L95.011134,268.515478L94.479072,266.294469L94.036897,264.063317L94.557525,261.888066L94.904933,259.706943L95.440435,257.548055L96.026614,255.402657L97.507048,253.374777L98.365845,251.293545L98.209901,249.077659L97.291635,246.728765L95.480432,244.195125L95.758137,241.991363L95.326928,239.644978L95.978709,237.503630L97.412610,235.541029L98.332140,233.481912L100.100553,231.643864L99.709930,229.274687L99.471783,226.922632L100.514745,224.916740L100.658507,222.652272L101.714347,220.660710L102.210541,218.496685L102.153893,216.139225L103.920354,214.406463L105.726696,212.716569L108.377890,211.378242L108.792873,209.207075L108.114073,206.576579L108.061842,204.168925L107.528463,201.523889L108.515157,199.526485L109.876649,197.706511L111.133886,195.848660L111.807574,193.708940L113.954900,192.316207L115.747094,190.770741L117.574890,189.268556L119.066565,187.602736L119.384076,185.273588L120.735366,183.532248L121.390729,181.374558L122.022859,179.186129L124.714670,178.304798L125.308557,176.089387L127.123941,174.681279L129.464303,173.659845L129.610380,171.110477L130.704538,169.214998L131.503594,167.090341L131.155038,164.060971L131.790769,161.744013L133.355076,160.150547L135.215736,158.810107L137.696995,158.016788L140.101361,157.200747L141.554893,155.575411L141.894733,152.928680L143.764339,151.668175L144.969469,149.784674L147.233322,148.930832L149.929355,148.548975L151.894934,147.467346L153.465353,145.987083L154.435925,143.854302L155.014748,141.251535L154.832272,137.721733L155.944217,135.603416L158.234410,134.865355L159.625922,133.056363L162.341235,132.896543L164.714384,132.356335L166.429155,130.984240L168.797704,130.499082L170.361036,128.932208L172.741141,128.519860L175.178965,128.236724L178.236732,128.939495L179.656245,127.204934L180.724732,124.879912L181.855368,122.591174L182.797864,119.921037L185.162117,119.621667L186.968642,118.375927L188.258889,116.174669L189.642505,114.081176L191.630926,113.098326L194.167027,113.213640L196.229998,112.421492L198.379966,111.825310L200.367137,110.893168L201.826745,108.760917L203.464401,106.962137L206.105372,107.537252L208.237043,106.931616L210.731114,107.286932L213.158930,107.548892L214.507052,104.853029L216.324263,103.372055L218.246604,102.147773L220.531786,102.030050L223.009919,102.600568L225.313635,102.677070L227.206394,101.325537L229.146919,100.079311L231.518774,100.492334L234.043342,101.654868L236.181408,101.278871L238.435965,101.467474L240.121622,98.864537L242.008876,97.051646L244.250248,97.082009L246.501811,97.239260L248.955254,98.847105L251.194142,99.224430L253.320722,98.823540L255.339356,97.417066L257.446585,96.618550L259.566061,95.795285L261.825482,96.655468L263.900140,94.923595L266.160062,96.150322L268.305208,95.168955L270.499232,95.263244L272.727521,98.304185L274.878866,98.127073L277.007465,100.301606L279.092272,102.113942Z" />
<line x1="50" y1="550" x2="100" y2="550" fill="none" stroke="black" stroke-width="1.0" stroke-linejoin="round" stroke-miterlimit="10" />
<text x="125" y="553" style="text-anchor:start;fill:black">GC-content</text>
</g>
<g style="fill:pink;stroke:black">
<a href="" title="OY968763:1 [76500-94099];"><path  d="M378.282940,69.494199L381.853780,71.328034L385.392072,73.223910L388.896737,75.181249L392.366708,77.199454L395.800928,79.277912L399.198351,81.415988L388.398494,98.249380L388.398494,98.249380L385.296499,96.297224L382.160907,94.399502L378.992673,92.556792L375.792761,90.769657L372.562147,89.038640L369.301815,87.364268Z" />
</a><a href="" title="OY968763:2 [464000-486099];"><path  d="M346.673412,493.547299L342.848319,494.764887L339.002560,495.915532L335.137304,496.998884L331.253730,498.014614L327.353021,498.962410L323.436364,499.841986L319.504953,500.653072L315.634957,481.031066L315.634957,481.031066L319.224506,480.290509L322.800584,479.487418L326.362101,478.622038L329.907973,477.694634L333.437120,476.705486L336.948466,475.654897L340.440941,474.543186Z" />
</a><a href="" title="OY968763:3 [638000-660099];"><path  d="M119.513686,444.481581L116.579506,441.742158L113.693583,438.951943L110.856794,436.111787L108.070006,433.222555L105.334066,430.285127L102.649807,427.300398L100.018049,424.269276L115.233871,411.289339L115.233871,411.289339L117.636781,414.056885L120.087625,416.782073L122.585657,419.464072L125.130117,422.102067L127.720228,424.695252L130.355201,427.242840L133.034235,429.744052Z" />
</a><a href="" title="OY968763:4 [800500-819099];"><path  d="M47.967576,238.172312L48.644886,234.215659L49.391146,230.271429L50.206129,226.340824L51.089586,222.425041L52.041248,218.525273L53.060825,214.642707L72.359884,219.891168L72.359884,219.891168L71.428965,223.436119L70.560056,226.996777L69.753422,230.572057L69.009307,234.160870L68.327940,237.762123L67.709526,241.374720Z" />
</a><a href="" title="OY968763:5 [856500-874099];"><path  d="M73.346374,164.384382L75.307595,160.881888L77.329645,157.414156L79.411907,153.982241L81.553747,150.587190L83.754513,147.230036L86.013534,143.911802L102.447140,155.310776L102.447140,155.310776L100.384555,158.340468L98.375161,161.405695L96.419567,164.505525L94.518372,167.639012L92.672152,170.805202L90.881472,174.003131Z" />
</a><a href="" title="OY968763:6 [970500-988099];"><path  d="M190.741225,60.989582L194.489055,59.551659L198.261409,58.179363L202.057138,56.873113L205.875087,55.633306L209.714092,54.460321L213.572983,53.354514L218.914463,72.628034L218.914463,72.628034L215.391127,73.637684L211.885949,74.708671L208.399996,75.840668L204.934330,77.033331L201.490006,78.286297L198.068075,79.599184Z" />
</a></g>
<text x="275" y="280" style="text-anchor:middle" font-size="25" font-weight="bold">OY968763</text>
<path  style="fill:pink;stroke:black" d="M350,550L375,550L375,565L350,565Z" />
<text x="405" y="565" style="text-anchor:start;fill:black">Selected loci;</text>
</svg>