<svg xmlns="http://www.w3.org/2000/svg" viewbox="0 0 550 650">
<circle cx="275" cy="275" r="240" fill="none" stroke="black" stroke-width="1.0" />
<line x1="275" y1="15" x2="275" y2="55" fill="none" stroke="grey" stroke-width="1.0" stroke-linejoin="round" stroke-miterlimit="10" />
<line x1="495" y1="275" x2="535" y2="275" fill="none" stroke="grey" stroke-width="1.0" stroke-linejoin="round" stroke-miterlimit="10" />
<line x1="275" y1="495" x2="275" y2="535" fill="none" stroke="grey" stroke-width="1.0" stroke-linejoin="round" stroke-miterlimit="10" />
<line x1="15" y1="275" x2="55" y2="275" fill="none" stroke="grey" stroke-width="1.0" stroke-linejoin="round" stroke-miterlimit="10" />
<text x="275" y="10" style="text-anchor:middle" font-size="15">MAG: Candidatus Woesearchaeota archaeon isolate</text><text x="285" y="25" style="text-anchor:start">1,199,749</text><text x="525" y="265" style="text-anchor:start">0.29 Mbp</text><text x="285" y="530" style="text-anchor:start">0.59 Mbp</text><text x="-200" y="25" style="text-anchor:end" transform="rotate(-90)">0.89 Mbp</text><circle cx="395.022767" cy="67.167049" r="2.500000" fill="grey" stroke="black" stroke-width="1.0" />
<circle cx="482.872382" cy="155.045539" r="2.500000" fill="grey" stroke="black" stroke-width="1.0" />
<circle cx="514.999987" cy="275.078870" r="2.500000" fill="grey" stroke="black" stroke-width="1.0" />
<circle cx="482.793497" cy="395.091060" r="2.500000" fill="grey" stroke="black" stroke-width="1.0" />
<circle cx="394.886142" cy="482.911791" r="2.500000" fill="grey" stroke="black" stroke-width="1.0" />
<circle cx="274.842259" cy="514.999948" r="2.500000" fill="grey" stroke="black" stroke-width="1.0" />
<circle cx="154.840660" cy="482.754020" r="2.500000" fill="grey" stroke="black" stroke-width="1.0" />
<circle cx="67.048822" cy="394.817810" r="2.500000" fill="grey" stroke="black" stroke-width="1.0" />
<circle cx="35.000117" cy="274.763389" r="2.500000" fill="grey" stroke="black" stroke-width="1.0" />
<circle cx="67.285479" cy="154.772393" r="3.000000" fill="black" stroke="black" stroke-width="1.0" />
<circle cx="155.250534" cy="67.009458" r="2.500000" fill="grey" stroke="black" stroke-width="1.0" />

<circle cx="275" cy="275" r="185" fill="white" stroke="grey" stroke-width="0.5" />
<circle cx="275" cy="275" r="170" fill="none" stroke="black" stroke-width="0.5" />
<circle cx="275" cy="275" r="170" fill="aliceblue" stroke="black" stroke-width="0.5" />
<circle cx="275" cy="275" r="154" fill="white" stroke="none" stroke-width="0.5" />
<circle cx="275" cy="275" r="140" fill="none" stroke="black" stroke-width="0.5" />
<circle cx="275" cy="275" r="140" fill="aliceblue" stroke="black" stroke-width="0.5" />
<circle cx="275" cy="275" r="133" fill="white" stroke="none" stroke-width="0.5" />
<circle cx="275" cy="275" r="110" fill="none" stroke="black" stroke-width="0.5" />
<circle cx="275" cy="275" r="110" fill="white" stroke="black" stroke-width="0.5" />
<circle cx="275" cy="275" r="109" fill="aliceblue" stroke="none" stroke-width="0.5" />
<circle cx="275" cy="275" r="80" fill="none" stroke="black" stroke-width="0.5" />

<g style="fill:none;stroke-linejoin:round;stroke-miterlimit:10">
<path style="stroke:blue;stroke-width:1.0" d="M278.155621,124.364931L279.708265,125.199454L281.273469,125.341541L282.873023,124.797734L284.376265,125.993566L286.127186,123.502937L287.878811,121.657748L289.723571,119.269311L291.488015,118.156116L292.807852,121.120182L293.946356,125.052698L296.022861,121.558882L298.046072,118.962599L299.548210,120.039034L301.692113,117.217873L302.894127,120.001754L304.325935,121.298807L305.884216,121.862189L306.940411,124.762617L307.658679,128.923242L309.117468,129.569251L310.601177,130.087855L312.369871,129.484143L313.576254,131.061487L315.724536,129.171699L316.842048,131.009111L319.180364,128.698625L320.725269,129.121630L325.330746,120.131146L326.079418,123.253360L325.258398,130.708895L326.959798,130.707657L328.606400,130.888436L330.477050,130.509331L335.496541,122.237213L336.151284,125.186946L335.088900,132.086414L335.305998,135.672723L337.120750,135.506428L338.692535,135.915485L340.574506,135.679412L342.564083,135.269642L343.085174,137.875596L344.053994,139.506053L344.903931,141.318075L347.153402,140.466893L351.044691,136.708813L353.051540,136.514746L360.309797,127.275577L365.034084,122.798583L362.976585,129.769876L364.469585,130.736893L361.461840,138.792773L359.333094,145.171930L359.720672,147.518349L361.294417,148.055009L362.265310,149.475010L364.250124,149.446552L364.808079,151.423266L366.364448,152.011335L369.295941,150.804043L370.772357,151.565536L371.526767,153.247948L371.544732,155.811255L371.475235,158.415179L372.716295,159.402188L376.394714,157.567845L379.727494,156.245543L381.455760,156.804735L381.572351,159.139006L382.600423,160.452801L381.076282,164.419503L380.224857,167.582193L381.511423,168.523016L382.746853,169.521073L384.054095,170.455644L386.217257,170.595256L387.868021,171.248036L388.120802,173.180931L388.780915,174.723980L389.328410,176.349678L389.790482,178.029781L391.939895,178.294633L393.131957,179.374534L393.911490,180.787881L394.553239,182.300994L395.528165,183.550266L396.393400,184.881532L396.786924,186.552817L397.247481,188.159432L398.005432,189.545284L400.152849,189.983005L401.971382,190.677622L403.393721,191.657652L405.561687,192.181068L408.529686,192.246883L409.992715,193.284631L406.734821,197.130339L405.074778,199.938829L405.442131,201.537210L406.636033,202.670332L410.975995,202.129354L416.361439,201.138561L415.092605,203.659379L413.758152,206.159562L413.298503,208.183437L414.517386,209.387972L414.861712,211.006262L413.813844,213.235740L417.437407,213.402508L415.708076,215.891961L418.286772,216.566690L423.289047,216.330602L418.738967,219.864895L420.319909,220.997612L418.756260,223.285758L418.292393,225.141421L416.717251,227.347591L420.020224,227.921800L421.738488,229.057239L422.259421,230.582283L422.040153,232.323434L424.658111,233.258105L426.794125,234.371012L425.020343,236.525044L427.287039,237.639218L425.339140,239.782334L425.137596,241.484407L431.766797,241.724423L430.495154,243.692693L430.783091,245.329051L431.912921,246.813685L434.419681,248.083888L438.063843,249.222223L442.081053,250.378036L442.204058,252.146572L435.074112,254.826678L430.382472,257.069172L429.551177,258.803533L425.888738,260.783442L426.103250,262.358446L428.039329,263.809295L430.176282,265.285876L429.291252,266.962681L430.156921,268.546307L429.020030,270.208973L425.183150,271.902435L426.340934,273.464116L426.695151,275.049454L429.824728,276.672199L430.133361,278.300858L435.700503,280.103716L433.722068,281.705655L429.266268,283.136878L426.661643,284.593383L424.044816,285.996318L424.574102,287.611836L426.729357,289.395574L425.097971,290.828733L425.035399,292.412922L425.730077,294.095589L429.115841,296.166905L426.498424,297.426559L427.137296,299.152151L426.384526,300.661002L425.094882,302.062623L422.148256,303.125766L422.507693,304.799206L422.793837,306.471682L422.906931,308.118894L425.537731,310.367742L422.441711,311.274008L420.920343,312.524868L421.897862,314.421121L420.463048,315.674070L418.242467,316.675619L419.626460,318.726438L425.165547,322.123278L426.342000,324.239550L425.130130,325.590217L425.485736,327.471526L423.922613,328.682455L423.939287,330.457934L423.682928,332.142734L422.037186,333.285016L417.191421,333.094777L415.595294,334.168539L416.278413,336.205656L415.189829,337.486029L418.226545,340.646289L417.256658,342.013551L416.025316,343.247426L414.378171,344.261322L413.262567,345.522259L410.783108,346.059498L409.698065,347.298881L409.853664,349.212165L409.219844,350.705647L408.892980,352.380924L410.304018,355.098537L408.606135,355.995109L403.528668,354.769843L401.652656,355.455179L402.257552,357.722828L404.401921,361.058148L405.923953,364.062149L406.819561,366.705584L404.477253,367.103441L401.422997,366.940075L400.511792,368.302825L400.311254,370.207668L401.299751,373.062033L400.040263,374.200645L398.430975,375.048199L399.536744,378.124510L398.281927,379.281257L394.264056,378.044869L391.902084,378.162233L388.794356,377.559715L385.464471,376.675507L384.248093,377.690286L384.671410,380.273452L383.710001,381.560700L382.665895,382.771529L382.410543,384.792155L381.323178,385.982636L381.879578,388.928582L380.624044,389.980406L379.368606,391.029994L380.634817,394.940858L378.338500,394.841262L378.451900,397.544974L376.803847,398.187584L372.051754,394.974538L372.257212,397.837820L371.241111,399.205734L371.227958,401.912320L368.847685,401.503653L367.205359,402.049518L366.676910,404.145584L364.801842,404.353482L363.014586,404.657226L362.512607,406.869195L357.857435,402.738584L356.822615,404.084787L355.689590,405.295607L354.775019,406.885098L358.267548,415.972353L355.948744,415.384003L354.207523,415.750763L349.008547,409.796442L346.253401,408.063243L344.677737,408.461202L343.908680,410.427008L343.119108,412.417616L342.846375,415.547927L341.120629,415.718938L339.321053,415.699269L339.513959,420.122118L339.106000,423.371871L339.098684,427.728969L338.069140,429.799956L335.262932,427.463202L331.580805,422.653049L330.807527,425.328803L327.749134,421.784498L324.413008,417.162338L322.724815,417.087136L321.307743,417.806684L319.915445,418.622811L318.100965,418.063985L316.727375,418.946457L315.753426,421.299902L314.693678,423.495074L313.528296,425.433746L312.337678,427.409290L310.296176,425.897571L308.837723,426.815233L307.314725,427.486765L305.615157,427.316095L304.434890,429.820503L302.309003,427.316562L300.986886,429.224753L298.877645,426.366586L297.047921,424.955619L295.360583,424.331227L293.745090,424.136232L292.291063,425.272109L290.720954,425.490791L289.247163,426.747531L288.049545,431.599341L286.223074,429.178585L284.502107,427.593632L283.012007,429.784449L281.232564,426.035975L279.710949,428.064338L278.122757,428.857068L276.507984,428.564880L274.900549,426.917900L273.279385,429.602821L271.627013,431.111074L270.114786,427.243591L268.569650,426.028727L266.947306,426.722293L265.303108,427.502539L263.470038,430.581069L261.555442,433.826594L259.890508,433.699391L257.881984,436.813882L256.561089,433.421014L255.619326,427.578229L254.329038,425.138860L253.036283,423.035926L251.433720,423.132436L249.707422,423.914034L248.126279,423.767213L246.285015,424.963658L244.600373,425.225444L243.522425,422.583406L241.677392,423.587685L239.153591,427.350228L237.099377,428.835414L234.529263,432.161603L234.341742,426.309245L233.235689,424.173043L232.301155,421.579782L230.882504,420.746979L229.097948,421.105833L227.474689,420.910143L225.462599,421.846334L224.892580,418.553834L223.602433,417.437271L221.911420,417.432934L220.006763,417.949725L217.877862,418.965439L217.029789,416.753468L216.428616,414.048516L213.266152,417.369335L212.422080,415.272003L211.905478,412.539773L211.247802,410.218164L209.893898,409.421461L208.385683,408.940996L207.294236,407.632976L205.721228,407.274601L203.734555,407.668052L202.070950,407.419027L200.728868,406.575501L199.220983,406.021780L196.776790,407.037175L196.251030,404.804753L195.505241,402.991544L193.128600,403.788541L189.614927,406.258628L187.029374,407.183405L184.882328,407.382034L186.837983,401.637169L188.530370,396.472816L186.827047,396.159258L181.368581,400.867407L177.582130,403.132861L177.371183,400.656519L175.700347,400.080616L175.338940,397.870789L174.504587,396.280598L172.453441,396.150389L169.913382,396.546411L166.092120,398.331258L167.142323,394.593618L167.421461,391.800714L168.648373,388.068767L169.948798,384.367910L170.003085,382.044283L166.647017,383.175657L166.435877,381.139349L165.293459,380.031538L160.592391,382.258301L161.268832,379.407567L160.508741,377.916472L161.608042,374.800893L161.897344,372.463047L160.486506,371.607328L159.530563,370.361623L158.214082,369.408887L157.056837,368.318812L154.677129,368.169199L154.497716,366.305364L153.898724,364.778206L152.616256,363.757817L152.649469,361.792834L152.529406,359.963862L151.739183,358.613383L150.803612,357.361911L149.080482,356.618722L147.443573,355.795089L146.699585,354.395685L146.780840,352.500014L144.766744,351.866612L143.767209,350.614483L141.369054,350.143033L140.241504,348.930089L138.207106,348.192741L135.125450,347.967547L134.058958,346.656061L133.592700,345.038950L135.745786,342.165446L135.546586,340.470051L136.776755,338.134224L136.108032,336.689693L137.328300,334.429171L137.245896,332.760661L136.924434,331.202330L134.775639,330.372107L131.558258,329.912974L126.920257,329.917231L127.201935,328.058537L124.411873,327.286197L124.524716,325.487238L127.414917,322.803634L129.639023,320.406589L128.141642,319.191461L126.768191,317.916817L128.047293,315.883237L126.462423,314.652743L126.898470,312.879123L127.582036,311.063539L127.256299,309.507254L126.545243,308.037508L128.750946,305.942624L126.972999,304.702452L127.116521,303.065653L125.472468,301.758239L127.378947,299.824275L125.687250,298.503372L121.168703,297.566117L119.287194,296.178560L113.738713,295.215272L112.940816,293.593383L114.903660,291.671210L118.987001,289.595915L120.675352,287.808927L120.186851,286.218122L120.180634,284.589631L119.607611,282.992273L122.840617,281.228834L125.904667,279.539750L123.908931,278.016945L121.148417,276.460234L119.703055,274.847302L120.676604,273.231773L124.170412,271.691536L123.941848,270.103131L123.355980,268.493527L120.774213,266.763606L119.458002,265.058520L121.734705,263.591013L121.825704,261.983206L123.027703,260.480587L125.693836,259.155538L126.389662,257.653471L127.099086,256.164053L127.423406,254.632389L127.058659,253.000627L127.587834,251.498635L128.170141,250.011765L128.185275,248.429157L127.414472,246.690096L123.790816,244.349574L116.257876,241.087876L110.521488,238.056904L113.785374,237.011974L123.890078,237.718183L128.489210,237.220613L127.481752,235.308436L128.837320,234.026704L128.628849,232.309741L126.947771,230.131589L130.888716,229.672536L130.745255,227.961438L132.746346,226.959828L133.028728,225.392627L133.776999,223.988136L134.626445,222.626460L133.815818,220.632702L131.109493,217.852855L133.205464,216.958596L137.118791,216.866962L135.612560,214.504727L130.101345,210.300943L129.813469,208.339869L132.921201,207.956095L135.324287,207.292359L136.828243,206.224906L136.022832,203.998105L138.360191,203.377721L139.205907,201.997823L141.242206,201.276332L144.101447,201.054254L145.223503,199.884291L146.183106,198.627390L143.587251,195.216411L143.791271,193.447303L145.039390,192.323532L144.416116,189.992769L141.819103,186.302358L139.871281,182.947552L139.048073,180.286907L144.399657,181.968318L148.797419,183.093344L148.516563,180.845740L153.310758,182.418013L150.985898,178.581886L150.870274,176.388725L151.265311,174.570794L149.442344,170.890924L146.264713,165.960642L147.054242,164.307136L150.564803,165.044483L155.360761,167.029862L159.914290,168.931129L164.798044,171.276598L167.374764,171.554667L167.672569,169.656125L163.445510,163.189181L158.820667,156.088378L162.597359,157.517000L161.706499,154.075296L165.225992,155.344259L171.985223,160.323602L172.714272,158.707782L173.377308,156.991814L174.623263,155.939072L173.283716,151.753499L174.709095,150.854467L178.014744,152.340099L178.793760,150.670577L180.315604,149.952813L179.707907,146.372742L180.074700,144.021675L179.977664,140.955141L183.353631,142.804212L182.530474,138.587199L180.668506,132.652723L182.577725,132.310289L180.582131,125.827989L183.949131,127.757135L184.283969,124.804255L183.472869,119.811293L180.871811,111.511550L192.451666,128.086818L197.781352,134.137421L200.764904,136.149329L201.202932,133.421865L202.137161,131.568679L203.677089,130.881346L206.596881,133.060528L208.842084,133.960943L209.874020,132.292014L212.009912,133.054519L213.373991,132.110143L213.745568,128.778827L215.724208,129.236517L216.967398,127.896708L217.953112,125.837331L218.451809,122.368677L221.185696,124.941648L222.664452,124.109728L223.761064,122.117729L222.246607,111.950668L226.656908,120.059451L229.778444,124.539219L232.406118,127.702398L234.479766,129.166510L235.815331,128.021998L237.840225,129.511862L239.396253,129.254057L240.912101,128.834920L242.409648,128.327248L244.043385,128.447011L244.497364,122.725739L245.728054,120.483143L247.633404,121.782550L249.732847,124.442788L251.616855,126.132552L253.333378,126.961724L254.885986,126.749325L256.382112,126.084858L257.833885,124.945382L259.553426,126.189331L261.106683,125.968890L262.674251,125.902397L264.228536,125.670080L265.830591,126.172265L267.327554,124.864151L268.823801,122.903369L270.498097,125.533016L272.057702,125.180596L273.605326,122.785146L275.202703,120.487899L276.781069,123.890379Z" />
<line x1="50" y1="575" x2="100" y2="575" fill="none" stroke="blue" stroke-width="1.0" stroke-linejoin="round" stroke-miterlimit="10" />
<text x="125" y="578" style="text-anchor:start;fill:black">n1_4mer:GRV/n1_4mer:RV</text>
<path style="stroke:green;stroke-width:1.0" d="M276.927564,182.986804L277.838067,184.702629L278.752184,185.488738L279.745547,184.464013L280.651618,185.185197L281.586082,185.330239L282.699911,183.320603L283.952005,180.314963L285.203274,177.940347L286.199942,178.219941L286.644975,182.838079L287.502041,183.750427L288.132907,186.081389L289.295939,184.756659L290.165925,185.351354L291.180901,185.088199L292.109465,185.326983L292.556050,187.949220L293.390927,188.495017L294.516578,187.705640L295.305095,188.446533L296.009514,189.482215L298.114230,184.994687L298.049087,188.997576L300.409976,184.010782L299.801965,189.649087L300.006221,192.192976L301.290331,191.125358L303.036439,188.731238L303.326201,190.848573L304.856845,189.281446L304.948412,191.833270L306.407552,190.566213L306.262214,193.577173L307.947516,191.802610L308.031664,194.076524L308.454099,195.433804L310.202956,193.669250L311.446441,193.158679L313.564602,190.787007L314.004637,192.130157L315.364963,191.520576L316.556313,191.305058L315.822315,194.900701L316.093615,196.413953L316.529503,197.566465L318.390846,196.091512L319.466241,196.104458L321.154747,195.077370L323.285834,193.373442L323.648217,194.692420L324.634718,194.967678L323.125459,199.185799L321.679739,203.138053L322.903134,202.918765L324.311634,202.459213L324.851395,203.292287L324.963278,204.713691L326.544314,204.074556L326.914024,205.116838L327.797874,205.460608L328.944200,205.474998L328.680678,207.290981L329.903517,207.219178L331.396314,206.848270L331.512725,208.145773L335.040652,205.462813L336.876180,204.836265L337.144029,206.002982L338.154844,206.340700L339.259381,206.591978L338.974287,208.309234L336.131541,212.594441L335.854869,214.164807L337.712997,213.607027L337.021204,215.543573L337.622345,216.213530L339.217969,215.968750L339.190237,217.222915L340.351428,217.405270L340.603769,218.392610L341.917794,218.470635L343.626897,218.247861L344.261214,218.934428L344.634284,219.829608L345.514127,220.324865L345.155612,221.770018L344.240944,223.597800L345.020462,224.147968L350.187193,221.589504L351.383219,221.934813L353.393340,221.746988L355.454609,221.569661L356.302995,222.224970L356.769606,223.131250L357.990114,223.568062L358.481544,224.465976L356.292928,226.947005L356.783666,227.805780L353.768523,230.638907L354.018242,231.582076L358.270020,230.374916L360.909623,230.112169L361.989642,230.701480L364.089852,230.800907L366.958839,230.571655L367.664825,231.421725L364.849911,233.889165L363.279730,235.720544L364.164644,236.440477L363.323570,237.897417L366.741478,237.587208L368.892627,237.852118L369.034725,238.930349L370.752977,239.417199L370.624153,240.600590L367.395187,242.851101L360.228408,246.341958L360.262693,247.321005L359.344753,248.592267L360.946270,249.076110L362.798509,249.517580L371.690744,248.031499L374.566484,248.350184L374.755511,249.416210L375.642354,250.309277L374.443064,251.704984L372.537399,253.226481L375.296894,253.710817L376.514770,254.561073L375.251791,255.905721L375.096129,257.019702L378.411508,257.540200L381.134795,258.221792L382.727982,259.124624L383.695352,260.143534L380.389619,261.718285L375.767347,263.371649L375.151139,264.504483L376.417573,265.444557L377.211808,266.448787L376.284237,267.593786L371.936623,268.931712L373.278855,269.880471L374.299905,270.869658L371.483653,271.998730L368.455274,273.072462L370.417557,274.031654L371.040366,275.031310L372.804107,276.056343L370.004638,277.021466L371.400578,278.061603L371.964983,279.096556L370.913284,280.059011L368.114291,280.889960L365.062847,281.644711L366.599120,282.723483L371.925167,284.195936L367.596569,284.764865L370.381419,286.069849L366.607008,286.605446L363.481495,287.152413L362.821470,288.000355L362.695897,288.921928L367.560479,290.689811L366.595630,291.515007L365.314150,292.262554L364.632845,293.107446L361.236439,293.363457L360.092283,294.053619L363.509329,295.794622L363.680616,296.817445L361.703329,297.296623L361.395715,298.184925L364.156569,299.929771L362.314428,300.403659L363.596886,301.786428L366.125241,303.595908L369.248296,305.663951L372.083322,307.714728L371.753024,308.735947L372.718409,310.224765L370.255980,310.468814L367.513915,310.555515L368.595683,312.100995L367.358399,312.734629L365.571691,313.116458L361.307450,312.390738L364.836062,315.042126L368.389094,317.803849L366.334922,318.025596L365.030927,318.569334L366.056407,320.248744L366.177951,321.506262L366.780770,323.031715L364.433132,323.003031L363.736795,323.833302L364.326731,325.384040L361.048948,324.730367L356.892655,323.479579L355.422351,323.753877L353.300461,323.596283L353.767076,325.036212L356.124660,327.734484L359.086277,330.921189L359.370664,332.393872L358.831499,333.320757L358.333027,334.278818L356.453210,334.236170L355.129547,334.566619L354.886407,335.695255L358.177906,339.581240L356.893062,339.969829L356.278383,340.880998L356.297760,342.319824L356.283923,343.756142L353.478929,342.806271L349.816160,341.022793L348.128373,340.908586L344.508773,338.978396L343.298220,339.198501L343.653180,340.900103L343.150837,341.803430L342.251103,342.317085L340.455529,341.906873L341.471770,344.384798L341.996851,346.415479L344.205053,350.335357L342.662964,350.223131L341.419662,350.414825L339.474690,349.771051L339.467063,351.365098L339.822676,353.438577L336.206624,350.663098L337.987198,354.554101L338.249566,356.627890L336.793429,356.497599L337.883162,359.764475L336.625295,359.913329L335.945693,360.854411L334.806416,361.147099L333.834229,361.670668L331.530665,360.183764L330.317776,360.281598L326.851899,356.802462L325.872316,357.147391L324.363049,356.607634L327.406702,363.724795L325.094917,361.876271L324.228144,362.477788L320.916663,358.630918L320.303367,359.602459L319.169231,359.602039L316.796118,357.142383L315.862781,357.433051L315.343084,358.573175L313.864332,357.711668L314.058523,360.438675L315.594193,366.315357L314.848424,367.228267L314.813777,369.864930L314.259533,371.360502L311.996575,368.600097L310.124188,366.659945L309.204575,367.136906L307.125277,364.394693L304.106288,358.739448L303.134204,358.761634L302.959970,361.224684L302.285391,362.248485L301.422268,362.702792L300.402302,362.630037L301.083390,368.636234L300.439689,370.170534L299.602528,371.060579L299.560372,375.253392L297.709353,372.086617L296.626729,372.029782L295.097504,369.836128L294.221777,370.631913L293.288439,371.192824L291.812342,368.771205L291.222308,371.274767L289.716071,368.288992L288.833034,369.083301L287.509154,366.746257L286.644037,367.640138L285.478313,366.064279L284.265190,363.692188L283.612849,366.736056L283.132263,372.590150L281.995018,371.095064L281.045354,372.081887L279.870419,369.091910L278.830595,367.828180L278.051549,374.148456L276.977124,372.412143L275.973025,374.087644L274.937823,369.979310L273.982989,366.381738L272.957694,369.523492L272.024919,367.715909L271.049332,367.788788L269.861504,371.815349L268.987554,369.557440L267.893934,370.886644L266.705226,372.989885L265.721043,372.459591L264.309426,376.056298L263.506990,373.744137L262.632637,372.364532L262.033204,369.181394L261.405616,366.626446L260.330466,367.209455L258.413892,372.653318L257.658266,371.000158L256.800436,370.046999L255.894426,369.413768L255.146141,368.085321L253.520775,370.777264L251.585320,374.514342L250.349449,375.054495L249.212559,375.141382L248.967643,371.879119L248.513024,369.605724L247.971319,367.786074L246.518161,369.092873L245.156313,369.992196L243.570546,371.493341L243.127193,369.482245L243.095778,366.403097L242.282112,365.670570L241.962021,363.638578L240.071813,365.792523L237.400969,369.761177L237.700436,366.207923L237.790227,363.336034L235.344958,366.451645L234.713483,365.304542L234.467290,363.357270L234.954752,359.935815L236.709098,354.057398L235.858139,353.702299L234.607463,354.127420L232.099888,356.909580L229.699616,359.331386L228.434916,359.549341L227.459860,359.220039L226.241305,359.303693L223.945327,361.177937L224.696536,357.917005L224.691954,355.999108L224.289992,354.769834L222.856571,355.157745L221.644670,355.170956L220.265251,355.404846L220.478084,353.316053L222.643278,348.550892L220.028473,350.536876L215.995638,354.318739L213.800644,355.494970L214.318391,353.102348L213.074857,353.002640L214.030527,350.168448L211.454538,351.688392L207.676874,354.536778L205.086090,355.864576L202.724702,356.847185L204.151627,353.557349L204.622363,351.410763L205.703166,348.673603L208.322868,344.416993L209.732271,341.540404L210.257989,339.636057L212.210963,336.386647L211.361806,335.926334L206.715681,339.017246L204.402906,339.809593L203.709398,339.083296L208.500343,333.529064L206.191200,334.294057L207.236461,332.167537L207.153930,331.031375L203.818682,332.542460L203.207651,331.803434L198.767398,334.028931L199.003980,332.582678L201.187730,329.720589L198.099950,330.771137L198.288708,329.417340L200.874216,326.424694L200.272514,325.691031L199.953740,324.767578L199.640851,323.846418L197.593744,324.029638L197.214485,323.135731L198.020574,321.528979L198.263080,320.291865L198.239059,319.228572L198.334930,318.110118L199.003895,316.692353L194.771438,317.927291L194.425826,317.032663L194.657634,315.846991L195.308061,314.471369L197.380979,312.437403L194.614567,312.739043L194.868065,311.600700L193.476631,311.209089L193.502971,310.180076L192.790734,309.470563L193.104780,308.334661L190.359678,308.422958L188.169407,308.240855L186.690730,307.750601L185.071937,307.283586L185.487539,306.079915L183.297073,305.768027L184.966002,304.162516L185.982105,302.806630L181.419423,303.159530L181.216544,302.152656L181.833237,300.919624L183.185985,299.510145L182.175433,298.741235L181.804544,297.798836L181.707613,296.789519L183.086802,295.454603L184.327834,294.183951L181.549474,293.751375L180.953489,292.848354L178.695096,292.233948L184.142456,290.278801L185.047875,289.159395L181.424710,288.726927L179.777056,287.951310L177.983823,287.161681L178.286514,286.096137L175.267222,285.385409L176.754771,284.191408L178.477027,283.011395L178.936881,281.960958L180.096447,280.878399L178.718650,279.952024L180.920211,278.851273L183.767230,277.777914L182.027092,276.856457L180.283954,275.898968L181.549861,274.908114L180.410725,273.916203L181.968524,272.959344L180.251442,271.928526L179.889726,270.919177L176.512910,269.740319L173.969804,268.542647L174.273275,267.501956L177.488600,266.713454L177.788881,265.712462L181.140627,265.039585L182.644948,264.219864L183.227280,263.312269L183.892636,262.425924L186.356754,261.818452L184.866332,260.630330L186.759991,259.982877L185.632376,258.826056L184.960790,257.728650L178.292520,255.397186L179.217276,254.537910L176.392002,252.851911L178.315211,252.217549L181.007259,251.810125L184.963125,251.783021L184.032948,250.524217L184.405477,249.603940L184.388839,248.572566L183.317694,247.214945L189.088308,247.978111L188.865731,246.913353L193.611450,247.514449L192.966957,246.336146L193.447787,245.542119L194.202300,244.854282L186.781735,241.028852L185.625510,239.504282L186.776208,238.886953L191.259862,239.693748L193.520782,239.637362L190.299512,237.180175L188.445611,235.259902L190.949431,235.338358L195.606978,236.514324L194.997504,235.178699L193.523678,233.374650L194.033230,232.559773L195.257319,232.130762L197.325942,232.188166L197.289529,231.100670L198.166831,230.528327L198.185864,229.458644L193.310605,225.404560L193.778888,224.517073L196.442243,225.024258L196.334462,223.790468L195.973850,222.369080L196.526861,221.542492L197.982162,221.344287L201.964503,222.973987L203.156706,222.680334L201.873739,220.564818L203.990233,220.975296L200.177067,216.826890L200.477708,215.797918L197.544865,212.133574L196.598034,209.991171L196.778399,208.745957L198.890302,209.153343L200.140724,208.851591L201.692552,208.842648L206.221713,211.610416L210.075413,213.892200L212.509961,214.936922L210.342951,211.537901L209.772472,209.622593L207.063002,205.465269L208.679560,205.682018L208.901425,204.449169L210.511074,204.705853L213.870224,206.950126L215.489066,207.339940L215.239826,205.604183L215.469089,204.387967L216.281468,203.852555L215.129592,200.889156L216.675590,201.235527L217.353997,200.502812L217.617497,199.216441L215.618577,194.845715L215.087876,192.333001L213.921249,188.838230L217.602501,192.206675L219.525195,193.162514L220.469872,192.713427L220.160725,190.334261L219.087762,186.663533L220.362378,186.642798L221.958778,187.181279L222.218825,185.506949L222.691938,184.147683L226.774092,189.171235L229.504341,192.006629L229.992080,190.816371L229.725203,188.141248L229.519446,185.471016L230.832009,185.751941L232.907251,187.655700L235.597636,190.999888L235.726856,188.942312L238.184796,192.038506L238.780154,191.018435L237.771088,186.130427L239.087184,186.687774L239.916790,186.069716L241.002890,186.106462L241.606236,184.865650L241.493404,181.568621L242.292833,180.700933L243.082982,179.768784L243.469286,177.545381L245.791194,181.385210L247.659885,184.034199L248.361892,182.880445L249.136058,181.914928L250.459736,182.951781L251.751868,183.978795L253.006427,184.968070L254.481499,187.018974L255.245740,186.096030L256.184451,185.924534L256.244399,181.368901L257.521776,182.738273L258.641075,183.411236L259.143129,180.515027L260.292464,181.365319L261.581308,183.316119L262.736595,184.612371L263.786580,185.309481L264.233588,180.887279L265.634261,184.771455L266.402259,182.773574L267.582879,185.279291L268.578699,185.978456L269.512612,185.934771L270.527964,187.490368L271.338677,184.835330L272.279408,184.674036L273.225690,184.653615L274.176677,185.142400L275.119669,183.781199L276.064640,184.673675Z" />
<line x1="50" y1="625" x2="100" y2="625" fill="none" stroke="green" stroke-width="1.0" stroke-linejoin="round" stroke-miterlimit="10" />
<text x="125" y="628" style="text-anchor:start;fill:black">n0_4mer:PS</text>
<path style="stroke:red;stroke-width:1.0" d="M277.616035,150.122328L278.878244,151.607805L280.085369,153.684588L281.408703,152.734167L282.706421,152.530515L283.865413,154.297063L285.495010,150.040601L287.020611,147.858425L288.504234,146.539635L289.736228,147.662456L290.335298,153.631720L291.356160,155.620084L292.711717,155.079766L294.103335,154.409894L295.568883,153.413442L297.075162,152.335779L298.179250,153.514418L299.027485,155.860937L299.870912,158.015257L301.586883,156.081358L302.868018,156.208453L303.583732,158.651881L306.014883,154.230055L306.496407,157.478326L308.886809,153.656549L309.117142,157.592803L309.679659,160.159802L310.767401,160.890443L313.001366,158.068929L313.053694,161.950155L314.197583,162.464330L315.737838,161.871036L317.181693,161.601792L317.932495,163.181781L319.530706,162.553327L321.540765,160.980905L321.499166,164.407819L323.728685,162.420236L325.147094,162.393549L326.931527,161.597837L327.905956,162.595205L328.404623,164.553048L329.967231,164.295301L329.594736,167.877213L330.448915,168.961361L332.728247,167.363213L333.830137,168.014366L334.731331,169.019920L336.490810,168.521088L339.702438,165.621393L339.972188,167.745110L341.087939,168.438074L340.664872,171.555173L340.364831,174.372958L341.620394,174.754361L343.174702,174.710350L343.326475,176.717189L343.586974,178.514632L346.387228,176.770526L346.389740,178.899942L347.583852,179.400754L348.174019,180.690995L350.237349,180.100917L351.057053,181.104202L351.440571,182.625929L353.396073,182.257899L355.902575,181.301194L358.105513,180.763523L358.416063,182.385156L360.071689,182.513625L360.808351,183.651788L360.995892,185.352547L358.660447,189.596019L358.376060,191.650898L361.032584,190.778285L361.882126,191.710731L362.242959,193.101030L363.602021,193.554135L363.239025,195.576806L364.732380,195.918144L363.561849,198.582818L365.484238,198.562684L368.297485,197.846112L369.544688,198.467959L370.316882,199.481600L369.997928,201.340653L370.475052,202.559105L368.208611,205.804992L371.471589,204.937961L377.400782,202.257870L378.677165,202.973077L376.934371,205.755440L378.233070,206.442363L377.202896,208.658521L378.955184,209.058318L380.788969,209.438797L381.734129,210.390449L380.536781,212.616241L381.846633,213.342902L378.973871,216.443684L378.620340,218.064033L380.463529,218.481234L386.361475,216.813561L385.547091,218.705108L388.891125,218.496546L391.604627,218.664463L390.643754,220.615228L389.767344,222.488192L386.620688,225.335146L386.355003,226.844189L385.030463,228.778880L389.591942,228.268635L392.358824,228.567902L392.571915,229.902001L396.780591,229.745068L395.569191,231.626972L393.113788,233.902315L387.300829,237.238859L390.797421,237.408456L391.811277,238.427233L389.015878,240.609501L391.899033,241.071517L397.552108,240.818376L400.007260,241.540744L400.657575,242.773239L400.980724,244.092981L400.831321,245.523408L399.218612,247.270367L402.652583,247.904254L404.224051,248.982102L402.327259,250.748841L401.692513,252.242186L406.218970,252.845242L408.831501,253.843387L410.726682,254.998585L411.808706,256.301005L407.660084,258.281528L401.621117,260.388175L404.501665,261.428642L404.921203,262.758979L406.381429,264.008407L407.459868,265.314128L400.362475,267.152237L398.100865,268.587446L398.778592,269.851477L400.307846,271.102109L402.774059,272.364628L405.829675,273.672274L406.639608,275.042916L408.300030,276.439720L405.165933,277.769612L409.807625,279.281379L410.696766,280.732887L404.675318,281.839812L394.337621,282.548722L391.448421,283.591402L394.699717,285.092878L397.985788,286.668481L393.763114,287.524284L394.860549,288.910866L396.171687,290.350916L394.466349,291.408001L393.699671,292.571306L393.013326,293.734891L398.232134,295.888926L396.995712,296.996246L391.752021,297.315861L392.147775,298.665957L392.218283,299.960828L391.739393,301.139949L392.564403,302.620900L394.016032,304.280646L393.695339,305.523687L394.018072,306.939375L395.075319,308.575207L394.761560,309.843976L396.659567,311.782616L402.214251,314.920959L410.447919,319.068365L409.891093,320.455031L415.175973,323.876706L413.087008,324.776521L404.712468,323.298778L398.590854,322.499195L398.574782,323.984603L395.466856,324.218828L393.321732,324.794867L393.055898,326.145030L393.804631,327.954125L394.401904,329.726530L390.894724,329.595104L390.803168,331.041485L394.608556,334.437189L397.419373,337.441274L398.544598,339.654708L395.635450,339.750804L395.823474,341.491123L397.535352,344.115101L394.036419,343.794854L391.601343,344.026753L388.481205,343.794914L381.166168,340.890814L377.112925,339.866493L378.202135,342.085783L380.413410,345.104700L380.886630,347.030294L380.348272,348.289766L378.844838,348.869862L376.841206,349.063171L375.737582,349.886198L375.661044,351.479191L380.314206,356.768372L378.042267,356.748543L377.300377,357.920584L377.324471,359.731306L378.129581,362.234866L373.604510,360.194895L369.128091,358.064935L366.113042,357.117672L363.531851,356.487927L360.310009,355.189127L363.181707,359.645513L360.696371,359.002072L362.377273,362.463001L360.559853,362.456970L360.376435,364.117933L360.732920,366.387244L362.054243,369.765659L359.502264,368.943931L357.115040,368.235816L357.097290,370.207913L356.449299,371.481575L357.402227,374.710685L354.930172,373.808986L355.707818,376.935602L354.555303,377.671559L352.145696,376.745268L352.948587,380.072183L352.823619,382.232958L352.004662,383.476737L351.463245,385.140135L349.173321,384.267197L346.342223,382.502700L346.935494,385.900587L344.632923,384.854115L343.258919,385.222859L343.215923,387.775451L342.749756,389.700657L340.178970,388.035536L338.184701,387.278412L334.247284,382.910820L331.728374,380.938260L332.320604,384.792268L330.102773,383.294102L331.140164,388.252326L328.147939,385.099216L324.597516,380.554195L325.136473,384.671169L325.377977,388.323671L325.153165,391.078354L324.675823,393.363385L324.295907,395.994266L322.483677,395.132116L320.051069,392.565093L318.784970,392.943625L316.740160,391.149934L316.013226,392.995977L313.870156,390.724891L312.262854,389.913494L310.773673,389.390841L309.344117,388.997594L307.795583,388.134553L309.566200,399.088502L310.113422,406.360219L308.821859,407.057463L307.368843,407.126921L303.738668,397.863035L302.178042,396.936127L300.158082,393.715991L299.298311,395.888616L298.082724,396.409623L296.661255,395.816126L295.996488,399.608162L294.534953,398.837133L293.522169,400.975751L291.595498,396.716854L290.571110,398.883992L289.106725,397.597862L287.501697,394.674051L286.269928,395.036796L285.132621,396.595181L283.845584,396.517477L282.653927,397.913849L281.212806,395.025568L280.165481,400.176970L278.961011,403.697957L277.654502,405.786307L276.269716,404.301004L274.921074,395.564661L273.671007,394.414273L272.384637,396.046161L271.221224,392.762375L269.715313,399.120708L268.203942,403.045780L267.059200,399.884560L265.571801,402.220661L264.181835,402.799839L263.171789,399.235145L261.571397,401.938453L260.297942,401.315218L259.182039,399.530053L258.227249,396.825088L257.639046,392.013206L255.915696,394.959722L254.422335,396.154240L253.047411,396.524871L251.656667,396.910269L250.425485,396.439564L248.951892,397.127214L247.329399,398.385016L245.835166,398.952974L243.607343,402.420133L241.675500,404.410339L240.885061,401.958356L240.079803,399.727355L239.628516,396.425872L238.931448,394.156411L237.099737,395.636207L234.733236,398.625267L234.647764,394.618265L234.338806,391.491136L232.607119,392.482726L232.425499,389.224397L228.968696,394.654026L226.752384,396.598901L227.393286,391.411804L228.452142,385.504656L224.756349,390.870878L223.894739,389.555380L223.918150,386.353344L223.828338,383.534896L224.441587,379.385541L221.146529,383.282841L220.921272,380.938139L219.022747,381.877888L214.862005,386.953145L214.039206,385.687977L213.460264,384.021115L212.503488,383.056353L210.044609,384.641708L210.954789,380.568020L211.062798,377.942902L210.431416,376.570192L206.932758,379.636705L204.736574,380.576819L201.661533,382.733536L202.774364,378.745927L204.970161,373.378145L202.743861,374.287819L196.950788,379.920464L193.776098,381.833078L193.561878,379.817729L193.222401,378.009348L195.981658,372.420657L193.669640,373.151690L189.278042,376.273496L186.469266,377.397367L183.786208,378.293826L186.169650,373.495937L187.450273,370.054931L187.480712,368.046983L190.181062,363.304272L190.169375,361.484764L189.820207,360.040391L190.839390,357.280887L188.135673,358.162716L183.483170,360.797962L179.551470,362.623726L177.409792,362.724076L181.006727,357.727318L182.479772,354.726716L182.263708,353.235369L182.866621,351.089300L179.786407,351.969976L178.634167,351.246430L172.900734,354.058177L173.869572,351.627183L176.149787,348.282422L171.874035,349.791269L176.330910,344.993729L175.914144,343.740722L174.886414,342.911570L176.066470,340.608628L172.572062,341.391911L171.105889,340.807221L170.107092,339.910501L168.957088,339.095937L170.878813,336.454678L169.263851,335.923678L169.425889,334.366180L167.408269,334.026084L166.809552,332.888646L165.839404,331.945177L166.254076,330.287689L166.926688,328.528646L164.980711,328.064782L164.193253,327.021124L164.349937,325.540022L165.266528,323.738774L164.464250,322.715311L161.306792,322.671863L163.081286,320.555435L163.486645,319.034641L158.025970,319.780493L157.766109,318.477660L154.569513,318.233756L154.400531,316.873737L151.889124,316.305974L157.260253,313.136563L158.916635,311.261105L151.376936,312.199679L148.241850,311.699655L154.412072,308.548377L155.626817,306.867183L157.072882,305.161577L155.750685,304.172512L154.887622,303.053638L156.364429,301.401469L156.026405,300.171823L156.465922,298.784531L156.139841,297.557543L154.868574,296.497749L155.998058,295.011624L154.040277,294.040312L153.304951,292.851925L152.305813,291.687684L148.582067,290.847405L148.146796,289.554128L141.794609,288.870992L140.733889,287.561369L142.926374,285.962095L143.411926,284.535179L146.564479,282.955395L146.727300,281.597431L148.393761,280.182784L156.830179,278.598111L152.799205,277.440072L153.575794,276.152460L153.153337,274.880193L151.601311,273.586106L155.985392,272.389401L154.297917,271.087187L155.680389,269.880446L150.103002,268.329903L146.426224,266.782197L147.366547,265.499034L151.205313,264.479893L153.159745,263.359398L157.650580,262.546807L159.582470,261.527899L158.956124,260.221212L159.515113,259.061488L158.443213,257.667615L155.344001,255.923696L159.098322,255.275277L157.943340,253.814835L156.669859,252.301874L151.956287,250.058775L153.085275,248.955323L148.120139,246.501841L151.417444,245.879457L152.831475,244.858600L155.001059,244.056979L152.743859,242.105510L154.976520,241.354219L152.399487,239.242629L152.285528,237.810399L157.212655,237.952231L159.222525,237.247301L159.660883,236.049077L163.217530,235.941150L160.865274,233.772827L162.685399,233.095289L156.766512,229.470571L154.450555,227.122925L155.587609,226.120382L164.496414,228.409829L162.893409,226.344836L160.757606,223.989346L160.434861,222.399203L163.492547,222.382050L164.626601,221.496622L165.587145,220.539670L167.422152,220.039669L170.254183,220.095546L170.141149,218.628444L169.573970,216.892032L167.471744,214.256341L169.002865,213.647983L169.910367,212.694744L168.436376,210.302865L169.559332,209.463425L172.434494,209.751354L174.269164,209.426445L172.525291,206.752487L171.867048,204.743723L171.448911,202.859471L175.474872,204.104397L176.441397,203.224989L176.145407,201.412649L179.152744,202.078769L179.799834,200.984059L180.465401,199.899719L176.777798,195.277993L176.494550,193.321895L177.420274,192.349539L179.786507,192.625606L180.255187,191.279999L182.387170,191.420230L183.863957,191.004366L186.975774,192.150543L190.738216,194.010739L188.576189,190.173418L189.125750,188.928429L189.400497,187.387379L191.241164,187.455444L189.078988,183.291536L190.080800,182.436469L192.365888,183.011428L194.379541,183.339783L192.809075,179.556731L196.655726,182.072672L198.149515,181.882625L197.784681,179.418682L200.892883,181.274706L201.259469,179.703503L200.713816,176.892194L199.005421,172.420929L198.438831,169.360580L197.151039,165.181052L201.354862,168.770184L202.345881,167.819263L203.434078,167.006225L202.184333,162.580711L201.949057,159.585870L204.197688,160.502078L206.578714,161.716979L207.874922,161.186162L208.388617,159.304671L212.891654,164.464338L216.380523,168.066106L217.594795,167.628263L214.046127,158.061267L216.113771,159.081792L218.447855,160.727899L221.786968,164.580625L223.264558,164.707561L223.903160,163.033516L225.053636,162.447997L227.317958,164.441484L227.962317,162.715795L229.010040,161.907344L230.469176,162.121539L231.946339,162.425952L232.556298,160.438628L232.024819,155.165971L233.540458,155.466683L234.210610,153.296174L232.872414,144.792741L233.877362,143.201146L234.868832,141.475916L237.831401,146.464041L241.828265,155.613970L243.589844,157.183466L244.838953,156.913319L246.194741,157.084050L247.680448,157.856833L248.691126,156.597014L249.715643,155.300285L249.587340,148.135751L250.828382,147.406074L252.308708,147.958192L253.736454,148.298737L255.401437,150.226878L256.870436,151.128851L258.279955,151.764627L259.440375,150.546370L260.463859,147.934848L262.376023,153.381938L263.604660,152.764241L264.975297,153.736847L266.265957,153.915811L267.635353,155.465172L268.879090,155.224905L270.045581,152.991243L271.362134,154.219778L272.654376,155.562747L273.888292,153.668096L275.162291,151.292117L276.465459,150.667352Z" />
<line x1="50" y1="600" x2="100" y2="600" fill="none" stroke="red" stroke-width="1.0" stroke-linejoin="round" stroke-miterlimit="10" />
<text x="125" y="603" style="text-anchor:start;fill:black">n0_4mer:D</text>
<path style="stroke:black;stroke-width:1.0" d="M278.484147,108.682571L280.219677,108.928113L281.956205,109.054347L283.703750,108.949042L285.414222,109.498481L287.094912,110.327313L288.851461,110.076839L290.549861,110.529671L292.372306,109.744216L294.016008,110.680359L295.598135,111.980005L297.112714,113.604293L298.414714,116.466643L300.224520,115.769820L301.782475,116.683729L303.461349,116.849893L305.282602,116.284789L306.916133,116.745477L308.566737,117.112903L310.791410,114.911064L312.497622,115.160842L314.244282,115.258845L316.363039,113.935005L317.361672,116.937064L319.031708,117.329225L320.457468,118.567379L321.620005,120.619859L323.369033,120.687170L324.777859,121.832392L326.526968,121.923778L328.472878,121.480171L330.005903,122.248623L331.485120,123.149496L332.817081,124.414689L333.760523,126.620917L335.075193,127.823236L336.870234,127.849745L338.636520,127.978088L340.528941,127.853258L342.389277,127.842960L344.028054,128.341951L345.952191,128.262642L347.407387,129.170604L348.732146,130.326842L350.237611,131.118125L351.102357,133.103898L352.536208,133.996413L353.971994,134.881605L355.110157,136.279394L356.596909,137.061515L357.972424,138.030652L359.554033,138.662859L360.930487,139.629837L362.500269,140.296167L364.286927,140.647372L365.422164,141.982811L366.796151,142.957716L368.116177,144.007945L369.512475,144.949975L370.638325,146.258130L371.686687,147.655223L373.153135,148.497114L374.177606,149.904367L375.836512,150.512863L377.812320,150.757174L379.051502,151.907675L380.792589,152.474364L382.276837,153.354746L383.503229,154.531480L385.131452,155.269701L386.405141,156.402447L387.892192,157.314176L388.917427,158.708465L390.244151,159.793112L391.060364,161.382549L391.973287,162.863936L392.968202,164.257833L392.934351,166.590901L394.462908,167.472455L395.938998,168.415505L397.891119,168.961191L400.561240,168.931093L402.619088,169.463299L404.485118,170.184376L405.634645,171.499769L405.516105,173.800623L405.124806,176.268895L406.141737,177.644687L407.265510,178.942793L409.762550,179.269140L411.640808,180.072473L412.617240,181.515877L414.005411,182.685759L414.912252,184.180795L415.697463,185.751662L416.178223,187.506812L416.926459,189.087416L417.495660,190.769508L419.052238,191.872973L420.372507,193.128676L420.619442,194.986909L421.758041,196.351168L422.695639,197.828938L423.183898,199.538977L424.425308,200.867392L424.844618,202.605128L425.176080,204.375417L426.089452,205.869008L427.125055,207.313008L427.768290,208.934886L428.036942,210.712904L429.222808,212.106901L429.501095,213.872853L431.008290,215.158653L432.856960,216.338714L432.745141,218.253460L432.929404,220.048474L432.654979,221.988532L434.842489,223.110020L436.629915,224.394841L437.330620,226.036372L437.366322,227.875205L435.478737,230.240070L435.576455,232.020347L435.339674,233.878497L436.162254,235.461850L435.946761,237.297447L436.357230,238.979820L437.545004,240.497931L438.093552,242.162835L438.735561,243.814398L438.794820,245.577487L439.932248,247.153157L441.536128,248.673310L442.445873,250.324274L443.772758,251.932163L443.198888,253.802754L441.735096,255.759102L441.902612,257.509143L441.927298,259.272308L441.783880,261.046578L442.294927,262.766882L443.786365,264.433877L442.776644,266.260202L443.283667,268.000305L443.347750,269.763288L441.955991,271.556491L441.795386,273.307276L442.466549,275.054596L444.894454,276.834961L444.990903,278.616990L446.842974,280.457592L446.114393,282.229204L443.395120,283.882114L443.080749,285.631976L439.244803,287.117752L439.881228,288.902507L440.373745,290.690108L437.800839,292.168327L438.617963,293.989297L436.599340,295.472587L435.372837,297.026266L435.145705,298.706630L434.444127,300.312128L435.156322,302.147898L434.875493,303.826101L435.141925,305.609363L434.297871,307.181034L433.426291,308.735790L432.917859,310.360512L432.575342,312.021178L433.793503,314.066807L434.247357,315.952042L432.759222,317.335847L434.245544,319.527902L435.775064,321.776632L435.587439,323.552088L438.302595,326.245800L439.076478,328.382748L438.851911,330.214125L439.799204,332.462361L438.823720,334.053889L436.391980,335.094727L434.119979,336.153966L432.436386,337.407222L431.253318,338.840009L431.417249,340.827097L431.568075,342.829554L430.129667,344.145080L429.624228,345.870289L427.753810,346.958496L426.654146,348.391115L425.989085,350.031144L424.604691,351.307427L424.483983,353.229590L423.414075,354.660919L422.943956,356.415966L422.823536,358.378702L421.779761,359.828596L421.388835,361.660631L420.270004,363.066014L418.118096,363.824604L416.472885,364.869622L414.276516,365.535667L413.091594,366.837175L412.752654,368.707432L412.061218,370.352154L411.431905,372.050622L409.690062,372.952229L408.024643,373.887720L407.618679,375.759627L407.158402,377.610824L407.281043,379.945115L406.718458,381.765701L405.939611,383.426500L404.405434,384.460987L402.457226,385.123817L400.500043,385.749648L398.710977,386.497292L397.536372,387.786922L395.956631,388.695999L395.489680,390.657896L393.905635,391.554757L392.563458,392.678803L391.420612,394.002004L390.626167,395.693315L389.389900,396.934230L387.785107,397.775809L386.894275,399.396526L385.015084,399.914342L383.170040,400.444381L382.027621,401.780631L380.781456,403.000684L379.159790,403.761430L378.744426,406.031302L377.657290,407.486252L375.712613,407.827004L374.606353,409.266153L373.708595,411.010310L371.772053,411.323128L370.795181,412.986481L369.751903,414.582192L367.268555,414.035740L366.956984,416.767059L365.333215,417.511258L364.217359,419.066043L363.240562,420.880443L360.601486,419.923722L358.897762,420.498288L356.731580,420.235981L354.802783,420.349849L353.470766,421.541419L352.504383,423.452412L350.497363,423.375820L349.272280,424.830493L347.497799,425.183638L345.250918,424.509082L343.753878,425.395864L342.388156,426.587533L341.119034,428.030992L339.648027,429.037897L338.634863,431.188494L336.637014,430.939585L334.794548,431.039620L333.309195,432.067548L331.491759,432.199064L329.571268,432.002768L327.880045,432.435373L326.205033,432.909250L324.208727,432.351123L322.557936,432.857903L320.891486,433.311343L320.143304,437.059033L318.811462,438.899811L317.269175,440.040009L315.487661,440.267260L313.071069,437.760744L311.127614,437.088985L309.368306,437.177205L307.680098,437.589564L305.846922,437.247450L304.342209,438.656816L302.773946,439.830440L301.158976,440.828536L299.489762,441.563435L297.652637,441.141908L295.870692,441.047554L294.048913,440.549127L292.307416,440.677394L290.635439,441.534159L288.864353,441.377330L287.132759,441.675510L285.328065,440.857641L283.542488,440.032840L281.901095,442.236720L280.192541,443.711836L278.439126,444.444412L276.657183,443.758584L274.891082,441.378887L273.172091,439.243485L271.448939,439.352816L269.729310,439.256626L267.974613,440.004277L266.232833,440.183806L264.599174,438.573278L262.865231,438.742117L261.146648,438.655864L259.378775,439.074270L257.459900,440.803779L255.738691,440.486792L253.974937,440.524010L252.278203,440.034635L250.703164,438.761201L248.849811,439.374321L247.207047,438.635381L245.483547,438.396814L243.625634,438.852242L241.913650,438.502387L240.281178,437.780076L238.315503,438.578566L236.532615,438.489591L234.520289,439.303715L232.327725,440.710922L230.912346,439.071702L229.263691,438.360156L228.107600,435.975731L227.007245,433.549322L225.191860,433.538876L223.433394,433.317550L221.786001,432.745067L220.272659,431.789546L218.459476,431.689868L216.699157,431.417070L214.422163,432.466363L212.361228,432.869060L211.264805,430.850475L210.179469,428.883996L209.108381,426.957900L207.698659,425.859824L206.117036,425.157999L204.548063,424.428284L203.199350,423.243374L201.683993,422.416043L200.183771,421.562103L198.252567,421.534585L196.804801,420.568511L194.681310,420.836574L192.549836,421.065117L190.924331,420.366674L188.985821,420.187973L188.539764,417.515511L187.935661,415.179044L187.015458,413.404875L186.047822,411.742177L184.516572,410.959105L182.851279,410.365627L181.074233,409.916301L179.456028,409.220481L177.209486,409.374836L174.501623,410.098563L172.819730,409.396803L170.543272,409.444617L169.785999,407.530494L169.167547,405.479416L167.415866,404.835459L166.546487,403.128973L164.392778,402.931711L162.818917,402.037952L162.566182,399.667687L161.537606,398.188963L161.144344,396.046749L161.034557,393.648449L159.911892,392.332246L159.007769,390.802403L157.238050,390.131743L154.729236,390.145581L152.316800,390.016752L150.649170,389.156636L150.343571,387.053968L149.570905,385.395269L149.368551,383.259384L148.098206,382.058503L146.550070,381.081697L145.630740,379.581169L144.816966,378.003225L143.102752,377.131547L141.482264,376.167256L140.450051,374.748355L138.785215,373.788667L139.256870,371.293255L139.169929,369.231987L138.252471,367.762029L136.850797,366.614841L134.797294,365.876822L133.779215,364.450185L133.466643,362.584579L134.044211,360.198466L134.656073,357.834159L134.901045,355.723042L134.749744,353.865187L134.402706,352.133322L134.208784,350.332093L134.003850,348.552645L133.363780,347.009498L132.561310,345.549797L131.447339,344.238684L129.847322,343.145719L127.833803,342.218966L125.686814,341.318339L123.691916,340.315631L121.770960,339.249342L122.125379,337.226143L121.354104,335.672033L120.983910,333.961091L121.253910,332.018667L120.488637,330.468567L121.829344,328.182885L120.735507,326.758588L117.811312,325.914296L115.508652,324.820510L113.044258,323.734446L112.590732,322.021546L113.961937,319.801878L114.117524,317.948266L114.269983,316.109042L114.673981,314.221297L114.381537,312.514304L114.656388,310.683285L114.377053,308.983779L112.914510,307.523367L112.140588,305.907818L110.952062,304.356694L110.567280,302.651361L110.793010,300.847879L110.778671,299.090272L111.241446,297.272865L110.173639,295.662179L108.997499,294.045808L107.886979,292.401873L106.929705,290.723945L107.484379,288.903776L107.397816,287.144845L107.529357,285.373260L107.292559,283.625672L107.361306,281.862499L109.960224,280.025237L111.579019,278.263145L111.741320,276.549519L111.609030,274.839344L110.182090,273.111528L108.836070,271.355176L108.783400,269.611738L108.336861,267.849113L108.096323,266.086546L108.872548,264.381950L109.504023,262.680568L111.336241,261.091808L111.938909,259.421165L112.210480,257.724676L112.785286,256.065501L111.628350,254.193775L111.260795,252.401725L111.333352,250.662221L112.004650,249.014267L112.150196,247.285411L113.458152,245.763811L114.006509,244.118177L113.615905,242.287097L114.138551,240.635124L113.726661,238.776810L113.555166,236.957729L114.229503,235.334727L114.811147,233.693577L115.071494,231.969306L115.037430,230.158227L115.563882,228.499244L115.413608,226.636069L116.572906,225.169770L117.341229,223.590656L117.106608,221.678165L118.724125,220.394335L119.081233,218.679805L118.379553,216.564725L117.821882,214.473747L118.836254,212.978451L119.101060,211.185176L121.252509,210.177471L123.040826,209.048493L123.043603,207.149573L123.808047,205.582572L122.700535,203.133184L123.574116,201.596477L124.955605,200.315291L125.835144,198.793328L128.701025,198.314691L130.448206,197.289730L130.208052,195.194605L131.334880,193.842308L132.365921,192.442217L132.474945,190.500133L133.773891,189.258503L134.573514,187.718013L134.493344,185.614499L135.594430,184.250045L138.186200,183.882867L139.551011,182.729377L141.755808,182.173294L143.040850,181.000387L142.708781,178.659312L142.772434,176.569811L143.890238,175.250819L144.093417,173.223141L144.452034,171.289940L145.487211,169.881002L146.248878,168.242987L147.545823,167.045747L148.626798,165.667640L149.938133,164.490735L151.121026,163.203653L153.604140,163.115373L155.811369,162.818231L156.361969,160.969583L157.482531,159.654412L158.176146,157.907710L158.509106,155.769489L160.369286,155.188223L162.057848,154.450312L162.811145,152.712030L164.390545,151.869180L166.057825,151.139836L167.206112,149.825583L167.475546,147.460874L168.865031,146.399513L169.746443,144.711428L171.008303,143.478861L173.921695,144.374301L175.167116,143.153340L176.925646,142.617187L177.422573,140.362258L178.201889,138.450114L179.751381,137.608129L180.908045,136.193760L182.809035,135.882804L184.339165,135.029757L185.803497,134.077292L187.166060,132.959389L188.367758,131.565659L189.919294,130.741521L192.170976,131.136734L193.866058,130.604043L195.334832,129.674469L196.336746,127.866823L196.905563,125.177453L198.229953,123.877295L200.199626,123.854610L202.818020,125.219226L204.879217,125.512687L206.952246,125.889647L208.989346,126.247803L210.110364,124.542898L211.612522,123.687008L213.210266,123.054550L214.121546,120.682931L216.018075,120.777715L217.753897,120.484917L218.725518,118.081569L220.544225,117.996833L221.516292,115.419975L221.874519,110.800624L223.593529,110.241261L225.455168,110.154851L227.625513,111.170173L230.394958,114.465168L232.474959,115.492577L234.138687,115.019583L235.985663,115.292611L237.635020,114.783163L239.157899,113.692764L240.485089,111.601539L241.579639,108.159965L243.119526,106.713594L244.965234,106.844261L246.992989,108.117032L249.147889,110.414020L250.925678,110.510998L252.673383,110.441300L254.235346,108.913954L255.875182,107.823717L257.700803,108.341355L259.446170,108.156858L261.275902,108.987365L263.084723,109.812852L264.850137,110.258618L266.594056,110.510933L268.334110,110.844124L270.044431,110.470913L271.773796,110.724350L273.490239,110.224471L275.216324,110.105168L276.942680,110.178990Z" />
<line x1="50" y1="550" x2="100" y2="550" fill="none" stroke="black" stroke-width="1.0" stroke-linejoin="round" stroke-miterlimit="10" />
<text x="125" y="553" style="text-anchor:start;fill:black">GC-content</text>
</g>
<g style="fill:pink;stroke:black">
<a href="" title="OZ242164:1 [262500-288099];"><path  d="M500.593508,230.194093L501.341120,234.138067L502.019786,238.094488L502.629300,242.062150L503.169475,246.039846L503.640148,250.026363L504.041175,254.020487L504.372434,258.021002L484.427005,259.497437L484.427005,259.497437L484.124551,255.844793L483.758396,252.197984L483.328651,248.558120L482.835447,244.926311L482.278935,241.303663L481.659283,237.691278L480.976681,234.090259Z" />
</a><a href="" title="OZ242164:2 [298500-320599];"><path  d="M504.993485,273.268807L504.988669,277.283010L504.913797,281.296518L504.768890,285.308108L504.553994,289.316558L504.269173,293.320648L503.914515,297.319156L484.008905,295.378360L484.008905,295.378360L484.332724,291.727548L484.592777,288.071640L484.788987,284.411751L484.921293,280.748995L484.989654,277.084488L484.994051,273.419345Z" />
</a><a href="" title="OZ242164:3 [352000-402099];"><path  d="M496.503525,336.936973L495.388839,340.793309L494.207021,344.629604L492.958431,348.444689L491.643448,352.237402L490.262474,356.006588L488.815929,359.751098L487.304253,363.469793L485.727907,367.161539L484.087371,370.825211L482.383146,374.459694L480.615749,378.063881L478.785720,381.636674L476.893616,385.176983L474.940013,388.683732L472.925507,392.155852L455.714593,381.968387L455.714593,381.968387L457.553925,378.798190L459.337650,375.596376L461.065223,372.363919L462.736119,369.101804L464.349829,365.811025L465.905861,362.492584L467.403741,359.147492L468.843013,355.776767L470.223239,352.381438L471.543998,348.962537L472.804888,345.521106L474.005524,342.058194L475.145541,338.574856L476.224592,335.072152L477.242349,331.551149Z" />
</a><a href="" title="OZ242164:4 [420500-438099];"><path  d="M460.656827,410.762817L458.259163,413.982298L455.805676,417.159444L453.297114,420.293287L450.734241,423.382871L448.117838,426.427257L433.064113,413.259670L433.064113,413.259670L435.453003,410.480013L437.793017,407.659088L440.083443,404.797753L442.323583,401.896881L444.512755,398.957355Z" />
</a><a href="" title="OZ242164:5 [474500-492599];"><path  d="M415.397684,457.177085L412.196872,459.599616L408.954269,461.965916L405.670862,464.275265L402.347651,466.526958L398.985650,468.720311L388.204289,451.875066L388.204289,451.875066L391.273943,449.872440L394.308178,447.816546L397.306072,445.708010L400.266710,443.547475L403.189190,441.335599Z" />
</a><a href="" title="OZ242164:6 [544500-565599];"><path  d="M340.769202,495.396035L336.912744,496.510298L333.037426,497.557087L329.144430,498.536084L325.234941,499.446989L321.310150,500.289525L317.371252,501.063436L313.686796,481.405746L313.686796,481.405746L317.283181,480.699131L320.866685,479.929859L324.436219,479.098163L327.990694,478.204297L331.529027,477.248533L335.050141,476.231162Z" />
</a><a href="" title="OZ242164:7 [638000-660099];"><path  d="M229.381252,500.430543L225.453894,499.600052L221.541629,498.701146L217.645648,497.734098L213.767137,496.699203L209.907278,495.596776L206.067248,494.427153L212.061400,475.346531L212.061400,475.346531L215.567515,476.414448L219.091734,477.421011L222.632983,478.365915L226.190183,479.248872L229.762251,480.069613L233.348099,480.827887Z" />
</a><a href="" title="OZ242164:8 [714000-736599];"><path  d="M145.572079,465.127361L142.273611,462.839575L139.015574,460.494571L135.798958,458.093064L132.624744,455.635784L129.493900,453.123482L126.407378,450.556921L139.328475,435.291102L139.328475,435.291102L142.146604,437.634483L145.005201,439.928325L147.903396,442.171928L150.840306,444.364608L153.815036,446.505698L156.826681,448.594547Z" />
</a><a href="" title="OZ242164:9 [873500-891599];"><path  d="M47.180163,306.593066L46.663486,302.612250L46.216362,298.623023L45.838929,294.626600L45.531300,290.624198L45.293569,286.617038L65.268041,285.606861L65.268041,285.606861L65.485100,289.265573L65.765978,292.919939L66.110592,296.568847L66.518835,300.211185L66.990584,303.845843Z" />
</a><a href="" title="OZ242164:10 [1072000-1106599];"><path  d="M132.347775,94.582865L135.518215,92.120719L138.731142,89.714279L141.985578,87.364280L145.280532,85.071436L148.614999,82.836446L151.987965,80.659991L155.398401,78.542734L158.845269,76.485319L162.327518,74.488375L165.844089,72.552508L175.335908,90.156637L175.335908,90.156637L172.125126,91.924168L168.945680,93.747466L165.798540,95.625974L162.684663,97.559122L159.604999,99.546320L156.560485,101.586963L153.552050,103.680429L150.580608,105.826081L147.647066,108.023265L144.752316,110.271311Z" />
</a><a href="" title="OZ242164:11 [1133500-1151099];"><path  d="M196.792511,58.704858L200.579293,57.372892L204.388744,56.107217L208.219704,54.908219L212.071006,53.776263L215.941477,52.711694L221.077001,72.041112L221.077001,72.041112L217.543093,73.013110L214.026687,74.046635L210.528853,75.141372L207.050658,76.296988L203.593162,77.513131Z" />
</a></g>
<text x="275" y="280" style="text-anchor:middle" font-size="25" font-weight="bold">OZ242164</text>
<path  style="fill:pink;stroke:black" d="M350,550L375,550L375,565L350,565Z" />
<text x="405" y="565" style="text-anchor:start;fill:black">Selected loci;</text>
</svg>