<svg xmlns="http://www.w3.org/2000/svg" viewbox="0 0 550 650">
<circle cx="275" cy="275" r="240" fill="none" stroke="black" stroke-width="1.0" />
<line x1="275" y1="15" x2="275" y2="55" fill="none" stroke="grey" stroke-width="1.0" stroke-linejoin="round" stroke-miterlimit="10" />
<line x1="495" y1="275" x2="535" y2="275" fill="none" stroke="grey" stroke-width="1.0" stroke-linejoin="round" stroke-miterlimit="10" />
<line x1="275" y1="495" x2="275" y2="535" fill="none" stroke="grey" stroke-width="1.0" stroke-linejoin="round" stroke-miterlimit="10" />
<line x1="15" y1="275" x2="55" y2="275" fill="none" stroke="grey" stroke-width="1.0" stroke-linejoin="round" stroke-miterlimit="10" />
<text x="275" y="10" style="text-anchor:middle" font-size="15">MAG: uncultured Methanocorpusculum sp. isolate</text><text x="285" y="25" style="text-anchor:start">1,631,382</text><text x="525" y="265" style="text-anchor:start">0.4 Mbp</text><text x="285" y="530" style="text-anchor:start">0.81 Mbp</text><text x="-200" y="25" style="text-anchor:end" transform="rotate(-90)">1.22 Mbp</text><circle cx="365.166432" cy="52.581443" r="2.500000" fill="grey" stroke="black" stroke-width="1.0" />
<circle cx="442.122398" cy="102.749879" r="2.500000" fill="grey" stroke="black" stroke-width="1.0" />
<circle cx="494.592923" cy="178.155029" r="2.500000" fill="grey" stroke="black" stroke-width="1.0" />
<circle cx="514.890444" cy="267.749132" r="2.500000" fill="grey" stroke="black" stroke-width="1.0" />
<circle cx="500.041130" cy="358.405575" r="2.500000" fill="grey" stroke="black" stroke-width="1.0" />
<circle cx="452.220585" cy="436.842097" r="2.500000" fill="grey" stroke="black" stroke-width="1.0" />
<circle cx="378.435092" cy="491.566806" r="2.500000" fill="grey" stroke="black" stroke-width="1.0" />
<circle cx="289.495116" cy="514.561874" r="2.500000" fill="grey" stroke="black" stroke-width="1.0" />
<circle cx="198.431430" cy="502.458247" r="2.500000" fill="grey" stroke="black" stroke-width="1.0" />
<circle cx="118.585961" cy="457.029251" r="3.000000" fill="black" stroke="black" stroke-width="1.0" />
<circle cx="61.657029" cy="384.930781" r="2.500000" fill="grey" stroke="black" stroke-width="1.0" />
<circle cx="35.985408" cy="296.726130" r="2.500000" fill="grey" stroke="black" stroke-width="1.0" />
<circle cx="45.332299" cy="205.338339" r="2.500000" fill="grey" stroke="black" stroke-width="1.0" />
<circle cx="88.328270" cy="124.156820" r="2.500000" fill="grey" stroke="black" stroke-width="1.0" />
<circle cx="158.673894" cy="65.075640" r="2.500000" fill="grey" stroke="black" stroke-width="1.0" />
<circle cx="246.062691" cy="36.750903" r="2.500000" fill="grey" stroke="black" stroke-width="1.0" />

<circle cx="275" cy="275" r="185" fill="white" stroke="grey" stroke-width="0.5" />
<circle cx="275" cy="275" r="170" fill="none" stroke="black" stroke-width="0.5" />
<circle cx="275" cy="275" r="170" fill="aliceblue" stroke="black" stroke-width="0.5" />
<circle cx="275" cy="275" r="158" fill="white" stroke="none" stroke-width="0.5" />
<circle cx="275" cy="275" r="140" fill="none" stroke="black" stroke-width="0.5" />
<circle cx="275" cy="275" r="140" fill="aliceblue" stroke="black" stroke-width="0.5" />
<circle cx="275" cy="275" r="133" fill="white" stroke="none" stroke-width="0.5" />
<circle cx="275" cy="275" r="110" fill="none" stroke="black" stroke-width="0.5" />
<circle cx="275" cy="275" r="110" fill="white" stroke="black" stroke-width="0.5" />
<circle cx="275" cy="275" r="109" fill="aliceblue" stroke="none" stroke-width="0.5" />
<circle cx="275" cy="275" r="80" fill="none" stroke="black" stroke-width="0.5" />

<g style="fill:none;stroke-linejoin:round;stroke-miterlimit:10">
<path style="stroke:blue;stroke-width:1.0" d="M277.408958,118.625848L278.560010,120.959607L279.728306,121.580314L280.915640,121.473106L282.088283,121.734512L283.264312,121.874041L284.473516,121.456863L285.707685,120.789324L286.878093,121.098344L287.998822,121.952607L289.182810,121.998191L290.381638,121.905920L291.642399,121.271856L293.001033,119.896868L294.016953,121.479335L295.139827,122.079148L296.184878,123.186709L297.387028,123.127896L298.618294,122.905023L299.962861,122.026984L301.171226,122.043907L302.334495,122.329058L303.276416,123.791527L304.397176,124.235035L305.554585,124.480898L306.757547,124.510101L307.935721,124.668270L309.015615,125.265848L310.178588,125.487227L311.242921,126.117124L312.384511,126.417220L313.586205,126.485218L314.713174,126.846048L315.816592,127.288826L316.980795,127.510572L318.157847,127.694239L319.316581,127.946949L320.783505,127.209621L322.094174,127.021111L322.804011,128.700015L323.811509,129.424522L324.871674,129.978513L325.941560,130.496630L327.058581,130.878226L328.180878,131.246476L329.321211,131.569019L330.641940,131.430454L331.931545,131.395748L333.097263,131.687455L333.881532,132.906424L334.857840,133.639243L335.989525,134.001439L336.921303,134.820647L338.038419,135.214903L339.656052,134.525392L341.070694,134.315321L341.745601,135.677571L342.842040,136.144167L343.807313,136.876211L344.937136,137.276564L346.171909,137.479314L347.140066,138.200443L348.132824,138.869718L348.916423,139.917388L349.964934,140.472481L350.867641,141.285345L351.623463,142.344451L352.840749,142.602277L354.003508,142.963074L355.091636,143.454964L356.152947,143.994406L357.034343,144.822249L357.941897,145.602703L358.974980,146.185881L360.078552,146.664841L362.405499,145.334739L363.884358,145.307594L363.260493,148.321578L363.831868,149.572501L364.613930,150.512537L365.680904,151.055167L366.793368,151.541572L368.159031,151.699845L368.963261,152.607050L369.381962,154.002746L370.743244,154.188153L371.637912,154.970324L373.057212,155.109876L374.961387,154.684884L374.916727,156.605993L376.140008,157.012517L376.414313,158.520427L376.616868,160.087216L378.058727,160.250146L378.846544,161.149378L379.590011,162.093461L380.067356,163.316213L380.963066,164.088495L381.819621,164.902468L382.878379,165.511489L384.234530,165.830030L384.807561,166.935128L386.653779,166.798539L387.301969,167.835429L387.652235,169.147042L389.507163,169.052982L390.927705,169.384375L391.509010,170.485719L391.225592,172.344601L391.628797,173.576919L392.724088,174.206454L393.790141,174.869150L394.765821,175.614606L395.282244,176.740699L395.370645,178.204805L395.810894,179.373737L396.154019,180.610910L396.957253,181.485775L397.407363,182.629143L398.394813,183.367161L399.330482,184.149746L400.136552,185.031084L401.360642,185.619377L402.297161,186.420158L402.937488,187.429488L403.778009,188.303269L403.253055,190.084981L403.721692,191.193673L404.199701,192.292484L404.937015,193.224646L405.515228,194.257546L406.452125,195.071418L407.487851,195.833014L407.842478,197.003412L408.179823,198.178678L409.302573,198.903708L409.816030,199.978712L410.347074,201.042807L410.684386,202.210058L411.054595,203.355554L411.514945,204.450891L412.225341,205.417818L413.061851,206.325389L412.955583,207.698802L414.032900,208.494137L416.056392,208.856492L416.308799,210.061208L416.014643,211.507392L415.297630,213.125553L415.901103,214.151491L417.199485,214.886126L418.124794,215.790267L417.658054,217.266236L418.203528,218.325266L420.272315,218.796896L421.403268,219.652049L421.402747,220.937432L420.662644,222.482167L419.883230,224.020808L419.973580,225.240625L420.553952,226.291415L421.305424,227.289924L421.461917,228.483942L421.515855,229.706240L421.957104,230.807088L422.233726,231.957757L422.961148,232.979481L423.552941,234.045319L423.631002,235.253120L424.023395,236.375685L424.441293,237.493409L426.009096,238.334041L427.051424,239.318953L426.388613,240.702642L425.917521,242.029433L425.674560,243.296518L425.466433,244.548716L426.096511,245.630891L425.965763,246.861332L426.344168,247.995386L426.354706,249.194867L426.615465,250.350683L427.028277,251.484101L427.098350,252.671488L427.470041,253.815363L427.693415,254.981957L428.313777,256.100698L427.831864,257.354132L427.810466,258.548341L427.541856,259.764932L427.667687,260.939190L427.840116,262.109789L427.816654,263.296526L428.069063,264.462510L428.192827,265.639006L428.008667,266.832737L428.183332,268.006269L428.124527,269.190523L428.262612,270.367228L428.495004,271.543388L428.840376,272.721046L428.699316,273.907214L428.386572,275.090977L428.319838,276.271974L428.335013,277.453404L428.397758,278.636487L428.255138,279.814517L428.284158,280.997636L428.113794,282.172575L428.348618,283.367848L428.822067,284.582610L428.813569,285.772083L430.049962,287.059536L429.306466,288.198246L428.125340,289.286166L427.875589,290.451578L427.519622,291.603393L427.721941,292.816783L428.027372,294.048310L427.810326,295.217785L427.247997,296.337906L427.148221,297.520240L427.065438,298.706384L426.603452,299.831992L426.089178,300.944338L426.162340,302.157234L426.467021,303.418058L426.036092,304.543344L426.567626,305.861348L426.655049,307.097699L426.973282,308.390148L426.793825,309.578517L426.239469,310.679850L426.299455,311.926575L425.596697,312.986527L425.459084,314.186951L423.974645,315.028196L423.187470,316.043133L423.070973,317.241588L422.875908,318.420453L422.825578,319.645363L422.923147,320.921122L422.391014,322.003689L420.758228,322.723002L420.370277,323.838952L420.242660,325.044401L419.567797,326.061009L419.179250,327.176351L419.339640,328.495374L419.437216,329.800596L418.632044,330.764490L418.517393,331.995955L418.176573,333.141364L417.379437,334.099284L416.972761,335.216640L416.463536,336.290605L415.380480,337.110005L415.022982,338.245990L414.504995,339.310395L414.206430,340.477587L413.672348,341.535648L413.082873,342.566197L412.684460,343.690749L411.819056,344.580324L411.418115,345.704238L412.136132,347.421885L411.692270,348.539587L410.557988,349.281397L410.043554,350.357838L409.103307,351.193679L408.404934,352.162221L407.625394,353.080839L407.575150,354.432722L406.653372,355.265016L405.645535,356.037516L405.392867,357.278346L404.355762,358.023914L404.024893,359.221833L403.643008,360.392872L402.826780,361.276875L402.236773,362.312716L401.400475,363.178611L400.231065,363.804691L399.445023,364.695852L398.779832,365.673315L398.146561,366.675327L398.398635,368.348833L398.219604,369.714488L396.852407,370.165690L395.625998,370.712874L394.763773,371.541345L393.793086,372.277985L393.463708,373.542392L392.624691,374.387378L392.165186,375.556138L393.001094,377.862552L391.327606,377.991404L390.690753,379.028201L388.787462,378.913043L387.427598,379.270725L386.574634,380.089890L385.763738,380.948033L384.931552,381.785648L384.236096,382.757856L383.558840,383.752387L382.569133,384.434005L381.826030,385.365799L380.958153,386.170089L380.448336,387.355520L380.740816,389.420809L380.270926,390.687554L378.799496,390.850806L378.965193,392.849791L377.050198,392.491054L375.011885,391.951923L373.765159,392.311539L373.074121,393.328861L372.213244,394.146368L371.419413,395.049546L370.407086,395.681490L369.147857,395.992817L368.488404,397.073943L367.695980,397.990349L366.826102,398.808914L365.691980,399.269044L364.517290,399.664836L363.681107,400.530082L362.739227,401.249292L361.620017,401.710546L360.680425,402.432021L359.705084,403.101510L359.605052,405.117754L359.048960,406.467426L357.936740,406.956518L356.916192,407.588780L355.146507,406.987387L353.981779,407.356705L352.745160,407.594894L351.729836,408.204291L350.678023,408.749865L349.843469,409.685040L348.648508,409.972965L347.622929,410.566650L346.769366,411.488762L345.426495,411.476735L344.349756,411.968967L343.431583,412.778815L342.213669,412.984467L341.356203,413.932344L340.540980,414.988096L339.197950,414.916074L338.265673,415.734268L337.217273,416.302647L335.929011,416.318493L334.826442,416.754694L333.862089,417.524480L332.664968,417.732240L331.320491,417.556295L330.194239,417.917286L329.107734,418.380594L327.974962,418.720599L326.948557,419.352866L325.786479,419.610315L324.709307,420.108857L323.616821,420.567509L322.644544,421.399959L321.462337,421.595076L320.407795,422.195086L319.315062,422.681891L318.185145,423.049598L317.147894,423.746401L315.913683,423.749637L314.899989,424.560080L313.844325,425.240299L312.473605,424.687055L311.144106,424.247106L309.925780,424.232122L308.795177,424.584986L308.016473,426.560104L307.825126,431.467335L307.240980,434.798749L306.674157,438.474690L306.218051,443.041900L304.879981,443.036987L302.572142,437.301593L299.956569,429.084154L298.620407,428.307733L297.369860,428.013542L296.037326,427.073620L294.865633,427.233664L293.705691,427.490393L292.505068,427.408281L291.351118,427.730478L290.199258,428.104543L289.050583,428.557111L287.955106,429.708846L286.793601,430.206408L285.579549,430.026324L284.334536,429.267659L283.130028,429.033084L281.936785,428.946601L280.749516,428.962276L279.555089,428.721471L278.369998,428.712476L277.189995,429.023462L276.000914,428.636565L274.816752,429.226883L273.634046,428.628115L272.454948,428.358010L271.264382,428.718677L270.095873,428.202762L268.916265,428.151888L267.727198,428.301679L266.525686,428.619478L265.286963,429.434798L264.106338,429.232642L262.917794,429.154871L261.789845,428.370842L260.644036,427.889792L259.499870,427.449218L258.319908,427.381322L257.095157,427.687317L255.860475,428.017287L254.727598,427.525090L253.604771,426.998929L252.324160,427.572600L251.189370,427.139247L250.028377,426.889271L248.727841,427.454333L247.664112,426.638242L246.424612,426.807110L245.442628,425.631982L244.164285,425.982154L242.943131,426.018475L241.670835,426.266209L240.765091,424.873579L239.733687,424.089542L238.527130,424.055375L237.328639,423.973376L236.041997,424.215939L234.902082,423.880558L233.905235,423.031396L232.871777,422.341190L231.703319,422.130451L230.537836,421.903092L229.233708,422.115180L227.625868,423.247816L226.771618,422.005915L225.517759,421.995241L224.512813,421.245140L223.758107,419.805478L222.737918,419.148030L221.602335,418.813330L220.511368,418.357714L219.468787,417.779318L218.171569,417.847709L216.532095,418.735287L215.785571,417.417438L214.352795,417.751543L213.617942,416.443829L212.786481,415.388608L211.572393,415.202628L210.607668,414.464399L209.659616,413.700385L208.366828,413.663985L207.091643,413.573209L205.834081,413.430629L204.823080,412.789189L204.245754,411.315995L203.341610,410.495088L202.306729,409.926683L201.289307,409.326767L200.138352,408.966964L198.152551,410.066779L197.428427,408.928717L196.654930,407.893270L195.952647,406.754071L195.188959,405.733657L194.072816,405.294513L192.230637,405.998234L191.630274,404.724677L190.576410,404.165994L189.520002,403.608108L188.147776,403.514228L188.063251,401.527446L187.066314,400.889678L186.084758,400.228970L184.977564,399.741577L184.036922,399.020522L182.906430,398.554821L182.453810,397.186433L181.410235,396.606556L180.184305,396.255459L179.358937,395.388301L178.563675,394.487902L176.785695,394.791004L176.293501,393.517476L175.844888,392.208260L174.905172,391.487354L170.787063,394.406697L171.652415,391.590051L171.341928,390.141252L170.977680,388.771092L169.827316,388.264862L169.202694,387.191867L168.723952,385.974386L167.832608,385.193269L167.052609,384.298068L166.286375,383.391073L165.368073,382.635488L164.477611,381.850290L163.938329,380.728766L162.816171,380.161715L161.021709,380.206191L159.884931,379.624838L160.320691,377.626908L160.004767,376.325330L159.093049,375.553340L156.681331,376.058833L151.386741,378.944979L146.987200,380.971990L149.716789,377.096265L153.722647,372.286882L154.518652,370.132415L153.534501,369.399677L152.775100,368.488679L152.052487,367.549029L151.534847,366.457312L151.036225,365.356190L149.980735,364.659090L148.895853,363.974216L148.260401,362.968180L148.250225,361.536210L147.786447,360.423660L146.555487,359.822084L145.266799,359.245215L144.869745,358.085047L143.859464,357.315062L143.800021,355.950331L143.461158,354.767043L142.881734,353.732920L142.519109,352.572418L141.659813,351.702481L140.781319,350.837886L140.298231,349.747894L140.282549,348.405088L139.547123,347.458282L137.727300,347.077345L133.012296,348.163381L126.323704,350.166264L121.564591,351.094064L117.444707,351.630858L123.684869,347.159863L131.503815,342.079355L135.186869,339.050033L134.798809,337.925775L134.300619,336.851719L134.149445,335.627894L133.801695,334.492661L133.309916,333.418817L132.911660,332.306501L131.956539,331.414579L131.295415,330.400049L130.308782,329.503989L127.854434,329.137961L124.643561,329.008040L125.263982,327.486534L128.195950,325.192435L128.928270,323.688626L129.171504,322.362619L128.855504,321.223848L128.181856,320.195853L127.509983,319.161837L126.858998,318.116172L126.291543,317.041565L126.615131,315.718393L126.705742,314.467783L126.437948,313.316120L125.938712,312.222702L125.589922,311.089466L124.968807,310.018639L124.954254,308.805445L124.670804,307.654641L124.600498,306.458739L124.567550,305.258089L123.736694,304.214754L119.039004,303.877720L111.333301,304.002408L95.110373,305.449913L92.587852,304.433392L89.504559,303.466638L77.099096,303.811915L73.705591,302.724294L65.611547,302.197302L73.665652,299.575683L85.323853,296.671174L81.079247,295.644185L95.865533,292.675707L111.940670,289.822207L118.227879,288.033945L121.460994,286.575014L121.826541,285.361536L122.026078,284.164897L121.610944,283.004510L121.558657,281.822530L121.366408,280.645697L121.445052,279.458703L121.544678,278.273004L121.694964,277.088539L121.467474,275.908874L120.378145,274.724275L121.685651,273.545598L121.205703,272.356167L121.385024,271.175439L120.905550,269.975540L121.044545,268.792586L121.118857,267.607932L121.792955,266.456992L122.130261,265.294068L121.976098,264.100198L119.597878,262.726994L120.131939,261.568044L120.879718,260.435973L120.732853,259.222282L120.682787,258.015067L119.223510,256.638930L120.015130,255.520694L117.250338,253.937656L120.319100,253.133384L120.918644,252.006204L123.059536,251.127845L123.580064,250.012992L123.508447,248.800924L123.752459,247.641610L123.904233,246.465406L124.255639,245.327412L124.429785,244.155072L124.784860,243.020231L124.900805,241.834304L124.832186,240.603848L125.370177,239.511854L125.811939,238.400559L126.021693,237.233059L126.487619,236.131274L126.776811,234.984518L126.822130,233.769589L127.730704,232.797521L128.029267,231.655275L127.990508,230.410124L128.357532,229.285042L128.929496,228.225838L129.226207,227.079744L129.696396,225.990926L129.946661,224.827629L130.496848,223.768316L130.927232,222.668184L131.161974,221.495754L131.024869,220.178624L132.015173,219.290882L132.414632,218.177639L132.949513,217.118892L133.279162,215.976270L133.653322,214.850329L134.168857,213.784219L134.886719,212.808719L135.233830,211.669630L135.768579,210.614697L135.925733,209.382334L136.337811,208.266098L137.336312,207.435739L137.757962,206.325869L138.175875,205.212026L138.519002,204.056986L139.358858,203.161046L139.842518,202.078580L140.129051,200.886237L140.084288,199.502800L140.513027,198.376469L141.547314,197.598057L142.683089,196.888576L143.048807,195.727563L143.582713,194.664229L144.067322,193.568438L144.343558,192.337768L145.927067,191.940561L146.691287,191.027725L147.044702,189.844076L147.292971,188.582551L148.507806,187.976624L149.297838,187.085955L149.899246,186.063778L150.434175,184.991624L151.229781,184.107189L151.995171,183.202467L151.593260,181.413915L150.316400,178.923915L146.455320,174.361182L145.201147,171.756793L147.175656,171.709831L147.627603,170.443056L149.005146,169.938976L150.395549,169.460631L156.110848,172.718321L158.532418,173.230037L160.269424,173.178711L160.970087,172.219518L161.965319,171.527433L162.708626,170.606754L163.149857,169.399129L163.403305,168.000611L163.687162,166.614823L164.530648,165.765868L165.934961,165.480141L167.106403,164.974290L167.550799,163.725691L168.489476,162.983744L169.314612,162.122989L170.577699,161.735806L171.835697,161.356115L172.752442,160.607686L173.701824,159.897576L174.228708,158.702084L174.793734,157.538047L176.024985,157.154825L176.786175,156.215138L177.901126,155.704244L178.825166,154.962650L179.923265,154.441740L180.885427,153.752512L181.799832,153.001924L182.550247,152.032153L183.016644,150.670091L184.413582,150.564876L185.204657,149.633294L186.035969,148.750876L186.895258,147.902261L188.348403,147.918895L189.184087,147.037842L190.127626,146.312874L191.004371,145.482484L191.605272,144.213198L192.608238,143.563639L194.268160,143.979741L195.231813,143.282558L195.175195,140.868057L196.993835,141.596352L198.599476,142.001696L199.131053,140.539599L199.724715,139.157370L200.783341,138.599986L202.258717,138.823320L203.703734,139.018349L204.507125,137.994768L205.585179,137.496715L206.861784,137.401049L207.534089,136.077998L208.227068,134.766242L209.188598,133.997574L209.948459,132.777258L210.660197,131.419653L211.936831,131.312808L213.377903,131.604815L214.763415,131.798003L215.935720,131.502151L217.124965,131.255492L218.292279,130.962187L219.187646,129.968849L220.606344,130.340801L221.992948,130.663234L223.184719,130.477876L224.344177,130.210784L225.443122,129.772597L226.517429,129.257427L227.716014,129.118202L228.845734,128.772931L229.939492,128.311159L230.915232,127.447906L231.721992,125.972514L232.956339,125.945382L233.921138,124.951699L234.777992,123.509214L236.047207,123.596902L237.488029,124.399121L238.944486,125.340342L240.268718,125.798899L241.408314,125.488155L242.542196,125.147146L243.653476,124.690723L244.732555,124.056477L245.935698,124.033262L246.543857,120.803355L247.183368,117.479377L248.197845,116.085719L248.950032,112.943340L249.770506,109.943553L251.284443,111.421844L253.240110,116.312065L254.919094,119.676229L256.407072,121.921599L257.651907,122.356144L258.847050,122.405025L259.988848,121.937489L261.138501,121.496337L262.370703,121.992354L263.567294,122.135282L264.752128,122.156232L265.914151,121.818665L267.085558,121.582805L268.256217,121.268321L269.438405,121.160633L270.634304,121.499878L271.819891,121.619027L272.993489,120.987875L274.178412,120.701851L275.368829,119.917254L276.564464,119.818521Z" />
<line x1="50" y1="575" x2="100" y2="575" fill="none" stroke="blue" stroke-width="1.0" stroke-linejoin="round" stroke-miterlimit="10" />
<text x="125" y="578" style="text-anchor:start;fill:black">n1_4mer:GRV/n1_4mer:RV</text>
<path style="stroke:green;stroke-width:1.0" d="M276.485586,178.565242L277.166372,181.261814L277.910511,180.562434L278.753072,177.597602L279.497209,177.759685L280.102111,180.465132L280.612141,184.040566L281.460005,181.963850L281.964262,184.765705L282.861258,182.441995L284.033841,177.544411L284.492947,180.516309L285.010296,182.533508L286.370078,177.031466L286.647501,180.971678L287.056632,183.454504L287.293291,186.904850L288.344838,184.469511L289.829724,179.500872L291.208856,175.671742L292.449854,173.015417L292.731192,175.966241L292.367419,182.127520L292.540281,185.043743L293.836107,182.208887L293.811658,185.856954L294.937166,183.998845L295.250382,185.859360L296.758301,182.524887L296.819517,185.367257L298.872249,180.120998L301.018261,174.858088L301.317075,176.821530L301.939551,177.508454L303.795541,173.833791L302.785503,180.162908L302.699093,183.087761L303.864970,181.823105L304.720837,181.611453L304.891868,183.518557L305.217749,184.878566L305.834698,185.336003L307.739829,182.128568L309.069484,180.680211L309.246806,182.427269L311.396118,178.898848L311.436404,180.985342L312.836549,179.561007L311.813621,184.189291L311.092636,187.900845L311.801705,188.088796L313.663941,185.614815L315.533277,183.239520L315.448429,185.307275L317.062022,183.614185L317.764703,183.940892L316.772755,187.805013L316.988406,189.060145L318.212409,188.255417L319.955741,186.471080L319.593267,188.835433L322.198949,185.496404L322.361448,186.840854L321.482897,190.052287L319.955563,194.325477L322.370423,191.510917L319.681479,197.644503L320.944579,196.853813L321.101276,197.951893L322.786360,196.514171L324.329464,195.367207L325.604950,194.696577L326.449244,194.734256L328.083496,193.572130L331.134644,190.324741L336.194631,184.218324L337.962242,183.130914L332.394549,192.622816L330.126348,197.163519L328.109624,201.222606L328.592731,201.748170L331.492172,199.020276L329.168964,203.304946L329.676497,203.780487L328.919377,205.875599L333.968057,200.592246L330.949998,205.506981L331.554406,205.853482L332.052013,206.331289L334.607675,204.369268L334.684325,205.373713L334.267023,206.928766L338.591083,203.088432L337.596877,205.302045L338.747136,205.111771L337.680614,207.335306L339.826426,206.091244L340.566375,206.371698L341.954543,205.990862L341.273215,207.737628L342.877911,207.162207L338.880703,212.133109L343.845334,208.283353L345.602695,207.627116L349.291402,205.192556L348.601546,206.900642L348.559226,207.984065L350.429670,207.335897L343.452393,214.539927L345.895622,213.347538L350.823794,210.080839L352.806034,209.415564L354.157723,209.312466L352.866354,211.390499L349.991271,214.696304L346.044519,218.765652L347.560270,218.469495L351.314394,216.483748L351.658763,217.151881L352.302526,217.595237L355.013988,216.532511L357.092754,215.978107L357.015607,216.986635L362.093984,214.395574L360.353442,216.577370L356.031309,220.447598L352.322921,223.805295L349.507829,226.490480L347.484684,228.598746L352.264702,226.373761L355.178485,225.398067L353.447203,227.300705L355.427687,226.941121L356.756304,226.997939L352.594938,230.241375L358.773201,227.533821L358.735831,228.403391L359.608936,228.767457L357.171410,230.917904L359.790165,230.350686L359.072235,231.552587L360.421405,231.685786L371.462358,227.017775L363.737705,231.709589L362.491954,233.148554L361.782707,234.306257L363.735771,234.221267L360.421767,236.538386L359.194853,237.868154L364.815126,236.213104L367.774673,235.780132L365.863395,237.410444L366.260780,238.066730L367.117734,238.543160L372.410741,237.313631L379.937725,235.328153L375.636436,237.837691L372.396695,239.884179L369.820569,241.636056L372.464388,241.547235L370.316227,243.103109L365.758663,245.403676L367.876921,245.502446L366.506441,246.711794L368.031266,247.023656L366.849104,248.148873L365.357687,249.338690L366.964464,249.646242L365.472292,250.805913L366.849947,251.194065L366.405326,252.059204L370.595181,251.788888L376.506715,251.179994L375.277089,252.282048L373.323053,253.519612L366.641078,255.717772L363.664152,257.056216L364.776400,257.549875L363.695608,258.467932L365.401412,258.869512L365.658895,259.543164L365.988595,260.207270L368.070017,260.603829L365.446191,261.722217L376.201440,260.938774L370.727676,262.450142L373.632268,262.841399L372.501412,263.742550L370.002879,264.771938L369.140742,265.597724L369.993323,266.251043L368.917949,267.079160L364.996890,268.107582L367.887533,268.605491L372.754412,269.026623L364.112549,270.243370L365.844000,270.852431L363.802882,271.630858L363.736808,272.317693L366.705371,272.934852L369.669515,273.597589L368.544723,274.334907L364.619482,275.053155L370.168508,275.789538L370.345897,276.525562L372.164174,277.303399L370.247764,277.992213L366.483479,278.579526L364.149099,279.176166L368.679745,280.111868L370.489729,280.948697L369.857465,281.643188L378.682677,283.064271L375.662087,283.609898L368.109199,283.686828L363.979837,283.993449L367.319749,285.049992L367.680047,285.812201L372.711807,287.162823L372.870118,287.948843L375.830420,289.131615L373.388894,289.563046L370.081597,289.822835L371.560574,290.816206L368.787925,291.104831L373.381352,292.674809L371.715040,293.145558L369.400105,293.465088L368.747520,294.088343L368.364386,294.760515L369.399539,295.740584L366.951639,295.946513L370.396235,297.505523L368.004544,297.698953L370.699427,299.139234L371.729498,300.193122L368.031011,299.996626L366.621891,300.376299L368.534328,301.683410L364.779198,301.361653L366.920711,302.761322L370.145526,304.536887L369.503362,305.137567L365.666829,304.685413L364.389903,305.031650L365.012036,306.014293L357.690475,304.206083L358.409127,305.184537L362.388042,307.387887L363.756046,308.674730L365.251737,310.039828L366.741950,311.434052L364.894575,311.504528L361.547648,310.924458L365.079700,313.206603L358.775126,311.296479L358.366970,311.884921L355.102077,311.180740L355.139111,311.943322L358.362395,314.210606L359.096025,315.349670L359.840421,316.513799L356.197039,315.509186L359.566157,318.006733L357.872620,317.952107L363.457308,321.714494L363.908687,322.832318L363.524534,323.508584L366.763461,326.206413L363.570247,325.323091L360.967192,324.723944L359.833421,324.944166L363.003928,327.727766L362.773339,328.512708L360.176718,327.833873L359.987821,328.627606L356.859568,327.539613L356.830006,328.415065L355.742427,328.596599L354.508690,328.664509L354.415577,329.496743L352.343105,328.955553L350.536072,328.564645L348.552308,328.014068L348.364220,328.742010L351.699335,332.098116L350.012050,331.745258L349.959755,332.618874L351.601793,334.825347L349.670399,334.248575L347.375372,333.341647L346.324155,333.406346L349.699494,337.137737L348.797383,337.355347L352.287844,341.331710L349.912273,340.301663L348.405431,339.989976L347.107399,339.838397L343.196558,337.278495L342.570008,337.667653L344.534752,340.493377L344.052441,341.050229L342.595410,340.661037L340.992012,340.098973L341.931268,342.050599L340.456739,341.591530L342.942986,345.194332L346.529220,350.047644L345.428800,350.042099L348.166840,354.172919L347.534751,354.712113L346.958377,355.312876L348.095279,357.857186L345.905646,356.634129L340.186448,351.227745L337.708583,349.484165L337.741733,350.699458L338.249841,352.520186L335.599744,350.451318L334.078495,349.729048L331.377474,347.452732L331.823676,349.198403L331.815647,350.383811L332.363193,352.342657L331.368128,352.237407L329.343539,350.680669L329.092236,351.568765L329.381242,353.249986L327.599230,351.943845L326.533008,351.644757L329.396076,357.264478L330.666160,360.611385L330.689508,362.108232L330.357943,363.077266L331.178128,365.929391L327.439509,361.358770L326.091052,360.617763L321.040327,353.522088L319.941222,353.018722L320.054598,354.627430L320.475240,356.835257L319.784627,357.075171L321.422772,361.658301L321.050442,362.577307L317.652333,357.654279L318.098417,360.121361L318.863688,363.314293L316.767305,360.745049L318.010296,365.052188L318.435616,367.773549L316.950478,366.428873L315.242691,364.519726L316.257810,368.701274L314.823713,367.366953L314.615272,368.865699L315.620752,373.356203L313.520498,370.345878L309.337247,361.913139L309.017138,363.082327L308.807337,364.586379L308.389484,365.585372L306.078156,361.358911L304.703280,359.577641L304.692164,361.675842L305.169843,365.333939L305.560572,368.905117L305.206736,370.306414L305.090143,372.540986L302.778539,367.573201L302.645853,369.776976L300.798525,366.046962L299.805898,365.186659L300.219888,369.533569L300.870534,375.060866L298.859227,370.304882L296.086938,362.072688L295.621953,363.114216L295.616807,366.254585L295.439939,368.828292L293.777053,364.504467L293.211608,365.263765L292.580285,365.734275L290.846989,360.301870L289.920673,358.909854L290.142012,364.132456L291.731485,378.301728L289.870202,371.514721L288.474078,367.164923L288.191656,370.359215L287.390671,369.951779L285.976988,364.485345L285.468083,366.140606L284.791516,366.459373L284.405155,369.739622L283.203823,364.658578L282.261084,361.711282L281.640944,362.396302L281.339742,367.898757L280.599664,367.543122L280.401637,377.340460L279.576264,376.560062L278.646148,372.637655L277.822102,370.238044L276.987219,365.641098L276.304172,366.723076L275.573137,362.974303L274.891892,365.987009L274.216913,363.073300L273.532835,363.407434L272.700706,369.614705L272.033851,367.661193L271.306874,367.970705L270.541050,368.989154L269.854762,368.271129L268.877063,372.353120L268.430327,368.013528L267.632528,369.000356L266.979030,368.124040L266.542034,365.076616L265.909127,364.411925L265.234053,364.217008L264.645203,363.302708L263.375652,367.934708L263.197739,363.797610L262.567595,363.323996L261.653159,364.803168L261.119115,363.692632L260.451456,363.491154L259.742411,363.538042L259.546117,360.726124L257.670960,367.060742L257.962561,361.827180L255.840963,368.809165L255.101913,368.738997L253.771069,371.348644L253.934049,367.222517L254.835211,360.247331L253.525527,362.760727L252.242653,364.995122L250.950477,367.113864L250.390893,366.371767L248.901347,369.012462L249.958372,362.581746L248.994145,363.372900L248.378964,362.955964L247.475327,363.477722L245.223623,368.179183L245.605635,364.597563L243.398208,368.878388L244.176568,364.285567L244.826066,360.269118L243.739576,361.221757L241.199491,366.033266L241.737165,362.513373L242.832161,357.708478L239.500369,364.234226L235.765823,371.451818L235.696427,369.529565L233.690131,372.235273L234.618676,368.051443L236.142065,362.685306L235.010083,363.395128L236.323549,358.767550L235.285611,359.303164L234.243606,359.814273L231.536832,363.690567L229.802338,365.459880L229.252322,364.823483L230.798625,360.158909L230.792037,358.590515L231.227599,356.246375L230.943675,355.286095L230.784628,354.124617L225.691173,361.665003L225.574162,360.334600L224.085638,361.363776L224.060301,359.904965L227.062018,353.524319L228.406993,350.015746L224.512493,354.906066L225.596829,351.872154L224.013303,353.008380L225.443619,349.559576L222.012217,353.405408L220.601618,354.171218L222.455853,350.224480L221.731273,350.024120L221.996690,348.445207L220.908006,348.749893L218.239289,351.151457L218.513852,349.577256L219.022883,347.734282L218.333447,347.468264L216.263307,348.934881L215.328109,348.935512L216.097603,346.842664L215.622271,346.295190L215.065231,345.847078L216.405850,343.190111L215.576050,343.087685L213.869347,343.963643L212.140708,344.822807L211.023896,344.971822L209.923913,345.083160L209.406458,344.558123L211.555633,341.249167L208.085483,343.803852L210.958924,339.842381L212.245217,337.568590L213.578588,335.302905L211.243239,336.638447L212.095520,334.883964L207.759314,338.031775L207.344241,337.448775L205.825606,337.870655L204.071597,338.474072L204.652794,336.984777L205.477844,335.312905L202.119500,337.248995L201.662134,336.668975L203.640637,334.072949L205.290667,331.807792L203.692474,332.201833L203.920777,331.124357L201.969412,331.757383L201.984277,330.849041L202.958488,329.229417L205.031193,326.829676L205.829531,325.417794L198.169623,330.099842L199.595660,328.202390L199.151354,327.645483L198.249528,327.400054L201.238771,324.530526L201.322753,323.654921L197.015477,325.641030L197.679874,324.367046L198.823160,322.815126L199.976162,321.289676L198.509815,321.384747L198.446088,320.620588L202.039361,317.721128L198.023705,319.279770L192.049573,321.869669L195.069880,319.354341L197.403942,317.280680L198.233874,316.064773L195.831427,316.568794L193.936842,316.770199L194.295904,315.801563L193.910567,315.215127L192.852573,314.954404L191.857735,314.649270L192.570887,313.532674L189.627268,314.110249L189.226552,313.497253L192.221052,311.389785L192.138300,310.667096L193.061052,309.524254L194.768111,308.079605L191.408851,308.713648L187.362742,309.563055L187.891852,308.581362L186.213003,308.445330L172.731691,312.626670L167.286119,313.690831L167.754385,312.592496L173.874693,309.574832L182.675508,305.773597L184.907916,304.260379L187.374738,302.714878L185.846122,302.444739L180.286267,303.359427L178.106360,303.200720L177.870494,302.459611L182.527489,300.375444L187.066500,298.403066L185.344492,298.123343L183.863896,297.757968L190.327162,295.452419L184.006754,296.238648L186.823122,294.866332L182.022585,295.196636L187.308091,293.342327L186.292637,292.842662L183.095455,292.750297L173.094073,293.868889L168.115744,293.940327L168.998095,292.942940L167.229649,292.389450L165.404604,291.818810L165.687615,290.914526L163.279531,290.387268L163.356476,289.501290L162.959573,288.676107L160.799084,288.047861L163.747829,286.843551L164.167946,285.936114L165.760685,284.929930L170.778720,283.664898L178.763538,282.255084L178.803455,281.507289L182.423805,280.546379L182.454533,279.829426L182.308398,279.121387L177.866636,278.569438L177.890446,277.819725L180.252213,277.020848L177.780285,276.324465L181.320405,275.554559L180.540103,274.831557L181.300621,274.111130L182.368380,273.407596L181.146624,272.663327L182.493289,271.983692L180.825147,271.202913L181.128901,270.490666L184.131727,269.933076L183.530087,269.192436L185.086616,268.595523L188.110456,268.137829L189.038312,267.544405L186.698026,266.655658L181.193257,265.405888L175.617641,264.061475L178.080727,263.576315L187.130102,263.956054L172.565311,261.323174L173.924502,260.711364L170.304098,259.376071L182.995194,260.544648L185.072598,260.160364L187.774563,259.915160L185.491553,258.809277L184.908564,257.986138L183.155689,256.921324L188.528916,257.286043L186.590458,256.178217L187.454866,255.656157L184.519010,254.275200L182.092524,252.964860L184.707873,252.849157L182.583876,251.571930L186.242248,251.770282L181.279289,249.698430L185.964442,250.225905L187.927512,250.047923L188.125871,249.379013L188.767979,248.844715L188.530876,248.043741L191.906662,248.392155L191.030843,247.396798L189.639383,246.208940L188.391637,245.043110L190.205434,244.937207L191.097982,244.524116L189.197771,243.083658L189.536706,242.458162L191.828051,242.594912L187.490028,240.125992L189.600575,240.202419L184.380985,237.259098L187.887184,237.929393L190.994732,238.485007L191.734887,238.041590L191.920216,237.355171L193.159678,237.154276L190.653082,235.203652L187.510371,232.893898L191.784630,234.158547L189.708997,232.321491L186.405415,229.811795L185.119471,228.279975L191.047228,230.536505L195.084925,231.883476L196.043176,231.611951L193.518103,229.403716L191.547047,227.452942L191.986685,226.852659L196.785136,228.826957L198.455954,229.014565L200.239979,229.298981L198.303268,227.299649L195.892359,224.951077L198.602230,225.837438L204.190222,228.658189L200.240365,225.246485L195.385492,221.126046L200.598179,223.813460L202.429878,224.245638L201.896667,223.029616L202.105851,222.328379L201.555624,221.064846L199.981327,219.014157L202.668382,220.146975L201.809056,218.602051L205.652145,220.706923L204.430523,218.868386L207.870596,220.755188L203.051267,215.939012L205.285605,216.868533L206.201780,216.728239L208.189391,217.522079L208.168313,216.602134L208.358140,215.856568L210.805832,217.138801L207.960569,213.631737L205.878035,210.739799L206.066183,209.917641L205.996627,208.839270L208.999235,210.735134L213.065375,213.757901L213.943885,213.689270L213.215197,211.994252L212.987937,210.780355L212.431677,209.197401L214.338625,210.210772L212.510668,207.219423L214.382127,208.224474L215.762483,208.726371L213.771031,205.427150L214.533256,205.216670L216.724391,206.689233L217.420064,206.442116L218.678835,206.882280L217.269250,204.071953L216.822406,202.387614L218.525672,203.389982L217.541204,200.976026L218.294075,200.772519L215.425732,195.759989L213.992246,192.538467L215.269639,192.950669L218.294616,195.831449L221.471150,199.037047L221.911384,198.415665L221.621173,196.715923L223.493902,198.198028L222.197489,194.938573L222.260196,193.677573L227.277721,200.157808L227.709174,199.558791L227.994556,198.714542L225.664936,193.535337L224.148089,189.552053L228.665673,195.760517L228.395747,193.871151L230.353333,195.873968L227.127896,188.609460L231.005886,194.144867L231.547485,193.653906L232.123458,193.222605L232.747827,192.881506L235.395111,196.546980L234.753758,193.726363L236.325147,195.362922L235.691773,192.446483L235.216159,189.762215L236.179255,190.125873L235.260068,186.316589L234.403346,182.501966L235.770284,183.712091L235.781099,181.763888L236.798295,182.188194L239.337540,186.424973L240.186051,186.572445L239.232776,182.057108L241.203564,185.118830L243.119848,188.191209L242.964467,185.647145L243.017484,183.584579L243.209926,181.838565L245.666949,186.822451L246.905432,188.321898L247.495418,187.859313L248.451960,188.576179L247.649543,183.457788L247.208196,179.299137L249.182385,183.470510L248.497847,178.195881L248.665767,175.815654L249.953281,177.647526L250.683198,177.374319L251.763203,178.548425L253.400684,182.212131L254.413391,183.371914L255.147405,183.343524L256.404794,185.834390L256.314849,181.817293L257.235356,182.726311L256.951194,177.198083L258.414656,181.080158L258.725857,178.507992L260.370904,183.992502L260.782382,181.985471L261.264563,180.259766L261.253608,174.751952L262.378813,177.376399L262.815305,174.681554L264.593261,183.432317L265.546810,185.696851L265.979291,183.019557L266.566080,181.601900L267.449141,183.519127L268.137629,183.244435L268.798990,182.513900L269.835035,187.922147L270.247145,182.868475L270.763929,178.434265L271.529020,178.989158L272.354170,181.971232L273.055693,181.223400L273.729357,177.470252L274.481045,177.537884L275.234621,176.348070L276.017202,174.102194Z" />
<line x1="50" y1="625" x2="100" y2="625" fill="none" stroke="green" stroke-width="1.0" stroke-linejoin="round" stroke-miterlimit="10" />
<text x="125" y="628" style="text-anchor:start;fill:black">n0_4mer:PS</text>
<path style="stroke:red;stroke-width:1.0" d="M277.034216,142.951678L277.911032,149.040639L278.721323,154.253974L279.772665,151.136411L280.776921,150.089276L281.763223,149.687088L282.761489,149.204742L283.660568,150.271628L284.741155,148.786145L285.678847,149.267861L286.792496,147.784502L287.533136,150.257172L288.758687,147.909104L290.005002,145.711706L290.300644,151.480474L291.033660,153.257099L291.713716,155.227572L293.051636,152.538903L294.250561,151.031961L295.190699,151.270908L296.149284,151.394333L297.488180,149.397108L297.642111,153.921042L298.368701,155.152387L299.637717,153.628789L300.145833,155.841117L301.431310,154.356987L301.754555,157.228483L302.548130,157.917494L303.635569,157.367489L305.365614,154.313460L307.369900,150.411208L308.689710,149.317182L310.722844,145.722594L311.897837,145.368324L311.379291,150.830714L312.434894,150.782037L311.703051,156.521570L312.589425,156.886847L313.026309,158.623813L312.960725,161.785910L314.699947,159.556806L316.470540,157.362597L318.421667,154.789124L319.475857,154.777068L319.548589,157.372876L319.791980,159.425953L321.189140,158.492413L322.161170,158.664274L322.569631,160.204432L324.194375,158.822167L326.090183,156.887220L326.642346,158.090468L327.170498,159.314070L327.188661,161.612599L327.655004,162.881422L327.482214,165.450465L328.333601,165.839343L329.163617,166.271963L331.844571,163.059047L331.306368,166.202997L332.621570,165.731939L333.010075,167.019378L332.735135,169.488769L333.652149,169.746415L334.023664,170.972398L333.599271,173.549110L335.595576,171.934236L336.712434,171.861288L338.003851,171.520483L339.295959,171.206724L339.366608,172.858629L340.078733,173.470948L341.776201,172.568091L349.257946,162.986984L352.144163,160.557337L353.040991,161.129301L347.614886,170.777388L345.796668,175.037575L346.391912,175.825710L346.722081,176.968540L348.533008,176.101029L348.042493,178.324984L349.517446,177.936426L349.950407,178.913913L352.974577,176.609219L355.472840,175.048245L356.594851,175.237662L359.159901,173.703804L359.325768,175.080137L358.098809,178.058943L358.468583,179.132024L354.818849,184.737366L356.235776,184.548723L357.800055,184.223385L357.158015,186.309149L358.204645,186.555690L361.329532,184.638908L361.077147,186.281455L362.147318,186.551971L363.046055,187.005983L363.174360,188.225002L367.149965,185.699298L368.510233,185.767513L370.830765,184.953229L371.091521,186.091937L370.734920,187.780959L370.446823,189.379531L369.331593,191.682315L366.793946,195.173876L370.095896,193.580362L370.387256,194.595961L371.965275,194.535206L371.542305,196.134000L371.019716,197.786430L371.229510,198.830806L371.551627,199.778226L374.411560,198.773333L372.947278,201.087175L375.707243,200.214923L378.984460,199.016908L380.172816,199.384329L380.680196,200.247597L384.482826,198.816279L381.472693,202.121688L379.450506,204.681181L376.759902,207.625823L374.690726,210.094750L373.786103,211.761826L376.424702,211.168759L381.653002,209.019767L381.028464,210.530105L382.327450,210.867397L383.305586,211.409902L379.436031,214.758788L381.782438,214.496709L382.521662,215.167252L382.119489,216.467100L384.042825,216.502326L383.728695,217.744991L385.032380,218.136729L385.938769,218.746821L389.515993,218.037550L389.932729,218.930429L395.922068,217.157385L396.420360,218.064129L392.455413,221.023088L388.698169,223.806783L386.076931,226.012546L388.783177,225.862438L389.721783,226.502139L392.880133,226.233808L394.165378,226.773730L395.053951,227.487024L398.346509,227.279574L401.760750,227.077929L402.986955,227.737885L401.801157,229.282569L399.567343,231.169237L397.449442,232.971599L394.323102,235.069380L392.345015,236.733889L393.333004,237.417637L391.875467,238.869239L393.917785,239.239067L392.532651,240.640556L390.245353,242.270668L393.367889,242.367061L391.657436,243.803486L394.182770,244.109865L393.034339,245.375887L394.584039,245.964243L398.110158,246.110436L397.479576,247.252036L395.770048,248.615674L393.641025,250.036704L396.853248,250.339431L395.492470,251.579495L394.425710,252.740116L391.209784,254.264478L391.902682,255.068745L390.538030,256.216075L394.137669,256.571656L392.726984,257.717312L397.103363,258.034599L394.624206,259.317317L399.634833,259.636010L398.297115,260.764195L397.604139,261.800371L396.887088,262.826567L396.889477,263.773886L398.785640,264.560182L398.872722,265.513199L398.667995,266.486521L398.688506,267.441896L395.641982,268.560399L396.470044,269.454169L395.840845,270.415352L397.800311,271.288032L397.141086,272.249459L396.422538,273.201276L397.931060,274.125973L396.155878,275.071860L397.774408,276.018563L397.384503,276.958187L399.832896,277.959321L398.065280,278.866102L395.529673,279.716033L393.811847,280.565710L394.122647,281.500223L397.737708,282.646156L399.133613,283.693496L400.727333,284.778869L401.779543,285.843794L396.174038,286.305199L398.208528,287.453042L396.026732,288.175055L394.145069,288.899652L395.732235,290.028325L395.032110,290.881017L397.350135,292.147652L396.547704,292.990901L396.287698,293.908260L399.259381,295.353151L402.864743,296.956345L407.881329,298.872940L407.780122,299.912045L406.739677,300.768878L407.416153,301.961832L404.795297,302.471095L402.878447,303.096256L402.334715,304.006751L399.569398,304.387946L400.890610,305.725220L399.468860,306.396039L400.703368,307.739344L397.358217,307.876592L395.567463,308.393285L393.756158,308.878677L392.969356,309.639063L394.664404,311.140300L395.189542,312.311528L399.531699,314.713745L397.985397,315.266903L395.740176,315.564163L392.850769,315.606328L389.728492,315.521836L386.005296,315.171185L388.701726,317.140305L390.055765,318.653047L388.923490,319.230279L390.998243,321.067104L389.107637,321.337005L388.981954,322.311972L388.070028,322.957772L387.654449,323.808757L388.446202,325.193191L385.788286,325.041177L385.418374,325.901757L382.531880,325.579043L382.368127,326.515735L383.402434,328.043075L381.074665,327.920628L382.059479,329.445875L381.719769,330.311862L385.489890,333.349947L385.388708,334.388435L384.927975,335.236978L386.267100,337.089954L385.339271,337.691631L383.201579,337.584448L381.590435,337.753220L382.571503,339.451726L381.213084,339.754854L380.517286,340.450830L379.834618,341.151003L379.391768,342.001369L378.586039,342.616457L378.653891,343.805166L377.583669,344.239000L374.512360,343.287604L373.549694,343.749545L372.268661,343.975804L371.860642,344.813944L372.654176,346.535303L373.114961,348.040783L375.042632,350.680440L375.081499,351.929057L373.456290,351.893523L371.675176,351.708662L369.507261,351.182120L368.672959,351.707467L370.163859,354.160735L368.759258,354.222200L371.183438,357.548711L371.724962,359.315968L371.441384,360.385008L370.838644,361.177343L366.768628,358.804993L365.215670,358.670321L364.360926,359.167249L365.242269,361.318781L363.671028,361.133536L360.613255,359.454692L363.816994,363.975345L361.878791,363.384965L361.974238,364.856201L362.974979,367.302347L362.243640,367.958363L363.509555,370.775078L362.971568,371.676413L363.213729,373.455503L368.640044,381.145714L366.299966,380.114242L358.536349,372.685758L355.240416,370.308170L352.806695,368.875709L352.956380,370.544796L351.932411,370.786738L351.092628,371.250415L348.540550,369.509621L349.008224,371.637394L349.013670,373.202394L349.654104,375.655951L348.366156,375.528648L346.697567,374.848481L345.672055,375.037869L346.680519,378.142175L345.620583,378.306060L343.859451,377.414279L342.705369,377.392437L343.200541,379.888550L343.381943,381.961442L342.669122,382.664971L341.077529,381.952469L339.030066,380.446407L338.601151,381.582035L337.217107,381.111696L336.485886,381.740538L336.808201,384.236978L336.100920,384.954550L333.888824,382.923423L334.671544,386.390046L333.420870,386.103004L331.065528,383.647182L332.088788,387.752990L331.211660,388.175460L331.341726,390.665208L329.613440,389.346102L328.922284,390.171880L327.192491,388.750805L326.163815,388.813727L325.580190,389.873482L325.746828,392.701982L324.921336,393.285219L324.566810,395.017553L322.380472,392.276072L319.553595,387.772371L319.029145,389.006933L317.686556,388.115507L317.593956,390.557024L316.444516,390.164596L315.066594,389.086323L313.968197,388.753960L313.486617,390.235855L314.048219,394.985569L313.212117,395.564494L312.603233,396.895616L310.712516,394.013529L310.072005,395.235700L309.421834,396.479949L309.124416,399.065938L308.406957,400.221768L306.661454,397.458721L304.460701,392.679781L302.894411,390.182270L302.296986,391.635538L302.164377,395.235587L302.344250,400.522108L303.854648,412.541281L302.564657,411.621084L301.882273,413.743120L300.868632,414.246810L299.537498,412.992296L298.431293,412.926760L295.566953,401.982263L294.490328,401.501544L293.100597,398.811075L292.056140,398.294613L290.946254,397.198809L289.735599,395.125869L289.093220,397.702945L288.021261,396.627368L287.096805,396.853037L286.093113,396.235287L285.251512,397.422742L284.394234,398.630207L283.328346,397.038553L282.401522,397.321609L281.740266,402.702380L280.832243,404.433750L279.916710,406.661150L278.789997,402.901762L277.734225,399.713572L276.775266,399.855348L275.783314,395.235700L274.851217,400.220422L273.929953,395.347552L273.060607,391.862634L272.009726,398.048187L271.096830,396.933325L270.243114,394.749790L269.201689,397.221231L268.205299,398.172022L267.200429,399.011171L266.097854,401.036727L265.204653,399.977214L264.472725,397.222414L263.508315,397.385462L262.729562,395.684060L262.016382,393.612107L261.089231,393.627009L259.714519,397.204848L258.837176,396.605531L258.198675,394.362280L256.979457,396.249802L255.961052,396.650339L255.030453,396.464266L254.081341,396.388587L253.559907,393.932960L252.369176,395.226540L251.437774,395.079177L250.399407,395.452874L249.438937,395.417022L248.467523,395.419078L247.880173,393.725175L247.276747,392.200995L246.330431,392.165262L244.649654,395.022036L242.722831,398.627180L242.456437,395.831806L241.693073,394.978080L241.237370,393.082981L240.949363,390.710615L240.523150,388.911590L239.642112,388.657493L236.111691,396.693141L235.949585,394.030366L233.343469,398.747665L233.249249,395.938494L234.228303,390.217544L233.782023,388.686442L231.774250,391.417808L231.913982,388.357830L231.739290,386.229960L229.519296,389.323312L227.690645,391.303529L226.384169,391.926604L224.933542,392.846553L225.434868,389.213864L225.203520,387.368800L224.888634,385.767937L224.349844,384.700849L223.950440,383.364739L223.218288,382.758017L220.678703,385.847571L217.868412,389.344778L216.728159,389.414108L217.647045,385.496904L217.037563,384.598129L215.860642,384.769133L214.762467,384.773938L215.355173,381.736047L211.294111,386.969223L211.813299,384.092977L212.320277,381.320837L211.849908,380.256930L211.821716,378.488539L212.005718,376.422153L210.221107,377.524899L210.837573,374.837802L207.809787,377.799356L207.149076,377.084454L204.457497,379.380923L205.622665,375.971534L204.579766,375.816662L203.517142,375.677054L203.684283,373.820199L202.544993,373.786321L200.351682,375.149876L201.313492,372.286463L200.227964,372.155600L198.351292,373.022529L198.079029,371.824364L198.247195,370.099349L194.989182,372.588393L195.129035,370.901539L196.030080,368.347955L194.989012,368.114384L185.785683,377.221348L190.840369,369.943444L190.933636,368.379186L189.867010,368.111490L188.577294,368.072227L188.919337,366.283519L191.051565,362.659696L189.522173,362.891298L190.778541,360.275268L188.795131,360.949100L188.694261,359.734079L188.610688,358.519033L190.234188,355.695569L185.840254,358.578818L183.400961,359.549311L182.161573,359.378227L182.893592,357.426341L184.151884,355.048669L183.048459,354.771182L177.820402,358.003441L170.224010,363.104934L164.344791,366.602970L167.191210,362.855945L172.252152,357.422790L178.061432,351.542969L178.105119,350.304062L176.444920,350.383855L177.424599,348.450112L175.741073,348.526452L177.796172,345.851081L173.655380,347.680529L173.738204,346.446413L172.045179,346.459499L173.720003,344.147161L175.316607,341.937210L172.710059,342.550148L170.066538,343.140939L171.795188,340.893797L171.145775,340.187830L172.760170,338.081931L172.973281,336.870468L172.343854,336.175630L172.425967,335.060856L168.218400,336.424945L165.058227,337.120650L167.729068,334.526139L170.064417,332.177490L170.692256,330.797707L165.197994,332.653394L153.940758,337.379369L148.392921,339.008731L147.768935,338.098400L147.142144,337.186785L148.473240,335.338669L154.394932,331.378573L160.855227,327.291058L163.345788,325.113182L163.499398,324.015880L164.868050,322.405338L163.397740,322.022629L164.831443,320.422493L161.893250,320.617762L160.045291,320.336721L158.257927,320.005638L149.865831,322.137010L139.390904,324.893450L142.455343,322.610047L145.781553,320.294569L152.951946,316.728338L156.455756,314.513164L157.224917,313.251347L158.980209,311.695745L157.714947,311.104516L155.389116,310.814195L155.057060,309.909177L154.003471,309.207089L154.863486,307.966742L155.429751,306.823030L156.382973,305.592902L158.615538,304.062839L158.133070,303.228786L154.945382,303.021835L156.998936,301.585749L151.032197,301.928396L152.523377,300.618171L153.305548,299.477708L153.120611,298.539591L145.923231,298.899839L137.917119,299.291647L132.356522,299.145258L132.410207,298.007795L131.489041,297.023585L132.595985,295.732256L132.281298,294.656657L133.121243,293.428521L132.664433,292.374054L131.442827,291.401917L131.490870,290.277524L134.633027,288.850408L139.280617,287.336987L142.971585,285.976768L144.596979,284.830836L148.502876,283.556995L146.732909,282.684674L150.964415,281.472718L154.119066,280.374782L151.350887,279.543833L152.288639,278.563112L153.451804,277.592466L152.839284,276.664247L153.395184,275.719870L149.919668,274.776954L153.175603,273.844324L153.022241,272.903115L154.006022,271.987606L153.431738,271.036101L153.180964,270.088312L150.379426,269.013537L154.430602,268.276906L152.525006,267.223876L153.265985,266.328958L148.033650,264.972732L149.416251,264.107919L151.160705,263.297460L151.223576,262.340730L148.335827,261.058701L144.353668,259.600973L142.680910,258.369448L143.933207,257.500286L149.349041,257.237230L149.592146,256.285194L154.764337,256.109151L155.511904,255.282319L158.104142,254.783932L157.783775,253.797360L156.330552,252.589150L156.125186,251.600628L156.430850,250.710621L155.186424,249.492515L156.738105,248.869027L154.092676,247.306005L153.986736,246.298927L152.992899,245.068706L151.865168,243.784543L151.738119,242.739846L151.169407,241.569732L155.656109,241.792628L155.417055,240.731508L157.221132,240.264563L159.570955,239.988881L158.918503,238.812252L160.425192,238.311274L159.100670,236.900384L157.594678,235.400665L156.531290,234.022963L157.216926,233.241567L161.640227,233.824122L161.737239,232.869009L161.096106,231.628842L162.588115,231.202577L160.299219,229.290056L161.581345,228.785464L160.308677,227.233491L161.123671,226.540257L161.443270,225.639725L162.750885,225.176627L164.219401,224.803473L165.268136,224.256287L162.520787,221.930345L161.442673,220.348306L164.073073,220.557932L166.197279,220.556534L165.058860,218.923855L162.867404,216.713319L166.581769,217.578983L168.528426,217.555467L168.197109,216.310088L168.570919,215.443574L166.262484,213.047141L168.491964,213.225830L169.479918,212.707707L169.571793,211.661801L171.186353,211.538415L170.331113,209.902798L169.100679,208.000821L174.590029,210.385400L178.535111,211.868074L176.123899,209.196662L173.426259,206.266559L175.872239,206.802649L176.736123,206.275844L177.479682,205.671172L176.176030,203.592092L177.518780,203.412972L177.778093,202.444059L173.395131,197.947467L171.203228,195.018452L166.723739,190.229514L166.621181,188.794485L167.441656,188.086043L165.405429,185.036447L166.567523,184.583395L167.856662,184.250110L174.851075,188.840750L180.054175,192.035857L184.352642,194.552127L184.112385,193.078751L185.304431,192.892184L185.153561,191.473002L185.607363,190.601893L185.534125,189.219736L184.804598,187.176845L187.242227,188.223496L188.301037,187.939488L190.850890,189.187998L188.835014,185.767608L188.460317,183.986916L189.068270,183.220833L189.489617,182.249078L191.475027,182.990437L193.240021,183.528737L194.786195,183.855185L195.127374,182.820772L194.682298,180.851455L196.676926,181.744178L198.084737,181.974716L198.597393,181.131694L198.930467,180.056398L199.481063,179.241226L200.367149,178.850749L197.125470,173.063029L199.561081,174.658343L199.614697,173.104958L201.002917,173.353016L201.175242,171.930436L202.989707,172.809976L201.888674,169.531395L204.882105,172.166816L205.222932,170.953747L207.159642,172.137545L208.210693,172.013866L209.418490,172.149422L209.774850,170.948865L211.171167,171.411747L211.705106,170.484129L208.747091,163.673307L210.349809,164.437313L212.517831,166.230818L213.502734,166.010126L213.602791,164.201903L216.821956,168.076755L217.967289,168.230846L219.171777,168.520175L219.227479,166.604263L221.057056,168.144838L221.407803,166.775416L221.577170,164.994719L221.202476,162.016659L221.692831,160.788178L222.589261,160.413954L223.011275,158.982251L223.700208,158.115246L224.808814,158.204649L226.443676,159.565791L227.671724,160.015007L227.952765,158.148552L230.373631,161.648864L229.778949,157.490871L231.444513,159.164766L233.233479,161.270894L232.450273,156.321170L233.613947,156.706510L234.894721,157.470693L236.030325,157.853971L237.953705,160.703796L239.155111,161.435351L239.641215,159.893903L239.325256,155.596330L239.871586,154.035577L241.555976,156.433106L242.008922,154.493859L242.537683,152.735046L243.409383,152.212470L244.506499,152.576465L245.247626,151.503490L247.345814,156.201191L248.506066,157.079246L249.322985,156.453042L250.722712,158.588318L251.260317,156.610376L251.715240,154.053545L252.092443,150.869740L251.659047,142.824351L252.284692,140.317294L253.015892,138.237027L253.756659,136.021773L255.190076,138.360967L257.027080,143.929229L258.649449,148.530146L259.839147,150.178393L261.322710,154.655115L262.231010,154.372884L263.253160,155.222331L263.974709,152.904792L265.130884,155.432764L265.977943,154.367649L266.843604,153.349930L267.730244,152.436778L268.766157,154.160322L269.616944,152.287535L270.639881,154.394674L271.529953,152.991342L272.421721,150.646096L273.389737,151.402343L274.308461,145.125691L275.318966,140.883347L276.341999,141.885147Z" />
<line x1="50" y1="600" x2="100" y2="600" fill="none" stroke="red" stroke-width="1.0" stroke-linejoin="round" stroke-miterlimit="10" />
<text x="125" y="603" style="text-anchor:start;fill:black">n0_4mer:D</text>
<path style="stroke:black;stroke-width:1.0" d="M277.774022,94.928229L279.201728,93.192689L280.634382,92.180815L282.066506,91.605025L283.501480,91.177858L284.879448,91.947867L286.232202,92.952757L287.640208,92.957376L288.980507,93.857870L290.435703,93.260901L291.872074,92.986849L293.179857,94.055131L294.499099,94.884127L295.888804,95.014833L297.352957,94.548331L298.814106,94.180506L300.368632,93.205437L301.779150,93.332033L303.104815,94.013131L304.365204,95.049318L305.830581,94.812597L307.224228,95.018508L308.641809,95.100025L309.990660,95.548557L311.389314,95.737645L312.774223,95.998800L314.315121,95.550151L315.854084,95.163429L317.326883,95.106209L318.646264,95.704813L319.913183,96.494908L321.491185,96.059672L322.771047,96.785352L324.258926,96.736862L325.644284,97.073488L326.661821,98.668595L327.885068,99.514652L329.028067,100.595956L330.354702,101.064950L332.100556,100.248754L333.727116,99.852211L335.082637,100.286127L336.385080,100.872020L337.711795,101.385298L338.960506,102.108006L340.361209,102.418753L341.652491,103.020592L342.804769,103.969106L343.556570,105.886759L344.948116,106.200419L346.314519,106.583057L347.639469,107.068531L349.567339,106.192161L350.963072,106.555018L352.336725,106.974799L353.867843,107.066285L355.099652,107.802792L355.874782,109.469375L357.292369,109.806311L358.205781,111.147338L359.505663,111.715399L361.303232,111.342764L362.691456,111.770113L363.844167,112.636867L365.195637,113.140387L366.575462,113.600737L367.559606,114.754758L369.678256,113.963708L371.358788,113.957555L372.706934,114.523041L373.946744,115.269793L374.707625,116.777066L374.972191,119.033814L375.665389,120.583490L376.720599,121.561456L377.871540,122.391009L379.397379,122.672329L381.232272,122.527063L382.490297,123.227450L383.787654,123.877301L385.494747,123.973130L386.833824,124.587955L388.983895,124.137202L389.693421,125.604737L389.549021,128.148666L388.580305,131.680788L388.842017,133.601865L389.389599,135.141004L389.640638,137.016703L391.506390,136.948456L392.444276,137.992354L394.029732,138.288210L397.845298,136.081183L400.490517,135.273662L401.259788,136.576950L402.449726,137.416045L402.143719,139.849630L401.721504,142.360645L403.122478,142.945903L403.495348,144.586804L404.071643,146.004641L404.990159,147.072836L404.777677,149.235030L405.805883,150.178001L407.045912,150.923896L407.502212,152.403179L408.461106,153.410618L409.617071,154.241903L411.049236,154.835513L413.008488,154.984648L414.384678,155.660992L416.303457,155.892175L417.033942,157.135828L417.589073,158.518113L417.459134,160.442504L417.984437,161.822563L419.078804,162.750590L419.631623,164.099552L422.008378,164.064762L421.935146,165.886137L422.629957,167.124451L424.238106,167.702887L423.723139,169.801367L425.278153,170.428814L426.244250,171.476502L425.388288,173.754662L427.841949,173.804930L429.423612,174.460025L431.256899,174.971750L432.710501,175.745511L431.397207,178.245817L431.326023,179.947012L431.173568,181.679816L432.685536,182.417161L435.299935,182.535146L437.258267,183.063917L438.726306,183.890966L439.138010,185.310683L439.956199,186.506751L440.046687,188.088724L440.511341,189.465939L441.655887,190.494614L441.551924,192.153881L440.724474,194.151836L439.718326,196.207610L439.460125,197.882123L440.515009,198.937187L441.700163,199.942347L442.696600,201.041983L443.226879,202.350784L443.413015,203.804532L442.928291,205.529232L443.991503,206.609080L445.768718,207.415969L446.564066,208.625116L448.251324,209.502106L448.785886,210.825581L448.534141,212.433259L448.751491,213.863106L449.016247,215.272292L448.937666,216.793009L448.988640,218.262450L449.897120,219.452969L450.905050,220.620895L450.720106,222.157484L451.757894,223.326675L451.729771,224.809280L451.701372,226.285056L453.484402,227.269728L454.125104,228.573837L455.398940,229.723697L456.082504,231.032028L455.052664,232.748060L454.348604,234.368257L454.717330,235.737611L455.503777,237.020143L457.886263,237.987616L459.086329,239.218555L458.680541,240.763590L457.732706,242.394672L456.216144,244.103658L456.374720,245.512488L457.609556,246.753755L457.240372,248.246545L457.973494,249.577124L458.089521,250.997041L456.928954,252.573247L458.089831,253.860567L458.831430,255.208607L459.028185,256.620246L459.575114,258.000491L459.551094,259.435352L459.441140,260.874562L458.858511,262.342921L458.264246,263.801464L458.944291,265.181463L458.090312,266.640837L458.811376,268.026277L460.484101,269.393247L460.796751,270.815973L461.785982,272.232998L461.864261,273.671415L460.868826,275.110243L459.699857,276.532309L459.082576,277.945374L459.654334,279.377464L459.290257,280.789487L459.964730,282.237220L460.303107,283.680475L460.268195,285.109618L461.020810,286.588486L460.738962,288.007926L459.337006,289.337435L458.810048,290.721766L458.608808,292.130188L458.359466,293.532672L458.683542,294.995919L458.101878,296.360954L457.448079,297.710496L457.552783,299.152902L458.240341,300.681554L457.987617,302.084938L456.748312,303.333824L456.068195,304.658190L455.908299,306.064741L455.282204,307.388795L455.850611,308.930972L454.884545,310.186232L452.880897,311.219108L451.777178,312.414782L450.616802,313.584881L450.472840,314.972579L450.500424,316.403403L449.969828,317.703633L450.011477,319.144914L450.053379,320.592516L450.566275,322.173137L451.366356,323.847773L451.321472,325.300871L450.125107,326.421571L449.388725,327.667800L448.798769,328.953925L447.937324,330.150527L449.218237,332.041152L449.081807,333.484948L449.122567,334.995181L449.633666,336.680203L447.707448,337.500287L446.517554,338.568094L445.555270,339.709988L445.587847,341.229958L446.885168,343.261827L446.226848,344.532063L446.979370,346.385713L443.466551,346.453775L441.683741,347.217532L442.357233,349.045613L441.280605,350.106109L440.810675,351.437048L441.766805,353.440974L440.943486,354.620470L440.426324,355.945793L441.688450,358.160834L439.438292,358.626287L438.134393,359.551036L436.759716,360.425652L436.074879,361.657278L436.608576,363.556277L436.107235,364.902054L435.399086,366.134192L434.746446,367.398310L433.900700,368.549957L433.883172,370.195237L432.931702,371.286107L432.705906,372.822669L431.598818,373.814391L430.790939,374.990702L429.963763,376.153598L429.190413,377.351169L428.231652,378.423931L427.399526,379.579959L427.112355,381.115552L426.025311,382.096080L424.668517,382.876112L422.864952,383.316558L421.805607,384.288087L419.563605,384.359750L418.300644,385.150063L417.999681,386.681531L417.899046,388.385825L418.666303,390.809128L418.679183,392.656859L417.326523,393.392342L415.675059,393.863863L414.081740,394.365856L411.725751,394.184994L410.925316,395.342364L409.789794,396.201906L409.239918,397.590645L409.611574,399.845203L408.900732,401.118391L408.078873,402.292966L406.843324,403.070373L405.924109,404.152376L405.411151,405.643659L404.804085,407.054433L404.017799,408.292910L402.780234,409.065568L401.144888,409.407760L399.274314,409.475674L398.428303,410.641615L397.454900,411.672136L395.720332,411.842586L395.220137,413.410222L394.158546,414.341651L393.315183,415.532717L393.146607,417.546814L391.894926,418.268605L390.740915,419.106293L389.689481,420.072006L388.898741,421.375393L388.832018,423.637935L387.570843,424.360600L386.603188,425.474313L385.367103,426.228525L383.469765,426.058701L382.771835,427.553433L381.365243,428.050547L380.147890,428.813716L378.932069,429.577590L376.441976,428.413110L374.916512,428.665908L373.346055,428.830608L372.357784,429.901123L371.983073,431.975892L370.738594,432.664849L369.207386,432.871593L367.425759,432.632754L366.083998,433.123360L364.887925,433.863795L363.406517,434.092510L362.507777,435.372348L361.328895,436.151846L360.055918,436.756716L359.426566,438.606923L357.892762,438.717028L356.228822,438.544525L355.360834,439.974579L353.985309,440.374352L352.937054,441.464706L351.782832,442.344167L350.091716,442.041259L348.500528,441.928229L347.365966,442.845319L346.119546,443.512939L344.848044,444.125091L344.081774,445.991102L343.102534,447.378556L341.732178,447.793065L340.553690,448.711340L338.893726,448.343108L337.061316,447.453852L335.859509,448.292437L334.482348,448.637817L333.602472,450.466343L332.307179,451.090860L330.865986,451.264882L329.414461,451.391327L327.626559,450.380322L326.347590,451.032522L324.557279,449.895262L323.188729,450.199481L321.973114,451.072794L320.709343,451.792503L319.871418,454.237374L318.671890,455.331013L317.133397,455.029083L315.412060,453.872787L313.692430,452.615237L311.589035,449.408737L309.703034,447.001638L307.568578,443.090922L306.053629,442.156844L304.837355,442.797266L304.220252,447.003088L304.133729,454.874323L303.341271,458.948399L302.073610,460.187965L300.439050,458.892595L298.733859,456.876522L297.283484,456.656870L296.104661,458.748213L294.808426,460.024075L293.390041,460.245809L292.083329,461.701621L290.830384,464.045189L289.410675,464.647679L287.857498,463.406019L286.316005,462.014499L284.789469,460.473172L283.348694,460.280809L281.985642,462.063635L280.542295,462.036918L279.118134,462.836473L277.675762,463.187629L276.218695,462.065039L274.776824,462.831471L273.340335,461.661580L271.919781,460.605772L270.468012,461.488884L269.079653,459.949023L267.662146,459.723048L266.192081,460.660047L264.709215,461.547852L263.216075,462.361388L261.756478,462.501999L260.297923,462.581374L259.095909,459.647631L257.660048,459.669008L256.277292,459.144402L254.829488,459.268123L253.241804,460.547598L251.872171,459.903108L250.301987,460.822412L248.991597,459.772468L247.385316,460.803222L245.885337,461.029642L244.542484,460.257076L242.906201,461.236648L241.634512,460.085773L240.209819,459.823273L239.107346,457.918214L238.102183,455.664269L237.002391,454.005035L235.638125,453.645992L234.021009,454.397819L232.620211,454.162004L231.048275,454.619560L230.058300,452.724311L228.769607,452.070458L227.501321,451.359029L226.144268,450.987923L224.374265,452.060782L222.778969,452.457110L221.149226,452.923079L219.676334,452.837241L219.027351,450.155146L217.516147,450.217706L215.984714,450.314740L214.966492,448.897761L212.844720,450.645835L211.753524,449.444923L210.664071,448.272824L208.793847,449.186110L207.870990,447.599044L206.663632,446.774822L205.417877,446.058061L204.159906,445.378485L202.727404,445.115417L201.598345,444.140811L200.718059,442.621741L199.382726,442.147099L198.333287,441.048916L196.667589,441.279031L194.733912,442.034155L194.005297,440.277094L192.566969,439.983803L191.451763,439.043162L190.110016,438.550081L188.338413,438.863845L186.960179,438.411563L186.341560,436.566812L185.288719,435.540788L184.932646,433.302032L183.759806,432.527837L182.117377,432.552676L180.739308,432.111269L178.743700,432.671643L176.925200,432.902545L174.616674,433.875676L175.146415,430.373835L175.436777,427.329257L174.522409,426.172591L173.696940,424.896963L170.888670,426.523273L168.385898,427.633372L166.721198,427.500769L165.396091,426.875078L163.756276,426.671481L162.075767,426.501712L162.716137,423.245591L163.567607,419.790507L162.933066,418.317279L161.218106,418.223094L158.155362,419.774500L155.006598,421.354751L154.842876,419.273367L155.325763,416.463297L155.991373,413.498664L158.355964,408.650193L155.837260,409.431684L153.776460,409.652612L151.663069,409.895831L147.139934,412.697853L146.511912,411.254118L146.209802,409.483860L145.195150,408.469898L145.225083,406.398707L143.366898,406.242548L141.476707,406.091784L140.578747,404.955116L140.260813,403.269347L141.411038,400.226999L142.076388,397.693425L141.829102,396.035271L139.046874,396.664920L136.453510,397.076963L135.668375,395.875065L137.127450,392.760274L139.372431,389.047675L140.799538,386.094281L138.397199,386.320868L134.540250,387.674714L131.380579,388.402304L128.033693,389.218210L126.860356,388.310623L125.292776,387.692464L124.790811,386.268064L124.493837,384.702721L125.349851,382.323429L126.110910,380.050392L125.069929,379.064362L123.405510,378.498508L121.076725,378.359188L118.156985,378.575863L115.948356,378.283815L115.684347,376.719224L114.545539,375.714998L114.838448,373.819609L115.001318,372.025499L114.333869,370.745380L113.784526,369.397570L112.628718,368.402300L112.578014,366.773664L111.941504,365.483438L112.281268,363.662477L114.127516,361.056082L115.273588,358.867045L118.266262,355.761713L120.516109,353.102409L121.352668,351.199164L121.916996,349.455651L117.906361,349.915544L113.789160,350.360325L109.212735,350.949088L104.640722,351.461473L104.514588,349.945715L104.137563,348.546247L104.624501,346.786215L105.151470,345.028544L104.118544,343.919225L104.767349,342.137660L104.873483,340.586059L104.385031,339.269252L103.683850,338.030829L102.085689,337.110829L100.279243,336.244362L99.647062,334.953325L99.439516,333.517816L99.017753,332.156045L98.833021,330.719619L98.636066,329.291099L97.756031,328.070841L96.572267,326.931071L95.443712,325.762596L94.877185,324.427624L94.683012,322.990474L94.984497,321.428382L94.450271,320.085809L93.500736,318.840494L93.509306,317.361572L94.127468,315.750748L95.761388,313.934370L96.274426,312.383642L95.366707,311.131567L95.486513,309.670949L97.302226,307.902499L98.875904,306.209909L101.709954,304.332802L102.167956,302.887580L101.389853,301.642689L101.449574,300.266787L100.962865,298.970147L101.614018,297.520969L100.117875,296.346818L98.927709,295.116885L99.660600,293.666073L97.357261,292.528514L95.721034,291.296584L93.632368,290.078802L92.449507,288.762135L91.276233,287.428135L91.360660,286.002108L91.755775,284.562483L89.177219,283.262320L89.293993,281.824287L88.134765,280.425918L89.460875,278.957310L90.310925,277.516097L91.559659,276.085920L93.581986,274.676491L91.227171,273.256657L91.196053,271.840279L88.838786,270.365133L87.705488,268.893007L88.445113,267.478192L92.154838,266.216573L92.015723,264.796577L90.889532,263.310546L89.787919,261.807453L84.199554,259.931383L84.819477,258.505337L86.371032,257.174979L87.919277,255.866264L92.458772,254.908589L96.169814,253.921636L96.622774,252.580621L96.924675,251.223823L94.167021,249.436371L91.562525,247.625345L90.642624,246.034656L90.920547,244.623585L90.630288,243.114947L91.631780,241.831465L93.256282,240.677508L93.562853,239.285830L95.496711,238.228012L95.699691,236.828199L95.754899,235.394268L96.443058,234.101277L96.653914,232.701133L97.604244,231.480529L98.138621,230.164525L97.872423,228.642093L96.677803,226.858756L96.295144,225.275472L97.656910,224.179372L97.969697,222.790083L98.640307,221.507829L99.248540,220.210480L98.604245,218.515197L98.878302,217.103470L99.519028,215.812481L98.987704,214.119263L99.921414,212.928200L100.357735,211.564370L101.109327,210.316900L102.115109,209.170662L102.650607,207.849990L103.103285,206.496637L103.751827,205.221753L106.233230,204.712212L105.698341,202.954168L106.682534,201.836600L107.022562,200.440815L105.176404,198.050111L105.944379,196.822982L105.861895,195.197691L106.605529,193.956853L107.874483,192.976103L108.388277,191.629661L110.048836,190.865659L111.156594,189.833968L111.916903,188.627098L112.653071,187.409077L112.434167,185.667451L112.516165,184.076012L112.613071,182.480556L113.125078,181.113291L114.176042,180.059843L114.236990,178.418262L114.825715,177.084992L115.574073,175.847500L115.803755,174.281530L118.245338,174.127152L119.403573,173.169144L120.827429,172.396138L122.409232,171.744095L122.302762,169.948227L123.085753,168.753649L123.389010,167.217207L124.466933,166.228298L125.420088,165.153392L127.763493,165.118558L131.323695,166.042394L134.088358,166.419250L137.419349,167.286836L139.348929,167.101884L140.086836,165.981615L140.379802,164.493511L140.994970,163.259677L140.867547,161.390459L139.074115,158.061427L138.500913,155.726407L136.768217,152.321819L136.222221,149.913112L138.951142,150.460129L139.117908,148.675313L139.822289,147.374915L139.618223,145.195372L138.938196,142.516785L139.776048,141.288063L141.586314,141.029955L143.453757,140.854238L143.587823,138.909652L144.510784,137.765548L145.417948,136.600218L147.411516,136.608041L149.699723,136.971536L151.191545,136.485829L152.344760,135.630112L152.414975,133.527337L152.721322,131.664728L154.359688,131.358914L155.111229,130.000341L156.973519,129.992568L159.149261,130.404838L159.918123,129.075018L161.428853,128.686672L163.348537,128.849366L164.530210,128.063618L165.784278,127.377850L166.505234,125.964858L166.134992,123.009405L166.495246,121.020576L167.371162,119.737279L169.535192,120.327903L170.680991,119.447435L171.834099,118.575445L173.014861,117.743462L173.012642,115.054634L174.028580,113.924237L176.682319,115.439558L179.520346,117.338953L182.687607,119.884799L183.664304,118.800615L183.157719,115.120632L182.659505,111.347538L183.953128,110.695785L185.795037,111.053543L187.142998,110.525654L189.411005,111.758173L189.143812,108.135661L190.279570,107.177953L192.101824,107.594648L192.585505,105.296717L193.529678,103.899389L194.696718,102.948391L195.748784,101.732388L197.065336,101.081436L198.764032,101.299054L200.425115,101.463559L202.355417,102.300147L203.664057,101.687899L205.281317,101.839366L206.731704,101.598285L207.548574,99.724148L209.186692,99.970390L210.799759,100.184483L212.452018,100.542448L213.999982,100.644038L215.369049,100.250329L216.559038,99.321689L217.732822,98.317795L219.125576,97.977292L220.498151,97.576054L221.802014,96.945889L223.311083,97.009614L224.744735,96.833321L226.319978,97.187029L228.326291,99.209750L229.600768,98.540656L230.964371,98.208320L232.140077,97.096521L233.100726,95.006134L234.636416,95.347396L236.169646,95.726033L237.651252,95.909541L239.081020,95.872314L240.402789,95.294048L241.919648,95.745933L243.997078,99.435985L245.558248,100.435129L247.139873,101.682354L248.651409,102.622191L249.709134,100.556142L250.734301,98.038002L251.724649,94.967516L252.742793,91.753034L253.986977,90.108857L255.465741,90.462199L256.897544,90.416740L258.326639,90.357481L259.712380,89.785996L261.207568,90.583805L262.654429,90.869716L264.132336,91.778453L265.502761,90.901140L266.858665,89.409637L268.325512,90.376891L269.734324,89.856088L271.182120,90.858427L272.615548,91.978523L274.031392,93.090851L275.430196,94.114040L276.823012,94.172730Z" />
<line x1="50" y1="550" x2="100" y2="550" fill="none" stroke="black" stroke-width="1.0" stroke-linejoin="round" stroke-miterlimit="10" />
<text x="125" y="553" style="text-anchor:start;fill:black">GC-content</text>
</g>
<g style="fill:pink;stroke:black">
<a href="" title="OZ223185:1 [755000-787099];"><path  d="M328.273871,498.745156L324.360866,499.640835L320.432824,500.468087L316.490944,501.226660L312.536425,501.916321L308.570472,502.536862L304.594294,503.088092L300.609100,503.569845L298.382222,483.694206L298.382222,483.694206L302.020877,483.254345L305.651301,482.751048L309.272388,482.184467L312.883036,481.554776L316.482144,480.862167L320.068616,480.106850L323.641360,479.289055Z" />
</a><a href="" title="OZ223185:2 [992000-1014099];"><path  d="M130.548428,453.979729L127.446802,451.431442L124.390122,448.829412L121.379319,446.174432L118.415310,443.467311L132.031370,428.817980L132.031370,428.817980L134.737639,431.289699L137.486633,433.713811L140.277515,436.089578L143.109434,438.416274Z" />
</a><a href="" title="OZ223185:3 [1035000-1058099];"><path  d="M103.018936,427.717103L100.379848,424.692360L97.793952,421.622019L95.262034,418.507016L92.784866,415.348299L90.363203,412.146831L106.418577,400.221019L106.418577,400.221019L108.629660,403.144099L110.891422,406.028145L113.203173,408.872278L115.564209,411.675633L117.973811,414.437355Z" />
</a><a href="" title="OZ223185:4 [1093500-1120599];"><path  d="M73.247493,385.435166L71.350861,381.897279L69.516263,378.326831L67.744258,374.724908L66.035384,371.092608L64.390163,367.431037L82.704062,359.393556L82.704062,359.393556L84.206220,362.736729L85.766496,366.053177L87.384414,369.341889L89.059482,372.601864L90.791189,375.832108Z" />
</a><a href="" title="OZ223185:5 [1170000-1198099];"><path  d="M49.871996,322.089086L49.084467,318.152888L48.365753,314.203546L47.716074,310.242262L47.135628,306.270243L46.624592,302.288699L46.183121,298.298843L66.080241,296.272856L66.080241,296.272856L66.483323,299.915769L66.949922,303.551092L67.479894,307.177718L68.073079,310.794542L68.729296,314.400463L69.448345,317.994383Z" />
</a><a href="" title="OZ223185:6 [1388500-1417099];"><path  d="M89.881078,138.504634L92.291445,135.294653L94.757467,132.127226L97.278393,129.003321L99.853454,125.923887L102.481867,122.889863L105.162830,119.902174L119.931280,133.388941L119.931280,133.388941L117.483443,136.116832L115.083589,138.887027L112.732446,141.698684L110.430731,144.550946L108.179146,147.442944L105.978376,150.373797Z" />
</a><a href="" title="OZ223185:7 [1579500-1604599];"><path  d="M229.346426,49.576507L233.287562,48.814075L237.241404,48.120542L241.206747,47.496119L245.182384,46.940995L249.167104,46.455340L251.413443,66.328789L251.413443,66.328789L247.775220,66.772213L244.145291,67.279065L240.524760,67.849191L236.914731,68.482417L233.316302,69.178550Z" />
</a></g>
<text x="275" y="280" style="text-anchor:middle" font-size="25" font-weight="bold">OZ223185</text>
<path  style="fill:pink;stroke:black" d="M350,550L375,550L375,565L350,565Z" />
<text x="405" y="565" style="text-anchor:start;fill:black">Selected loci;</text>
</svg>