<svg xmlns="http://www.w3.org/2000/svg" viewbox="0 0 550 650">
<circle cx="275" cy="275" r="240" fill="none" stroke="black" stroke-width="1.0" />
<line x1="275" y1="15" x2="275" y2="55" fill="none" stroke="grey" stroke-width="1.0" stroke-linejoin="round" stroke-miterlimit="10" />
<line x1="495" y1="275" x2="535" y2="275" fill="none" stroke="grey" stroke-width="1.0" stroke-linejoin="round" stroke-miterlimit="10" />
<line x1="275" y1="495" x2="275" y2="535" fill="none" stroke="grey" stroke-width="1.0" stroke-linejoin="round" stroke-miterlimit="10" />
<line x1="15" y1="275" x2="55" y2="275" fill="none" stroke="grey" stroke-width="1.0" stroke-linejoin="round" stroke-miterlimit="10" />
<text x="275" y="10" style="text-anchor:middle" font-size="15">MAG: Thermoplasmatales archaeon isolate BR_05 chromosome, complete</text><text x="285" y="25" style="text-anchor:start">1,931,334</text><text x="525" y="265" style="text-anchor:start">0.48 Mbp</text><text x="285" y="530" style="text-anchor:start">0.96 Mbp</text><text x="-200" y="25" style="text-anchor:end" transform="rotate(-90)">1.44 Mbp</text><circle cx="351.708881" cy="47.589034" r="2.500000" fill="grey" stroke="black" stroke-width="1.0" />
<circle cx="420.370339" cy="84.035436" r="2.500000" fill="grey" stroke="black" stroke-width="1.0" />
<circle cx="473.781196" cy="140.515667" r="2.500000" fill="grey" stroke="black" stroke-width="1.0" />
<circle cx="506.338194" cy="211.104462" r="2.500000" fill="grey" stroke="black" stroke-width="1.0" />
<circle cx="514.625823" cy="288.396449" r="2.500000" fill="grey" stroke="black" stroke-width="1.0" />
<circle cx="497.774639" cy="364.283034" r="2.500000" fill="grey" stroke="black" stroke-width="1.0" />
<circle cx="457.552477" cy="430.803059" r="2.500000" fill="grey" stroke="black" stroke-width="1.0" />
<circle cx="398.178987" cy="480.978002" r="2.500000" fill="grey" stroke="black" stroke-width="1.0" />
<circle cx="325.882961" cy="509.544078" r="2.500000" fill="grey" stroke="black" stroke-width="1.0" />
<circle cx="248.248874" cy="513.504460" r="3.000000" fill="black" stroke="black" stroke-width="1.0" />
<circle cx="173.421210" cy="492.443670" r="2.500000" fill="grey" stroke="black" stroke-width="1.0" />
<circle cx="109.250036" cy="448.571166" r="2.500000" fill="grey" stroke="black" stroke-width="1.0" />
<circle cx="62.467462" cy="386.489552" r="2.500000" fill="grey" stroke="black" stroke-width="1.0" />
<circle cx="37.981381" cy="312.711723" r="2.500000" fill="grey" stroke="black" stroke-width="1.0" />
<circle cx="38.360594" cy="234.977610" r="2.500000" fill="grey" stroke="black" stroke-width="1.0" />
<circle cx="63.565320" cy="161.442191" r="2.500000" fill="grey" stroke="black" stroke-width="1.0" />
<circle cx="110.951365" cy="99.819963" r="2.500000" fill="grey" stroke="black" stroke-width="1.0" />
<circle cx="175.547524" cy="56.575631" r="2.500000" fill="grey" stroke="black" stroke-width="1.0" />
<circle cx="250.577105" cy="36.245896" r="2.500000" fill="grey" stroke="black" stroke-width="1.0" />

<circle cx="275" cy="275" r="185" fill="white" stroke="grey" stroke-width="0.5" />
<circle cx="275" cy="275" r="170" fill="none" stroke="black" stroke-width="0.5" />
<circle cx="275" cy="275" r="170" fill="aliceblue" stroke="black" stroke-width="0.5" />
<circle cx="275" cy="275" r="160" fill="white" stroke="none" stroke-width="0.5" />
<circle cx="275" cy="275" r="140" fill="none" stroke="black" stroke-width="0.5" />
<circle cx="275" cy="275" r="140" fill="aliceblue" stroke="black" stroke-width="0.5" />
<circle cx="275" cy="275" r="133" fill="white" stroke="none" stroke-width="0.5" />
<circle cx="275" cy="275" r="110" fill="none" stroke="black" stroke-width="0.5" />
<circle cx="275" cy="275" r="110" fill="white" stroke="black" stroke-width="0.5" />
<circle cx="275" cy="275" r="109" fill="aliceblue" stroke="none" stroke-width="0.5" />
<circle cx="275" cy="275" r="80" fill="none" stroke="black" stroke-width="0.5" />

<g style="fill:none;stroke-linejoin:round;stroke-miterlimit:10">
<path style="stroke:blue;stroke-width:1.0" d="M277.026772,119.241311L278.007964,120.908056L279.008947,120.990718L279.983534,121.861832L280.959123,122.427592L281.881123,124.018458L283.047087,120.539526L284.031250,120.947713L285.331120,116.440478L286.118060,119.921607L287.146012,119.752261L288.142815,119.988657L289.240658,119.097245L290.364952,118.067564L291.567898,116.427139L292.546284,117.015701L293.051195,121.575406L293.732245,124.245901L294.607599,125.174333L295.792379,123.775187L296.809931,123.677474L297.533365,125.551552L298.663310,124.697567L300.705421,118.367313L302.754273,112.505976L303.178864,116.250976L302.948271,123.292887L303.505045,125.728255L304.277466,126.919432L305.532831,125.682651L306.330330,126.705188L307.482214,126.051644L308.117153,127.749054L309.081590,127.937247L310.544402,126.038755L311.909004,124.659619L312.548415,126.242034L313.993520,124.646387L315.448749,123.109171L315.872181,125.439351L316.711231,126.183698L317.383856,127.484183L317.657742,130.090159L318.844709,129.558029L320.853112,126.401440L322.248385,125.342878L322.897216,126.656680L324.366970,125.439819L323.832318,130.231048L324.745035,130.633660L325.134249,132.520777L327.318360,129.347410L328.977402,127.747290L329.705346,128.714024L330.271917,130.080110L331.236404,130.384352L331.359270,132.814203L332.796226,131.913850L334.989846,129.221716L335.989987,129.488919L338.737866,125.665920L335.963743,134.701019L336.403052,136.168424L337.463815,136.218172L339.145080,134.925106L345.476498,123.707309L345.065587,127.111012L344.504950,130.728004L343.009392,136.150160L342.835485,138.756481L343.794638,139.054277L344.277864,140.282322L345.206720,140.633007L346.320571,140.638491L348.381468,138.901707L349.544631,138.872212L350.026556,140.083407L350.140717,141.924103L350.360494,143.540091L351.013037,144.378969L351.891329,144.825506L352.603998,145.549892L354.668984,144.045041L354.959958,145.472359L356.671196,144.606098L356.694468,146.436071L357.249644,147.404089L357.873309,148.255168L359.292808,147.897497L359.684269,149.093532L360.265651,149.993252L361.834365,149.455991L361.897236,151.096099L362.643000,151.746506L363.265225,152.566096L364.945323,151.931605L365.208070,153.243031L366.770445,152.804514L369.355489,151.050261L367.393646,155.252144L368.631731,155.266457L370.348275,154.692811L372.202828,153.978836L375.543415,151.474567L372.628017,156.637776L372.016996,158.925483L372.718207,159.620555L373.869337,159.789805L374.712957,160.325027L375.449430,160.984812L375.882408,161.984433L376.975418,162.245381L378.474021,162.074080L378.691168,163.304930L378.726810,164.714435L379.129269,165.720072L380.993633,165.202905L383.540060,164.019363L386.058429,162.912701L389.903994,160.530864L389.999069,161.917416L389.467855,163.895454L393.223523,161.734702L394.109213,162.363314L391.197022,166.540669L387.846165,171.034065L387.777164,172.446213L389.304832,172.407794L389.543993,173.531012L391.473420,173.166641L395.710491,170.840115L393.462509,174.117084L393.653139,175.279341L395.456675,175.093685L399.795662,172.858168L408.139092,167.468254L408.518267,168.589974L398.868981,177.591262L395.626862,181.404599L396.720084,181.818784L403.734704,177.770775L398.744779,182.797780L398.034694,184.565846L402.060022,182.874447L407.405877,180.306661L405.871813,182.684904L401.574012,186.944236L400.492576,188.902841L400.421533,190.146449L400.522565,191.263444L402.522645,191.123008L408.252254,188.591237L415.845662,184.963543L421.729396,182.541623L436.865700,174.469192L438.876382,174.692054L438.135055,176.599183L429.997658,182.877623L421.594942,189.157567L415.059220,194.203891L409.281441,198.697052L410.200115,199.334493L407.634491,201.899562L408.041176,202.799992L408.552905,203.643234L409.144360,204.445337L409.325682,205.461958L411.901010,205.254455L413.479095,205.581636L411.515740,207.673712L411.290472,208.883768L412.371132,209.460228L413.157643,210.185137L413.008532,211.347367L413.353786,212.276584L414.591021,212.807407L415.232269,213.612114L415.435488,214.608935L417.479289,214.825481L418.535539,215.476895L424.790422,214.022212L430.778326,212.763062L429.736928,214.343626L425.796910,217.017176L426.045994,218.046697L420.828086,221.095263L418.372127,223.060894L418.558019,224.047738L421.437162,224.096234L420.302023,225.548108L419.463820,226.879919L419.120171,228.033920L421.079791,228.444525L421.867153,229.244092L428.008248,228.420853L430.564273,228.746564L431.194056,229.663324L432.657929,230.348579L426.127886,233.258260L421.887636,235.456238L421.250986,236.646420L421.658720,237.557643L421.954935,238.498840L422.438197,239.395679L424.477799,239.930848L424.871598,240.865731L425.529510,241.744614L429.276241,241.968183L428.038511,243.273162L427.971809,244.323706L427.328404,245.482397L426.447862,246.674160L424.699088,248.008130L425.394992,248.891854L427.763728,249.503430L426.687663,250.696402L427.482565,251.585604L426.541655,252.738359L425.491493,253.892003L425.369760,254.905821L425.359692,255.902113L426.205793,256.793538L427.121237,257.686677L427.656248,258.631192L427.616276,259.639218L425.923925,260.800863L425.381936,261.838397L425.940325,262.778604L427.823063,263.626523L428.991843,264.546575L433.081780,265.301807L432.229682,266.380564L427.954667,267.612784L427.200594,268.641520L426.676839,269.651765L427.849405,270.605968L429.175966,271.571646L433.674957,272.504410L437.200010,273.504503L436.346508,274.562227L430.991952,275.591732L427.486292,276.570650L425.971606,277.537541L428.418856,278.577311L426.808426,279.528214L428.285447,280.570730L428.731959,281.588798L428.688888,282.589071L432.775409,283.820287L428.523231,284.584984L426.615078,285.456608L427.899239,286.545220L426.967490,287.469793L426.768240,288.448129L426.790041,289.446037L428.209394,290.587654L432.317505,292.040510L443.674739,294.381888L445.007013,295.656598L449.350190,297.336411L451.201060,298.739801L448.053310,299.463146L440.823758,299.542697L435.274965,299.788177L428.370526,299.743165L424.506050,300.118866L424.573628,301.132013L424.760510,302.169991L425.841773,303.381137L424.068702,304.053039L423.323589,304.910842L422.755123,305.798010L423.072630,306.870875L423.886899,308.061196L423.910587,309.084615L424.018647,310.131286L427.538252,312.010324L428.016419,313.182247L432.133129,315.297331L433.851866,316.841523L430.691545,317.094272L429.108132,317.744091L427.071174,318.246636L425.494560,318.858646L425.549845,319.939552L425.420530,320.968971L429.124093,323.199467L436.620626,326.700684L435.494444,327.493976L428.646133,326.363088L424.726912,326.138370L419.856056,325.529580L418.063113,325.950661L423.472166,328.968166L423.340863,330.015762L421.352222,330.364094L417.721849,330.054905L415.793289,330.366024L415.095962,331.147027L414.580924,331.997452L414.916840,333.199649L414.471227,334.081691L414.383855,335.117305L413.423510,335.774332L413.213694,336.757949L412.539910,337.533617L413.074604,338.864055L412.201677,339.547282L411.379184,340.247438L411.588034,341.442925L412.119188,342.808116L410.408006,343.061959L411.490174,344.722028L409.157715,344.634927L408.656151,345.482285L408.913832,346.735645L409.589298,348.228450L407.262682,348.081879L406.607102,348.841441L405.990624,349.620281L406.392497,350.985789L408.856293,353.577265L407.119764,353.718207L404.881419,353.534130L404.930975,354.723169L404.062915,355.351105L403.047000,355.879415L403.291734,357.206608L410.932821,363.355708L409.902329,363.939811L403.676908,361.041809L400.594021,360.168135L399.425840,360.563095L398.780825,361.311132L399.228180,362.829867L399.070741,363.934967L398.098343,364.456130L397.182447,365.011156L398.041933,366.885373L397.986190,368.096335L401.441609,372.012501L404.488727,375.695644L397.233675,371.336607L400.758310,375.447871L394.789340,371.963592L393.882386,372.516589L392.289341,372.493360L390.751013,372.495124L390.838696,373.864524L395.255582,378.994158L389.413924,375.250978L388.067607,375.379295L388.413206,377.013333L389.483326,379.331409L386.062955,377.545051L385.670902,378.525107L384.850540,379.106121L384.453358,380.089914L384.068940,381.093291L382.779531,381.212580L382.187977,382.013239L382.862375,384.097064L387.383421,390.158982L386.926002,391.193234L385.165681,390.865251L383.630821,390.749919L382.015958,390.526497L383.229376,393.372085L384.559999,396.404244L383.325271,396.617743L377.659094,391.777314L374.621471,389.819985L374.351278,391.025129L373.131213,391.121176L372.694766,392.142323L372.852052,393.895220L370.622113,392.738746L369.872044,393.380914L368.740537,393.541400L368.025207,394.223082L367.390647,395.011761L366.732497,395.774497L365.970261,396.402870L366.361854,398.593129L365.389461,398.956909L364.596126,399.563410L366.520653,404.001485L367.094128,406.616145L367.132107,408.511417L364.913882,407.127793L360.971636,403.119091L359.770462,403.122968L360.122153,405.491665L361.641769,409.728852L365.420296,417.636017L360.751294,412.237346L356.643870,407.575563L354.727915,406.371175L355.206946,409.120321L355.128465,410.990071L356.801975,415.918664L359.747455,423.205428L361.458910,428.507695L359.899278,428.059209L355.463002,422.312935L354.297492,422.451583L350.437482,417.488811L347.126975,413.406135L344.703020,410.905170L343.186632,410.106253L342.540117,411.018304L341.542809,411.227899L341.586750,413.597312L340.608826,413.869458L339.498144,413.850502L337.924631,412.802763L336.905729,412.939759L335.969258,413.254251L335.620647,414.922674L334.970124,415.927886L334.441082,417.246433L333.281796,417.063458L332.618367,418.090680L331.939953,419.104942L330.078843,417.093061L329.252007,417.708481L328.103521,417.471433L327.208904,417.905636L327.257121,420.977491L325.916435,420.202864L324.652171,419.603736L323.644799,419.729001L322.884541,420.597219L321.658378,420.042080L320.608741,420.008982L320.225287,422.127777L319.765911,424.080277L320.938386,431.678795L318.577379,427.289399L316.606313,424.061329L314.953572,421.822691L314.892271,425.454490L313.293240,423.312466L312.680844,424.965028L311.295976,423.536039L309.999701,422.383419L309.412688,424.224091L309.414231,428.793992L308.511877,429.471172L306.792064,426.288102L305.436912,424.671715L304.134111,423.196556L303.422668,424.717877L302.630154,425.894853L301.439952,424.893286L300.384115,424.590746L299.548586,425.601343L298.678727,426.465047L297.362332,424.408546L296.692702,426.669191L296.281097,431.027982L295.298301,431.416320L294.515729,433.457914L293.883019,437.002213L292.825760,437.096305L291.644437,435.987631L290.113045,431.097896L288.754168,427.393640L287.867280,428.733890L287.060515,431.326123L286.382017,436.201024L285.332937,436.271975L283.719850,426.541926L282.816837,428.226018L281.727100,426.192396L280.730825,425.906601L279.764060,426.424906L278.915724,431.944369L277.932423,434.024273L276.843217,429.476817L275.819967,426.148543L274.835689,426.898130L273.847614,426.860713L272.862639,426.631018L271.884657,426.198266L270.905812,425.995346L269.924845,425.923822L268.900694,426.940547L267.967299,425.717196L266.897075,427.355353L265.700248,430.744188L264.519493,433.210371L263.698713,430.275520L262.790408,428.915883L261.971348,426.712257L260.954434,426.949576L259.889599,427.627364L258.684807,429.534191L257.491733,431.100387L256.964744,426.871184L256.159651,425.293348L254.235449,432.341203L253.255152,431.892450L252.847825,427.526629L252.253595,424.760706L251.343567,424.206425L250.206243,425.060140L249.399849,423.909978L248.358232,424.150459L247.345970,424.202579L245.778878,427.126917L245.234625,424.695842L244.517249,423.253969L243.591810,422.871068L242.560456,422.982413L241.700325,422.316811L240.743275,422.093739L239.689980,422.272096L238.373110,423.496295L237.252373,423.867369L234.366930,430.979911L231.090209,439.172097L230.411713,437.466377L230.522389,433.027144L231.109915,427.137015L229.967988,427.365805L230.355850,422.515394L229.814513,420.873861L229.235735,419.411120L228.116823,419.666538L226.918239,420.138123L225.965698,419.849422L224.575654,420.824684L222.275025,424.325083L223.063198,419.099476L222.511174,417.713169L220.408138,420.501860L218.595895,422.408607L215.719927,426.955093L213.269292,430.245930L214.118669,425.255001L214.836835,420.750580L214.956646,417.818401L214.268015,416.865598L213.700593,415.654380L213.312564,414.067099L212.975136,412.408636L211.922467,412.350401L209.597537,415.003753L206.527367,419.122967L206.717971,416.341757L206.840804,413.774904L207.487849,410.226752L206.004461,410.976879L205.032495,410.697085L203.544073,411.397605L203.618332,409.125538L202.670402,408.800229L201.326466,409.191767L201.218807,407.339372L200.377308,406.824699L199.565238,406.259686L198.812832,405.594603L198.073089,404.913125L197.083659,404.652416L196.073920,404.417857L195.071141,404.163999L193.466350,404.861357L192.275645,404.873643L190.488637,405.793203L190.273388,404.273264L191.298068,400.915172L190.363171,400.542036L189.421789,400.173467L188.457357,399.832961L186.874135,400.366636L186.675282,398.927711L183.237734,401.994450L184.614247,398.390197L183.125942,398.725165L183.003320,397.220758L183.420412,395.033152L182.775695,394.261017L181.573183,394.205151L180.298365,394.225713L180.359179,392.570261L179.010083,392.670498L178.617929,391.594112L177.612987,391.261022L177.131639,390.303222L176.402165,389.642280L175.775767,388.863559L174.540401,388.777991L173.717063,388.217138L172.979024,387.559639L172.717317,386.383262L171.324030,386.436338L168.890108,387.574709L167.013305,388.082604L164.343312,389.379240L164.315676,387.928116L163.758008,387.029558L161.697617,387.629286L163.628793,384.278115L162.896943,383.573618L164.768753,380.379420L163.615514,380.103386L162.035400,380.213388L159.541166,381.141983L163.089816,376.544128L159.394943,378.533289L159.651774,376.958610L158.945439,376.245524L159.459580,374.480516L158.121901,374.315383L159.087521,372.203228L158.766519,371.191263L157.461852,370.989308L156.556444,370.450847L154.956180,370.458832L156.249177,368.175867L154.968316,367.925450L153.427428,367.859573L153.160192,366.814610L146.984215,370.169040L149.460893,367.065659L151.675364,364.213513L150.485444,363.845937L147.977573,364.393873L146.566374,364.143149L146.125816,363.212012L148.910267,360.106643L149.211118,358.717442L147.835170,358.444419L146.667614,358.021074L147.692333,356.188066L145.779345,356.230178L140.833719,358.126100L136.768344,359.405210L139.734902,356.390319L138.397773,355.988975L137.302210,355.432278L139.558307,352.936955L141.455997,350.692642L141.181808,349.701843L138.177978,350.215228L140.364163,347.876711L141.863260,345.949110L141.277116,345.148145L138.442153,345.506114L129.313921,349.022500L125.406458,349.787263L128.976841,346.818555L134.652066,342.896830L136.860312,340.722827L137.217794,339.456707L137.484279,338.244760L136.038268,337.817636L132.178917,338.446349L134.353303,336.387824L133.757044,335.557072L135.388695,333.785114L134.984157,332.885823L133.085625,332.592407L133.135662,331.499845L134.466813,329.912988L132.534823,329.602111L130.038959,329.479618L124.553542,330.426718L128.881406,327.755061L132.689212,325.336063L130.175057,325.167547L131.395301,323.700698L130.972430,322.801487L130.548758,321.900921L129.157548,321.305850L124.134671,321.822282L129.913868,318.995789L128.312688,318.441172L121.308074,319.429939L117.859215,319.321120L127.079990,315.683299L128.640921,314.231470L128.274780,313.308108L126.345387,312.780420L126.276168,311.769511L125.986553,310.813920L127.772451,309.372983L126.922287,308.557001L121.048207,308.836564L120.261468,307.955518L123.478555,306.241165L127.100365,304.492509L125.255618,303.848600L124.760019,302.931504L124.900223,301.896254L124.457588,300.965765L122.582113,300.269158L124.513196,298.944010L125.917677,297.726985L125.136540,296.849281L125.246014,295.839153L125.202298,294.852577L125.032465,293.883012L124.001862,293.015525L124.836813,291.925706L124.444725,290.978569L122.207607,290.211323L124.335712,289.010060L123.354366,288.106676L121.845379,287.233692L124.106755,286.065494L123.755250,285.102351L124.486253,284.070239L123.074103,283.163606L122.342016,282.207129L119.312248,281.335213L119.710755,280.307176L119.722082,279.295492L122.188372,278.232390L124.214688,277.208114L124.169495,276.227255L124.110421,275.245935L122.707194,274.257311L122.820823,273.267631L122.637806,272.273976L120.218941,271.223149L123.431470,270.314589L123.428509,269.327131L120.890597,268.227757L122.468503,267.302424L120.475386,266.193509L121.680706,265.260992L123.585030,264.392366L122.098024,263.287970L122.785716,262.343930L123.083325,261.372832L121.831779,260.255345L122.184472,259.285134L122.984848,258.367200L120.160561,257.037903L122.847575,256.345523L125.415467,255.671641L124.362110,254.538179L121.960624,253.196928L122.254575,252.223830L125.052393,251.642697L124.504595,250.553365L123.621606,249.397902L124.293146,248.501718L122.061432,247.082264L121.713586,245.986923L126.089445,245.810299L125.942438,244.773061L117.185280,241.926736L116.139856,240.627125L125.778637,241.694864L127.986648,241.181997L127.758785,240.119324L128.074698,239.182960L125.361056,237.488285L126.036086,236.625651L128.208204,236.164987L128.142824,235.123497L127.296936,233.860071L126.579072,232.617588L125.260087,231.185228L129.318744,231.341795L128.514933,230.060147L129.829204,229.427801L131.154415,228.813518L131.628433,227.934518L130.437631,226.499390L128.467383,224.775294L131.383955,224.728385L132.939235,224.232828L131.793078,222.769988L129.332522,220.796140L133.403639,221.259595L134.059130,220.456626L134.167054,219.442141L134.274643,218.423709L134.549516,217.469860L135.285693,216.706969L133.019126,214.673694L132.108040,213.185939L134.920366,213.317460L135.628531,212.543502L134.958635,211.145912L134.342483,209.756189L131.484140,207.292191L129.477029,205.184093L130.937086,204.727835L128.047728,202.130994L129.286561,201.560234L130.926271,201.207216L132.555601,200.867845L130.809572,198.762803L132.645128,198.544026L132.714813,197.384415L136.740250,198.408804L142.029190,200.203899L142.329478,199.232259L142.093211,197.946220L144.102381,197.968761L144.397498,196.993955L145.695480,196.623275L146.438969,195.925564L147.019908,195.130516L146.051466,193.355578L142.485919,189.885158L144.133473,189.735546L144.411011,188.700822L145.500439,188.204944L143.192630,185.409843L141.531299,183.005334L146.670598,185.310413L146.126112,183.676035L149.643145,184.937393L150.790736,184.530774L150.864411,183.342342L150.834584,182.065931L151.139281,181.030432L151.330487,179.901371L153.544904,180.340306L154.644732,179.932274L150.619820,175.431989L148.929675,172.725996L150.076326,172.301279L148.209886,169.376926L145.719802,165.869838L150.480263,168.493118L153.702730,169.875122L154.796913,169.446064L153.190097,166.623262L159.026315,170.456045L156.715643,166.969822L151.291321,160.530562L153.518561,161.115354L152.531854,158.683989L156.324298,160.808053L159.905575,162.802694L163.497004,164.879728L158.500506,158.438142L152.141674,150.465772L153.246529,149.968856L161.724793,157.150867L163.910500,157.909374L168.167674,160.919016L170.955075,162.436451L172.306286,162.437726L173.810113,162.626215L174.494919,161.915629L175.000594,160.999328L176.057304,160.712455L176.921303,160.209545L177.261587,159.089157L177.818681,158.216350L178.953716,158.040873L180.092095,157.881609L180.805198,157.202862L181.143765,156.047653L182.281876,155.904679L182.190991,154.174231L183.375785,154.096357L184.268281,153.641725L185.124197,153.141226L185.581591,152.095293L186.835026,152.145737L187.455229,151.318952L186.678217,148.483531L187.228828,147.512917L188.205532,147.158614L189.979745,148.001563L191.281341,148.168371L191.857171,147.240373L193.391779,147.795667L194.209539,147.248989L195.106228,146.828321L195.811065,146.098279L195.090845,143.008003L195.338777,141.464016L198.180402,144.302052L199.364014,144.377650L200.199385,143.860011L200.749568,142.833786L201.569377,142.278090L201.427324,139.954428L202.653575,140.123664L202.953422,138.558795L204.059299,138.509637L205.157659,138.459110L207.078468,140.055773L208.058480,139.819755L208.845697,139.194596L209.266887,137.798904L210.206417,137.470553L210.808880,136.417711L211.179699,134.834069L210.604418,131.095155L211.027611,129.509113L211.399081,127.761276L211.330261,124.927099L214.684855,130.221193L217.913201,135.418945L218.535835,134.336078L218.481519,131.507077L219.299827,130.840781L220.870589,132.148279L222.275079,133.074688L223.266464,132.918174L223.860185,131.654439L223.898696,128.762773L225.135914,129.265275L226.868106,131.281627L227.965563,131.463836L228.306815,129.308493L227.789284,124.327558L230.516494,129.725207L231.761796,130.438936L232.101162,128.098719L230.423936,118.580016L232.071236,120.554831L233.591230,122.176431L235.851226,126.701284L237.185380,127.883010L238.277261,128.175282L239.103700,127.406344L240.069245,127.194791L240.958049,126.649750L241.793856,125.846755L242.990475,126.678499L242.846253,121.162861L244.700644,125.173715L245.988857,126.579621L246.932838,126.275654L247.753169,125.283265L248.432183,123.422091L249.387405,123.065062L250.500999,123.670558L251.762939,125.297558L252.728304,125.087813L253.179177,121.246786L254.414933,122.844302L255.734254,125.269584L256.655667,124.711390L257.359767,122.220884L258.313299,121.733640L258.940776,118.010255L260.091263,119.253458L261.547642,124.124787L262.364854,122.046128L262.989300,117.089163L263.767555,113.426116L264.389130,106.530116L265.489883,106.542120L266.969849,114.168505L268.174601,117.762445L269.205272,117.923468L270.213823,117.441563L271.223159,116.746507L272.220991,114.885715L273.236171,112.412871L274.277998,108.699027L275.360354,108.559749L276.365762,117.506346Z" />
<line x1="50" y1="575" x2="100" y2="575" fill="none" stroke="blue" stroke-width="1.0" stroke-linejoin="round" stroke-miterlimit="10" />
<text x="125" y="578" style="text-anchor:start;fill:black">n1_4mer:GRV/n1_4mer:RV</text>
<path style="stroke:green;stroke-width:1.0" d="M276.287788,176.032742L276.861441,179.642129L277.429752,181.657700L278.051155,181.241571L278.623462,182.227905L279.139118,184.181907L279.721169,184.379132L280.237680,185.657266L280.833953,185.461903L281.271131,187.528179L282.000900,185.515985L282.683045,184.383254L283.720311,179.532468L284.656720,176.369522L285.358702,175.855923L286.058003,175.435281L286.244100,179.431725L286.365686,183.530781L286.908086,184.007886L288.313419,178.170322L288.830121,179.043309L288.928186,182.623840L289.231987,184.602576L291.467660,174.656426L293.007263,169.572175L293.412180,171.272765L292.534182,179.822015L292.317413,184.314281L292.744407,185.251731L293.382869,185.100665L293.929076,185.403631L296.016827,178.626590L295.417073,184.218243L296.622999,181.696322L297.842036,179.272460L297.379061,183.844016L297.288802,186.697021L297.806796,187.060154L299.360110,183.524309L301.370368,178.504796L302.345754,177.436494L301.869568,181.481225L301.163410,186.121981L302.190056,184.804959L304.036535,180.899794L304.311907,182.155862L305.211958,181.430007L305.542688,182.469103L304.795560,186.667678L305.469906,186.572505L304.535046,191.062762L306.559594,187.139131L308.884452,182.561736L307.951222,186.886094L309.407041,184.786654L309.395983,186.548444L308.810555,189.701154L310.908734,186.100726L311.624346,186.001034L313.250316,183.741662L314.384338,182.724807L312.830398,187.938970L312.219672,190.846761L313.363266,189.764666L315.205158,187.203192L319.409968,179.664623L318.692084,182.778149L318.383823,184.947842L316.208131,190.868350L316.125314,192.402263L316.559097,192.874681L318.102628,191.182664L317.146032,194.337700L319.075055,191.966580L320.932639,189.810183L323.075180,187.208730L322.660050,189.295258L321.768057,192.172720L321.085962,194.606998L320.791862,196.311127L322.156064,195.166333L322.264898,196.158105L324.713474,193.284059L324.575453,194.692412L325.396736,194.538008L324.987839,196.333314L325.409565,196.798393L325.555170,197.681904L325.167270,199.354335L325.700742,199.619396L326.665155,199.254458L328.739387,197.304285L328.290216,199.015240L328.922714,199.167783L328.143083,201.284500L327.101969,203.711071L327.010178,204.800055L326.468551,206.467864L329.977032,202.779626L329.959131,203.769581L329.616522,205.157976L330.881383,204.490783L331.568604,204.569967L332.230543,204.687811L332.979158,204.707247L331.959397,206.851790L332.949142,206.577338L336.083172,203.821166L336.224183,204.589075L335.463382,206.371001L333.242112,209.753091L333.979237,209.786427L335.820383,208.623941L336.070307,209.215687L337.057266,209.018789L340.171944,206.604386L343.633792,203.903362L344.410274,204.029001L347.148984,202.182611L349.185957,201.094802L350.575884,200.683605L349.406423,202.779796L351.834820,201.387588L353.074716,201.167951L349.483093,205.476820L343.789829,211.623466L343.168531,213.011023L342.409797,214.497573L341.915455,215.722832L346.586711,212.411341L352.091931,208.478138L349.898142,211.216588L350.540664,211.512722L350.682869,212.228912L355.258211,209.310852L361.858383,204.847549L362.804130,205.022760L354.441046,212.528734L347.895867,218.439481L346.853307,219.993642L353.569999,215.658581L346.690989,221.583053L352.274027,218.201295L353.962556,217.747773L359.908031,214.275921L358.899500,215.818498L353.359185,220.486614L349.993287,223.549077L351.879997,222.987076L351.329680,224.080195L352.198168,224.223527L360.445170,219.592221L366.042133,216.800756L368.501458,216.082065L373.236844,213.987511L375.360937,213.569553L376.007549,214.073638L369.437797,218.871189L367.280379,220.962854L363.314487,224.053929L356.670233,228.592399L357.757579,228.684254L352.612283,232.224611L355.893404,231.100024L355.820436,231.817974L359.363847,230.627931L355.653083,233.247318L356.185939,233.639038L357.444334,233.671373L357.567845,234.279519L357.952400,234.758741L360.453149,234.230299L366.959471,231.858409L366.752134,232.681856L367.052409,233.267557L361.550627,236.438724L356.590903,239.282878L357.905770,239.348272L356.839098,240.436181L362.014763,238.915634L364.297255,238.648216L369.722066,237.156408L366.355979,239.188752L362.369612,241.405566L360.945667,242.593383L359.304450,243.837215L361.066832,243.820758L366.268895,242.606431L371.211501,241.555431L364.946951,244.387578L363.408673,245.551572L364.239617,245.918471L370.667764,244.510785L369.045174,245.700580L375.217730,244.491472L378.024074,244.368176L377.176837,245.342289L377.148648,246.069757L371.512639,248.343070L365.237037,250.707200L362.514741,252.049703L364.340736,252.191075L361.366056,253.548109L366.121365,252.995429L368.412877,253.084302L371.372778,253.050448L372.657730,253.425191L372.997997,254.017820L370.160839,255.271942L367.786898,256.392924L364.641109,257.629696L367.474277,257.704203L367.659520,258.292793L368.119259,258.834759L368.999916,259.311227L367.522644,260.175899L364.571679,261.245859L366.740219,261.523258L365.845044,262.258038L363.619855,263.157571L367.521007,263.248475L368.922079,263.690984L369.249138,264.273255L370.104838,264.802233L368.013565,265.638213L368.114473,266.239658L365.998652,267.035691L367.750047,267.490177L369.305953,267.981513L369.694459,268.571858L375.232929,268.850788L375.590676,269.485552L369.751366,270.423815L369.172706,271.065749L370.666427,271.626733L373.951617,272.155392L372.442582,272.833205L378.616167,273.370357L382.556992,274.008316L382.375709,274.708663L377.633506,275.389325L373.241232,276.011912L367.711715,276.558305L367.109676,277.147748L365.328457,277.694360L366.193578,278.314175L366.784907,278.933809L368.108733,279.597657L373.459411,280.504282L371.822931,281.044989L368.224121,281.429493L370.281825,282.194605L369.930534,282.789588L371.376718,283.539906L365.633497,283.625697L368.682720,284.531359L367.613007,285.031769L382.419536,287.343243L380.834818,287.859395L385.038426,289.097280L385.303615,289.861351L387.124391,290.850118L379.409430,290.453088L376.299210,290.666968L371.026939,290.491962L364.119546,289.973186L364.468662,290.631073L364.464599,291.230930L361.457486,291.267124L363.257037,292.201030L365.386823,293.227350L365.538649,293.871834L365.821884,294.548332L364.873932,294.957026L366.061080,295.843258L368.984017,297.156820L368.162000,297.603876L370.413544,298.808579L372.722663,300.061313L371.346971,300.377756L372.559165,301.377039L378.924730,303.825008L382.995977,305.712347L379.673898,305.505125L378.491750,305.892578L378.973818,306.774715L377.224121,306.968708L380.358100,308.702913L375.990223,308.031538L368.353743,306.207662L365.591922,305.941153L364.847431,306.341133L362.576850,306.189720L367.157434,308.498317L366.909862,309.086974L366.272184,309.527674L360.756326,308.080474L361.912178,309.177636L358.479735,308.456631L357.866161,308.838148L357.258956,309.216342L354.760249,308.787402L358.935428,311.201981L358.234975,311.544009L358.561137,312.337577L358.941864,313.164838L360.355897,314.479916L357.362580,313.747928L357.861565,314.643182L357.848242,315.301331L356.258103,315.183718L355.366003,315.395452L356.047378,316.400691L351.335653,314.622229L354.480211,316.913125L354.625668,317.654284L358.607963,320.490106L354.093389,318.703132L354.744718,319.742759L354.880413,320.504775L353.820051,320.582540L355.302929,322.139992L354.748283,322.514782L355.631318,323.754552L354.266936,323.636681L355.025840,324.821939L354.286597,325.080468L352.805674,324.856217L360.067212,330.293296L361.060465,331.738838L353.958583,327.796881L352.455197,327.524114L349.041621,325.915712L353.746271,329.908988L353.790015,330.704885L352.867499,330.816088L350.477300,329.849700L346.596328,327.744632L350.854752,331.646885L352.548054,333.701222L354.010412,335.620849L356.615561,338.467544L350.702263,334.663584L351.567236,336.157118L349.224911,335.081423L349.314731,335.958728L348.848459,336.384388L345.368760,334.270418L347.604192,336.965295L351.790486,341.406579L344.360165,335.774284L344.250104,336.478940L343.908165,336.981774L348.435055,341.923132L343.925727,338.639512L340.693676,336.451969L343.128476,339.565832L341.420831,338.772913L340.844352,339.047968L338.057501,337.140740L338.036636,337.933874L342.388063,343.159447L346.176442,347.934304L345.340712,348.022485L343.554230,347.100975L343.363442,347.843625L343.515333,348.964076L342.998503,349.370978L342.905688,350.246794L343.194020,351.562032L339.012601,347.815952L335.407806,344.623781L334.627280,344.634361L334.246396,345.107777L334.496282,346.339877L336.915583,350.230582L334.689592,348.495319L333.506339,348.003950L333.573906,349.070760L332.167653,348.267280L330.005582,346.450054L329.001596,346.098202L327.991902,345.719474L332.418941,352.675598L330.337834,350.888347L330.869220,352.673677L333.618584,357.624895L334.302481,359.752026L334.865370,361.752714L333.173258,360.485178L328.876822,355.289846L326.701961,353.142888L328.771642,357.431552L329.278333,359.403372L331.858104,364.692402L330.609957,363.998808L323.825618,354.284382L323.531774,354.967928L324.133201,357.159478L322.683916,355.926786L323.777267,359.027644L327.679850,367.125950L330.355753,373.284075L329.340946,372.967644L325.819122,368.040452L322.823007,363.925612L318.817710,357.764340L319.731412,360.836151L317.913972,358.672567L316.265267,356.763764L317.344532,360.277191L315.780541,358.486819L315.238294,358.754191L315.794420,361.346599L314.984918,361.078847L312.811519,357.805918L312.988149,359.646061L311.826024,358.506911L311.395847,359.007751L310.932649,359.440583L312.446412,364.611735L310.526716,361.597335L310.397052,362.905791L311.043349,366.219336L310.075834,365.489057L309.968609,366.984008L308.171066,363.994649L308.051270,365.467571L308.695022,369.125255L307.207371,366.848586L304.908972,362.104935L305.109713,364.583034L304.461675,364.580851L304.221536,365.837969L302.872361,363.617719L303.438264,367.515908L302.573868,366.827011L302.571138,369.034924L301.666501,368.191135L300.797821,367.424854L298.628763,361.831750L298.588294,363.963718L298.473642,365.915099L299.124452,371.012289L298.422194,370.851945L298.352164,373.335747L297.479790,372.479346L297.854761,377.135799L296.392605,373.608046L295.573725,372.903672L293.894728,367.913711L292.811700,365.602819L292.030781,364.710524L291.839971,366.967092L291.187046,366.767548L290.158761,364.331866L289.904048,366.433766L289.139549,365.446059L288.663689,366.290652L288.093882,366.548696L288.583637,374.592019L287.864834,374.134902L287.828535,379.161262L287.172983,379.435112L286.315828,377.899060L285.314031,374.758947L284.275602,370.804780L283.396684,368.033704L282.628408,366.141629L282.574735,373.182292L282.306244,378.476738L281.539565,377.066685L280.124229,364.053777L279.758794,368.282117L278.905754,362.782298L278.377220,363.930443L277.871817,366.280270L277.452250,373.287511L276.861335,375.939519L276.156704,371.941326L275.502216,367.575924L274.897988,369.305375L274.297375,367.591480L273.710327,366.493375L273.144398,365.058684L272.539960,365.727281L271.917820,366.657191L271.314245,366.816295L270.580571,369.712391L270.209985,365.064316L269.419071,368.464557L268.497347,373.161962L268.221668,368.131788L267.569849,368.665560L266.966700,368.543841L266.076952,371.532485L265.590654,370.042066L265.150362,368.293772L264.771408,366.196180L264.477977,363.603794L263.830395,364.102243L262.325508,371.039632L261.691633,371.021933L261.455467,368.259554L261.705951,362.527071L260.730153,365.003121L259.994371,365.819103L259.345925,366.056024L258.274264,368.636848L258.049441,366.453838L256.518129,371.217727L256.258272,369.255783L256.622466,364.379804L255.634961,366.171414L255.054797,365.985844L254.130522,367.325976L253.849561,365.817120L253.308241,365.472641L253.167195,363.516681L252.374163,364.230745L249.579703,372.581985L247.612302,377.398479L246.488137,378.888699L246.011487,377.995009L247.364351,370.793962L246.580371,371.157811L246.773346,368.267894L246.346685,367.502482L245.792534,367.165423L246.391567,363.276506L244.129099,368.185951L244.380296,365.451913L242.950786,367.684722L241.798294,369.032239L243.662520,361.946333L243.382635,360.965236L240.317208,367.438883L240.234656,365.857057L237.585367,370.906495L236.579019,371.624535L237.807834,366.790189L237.968868,364.711186L238.178220,362.583845L237.415052,362.795767L235.817373,364.906386L236.086058,362.726924L237.085463,358.995101L236.891565,357.980557L234.272353,362.183620L230.634651,368.381332L231.397633,365.255596L233.940453,358.598912L232.954939,359.216202L232.369730,359.016028L231.594112,359.182685L230.253162,360.414348L230.561744,358.499101L229.568403,359.042470L228.150288,360.333841L229.646489,356.349392L228.507686,357.130986L227.694953,357.312789L227.908016,355.721718L227.489026,355.235889L227.080875,354.737194L226.431400,354.639634L226.317923,353.669606L225.116781,354.450662L224.936025,353.598265L223.416888,354.832110L224.033007,352.763874L225.051817,350.138458L222.608354,352.712669L222.736602,351.444583L221.171670,352.644379L219.382922,354.120085L220.924221,350.873296L217.422454,354.684484L217.273840,353.804922L218.018747,351.735644L220.641042,347.217747L221.627060,344.955788L220.608343,345.337254L218.760803,346.756720L216.813899,348.254061L218.344557,345.381841L217.157788,345.906634L219.106573,342.614696L218.946600,341.916783L217.284982,342.996720L215.692191,343.958740L214.569090,344.346754L213.424508,344.738839L215.374839,341.650813L214.642386,341.592494L215.658643,339.621241L211.699427,343.038756L207.762763,346.333711L205.119735,348.177926L204.768171,347.594467L204.663168,346.762700L202.288076,348.226707L202.136009,347.431127L205.186318,343.501615L204.315179,343.459389L209.751455,337.376631L208.166714,338.064480L204.145981,340.992279L202.163491,341.959029L207.959891,335.830294L204.846388,337.827997L201.303087,340.142178L202.433958,338.306318L206.849962,333.677309L203.273695,335.948335L202.649344,335.672650L205.321491,332.663796L204.875953,332.267865L201.557655,334.185441L203.433975,331.909294L205.887177,329.228232L204.102646,329.886912L201.586506,331.074701L199.035169,332.244685L197.348462,332.727430L198.289890,331.256309L201.736717,327.998939L196.610492,330.933937L194.917695,331.359083L192.502796,332.259620L196.218889,328.924224L198.993008,326.302353L195.734389,327.754378L197.697532,325.725185L196.771033,325.608058L196.905403,324.803358L196.418858,324.397367L193.472770,325.512250L190.062883,326.863194L191.514970,325.233750L187.828906,326.682156L186.151479,326.898356L190.923027,323.380252L191.237063,322.476771L195.556151,319.348245L195.878733,318.495367L196.790991,317.333568L195.687693,317.265851L193.869077,317.559535L189.848630,318.964461L181.086890,322.716867L180.292064,322.347948L183.272798,320.114180L185.895227,318.106667L189.221077,315.811105L191.290071,314.160836L192.630075,312.882695L191.302232,312.835567L192.344394,311.718643L192.029971,311.213787L191.040683,310.997055L193.682898,309.239600L189.738001,310.249304L190.826650,309.159653L190.426041,308.682993L191.260818,307.720874L183.004884,310.258634L181.964637,309.964781L180.121467,309.954666L186.048959,307.115130L188.842056,305.474511L183.388302,306.734410L189.510591,303.992045L188.015628,303.869350L187.925845,303.271533L184.553960,303.717158L178.568183,304.928399L186.987254,301.688907L187.502517,300.912215L177.492199,303.187985L174.856543,303.245183L181.185534,300.802337L184.598276,299.232132L184.051008,298.745637L182.791364,298.434732L185.365968,297.160534L184.219598,296.818179L184.198592,296.199261L185.262920,295.335992L180.575286,295.753301L177.403950,295.785569L179.784819,294.631763L183.280137,293.289760L180.911525,293.126362L183.000174,292.103926L183.168811,291.455154L182.262034,290.995574L182.367832,290.357364L178.444417,290.362994L184.780113,288.753649L182.085727,288.546398L185.589847,287.441951L185.523321,286.858277L184.352383,286.413804L182.723105,286.009518L183.683787,285.292745L181.740981,284.897665L179.262666,284.531178L183.038627,283.551359L183.350276,282.921252L183.535966,282.305968L180.799998,281.907993L180.336484,281.323023L182.455719,280.576891L182.716016,279.958799L186.121308,279.196048L179.584906,278.882611L178.912934,278.283878L178.712426,277.663627L180.690376,276.994911L185.037222,276.317423L183.837752,275.741756L185.870692,275.145272L182.630347,274.549539L183.705770,273.960730L179.900512,273.298505L178.303950,272.640496L181.851822,272.120527L180.870064,271.476997L178.797939,270.772459L181.542694,270.283632L180.822099,269.632720L181.696110,269.073236L184.192181,268.638303L183.037734,267.955847L185.118551,267.526681L184.850021,266.913403L185.156281,266.351244L185.164142,265.761682L182.410485,264.869280L180.317916,264.016437L183.658824,263.801218L184.448443,263.299506L181.206067,262.259549L179.692746,261.421855L182.259434,261.171272L184.816914,260.952202L188.001442,260.867861L184.030698,259.614681L185.104134,259.193911L181.576573,257.946286L179.863128,256.993099L183.704947,257.104188L182.600571,256.262595L178.046275,254.681388L177.130019,253.823684L185.192992,254.955721L189.457666,255.322394L183.820839,253.400132L185.650476,253.218622L185.058162,252.453245L183.255702,251.365902L183.289176,250.737125L184.193373,250.343045L182.252426,249.166896L183.861281,248.974837L185.189518,248.720929L187.361005,248.736077L189.741979,248.843866L191.578866,248.812333L192.084117,248.377056L190.645193,247.308319L187.298614,245.576224L185.239106,244.234055L187.613337,244.411018L189.247079,244.355133L188.224695,243.351563L184.000150,241.138337L188.781802,242.277402L189.759131,242.012233L188.948292,241.053052L188.693876,240.302057L191.300744,240.715818L191.688966,240.240119L187.284969,237.730728L189.463584,237.997546L189.474699,237.339866L190.140806,236.972073L189.289351,235.918866L190.616075,235.858623L188.112613,234.008331L186.621643,232.599717L187.903297,232.515271L190.707859,233.202181L188.738285,231.523981L189.263087,231.086613L187.053007,229.229860L186.018690,227.953287L190.437322,229.583065L188.433058,227.778332L191.776579,228.897057L194.660907,229.809248L193.236369,228.305033L190.106940,225.782566L194.344963,227.535749L197.148754,228.501137L199.284045,229.105482L198.298960,227.823251L196.683769,226.124610L195.714286,224.799845L195.485801,223.927402L196.699145,223.984054L198.502636,224.447042L198.770156,223.908139L202.046352,225.413025L201.308571,224.207430L201.996462,223.977732L201.102245,222.633798L202.094924,222.621363L204.045397,223.319410L204.054250,222.615979L204.973623,222.587369L203.351722,220.642511L203.897373,220.323934L202.043819,218.139399L201.846422,217.216536L204.836619,218.833268L205.655273,218.744391L203.909644,216.557205L207.510464,218.777540L207.829393,218.298824L208.600131,218.205446L207.289280,216.317054L208.356647,216.478473L209.264716,216.513987L210.476291,216.835393L212.237965,217.678863L211.582042,216.318442L212.014398,215.953177L211.721440,214.900212L211.424361,213.826349L212.478682,214.052448L212.480697,213.255985L210.741392,210.706994L208.511709,207.604747L210.471917,208.734783L213.010402,210.507331L211.777735,208.362428L211.552880,207.247943L211.880613,206.712746L212.184221,206.147813L212.063799,205.107846L213.883516,206.234132L214.310001,205.812582L217.222330,208.261692L213.252290,202.731016L211.737598,199.975267L214.836915,202.701489L216.402661,203.643845L214.450650,200.280802L214.996006,199.960840L216.025971,200.256973L216.819074,200.267296L218.708463,201.715430L220.309177,202.832181L221.718780,203.733665L219.108816,199.219524L218.107785,196.802221L220.458459,198.998608L220.586408,198.125847L222.330304,199.553336L225.819626,203.565812L223.394664,198.989423L223.927839,198.711301L225.481796,199.981187L225.637595,199.148330L225.358328,197.622553L225.468584,196.677777L225.238994,195.169601L227.597339,197.839163L224.511677,191.604618L225.245389,191.596423L226.731003,192.876960L229.792460,196.927174L229.670719,195.528978L229.026458,193.166820L229.202789,192.224000L230.044816,192.482972L231.303901,193.536822L233.208637,195.855867L233.170476,194.519728L233.313032,193.502507L236.540799,198.590547L234.128296,192.464574L233.606651,190.025323L234.559255,190.590267L234.945853,189.981941L236.424626,191.719577L236.607502,190.680119L238.508431,193.452269L236.807111,188.138819L237.951399,189.230975L237.962052,187.699621L239.125741,188.888421L240.184610,189.874036L240.164541,188.217661L238.833060,183.176939L240.318449,185.239681L242.737252,189.856101L243.128996,189.209407L242.857219,186.722541L243.976139,188.039718L243.252276,184.147148L243.452466,182.797946L245.774419,187.734518L246.159081,186.985449L246.258958,185.322550L244.835431,178.730135L248.395865,188.115881L248.828880,187.500415L248.322377,183.646080L247.295464,177.783181L247.478210,175.984628L248.907902,178.704274L250.501111,182.196230L251.510490,183.614555L252.585245,185.381409L253.384977,186.126208L254.315595,187.476473L253.952222,183.276612L254.335134,182.178869L254.725224,181.053426L254.747937,178.105554L256.039679,181.243735L257.355194,184.729558L257.705293,183.357532L258.064962,181.944825L258.724636,182.143832L259.639544,183.881162L260.196362,183.558463L260.977192,184.659465L261.370181,183.256831L261.377508,179.013613L262.362300,181.587717L263.073097,182.305947L263.820993,183.414359L264.083063,180.450228L264.914727,182.367365L264.825789,175.540227L265.852693,179.441172L266.706355,181.982444L267.065376,178.947969L267.747411,179.646482L268.037960,174.854049L268.324608,169.014104L268.728547,163.910346L269.665249,168.153201L270.241018,165.366744L271.008371,166.799706L271.666391,165.259329L272.378280,165.147259L273.241436,173.679232L273.902548,173.838524L274.557213,173.011610L275.222775,172.104668L275.866055,175.130327Z" />
<line x1="50" y1="625" x2="100" y2="625" fill="none" stroke="green" stroke-width="1.0" stroke-linejoin="round" stroke-miterlimit="10" />
<text x="125" y="628" style="text-anchor:start;fill:black">n0_4mer:PS</text>
<path style="stroke:red;stroke-width:1.0" d="M276.621616,150.377843L277.398705,152.119165L278.221604,151.237603L278.943118,153.832604L279.683540,155.086542L280.453507,155.342350L281.100165,157.909890L281.907103,157.180753L283.039698,151.608661L283.668651,154.086770L284.846597,149.142902L285.404184,152.289108L286.329183,150.971258L287.412251,148.225456L288.087034,149.742809L289.213878,147.020222L289.622797,150.714783L289.746569,156.321979L290.801644,154.256410L292.519999,147.575495L293.214638,148.622476L293.373876,153.138608L293.607694,156.809362L295.244445,151.643074L296.958563,146.438344L297.754217,146.811377L297.446292,153.158397L297.239059,158.541207L298.462900,156.328542L298.663268,159.277471L299.231313,160.306729L301.409453,153.898507L301.431328,157.476669L303.037033,154.019632L305.328469,147.897947L304.054413,156.653499L305.096738,155.763822L305.166055,158.683869L307.430830,153.217602L308.415702,152.724308L310.165058,149.538973L310.483527,151.500584L309.635316,157.342619L309.600071,160.224408L311.518069,156.653998L312.620646,155.838306L313.353573,156.214467L314.707371,154.704150L313.747878,160.127515L313.619997,162.919918L314.438323,162.918107L316.922379,158.289480L318.470394,156.410868L317.860028,160.389244L319.958795,157.120542L320.314898,158.469731L320.590792,159.981424L321.254669,160.487291L322.592884,159.346945L323.202740,159.996977L325.153805,157.492577L324.460263,161.174565L324.922745,162.125263L325.139580,163.600103L327.272806,160.850830L330.311635,156.261891L329.984909,158.942134L329.788177,161.275732L327.030259,168.773595L328.359356,167.830920L329.044736,168.201694L331.392250,165.339675L332.499254,164.953528L333.341032,165.090770L335.064247,163.600735L336.468786,162.750335L336.628782,164.175970L337.019583,165.161927L336.786158,167.219354L335.803488,170.515102L335.663735,172.298290L337.293132,171.089726L339.594888,168.822910L341.238336,167.700102L340.146599,170.988798L340.501578,171.919088L339.686331,174.650492L341.370983,173.493505L340.788575,175.799455L340.925855,176.983076L341.512837,177.486483L345.811533,172.621596L345.492840,174.486586L347.853233,172.545547L345.448651,177.279710L344.273478,180.216020L346.676365,178.255918L350.313005,174.718158L351.841980,174.056817L351.232045,176.198574L349.905701,179.212761L353.307806,176.193892L352.881616,178.034469L355.386406,176.239026L352.195648,181.409565L352.225738,182.604434L352.243571,183.795704L353.914315,183.042940L356.627701,181.123991L355.409650,183.730977L351.864453,188.891035L352.663524,189.127137L356.782940,185.746546L355.990868,187.757462L358.515906,186.203296L358.894086,186.956170L363.498115,183.326229L363.474524,184.536082L366.359827,182.793795L368.859513,181.495702L369.818039,181.762125L371.062838,181.759692L372.127605,181.945870L374.212568,181.178753L370.028729,186.299341L367.223744,190.033641L369.943275,188.663439L366.608449,192.778517L366.461784,193.978425L367.874505,193.799304L372.797125,190.611832L369.050637,194.906284L370.947865,194.361726L371.623783,194.860596L375.823014,192.479124L383.626407,187.266285L382.799648,189.086936L378.065653,193.950692L370.743329,200.711943L370.358171,201.999801L374.962598,199.501431L370.980673,203.484812L374.717154,201.704930L377.713340,200.527139L383.521364,197.388261L381.693867,199.739679L374.773030,205.589303L372.798918,207.902732L375.812949,206.795311L373.385461,209.366704L377.337460,207.688361L383.814804,204.437947L389.258023,201.959855L389.616280,202.777013L393.500828,201.402049L395.831850,201.039405L396.951651,201.440445L389.765696,206.789365L387.340827,209.215944L385.475823,211.269696L379.101348,215.846332L381.082705,215.630215L378.188066,218.128723L382.322344,216.757324L383.169729,217.205360L383.261496,218.058706L381.528831,219.851899L382.765463,220.097842L384.786641,219.964913L384.613767,220.941119L387.578961,220.386522L388.866490,220.674294L394.012966,219.166613L394.460524,219.902124L393.619489,221.223231L391.551310,223.072389L390.135493,224.598444L394.580676,223.577069L398.376120,222.893489L399.669042,223.300688L395.812425,225.818789L399.384450,225.305620L397.079943,227.145058L394.385146,229.095293L394.442802,229.962976L394.964915,230.655475L394.786587,231.605176L396.777880,231.778044L401.909288,230.884417L394.781311,234.233792L395.754386,234.777398L392.613139,236.672068L398.779586,235.551577L393.132353,238.196311L399.663439,237.049649L404.664291,236.447324L404.147436,237.513840L406.618781,237.723311L398.658658,240.845300L394.871036,242.729403L387.497009,245.498230L392.548745,244.989496L389.718944,246.505724L394.609479,246.115936L393.523110,247.193162L396.971173,247.220241L399.995988,247.385549L399.620016,248.317826L397.677342,249.567420L397.793365,250.375559L396.785834,251.400817L397.719755,252.047282L397.113969,252.981934L398.149305,253.621628L397.798689,254.504655L394.838515,255.799314L399.440639,255.891570L399.294391,256.741013L398.558653,257.669614L398.195093,258.537221L398.939645,259.257847L396.374403,260.385491L397.519509,261.055729L398.177875,261.792057L400.448567,262.373640L398.942016,263.339360L395.865094,264.421745L398.733931,264.981462L395.063147,266.064598L395.428676,266.824942L400.265410,267.315065L400.726334,268.107599L397.721373,269.072954L398.696422,269.832338L401.800110,270.528937L406.587780,271.217186L404.268398,272.125506L408.194827,272.905153L411.447363,273.741945L410.807476,274.631521L408.258132,275.505495L400.749139,276.295251L395.672856,277.028277L396.461378,277.832150L394.418101,278.562060L395.880919,279.393078L399.343321,280.329230L405.384072,281.438292L400.321174,282.005963L400.559129,282.839089L398.367887,283.508452L399.564854,284.405728L395.896901,284.920275L396.877107,285.799487L394.258911,286.350011L400.522024,287.770717L405.472723,289.132704L416.448569,291.253413L414.790027,291.985102L417.852633,293.301185L417.493714,294.198366L418.201789,295.243278L413.118761,295.442227L406.284031,295.304430L402.689161,295.600008L396.739598,295.453758L400.095593,296.855455L395.796957,296.915338L396.332835,297.828980L393.554826,298.105977L396.978080,299.598023L390.998385,299.178650L392.668540,300.326756L393.348829,301.280041L393.043336,302.019312L394.578390,303.190718L396.087644,304.379469L399.039340,305.951585L404.012485,308.085695L401.437501,308.303591L402.340755,309.429078L407.962772,311.879124L415.458098,314.944061L411.700484,314.838637L408.156413,314.747563L409.532737,316.113613L405.993442,315.965783L407.089704,317.254063L403.367355,316.985958L398.475757,316.277292L396.146768,316.376985L393.776671,316.432408L388.919874,315.571555L395.750264,318.891529L397.463603,320.418560L397.195293,321.225685L394.224023,320.990626L388.629585,319.684079L387.693200,320.164671L385.855752,320.267614L387.735773,321.893444L389.041828,323.309491L387.335432,323.451117L386.704194,324.043315L385.350061,324.307657L385.084912,325.050984L384.359306,325.582284L383.811652,326.191039L385.876154,328.046109L385.729219,328.863965L388.011043,330.886167L383.965635,329.770872L382.755754,330.043887L379.023102,328.993474L381.804896,331.322534L381.035957,331.801882L383.924585,334.264582L379.060796,332.498898L379.170734,333.447584L380.013264,334.821986L379.739027,335.571781L382.845970,338.308502L383.615569,339.714184L381.910777,339.644696L378.269846,338.364409L378.308425,339.317051L377.503899,339.745409L376.731721,340.187518L383.771920,345.701247L384.832460,347.411487L378.028941,343.891899L376.009513,343.496826L370.514587,340.681885L375.488581,345.069683L379.368662,348.789101L378.433171,349.141780L377.426649,349.433915L374.952165,348.634225L378.549083,352.328483L377.510274,352.596768L377.957463,353.994257L379.038411,355.904455L373.874201,352.926193L375.580701,355.337572L372.096468,353.594826L370.961030,353.714708L371.959824,355.595040L370.367245,355.326220L370.454507,356.467288L372.422750,359.248870L366.402855,355.088378L366.618440,356.337129L368.047479,358.694693L370.179656,361.739510L367.512314,360.417141L366.070410,360.190179L364.219149,359.553609L359.346376,355.983842L361.541166,359.180125L358.444264,357.231111L357.851090,357.716026L362.256075,363.254885L366.408695,368.666238L367.024083,370.532545L364.852786,369.501440L362.840589,368.597203L362.906355,369.897186L362.378415,370.567078L361.018325,370.317542L361.964485,372.635799L358.035210,369.454650L354.887175,367.074973L355.695561,369.238474L354.052431,368.544766L353.620662,369.271242L353.673760,370.592620L350.895872,368.449983L349.837921,368.382425L349.737631,369.510909L348.832016,369.624681L347.437342,369.093215L348.172567,371.338597L344.826413,368.185694L348.645687,374.626929L348.324417,375.554510L347.017452,375.124188L347.659570,377.416146L348.690413,380.314510L350.039413,383.741878L348.227910,382.607879L345.058516,379.404590L342.285625,376.696201L343.110843,379.413446L344.739306,383.445346L347.064403,388.680003L346.348540,389.187016L341.811569,383.490465L342.930843,386.932623L342.025322,387.078295L343.130449,390.627632L346.283547,397.798773L345.858668,398.916870L348.518065,405.531238L344.966527,401.137955L341.341749,396.459522L340.931103,397.597137L336.177746,390.554551L334.117818,388.442560L331.826297,385.798464L330.608923,385.184548L330.960656,387.698554L328.331370,384.181150L327.337004,383.937109L327.457318,386.032611L326.616323,386.118738L325.561378,385.727668L324.895298,386.177842L323.875173,385.829632L324.536782,389.339246L322.413238,386.419604L323.913844,392.054056L321.957013,389.458993L323.689652,395.916919L322.635507,395.557037L319.503847,389.811560L320.134306,393.724607L318.498464,391.702026L317.724552,391.945172L317.856705,394.717929L316.467996,393.257923L315.664042,393.427296L313.915618,390.782543L313.032049,390.639837L312.398352,391.256392L311.301777,390.418307L311.144486,392.585938L310.891776,394.527465L311.260741,398.671936L310.797141,400.099884L309.509161,398.634637L307.739833,395.313409L307.289068,396.778859L305.135986,391.718838L305.882170,397.907157L305.295471,398.979840L305.010814,401.375262L303.718961,399.534326L303.782965,403.628388L301.695758,398.052642L301.096029,399.182521L300.303352,399.427742L298.373123,393.892123L298.034335,396.334555L297.485403,397.798141L296.477006,396.757374L295.441804,395.465290L294.337197,393.630368L293.354538,392.407959L292.747044,393.572608L291.781197,392.329346L292.316696,401.961930L291.127375,399.275656L290.838358,403.599514L289.878635,402.647589L289.463098,406.518359L288.356401,404.185232L287.470283,403.801638L286.614068,403.681724L285.480912,400.222374L284.610171,399.565226L284.223605,405.631905L283.427436,406.531744L281.846192,393.979695L281.209881,396.726394L280.102272,389.674185L279.488427,393.191229L278.684501,392.111307L278.108787,399.601897L277.344402,402.136083L276.524075,402.730069L275.654204,395.592543L274.867182,397.784694L274.076019,396.761706L273.318482,394.292093L272.544309,394.183065L271.718589,396.019789L270.973269,394.746036L270.135437,396.181731L269.260562,398.001404L268.461217,397.945549L267.636718,398.313859L266.554432,402.491594L265.942486,399.446905L265.225552,398.218110L264.429489,398.088416L263.625902,398.048759L263.028770,395.919180L262.276547,395.513959L261.144663,398.531550L260.931078,393.471501L259.257965,400.577459L257.935781,404.302321L257.160444,403.715164L256.923219,399.465902L257.265593,391.762073L256.518725,391.565542L255.294532,394.264105L255.029090,391.166027L253.279238,396.600848L253.122849,393.034417L251.518408,397.246577L250.745252,396.981833L250.181486,395.705743L249.308925,395.954653L248.580464,395.520395L248.283313,393.193861L247.236617,394.212206L246.721544,392.944635L246.311432,391.311980L244.496104,395.299874L243.125684,397.357303L241.076876,401.833451L239.733759,403.499629L239.019268,402.838076L238.117596,402.846161L237.103675,403.222208L236.819325,401.158461L237.644340,395.596560L237.216595,394.227172L235.707406,396.244419L234.325701,397.778188L235.297640,392.282467L233.785698,394.189700L231.910485,397.036006L233.631810,389.776697L233.405542,388.092201L230.297813,394.143240L229.623179,393.589488L226.721897,398.753283L226.518109,396.926616L227.140655,393.116764L227.041757,391.183079L227.364192,388.305962L227.154605,386.763440L224.063974,391.875113L225.672005,386.204186L226.338967,382.802674L224.864032,384.170334L222.998436,386.317126L219.157913,392.537868L219.950058,388.951734L221.218350,384.501634L221.456974,382.246613L218.806827,385.745889L217.988886,385.569071L215.707125,388.180339L216.771947,384.410010L217.065074,382.171981L213.662645,386.722183L214.988846,382.640418L214.984276,381.020762L215.478449,378.570024L213.898722,379.735448L213.242902,379.294551L212.889745,378.351166L210.128380,381.372266L210.665727,378.963352L210.037237,378.468354L208.676440,379.125107L206.915320,380.370604L207.872882,377.420497L209.747785,373.160744L207.560980,375.032479L206.929525,374.565266L206.142459,374.323183L204.572375,375.189364L205.558507,372.432808L201.581179,376.608027L199.848429,377.593239L199.790324,376.283537L202.141149,371.795492L202.450198,370.090856L202.437224,368.835464L202.997627,366.869272L201.276803,367.814667L200.155019,367.978314L199.692614,367.316546L199.413271,366.437830L197.725359,367.250789L197.389639,366.436340L195.970529,366.889632L193.699754,368.295106L193.215703,367.626818L194.186727,365.335528L194.745402,363.544817L193.885443,363.331707L193.035722,363.099479L190.644922,364.494468L186.939841,367.215732L185.234027,367.785751L183.873946,367.973361L183.517886,367.129785L183.666052,365.791359L186.039377,362.288712L185.381767,361.796703L188.808920,357.397380L187.388254,357.671218L185.225994,358.614047L182.144782,360.362346L187.224751,354.644772L183.901821,356.585481L180.287447,358.718324L180.465002,357.471946L179.230202,357.457974L182.446878,353.645605L181.998160,352.990559L180.934264,352.845917L183.057895,350.085912L180.195923,351.400353L181.477632,349.368976L184.316986,346.152926L182.130190,346.897425L179.600780,347.867841L177.067621,348.798731L173.131256,350.730900L173.610561,349.355201L177.510944,345.523955L174.849618,346.461160L172.973266,346.802792L170.021690,347.863295L173.000630,344.816695L177.949039,340.506377L174.282339,342.031559L173.075824,341.881729L171.552699,341.922359L174.497517,339.093566L174.898587,337.925355L170.706297,339.617792L166.617071,341.179370L165.786092,340.715066L163.312203,341.217663L162.195934,340.891312L165.663376,337.915365L163.641741,338.117779L166.537033,335.547699L165.593946,335.143836L162.543070,335.871543L167.632343,332.216662L167.488050,331.398453L163.464259,332.586962L154.797720,336.074286L153.832920,335.575839L153.927381,334.547133L157.880516,331.659485L156.536132,331.361647L162.326154,327.710617L162.101361,326.923135L161.381231,326.361352L161.078569,325.608066L160.561893,324.948606L160.078266,324.272006L163.592134,321.909698L160.241819,322.443715L161.050031,321.243751L157.924765,321.627170L163.010055,318.759788L156.093270,320.572951L156.112421,319.680625L156.145611,318.787729L157.608840,317.383229L163.012638,314.610510L159.054249,315.163758L162.325638,313.211285L159.743428,313.252645L157.671174,313.094723L156.264249,312.699310L151.053896,313.467682L156.667941,310.882908L153.649325,310.937774L146.531313,312.138294L144.743823,311.738392L151.880420,308.862292L153.686134,307.518114L157.315167,305.726028L155.118298,305.467814L159.175444,303.635709L155.351555,303.756330L156.175351,302.741803L156.137193,301.936392L149.592969,302.562804L149.486401,301.731323L152.474604,300.262669L155.359300,298.857425L153.063528,298.491342L152.740978,297.729491L157.205825,296.107440L154.245211,295.827955L150.536857,295.634579L152.356078,294.513919L159.515428,292.605146L156.211139,292.318773L153.000494,291.976952L149.615683,291.617089L147.297415,291.079543L146.871220,290.286992L146.030444,289.536857L148.291062,288.447735L151.852244,287.260036L155.082329,286.150976L154.544108,285.410958L154.328059,284.639039L152.480511,283.984754L149.444311,283.386457L151.276752,282.455794L154.436238,281.478389L152.415493,280.787332L150.096292,280.082555L151.705753,279.213713L146.561239,278.553034L152.346220,277.594468L154.060213,276.771054L154.170725,275.983146L157.488397,275.191532L152.368033,274.401959L158.061352,273.668800L152.418054,272.806796L151.041412,271.975256L154.471223,271.274115L150.032629,270.322844L147.574982,269.400386L145.442359,268.461811L149.129824,267.826550L148.869142,266.988031L152.451874,266.414682L151.017232,265.503132L150.502184,264.648455L150.826041,263.861398L148.966561,262.867460L146.861289,261.822788L149.150946,261.230174L147.739885,260.237233L153.681217,260.125847L154.207142,259.391918L152.985265,258.426191L150.698451,257.291122L151.162945,256.534413L155.299594,256.354296L151.751794,254.979429L155.269627,254.750421L156.729708,254.204930L152.839922,252.700636L152.392799,251.793690L156.587523,251.788584L152.993995,250.258766L148.542379,248.498250L147.277244,247.364382L156.500909,248.551854L157.948559,248.074242L155.614986,246.718313L157.070666,246.251516L155.622260,245.074209L154.739619,244.019921L156.845722,243.741285L157.566633,243.113019L157.546397,242.285493L158.711472,241.793171L158.616561,240.945527L157.253559,239.713386L154.135060,237.920093L158.406671,238.398876L158.745876,237.672688L156.675425,236.156851L159.573722,236.274535L156.045589,234.227847L161.839111,235.388962L163.921908,235.304870L162.970274,234.140844L158.475707,231.640518L158.849656,230.917183L160.290345,230.607968L165.242216,231.701130L162.740094,229.867771L161.679882,228.582771L162.454766,228.042727L161.157194,226.629288L165.582858,227.666911L165.506788,226.785857L165.975456,226.142861L163.904003,224.344013L165.095817,224.021084L164.284433,222.766689L159.771908,219.718324L160.363126,219.081505L158.638509,217.299999L161.669522,217.881289L162.249160,217.250413L163.962709,217.213006L160.651252,214.540869L161.124241,213.839592L162.566485,213.668295L166.563199,214.929703L166.560631,214.002839L165.998375,212.749495L168.156012,213.056339L172.625266,214.754041L172.000510,213.480636L174.671243,214.186663L174.668758,213.288948L174.011505,211.975362L170.231079,208.665023L168.989436,206.908577L171.370102,207.481232L170.562292,205.982785L172.178085,206.085219L172.292690,205.189306L172.329357,204.233210L175.997602,205.807094L173.570872,203.124228L173.490830,202.070757L175.789580,202.738965L176.575831,202.326813L176.827573,201.520900L172.040811,196.887822L173.694108,197.098412L176.973713,198.600255L177.997929,198.378790L172.864768,193.239370L173.708195,192.827463L173.992726,191.962753L175.808093,192.367737L175.800045,191.261676L177.932894,191.974489L179.847546,192.534087L180.823045,192.300392L180.821598,191.207569L183.060846,192.121865L183.337376,191.283693L180.855594,187.886813L180.535299,186.442611L179.814015,184.595642L181.225022,184.767989L187.175508,189.386198L187.008999,188.100155L185.481625,185.433705L181.495979,180.220497L185.960087,183.563081L187.555983,184.025092L187.623467,182.903332L189.084786,183.255371L190.051194,183.096054L190.119492,181.962729L191.185022,181.921466L190.040957,179.407420L190.633216,178.820727L193.794551,181.200541L191.276190,177.010380L187.905345,171.711902L193.215646,176.719019L195.140818,177.752508L193.588776,174.536803L193.667127,173.287597L197.039354,176.193544L199.802607,178.409848L201.107108,178.800659L201.638378,178.194944L202.885061,178.542612L201.594667,175.472836L201.737701,174.301704L204.456417,176.700420L203.022056,173.311373L201.441960,169.631844L202.878900,170.244549L206.653621,174.331191L208.728031,176.006691L210.321337,177.013478L209.244135,173.957675L208.496507,171.339702L210.700780,173.325988L210.959192,172.260855L212.942388,173.984208L210.643221,168.697039L211.426023,168.431042L213.004679,169.523513L216.266719,173.568398L213.853647,167.798581L216.331464,170.569655L214.906766,166.384705L214.978368,164.827907L216.016506,165.036343L218.447838,167.901989L219.182605,167.606974L219.505300,166.508565L221.870435,169.443958L221.229297,166.416616L221.249755,164.658367L221.779548,163.915889L222.299761,163.139622L222.998569,162.734046L224.040398,163.079498L224.060435,161.165324L224.071194,159.173824L226.800010,163.415056L226.628001,160.984672L228.446038,163.253157L229.653533,164.124844L229.482772,161.607163L228.633560,157.281761L228.410060,154.419236L231.052731,159.019742L233.539174,163.395457L232.355837,157.881374L233.504185,158.686695L233.105722,155.110631L235.000629,158.096277L236.199719,159.145154L237.229669,159.735338L237.423739,157.755008L236.608385,152.473614L239.782833,159.987336L240.180407,158.585420L240.938599,158.361329L239.292563,149.700543L240.390155,150.483875L242.138467,153.720940L243.940738,157.345007L244.510612,156.381674L245.511107,157.097619L246.192278,156.552220L247.089978,156.902159L247.529400,155.286816L247.832891,152.972510L248.924857,154.176454L249.105333,151.108949L250.646149,154.573445L252.125473,157.974419L253.066120,158.775142L252.512157,151.433100L253.898313,154.608113L254.519232,153.507266L255.209599,152.755410L256.161791,153.636721L257.325237,156.030053L257.534484,151.935018L258.626045,153.970976L259.420986,153.922301L260.552681,156.638243L260.228597,147.067336L261.151829,147.805373L261.597937,143.985798L262.905310,148.650854L264.257498,154.517245L264.541307,148.393031L265.245690,146.755081L265.797496,142.625932L266.452201,139.285708L267.207010,136.958520L268.164926,138.104040L268.896889,134.401890L269.904323,136.872509L270.648377,131.746858L271.555655,130.678423L272.649990,139.602714L273.575505,143.692161L274.435669,145.015859L275.288255,141.860700L276.103342,147.767435Z" />
<line x1="50" y1="600" x2="100" y2="600" fill="none" stroke="red" stroke-width="1.0" stroke-linejoin="round" stroke-miterlimit="10" />
<text x="125" y="603" style="text-anchor:start;fill:black">n0_4mer:D</text>
<path style="stroke:black;stroke-width:1.0" d="M277.246275,102.372409L278.355282,103.115631L279.462196,103.578507L280.636014,101.811896L281.788120,101.202647L282.874967,102.212115L283.939861,103.403113L284.940572,105.436774L285.922518,107.363834L287.060398,106.777563L288.134210,107.121328L289.336081,105.914826L290.606515,104.144223L291.806790,103.341113L293.106512,101.700923L294.236464,101.797552L295.285582,102.584425L296.345317,103.216309L297.379847,103.991018L298.556757,103.669622L299.613956,104.222480L300.745106,104.250266L301.861382,104.384343L303.078232,103.908893L304.258201,103.700867L305.306596,104.264137L306.312663,105.030496L307.223283,106.257044L308.499966,105.562730L309.509038,106.237465L310.500415,106.967066L311.723496,106.603097L312.705930,107.345677L313.914521,107.083051L315.067188,107.084441L315.789285,108.854182L316.688939,109.838257L317.574382,110.839077L318.641599,111.119563L320.099145,109.971924L321.266422,109.931802L322.187565,110.765009L323.456396,110.391927L324.555264,110.614939L325.778608,110.439128L327.254739,109.485478L328.142337,110.411922L328.863356,111.817746L330.035847,111.839981L331.039269,112.367001L332.133606,112.628930L333.400178,112.415830L334.134101,113.679590L335.134318,114.196568L336.099126,114.801493L336.872844,115.889871L337.925216,116.249329L338.844428,116.940314L340.456668,115.937070L342.340770,114.337098L343.468131,114.583187L344.510438,115.032072L345.246399,116.173723L345.842183,117.603152L347.036558,117.692328L348.201092,117.858392L349.334392,118.100751L350.207188,118.891823L351.105837,119.620236L351.864467,120.622310L352.257670,122.330400L353.512375,122.324898L354.891990,122.096597L356.483031,121.493335L358.239541,120.618249L359.110168,121.404350L359.639925,122.796155L360.523957,123.535152L361.196784,124.637114L361.601100,126.184408L362.516676,126.837143L363.491705,127.388264L364.658196,127.625391L366.015780,127.562965L366.933340,128.221852L367.611512,129.255738L368.625575,129.756326L369.897021,129.866336L371.260808,129.851322L372.042710,130.719308L372.634243,131.859837L373.606191,132.436437L373.900008,133.981744L375.112488,134.210502L375.785161,135.199520L375.785309,137.099709L376.717639,137.708165L377.496168,138.522846L378.321413,139.272208L379.431449,139.650409L379.832426,140.943334L380.042424,142.461065L381.035655,142.981635L381.939743,143.616179L383.396895,143.581807L385.171672,143.186769L386.665275,143.152744L387.748742,143.616450L388.978546,143.918873L389.870338,144.616351L389.292656,146.961330L389.536330,148.356730L390.163661,149.316642L390.868414,150.187726L392.800071,149.751307L393.991971,150.122199L395.227430,150.458344L396.148854,151.127054L397.013866,151.855770L398.423636,152.043466L399.096249,152.971843L400.309227,153.372625L401.341681,153.957015L402.081160,154.824572L402.558809,155.935476L403.183696,156.903494L403.681154,157.983937L404.504925,158.765229L405.904163,159.038328L406.317081,160.188745L407.146509,160.972089L407.562029,162.109904L408.025774,163.200027L409.298874,163.613016L410.475466,164.117041L411.865129,164.458866L412.513035,165.406264L412.348596,166.991092L413.058329,167.879377L413.524075,168.954708L413.822067,170.152111L415.102811,170.609412L415.507090,171.723115L415.892699,172.844990L416.696752,173.662061L416.924049,174.888815L416.002269,176.906700L415.926233,178.314215L417.111480,178.854917L418.129236,179.517970L420.951306,179.001706L422.747626,179.191567L423.589077,180.013517L424.225118,180.968998L424.377115,182.225546L425.052232,183.153750L425.432557,184.261155L425.224511,185.714528L425.090259,187.110794L425.171635,188.370331L424.840829,189.855718L424.922551,191.094998L424.906920,192.380001L425.551195,193.297494L426.156792,194.237550L428.040007,194.506969L428.360660,195.607885L428.339296,196.879811L428.900221,197.851160L429.208327,198.948152L430.824688,199.407472L431.031155,200.557530L431.342445,201.653973L430.624375,203.222544L430.370778,204.561841L429.535400,206.149173L429.132638,207.527107L429.373150,208.615362L429.629067,209.694160L431.678974,210.026411L432.874196,210.731410L433.765002,211.569818L433.313047,212.941799L432.814990,214.318658L433.077800,215.395289L433.474000,216.420754L435.485605,216.861232L437.227143,217.421608L438.271427,218.244389L439.513037,219.009858L439.850134,220.089353L440.168264,221.174739L440.586451,222.227773L440.651788,223.391810L442.072402,224.139408L442.675403,225.145600L443.512492,226.087791L444.200056,227.079652L443.170679,228.551016L442.853681,229.811949L441.789767,231.260229L441.113901,232.590684L440.840342,233.808019L441.080544,234.893806L441.776140,235.872465L442.709801,236.802959L443.137889,237.854524L442.679222,239.098494L442.260479,240.324766L441.342604,241.642386L441.102014,242.813401L441.516826,243.855758L442.958562,244.715810L442.647041,245.896947L442.660218,247.017176L442.863428,248.104699L442.169899,249.330297L442.964190,250.325870L443.764957,251.328959L443.803879,252.442437L444.046292,253.528641L445.597376,254.458627L446.398172,255.492718L447.379160,256.516371L448.155027,257.571999L447.891360,258.734136L447.146665,259.933522L446.530787,261.111427L447.278278,262.178616L447.632457,263.281194L448.216654,264.373294L448.656615,265.480029L448.227888,266.633652L448.403563,267.755724L448.634435,268.877524L449.545344,269.982265L449.336826,271.123336L449.595859,272.254010L449.235000,273.393540L448.191637,274.530088L447.615960,275.654793L446.970500,276.771343L446.917835,277.889607L447.795263,279.029116L448.702590,280.181284L448.765147,281.315007L449.319905,282.471177L448.306155,283.557761L447.410506,284.638449L446.520644,285.708625L446.422393,286.822682L446.017722,287.913323L446.204194,289.048274L447.005764,290.241369L448.159933,291.479835L449.093779,292.712449L450.926178,294.056187L452.077708,295.347446L452.127723,296.521796L452.616352,297.754847L451.894615,298.833245L451.364444,299.931215L450.617254,300.992181L449.035984,301.916461L447.314420,302.799371L445.255923,303.605101L443.243575,304.393840L442.396821,305.369623L442.011387,306.423478L442.183785,307.583614L442.826081,308.843702L443.985277,310.223213L443.801405,311.332498L444.220466,312.576382L443.777409,313.631994L444.191716,314.887106L445.022025,316.252408L444.798534,317.369895L445.463815,318.716032L445.913209,320.018476L446.666615,321.413446L446.505552,322.569514L446.204434,323.687833L445.259903,324.618862L444.322511,325.543245L444.097667,326.676760L444.306710,327.947551L443.625220,328.941378L442.498341,329.784787L441.450654,330.643572L438.955583,330.998091L438.387091,331.993689L438.048132,333.068149L439.464523,334.781230L440.173885,336.258691L439.608107,337.270177L438.569612,338.096923L435.828744,338.244834L434.543513,338.941128L434.286134,340.044015L434.021151,341.146257L434.600398,342.608650L434.455585,343.774393L433.180551,344.448588L432.154636,345.221320L431.000201,345.926736L430.580798,346.961247L429.554988,347.711242L429.078618,348.715319L428.258465,349.552217L427.445165,350.387110L427.945551,351.877092L427.820637,353.063969L428.197148,354.517397L427.820280,355.588304L426.510274,356.161797L426.286463,357.313180L425.528843,358.174864L425.420584,359.397213L424.314272,360.058553L422.599703,360.358602L421.836348,361.196909L421.304616,362.169676L421.525995,363.598444L421.702975,365.014149L420.933771,365.854447L420.075294,366.635141L420.349653,368.136959L420.809729,369.775652L420.534414,370.949442L419.273103,371.470447L418.073282,372.021216L416.254364,372.135455L416.285916,373.517257L416.866877,375.300503L416.028371,376.090341L415.741827,377.277730L415.163961,378.258041L414.398992,379.100514L413.479481,379.824227L415.065848,382.465718L414.314311,383.336414L412.487141,383.358393L412.550873,384.867033L409.170617,383.604530L407.958520,384.062930L408.534353,385.996556L407.570281,386.661709L407.278365,387.895242L406.011465,388.295588L405.027060,388.931412L404.451290,389.924421L403.254644,390.362965L402.381195,391.085546L400.888373,391.233443L400.202470,392.118401L399.955004,393.420727L400.164798,395.175005L399.873100,396.466277L398.652720,396.854997L397.627223,397.427317L395.913944,397.298033L395.168037,398.135857L393.739846,398.266859L392.530421,398.611015L391.928979,399.591894L391.039382,400.267517L390.221868,401.019879L389.659121,402.054619L389.420377,403.460774L388.590376,404.211923L388.779550,406.138058L388.590650,407.654255L387.192554,407.760321L386.358398,408.525898L385.225087,408.929086L383.831169,409.002952L382.941335,409.688718L382.241046,410.613729L381.525592,411.525463L380.947703,412.621835L380.246620,413.567116L379.155386,413.998861L378.196761,414.603238L377.404097,415.433355L376.480895,416.086528L376.247968,417.712468L375.503610,418.634539L374.318405,418.925297L373.513482,419.764842L371.663907,419.053231L370.269290,418.991007L369.835831,420.382667L369.340941,421.701145L368.966757,423.230482L368.483897,424.612693L366.964355,424.334251L366.107510,425.121831L365.237888,425.893846L364.920559,427.608729L365.024043,430.082659L364.013087,430.665120L363.213088,431.622236L361.707034,431.318291L360.394465,431.341535L359.618186,432.345273L357.797097,431.389895L356.234708,430.883177L354.311604,429.639743L352.042034,427.652510L350.808087,427.669078L350.707515,429.990086L350.249670,431.628789L348.993992,431.617733L348.278856,432.753468L346.819874,432.283038L344.955520,430.876487L344.308064,432.163378L343.005697,431.968616L341.552168,431.395480L341.453817,434.028369L340.517332,434.700274L340.163289,436.827899L339.366241,437.899564L337.997720,437.522275L337.169936,438.536385L335.794560,438.105719L334.453173,437.734568L333.283526,437.811934L332.107122,437.857387L330.989437,438.059974L330.190171,439.202927L329.124517,439.570424L328.067903,439.966707L326.768366,439.592966L325.325347,438.719390L323.989383,438.145362L322.624340,437.428957L321.549286,437.675292L320.718397,438.793531L319.714071,439.316728L318.756133,440.027123L317.962732,441.397745L316.769477,441.237272L315.835342,442.112740L314.926239,443.129024L313.780890,443.165973L312.953427,444.610328L311.735077,444.328337L310.755966,445.151019L309.593307,445.110547L308.333819,444.559222L307.484024,446.111280L306.257410,445.704160L305.250296,446.494876L304.077348,446.355286L302.861242,445.923915L301.769771,446.237444L300.558815,445.765078L299.604720,447.029193L298.510228,447.371446L297.364058,447.334803L296.442471,449.102091L295.425007,450.231321L294.299459,450.497201L293.244599,451.464657L291.973157,450.310406L290.691666,448.860763L289.593471,449.357837L288.325030,447.716530L287.215932,448.011573L286.110752,448.411769L284.939118,447.731536L283.864706,448.766404L282.695004,447.946160L281.558175,447.692745L280.459173,448.518970L279.340653,448.975738L278.221951,449.725265L277.085177,449.755031L275.939268,448.139720L274.814278,446.691986L273.700957,446.187095L272.592084,445.825010L271.466493,446.493167L270.313469,447.841213L269.194013,447.657127L268.068732,447.665662L266.979804,446.880118L265.983134,444.539738L264.860090,444.814423L263.766144,444.582688L262.634855,444.892531L261.428869,446.079647L260.304255,446.124737L259.156617,446.398952L258.065142,446.055864L257.031275,445.196108L255.915909,445.150133L254.692760,446.003093L253.417279,447.169813L252.070151,448.748520L250.924690,448.707097L249.944104,447.519917L248.981696,446.302654L247.910730,445.858098L246.799610,445.678224L245.706629,445.392558L244.660137,444.853764L243.598908,444.419209L242.570347,443.830720L241.416456,443.898156L240.147016,444.508756L239.083801,444.094965L237.995048,443.808849L236.933303,443.405981L235.920603,442.801638L234.882090,442.324988L233.596643,442.861513L232.646669,442.031136L231.280288,442.828733L230.208612,442.468255L229.053750,442.414389L227.833341,442.581220L226.882578,441.790313L225.444036,442.672596L224.567773,441.640639L223.654745,440.759651L223.090940,438.801289L222.369278,437.401629L221.164327,437.506706L219.811478,438.029251L218.559872,438.222026L217.553168,437.698094L216.593279,437.050368L215.298470,437.323969L213.778057,438.172794L212.355782,438.716753L211.305511,438.270751L210.955896,436.063867L210.355283,434.543028L209.223180,434.350154L208.425166,433.354102L207.342120,433.043999L205.935640,433.471431L205.159459,432.447321L204.182792,431.887018L202.871326,432.059128L202.078465,431.099451L201.005330,430.745892L200.189305,429.855902L199.552569,428.614047L197.951582,429.327884L196.830280,429.057418L195.405592,429.367792L193.950367,429.710410L193.556283,428.032041L192.663365,427.311928L192.035074,426.115461L190.895314,425.856349L189.903226,425.327685L189.257064,424.196346L188.225133,423.743282L187.437519,422.874331L186.683291,421.958579L185.728970,421.380833L184.600809,421.083920L183.811764,420.238537L182.929142,419.547246L181.888819,419.102629L180.788712,418.744691L180.069972,417.805914L178.485902,418.159620L177.344803,417.838223L176.559942,416.994322L175.055796,417.179241L174.539141,415.955833L174.231849,414.458151L173.924991,412.982645L173.469075,411.729896L172.506405,411.166270L171.106956,411.172370L169.970775,410.819860L168.703694,410.625590L168.033434,409.666790L166.775366,409.445140L165.136358,409.677786L164.588972,408.565046L163.561709,408.035497L163.467012,406.402148L163.185025,405.010195L162.727500,403.836939L162.321865,402.616395L161.493910,401.880550L160.234186,401.621005L159.345106,400.945263L158.000127,400.757564L156.198249,401.039828L156.287239,399.314835L155.350506,398.674570L154.697110,397.741670L154.209338,396.645830L152.267792,397.003090L151.048251,396.622220L149.765626,396.291510L148.951981,395.500017L148.334279,394.522894L147.476946,393.772894L147.930908,391.815361L147.395735,390.784492L146.067688,390.468880L145.618855,389.362588L143.963698,389.315533L143.090041,388.574719L143.659011,386.605003L142.964368,385.723968L142.680138,384.503858L142.745079,383.007984L141.996451,382.184400L141.566061,381.106653L140.396566,380.614355L139.662806,379.774584L138.705773,379.104269L137.981380,378.252881L138.536472,376.449231L138.302688,375.248667L136.924017,374.884693L135.300090,374.681273L133.591217,374.518480L132.114807,374.173686L131.854259,372.980630L131.820774,371.641519L130.924413,370.887962L130.428991,369.866197L129.867285,368.889581L130.018382,367.459296L130.266587,365.981747L130.102760,364.774736L129.649742,363.751877L128.775419,362.984746L126.636010,362.962311L124.954948,362.644583L125.005496,361.311051L125.415051,359.784638L125.848994,358.261139L126.625048,356.566224L125.613728,355.860939L123.093837,355.951412L122.603552,354.943894L121.197955,354.409457L119.458535,354.029982L118.791068,353.094538L117.601943,352.413070L116.854000,351.507091L116.867557,350.234796L117.275960,348.785814L117.571549,347.402810L117.855642,346.037090L119.236181,344.195985L118.812168,343.171037L118.555758,342.074532L118.698739,340.812633L117.488221,340.119052L117.739728,338.820156L116.630948,338.073123L114.407420,337.751145L113.243747,336.995732L112.211863,336.179441L111.875897,335.097351L112.758259,333.576207L112.486640,332.481817L112.033383,331.451846L112.012866,330.273868L111.015957,329.424866L110.201581,328.507312L109.284984,327.615508L108.432738,326.695505L108.817722,325.392966L108.517330,324.303529L108.079961,323.253980L107.420597,322.265303L107.128665,321.170627L108.244615,319.698688L109.191112,318.290613L109.736864,317.001459L109.200083,315.991291L108.596530,314.993442L107.207636,314.174218L105.919944,313.316499L105.295702,312.298756L104.860972,311.235447L105.473643,309.953474L106.573905,308.585668L106.285290,307.503278L105.253883,306.557940L103.821587,305.673317L103.120528,304.646011L103.486268,303.435033L104.416049,302.141674L105.380069,300.857858L105.549426,299.704977L105.503709,298.586411L104.858104,297.548777L104.690184,296.444390L104.454952,295.347659L104.201940,294.251574L103.968409,293.151739L104.177366,292.006332L104.045434,290.896825L104.032806,289.776632L103.653657,288.686811L103.244060,287.595423L103.365324,286.464291L103.618816,285.327750L104.541447,284.159442L104.722724,283.038953L105.198654,281.909520L103.970336,280.845122L104.035899,279.729423L103.071339,278.636769L102.588807,277.524806L103.376102,276.396444L103.270637,275.279901L103.559983,274.163936L102.956515,273.041501L103.272890,271.927503L102.359178,270.787349L103.127482,269.686935L103.228154,268.571092L102.661634,267.426696L103.276413,266.333886L103.011920,265.198251L104.214690,264.151532L104.513369,263.056268L104.794131,261.962521L105.617618,260.916465L105.501162,259.795684L106.599200,258.788990L107.056450,257.729436L106.911401,256.608517L106.947696,255.505149L105.700737,254.243255L105.132661,253.050826L104.969375,251.903977L104.925223,250.769944L105.840733,249.776329L106.440773,248.743569L107.454287,247.783695L107.326755,246.642011L106.702178,245.408757L106.271062,244.199856L104.988735,242.821350L104.735518,241.624465L105.066551,240.539702L105.600258,239.498861L106.592400,238.561324L107.699350,237.659697L107.824013,236.543915L108.248076,235.497339L108.314297,234.365824L108.909624,233.364215L109.329320,232.321849L109.525913,231.222429L109.186891,229.976344L108.483769,228.620015L109.510330,227.743514L110.217258,226.783608L111.073359,225.873962L111.790877,224.929408L111.845782,223.782423L111.551623,222.519380L111.706503,221.394621L112.046892,220.329305L111.838401,219.075637L112.087733,217.973901L112.591720,216.961392L113.607007,216.137217L114.333200,215.214791L115.193118,214.348113L115.521180,213.282537L115.798200,212.195725L117.126549,211.529603L117.508157,210.489522L117.792779,209.408396L118.176856,208.367356L117.156528,206.718020L118.336400,206.014891L118.857020,205.027690L119.179103,203.950983L120.415867,203.296346L120.331665,202.030684L121.294391,201.258401L121.878571,200.309200L123.275005,199.764351L122.506229,198.142937L123.332212,197.317633L123.885223,196.355531L123.659650,194.982455L125.703368,194.815745L125.975827,193.708345L125.917380,192.413303L125.760541,191.052782L126.201346,190.021530L126.249088,188.760462L127.707627,188.320700L128.178131,187.306478L127.468908,185.575409L128.948352,185.167555L128.814753,183.769090L130.193063,183.314749L131.939216,183.110927L132.225888,181.977308L134.117039,181.898094L134.736176,180.990366L136.074572,180.571662L136.753674,179.712307L136.731033,178.363638L137.281126,177.408208L137.776885,176.412081L137.986730,175.204830L138.850150,174.471405L140.087623,174.022155L139.841166,172.458877L141.492331,172.336085L142.350492,171.615603L142.604132,170.421494L144.722044,170.710740L145.257734,169.747149L145.549368,168.579704L146.686378,168.107762L147.613864,167.468685L148.230713,166.568985L149.137299,165.918394L149.774555,165.035782L150.361933,164.106987L150.398961,162.678955L151.667817,162.359596L153.119050,162.221786L153.700376,161.285798L154.950451,160.981088L154.983189,159.517614L154.698700,157.726885L155.135176,156.621593L156.358662,156.295152L157.783239,156.184293L159.029773,155.907788L159.313297,154.641998L159.900956,153.683233L159.137502,151.276139L159.452795,149.992427L160.125368,149.086258L159.307413,146.520621L160.669027,146.359279L160.964352,144.997822L161.935368,144.400372L163.242285,144.199741L164.192414,143.590043L165.201717,143.054433L165.649987,141.840428L166.786317,141.461993L167.563787,140.643559L168.432512,139.937551L169.613067,139.631745L170.755000,139.285995L171.942264,139.009142L172.829274,138.341472L173.253120,137.045739L173.792490,135.891291L174.918415,135.540430L176.095170,135.269747L177.729192,135.664508L178.779627,135.240505L179.304796,134.048535L179.966603,133.044499L180.644322,132.053559L181.494577,131.316919L182.384181,130.637908L183.258618,129.932697L183.999438,129.009963L184.467002,127.632704L185.142891,126.576215L186.443564,126.552986L187.423983,126.001488L189.297390,126.992724L190.175502,126.286201L191.016321,125.508549L192.027083,125.030905L192.663709,123.868463L194.281088,124.514733L195.723095,124.866063L196.851526,124.641834L197.842876,124.158802L198.280764,122.576788L198.708256,120.938116L199.553509,120.119051L200.519631,119.541240L202.209373,120.496204L203.484172,120.604390L204.759651,120.733978L206.158062,121.158881L207.150427,120.691327L207.997240,119.885876L208.934674,119.280575L209.785805,118.461649L210.110033,116.339677L211.367275,116.477711L212.198466,115.555239L212.944356,114.392005L214.265315,114.716445L214.612916,112.449623L215.770210,112.330337L216.981104,112.372288L217.887886,111.561564L219.519112,112.849390L220.595175,112.551106L221.797341,112.640119L222.980779,112.690259L224.041691,112.367159L224.917932,111.441354L225.968861,111.071046L226.791200,109.915470L227.794397,109.352811L228.973623,109.410521L229.836223,108.318168L231.065290,108.571773L231.987256,107.659819L232.943502,106.849866L233.932108,106.142475L235.109287,106.207333L236.158057,105.732029L237.257509,105.470683L238.556513,106.132995L239.758331,106.388934L241.121299,107.474328L242.375107,108.091758L243.459473,107.870732L244.583386,107.865843L245.677968,107.708415L246.629919,106.707549L247.679568,106.242680L248.762831,105.969662L249.775005,105.208966L251.010280,105.964371L252.119003,105.873803L253.068348,104.550569L254.000625,102.959571L254.860914,100.578731L255.971862,100.227681L257.083982,99.858840L258.412141,101.712236L259.651020,102.853191L260.767307,102.707130L261.840282,101.982428L262.802441,99.543360L263.930954,99.255604L265.016189,98.151322L266.162708,98.002704L267.330798,98.323644L268.480049,98.264991L269.604686,97.389092L270.754764,97.120284L271.914186,97.208925L273.073302,97.399798L274.233192,98.378759L275.378583,100.140445L276.499932,102.034510Z" />
<line x1="50" y1="550" x2="100" y2="550" fill="none" stroke="black" stroke-width="1.0" stroke-linejoin="round" stroke-miterlimit="10" />
<text x="125" y="553" style="text-anchor:start;fill:black">GC-content</text>
</g>
<g style="fill:pink;stroke:black">
<a href="" title="CP133596:1 [238000-255599];"><path  d="M435.816757,110.567733L438.662003,113.399416L441.457395,116.280324L444.202084,119.209580L429.488859,132.756573L429.488859,132.756573L426.982839,130.082035L424.430524,127.451641L421.832691,124.866191Z" />
</a><a href="" title="CP133596:2 [266500-286099];"><path  d="M450.350113,126.163385L452.920963,129.246335L455.437617,132.373683L457.899308,135.544476L441.995020,147.671043L441.995020,147.671043L439.747389,144.775971L437.449575,141.920566L435.102277,139.105699Z" />
</a><a href="" title="CP133596:3 [300500-331099];"><path  d="M465.708038,146.429224L467.922861,149.777120L470.078919,153.163161L472.175553,156.586314L474.212126,160.045536L476.188017,163.539776L458.693407,173.231969L458.693407,173.231969L456.889333,170.041577L455.029853,166.883156L453.115535,163.757668L451.146960,160.666066L449.124730,157.609292Z" />
</a><a href="" title="CP133596:4 [358500-377099];"><path  d="M486.439502,184.482946L487.987039,188.186860L489.469698,191.917219L490.887028,195.672885L472.114243,202.570895L472.114243,202.570895L470.820159,199.141808L469.466427,195.735829L468.053458,192.353994Z" />
</a><a href="" title="CP133596:5 [386500-404099];"><path  d="M493.796857,204.092065L495.001047,207.921396L496.138223,211.771160L497.208038,215.640184L477.885600,220.801907L477.885600,220.801907L476.908813,217.269320L475.870522,213.754318L474.771044,210.257972Z" />
</a><a href="" title="CP133596:6 [472500-492099];"><path  d="M504.870044,267.269351L504.969952,271.282314L504.999809,275.296409L504.959606,279.310414L484.963118,278.935596L484.963118,278.935596L484.999826,275.270634L484.972565,271.605591L484.881344,267.941581Z" />
</a><a href="" title="CP133596:7 [510000-539099];"><path  d="M504.102308,295.301049L503.713112,299.296343L503.254248,303.284237L502.725856,307.263515L502.128096,311.232966L501.461151,315.191379L481.768877,311.696476L481.768877,311.696476L482.377827,308.082273L482.923608,304.457992L483.406053,300.824738L483.825015,297.183618L484.180368,293.535740Z" />
</a><a href="" title="CP133596:8 [558000-575599];"><path  d="M498.157321,330.684919L497.151497,334.571070L496.078004,338.439076L494.937168,342.287757L475.812197,336.436647L475.812197,336.436647L476.853829,332.922634L477.833975,329.390977L478.752336,325.842752Z" />
</a><a href="" title="CP133596:9 [784500-813099];"><path  d="M402.846122,466.194584L399.489845,468.396687L396.095647,470.539879L392.664562,472.623508L389.197636,474.646938L385.695923,476.609555L376.070191,459.078289L376.070191,459.078289L379.267406,457.286335L382.432861,455.438855L385.565591,453.536411L388.664641,451.579584L391.729068,449.568968Z" />
</a><a href="" title="CP133596:10 [1297000-1318099];"><path  d="M72.375452,383.826893L70.507022,380.274032L68.700882,376.689104L66.957583,373.073200L85.048228,364.545096L85.048228,364.545096L86.639936,367.846573L88.289020,371.119769L89.994978,374.363685Z" />
</a><a href="" title="CP133596:11 [1354000-1376099];"><path  d="M55.784192,344.601936L54.602858,340.765492L53.488660,336.909015L52.441936,333.033680L51.463005,329.140667L70.901005,324.432783L70.901005,324.432783L71.794811,327.987273L72.750515,331.525622L73.767827,335.046754L74.846436,338.549594Z" />
</a><a href="" title="CP133596:12 [1905500-1930999];"><path  d="M255.692299,45.811840L259.695124,45.509781L263.702612,45.277626L267.713541,45.115447L271.726689,45.023294L272.011325,65.021268L272.011325,65.021268L268.347146,65.105409L264.684993,65.253485L261.025983,65.465452L257.371229,65.741245Z" />
</a></g>
<text x="275" y="280" style="text-anchor:middle" font-size="25" font-weight="bold">CP133596</text>
<path  style="fill:pink;stroke:black" d="M350,550L375,550L375,565L350,565Z" />
<text x="405" y="565" style="text-anchor:start;fill:black">Selected loci;</text>
</svg>