<svg xmlns="http://www.w3.org/2000/svg" viewbox="0 0 550 650">
<circle cx="275" cy="275" r="240" fill="none" stroke="black" stroke-width="1.0" />
<line x1="275" y1="15" x2="275" y2="55" fill="none" stroke="grey" stroke-width="1.0" stroke-linejoin="round" stroke-miterlimit="10" />
<line x1="495" y1="275" x2="535" y2="275" fill="none" stroke="grey" stroke-width="1.0" stroke-linejoin="round" stroke-miterlimit="10" />
<line x1="275" y1="495" x2="275" y2="535" fill="none" stroke="grey" stroke-width="1.0" stroke-linejoin="round" stroke-miterlimit="10" />
<line x1="15" y1="275" x2="55" y2="275" fill="none" stroke="grey" stroke-width="1.0" stroke-linejoin="round" stroke-miterlimit="10" />
<text x="275" y="10" style="text-anchor:middle" font-size="15">MAG: uncultured Candidatus Nitrosopumilus sp. isolate</text><text x="285" y="25" style="text-anchor:start">1,672,661</text><text x="525" y="265" style="text-anchor:start">0.41 Mbp</text><text x="285" y="530" style="text-anchor:start">0.83 Mbp</text><text x="-200" y="25" style="text-anchor:end" transform="rotate(-90)">1.25 Mbp</text><circle cx="363.048335" cy="51.734484" r="2.500000" fill="grey" stroke="black" stroke-width="1.0" />
<circle cx="438.817975" cy="99.604245" r="2.500000" fill="grey" stroke="black" stroke-width="1.0" />
<circle cx="491.742538" cy="171.933651" r="2.500000" fill="grey" stroke="black" stroke-width="1.0" />
<circle cx="514.441479" cy="258.636075" r="2.500000" fill="grey" stroke="black" stroke-width="1.0" />
<circle cx="503.749341" cy="347.620514" r="2.500000" fill="grey" stroke="black" stroke-width="1.0" />
<circle cx="461.157184" cy="426.477730" r="2.500000" fill="grey" stroke="black" stroke-width="1.0" />
<circle cx="392.604657" cy="484.210766" r="2.500000" fill="grey" stroke="black" stroke-width="1.0" />
<circle cx="307.651687" cy="512.768516" r="2.500000" fill="grey" stroke="black" stroke-width="1.0" />
<circle cx="218.145307" cy="508.168488" r="2.500000" fill="grey" stroke="black" stroke-width="1.0" />
<circle cx="136.567543" cy="471.052174" r="3.000000" fill="black" stroke="black" stroke-width="1.0" />
<circle cx="74.294744" cy="406.595593" r="2.500000" fill="grey" stroke="black" stroke-width="1.0" />
<circle cx="40.011102" cy="323.787477" r="2.500000" fill="grey" stroke="black" stroke-width="1.0" />
<circle cx="38.497610" cy="234.175750" r="2.500000" fill="grey" stroke="black" stroke-width="1.0" />
<circle cx="69.965330" cy="150.257129" r="2.500000" fill="grey" stroke="black" stroke-width="1.0" />
<circle cx="130.025961" cy="83.734404" r="2.500000" fill="grey" stroke="black" stroke-width="1.0" />
<circle cx="210.303807" cy="43.884439" r="2.500000" fill="grey" stroke="black" stroke-width="1.0" />

<circle cx="275" cy="275" r="185" fill="white" stroke="grey" stroke-width="0.5" />
<circle cx="275" cy="275" r="170" fill="none" stroke="black" stroke-width="0.5" />
<circle cx="275" cy="275" r="170" fill="aliceblue" stroke="black" stroke-width="0.5" />
<circle cx="275" cy="275" r="163" fill="white" stroke="none" stroke-width="0.5" />
<circle cx="275" cy="275" r="140" fill="none" stroke="black" stroke-width="0.5" />
<circle cx="275" cy="275" r="140" fill="aliceblue" stroke="black" stroke-width="0.5" />
<circle cx="275" cy="275" r="133" fill="white" stroke="none" stroke-width="0.5" />
<circle cx="275" cy="275" r="110" fill="none" stroke="black" stroke-width="0.5" />
<circle cx="275" cy="275" r="110" fill="white" stroke="black" stroke-width="0.5" />
<circle cx="275" cy="275" r="109" fill="aliceblue" stroke="none" stroke-width="0.5" />
<circle cx="275" cy="275" r="80" fill="none" stroke="black" stroke-width="0.5" />

<g style="fill:none;stroke-linejoin:round;stroke-miterlimit:10">
<path style="stroke:blue;stroke-width:1.0" d="M277.262604,124.409263L278.410609,123.688671L279.619588,121.312782L280.774155,121.349534L282.063314,118.404533L283.588439,111.834192L285.037294,108.192743L285.976339,112.907614L286.806026,118.146382L287.461878,124.544340L288.548165,125.125560L289.836371,123.571773L291.151160,122.005464L292.211563,122.913551L293.214095,124.202646L294.171214,125.708591L295.939516,121.099650L298.585802,110.889213L301.137424,102.356313L302.192779,104.072003L301.502289,116.114704L301.577002,122.725109L302.293548,125.269936L303.676704,124.116240L305.191629,122.404279L305.977100,124.386190L307.229664,124.052167L308.593823,123.254945L309.473454,124.643167L310.376673,125.856650L311.394368,126.541813L312.680988,126.138658L314.994162,121.846440L317.972567,115.356738L320.903829,109.433035L319.457872,119.204089L318.301266,127.466812L318.891592,129.509455L319.639432,130.953206L321.070113,130.193290L322.450152,129.644567L324.310044,127.707452L327.341486,122.468623L327.870830,124.615745L328.120335,127.458061L328.002241,131.185287L328.727630,132.525097L329.490330,133.726519L330.651573,133.882674L332.487713,132.375727L333.480443,132.998966L334.906685,132.583933L336.733863,131.271061L337.682652,132.033736L337.948662,134.310730L339.006224,134.782407L339.769015,135.887559L341.336503,135.273941L344.315686,131.785904L348.981392,125.029769L348.767333,128.252826L348.062086,132.336901L347.458913,136.096762L348.095108,137.407976L348.636799,138.866757L349.362266,139.959865L349.417806,142.229535L349.947296,143.609099L352.003906,142.329565L354.903797,139.685169L357.695159,137.330917L355.499806,143.238475L355.428226,145.551732L356.885135,145.389305L359.603017,143.289233L360.837729,143.549391L362.320975,143.447546L362.811102,144.842069L362.303671,147.668090L364.816975,146.089786L366.192609,146.189487L366.495616,147.798761L366.830743,149.335318L368.124476,149.554271L374.431088,143.140293L373.633352,146.222273L372.394263,149.799865L370.764197,153.785457L370.886558,155.487482L373.685134,153.874994L380.404581,147.594366L378.065339,152.310359L378.044581,154.189699L377.942195,156.130170L377.516035,158.403978L380.166647,157.186127L384.267503,154.427816L389.422537,150.630153L380.988858,161.519988L379.977988,164.281612L380.354320,165.543529L381.272486,166.236979L381.648714,167.479902L382.358636,168.378347L384.068060,168.296236L384.127382,169.831069L386.896305,168.772388L390.145992,167.320423L389.719676,169.323437L391.304370,169.467808L389.275860,172.863260L388.053642,175.473320L388.852080,176.278724L389.575283,177.149874L395.160738,173.931002L400.490078,171.048111L400.781083,172.390625L401.974640,172.996072L398.908663,176.981602L397.519781,179.567932L395.897674,182.282284L395.253121,184.203203L396.103809,184.981381L397.197853,185.585559L398.304064,186.190717L398.889011,187.175416L401.529205,186.724543L405.543601,185.374369L410.319693,183.583490L417.686008,180.160450L423.397936,177.963358L425.129670,178.433302L428.262028,178.038515L430.076339,178.514371L420.714045,185.850879L411.672017,192.787568L407.447797,196.677599L408.645787,197.318366L411.129589,197.236972L412.650827,197.733744L412.146505,199.366165L411.380745,201.119196L411.063218,202.608074L413.489979,202.646606L414.158383,203.623052L417.882659,203.063480L426.091833,200.347959L420.022826,204.697072L419.313525,206.375076L421.041702,206.893801L420.398877,208.518881L422.106412,209.069823L421.341972,210.728301L420.644711,212.335518L419.468986,214.123550L416.968679,216.429158L415.582980,218.232989L416.101568,219.252793L417.855159,219.797094L420.374584,220.075172L420.796889,221.163796L417.994118,223.416143L417.456592,224.816328L418.087842,225.799182L418.285149,226.932006L421.788927,226.980435L425.743736,226.937339L421.325800,229.554139L422.460101,230.413743L420.583543,232.172192L419.752761,233.595621L420.560166,234.545196L422.910085,235.086675L423.967743,235.999522L427.992599,236.171592L423.839159,238.413685L423.436325,239.693104L423.731170,240.801495L427.074527,241.233598L430.271030,241.745867L427.490116,243.537724L423.205649,245.580773L424.358650,246.516501L427.616177,247.081869L426.767855,248.413815L428.668294,249.269268L432.228432,249.885988L430.937421,251.292200L431.427529,252.418710L426.825686,254.246181L425.410832,255.589547L425.704503,256.701624L425.585155,257.863086L426.262701,258.936142L426.036293,260.106796L427.550086,261.113913L427.267999,262.292262L426.111195,263.531285L425.596487,264.707641L429.220416,265.623431L427.636731,266.870183L426.985571,268.049506L426.178397,269.224198L429.411136,270.262133L429.034495,271.431765L431.037284,272.558094L427.033374,273.763117L425.963824,274.906006L426.696258,276.045231L426.924290,277.188314L428.803990,278.371274L429.861886,279.558682L431.987065,280.801959L444.082975,282.521401L439.301914,283.545970L439.079389,284.770933L430.722919,285.447917L425.764848,286.253625L425.176002,287.344859L425.451000,288.506135L429.606010,290.050832L431.324830,291.404616L432.580959,292.734311L431.370401,293.788762L429.073248,294.688063L427.621388,295.669018L426.273009,296.644939L425.365433,297.669134L424.488665,298.686882L425.426110,299.995321L425.235603,301.124991L427.516849,302.703729L425.999631,303.601619L424.197088,304.422970L424.014940,305.551856L425.818598,307.104195L429.059727,309.005948L432.310572,310.965022L433.709740,312.541767L427.350117,312.248232L425.574570,313.015213L424.126626,313.843712L421.094546,314.228298L420.142019,315.143960L420.077059,316.301772L419.397934,317.283725L420.283666,318.730807L420.578768,320.015157L420.828852,321.295641L419.021176,321.915687L420.159712,323.495836L418.230490,324.050508L419.492564,325.698722L419.132641,326.791822L422.259085,329.167845L417.586532,328.668653L418.458058,330.230664L416.902899,330.859615L417.132306,332.186879L417.168390,333.446174L414.754402,333.684993L414.121965,334.652831L415.934645,336.687628L417.499645,338.652544L413.518799,338.126890L412.193932,338.772188L411.617213,339.756655L410.875081,340.659529L411.143932,342.055735L411.155974,343.337474L410.646208,344.362272L410.689998,345.675611L409.358147,346.270222L407.789785,346.721755L408.784724,348.562761L409.735084,350.409101L406.703672,350.017389L406.270795,351.082637L406.286039,352.414911L409.531760,355.697030L407.278200,355.702751L405.459465,355.944297L403.845258,356.289689L403.010127,357.113747L405.952542,360.396586L405.606825,361.576547L402.917583,361.184153L401.661112,361.728210L399.837469,361.864267L398.966260,362.647606L402.130626,366.325132L405.254295,370.060674L401.974007,369.136793L399.027364,368.404264L399.202629,370.006928L395.239038,368.415237L393.657749,368.624660L392.493271,369.146667L392.848441,370.893940L392.513346,372.097732L391.949029,373.119182L390.891209,373.724655L388.907880,373.521437L388.664354,374.813358L388.279767,375.992995L388.121093,377.387199L388.518976,379.309499L386.176261,378.708046L384.422516,378.620392L383.328005,379.138682L383.265149,380.654726L382.515287,381.511623L382.004485,382.610431L381.158139,383.375684L379.855771,383.667352L379.083933,384.502021L378.463455,385.499955L378.430642,387.141792L377.026327,387.300486L375.351054,387.137767L375.917350,389.489950L375.215249,390.430188L373.779744,390.518516L373.009590,391.376687L372.296326,392.307222L373.304233,395.351134L372.622482,396.366231L370.286173,395.301207L369.025352,395.559335L368.362520,396.582091L369.020835,399.362496L369.903013,402.509485L370.769028,405.711985L369.653544,406.246448L365.248942,402.141558L365.678809,404.802259L370.770805,414.308906L366.385077,410.092307L364.226496,409.060586L359.131957,403.488628L358.048205,403.936847L355.998485,402.854408L355.226869,403.766210L355.141609,405.808819L356.682985,410.601213L357.552182,414.403027L357.247620,416.299289L355.203724,415.200061L354.774424,416.912704L352.619241,415.540259L348.195064,409.914867L346.103311,408.441395L346.504665,411.658687L349.204358,419.449898L344.701411,413.229517L342.016327,410.425803L341.044033,411.022287L340.989904,413.550432L339.187043,412.415011L338.691790,414.070077L337.352119,413.891811L337.100480,416.160202L336.350590,417.347513L335.003044,417.149612L333.560065,416.693015L334.965129,423.237984L332.779625,420.980588L331.292745,420.406942L329.173353,418.116817L327.228515,416.173272L326.352719,417.077031L325.696722,418.628432L325.143290,420.534921L323.712645,419.908409L322.435111,419.698320L321.014777,419.011812L319.771890,418.840478L318.988366,420.157384L317.966233,420.719933L317.527791,423.331988L317.732784,428.387434L318.421269,435.513573L317.995133,438.810795L314.128215,428.773508L311.726833,424.011716L310.482964,423.766279L309.218227,423.395084L308.129034,423.767530L306.747899,422.790022L305.514793,422.435376L304.555687,423.410650L303.341609,423.114917L302.314309,423.793486L301.211083,424.082026L299.963726,423.521506L298.880845,423.914543L297.934734,425.225001L297.499882,430.182330L296.349968,430.467605L294.823533,427.864169L293.666681,427.944339L292.323109,426.384783L291.089323,425.612146L289.865171,424.799760L289.447725,432.636188L288.280872,432.952376L287.405230,437.117027L285.991401,434.370447L284.477440,429.298277L283.280845,428.676132L282.019457,426.433704L280.843681,425.506112L279.766771,427.269680L278.701858,430.630094L277.573607,433.177170L276.391615,433.925592L275.193570,430.682012L274.048821,426.714984L272.902083,427.209268L271.711272,429.413003L270.522642,430.378504L269.326834,431.128049L268.241960,429.076687L267.170296,427.354320L266.094788,426.122499L264.956441,426.100305L263.858715,425.518476L262.591940,427.101136L261.308818,428.582810L260.412245,425.819918L259.335925,425.165980L258.172051,425.367165L256.956306,425.960626L255.621373,427.404065L254.762570,425.135242L253.673135,424.712773L252.612666,424.124141L251.454301,424.196756L250.297849,424.234601L249.287561,423.408896L248.070997,423.776911L246.981599,423.424391L245.781201,423.647812L244.420572,424.621405L243.131746,425.167888L241.384926,427.739323L239.769392,429.539717L239.802076,424.214448L239.035195,422.497545L238.213805,421.088575L236.129582,424.609823L234.580590,425.904450L232.590291,428.705213L229.474245,435.292035L229.434509,430.963992L227.897850,431.836709L228.070283,427.104924L228.913168,420.484193L227.722576,420.438118L226.928059,419.188642L226.239728,417.671860L224.268627,419.873413L223.015309,419.952051L221.708768,420.153983L218.729052,424.782242L218.258707,422.655110L213.917901,430.452880L210.999059,434.353559L212.879417,426.373396L211.801425,425.765299L214.360274,416.666328L214.433152,413.608224L213.049674,413.920379L210.958674,415.756817L210.858844,413.212084L209.746106,412.887321L208.881075,412.042834L208.014384,411.214822L207.009040,410.675585L205.992886,410.158564L205.026575,409.545656L204.023649,409.005019L203.428237,407.709030L201.463262,408.934246L194.625456,418.816347L192.725435,419.653391L187.902539,425.490699L192.547677,415.027451L195.756060,407.295379L193.795296,408.286960L193.503151,406.532204L191.586599,407.393411L187.812898,411.104995L191.045630,403.915784L191.571875,401.027013L190.282851,400.908794L187.774759,402.556777L188.646477,399.267913L187.362838,399.114858L186.906190,397.793204L185.794508,397.390866L185.334197,396.100480L184.171003,395.763703L179.528791,399.970262L177.930248,400.103144L176.961542,399.410429L176.086159,398.599765L178.517178,393.722605L176.766414,394.038429L174.296824,395.180341L171.926332,396.148704L168.492459,398.295803L172.822429,391.502426L173.775420,388.681513L173.694701,387.065512L171.884020,387.359994L171.699372,385.877411L171.105147,384.848843L170.799489,383.527082L168.662941,384.099744L168.380700,382.757683L166.230805,383.291084L165.785975,382.112249L164.652524,381.609317L161.659810,382.866192L162.191941,380.756075L161.289522,380.008178L160.596562,379.066588L160.122293,377.931489L160.429386,376.114896L158.955272,375.875184L160.197791,373.290666L158.261789,373.437982L157.481944,372.594391L157.630899,370.989998L156.286250,370.610354L156.533409,368.952772L155.633633,368.214169L154.751446,367.457216L153.513994,366.964714L152.079123,366.606420L148.221456,368.008103L145.912304,368.218537L145.385856,367.125109L147.533376,364.164944L149.950863,361.081989L150.345328,359.437228L149.307335,358.769704L148.717091,357.799737L147.289217,357.370707L145.159476,357.369722L144.505146,356.416381L139.775052,357.962696L143.024758,354.610476L142.792041,353.402269L141.551652,352.788682L142.894846,350.681779L142.245787,349.734579L143.111381,347.947889L141.588654,347.486588L140.963677,346.527175L141.011468,345.213523L140.478461,344.209702L140.655593,342.846998L139.973264,341.923221L138.941558,341.165987L137.190191,340.742135L132.906299,341.479956L132.173610,340.519404L135.692158,337.642817L137.089971,335.772838L133.691889,336.006654L132.925929,335.075090L133.282329,333.673279L134.014525,332.133211L134.472808,330.722074L134.317564,329.564143L132.927278,328.878987L130.807375,328.447337L130.181916,327.445115L132.811381,325.287791L131.644265,324.492035L130.994775,323.508542L130.817952,322.365005L129.047304,321.734799L130.807399,319.979690L129.260816,319.263467L128.266767,318.364030L125.920421,317.842296L127.181365,316.280248L128.912528,314.616134L129.044022,313.405670L127.554169,312.615583L125.607695,311.919020L127.190431,310.351760L127.246435,309.166908L126.834398,308.091538L126.790164,306.934341L127.154173,305.695463L127.108929,304.547670L127.553988,303.308504L127.238166,302.219751L126.745028,301.160557L126.719932,300.017799L126.363331,298.930931L126.278769,297.799633L126.161609,296.674416L125.130031,295.676053L123.473808,294.745672L119.638232,294.059609L105.326107,294.522661L97.376343,294.086384L88.156663,293.658270L103.178057,290.855442L114.054586,288.633149L120.353118,286.930176L122.107387,285.640003L122.563510,284.458069L120.272297,283.433838L121.804454,282.196427L120.338645,281.101169L112.222410,280.196864L110.844856,279.006594L122.209738,277.580830L121.472878,276.439653L123.970152,275.281537L123.445876,274.143909L119.289498,272.950499L122.149025,271.839464L120.368380,270.640229L120.449931,269.480234L118.398725,268.228621L117.692431,267.013644L117.939498,265.842708L121.503645,264.892876L122.105715,263.778283L122.991113,262.694447L125.099673,261.730878L124.103811,260.499407L123.405570,259.282040L119.969481,257.747597L113.228506,255.765974L116.499111,254.946115L115.143352,253.553201L120.070345,253.028095L124.892844,252.560360L124.725855,251.379867L123.949386,250.093576L124.211589,248.971701L124.913642,247.930190L124.264407,246.642199L123.464414,245.311256L125.656276,244.573888L124.900982,243.243718L123.723466,241.805297L125.112427,240.927811L125.321037,239.790570L123.271933,238.103422L123.764567,237.017603L127.108718,236.674064L127.022636,235.463033L128.863272,234.776159L128.756121,233.562254L127.748004,232.078942L128.657063,231.148419L128.834946,230.002291L129.603252,229.040161L129.496498,227.801166L130.766019,227.012407L132.121348,226.268084L131.154135,224.728670L130.744997,223.366334L130.605105,222.089147L129.801826,220.554046L134.303548,221.033009L135.050449,220.109885L133.638031,218.326874L134.259227,217.344882L130.943746,214.718865L127.182927,211.836011L129.980869,211.738993L133.197340,211.869845L135.291049,211.540076L137.149796,211.130753L137.305406,209.941897L137.427439,208.730743L136.920822,207.203968L136.929502,205.916076L140.551248,206.460472L141.470352,205.660245L141.178092,204.226972L140.194743,202.405696L133.597894,197.477222L129.949109,194.053629L133.134956,194.427873L135.016426,194.099564L132.200278,191.034614L131.675213,189.270372L131.366888,187.614140L139.677774,191.271072L145.055170,193.241945L145.990414,192.471025L141.814954,188.383029L143.708885,188.204278L149.329051,190.556163L150.475407,189.961607L151.035017,188.971043L151.499985,187.911810L152.588753,187.295256L152.481207,185.817670L152.533789,184.440619L152.341994,182.865412L153.293822,182.141976L152.786976,180.294222L154.648597,180.281194L156.615244,180.380093L158.074523,180.098113L158.786497,179.218820L157.977070,177.066107L158.658890,176.141075L159.048410,174.962285L159.799781,174.090967L157.748258,170.726826L157.748504,169.138847L161.389740,170.866461L160.370753,168.336759L164.353315,170.480597L163.094619,167.689292L158.559114,161.648556L161.715529,163.051376L168.643630,168.306603L166.041216,164.041072L160.056911,156.174234L165.016268,159.578364L168.143031,161.159346L171.737358,163.318885L173.085337,163.101858L169.550582,157.459021L167.289780,153.108992L167.375527,151.346137L175.289202,158.685321L177.467155,159.480778L178.483177,158.926168L178.733973,157.442376L179.238141,156.249106L178.629061,153.639116L181.398989,155.291517L182.803602,155.244576L183.654756,154.487842L183.951945,152.986505L184.377026,151.633243L184.465157,149.792473L185.480580,149.217315L186.577175,148.761190L187.328957,147.811595L185.510749,143.063485L184.065960,138.740930L187.755319,142.117798L190.561722,144.261814L192.706355,145.457237L195.084062,147.086940L195.980823,146.381971L196.703939,145.385727L197.983644,145.312632L198.702084,144.295645L199.161981,142.812429L199.277190,140.685458L198.474063,136.844881L199.585481,136.404960L201.922741,138.263359L204.729245,141.104480L205.908531,140.912937L206.890469,140.343540L207.363968,138.747702L208.405290,138.275827L209.543508,138.007849L208.963600,134.082310L208.772686,130.866577L209.388816,129.332786L212.832695,134.162525L214.882924,135.989585L215.878244,135.422111L216.870458,134.841880L217.689311,133.828391L218.352992,132.398590L219.342416,131.762147L219.717185,129.498022L220.606226,128.533084L222.452542,130.180163L223.704807,130.248857L225.490520,131.881799L226.684169,131.860635L227.350085,130.253755L227.729805,127.690179L227.280982,122.359229L228.911037,123.588369L229.561933,121.599151L228.339214,113.011972L224.581366,94.889764L229.191247,106.490940L232.213265,112.803519L233.710001,113.569592L235.163654,114.231329L237.633688,119.194944L239.783674,123.137784L241.537769,125.610620L242.036909,122.475527L242.476791,118.837853L243.132789,116.012975L244.702954,117.723894L246.139590,118.875891L247.919576,122.086765L249.443947,124.100751L250.492428,123.381552L251.971362,125.404999L253.182618,125.829269L254.350927,126.008795L255.451816,125.712576L256.574351,125.573393L257.608293,124.668322L258.699539,124.184344L259.858510,124.319637L260.963856,123.918414L262.024383,122.939421L263.067097,121.559826L264.445629,124.685220L265.437977,122.420510L266.315110,117.465908L267.707172,121.781491L268.922411,123.326821L270.076936,123.742425L271.227029,124.252961L272.348386,123.585225L273.470571,122.026451L274.604630,115.888667L275.780661,119.736831L276.897072,123.735233Z" />
<line x1="50" y1="575" x2="100" y2="575" fill="none" stroke="blue" stroke-width="1.0" stroke-linejoin="round" stroke-miterlimit="10" />
<text x="125" y="578" style="text-anchor:start;fill:black">n1_4mer:GRV/n1_4mer:RV</text>
<path style="stroke:green;stroke-width:1.0" d="M276.394779,182.168592L277.137517,180.169286L277.854322,180.040706L278.612505,178.871110L279.445567,176.440648L280.088240,178.332037L281.237619,171.338573L281.799259,174.592378L282.255026,178.610490L282.675791,182.328073L283.126323,185.103832L284.123673,181.878728L284.689865,183.211144L285.603788,181.301800L286.179522,182.442985L287.309770,179.140501L288.295213,177.283421L290.133534,169.700375L291.414770,166.576676L292.515869,164.898993L292.137135,172.260242L292.305020,175.849615L292.424843,179.408809L292.945528,180.578801L293.049153,183.775260L293.973861,182.747161L294.775726,182.380261L295.481894,182.482216L296.218848,182.453465L297.074649,181.936215L297.601427,182.805327L298.948211,180.390940L300.193359,178.524602L301.518277,176.484491L302.366452,176.294063L301.926957,180.638540L302.506222,181.282631L303.658714,180.002946L303.566809,182.817884L304.988745,180.739940L306.058328,179.858120L307.293045,178.538417L309.191325,175.361065L309.790989,176.041522L310.139309,177.400433L309.679231,180.902401L310.647934,180.468826L310.937002,181.828508L311.573354,182.259875L312.786681,181.253048L314.083633,180.097909L314.097730,182.053029L315.353596,181.048655L314.985261,183.801826L315.986082,183.396751L316.806793,183.414409L317.513315,183.688885L317.783926,184.883259L319.341748,183.384901L322.714077,178.277149L323.878349,177.765095L323.078224,181.121098L322.391960,184.149938L322.763826,185.090817L322.849303,186.540415L323.209449,187.452769L321.525761,191.992354L319.965040,196.171311L320.772099,196.139011L323.376757,193.075323L325.850179,190.345739L323.639731,195.386825L325.816630,193.211241L325.166019,195.595445L326.249541,195.214236L327.447623,194.682498L329.713988,192.571243L331.542076,191.190557L329.424221,195.622583L330.027895,196.020968L330.308188,196.876607L331.129080,196.966879L333.107332,195.483717L333.790924,195.804168L334.437950,196.176859L335.016658,196.641020L333.150825,200.247228L330.967454,204.158604L334.048984,201.401647L337.429730,198.374463L341.192893,194.990692L343.867682,193.019470L342.453004,195.917553L343.035069,196.438268L342.849951,197.831250L341.950436,199.998178L343.335018,199.595126L347.849027,195.817851L346.562243,198.379831L344.163089,202.054938L343.173384,204.172169L345.611785,202.733401L345.510857,203.913027L346.408928,204.081271L351.494697,200.163498L350.228365,202.500444L353.426196,200.546893L354.059814,201.066664L349.563913,206.313805L350.594838,206.406800L351.781808,206.374451L346.676783,211.899404L346.679974,212.846208L344.670452,215.499710L344.842429,216.254486L349.355778,213.406098L349.771338,214.003226L351.273655,213.726250L349.702962,215.905950L355.242407,212.498266L351.822693,216.083857L351.356239,217.347426L349.468240,219.646430L348.714501,221.061729L349.356826,221.444779L351.687155,220.636683L349.990880,222.681216L352.699944,221.654554L352.102239,222.912847L354.762094,221.984282L360.264207,219.246176L360.928571,219.728858L361.774026,220.102264L361.699926,221.056910L359.479191,223.314895L357.080013,225.626341L357.151508,226.420080L360.917614,225.060373L366.416023,222.779269L368.540762,222.493635L369.849571,222.692164L365.775908,225.824457L364.906729,227.165461L363.500082,228.763577L360.939226,230.920157L361.676733,231.361237L365.601015,230.235498L360.619508,233.494105L362.662702,233.314051L362.333671,234.272151L364.072766,234.273020L362.578286,235.749149L364.600064,235.648690L364.120069,236.655573L363.440619,237.732826L365.191664,237.790372L365.540591,238.439965L365.462810,239.259441L360.562641,241.936396L360.231751,242.798090L360.252970,243.519930L358.166732,244.998341L363.840358,243.703903L364.744157,244.141432L364.690323,244.911509L364.954387,245.572913L366.950305,245.682853L364.964129,247.058944L365.680110,247.581826L368.841563,247.393662L365.790979,249.030588L366.917721,249.453771L368.177979,249.856056L364.041949,251.688385L363.609328,252.511598L361.659098,253.698233L363.556123,253.936141L364.989449,254.308274L365.184010,254.975676L365.142280,255.694381L364.794775,256.473239L363.626578,257.407382L365.268732,257.785266L365.822810,258.385752L368.424425,258.634222L371.073195,258.913183L374.500373,259.106859L372.711275,260.144557L371.265466,261.103480L366.675196,262.468455L367.186029,263.103433L367.396009,263.781378L363.038364,264.981045L362.359080,265.722605L364.460391,266.178598L365.733096,266.740892L367.404294,267.288271L368.998819,267.865878L366.360514,268.756061L369.540598,269.251951L366.718997,270.114815L364.850779,270.891009L361.553829,271.693193L365.305543,272.229114L367.658012,272.853561L366.919195,273.561510L368.994553,274.235297L366.581372,274.942979L364.605132,275.617405L363.678868,276.277328L365.310837,276.979550L362.889819,277.587220L365.236017,278.334961L373.317991,279.373528L371.256669,280.006677L369.497352,280.627321L364.433344,281.000351L363.507775,281.606536L365.187349,282.413635L364.858703,283.066705L366.868492,283.943360L368.036894,284.763225L367.849150,285.449332L365.881158,285.919870L361.726253,286.082209L361.140910,286.665783L362.555861,287.527954L363.954964,288.410875L362.396051,288.848140L360.747673,289.248129L361.176987,289.985616L363.492768,291.074156L360.625812,291.218827L360.219966,291.806122L357.359521,291.885798L359.923692,293.077391L361.698063,294.137057L362.262654,294.950365L364.076717,296.070524L359.447673,295.646696L359.767754,296.401119L363.248955,297.986619L361.972517,298.353260L359.783515,298.449764L356.258934,298.133485L357.750367,299.231605L356.254996,299.457991L358.195828,300.725408L359.900284,301.952918L359.197556,302.427815L361.744385,303.980090L357.902666,303.390728L358.547066,304.314515L357.868231,304.777410L358.246423,305.621400L358.347969,306.371639L356.835875,306.506420L360.339298,308.593537L359.170586,308.866003L358.343428,309.262922L357.958509,309.835536L355.926422,309.699698L357.848546,311.263123L356.008554,311.185357L354.686234,311.315245L354.013731,311.728144L354.552161,312.707780L354.144404,313.245308L355.730196,314.762497L355.342534,315.324384L354.491719,315.647846L353.073040,315.665192L353.399187,316.586815L352.651156,316.940554L354.267658,318.586050L356.016008,320.343382L352.488325,319.136748L351.389477,319.274226L353.446770,321.257392L356.359826,323.802575L356.308736,324.606350L352.664495,323.187366L354.301192,325.031870L352.153699,324.491236L353.758174,326.359669L351.517760,325.722031L348.156047,324.288705L346.983654,324.289110L346.464881,324.726613L348.667105,327.084699L351.864668,330.216246L354.643190,333.124266L351.263150,331.540457L350.891991,332.153804L348.356462,331.112919L347.271277,331.148474L348.601205,333.073643L346.480019,332.276519L346.733601,333.370035L346.361825,333.964123L342.704937,331.803832L342.367799,332.388846L342.618241,333.484508L343.418442,335.081056L343.772838,336.313464L345.843589,339.121345L349.038230,343.031716L343.561897,338.956283L343.068212,339.458898L340.160684,337.640752L338.106072,336.584497L339.283787,338.683692L337.840911,338.196768L339.443270,340.789430L338.419347,340.724685L338.247103,341.539431L338.948914,343.298048L339.680392,345.127913L337.954634,344.294233L338.417679,345.866390L337.080772,345.430153L336.806706,346.190360L336.917918,347.410251L338.465806,350.359363L337.959760,350.908669L338.324945,352.526967L336.615222,351.601281L336.965119,353.232532L335.400084,352.445006L330.859948,347.744066L333.672976,352.607455L334.035384,354.318572L335.739217,357.900952L338.027649,362.394034L331.911798,355.176615L330.603745,354.594029L335.165407,362.517037L333.154538,360.968420L331.840874,360.401996L327.566719,355.281332L328.152898,357.522760L325.119566,354.112682L323.406037,352.692948L322.912162,353.203237L321.822978,352.730418L322.804841,355.726389L321.908253,355.587167L321.904296,356.991020L323.071586,360.515738L321.308356,358.847617L319.510084,357.042037L318.394559,356.439674L319.365607,359.790911L320.540316,363.651047L318.189641,360.652257L317.833930,361.558299L317.289154,362.097459L316.305074,361.722900L315.079533,360.804381L314.892424,362.104516L315.253493,364.666247L313.168421,361.760393L314.135041,365.802318L314.165177,367.783872L312.954452,366.835291L315.272635,374.556765L313.571503,372.451147L312.149377,370.958676L310.077739,367.669441L307.858528,363.816346L307.163980,363.987747L306.259583,363.561246L306.647049,366.851787L305.644670,366.160525L304.438218,364.799740L303.380279,363.821368L302.955399,364.813452L302.415968,365.470061L301.383415,364.479323L301.628632,367.877570L300.106785,365.119693L301.307730,372.250673L301.083448,374.377535L299.162602,369.958792L298.070766,368.604976L297.425374,369.020879L296.359347,367.629640L295.968023,369.157922L295.668966,371.216348L294.532851,369.374986L294.034631,370.580315L292.833484,368.198838L292.319776,369.348713L291.828068,370.713804L290.970302,370.015196L290.186017,369.695930L289.340707,368.933188L289.121003,372.392962L288.555660,373.710495L287.562305,371.871043L286.790486,371.604647L285.868171,369.975780L285.125087,369.780937L284.229285,368.005632L284.106586,374.360107L283.341015,374.201559L282.931665,378.654499L282.165521,378.896887L281.175526,375.541172L280.499523,377.060278L279.621273,374.696655L278.720921,370.833653L277.995868,370.699964L277.213270,368.048274L276.589119,372.669264L275.869099,374.253037L275.122063,373.170800L274.388784,372.490231L273.667127,371.703394L272.968324,370.391665L272.178221,372.924670L271.447689,372.761176L270.843009,369.775315L269.903982,374.160888L269.202961,373.376432L268.646940,370.578598L268.045300,368.957817L267.440843,367.662057L266.607159,369.147904L266.177892,366.210031L264.932785,371.510846L264.175658,371.721569L263.629757,370.127913L263.231442,367.554340L262.838496,365.222444L262.339881,363.872954L261.609222,364.197235L260.394740,367.545879L259.374330,369.400304L258.858237,368.168187L257.939766,369.254099L257.514880,367.625492L256.666901,368.267865L255.998564,367.971706L255.376312,367.469697L254.754691,366.990121L253.851237,367.769442L252.911792,368.638472L252.734474,366.314561L252.390022,364.790733L251.372785,365.939682L250.237685,367.449232L248.504006,371.029246L247.572444,371.569926L247.644952,368.632315L246.759336,369.033347L246.658571,366.858022L245.845112,367.034429L245.679669,365.197252L244.865481,365.386519L244.108261,365.388787L242.439215,367.983725L242.208989,366.433155L241.965443,364.979109L240.150086,367.763645L239.719887,366.807725L237.841125,369.568692L236.258640,371.460670L235.383386,371.536465L233.852583,373.160484L236.412912,365.147028L237.625147,360.532963L237.842926,358.322805L236.911212,358.715577L235.507842,360.098146L234.003617,361.629027L233.551138,360.909890L232.754563,360.905825L232.159022,360.488935L230.311655,362.527391L229.478183,362.529841L227.872462,363.977899L228.249187,361.685793L227.853120,360.869758L224.329545,365.666018L224.382306,363.994953L221.993851,366.586280L223.259468,362.870111L223.232558,361.424190L222.142813,361.758198L221.670233,361.071817L220.082342,362.165082L220.690552,359.780741L223.538956,354.020792L223.884455,352.215442L225.371325,348.759407L224.597478,348.707831L223.604721,348.960898L221.077409,351.367086L217.021266,355.816058L216.025113,355.914161L216.457457,354.066152L215.461796,354.160338L214.586226,354.080649L214.093678,353.495847L214.521106,351.747485L212.608537,352.962499L214.336092,349.647248L212.397062,350.861583L211.771609,350.457497L208.467061,353.200180L206.061046,354.805464L210.163840,348.925910L211.297070,346.542362L212.621012,344.004616L213.082519,342.468183L212.659354,341.913141L213.728127,339.783232L210.554327,342.121560L207.117397,344.646224L206.156891,344.578152L203.005786,346.677753L206.320991,342.357312L204.784845,342.836529L200.641717,345.766997L203.583948,341.951611L203.601554,340.934300L204.166894,339.433026L200.911813,341.383701L203.509204,338.094577L206.464861,334.576121L209.389609,331.173910L204.435933,334.502234L204.519017,333.531844L203.288679,333.648908L202.176494,333.651009L198.249378,335.868923L199.426593,334.015889L199.827814,332.798708L198.035080,333.262323L197.876318,332.476196L196.427236,332.643064L194.609756,333.052481L198.430976,329.422530L196.215952,330.110703L199.494003,326.977219L203.106694,323.698308L198.899072,325.718570L200.021895,324.160789L200.873664,322.809891L192.129245,327.572501L193.105484,326.094391L185.748556,329.757206L186.096889,328.628384L185.246147,328.226037L184.376353,327.825637L187.734373,324.993643L192.173947,321.627298L194.883894,319.312397L195.514278,318.187097L193.091129,318.709869L190.837831,319.103195L188.732751,319.383455L188.730636,318.568002L187.790673,318.223507L189.616945,316.522261L189.853492,315.619121L185.394882,316.922649L188.198757,314.818732L187.976342,314.132091L190.854178,312.080554L194.740523,309.650256L195.175482,308.753274L193.286509,308.830632L191.007347,309.037336L189.030643,309.088711L189.565257,308.136145L190.990510,306.859361L187.491445,307.436466L186.757926,306.956407L188.425375,305.618812L183.325519,306.649635L183.465234,305.833729L181.828609,305.607579L180.633540,305.216622L183.086094,303.671783L182.617222,303.058220L182.468546,302.345794L184.420256,301.030689L186.349027,299.756920L187.539311,298.717669L186.275870,298.346146L186.523886,297.571548L183.687296,297.565925L187.375391,295.957264L185.213909,295.762363L186.888709,294.678914L186.186012,294.136491L185.949814,293.488426L184.098148,293.161596L183.823341,292.505220L183.476989,291.859790L183.922006,291.071306L184.151857,290.327890L184.303477,289.602401L186.523365,288.563866L184.831203,288.130725L181.738294,287.866380L178.571364,287.565802L174.441463,287.336410L167.924768,287.320065L165.764426,286.737807L163.660936,286.118375L168.365618,284.840043L170.157443,283.880863L177.649722,282.510051L181.712762,281.491985L183.590512,280.671590L188.209342,279.730752L179.118424,279.504079L177.618501,278.841561L170.048770,278.350690L168.343813,277.603196L178.712272,276.626427L178.636840,275.903616L182.701257,275.172056L179.623130,274.461240L177.081948,273.711178L179.188309,273.018879L174.619513,272.169816L177.166871,271.505883L175.696323,270.706147L178.218146,270.086477L178.327485,269.363583L180.230191,268.759785L180.473149,268.062176L183.991698,267.632618L184.420497,266.981936L185.927179,266.440415L184.979406,265.666279L183.992038,264.872278L173.795362,262.967147L174.104093,262.234426L175.517496,261.653159L183.861269,262.074834L185.756111,261.658859L187.529353,261.251339L185.354352,260.218514L185.655206,259.577774L189.517934,259.582321L186.800356,258.407052L187.422296,257.841839L187.846301,257.243993L184.692363,255.893714L182.148746,254.625592L180.893760,253.607929L180.970295,252.881112L180.117825,251.926961L182.870561,251.861924L185.708880,251.860260L186.930659,251.469410L187.562389,250.932973L189.006929,250.634132L187.256191,249.424407L186.254502,248.407461L186.575406,247.778007L185.905965,246.837420L187.278468,246.544644L190.983467,247.047147L191.907977,246.659632L191.947493,245.974766L193.592014,245.861373L191.930483,244.560704L189.928117,243.100013L191.361548,242.918767L191.991267,242.442848L188.519484,240.329280L187.454474,239.136564L188.238007,238.693965L186.326959,237.108958L187.243350,236.718333L189.538867,236.952938L191.299639,236.980829L191.288508,236.214493L192.557127,236.047295L192.792693,235.400409L195.693151,236.060822L195.741665,235.342891L196.404649,234.933519L195.000626,233.457638L193.079593,231.675590L194.418167,231.605683L193.607157,230.376907L189.924593,227.523246L190.219597,226.849045L192.759716,227.471032L188.836315,224.336266L186.922734,222.316640L185.233569,220.386432L187.110786,220.619653L195.134495,224.750610L195.252888,223.984818L193.131619,221.756852L192.268903,220.306998L197.211550,222.730520L198.333482,222.644097L199.334385,222.489736L203.147884,224.332227L202.600502,223.127483L205.855139,224.668948L203.325692,221.999414L202.162966,220.288446L204.182538,220.968481L204.161263,220.105378L204.764632,219.723451L209.044705,222.284734L208.614472,221.118571L208.892446,220.515285L208.438115,219.295835L211.057399,220.665838L207.820168,217.040322L206.186100,214.722822L207.930580,215.354478L207.758766,214.290885L209.431885,214.901204L208.854553,213.451242L213.587440,216.988284L211.245251,213.862928L209.119016,210.866989L209.983389,210.750064L213.069146,212.872897L213.062089,211.925102L210.417786,208.236255L212.922489,209.853202L213.081875,209.035189L216.346531,211.564815L216.628890,210.910902L216.808995,210.136412L217.362145,209.773727L215.849865,207.040154L216.922481,207.251390L217.885968,207.353368L220.439077,209.383508L219.525576,207.256045L219.337346,205.974711L219.500527,205.108960L220.676972,205.525031L221.822702,205.927129L222.242387,205.396663L220.714004,202.251339L220.724787,201.114133L220.942792,200.240171L221.557692,199.908841L224.744490,203.251605L224.728042,202.068164L223.352818,198.855110L223.866050,198.378919L224.389911,197.915873L227.581781,201.581023L230.010565,204.179760L229.070436,201.485364L227.798828,198.171540L228.090584,197.344371L228.671353,196.987475L229.227463,196.588030L229.468505,195.637461L228.587958,192.675900L229.239694,192.387219L230.910850,193.973992L230.709148,192.126306L232.326097,193.688159L232.488723,192.497596L232.560071,191.093819L232.355255,189.092469L234.902305,192.676281L234.752746,190.767594L234.792577,189.199788L235.909531,189.925690L235.334462,186.936227L236.506195,187.793866L236.942289,186.998079L237.586346,186.671790L240.051821,190.735254L240.647934,190.381642L240.656041,188.543590L240.307778,185.717659L240.931298,185.332650L242.460611,187.380707L242.963688,186.708508L244.024314,187.588964L244.091013,185.650675L243.860139,182.745766L244.293358,181.722372L244.486613,179.910027L245.755030,181.452919L246.803121,182.367510L247.440358,181.957477L246.950657,177.623635L246.776553,174.177520L248.864573,178.859938L248.806056,175.703676L249.964122,177.117895L251.137682,178.698167L252.587262,181.546359L254.391307,186.129802L254.693322,184.342506L255.361053,184.128060L255.097740,179.438101L254.481564,172.632555L254.950410,170.919838L256.190452,173.247326L257.584417,176.660579L259.271182,182.127023L260.344397,184.331702L261.545262,187.597458L262.272434,187.978545L262.707731,186.306431L263.044075,183.693859L263.428017,181.154613L264.011697,180.018522L264.525531,178.087774L265.241493,177.888329L266.550413,184.050733L267.221728,183.846837L267.969907,184.602996L268.403112,181.047486L268.916528,177.927118L269.457252,174.460803L270.264916,175.518359L271.039138,176.152151L271.834857,177.753271L272.578053,178.232399L273.282632,176.933365L274.011713,176.151457L274.752677,175.468096L275.480706,179.393988L276.146864,183.553790Z" />
<line x1="50" y1="625" x2="100" y2="625" fill="none" stroke="green" stroke-width="1.0" stroke-linejoin="round" stroke-miterlimit="10" />
<text x="125" y="628" style="text-anchor:start;fill:black">n0_4mer:PS</text>
<path style="stroke:red;stroke-width:1.0" d="M276.825273,153.516419L277.677845,156.197685L278.644756,153.744084L279.502637,155.184670L280.343117,156.541740L281.367097,154.035919L282.566665,149.251499L283.381558,151.225869L284.199154,152.781006L284.967369,154.661232L285.948442,153.884586L287.177568,150.708989L288.238723,149.594005L289.141039,150.045605L290.196646,149.184585L290.553879,153.877750L291.492583,153.783528L293.416868,146.854823L295.066237,142.457899L296.109507,142.310151L295.862927,149.923544L296.031971,154.495775L296.638186,156.294767L298.149585,153.197423L299.798533,149.662278L300.841717,149.354946L302.317979,147.056072L304.709534,140.800485L303.411527,151.082412L303.506149,154.821867L304.418874,154.995919L305.814157,153.266547L305.794269,157.076489L307.364220,154.766790L308.250632,155.070871L309.013454,155.804978L309.626286,157.023625L310.455580,157.472896L310.765261,159.589229L312.724346,156.425547L313.345396,157.535432L315.233895,154.818544L316.569324,153.860407L317.337124,154.577514L318.215345,154.969211L318.504126,156.957191L319.397624,157.266404L319.426659,159.817934L320.131907,160.557700L320.761584,161.467695L322.201622,160.385973L322.355158,162.422658L324.855155,158.927099L324.793613,161.430988L325.651519,161.794652L326.125510,163.000018L326.713445,163.928626L327.754523,163.881970L328.630109,164.194091L333.529488,156.352856L332.984330,159.650345L332.396412,162.926141L332.245954,165.259899L332.420926,166.912584L333.249094,167.314195L334.081669,167.709073L332.418905,172.557653L337.332854,165.723612L337.473844,167.363485L339.889991,165.110626L342.412609,162.772970L340.226186,168.238229L341.183991,168.477657L343.138583,167.147833L344.257554,167.179193L346.987880,164.758842L347.314567,166.055286L346.473658,169.058231L345.891498,171.605152L350.080004,167.241089L351.068597,167.552313L351.010653,169.326640L353.031148,168.219209L353.831161,168.808450L357.929930,165.023166L358.717505,165.696708L355.755172,171.189384L352.104440,177.404242L352.952255,177.840707L354.853974,176.988144L358.438191,174.145791L359.025484,174.975525L358.878424,176.660257L358.632659,178.427356L357.926467,180.684061L358.553164,181.398824L358.918171,182.399759L362.613497,179.769834L366.984688,176.513954L367.141639,177.819877L367.247958,179.160210L368.059273,179.759848L361.696737,187.594899L361.593571,189.000867L368.474605,183.551667L368.815011,184.588003L369.594461,185.197716L370.277356,185.900716L363.839860,193.163201L364.446643,193.837957L367.268922,192.532479L366.686901,194.283512L367.882871,194.461151L366.703004,196.683366L369.122472,195.832177L372.893418,193.908284L373.650259,194.523341L380.443750,190.292718L382.095788,190.281487L378.954495,194.028647L375.638772,197.819052L374.255892,200.057104L378.170911,198.311224L377.677895,199.868675L377.524721,201.156960L380.408883,200.275929L381.420303,200.753893L379.328996,203.372191L383.309371,201.830571L377.080038,207.150146L379.279930,206.811894L379.042198,208.077775L379.573571,208.841351L382.095760,208.366999L381.650976,209.750004L381.242680,211.091752L387.425293,208.517815L395.207539,205.129349L404.401257,201.080483L410.824143,198.759100L409.288380,200.942369L399.431646,207.592316L393.522695,211.940444L385.160828,217.447028L380.642023,220.814223L382.399550,220.928009L385.245382,220.529532L388.526284,219.965697L386.759171,221.855538L396.497696,218.339840L400.986237,217.394974L406.483286,216.071798L406.840275,217.097278L406.812163,218.287052L400.321445,222.191956L397.174809,224.595351L392.815767,227.426325L395.092854,227.553035L392.340575,229.656585L393.138773,230.365294L388.891263,232.945102L390.130838,233.467574L394.255485,232.989462L389.633637,235.583173L392.176962,235.690543L389.361601,237.588497L390.115920,238.296801L391.749963,238.739801L390.761567,239.998159L393.778242,240.057783L393.958459,240.973698L393.901483,241.954309L393.656339,242.980757L392.564867,244.220947L393.342649,244.965497L394.608755,245.598843L396.786957,246.031892L396.441005,247.076459L393.477532,248.693425L394.357920,249.437317L393.325752,250.586631L393.725471,251.432669L395.732247,251.975710L397.898999,252.518043L400.490746,253.016951L406.011848,253.062939L407.499737,253.835889L405.404211,255.174117L408.364248,255.748039L401.427479,257.717990L400.043527,258.863187L397.775207,260.092769L399.626627,260.817222L399.121001,261.818547L398.741109,262.798286L395.811205,264.002990L397.928581,264.740824L397.577934,265.696842L402.983907,266.253074L405.437673,267.069417L407.215415,267.957874L402.022574,269.191096L396.386341,270.362410L398.462048,271.211758L397.800480,272.155306L394.459805,273.130513L396.956051,274.007814L396.960063,274.924065L397.487154,275.843972L398.716323,276.782007L401.438232,277.771436L399.570927,278.667005L396.362185,279.485328L396.750115,280.415870L394.238600,281.202055L393.741567,282.071064L397.602575,283.225774L399.524791,284.294974L400.983949,285.356209L398.092337,286.050121L394.313481,286.615118L396.702357,287.771358L394.711485,288.472445L396.548606,289.604732L398.901061,290.832547L393.415862,291.036675L399.262491,292.780132L397.531107,293.472824L395.619479,294.112481L396.334014,295.161278L396.679200,296.159219L397.368736,297.227513L396.699580,298.051745L399.796514,299.610964L396.339489,299.877684L396.149165,300.788573L394.683722,301.418056L394.168976,302.244926L393.728482,303.084458L395.276099,304.406423L394.364235,305.135612L391.750742,305.410613L395.368622,307.320551L393.115194,307.668772L397.166751,309.779471L395.053803,310.155087L393.699861,310.729005L391.074765,310.892073L396.344051,313.522559L393.340030,313.549913L392.806363,314.357464L391.130303,314.769817L391.652329,315.930300L389.655616,316.199712L390.421707,317.456771L392.202256,319.114175L390.070302,319.301514L389.803685,320.192098L387.598125,320.303813L389.532845,322.085055L387.131838,322.085859L386.034010,322.609254L384.784251,323.052983L385.708254,324.451787L382.969879,324.204893L385.487485,326.358166L388.275450,328.692643L387.754621,329.486924L386.391224,329.864145L385.915859,330.669313L385.288476,331.395673L382.663761,331.077840L381.375592,331.426887L382.045472,332.816865L382.484561,334.101374L384.441046,336.252427L382.687058,336.337712L380.744295,336.287850L377.856828,335.651173L377.910362,336.729369L379.928833,339.016939L379.096078,339.586988L378.696298,340.422973L377.121208,340.506966L378.720758,342.638234L376.467625,342.260777L377.482307,344.047199L377.009953,344.848910L374.319449,344.108347L374.114388,345.076639L377.034608,348.297240L376.915188,349.378556L375.250217,349.324141L373.347408,349.064844L370.819851,348.295950L372.624308,350.845565L372.555702,351.974487L369.743662,350.917539L369.506450,351.900431L367.614077,351.524218L368.895034,353.777088L367.601645,353.884891L364.714253,352.595836L366.467640,355.321508L369.087612,358.882498L366.705970,358.004126L365.810471,358.443272L363.412535,357.473462L361.879898,357.273095L362.927514,359.527130L362.412873,360.305228L360.756688,359.956142L360.505494,360.989696L357.987118,359.720642L358.576688,361.614759L362.896512,367.471964L364.637980,370.734215L362.696589,370.082583L361.994842,370.755315L356.857767,366.472355L358.196859,369.386190L358.542426,371.226054L357.957830,372.015492L356.361137,371.608297L353.884179,370.108256L354.310157,372.097217L351.926962,370.637144L351.224833,371.235782L349.338284,370.316571L351.088674,374.087087L353.385177,378.681022L354.636299,381.997482L353.446398,382.068900L352.137687,381.958989L348.082838,377.958170L356.630583,391.850169L356.240944,393.173666L355.739804,394.355661L354.617505,394.623317L348.760700,387.649360L341.720026,378.586463L341.794793,380.434178L343.799387,385.424805L344.246894,388.026236L346.507884,393.709616L346.393738,395.560147L347.115691,398.892897L342.209506,392.485528L341.826080,393.878574L338.585411,390.130089L336.465713,388.295052L331.958750,381.895937L331.005258,382.036443L333.385212,388.655560L329.790645,383.658981L328.886696,383.893599L330.173230,388.633110L329.744873,389.940703L326.829603,385.959551L326.538453,387.533448L326.605624,389.953569L325.821709,390.522501L325.758935,392.772431L325.758067,395.247892L324.368563,394.453087L325.510337,399.865079L323.430790,397.360699L321.634327,395.458772L319.470206,392.482750L317.959560,391.119359L316.522691,389.880396L315.310624,389.203668L314.694660,390.209017L314.158611,391.487455L312.066267,388.068705L311.631521,389.645166L310.671579,389.603539L310.809723,393.168649L309.317178,391.386673L308.495316,391.827763L307.680779,392.306207L308.342315,398.255129L307.839869,400.119396L305.067462,393.164836L304.536132,394.836898L303.099871,392.811840L302.779206,395.470812L301.878225,395.697968L301.749855,399.523567L300.822665,399.764874L300.061017,400.841153L298.806270,399.412967L297.582501,398.017171L296.783045,398.896467L295.487870,396.892437L295.110512,400.403755L294.485502,402.632159L294.190148,407.355002L292.924110,405.520966L291.832641,404.800660L290.862434,404.967913L289.412889,400.952685L288.174452,398.326042L286.660832,392.508892L286.353369,398.874297L285.310465,397.624662L284.837136,403.556043L283.803772,402.650796L282.603807,398.794430L281.653878,398.482834L280.619543,396.232760L279.861215,400.202349L279.000577,402.794382L278.027422,402.276082L277.169628,408.348085L276.139392,405.121184L275.155781,400.289125L274.227569,398.204225L273.310015,397.612775L272.268904,403.230984L271.372267,400.893835L270.245499,405.845978L269.426166,402.077936L268.672750,398.118815L267.858622,396.190027L267.011724,395.179612L265.913465,397.758849L265.057014,396.883631L264.060755,397.712556L263.250545,396.475297L262.630224,393.584695L261.659151,394.207975L260.375045,397.358109L259.826241,394.334693L259.223301,392.042456L258.194955,392.969982L257.462082,391.821725L256.560491,391.841508L255.358967,393.658563L254.132941,395.441985L253.107699,395.950219L251.950419,397.102614L251.294329,395.600309L249.962978,397.503088L249.441592,395.434968L248.434837,395.706114L246.529971,399.884312L246.274620,396.775414L244.791182,398.891302L245.909988,390.524814L244.340893,393.004999L243.188705,393.766352L241.540918,396.265517L240.773583,395.508095L240.536953,392.961953L239.421978,393.464654L239.659734,389.542104L238.112677,391.443725L236.645856,392.987701L235.873849,392.356327L235.439876,390.752359L235.054906,389.071073L233.982341,389.372014L232.980189,389.453030L232.069017,389.273868L230.927899,389.686687L229.284073,391.346240L228.233241,391.442811L227.623310,390.445962L225.608824,392.826636L225.103934,391.567024L222.935452,394.150571L221.418552,395.153606L220.260810,395.311596L222.045064,389.107890L221.623542,387.789235L221.076102,386.766546L220.353241,386.123835L219.563415,385.623399L218.408046,385.842010L218.282960,384.056136L216.679154,385.111128L215.974034,384.446496L216.931735,380.761141L214.503770,383.247543L213.463438,383.192274L210.057472,387.210464L211.181987,383.381103L210.933394,381.957276L210.154962,381.434695L211.287520,377.829042L209.732926,378.591633L208.525693,378.770913L207.283593,378.981648L207.361346,377.175346L205.603899,378.138261L205.016396,377.342886L205.629592,374.828189L203.968805,375.596898L203.719788,374.356874L201.986120,375.175806L201.248912,374.606449L200.103355,374.580492L200.621620,372.360090L199.823641,371.887019L197.406937,373.465301L196.263618,373.386619L197.536842,370.318811L197.103233,369.394485L197.067449,368.005612L194.484502,369.634725L192.102123,370.964663L192.259595,369.340253L192.466529,367.690232L193.609561,365.035381L194.222450,363.018996L192.846024,363.179717L194.458077,360.157607L193.500061,359.883946L191.786173,360.375760L189.656103,361.255120L188.158849,361.459428L189.014581,359.330667L187.701681,359.340979L184.296668,361.322628L176.418933,367.418457L174.740314,367.586780L174.494821,366.424097L173.082547,366.318981L182.433982,356.694625L179.721549,357.823507L180.627272,355.799476L178.231088,356.599130L175.461633,357.662926L176.045261,355.929863L176.155102,354.608265L178.864189,351.242812L178.858890,350.077376L178.327155,349.330226L175.248027,350.512085L174.432163,349.947883L169.953887,352.064614L167.380887,352.715356L169.203318,350.196507L171.944276,347.089128L176.004647,343.146947L174.902183,342.803173L174.948431,341.680823L170.280454,343.661317L171.868982,341.517288L168.668147,342.456022L168.227698,341.615764L163.550120,343.376307L160.949522,343.797850L161.983192,342.021488L161.160427,341.358486L166.753351,337.013470L169.367168,334.466476L168.616395,333.841009L169.554696,332.291756L167.072602,332.594402L165.611541,332.322436L166.086678,331.034585L166.028578,330.033061L165.364059,329.338796L167.348661,327.351453L170.427997,324.886048L168.359146,324.892988L168.672569,323.776069L167.778119,323.214663L164.153887,323.846577L161.693015,323.917787L160.483073,323.422732L159.143184,322.966490L160.045165,321.584507L161.634369,319.951927L164.480263,317.865442L161.969815,317.865033L161.217028,317.175506L162.194767,315.851827L165.881176,313.592010L160.881068,314.398342L161.267391,313.311131L159.848127,312.828350L156.993768,312.786198L160.725035,310.647130L157.117866,310.802808L155.778460,310.233507L152.647499,310.161503L154.256024,308.719302L151.859247,308.393421L150.406322,307.784567L156.550075,305.218304L157.290171,304.089393L159.601320,302.600016L157.906359,302.077030L156.271106,301.517098L157.935967,300.223446L156.690031,299.563285L158.829198,298.210167L156.114405,297.825123L155.226872,297.063848L156.872805,295.844314L156.999236,294.909078L158.474290,293.760974L159.598310,292.691598L156.506660,292.255454L157.437766,291.218879L154.921038,290.647722L151.235787,290.183256L146.609170,289.772636L142.308547,289.258236L142.145753,288.266892L143.818850,287.105178L149.161198,285.659385L154.041251,284.331317L154.413899,283.391749L153.154791,282.560004L148.808295,281.878409L147.641750,280.982709L147.212549,280.041032L146.223323,279.111345L142.166478,278.242116L154.520128,277.035065L153.187093,276.142263L157.197805,275.219597L154.878079,274.321462L152.371272,273.385930L155.886928,272.537071L151.357300,271.513948L153.945647,270.676535L151.252113,269.649189L152.376755,268.774534L153.500041,267.916038L153.958898,267.029925L153.962636,266.116430L155.476169,265.324205L151.098456,264.032281L152.529216,263.230988L148.084643,261.840872L141.651269,260.160431L136.333360,258.513055L139.719507,257.884011L141.309347,257.063702L148.394920,257.045047L150.718573,256.421069L148.384030,255.098466L149.258886,254.266807L148.197160,253.111964L149.209956,252.312311L152.508978,251.955834L150.121752,250.533943L149.797090,249.492147L147.582341,248.042388L146.585453,246.821917L148.089108,246.150831L146.979729,244.885409L146.078108,243.649330L149.466502,243.472579L150.790762,242.811251L149.442359,241.453191L152.555054,241.297275L156.036293,241.292006L153.662890,239.632622L152.566310,238.312812L157.239941,238.746924L156.875065,237.660767L160.268812,237.783176L157.406926,235.876011L159.442115,235.586434L162.961733,235.844806L162.963889,234.898548L160.619031,233.087198L162.369927,232.766330L160.118714,230.934941L162.245859,230.776295L162.255649,229.799902L159.821666,227.816655L163.463948,228.327123L163.742232,227.458236L165.901931,227.408668L165.362420,226.189651L167.077856,225.978581L166.656770,224.802029L166.524025,223.747144L166.306896,222.642094L166.897625,221.922394L166.478353,220.700919L165.931727,219.398978L167.882782,219.375786L166.713461,217.731603L167.876260,217.312536L171.153333,218.066746L167.040833,214.752850L168.541494,214.536985L168.216746,213.286961L166.154625,210.999568L165.587944,209.555250L165.776607,208.548887L168.938573,209.375824L167.204351,207.177658L166.811466,205.790501L166.508482,204.442480L161.599444,200.031613L170.883139,205.039303L173.556814,205.724001L172.105496,203.593490L176.738127,205.708926L174.979987,203.338041L175.714304,202.729212L174.927667,201.000090L176.244400,200.819709L178.009166,200.999014L175.063125,197.556539L175.489384,196.683283L176.173858,196.012462L177.819076,196.123666L180.205809,196.872250L179.581876,195.146689L181.373317,195.442282L183.420495,195.989402L179.272053,191.147601L181.321480,191.690734L181.689605,190.754201L182.853410,190.539753L188.987935,194.965228L186.536661,191.435495L188.023582,191.594708L186.219013,188.574575L189.068884,190.082182L187.474882,187.197529L184.789835,183.133857L183.593471,180.505838L185.799261,181.388926L185.764310,179.932272L189.891501,182.953042L193.973100,186.035770L193.203196,183.823808L195.136056,184.621421L196.704304,185.043089L197.056841,184.077716L196.369719,181.869232L196.255517,180.299682L197.380637,180.213208L199.814574,181.765213L198.182278,178.262677L199.481339,178.417450L197.841235,174.777206L200.512669,176.728556L199.815603,174.245393L199.584794,172.335864L199.207913,170.181353L199.270391,168.593215L202.928280,172.105208L200.678598,167.178532L203.673737,169.841688L204.954710,170.041438L208.162291,173.199617L205.948359,168.085382L209.026965,171.148369L211.331743,173.092899L210.731547,170.391446L214.695641,175.169874L213.267213,171.048539L212.695203,168.266964L213.413384,167.652982L212.392356,163.948692L211.184901,159.792229L216.540383,167.564284L215.502044,163.671924L219.014527,168.323987L219.191854,166.692123L218.406806,163.112000L218.196883,160.570533L220.463669,163.032628L220.830109,161.629277L222.861641,163.739890L224.646411,165.413265L225.713303,165.575731L225.177325,162.128777L225.982259,161.654890L226.351890,160.148870L227.330493,160.062429L229.930521,163.981775L230.862293,163.889113L231.127843,162.092592L231.873929,161.494047L232.951371,161.775038L234.241103,162.669223L235.026326,162.197325L236.157986,162.718491L235.606086,158.292499L236.768743,158.864833L236.652485,155.496249L237.800819,156.009460L238.080666,153.712467L237.877812,149.673912L237.169566,143.667506L234.825128,131.483503L238.643875,141.262752L240.443581,144.003100L243.668657,152.504682L245.966806,157.829913L246.800890,157.419119L246.610911,152.578656L247.673376,153.002534L247.773907,149.021357L248.687637,148.659602L249.165171,146.108818L250.255654,146.548717L252.314996,152.282542L253.634589,154.357347L255.419024,159.381418L256.459704,160.298680L257.320812,160.155251L257.637508,156.288433L258.740938,157.684457L259.334922,155.367448L260.226823,155.193870L261.277431,156.383884L261.443050,149.567944L262.710420,152.700390L263.742814,153.830430L264.669312,153.935212L265.573922,153.794040L266.552221,154.687191L267.484350,155.074109L268.208849,151.816193L269.049315,149.979212L270.034755,151.086635L270.940570,150.276939L271.806164,147.391981L272.834079,151.319665L273.688244,143.798043L274.667381,141.142027L275.650999,145.524870L276.524750,153.422696Z" />
<line x1="50" y1="600" x2="100" y2="600" fill="none" stroke="red" stroke-width="1.0" stroke-linejoin="round" stroke-miterlimit="10" />
<text x="125" y="603" style="text-anchor:start;fill:black">n0_4mer:D</text>
<path style="stroke:black;stroke-width:1.0" d="M277.585931,102.889784L278.844225,104.451371L280.136670,104.110187L281.430234,103.891252L282.772441,102.683014L284.137105,101.410451L285.443232,101.446558L286.655578,102.876997L287.959622,102.819824L289.217714,103.345648L290.426994,104.341312L291.840326,103.118293L293.014343,104.356151L294.281778,104.620526L295.636204,104.149625L296.933506,104.197883L298.367765,103.252615L299.716086,103.024662L301.183300,102.053294L302.446508,102.477117L303.762420,102.564872L305.110803,102.477937L306.410549,102.684423L307.725231,102.814729L309.163476,102.329615L310.474849,102.517677L311.821870,102.544538L313.129954,102.765008L314.204914,104.006788L315.390333,104.719727L316.483913,105.780780L317.520893,107.018282L318.159430,109.725370L318.941698,111.756412L319.996518,112.705544L321.204231,113.084236L323.088294,111.156768L324.671700,110.349726L326.096000,110.118536L327.761556,109.160871L329.234866,108.860757L330.826775,108.241522L332.187568,108.346372L332.973581,110.101629L334.015977,111.082894L335.068528,112.011833L336.207507,112.689963L337.717600,112.396219L338.698936,113.476742L339.812472,114.203350L341.080553,114.544531L342.070865,115.552541L343.301394,115.980519L344.649755,116.143204L345.999518,116.317194L347.215612,116.798209L348.713426,116.676540L350.125978,116.760473L350.925976,118.128291L352.594606,117.705298L353.807818,118.225666L354.869426,119.044697L356.183373,119.372033L356.910388,120.814360L357.876098,121.785953L358.729328,122.949501L359.160235,124.847850L360.855780,124.485320L361.959031,125.177828L363.374558,125.340173L365.210965,124.818768L366.141159,125.820781L367.206549,126.594661L368.706157,126.678571L370.527240,126.282301L371.833209,126.711079L373.034409,127.307340L373.826587,128.514376L374.592041,129.745573L375.787688,130.344020L376.618780,131.462412L377.949773,131.874688L378.734463,133.045816L380.073711,133.457745L382.473902,132.474382L383.017111,133.970645L383.735833,135.220299L384.217146,136.757245L384.681535,138.293493L385.926580,138.849983L387.711336,138.762474L388.723630,139.622661L389.518427,140.737670L390.098298,142.093225L390.391880,143.759711L390.775184,145.301820L390.890015,147.120148L392.592334,147.184790L395.025507,146.491247L395.437067,147.977200L396.500660,148.768504L396.292294,150.865176L395.143743,153.874612L397.150256,153.688267L398.969690,153.717632L400.003377,154.530954L400.696369,155.671438L402.082380,156.158026L402.539461,157.514210L403.714766,158.206870L405.073268,158.743954L404.920200,160.624860L404.897394,162.365813L405.806464,163.288044L407.809239,163.292157L409.828897,163.312138L412.301289,162.992700L414.064782,163.283566L414.223627,164.866644L414.031241,166.706966L413.670316,168.652255L412.998742,170.804419L414.520108,171.292218L415.507170,172.188292L415.920552,173.502509L416.923871,174.390552L416.886245,176.010418L417.079686,177.454187L418.181444,178.272409L418.414751,179.676074L418.195622,181.365123L418.642692,182.605869L418.973567,183.914876L419.643187,185.005685L420.592473,185.925257L421.739633,186.731586L425.271781,186.137467L429.091186,185.434474L432.636364,184.951385L435.641357,184.828684L434.486072,187.046295L431.844667,190.033385L430.580262,192.224104L428.627072,194.738307L428.413693,196.311236L429.491845,197.218653L429.948546,198.442419L431.408034,199.177848L433.057099,199.839641L434.863608,200.447989L436.237787,201.276813L437.209203,202.301052L437.201371,203.763037L437.536754,205.067619L437.504565,206.523705L436.904982,208.204203L436.613964,209.740737L435.634675,211.535543L434.917492,213.203770L435.891805,214.212519L436.555041,215.345023L437.457285,216.394979L438.305680,217.471749L438.142156,218.903497L438.345647,220.202294L438.122975,221.637022L438.161949,222.977955L438.572050,224.197799L439.260226,225.334032L440.024499,226.453046L439.471078,227.955489L439.313978,229.333043L438.602349,230.852140L439.038249,232.053990L439.004856,233.376762L439.434334,234.580219L439.879303,235.781996L439.779408,237.111442L440.730643,238.201414L441.100219,239.426598L441.668876,240.612314L442.351699,241.780230L442.768471,243.005649L443.754249,244.129726L445.138927,245.195632L447.059565,246.189772L449.283400,247.161807L449.586498,248.456904L450.139808,249.717476L448.838442,251.237147L447.697793,252.713424L447.450808,254.061212L446.597117,255.471879L447.683789,256.661257L448.140162,257.927204L447.516534,259.296439L447.916182,260.569039L447.259309,261.926231L447.128163,263.236081L448.259880,264.465836L448.346615,265.767123L448.011455,267.087966L447.641270,268.404205L448.573144,269.674176L447.983346,270.992811L448.258570,272.288589L447.961522,273.592853L446.204492,274.893404L445.025343,276.171523L444.899241,277.447225L444.376118,278.712604L443.781120,279.968424L445.575506,281.304164L444.936338,282.559362L445.111960,283.848173L445.664658,285.163086L445.583489,286.444957L446.028768,287.766197L446.376575,289.087601L445.755392,290.328880L444.677320,291.518017L443.702972,292.703569L442.968898,293.903380L442.325651,295.105096L441.487844,296.274447L441.856021,297.596768L442.127068,298.913421L442.560789,300.261511L442.452710,301.533333L441.397706,302.649216L441.246873,303.909246L440.459181,305.054622L440.314701,306.313110L440.761647,307.689646L440.560368,308.944090L440.251773,310.176531L440.080499,311.438588L439.314602,312.566314L438.468111,313.667329L439.326668,315.176391L439.517167,316.535268L440.785305,318.182876L441.591150,319.731905L441.407029,321.025521L441.874174,322.507160L439.328966,323.120084L438.292438,324.151500L437.787188,325.336261L436.498851,326.270326L437.190810,327.834545L436.884159,329.083241L436.402315,330.273605L436.065079,331.513591L435.388896,332.633255L434.740194,333.758902L434.282545,334.952925L432.404291,335.599897L432.049273,336.821936L431.267244,337.874066L430.131409,338.775339L431.353836,340.655347L430.752764,341.783798L430.429880,343.032247L429.263756,343.907403L428.753096,345.069585L428.834522,346.507274L428.338153,347.682392L428.722047,349.283799L426.982058,349.856576L426.102542,350.839243L425.561910,351.989370L424.569016,352.904648L424.697377,354.406910L424.657573,355.832300L424.265172,357.074827L424.146175,358.474761L423.297583,359.469151L422.063914,360.236098L421.279413,361.255994L419.951858,361.947383L419.305227,363.040425L418.310420,363.917744L417.680653,365.018570L416.979295,366.074451L415.610410,366.694661L414.688322,367.596482L414.310133,368.859855L413.869251,370.087446L413.725626,371.527909L414.007102,373.281901L413.813094,374.717311L413.342779,375.963717L412.700873,377.089546L411.201009,377.572163L409.572621,377.939296L409.062019,379.154486L408.658512,380.460729L408.047804,381.610423L406.496451,381.999403L405.939454,383.191321L404.969710,384.043416L404.441844,385.268083L405.160471,387.578662L405.071918,389.221518L404.854006,390.769527L404.508914,392.220005L403.514152,393.088159L401.544646,393.044066L400.154988,393.518651L398.603146,393.823093L396.776468,393.840269L395.675947,394.549427L394.836103,395.514713L394.084793,396.572363L393.784425,398.102322L393.855337,400.042351L393.237269,401.278528L392.954824,402.889232L392.116796,403.910581L390.177954,403.706158L389.629363,405.046122L388.370467,405.582666L387.694974,406.791759L387.474775,408.552663L386.532104,409.470867L385.542438,410.334029L384.154320,410.702843L382.867827,411.185864L381.549500,411.617801L381.350049,413.495205L381.015266,415.227676L380.914198,417.303858L380.329768,418.761124L378.844560,418.990696L377.267799,419.073571L376.332876,420.053033L375.346507,420.964756L373.686705,420.886123L372.456309,421.425676L370.333102,420.595324L368.444556,420.077745L367.760103,421.419875L367.001238,422.664377L366.718712,424.705210L366.694499,427.221240L366.102510,428.841673L365.214598,429.986352L363.414493,429.552892L361.681163,429.199274L359.897729,428.718958L358.156247,428.275555L356.720196,428.366375L354.997699,427.890453L353.555482,427.920013L352.708370,429.108651L351.598303,429.788946L350.449635,430.393779L349.366086,431.136814L347.593113,430.411171L346.251719,430.577072L345.198660,431.370292L343.548698,430.817605L343.207423,433.256947L342.522171,434.962726L341.476084,435.846760L341.170609,438.578366L339.544146,438.071194L338.118624,438.038525L336.617584,437.783215L334.941773,437.022149L333.433884,436.668417L332.271758,437.256107L330.981924,437.480861L329.883158,438.264200L328.701781,438.814469L327.100487,438.058174L326.000329,438.850837L324.550384,438.511509L323.168534,438.363532L322.039787,439.069304L320.658227,438.888182L319.494246,439.479998L318.419158,440.426322L317.113472,440.505540L315.883844,440.877948L314.633593,441.168255L313.268928,440.961865L312.146022,441.806007L311.049344,442.813732L309.835729,443.312425L308.663045,444.035296L307.309945,443.853670L306.011137,443.931791L304.769264,444.320067L303.483935,444.464966L302.283229,445.130898L301.009972,445.368143L299.750834,445.707207L298.479564,445.975033L297.231390,446.431752L295.829250,445.663222L294.606209,446.336551L293.279940,446.118518L292.062990,446.947687L290.992068,449.486205L289.671322,449.489306L288.404847,450.180464L287.038496,449.552855L285.642479,448.265786L284.288011,447.367141L283.004957,447.694306L281.715571,447.961938L280.414791,447.970023L279.142214,449.143142L277.835433,449.269346L276.524582,449.110715L275.217052,449.567311L273.911290,448.651419L272.589667,449.875876L271.244794,451.315184L269.918851,451.331982L268.577463,451.751085L267.300159,450.548807L266.084828,448.475907L264.826661,447.642760L263.523296,447.661250L262.307672,446.473020L260.996421,446.659411L259.650572,447.184423L258.416405,446.454516L257.166395,445.964501L255.843557,446.173569L254.664943,445.131070L253.365291,445.147121L252.052561,445.239963L250.768952,445.099891L249.320969,446.050447L247.997661,446.099675L246.710956,445.904319L245.493954,445.305108L244.230917,444.992519L243.035842,444.326601L241.557274,445.136632L240.147352,445.529748L238.932073,444.957366L237.661621,444.657182L236.440881,444.140293L235.418101,442.799420L234.250393,442.120799L233.063169,441.543233L232.052078,440.303885L230.892269,439.674666L229.929018,438.350447L228.583537,438.428139L227.251880,438.434810L225.953468,438.310944L224.676341,438.105104L223.463722,437.686680L222.370494,436.902568L220.985626,437.012579L219.555715,437.229188L218.640113,435.946741L217.301726,435.883580L216.142073,435.316477L215.031648,434.624007L213.708565,434.495724L212.498330,434.065664L210.964952,434.438481L209.916075,433.594371L208.378457,433.931066L206.615668,434.759252L205.437392,434.195167L203.632369,435.038196L202.209437,434.986817L201.414774,433.562272L200.332568,432.778969L199.149324,432.213560L198.362057,430.842768L197.703102,429.245531L196.995575,427.780858L196.444106,426.048120L195.188659,425.685688L193.590044,425.951099L192.295834,425.631106L190.562725,426.085902L189.590739,425.164747L188.358545,424.702793L187.210940,424.090746L185.804256,423.909617L184.590489,423.395454L183.214806,423.137125L181.757948,422.993405L181.323084,421.236036L179.817758,421.156696L179.308977,419.551419L177.918629,419.284818L176.646866,418.830027L175.754569,417.820146L174.374331,417.509642L173.794792,416.069068L172.885104,415.102703L172.274346,413.738800L171.242453,412.953144L170.087546,412.328697L169.043466,411.556397L167.649133,411.227841L166.472493,410.612713L165.448849,409.803250L163.961776,409.554955L162.504394,409.253564L160.834671,409.185402L160.189378,407.907658L159.598036,406.580822L158.961931,405.317984L158.749060,403.598615L158.073613,402.408459L157.051553,401.599603L156.258399,400.546427L155.405137,399.560632L153.940444,399.204739L152.456792,398.851611L151.388037,398.068609L150.306286,397.294038L148.950488,396.779427L148.645896,395.251572L145.529783,396.376629L144.759333,395.273306L143.748453,394.392396L142.994856,393.277831L144.472040,390.198136L143.497049,389.312684L143.810022,387.321448L143.285273,386.066735L142.839277,384.754583L142.076513,383.711111L140.504104,383.321069L139.174973,382.719296L138.773520,381.380368L137.542087,380.689221L135.755185,380.408105L134.044997,380.046299L131.687324,380.137981L130.637980,379.248637L130.460065,377.733828L131.669426,375.262031L131.888199,373.516061L132.104361,371.793097L131.402019,370.702962L130.247984,369.909351L129.160828,369.063128L127.275944,368.714882L126.268469,367.794333L124.243536,367.491533L123.820545,366.194896L123.741854,364.699454L123.450255,363.340208L123.528490,361.776579L123.338381,360.378588L123.379496,358.861638L122.512078,357.851492L121.408648,356.962525L120.686487,355.864349L120.339011,354.571206L121.151641,352.696940L120.516260,351.566684L120.631196,350.070420L119.665366,349.102349L119.158333,347.912079L119.330832,346.410831L118.183035,345.516177L116.914089,344.663747L114.558770,344.266956L113.329015,343.361516L112.970156,342.082828L113.038484,340.633580L113.514535,339.032482L116.266632,336.565256L116.615144,335.065123L116.859970,333.617169L116.130196,332.533872L112.484822,332.476677L110.745899,331.706973L110.146798,330.531239L110.446886,329.057070L110.438314,327.693492L109.987414,326.474312L108.193840,325.661866L107.746005,324.428525L107.607671,323.104990L108.069774,321.617405L108.170694,320.240923L108.198220,318.890864L108.478866,317.481971L108.310047,316.193753L108.795586,314.751274L108.927941,313.402923L109.351773,311.996135L109.176274,310.729555L108.239298,309.622532L107.652894,308.434858L106.657512,307.320467L105.841597,306.161291L106.326324,304.763570L105.515766,303.595364L105.626628,302.269600L105.574825,300.973641L105.582411,299.671238L106.479274,298.249110L105.912670,297.034098L105.491326,295.795136L104.371151,294.632538L102.724441,293.511709L101.134786,292.362268L100.461513,291.106120L100.681775,289.765915L99.790497,288.516471L99.968267,287.180694L100.592917,285.821256L100.266881,284.524285L100.137820,283.214227L99.818715,281.910651L98.372279,280.639045L98.084942,279.318030L99.882462,277.957967L99.740172,276.643445L101.182950,275.324015L100.860385,274.016329L100.372671,272.701511L101.744747,271.417560L101.151720,270.098424L102.505279,268.839339L102.456511,267.539286L101.830729,266.208361L102.812732,264.960754L102.406506,263.635406L103.282242,262.396729L104.191725,261.172583L102.743818,259.751946L101.506812,258.327915L100.965476,256.955355L99.068275,255.421629L97.817530,253.933667L99.035025,252.736520L99.095735,251.400210L100.837590,250.300533L103.154703,249.310708L103.093200,247.979641L103.054348,246.648236L102.730147,245.263688L103.339805,244.039099L104.093263,242.847413L103.910249,241.480218L104.301652,240.223266L104.029581,238.827979L103.353695,237.335546L104.421698,236.224429L104.656976,234.929702L103.723770,233.349784L104.659886,232.219511L106.159966,231.245207L106.324358,229.932814L107.366788,228.859295L107.501657,227.539868L106.638725,225.926003L107.455249,224.795308L108.506249,223.743991L109.301308,222.622726L109.342733,221.263632L109.679942,219.996930L111.387548,219.196363L113.156787,218.438947L114.845704,217.675448L116.161261,216.796466L115.912377,215.345824L115.104417,213.668791L115.243819,212.341456L116.183216,211.329101L115.960362,209.848666L117.630636,209.147921L117.520519,207.707150L117.526331,206.306009L118.549373,205.348611L117.984354,203.678865L119.636235,203.016308L121.074381,202.273043L121.073219,200.852849L122.128373,199.940965L121.142543,198.017031L120.856488,196.420441L121.772935,195.431700L121.490935,193.815226L122.556474,192.907269L123.221366,191.788359L123.217626,190.297091L124.477886,189.511098L124.301768,187.907263L123.667126,186.017172L124.221885,184.812168L124.561929,183.474028L125.764079,182.662148L126.260953,181.417091L127.568486,180.686297L127.736231,179.226924L127.709039,177.626882L130.250260,177.736285L132.223930,177.497593L133.443190,176.762704L135.288631,176.480091L134.823402,174.566804L134.308351,172.589515L135.664712,171.966539L136.972480,171.320598L138.262182,170.673302L138.941120,169.564738L139.088683,168.035251L139.651976,166.822073L141.283870,166.470077L143.501850,166.621475L145.393550,166.535238L146.088227,165.459363L145.580165,163.342501L145.265980,161.360159L145.133153,159.508084L145.856011,158.401645L147.316233,157.966885L148.931253,157.692231L151.551919,158.388103L153.649613,158.632084L155.485783,158.656768L154.904888,156.321047L153.522787,153.137844L152.286974,150.034345L151.386584,147.211031L152.712332,146.666087L154.022158,146.115598L156.861032,147.229769L160.038206,148.776640L163.093512,150.261540L164.373203,149.808427L164.011851,147.481482L163.174830,144.553659L163.311173,142.714242L164.491990,142.099976L166.459856,142.453536L168.164992,142.517686L168.735724,141.180337L169.667069,140.287295L170.560081,139.341263L171.151749,137.992573L171.391457,136.154195L171.837999,134.563630L172.178097,132.799762L173.213066,131.980375L174.218685,131.117317L175.522428,130.683323L176.749799,130.146970L178.062881,129.745686L179.630303,129.742603L180.982013,129.429279L182.333034,129.128045L183.305689,128.234534L184.208016,127.219593L185.249708,126.423959L186.221634,125.506655L187.063631,124.358057L187.992546,123.343824L188.661608,121.855900L189.342085,120.358581L190.876746,120.400251L192.229149,120.125442L194.556929,121.721915L196.100121,121.877579L197.027011,120.842917L198.287408,120.463038L199.105684,119.183006L200.321555,118.707470L202.044246,119.316825L203.623044,119.659184L204.632933,118.773973L206.257909,119.267618L207.112236,118.021203L208.010685,116.847946L209.727558,117.619392L210.935271,117.191376L212.030346,116.482160L212.960408,115.337698L213.979609,114.396972L214.861476,113.064112L216.207678,112.969433L217.731457,113.392515L218.922664,112.895945L219.810240,111.496093L220.981522,110.907961L221.883506,109.471143L222.770475,107.931285L224.176352,108.033964L225.070002,106.434201L225.891411,104.514156L226.607445,102.127515L228.061691,102.335829L229.551522,102.713350L231.435743,104.677985L233.200649,106.309174L234.428340,105.829711L235.601571,105.103438L236.660466,103.836301L237.672809,102.282273L238.759881,100.990885L240.075558,100.760307L241.491974,101.055260L243.070146,102.271334L244.506055,102.811859L246.268123,105.348659L247.685113,106.013829L248.989669,106.035797L250.248931,105.770937L251.344231,104.314295L252.615852,104.054622L253.824252,103.270901L255.070467,102.731679L256.283289,101.828636L257.554808,101.394375L258.879213,101.479829L260.288507,102.596788L261.677195,103.687667L262.973351,103.717119L264.335558,104.829400L265.613616,104.741601L266.862080,104.026542L268.151292,104.082653L269.391213,102.674075L270.660986,101.636989L271.950404,100.859305L273.248713,99.836211L274.566554,100.565680L275.873839,101.204998L277.165691,102.316656Z" />
<line x1="50" y1="550" x2="100" y2="550" fill="none" stroke="black" stroke-width="1.0" stroke-linejoin="round" stroke-miterlimit="10" />
<text x="125" y="553" style="text-anchor:start;fill:black">GC-content</text>
</g>
<g style="fill:pink;stroke:black">
<a href="" title="OX638319:1 [33500-51099];"><path  d="M303.866741,46.818688L307.844658,47.357235L311.812569,47.965124L315.769268,48.642171L312.224114,68.325460L312.224114,68.325460L308.611476,67.707287L304.988600,67.152258L301.356590,66.660541Z" />
</a><a href="" title="OX638319:2 [162000-184099];"><path  d="M406.483562,86.288387L409.757008,88.611833L412.989406,90.992055L416.179771,93.428327L419.327131,95.919908L406.776946,111.492090L406.776946,111.492090L403.903269,109.217168L400.990327,106.992746L398.039007,104.819500L395.050209,102.698092Z" />
</a><a href="" title="OX638319:3 [671500-697099];"><path  d="M408.482567,462.302975L405.193349,464.604040L401.864473,466.847349L398.496953,469.032220L395.091815,471.157987L391.650095,473.224003L381.506609,455.987133L381.506609,455.987133L384.649048,454.100771L387.758088,452.159853L390.832780,450.164971L393.872188,448.116732L396.875387,446.015760Z" />
</a><a href="" title="OX638319:4 [1218000-1240099];"><path  d="M47.157973,306.432638L46.644099,302.451459L46.199785,298.461918L45.825165,294.465230L45.520355,290.462613L65.475106,289.118038L65.475106,289.118038L65.753412,292.772601L66.095456,296.421751L66.501134,300.064375L66.970323,303.699365Z" />
</a><a href="" title="OX638319:5 [1590500-1614599];"><path  d="M205.136735,55.867336L208.971768,54.681429L212.826914,53.562633L216.700998,52.511289L220.592840,51.527718L224.501256,50.612218L228.892451,70.124199L228.892451,70.124199L225.323898,70.960090L221.770476,71.858134L218.233269,72.818057L214.713353,73.839566L211.211802,74.922351Z" />
</a></g>
<text x="275" y="280" style="text-anchor:middle" font-size="25" font-weight="bold">OX638319</text>
<path  style="fill:pink;stroke:black" d="M350,550L375,550L375,565L350,565Z" />
<text x="405" y="565" style="text-anchor:start;fill:black">Selected loci;</text>
</svg>