<svg xmlns="http://www.w3.org/2000/svg" viewbox="0 0 550 650">
<circle cx="275" cy="275" r="240" fill="none" stroke="black" stroke-width="1.0" />
<line x1="275" y1="15" x2="275" y2="55" fill="none" stroke="grey" stroke-width="1.0" stroke-linejoin="round" stroke-miterlimit="10" />
<line x1="495" y1="275" x2="535" y2="275" fill="none" stroke="grey" stroke-width="1.0" stroke-linejoin="round" stroke-miterlimit="10" />
<line x1="275" y1="495" x2="275" y2="535" fill="none" stroke="grey" stroke-width="1.0" stroke-linejoin="round" stroke-miterlimit="10" />
<line x1="15" y1="275" x2="55" y2="275" fill="none" stroke="grey" stroke-width="1.0" stroke-linejoin="round" stroke-miterlimit="10" />
<text x="275" y="10" style="text-anchor:middle" font-size="15">MAG: Cenarchaeum sp. isolate 2aece85a-e1ef-42aa-a440-38dcd4bc62d0</text><text x="285" y="25" style="text-anchor:start">1,649,950</text><text x="525" y="265" style="text-anchor:start">0.41 Mbp</text><text x="285" y="530" style="text-anchor:start">0.82 Mbp</text><text x="-200" y="25" style="text-anchor:end" transform="rotate(-90)">1.23 Mbp</text><circle cx="364.201560" cy="52.192725" r="2.500000" fill="grey" stroke="black" stroke-width="1.0" />
<circle cx="440.622972" cy="101.307653" r="2.500000" fill="grey" stroke="black" stroke-width="1.0" />
<circle cx="493.315130" cy="175.307955" r="2.500000" fill="grey" stroke="black" stroke-width="1.0" />
<circle cx="514.728688" cy="263.591406" r="2.500000" fill="grey" stroke="black" stroke-width="1.0" />
<circle cx="501.795667" cy="353.509397" r="2.500000" fill="grey" stroke="black" stroke-width="1.0" />
<circle cx="456.369015" cy="432.179134" r="2.500000" fill="grey" stroke="black" stroke-width="1.0" />
<circle cx="384.957133" cy="488.329390" r="2.500000" fill="grey" stroke="black" stroke-width="1.0" />
<circle cx="297.791394" cy="513.915366" r="2.500000" fill="grey" stroke="black" stroke-width="1.0" />
<circle cx="207.360271" cy="505.271290" r="2.500000" fill="grey" stroke="black" stroke-width="1.0" />
<circle cx="126.620074" cy="463.635621" r="3.000000" fill="black" stroke="black" stroke-width="1.0" />
<circle cx="67.138672" cy="394.973616" r="2.500000" fill="grey" stroke="black" stroke-width="1.0" />
<circle cx="37.438126" cy="309.122665" r="2.500000" fill="grey" stroke="black" stroke-width="1.0" />
<circle cx="41.773714" cy="218.382867" r="2.500000" fill="grey" stroke="black" stroke-width="1.0" />
<circle cx="79.524265" cy="135.754760" r="2.500000" fill="grey" stroke="black" stroke-width="1.0" />
<circle cx="145.281154" cy="73.076695" r="2.500000" fill="grey" stroke="black" stroke-width="1.0" />
<circle cx="229.623214" cy="39.328730" r="2.500000" fill="grey" stroke="black" stroke-width="1.0" />

<circle cx="275" cy="275" r="185" fill="white" stroke="grey" stroke-width="0.5" />
<circle cx="275" cy="275" r="170" fill="none" stroke="black" stroke-width="0.5" />
<circle cx="275" cy="275" r="170" fill="aliceblue" stroke="black" stroke-width="0.5" />
<circle cx="275" cy="275" r="165" fill="white" stroke="none" stroke-width="0.5" />
<circle cx="275" cy="275" r="140" fill="none" stroke="black" stroke-width="0.5" />
<circle cx="275" cy="275" r="140" fill="aliceblue" stroke="black" stroke-width="0.5" />
<circle cx="275" cy="275" r="133" fill="white" stroke="none" stroke-width="0.5" />
<circle cx="275" cy="275" r="110" fill="none" stroke="black" stroke-width="0.5" />
<circle cx="275" cy="275" r="110" fill="white" stroke="black" stroke-width="0.5" />
<circle cx="275" cy="275" r="109" fill="aliceblue" stroke="none" stroke-width="0.5" />
<circle cx="275" cy="275" r="80" fill="none" stroke="black" stroke-width="0.5" />

<g style="fill:none;stroke-linejoin:round;stroke-miterlimit:10">
<path style="stroke:blue;stroke-width:1.0" d="M277.310815,123.289105L278.472207,123.048163L279.643637,122.611581L280.858777,121.216533L282.009057,121.720195L283.239890,120.585504L284.601515,117.606647L285.713689,118.941071L286.727132,121.318080L287.871172,121.722472L288.969341,122.576086L290.183669,122.144771L291.674460,119.209053L292.909761,118.911263L294.564745,115.241201L297.586781,101.525184L301.449604,83.274017L301.656561,92.075909L302.671513,94.743012L301.357986,111.606937L301.214258,120.014993L302.894294,117.391730L303.572356,120.429920L304.089390,124.073052L305.413948,123.422217L307.835747,117.578004L310.035166,113.208091L311.673080,111.668290L310.594208,121.936475L310.449626,127.654102L311.683160,127.476521L314.388137,121.596972L315.141213,123.464734L316.160762,124.263382L317.351825,124.424004L318.222493,125.700527L318.758467,128.048513L319.815378,128.585413L320.627407,129.890750L322.667297,127.342926L325.539417,122.430557L327.744305,119.745784L329.059900,119.765238L329.904724,121.122861L329.476300,125.920696L328.902519,130.904795L330.993457,128.719982L331.264315,131.300153L331.387898,134.153773L332.042249,135.605651L332.995912,136.298431L334.934887,134.673770L337.672016,131.305037L339.226275,130.749614L340.451388,130.960504L341.871441,130.762321L342.355984,132.570043L341.682587,136.728795L341.729470,139.283201L343.639862,138.042100L344.697450,138.536559L345.400154,139.714331L345.521288,141.965771L346.809603,141.993382L347.588183,142.966753L349.544957,141.820297L352.526943,138.934708L353.835829,139.055171L355.204099,139.091562L356.556619,139.173833L357.639928,139.715097L360.431284,137.510469L367.128228,129.221246L370.541609,126.339389L373.976295,123.543825L372.672971,127.995421L368.487872,136.592903L366.849611,141.226295L367.905083,141.873405L368.042982,143.816158L366.282192,148.353972L365.128336,151.941657L364.974439,154.094375L365.600576,155.169461L366.720367,155.589862L369.964600,153.296278L370.929035,153.972256L370.778902,156.034308L370.489221,158.226100L372.539254,157.555887L373.340075,158.409841L375.814197,157.307150L377.600665,157.051767L377.828058,158.592757L377.464861,160.769242L377.176078,162.821893L377.812544,163.835727L379.345095,163.888423L379.880824,165.008821L380.205744,166.337295L381.428809,166.736311L382.084313,167.716297L382.176333,169.247349L382.829364,170.211763L383.587453,171.071330L384.241942,172.027573L385.438296,172.477055L387.670526,171.991274L387.059555,174.105888L388.540694,174.327454L389.263146,175.230907L395.401521,171.476649L403.413275,166.278029L410.707829,161.865189L409.096452,164.928760L403.595497,171.073300L408.261619,168.969908L421.897766,159.936368L409.766714,171.084877L403.987765,177.098248L400.064733,181.568479L399.456547,183.491416L400.169217,184.427956L399.259714,186.520104L405.057040,183.876830L403.340659,186.528994L400.993632,189.555130L404.749562,188.443278L405.215256,189.558498L402.275556,192.867236L402.399504,194.154920L404.401478,194.260307L404.832288,195.358825L405.525899,196.295194L406.242463,197.219916L404.865975,199.366185L406.023544,200.022523L406.294103,201.189377L406.836468,202.200296L407.960225,202.895685L408.966788,203.664805L410.082717,204.385811L410.396379,205.529664L411.386305,206.328870L410.889616,207.871369L410.529789,209.328450L410.720682,210.507661L411.349771,211.477117L412.740895,212.101287L412.640351,213.409728L414.049397,214.046007L414.260183,215.213871L416.121051,215.683758L416.822592,216.655836L416.865361,217.897657L417.784582,218.787488L415.929532,220.753824L415.570812,222.117573L417.713519,222.548735L418.826760,223.379521L420.589847,223.995027L423.864192,224.117486L427.331476,224.224746L432.653991,223.781419L429.571089,226.081304L434.337441,225.904760L427.353621,229.324193L433.690349,228.738710L425.745410,232.297756L421.256088,234.770200L421.149470,235.994370L421.362943,237.129130L421.631854,238.248777L422.361311,239.256538L423.483260,240.179631L427.158825,240.538133L437.390616,239.518805L436.010155,241.103145L430.508783,243.496254L428.235008,245.170006L432.930336,245.502564L432.472294,246.827557L430.159819,248.459186L426.102114,250.336255L423.980383,251.846049L426.086447,252.695863L428.136265,253.583680L434.373402,253.947677L436.364669,254.933841L428.393153,257.110363L425.760371,258.580245L426.743578,259.641634L426.879491,260.795597L426.841795,261.964889L427.935925,263.043595L430.977749,264.000320L431.909854,265.134968L427.777181,266.562438L427.112723,267.760725L430.252751,268.795996L440.956942,269.633870L447.662380,270.733163L437.364487,272.224794L426.515015,273.564418L426.321025,274.718791L429.426194,275.889174L427.597591,277.040973L426.170498,278.173578L425.227813,279.298664L426.111522,280.476064L431.226684,281.853200L427.398701,282.848624L430.808299,284.214527L431.511275,285.452855L433.379439,286.789896L433.138177,287.983734L428.121110,288.746636L429.806744,290.087346L429.502080,291.246457L432.881898,292.818613L430.678504,293.771777L435.897200,295.645461L430.457600,296.152174L427.040941,296.867950L427.469429,298.116164L430.241447,299.747386L428.671561,300.698747L428.236144,301.827203L423.714513,302.204534L426.218696,303.854566L425.761673,304.959155L427.914099,306.599357L429.146812,308.080197L428.976372,309.272378L427.447717,310.152816L425.986624,311.029149L424.839800,311.963902L427.035325,313.736251L426.316134,314.782691L421.557876,314.727481L422.227252,316.115149L427.649874,318.885467L419.752579,317.811295L420.276041,319.172087L420.934414,320.589334L420.352983,321.625696L420.592491,322.928505L417.402922,323.083662L417.430508,324.304577L417.580752,325.575877L417.547344,326.789637L417.117853,327.862294L415.391497,328.440827L415.049787,329.535532L414.958381,330.731201L418.196573,333.288057L424.292643,337.099047L419.287540,336.310329L414.521891,335.543909L413.015968,336.143693L412.483450,337.164656L411.411468,337.935645L412.764651,339.837057L412.481972,340.987665L411.949098,342.019955L413.091984,343.887781L411.894096,344.597276L413.952090,346.980596L414.084677,348.398188L412.657481,348.990866L412.292447,350.147969L411.229151,350.920038L409.599444,351.361086L408.930382,352.335736L411.664135,355.308368L413.467582,357.793304L412.506473,358.646860L410.093624,358.595324L405.506693,357.138052L403.566760,357.290778L401.927178,357.610789L403.243746,359.865117L405.795411,362.993360L405.259304,364.081240L400.589169,362.298686L397.784973,361.743870L397.178761,362.718144L397.992776,364.729980L398.917576,366.858893L399.031106,368.415133L396.739982,368.151113L394.087785,367.568228L394.304443,369.203013L394.190468,370.595718L395.108389,372.844413L394.968453,374.260003L395.366162,376.143182L392.576975,375.337106L391.972324,376.370887L390.129625,376.319591L390.341303,378.075248L389.917566,379.281609L390.169403,381.120757L387.647233,380.394364L385.494207,379.969536L384.321917,380.451494L383.382622,381.150795L383.823669,383.218861L382.571472,383.615584L380.583799,383.245219L380.296068,384.608065L381.274542,387.326589L381.389415,389.177443L379.174522,388.521759L377.301549,388.199422L376.186089,388.693985L377.453598,391.898900L379.242466,395.783571L378.243171,396.484134L374.124115,393.453875L373.524076,394.575548L371.994586,394.563211L371.605757,395.955285L368.624345,394.070953L366.979551,393.830708L369.092789,398.492638L369.170858,400.567529L367.466269,400.271097L364.514034,398.224740L363.439588,398.716372L363.549447,400.885709L362.781361,401.835685L360.711653,400.883300L358.600505,399.815614L358.586122,401.873470L361.416250,408.369275L364.670337,415.728594L360.882407,412.076418L356.689938,407.619199L353.117381,404.009486L351.908216,404.223744L350.970629,404.889225L351.076752,407.373856L352.930091,413.021346L348.644058,407.782425L347.301626,407.735450L345.872668,407.504630L344.891927,408.098624L343.879769,408.633991L343.007951,409.447208L342.397201,410.797832L341.370445,411.326618L340.165552,411.483231L341.085427,416.164987L340.009992,416.667725L339.242298,417.855096L337.201111,416.180973L336.283391,417.019866L333.976347,414.586394L332.808801,414.783122L331.745553,415.226852L330.914817,416.258496L329.609403,416.091317L328.313678,415.922753L327.312488,416.523943L326.489575,417.628693L325.970029,419.629071L324.079970,417.724288L322.890804,417.793594L322.049879,418.912762L320.854349,418.958924L320.836111,422.784511L320.018080,424.152576L319.622067,427.016404L318.144023,426.233744L315.104834,419.750373L314.499162,421.903497L314.293891,425.708370L313.540056,427.567418L312.521557,428.447850L310.473763,425.016060L309.228008,424.834570L309.041962,429.428203L307.658011,428.709581L305.310334,423.203478L304.070042,422.867077L303.558740,426.347186L302.884189,429.209110L301.749805,429.653484L300.851532,431.550553L300.173912,435.019324L299.228398,437.038554L296.590021,427.316301L294.961967,423.988091L293.933602,424.982833L293.089822,427.646217L292.293217,431.087524L291.023922,430.438585L289.738684,429.498098L288.897701,433.437774L287.291843,428.557332L286.140355,428.900452L285.042537,430.133727L284.035112,433.260286L282.841007,433.556847L281.465040,429.591210L280.182818,426.575520L279.034090,426.830497L277.911243,428.631617L276.727951,427.490845L275.561774,426.224943L274.412710,425.532220L273.262574,425.842746L272.126997,425.134720L270.974217,425.460428L269.764239,427.291812L268.569220,428.087729L267.522893,425.628482L266.374995,425.583016L265.126359,427.084452L264.002914,426.528570L262.692879,428.388341L261.553515,427.965881L260.511899,426.572191L259.230789,427.688459L258.268471,425.760728L257.180768,425.123209L255.923630,425.887178L254.929973,424.582538L253.859634,423.943992L252.509549,425.223561L251.176874,426.249141L250.324281,424.256851L249.389545,422.902019L248.057844,423.840722L246.470505,426.037523L245.514794,424.831128L244.202706,425.441482L243.244518,424.324632L242.605926,421.822387L241.055543,423.465707L239.361216,425.588442L238.158762,425.543865L236.963122,425.457265L236.055672,424.253566L234.602381,425.133271L234.245710,421.987855L233.047506,421.953101L231.749004,422.243831L230.930807,420.910322L229.465609,421.714943L227.968310,422.559945L227.518285,420.141931L226.079897,420.772374L225.754288,418.119418L223.532964,420.952464L221.686678,422.594327L219.275809,425.667361L213.644167,437.088992L212.931948,435.272971L212.447610,432.940977L211.750787,431.214547L214.147970,422.064017L213.803491,419.765762L213.660548,417.076901L213.515173,414.484640L212.130746,414.732158L211.773736,412.712885L210.310021,413.117049L208.378420,414.465812L208.498418,411.531239L207.554764,410.830963L206.710079,409.942123L204.769081,411.192954L201.757417,414.416234L201.658282,412.059303L201.137901,410.540041L201.834888,406.860856L200.454413,406.969555L200.082201,405.300989L198.050294,406.506870L197.653580,404.904869L195.492862,406.249364L193.773587,406.811605L194.741493,403.047033L193.744673,402.469589L191.488367,403.833791L191.365101,401.895959L189.126915,403.156850L187.048199,404.121571L187.900567,400.800193L187.262729,399.681639L184.210675,401.953293L185.512661,398.139663L184.004832,398.229952L183.329534,397.185998L180.889223,398.468448L181.731067,395.450053L181.347628,394.060867L177.426926,397.119678L178.705971,393.654388L179.309514,391.092363L177.898566,390.992777L177.214793,390.018358L176.691139,388.865464L175.003260,389.052699L174.000522,388.441676L173.998686,386.718764L171.740236,387.482782L169.113659,388.595036L168.833514,387.170446L165.210007,389.243345L165.601004,387.114724L164.863233,386.164283L165.531651,383.819339L164.928605,382.764559L165.529097,380.555780L164.891914,379.563639L161.953902,380.727995L160.860103,380.132763L162.437107,377.106575L162.933730,375.110895L160.118018,376.063621L159.768371,374.824716L159.250966,373.739868L159.294056,372.190392L151.700849,376.977018L149.849269,376.913233L146.432610,378.076982L144.929225,377.664731L149.731153,372.335342L152.551463,368.657054L151.801449,367.752063L151.815607,366.279779L147.266844,368.151833L146.684918,367.087431L146.291270,365.892826L146.020078,364.619952L145.164917,363.755573L142.937023,363.810330L145.325536,360.777104L142.725433,361.056014L140.142721,361.281635L143.782139,357.551465L144.268836,355.862122L145.870971,353.517751L144.362639,353.078327L144.508979,351.648088L144.704209,350.204590L143.681756,349.467205L140.852576,349.727096L142.536009,347.472961L142.012798,346.448611L142.115754,345.094379L135.910716,347.018751L136.370577,345.446969L130.701879,346.950116L134.850591,343.553707L135.766353,341.796459L136.826774,339.997856L138.188695,338.089157L126.621833,342.057477L124.246132,341.753175L121.764262,341.460899L129.285730,336.884475L133.847642,333.682160L126.436996,335.440147L127.850541,333.562867L123.241021,334.062495L124.187390,332.375466L125.923471,330.418986L127.784901,328.454410L130.756543,326.135368L128.357915,325.731841L124.848920,325.668689L126.018792,324.013248L126.292550,322.671126L127.552510,321.031817L128.601887,319.483419L129.371489,318.040807L129.523433,316.793819L129.166756,315.696521L127.999761,314.817948L124.821011,314.453764L120.391443,314.361150L119.044390,313.441738L113.560617,313.491598L110.403280,312.921902L115.543651,310.460895L122.742341,307.645063L123.960154,306.182661L123.910711,304.994953L120.750921,304.402975L118.060792,303.678825L123.253191,301.537281L123.290104,300.341595L121.502740,299.439972L122.320183,298.118918L124.085636,296.677173L125.408587,295.325568L125.884104,294.105465L125.603297,292.986033L125.743929,291.816894L124.423122,290.805300L124.705591,289.619267L123.459059,288.576270L118.285099,287.837439L114.710140,286.902034L121.387837,285.230442L123.864798,283.909859L124.353166,282.730217L124.204173,281.586773L123.053547,280.477931L120.452966,279.393394L120.170954,278.221480L119.390450,277.052216L123.022277,275.846716L117.600476,274.678125L116.051364,273.464323L121.463913,272.347035L123.047393,271.216572L124.620628,270.109473L125.050101,268.979876L124.714986,267.819602L122.382231,266.542677L121.565667,265.324732L123.623971,264.296450L122.461780,263.046049L123.056894,261.927631L124.142707,260.862801L121.944899,259.480039L121.969136,258.304064L122.738649,257.213562L114.267294,254.981971L123.938755,255.016985L124.586007,253.935777L124.095489,252.693949L126.278648,251.857885L122.645735,250.102685L124.168138,249.170534L124.764081,248.093242L126.641909,247.261770L126.875160,246.136105L126.153289,244.816974L124.904974,243.371816L125.488847,242.303644L125.489547,241.108622L126.704340,240.194430L122.461756,237.970699L122.013040,236.625617L126.906598,236.651895L125.348960,235.029926L127.738920,234.464203L127.165615,233.092573L125.283763,231.324524L122.443886,229.232459L126.776873,229.299030L127.379473,228.250714L125.765080,226.485816L125.243425,225.051963L118.491743,221.472088L117.537426,219.802624L117.084115,218.289566L116.124373,216.575049L118.984676,216.274147L118.888386,214.876533L120.663297,214.206297L126.546263,215.213572L127.593728,214.326612L126.062114,212.365469L125.891347,210.952846L127.432113,210.278993L129.172968,209.713751L133.581197,210.389894L136.790830,210.579467L139.146912,210.413667L138.720126,208.933590L137.054259,206.823631L139.047619,206.515550L140.514320,205.965229L140.649676,204.736745L136.803033,201.379200L137.092160,200.179289L142.482888,201.792176L140.819544,199.533780L143.237787,199.567182L144.570069,199.005141L142.733350,196.579585L139.418875,193.212481L145.713047,195.660136L146.600716,194.852333L145.700010,192.915065L146.342548,191.941470L147.266183,191.152608L149.748465,191.410162L148.337335,189.066904L148.896075,188.036159L150.137939,187.481899L151.878248,187.295770L152.553343,186.363176L153.791597,185.844815L153.808830,184.427044L152.807933,182.220244L153.963222,181.635657L152.638449,179.118507L153.588069,178.361152L154.025022,177.194633L151.066603,173.232252L156.751061,176.382641L152.989471,171.659865L155.663573,172.353700L155.692963,170.787583L154.434065,168.058229L156.520737,168.285794L159.148001,169.042928L161.370003,169.474628L163.285980,169.657997L164.709797,169.402194L165.967611,169.003101L165.566361,166.979720L166.325380,166.082388L166.856691,164.951183L167.078105,163.490264L167.751708,162.483967L167.305672,160.279112L166.809943,157.977587L171.474974,161.298284L173.279810,161.556843L172.594257,159.027235L172.595408,157.232800L173.519925,156.485035L174.039238,155.257474L175.301977,154.910992L179.665407,158.370792L180.453699,157.520435L181.528026,157.026963L182.675196,156.633825L182.421267,154.425794L183.512278,153.949154L184.468818,153.298827L185.056628,152.146117L186.121873,151.640881L187.428424,151.481606L187.996168,150.279909L189.229191,150.029755L190.173793,149.365806L189.937520,146.923241L189.500373,144.112856L192.450573,146.502223L193.881686,146.589690L194.162367,144.849129L195.744701,145.201434L196.329997,143.925853L197.594708,143.778295L198.886578,143.693247L200.107654,143.501574L200.910843,142.576645L201.745661,141.696145L201.745423,139.256400L202.498938,138.169352L201.092787,132.910190L200.444264,128.957057L203.834334,132.936162L206.278137,135.165109L208.737484,137.534290L209.651569,136.748440L211.251761,137.431617L211.982777,136.248657L212.897560,135.449614L213.922613,134.889876L214.795972,133.970779L215.799223,133.342642L216.989529,133.164105L217.982726,132.504658L219.684689,133.646235L220.457329,132.430407L220.345584,128.811661L218.419568,120.072879L220.688019,122.694312L222.251315,123.439381L223.347927,122.867600L226.868523,129.608814L228.166604,129.833420L229.762936,131.038287L230.571289,129.751840L231.687716,129.447614L232.696413,128.772476L234.010639,129.163653L234.860436,127.895142L235.885051,127.227545L237.576695,129.136321L238.600534,128.500688L239.526574,127.434109L240.590260,126.904713L241.451528,125.453881L242.850172,126.398495L244.351545,127.927091L245.493025,127.800018L246.553519,127.260372L247.299518,124.989971L247.893598,121.676765L248.499574,118.145108L250.179987,120.958011L251.900752,124.340094L253.254418,125.580910L254.318125,124.875800L255.027578,121.380540L256.423853,123.078794L257.718580,124.138868L258.873269,124.060378L259.874757,122.443556L260.644191,118.036951L261.834300,117.863422L263.195806,119.926796L264.707370,124.663804L265.849086,124.531176L266.864598,122.007082L267.899085,119.073756L269.222463,122.601445L270.311243,120.181990L271.485863,119.946436L272.685525,121.163756L273.862958,121.921725L275.028678,122.861477L276.206725,120.388232Z" />
<line x1="50" y1="575" x2="100" y2="575" fill="none" stroke="blue" stroke-width="1.0" stroke-linejoin="round" stroke-miterlimit="10" />
<text x="125" y="578" style="text-anchor:start;fill:black">n1_4mer:GRV/n1_4mer:RV</text>
<path style="stroke:green;stroke-width:1.0" d="M276.390681,183.698253L277.082214,183.877513L277.829264,182.153154L278.622095,179.925846L279.305918,180.834654L280.575826,170.509711L281.427321,169.639785L282.223627,169.778395L282.868870,171.879899L283.465476,174.188101L283.672949,180.366697L284.311736,181.257993L285.057150,181.035165L286.375689,175.857584L287.455712,173.291051L288.327439,172.640348L288.861126,174.524473L289.272202,177.060529L289.318477,181.726980L289.857139,182.900648L292.043595,174.234158L292.081761,178.484678L292.541239,180.105806L293.534170,178.837593L294.707798,176.779790L297.828110,165.556882L298.004397,168.766015L299.093947,167.692253L297.405788,178.649806L296.306199,186.441067L297.429970,184.796562L300.624315,175.202251L300.263547,179.628733L301.060757,179.561767L302.201761,178.287938L303.500095,176.554749L303.212857,180.254423L303.375794,182.294541L303.476494,184.435950L305.473305,180.604065L306.529591,179.817815L308.014805,177.820074L307.902500,180.519401L308.106177,182.215929L306.307912,189.323077L305.117516,194.488184L308.293352,188.022835L309.490091,186.911826L310.478407,186.381697L309.701469,190.199896L310.772908,189.446410L311.373056,189.839352L312.990773,187.894414L314.931845,185.314212L315.462296,185.954239L315.691640,187.230579L316.160463,187.962700L316.286059,189.390346L316.134209,191.339765L316.225671,192.741948L316.184892,194.362444L318.076642,192.221029L317.270493,195.259221L318.848404,193.783456L318.685652,195.538603L321.757891,191.463805L323.511949,189.858083L323.079783,192.091023L321.755225,195.771759L321.922081,196.854945L323.763248,195.172591L327.100739,191.151252L331.972023,184.850533L335.493288,180.873795L337.922067,178.714969L336.976379,181.721262L335.373899,185.617538L333.104822,190.373650L333.332958,191.412883L333.662197,192.290566L334.557447,192.369271L332.745351,196.156347L331.965206,198.451438L330.311341,201.843867L330.984156,202.114598L332.881949,200.820267L334.125102,200.405507L336.471368,198.647236L334.898470,201.750078L337.482550,199.766621L335.306438,203.501812L339.615633,199.566200L338.674800,201.800375L339.125509,202.406257L339.187628,203.441796L336.747098,207.208471L337.956089,206.929825L340.309677,205.455177L338.727770,208.167072L336.000605,211.994973L342.537664,206.297956L343.808169,206.063710L341.252440,209.627628L340.801079,211.054718L339.085825,213.663681L337.878561,215.730109L340.831400,213.886879L345.899374,210.180438L342.192179,214.502747L340.544304,216.884168L344.339713,214.455892L350.848621,209.784018L349.563004,211.870727L347.015160,214.963512L348.024595,215.058759L350.222629,214.207517L353.303106,212.697849L354.185362,212.974854L356.625101,212.060998L349.387912,218.539552L353.815981,216.119317L350.902153,219.191778L347.019824,222.886686L347.820460,223.147742L351.668995,221.282632L348.020734,224.663514L351.716151,222.973549L354.932727,221.676391L358.353214,220.307301L355.206079,223.241853L352.092581,226.078649L355.943520,224.495516L354.028789,226.522493L348.959369,230.403810L358.871741,225.293900L353.015382,229.563919L356.602160,228.303628L357.208764,228.784063L356.177327,230.174123L355.706848,231.232685L356.144448,231.791865L358.708806,231.241408L358.854962,231.974977L358.566695,232.923786L355.521217,235.223016L355.115367,236.179749L355.149629,236.914154L355.957382,237.283425L357.900506,237.143885L358.234649,237.754783L361.723665,236.983627L360.346008,238.359897L363.959259,237.608492L365.466574,237.783104L363.461119,239.393442L367.132698,238.728504L359.396668,242.514285L359.419090,243.241726L362.938869,242.679972L364.617605,242.835584L359.844796,245.276042L361.075828,245.578858L369.758155,243.415133L372.311186,243.385571L372.120949,244.263139L364.907705,247.297532L366.529628,247.559303L363.623506,249.164543L364.231669,249.722995L364.614462,250.350278L362.834114,251.558075L362.122219,252.457448L362.375581,253.100533L358.916029,254.645611L363.823408,254.170286L371.584312,253.124991L378.547292,252.375653L370.949760,254.800063L360.762024,257.625901L362.392236,257.987504L372.666172,256.758402L371.553967,257.726097L367.311559,259.209675L364.095374,260.457347L363.386809,261.263267L367.528741,261.340445L372.040695,261.428724L378.951085,261.268651L382.445918,261.638792L369.843739,263.938750L363.235438,265.390019L363.831768,266.009104L363.262604,266.745313L366.647057,267.132406L365.176666,267.950062L374.086379,268.012346L370.712759,268.982472L362.367281,270.174889L363.687035,270.779250L372.009402,271.123439L381.221431,271.565386L385.964561,272.257841L376.868924,273.258811L367.093232,274.127430L369.588159,274.824221L368.662096,275.539299L366.221147,276.220071L366.103555,276.912570L363.188966,277.523466L368.055312,278.372190L372.310274,279.268712L366.293251,279.701657L367.799508,280.488177L365.804341,281.064513L365.243647,281.717811L367.796599,282.618947L369.965001,283.525600L374.990964,284.745043L371.704618,285.168843L372.831984,286.041356L369.672486,286.415647L366.939897,286.797232L363.735937,287.073761L366.484301,288.158128L364.862699,288.624245L371.919845,290.450209L368.977722,290.716048L374.149210,292.358150L365.764805,291.603721L369.194713,292.973621L372.901255,294.454804L370.122330,294.656817L372.516071,295.927133L376.432070,297.576959L378.298285,298.819482L373.143203,298.419399L373.042606,299.186079L372.211867,299.768082L364.063125,298.415684L359.875217,298.007147L367.585675,300.855769L377.361015,304.427872L366.334209,302.012547L362.262114,301.532591L360.303099,301.648351L359.648441,302.153158L366.465631,305.110145L360.576693,303.895761L361.313533,304.878797L360.599713,305.363710L357.822554,305.090704L361.213267,307.067970L357.985990,306.589092L358.935239,307.684469L360.980573,309.237325L367.663225,312.718496L374.513488,316.393150L368.641070,314.789747L363.228489,313.285731L363.652088,314.274557L357.431937,312.272508L358.828341,313.675566L360.423196,315.203264L357.811004,314.747064L357.224512,315.238915L359.215584,317.011307L361.927815,319.194303L365.905072,322.091060L367.553199,323.842455L367.520935,324.729982L365.351733,324.454645L361.500946,323.206680L355.747669,320.809845L356.684189,322.167094L364.646186,327.679065L367.510818,330.314581L366.271067,330.521300L366.079849,331.359799L363.089414,330.441546L354.285318,325.747569L352.675522,325.555258L354.607890,327.680408L357.752322,330.672097L360.640637,333.567595L353.755422,329.743932L351.283238,328.891800L350.931895,329.515243L356.304546,334.316129L355.868620,334.947120L353.781736,334.335167L348.127088,330.954252L344.355444,328.910740L345.263938,330.480537L346.638260,332.456867L345.636765,332.543132L345.478526,333.312819L349.305909,337.438945L347.585107,336.942227L349.241809,339.339647L345.409226,336.963495L344.541275,337.145857L342.950762,336.661720L345.634969,340.085311L346.865230,342.238138L346.455029,342.882303L345.357363,342.866437L341.718750,340.344870L342.819490,342.442570L337.823494,338.433272L336.360850,337.907555L339.169214,341.797018L341.247296,345.019900L340.580875,345.381593L338.213292,343.885212L340.586833,347.573599L339.610662,347.597368L343.128092,352.733718L343.231940,354.058926L340.303511,351.841310L333.576327,344.999041L332.897506,345.268368L333.520992,347.137611L332.357493,346.814478L332.525058,348.160068L330.593957,346.823240L331.559563,349.231933L335.451228,355.605736L333.176956,353.816753L329.882121,350.550557L330.762511,353.005063L330.459937,353.844236L331.685648,356.905349L328.713029,353.887446L324.974882,349.612534L326.876056,353.741483L329.427192,358.999423L328.779778,359.401963L328.508112,360.403992L323.170852,353.202774L322.223928,352.989490L318.893441,348.751221L316.922322,346.675831L321.287360,355.540195L323.936668,361.671331L317.351498,351.361009L319.070523,355.907179L317.002294,353.528136L315.573039,352.265228L316.318313,355.161870L315.309661,354.689527L315.121031,355.839396L314.368714,355.864361L314.083437,356.856651L316.408017,363.451607L316.376967,365.167381L314.410444,362.636695L315.251350,366.360503L313.942779,365.247100L309.924338,357.659620L310.437578,360.688948L308.829705,358.598322L308.861564,360.545010L306.605617,356.657699L306.629150,358.604566L306.458638,360.106839L305.999208,360.869355L306.494664,364.367107L305.146682,362.666391L304.007688,361.490760L304.505691,365.249869L302.288289,360.671105L304.361911,369.668495L303.630236,369.856855L302.800663,369.710017L302.412962,371.091292L300.062935,365.459650L299.628052,366.595538L300.354225,372.243970L299.464045,371.845114L298.770572,372.211935L297.319927,369.389409L296.299492,368.239440L297.394868,376.592240L296.298884,375.246231L292.926524,362.652392L291.973036,361.334692L292.135201,365.808084L292.244938,370.370408L291.242128,368.903550L291.490039,374.859640L291.084454,377.241697L290.516828,378.775919L288.252451,368.495246L286.639339,361.871341L286.347497,364.889378L285.647900,364.849513L285.026457,365.498189L284.616350,368.282517L284.085186,370.235367L283.515589,372.080156L282.616959,370.155785L281.793651,368.852115L281.028682,368.129045L280.635232,373.707510L279.910142,374.290384L279.206146,375.576832L278.207088,368.793770L277.464982,367.774170L276.818895,370.986406L276.061282,368.657636L275.352807,369.972633L274.639794,367.326888L273.980315,363.528672L273.257284,366.069214L272.516496,367.818982L271.884989,365.605874L271.079220,368.336013L270.476627,366.124654L269.825257,365.345265L269.001865,367.389734L268.025743,371.098118L267.185080,372.400327L266.588910,370.683725L265.937624,369.809123L265.209992,369.793666L265.145243,363.797047L264.127139,366.601526L263.279265,367.706769L262.494740,368.202097L261.804356,367.969630L260.833466,369.624477L259.968159,370.434707L260.077127,365.264486L259.517594,364.411884L258.378594,366.824202L257.020544,370.184736L256.240012,370.330184L255.136046,372.033288L255.290220,367.681812L255.218363,364.657978L254.441033,364.920472L252.862376,368.540516L252.131761,368.446186L251.837918,366.619073L251.508619,365.030374L250.042024,367.753550L251.052615,361.370656L249.701334,363.617317L249.704708,361.115373L248.747305,361.921018L247.881340,362.378189L246.338705,364.923605L245.914006,363.909958L243.563824,368.673679L243.999472,365.094697L242.076637,368.365508L241.116477,368.804243L241.954439,364.348763L242.298376,361.390699L241.233833,362.191457L238.878054,366.205715L236.411109,370.307842L236.974969,366.896914L237.938222,362.672919L237.892397,360.950119L237.392620,360.316202L236.911177,359.655585L236.780900,358.244875L234.311858,361.871663L231.715508,365.611883L233.973414,359.229734L233.826576,357.920991L231.592589,360.773833L232.149705,358.095998L231.370633,358.047892L231.485500,356.318891L229.516556,358.464021L230.912961,354.455283L229.742943,355.119480L228.786029,355.377776L229.822057,352.209000L231.262712,348.457656L228.115462,352.396394L227.669920,351.805728L227.298799,351.104048L226.840258,350.550771L224.213349,353.348806L228.062803,346.215973L224.628833,350.173847L225.931762,347.036819L225.983950,345.795278L224.069146,347.376793L221.064900,350.418982L222.890530,346.705592L219.929114,349.579594L220.481610,347.666631L219.353195,348.005715L218.791856,347.588737L218.242973,347.155576L215.221375,349.817223L214.964846,348.975868L215.044122,347.738888L214.327131,347.476937L214.390496,346.291004L214.007145,345.644494L215.409135,342.967206L212.601878,345.084991L212.593844,344.028197L212.457879,343.128297L209.565546,345.198187L211.730957,341.847053L210.664028,341.945598L210.954683,340.635182L213.065165,337.512653L213.158310,336.475046L210.974004,337.684162L212.843123,334.933895L211.447015,335.352801L207.303797,338.313852L204.111373,340.294585L206.084494,337.513729L208.320892,334.565695L202.249893,338.999498L205.079326,335.572010L205.039248,334.680112L206.826446,332.264252L198.752080,338.062361L198.036947,337.672855L199.308026,335.684908L199.674585,334.454274L200.183601,333.133206L205.432865,328.209724L205.668849,327.197101L202.610883,328.640420L205.003812,326.046051L202.096600,327.320325L202.825506,325.968910L201.624264,325.984136L201.658715,325.136278L200.267403,325.256527L201.895118,323.357439L200.472304,323.486694L199.669638,323.196337L200.918010,321.606284L196.662103,323.454924L196.711336,322.603935L191.653554,324.813859L196.922800,320.861149L197.491034,319.736902L193.393476,321.276965L188.793395,323.021565L189.572458,321.738641L190.665221,320.309644L194.565470,317.427968L195.974061,315.918676L194.160707,316.079903L196.032102,314.375076L194.897098,314.182119L191.562263,315.028725L190.460666,314.768019L190.828566,313.814810L186.992955,314.773577L180.584328,316.806860L178.391967,316.900518L180.003646,315.344707L188.951817,310.773353L193.967717,307.966506L187.939999,309.648332L187.611811,309.010274L185.355215,309.104650L182.052163,309.553225L185.537911,307.484054L184.389559,307.122069L187.614432,305.231640L183.367232,305.921604L180.309295,306.152245L183.266272,304.407068L179.690858,304.754681L177.953933,304.487681L175.498993,304.407728L178.353981,302.765339L184.968738,300.124307L183.027764,299.912515L186.560360,298.234120L187.494196,297.277739L186.781054,296.745223L180.285063,297.582651L175.798049,297.855417L174.260028,297.403182L182.664906,294.797263L182.830985,294.028589L180.789643,293.703081L176.920266,293.695969L174.489986,293.367042L180.372060,291.548409L189.789789,289.233499L189.881400,288.552660L186.802802,288.354901L185.788368,287.814261L181.946069,287.643600L181.530525,286.975771L179.058860,286.550459L180.237572,285.677018L177.524008,285.231566L185.029419,283.751516L178.612462,283.635180L173.016212,283.354092L167.008718,283.018698L176.075393,281.588297L183.201660,280.411779L185.108021,279.612672L183.175125,279.010917L179.775318,278.433013L176.062281,277.812557L182.137704,276.932157L175.076135,276.317820L181.511414,275.520855L175.728133,274.796993L175.577825,274.039436L182.542792,273.402423L185.643960,272.775148L188.854762,272.198448L187.072222,271.469914L181.096247,270.513416L174.319884,269.420805L174.252296,268.647047L179.066044,268.216668L178.273896,267.419873L178.108815,266.664002L182.665579,266.347120L183.150955,265.686403L177.600436,264.373537L180.968042,264.015639L170.219444,261.950383L178.456067,262.228764L180.312854,261.739856L178.837276,260.785643L181.711732,260.483673L176.725788,258.940299L179.484728,258.643320L179.158836,257.835163L178.427941,256.944106L178.275602,256.152096L175.104049,254.743173L174.275174,253.775157L176.865819,253.539192L179.682284,253.393158L185.555844,254.007107L177.788851,251.401584L176.649862,250.330408L185.865163,251.918944L184.162017,250.738218L186.125183,250.535888L184.988732,249.484010L182.682076,248.068857L178.692849,246.107408L183.193162,246.693611L185.030538,246.507972L180.878405,244.402387L177.827466,242.590222L172.681205,240.005607L170.069292,238.217293L171.272465,237.749577L174.265459,237.955862L176.302500,237.849195L172.559139,235.546819L173.944154,235.193791L177.341577,235.670251L178.348949,235.217794L176.337692,233.508425L177.377863,233.068027L181.892619,234.164534L186.904920,235.560143L191.505807,236.853951L190.878552,235.790239L192.059033,235.568781L193.363614,235.423922L192.689566,234.320045L192.014171,233.196842L192.509554,232.655648L190.667266,230.895213L184.843274,226.971375L184.043961,225.652585L195.069882,230.843363L196.977637,231.118402L196.842450,230.255425L197.847486,230.047171L190.955734,225.170461L187.352988,222.128100L194.458729,225.574027L194.258004,224.600322L197.068988,225.526198L200.555455,226.940176L198.194447,224.583082L202.765312,226.792320L196.525811,221.759923L195.818158,220.394585L197.012075,220.336838L204.092024,224.489596L201.354279,221.689252L200.035551,219.859686L199.726074,218.743574L198.347175,216.797937L196.103107,214.141171L196.640203,213.597915L201.329886,216.361653L197.822292,212.603675L196.660505,210.671625L199.613519,212.129114L197.436314,209.305327L203.489869,213.491117L204.705138,213.598781L205.479755,213.335666L205.527959,212.426571L205.998187,211.891636L207.772341,212.567333L210.122496,213.823021L210.500348,213.244545L209.227091,211.058226L207.991554,208.856982L209.646196,209.500068L204.324559,203.079244L203.380880,200.999917L204.936083,201.494736L203.601912,198.943515L204.741781,199.006082L210.119879,203.742051L209.132552,201.541513L207.927754,199.041821L207.116409,196.932598L209.716024,198.757170L213.492916,202.050733L215.634185,203.492245L217.599354,204.777936L217.631821,203.716527L217.215422,202.068812L216.602655,200.130950L213.701539,195.165107L217.117198,198.413088L217.215606,197.320372L216.850216,195.573060L222.167156,201.670224L222.146538,200.450985L222.737440,200.081562L224.373127,201.235362L225.783287,202.106229L223.042836,196.769208L220.961017,192.274397L224.960558,197.107793L226.024902,197.472409L226.549078,196.992649L227.927405,197.907926L228.465415,197.467513L229.941257,198.613943L229.136950,195.879550L230.026649,196.034321L231.412552,197.093915L230.269486,193.602093L228.006741,187.919651L229.613161,189.341799L229.824494,188.148139L228.129421,183.187919L229.543384,184.257629L232.146833,187.802597L235.889865,193.863594L235.573483,191.589007L235.318096,189.366648L235.347160,187.692363L234.656768,184.344728L236.610731,186.935898L235.885225,183.372805L235.911852,181.468732L237.959782,184.436478L239.730217,186.855137L241.101252,188.374515L241.168619,186.567840L242.607041,188.356081L241.367232,182.907598L244.542833,189.589751L244.617350,187.702786L244.977327,186.573320L246.538891,189.027271L246.186336,185.688069L248.005588,189.093411L246.595139,182.137665L247.503433,182.596862L248.818421,184.500169L250.213078,186.810430L251.215308,187.833040L252.260380,189.091939L253.041011,189.411116L254.047521,190.671188L254.065830,187.915955L255.275497,190.108166L255.440973,187.813421L255.771970,186.125053L256.560285,186.513239L257.423906,187.319009L257.979459,186.602126L258.808776,187.317553L258.532857,181.856112L259.379795,182.544671L260.584509,185.532243L261.777672,188.760189L261.753807,183.982244L262.493238,184.216758L262.478970,178.693513L264.193098,186.617971L264.683132,184.937125L265.222211,183.483879L265.645432,180.647824L266.235053,179.166123L267.043340,180.034875L267.847048,181.030751L268.840838,185.038058L269.481961,184.266685L269.783965,176.908182L270.560901,177.523557L271.418236,180.521063L272.097003,179.145988L272.826355,179.092700L273.597059,181.750741L274.317111,183.063685L275.016559,187.156131L275.748360,179.116282Z" />
<line x1="50" y1="625" x2="100" y2="625" fill="none" stroke="green" stroke-width="1.0" stroke-linejoin="round" stroke-miterlimit="10" />
<text x="125" y="628" style="text-anchor:start;fill:black">n0_4mer:PS</text>
<path style="stroke:red;stroke-width:1.0" d="M276.865301,152.538213L277.821105,151.541913L278.796275,150.419112L279.671089,152.391435L280.669731,151.009668L282.128297,141.416601L283.480203,135.987800L284.731137,133.253224L285.462237,137.894297L286.236397,141.190332L286.818922,146.039986L287.531660,148.842758L288.869944,145.411890L289.784071,146.152552L291.133437,143.260054L292.996601,136.779465L295.002384,130.008161L295.457968,134.612233L296.684917,133.740727L295.976715,144.965417L296.469680,148.066079L297.477457,147.997927L298.240623,149.273409L298.516794,152.985825L300.189672,149.459095L301.996151,145.574347L303.329007,144.177042L304.499513,143.617361L303.736581,151.425896L302.812885,159.396115L304.280539,157.246598L306.726305,151.437130L307.261931,153.209455L308.314487,152.997567L309.561541,152.121270L310.387788,152.763227L311.359326,152.896616L311.317415,156.348778L313.274418,153.275526L315.751280,148.766393L318.601416,143.375139L320.483955,141.116812L320.649175,143.916909L320.635339,147.101434L318.680958,155.463121L318.268649,159.331846L320.106958,157.160399L321.549349,156.112312L321.452478,158.970560L322.405476,159.155068L322.548780,161.283530L324.590395,158.893446L326.845892,156.127273L330.599808,150.124412L332.779180,147.844806L333.110882,149.658322L331.673839,155.158347L330.419878,160.082843L328.335540,166.524260L329.990744,165.276340L332.720657,161.986404L332.906965,163.722084L332.475018,166.576786L335.143562,163.601365L334.768581,166.284787L335.572060,166.783840L338.100064,164.254905L337.859656,166.604549L338.970772,166.599460L339.176330,168.119344L341.592999,165.984568L343.205890,165.232297L346.219906,162.305449L348.771759,160.212791L350.061609,160.138716L349.137327,163.418194L347.916303,167.048738L346.994158,170.144627L346.979983,171.857634L348.542476,171.310454L349.807255,171.211500L353.154799,168.289940L353.157846,169.973246L355.804742,168.125671L356.083715,169.437649L356.035427,171.147478L357.533754,170.872255L356.500208,173.769683L353.988244,178.405167L353.797968,180.121712L354.909173,180.261175L356.364112,180.013634L355.191340,182.813201L356.836658,182.356223L356.811976,183.793669L356.314838,185.725241L357.590088,185.700906L359.209593,185.329656L359.001039,186.905981L358.100300,189.169102L362.098565,186.399817L363.380324,186.455112L363.716021,187.462443L362.030666,190.423873L363.080790,190.698185L363.648176,191.439440L361.987790,194.246812L364.506249,193.169152L364.013510,194.855661L363.810025,196.255270L365.228320,196.216964L370.749825,192.672613L374.675233,190.609288L379.546380,187.843385L381.950918,187.210801L377.035186,192.538481L379.786011,191.626629L386.604192,187.581491L384.801567,190.334855L379.286032,195.846871L375.692076,199.776445L373.411255,202.641616L369.562635,206.574781L371.614831,206.204814L377.554734,203.146046L376.188782,205.246008L375.221468,207.032991L378.083321,206.232489L379.193816,206.632618L379.206984,207.753721L378.588968,209.264592L381.277558,208.688413L378.162041,211.718776L378.356456,212.677887L382.423801,211.335908L380.009057,213.842830L380.380720,214.696483L380.608276,215.629378L380.348056,216.827118L378.630671,218.801099L381.165314,218.468650L384.480668,217.769225L384.581429,218.775020L384.813821,219.708237L381.677719,222.301865L381.373015,223.456492L382.715499,223.815285L382.764020,224.794699L385.730996,224.435226L384.122833,226.170533L386.771311,226.003687L386.139536,227.286415L387.907701,227.542442L389.419559,227.929125L388.363301,229.370044L389.580838,229.890951L387.783020,231.587895L386.893665,232.905852L390.384543,232.592908L390.237801,233.640308L388.882475,235.103175L393.116024,234.627361L395.853421,234.717037L397.370895,235.244180L398.431544,235.936355L403.416251,235.432234L402.909798,236.652482L405.397568,236.986600L396.417645,240.605547L391.679283,242.905717L392.027348,243.766733L390.636477,245.079489L390.996711,245.927047L391.962574,246.629953L397.249127,246.331720L403.234651,245.956627L407.444388,246.061843L406.685491,247.276755L398.339883,250.013190L395.865864,251.471251L398.683248,251.899063L396.979165,253.177424L395.820254,254.333129L395.646213,255.307440L394.410225,256.441728L397.616118,256.898796L401.757065,257.272848L402.362299,258.176162L405.951886,258.715758L397.537357,260.708953L391.662027,262.293996L395.548491,262.798971L394.523530,263.821661L394.372876,264.752238L394.871717,265.628527L400.231267,266.168587L398.881132,267.211506L394.117422,268.421396L393.762294,269.347922L398.118070,270.080119L405.936038,270.766253L410.877207,271.642199L405.559849,272.768413L397.359741,273.840660L399.026410,274.769515L395.317103,275.692776L394.183355,276.594062L393.579114,277.489375L395.887539,278.459113L399.522003,279.512498L400.555611,280.507751L397.447792,281.306134L397.867574,282.266407L396.657004,283.125057L397.969360,284.153940L396.071769,284.940444L397.269890,285.976930L403.559090,287.529270L400.746716,288.222726L407.078018,289.906377L405.814729,290.773693L408.633858,292.147176L402.798257,292.388735L402.477474,293.335003L403.083400,294.418954L400.629085,295.026813L398.679039,295.683048L397.909263,296.517846L392.105010,296.422168L394.795800,297.858654L398.031664,299.448685L400.867569,301.010252L408.457276,303.640184L416.929894,306.591048L417.628119,307.888522L412.735241,307.867041L407.596543,307.710172L398.926600,306.574583L393.495708,306.153836L391.527695,306.587192L391.586933,307.558437L400.109117,310.967747L394.750167,310.416707L389.546596,309.828608L390.491021,311.078939L387.981447,311.241696L391.843922,313.464583L387.338989,312.932297L388.253244,314.204405L389.868793,315.745962L392.053575,317.527359L386.306278,316.401591L385.061555,316.895561L387.156578,318.673888L387.692652,319.874032L393.124845,323.082630L396.129970,325.384637L391.327180,324.429477L387.412543,323.780121L385.966471,324.160252L384.404334,324.468374L385.019533,325.759298L385.384004,326.950728L384.359742,327.489748L383.522208,328.108444L385.957518,330.351636L386.260234,331.564961L387.689618,333.375990L391.541510,336.501639L388.512636,336.013017L389.190095,337.502737L386.169804,336.954550L383.301534,336.441730L383.325174,337.550461L384.207663,339.174036L386.207371,341.493727L385.837170,342.423599L388.111313,344.992769L384.604915,343.982931L378.169822,341.035147L379.344597,342.912875L377.278413,342.682595L380.426226,345.926096L381.369842,347.743805L376.016526,345.217919L373.664809,344.703703L374.281775,346.279271L374.762664,347.782339L373.582603,348.078324L373.093016,348.879629L370.958046,348.423691L368.016552,347.302776L368.574946,348.886953L367.682079,349.334886L368.912042,351.503971L368.263774,352.164973L371.873037,356.402008L370.997504,356.921751L369.621884,357.001485L367.813047,356.679933L368.435767,358.499272L368.522366,359.866597L366.197077,359.031892L366.197210,360.325416L365.743353,361.206218L363.233885,360.110061L361.300389,359.523282L362.030604,361.546915L358.050341,358.856445L357.197608,359.269539L359.473265,362.932544L362.619192,367.608867L361.653018,367.996281L360.611153,368.292759L361.101986,370.274169L357.688118,367.909428L358.764761,370.575056L357.771614,370.905742L357.053882,371.551129L354.277255,369.736766L353.175319,369.878907L353.662389,371.965492L351.757450,371.104203L349.484719,369.729277L349.025133,370.634942L348.531326,371.506624L349.707347,374.614862L348.825332,375.016799L346.886293,373.958446L347.550975,376.490109L347.393021,377.917038L347.768203,380.143104L345.564380,378.636749L340.263770,372.438855L341.145761,375.401143L343.831212,381.229660L344.367158,383.864792L343.765049,384.755501L340.025748,380.565786L338.546526,379.945974L337.065649,379.284770L334.677373,377.032165L335.615236,380.470756L336.899610,384.629893L332.257190,378.236416L334.065344,383.435528L331.159215,379.996132L330.081482,379.894367L329.024598,379.813397L328.837840,381.433840L328.709836,383.219320L329.177786,386.282579L328.012193,386.029144L328.885267,390.104241L327.909802,390.299371L326.709753,389.986573L326.840787,392.665628L326.035511,393.271137L323.703922,390.273412L322.325537,389.434329L318.883201,383.442032L318.976446,386.098397L316.950692,383.385700L316.901636,385.757579L317.138176,388.998799L316.205382,389.140964L315.588699,390.171719L315.483793,392.726652L313.661033,390.273652L314.379702,395.451779L312.475719,392.654363L311.697715,393.320548L311.433901,395.711728L309.960177,394.100720L309.805309,397.003856L307.315506,391.636354L307.293572,395.104795L306.913247,397.400539L305.877306,397.233107L305.765173,400.816995L303.511519,395.573218L303.029893,397.702056L303.040764,402.204325L301.636211,400.367122L299.424971,394.426785L298.148099,392.744640L297.734921,395.483827L297.877760,401.521841L296.252782,397.872550L295.847270,401.245969L295.222166,403.543289L294.188267,403.330359L292.349672,397.400896L290.899826,393.669904L290.685508,399.253005L289.893769,400.677163L288.852712,400.033732L287.831889,399.474557L286.769460,398.373238L286.046489,400.933142L285.225192,402.739445L284.141745,401.290288L283.121642,400.460391L282.301778,402.898974L281.347337,403.352617L280.260480,400.787927L279.158679,396.623769L278.279323,398.423440L277.385495,400.886935L276.392174,397.858677L275.463203,399.690320L274.529200,395.673776L273.622768,394.570827L272.653697,397.610940L271.693125,398.591819L270.757336,398.405747L269.951659,395.178135L268.934490,397.191463L268.099043,395.483051L267.138196,396.095975L266.114870,397.427983L265.017655,399.413775L264.178101,398.108852L263.044443,400.077120L261.990977,400.962401L261.168968,399.625574L260.319835,398.677243L259.686147,396.127036L258.834615,395.481123L257.858501,395.770066L257.012562,395.145970L255.589203,398.235981L255.289197,394.225398L253.821763,397.305674L252.951104,396.808129L251.681044,398.452492L250.731359,398.322789L249.481834,399.653507L248.682343,398.754203L248.495415,395.128961L247.741077,394.224630L246.474038,395.533859L244.972098,397.702620L244.314204,396.379598L244.359084,392.430862L242.833972,394.541474L243.142449,389.900127L241.464943,392.468120L240.819342,391.364741L239.797561,391.553059L239.413721,389.661439L238.127233,390.686754L236.877462,391.532833L234.638987,395.267954L234.111107,393.832571L231.613695,398.036775L230.319427,398.695144L228.612252,400.423438L223.757913,410.370637L222.781027,409.840543L224.075975,403.580062L225.327481,397.682475L226.251174,392.813624L225.752517,391.499284L225.816336,388.921176L223.598116,391.610449L223.395561,389.695167L224.673671,384.615585L222.935322,386.161261L220.303678,389.501441L219.971824,387.975733L220.735909,384.284868L219.131280,385.397606L219.155076,383.295395L216.870595,385.648511L217.448758,382.550427L217.116671,381.218330L217.155050,379.250296L215.350663,380.598423L213.821727,381.404480L213.919881,379.385783L214.304642,376.939074L210.983860,380.677023L211.685521,377.744696L210.750042,377.506473L210.099674,376.812621L207.781944,378.697613L210.009631,373.607344L207.459550,375.797256L207.350175,374.316348L208.848895,370.543927L206.600075,372.201733L204.105231,374.134170L204.894413,371.469270L203.074402,372.405040L203.065808,370.879855L201.104351,371.947250L199.347385,372.699859L200.883238,369.225119L197.737015,371.700150L197.979902,369.904873L197.392807,369.153585L195.993197,369.377786L196.715301,367.081183L194.865773,367.814837L194.695395,366.592556L192.612408,367.536978L192.214956,366.569529L192.540986,364.824138L190.889410,365.233975L188.982427,365.882065L186.301375,367.296459L189.436073,362.687971L189.131762,361.669341L188.875192,360.614196L188.508891,359.678459L190.317172,356.654226L188.163304,357.464071L186.239214,358.014807L184.533312,358.327680L187.437497,354.428548L186.256893,354.275878L182.565630,356.316077L184.006624,353.827211L179.883081,356.139614L180.522164,354.359258L177.710375,355.465322L176.417800,355.277843L176.814400,353.718837L176.528869,352.723164L179.861696,348.923562L181.287842,346.677497L180.199769,346.371919L177.392025,347.327624L177.715349,345.946681L176.761061,345.502792L176.779317,344.362470L173.376754,345.611536L174.117212,343.963715L173.265960,343.414585L174.250213,341.644000L171.092277,342.600936L171.704918,341.088153L171.860827,339.886669L172.073627,338.663818L170.799774,338.359630L170.310232,337.570170L171.857367,335.584135L172.807559,333.983798L170.490147,334.264855L168.554766,334.295534L167.436307,333.849648L165.137401,334.024703L167.465027,331.723031L167.952404,330.427952L163.100385,331.863749L164.913810,329.891319L165.588144,328.518515L164.553005,327.986245L164.421680,327.016978L163.578754,326.380786L161.692639,326.207707L158.774043,326.464363L154.700619,327.175851L156.501261,325.326109L161.450380,322.206699L160.872754,321.430588L158.908395,321.202394L157.364724,320.782022L158.060111,319.488857L156.921447,318.895533L158.486432,317.306557L159.612627,315.905673L160.191392,314.718830L155.893251,315.192737L154.627072,314.601425L155.056159,313.450380L149.541657,314.166998L149.860535,313.023927L141.977227,314.315155L145.239441,312.278782L154.044209,308.754169L153.323626,307.958474L159.114571,305.444447L159.292809,304.457413L156.043695,304.321722L150.561608,304.669542L147.459172,304.384491L148.263352,303.184484L154.709858,300.791013L154.168667,299.946016L152.752840,299.269079L151.523629,298.537078L149.289269,297.972182L152.408293,296.438676L157.676360,294.597721L156.396389,293.884174L156.792033,292.899159L155.303137,292.193126L154.494052,291.373612L153.210625,290.604257L155.005239,289.446301L155.761819,288.434736L149.679840,288.154229L155.582621,286.615832L150.817827,286.125249L149.458501,285.283842L146.075972,284.573021L150.619333,283.283649L156.309359,281.997158L155.432817,281.135411L155.581745,280.216198L149.131430,279.537778L148.605218,278.593094L150.458193,277.591302L149.258795,276.658305L152.951451,275.679971L151.848050,274.748160L148.694129,273.779700L151.382401,272.863999L153.302065,271.969875L154.726999,271.088570L156.723219,270.251475L151.120520,269.081220L148.736216,268.003084L147.297971,266.947361L149.281930,266.110682L151.439652,265.316956L142.886312,263.633647L148.124872,263.110227L142.575995,261.572056L148.981331,261.251142L149.257611,260.311380L146.469182,258.992470L152.605088,258.809088L151.161665,257.657476L152.439163,256.883588L153.824881,256.144277L150.853807,254.712371L154.729456,254.404060L149.794335,252.576078L150.387051,251.701354L148.376652,250.325928L147.294210,249.103914L147.848801,248.206564L147.578183,247.134326L151.114268,246.917294L156.882115,247.277271L152.485438,245.259074L154.078184,244.668656L157.975209,244.696969L158.136179,243.787015L161.311140,243.705455L159.000934,242.117106L157.486345,240.718716L154.082428,238.724168L157.570921,238.793620L158.744825,238.183667L154.499262,235.826896L152.074828,234.000992L149.566576,232.100096L146.194612,229.848195L147.140247,229.083264L148.659035,228.539351L149.709429,227.839276L150.181045,226.928315L149.970436,225.750469L153.809890,226.193390L155.867009,225.964080L152.804822,223.611882L151.346487,221.886681L155.897314,222.763393L159.102551,223.113120L163.027104,223.842866L161.739763,222.208389L165.667243,223.021779L166.318073,222.312655L167.966294,222.101162L168.106767,221.153762L167.088609,219.606459L166.206714,218.102702L162.686757,215.168073L163.504376,214.509010L171.494629,217.819437L169.961711,215.924015L170.273034,215.044646L169.433193,213.491613L168.946970,212.121544L165.675280,209.051310L169.653697,210.351858L171.306281,210.273707L173.524766,210.579361L175.634531,210.851755L175.497318,209.684169L176.094635,208.992957L171.911278,205.060424L169.342016,202.136097L171.102971,202.176673L175.511233,204.130429L178.311029,205.008678L178.893856,204.308853L177.104969,201.837555L174.303665,198.541834L175.627426,198.346811L176.177402,197.563434L177.581895,197.459240L176.067331,195.015311L173.485200,191.641254L179.365439,195.242601L177.698121,192.587528L179.084340,192.498891L177.766121,190.068065L175.620347,186.850424L175.073110,184.995906L178.789851,187.007166L182.474255,189.073625L185.548862,190.651034L186.665461,190.423735L187.466821,189.903767L187.528343,188.658058L187.542035,187.346483L185.012905,183.427314L185.177804,182.191684L185.770610,181.387908L185.568501,179.733506L187.808361,180.690262L189.663383,181.274646L189.472921,179.616165L186.304759,174.554147L184.914973,171.400530L188.356877,173.812584L191.820542,176.346640L195.921848,179.748194L199.077187,182.118526L197.378227,178.550197L197.152086,176.746434L198.003045,176.285086L194.567913,170.245543L197.505096,172.463577L201.645821,176.389892L200.122758,172.724984L205.514455,178.556973L205.644115,177.174564L206.254433,176.453153L206.373618,175.009620L206.830519,174.035709L207.227338,172.956151L206.775893,170.559094L210.336556,174.343835L212.107542,175.441225L212.510836,174.390682L213.591808,174.430128L213.606559,172.710784L214.677643,172.738226L214.054973,169.860940L214.874804,169.430217L214.624605,167.087955L216.790200,169.073295L216.889910,167.319728L216.240596,164.103867L215.591251,160.784113L216.168647,159.758646L217.431854,160.080092L219.154681,161.366235L220.338156,161.600607L220.735067,160.196759L222.032564,160.696535L220.113169,154.150158L221.582666,154.965915L223.371967,156.566478L222.998368,153.185067L223.203839,151.060627L224.288309,151.009657L224.558431,148.938404L227.438280,153.459906L229.819216,156.901532L231.303825,158.122505L229.225596,149.661675L230.340116,149.761439L231.082556,148.813821L231.941803,148.179402L235.695478,156.272476L236.389661,155.321922L238.607678,159.185654L238.725187,156.408898L239.411641,155.404125L240.652398,156.273310L242.784795,160.381287L243.684769,160.234861L244.723827,160.619579L245.507472,160.047868L246.135018,158.825217L247.031558,158.654091L248.752286,162.033068L249.118318,159.629467L248.845193,154.108416L249.871333,154.414926L250.599114,153.272511L252.302853,157.120108L252.796933,154.760837L252.951172,150.284164L253.941481,150.355522L255.158466,151.856254L256.664096,155.407986L257.703067,156.148644L258.091631,152.266670L258.947208,151.528689L260.139220,153.464164L261.538314,157.483896L261.799554,151.449209L262.685128,150.789559L263.234343,146.357069L264.443203,149.001464L265.780548,153.882888L266.768163,154.764164L267.725184,155.379925L268.429353,151.433592L269.281801,149.436291L270.322638,151.621632L271.316263,153.366752L272.217650,152.234914L273.156936,152.497066L274.101939,154.095464L275.022704,154.552657L275.994416,147.590349Z" />
<line x1="50" y1="600" x2="100" y2="600" fill="none" stroke="red" stroke-width="1.0" stroke-linejoin="round" stroke-miterlimit="10" />
<text x="125" y="603" style="text-anchor:start;fill:black">n0_4mer:D</text>
<path style="stroke:black;stroke-width:1.0" d="M277.916069,83.552648L279.357224,84.317810L280.803267,84.556458L282.244500,84.843537L283.718817,84.329756L285.236020,83.178277L286.764412,82.151225L288.220847,82.421028L289.736634,81.879109L291.045941,83.915435L292.387848,85.275674L293.751987,86.222227L295.042851,87.737882L296.566815,87.038978L297.915666,87.878763L298.946301,91.083569L300.095194,93.091769L301.543001,92.855192L302.942749,92.976133L304.780208,90.392592L306.589812,88.233419L307.832681,89.488868L309.374135,89.043589L311.047300,87.972736L312.387061,88.669449L313.866360,88.665882L315.146797,89.602653L316.480958,90.255335L318.005724,90.065198L319.600120,89.620196L321.493388,88.024115L323.071528,87.778199L324.640096,87.605934L326.250292,87.314074L327.326217,88.961445L328.536483,90.073863L329.739987,91.169921L330.831120,92.596306L332.443708,92.311260L334.659163,90.196203L336.984810,87.878964L339.160156,86.142935L340.608991,86.601647L341.390764,88.931844L342.308227,90.804972L343.253599,92.540692L344.538464,93.334348L345.988408,93.694616L346.846791,95.540405L347.884800,96.891154L349.094506,97.797437L351.085222,96.860807L353.314369,95.440109L355.605115,93.963204L357.586679,93.250704L358.568879,94.746952L359.046745,97.276009L359.431252,99.925644L359.774814,102.581931L360.334932,104.730236L361.418861,105.797037L363.039744,105.816910L364.876106,105.454055L366.360779,105.780459L367.857727,106.097754L368.530809,107.900763L369.373707,109.367439L370.137000,110.945365L370.849991,112.579092L372.032747,113.399553L373.215085,114.217935L374.410383,115.013092L376.033385,115.130204L377.065551,116.188281L378.354190,116.844652L380.212976,116.647191L382.059734,116.500007L384.169544,116.000803L385.777991,116.262757L386.405152,117.926832L387.466635,118.962417L388.910318,119.470501L389.472080,121.174996L390.866502,121.752130L391.687607,123.085177L391.464600,125.742536L392.761063,126.428133L394.790779,126.209477L395.983825,127.048714L397.698194,127.262756L398.787581,128.239752L398.974591,130.269165L400.261999,131.000628L401.338532,131.977556L402.674577,132.664730L404.302108,133.040491L404.793839,134.662672L407.039921,134.397667L408.590065,134.900713L409.253194,136.335373L410.480670,137.183582L410.881655,138.865334L411.763254,140.053447L413.208436,140.689476L414.624744,141.365647L415.447432,142.613001L416.772313,143.388815L417.410729,144.801373L418.872034,145.463156L420.453095,146.031849L419.359375,148.952326L418.182330,151.889309L417.446103,154.397040L417.064176,156.566127L418.377578,157.310475L420.592117,157.337185L420.818802,158.978740L420.015261,161.410916L422.331497,161.396499L424.198208,161.758515L427.069428,161.394209L430.951865,160.334000L432.711931,160.880152L433.912571,161.845324L435.691237,162.413284L436.358780,163.768114L436.011390,165.807201L436.349556,167.362729L435.774493,169.506876L436.478742,170.795423L437.573808,171.834037L437.612377,173.538459L437.431985,175.361657L438.089780,176.659750L438.952325,177.834606L441.480890,178.041695L443.267015,178.710158L443.090995,180.502984L443.050693,182.202909L442.829447,183.986110L443.550858,185.249335L444.229523,186.535644L444.876126,187.838500L445.222384,189.292248L446.352177,190.353083L448.274433,191.039118L449.236321,192.205633L449.895837,193.519205L450.079198,195.050932L450.146697,196.626669L451.311007,197.711927L452.779081,198.677229L453.424359,200.004368L452.614548,201.931441L452.238110,203.659742L452.822837,204.993363L453.479198,206.300318L455.143942,207.230249L457.156833,208.052198L457.837933,209.378125L459.276294,210.441875L460.271306,211.673355L459.585951,213.473658L460.120529,214.858098L457.164402,217.348566L453.010441,220.151214L454.357062,221.228528L453.465178,222.973967L455.925103,223.748636L461.336659,223.745473L461.021047,225.353100L461.272740,226.802618L460.906827,228.405055L460.320814,230.049209L461.132474,231.350625L463.251850,232.363563L465.378703,233.403607L466.301656,234.725991L466.737619,236.156835L466.438875,237.732925L466.889200,239.159897L467.304272,240.595972L468.189173,241.954086L467.818338,243.527097L466.285931,245.271086L466.815991,246.683165L465.961320,248.293793L466.357482,249.722761L467.549334,251.055939L467.341171,252.568010L468.500684,253.925271L468.854588,255.379469L468.824137,256.872759L467.910292,258.439296L466.996352,259.989882L467.304632,261.438518L468.213341,262.852542L469.223962,264.273419L469.175150,265.758910L468.028215,267.286463L467.006791,268.791562L465.573773,270.290536L466.666591,271.723949L467.948584,273.171841L468.244447,274.640883L469.354198,276.119076L468.690015,277.590578L468.514681,279.062525L467.615873,280.511569L467.368416,281.971154L467.734388,283.454685L466.827910,284.879251L469.305455,286.491254L470.297519,288.043256L470.566527,289.558133L470.873606,291.081954L468.504175,292.372076L466.562077,293.669493L463.368243,294.807608L461.559703,296.055202L462.088986,297.559266L461.229751,298.895997L461.909474,300.431640L462.972533,302.035968L462.452164,303.419959L462.835215,304.943232L463.094929,306.455423L463.613389,308.020732L464.069683,309.586757L465.434023,311.337379L463.128551,312.384650L460.230633,313.277497L458.894756,314.464162L457.551609,315.632713L458.917951,317.409517L461.106770,319.409686L462.377455,321.224047L463.812923,323.106615L464.517131,324.826156L462.442895,325.810193L460.882518,326.910141L459.460506,328.030738L459.806525,329.657449L460.760389,331.481606L461.005002,333.107228L460.473725,334.495453L458.614008,335.445047L457.117848,336.493774L456.549711,337.846309L455.076088,338.876126L454.701877,340.288448L455.429730,342.112817L455.100296,343.556208L455.236960,345.184459L454.511364,346.481135L453.359637,347.601156L452.178211,348.698193L452.083519,350.245921L451.906692,351.766611L451.876971,353.359854L451.149738,354.648044L449.890974,355.688790L448.705793,356.752265L447.379343,357.737469L446.149065,358.756686L445.774683,360.191686L446.090429,361.982771L445.844815,363.501811L445.608076,365.033811L443.695121,365.673591L441.837219,366.319504L440.328780,367.137161L439.730991,368.455344L438.873703,369.625978L438.945864,371.340014L438.904807,373.002870L438.474069,374.443265L438.402959,376.113012L437.987864,377.580989L436.843865,378.590209L435.578714,379.512954L434.965731,380.857096L434.341578,382.197956L434.015845,383.747155L432.926370,384.776701L432.279715,386.113362L430.900822,386.928871L429.346970,387.604586L428.334235,388.665176L427.374223,389.762004L426.376618,390.828015L426.832436,393.021000L426.920144,394.956431L426.070400,396.164750L425.976766,397.990852L425.411323,399.447953L424.047590,400.244067L423.070372,401.359371L421.111719,401.623752L418.341203,401.147133L416.509374,401.460456L415.412517,402.416928L414.943675,403.948560L414.633067,405.642697L413.833424,406.891802L413.634692,408.726482L412.290660,409.463555L411.519657,410.760923L411.554975,412.880407L410.300125,413.710596L408.728773,414.205123L406.401678,413.884647L404.717960,414.213707L403.806073,415.363418L403.462561,417.147288L403.332022,419.195503L401.933449,419.830254L399.634178,419.411022L397.980195,419.708287L396.754165,420.496912L395.411966,421.140186L395.272078,423.256890L393.928794,423.904855L393.077172,425.169930L392.442727,426.727231L390.654884,426.791937L389.900498,428.208455L388.678339,429.008702L387.458005,429.809338L386.086668,430.396919L385.058158,431.463420L384.069638,432.595213L383.372799,434.165353L382.352228,435.276953L380.949601,435.818484L378.484466,434.711260L376.015541,433.533753L374.971133,434.563354L374.021797,435.756535L374.335708,439.051181L373.946539,441.253269L372.772136,442.163907L371.321736,442.600211L369.470844,442.316537L368.399957,443.402898L367.294069,444.438716L366.095264,445.313107L364.778057,445.968756L363.576429,446.847581L362.507689,447.996897L361.237602,448.759135L360.152508,449.905463L358.489356,449.860747L356.444910,448.974355L354.653483,448.578357L352.698508,447.777564L351.375316,448.352876L350.047868,448.918054L349.227124,450.682237L348.422054,452.536357L346.936475,452.765918L345.980801,454.319932L344.743880,455.193434L343.117334,455.052899L341.540333,455.015340L339.989092,455.023030L338.200597,454.333697L337.154098,455.743785L336.292504,457.752769L334.879432,458.154868L333.706621,459.308407L332.290090,459.714358L330.664878,459.427232L329.413567,460.373635L327.921276,460.506175L326.316637,460.217132L325.290796,462.039255L323.902669,462.562018L322.705452,463.850209L321.328117,464.463083L319.443636,462.949024L317.813229,462.416742L316.201592,461.907202L314.628791,461.518548L313.242159,461.986430L311.927869,462.836535L310.422029,462.719222L308.808900,461.974787L307.405201,462.350044L305.965156,462.517406L304.578841,463.019495L303.513894,465.699777L302.099270,466.183725L300.479706,465.170269L298.892817,464.267336L297.265261,462.879567L295.686397,461.714161L294.316317,462.376158L292.989588,463.575669L291.494950,463.047163L290.173004,464.550586L288.706355,464.348924L287.249313,464.223264L285.829896,464.697987L284.362587,464.325460L282.997173,466.227401L281.558897,466.820015L280.073540,465.952113L278.614101,465.722730L277.154767,465.157188L275.708995,465.855665L274.245393,468.418330L272.766986,468.869501L271.309888,467.834430L269.869095,466.763474L268.434519,465.969184L266.952453,466.575640L265.478124,466.820947L264.046061,466.243620L262.609279,465.855239L261.193159,465.244115L259.816623,464.236213L258.373625,464.139993L256.941917,463.920765L255.566525,463.168417L253.978148,464.419008L252.503698,464.526526L251.032665,464.572945L249.489797,465.128340L248.061818,464.792384L246.581945,464.816626L245.090416,464.891068L243.596107,464.953785L242.163102,464.635189L240.615108,464.957777L239.399079,463.474238L238.133637,462.338989L236.717936,462.003786L235.414419,461.144307L233.548053,462.876147L231.848084,463.737142L230.348546,463.670658L229.117947,462.487232L228.157092,460.290072L227.126014,458.476349L225.704034,458.202990L224.156515,458.376398L222.641254,458.404593L221.439720,457.340788L220.038082,456.975448L218.790834,456.109802L217.276435,456.105254L215.673337,456.349522L214.373423,455.655383L212.820312,455.708541L212.002918,453.649870L211.005132,452.165464L210.208419,450.183817L209.876299,447.042894L208.391812,446.996571L206.586632,447.739589L204.902360,448.128968L202.735004,449.646278L201.392367,449.125377L199.939502,448.858137L198.143553,449.356736L196.617806,449.210959L194.975077,449.301980L193.591562,448.811978L192.507247,447.690573L191.095865,447.259594L189.474994,447.242615L187.877759,447.155130L186.271181,447.064385L184.422567,447.412879L183.206447,446.541665L182.315389,445.080136L181.380590,443.724344L180.454897,442.375101L178.902477,442.137882L176.925184,442.609634L175.657886,441.847080L173.956056,441.802046L172.800094,440.846712L172.217170,438.983070L171.078752,438.026835L169.500130,437.755149L168.112270,437.176570L166.476588,436.960161L164.465016,437.275822L163.965296,435.370588L162.948557,434.234011L161.499078,433.711565L160.793357,432.154829L159.815116,430.988807L158.510383,430.267020L157.444904,429.226176L156.289013,428.306618L155.263975,427.221184L154.201754,426.187640L153.684019,424.486667L153.097683,422.892739L151.493359,422.535186L150.559537,421.371197L149.505552,420.352957L147.800519,420.079171L146.599508,419.218240L145.571918,418.161953L144.020343,417.678577L142.852240,416.768328L141.776345,415.757760L139.608040,415.883791L138.477860,414.911174L136.800320,414.489007L135.972482,413.203259L135.343792,411.729343L134.756463,410.227859L134.256400,408.656515L133.069055,407.742966L132.264479,406.471817L131.239533,405.406108L131.042987,403.599493L130.396255,402.210358L129.667823,400.900705L128.760716,399.749616L126.761860,399.516705L125.230174,398.870117L123.505894,398.365274L121.741646,397.872594L120.417752,397.011612L120.559133,395.002339L120.086574,393.488431L119.278531,392.237479L118.490595,390.973653L116.642179,390.485451L115.828159,389.232292L114.707469,388.196992L113.860261,386.965765L112.826417,385.862248L111.364339,385.042477L111.646656,383.055020L110.597893,381.957750L109.398421,380.951826L109.188854,379.314710L108.877631,377.752909L109.691464,375.516938L109.842843,373.709851L110.454067,371.651333L108.932325,370.851533L107.783009,369.824463L107.884766,368.091882L106.478698,367.200436L106.497206,365.529693L104.563105,364.902819L101.663010,364.751799L101.196232,363.321429L99.353875,362.580899L99.466815,360.861586L100.260734,358.830055L99.039094,357.773501L100.230204,355.593333L103.187213,352.648432L102.715126,351.287014L101.611523,350.201479L100.284357,349.201284L95.418492,349.658552L93.106521,349.000043L92.896666,347.473888L91.184942,346.538277L91.825566,344.687267L92.741452,342.754354L92.124953,341.402684L92.107630,339.836692L90.603080,338.793387L90.015961,337.423119L89.866539,335.906958L88.884221,334.663108L88.661953,333.173108L88.786497,331.581421L87.833454,330.317459L87.802074,328.779906L87.157079,327.419827L86.365088,326.095530L86.053956,324.638319L84.760635,323.432250L84.142383,322.044787L83.266709,320.714500L82.960649,319.244487L84.374339,317.392521L84.558174,315.832005L84.326175,314.365223L85.209071,312.678184L84.252189,311.360367L83.993094,309.904303L83.572707,308.476552L82.114886,307.219496L81.220752,305.853707L81.399288,304.315197L82.443839,302.658555L83.477546,301.022902L83.470910,299.539654L84.071519,297.986089L83.939260,296.527086L83.121886,295.140484L83.533986,293.624065L83.273178,292.176448L83.172841,290.713691L83.320539,289.232812L82.594002,287.814079L82.863906,286.326981L81.559667,284.926101L81.652045,283.445453L84.354382,281.873102L84.182600,280.424472L86.121640,278.929933L85.972183,277.492944L84.220988,276.062890L84.668481,274.610780L84.801976,273.162408L84.708990,271.711943L84.314630,270.252175L83.444189,268.770363L82.298006,267.263484L82.674701,265.810978L82.850123,264.352002L82.824502,262.881790L82.548256,261.392053L84.178007,260.045868L84.870389,258.642269L85.361450,257.228516L87.081899,255.944891L86.039405,254.384067L85.506540,252.864287L86.102419,251.474251L85.283192,249.903466L85.516976,248.464485L85.539062,246.994705L85.597261,245.527568L86.209696,244.148408L86.326919,242.690348L86.812276,241.296199L86.558304,239.767414L86.230839,238.216074L86.099890,236.694976L86.005652,235.174910L86.790751,233.840820L87.134068,232.414113L87.622078,231.021670L89.359561,229.935002L89.514152,228.473780L89.789165,227.040506L89.857849,225.550657L89.179145,223.850053L88.840413,222.228317L89.415748,220.861045L89.510154,219.352186L90.476952,218.106839L91.344665,216.839011L91.293611,215.279624L92.595791,214.163058L93.490263,212.921249L94.298663,211.656443L95.080484,210.387667L95.237532,208.894119L95.172910,207.311141L95.950311,206.042363L97.132071,204.937274L98.830484,204.051661L100.046459,202.987975L101.083994,201.861138L102.048110,200.711379L102.641816,199.406350L103.085624,198.034539L102.903560,196.374181L102.555562,194.622102L101.874317,192.693788L100.447560,190.379632L100.626388,188.820031L101.957704,187.831931L102.582119,186.493708L104.989369,186.086926L106.167985,185.059183L105.649149,183.120155L107.032282,182.207824L106.545267,180.257126L106.837750,178.728451L108.137539,177.777767L108.893590,176.516114L110.173004,175.570297L110.498192,174.049744L110.943057,172.594591L110.155149,170.349730L110.914949,169.070161L112.792495,168.523292L114.024082,167.568574L116.098753,167.194940L116.996461,166.037534L117.267868,164.442666L116.912949,162.388679L118.089128,161.415181L119.915469,160.927132L120.838831,159.786715L123.104758,159.666788L123.116464,157.841341L125.184167,157.605560L126.630359,156.903936L127.223002,155.525844L128.765225,154.919504L127.984655,152.392008L130.067476,152.245458L132.039679,152.033791L133.630021,151.516024L135.266682,151.056794L135.871006,149.686593L136.146787,148.006249L136.421812,146.305858L137.014876,144.885361L137.630591,143.475099L138.358408,142.162546L139.231724,140.985200L140.344638,140.043555L140.587774,138.219403L141.833380,137.406284L142.911052,136.423206L143.174558,134.573554L144.332756,133.665422L145.497136,132.766780L146.267014,131.430898L146.834604,129.854866L149.691044,130.892352L151.442710,130.701843L152.714518,129.965709L154.086188,129.355992L153.537415,126.406665L153.332335,123.820481L154.448450,122.849234L155.764524,122.132661L157.663139,122.180899L159.817882,122.598208L160.929705,121.655170L161.923669,120.548750L162.160546,118.383562L162.705888,116.610839L164.079968,115.996010L165.343702,115.227992L166.829561,114.791187L168.080537,114.013648L168.879004,112.544622L170.011251,111.572811L171.352455,110.925912L172.578688,110.098798L174.208923,109.931702L175.668469,109.501142L177.084254,109.007846L178.796449,109.034844L180.285983,108.698036L181.909344,108.614288L183.010679,107.603348L184.424818,107.160640L186.156428,107.326270L187.689863,107.142489L189.056085,106.649410L190.228774,105.776181L191.486980,105.068141L192.490495,103.828900L193.860660,103.341091L194.613232,101.525755L194.845966,98.516821L196.705778,99.065061L197.723273,97.728963L199.080543,97.157052L200.948202,97.806684L201.594725,95.523731L203.019502,95.109154L204.865464,95.776916L206.826594,96.800903L208.662953,97.563238L210.904002,99.493943L212.234141,98.987319L213.375146,97.935851L214.729497,97.483481L215.340669,94.786524L216.519171,93.730593L217.582886,92.276691L218.716569,90.995903L220.069684,90.404825L221.696056,90.748396L223.070444,90.239453L224.564676,90.162885L226.220203,90.714696L227.330013,89.198137L228.604806,88.270229L229.648450,86.342106L230.814993,84.833164L232.174306,84.099614L234.070944,85.819535L235.711887,86.467915L237.207884,86.468344L238.588135,85.891357L239.670788,83.677116L241.015780,82.773438L242.272529,81.287498L243.818423,81.475842L245.478906,82.454974L247.201874,83.992437L248.899696,85.544874L250.380441,85.636722L251.840063,85.591209L253.247729,85.109804L254.598964,84.054625L256.008186,83.444485L257.360618,82.135134L258.768432,81.271366L260.266191,81.440070L261.845829,82.867570L263.351257,83.459276L264.832302,83.788083L266.302543,84.015917L267.761619,84.067648L269.204265,83.630686L270.667310,83.829564L272.140239,84.920236L273.581402,84.016271L275.035922,84.436112L276.490892,83.979311Z" />
<line x1="50" y1="550" x2="100" y2="550" fill="none" stroke="black" stroke-width="1.0" stroke-linejoin="round" stroke-miterlimit="10" />
<text x="125" y="553" style="text-anchor:start;fill:black">GC-content</text>
</g>
<g style="fill:pink;stroke:black">
<a href="" title="OZ242221:1 [27000-67099];"><path  d="M298.606696,46.214677L302.595955,46.661516L306.576808,47.177909L310.548043,47.763699L314.508449,48.418707L318.456820,49.142734L322.391954,49.935559L326.312652,50.796941L330.217720,51.726617L325.416179,71.141694L325.416179,71.141694L321.850683,70.292859L318.270915,69.506380L314.677966,68.782496L311.072931,68.121428L307.456908,67.523377L303.830999,66.988526L300.196307,66.517036Z" />
</a><a href="" title="OZ242221:2 [144000-164099];"><path  d="M394.897769,78.723346L398.305007,80.845744L401.674687,83.027284L405.005779,85.267300L408.297271,87.565111L396.706204,103.863797L396.706204,103.863797L393.700929,101.765796L390.659496,99.720563L387.582833,97.728723L384.471876,95.790881Z" />
</a><a href="" title="OZ242221:3 [222500-243599];"><path  d="M447.384577,122.738522L450.015651,125.770238L452.593414,128.847411L455.117080,131.969103L457.585880,135.134364L441.708847,147.296593L441.708847,147.296593L439.454725,144.406572L437.150508,141.556331L434.796899,138.746739L432.394614,135.978651Z" />
</a><a href="" title="OZ242221:4 [324000-345099];"><path  d="M492.064998,198.955364L493.359100,202.755253L494.586687,206.577148L495.747387,210.419885L496.840844,214.282294L477.550336,219.562094L477.550336,219.562094L476.551962,216.035547L475.492193,212.526961L474.371352,209.037404L473.189781,205.567941Z" />
</a><a href="" title="OZ242221:5 [346000-368099];"><path  d="M497.667118,217.386159L498.638705,221.281011L499.542169,225.192227L500.377236,229.118614L501.143650,233.058977L481.478985,236.706022L481.478985,236.706022L480.779215,233.108299L480.016763,229.523337L479.191861,225.952228L478.304760,222.396059Z" />
</a><a href="" title="OZ242221:6 [401500-421099];"><path  d="M504.798697,265.379247L504.931603,269.391252L504.994469,273.404966L504.987277,277.419166L504.910029,281.432629L484.917852,280.873270L484.917852,280.873270L484.988383,277.208804L484.994950,273.543665L484.937550,269.878969L484.816202,266.215834Z" />
</a><a href="" title="OZ242221:7 [912000-934599];"><path  d="M200.165449,492.485149L196.381208,491.145982L192.620914,489.740975L188.885714,488.270555L185.176745,486.735172L192.987463,468.323418L192.987463,468.323418L196.373913,469.725290L199.784313,471.067846L203.217624,472.350679L206.672802,473.573397Z" />
</a><a href="" title="OZ242221:8 [1319000-1337599];"><path  d="M55.998633,204.726241L57.258434,200.914843L58.584561,197.126013L59.976611,193.360903L61.434159,189.620661L80.005101,197.044952L80.005101,197.044952L78.674297,200.459955L77.403295,203.897664L76.192483,207.357031L75.042230,210.837003Z" />
</a></g>
<text x="275" y="280" style="text-anchor:middle" font-size="25" font-weight="bold">OZ242221</text>
<path  style="fill:pink;stroke:black" d="M350,550L375,550L375,565L350,565Z" />
<text x="405" y="565" style="text-anchor:start;fill:black">Selected loci;</text>
</svg>