<svg xmlns="http://www.w3.org/2000/svg" viewbox="0 0 550 650">
<circle cx="275" cy="275" r="240" fill="none" stroke="black" stroke-width="1.0" />
<line x1="275" y1="15" x2="275" y2="55" fill="none" stroke="grey" stroke-width="1.0" stroke-linejoin="round" stroke-miterlimit="10" />
<line x1="495" y1="275" x2="535" y2="275" fill="none" stroke="grey" stroke-width="1.0" stroke-linejoin="round" stroke-miterlimit="10" />
<line x1="275" y1="495" x2="275" y2="535" fill="none" stroke="grey" stroke-width="1.0" stroke-linejoin="round" stroke-miterlimit="10" />
<line x1="15" y1="275" x2="55" y2="275" fill="none" stroke="grey" stroke-width="1.0" stroke-linejoin="round" stroke-miterlimit="10" />
<text x="275" y="10" style="text-anchor:middle" font-size="15">Methanococcus maripaludis C5, complete genome.</text><text x="285" y="25" style="text-anchor:start">1,794,741</text><text x="525" y="265" style="text-anchor:start">0.44 Mbp</text><text x="285" y="530" style="text-anchor:start">0.89 Mbp</text><text x="-200" y="25" style="text-anchor:end" transform="rotate(-90)">1.34 Mbp</text><circle cx="357.315469" cy="49.557849" r="2.500000" fill="grey" stroke="black" stroke-width="1.0" />
<circle cx="429.644804" cy="91.465304" r="2.500000" fill="grey" stroke="black" stroke-width="1.0" />
<circle cx="483.213341" cy="155.638345" r="2.500000" fill="grey" stroke="black" stroke-width="1.0" />
<circle cx="511.522392" cy="234.291795" r="2.500000" fill="grey" stroke="black" stroke-width="1.0" />
<circle cx="511.137633" cy="317.883776" r="2.500000" fill="grey" stroke="black" stroke-width="1.0" />
<circle cx="482.105741" cy="396.273295" r="2.500000" fill="grey" stroke="black" stroke-width="1.0" />
<circle cx="427.948731" cy="459.950495" r="2.500000" fill="grey" stroke="black" stroke-width="1.0" />
<circle cx="355.236684" cy="501.190350" r="2.500000" fill="grey" stroke="black" stroke-width="1.0" />
<circle cx="272.790691" cy="514.989831" r="2.500000" fill="grey" stroke="black" stroke-width="1.0" />
<circle cx="190.612722" cy="499.674848" r="3.000000" fill="black" stroke="black" stroke-width="1.0" />
<circle cx="118.672229" cy="457.103344" r="2.500000" fill="grey" stroke="black" stroke-width="1.0" />
<circle cx="65.696703" cy="392.439899" r="2.500000" fill="grey" stroke="black" stroke-width="1.0" />
<circle cx="38.112892" cy="313.529185" r="2.500000" fill="grey" stroke="black" stroke-width="1.0" />
<circle cx="39.267137" cy="229.944287" r="2.500000" fill="grey" stroke="black" stroke-width="1.0" />
<circle cx="69.019410" cy="151.825341" r="2.500000" fill="grey" stroke="black" stroke-width="1.0" />
<circle cx="123.760302" cy="88.649379" r="2.500000" fill="grey" stroke="black" stroke-width="1.0" />
<circle cx="196.848900" cy="48.080619" r="2.500000" fill="grey" stroke="black" stroke-width="1.0" />

<circle cx="275" cy="275" r="185" fill="white" stroke="grey" stroke-width="0.5" />
<circle cx="275" cy="275" r="170" fill="none" stroke="black" stroke-width="0.5" />
<circle cx="275" cy="275" r="170" fill="aliceblue" stroke="black" stroke-width="0.5" />
<circle cx="275" cy="275" r="157" fill="white" stroke="none" stroke-width="0.5" />
<circle cx="275" cy="275" r="140" fill="none" stroke="black" stroke-width="0.5" />
<circle cx="275" cy="275" r="140" fill="aliceblue" stroke="black" stroke-width="0.5" />
<circle cx="275" cy="275" r="133" fill="white" stroke="none" stroke-width="0.5" />
<circle cx="275" cy="275" r="110" fill="none" stroke="black" stroke-width="0.5" />
<circle cx="275" cy="275" r="110" fill="white" stroke="black" stroke-width="0.5" />
<circle cx="275" cy="275" r="109" fill="aliceblue" stroke="none" stroke-width="0.5" />
<circle cx="275" cy="275" r="80" fill="none" stroke="black" stroke-width="0.5" />

<g style="fill:none;stroke-linejoin:round;stroke-miterlimit:10">
<path style="stroke:blue;stroke-width:1.0" d="M277.138453,122.282941L278.223689,121.539694L279.420049,117.212499L280.655178,113.522342L281.850636,112.020079L282.834247,115.280210L283.662386,120.510664L284.629428,122.388738L285.679758,122.716203L286.768218,122.503490L287.922142,121.562824L289.146746,120.007106L290.125523,121.188805L291.136206,121.923542L292.050509,123.436743L293.214906,122.693474L294.226320,123.255256L295.256612,123.630550L296.288389,123.971702L297.348604,124.102313L298.463941,123.880302L299.591412,123.617692L300.597533,124.107265L301.784488,123.549037L302.939126,123.224879L303.916905,123.864413L304.791848,124.989810L305.830062,125.257378L307.085586,124.502108L308.082264,124.985652L309.443590,123.852799L310.018438,126.149020L310.993462,126.671203L312.060916,126.807775L313.166874,126.801945L314.157134,127.248061L315.239378,127.347202L316.497173,126.829325L317.492826,127.265283L318.475045,127.739637L319.346379,128.571583L320.467646,128.572952L321.588195,128.591875L323.455055,126.335589L324.822143,125.697471L326.000220,125.657803L326.458515,127.696327L327.538068,127.921842L328.279920,129.078401L328.947476,130.400769L330.560892,129.201541L331.325788,130.248387L331.628086,132.433379L332.663846,132.737306L333.743945,132.937942L334.882666,133.007769L336.475510,132.034909L336.536959,134.608915L337.460643,135.172583L338.965306,134.455057L340.148049,134.474415L340.379679,136.523999L341.413796,136.847560L342.661784,136.739077L343.708756,137.054462L345.036955,136.820716L347.328600,134.743411L349.760322,132.486397L352.680560,129.406844L354.438956,128.588784L354.337071,131.187962L355.786370,130.954755L354.501292,135.543818L352.419800,141.378305L352.510755,143.354950L354.621174,141.910799L355.839676,141.996719L355.809144,144.120503L356.242356,145.456782L357.608302,145.305161L359.595605,144.215140L360.510282,144.809090L361.163490,145.795263L361.345049,147.466630L362.230060,148.082795L364.203724,147.138362L365.852470,146.698908L368.295275,145.186043L370.657602,143.846593L371.412567,144.737088L373.074603,144.413600L372.713259,146.774357L369.568542,152.687068L369.345904,154.724844L370.117695,155.473862L371.659982,155.266106L372.414497,156.045297L374.610009,155.087046L375.599417,155.606729L374.901611,158.105786L377.077876,157.238891L378.104533,157.723742L381.116146,155.989035L380.990826,157.792121L379.868962,160.652376L380.268666,161.817743L380.494524,163.155560L381.521757,163.639021L382.301413,164.384958L382.306350,165.918578L382.896365,166.844104L383.533284,167.718570L385.411683,167.379781L387.602150,166.771765L387.841008,168.052035L387.261761,170.083325L387.371500,171.445217L390.454319,170.089612L392.393660,169.818570L392.420133,171.267777L392.260222,172.861882L392.408677,174.169610L392.533709,175.483604L393.348049,176.208447L394.799715,176.411721L396.779962,176.204058L394.780506,179.208969L394.746728,180.603017L395.337109,181.496309L396.135981,182.228484L396.985204,182.925972L397.446928,183.916202L397.949181,184.872893L399.246074,185.252815L400.813322,185.454564L400.151974,187.238922L400.826406,188.073814L402.763501,188.050764L404.835198,187.964699L405.518761,188.824832L405.041687,190.441273L405.867707,191.202007L406.939762,191.812341L408.408740,192.185864L409.606578,192.742330L409.365130,194.176518L409.214169,195.541738L407.026357,198.080268L407.300287,199.156420L409.515323,199.132998L413.325746,198.255521L414.879063,198.669665L413.619546,200.611793L412.224778,202.593174L412.033963,203.915978L412.489899,204.896780L412.186101,206.257660L413.722377,206.698808L413.330997,208.090752L413.620847,209.144198L413.502133,210.385311L414.419241,211.142250L415.919046,211.645181L417.432241,212.159984L418.999778,212.669220L418.836918,213.931930L416.923531,215.913668L416.392824,217.292851L418.133691,217.748160L422.384654,217.241557L418.802453,219.803728L417.739255,221.355437L418.195910,222.325070L418.812687,223.238467L419.093400,224.274194L420.645009,224.871327L421.987253,225.557690L424.263435,225.952691L424.110981,227.156922L424.246868,228.263330L421.768507,230.165392L421.690012,231.309928L422.367598,232.229163L422.110769,233.418258L423.484846,234.150387L423.229553,235.334914L423.521205,236.369180L423.291082,237.535584L424.021011,238.459241L424.813544,239.375050L425.319761,240.364865L427.400698,241.007330L428.027532,241.990550L427.287329,243.264450L426.378913,244.558114L425.726126,245.785891L425.148689,246.987152L425.094161,248.083430L425.631676,249.074296L426.618043,249.996275L427.148946,251.001763L428.015383,251.961941L426.492986,253.274793L426.023111,254.420288L426.427399,255.444133L426.728898,256.484328L426.981066,257.532635L427.023159,258.605440L427.116303,259.672070L427.019872,260.756263L427.039457,261.827633L427.017667,262.901271L427.271552,263.953409L427.733649,264.994392L427.786467,266.064825L429.399217,267.054848L427.749058,268.211741L428.589995,269.251577L428.403901,270.333882L427.842614,271.421904L427.767833,272.493729L429.546231,273.546835L430.868020,274.625802L431.375485,275.719495L431.397153,276.814729L431.389030,277.909889L430.825219,278.990989L431.228121,280.096114L432.635111,281.247180L432.548586,282.348928L431.336856,283.389799L430.772549,284.453770L428.669625,285.406544L429.044213,286.515973L429.745152,287.658507L429.495415,288.727701L429.134479,289.784060L430.203673,290.984067L428.542778,291.900292L428.231092,292.952728L427.043893,293.893728L427.538871,295.040734L427.897333,296.177881L429.419590,297.491772L427.378337,298.285139L426.547584,299.245251L425.483101,300.156797L425.550636,301.252956L427.445209,302.684537L429.267515,304.132682L431.577061,305.705765L431.016029,306.731721L428.260390,307.290355L427.252529,308.193032L427.864584,309.449396L424.677982,309.834261L423.757315,310.719785L423.394171,311.733386L423.490829,312.862654L425.622306,314.531363L424.860314,315.455024L425.263578,316.694825L425.268592,317.831596L426.024080,319.192587L422.637864,319.326278L421.006664,319.953357L420.670744,320.969001L422.153690,322.572440L422.514926,323.832642L422.189542,324.871128L420.071958,325.288725L418.868309,326.002627L420.231810,327.633546L423.197680,329.885347L422.238903,330.705666L419.982923,331.015692L417.649557,331.265200L416.247278,331.858125L418.434233,333.908818L420.340494,335.884467L419.432214,336.696243L417.431802,337.024543L415.845072,337.510354L415.311232,338.453054L415.069387,339.528763L415.445133,340.897814L414.562824,341.680098L416.007147,343.586928L417.531109,345.566515L416.540416,346.314296L413.881751,346.198356L412.856133,346.895895L419.237915,351.513517L427.522654,357.281865L423.468314,356.441849L417.964960,354.730259L411.285946,352.261389L409.694091,352.610136L408.253543,353.027925L410.305291,355.506819L406.800619,354.676330L405.010123,354.842209L404.695433,355.904957L406.986034,358.623253L406.751607,359.773310L403.101902,358.699010L401.802633,359.122805L401.298524,360.067854L401.217406,361.303995L400.978421,362.441313L400.728666,363.578789L402.010084,365.818898L402.775234,367.724936L401.403174,368.087303L401.475216,369.513272L400.992486,370.534596L404.106685,374.327299L401.851025,374.013491L398.060978,372.449424L394.533089,371.025145L393.142649,371.276921L392.578947,372.195419L393.253372,374.154835L391.466068,374.053218L390.596773,374.717106L390.488798,376.042906L390.643103,377.616263L388.810552,377.423403L387.818550,377.969442L388.141936,379.726068L387.285236,380.402420L387.431621,382.030544L386.929561,383.056576L384.923673,382.617219L384.047918,383.265537L383.624420,384.365928L383.669297,385.954194L382.015143,385.806736L381.437044,386.763699L380.066678,386.883016L378.708401,386.997845L377.995914,387.802537L378.896600,390.401416L376.971575,389.870596L375.989712,390.381734L375.527134,391.488994L373.921831,391.264771L373.171884,392.033857L373.690558,394.339352L376.167844,399.094009L374.215125,398.453766L370.913239,396.071623L369.530916,396.058584L368.577295,396.582779L367.381371,396.783701L366.577027,397.495248L365.579390,397.946516L364.770916,398.652898L363.845575,399.198236L363.339536,400.336175L362.279214,400.691564L361.891324,402.022190L361.084983,402.753849L360.021282,403.101698L359.070152,403.614127L358.562107,404.812515L358.236847,406.318437L358.423216,408.673205L355.965933,406.781208L355.860570,408.699584L354.106858,407.892329L353.155446,408.410526L351.569969,407.827845L350.271693,407.714737L349.767979,409.004464L348.916648,409.686421L347.431651,409.199887L346.790127,410.268788L346.391945,411.823532L345.882241,413.197488L345.260603,414.380189L343.028980,412.337137L341.993442,412.661577L342.327944,415.846832L342.439006,418.655582L340.682159,417.498504L339.000411,416.446724L336.969679,414.552068L336.099254,415.230870L335.492872,416.537249L334.446334,416.828377L333.067956,416.306967L332.666905,418.174334L331.854644,419.060119L330.493600,418.546773L329.388582,418.671389L328.856071,420.329837L327.606051,420.065966L326.716344,420.789586L325.630427,420.963978L324.545948,421.134273L323.300395,420.809994L322.222077,420.970842L321.277030,421.545398L320.239885,421.833560L319.245904,422.263920L317.845400,421.312341L316.942441,422.038297L315.963376,422.513760L315.016360,423.118381L314.049106,423.664515L313.093388,424.271851L312.786969,427.520476L312.108158,429.404154L310.778227,428.595841L309.122638,426.274500L307.538556,424.108177L306.791407,425.743756L305.787840,426.221392L304.814562,426.872789L303.775484,427.210180L302.388024,425.642209L301.209284,425.123945L300.262233,425.929407L299.317826,426.807869L298.153411,426.314979L297.084304,426.411161L296.027138,426.587412L294.908450,426.299247L293.881784,426.701482L293.201332,430.086392L292.179311,430.793108L290.835737,428.464200L289.597338,426.870290L288.532356,426.954497L287.452734,426.858355L286.384067,426.873893L285.320743,426.954776L284.268113,427.213280L283.228293,427.760137L282.183022,428.337312L281.100120,428.155339L280.021375,428.004013L278.951023,428.076534L277.888828,428.616310L276.801318,427.627691L275.733633,427.848132L274.663443,427.837402L273.595695,427.573953L272.522156,427.887059L271.435485,428.566473L270.373119,428.114969L269.290879,428.355097L268.205411,428.579430L267.062927,429.841613L266.019969,429.078706L265.020629,427.798532L263.800318,429.808024L262.576303,431.493943L261.489963,431.298046L260.675597,428.208515L259.658966,427.550182L258.658074,426.818030L257.586112,426.781604L256.429956,427.426310L255.329408,427.554356L254.398093,426.410833L253.352964,426.161608L252.202933,426.619349L250.682321,429.373489L249.989661,426.846053L248.934803,426.622354L247.977142,425.859351L247.024484,425.114006L245.994160,424.810916L244.839716,425.132906L243.712849,425.285117L242.736747,424.712558L241.668571,424.575980L240.736372,423.842534L239.729160,423.455447L238.545047,423.798884L237.607495,423.130361L236.288362,423.953385L235.348031,423.298516L234.435033,422.564810L233.465720,422.054467L232.495191,421.559766L231.494692,421.175813L230.361384,421.230889L229.311491,421.001422L228.362826,420.451908L227.034951,421.067687L225.539986,422.136617L224.045675,423.139514L223.340016,421.840194L222.382941,421.280856L220.791184,422.456163L219.839359,421.861882L218.261466,422.908327L217.886196,420.824977L217.614954,418.549418L216.774557,417.743791L215.999865,416.795876L215.237531,415.839544L214.367815,415.151971L213.119186,415.333618L211.306519,416.747619L209.196538,418.742696L208.329416,417.983098L208.866370,414.277036L208.341977,412.881482L207.123772,412.928402L205.567747,413.631692L205.018653,412.318285L204.069550,411.804400L203.197374,411.145231L201.549257,411.937909L200.263152,412.023656L199.910340,410.406475L199.850488,408.305073L198.471640,408.556296L196.847831,409.203026L195.532852,409.290033L193.932669,409.831156L193.880877,407.802751L192.615409,407.775631L192.128171,406.496740L191.433767,405.562880L190.806905,404.535693L189.875007,403.983917L188.879309,403.526027L188.153399,402.667213L186.982424,402.460344L184.200462,404.539720L184.432418,402.302989L184.505557,400.333031L183.595765,399.743377L183.116874,398.572750L182.052436,398.193409L180.643474,398.256323L179.850174,397.505874L178.074304,398.004769L177.618964,396.818316L176.911620,395.956902L174.739236,396.881382L174.062567,395.967566L171.037739,397.833969L171.374178,395.712240L172.192041,393.076594L172.672318,390.876647L171.890268,390.127439L171.675493,388.754450L170.198496,388.769717L169.856554,387.549224L169.004764,386.880293L167.710315,386.670067L166.824299,386.025695L165.254571,386.070164L163.613980,386.162900L164.417062,383.826671L163.906386,382.808498L163.976123,381.241552L163.561939,380.153063L162.472561,379.701336L162.187566,378.502300L161.098610,378.041917L159.190392,378.302964L160.361127,375.826238L159.781804,374.913721L158.365290,374.719934L156.980080,374.482348L157.222103,372.875999L156.897705,371.755648L156.431282,370.758261L155.203363,370.371835L154.786464,369.336154L153.885851,368.680132L152.930437,368.060411L150.922027,368.225125L152.212605,365.917414L151.420798,365.170924L150.936450,364.199932L150.575676,363.144377L148.854426,363.043763L148.573538,361.929760L147.582829,361.303301L144.872335,361.816324L144.122474,360.998480L142.917385,360.472258L142.576655,359.383194L144.442257,356.914755L145.104260,355.237390L143.998168,354.658837L141.293622,355.026479L140.224540,354.389960L141.596015,352.329065L142.377435,350.640494L142.036417,349.606058L141.344005,348.768906L139.306317,348.658798L137.129175,348.595538L134.339611,348.823796L133.207958,348.156080L131.991668,347.520300L132.510166,346.007543L135.369262,343.366529L135.763451,341.969017L136.196606,340.567981L135.813945,339.560639L135.425383,338.557166L134.342449,337.864986L133.124657,337.221152L131.928212,336.555074L132.117411,335.291598L132.074587,334.134204L130.602559,333.562535L130.511827,332.424573L129.019537,331.837355L128.964196,330.684570L128.779528,329.585429L130.647362,327.739554L131.109053,326.431796L128.865912,326.082515L127.573826,325.378608L126.647390,324.537913L126.823834,323.328487L125.274988,322.676415L125.838857,321.349115L126.037588,320.146120L126.711018,318.810751L127.062119,317.583087L125.725619,316.838266L121.627839,316.830795L121.730773,315.651914L123.343821,314.089608L124.391191,312.697067L126.659853,311.027424L126.644032,309.933090L126.389293,308.896631L125.823542,307.928567L125.764526,306.847441L125.454889,305.820368L123.713330,305.076599L124.770309,303.774520L124.768830,302.685771L124.559392,301.636629L124.141062,300.622635L123.910798,299.574609L124.310558,298.427797L123.862362,297.414829L122.066959,296.587863L123.726787,295.274327L123.633134,294.208998L123.200864,293.184816L122.990279,292.131318L122.896426,291.064207L122.704371,290.007036L123.111251,288.893848L122.786547,287.849538L122.762904,286.778625L122.815605,285.703171L121.694812,284.703792L122.342127,283.590119L119.395437,282.663385L119.226667,281.578721L120.896635,280.427574L119.766530,279.379369L122.076783,278.242802L122.503962,277.165661L122.326144,276.099072L121.584806,275.030211L121.672299,273.956612L121.804041,272.884747L121.236351,271.799963L120.752973,270.709258L122.007969,269.671897L121.170914,268.564083L122.226714,267.536367L122.032060,266.452870L119.885636,265.243027L119.596101,264.131907L120.867147,263.135766L122.355467,262.174616L121.850201,261.051619L122.144997,259.998628L122.852431,258.991736L121.820471,257.797939L120.252915,256.523853L123.196083,255.796286L123.728493,254.786547L122.504408,253.535141L122.246631,252.407028L124.493055,251.661282L124.447231,250.573501L124.559941,249.509466L124.700700,248.449437L124.532982,247.332034L125.006137,246.331887L124.967768,245.234211L124.586936,244.062503L124.819119,243.012642L125.308713,242.019615L125.094642,240.870178L125.943030,239.963802L126.272611,238.940552L125.031777,237.526029L123.173483,235.930250L125.013410,235.281968L127.054475,234.711864L127.332796,233.674910L127.556752,232.622165L127.643877,231.527949L129.111234,230.848140L129.082551,229.721814L129.163640,228.625088L128.071323,227.142404L126.000181,225.311189L124.555608,223.656166L125.566166,222.830065L129.641092,223.108057L131.670272,222.698144L131.918605,221.650613L132.625019,220.775548L132.836402,219.713207L132.742582,218.526874L133.408666,217.640452L134.027995,216.739018L133.334079,215.287514L134.747073,214.723163L134.710635,213.540267L135.775293,212.841179L136.073767,211.804135L135.517354,210.368532L134.780826,208.830769L132.424707,206.494268L134.446343,206.250202L138.105733,206.848211L138.980055,206.090883L137.871080,204.318179L136.193221,202.218761L140.233226,203.129594L140.911188,202.280734L141.180249,201.209458L141.953788,200.416461L142.585366,199.547198L143.069496,198.594458L143.694227,197.723514L143.334355,196.265366L143.671628,195.213434L144.976662,194.754524L145.155997,193.604314L144.889539,192.162662L146.443394,191.881281L146.884516,190.888660L148.082945,190.397892L148.619155,189.471224L149.363732,188.686426L150.073382,187.880163L150.455466,186.844112L150.668274,185.681514L150.643548,184.336979L150.169038,182.645532L148.603575,180.110782L150.161299,179.906240L150.045760,178.428242L153.976529,180.105253L154.935925,179.492488L154.536223,177.789619L152.752160,174.928539L154.037142,174.557744L157.910799,176.381038L158.599079,175.559279L159.358073,174.798599L160.515177,174.389191L160.768447,173.185431L161.526109,172.426062L162.251735,171.638328L161.938658,169.884943L162.480440,168.910176L161.884090,166.841843L164.381488,167.737118L165.441991,167.266886L166.707606,167.009627L166.989328,165.771612L168.603473,165.886365L169.208482,164.976034L169.738248,163.981525L170.720564,163.463736L170.570172,161.723326L169.020638,158.414997L170.058961,157.920628L169.654986,155.801157L171.525375,156.252197L175.781942,159.514361L174.389696,156.221348L165.072115,143.363335L155.020181,129.264300L171.263436,147.181020L178.835427,154.800507L180.151228,154.728447L181.240155,154.381823L181.827310,153.389365L182.806897,152.906603L183.747818,152.376692L184.124865,151.081107L184.634386,149.949197L186.501126,150.708478L187.462354,150.218467L188.034878,149.169757L189.294542,149.116941L189.867820,148.057364L186.642834,141.233227L175.131662,121.479446L156.943601,90.709999L158.164747,89.773624L174.185538,112.664501L184.915586,127.650368L194.203679,140.739356L197.289449,143.796338L197.360335,141.797713L198.224053,141.133868L198.896944,140.127669L199.587436,139.137437L201.527332,140.420226L202.456420,139.881148L203.574332,139.698691L204.651675,139.449026L203.776668,135.380626L201.546504,128.483453L201.739025,126.277363L204.488174,129.293438L208.654200,135.418040L210.361570,136.517531L211.131422,135.628972L212.329750,135.676344L213.175311,134.943108L214.328122,134.907711L215.265062,134.379385L215.682321,132.599116L216.214424,131.045152L216.911177,129.855952L218.244518,130.257807L219.787862,131.240089L221.285365,132.158961L222.298016,131.816800L223.342317,131.563708L224.400170,131.353968L224.921949,129.594295L225.227947,127.127967L225.839978,125.491947L227.342677,126.567548L229.132967,128.630370L230.332331,128.880053L231.380366,128.650904L232.269181,127.877561L232.998115,126.513548L234.183566,126.748897L235.440730,127.281346L236.604277,127.500830L237.554844,126.906868L238.508041,126.303482L239.259473,124.830648L239.940111,122.972388L241.387343,124.441335L242.756471,125.664591L243.799626,125.426963L244.828474,125.116866L245.650840,123.735147L246.887337,124.479253L247.888006,123.985751L249.036149,124.322616L250.112001,124.266951L250.928725,122.581295L251.735682,120.686421L253.015504,121.911595L254.078488,121.692271L255.243566,122.254247L256.378082,122.647759L257.407852,122.196134L258.550760,122.748567L259.556443,122.035491L260.737893,123.103263L261.725672,122.130653L262.763664,121.631828L263.880635,122.138722L264.989313,122.644680L266.045204,122.389101L266.679791,113.924806L265.812526,69.169712L267.293048,70.150523L269.730224,102.855747L271.329570,119.510266L272.370102,116.581757L273.455004,114.028995L274.574937,111.256893L275.711268,113.564446L276.754440,121.211485Z" />
<line x1="50" y1="575" x2="100" y2="575" fill="none" stroke="blue" stroke-width="1.0" stroke-linejoin="round" stroke-miterlimit="10" />
<text x="125" y="578" style="text-anchor:start;fill:black">n1_4mer:GRV/n1_4mer:RV</text>
<path style="stroke:green;stroke-width:1.0" d="M276.321470,180.627547L277.061531,176.862962L277.937304,170.143715L279.019877,160.216631L279.674491,163.791617L280.102069,170.982165L280.428230,178.190216L280.887201,181.697139L281.358619,184.331773L282.218176,181.464463L282.983537,180.203687L284.121644,175.062524L284.618723,177.187363L284.750107,182.505400L285.351436,182.985308L285.991323,183.094487L286.896183,181.108746L287.729871,179.874836L287.880525,183.620433L288.684567,182.601856L289.301238,182.892762L290.388710,180.268622L290.911639,181.203824L292.520265,175.932919L293.561257,174.168748L293.398109,178.841402L293.777822,180.448475L294.274111,181.385008L294.802520,182.116004L295.782031,180.762108L296.706305,179.747231L296.560385,183.354438L296.605363,185.964453L297.062009,186.782587L297.602355,187.237375L298.050769,188.022341L298.417476,189.072832L299.361192,188.015419L300.025973,187.992253L301.403179,185.566126L302.368088,184.632626L301.873663,188.454260L302.734064,187.842894L305.255865,182.172321L306.109599,181.773543L306.481301,182.814386L306.528204,184.748265L306.835510,185.877801L307.519716,185.935882L308.624537,184.873779L310.957983,180.641931L311.336290,181.619387L310.500505,185.624084L311.500079,184.950517L311.539775,186.634882L312.968104,184.971012L313.984669,184.338747L313.511316,187.139865L312.540863,190.959208L314.254650,188.749455L315.180418,188.330073L314.116319,192.150534L315.091875,191.601810L315.697696,191.837826L317.877850,188.914785L320.469422,185.291186L322.320726,183.237632L326.028040,177.726611L328.434793,174.849587L328.274413,176.811758L326.342276,181.933325L328.411718,179.764826L324.281591,188.553324L322.796501,192.506252L321.245373,196.456390L325.901645,189.916360L325.676303,191.623681L325.024076,193.980383L324.023448,196.830735L325.247480,196.111575L328.733127,191.928552L329.682444,191.745016L327.935110,195.622216L326.104672,199.517374L326.528767,200.027140L332.161143,193.067127L336.352071,188.359122L339.606859,185.104000L342.018306,183.113114L342.551679,183.731002L343.975506,183.159067L340.230176,189.400754L337.631759,193.993420L332.815229,201.295309L332.039179,203.323823L331.676166,204.794545L333.751609,203.257287L336.965169,200.404821L340.813781,196.890973L336.918995,202.548994L334.127152,206.788559L335.150169,206.582186L336.464654,206.066402L336.300111,207.212473L333.862794,210.816847L335.243975,210.227173L338.573255,207.600150L338.728880,208.375953L340.957076,207.006070L337.989092,210.968936L340.521503,209.320893L341.772356,208.997816L344.322704,207.429935L348.020557,204.815851L345.901012,207.801744L344.161560,210.363557L344.255283,211.178517L351.273141,205.692547L350.390394,207.452319L352.200432,206.798983L348.493903,210.984012L350.374646,210.268371L349.657802,211.786855L348.330889,213.786718L351.392837,212.133086L350.921901,213.407144L348.560736,216.171907L346.280500,218.809203L348.052135,218.237424L348.430566,218.763489L352.584752,216.439286L352.526646,217.330759L350.616775,219.569609L349.203235,221.400468L352.431301,219.889623L351.359592,221.453900L350.159243,223.076826L356.665558,219.422642L357.837917,219.469426L360.428522,218.595716L355.586374,222.599256L355.907472,223.192844L358.725887,222.211057L358.393440,223.233110L361.654790,222.045522L362.937553,222.103692L361.951237,223.522617L357.835795,226.739128L355.162039,229.045633L359.765010,227.192308L366.570399,224.195846L370.239343,223.029027L361.965519,228.331192L360.418559,229.928790L359.800510,231.011187L357.645578,232.860751L357.128331,233.846461L357.752927,234.255863L355.838390,235.899321L355.875171,236.577935L357.423312,236.547475L359.228102,236.421271L363.407701,235.253393L367.635364,234.129986L368.337108,234.598725L365.847579,236.429330L363.545298,238.136368L359.352765,240.572811L365.143932,238.943458L373.275219,236.487010L366.101514,240.032141L362.861341,241.979768L361.486900,243.185604L359.818430,244.471873L361.797120,244.444445L366.900599,243.369290L371.657351,242.487230L374.943539,242.158992L377.726910,242.039506L377.446172,242.918972L369.058716,246.267094L366.236208,247.826258L363.921356,249.192150L364.817612,249.612513L366.343642,249.870483L369.625585,249.678923L368.910848,250.573501L367.608076,251.603397L365.726991,252.753251L367.546934,252.992778L369.507336,253.224590L372.759815,253.194869L374.033395,253.637583L372.482470,254.685376L367.320987,256.434502L366.856970,257.196056L368.445788,257.566064L366.269227,258.632577L366.881594,259.185963L368.782795,259.534036L369.796870,260.047824L374.697562,259.989494L368.558977,261.582956L366.497995,262.531694L367.438884,263.062118L366.952017,263.778978L366.308890,264.505761L367.164801,265.060716L362.831315,266.149718L365.619768,266.509241L365.357302,267.171640L365.833524,267.770773L370.496701,268.072160L372.291016,268.626449L368.657953,269.522746L366.550337,270.288957L369.925460,270.781456L371.590674,271.384895L369.823523,272.115734L365.892036,272.872187L365.913378,273.508498L369.494609,274.111488L377.564151,274.753770L375.408205,275.461985L375.597633,276.167268L369.712221,276.762285L365.431964,277.316140L363.415524,277.884088L364.818712,278.559573L365.922152,279.241107L366.150037,279.891556L365.325782,280.481834L366.929243,281.225471L367.108265,281.885791L371.474818,282.891861L375.166400,283.900292L371.726073,284.277639L371.525022,284.940889L365.241846,284.932825L362.818510,285.288916L366.832432,286.411553L368.667826,287.306188L370.233083,288.190779L372.172370,289.153507L370.441975,289.584617L368.384961,289.940138L360.254369,289.252277L363.830606,290.490243L371.596098,292.542160L372.800357,293.469129L382.481420,296.077795L382.250466,296.813412L377.516671,296.599186L373.015911,296.368744L371.226770,296.685560L364.048882,295.724171L365.634585,296.763285L365.021166,297.283774L366.207553,298.256386L360.573082,297.458961L360.643991,298.119728L366.263057,300.323483L368.423039,301.628704L372.887255,303.643717L368.987930,303.218609L363.487370,302.243991L361.450077,302.280863L365.350054,304.208731L365.431496,304.936014L368.304059,306.613514L365.101765,306.233486L359.510358,304.959692L363.624109,307.118316L372.473383,311.099488L371.471966,311.498745L366.129522,310.208859L363.456376,309.889808L360.675626,309.488137L363.717265,311.436414L363.559963,312.098581L362.863369,312.532069L362.840948,313.251954L357.212254,311.487731L358.436436,312.732522L355.720438,312.187212L353.137983,311.662875L357.124675,314.237393L359.300746,316.004512L362.155486,318.150292L363.861103,319.772138L359.651870,318.397163L353.101826,315.732324L354.779897,317.320638L359.469714,320.569136L361.836547,322.633928L357.884088,321.223703L351.881016,318.584348L352.145074,319.450649L352.954564,320.647063L356.367104,323.413530L356.156016,324.060571L354.613277,323.892346L354.784085,324.769894L360.191970,328.975633L360.632470,330.098743L353.670306,326.401475L350.316503,324.966120L352.241471,327.025677L354.742547,329.525763L353.660598,329.598128L355.382089,331.631064L355.371615,332.469937L358.417221,335.534865L357.526931,335.775448L357.804521,336.878734L357.538546,337.585373L360.136564,340.499203L358.831542,340.434660L353.911101,337.488057L346.865884,332.732399L342.866415,330.305764L345.331817,333.139069L351.831218,339.422575L348.930553,337.877191L345.638409,335.934727L345.621243,336.787600L348.375273,340.109774L345.284167,338.251988L341.175455,335.398309L345.508559,340.263901L343.595512,339.390772L345.834644,342.431835L343.058370,340.703415L340.691016,339.312665L339.675961,339.211933L340.202648,340.647744L343.130623,344.563147L343.217269,345.634237L343.959119,347.410186L338.113111,342.207656L335.030598,339.828863L335.987468,341.794311L338.852039,345.922587L337.314650,345.197218L335.607814,344.245021L337.759110,347.724102L333.971868,344.310794L332.044326,343.004374L334.355172,346.773915L339.632690,354.279437L336.891985,352.012437L331.165067,345.897365L330.112165,345.577976L331.013134,347.776548L330.303024,347.904384L332.096887,351.373929L329.919740,349.544449L330.851129,351.930863L328.481967,349.763047L326.795521,348.487510L326.697705,349.450320L326.368575,350.093216L326.507916,351.439982L326.374301,352.405740L324.723060,351.068471L324.616410,352.078369L323.764425,351.933093L323.518435,352.743522L322.187475,351.802949L322.241011,353.111043L320.914397,352.132013L321.434110,354.262538L320.561809,354.037212L318.755792,352.147706L319.887938,355.451340L320.072520,357.128406L317.523254,353.786218L317.594660,355.257943L318.678588,358.710546L317.052414,356.988632L317.673871,359.654728L315.445945,356.652412L316.307788,359.881371L317.105755,363.083222L319.618830,370.045054L317.834079,367.929225L315.316103,364.102251L311.252398,356.638267L310.674705,356.878168L310.531714,358.134770L310.855619,360.545129L311.094726,362.835642L311.933695,366.698299L311.779457,368.192969L310.267618,366.227687L307.833281,361.731497L305.358246,356.921293L306.041964,360.601037L305.902867,362.115907L304.182276,359.130459L303.219347,358.232111L303.381768,360.679330L302.861254,361.123502L303.530720,365.348187L302.645895,364.729341L301.808579,364.227163L300.817579,363.164198L300.417323,364.105922L300.036463,365.159140L298.986115,363.783300L297.951875,362.380472L297.842387,364.509638L299.020211,371.953370L298.991330,374.826054L297.476244,371.490462L295.842105,367.398452L294.574285,364.699310L293.961864,364.910540L293.975516,368.202509L293.640738,369.954301L292.813527,369.226049L292.254960,369.907368L290.548909,364.062473L289.942119,364.271804L289.809167,367.448561L288.579726,363.747871L288.471216,367.359375L287.869493,367.777872L287.066264,366.700592L286.315715,365.913587L286.371871,371.895235L285.790118,372.851773L284.689890,368.904767L283.744640,365.978988L283.059335,365.498075L282.536069,366.900710L282.232438,371.487356L281.478226,370.380479L280.694015,368.514693L280.033281,368.444016L279.160960,363.824800L278.794005,370.255844L277.986996,366.015375L277.414778,368.556989L276.751995,368.164056L276.090842,367.428234L275.432836,365.178716L274.799996,365.825655L274.155126,366.793336L273.478495,368.879365L272.770902,371.034015L272.120689,370.283540L271.405053,371.565390L270.702377,372.140020L269.849628,375.476825L269.308981,372.646076L269.034932,366.333784L268.488203,365.009558L267.708173,366.850811L267.310958,363.954769L266.433996,366.618806L265.598333,368.489531L265.091557,367.050364L264.412691,367.280299L264.072568,364.694356L263.155347,366.860649L263.237418,361.447453L262.054591,365.398005L260.596032,370.798302L259.207005,375.257089L259.415244,369.620217L259.088872,367.555703L258.681294,366.101739L258.491899,363.580926L256.903550,368.465513L256.345231,367.860355L255.093625,370.618549L254.624680,369.548472L255.543950,362.309720L254.631543,363.481368L253.237698,366.597825L251.655822,370.284383L252.278765,365.010144L250.934655,367.597855L251.704960,362.123541L250.258743,365.002264L250.718263,360.970865L249.017769,364.588679L248.654609,363.519291L248.343118,362.324830L248.061293,361.084873L247.672377,360.229327L246.658253,361.308958L246.333741,360.278108L244.315622,364.208696L244.365269,362.077260L243.484800,362.615510L242.393310,363.695120L241.149479,365.124971L239.376192,367.865597L239.417926,365.849404L239.410460,364.027683L240.037630,360.712722L239.998086,359.120606L238.905182,360.063046L238.174459,360.122648L236.048457,363.334503L234.017934,366.204157L232.308189,368.257038L232.341651,366.485967L233.934168,361.484401L234.860322,358.028539L234.921387,356.442049L233.765684,357.330369L234.147170,355.161941L234.359350,353.384103L230.969349,358.486684L230.754825,357.488501L228.135159,360.922701L226.342292,362.742690L229.979651,354.860011L231.331737,351.209284L229.908872,352.430555L229.924344,351.172499L230.026699,349.799579L229.171792,350.026847L227.417577,351.686504L227.217051,350.819517L226.680342,350.494053L224.271852,353.048036L221.997298,355.311267L222.046986,354.026775L222.326667,352.431443L224.525844,348.092825L225.224955,346.011876L223.263430,347.721605L223.395216,346.471614L222.683327,346.398864L222.275255,345.909013L221.743498,345.586574L222.473645,343.614282L221.574240,343.785932L220.809439,343.771211L219.251600,344.738180L218.562562,344.595375L219.867298,342.021731L218.246425,343.015816L218.746495,341.464901L219.095979,340.121796L216.018810,342.740845L215.758360,342.085685L213.724959,343.416806L214.142513,342.000658L212.103057,343.279244L211.235773,343.255460L209.184739,344.469449L211.151487,341.455296L211.320218,340.357488L213.082985,337.664414L208.996283,340.871504L210.780554,338.199519L210.137347,337.944619L208.676853,338.466294L210.687864,335.684994L208.845454,336.553603L207.815380,336.640038L207.134612,336.395034L206.570492,336.039590L207.437485,334.422027L206.403895,334.484460L202.600848,336.899572L201.264062,337.154120L204.352533,333.709584L203.325986,333.719144L202.187917,333.804367L200.943400,333.957530L198.847185,334.760023L197.734329,334.763936L197.979893,333.716708L198.534452,332.451860L199.974154,330.552575L199.954845,329.757523L199.319789,329.412998L201.169883,327.302552L199.724487,327.538818L198.479462,327.614871L197.043029,327.802490L193.233908,329.551286L191.886346,329.613256L188.021939,331.284555L188.869709,329.884198L189.600527,328.581478L193.056934,325.616731L197.395257,322.189443L191.998978,324.678105L190.319309,324.881459L193.247322,322.388825L194.910154,320.678769L189.989912,322.699282L191.449968,321.113864L193.674942,319.145799L191.703759,319.463589L188.368814,320.467264L190.811832,318.435980L186.777614,319.738050L190.297234,317.210276L188.313509,317.443767L190.031002,315.867792L183.987103,317.992694L181.540459,318.350662L183.188779,316.807465L181.488916,316.793512L181.726758,315.906111L183.247089,314.475687L185.206286,312.889896L188.176808,310.922376L191.335078,308.931556L192.816236,307.662656L186.839363,309.325261L185.616598,309.082575L183.125448,309.297604L187.640806,306.916874L192.037764,304.653685L187.939265,305.432881L186.468570,305.253042L189.841448,303.436149L189.471283,302.895670L182.823951,304.351299L180.703389,304.300959L177.068516,304.680149L181.732915,302.554988L182.971611,301.489854L187.139236,299.625404L187.132128,298.965125L185.222841,298.811781L186.355850,297.848163L187.682980,296.855266L186.963222,296.381524L182.012243,296.895645L182.960442,295.993312L184.522190,294.971681L183.566081,294.512361L185.024371,293.543448L178.478750,294.188941L179.138927,293.360927L182.995822,291.955247L186.807727,290.615098L186.042183,290.109040L183.841310,289.826931L186.045007,288.829897L181.051792,288.933214L181.952702,288.134456L184.265572,287.160642L183.399709,286.624405L185.774751,285.688761L184.310260,285.220628L186.039189,284.395472L184.460853,283.921623L182.003923,283.506709L180.170707,283.005289L183.852446,282.052111L181.936604,281.545175L177.976475,281.141319L181.247943,280.275465L176.015951,279.874875L175.395022,279.206582L177.911886,278.419477L177.010390,277.764434L179.070093,277.034234L179.899374,276.350565L181.969320,275.669711L182.266121,275.018262L181.661187,274.364834L183.376292,273.734906L180.846829,273.040541L177.941269,272.300084L180.601806,271.712487L177.620323,270.925819L180.024740,270.360050L178.197817,269.591148L176.446343,268.800797L179.208773,268.300889L182.353714,267.868638L184.566493,267.401664L184.371437,266.745848L183.210125,265.991633L184.612347,265.489829L183.802055,264.758471L182.833996,263.995769L183.907087,263.476435L178.217557,262.067576L176.683034,261.161175L176.872424,260.486450L182.452886,260.648961L185.132441,260.419399L184.548387,259.673896L181.848082,258.544595L181.551889,257.816705L182.023753,257.229583L180.083267,256.168903L178.063981,255.061853L179.588602,254.678115L182.689128,254.661821L180.537894,253.493265L181.446411,253.010005L179.874817,251.936584L176.172379,250.305013L171.043666,248.248758L169.288482,247.006474L175.110391,247.798325L177.232580,247.639508L185.457607,249.263909L188.917417,249.604473L188.736248,248.893089L187.181697,247.749980L185.312543,246.480035L182.578734,244.896553L177.320602,242.425644L176.118792,241.253708L176.770997,240.706557L183.564162,242.358153L188.149668,243.307806L187.626081,242.421725L191.045581,243.025405L190.160100,242.006139L186.540121,239.883336L183.235274,237.825527L188.054461,239.067103L188.775707,238.656278L190.390841,238.637319L188.609912,237.153141L191.823008,237.864466L192.349520,237.403295L190.600316,235.892085L188.738907,234.293511L185.473120,231.983399L186.263424,231.595782L192.931966,234.143042L190.075126,231.976177L187.398939,229.846851L186.046632,228.358644L194.008803,231.807824L194.801130,231.506416L195.035476,230.906168L194.941434,230.120472L197.062326,230.589381L194.305635,228.267088L194.754414,227.773616L194.949343,227.130572L191.628616,224.348977L195.719767,226.071244L195.325792,225.054399L193.691196,223.233179L196.542811,224.273233L195.841421,223.030215L199.378852,224.591420L194.957255,220.830730L197.676003,221.877517L198.850147,221.895522L199.326480,221.436298L197.579722,219.382160L198.461601,219.199096L194.468749,215.420063L192.789811,213.282586L194.362314,213.575613L193.240081,211.811276L201.280614,217.196481L202.732382,217.513192L200.318834,214.734710L196.840190,211.018776L193.807116,207.580988L200.453530,212.212865L201.715943,212.393799L197.967758,208.253114L199.088447,208.287902L199.761349,207.939800L203.060375,209.970674L204.402871,210.280270L205.340481,210.236358L204.505208,208.533512L206.103761,209.123411L207.603373,209.647861L209.460152,210.551842L208.611089,208.796243L206.944973,206.177719L212.375257,210.775973L210.385948,207.800906L211.469681,207.995234L211.448777,207.026234L212.190801,206.869875L213.226488,207.044645L211.848548,204.543938L213.672978,205.607915L213.952381,204.941562L209.564152,198.835430L205.614626,193.084920L201.892733,187.455364L196.703040,179.895153L205.770993,189.699497L214.144766,198.934895L216.875357,201.295924L218.760754,202.650527L220.674373,204.093235L217.730702,199.156983L219.702521,200.692081L218.752195,198.299528L218.452457,196.747717L220.364972,198.268280L221.954508,199.385700L222.270742,198.705789L221.942312,197.069560L219.426692,192.133307L217.924184,188.591075L212.791696,179.371561L211.713139,176.207086L211.640651,174.552383L213.603765,176.137314L215.460088,177.611522L223.314055,189.112571L227.660181,195.073174L227.393351,193.323778L227.036555,191.371192L226.348935,188.778987L226.299320,187.261315L229.505990,191.668692L230.002366,191.187914L230.041682,189.835669L232.197138,192.525121L231.360826,189.453957L229.137079,183.517943L226.693608,176.936139L228.036871,177.954774L233.373286,187.423419L235.040266,189.389586L236.074235,190.058015L237.657217,191.982411L237.661514,190.413851L239.724690,193.548772L239.115826,190.525909L237.982355,186.133655L237.923496,184.206596L238.136359,182.890403L238.299371,181.403234L240.148065,184.253449L241.765725,186.621510L243.089337,188.303629L242.596612,185.026513L243.881467,186.658719L244.911680,187.636110L244.813089,185.315136L244.783486,183.103945L246.737382,186.973869L247.919766,188.582292L248.725796,189.050020L248.877380,187.355481L249.370733,186.758297L248.937553,182.863177L250.201427,184.928051L250.899999,185.007953L251.887905,186.213681L252.054103,184.250487L253.636783,187.949702L254.158455,187.431025L254.115314,184.439279L253.933558,180.638658L255.215266,183.367309L254.988670,179.066679L256.433599,182.767661L257.311108,183.831881L257.734918,182.559343L257.699072,178.633546L258.514872,179.330991L260.082994,184.655820L260.360109,182.300579L260.483961,178.714267L261.802013,183.096196L263.050923,187.440083L263.793890,188.360594L264.087750,185.723172L264.745842,185.933278L265.046454,182.871631L265.707872,182.963832L266.578304,185.305812L266.611935,178.401654L267.427480,180.087316L268.323766,183.219784L268.865617,181.639187L269.885990,187.845172L270.273102,183.489559L271.067868,186.907028L271.834754,190.868302L272.198731,183.492817L272.829785,183.063605L273.506661,185.045122L274.136370,185.019526L274.751009,179.083542L275.416424,180.484786L276.068141,181.370245Z" />
<line x1="50" y1="625" x2="100" y2="625" fill="none" stroke="green" stroke-width="1.0" stroke-linejoin="round" stroke-miterlimit="10" />
<text x="125" y="628" style="text-anchor:start;fill:black">n0_4mer:PS</text>
<path style="stroke:red;stroke-width:1.0" d="M276.775567,148.198333L277.739551,144.586569L278.821113,138.593397L280.027029,131.458475L281.074470,130.485456L281.797017,136.426623L282.421778,142.636294L282.957381,148.888043L283.577058,152.698827L284.876604,147.015659L285.603967,149.088765L286.797725,145.743173L287.408546,148.817698L287.771875,153.839336L288.833365,152.034172L289.386165,154.708032L290.356802,153.795630L291.651757,150.568166L292.393361,151.604576L293.498524,150.098041L294.391243,150.110547L294.956243,152.151337L295.801389,152.379650L297.290259,148.961335L298.691800,146.297841L299.288970,148.052537L300.164826,148.288145L300.302273,152.106031L301.553038,150.452600L302.780826,149.025476L304.517149,145.471270L304.014731,151.668650L304.161168,154.827037L304.940099,155.281158L305.432690,156.832985L306.159999,157.423718L306.746642,158.510114L307.463180,159.086290L308.753830,157.648132L309.474725,158.225872L310.222733,158.697177L310.701579,160.024250L312.033867,158.617321L313.864563,155.760069L315.273631,154.311594L314.889059,158.194235L315.286091,159.678188L316.548041,158.687968L318.375555,156.204206L319.663383,155.285577L322.404446,150.605037L321.331179,155.933526L320.627881,160.127447L322.335314,158.218867L324.215391,155.981100L323.736617,159.436992L324.206260,160.567807L325.301295,160.242079L325.305871,162.382842L327.289241,160.109775L328.932046,158.667548L328.342014,162.020112L327.805523,165.155174L330.025679,162.559849L330.182122,164.211682L333.198431,160.177509L334.202521,160.196954L338.200999,154.521626L339.056625,154.941568L337.781848,159.288929L336.921810,162.756105L338.685548,161.446187L337.215096,165.866179L338.363516,165.638566L338.566926,167.037291L339.674808,166.894101L339.720870,168.516544L340.051415,169.641918L343.271599,166.139019L343.422850,167.576288L344.519021,167.523549L344.634506,168.980238L343.834107,171.781192L342.744937,174.939368L344.210817,174.300270L347.917132,170.483019L352.512802,165.537075L354.151968,164.865483L356.666974,163.028744L356.123621,165.393965L357.524975,165.117940L356.693014,167.797155L355.707321,170.614874L354.121989,174.132776L350.480915,180.149696L350.721550,181.202796L353.711793,178.883526L353.843018,180.086855L358.420577,175.994898L355.788425,180.469998L355.307494,182.354072L356.661023,182.114664L356.812604,183.245849L356.269296,185.129941L356.595396,186.029541L357.555253,186.238640L358.678952,186.284253L359.386059,186.780331L361.722044,185.599849L360.966174,187.611766L361.424725,188.367391L363.156777,187.860049L363.756458,188.487511L366.858964,186.709203L364.862602,189.830410L367.984839,188.098993L367.846362,189.438404L369.753614,188.899814L369.643047,190.202482L369.601314,191.426559L369.411847,192.763686L370.582342,192.914032L370.501160,194.138676L372.304352,193.774765L377.240410,190.862020L377.099041,192.170520L374.996677,195.030521L372.354985,198.254547L371.797901,199.786618L371.876534,200.807486L373.414324,200.717194L377.005553,199.121794L376.162271,200.843647L374.521288,203.112373L376.379908,202.844620L374.693821,205.091097L374.519103,206.248008L378.911153,204.283439L380.590931,204.216895L382.711274,203.883502L381.363164,205.838073L379.671432,207.976162L380.647205,208.389726L380.575129,209.463716L383.282910,208.828644L384.769980,208.971024L384.552425,210.142129L382.528960,212.352670L384.440861,212.261007L383.708158,213.688308L387.636211,212.508327L391.022131,211.688108L390.259289,213.147742L389.937232,214.353226L386.686450,217.064567L383.867467,219.490759L382.520401,221.122794L384.592563,221.041131L384.613462,221.981121L384.522057,222.968412L384.826000,223.763440L387.254835,223.584276L388.350947,224.039332L393.067316,222.909603L390.758053,224.893744L389.976873,226.184884L392.404561,226.121531L394.083273,226.398126L395.624115,226.751733L400.161245,225.950669L393.295109,229.594314L391.486837,231.221675L389.558496,232.859405L389.251846,233.878102L389.755294,234.602211L394.932273,233.721238L399.836296,233.008638L405.019821,232.276058L404.362582,233.493305L404.997917,234.291141L397.576433,237.555548L397.009294,238.660819L396.627227,239.699850L397.962792,240.243829L396.010516,241.708840L399.784566,241.608612L399.259289,242.679779L397.575079,244.032502L394.737259,245.639776L394.286877,246.634147L396.997428,246.890606L398.027106,247.559050L400.942586,247.833023L397.555253,249.460394L398.445853,250.175376L398.673450,251.029307L399.105604,251.845942L397.567394,253.019839L394.787150,254.383047L399.581677,254.454912L396.681674,255.807322L401.093100,256.015371L399.344199,257.168129L398.944259,258.110286L399.885864,258.871800L398.295551,259.954086L398.691055,260.784040L396.917804,261.852077L395.579064,262.849906L399.659464,263.319839L399.755485,264.191457L399.072469,265.125364L399.715696,265.952458L399.135065,266.867891L397.323125,267.846365L397.589809,268.691713L396.977748,269.579236L400.279770,270.311146L400.488827,271.182981L400.524046,272.061441L399.841478,272.951882L399.760179,273.826907L401.715363,274.695790L401.627591,275.582623L399.479565,276.444378L396.596817,277.262520L395.455791,278.085109L393.441757,278.863534L393.920610,279.712900L396.046479,280.646270L395.339493,281.458005L394.569348,282.256613L394.371277,283.083852L396.233277,284.063106L398.012348,285.062691L400.901440,286.186981L399.518262,286.943372L397.088892,287.573653L393.218985,288.012239L393.067508,288.832923L396.131759,290.052433L397.681433,291.118029L398.127281,292.054417L397.655565,292.865226L395.433932,293.403672L394.210789,294.071868L393.885992,294.874596L396.685343,296.219438L403.565051,298.347824L408.737534,300.255693L411.731589,301.813941L411.863704,302.836376L408.217201,303.067466L403.517107,303.018401L397.565643,302.621260L397.098722,303.415795L395.664563,303.974120L394.256716,304.520721L393.873278,305.310679L389.745906,305.115473L389.074142,305.794491L392.407503,307.577989L393.506513,308.778337L397.310100,310.790318L396.064481,311.347978L391.653784,310.916026L397.044580,313.513344L396.320446,314.220964L397.537032,315.564078L396.658125,316.220509L392.277001,315.653693L390.516934,315.951806L390.836673,316.980437L394.690994,319.327831L393.614588,319.876079L395.148847,321.420783L393.658178,321.802291L388.496495,320.687237L392.423791,323.226260L389.222571,322.848883L387.671491,323.129205L387.432542,323.960815L384.225658,323.476915L384.452976,324.498001L382.106611,324.343095L380.847004,324.664136L383.712895,326.940670L386.224115,329.100239L385.790737,329.851999L386.463319,331.160130L383.806857,330.780326L383.008312,331.329408L382.192098,331.861917L383.889511,333.742960L383.861111,334.715436L383.672801,335.605833L378.649912,333.759809L379.023106,334.937651L378.545962,335.632359L381.679400,338.474378L381.163028,339.177851L387.111319,343.850141L387.092907,344.924372L385.862486,345.239869L383.815662,345.015570L380.677875,344.047636L380.143615,344.753882L377.924883,344.324634L378.936813,346.069138L380.689861,348.359073L384.478269,352.130004L386.416090,354.668371L387.747573,356.819544L383.090359,354.601166L380.398177,353.762677L380.272926,354.823860L381.821109,357.182051L378.976052,356.158444L373.505971,353.004825L369.240233,350.706502L368.667477,351.331591L369.036093,352.733963L370.648875,355.201082L368.881639,354.845389L368.565647,355.712423L368.620983,356.910422L369.079602,358.481824L367.834704,358.546263L365.580624,357.672896L364.311614,357.668323L362.760258,357.380765L365.714370,361.356563L363.687909,360.619130L361.577056,359.760468L360.858275,360.242272L360.018744,360.599111L363.166556,365.020359L362.690870,365.797797L363.242169,367.658259L359.901632,365.409736L359.997787,366.791686L358.440012,366.384645L359.923658,369.327537L357.736064,368.201865L356.780389,368.434895L355.262231,368.006397L353.090424,366.781209L351.642630,366.368142L353.471733,369.890189L356.081480,374.455771L353.295229,372.423057L350.828973,370.719183L350.826443,372.105183L348.252979,370.175873L348.032418,371.276533L347.668353,372.202631L346.896749,372.587927L347.554507,374.938548L344.853208,372.648591L343.871098,372.714345L344.224867,374.691340L342.241213,373.296651L342.628082,375.363007L342.205297,376.258325L341.972734,377.457763L340.696214,377.058109L339.778659,377.197916L339.407695,378.203681L337.941376,377.444204L338.662920,380.263985L337.906572,380.677322L338.083529,382.682921L336.146057,381.071598L335.901448,382.377945L334.037284,380.810798L334.823366,384.006499L331.148153,379.030154L332.970981,384.230399L332.295770,384.808041L330.564270,383.332389L331.263019,386.612339L331.561477,389.186502L330.963155,389.995974L332.564851,395.422911L330.783406,393.827339L329.516464,393.274348L326.566402,388.966434L325.421961,388.547287L323.893010,387.215926L322.567140,386.294470L322.571843,388.497953L323.005456,391.820117L323.978523,396.602978L322.465258,395.268992L321.046133,394.108760L318.332426,389.465751L316.080186,385.854294L316.048678,388.195459L315.065525,387.945653L314.059447,387.605652L312.950485,386.933806L312.700777,388.811701L311.603758,388.147952L311.742850,391.353525L310.767119,391.088123L309.956756,391.346792L310.295864,395.531502L309.547894,396.115113L308.621620,396.075265L307.187497,394.140270L306.129076,393.512033L305.277063,393.642984L305.188690,396.851354L304.860773,399.248351L303.245767,396.259009L301.972062,394.574143L300.706086,392.798330L299.773198,392.465858L299.908286,397.342641L298.600737,395.220101L297.788508,395.541601L297.389026,398.146248L296.142106,396.099701L295.392072,396.832591L294.619077,397.475182L293.261306,394.343497L292.831969,397.256929L292.035947,397.814386L291.292626,398.819891L290.320928,398.092579L289.557168,399.035898L288.776504,399.934253L287.795691,399.003102L286.915516,398.968696L286.174012,400.472706L285.484852,402.860472L284.690563,404.280991L283.696519,403.040941L282.557844,399.124974L281.653091,398.516149L280.632411,395.236139L279.888748,397.741486L279.012145,397.252206L278.195338,398.798631L277.322581,398.505557L276.433941,396.499460L275.589311,397.779527L274.726495,399.204107L273.864901,398.325430L272.984092,399.384813L272.109072,399.546980L271.228361,399.812877L270.319245,400.731730L269.296568,403.915779L268.475241,402.289276L267.673376,400.709660L266.989849,397.646947L266.290386,395.388965L265.258544,397.707341L264.594460,395.382029L263.784153,394.960542L262.778329,396.531448L261.998918,395.781277L260.701107,399.630921L259.856819,399.297990L259.330245,396.526047L258.709883,394.721936L257.726834,395.618801L256.251212,399.694947L255.438020,399.183363L255.118200,395.708990L254.485275,394.335020L253.985896,392.314540L253.043094,392.818708L251.514747,396.297892L250.664889,396.136155L249.350295,398.206134L248.699157,397.044931L249.017015,391.599575L247.865049,392.875285L246.187031,396.274179L245.216063,396.569668L243.507351,399.758088L243.381272,396.661519L243.737902,391.920368L242.548851,393.048847L242.629037,389.611226L240.726527,393.177503L239.861957,393.062192L238.377307,394.971663L237.970229,393.331707L237.739773,391.207108L237.044381,390.586028L236.733820,388.836529L235.203690,390.699817L235.026366,388.622491L234.220043,388.372492L232.730424,389.979628L230.683273,392.990614L229.112136,394.622359L228.893999,392.719466L228.837696,390.475586L228.976614,387.829586L227.649789,388.797445L225.690121,391.206391L224.751321,391.150381L224.931533,388.545519L222.909218,390.926218L222.161435,390.421857L222.129756,388.386606L222.374633,385.828714L222.793725,382.988180L221.936703,382.827673L220.708825,383.400305L220.531827,381.878139L219.161585,382.696213L216.756891,385.434979L216.567666,383.938335L214.975115,385.050524L213.344522,386.181100L214.511244,382.298873L215.755105,378.393418L215.233549,377.631042L215.403428,375.711121L214.485059,375.648430L213.232861,376.120989L212.541609,375.661450L210.477779,377.380530L210.217948,376.214700L207.883698,378.262111L207.280261,377.610959L206.898457,376.634354L206.344733,375.925384L207.454764,372.813862L206.927656,372.115829L205.588531,372.565677L205.886043,370.721477L205.214102,370.239882L203.920581,370.594041L203.594542,369.641338L203.499937,368.399314L202.382756,368.495064L201.708422,368.011596L200.336357,368.400108L199.793566,367.740213L200.123895,366.022677L198.683945,366.460295L198.920188,364.890170L198.160749,364.508946L196.179410,365.526715L195.152989,365.419363L193.911901,365.539128L193.311084,364.934886L191.373955,365.782204L190.001694,365.985161L189.012535,365.761652L190.688329,362.753916L190.128463,362.107560L189.736193,361.293025L187.852117,361.973315L188.606296,360.021608L189.229821,358.233894L187.102288,359.111540L185.711676,359.252550L187.047232,356.835794L186.199250,356.472242L184.845714,356.558886L185.140502,355.155288L182.908648,355.995428L183.392999,354.438810L180.815908,355.525184L178.338669,356.478586L180.378442,353.632577L180.510568,352.410741L179.246105,352.332594L179.141586,351.314270L176.593002,352.223731L174.068275,353.069304L175.719154,350.687306L174.141504,350.779332L174.524870,349.396391L174.427126,348.384104L172.839897,348.451664L174.939213,345.884819L172.642249,346.440965L173.055251,345.096343L173.031674,344.066069L170.750337,344.551486L169.497007,344.325096L167.547078,344.534086L167.521566,343.487725L164.887983,344.086664L164.594029,343.198441L168.395913,339.823197L166.753035,339.788408L166.426702,338.955484L164.694973,338.939504L165.134635,337.661060L163.477379,337.575503L165.164649,335.621551L168.160340,332.995927L166.761472,332.777798L165.729371,332.349284L165.844742,331.317482L163.755193,331.412845L165.532936,329.551170L163.443871,329.620533L164.904936,327.952750L159.990204,329.328355L156.095635,330.153095L156.649761,328.892361L158.383172,327.120311L156.007391,327.185651L155.650234,326.348933L155.714798,325.334302L161.321715,322.033448L164.287598,319.901065L164.540547,318.900388L161.324110,319.259600L161.217052,318.386309L159.463226,318.130926L160.468484,316.844342L162.504963,315.209769L161.548853,314.657892L160.573086,314.102071L159.950843,313.417222L159.541644,312.657390L156.876849,312.613545L156.378774,311.859391L152.983719,311.979541L153.499147,310.896420L155.152538,309.497418L154.217467,308.852639L157.645547,307.007308L157.720750,306.106218L158.211846,305.102322L159.934912,303.800549L157.621835,303.507677L152.907915,303.748784L152.506521,302.939550L148.765427,302.864474L150.163609,301.640581L150.626216,300.632706L150.852744,299.681138L149.273557,299.081245L152.118370,297.645585L156.629346,295.958405L157.575111,294.944029L155.896269,294.372183L155.826446,293.527999L150.948847,293.397703L148.181705,292.901534L149.539146,291.814836L150.406099,290.811413L151.309632,289.817519L154.233442,288.610250L156.851452,287.478094L154.204420,286.903057L152.280074,286.225664L149.079342,285.629956L149.244538,284.729734L148.550327,283.893241L149.241895,282.960139L149.847856,282.042360L149.512643,281.180140L149.183383,280.313569L149.606109,279.416416L149.103960,278.551716L149.354080,277.664375L152.196723,276.743982L152.465265,275.882106L150.888178,275.024441L152.638517,274.167336L154.655053,273.338337L154.415089,272.490459L146.742611,271.432220L149.789433,270.639415L146.597017,269.627863L148.296511,268.809989L150.792592,268.059873L149.839373,267.127171L149.118297,266.196527L153.083126,265.615562L155.556299,264.964191L155.243401,264.092962L153.393512,263.065395L152.283081,262.088293L154.124586,261.425691L155.360229,260.715517L152.380423,259.488205L150.094610,258.309684L146.169176,256.866128L144.135562,255.644508L154.252395,256.275985L155.220373,255.566303L156.021173,254.840251L154.034106,253.631221L152.519215,252.478160L153.344887,251.748232L148.799736,249.962377L151.143236,249.524698L151.766084,248.752136L153.998519,248.340630L152.348833,247.075298L149.866083,245.586973L148.759187,244.392496L148.106441,243.291913L147.670305,242.234055L145.391296,240.678247L147.220395,240.203395L150.264487,240.092410L155.205696,240.568968L158.158096,240.530057L158.834302,239.843546L160.658358,239.519788L155.908059,237.129621L156.055093,236.257275L154.325693,234.757247L152.009171,233.025549L153.513423,232.586936L158.532722,233.422133L162.452405,233.930725L160.470973,232.296661L161.908361,231.928302L160.217303,230.361518L159.134339,229.003832L156.053669,226.814086L157.185435,226.309536L161.602995,227.202922L158.867630,225.089513L161.758706,225.389827L162.970091,224.982677L162.590915,223.866465L164.332498,223.720480L164.212815,222.719683L161.123623,220.283756L162.107286,219.780155L165.962122,220.716306L165.410581,219.480862L161.548403,216.522434L162.775456,216.156755L165.921800,216.829175L166.835341,216.339964L166.052868,214.924653L167.243382,214.593396L169.866001,215.092310L168.745774,213.464483L168.745371,212.466692L166.533843,210.138409L167.015371,209.395572L169.727707,210.029930L169.984176,209.168426L168.617260,207.269374L172.174864,208.518052L172.014044,207.386887L173.433674,207.296528L168.763391,203.103921L170.104030,202.935252L172.258147,203.351110L173.168510,202.921001L174.968043,203.138189L177.245756,203.731522L174.016446,200.288708L172.987173,198.416209L175.017298,198.839876L172.439658,195.735524L175.301260,196.826017L173.450979,194.220680L173.568751,193.148256L174.421949,192.667318L174.947463,191.920758L181.028450,195.851994L182.284459,195.793580L178.721794,191.576874L179.764644,191.305883L179.895096,190.233011L179.920025,189.053115L181.436913,189.226289L183.578110,190.003510L185.143809,190.278487L186.241080,190.131291L186.816711,189.491766L188.007575,189.456597L187.457303,187.701454L185.967201,184.963443L188.878203,186.678861L189.009417,185.569154L191.628355,187.068794L189.685287,183.748218L193.279662,186.356667L193.773877,185.645359L193.841489,184.454036L194.508110,183.922693L195.273229,183.505309L193.148023,179.727748L186.804611,170.878166L181.482738,163.014761L179.437214,158.922900L188.628144,168.576940L196.460573,176.830799L199.009509,178.641406L200.222287,178.801554L201.583915,179.176033L201.116419,177.154315L202.338768,177.358931L201.819686,175.210068L202.245657,174.320233L202.512703,173.195806L203.243900,172.714451L204.442161,172.909531L204.771175,171.848817L205.134162,170.821374L199.506022,160.707223L192.110584,147.579947L184.155930,133.189357L184.589224,131.666031L189.908560,137.982344L198.243609,149.450802L207.493595,162.823440L211.037835,167.008611L212.287976,167.408281L212.674351,166.329331L212.939128,165.013689L214.415614,165.851742L215.677648,166.339339L215.993761,165.095646L217.045669,165.217383L217.250676,163.725466L216.043343,159.427036L214.434455,154.190849L212.085549,147.281210L215.217116,151.463866L218.781249,156.723885L221.113478,159.552599L223.704596,163.065566L224.665245,163.099663L226.158007,164.353949L226.694756,163.462457L226.216742,160.160477L226.398999,158.326091L227.925887,159.724328L227.620454,156.614762L227.945660,154.998407L229.085772,155.449741L230.066525,155.510325L232.389328,159.233346L233.444062,159.612911L234.287593,159.423016L235.606576,160.617981L235.677437,158.173248L235.769793,155.691024L237.920430,159.512784L238.039557,157.052840L238.138909,154.417466L238.865095,153.763063L240.036022,154.618835L240.577354,153.307926L242.500824,156.958365L242.855103,154.967429L243.871249,155.417282L245.075258,156.649613L246.224609,157.746759L247.287445,158.561415L247.920050,157.575211L248.184353,154.886675L248.395855,151.783309L249.126896,150.965628L250.514410,153.362900L250.682236,149.666840L252.105371,152.417638L252.546013,149.930926L253.510696,150.289992L254.862334,153.037127L255.701431,152.801953L256.457437,152.006097L257.678507,154.382284L259.086016,158.386211L259.813833,157.589006L260.396183,155.521208L261.485911,157.617804L261.718889,152.072242L262.134679,147.572262L263.061286,147.848256L263.892290,147.081775L265.123698,151.212099L266.163208,153.517946L266.830384,150.664435L267.836727,152.920887L268.043033,140.316507L268.523317,129.900530L269.510270,129.083903L270.750554,136.186180L271.895744,143.495006L272.928572,150.222567L273.825104,152.589244L274.676796,150.495116L275.554365,149.176607L276.429192,149.721677Z" />
<line x1="50" y1="600" x2="100" y2="600" fill="none" stroke="red" stroke-width="1.0" stroke-linejoin="round" stroke-miterlimit="10" />
<text x="125" y="603" style="text-anchor:start;fill:black">n0_4mer:D</text>
<path style="stroke:black;stroke-width:1.0" d="M277.361560,106.349825L278.596692,103.783241L279.881181,100.750939L281.150110,99.390070L282.393181,99.112682L283.505695,101.591149L284.604166,103.714477L285.693008,105.532667L286.746370,107.507272L288.032321,106.122811L289.190302,106.504721L290.436754,105.873669L291.547142,106.732391L292.506034,108.928631L293.785787,108.011726L294.755604,109.810708L296.023298,109.072510L297.328824,108.145750L298.458154,108.578522L299.721719,108.079049L300.834222,108.614488L302.026636,108.626693L303.203418,108.746051L304.564910,107.827341L305.929324,106.981075L307.151973,106.956175L308.067210,108.497456L309.171698,109.026939L310.424192,108.842330L311.597481,109.045600L312.952986,108.452678L313.986478,109.282286L314.718360,111.320924L315.617743,112.585404L316.523203,113.769662L317.651074,114.064347L318.928063,113.812086L320.193810,113.630037L321.657772,112.785024L322.870286,112.851906L324.095018,112.891932L325.132460,113.550075L325.890159,115.072517L327.070665,115.242578L328.164221,115.682230L329.209733,116.259499L330.348720,116.560336L331.410453,117.081258L332.677708,117.033856L334.332936,115.965740L336.081602,114.714536L337.424519,114.575261L338.135507,116.050326L339.096602,116.867030L339.906047,118.035967L340.809155,118.955032L342.151988,118.833910L343.203622,119.399516L344.459682,119.504194L345.557075,119.971586L346.651327,120.446723L347.694346,121.031328L348.505202,122.096182L349.282741,123.209732L350.399450,123.621656L351.751411,123.573441L353.153569,123.447876L354.752879,122.969220L355.785976,123.586502L356.379115,125.012945L356.744904,126.823351L356.973174,128.838637L357.684972,129.959207L358.485389,130.909480L359.492224,131.497553L361.605269,130.236673L362.662190,130.771825L363.683022,131.367872L365.616419,130.509575L366.377382,131.537727L367.379624,132.181042L368.137128,133.197082L368.205205,135.236001L368.796025,136.461389L369.629193,137.317271L371.892745,136.117176L373.809219,135.462454L375.192371,135.589209L377.005848,135.142694L377.856154,136.031165L378.961789,136.574808L379.655670,137.664077L379.819426,139.428792L379.809323,141.385745L379.590173,143.570622L380.240845,144.636886L381.364891,145.115799L381.896247,146.315694L382.842970,147.009944L382.453178,149.269747L382.258179,151.262687L382.981598,152.176324L382.923731,153.961799L383.994958,154.470060L385.858631,154.121326L386.855526,154.735714L388.870027,154.275920L390.256925,154.507019L391.184802,155.227236L392.178378,155.883246L393.133137,156.582708L394.581741,156.797550L395.970430,157.087983L397.739444,157.028244L398.752987,157.709926L399.370245,158.767078L399.316862,160.437094L399.958662,161.453258L400.042988,162.964986L400.552655,164.083280L401.326185,164.965083L401.268402,166.560892L402.482532,167.059884L404.645970,166.777458L406.481684,166.798132L408.216618,166.925888L408.394016,168.321955L408.322795,169.900931L408.512453,171.258875L408.630106,172.659908L409.962037,173.131102L410.692047,174.063642L410.901396,175.378356L411.190218,176.625152L411.254374,178.023327L412.134752,178.836166L412.465273,180.033194L414.687455,179.935937L416.761898,179.969610L417.684617,180.792311L418.235928,181.861808L418.105461,183.365855L417.749491,184.996837L417.388367,186.611717L418.835805,187.102378L419.297735,188.201845L419.901934,189.214305L420.682663,190.123983L421.078145,191.258008L421.530234,192.356556L423.242194,192.753779L425.230070,193.021244L425.646160,194.157881L426.230615,195.202977L424.865783,197.259691L423.668993,199.196794L423.782558,200.446813L423.605531,201.832750L424.125439,202.869594L424.604236,203.926225L426.435067,204.351775L427.278361,205.252428L428.697964,205.899995L430.230296,206.513581L429.478414,208.133508L429.816227,209.270503L431.496029,209.846771L432.330341,210.788216L433.275198,211.691730L434.669039,212.427440L433.457582,214.178591L432.369941,215.856902L432.416467,217.094007L431.959361,218.506673L432.763791,219.461749L434.756441,220.014399L436.701610,220.608201L439.038154,221.097783L439.054426,222.362236L438.297513,223.863370L437.408115,225.387830L436.122030,227.011503L436.237973,228.203532L437.223338,229.146599L437.624790,230.260352L438.091055,231.358091L438.791892,232.397227L437.886218,233.848253L438.437479,234.924246L438.519473,236.115845L439.238469,237.157859L439.780042,238.246142L439.850036,239.440327L440.743622,240.460258L441.140727,241.589554L442.241979,242.584747L442.071578,243.829893L440.932148,245.243184L441.247313,246.386639L440.900842,247.640861L440.693172,248.865451L441.811627,249.884772L441.834888,251.074652L441.626705,252.294008L441.769203,253.462839L440.923151,254.752185L440.427444,255.987227L440.817530,257.117820L440.814286,258.291799L441.474877,259.401879L441.729469,260.554922L442.237774,261.689938L442.227117,262.868453L442.033514,264.057606L441.756588,265.247832L441.196530,266.447776L442.064137,267.575570L442.686695,268.723979L443.751182,269.867061L444.732843,271.026498L444.394008,272.220964L443.821766,273.412605L442.566088,274.597718L441.102130,275.764248L439.792632,276.912144L438.112784,278.034996L437.862582,279.171230L437.604475,280.304109L438.000563,281.459816L439.524824,282.674338L439.454574,283.825436L438.902084,284.947148L439.851205,286.163764L440.068201,287.340099L440.438771,288.533270L441.759544,289.817431L441.017042,290.923796L439.732515,291.965421L439.125056,293.065072L439.242879,294.242881L439.513523,295.443266L440.295980,296.716778L441.142924,298.012534L440.198350,299.061737L440.816746,300.338680L441.017949,301.560284L440.457998,302.660204L441.627318,304.056401L442.920435,305.494888L443.439868,306.809063L444.820115,308.302813L444.484770,309.471096L441.645863,310.110534L439.979044,310.967578L437.832830,311.695829L436.914392,312.682017L437.047733,313.911096L436.589287,314.999695L435.517852,315.929342L433.002407,316.468297L432.659907,317.560536L433.104923,318.870625L434.056263,320.336377L436.602554,322.288055L436.075919,323.360873L436.450246,324.708214L436.658581,326.014248L435.607498,326.921841L436.260683,328.382972L435.705352,329.450588L434.977617,330.455724L433.477804,331.181826L432.422354,332.051528L432.030760,333.156698L432.052344,334.418437L433.183436,336.115851L432.646976,337.180625L431.709060,338.082160L430.037726,338.674403L428.204411,339.178734L427.532859,340.156547L427.176070,341.267864L426.559804,342.265804L426.563531,343.541690L425.614369,344.386746L423.642237,344.743951L423.657875,346.025517L422.943329,346.960739L423.119276,348.333191L423.562335,349.852248L421.554993,350.132078L419.983390,350.612962L418.014708,350.864645L416.929888,351.567353L416.916424,352.847830L416.695430,354.022253L416.693316,355.326863L416.690686,356.641543L417.420944,358.395988L417.585591,359.838607L418.507281,361.753262L418.993606,363.429788L418.901266,364.766658L419.557586,366.588294L418.450183,367.300558L417.507365,368.111228L416.487320,368.864851L415.702210,369.769397L415.107451,370.801626L415.121336,372.257875L415.039904,373.661391L414.996504,375.104872L414.747480,376.413050L413.268941,376.825630L412.832997,378.000793L412.108436,378.963336L411.783402,380.233326L410.560346,380.811546L408.453851,380.679324L406.609322,380.726409L405.720463,381.526846L404.865396,382.351885L404.053088,383.210340L402.901818,383.779208L401.644800,384.247452L400.613330,384.901013L399.859457,385.794423L399.210741,386.783017L398.323452,387.557261L397.926841,388.783139L396.835474,389.367252L395.479381,389.691700L393.693023,389.586008L393.146877,390.667880L392.289749,391.448236L392.264420,393.064907L392.003476,394.463608L390.686496,394.785320L390.000146,395.755342L389.006347,396.402657L388.807560,397.904233L388.272981,399.058122L387.493596,399.950386L386.640869,400.763019L385.288252,401.005407L384.844349,402.285612L384.080059,403.203935L383.235978,404.031586L382.274112,404.718823L381.134144,405.185748L380.509781,406.286231L379.541388,406.962967L378.268620,407.248300L377.027498,407.561929L376.157280,408.352729L375.236073,409.077760L374.584036,410.168831L373.833485,411.135926L372.448736,411.224693L371.046005,411.270116L370.025351,411.846845L368.697822,411.972277L367.624709,412.459086L367.116261,413.791715L365.506092,413.460104L364.189314,413.554298L363.123309,414.027553L361.671162,413.877552L360.873355,414.768592L360.119068,415.740833L359.189106,416.430044L358.449558,417.447519L358.336720,419.566298L357.674016,420.766089L356.931575,421.843567L356.346496,423.224639L354.766335,422.789440L353.700297,423.289105L352.746837,424.002760L351.245223,423.653571L350.517658,424.808925L350.171622,426.756727L349.429982,427.942563L349.176833,430.174380L348.237279,431.006807L346.379120,429.858154L344.978729,429.659351L343.219329,428.625914L341.637660,427.942245L340.422685,428.071701L339.344484,428.514490L338.876267,430.441351L338.384192,432.369109L337.221123,432.657876L336.030073,432.868116L333.949490,430.719360L332.336449,429.721586L331.430728,430.612859L330.214401,430.650690L329.254328,431.411429L328.202005,431.917703L327.345738,433.022141L326.284204,433.527513L325.575792,435.158282L324.604092,435.998315L323.234594,435.539503L322.365834,436.749127L321.050401,436.439636L319.691457,435.939000L318.462434,435.873837L317.144415,435.448721L316.186894,436.393992L315.097939,436.848300L314.203289,438.121834L312.830467,437.406102L311.642903,437.447487L310.805782,439.080264L309.462576,438.409507L308.552028,439.798322L307.325087,439.661182L306.025079,439.109587L305.154798,440.860284L303.986302,441.030408L302.847859,441.377253L301.622928,441.197832L300.282751,440.230895L299.204622,440.948177L298.006035,440.853540L297.013829,442.299607L295.860435,442.598511L294.548011,441.560909L293.514233,442.899041L292.277887,442.440087L291.105095,442.556958L290.003596,443.475012L288.785810,443.114923L287.671922,444.055054L286.463368,443.777924L285.206892,442.631162L283.963005,441.400238L282.747974,440.397447L281.615092,441.084716L280.491418,442.326466L279.357451,443.823010L278.154609,442.749438L276.977047,442.517400L275.802949,442.289609L274.632688,441.803571L273.456271,442.721987L272.286627,442.419569L271.083718,443.721275L269.915314,443.264860L268.748923,442.912811L267.536930,443.689224L266.364959,443.458042L265.227863,442.669590L264.150268,441.125010L263.115469,439.274377L262.111982,437.342710L260.948706,437.559870L259.593227,439.785143L258.280962,441.252961L257.098584,441.305840L255.859074,441.834688L254.763984,441.100908L253.636661,440.682374L252.416445,440.974679L251.247802,440.861988L249.955090,441.569361L248.892535,440.735409L247.773377,440.301842L246.686544,439.700570L245.635448,438.932227L244.337195,439.533744L242.981560,440.370551L241.785071,440.338420L240.740345,439.563284L239.625830,439.148279L238.779203,437.542124L237.541054,437.723117L236.159893,438.478543L234.986466,438.324013L233.586876,439.058039L232.583854,438.207472L231.739250,436.795374L230.471603,436.982738L229.508438,436.065448L228.315657,435.971110L227.107706,435.915883L226.266890,434.643974L225.232442,434.036363L223.910197,434.338759L222.741200,434.143423L221.847289,433.121872L220.318578,433.975302L219.526285,432.680478L218.618255,431.747072L217.099401,432.498371L215.861794,432.451908L214.872749,431.742174L213.904415,430.991402L213.124621,429.782043L212.476795,428.280060L211.280235,428.138631L209.921447,428.367722L208.556341,428.585260L207.447301,428.196347L206.074004,428.392398L204.980869,427.951506L203.769017,427.763423L203.055073,426.515595L202.425830,425.118976L201.608357,424.136042L200.941039,422.869594L199.930219,422.302876L198.843143,421.884632L197.210045,422.497828L195.877845,422.511407L194.386014,422.798889L193.625974,421.738845L192.680356,421.023917L192.722788,418.589117L192.260477,417.080437L191.566932,415.991966L191.245302,414.300785L189.437871,415.076539L188.307594,414.718349L186.851537,414.869431L185.753063,414.438342L184.193032,414.711498L182.500879,415.157414L182.043731,413.727405L181.658301,412.215210L181.467054,410.447282L181.676260,408.140889L180.231787,408.207452L178.547646,408.584621L177.947197,407.452226L176.403045,407.602116L175.778201,406.509328L175.490580,404.987461L174.398838,404.524497L174.322323,402.766268L173.258474,402.273049L172.015497,401.994517L171.915104,400.314521L170.904053,399.752858L170.614626,398.333888L169.037045,398.434734L166.952203,399.094632L165.432243,399.075363L164.182525,398.733539L163.823225,397.399354L163.256928,396.305298L162.009211,395.949295L160.374109,395.990138L160.240012,394.445366L159.921234,393.110628L160.265715,391.119240L159.313913,390.454353L157.911372,390.229038L156.793435,389.711113L154.773793,390.047493L153.871192,389.297261L153.613880,387.943910L152.310189,387.564522L151.385989,386.828528L151.156458,385.469289L148.949752,385.862677L148.204947,384.952820L147.723259,383.818621L146.486526,383.327663L146.038873,382.169507L145.252981,381.295621L144.064522,380.745883L144.383632,378.985579L143.127673,378.485252L141.813011,378.018308L140.747002,377.348521L139.164130,377.059340L138.452869,376.105754L138.525923,374.579811L138.633915,373.045280L137.501920,372.406055L137.807428,370.754056L136.996129,369.890289L136.562832,368.767461L136.720857,367.254686L135.169341,366.881506L133.794742,366.375631L132.441494,365.841551L131.374762,365.113584L131.055777,363.915224L130.564928,362.827244L129.696079,361.967887L129.295378,360.827821L127.605608,360.438756L127.163036,359.317937L127.557520,357.730187L127.003771,356.683727L127.907752,354.846298L128.554419,353.172748L128.331684,351.976979L127.718538,350.988287L128.416585,349.333244L128.682961,347.914770L127.232871,347.350299L126.662320,346.346415L124.538657,346.074965L122.808536,345.593122L123.000643,344.214937L122.154514,343.312219L121.634162,342.260448L120.500922,341.471540L120.603682,340.150000L121.549080,338.489045L123.031427,336.633120L122.278320,335.696852L121.868731,334.621514L120.520538,333.904201L118.846990,333.293336L118.665769,332.117056L117.551583,331.277723L117.763269,329.963546L118.198549,328.582337L119.131597,327.047588L118.723454,325.970471L117.786705,325.060883L116.723737,324.181473L114.899705,323.521684L115.031476,322.261375L115.833781,320.815101L115.613199,319.672550L117.583854,317.933754L117.395856,316.801673L115.569587,316.093428L115.237261,314.988276L112.312838,314.511889L110.762455,313.672693L110.386009,312.546821L109.553390,311.519970L110.683311,310.065833L110.294887,308.944756L109.791497,307.844334L109.049889,306.785560L108.290444,305.722537L108.485653,304.482604L108.542132,303.272035L108.669084,302.053669L107.656077,301.017081L106.995729,299.916275L106.887285,298.730609L106.762423,297.547968L108.245749,296.161713L108.498878,294.946044L109.406828,293.662157L109.479139,292.481255L107.942489,291.461655L107.781525,290.296117L106.196112,289.250068L106.250047,288.056229L106.624185,286.841918L106.495492,285.665867L106.886771,284.459798L106.412604,283.302778L105.933929,282.140108L106.013018,280.951780L106.987711,279.739879L106.946144,278.563653L106.312797,277.395599L106.962724,276.209671L105.858236,275.033308L107.012266,273.856851L108.524432,272.701389L107.794675,271.520223L106.998354,270.326641L106.323037,269.125654L106.031055,267.930660L105.772527,266.732510L106.446185,265.582004L106.703412,264.413841L107.405214,263.279344L108.962220,262.219396L109.853067,261.124149L109.804869,259.954570L109.528567,258.760437L108.950084,257.528995L109.126175,256.372370L110.191671,255.322583L108.485482,253.935345L106.778338,252.521606L106.617981,251.299011L105.724492,249.963322L107.868214,249.083312L109.361833,248.125964L110.084070,247.056677L110.357630,245.915716L109.458717,244.560169L109.405762,243.350210L108.601369,241.987183L108.395766,240.732245L109.153329,239.675951L109.563437,238.550574L110.432182,237.531891L110.686387,236.377692L110.997286,235.236998L110.309424,233.847217L108.967139,232.274510L109.234106,231.103442L111.005060,230.341330L113.019268,229.669229L115.022750,229.019668L115.780277,228.028026L114.090878,226.302371L114.220871,225.110235L114.097577,223.834189L113.271080,222.321670L114.201280,221.376463L113.705146,219.953108L114.531232,218.977579L116.669942,218.477462L116.928649,217.318840L117.945508,216.440599L117.366325,214.964174L116.602091,213.399755L117.234812,212.370624L117.074674,211.023448L118.485452,210.315587L119.195631,209.328128L119.016064,207.962409L120.176320,207.172891L119.741781,205.682793L120.128511,204.550830L121.612414,203.925460L122.170348,202.879902L123.591791,202.250157L124.733762,201.499433L123.718857,199.685812L124.026852,198.515435L123.577084,196.950472L124.858021,196.275320L126.361573,195.731915L127.579599,195.050725L128.394788,194.159332L127.863003,192.517397L128.693953,191.631562L128.264341,190.020278L128.809071,188.963256L129.329223,187.890448L130.487611,187.203684L131.552700,186.469763L132.652736,185.766359L134.209030,185.362710L134.336174,184.053316L134.788295,182.947158L134.229595,181.163337L133.347396,179.135995L133.640827,177.884608L134.570371,177.068857L136.137045,176.709159L137.224628,176.023753L138.779669,175.687527L139.779868,174.959248L140.483639,174.014927L141.900098,173.613411L141.792231,172.049445L141.699781,170.479030L141.476076,168.785565L141.707399,167.437173L142.754003,166.744098L143.813381,166.068381L145.937092,166.296123L147.328716,165.931065L147.575866,164.589554L147.760443,163.180159L148.135858,161.926006L148.439151,160.596197L149.547378,159.991643L151.399474,160.086484L152.916584,159.892831L154.611027,159.887551L155.868714,159.482581L156.769593,158.738943L156.710143,157.040046L156.800583,155.468000L157.177837,154.168945L157.836122,153.148695L159.681346,153.374615L160.715054,152.761941L162.954949,153.462974L165.675496,154.735097L166.169781,153.581594L167.593823,153.468931L167.847832,152.031838L163.285673,144.969231L160.869802,140.260013L159.363964,136.527927L159.343110,134.515225L163.732906,137.902279L168.366211,141.714664L170.494222,142.483026L172.276271,142.850157L173.523398,142.550952L174.061515,141.324897L175.477604,141.263303L176.349893,140.479022L176.986654,139.366023L177.358635,137.868381L178.098616,136.870821L179.352446,136.607105L179.774998,135.134758L178.897476,131.699221L177.464035,127.337146L175.732599,122.403226L174.483707,118.090693L174.877825,116.269931L178.009864,118.822585L181.153318,121.496488L185.144031,125.684782L188.982156,129.770607L190.202574,129.517519L191.608899,129.599721L192.469261,128.736320L193.179887,127.593657L194.531487,127.605948L194.968204,125.933679L195.733744,124.846303L196.487567,123.717980L196.605698,121.323346L197.196178,119.805926L197.688076,118.053779L199.649290,119.294305L201.589300,120.554513L203.682418,122.208002L205.613322,123.587632L206.393103,122.478450L207.629298,122.379239L208.451141,121.337674L209.108316,119.885932L210.335404,119.763050L211.126159,118.584946L211.948837,117.456767L213.336407,117.740767L214.412111,117.242848L215.394958,116.494853L216.843052,116.996502L218.065146,116.910751L219.015603,116.067912L220.943952,118.043858L222.590601,119.292452L223.967169,119.796263L224.967213,119.168979L225.379154,116.651305L225.816622,114.107956L226.751521,113.120572L227.987258,113.134876L229.210216,113.122442L230.656693,113.938793L231.484725,112.509191L232.601461,112.123804L234.040176,113.006587L235.237984,112.978735L236.662839,113.920490L237.780375,113.607285L238.524512,111.618070L239.350107,109.888068L240.300268,108.651215L241.505319,108.608427L242.697360,108.512985L243.948770,108.745587L245.186499,108.938310L246.307488,108.487235L247.608482,109.104501L248.911120,109.805873L250.148540,110.158815L251.377958,110.508587L252.690846,111.523966L253.813555,111.198194L254.892713,110.495454L255.996406,109.936437L256.990114,108.303488L258.009534,106.713751L259.173050,106.437105L260.280126,105.483502L261.487279,105.633832L262.759628,106.727890L263.922548,106.409292L265.410809,111.577504L266.884180,117.881677L268.268227,124.185670L269.435744,127.103008L270.380754,124.106191L271.309932,118.678376L272.328387,114.068930L273.439135,112.375582L274.576622,111.906026L275.723253,110.844304L276.910260,107.552781Z" />
<line x1="50" y1="550" x2="100" y2="550" fill="none" stroke="black" stroke-width="1.0" stroke-linejoin="round" stroke-miterlimit="10" />
<text x="125" y="553" style="text-anchor:start;fill:black">GC-content</text>
</g>
<g style="fill:pink;stroke:black">
<a href="" title="CP000609 AAWI01000000 AAWI01000001 AAWI01000002 AAWI01000003:1 [-6500-17099];"><path  d="M269.766626,45.059547L273.780437,45.003233L277.794620,45.016979L281.807951,45.100779L285.819209,45.254609L284.878408,65.232469L284.878408,65.232469L281.215956,65.092016L277.551609,65.015502L273.886486,65.002952L270.221702,65.054369Z" />
</a><a href="" title="CP000609 AAWI01000000 AAWI01000001 AAWI01000002 AAWI01000003:2 [131500-152099];"><path  d="M377.183618,68.945375L380.764204,70.760109L384.312573,72.637055L387.827644,74.575643L391.308347,76.575283L381.194578,93.829606L381.194578,93.829606L378.016545,92.003848L374.807132,90.233833L371.567316,88.520099L368.298086,86.863169Z" />
</a><a href="" title="CP000609 AAWI01000000 AAWI01000001 AAWI01000002 AAWI01000003:3 [169500-196599];"><path  d="M403.612154,84.319865L406.920393,86.593498L410.188447,88.924522L413.415322,91.312225L416.600035,93.755883L419.741614,96.254748L407.155387,111.797814L407.155387,111.797814L404.286988,109.516241L401.379207,107.285075L398.432930,105.104998L395.449054,102.976672L392.428488,100.900746Z" />
</a><a href="" title="CP000609 AAWI01000000 AAWI01000001 AAWI01000002 AAWI01000003:4 [332000-371599];"><path  d="M486.074902,183.635970L487.637276,187.333650L489.134879,191.058035L490.567255,194.807988L491.933966,198.582369L493.234598,202.380028L494.468753,206.199807L495.636056,210.040544L476.450312,215.689192L476.450312,215.689192L475.384513,212.182433L474.257676,208.694808L473.070143,205.227381L471.822276,201.781207L470.514455,198.357336L469.147078,194.956811L467.720562,191.580669Z" />
</a><a href="" title="CP000609 AAWI01000000 AAWI01000001 AAWI01000002 AAWI01000003:5 [496000-517099];"><path  d="M501.851861,312.924044L501.155445,316.877378L500.390139,320.817957L499.556178,324.744579L498.653814,328.656048L479.205656,323.990305L479.205656,323.990305L480.029553,320.418963L480.790997,316.833787L481.489754,313.235867L482.125612,309.626301Z" />
</a><a href="" title="CP000609 AAWI01000000 AAWI01000001 AAWI01000002 AAWI01000003:6 [621000-639099];"><path  d="M464.403538,405.484864L462.097416,408.770538L459.734302,412.015465L457.314917,415.218655L441.461446,403.025728L441.461446,403.025728L443.670450,400.101076L445.828075,397.138318L447.933665,394.138354Z" />
</a><a href="" title="CP000609 AAWI01000000 AAWI01000001 AAWI01000002 AAWI01000003:7 [1588000-1608599];"><path  d="M122.689531,102.658708L125.720499,100.026772L128.796939,97.448135L131.917913,94.923581L135.082472,92.453881L147.249214,108.327457L147.249214,108.327457L144.359834,110.582400L141.510248,112.887427L138.701325,115.241835L135.933920,117.644907Z" />
</a><a href="" title="CP000609 AAWI01000000 AAWI01000001 AAWI01000002 AAWI01000003:8 [1621500-1650099];"><path  d="M143.901645,86.020580L147.219757,83.761381L150.576793,81.560434L153.971729,79.418412L157.403532,77.335965L160.871155,75.313729L170.795403,92.677753L170.795403,92.677753L167.629311,94.524142L164.495927,96.425506L161.396202,98.381266L158.331083,100.390826L155.301502,102.453573Z" />
</a><a href="" title="CP000609 AAWI01000000 AAWI01000001 AAWI01000002 AAWI01000003:9 [1654500-1678099];"><path  d="M166.559677,72.168305L170.116095,70.306653L173.704460,68.507352L177.323682,66.770951L180.972656,65.097978L189.148947,83.350328L189.148947,83.350328L185.817275,84.877825L182.512768,86.463234L179.236434,88.106074L175.989271,89.805844Z" />
</a><a href="" title="CP000609 AAWI01000000 AAWI01000001 AAWI01000002 AAWI01000003:10 [1773500-1801499];"><path  d="M257.912420,45.635629L261.917983,45.372343L265.927531,45.179004L269.939842,45.055670L273.953695,45.002380L277.967866,45.019149L277.709791,65.017484L277.709791,65.017484L274.044678,65.002173L270.379856,65.050829L266.716441,65.163438L263.055550,65.339965L259.398297,65.580357Z" />
</a></g>
<path  style="fill:pink;stroke:black" d="M350,550L375,550L375,565L350,565Z" />
<text x="405" y="565" style="text-anchor:start;fill:black">Selected loci;</text>
</svg>