<svg xmlns="http://www.w3.org/2000/svg" viewbox="0 0 550 650">
<circle cx="275" cy="275" r="240" fill="none" stroke="black" stroke-width="1.0" />
<line x1="275" y1="15" x2="275" y2="55" fill="none" stroke="grey" stroke-width="1.0" stroke-linejoin="round" stroke-miterlimit="10" />
<line x1="495" y1="275" x2="535" y2="275" fill="none" stroke="grey" stroke-width="1.0" stroke-linejoin="round" stroke-miterlimit="10" />
<line x1="275" y1="495" x2="275" y2="535" fill="none" stroke="grey" stroke-width="1.0" stroke-linejoin="round" stroke-miterlimit="10" />
<line x1="15" y1="275" x2="55" y2="275" fill="none" stroke="grey" stroke-width="1.0" stroke-linejoin="round" stroke-miterlimit="10" />
<text x="275" y="10" style="text-anchor:middle" font-size="15">Methanothermobacter sp. DP chromosome, complete genome.</text><text x="285" y="25" style="text-anchor:start">1,694,604</text><text x="525" y="265" style="text-anchor:start">0.42 Mbp</text><text x="285" y="530" style="text-anchor:start">0.84 Mbp</text><text x="-200" y="25" style="text-anchor:end" transform="rotate(-90)">1.27 Mbp</text><circle cx="361.961319" cy="51.308854" r="2.500000" fill="grey" stroke="black" stroke-width="1.0" />
<circle cx="437.103976" cy="98.018925" r="2.500000" fill="grey" stroke="black" stroke-width="1.0" />
<circle cx="490.215550" cy="168.781984" r="2.500000" fill="grey" stroke="black" stroke-width="1.0" />
<circle cx="514.077800" cy="253.980827" r="2.500000" fill="grey" stroke="black" stroke-width="1.0" />
<circle cx="505.447676" cy="342.036324" r="2.500000" fill="grey" stroke="black" stroke-width="1.0" />
<circle cx="465.498073" cy="420.981109" r="2.500000" fill="grey" stroke="black" stroke-width="1.0" />
<circle cx="399.658427" cy="480.086022" r="2.500000" fill="grey" stroke="black" stroke-width="1.0" />
<circle cx="316.876814" cy="511.318286" r="2.500000" fill="grey" stroke="black" stroke-width="1.0" />
<circle cx="228.403845" cy="510.433214" r="2.500000" fill="grey" stroke="black" stroke-width="1.0" />
<circle cx="146.263624" cy="477.551093" r="3.000000" fill="black" stroke="black" stroke-width="1.0" />
<circle cx="81.619592" cy="417.140838" r="2.500000" fill="grey" stroke="black" stroke-width="1.0" />
<circle cx="43.257334" cy="337.412632" r="2.500000" fill="grey" stroke="black" stroke-width="1.0" />
<circle cx="36.390552" cy="249.202105" r="2.500000" fill="grey" stroke="black" stroke-width="1.0" />
<circle cx="61.952492" cy="164.497696" r="2.500000" fill="grey" stroke="black" stroke-width="1.0" />
<circle cx="116.469103" cy="94.811335" r="2.500000" fill="grey" stroke="black" stroke-width="1.0" />
<circle cx="192.531192" cy="49.613897" r="2.500000" fill="grey" stroke="black" stroke-width="1.0" />

<circle cx="275" cy="275" r="185" fill="white" stroke="grey" stroke-width="0.5" />
<circle cx="275" cy="275" r="170" fill="none" stroke="black" stroke-width="0.5" />
<circle cx="275" cy="275" r="170" fill="aliceblue" stroke="black" stroke-width="0.5" />
<circle cx="275" cy="275" r="164" fill="white" stroke="none" stroke-width="0.5" />
<circle cx="275" cy="275" r="140" fill="none" stroke="black" stroke-width="0.5" />
<circle cx="275" cy="275" r="140" fill="aliceblue" stroke="black" stroke-width="0.5" />
<circle cx="275" cy="275" r="133" fill="white" stroke="none" stroke-width="0.5" />
<circle cx="275" cy="275" r="110" fill="none" stroke="black" stroke-width="0.5" />
<circle cx="275" cy="275" r="110" fill="white" stroke="black" stroke-width="0.5" />
<circle cx="275" cy="275" r="109" fill="aliceblue" stroke="none" stroke-width="0.5" />
<circle cx="275" cy="275" r="80" fill="none" stroke="black" stroke-width="0.5" />

<g style="fill:none;stroke-linejoin:round;stroke-miterlimit:10">
<path style="stroke:blue;stroke-width:1.0" d="M277.306356,119.483260L278.384038,122.897317L279.487988,123.731033L280.705168,121.191824L281.987908,118.041193L283.283018,115.568498L284.288774,118.602255L285.286628,121.094020L286.259746,123.434361L287.349710,123.933693L288.510765,123.567989L289.727808,122.695314L290.777625,123.568733L291.811295,124.485185L293.104314,123.126267L294.436149,121.638293L295.400419,123.070875L296.251524,125.164930L297.475157,124.569493L299.520066,118.816438L300.303550,121.274779L300.854864,124.880325L301.928715,125.291016L304.147916,119.577233L305.883664,116.806159L306.767234,118.461941L306.824985,123.933608L307.560726,125.930005L308.502149,126.896588L309.663998,126.873401L311.307263,124.877798L312.476353,124.923443L312.808608,128.231782L313.874053,128.598543L314.820405,129.396212L316.539541,127.419912L317.852823,126.971874L320.421887,122.344737L322.208093,120.541219L321.346106,127.289136L321.664050,130.047746L322.503598,131.106745L324.134908,129.791493L325.394235,129.629378L326.834659,128.982192L327.758943,129.802878L327.634488,133.425045L328.771016,133.587466L329.832343,133.953646L330.814939,134.519722L332.648268,132.983582L333.984799,132.727549L334.989677,133.283468L336.233178,133.282627L338.565614,130.830190L343.563349,122.567308L342.963546,126.847366L340.494715,134.978304L341.495488,135.542805L343.165574,134.727304L343.193024,137.278163L344.514550,137.188661L345.434837,137.902061L347.041108,137.297396L348.274307,137.433533L348.486485,139.467064L348.575201,141.672554L348.997718,143.226428L349.900534,143.905340L351.072380,144.117203L352.418997,144.045264L353.623756,144.230773L354.429968,145.081293L355.045395,146.230157L355.878882,147.015893L356.647718,147.896265L357.591377,148.500049L358.603781,149.000505L360.130177,148.742440L361.679281,148.479236L362.160993,149.777895L362.983615,150.574129L364.380054,150.567056L364.682559,152.079985L365.455647,152.931869L366.091307,153.960833L366.915248,154.732696L368.541973,154.467406L369.100225,155.586926L371.740942,154.091066L371.799476,155.840144L372.771719,156.450554L372.111581,159.014022L373.764696,158.801183L374.892585,159.225065L375.435274,160.326471L376.424829,160.914716L378.895959,159.865951L381.297867,158.946210L384.319194,157.410299L383.642825,159.861917L383.055047,162.172844L384.019290,162.842916L389.200321,159.242758L393.634148,156.518827L389.345267,162.483431L387.134493,166.283709L386.803507,168.201540L387.701419,168.930940L391.501757,166.972138L392.998852,167.200236L392.598537,169.155087L398.726240,165.289600L399.601732,166.153024L396.802022,170.180997L394.047688,174.078158L391.954054,177.334295L395.818547,175.618527L403.349741,171.009734L405.140580,171.147825L406.946886,171.298539L397.343287,180.305483L395.541257,183.121520L396.075725,184.125648L396.921700,184.896330L397.820678,185.632523L399.201768,186.028717L400.510273,186.492285L402.022080,186.829217L411.432078,181.788921L420.628001,177.082240L424.435401,176.123386L425.852464,176.786336L418.578739,183.030711L418.768004,184.405942L414.374089,188.611960L413.070833,190.830520L418.577621,188.927350L416.979397,191.310381L416.165765,193.194397L415.545291,194.940244L415.094883,196.567027L416.340205,197.240790L416.074106,198.744448L411.895130,202.309873L411.048300,204.047805L412.832072,204.412635L412.164389,206.033653L411.983095,207.392708L412.374422,208.461819L411.886219,209.947043L413.145495,210.599989L414.388001,211.274715L413.296244,213.009566L413.953646,213.948259L416.421358,214.111147L416.196994,215.444962L417.099950,216.301471L417.168084,217.503721L416.962362,218.808188L416.563658,220.176712L417.747994,220.931901L418.056423,222.024733L421.346812,222.036967L426.398998,221.474947L422.521919,224.073122L419.404430,226.344739L418.632621,227.787886L419.261253,228.763748L423.394732,228.649561L431.777936,227.304191L430.119186,229.062771L428.020423,230.915861L421.512667,233.964856L422.050972,234.987672L423.342310,235.815423L424.024304,236.815185L424.639971,237.837723L424.720943,238.994203L424.070900,240.317839L423.490613,241.611606L423.018758,242.868936L425.411014,243.515717L429.661394,243.821333L431.972813,244.564922L429.642616,246.204897L429.386918,247.435451L429.026738,248.676820L430.667849,249.582945L431.856183,250.581674L427.334787,252.441240L426.160741,253.759382L424.850133,255.075543L425.676861,256.101621L425.101160,257.303386L425.596111,258.376335L425.528457,259.512748L426.331800,260.563334L425.684405,261.751890L428.488700,262.651608L432.936937,263.471825L436.932863,264.386736L436.773900,265.601383L430.090662,267.143144L426.260025,268.461352L426.762485,269.566792L427.877656,270.661708L428.704306,271.778746L428.513742,272.921468L427.487735,274.066250L429.751609,275.199963L428.437699,276.336119L428.408465,277.473649L428.044657,278.603140L427.459297,279.720769L428.207408,280.881418L430.694265,282.133490L435.138499,283.527543L434.573306,284.684611L433.135022,285.774845L434.487839,287.055820L434.988630,288.287544L439.470159,289.888573L435.013237,290.682243L430.854945,291.442423L427.452867,292.227525L425.083905,293.087955L427.278590,294.499129L427.796250,295.718173L425.479957,296.541667L424.569998,297.544495L424.501283,298.669245L425.197369,299.922522L423.996151,300.859927L423.754762,301.955839L423.374306,303.024849L423.173966,304.126613L423.040245,305.242227L423.471475,306.479022L423.134237,307.557221L423.091686,308.700993L423.829833,310.031762L423.086568,311.017840L424.157356,312.451928L422.899629,313.304220L421.191711,314.020940L421.519938,315.274809L421.152372,316.341860L422.259620,317.836949L421.112354,318.680963L421.372724,319.943890L422.181372,321.389260L420.727363,322.121781L419.415509,322.883340L419.116005,323.973164L418.930713,325.103799L418.836448,326.269978L420.138259,327.950262L421.381337,329.637100L423.348878,331.628334L423.277874,332.864608L421.495271,333.424391L418.310775,333.389798L417.238992,334.186738L416.878853,335.274998L417.122562,336.626616L416.345994,337.539155L414.692575,338.050378L413.316207,338.667960L412.644236,339.599879L413.494010,341.256319L411.715071,341.655570L410.379967,342.251719L410.330192,343.482833L411.355566,345.276605L409.602000,345.640980L408.605282,346.386485L409.640898,348.228423L412.587985,351.158754L412.357600,352.367402L409.654173,352.165545L409.477106,353.394459L408.622358,354.229585L407.759298,355.054343L406.191668,355.441636L403.619443,355.182837L403.353794,356.345115L402.949053,357.424807L401.767222,358.000038L400.971258,358.820022L400.416924,359.799649L399.852408,360.773892L399.557181,361.937654L398.493810,362.564464L398.958642,364.282754L398.292757,365.199212L398.175123,366.523108L398.245930,368.002118L395.696798,367.491144L395.004723,368.381372L394.782827,369.643108L394.209403,370.634397L394.194736,372.084103L394.501878,373.817317L392.814193,373.901897L390.308822,373.265522L389.410127,373.973557L391.740929,377.513224L394.251622,381.294435L396.803865,385.201041L394.366029,384.616048L392.462322,384.484481L387.337247,381.275120L383.965271,379.627167L383.759815,380.991118L383.681719,382.497829L383.756147,384.178758L381.038208,383.040907L380.297938,383.890254L380.664317,385.903180L380.762758,387.667731L378.542677,386.954966L377.281401,387.249736L376.539982,388.109573L375.099221,388.181903L374.892553,389.650320L376.299352,393.020654L375.293428,393.617249L372.895722,392.538309L371.084377,392.118829L371.095100,393.919428L373.298184,398.508165L374.914799,402.468002L373.931667,403.159874L371.767991,402.297450L369.695843,401.507903L369.473910,403.181881L368.511559,403.866208L367.501162,404.482991L366.506042,405.119295L365.189608,405.290066L363.121927,404.342147L363.171680,406.500330L360.086736,403.956616L358.382766,403.435937L358.467322,405.677808L356.240448,404.294952L355.746455,405.649483L354.594407,405.946880L352.949387,405.409582L352.196056,406.351316L352.530800,409.189026L352.218363,410.966000L349.910937,409.211057L348.401756,408.829572L347.142910,408.879499L345.733991,408.628375L344.873932,409.404673L343.680628,409.537706L342.738968,410.158804L341.658227,410.501662L341.074605,411.868484L340.041270,412.319698L339.118936,413.008611L338.310370,413.955673L336.849737,413.462110L335.692486,413.622786L334.704278,414.165563L333.548782,414.314465L332.589556,414.928159L331.887479,416.188097L331.590515,418.512034L330.391125,418.581353L329.164149,418.562134L327.926869,418.495645L326.557872,418.042265L325.968534,419.763538L325.484805,421.857157L324.499265,422.540041L322.427110,419.918578L320.940675,418.979782L321.886177,425.795337L321.009174,426.939706L319.699966,426.661779L318.160845,425.547634L317.594719,427.842275L315.150143,423.314753L313.520653,421.596861L312.399813,421.750175L311.366859,422.251411L310.326842,422.738349L309.461327,423.995000L308.401641,424.452839L307.620388,426.216569L306.187246,424.959358L305.125170,425.440179L304.296117,427.151849L303.718845,430.349829L303.097280,433.556220L301.658527,432.213854L300.348346,431.520298L298.868628,429.641404L297.815785,430.458373L296.065829,426.337758L295.060649,427.383397L294.261801,430.200577L293.357433,432.458132L292.525079,435.668275L290.870539,431.239391L289.528415,429.406798L288.271652,428.224528L287.396987,431.628027L286.498642,435.390611L286.087960,447.597601L285.358603,457.373108L283.129302,439.685725L281.455675,428.957599L280.228309,426.522693L279.121821,427.194788L278.023195,428.750983L276.891571,429.470860L275.740175,428.264611L274.601694,429.013933L273.456028,429.366103L272.345234,427.406618L271.191441,428.337044L270.060211,428.126978L268.967963,426.999532L267.822397,427.345128L266.703032,427.101714L265.559670,427.289063L264.398812,427.673209L263.284197,427.366253L261.991136,429.213622L260.843751,429.158422L259.731475,428.742207L258.802539,426.651915L257.711881,426.234893L256.346990,428.104400L255.247508,427.688661L254.245417,426.591236L253.172982,426.079388L252.187141,425.032881L250.911739,425.883513L249.766763,425.860784L248.633118,425.758929L247.411995,426.128446L246.543005,424.600519L245.491580,424.096629L244.237908,424.597649L243.379917,423.191431L242.272119,422.997018L241.167443,422.785688L239.750707,423.889863L238.465527,424.368733L237.545585,423.354242L236.929825,421.216116L235.721929,421.394505L233.824575,424.041471L232.731791,423.692311L231.701022,423.132943L231.208942,420.792898L230.461687,419.385726L229.437662,418.907977L227.210160,422.142704L225.776701,422.816225L224.989621,421.545521L223.638258,421.931701L222.851494,420.704698L221.030481,422.339634L219.587077,422.875522L219.628679,419.494413L218.951088,418.078200L218.611522,415.860346L217.088253,416.612757L216.426251,415.253886L215.600261,414.317405L214.586280,413.832911L213.614019,413.255903L212.640465,412.686527L211.204718,413.121973L210.470990,412.031911L209.485792,411.488839L208.576938,410.791826L207.455594,410.528716L205.015156,412.855270L203.963081,412.393900L203.818480,410.206484L203.277357,408.817534L202.483231,407.922331L201.585333,407.226420L200.053935,407.657030L198.953137,407.304913L198.004129,406.686040L195.493975,408.693928L194.358009,408.343335L195.315424,404.580406L194.436722,403.857982L193.849057,402.681701L192.428837,402.812658L189.826108,404.720790L189.687265,402.855583L188.779388,402.163561L186.855582,402.947886L184.301102,404.588369L180.348461,408.123418L176.823112,410.935844L179.721134,404.883079L178.636940,404.338965L180.131839,400.381036L181.849393,396.232114L181.955816,394.252693L180.630447,394.119409L178.447633,395.035107L176.099505,396.104427L175.398906,395.132839L176.210499,392.371547L176.244508,390.580479L174.709990,390.629165L172.924985,390.938967L169.956800,392.541296L167.155989,393.889077L166.421226,392.929815L166.145269,391.484110L166.953720,388.913810L167.857779,386.295974L168.517308,383.981733L168.011617,382.887073L167.076276,382.228100L167.049430,380.675645L165.532671,380.582207L164.508858,379.999315L163.714645,379.194533L163.411862,377.935825L162.678900,377.080720L161.361205,376.749824L161.566290,375.060625L160.754167,374.280363L158.519932,374.715559L153.471160,377.485850L155.337439,374.402999L157.008579,371.545077L156.823292,370.242420L154.869768,370.356085L151.200974,371.780539L149.259904,371.804338L146.419558,372.481013L151.557987,367.151917L153.269546,364.476158L151.324204,364.501066L146.565964,366.501020L145.519840,365.806389L143.669156,365.658906L145.238596,363.161932L147.805060,360.046511L148.185016,358.438329L145.441429,358.873487L144.678393,358.002567L143.732728,357.242993L141.851791,357.052849L144.256783,354.239105L141.546454,354.534640L141.849356,353.021900L139.413991,353.104096L133.213938,355.281246L126.291064,357.750841L120.318298,359.578376L115.010957,360.945460L113.603447,360.165437L122.095396,354.240458L125.157153,351.249536L129.812099,347.530443L135.405318,343.447525L137.171999,341.318042L136.323729,340.464237L135.241286,339.712282L135.737770,338.232555L134.299182,337.631476L131.171294,337.750100L128.440959,337.651770L124.366353,338.076597L122.385680,337.579926L120.766032,336.912058L126.494021,333.337821L126.931496,331.902180L129.088116,329.835097L128.342953,328.877429L127.256641,328.036407L127.245776,326.806701L127.884419,325.360871L130.993255,323.106624L131.282822,321.828129L130.402098,320.931827L129.512426,320.029476L129.397209,318.884672L129.213671,317.763310L128.438934,316.812764L128.940893,315.500750L128.478667,314.461225L127.787963,313.478723L126.226896,312.710414L125.622974,311.686805L127.289202,310.118249L127.033421,309.021809L127.443630,307.777375L126.923620,306.742515L124.991442,305.995024L111.791915,307.462298L97.091359,309.016774L88.874770,309.159140L98.420522,306.055512L108.971970,302.932164L119.579851,299.963832L118.275040,298.982628L119.318497,297.642779L119.276727,296.470907L118.268285,295.426795L121.192036,293.886903L123.382344,292.477683L122.689469,291.414040L121.797686,290.361773L124.031076,289.007879L124.582834,287.832411L123.031221,286.830350L121.736515,285.788362L122.620669,284.591126L118.903904,283.663470L118.804094,282.507624L119.725629,281.309620L122.081152,280.078379L123.286533,278.912330L122.561590,277.800058L119.022575,276.708157L123.565124,275.535377L123.658209,274.412765L123.041948,273.283456L122.369922,272.143773L124.016256,271.054390L123.885727,269.929385L122.419036,268.747127L123.110079,267.646848L121.820999,266.445448L121.316587,265.273587L120.855764,264.096224L120.807526,262.943049L122.255317,261.915969L123.112296,260.854044L122.977634,259.703592L123.003757,258.566807L121.416466,257.242036L116.142740,255.437461L90.840261,250.933935L90.617993,249.512877L94.813324,248.729666L117.734313,250.879127L120.307133,250.098265L116.801984,248.329042L119.494504,247.595543L122.420135,246.942976L123.374247,245.954410L125.733857,245.257262L125.985601,244.156810L126.933270,243.206147L127.150341,242.103974L125.312034,240.528045L126.648008,239.675256L127.473815,238.713816L127.873791,237.653038L128.023413,236.528671L127.750383,235.288170L129.105061,234.490591L128.608960,233.181151L127.558629,231.695998L126.922906,230.313869L128.304646,229.541272L129.697035,228.789043L127.793754,226.978854L128.319350,225.943907L128.511744,224.797438L129.422381,223.900101L128.921546,222.504386L128.119100,220.982844L132.543011,221.407219L133.960653,220.743276L131.512483,218.576468L130.791195,217.054461L133.036641,216.730339L130.654583,214.498038L130.298828,213.083418L126.384367,210.100433L127.470127,209.267682L136.318835,211.973591L137.455836,211.255512L135.585292,209.128377L136.676937,208.385003L138.988105,208.251039L138.380463,206.691114L136.680932,204.554437L138.922365,204.420324L139.113460,203.235726L136.565409,200.571982L138.160304,200.116147L142.701795,201.321347L143.652437,200.569354L143.173250,199.000866L143.806341,198.064046L144.658241,197.258979L145.096795,196.208739L146.110349,195.510161L146.773759,194.600721L146.795941,193.283958L146.607400,191.818497L147.976793,191.361894L149.149185,190.789401L148.269919,188.833710L147.501967,186.921989L145.354284,184.010795L145.535301,182.697381L148.101585,183.100115L150.418978,183.362390L151.346073,182.623468L149.889918,180.082026L153.641431,181.502228L155.928448,181.849020L156.456233,180.836557L155.401918,178.544004L156.685957,178.122810L158.680718,178.306437L159.552590,177.574510L160.301032,176.740638L160.418379,175.358467L161.069985,174.431706L161.943964,173.701706L160.252686,170.641994L152.750736,162.151641L155.491110,163.028556L158.385765,164.105383L161.985608,165.921372L166.254543,168.472762L166.939463,167.561900L167.908807,166.934750L168.935046,166.370899L169.217870,165.040985L170.320903,164.559984L171.909312,164.607640L172.618801,163.724530L173.090625,162.575490L173.504555,161.349723L174.745188,161.049259L175.534500,160.241531L175.797868,158.815690L176.884595,158.347722L176.662884,156.308422L178.402820,156.632712L179.618506,156.336777L180.632092,155.798245L179.843585,152.953356L182.366861,154.355268L183.172798,153.550989L184.750131,153.778966L185.676835,153.147588L186.472572,152.335720L186.686079,150.699440L187.791324,150.306871L188.442625,149.263037L189.155327,148.296860L190.513184,148.287582L191.996415,148.489550L192.741723,147.575284L192.736049,145.468465L193.637481,144.763778L194.780076,144.448161L195.551857,143.528362L197.141922,143.974368L198.145106,143.450990L199.002310,142.675048L199.710587,141.627868L201.073253,141.743026L202.053660,141.180537L203.085712,140.713710L203.875363,139.788479L205.497814,140.460764L206.652825,140.255499L207.344804,139.131647L207.794789,137.489081L209.029208,137.438368L210.039792,136.928906L210.592338,135.425764L210.535694,132.535557L210.799892,130.271472L212.329030,130.844006L212.576641,128.450888L214.233131,129.353516L215.507426,129.378314L216.679794,129.168404L219.197537,132.406160L220.138614,131.688415L221.711632,132.644720L222.776028,132.273434L223.700183,131.510633L224.596570,130.649992L225.263456,129.092317L226.443158,129.017218L228.051015,130.276407L229.275480,130.406528L230.171127,129.494213L230.975802,128.247260L231.882388,127.298430L230.943303,119.812660L231.440424,117.116605L231.619366,113.091664L233.101840,113.853878L235.338823,117.676384L237.179880,120.143631L239.573559,125.131379L241.261726,127.392189L242.416429,127.414188L243.497503,127.109786L244.409374,125.975754L244.997173,123.130344L246.489715,124.837293L247.463095,123.856487L248.958401,125.797804L249.972468,125.051300L251.112673,125.042965L251.634959,120.978248L252.513583,118.976334L253.398394,116.816271L254.682711,117.518624L256.237841,120.556109L257.573905,122.090852L258.973005,124.452538L260.089737,124.336961L261.150379,123.607432L262.176486,122.355230L262.795935,115.564607L263.978003,115.470494L265.347858,118.419717L266.611059,120.230974L267.706466,119.050356L268.812365,117.710787L270.066155,120.403074L271.304382,124.114084L272.371117,121.030437L273.438190,113.274414L274.631750,110.701454L275.863227,108.167869L276.990534,116.900246Z" />
<line x1="50" y1="575" x2="100" y2="575" fill="none" stroke="blue" stroke-width="1.0" stroke-linejoin="round" stroke-miterlimit="10" />
<text x="125" y="578" style="text-anchor:start;fill:black">n1_4mer:GRV/n1_4mer:RV</text>
<path style="stroke:green;stroke-width:1.0" d="M276.415521,179.551917L276.945528,187.554165L277.714678,183.500991L278.625939,177.246680L279.310031,178.190288L279.744158,183.684461L280.677584,179.404896L281.587747,176.435758L281.981470,181.023551L282.612067,181.886324L283.205749,183.027924L283.648330,185.565020L284.981380,179.200216L285.154535,184.084461L285.579577,186.249891L286.966362,180.578942L287.154552,184.480760L287.637747,185.896852L288.634213,183.743618L290.870468,173.911111L290.882441,178.510308L290.679535,183.960777L290.590857,188.323331L293.109819,178.434666L294.683922,174.174035L295.585269,173.562837L294.899599,180.540864L294.590755,185.309317L295.243860,185.507690L295.818215,186.039361L296.256909,187.107557L297.862355,183.446175L297.310392,188.393890L298.354172,187.047124L298.578656,188.784361L300.171998,185.569890L300.658542,186.366727L303.922542,177.796239L305.192581,176.213776L303.686419,183.572778L304.013636,184.875120L303.216525,189.529260L304.973709,186.418628L305.927308,185.784995L307.366249,183.824543L308.254208,183.481577L307.302733,188.112901L306.816083,191.326800L308.189235,189.626654L307.375443,193.514447L309.843432,189.163259L309.699904,191.303175L311.416143,188.972374L312.971905,187.118252L316.394852,181.114524L317.698140,180.071840L317.368707,182.641140L316.515576,186.243504L316.986884,186.943303L317.262920,188.030385L317.158046,189.858101L318.619673,188.524787L320.838735,185.777162L321.366751,186.372513L322.774649,185.307038L322.801305,186.838875L320.498869,192.550371L320.587960,193.817924L319.107587,197.800694L320.166324,197.291180L323.878477,192.321738L325.973113,190.220094L325.540970,192.333248L323.143115,197.551681L322.629367,199.630487L323.120322,200.089484L323.053692,201.399221L325.173126,199.383940L327.190781,197.595242L330.438726,194.079278L328.323725,198.391085L328.819167,198.889275L329.660324,198.903100L328.232422,202.038990L328.333508,203.027471L328.358504,204.098955L330.317046,202.619930L332.294412,201.173846L329.701580,205.583760L333.980947,201.284329L330.317947,206.903778L332.479041,205.305936L333.219218,205.465420L336.523663,202.616070L337.139271,202.980940L334.740902,206.789900L335.954289,206.437031L341.560326,201.240059L343.507963,200.204438L346.784533,197.784632L344.193300,201.669949L342.210571,204.821162L340.316212,207.803856L347.035547,201.982374L348.929464,201.165866L348.436589,202.737866L347.542499,204.668818L343.477780,209.587728L343.320682,210.699918L346.876512,208.351512L348.662260,207.704648L348.918108,208.469787L351.934083,206.781093L352.826350,207.014084L348.933749,211.374933L349.126343,212.159913L346.514741,215.279645L345.259284,217.206960L347.856403,215.971001L345.431553,218.795625L346.147404,219.082880L346.978308,219.288311L347.724903,219.567912L347.210183,220.802070L347.591835,221.352530L350.445852,220.103662L354.095050,218.340677L347.690740,223.739724L349.726667,223.129422L360.423139,216.638484L364.302569,214.954490L366.509547,214.451066L366.888054,215.175571L365.075225,217.302360L364.235187,218.769284L361.390124,221.452934L360.937117,222.611800L364.487204,221.353751L364.228519,222.404335L365.432971,222.594066L365.892397,223.224355L364.212881,225.053626L367.497372,224.111984L367.272809,225.123278L359.613752,230.070831L362.197087,229.524792L360.831000,231.043727L362.908296,230.799650L359.518333,233.286418L355.848329,235.840594L355.506459,236.740610L361.175187,234.827260L363.123115,234.711951L362.427634,235.811105L362.855442,236.399159L361.029436,237.960095L362.718724,238.001394L360.402804,239.721881L360.370303,240.474144L360.382642,241.203680L359.332968,242.340413L361.954611,242.064543L362.275557,242.680962L368.013444,241.338357L369.230181,241.686203L365.607320,243.720934L360.837439,246.078152L363.721833,245.837089L363.459844,246.648301L371.775357,244.772645L373.303628,245.093553L373.743569,245.757931L371.048922,247.328961L368.848939,248.714868L361.734370,251.399720L361.618400,252.119775L364.982040,251.943710L370.163446,251.366674L369.452815,252.285417L367.141168,253.562853L363.783977,255.036755L365.112213,255.438957L371.253562,254.852044L375.852989,254.668735L376.360902,255.347381L372.950595,256.761189L368.806450,258.251609L368.748974,258.978294L371.414043,259.257757L372.682232,259.793481L371.588763,260.696486L366.843915,262.094390L365.280771,262.996038L365.821216,263.608910L361.466299,264.805803L366.886352,264.857056L362.776301,265.969058L362.763341,266.627602L365.502334,267.043073L373.666514,267.062134L378.987393,267.409724L380.915340,268.058188L380.552552,268.867688L377.464990,269.809148L363.069808,271.192930L364.736264,271.787376L366.570542,272.401453L369.675341,273.015844L364.237259,273.791753L370.602787,274.414582L376.249854,275.130831L370.983786,275.835817L367.396776,276.489860L367.425353,277.175976L366.158158,277.822633L363.411381,278.393989L368.284263,279.274033L374.813979,280.315199L375.931203,281.125582L376.808773,281.936943L379.798884,282.921836L377.587097,283.520172L379.375831,284.448566L378.495648,285.143185L374.813526,285.530152L368.965066,285.618269L361.288271,285.399372L369.489167,287.099248L370.174887,287.905093L369.125905,288.474411L368.099431,289.032759L367.124380,289.585256L368.866893,290.575504L366.897942,290.949902L369.624820,292.146957L366.402619,292.264072L364.365146,292.566541L365.656532,293.519663L363.472712,293.758044L365.777516,294.951253L364.845669,295.446038L368.184497,296.933889L370.932243,298.332786L374.721524,300.039082L372.457015,300.240192L366.765743,299.493766L365.395915,299.847664L363.061263,299.909732L365.198159,301.238109L363.620928,301.493636L368.400008,303.678565L366.365270,303.796900L361.682211,303.029191L364.810257,304.778070L364.178403,305.304396L366.325916,306.791515L366.671375,307.675928L367.423229,308.718430L365.735947,308.867357L366.840256,310.057634L366.224134,310.599706L365.053547,310.914631L363.105154,310.897107L364.298333,312.157723L365.322299,313.372008L366.205099,314.547990L367.199976,315.794283L366.220692,316.172547L359.025226,313.677425L360.539470,315.145810L362.015969,316.628932L359.931763,316.408566L357.306534,315.886816L355.029648,315.498406L360.388345,319.008493L358.482456,318.812741L353.482279,316.933776L356.133352,319.126767L363.079254,323.754303L365.522388,325.987218L361.882043,324.789026L358.970970,323.951520L359.984299,325.390300L360.372359,326.479845L358.201486,326.015920L350.084232,321.808371L350.705184,322.978689L352.316575,324.807354L348.994555,323.447468L351.004865,325.572881L348.493687,324.692168L352.016800,327.910719L354.434468,330.443181L352.456977,329.921609L354.730262,332.426713L349.774788,329.704162L348.807162,329.841113L348.735139,330.640978L346.466316,329.765342L347.666275,331.545078L347.410441,332.213119L345.318968,331.412598L344.782992,331.838241L345.569758,333.354850L344.088929,332.998327L342.711163,332.703068L342.546410,333.432839L345.439014,336.854317L343.423487,335.988989L343.135352,336.644897L340.398970,335.057093L340.153557,335.728439L341.365402,337.784083L340.074222,337.483500L340.487397,338.820285L337.811740,337.127521L340.566375,340.821156L337.569781,338.751510L336.853988,338.964182L341.545569,344.844914L342.755614,347.179200L339.962694,345.240566L336.245250,342.214205L334.882526,341.705615L334.102504,341.827033L333.249394,341.854950L336.819817,347.024304L335.452381,346.497159L332.887749,344.502814L333.716594,346.570623L334.829877,349.040557L337.105756,353.033669L339.065347,356.732455L337.704134,356.229339L336.556182,355.976621L334.622205,354.651649L335.329239,356.854507L334.573868,357.097428L333.224135,356.502059L331.429291,355.241036L331.488268,356.604303L329.738011,355.342454L329.359360,356.072219L324.693438,350.314883L324.273147,350.896292L323.148371,350.381879L324.279676,353.429077L325.891999,357.344337L325.076069,357.383992L321.857006,353.391927L322.367605,355.597347L323.248923,358.508437L321.807994,357.419459L318.564282,353.050129L317.901615,353.220264L317.149558,353.219213L316.548636,353.492343L316.580524,354.981426L315.630765,354.591147L315.732861,356.273822L314.891321,356.090371L315.235367,358.344482L315.749504,361.033214L313.655876,358.202312L313.620295,359.765088L311.447748,356.595045L310.172839,355.335429L310.101889,356.819500L309.681493,357.523213L307.531247,354.042761L308.919431,359.184078L309.950971,363.634729L308.980949,363.083255L308.321111,363.317640L306.871496,361.410193L305.933910,360.823105L306.199572,363.614681L306.611120,366.954783L304.784935,363.778500L302.982430,360.503289L301.428434,357.827695L302.588860,363.731299L301.849253,363.666395L300.600308,361.858863L300.827294,365.087160L301.650551,370.629951L300.153083,367.915565L298.425281,364.148870L297.540810,363.446106L296.983118,364.010851L297.017385,367.077636L298.007507,374.473926L297.851630,377.247704L296.944327,376.726131L295.509602,373.617451L293.725982,368.514496L293.561411,371.400253L292.879668,371.717096L292.732625,375.067267L291.532295,372.496227L290.292775,369.429423L288.941303,365.323696L288.355460,365.999196L287.420854,364.231914L287.376655,369.014740L287.343290,374.455170L286.618219,374.653536L285.977078,375.636817L285.182310,375.240957L284.175187,372.513130L283.211894,369.808358L282.375247,368.181552L281.801456,369.871175L281.331965,373.564748L280.673379,374.885253L279.841511,373.080725L279.018374,370.831836L278.224833,368.459527L277.402580,363.713264L276.921855,372.740007L276.212072,373.981129L275.468068,371.920699L274.744814,373.673508L274.002436,374.736276L273.394421,367.174181L272.612507,371.123247L272.001038,367.963896L271.383411,366.133359L270.667100,366.966105L270.107185,364.696092L269.495578,363.795970L268.977508,361.733032L268.160391,363.950425L266.920893,370.773802L265.851620,374.623837L264.912075,376.577576L264.897179,369.589648L264.446970,367.316950L263.701085,367.741798L262.941246,368.215332L262.175967,368.666593L261.379212,369.278580L260.443923,370.730665L259.145196,374.310970L259.153713,369.739461L257.682493,374.016975L257.356559,371.651634L257.420623,367.416077L256.977684,366.061011L256.238225,366.239483L255.681995,365.536220L255.598221,362.735759L255.113231,361.868391L253.760274,364.714703L252.391800,367.432106L250.842116,370.687640L250.816644,367.881013L251.351022,363.142831L249.459976,367.446474L248.855875,366.970547L247.192420,370.134317L248.033312,364.779780L248.374371,361.315816L247.337433,362.371813L244.651778,368.440769L243.542502,369.466009L241.630470,372.782805L241.463003,370.940048L241.129673,369.634845L239.613109,371.608080L239.660469,369.307450L240.816187,364.204482L241.014791,361.755341L241.222470,359.377425L238.543121,364.148738L238.815782,361.642520L238.949226,359.554248L239.216469,357.231846L239.533241,354.879621L238.749120,355.040010L236.398898,358.574524L236.833485,356.049292L235.648061,356.983749L236.509587,353.687781L234.439424,356.385316L231.680996,360.329233L229.912485,362.204648L232.767538,355.218892L232.302585,354.663306L232.693494,352.547297L230.135209,355.805525L228.654695,357.032733L229.051701,354.939993L227.973797,355.428916L223.982365,360.789071L223.203210,360.647150L226.857431,353.287844L224.179845,356.284958L226.392588,351.478188L224.754607,352.775302L217.702678,362.264463L221.299852,355.478768L221.622211,353.724908L222.013593,351.913535L222.611170,349.851880L223.514594,347.412064L220.726100,350.147710L220.352649,349.494654L219.101974,350.026601L219.183391,348.769157L219.563029,347.149194L220.219035,345.211563L218.684472,346.085135L212.578903,352.602687L211.884080,352.285937L210.950316,352.252870L214.520120,346.855987L218.269487,341.395698L217.982774,340.737896L213.352596,345.020429L207.250726,350.810119L206.143284,350.908818L205.736110,350.229047L207.180515,347.572798L208.006198,345.631948L210.263204,342.246550L211.648277,339.838524L210.314785,340.228564L211.036593,338.551130L210.557817,338.084143L209.185716,338.478458L208.225261,338.455782L205.873672,339.721773L207.219981,337.524497L209.519368,334.510725L204.098157,338.484042L207.831335,334.249923L205.468930,335.422947L200.588822,338.701476L195.792925,341.795704L197.770524,339.154080L202.672975,334.180728L201.372162,334.339049L197.681426,336.373365L195.582321,337.085188L193.106010,338.048254L192.896689,337.245189L198.547145,332.073576L204.308663,326.960615L200.316499,329.046573L190.574122,335.148028L190.462459,334.287453L190.738047,333.166812L194.020530,330.018722L201.382431,324.223007L198.853832,325.100618L192.895674,328.152609L193.379478,326.984571L193.518620,326.050597L190.498966,327.073930L198.411333,321.417837L192.846315,323.961335L194.960068,321.900768L190.782584,323.513303L182.147237,327.574530L181.972556,326.766218L178.903962,327.544333L178.971412,326.586165L176.892792,326.769031L178.294701,325.116033L179.738766,323.474953L180.406482,322.255382L185.552794,318.858690L187.259016,317.217910L191.035392,314.636767L187.985093,315.290391L185.626687,315.580300L181.228928,316.741198L183.214747,315.044397L186.613650,312.783825L188.140480,311.371707L186.111048,311.449162L185.695670,310.848231L184.242488,310.652406L182.514798,310.541722L180.653246,310.456423L181.160369,309.473884L179.484301,309.287900L181.712653,307.709114L181.506430,307.004888L186.413829,304.592930L191.215844,302.299835L188.882087,302.355536L184.243260,303.089880L183.655365,302.531267L182.127460,302.242179L182.286797,301.450376L186.414010,299.564021L189.442311,298.042455L189.239264,297.416398L185.722826,297.629623L184.350706,297.263350L189.279501,295.380053L187.824843,295.044097L187.276362,294.486455L188.149438,293.617792L178.262498,294.988068L168.379636,296.206928L166.386564,295.767281L168.782099,294.493930L167.081100,293.979990L166.092256,293.322382L171.632602,291.603036L170.370588,291.010776L171.882552,289.997707L174.695746,288.829810L174.824374,288.055858L186.104312,285.915977L187.176462,285.123834L180.823206,285.149145L177.280144,284.798483L185.965050,283.261242L186.869586,282.518595L178.011476,282.550289L174.317147,282.087162L176.546949,281.196875L173.099016,280.655594L172.152478,279.943411L175.156200,279.057182L180.498723,278.138353L186.812373,277.274149L186.707104,276.621804L179.358978,276.047394L187.033428,275.310994L184.934391,274.650528L182.811229,273.958620L182.091611,273.261369L181.445414,272.555168L183.593284,271.932862L179.796532,271.098496L181.765998,270.486443L179.686696,269.677060L178.802726,268.911806L179.908811,268.273488L177.820010,267.401092L180.274404,266.885854L182.727733,266.406286L183.810866,265.824599L180.355765,264.767464L182.090862,264.257461L177.465240,262.989044L170.247724,261.310933L178.065474,261.600741L174.058039,260.283157L177.043380,259.975749L181.068620,259.879365L174.867890,258.118503L175.759485,257.511021L178.265976,257.212143L178.008599,256.420224L185.492883,257.164832L185.592651,256.494353L183.892488,255.436802L186.380488,255.282472L182.542231,253.707707L182.349169,252.938504L183.753481,252.556608L184.868980,252.120869L185.405208,251.548437L183.821089,250.409909L186.359962,250.388073L184.336185,249.100488L187.282601,249.237119L185.202386,247.901224L183.772595,246.729972L185.051431,246.393499L180.771938,244.261226L182.288632,243.993473L182.966146,243.459346L185.764906,243.677161L182.427286,241.732524L180.727682,240.330261L190.018449,243.029665L194.509346,244.035880L185.864129,239.949141L182.748700,237.931866L185.085116,238.093929L180.537766,235.406430L182.972679,235.622177L179.910342,233.474909L182.242062,233.671459L193.022059,237.743497L195.299356,238.062942L189.995939,234.836695L190.708268,234.405949L195.759179,236.111913L192.460031,233.730549L186.159275,229.753636L191.042042,231.453348L192.732887,231.553168L193.488829,231.176308L191.587499,229.353527L194.405663,230.115928L199.545032,232.241978L199.734880,231.609080L198.138794,229.926250L199.336168,229.871074L195.497929,226.778954L197.387574,227.134254L197.461527,226.382515L192.790027,222.600149L190.844569,220.478359L198.841304,224.853501L200.682144,225.271668L201.313199,224.898886L196.895124,221.043700L193.149210,217.554690L192.924922,216.484091L192.751464,215.435576L194.421183,215.728932L195.216416,215.397115L192.923327,212.730426L199.468319,216.808445L204.608954,219.932313L206.271709,220.406725L200.382440,214.820849L201.475893,214.797435L208.059509,219.353899L208.731863,219.076651L208.249040,217.816340L206.038173,215.029979L207.987982,215.847157L207.464332,214.487990L207.802100,213.886248L209.456292,214.496569L210.290310,214.371561L209.490884,212.703932L206.079421,208.479604L209.742886,211.074018L208.720902,209.102674L212.582226,212.014500L213.459000,211.971230L209.883764,207.312601L209.217950,205.597694L213.782363,209.446461L214.180088,208.896415L213.135748,206.752519L212.539202,205.059058L213.194579,204.751267L215.234451,206.045409L214.948964,204.668969L214.818482,203.448431L212.492148,199.553863L213.697457,199.881702L218.459703,204.658746L219.051340,204.327897L215.275886,198.398463L218.722468,201.704548L219.529740,201.636029L220.166356,201.349022L223.163512,204.285969L223.657036,203.858797L220.683266,198.549987L223.492345,201.353076L224.222018,201.237721L221.880480,196.597814L221.458997,194.699779L226.727933,201.425818L224.480530,196.741259L225.603191,197.220555L224.867983,194.754149L224.963341,193.569135L225.568563,193.200329L230.727702,200.495132L231.562913,200.650722L230.903557,198.220565L232.297111,199.353570L230.562857,194.899637L232.757505,197.506488L233.659566,197.804583L232.630563,194.453565L233.668303,194.991942L233.195725,192.584067L233.151453,190.957777L235.016657,193.188690L235.481322,192.596050L237.090719,194.424890L234.569389,187.385087L233.572356,183.445983L232.680288,179.597207L235.074408,183.163006L235.063575,181.242668L236.455778,182.616922L237.847452,184.060638L238.960151,184.881171L243.862293,195.432809L243.598306,192.970965L243.753617,191.527983L243.385687,188.599020L244.101531,188.574707L244.828828,188.593004L244.995151,186.977439L245.157177,185.279621L248.163014,192.273078L248.769383,192.051596L249.631666,192.659330L249.860731,191.199345L248.809938,185.284613L247.013559,176.419271L247.472674,175.226125L247.153621,171.069734L248.787215,174.182002L249.256372,172.882992L251.096607,177.126362L252.747790,180.863872L255.258133,188.627657L255.671142,187.450815L256.020095,185.897786L256.897945,186.814651L256.569547,181.707904L257.959641,185.249005L258.281965,183.238688L259.146968,184.171966L259.785147,183.842493L260.921401,186.619035L260.155281,177.143992L261.101636,178.565172L261.846977,178.683355L262.158885,175.467211L263.257675,178.341064L264.454557,182.466659L265.658958,187.256158L266.421709,188.319343L266.780379,185.149923L267.273056,183.022276L267.525201,177.348318L268.020095,173.974675L268.853675,175.292262L269.761097,178.346582L270.385511,176.333432L271.076483,175.264501L271.887274,177.465958L272.672663,179.978721L273.426371,182.835003L274.097296,181.524901L274.782045,177.757213L275.516245,175.227626L276.245550,176.071202Z" />
<line x1="50" y1="625" x2="100" y2="625" fill="none" stroke="green" stroke-width="1.0" stroke-linejoin="round" stroke-miterlimit="10" />
<text x="125" y="628" style="text-anchor:start;fill:black">n0_4mer:PS</text>
<path style="stroke:red;stroke-width:1.0" d="M276.786926,154.508243L277.593853,158.413838L278.663643,151.515848L280.015996,139.771513L281.407787,131.071572L282.839674,124.101976L283.623778,129.798985L284.366283,134.863996L284.734071,143.971219L285.214992,150.046370L285.739577,154.628152L286.654221,154.480205L287.823750,151.919581L288.152443,157.243601L289.635010,152.229611L290.725982,150.913518L290.889758,156.663362L291.637375,157.697250L292.581478,157.323819L294.806936,148.837294L294.804871,154.680596L295.311910,157.064075L296.058488,157.926280L297.757113,153.654325L299.522488,149.389692L300.590493,148.898805L300.660455,153.195314L300.312753,159.112780L301.655663,157.162945L302.988196,155.400519L303.756860,156.096984L305.127747,154.351427L304.571902,160.205629L305.063619,161.779040L305.710951,162.705041L307.163278,160.731538L307.903891,161.338844L310.470977,155.788059L312.344976,152.812064L311.236095,159.511012L312.117019,159.703629L312.926222,160.117595L315.048699,156.643987L315.599913,157.882744L316.228496,158.859667L317.825968,157.139277L316.953544,162.154386L318.438194,160.761781L318.984557,161.857627L319.328197,163.430632L320.118521,163.850594L321.385708,163.116795L324.497969,158.068541L325.635016,157.810893L328.921461,152.703583L331.495769,149.396419L331.592316,151.635327L329.446160,158.599102L328.311040,163.193797L330.552920,160.681916L328.970931,166.000936L330.701904,164.571982L332.418934,163.236875L332.747068,164.619665L334.869850,162.599294L335.517424,163.386222L333.909317,168.248966L334.821623,168.470919L334.586040,170.709532L335.892782,170.233754L336.825400,170.421934L340.093999,166.733843L339.725376,169.132688L338.822399,172.328257L337.824840,175.584913L339.203262,175.052633L339.942652,175.531478L342.168192,173.770627L343.907927,172.801849L344.976517,172.859301L346.065017,172.902597L346.380595,174.054016L348.313943,172.933942L347.613903,175.474495L347.170682,177.607073L347.944560,178.073641L348.007575,179.472605L350.409673,177.831603L350.811541,178.795245L353.395728,177.019313L352.394983,179.727014L353.303710,180.055761L352.588983,182.330990L354.722429,181.204825L355.031094,182.244420L351.919297,187.176201L353.129617,187.117776L359.298151,181.583591L362.133888,179.869042L364.582432,178.640239L363.469831,181.240961L364.565841,181.478601L363.880480,183.561361L365.337251,183.431159L366.800797,183.317577L366.121455,185.335830L367.202355,185.608254L366.851955,187.259932L366.122680,189.239793L366.782294,189.893601L369.922737,188.281794L370.311185,189.214884L376.632292,184.880722L380.711172,182.655044L376.366156,187.767462L370.717326,193.856309L370.088302,195.593894L372.038822,195.178969L377.938170,191.598447L379.372049,191.711110L378.812996,193.409901L377.425524,195.721963L370.039663,202.559243L372.177384,202.062739L372.428566,202.997466L373.214725,203.536446L375.608414,202.929692L372.178425,206.471424L374.159560,206.169635L382.318940,201.679163L387.553811,199.320756L388.915505,199.625762L390.298760,199.933850L389.665205,201.551260L387.303108,204.233251L387.536618,205.246591L384.907055,207.999465L387.364961,207.638876L385.063644,210.123091L387.425264,209.849526L388.572003,210.305219L387.616185,211.951143L390.238141,211.601006L391.887651,211.818083L386.574288,215.755020L387.970395,216.083442L388.250652,217.001415L389.038982,217.661124L389.573049,218.453069L388.881122,219.840950L388.341511,221.136284L389.530295,221.608811L388.662656,223.035806L388.556378,224.099057L388.456945,225.150685L388.424670,226.165098L389.501624,226.704719L386.013896,229.142472L390.045364,228.472818L388.733597,229.981751L390.334471,230.334477L390.428896,231.279449L389.154667,232.727351L391.064599,232.996125L394.608621,232.714001L391.067552,234.931662L390.386346,236.122019L387.891388,237.892544L390.485772,237.986394L397.888009,236.616473L403.347611,235.953414L402.595652,237.213631L399.345857,239.176807L396.824472,240.879505L394.256129,242.550603L390.623218,244.458161L394.706968,244.327229L394.498180,245.323274L393.407975,246.524535L394.183619,247.271278L397.275914,247.506030L396.680102,248.586380L399.981481,248.838669L403.139871,249.167889L402.802371,250.220708L398.719783,251.962858L397.593167,253.111971L397.277203,254.102817L398.755484,254.793516L400.100874,255.525129L397.411723,256.872448L396.388314,257.942907L395.933644,258.920354L393.104576,260.186942L392.726793,261.120256L395.611076,261.686255L392.570600,262.903646L396.866984,263.374202L394.159100,264.523582L399.154454,265.011591L403.852242,265.594783L404.826539,266.491021L403.336252,267.544018L402.811795,268.525085L392.997765,269.899209L392.360651,270.798403L396.033240,271.565374L395.127697,272.482427L395.470173,273.368868L397.090835,274.252384L402.178560,275.164334L399.057210,276.080277L399.997345,277.015531L397.386351,277.881350L396.398504,278.758999L396.397010,279.660261L398.486268,280.657807L406.595972,282.007623L406.599760,282.986877L405.723924,283.907135L405.488209,284.863714L401.493337,285.505658L404.000647,286.677714L402.584505,287.504036L399.566176,288.141513L396.781986,288.761645L394.473922,289.398872L396.399305,290.545066L393.180414,291.024492L395.872790,292.303310L396.735139,293.348983L397.858815,294.451173L399.295496,295.624578L401.371947,296.933247L400.234281,297.693695L396.123252,297.877687L397.076682,298.996660L397.606353,300.046494L396.177876,300.692214L392.486796,300.821469L394.530781,302.201433L394.597903,303.151112L396.853713,304.637445L402.468742,307.006133L399.279787,307.186966L397.819365,307.782482L398.278331,308.886250L398.784876,310.014807L398.921610,311.048061L395.208821,310.936982L398.452975,312.906358L396.120572,313.175304L395.053146,313.819875L394.835373,314.733391L394.509278,315.611364L392.997105,316.076037L394.061930,317.439191L395.464979,318.948799L396.378431,320.304720L396.205846,321.267186L396.214047,322.303101L396.517396,323.462860L395.862739,324.243687L392.429964,323.863511L390.794316,324.193393L390.262629,324.979720L392.429021,326.956985L392.316998,327.951140L385.269931,325.758054L388.584261,328.307931L391.592988,330.778746L386.332308,329.280178L384.824059,329.556497L384.586308,330.455333L386.271049,332.348239L382.951279,331.654316L384.264656,333.381073L384.058638,334.314757L389.865755,338.581371L388.090314,338.698724L384.327502,337.651725L382.981205,337.948470L383.365857,339.254082L382.845656,340.031325L379.531008,339.094355L376.993466,338.583897L379.222083,341.051474L377.294337,340.898034L375.444344,340.765300L375.721456,342.019054L375.044324,342.644169L378.040377,345.788977L378.102781,346.963044L377.323705,347.553600L377.569578,348.877015L372.996110,346.692549L372.557269,347.488212L373.156547,349.069518L368.931506,346.980637L370.366730,349.209380L370.621205,350.552466L373.013707,353.630389L373.022856,354.839608L372.831491,355.897853L371.782458,356.246312L366.700005,353.146223L366.414887,354.080907L369.334431,357.837500L373.264296,362.587469L375.284978,365.732006L372.173573,364.236302L370.412713,363.932443L368.350662,363.313120L364.458244,360.896750L362.613314,360.382943L362.045413,361.097212L360.430701,360.762673L357.496727,359.054808L357.367324,360.177345L361.533861,365.824231L362.005968,367.686360L360.278341,367.206750L357.372850,365.400899L357.375701,366.761690L355.242885,365.730401L354.571780,366.327428L354.717513,367.876340L355.558917,370.277202L352.699447,368.289691L351.794259,368.605786L351.752239,369.982287L353.257078,373.327230L356.485051,378.955938L355.006824,378.643906L354.340444,379.371664L352.936976,379.119072L353.044976,380.891159L350.933627,379.642449L348.782926,378.281232L350.461430,382.304259L349.230317,382.234892L347.548940,381.484685L346.611564,381.802369L342.152042,376.774970L341.959047,378.138195L342.364234,380.466550L340.029694,378.495382L341.990372,383.391847L340.004580,381.944035L339.780420,383.377858L337.085351,380.640016L338.612343,385.099191L337.591481,385.211003L335.183883,382.825946L334.771656,383.978525L333.171844,382.952637L332.161026,382.986769L330.527368,381.808612L328.414056,379.632191L328.521489,381.790827L327.027095,380.759756L327.402474,383.547713L326.761600,384.282724L326.290635,385.397172L326.269596,387.528188L324.329957,385.434260L322.784471,384.140635L321.265614,382.841187L321.939523,386.690701L320.842871,386.386664L320.809208,388.693120L321.815148,393.721965L320.755793,393.605258L319.037268,391.720825L317.579784,390.442565L316.534985,390.234747L317.860084,396.733485L315.681910,393.341146L314.489183,392.703476L313.600472,392.947846L311.656209,389.881919L313.408140,398.528273L311.965299,397.073408L310.663885,396.003407L310.113122,397.476690L308.362440,394.714168L307.885661,396.479731L306.528932,394.988686L306.074563,396.931027L304.726007,395.362236L303.598876,394.601707L303.610557,398.698949L303.277583,401.525672L303.035923,404.964612L301.183670,400.900386L300.243502,401.061927L298.786186,398.535559L297.774309,398.193845L297.110268,399.770818L296.093938,399.397694L295.461864,401.347375L294.148748,399.061980L293.474401,400.877779L291.952484,396.787322L291.209610,398.130388L290.523197,400.077046L289.724760,401.299420L288.873567,402.191559L287.613226,399.172390L286.649180,398.806526L285.622479,397.639159L284.949295,400.703005L284.692726,410.200510L284.105910,416.744591L282.952359,415.008873L281.446175,405.588466L280.234665,399.838465L279.180796,396.164503L278.274462,395.906775L277.458010,400.007274L276.531758,400.087487L275.599309,399.096154L274.677833,399.573025L273.721060,402.868187L272.872240,397.151918L271.930746,398.571754L271.082763,396.429208L270.153880,397.115964L269.256865,396.898427L268.552012,393.205835L267.408834,397.458811L266.565642,396.467559L265.823829,394.337862L264.615153,398.107200L263.308751,402.315119L262.233889,403.544834L261.796485,398.620512L261.237504,395.393068L260.706221,392.323721L259.770979,392.721802L258.705606,394.014068L257.932375,393.136445L256.893183,394.082748L255.318597,398.279937L254.944645,394.904022L253.245501,399.386530L252.865263,396.255177L251.755525,397.197917L250.966646,396.432871L250.736528,392.994524L249.528328,394.376143L247.792305,398.034478L246.753273,398.385947L246.768147,394.248823L245.804088,394.365520L244.807631,394.589800L244.362269,392.670330L243.636961,391.894144L242.196041,393.739523L242.238594,390.249007L240.468720,393.137201L240.093257,391.214486L239.814512,389.065441L239.104283,388.376095L235.712459,395.964521L234.549679,396.471213L232.923872,398.295768L232.805643,395.706355L232.695399,393.200495L230.897401,395.402423L230.433640,393.930265L231.221605,389.242055L230.330093,389.030580L229.180679,389.458231L228.294905,389.208905L226.234422,391.768380L227.128818,387.278082L227.284846,384.651146L226.987165,383.136382L227.769405,379.282635L225.022102,383.206213L224.444073,382.359083L224.395770,380.426178L223.270388,380.753307L220.558788,384.236990L219.731395,383.867406L217.903931,385.430628L219.159224,381.067346L219.655504,378.259774L217.888591,379.684499L217.365071,378.805693L216.649553,378.282234L215.737069,378.104541L213.809265,379.654516L210.751677,383.037230L209.792240,382.822490L211.561825,378.161049L209.461628,379.826200L210.603593,376.320361L208.266025,378.298130L203.891203,383.299493L204.816694,380.181572L201.261451,383.754232L201.199385,382.126837L200.407020,381.576627L198.439996,382.678434L196.114789,384.224564L195.669381,383.142608L195.036657,382.327185L197.304328,377.685282L199.154285,373.710429L198.925653,372.502824L197.960943,372.243725L194.434757,375.159715L194.909461,373.071490L193.797191,372.941936L194.884822,370.184633L197.117701,366.151117L192.951970,369.597111L191.281918,370.088773L187.931495,372.427962L186.428152,372.643116L185.835441,371.843606L184.453725,371.892456L186.504758,368.301039L188.938060,364.398439L189.129643,362.885647L190.683310,360.024941L191.882152,357.582111L188.981076,359.206181L187.382910,359.507458L184.594204,360.912286L182.379150,361.719283L185.406703,357.646419L186.596617,355.343596L183.184967,357.209279L184.402251,354.916873L184.961470,353.244062L180.778010,355.660997L176.690362,357.904986L176.943022,356.455366L178.951802,353.590296L177.829813,353.312587L176.385238,353.277695L176.426040,352.060711L172.327228,354.045349L171.179854,353.709428L175.570348,349.226211L175.894916,347.845717L174.302184,347.872480L167.331308,351.707043L169.867503,348.731006L169.436229,347.871656L172.923232,344.352557L173.623172,342.783715L171.786671,342.909544L169.793010,343.108787L170.449742,341.588649L169.918509,340.836795L169.787648,339.837321L172.677142,337.014473L167.682918,338.958027L170.116228,336.458442L168.034698,336.617185L161.074614,339.506143L158.993379,339.553252L157.108803,339.461703L156.277725,338.777121L153.219867,339.260717L154.373235,337.512965L155.858504,335.626743L158.008846,333.444403L162.369146,330.226338L165.409081,327.731339L166.344252,326.292594L161.848604,327.392333L158.300337,327.987935L155.785941,328.066873L146.721986,330.965588L141.672599,331.995444L137.385695,332.624854L141.882115,329.585359L148.160057,325.915645L156.200947,321.668006L154.431250,321.334126L153.567603,320.635469L154.137007,319.401462L149.321297,320.115712L153.536708,317.588376L157.720539,315.147317L160.579675,313.223040L159.620737,312.594636L159.447167,311.705600L156.859871,311.565240L156.836855,310.614365L156.678743,309.707017L155.761133,309.017947L159.759363,306.955092L156.843423,306.822010L155.344670,306.275868L158.402464,304.554679L158.758366,303.548796L161.593666,301.962361L158.626001,301.757758L159.243686,300.713482L154.281357,300.877951L153.440384,300.116855L142.389240,301.376451L136.168173,301.545146L133.711083,300.930434L137.980691,299.097957L139.888040,297.730917L144.180596,296.012421L140.835774,295.530302L144.736840,293.945860L147.681581,292.554485L148.899679,291.434615L153.598663,289.907520L152.681939,289.100181L150.368996,288.431102L150.716699,287.462030L153.612677,286.263105L151.796036,285.510795L149.972113,284.733076L143.590320,284.250052L142.807053,283.320546L141.620603,282.402673L142.341725,281.376278L147.159544,280.194835L152.623409,279.064082L153.524217,278.132572L156.269682,277.180893L150.404290,276.364486L156.309876,275.419613L157.606683,274.544492L156.429711,273.660610L152.351393,272.704828L153.370709,271.821501L153.076611,270.908880L154.756516,270.072339L156.299448,269.253580L153.892620,268.236545L152.747007,267.262775L149.467364,266.120137L151.529111,265.345297L151.882636,264.453830L151.200239,263.469995L152.052581,262.629098L149.658096,261.448562L148.137157,260.331593L147.222224,259.264756L138.973363,257.223987L133.617595,255.456711L137.656904,254.976050L145.458074,255.131302L144.393384,253.975557L145.626218,253.188584L148.661809,252.735645L150.117366,252.036059L150.057416,251.065866L153.475830,250.785121L150.833830,249.299928L156.139599,249.477520L156.703714,248.679495L153.030225,246.911326L151.546503,245.603946L152.628485,244.900968L154.532709,244.420218L155.597136,243.746132L156.021693,242.912675L157.351831,242.333632L155.040809,240.731814L152.444747,239.005130L153.569189,238.355081L151.219431,236.642226L155.758463,237.077404L153.079877,235.227612L156.266297,235.290525L156.648427,234.440078L158.142257,233.981202L157.279759,232.695361L156.943556,231.583372L160.787153,232.032756L160.009737,230.764153L157.949630,228.972335L156.842636,227.522371L161.071728,228.237499L158.887268,226.331686L159.792732,225.703646L156.471182,223.239167L156.841972,222.354383L163.110905,224.149779L165.498601,224.251860L163.909612,222.511247L165.614833,222.321203L169.404494,223.178134L168.185019,221.593200L164.645944,218.796949L165.398392,218.152701L165.191804,217.008197L163.372157,214.984371L162.661916,213.524355L166.768812,214.724593L173.107780,217.260796L173.708793,216.604842L173.852147,215.683821L173.814597,214.648992L172.240824,212.672630L172.543831,211.812426L172.591908,210.788988L169.208736,207.569659L167.050977,205.063243L174.144961,208.592257L176.459352,209.063462L174.890056,206.933268L169.270504,201.960099L169.795561,201.164408L170.617193,200.579664L171.793368,200.257714L173.648921,200.449554L174.094935,199.618164L174.922061,199.073303L179.478744,201.407961L182.627130,202.735692L182.923355,201.860314L178.940217,197.527670L180.861156,197.917801L183.690328,199.096355L184.710267,198.804947L183.430272,196.554803L185.522562,197.189361L184.947084,195.508497L185.304240,194.632531L180.961064,189.475419L177.196697,184.717720L177.677887,183.816009L180.128245,184.781453L182.635871,185.852483L188.466247,190.231386L189.333432,189.826878L191.332279,190.571271L193.045201,191.063923L191.579177,188.285244L191.676202,187.090552L191.871641,185.983854L191.531224,184.279952L192.154318,183.606198L195.373926,185.838114L194.673951,183.700514L196.175182,184.055748L195.426563,181.804575L196.705616,181.913515L196.935086,180.776698L197.887908,180.509154L200.163269,181.896325L200.080426,180.364600L196.753954,174.642422L201.151652,178.820444L202.684799,179.357212L202.550645,177.688105L204.251844,178.487146L205.460277,178.645228L204.137263,175.261728L206.971910,177.731749L206.690001,175.769960L207.704627,175.674849L206.473109,172.224106L209.524410,175.204957L209.550081,173.612788L210.485473,173.416432L211.111325,172.733995L210.012394,169.237604L210.663100,168.534609L213.064743,170.770531L214.334431,171.161518L213.153956,167.315479L213.249510,165.611519L214.001778,165.047393L216.452882,167.595791L217.130198,166.939123L219.403481,169.308215L219.787460,168.122023L218.835269,164.272841L217.393714,159.312342L218.028566,158.428768L220.309174,160.959240L222.559170,163.538491L222.846342,161.980729L222.940431,159.949704L222.965342,157.696468L224.787582,159.501212L224.887885,157.353560L225.823502,157.133404L227.396240,158.478905L229.295243,160.713750L231.468395,163.762282L231.456637,161.253906L232.328421,161.006557L233.375206,161.240672L234.372109,161.360795L234.857086,160.035006L235.288504,158.501911L236.138464,158.165484L238.679796,163.040382L239.033983,161.265591L240.305678,162.388993L240.659731,160.528213L240.571130,157.062157L239.848221,151.179753L240.167818,148.749388L240.199831,145.116296L242.265524,149.098673L242.923780,147.763559L244.473577,150.008034L247.126714,157.084377L248.301405,158.191380L249.015733,157.305441L249.850791,156.935650L250.578676,156.029915L250.836755,152.689400L252.249222,155.172425L252.924133,153.830825L254.280411,156.289616L255.158334,156.121634L256.382878,158.127632L256.192909,151.024135L256.939675,149.687096L257.935416,150.039867L258.739989,148.967005L259.908151,150.768887L261.119400,153.201583L262.295613,155.663015L263.198473,155.749660L264.003438,154.794704L264.916030,154.965404L265.085522,145.476048L266.127038,146.575059L267.270276,149.605832L268.392212,153.091774L269.254439,152.148958L269.717147,140.710277L270.711784,140.633179L271.641735,137.887652L272.586381,133.638105L273.714377,141.873590L274.705844,143.759177L275.664936,146.490701L276.559764,151.114450Z" />
<line x1="50" y1="600" x2="100" y2="600" fill="none" stroke="red" stroke-width="1.0" stroke-linejoin="round" stroke-miterlimit="10" />
<text x="125" y="603" style="text-anchor:start;fill:black">n0_4mer:D</text>
<path style="stroke:black;stroke-width:1.0" d="M277.732454,90.751602L279.140375,88.902160L280.406813,92.761775L281.612999,96.717179L282.759717,100.705215L283.867769,104.313211L285.321506,101.213851L286.835860,97.914786L288.428409,94.242327L290.096432,90.334756L291.525386,89.779367L292.971826,89.147948L294.207002,90.654095L295.488832,91.559475L296.884078,91.418524L298.205521,91.895911L299.680808,91.193309L301.025583,91.505159L302.274727,92.445055L303.583109,92.936386L304.772001,94.127858L305.980874,95.117455L307.311719,95.364442L308.582997,95.928458L310.123162,95.090392L311.588083,94.706446L312.998772,94.627962L314.249899,95.305534L315.247586,97.076942L316.434823,97.940232L317.399885,99.686205L318.804759,99.580920L320.497320,98.385180L321.934083,98.244104L323.424900,97.933771L324.973700,97.455356L326.341045,97.650688L327.822328,97.473109L329.469838,96.781730L330.404419,98.419152L331.363705,99.917767L332.178419,101.800723L333.080530,103.354478L334.495078,103.376472L335.920850,103.386467L337.243000,103.701942L339.029962,102.773777L340.380872,103.054673L341.608829,103.660750L343.103743,103.590107L343.968573,105.096028L344.915381,106.362779L345.613290,108.186791L347.483045,107.246063L349.466427,106.106632L351.357831,105.238313L352.963839,105.047888L353.173206,107.872853L353.232029,110.928427L353.834561,112.772416L355.767636,111.882623L357.340973,111.760510L359.223326,111.063448L360.877110,110.850641L361.651201,112.319517L362.956468,112.779717L364.175107,113.403577L364.783333,115.115739L366.189745,115.395147L367.238854,116.302727L368.406768,117.001845L369.923683,117.120279L370.974444,118.020512L372.201879,118.630347L373.245223,119.535102L374.354825,120.331019L375.362343,121.281392L376.506389,122.019434L377.386414,123.149513L378.714543,123.613842L379.712875,124.561526L380.666773,125.566720L381.567770,126.638697L382.502900,127.655208L383.585129,128.466486L384.849174,129.035990L386.156281,129.556599L386.741211,131.016955L387.434427,132.320846L388.122280,133.617314L389.096644,134.547384L390.461151,135.001894L392.274604,134.932158L393.795831,135.234117L394.943327,135.986370L396.300350,136.503447L397.166210,137.584272L397.980842,138.716719L399.080946,139.531016L399.486253,141.095782L399.377583,143.186450L400.273798,144.193649L401.545319,144.812452L403.077932,145.175949L405.762015,144.406599L407.270394,144.844976L407.630545,146.412439L407.884356,148.064407L407.929819,149.892959L408.038023,151.638657L409.346028,152.266008L412.222386,151.492583L415.108140,150.763460L416.138539,151.707145L416.887842,152.895770L416.511569,155.034561L415.641257,157.553643L413.766320,160.855263L412.666237,163.461414L412.922808,164.937607L413.538595,166.117895L417.159756,164.967404L420.149229,164.364929L421.065633,165.369273L422.890026,165.704984L424.454590,166.253006L425.510965,167.182263L426.990865,167.818622L427.000973,169.490432L427.273395,170.966054L427.885049,172.202725L427.809061,173.891143L428.627965,174.979324L429.849685,175.811112L429.914620,177.382006L431.452438,178.026311L432.402079,179.045983L432.616062,180.511514L434.206297,181.156001L434.735566,182.433191L435.558815,183.539806L437.290730,184.140547L437.423318,185.641781L438.103479,186.836791L438.598184,188.130783L437.785767,190.103624L438.210546,191.415663L438.434952,192.824797L438.882877,194.116461L438.881843,195.622780L440.019231,196.577285L441.695326,197.290764L440.436470,199.365898L441.905417,200.185681L442.203808,201.536051L441.067533,203.499756L442.814172,204.218186L443.172673,205.531372L442.964633,207.070961L443.765966,208.198734L444.944502,209.185677L446.526830,210.031454L447.461104,211.135877L448.458937,212.225067L449.992258,213.133871L449.217220,214.857486L450.144147,215.987377L450.600690,217.279966L450.881021,218.629498L450.995873,220.028466L449.281695,221.979105L450.293400,223.088349L450.301127,224.496942L452.440441,225.302631L455.373505,225.920665L456.143449,227.151012L456.178422,228.576267L455.498521,230.174170L453.115392,232.165734L452.271376,233.756844L452.779688,235.025902L453.474389,236.257802L455.971554,237.118734L456.149445,238.481525L456.255717,239.856769L456.105756,241.277349L456.412380,242.610271L456.770805,243.935357L457.341635,245.227716L458.236799,246.474916L457.948619,247.907737L458.033071,249.280785L457.053864,250.793653L456.756993,252.203451L457.070029,253.534322L456.863844,254.924823L457.990148,256.172898L458.174508,257.525622L458.087342,258.903038L459.036582,260.193986L458.879479,261.578220L459.210973,262.926604L460.268918,264.236387L459.469652,265.654812L459.896086,267.007337L459.675414,268.388485L458.544689,269.791453L459.203207,271.139566L458.276738,272.518485L459.277705,273.871586L460.793694,275.240074L461.499368,276.624017L462.219693,278.018841L461.917201,279.400604L461.829447,280.785011L461.956305,282.176990L461.947898,283.565447L461.554661,284.934231L461.338600,286.309014L458.780032,287.522218L458.520063,288.872436L458.461981,290.237078L457.497303,291.520471L459.360491,293.068418L459.109543,294.423233L458.165409,295.698113L458.677121,297.136575L459.016331,298.563117L458.737435,299.913595L458.324880,301.243518L457.111555,302.449443L456.038654,303.662284L456.351448,305.091975L456.714552,306.538567L456.967733,307.974359L455.710892,309.132564L455.833086,310.546429L455.417538,311.856384L456.680214,313.519961L456.462837,314.882244L456.223052,316.240646L456.046110,317.614871L454.583266,318.678514L455.236572,320.255610L453.939946,321.343288L452.878727,322.478719L451.533294,323.524759L450.290450,324.584096L450.073994,325.927986L451.092925,327.643793L451.809138,329.289421L452.295947,330.880901L452.293020,332.328717L450.391606,333.153975L449.730646,334.376560L449.958517,335.904905L449.101690,337.057914L450.539307,339.041366L450.668624,340.568633L450.808269,342.110245L450.445537,343.466635L449.317558,344.520313L447.141659,345.136504L446.189771,346.233380L446.278175,347.764837L445.607715,348.978234L445.408849,350.398142L443.728374,351.155714L442.000671,351.871628L441.018624,352.916688L440.650544,354.248158L439.721214,355.309993L439.445840,356.690561L437.798164,357.382795L437.938431,358.977208L438.384983,360.746686L438.549562,362.385978L439.214938,364.313137L437.979364,365.213584L436.303794,365.855224L434.540953,366.427278L433.664185,367.494502L432.640580,368.470867L431.921705,369.624362L431.268996,370.818080L429.928242,371.584043L429.313363,372.797173L429.309074,374.405938L428.107489,375.246162L427.505622,376.475723L426.200050,377.232704L425.551138,378.428979L426.112711,380.472719L425.499796,381.713316L425.881056,383.673958L425.404002,385.033410L425.276314,386.660171L424.923170,388.132923L423.008429,388.420316L421.857439,389.276745L420.388010,389.874339L420.380541,391.629897L420.820255,393.770587L420.860404,395.613450L419.483241,396.289857L416.543613,395.622662L413.811032,395.082216L410.878293,394.318238L408.169942,393.700471L405.988200,393.510492L405.400446,394.749158L404.993553,396.164612L406.143926,399.066922L407.366502,402.096752L407.960327,404.575558L407.280233,405.839281L405.044705,405.550041L403.792823,406.225280L402.259998,406.601565L401.936005,408.229523L401.560606,409.823416L399.784905,409.923012L398.141032,410.142344L396.542559,410.391268L396.421417,412.290849L396.697574,414.676736L396.350560,416.381680L396.162494,418.299138L394.840511,418.886277L392.406394,418.108586L390.611212,418.070970L389.313544,418.630895L388.438122,419.720611L388.782719,422.398496L388.647392,424.502154L386.928824,424.530120L385.905919,425.476774L385.139447,426.780732L384.047231,427.644155L383.703367,429.573458L382.689339,430.570596L380.730306,430.187083L379.841180,431.361427L378.059156,431.195438L376.462387,431.284295L375.865956,432.917394L374.007082,432.570722L372.474415,432.715677L370.191820,431.607384L368.925263,432.137277L368.403537,433.928812L367.791573,435.602118L367.826665,438.449077L366.447553,438.838196L364.893439,438.897993L363.266390,438.800714L361.283133,438.003315L359.910554,438.328081L358.628858,438.819625L357.226915,439.066444L356.278429,440.221349L355.246665,441.224822L353.910149,441.600649L353.093960,443.088236L352.208191,444.459065L350.842378,444.787235L349.365643,444.852534L347.625959,444.284896L346.073179,444.115763L344.741027,444.453181L343.351718,444.641004L341.949707,444.782668L340.733847,445.391099L339.344948,445.546351L337.857865,445.420622L336.655977,446.058469L335.306923,446.286924L334.388680,447.757975L333.121874,448.241028L332.282783,450.033634L330.618435,449.310241L328.210782,446.136536L326.820700,446.131567L325.479571,446.271304L324.628456,448.107052L323.977727,450.746373L322.973679,452.214917L321.451717,451.779868L320.040741,451.731810L318.803893,452.364370L317.728764,453.693499L316.594062,454.833680L315.166661,454.722355L313.919828,455.418543L312.252504,454.123273L310.795556,453.757165L309.646285,454.938396L308.222376,454.710929L307.126595,456.294113L305.384227,454.185495L303.840802,453.085418L302.393562,452.478942L301.034969,452.392709L299.999748,454.599188L298.908743,456.614039L297.856966,459.168364L296.605015,460.313774L295.350882,461.574969L293.846763,460.539182L292.349762,459.391839L290.785596,457.248628L289.175268,454.095477L287.695725,452.088313L286.297230,450.855149L284.968061,450.497238L283.833429,453.950134L282.632413,457.020949L281.326409,458.346943L280.022140,460.438320L278.618630,459.033061L277.245729,458.392301L275.887722,458.816459L274.523096,459.405559L273.153658,459.596967L271.780266,459.840694L270.405332,459.986703L269.050627,459.422753L267.632649,460.647722L266.235597,461.025055L264.872040,460.667839L263.442137,461.448586L262.021750,461.906500L260.716620,460.758081L259.343736,460.597227L258.107350,458.957225L256.856117,457.694828L255.407584,458.437850L253.945620,459.181809L252.535050,459.392911L251.176330,459.159262L249.833406,458.816517L248.556820,458.030933L247.211565,457.755655L245.894560,457.310007L244.630069,456.571293L243.243550,456.575072L242.010213,455.719675L240.551857,456.096420L239.294843,455.406763L237.983208,455.014580L236.539767,455.248640L235.447143,453.859885L234.135852,453.500734L232.744190,453.484766L231.582199,452.510759L230.074277,452.947553L228.642551,453.045052L227.427209,452.310010L226.053760,452.169264L224.775498,451.681183L223.179100,452.287844L222.002515,451.443715L220.625547,451.272840L219.448198,450.459554L218.368733,449.365049L216.974599,449.248700L215.728476,448.683477L214.248275,448.793838L212.978036,448.291476L211.999997,446.993333L210.796509,446.334125L209.854318,445.001130L208.714032,444.210724L207.200898,444.364476L205.587212,444.736483L204.176281,444.586239L202.621578,444.757882L201.479467,443.952841L200.284431,443.277323L199.167576,442.433946L198.200649,441.276839L196.751374,441.166486L195.661980,440.288637L194.031974,440.526787L193.035374,439.463073L192.027448,438.438295L190.915369,437.629736L189.606878,437.200858L188.128864,437.081048L186.707820,436.838463L185.661854,435.906040L184.876978,434.520750L183.696537,433.848061L182.565288,433.091091L181.484972,432.250868L180.302048,431.585180L179.366155,430.516576L178.155912,429.898534L176.661229,429.724778L175.950748,428.319243L174.816539,427.580532L174.180501,426.095096L173.308387,424.981162L172.830223,423.306691L172.457289,421.510520L171.873519,420.043069L171.598630,418.169667L170.007398,418.124735L168.620310,417.783334L166.636615,418.216790L163.978017,419.491057L161.633022,420.299973L159.852229,420.347031L159.702180,418.339689L159.093154,416.928836L157.740665,416.431145L156.212094,416.131600L154.194280,416.387408L152.411934,416.337664L151.582010,415.180770L150.720839,414.065962L149.625824,413.214629L149.247899,411.582147L148.195860,410.691553L146.805985,410.155682L146.570254,408.408785L145.610709,407.425927L145.503754,405.583999L145.319401,403.844740L143.894046,403.343059L143.917731,401.430007L142.585059,400.833418L141.372685,400.112919L140.476158,399.093142L138.125650,399.395437L137.411866,398.193566L136.567740,397.112011L135.920812,395.860709L135.151859,394.720360L133.828305,394.050764L133.978329,392.145888L131.700907,392.252779L130.903502,391.132014L130.859008,389.415169L128.743994,389.336401L128.999719,387.402177L128.638445,385.961452L127.438958,385.157251L126.464979,384.178457L125.720222,383.030025L124.241051,382.406090L123.581791,381.191874L123.847900,379.341705L123.822844,377.712130L123.543399,376.268616L122.817498,375.128970L121.365561,374.459697L119.978487,373.734076L119.038712,372.714556L118.360974,371.529111L118.494085,369.853017L118.697089,368.152233L117.708607,367.167585L116.780314,366.142188L115.086201,365.545424L114.146059,364.509072L113.804830,363.139874L113.926580,361.527983L113.223025,360.366177L111.462284,359.750905L111.517974,358.190015L110.659536,357.098347L110.201180,355.805881L109.674091,354.549079L108.636536,353.534397L107.593619,352.513942L107.353531,351.120529L108.198471,349.249931L110.918136,346.586220L113.449544,344.060373L115.444183,341.812682L114.837455,340.675096L111.616839,340.584695L108.109644,340.559783L106.052691,339.925828L104.698198,339.001065L104.509917,337.632976L104.803202,336.096666L104.472796,334.791535L103.206162,333.808777L102.004058,332.790701L101.164243,331.641825L99.295382,330.812941L98.850507,329.519566L98.594699,328.168547L97.941366,326.936374L97.693343,325.584249L96.889421,324.388307L95.405438,323.368530L94.265513,322.240921L93.229425,321.074481L93.463376,319.585161L93.867501,318.064260L93.431303,316.747911L94.322717,315.134675L94.384560,313.717777L95.645028,312.058630L98.183007,310.169127L99.879454,308.483680L101.627956,306.818577L99.266696,305.906693L96.872558,304.967740L94.964192,303.917638L92.629178,302.907052L92.983961,301.472952L92.792657,300.122493L94.371706,298.541229L94.574355,297.155430L94.402604,295.818315L93.681431,294.540148L91.215389,293.428295L90.735242,292.097283L91.335990,290.668771L92.034999,289.243320L91.722407,287.901084L91.120227,286.573841L90.664987,285.230754L90.431857,283.871348L90.096339,282.513615L92.169801,281.071724L92.754673,279.699674L93.012321,278.342833L93.317558,276.989660L91.445078,275.648933L90.257673,274.283165L89.518022,272.904764L89.801146,271.534301L91.056673,270.193068L91.059892,268.827920L91.373031,267.474840L90.597257,266.072868L90.568669,264.700107L90.537829,263.325642L90.068303,261.918396L90.369810,260.562997L90.868078,259.227354L93.977548,258.140600L94.518025,256.840002L94.508502,255.486020L95.291530,254.221362L95.996498,252.956545L98.495361,251.934307L101.593836,251.030067L100.774319,249.598750L97.532208,247.780597L96.122042,246.205062L94.577642,244.582190L94.192572,243.136629L95.306799,241.957262L96.391692,240.785603L96.907789,239.513386L97.200319,238.198795L96.439154,236.658252L94.910115,234.930638L94.322863,233.391485L94.174238,231.942784L95.761031,230.913601L96.432163,229.671800L96.676449,228.323560L97.594784,227.155490L98.412192,225.968363L100.126958,225.044829L101.833642,224.140487L102.466887,222.933626L101.699416,221.296703L100.922971,219.637977L100.470675,218.065608L100.719827,216.713482L100.565522,215.220069L101.697780,214.168355L101.247739,212.559363L101.563009,211.216533L103.585285,210.513228L103.286442,208.943149L104.688486,208.028480L105.433396,206.865268L104.601739,205.059074L105.632376,204.010053L107.071447,203.144591L106.944411,201.611120L108.212664,200.687469L107.982999,199.095808L107.722441,197.475647L108.245402,196.210637L107.865589,194.509747L108.803743,193.437815L108.540956,191.771554L109.819969,190.874214L112.112985,190.515046L114.147896,190.050935L116.323799,189.689276L116.204068,188.100865L115.640485,186.250539L114.671491,184.146739L113.616718,181.961298L114.235591,180.722858L115.379329,179.795868L116.196590,178.679659L117.330201,177.760642L117.843776,176.461300L118.631517,175.332222L119.458834,174.229800L120.168602,173.051662L121.323676,172.170508L120.994573,170.288662L121.014136,168.623703L121.735568,167.434481L122.517071,166.286398L123.975439,165.627951L126.109882,165.481436L127.386813,164.724534L128.985464,164.222325L129.295973,162.745859L129.472681,161.152384L130.340492,160.091914L130.826782,158.724127L132.089564,157.982940L132.865091,156.846495L134.557263,156.481079L135.563420,155.548624L136.934149,154.936302L138.849868,154.817566L139.661021,153.736173L142.219488,154.241534L145.608046,155.558220L146.114154,154.243006L146.433370,152.739221L145.436545,149.948635L144.358045,147.022915L144.681199,145.431844L145.645589,144.469034L145.970795,142.851480L146.356249,141.276655L147.970614,140.979667L149.070319,140.151014L151.233399,140.481292L152.200735,139.530155L152.750683,138.110421L153.248897,136.616334L153.344985,134.640345L153.983273,133.266707L155.110040,132.459316L156.114509,131.506809L157.458494,130.968163L158.788250,130.422051L160.624011,130.524840L161.913737,129.956717L163.038089,129.181614L164.725660,129.153134L165.100977,127.386786L165.984276,126.283494L166.768165,125.033144L167.267751,123.368425L168.216006,122.317595L169.393684,121.591727L171.424733,122.127246L172.422496,121.155362L173.531854,120.346670L174.952679,120.018618L175.307125,118.025155L176.652747,117.576473L177.875178,116.936723L178.687875,115.621664L179.527527,114.331493L180.664824,113.530790L181.541024,112.271968L182.701130,111.496308L184.110193,111.166189L185.357511,110.551587L186.703376,110.122805L188.044843,109.693862L189.990283,110.441975L191.523934,110.429325L193.025219,110.374383L195.126541,111.568138L195.951434,110.168726L196.723522,108.625548L198.121798,108.401556L198.854241,106.719851L199.830471,105.542727L201.153936,105.139015L202.141209,103.951992L203.397169,103.381802L204.841975,103.272181L205.894522,102.199477L206.927241,101.051478L208.160917,100.399691L209.663484,100.459132L211.075567,100.296420L212.351788,99.768336L213.319113,98.352567L214.594428,97.793536L216.142953,98.050364L217.537743,97.868499L219.037532,98.031329L220.090032,96.772943L221.506572,96.681995L223.110614,97.250273L224.481349,97.050772L226.178028,98.042843L227.494823,97.697747L228.716531,96.987371L230.218153,97.364268L231.533667,97.024929L232.860380,96.731833L234.286545,96.875179L235.549247,96.309601L236.851961,95.911923L238.000034,94.752235L239.320710,94.396968L240.758885,94.653205L242.171125,94.810121L243.604945,95.125827L244.945831,94.934957L245.967260,92.741697L247.195834,91.715648L248.602101,91.836223L249.793609,90.419233L251.372602,91.861635L252.755427,91.890027L253.963833,90.413465L255.355702,90.473880L256.729511,90.383045L258.113838,90.414482L259.556346,91.166376L260.982954,91.879606L262.324026,91.531261L263.640266,90.718590L265.011168,90.714319L266.410711,91.344637L268.005768,97.207154L269.386185,99.096933L270.684006,98.785189L272.024345,100.720488L273.280398,96.935035L274.598551,95.889422L275.927719,95.703825L277.296765,92.577599Z" />
<line x1="50" y1="550" x2="100" y2="550" fill="none" stroke="black" stroke-width="1.0" stroke-linejoin="round" stroke-miterlimit="10" />
<text x="125" y="553" style="text-anchor:start;fill:black">GC-content</text>
</g>
<g style="fill:pink;stroke:black">
<a href="" title="CP113501:1 [104000-126099];"><path  d="M361.507989,61.888837L365.214116,63.431067L368.892763,65.037744L372.542810,66.708377L376.163143,68.442457L367.366348,86.403983L367.366348,86.403983L364.060826,84.820692L360.728175,83.295331L357.369411,81.828366L353.985555,80.420243Z" />
</a><a href="" title="CP113501:2 [221500-241599];"><path  d="M443.362508,118.302630L446.071612,121.264826L448.728605,124.273852L451.332680,127.328791L453.883041,130.428711L438.327994,143.000128L438.327994,143.000128L435.999403,140.169765L433.621770,137.380474L431.195819,134.633102L428.722290,131.928488Z" />
</a><a href="" title="CP113501:3 [254000-275599];"><path  d="M460.978323,139.677927L463.311694,142.944307L465.587702,146.250912L467.805656,149.596735L469.964880,152.980757L453.011412,163.591126L453.011412,163.591126L451.039947,160.501367L449.014859,157.446485L446.936764,154.427411L444.806295,151.445064Z" />
</a><a href="" title="CP113501:4 [822500-842599];"><path  d="M296.120972,504.028174L292.120662,504.361904L288.115137,504.625768L284.105618,504.819685L280.093324,504.943598L279.650427,484.948502L279.650427,484.948502L283.313825,484.835365L286.974691,484.658310L290.631909,484.417390L294.284366,484.112681Z" />
</a><a href="" title="CP113501:5 [1006000-1028099];"><path  d="M147.340211,466.319048L144.020676,464.061939L140.741039,461.747239L137.502299,459.375655L134.305441,456.947908L146.539751,441.126351L146.539751,441.126351L149.458621,443.342989L152.415731,445.508349L155.410183,447.621770L158.441062,449.682609Z" />
</a><a href="" title="CP113501:6 [1129000-1146599];"><path  d="M76.128723,390.543132L74.142507,387.054752L72.217473,383.532238L70.354209,379.976665L88.149495,370.848260L88.149495,370.848260L89.850736,374.094652L91.608376,377.310860L93.421878,380.495903Z" />
</a><a href="" title="CP113501:7 [1158500-1177099];"><path  d="M64.704362,368.143676L63.110809,364.459325L61.581801,360.747724L60.117801,357.010003L78.803210,349.878698L78.803210,349.878698L80.139905,353.291400L81.535956,356.680253L82.990939,360.044226Z" />
</a><a href="" title="CP113501:8 [1208000-1230599];"><path  d="M51.237080,328.199207L50.342706,324.285903L49.516765,320.357586L48.759508,316.415452L48.071166,312.460704L67.804108,309.203251L67.804108,309.203251L68.432594,312.814109L69.124003,316.413448L69.878123,320.000172L70.694725,323.573189Z" />
</a><a href="" title="CP113501:9 [1299000-1320599];"><path  d="M46.242518,251.125029L46.694034,247.136297L47.215095,243.156052L47.805541,239.185507L48.465193,235.225872L68.163872,238.684492L68.163872,238.684492L67.561581,242.299811L67.022478,245.925091L66.546727,249.559228L66.134473,253.201114Z" />
</a><a href="" title="CP113501:10 [1614000-1636099];"><path  d="M207.280819,55.195286L211.127254,54.046900L214.993145,52.965819L218.877315,51.952372L222.778581,51.006868L227.319574,70.484531L227.319574,70.484531L223.757549,71.347818L220.211133,72.273139L216.681406,73.260213L213.169443,74.308739Z" />
</a></g>
<text x="275" y="280" style="text-anchor:middle" font-size="25" font-weight="bold">CP113501</text>
<path  style="fill:pink;stroke:black" d="M350,550L375,550L375,565L350,565Z" />
<text x="405" y="565" style="text-anchor:start;fill:black">Selected loci;</text>
</svg>