<svg xmlns="http://www.w3.org/2000/svg" viewbox="0 0 550 650">
<circle cx="275" cy="275" r="240" fill="none" stroke="black" stroke-width="1.0" />
<line x1="275" y1="15" x2="275" y2="55" fill="none" stroke="grey" stroke-width="1.0" stroke-linejoin="round" stroke-miterlimit="10" />
<line x1="495" y1="275" x2="535" y2="275" fill="none" stroke="grey" stroke-width="1.0" stroke-linejoin="round" stroke-miterlimit="10" />
<line x1="275" y1="495" x2="275" y2="535" fill="none" stroke="grey" stroke-width="1.0" stroke-linejoin="round" stroke-miterlimit="10" />
<line x1="15" y1="275" x2="55" y2="275" fill="none" stroke="grey" stroke-width="1.0" stroke-linejoin="round" stroke-miterlimit="10" />
<text x="275" y="10" style="text-anchor:middle" font-size="15">Methanothermobacter sp. EMTCatA1 DNA, complete genome.</text><text x="285" y="25" style="text-anchor:start">1,719,979</text><text x="525" y="265" style="text-anchor:start">0.42 Mbp</text><text x="285" y="530" style="text-anchor:start">0.85 Mbp</text><text x="-200" y="25" style="text-anchor:end" transform="rotate(-90)">1.28 Mbp</text><circle cx="360.736413" cy="50.836516" r="2.500000" fill="grey" stroke="black" stroke-width="1.0" />
<circle cx="435.158109" cy="96.256105" r="2.500000" fill="grey" stroke="black" stroke-width="1.0" />
<circle cx="488.443584" cy="165.264698" r="2.500000" fill="grey" stroke="black" stroke-width="1.0" />
<circle cx="513.560702" cy="248.755166" r="2.500000" fill="grey" stroke="black" stroke-width="1.0" />
<circle cx="507.194733" cy="335.709190" r="2.500000" fill="grey" stroke="black" stroke-width="1.0" />
<circle cx="470.185801" cy="414.651363" r="2.500000" fill="grey" stroke="black" stroke-width="1.0" />
<circle cx="407.418009" cy="475.163611" r="2.500000" fill="grey" stroke="black" stroke-width="1.0" />
<circle cx="327.174884" cy="509.260072" r="2.500000" fill="grey" stroke="black" stroke-width="1.0" />
<circle cx="240.046189" cy="512.441005" r="2.500000" fill="grey" stroke="black" stroke-width="1.0" />
<circle cx="157.530382" cy="484.286619" r="3.000000" fill="black" stroke="black" stroke-width="1.0" />
<circle cx="90.517155" cy="428.512474" r="2.500000" fill="grey" stroke="black" stroke-width="1.0" />
<circle cx="47.850307" cy="352.479140" r="2.500000" fill="grey" stroke="black" stroke-width="1.0" />
<circle cx="35.160625" cy="266.220808" r="2.500000" fill="grey" stroke="black" stroke-width="1.0" />
<circle cx="54.122777" cy="181.121075" r="2.500000" fill="grey" stroke="black" stroke-width="1.0" />
<circle cx="102.234311" cy="108.410634" r="2.500000" fill="grey" stroke="black" stroke-width="1.0" />
<circle cx="173.145900" cy="57.685154" r="2.500000" fill="grey" stroke="black" stroke-width="1.0" />
<circle cx="257.499273" cy="35.638924" r="2.500000" fill="grey" stroke="black" stroke-width="1.0" />

<circle cx="275" cy="275" r="185" fill="white" stroke="grey" stroke-width="0.5" />
<circle cx="275" cy="275" r="170" fill="none" stroke="black" stroke-width="0.5" />
<circle cx="275" cy="275" r="170" fill="aliceblue" stroke="black" stroke-width="0.5" />
<circle cx="275" cy="275" r="162" fill="white" stroke="none" stroke-width="0.5" />
<circle cx="275" cy="275" r="140" fill="none" stroke="black" stroke-width="0.5" />
<circle cx="275" cy="275" r="140" fill="aliceblue" stroke="black" stroke-width="0.5" />
<circle cx="275" cy="275" r="133" fill="white" stroke="none" stroke-width="0.5" />
<circle cx="275" cy="275" r="110" fill="none" stroke="black" stroke-width="0.5" />
<circle cx="275" cy="275" r="110" fill="white" stroke="black" stroke-width="0.5" />
<circle cx="275" cy="275" r="109" fill="aliceblue" stroke="none" stroke-width="0.5" />
<circle cx="275" cy="275" r="80" fill="none" stroke="black" stroke-width="0.5" />

<g style="fill:none;stroke-linejoin:round;stroke-miterlimit:10">
<path style="stroke:blue;stroke-width:1.0" d="M277.453105,107.110808L278.719682,105.306802L279.977012,104.734971L281.022942,110.191170L282.114573,112.800075L283.187621,115.040657L284.288517,116.259295L285.723174,112.153038L286.870111,112.817035L287.918190,114.603187L288.973355,116.025647L290.093940,116.557291L291.279029,116.399971L292.312463,117.658017L293.052307,121.273654L294.065424,122.287016L295.735771,118.233513L297.488691,114.036492L298.241646,117.075616L299.347908,117.553058L300.554202,117.385874L302.137255,115.029022L304.984438,105.753634L306.031694,106.997561L307.554122,105.690235L309.448329,102.639888L309.915466,106.709777L310.357566,110.625756L309.315466,120.953466L309.184202,126.657914L310.177770,127.286664L311.342409,127.196324L312.624312,126.665411L313.824745,126.494065L315.020568,126.366216L315.911823,127.361232L316.970306,127.731034L317.816264,128.823000L318.791464,129.444296L319.809936,129.909932L321.103220,129.501298L322.193784,129.753461L323.965744,127.964000L325.922329,125.735530L325.749959,129.722861L326.285919,131.563292L327.244484,132.182440L328.291415,132.554875L329.422922,132.706918L331.007121,131.711316L332.282913,131.547314L332.662648,133.604744L333.758698,133.874776L335.142821,133.473346L336.259903,133.721226L336.907953,135.037340L337.512033,136.417473L338.690119,136.514198L340.117186,136.093722L342.139579,134.460522L343.712595,133.828884L344.494011,134.835180L345.215196,135.942785L346.110747,136.690041L347.524006,136.440159L349.030725,136.042097L348.378686,139.658200L348.834528,141.160488L349.415249,142.407568L352.000923,140.118937L352.248482,141.952459L352.381119,143.938629L353.189276,144.752880L354.348967,144.983214L355.294841,145.569504L356.135097,146.323310L358.725049,144.341467L360.931249,143.031075L361.626657,144.065180L363.000518,144.077380L361.100789,148.903425L361.619539,150.112880L362.661484,150.561932L364.757992,149.542841L365.262905,150.765296L365.631075,152.156060L367.395935,151.660430L367.656247,153.178054L368.313032,154.157122L369.624765,154.291859L370.251308,155.304131L371.139191,155.983529L372.995017,155.483078L375.612602,154.103009L376.144821,155.253762L376.712286,156.351373L377.938698,156.681255L379.543977,156.594311L382.798469,154.691455L382.017657,157.304484L381.354552,159.736971L380.035510,162.822164L379.686462,164.819558L380.929856,165.129728L383.308243,164.293135L383.279737,165.927948L383.036682,167.751443L383.998001,168.366908L386.301956,167.693141L386.750238,168.825319L387.053334,170.084329L387.999523,170.737260L388.443591,171.851731L390.440150,171.566925L390.577318,172.956471L390.869124,174.195662L390.846699,175.692805L391.123921,176.917893L392.245425,177.429376L394.075564,177.369956L400.032927,174.004042L401.981213,173.954397L410.977051,168.409135L411.304544,169.751082L407.663969,174.100697L403.222455,178.949314L405.497152,178.725712L413.989676,174.020145L419.184403,171.847035L424.135505,169.943656L409.295863,181.857808L401.882919,188.365171L401.659778,189.867634L402.592546,190.587444L403.233899,191.503640L402.961664,193.005888L403.696762,193.855039L405.081664,194.303991L404.957461,195.690008L405.848723,196.452336L406.113363,197.590930L407.223010,198.232992L407.548630,199.333346L408.090043,200.308192L408.438047,201.389648L408.941098,202.383427L409.457936,203.369342L409.800722,204.446232L410.129920,205.526892L410.804697,206.429768L412.223476,206.966968L414.314395,207.193807L413.205185,208.978212L413.162723,210.233998L413.457163,211.325657L414.340642,212.148598L414.710279,213.206273L415.235751,214.194949L417.299736,214.531260L419.534986,214.824252L421.172048,215.391966L419.656963,217.238804L419.622812,218.473998L418.539726,220.102828L418.503638,221.315115L420.205951,221.884368L420.577546,222.951171L422.629321,223.430920L421.687479,224.959367L420.823968,226.440401L420.419223,227.752603L420.700612,228.835291L421.470232,229.766302L421.279392,230.993286L420.961686,232.249264L421.316922,233.303474L422.747138,234.060617L422.100885,235.394624L422.183238,236.523497L424.367788,237.116090L427.063592,237.612654L427.662710,238.646047L426.099489,240.182848L426.318504,241.294696L424.393493,242.867281L424.789394,243.925359L425.240450,244.974989L425.548396,246.055653L427.464441,246.840774L426.645914,248.136164L426.452913,249.310157L426.642437,250.416413L429.552987,251.102076L431.680826,251.943853L428.207037,253.597413L428.523444,254.695617L429.048778,255.770238L427.647153,257.076826L428.304157,258.134231L427.234308,259.376750L426.487903,260.570978L427.329295,261.613108L427.452015,262.724058L427.749952,263.822672L429.603102,264.822080L429.108387,265.984939L427.934818,267.174315L427.195286,268.326628L428.791655,269.382071L432.547639,270.397178L434.413432,271.508127L436.356001,272.644860L443.609169,273.771025L450.754608,275.003050L461.459827,276.365557L474.321568,277.916201L472.844157,279.340548L454.413768,280.247882L435.079408,280.853180L427.463633,281.690439L427.356876,282.801413L428.611475,283.991342L428.099899,285.084297L427.719514,286.180429L429.383724,287.436882L436.473305,289.196126L438.558112,290.584421L429.957792,290.908186L426.899383,291.716558L426.276901,292.767607L425.916031,293.844023L425.644952,294.929005L425.624030,296.047077L427.270254,297.412514L429.080772,298.830382L428.857453,299.948155L426.858711,300.764098L424.980995,301.574266L425.301209,302.765085L428.505710,304.518442L431.273756,306.236386L430.367943,307.237566L428.311404,307.980981L427.562104,308.987865L426.179752,309.841172L423.701572,310.416130L423.296720,311.466656L423.065049,312.558967L422.285034,313.508575L424.368741,315.221532L424.022546,316.298356L422.133255,316.934680L421.488658,317.910601L424.117487,319.866170L421.799370,320.340925L420.637150,321.150163L419.986887,322.112492L421.978870,323.949849L420.010698,324.474238L419.382264,325.440458L418.838124,326.432557L418.088707,327.346785L417.748993,328.408219L416.811373,329.241800L416.624373,330.359724L416.049515,331.326425L416.071803,332.533896L415.859773,333.651345L416.349730,335.070837L417.653858,336.859404L416.607093,337.638562L413.936104,337.674732L413.651051,338.769339L412.971413,339.682162L412.096133,340.497827L411.519833,341.451902L411.528992,342.694622L411.411915,343.882768L411.815526,345.345716L411.852475,346.633692L410.322934,347.097504L408.999188,347.654084L409.235083,349.056109L410.454937,351.025198L410.247060,352.213302L407.793329,352.104290L406.615575,352.711736L405.386174,353.276154L408.511975,356.485587L405.988841,356.265071L406.173630,357.713020L405.287951,358.491107L405.045101,359.682107L403.531712,360.040302L402.504427,360.706507L400.964717,361.014296L400.620983,362.132103L401.243375,363.936871L400.999769,365.149855L401.889319,367.195338L403.404407,369.737246L402.266755,370.341672L399.549144,369.734290L398.993972,370.750055L398.242460,371.615269L399.700562,374.237838L398.638313,374.876543L394.306799,372.826558L392.388954,372.696963L391.584682,373.478214L393.143314,376.283034L393.138043,377.785466L394.038144,380.106454L392.821845,380.574418L391.052521,380.527788L388.104922,379.367257L387.572104,380.408727L385.400516,379.899592L385.258038,381.307795L384.566772,382.196965L385.457125,384.658955L384.048006,384.853567L382.575166,384.965186L381.604212,385.577392L380.425676,385.966161L379.452043,386.562453L378.959345,387.675040L377.980206,388.263118L376.585296,388.382246L375.936133,389.327470L375.108865,390.074172L373.968770,390.456390L373.413373,391.520655L372.407616,392.054113L372.494698,393.915139L371.462063,394.424653L371.292126,396.012414L369.153170,395.115134L367.951561,395.383399L367.380381,396.467993L367.402123,398.356752L365.812192,398.098373L364.770688,398.566250L363.983224,399.383366L362.852678,399.718668L362.919427,401.770678L361.912922,402.295448L361.375717,403.514958L359.986688,403.465721L358.239577,402.844893L357.012739,402.996138L356.617737,404.452094L355.045216,404.038113L354.118901,404.649931L353.338755,405.506383L353.528373,408.015034L352.471204,408.441806L350.913815,407.987516L349.398845,407.573982L348.506725,408.256238L348.248328,410.112553L347.078485,410.304806L346.170244,410.984913L344.851364,410.872062L343.474834,410.622224L342.543168,411.241980L342.734276,414.173416L342.433942,416.168247L341.047832,415.904230L340.106922,416.579398L338.840068,416.539743L338.189965,417.874459L337.069130,418.158641L335.174976,416.615974L333.785178,416.202634L332.449760,415.887214L331.889393,417.481559L330.924492,418.091932L329.620736,417.825137L328.290443,417.457590L327.255388,417.862734L326.155586,418.087853L325.140566,418.548686L324.213546,419.272037L323.069034,419.360044L322.014032,419.710411L321.051670,420.353531L320.233574,421.479793L319.417212,422.654162L317.904898,421.498449L316.718723,421.405468L315.553447,421.365231L314.520876,421.798253L313.654509,422.875750L312.534407,423.001688L311.485977,423.409775L310.901551,425.775753L309.957522,426.721964L308.217826,424.143473L307.048133,424.014130L305.867739,423.806412L304.764934,423.953929L303.734192,424.470777L302.999515,426.615989L301.768231,426.123098L300.941332,427.953343L300.078379,429.713316L299.274057,432.005460L298.694387,436.039509L297.897520,438.931223L296.074060,434.366562L295.171450,436.617818L293.383441,431.593064L291.802079,427.752183L290.528763,426.342202L289.498599,427.249314L288.588843,429.661315L287.562901,431.053098L286.417050,431.067133L285.097416,428.425136L283.890847,427.035007L282.804124,427.570797L281.742713,428.844129L280.691625,430.891046L279.593977,432.348272L278.450991,432.685213L277.283911,431.681867L276.137934,431.530703L274.994313,430.674332L273.870292,428.852817L272.759555,427.933333L271.649770,427.571563L270.552853,426.938656L269.429716,427.262479L268.270029,428.297370L267.153060,428.188460L266.067349,427.558616L264.989782,426.930802L263.862272,427.096182L262.793019,426.493570L261.662425,426.674404L260.360064,428.614562L258.982899,430.989259L258.152574,428.061552L257.205109,426.484123L256.147679,425.958944L254.811729,427.582253L253.431535,429.333760L252.313083,429.114025L250.689648,432.164173L250.405976,426.655088L249.540148,425.047977L248.188811,426.301255L246.467488,429.438957L245.457905,428.612823L244.090087,429.625004L243.538216,426.614469L242.864736,424.366175L241.861510,423.736054L240.285665,425.616194L239.194287,425.324520L238.030636,425.328617L236.784498,425.641118L236.363779,422.761667L235.118495,423.094688L234.235959,422.083544L232.932924,422.587043L230.189129,427.964947L228.863484,428.328958L227.295881,429.440129L225.864311,430.048318L224.350182,430.862703L223.639447,429.207484L223.023758,427.334597L223.778970,421.607565L223.481847,419.068790L222.043276,419.747356L220.384078,420.968400L219.846768,419.185960L219.040557,418.150512L217.211176,419.703516L215.807641,420.130357L213.624319,422.394698L210.170645,427.538639L204.503271,437.563835L194.523747,456.923358L193.030468,456.699137L201.469994,434.865191L207.713411,418.519668L209.303754,412.504670L208.037380,412.562356L206.934265,412.270852L206.157217,411.326232L205.315723,410.522700L204.445231,409.784956L203.516927,409.163481L202.173933,409.310236L200.800639,409.488645L198.901904,410.578728L197.612908,410.545433L197.659299,408.194606L197.152153,406.840324L196.640263,405.519727L195.680877,404.956676L194.748933,404.348861L192.586797,405.692599L191.532415,405.245745L189.599480,406.142858L187.684311,406.965281L187.708787,404.856593L185.926034,405.440116L185.568205,403.931239L186.487816,400.635427L186.430634,398.785750L184.365099,399.736644L184.352659,397.856123L183.716785,396.844457L182.809422,396.200049L180.590465,397.253185L180.271641,395.830744L178.570669,396.166671L176.245885,397.244051L176.094270,395.618212L176.273013,393.621964L176.047447,392.141677L174.793503,391.883032L173.694593,391.432405L173.034452,390.476452L173.575707,388.185906L172.245792,387.997966L171.382187,387.288413L170.727939,386.353911L170.374812,385.107494L169.368832,384.552063L168.277156,384.077984L167.687834,383.089109L166.251623,382.946779L165.537429,382.079367L164.341759,381.678061L163.966391,380.485704L163.326223,379.552253L163.005937,378.327067L162.501321,377.281227L161.440940,376.739787L160.638541,375.962239L159.271796,375.673942L155.963438,377.033719L152.568997,378.401231L153.688694,375.946339L154.660221,373.658855L156.477731,370.729430L156.126160,369.586695L155.275934,368.842921L153.981352,368.438351L152.355813,368.271202L152.159057,367.012072L152.184751,365.599689L151.525792,364.700201L150.740695,363.890868L150.101934,362.975464L149.887186,361.766093L148.916430,361.081948L148.051826,360.319137L147.008276,359.669586L147.302911,358.139855L145.836536,357.757202L144.697716,357.150277L143.728245,356.427308L144.255676,354.783313L143.235906,354.090280L141.469868,353.829019L142.001604,352.210366L142.589332,350.581164L141.752864,349.773250L139.576772,349.698691L138.220356,349.148711L137.545854,348.220080L136.339565,347.567140L132.769671,348.116679L134.834127,345.765521L138.636536,342.600137L138.116252,341.616671L135.546385,341.611604L131.489519,342.266135L132.642082,340.461626L134.810447,338.227843L134.648476,337.070913L133.037726,336.547189L133.093494,335.295215L133.716901,333.815498L133.876327,332.543025L133.982849,331.301555L132.901947,330.532914L132.542287,329.477089L132.422627,328.332134L131.613275,327.443932L131.881690,326.163379L131.632740,325.074110L130.933040,324.140506L130.641993,323.065281L130.401529,321.974599L130.226361,320.864890L129.662492,319.877778L127.774330,319.285234L126.364373,318.527717L123.752467,318.095349L123.503052,316.972164L124.144334,315.610106L125.000933,314.206468L125.299066,312.962294L123.190759,312.318635L126.048395,310.464181L126.591752,309.191027L125.906558,308.203682L124.374160,307.391737L124.923762,306.128144L125.790877,304.812953L125.792770,303.680560L125.496084,302.606506L124.667045,301.625300L125.237765,300.397156L125.067588,299.300463L124.440572,298.274502L123.277226,297.320606L123.892729,296.103346L123.515867,295.028760L122.533963,294.026250L122.510494,292.898734L123.224052,291.691751L122.497530,290.644859L122.750994,289.495623L121.837049,288.454234L122.937123,287.238737L123.554747,286.076018L123.211635,284.986771L122.927479,283.890114L122.615058,282.791688L122.990784,281.659371L122.235273,280.574548L122.294729,279.455488L122.288542,278.339209L121.625188,277.232762L122.620669,276.104832L122.136970,274.991484L121.011822,273.866345L122.001905,272.755671L122.526539,271.648999L122.591039,270.536162L123.233819,269.444958L123.222898,268.333854L122.287064,267.174482L122.447830,266.064791L122.867000,264.973530L122.421797,263.824032L122.592517,262.716437L123.413909,261.667261L123.777774,260.585135L122.898152,259.379114L122.629978,258.225732L122.902266,257.130071L124.144116,256.157611L124.178789,255.041791L123.880784,253.877820L123.648502,252.716786L123.729285,251.598285L124.438718,250.580396L124.895713,249.527632L124.738482,248.370085L125.532123,247.382927L125.713311,246.286918L125.665287,245.144651L124.911678,243.851907L126.046779,242.950592L126.221817,241.849129L125.458246,240.530284L124.674435,239.190991L124.247448,237.923314L124.409368,236.794232L123.428552,235.364504L123.501340,234.198698L124.272547,233.222940L123.664607,231.861385L126.500748,231.494255L128.041283,230.777209L128.799273,229.837831L129.957281,229.032081L129.918739,227.850690L130.094821,226.734598L130.218246,225.597672L129.646878,224.214114L130.233057,223.229060L132.063134,222.702547L132.617407,221.722640L132.791020,220.599866L132.324001,219.222896L132.667753,218.155001L128.397568,215.203966L126.725710,213.254717L125.032319,211.259913L124.006765,209.517487L125.660434,208.934202L125.504364,207.554912L132.656409,209.525748L135.794552,209.732798L137.132968,209.127379L138.298112,208.452995L138.032709,207.081513L136.163649,204.886302L138.393675,204.755222L138.823568,203.713519L140.805150,203.496910L140.635042,202.140927L140.661241,200.879973L138.917023,198.615445L138.870395,197.275925L138.451913,195.708567L140.016482,195.292698L143.020363,195.760338L143.848364,194.948080L145.229184,194.483695L146.090328,193.707634L146.232972,192.476563L145.617748,190.742457L141.203520,186.468996L140.273807,184.431630L143.931920,185.493529L147.018480,186.223332L148.059058,185.564416L146.795082,183.264978L150.088771,184.234584L152.430567,184.560558L153.162366,183.718248L152.923875,182.139340L154.670834,182.072596L153.685465,179.888604L152.807995,177.750839L156.048835,178.902253L157.033922,178.265210L158.015261,177.631849L158.699107,176.753857L159.023658,175.566970L157.642875,172.886059L159.204483,172.748766L160.683675,172.558802L161.267953,171.574273L162.069218,170.785410L163.792941,170.861449L164.184598,169.698107L162.236473,166.268134L163.114022,165.525591L166.271718,167.049114L167.807266,167.007126L166.332462,163.909648L164.067775,159.924454L166.070765,160.337348L168.571628,161.317942L171.107773,162.389039L172.414583,162.162397L173.550372,161.760437L173.703922,160.255961L174.389866,159.340665L175.974892,159.468918L176.791736,158.713144L177.832552,158.225386L177.780164,156.410836L178.090483,155.011963L177.349135,152.270368L177.339320,150.400346L180.539905,152.653168L182.623044,153.526840L183.815834,153.259488L184.422086,152.209338L184.769094,150.790256L185.001487,149.187235L185.735595,148.266872L187.954562,149.479242L189.355774,149.552392L190.035539,148.574319L191.235376,148.370994L191.989180,147.495753L192.308112,145.933026L193.458635,145.658041L194.226938,144.777402L194.608259,143.252937L191.971368,136.668614L194.073787,137.911382L197.632979,141.725873L198.419055,140.831838L197.709388,137.260695L199.857406,138.765830L201.158946,138.781644L202.517163,138.923572L203.127723,137.660890L203.857929,136.604253L205.055324,136.453377L206.876617,137.574417L208.373560,138.089503L209.321305,137.492680L210.383615,137.135810L211.447041,136.785834L212.370131,136.129176L212.671154,134.057943L213.998835,134.289768L215.328766,134.554569L216.486899,134.435703L217.515269,134.011559L218.550007,133.603187L219.619784,133.284654L220.288436,131.920912L221.152536,131.036537L222.382902,131.131270L223.490623,130.905117L224.403835,130.129117L225.805992,130.767134L226.501356,129.331121L227.346073,128.300827L228.117019,127.002875L229.554025,127.812364L230.645240,127.532940L232.160485,128.703996L232.849088,127.056299L234.120814,127.437118L235.027809,126.502670L236.561764,127.928564L237.514396,127.166949L238.570348,126.794809L239.707114,126.755225L240.726901,126.222472L241.876711,126.254100L242.844054,125.456666L243.680876,123.988436L244.813018,123.903836L245.513607,121.584645L245.961720,117.725373L246.757883,115.520292L248.652052,119.613049L250.297601,122.569157L251.482231,122.847585L252.580775,122.586568L253.394083,120.272484L254.455471,119.592003L255.666926,120.051063L256.249075,115.223728L257.306827,114.089848L258.974429,118.756922L260.320833,120.791867L261.601766,122.440986L262.724356,122.441977L263.691099,120.329697L264.648040,117.615078L265.553327,113.353882L267.059471,119.645694L268.219133,120.149565L269.428328,122.233686L270.568379,123.012759L271.669380,122.547548L272.777737,122.145000L273.894972,122.189357L275.011525,121.101835L276.177551,115.464950Z" />
<line x1="50" y1="575" x2="100" y2="575" fill="none" stroke="blue" stroke-width="1.0" stroke-linejoin="round" stroke-miterlimit="10" />
<text x="125" y="578" style="text-anchor:start;fill:black">n1_4mer:GRV/n1_4mer:RV</text>
<path style="stroke:green;stroke-width:1.0" d="M276.571617,167.439347L277.432049,164.049035L278.254159,163.674276L278.914670,167.880900L279.716689,167.467672L280.283873,171.770402L280.907103,174.047642L281.817899,171.460301L282.619826,170.889264L283.275046,172.254100L284.145198,170.955412L284.911475,170.958186L285.728697,170.474620L286.260257,172.662673L285.903441,182.150585L286.973636,179.091845L288.281328,174.590560L289.200807,173.357278L288.127348,185.801135L290.076561,177.506675L291.215306,174.986649L291.024466,180.537628L292.616397,175.564716L292.388896,180.858283L293.510470,178.729447L294.955537,175.153689L294.834796,179.397602L295.566916,179.386199L294.672636,186.687012L295.356201,186.664419L296.108254,186.365312L296.399305,187.969558L298.022110,184.234881L298.088645,186.685169L298.067364,189.329310L299.487929,186.630247L300.221018,186.502353L300.541203,187.800973L301.293627,187.604259L301.751100,188.382629L303.068284,186.418360L303.720175,186.608994L305.913334,182.172390L307.512344,179.699218L305.460607,187.803282L304.563767,192.315914L305.152508,192.573927L306.204488,191.592061L306.012940,193.914187L311.040138,182.794868L312.011526,182.312626L310.330547,188.365551L309.061558,193.191770L310.140540,192.308118L311.672701,190.424708L311.439374,192.617182L311.000251,195.191273L312.488680,193.485788L314.017397,191.769109L317.764461,185.483576L319.535125,183.501881L318.995700,186.263585L318.768668,188.318634L318.572153,190.252434L319.403127,190.166156L322.677725,185.507473L320.856844,190.420293L321.671507,190.398773L318.676566,197.177482L321.368449,193.777262L322.255078,193.611062L320.921275,197.222561L320.040977,199.971072L322.284715,197.521907L322.853236,197.863436L323.545532,198.008925L329.199475,190.418097L331.895918,187.622088L333.372902,186.770284L333.889830,187.386756L328.221492,197.055907L325.087030,202.785059L326.302988,202.173891L332.885156,194.092361L330.295665,198.892981L330.711811,199.486625L337.618144,191.410880L335.504742,195.449989L333.212741,199.612940L331.517130,202.903888L330.759929,204.930274L331.370267,205.215865L332.322102,205.088678L338.672838,198.490156L337.705110,200.762872L340.121963,199.034433L342.780643,197.092267L344.851458,195.886787L347.627079,193.944506L346.235263,196.657125L344.630516,199.537088L342.159424,203.273793L339.596242,207.013726L339.257568,208.352157L346.852772,201.555959L342.606371,206.898933L339.040624,211.426551L339.473083,211.925777L340.456084,211.893411L341.547973,211.772306L339.548017,214.563614L341.044548,214.061818L343.487523,212.727911L350.281477,207.548644L346.516617,211.857784L348.417907,211.127561L343.875161,215.958188L345.249267,215.665144L348.586361,213.762070L352.943777,211.093904L352.622637,212.299935L354.535421,211.709499L352.574097,214.190547L348.036438,218.604183L351.517012,216.803994L349.322022,219.325811L349.874620,219.761241L349.956103,220.542312L350.053171,221.305169L346.553282,224.595328L349.015469,223.665857L352.746532,221.915175L354.662765,221.455933L352.795008,223.532452L352.345962,224.638072L351.887932,225.732450L351.997805,226.451895L350.098986,228.412432L348.812013,229.954259L354.872738,227.052899L352.537831,229.221818L357.749183,226.956871L357.929242,227.659048L352.786228,231.345389L356.728350,229.915013L354.285362,232.015200L356.898249,231.369808L355.825163,232.696667L354.454376,234.150849L356.557644,233.820080L362.768600,231.485842L359.355073,233.943249L356.981561,235.836714L355.621393,237.207424L358.016853,236.821812L360.309429,236.520077L362.953199,236.098382L361.993725,237.280247L363.320403,237.469196L363.138928,238.304207L368.553429,236.849505L367.779811,237.953233L366.093581,239.395963L359.801617,242.567383L361.535152,242.627094L363.673699,242.563591L364.144492,243.127870L368.046852,242.497374L364.480317,244.474888L364.841719,245.082574L362.632144,246.527900L363.912106,246.828522L369.458756,245.828756L368.025278,247.014262L363.335152,249.127507L366.236342,249.000010L367.407730,249.394661L365.238622,250.704194L360.307524,252.698988L366.347597,251.831657L374.359963,250.570711L374.126842,251.394677L370.096869,253.087271L371.181980,253.576032L367.464370,255.112041L371.533179,254.973656L370.007192,256.013156L370.358461,256.666438L375.558288,256.427515L372.480641,257.731457L366.989756,259.396455L367.931238,259.934407L368.464750,260.547911L371.314929,260.826912L371.650320,261.498226L373.112228,262.024078L373.162347,262.746488L366.186529,264.293269L366.339572,264.951270L365.479287,265.714442L361.380891,266.772335L364.482715,267.136146L361.210189,268.058070L364.598636,268.443708L371.736501,268.631587L368.440729,269.533887L363.602417,270.466208L365.874261,271.015397L368.824038,271.572657L371.961050,272.167241L367.416059,272.975672L367.488431,273.650046L367.086048,274.328794L368.798301,275.001628L368.354215,275.683689L370.169385,276.392388L369.068875,277.063798L372.864926,277.862565L373.942853,278.617769L366.343514,279.008354L364.572469,279.586546L366.395099,280.349630L366.603851,281.033710L365.412274,281.618984L365.435449,282.285321L363.873640,282.813436L371.667041,284.210793L373.779477,285.140841L370.977860,285.562383L368.529863,285.985166L364.538547,286.180167L362.545805,286.581542L361.136356,287.036051L362.821582,287.926375L366.205475,289.105987L363.512544,289.352406L358.571074,289.178530L363.307295,290.646660L367.873416,292.156471L374.007318,294.038652L378.614907,295.710804L374.081755,295.558646L366.589907,294.703198L363.574668,294.732711L360.832550,294.781132L362.125645,295.750643L364.932203,297.114628L362.854100,297.285538L359.677880,297.139551L362.676004,298.609111L362.388831,299.217913L361.424770,299.632060L364.941209,301.346281L363.542025,301.640347L362.764469,302.107216L365.500646,303.678257L366.031207,304.579964L364.957989,304.959613L360.062595,304.021356L357.307023,303.754251L357.487261,304.495176L357.402271,305.145593L360.971556,307.165465L357.589805,306.589989L360.623994,308.469668L360.685567,309.217499L360.273002,309.777241L362.961547,311.625524L364.235949,312.923512L364.063451,313.620841L361.320344,313.182990L362.761867,314.589792L357.351166,312.875511L354.401413,312.224052L354.382338,312.924999L354.106313,313.505504L356.608054,315.463394L359.447903,317.642942L361.741713,319.599528L360.875222,319.950296L359.493834,320.016719L355.914282,318.871557L356.847418,320.154375L361.804744,323.719877L361.066058,324.135593L355.648717,321.827368L355.292274,322.408158L353.071982,321.869805L355.130745,323.905732L352.222701,322.908724L350.797854,322.795196L356.318002,327.110191L357.060043,328.435441L357.380426,329.505275L356.173747,329.563740L352.540473,327.948075L355.907724,331.118491L359.862162,334.784326L360.635526,336.270193L357.839237,335.189396L360.657835,338.198667L355.517491,335.319541L356.961317,337.341232L355.346104,337.044499L352.880587,336.054071L353.609987,337.558540L352.804580,337.851492L349.595169,336.164902L345.054333,333.302723L343.797992,333.113152L351.219108,340.341849L351.336672,341.416373L350.682562,341.825014L349.563514,341.812734L349.434073,342.683692L346.678861,341.141473L346.985364,342.404671L343.878808,340.446785L347.032912,344.452171L342.508620,341.048484L346.514315,345.997548L346.974265,347.505955L342.376377,343.873293L341.903261,344.396772L340.645030,344.094904L337.127667,341.356911L339.863189,345.301158L335.892407,341.972714L335.950735,343.028854L334.435034,342.320362L335.349016,344.370610L333.373751,343.098477L332.799440,343.434080L332.121660,343.642735L335.766683,349.117656L335.254630,349.598117L336.689856,352.526986L335.182489,351.777317L329.535527,345.630036L330.346054,347.772748L334.478632,354.403920L332.743462,353.272818L331.185860,352.337895L330.697431,352.855507L330.562486,353.878405L331.609385,356.624851L330.184854,355.825504L330.349574,357.352406L326.978675,353.570869L325.119501,351.976872L324.351839,352.022727L326.142889,356.116609L323.848697,353.747287L324.098317,355.456040L322.745574,354.540481L323.195848,356.636383L322.720506,357.197128L322.339361,357.930150L319.477782,354.256561L318.044393,353.032776L321.200741,360.221059L320.774528,360.927355L319.565631,360.151506L316.955643,356.610428L314.883908,353.994632L315.402509,356.496292L318.683229,364.755802L318.865305,366.828951L319.236782,369.373268L316.834002,365.970862L316.107244,366.138824L316.187594,368.126421L314.682630,366.525551L312.508387,363.272353L311.251478,362.076442L311.929533,365.564328L312.348895,368.541669L311.162960,367.528831L308.731977,363.204126L304.607399,354.147376L304.921506,356.803394L304.196987,356.667214L304.957833,360.767033L303.892456,359.699719L303.943616,361.922937L303.502074,362.730124L301.622672,359.029513L301.916952,362.165112L302.959531,367.944625L300.869806,363.332258L300.063050,362.954935L299.199055,362.339070L298.534592,362.418025L298.826219,366.149004L298.992457,369.604508L298.174968,369.266127L298.246647,372.628947L298.011814,374.875431L295.354618,366.389437L294.743572,366.801644L293.625320,364.788470L292.586019,363.006465L292.556789,366.327675L293.507044,375.214726L291.587683,368.647653L290.808531,368.209077L289.583347,364.967456L289.187434,366.764823L288.333548,365.621798L287.866580,367.116272L287.323828,368.195429L286.668422,368.489803L285.739581,366.481454L285.216155,367.877792L284.206298,364.723911L283.900827,368.467296L283.921131,376.535786L283.115569,375.809491L282.311304,374.943004L281.124124,368.052965L280.094957,362.124635L279.529205,363.546055L279.189360,370.585913L278.709623,376.604898L278.000802,377.780445L277.210305,375.994870L276.425105,372.765687L275.695249,370.636288L274.996592,368.296663L274.349979,363.525188L273.682217,364.952182L272.965031,367.673772L272.473837,361.307430L271.619391,367.408205L270.652901,374.019575L269.930839,373.960476L269.691980,365.654407L269.097845,364.580377L268.300076,366.493777L268.111873,360.484438L267.234681,363.306919L265.854049,370.967036L264.601069,376.274351L264.234794,372.803611L264.353475,365.631604L264.020366,362.918824L262.272718,371.192358L261.104307,374.431025L260.441512,373.896965L258.896373,379.108457L259.635337,369.743719L260.737132,359.058404L258.617516,367.449848L256.691651,374.098262L255.874720,374.447527L255.442968,372.832891L255.404863,369.429046L255.873122,363.902603L255.975446,360.388234L253.059931,370.192076L251.932848,371.843722L251.822363,369.247281L250.472481,371.684663L251.372664,365.361180L249.229557,370.695126L250.113352,364.795229L249.063847,365.993729L246.067821,373.761955L244.172386,377.451730L243.449713,377.142760L241.355339,381.166173L241.252031,378.851306L241.332532,376.084882L240.719242,375.471777L241.821229,369.966048L243.159941,364.039657L243.974062,359.803633L241.742235,363.885851L239.338123,368.230111L237.873360,369.974097L236.429728,371.580162L235.538360,371.753735L237.147888,365.902465L236.569048,365.425165L236.679631,363.365889L237.175496,360.505482L236.466088,360.416841L236.063008,359.654823L236.190853,357.778395L237.032360,354.467674L235.155541,356.853094L234.158400,357.366864L233.320444,357.536130L233.151473,356.387446L230.184038,360.614588L232.313910,355.115672L230.835580,356.450695L232.180287,352.612059L228.232316,358.322756L226.241089,360.402457L226.867265,357.893233L227.522048,355.406958L228.099604,353.119543L229.499375,349.548352L226.901691,352.524969L221.380870,360.030349L220.276921,360.391811L217.580236,363.175013L217.578888,361.783866L218.735867,358.699933L217.440544,359.290197L219.357141,355.218704L221.915986,350.348188L222.419391,348.487375L216.578253,355.403162L219.897732,349.681186L219.823798,348.648966L219.028404,348.584094L211.444685,357.299311L212.621441,354.566961L210.587707,355.936195L207.573914,358.464247L207.472153,357.352036L210.838355,352.091184L215.168955,345.828985L217.145515,342.482727L213.690556,345.464216L215.029266,342.917132L217.453281,339.220093L214.848979,341.147588L213.157469,342.017431L213.328679,340.859855L212.763980,340.497155L212.012486,340.325530L209.686448,341.754880L208.346770,342.135801L206.178234,343.314472L204.865288,343.607748L202.733118,344.667571L207.750413,338.889395L206.705189,338.939597L207.519896,337.257954L206.136309,337.609294L206.585831,336.293594L206.719818,335.280099L202.136691,338.385037L200.465883,338.887876L194.727468,342.795562L196.211157,340.562275L197.384333,338.632100L203.025260,333.133387L205.463552,330.329438L205.508803,329.469056L202.341680,331.099400L198.542617,333.146025L196.496892,333.801516L196.131922,333.180261L195.274531,332.918093L196.473976,331.174840L195.687312,330.866121L199.075358,327.653956L196.274059,328.749131L196.205987,327.955762L194.539541,328.226518L197.776446,325.278006L192.190947,328.057152L193.571623,326.337272L191.121327,327.029582L195.854780,323.296306L192.862830,324.302140L188.708267,325.942005L194.091229,321.970460L193.382057,321.588233L192.421550,321.339901L189.131104,322.364800L184.948738,323.817096L182.951355,324.033146L184.442236,322.392884L180.450743,323.605158L184.371199,320.755748L196.886411,313.723638L194.871228,313.995951L187.103799,316.984619L182.365985,318.419353L187.674423,315.155647L191.399064,312.705426L192.172598,311.630685L183.720016,314.574080L183.446327,313.900601L188.539257,310.993206L187.990733,310.477934L189.492379,309.139195L191.416848,307.664881L191.345409,306.990256L190.187467,306.724763L187.137895,307.135710L189.693051,305.496390L188.982262,305.043552L185.451642,305.544489L186.149252,304.583646L188.193279,303.200235L189.491557,302.089430L189.498446,301.401442L187.247634,301.395764L182.819287,301.994981L180.242918,301.999380L179.687319,301.406337L177.828852,301.158319L176.703844,300.692460L178.408955,299.494287L174.750594,299.643895L184.594329,296.524864L189.406979,294.719344L183.579139,295.359777L179.875517,295.456299L183.232604,294.033984L188.177949,292.347610L189.350986,291.463423L188.392299,290.992464L184.371387,291.051131L185.064575,290.251536L187.867320,289.122127L187.633804,288.505662L186.331674,288.044388L187.445790,287.227650L184.557047,286.958086L181.923619,286.615010L183.325369,285.760477L182.733010,285.147178L183.026815,284.435306L183.916892,283.672020L180.678212,283.285473L181.162471,282.552486L183.378768,281.700761L183.681236,281.008231L183.823162,280.330171L180.378557,279.838147L185.011434,278.942309L179.784889,278.474501L185.387175,277.614637L181.195861,277.051134L176.821008,276.429246L185.966063,275.645544L185.525673,274.995015L178.734980,274.291301L178.954664,273.591111L182.312140,272.962943L182.926260,272.303293L184.402901,271.683907L187.517645,271.157720L181.169376,270.191807L179.447228,269.403331L183.488030,268.968817L182.731243,268.241547L181.191483,267.439329L183.209348,266.926563L183.450136,266.273247L180.778796,265.323466L180.932771,264.644230L180.284677,263.871918L185.332182,263.800199L187.286538,263.392855L187.265223,262.737166L188.265853,262.230284L183.376131,260.825705L187.652695,260.833100L188.392412,260.302882L185.489760,259.136656L183.923226,258.171810L182.494459,257.207930L181.262059,256.259689L185.981136,256.525759L186.429311,255.942754L187.615682,255.528958L181.880665,253.535780L179.496957,252.250248L179.840669,251.596133L179.555359,250.785108L178.364309,249.730046L176.917588,248.584650L180.868154,248.909519L178.676361,247.542653L185.792077,248.864804L188.485303,248.966013L190.942636,249.034241L188.878308,247.705731L187.574878,246.588101L190.814660,246.959323L193.669730,247.248543L187.204743,244.324636L184.018363,242.463533L191.752904,244.541720L192.791576,244.238882L192.045164,243.266742L192.407540,242.711680L188.866291,240.599710L178.024592,235.445780L175.964844,233.759177L174.926056,232.466023L178.114251,232.982738L183.185791,234.382639L183.095359,233.537140L191.344053,236.520498L193.434599,236.757635L193.250800,235.940379L194.122792,235.628664L190.225421,232.962510L187.245856,230.683310L189.211916,230.886633L189.805659,230.401939L194.270959,231.985116L191.162036,229.539068L190.048845,228.129075L185.658756,224.851985L188.411228,225.561583L187.619968,224.259721L187.372462,223.256240L192.102062,225.228651L195.398815,226.413281L199.604237,228.220698L200.698041,228.144074L195.670813,224.159989L192.166416,221.056324L185.721883,215.926089L187.964774,216.491418L190.521282,217.309432L192.846279,218.012604L193.412107,217.517672L190.877993,214.807815L196.629889,218.053192L201.522290,220.783521L201.722456,220.099865L203.342959,220.492044L205.079573,221.002088L198.217114,214.801710L195.107106,211.415505L201.814394,215.875132L205.936059,218.366042L203.631020,215.598529L206.492992,217.128137L205.120754,215.088599L202.687422,212.079897L205.240991,213.400510L207.181976,214.226881L205.244215,211.565436L204.712613,210.137514L209.595156,213.752398L204.804859,208.297348L200.159722,202.835504L202.158525,203.728536L206.348795,206.839644L211.392905,210.918110L207.030928,205.515513L201.739535,199.003255L204.296745,200.575327L205.470110,200.731262L209.638863,204.153694L212.268454,205.999186L215.272922,208.331760L215.885509,208.037531L213.888527,204.747512L218.401393,208.967269L216.343872,205.546204L218.222168,206.765117L215.123068,201.961867L214.555122,200.160475L212.252955,196.138213L210.411828,192.595659L214.944765,197.215114L217.804888,199.789999L218.381316,199.408065L219.822170,200.198960L216.410731,194.347389L215.735472,192.151586L217.111303,192.812529L219.768702,195.355684L225.152422,201.985627L224.106873,199.271888L225.160451,199.656350L226.217232,200.069887L225.222322,197.306112L227.411496,199.514505L225.353629,194.959956L222.973492,189.738261L221.805242,186.373892L222.601428,186.237070L225.913455,190.442441L228.525409,193.577519L228.319393,191.810669L228.768044,191.181066L227.925406,188.159098L227.719102,186.236701L229.785721,188.601057L227.706472,182.997853L229.303305,184.483850L233.108514,190.492132L234.028485,190.807743L235.469924,192.238386L236.966187,193.851839L236.822161,191.971322L237.502409,191.855624L234.861839,184.236969L236.735846,186.736801L237.680108,187.161892L238.864545,188.192862L240.226624,189.713977L242.893977,194.580338L242.248001,191.189188L241.480855,187.342322L241.198931,184.631419L242.025093,184.838091L243.028357,185.560942L243.090945,183.635507L245.220149,187.687877L244.549864,183.541006L244.565125,181.308436L244.327639,178.175500L245.991563,181.049254L246.877162,181.499499L249.214989,186.944754L250.662433,189.578605L251.024986,188.456640L250.773662,184.998767L251.302337,184.328582L252.359622,185.712492L252.227503,182.355630L253.889222,186.325967L254.770793,187.186191L255.290816,186.492476L255.711477,185.297458L255.478515,180.873167L256.590989,182.856608L257.260684,182.703755L255.977259,171.970671L256.391699,169.921246L257.817812,173.668095L259.285913,178.033246L260.250559,179.575855L261.437039,182.794434L261.534077,178.565824L262.298714,178.921797L262.938897,178.333787L262.977597,172.557333L263.779267,172.953305L265.432011,181.715830L266.155316,182.084494L266.454563,177.697364L267.715654,184.472326L268.359989,184.185465L268.872490,181.841049L269.639427,183.272904L270.379339,184.598016L270.851243,180.257424L271.497711,178.972851L272.398716,185.786146L273.041714,185.363363L273.689929,184.888719L274.361758,186.739682L275.006776,184.515333L275.762538,171.691065Z" />
<line x1="50" y1="625" x2="100" y2="625" fill="none" stroke="green" stroke-width="1.0" stroke-linejoin="round" stroke-miterlimit="10" />
<text x="125" y="628" style="text-anchor:start;fill:black">n0_4mer:PS</text>
<path style="stroke:red;stroke-width:1.0" d="M276.961115,140.782302L277.975988,139.234377L278.963534,139.406349L279.804485,143.532439L280.802740,142.707583L281.562671,146.786855L282.363678,149.154769L283.368614,147.910442L284.250267,148.612327L285.201589,148.333459L286.327180,146.131086L287.358314,145.273448L288.354980,144.887808L289.070340,147.123617L289.301670,153.212610L290.738113,148.938590L292.018629,146.335840L293.332923,143.781531L294.325444,143.685769L295.161036,144.627668L295.962107,145.709162L297.928537,139.838926L299.394244,137.307339L301.496600,131.550099L302.399544,132.498529L303.177124,134.017479L303.879716,135.801691L304.215174,139.181200L303.857050,145.456996L303.700569,150.454098L303.914392,153.586922L304.910734,153.353787L305.978989,152.864730L306.446516,154.716032L307.720792,153.477107L307.532078,157.601275L309.040723,155.555027L308.684478,159.999403L309.258174,161.131401L310.342689,160.563927L311.699965,159.177348L312.854362,158.497049L315.035186,154.780981L316.157684,154.357836L315.027209,160.417872L314.694036,163.983527L315.878377,163.253273L316.855234,163.123181L317.310344,164.376221L320.361910,158.946036L321.968127,157.378467L322.220947,159.208962L321.531444,163.241900L321.957462,164.500819L322.948985,164.419124L323.433541,165.500544L323.997487,166.377785L325.779062,164.587595L327.916198,162.120551L329.733002,160.430508L331.389291,159.147308L331.301163,161.444282L331.338359,163.425074L331.493367,165.120754L332.938355,164.306594L335.188825,162.023761L334.711873,164.865672L335.598424,165.153514L336.340386,165.704243L337.056764,166.296338L336.949793,168.301883L337.077868,169.857936L335.350535,174.468523L338.061788,171.670475L338.953106,171.911406L339.416805,172.837785L342.736095,169.293297L345.018616,167.468902L346.279271,167.262512L347.026517,167.842673L343.722388,174.354491L341.631758,178.931048L341.975895,179.925737L348.602983,172.123132L347.751593,174.867254L348.223111,175.751310L351.471262,172.918317L351.622044,174.259394L349.993341,177.881614L349.227254,180.311957L348.540634,182.586465L350.155234,181.960828L351.131888,182.147840L356.241269,177.379775L356.019421,179.080400L357.471488,178.796000L359.832799,177.492352L361.676626,176.830733L364.300115,175.336554L362.890356,178.340242L361.288844,181.483424L359.223752,185.049104L358.125175,187.512389L359.674707,187.175533L363.164035,184.883463L363.284967,186.069025L362.348700,188.288506L366.110156,185.866643L365.601240,187.650821L367.596492,187.023426L368.106775,187.824015L369.776793,187.551063L368.541242,189.947887L369.538564,190.294511L368.050190,192.845733L368.529372,193.630899L365.196121,197.681234L369.232122,195.408431L372.118195,194.179082L372.864063,194.761264L377.901502,191.880808L378.821636,192.383685L384.369489,189.266501L383.264053,191.402828L381.332826,194.127190L379.640207,196.614637L382.684418,195.555810L389.296588,191.960359L390.637240,192.270357L391.191475,193.150600L388.579699,196.225703L382.109548,201.866300L379.010916,205.090709L379.649960,205.765778L380.403206,206.369286L378.859791,208.449667L379.640112,209.023066L379.220201,210.347120L379.050382,211.500491L378.307919,212.984907L377.698236,214.367164L380.589224,213.696232L382.185221,213.812291L378.988730,216.640215L381.526746,216.235117L381.782859,217.107349L380.945505,218.558956L379.972042,220.058357L380.254183,220.886631L382.138349,220.903922L387.927724,219.012382L387.721469,220.136942L386.394104,221.786093L386.258194,222.845930L385.817711,224.036620L386.731433,224.602090L389.980544,224.144212L390.219272,225.041885L389.361492,226.403316L390.811215,226.783117L393.551632,226.655397L390.948808,228.701906L390.127704,230.002197L391.128561,230.586305L393.005183,230.854118L393.260614,231.740842L390.224418,233.803427L393.009734,233.777475L391.716358,235.183647L394.434403,235.228166L392.813756,236.721751L394.473476,237.145264L395.933025,237.652835L394.151076,239.154573L390.438468,241.189213L397.065057,240.214626L395.155416,241.706031L394.029785,242.952474L393.358670,244.058788L395.556679,244.423405L400.883879,244.049369L400.597078,245.091254L395.820130,247.159980L398.571626,247.475150L398.994752,248.330240L398.955490,249.284746L398.775360,250.263941L398.248058,251.304401L401.941206,251.554755L399.298076,252.980791L395.732101,254.521102L398.949871,254.905807L403.897300,255.069115L405.542360,255.790223L403.707863,257.019878L401.395107,258.283500L400.952500,259.277470L395.700305,260.827888L395.618389,261.730158L394.133249,262.773791L390.709992,263.978777L394.669658,264.483279L394.038429,265.414631L395.985995,266.146969L400.244609,266.754825L399.260889,267.730963L397.542494,268.729492L396.292451,269.681638L398.908765,270.473678L408.698305,271.093946L409.917290,272.044703L409.023937,273.043797L411.423192,274.005626L412.998266,275.002395L417.996880,276.047252L418.634875,277.101469L419.636885,278.173221L413.661828,279.055881L407.263138,279.836099L397.522052,280.376537L396.056584,281.198686L395.626332,282.060622L394.912945,282.898357L399.360511,284.104297L402.835905,285.298236L409.738991,286.845745L410.634399,287.923746L405.018142,288.347846L399.996790,288.755922L398.592351,289.516032L396.991228,290.232348L394.373695,290.792092L391.707938,291.307896L395.705630,292.766547L397.073824,293.880136L396.777508,294.746357L392.276428,294.896925L392.767500,295.866543L395.924007,297.338246L401.168984,299.261716L403.813468,300.747555L400.816396,301.105864L397.278288,301.305009L398.284352,302.465353L395.329145,302.731282L395.235431,303.636373L392.678065,303.937427L390.107612,304.198809L388.973937,304.799185L392.303895,306.587214L391.716633,307.345475L389.970971,307.768057L392.096182,309.300727L397.415274,311.832062L395.326138,312.164318L394.477155,312.860465L392.080109,313.044376L391.853698,313.916961L391.610868,314.784884L390.248947,315.262630L391.174928,316.540959L389.195760,316.776748L389.795105,317.949530L387.413619,317.997377L386.808635,318.705014L385.357746,319.070037L387.724741,320.972996L389.194411,322.548392L395.303952,326.126798L397.685726,328.200565L395.205138,328.171609L390.172329,326.954781L384.026575,325.144247L381.072462,324.727665L381.306579,325.788084L382.844877,327.494184L382.280141,328.192282L385.372154,330.733691L383.177822,330.621219L383.659605,331.876492L382.903686,332.489046L381.550608,332.771520L384.689383,335.514500L384.746800,336.596295L385.986083,338.362575L381.520262,336.849260L379.861216,336.914763L381.238399,338.779257L384.382316,341.758673L382.752163,341.849107L382.743846,342.939103L381.569825,343.292061L379.057622,342.759713L378.957327,343.781177L380.417019,345.859693L378.719870,345.824528L378.668807,346.905830L380.251829,349.148591L381.841582,351.442625L381.203958,352.165753L383.157964,354.799346L381.440153,354.739459L378.895213,354.024543L376.548925,353.417644L375.119953,353.488503L375.576708,355.039856L374.585849,355.446668L370.844085,353.588119L366.208933,350.908639L365.984041,351.853543L369.802577,356.273263L370.296959,357.912685L370.199107,359.057431L369.508316,359.684300L368.743692,360.242134L368.965331,361.706252L371.219983,365.097152L367.179529,362.586501L367.566606,364.250199L362.838365,360.938519L364.869771,364.220366L364.182311,364.841121L361.164557,363.078893L359.915243,363.080067L358.504579,362.893034L355.300439,360.766766L357.431623,364.342487L355.180387,363.186662L355.096713,364.398226L353.949138,364.423430L354.022564,365.835673L353.012488,366.008913L352.034536,366.208282L352.183654,367.751106L352.354150,369.349535L352.413204,370.841253L353.276461,373.371734L351.922285,373.132975L349.144824,371.026423L347.845135,370.781727L349.448450,374.388614L348.107718,374.099482L346.575097,373.520648L346.057589,374.326386L345.314925,374.821474L345.500197,376.653958L344.968289,377.477796L345.474157,379.855666L342.712010,377.353349L340.316123,375.316856L339.900795,376.289765L339.983170,378.068374L340.470968,380.543474L340.565821,382.440879L338.722311,381.156504L338.315184,382.246221L337.464197,382.592691L336.045425,381.940739L333.701301,379.601963L333.054420,380.243618L333.956606,383.750299L333.416626,384.658940L331.717614,383.370289L329.820261,381.634165L327.715276,379.408621L329.261410,384.451216L330.385831,388.801103L330.478622,391.140619L328.692633,389.546064L328.007516,390.268423L326.868889,389.998456L325.951045,390.201884L325.255956,390.912279L323.113089,388.229492L322.844226,389.922347L323.235525,393.290637L322.199072,393.211795L321.606819,394.251146L318.779043,389.475717L316.730223,386.554467L315.879897,386.762904L314.482102,385.435824L314.845319,389.074164L313.295471,387.265140L312.600004,387.919644L312.811475,391.384700L311.203919,389.270936L310.312443,389.352215L310.912554,394.382505L309.104497,391.449545L307.652765,389.589876L307.203517,391.228721L306.504637,392.022345L305.949540,393.399806L305.503461,395.278007L304.752695,396.021587L304.348197,398.253629L303.913823,400.491218L302.020286,396.317371L301.079246,396.260612L300.005362,395.545212L298.809896,394.152880L298.139465,395.367884L298.631161,402.961566L297.292735,400.856177L296.996269,404.692754L296.315508,406.499444L295.393414,406.905323L294.775339,409.403595L293.702998,408.901200L292.630819,408.328029L291.896929,410.381680L290.195241,404.435472L288.677024,399.341479L287.398225,395.832206L286.556801,396.357588L286.148489,401.886442L285.195932,401.651231L284.216071,400.980505L283.111710,398.253334L282.064520,395.804506L281.219992,396.600975L280.494019,400.353472L279.667668,402.845330L278.769270,404.101229L277.805663,403.198388L276.870109,403.294029L275.933688,403.435219L274.995402,400.866673L274.106852,396.636194L273.241598,395.028952L272.372872,394.641082L271.503129,394.472089L270.562178,396.306892L269.483728,400.651358L268.545494,401.005282L267.904915,396.175264L267.138946,394.311708L266.232646,394.726491L265.646762,391.077467L264.582825,393.463726L263.279281,397.983679L262.029008,401.323451L261.193540,400.433891L260.782884,396.027292L260.161925,393.815086L258.987128,396.024737L257.564667,399.759015L256.552936,400.312368L255.106209,403.611513L255.159070,397.345897L255.432935,390.318757L253.839637,394.412442L251.891459,400.080433L251.311609,398.174766L250.499599,397.561804L249.973060,395.604931L249.483703,393.600913L248.911777,392.092221L247.098176,396.058534L246.043326,396.569932L244.938243,397.240199L243.734244,398.246018L243.873521,394.041154L242.128802,397.062841L242.473212,392.362142L241.105461,393.914727L239.027071,397.796033L237.702232,398.954483L236.446685,399.814776L234.796810,401.861700L233.518108,402.650604L233.028541,401.017200L232.339017,400.032966L232.368242,397.022893L233.927737,389.857208L233.708793,387.861835L232.020734,389.867872L228.873299,395.588087L227.089528,397.560345L224.408069,401.682458L220.839001,407.794253L218.948018,409.609748L216.673210,412.238588L216.372331,410.194056L216.085462,408.181283L214.924449,408.167476L216.859934,401.405168L219.833664,392.667643L221.545242,386.882784L221.018119,385.895820L220.223311,385.470308L220.126034,383.664420L219.676119,382.594453L218.449376,383.032007L218.737982,380.595744L217.378743,381.268606L216.907526,380.294413L213.083683,385.312030L211.739183,385.802909L212.001878,383.494104L212.619804,380.644863L212.952379,378.349487L212.065239,378.112491L211.954255,376.617282L207.776890,381.603829L206.963089,381.167182L203.513734,384.775833L203.785967,382.629910L203.875280,380.806914L203.872178,379.159743L203.313108,378.348925L204.207152,375.484354L204.416748,373.648112L200.954422,376.905522L203.265874,372.222671L202.347048,371.976860L200.514679,372.923505L195.312569,378.189177L193.575086,378.861537L192.671658,378.448309L190.607956,379.465776L191.564135,376.752294L193.379687,373.068038L196.184184,368.303473L191.583837,372.298422L191.892941,370.516667L192.802581,368.088955L196.889307,362.168757L195.680102,362.227446L193.876213,362.912117L191.506772,364.163841L190.706020,363.710941L190.409184,362.730719L188.121991,363.795217L188.464637,362.161881L185.339332,363.999768L184.983558,363.056616L183.663808,363.050991L186.968650,358.632776L185.836105,358.477843L186.090972,357.028536L183.668556,358.036461L183.407649,357.059382L183.654833,355.642663L182.593844,355.385694L180.907359,355.652717L176.174676,358.464644L175.507120,357.790652L175.407205,356.649736L180.942106,350.969762L179.881311,350.684965L179.772014,349.642239L177.765627,350.074541L175.722902,350.500474L172.520104,351.760950L173.930568,349.557998L172.926608,349.153169L173.116075,347.884285L174.898819,345.509081L175.522701,343.987790L171.993082,345.326658L167.877920,346.994446L168.027573,345.764819L168.926919,344.061094L169.598384,342.532587L171.287877,340.386265L168.823180,340.861027L169.798033,339.196756L169.745008,338.178416L167.035349,338.736532L170.916956,335.423962L170.305403,334.760589L169.666020,334.109443L167.741719,334.163065L164.461817,334.923126L162.228560,335.071916L162.488834,333.882071L159.089428,334.586420L161.733997,332.184588L169.020665,327.537662L168.634941,326.764261L162.724702,328.629572L159.788887,329.001675L157.831673,328.878487L159.408452,327.133729L157.224595,327.086552L160.917819,324.459883L158.925178,324.319489L162.610730,321.787131L161.413372,321.314825L159.803456,320.992595L161.700130,319.278382L163.600907,317.599999L164.048192,316.502355L161.273454,316.595673L162.116920,315.354583L161.038811,314.803405L156.175093,315.530570L154.873253,314.997267L155.017660,313.977745L160.323891,311.329868L161.593051,310.018159L158.771965,309.961198L156.247416,309.776513L154.711903,309.273998L155.232004,308.181672L151.962973,308.121372L152.646630,306.980489L155.554110,305.289991L152.161882,305.196784L159.047981,302.607244L159.594626,301.587662L155.563661,301.598931L155.602965,300.676055L156.767488,299.523260L159.493674,298.078914L157.702638,297.546857L157.046536,296.780586L154.961501,296.259883L158.538099,294.749980L156.576829,294.193568L156.646828,293.295840L152.727992,292.987974L151.686778,292.221684L151.133230,291.377279L151.089653,290.462783L152.254588,289.407466L154.427963,288.260062L156.163299,287.191170L156.046114,286.325596L153.195747,285.699604L154.373934,284.708554L155.596602,283.732622L152.739615,283.044006L152.940341,282.135571L153.372749,281.218997L156.753037,280.180281L153.336740,279.439622L157.218797,278.436507L154.122765,277.643117L151.393597,276.799407L158.470802,275.844899L156.388188,274.993392L151.682418,274.092141L151.823282,273.193121L151.755980,272.291392L149.035436,271.310680L154.399872,270.585717L156.020977,269.774366L153.127571,268.754852L151.811629,267.784672L154.428777,267.053639L153.121319,266.072695L152.140327,265.097897L155.252840,264.467651L153.528759,263.421070L151.386393,262.304861L152.997596,261.568874L152.313421,260.585581L155.992881,260.135625L154.204057,259.015042L154.490076,258.156130L155.186408,257.360056L152.719836,256.083149L155.327683,255.590291L157.373161,255.038983L157.166249,254.117056L158.290349,253.435642L154.305042,251.786114L152.305117,250.470548L149.528240,248.960626L153.009495,248.752004L157.688430,248.860544L154.779110,247.288810L152.885395,245.911116L152.272066,244.815801L152.643111,243.957306L152.863040,243.061538L153.165397,242.187760L153.943450,241.446811L153.239735,240.291866L157.452715,240.562236L157.772664,239.723971L160.045459,239.489941L161.156842,238.920057L158.250142,237.057986L161.840308,237.308469L164.329753,237.237177L160.158089,234.874627L158.511001,233.341698L161.932349,233.631036L162.585934,232.936399L161.467667,231.569731L163.080834,231.246832L161.749536,229.769754L154.458458,225.833652L153.220289,224.287751L152.036926,222.737560L153.229399,222.190714L152.727471,220.908292L151.808104,219.421867L158.589579,221.454314L159.766448,220.972147L163.340381,221.649234L165.687693,221.786348L164.741922,220.325911L164.040839,218.964552L165.016862,218.445217L163.998998,216.892509L167.140125,217.528984L167.820757,216.882315L166.808101,215.306234L162.766122,212.002151L164.498533,211.908475L164.446032,210.802964L164.999199,210.044905L169.410738,211.604937L172.970720,212.723691L174.300840,212.521204L174.720124,211.762012L171.863935,208.902780L170.462139,206.921858L163.929127,201.506169L168.216330,203.215719L170.075966,203.347314L172.194759,203.687308L172.834134,203.019568L171.275376,200.781470L172.545014,200.552173L176.358263,202.215918L174.310310,199.562461L177.940920,201.169264L181.758093,202.991454L175.480789,196.976282L174.844415,195.289003L180.200841,198.414070L182.164372,198.872734L182.316405,197.858056L184.283006,198.366067L180.598210,194.064045L177.204809,189.907149L178.158934,189.486167L177.826638,187.920962L183.561547,191.847638L184.914461,191.867417L187.305969,192.879950L185.466683,189.921323L184.058235,187.309697L185.858250,187.779594L187.453189,188.079140L189.042631,188.401002L188.249097,186.314929L185.391162,182.044269L186.898874,182.261730L187.102645,181.111951L191.843664,184.865105L192.775737,184.558405L193.368797,183.882054L194.237756,183.515845L193.986945,181.869063L196.159226,183.017672L195.900540,181.339578L198.128145,182.616374L197.862010,180.906755L196.942095,178.352993L196.466401,176.297345L195.108628,173.071186L199.120633,176.719344L201.137549,177.872906L200.759477,175.881045L201.221319,174.982979L199.641965,171.263900L200.429306,170.754442L202.137047,171.552831L203.360443,171.694742L207.953683,176.793728L206.452407,173.002342L208.881391,175.046902L208.987525,173.605134L206.813847,168.573836L208.794432,169.983879L209.798143,169.881349L208.237774,165.589169L206.308147,160.554671L206.309992,158.639455L210.604387,164.070705L211.870974,164.399310L210.337822,159.765779L213.420413,163.355678L213.578708,161.693013L214.888382,162.148813L216.943437,164.061026L216.136635,160.490550L218.058374,162.209859L219.374829,162.787112L221.603503,165.275679L221.733804,163.479941L222.767855,163.558570L224.557254,165.297759L226.365777,167.162083L223.767368,159.149427L224.519305,158.557136L226.575811,161.026218L227.250770,160.293434L228.084164,159.933085L229.728222,161.602551L231.004059,162.416474L230.650985,159.020557L231.035241,157.458367L231.835807,156.977952L232.794447,156.932097L233.150409,155.172991L233.761510,154.092070L233.863305,151.443220L236.170206,155.465284L236.925928,154.810262L238.160490,155.686454L238.731434,154.417251L240.155105,156.005450L239.822637,151.532464L241.059867,152.485233L242.164187,153.014428L244.048379,156.573667L245.195105,157.457584L245.850865,156.413825L247.213006,158.283090L248.189957,158.619161L249.243622,159.336493L249.619149,156.964688L250.140739,155.135989L250.401395,151.875572L251.477590,152.614774L251.567766,148.088352L252.346728,147.079802L253.504353,148.229480L255.020195,151.710824L256.090317,152.660423L257.433638,155.577967L257.819800,151.966591L258.503587,150.213757L259.458526,150.439623L259.424468,142.281191L260.303504,141.343059L261.876864,147.054537L263.429984,153.454243L264.118508,151.097873L264.949670,150.097510L265.659654,147.253355L266.311314,142.902488L267.233262,142.099981L268.496965,147.769867L269.425543,147.699585L270.469352,150.776894L271.527279,155.899274L272.392838,155.662367L273.276369,156.442622L274.128397,154.468932L275.008941,155.612939L275.952753,145.920609Z" />
<line x1="50" y1="600" x2="100" y2="600" fill="none" stroke="red" stroke-width="1.0" stroke-linejoin="round" stroke-miterlimit="10" />
<text x="125" y="603" style="text-anchor:start;fill:black">n0_4mer:D</text>
<path style="stroke:black;stroke-width:1.0" d="M277.683561,91.338519L279.019028,91.650494L280.356291,91.759728L281.725044,90.979199L283.076452,90.870880L284.456643,90.248115L285.822263,90.047572L287.111640,91.067167L288.524493,90.212980L289.938427,89.519205L291.308486,89.458947L292.817750,87.965171L294.223331,87.714817L295.537809,88.344899L296.816406,89.220073L297.759630,92.696628L298.756519,95.396074L299.850122,97.134479L301.019717,98.198934L302.520901,97.034736L303.766370,97.573747L304.744075,99.662123L305.852020,100.856594L306.810134,102.783166L308.062790,103.044722L309.345173,103.156020L310.703883,102.909658L312.273083,101.720686L314.073567,99.593743L316.182207,96.290124L317.799565,95.282337L318.917424,96.388927L320.012187,97.538570L320.984997,99.105863L322.164850,99.832818L323.867357,98.652042L325.058522,99.350416L326.544312,99.024980L327.997899,98.843602L329.467947,98.638266L331.132626,97.849159L332.491076,98.061871L334.098260,97.537735L335.522401,97.595623L336.421115,99.175545L337.767194,99.452408L338.987950,100.080043L340.040809,101.149368L341.586126,100.905248L342.697004,101.803906L343.988393,102.233465L345.409301,102.348526L347.125323,101.771138L348.506364,102.026575L349.539380,103.095840L350.585992,104.113773L351.575457,105.240360L352.944275,105.520406L354.562483,105.279391L355.590178,106.305145L356.700153,107.145740L357.613345,108.374353L358.304469,110.020221L359.587625,110.477597L360.485914,111.675947L362.158894,111.400129L363.220748,112.283067L363.857688,113.928075L364.995406,114.646984L365.488967,116.492184L367.008695,116.530471L368.628014,116.421059L370.035046,116.691321L371.364962,117.101754L372.436918,117.937496L374.055242,117.902748L374.957542,119.009577L375.862612,120.100232L376.688113,121.300028L377.473587,122.545096L378.683391,123.153302L380.431262,122.990341L381.683033,123.560280L382.459273,124.801285L383.788910,125.266751L384.315895,126.830123L385.987642,126.842312L387.861788,126.612351L389.172125,127.144038L390.858630,127.204866L391.662881,128.397657L392.966524,128.962163L394.513856,129.238219L395.303712,130.441998L396.421185,131.248397L395.881578,133.990159L396.178274,135.716508L397.225750,136.568074L397.908518,137.827877L400.168984,137.342080L401.035735,138.407251L401.944879,139.422978L402.742579,140.553448L403.252881,141.976323L403.950316,143.193918L404.196436,144.858195L405.010727,145.937697L406.119984,146.724900L406.666670,148.059402L406.385193,150.170011L407.676985,150.774380L408.020575,152.264175L410.236445,152.036640L413.235473,151.142573L414.286638,152.023447L415.568097,152.707939L417.179171,153.119836L415.544460,156.291498L416.071671,157.601381L416.751611,158.777866L414.377918,162.416805L415.411948,163.266858L414.168192,165.907635L414.051171,167.630246L416.384199,167.468414L418.206639,167.724750L418.282369,169.293417L417.533736,171.445287L416.863063,173.507777L416.977344,174.986118L420.631971,173.995541L425.237694,172.418683L428.545940,171.796526L431.714765,171.320793L432.143297,172.679993L430.265679,175.510269L430.184711,177.154048L430.141172,178.758355L431.395086,179.555745L433.620995,179.780817L435.087542,180.484631L435.838672,181.619100L436.657767,182.716116L438.483301,183.251113L438.153132,184.997488L438.817331,186.185937L439.263236,187.490969L438.934570,189.197776L439.990682,190.174852L441.264437,191.050098L442.321365,192.044953L443.451293,193.012486L444.248851,194.148390L443.918154,195.816894L443.867469,197.340419L444.829204,198.396337L445.201411,199.720073L446.813559,200.503075L448.388776,201.320307L449.384106,202.396858L450.303480,203.512354L448.510660,205.717589L449.058785,206.968913L447.636196,208.974801L448.359862,210.145865L451.259393,210.525170L451.525625,211.886201L453.457304,212.662255L453.399207,214.141300L452.913909,215.754403L452.711855,217.260574L452.819101,218.658665L452.079275,220.313458L452.593807,221.572653L452.979410,222.871589L451.636239,224.663256L453.276334,225.601255L454.067066,226.788064L455.309564,227.863644L457.842468,228.625961L457.520839,230.124236L457.661410,231.502382L456.975380,233.068260L455.995614,234.684295L456.529773,235.955159L457.030529,237.236757L458.490709,238.330045L459.195686,239.586645L459.314272,240.958310L459.545753,242.308009L456.082025,244.284388L454.462875,245.906289L453.064529,247.466579L452.580677,248.868365L455.069785,249.844764L457.492013,250.864352L459.697945,251.944332L461.599739,253.090259L462.686827,254.351619L461.501998,255.859982L460.728356,257.309620L460.130339,258.730511L460.568255,260.057429L461.919297,261.322364L463.798100,262.570935L464.507879,263.914132L463.522571,265.353287L461.152554,266.837689L459.220797,268.270511L455.928552,269.714094L453.400137,271.092233L452.823914,272.404496L451.212971,273.715602L449.567446,275.003029L447.800092,276.265519L446.511211,277.509318L445.888369,278.749159L449.480320,280.103578L454.435662,281.560926L458.904153,283.070119L461.274899,284.538181L461.949053,285.942691L461.577201,287.289360L457.579890,288.366474L455.583259,289.547471L452.284052,290.586147L452.028550,291.867934L455.656319,293.546433L457.802480,295.117450L458.370762,296.537059L457.749524,297.818889L457.453995,299.137062L459.006157,300.711646L461.608631,302.466747L462.144258,303.944034L462.409071,305.388587L461.676706,306.671261L458.806029,307.567529L457.038781,308.627954L456.579532,309.916909L456.209249,311.220554L458.302265,313.033707L460.243892,314.850429L460.057621,316.227234L458.935264,317.390069L456.395115,318.202725L455.151999,319.299975L454.581178,320.553516L455.114408,322.092016L457.119499,324.040550L456.551538,325.313059L455.541895,326.456529L452.821635,327.088901L448.581525,327.226861L448.768670,328.670749L449.289559,330.229669L450.831293,332.135169L453.587933,334.476933L453.361599,335.852781L452.782422,337.108922L452.147332,338.343014L450.658386,339.261897L449.224069,340.184328L447.937496,341.147311L446.471540,342.026720L447.300809,343.806253L446.654598,345.006603L444.938273,345.759082L441.505837,345.761684L439.940668,346.523697L440.076823,348.020176L441.647137,350.175310L444.818835,353.104239L444.345543,354.390620L442.678080,355.108386L441.042948,355.822468L440.369621,356.994555L439.286292,357.958256L439.331774,359.493600L439.119884,360.906472L437.373501,361.509535L436.341481,362.479019L435.052220,363.299157L434.751689,364.661950L435.188891,366.452733L435.057020,367.934510L435.751699,369.915009L432.470822,369.536177L428.862725,368.906143L428.799306,370.416612L427.643366,371.251005L428.357059,373.274250L429.007354,375.285725L427.863933,376.139204L426.529525,376.855807L426.545308,378.481858L426.206388,379.878422L425.354344,380.922746L423.976589,381.589226L421.990325,381.800342L420.823839,382.589368L419.203450,383.029768L419.584467,384.973512L419.558820,386.630548L419.870829,388.570714L419.858901,390.280027L418.195900,390.675401L417.482289,391.829485L416.057988,392.395518L415.588092,393.753715L415.798716,395.705275L415.790209,397.493879L416.240972,399.710763L415.316748,400.731005L413.561960,400.995860L410.184613,399.741232L408.238456,399.760003L407.749350,401.134851L407.238245,402.500512L407.813382,404.940777L406.683044,405.731494L404.711553,405.669761L403.963226,406.828430L403.456507,408.244132L402.875686,409.595998L401.752198,410.380656L400.632555,411.165279L399.508220,411.940775L398.446005,412.781607L398.503419,414.888788L396.936536,415.164869L395.730233,415.843186L395.440133,417.600166L393.971252,417.966997L392.733323,418.600368L391.775294,419.573405L390.116539,419.669463L388.879118,420.280351L388.739134,422.305795L387.402568,422.794523L385.915046,423.071487L385.282988,424.491561L383.732278,424.666225L382.788658,425.670154L381.404201,426.055044L379.720660,425.996310L378.346806,426.365041L377.154483,426.991549L376.765551,428.828618L375.598027,429.505158L374.628389,430.488636L373.716416,431.571932L372.220586,431.725931L371.170627,432.592118L370.190405,433.579946L369.162739,434.497254L367.800349,434.845796L366.698205,435.638963L365.564947,436.380942L364.202322,436.709910L363.042313,437.401273L362.200238,438.691165L361.193275,439.689403L359.564768,439.491983L358.371993,440.127747L356.713556,439.825205L355.353969,440.103064L354.463499,441.351284L353.314985,442.074564L352.478754,443.482782L351.528445,444.671129L350.084510,444.768391L348.931682,445.518890L347.302543,445.157026L345.528902,444.411184L344.501711,445.442876L343.467834,446.480185L342.477107,447.651182L341.535428,448.980295L340.161800,449.192453L339.007647,449.992622L337.449667,449.678652L335.973910,449.563740L334.991548,450.868303L333.578657,450.922350L332.508113,452.011463L331.488959,453.296890L329.897088,452.773133L328.420340,452.582860L327.198786,453.232360L325.566323,452.454766L324.348593,453.108614L322.906257,452.945319L321.551153,453.084957L320.224226,453.323366L318.908241,453.600457L317.535601,453.636771L316.181619,453.735670L314.861078,453.970762L313.544558,454.220546L312.498213,455.770433L311.289180,456.603495L309.704158,455.525611L308.243542,455.012135L306.796650,454.511613L305.210431,453.124483L303.794218,452.637040L302.360005,451.965482L300.918951,451.158812L299.458293,450.105339L298.304506,451.233672L297.030246,451.510880L295.945586,453.417821L294.918972,456.088691L293.797012,458.194317L292.595561,459.770410L291.068983,457.889005L289.716306,457.802145L288.400418,458.179086L287.096226,458.796033L285.854526,460.614257L284.560714,461.912160L283.186658,461.789679L281.816270,461.694587L280.453182,461.776893L279.072570,461.086832L277.729482,462.249141L276.368809,463.289186L274.993129,463.094137L273.617893,463.226580L272.259584,462.061438L270.912737,461.136528L269.556214,460.989233L268.242303,459.720162L266.907712,459.328642L265.554818,459.389452L264.204257,459.377925L262.776923,460.516632L261.404508,460.659273L260.064499,460.355610L258.692063,460.453253L257.310287,460.615396L255.943151,460.593125L254.679348,459.616365L253.201263,460.568015L251.898748,459.982023L250.698738,458.668100L249.250219,459.253288L248.074068,457.909992L246.830166,457.115366L245.284239,458.237452L243.902371,458.274290L242.616542,457.746763L241.116449,458.402717L239.980447,457.094479L238.849489,455.840784L237.638446,455.045486L236.447607,454.193285L235.169345,453.772611L233.594740,454.646324L232.048706,455.324089L230.941379,454.155682L229.624411,453.865359L228.492762,452.863847L227.396072,451.770882L225.815358,452.466494L224.393297,452.547252L222.918233,452.784644L221.008350,454.434518L219.853793,453.533584L218.626423,452.887569L217.471228,452.031040L216.649467,450.194549L215.524449,449.313952L214.021583,449.535681L212.478639,449.838891L210.794869,450.492787L209.396136,450.335154L208.210674,449.605963L207.401040,447.925696L207.586047,443.804889L207.497093,440.506514L207.750630,436.500458L207.755849,433.220474L206.880210,432.082668L205.425867,432.278195L204.592235,431.070551L201.792621,434.163753L198.731865,437.676955L196.101014,440.138494L192.800958,443.862775L191.552770,443.291318L190.939703,441.460783L189.977311,440.353002L188.957031,439.372981L187.658475,438.927524L185.533537,439.999461L183.853338,440.206155L182.049108,440.604192L180.940851,439.746960L180.493022,437.758025L179.509831,436.718728L178.993648,434.912774L177.893009,434.100369L176.897975,433.121076L176.198794,431.681040L175.373742,430.460306L174.479371,429.361618L173.416366,428.529256L172.067229,428.125367L170.789083,427.606702L171.066337,424.838163L169.549579,424.677796L168.007814,424.533733L166.499294,424.324530L163.978698,425.469353L163.219629,424.203976L163.434315,421.671892L162.472675,420.714348L161.449647,419.839136L160.199854,419.250212L158.394834,419.341203L157.668386,418.089076L156.945995,416.843669L156.719561,415.022350L156.545944,413.167380L155.408351,412.449162L153.828103,412.227731L151.493871,412.828450L149.581825,412.921346L148.331646,412.267792L147.485951,411.174426L147.217818,409.477902L146.464339,408.306742L145.196563,407.667916L144.591876,406.352282L143.813142,405.219864L142.221808,404.887363L141.204385,403.983224L139.468012,403.759997L139.507399,401.852132L138.887441,400.579080L138.019837,399.539234L138.063345,397.684232L136.439654,397.325850L135.436448,396.408718L134.989777,395.011562L134.174009,393.937038L132.751446,393.368776L132.170801,392.096486L130.939806,391.356196L129.672894,390.635288L128.359652,389.940621L127.078515,389.209998L126.287842,388.095957L125.165349,387.231282L125.053607,385.614086L124.522543,384.317228L123.819392,383.149451L123.758944,381.530889L123.375032,380.152347L123.829147,378.209970L123.815816,376.607639L123.160913,375.445188L121.341528,375.042556L119.762084,374.463542L119.251046,373.193365L117.624159,372.619561L116.840444,371.512743L115.946599,370.470455L114.230602,369.909619L114.428039,368.217816L114.446137,366.645544L114.751158,364.925586L114.426835,363.571255L112.871801,362.890248L112.609145,361.503549L111.305820,360.668407L110.773238,359.424436L110.607208,357.996962L108.997145,357.293420L108.670121,355.947102L108.207244,354.670455L109.950175,352.362042L110.559269,350.616150L109.099514,349.823906L107.985606,348.862653L104.640272,348.858793L104.162733,347.587721L103.648504,346.332832L103.560236,344.904378L103.530113,343.459909L101.218061,342.915198L100.598061,341.692844L100.396475,340.311756L99.665664,339.128824L100.390782,337.421066L100.612127,335.908729L100.597737,334.487723L100.488028,333.105311L99.438001,332.033483L98.239422,330.998486L96.939132,329.982201L95.716135,328.928285L94.679042,327.806717L94.634691,326.391952L93.986935,325.149592L94.132386,323.689275L95.099866,322.021951L94.955011,320.657169L95.524612,319.119689L94.453041,317.986781L93.193566,316.885467L92.270068,315.694657L92.075404,314.337510L92.319249,312.890827L92.120847,311.540443L93.037336,309.976798L91.950677,308.800801L92.139461,307.386224L93.288192,305.815267L93.203650,304.464847L94.401679,302.918119L94.870423,301.499656L94.173985,300.253808L93.734038,298.966421L92.844266,297.731230L91.888407,296.493057L91.425599,295.188826L90.400021,293.937665L89.333192,292.677331L89.283718,291.313804L90.129002,289.879289L90.798260,288.471678L91.939736,287.044276L91.681902,285.716721L90.372458,284.440304L89.746383,283.115775L88.854985,281.792630L88.285484,280.447777L88.250665,279.083485L88.250816,277.718612L88.710985,276.350695L89.406176,274.989661L90.348797,273.640605L90.476159,272.293220L90.850819,270.952842L91.672563,269.630604L90.442379,268.244705L90.509149,266.897046L89.437122,265.491142L88.538093,264.078647L89.184215,262.753634L89.390860,261.404600L90.629108,260.140286L90.941850,258.811185L91.276606,257.487045L91.819853,256.187367L91.328438,254.779776L91.369324,253.425273L90.651084,251.974222L90.080621,250.529572L89.286223,249.042481L89.109780,247.631710L89.191149,246.255204L89.986114,244.992512L90.826556,243.746170L91.170601,242.421058L93.306726,241.428664L94.109294,240.208354L94.466384,238.907292L96.522046,237.960157L95.135252,236.299536L94.129355,234.698261L94.818457,233.467742L93.570058,231.781627L94.509786,230.609515L94.972217,229.325846L94.814829,227.882098L95.550171,226.670947L95.883960,225.354489L95.566162,223.851838L95.416762,222.387597L95.183437,220.889632L95.643292,219.595775L97.244603,218.664558L97.375590,217.274637L97.541135,215.891530L97.539947,214.447206L97.703839,213.053325L99.750307,212.327948L100.071984,210.997690L100.872101,209.844039L101.224342,208.524457L101.505071,207.174684L102.875978,206.256690L103.348087,204.986812L105.249096,204.311294L106.656003,203.449511L108.376069,202.738791L110.314693,202.145455L111.899756,201.417181L111.158293,199.637189L110.739820,197.985756L110.235263,196.275704L109.151240,194.264186L109.745526,193.054640L110.237041,191.793114L111.594246,190.974602L112.533698,189.951135L112.905645,188.631206L112.958524,187.133403L111.459387,184.768151L111.501600,183.226930L112.762719,182.369579L112.978938,180.916791L115.016248,180.530145L115.582102,179.286595L114.823739,177.232121L115.669787,176.143566L116.850995,175.268874L118.120658,174.460113L120.001276,174.060253L121.941856,173.723859L121.503101,171.813206L122.106227,170.588751L122.790965,169.417483L123.249605,168.085044L125.508986,168.034046L126.972080,167.437086L127.228735,165.965061L127.669113,164.618495L127.345196,162.682194L127.803642,161.323692L128.569227,160.197308L129.705342,159.364091L130.398469,158.179946L130.472798,156.484502L131.717279,155.743645L132.640147,154.740334L136.227474,156.022522L138.213314,155.980149L139.180241,155.066704L139.324593,153.418491L137.377029,149.848329L137.440641,148.057709L138.654641,147.320981L140.714861,147.396083L141.821714,146.583268L143.397924,146.234449L144.830142,145.760843L145.610511,144.644683L147.160800,144.310541L147.286100,142.515983L147.473894,140.761643L148.295715,139.660113L149.126832,138.563436L151.001616,138.609459L152.368446,138.116861L154.389455,138.377325L155.275977,137.367733L155.511817,135.594960L156.573838,134.773450L156.306105,132.355173L157.517886,131.694824L158.780102,131.102910L159.274095,129.553283L160.193296,128.524717L161.235956,127.650261L162.391212,126.922537L164.622747,127.634686L166.496427,127.908673L167.662150,127.241239L168.860924,126.623653L170.034190,125.974804L170.491731,124.297592L171.158531,122.897931L172.363220,122.278208L172.895487,120.646141L174.435183,120.532891L176.078968,120.602289L177.596337,120.497061L178.457568,119.353971L178.594480,117.009340L178.741250,114.626333L180.150661,114.325673L181.822922,114.491122L184.572192,116.572432L186.821043,117.856618L187.234868,115.881061L187.815879,114.167010L188.399651,112.419911L189.253581,111.149105L190.327232,110.282402L191.876607,110.348936L193.054013,109.690022L194.466369,109.511655L195.936217,109.469168L196.882425,108.329948L198.102210,107.763665L199.053700,106.602310L200.255713,105.983336L201.815768,106.187317L203.041299,105.634122L204.198940,104.916703L205.424588,104.357661L206.802954,104.178987L208.025500,103.615431L209.663433,104.134905L210.900387,103.626985L211.978103,102.681864L213.331330,102.485007L214.477963,101.708587L215.862689,101.614171L217.450912,102.147514L218.696006,101.672221L219.827937,100.836444L221.050223,100.270770L222.137400,99.246770L223.623130,99.549116L225.108460,99.887799L226.369145,99.455675L227.529499,98.646330L228.506257,97.106782L229.549085,95.753927L230.821086,95.268822L231.958775,94.208984L233.348146,94.191727L234.768077,94.331538L236.212646,94.616867L237.859068,95.917397L239.173344,95.675342L240.503333,95.516591L241.622632,94.224377L242.721922,92.729722L244.021020,92.301551L245.430647,92.536694L246.923024,93.350981L248.372807,93.979385L249.794612,94.495418L251.017394,93.584854L252.058663,91.131888L253.117024,88.535580L254.466263,88.256412L255.833721,88.136248L257.319122,89.258181L258.927095,91.985842L260.398997,93.543110L261.789847,94.326525L263.233286,96.106024L264.599687,97.035732L265.811478,95.229045L267.095606,94.492273L268.336244,92.290501L269.618110,90.422238L270.945763,89.425454L272.289238,88.544335L273.657713,89.379697L275.013909,89.262316L276.365566,89.992537Z" />
<line x1="50" y1="550" x2="100" y2="550" fill="none" stroke="black" stroke-width="1.0" stroke-linejoin="round" stroke-miterlimit="10" />
<text x="125" y="553" style="text-anchor:start;fill:black">GC-content</text>
</g>
<g style="fill:pink;stroke:black">
<a href="" title="AP018336:1 [-8000-18099];"><path  d="M268.279328,45.098211L272.292691,45.015934L276.306878,45.003713L280.320668,45.061551L284.332837,45.189430L288.342163,45.387312L287.181975,65.353632L287.181975,65.353632L283.521286,65.172958L279.858001,65.056198L276.193237,65.003390L272.528109,65.014549L268.863734,65.089671Z" />
</a><a href="" title="AP018336:2 [39500-68599];"><path  d="M308.072994,47.390297L312.040294,48.002166L315.996311,48.683181L319.939840,49.433135L323.869680,50.251798L327.784634,51.138922L331.683509,52.094236L326.754508,71.477346L326.754508,71.477346L323.194666,70.605102L319.620143,69.795120L316.032028,69.047645L312.431414,68.362905L308.819399,67.741108L305.197082,67.182445Z" />
</a><a href="" title="AP018336:3 [240500-263099];"><path  d="M452.058846,128.200256L454.593888,131.312717L457.074224,134.468947L459.499098,137.667984L461.867772,140.908853L445.618401,152.568953L445.618401,152.568953L443.455698,149.609898L441.241683,146.689038L438.977028,143.807263L436.662425,140.965451Z" />
</a><a href="" title="AP018336:4 [420000-467099];"><path  d="M504.846712,266.604240L504.958232,270.616897L504.999704,274.630889L504.971116,278.644994L504.872476,282.657988L504.703815,286.668650L504.465184,290.675757L504.156656,294.678089L503.778324,298.674427L503.330304,302.663554L483.475495,300.258027L483.475495,300.258027L483.884557,296.615781L484.229990,292.966951L484.511690,289.312648L484.729570,285.653984L484.883565,281.992076L484.973627,278.328038L484.999730,274.662986L484.961864,270.998037L484.860042,267.334306Z" />
</a><a href="" title="AP018336:5 [812500-833599];"><path  d="M314.701009,501.547633L310.741161,502.206007L306.770426,502.795171L302.790013,503.314947L298.801136,503.765176L296.731472,483.872552L296.731472,483.872552L300.373490,483.461474L304.007780,482.986895L307.633234,482.448962L311.248748,481.847839Z" />
</a><a href="" title="AP018336:6 [936000-958099];"><path  d="M211.953211,496.190195L208.102512,495.056189L204.272191,493.855151L200.463414,492.587448L196.677342,491.253465L203.488008,472.448816L203.488008,472.448816L206.944856,473.666800L210.422435,474.824268L213.919685,475.920868L217.435541,476.956265Z" />
</a><a href="" title="AP018336:7 [962500-990599];"><path  d="M190.869274,489.060788L187.146212,487.559902L183.449910,485.994268L179.781496,484.364363L176.142087,482.670684L172.532790,480.913746L181.442982,463.008203L181.442982,463.008203L184.738427,464.612364L188.061366,466.158766L191.410788,467.646940L194.785672,469.076432L198.184989,470.446806Z" />
</a><a href="" title="AP018336:8 [1390000-1411599];"><path  d="M60.181389,192.823577L61.648283,189.086991L63.180167,185.376576L64.776572,181.693460L66.437014,178.038766L84.572926,186.470178L84.572926,186.470178L83.056870,189.807072L81.599283,193.169917L80.200607,196.557688L78.861268,199.969353Z" />
</a></g>
<text x="275" y="280" style="text-anchor:middle" font-size="25" font-weight="bold">AP018336</text>
<path  style="fill:pink;stroke:black" d="M350,550L375,550L375,565L350,565Z" />
<text x="405" y="565" style="text-anchor:start;fill:black">Selected loci;</text>
</svg>