<svg xmlns="http://www.w3.org/2000/svg" viewbox="0 0 550 650">
<circle cx="275" cy="275" r="240" fill="none" stroke="black" stroke-width="1.0" />
<line x1="275" y1="15" x2="275" y2="55" fill="none" stroke="grey" stroke-width="1.0" stroke-linejoin="round" stroke-miterlimit="10" />
<line x1="495" y1="275" x2="535" y2="275" fill="none" stroke="grey" stroke-width="1.0" stroke-linejoin="round" stroke-miterlimit="10" />
<line x1="275" y1="495" x2="275" y2="535" fill="none" stroke="grey" stroke-width="1.0" stroke-linejoin="round" stroke-miterlimit="10" />
<line x1="15" y1="275" x2="55" y2="275" fill="none" stroke="grey" stroke-width="1.0" stroke-linejoin="round" stroke-miterlimit="10" />
<text x="275" y="10" style="text-anchor:middle" font-size="15">Methanothermococcus okinawensis IH1, complete genome.</text><text x="285" y="25" style="text-anchor:start">1,687,024</text><text x="525" y="265" style="text-anchor:start">0.42 Mbp</text><text x="285" y="530" style="text-anchor:start">0.84 Mbp</text><text x="-200" y="25" style="text-anchor:end" transform="rotate(-90)">1.26 Mbp</text><circle cx="362.333855" cy="51.454036" r="2.500000" fill="grey" stroke="black" stroke-width="1.0" />
<circle cx="437.692756" cy="98.560018" r="2.500000" fill="grey" stroke="black" stroke-width="1.0" />
<circle cx="490.743719" cy="169.858915" r="2.500000" fill="grey" stroke="black" stroke-width="1.0" />
<circle cx="514.212557" cy="255.574439" r="2.500000" fill="grey" stroke="black" stroke-width="1.0" />
<circle cx="504.881295" cy="343.953538" r="2.500000" fill="grey" stroke="black" stroke-width="1.0" />
<circle cx="464.029405" cy="422.877936" r="2.500000" fill="grey" stroke="black" stroke-width="1.0" />
<circle cx="397.258377" cy="481.525759" r="2.500000" fill="grey" stroke="black" stroke-width="1.0" />
<circle cx="313.723650" cy="511.855397" r="2.500000" fill="grey" stroke="black" stroke-width="1.0" />
<circle cx="224.879254" cy="509.708140" r="2.500000" fill="grey" stroke="black" stroke-width="1.0" />
<circle cx="142.907262" cy="475.378414" r="3.000000" fill="black" stroke="black" stroke-width="1.0" />
<circle cx="79.047427" cy="413.573407" r="2.500000" fill="grey" stroke="black" stroke-width="1.0" />
<circle cx="42.056014" cy="332.767634" r="2.500000" fill="grey" stroke="black" stroke-width="1.0" />
<circle cx="37.005175" cy="244.040939" r="2.500000" fill="grey" stroke="black" stroke-width="1.0" />
<circle cx="64.587466" cy="159.559256" r="2.500000" fill="grey" stroke="black" stroke-width="1.0" />
<circle cx="121.020885" cy="90.906458" r="2.500000" fill="grey" stroke="black" stroke-width="1.0" />
<circle cx="198.567454" cy="47.496009" r="2.500000" fill="grey" stroke="black" stroke-width="1.0" />

<circle cx="275" cy="275" r="185" fill="white" stroke="grey" stroke-width="0.5" />
<circle cx="275" cy="275" r="170" fill="none" stroke="black" stroke-width="0.5" />
<circle cx="275" cy="275" r="170" fill="aliceblue" stroke="black" stroke-width="0.5" />
<circle cx="275" cy="275" r="154" fill="white" stroke="none" stroke-width="0.5" />
<circle cx="275" cy="275" r="140" fill="none" stroke="black" stroke-width="0.5" />
<circle cx="275" cy="275" r="140" fill="aliceblue" stroke="black" stroke-width="0.5" />
<circle cx="275" cy="275" r="133" fill="white" stroke="none" stroke-width="0.5" />
<circle cx="275" cy="275" r="110" fill="none" stroke="black" stroke-width="0.5" />
<circle cx="275" cy="275" r="110" fill="white" stroke="black" stroke-width="0.5" />
<circle cx="275" cy="275" r="109" fill="aliceblue" stroke="none" stroke-width="0.5" />
<circle cx="275" cy="275" r="80" fill="none" stroke="black" stroke-width="0.5" />

<g style="fill:none;stroke-linejoin:round;stroke-miterlimit:10">
<path style="stroke:blue;stroke-width:1.0" d="M277.313091,119.726858L278.467456,119.845272L279.613487,120.197034L280.755677,120.524821L281.896750,120.782576L283.056058,120.631868L284.204669,120.713228L285.301319,121.565677L286.438148,121.724153L287.615942,121.370412L288.849888,120.465061L289.902528,121.582123L290.999127,122.134626L292.164095,122.019596L293.440614,121.003615L294.592249,121.105481L295.680668,121.680947L296.793420,122.040770L297.988433,121.832502L299.234139,121.339465L300.406942,121.349505L301.491810,121.883650L302.655142,121.954964L303.847241,121.884589L305.028839,121.890196L305.965702,123.112775L306.898957,124.279680L308.022898,124.511699L309.265432,124.222831L310.443524,124.244321L311.464078,124.929859L312.599100,125.133111L313.977278,124.401568L314.779437,125.890072L315.792356,126.542309L316.876419,126.923237L318.082605,126.880487L319.104972,127.472253L320.287622,127.528170L321.420475,127.756598L322.501687,128.150610L323.599827,128.491600L324.677792,128.892949L326.235569,127.915384L327.497172,127.831755L328.283414,129.071838L329.279848,129.711201L330.209667,130.514455L331.240740,131.041398L332.122548,131.937529L333.210912,132.307402L334.329720,132.606868L335.790767,132.107734L337.165027,131.847023L338.344361,132.055112L339.398869,132.549713L339.654025,134.777381L340.551120,135.572549L341.465938,136.319093L342.517669,136.775913L344.493737,135.377319L345.011763,136.924492L346.111927,137.307287L346.807274,138.465078L347.695598,139.240357L348.657863,139.871767L349.817822,140.143959L350.763924,140.804782L352.023768,140.916140L353.098330,141.360225L354.219889,141.729877L355.106873,142.494893L355.927791,143.361803L356.720683,144.264875L357.655609,144.934849L358.794986,145.286579L359.635452,146.102306L360.663038,146.631707L361.445984,147.525311L362.555210,147.937527L363.612846,148.430965L364.150785,149.660260L365.227801,150.125928L366.181214,150.766384L367.100803,151.453404L367.842502,152.375348L368.762580,153.058282L369.640684,153.795440L370.601668,154.427099L371.918477,154.619218L373.662474,154.304666L374.505244,155.107420L375.187907,156.098349L375.679736,157.305077L376.581875,158.025753L377.323764,158.929274L377.968340,159.937358L378.560384,160.996151L379.499808,161.669735L380.169371,162.634732L380.992860,163.432364L382.855716,163.151918L383.908024,163.731429L383.829884,165.455614L384.534800,166.376439L385.132520,167.398916L385.881780,168.269592L387.049109,168.742495L388.547226,168.916988L388.688944,170.359677L388.982831,171.646837L389.736417,172.510443L390.505054,173.360541L391.239365,174.240698L392.042199,175.061922L392.780152,175.939219L393.604701,176.744780L394.399511,177.576934L395.165866,178.433669L395.953448,179.274758L396.590606,180.234890L397.378624,181.077595L398.101576,181.971562L398.912027,182.801127L399.818869,183.562942L399.919602,184.911270L400.630082,185.813814L401.183073,186.827441L401.882982,187.737725L402.886038,188.443928L403.655734,189.313334L403.825601,190.578645L404.337046,191.613958L404.960242,192.576084L405.623533,193.513389L406.865593,194.096769L407.221027,195.228181L407.736309,196.259918L408.242669,197.295423L408.399043,198.530109L408.902866,199.560865L410.398034,200.041658L411.645698,200.675309L410.885746,202.395045L411.619612,203.305956L412.686254,204.049183L414.189609,204.581614L414.629909,205.660270L415.013905,206.764950L415.986691,207.585803L416.255176,208.745616L416.006463,210.139241L415.771220,211.513581L415.549821,212.869106L416.367549,213.762315L417.064960,214.712980L418.346518,215.425240L417.600763,216.977032L418.354583,217.911187L419.244560,218.797961L421.849176,219.039417L421.472156,220.429064L421.222080,221.759196L421.367241,222.937833L421.892505,223.980378L421.103221,225.470979L421.052386,226.698125L421.556558,227.739510L422.653787,228.597018L422.092918,229.974377L423.156722,230.853021L423.768209,231.874706L424.882649,232.759333L424.238106,234.138433L423.969353,235.402448L424.059407,236.564953L424.263727,237.695782L424.395103,238.843101L424.831140,239.916908L425.840985,240.863603L427.366286,241.709509L429.706270,242.403701L430.310580,243.482745L429.339204,244.875073L427.243282,246.459721L426.636425,247.741087L426.683158,248.897523L426.775308,250.044226L427.259959,251.127957L427.456067,252.259410L427.903478,253.355697L428.816069,254.394015L429.495543,255.473309L430.297431,256.546139L430.506672,257.694958L429.214124,259.000795L428.939089,260.187465L428.648468,261.369723L429.441207,262.458115L429.654432,263.599713L429.788822,264.748454L430.381844,265.871118L430.133852,267.044758L430.208575,268.199669L429.895275,269.369045L429.333492,270.540302L429.134197,271.694915L429.359525,272.840249L430.370898,273.983558L429.442093,275.140063L429.566637,276.291548L429.302480,277.438888L428.945150,278.580396L428.899521,279.726547L428.814505,280.871040L428.911257,282.023211L429.178889,283.186682L429.731889,284.372346L430.563723,285.586299L430.442992,286.741927L430.664141,287.925443L430.448740,289.074197L429.742096,290.173121L428.907051,291.249561L428.280274,292.338803L428.029402,293.465897L428.106212,294.633298L427.792023,295.750974L427.707113,296.899108L427.503513,298.030508L427.446294,299.184641L427.966225,300.436627L427.754968,301.572280L426.661867,302.547552L426.024482,303.595447L426.762769,304.907896L429.104736,306.563685L429.470258,307.839299L429.055812,308.952516L428.215272,309.965969L427.424159,310.981998L426.715807,312.009988L426.511414,313.158071L426.573751,314.376711L425.930598,315.412111L424.812293,316.311024L423.798760,317.226676L422.701087,318.106519L422.292112,319.180382L422.575413,320.466231L422.716456,321.717234L421.770731,322.623622L421.148571,323.627938L420.689611,324.683607L420.839028,325.950341L420.557898,327.071894L419.491237,327.907607L419.040362,328.962651L418.890274,330.132113L418.515404,331.217975L418.234039,332.342025L417.529279,333.295423L417.962682,334.719560L416.782475,335.470853L416.561880,336.627049L416.363041,337.797137L415.444639,338.645934L415.186540,339.791934L413.989490,340.499508L413.858989,341.706530L413.605243,342.859932L412.789385,343.737567L412.106695,344.677226L411.625914,345.718325L411.242465,346.811596L410.813623,347.883390L409.984415,348.738664L409.589768,349.830132L408.911969,350.764573L408.310084,351.740484L408.082891,352.935220L407.598673,353.983925L406.474530,354.647066L405.940027,355.662631L406.119823,357.126961L405.437050,358.058452L404.107571,358.569995L403.517896,359.553317L403.395561,360.849978L402.223670,361.444646L401.991564,362.676657L402.710755,364.585236L402.818883,366.089166L401.666738,366.698413L400.293879,367.134708L398.838506,367.493614L397.953159,368.267130L396.892725,368.901293L396.175444,369.795335L395.692065,370.874915L395.102329,371.874315L394.262616,372.672236L393.423599,373.467944L392.752332,374.402601L391.958089,375.233633L391.647548,376.484258L391.060749,377.502557L390.974473,378.974276L389.386739,379.098083L387.973086,379.360574L387.626894,380.606417L387.185096,381.773600L385.674061,381.917872L384.845562,382.710834L384.515242,383.998861L383.888756,385.001977L383.155944,385.901876L382.557006,386.943960L381.618892,387.635021L380.818614,388.470762L380.091760,389.387862L378.687807,389.560935L377.614543,390.086673L376.900927,391.014606L376.298251,392.075910L375.262309,392.638237L374.227801,393.196618L373.035536,393.558665L372.264040,394.426013L371.696025,395.551454L370.977694,396.499167L371.624673,399.209199L370.721965,399.958357L368.604833,399.098598L367.145189,399.075153L365.849650,399.253712L364.811551,399.774103L364.174448,400.855694L363.358163,401.693753L363.035761,403.257142L361.787580,403.479465L360.562607,403.722858L359.780797,404.630914L358.336111,404.517894L357.283595,405.000043L356.340610,405.653741L355.331021,406.200274L354.638994,407.272481L353.676863,407.904838L352.445608,408.076355L351.529526,408.784709L350.853200,409.924393L350.026431,410.812142L348.660052,410.717450L348.706463,413.249420L349.268183,416.837988L348.511351,417.974134L345.669434,415.001534L343.570334,413.396146L342.697902,414.232861L342.083610,415.623539L340.798462,415.615379L339.594618,415.764676L338.223491,415.528844L337.094498,415.813393L336.174097,416.573352L335.065653,416.901778L333.894681,417.074322L332.902279,417.675424L331.897784,418.253500L331.075992,419.308595L330.114828,420.025718L328.876136,420.009930L327.756580,420.302791L326.566075,420.390849L325.472757,420.745207L324.353176,421.020795L323.228858,421.277378L322.094245,421.496664L321.481278,423.374212L321.110171,426.126564L320.351141,427.704807L318.311047,424.918336L316.978791,424.473566L315.812249,424.591573L314.399402,423.768316L313.285092,424.037906L312.247996,424.616651L311.252157,425.386319L310.031843,425.227147L308.875847,425.324097L307.781228,425.692013L306.663199,425.957524L305.609592,426.544258L304.563428,427.197949L303.688250,428.804266L302.945027,431.268526L301.802096,431.600027L300.538527,431.206016L299.114874,429.727524L297.777315,428.659138L296.510247,427.957964L295.376750,428.162421L294.209626,428.105220L293.048455,428.072799L291.950343,428.588934L290.769565,428.358314L289.589617,428.081413L288.461559,428.329532L287.319606,428.432241L286.177269,428.531923L285.042627,428.753181L283.911068,429.065634L282.767376,429.210211L281.604974,428.948894L280.461896,429.102028L279.309968,428.998896L278.190326,430.369868L277.038243,430.795984L275.881792,431.533545L274.719033,429.746928L273.573445,428.976513L272.428064,428.870946L271.273475,429.199711L270.127141,429.099322L268.966022,429.401755L267.824831,429.164622L266.707513,428.536262L265.546685,428.753277L264.372368,429.103539L263.236619,428.865264L262.076212,428.947600L260.989120,428.198988L259.855572,428.017553L258.715883,427.903468L257.504395,428.418038L256.377066,428.160416L255.261270,427.827412L254.121277,427.691976L252.999553,427.427848L251.833069,427.468330L250.717259,427.170913L249.622800,426.756454L248.437658,426.880259L247.036116,428.162262L245.768464,428.620064L244.968559,426.663014L243.978149,425.762211L242.819729,425.696885L241.665082,425.602242L240.662932,424.831690L239.537246,424.616387L238.269772,424.976895L237.117729,424.841211L235.899514,424.950394L234.905510,424.201522L233.872262,423.620453L232.767410,423.306301L231.767395,422.634123L230.636286,422.416376L229.444521,422.388949L228.395702,421.894915L227.244950,421.721458L226.216850,421.171494L225.064151,420.994845L224.019750,420.499833L222.430476,421.528939L221.464445,420.795680L220.861112,419.112010L219.776637,418.737330L218.504210,418.839586L217.580809,418.049892L216.580949,417.461921L215.130203,417.956927L214.158457,417.293135L213.211735,416.580505L212.385413,415.607556L211.333095,415.152006L210.159295,414.957950L208.653385,415.455900L208.099915,413.938274L207.183846,413.197680L206.211607,412.578135L205.183171,412.072838L203.755510,412.336585L202.478331,412.287028L201.467169,411.725458L200.622302,410.860614L200.139729,409.356341L199.205315,408.681590L198.140078,408.237383L196.933126,408.030323L195.868305,407.572582L194.365667,407.831686L192.425053,408.771918L191.979059,407.279738L191.086236,406.516304L190.262532,405.650772L190.121116,403.757761L189.211882,403.051048L188.163773,402.550468L186.890651,402.370557L185.886286,401.793320L184.686831,401.486614L183.821146,400.708388L182.805504,400.136755L182.434680,398.699884L181.510741,398.013659L180.806654,397.042271L180.039699,396.159277L179.101315,395.496992L178.280360,394.687825L177.059469,394.368757L175.663624,394.247427L174.936126,393.317371L174.157740,392.452083L173.596242,391.341344L172.924072,390.366218L172.123961,389.539890L171.270696,388.773635L170.121530,388.326927L169.373710,387.443122L168.726184,386.456984L168.025997,385.530976L167.187885,384.749163L166.025206,384.292239L165.477474,383.217280L164.460783,382.606445L163.377375,382.053353L162.363805,381.426095L162.301586,379.907029L161.665611,378.934133L160.672709,378.287489L159.488144,377.805375L158.150418,377.446363L157.237131,376.705644L157.695966,374.793576L156.983985,373.893487L156.042422,373.183512L155.393279,372.230558L154.506849,371.469441L153.846689,370.525813L153.490482,369.347420L152.563325,368.613845L151.951569,367.637395L150.521789,367.269130L148.870382,367.045462L148.568561,365.830181L148.185530,364.680795L148.703882,362.910357L148.100781,361.934134L147.374083,361.042211L146.616904,360.168650L146.065517,359.158130L145.403585,358.220201L144.903367,357.179236L144.224234,356.251766L142.556447,355.926866L142.773956,354.447404L142.630956,353.197325L141.822619,352.342471L140.977351,351.504072L140.426177,350.495248L140.081866,349.372612L138.798012,348.762876L137.468228,348.163425L138.148983,346.498555L137.723169,345.424377L137.345902,344.327609L136.998929,343.218463L136.570513,342.151813L136.070807,341.120415L135.651614,340.051299L134.851702,339.157657L133.912392,338.320774L133.005196,337.461395L133.020991,336.196327L133.099933,334.912929L132.702818,333.835587L132.211406,332.797131L131.657695,331.782298L131.398129,330.651219L130.668661,329.700886L130.073065,328.695468L130.044167,327.481561L129.585660,326.425685L129.485506,325.244809L127.898630,324.569492L126.833369,323.702520L128.110967,322.073141L128.082558,320.878342L127.809663,319.763018L127.389836,318.692171L126.997592,317.611854L126.555294,316.544338L126.581276,315.347386L126.309769,314.234156L125.267981,313.318382L125.562119,312.059303L124.943417,311.028413L124.488862,309.953882L123.439708,309.009729L124.014663,307.701363L124.481467,306.428346L124.127949,305.331143L123.538209,304.277624L123.140100,303.182797L122.755025,302.082752L122.538531,300.951194L122.036508,299.865697L122.163534,298.677900L122.801744,297.419433L122.602895,296.290161L122.484443,295.149656L122.279161,294.020444L122.079360,292.889629L122.113680,291.732186L121.580489,290.634975L121.375778,289.500486L121.016709,288.377955L121.115258,287.215204L121.233720,286.053863L121.475850,284.887564L121.211920,283.754798L121.206124,282.606296L121.180333,281.459392L120.889683,280.321969L120.892304,279.172860L120.138103,278.039106L119.462637,276.893491L120.737586,275.728807L120.683975,274.579578L120.624493,273.429445L120.643174,272.279628L121.192139,271.143086L120.544969,269.975387L120.505002,268.821760L119.784305,267.634547L121.282999,266.557646L121.549283,265.425302L121.556109,264.277745L121.495769,263.123897L120.316121,261.872830L120.818727,260.757988L120.746864,259.591719L120.679757,258.423154L121.493909,257.353025L121.006209,256.133707L122.111297,255.112081L122.270179,253.974695L122.304205,252.819206L122.224877,251.644392L122.570423,250.533912L123.165341,249.467862L122.366212,248.162900L119.727522,246.505006L119.340231,245.233735L118.418270,243.846682L118.181799,242.583457L121.503677,242.076049L124.091867,241.453488L124.552713,240.377924L124.992050,239.300425L125.454292,238.231288L124.969148,236.924695L125.357944,235.834646L125.201728,234.599151L125.326156,233.434287L125.624276,232.316083L126.108360,231.252200L127.188049,230.370710L127.253411,229.186846L127.260134,227.979814L127.292867,226.775638L127.154413,225.508774L127.795331,224.500875L126.920460,222.964735L128.341291,222.233438L130.141266,221.659047L130.402636,220.528778L130.147847,219.197208L130.287278,218.009418L131.889376,217.405369L132.562590,216.439737L132.832925,215.309077L133.504974,214.347559L133.826621,213.236624L134.425940,212.247187L134.761417,211.139960L135.135776,210.048268L135.605062,208.999539L136.246666,208.033569L136.574688,206.915986L136.314663,205.500401L137.426501,204.770636L138.253224,203.903692L138.951581,202.974413L139.461217,201.946503L139.540076,200.681588L140.199772,199.731793L140.252720,198.439191L141.345714,197.737619L141.568355,196.534515L142.622527,195.821516L142.820391,194.597031L143.419749,193.612699L144.716314,193.066688L145.121641,191.965150L144.189829,189.990169L143.112466,187.885885L144.517114,187.410762L145.809413,186.875257L146.864336,186.189109L147.442216,185.175710L148.725762,184.665102L149.742667,183.974477L150.513561,183.109974L151.486132,182.398661L152.066982,181.395663L152.900887,180.585602L153.935144,179.935974L154.384368,178.827728L154.938915,177.798240L155.468563,176.744105L155.732177,175.462897L156.657527,174.730289L157.788246,174.178899L158.800865,173.534227L159.621744,172.726335L159.153013,170.759609L158.812706,168.876610L160.431196,168.778785L161.032966,167.747058L163.358216,168.356116L164.454257,167.816976L165.016614,166.761221L165.697025,165.816237L166.276515,164.764974L166.334744,163.169968L167.632536,162.846015L168.660697,162.250583L168.895244,160.807000L169.894993,160.179541L170.937951,159.604718L172.390312,159.496832L173.603199,159.135300L174.523884,158.446828L175.474735,157.795713L176.367599,157.078039L177.009854,156.056691L177.685180,155.067118L178.486278,154.226747L178.512308,152.397769L180.362238,152.887630L181.637341,152.661598L182.412327,151.784743L183.493081,151.315277L184.147211,150.266809L184.565316,148.877352L185.845425,148.686301L186.588917,147.738023L188.098026,147.900152L188.897169,147.033426L189.827282,146.357147L190.849555,145.820968L191.124837,144.122194L190.534243,141.014096L193.174192,143.032924L194.726770,143.357441L195.806471,142.924760L196.476539,141.802629L197.824817,141.832159L198.854451,141.323415L199.834047,140.727345L200.660177,139.850989L201.647323,139.261008L202.667152,138.731019L203.773856,138.368003L204.592271,137.447974L205.552396,136.795156L206.650857,136.417696L207.720950,135.986662L208.837994,135.657224L209.956165,135.336613L210.884332,134.606459L212.012824,134.313588L213.154355,134.057617L214.145251,133.459750L214.949383,132.412361L215.851994,131.578239L216.909395,131.110536L217.609200,129.736178L218.710302,129.357926L220.152580,129.884221L221.296454,129.645934L222.323189,129.090773L223.322544,128.450193L224.411311,128.056886L225.514540,127.705808L226.693017,127.585244L228.088072,128.154978L229.123172,127.616810L230.271355,127.441108L230.978488,125.779049L231.765740,124.320921L232.527104,122.704282L234.345747,124.913795L235.829772,126.003301L236.939442,125.710726L238.004537,125.237122L238.779176,123.535836L239.796017,122.784303L241.200934,123.735199L242.468811,124.137818L243.645651,124.150823L244.799431,124.067737L245.862008,123.521947L246.949642,123.084350L248.057889,122.743339L249.041105,121.650987L250.180516,121.439783L251.236470,120.684020L252.419349,120.735069L253.535918,120.332338L254.725682,120.459421L255.861014,120.180291L257.022465,120.108396L258.226580,120.438262L259.367043,120.205748L260.264506,117.354845L260.221337,103.082551L255.924463,31.889573L256.683590,16.928015L262.967421,85.485169L266.124248,116.549758L267.489883,120.301467L268.619608,119.694905L269.690739,117.097598L270.873372,117.303451L272.067959,118.336492L273.251112,119.750048L274.408510,119.984687L275.565108,119.459385L276.716633,120.103670Z" />
<line x1="50" y1="575" x2="100" y2="575" fill="none" stroke="blue" stroke-width="1.0" stroke-linejoin="round" stroke-miterlimit="10" />
<text x="125" y="578" style="text-anchor:start;fill:black">n1_4mer:GRV/n1_4mer:RV</text>
<path style="stroke:green;stroke-width:1.0" d="M276.438837,178.413778L277.089140,181.519379L277.862434,178.952610L278.457509,182.204798L279.015238,185.215727L279.954806,180.057272L280.632710,180.585665L281.120289,183.840568L281.916149,182.320782L283.160752,175.623121L284.212135,172.212401L284.135655,180.950666L284.866361,180.730797L285.178870,184.277613L286.069899,182.555982L286.703934,183.067144L287.508988,182.262853L287.878876,184.608360L288.117619,187.599836L289.212646,184.882386L290.732207,179.858234L291.727548,178.318758L292.629807,177.435706L294.000281,174.150292L295.025447,172.895076L294.612363,178.801070L294.209424,184.236830L295.323244,182.385156L295.963996,182.752747L297.358419,179.900580L297.592502,182.019178L297.936367,183.577546L299.573596,180.053784L299.423094,183.452053L300.131653,183.537101L301.494945,181.312769L303.814156,175.935917L303.153456,180.828850L303.132792,183.390104L303.625813,184.200365L303.958935,185.474718L303.713379,188.441025L304.134699,189.312114L304.972824,188.955455L307.831270,182.962274L307.250278,186.675633L308.884511,184.302623L308.659079,186.913063L308.459217,189.354931L309.255535,189.207584L309.554503,190.296435L311.122939,188.303848L313.632726,184.191510L314.332021,184.426631L314.352938,186.194914L314.473604,187.684395L312.493175,193.684241L313.763130,192.550694L314.587857,192.400099L315.473529,192.141442L320.597397,183.388423L317.431917,191.316798L318.708521,190.367997L317.806024,193.608284L317.107192,196.364462L318.980881,194.315352L321.741821,190.749794L320.537005,194.343561L322.936086,191.552311L324.713765,189.931134L326.838666,187.792792L325.942193,190.736309L325.792260,192.380649L324.111053,196.433112L325.261718,195.909204L327.117520,194.322836L326.264603,196.925281L326.267692,198.174029L327.031412,198.273612L327.484488,198.833102L327.431980,200.109446L326.783259,202.196376L330.723102,197.879971L330.421638,199.488498L332.654006,197.661302L329.206623,203.404899L329.398008,204.253370L329.648518,205.012662L331.484117,203.762185L333.626864,202.180575L342.432822,192.508383L342.584504,193.568306L342.245289,195.194201L339.520455,199.575388L335.576610,205.244412L336.693924,205.017639L336.050432,206.778797L340.017270,203.426115L341.078598,203.337619L336.866790,208.900161L339.475925,207.132914L341.646544,205.886481L342.688360,205.844517L337.694338,211.894054L338.531741,211.996791L338.003721,213.444443L340.766242,211.696022L343.576880,209.967727L347.405573,207.354127L346.839104,208.878645L345.413858,211.152709L349.402009,208.539593L350.962463,208.156313L350.822037,209.275488L348.072000,212.606476L346.299167,215.032756L346.399829,215.850524L345.523715,217.456745L347.222835,216.961104L347.605991,217.538008L349.675308,216.799667L352.257108,215.707183L354.417094,214.984130L355.861400,214.833686L356.983081,214.942640L351.093796,220.123156L350.677276,221.275864L349.441474,222.982760L351.313474,222.516308L356.127900,220.090860L357.567944,220.008500L356.994374,221.267852L353.893789,224.135681L357.045677,222.964655L356.603642,224.093367L360.557938,222.507811L355.381425,226.504140L360.040996,224.553103L360.180619,225.324292L352.185150,230.754255L352.808258,231.163838L354.838892,230.800016L363.735966,226.734498L355.609729,231.929509L356.487481,232.237713L360.862933,230.754150L369.331771,227.275956L368.230283,228.702164L368.418094,229.473177L367.801238,230.626159L367.775273,231.484649L367.515331,232.444401L361.552435,235.965714L358.791866,237.959301L364.347535,236.296378L363.012020,237.651013L364.719817,237.712477L360.248097,240.313316L364.000199,239.557005L369.333161,238.244950L375.974872,236.520978L379.024205,236.243841L372.637586,239.449257L369.354175,241.438646L367.377765,242.914778L358.936334,246.545566L362.604562,246.027761L365.610370,245.780629L367.673787,245.875518L359.664611,249.083886L365.182596,248.127853L368.623249,247.860262L372.275313,247.585392L372.468533,248.313003L367.695106,250.360709L367.069077,251.259940L367.430900,251.899529L363.304065,253.628475L362.452784,254.522854L363.759285,254.913137L364.985022,255.339184L371.984897,254.565478L371.107181,255.496921L369.272374,256.599307L365.581463,258.019151L362.120069,259.338866L364.880291,259.532903L363.721344,260.411924L366.081086,260.719872L366.023475,261.422794L370.562629,261.472600L379.670168,260.977851L384.391605,261.173995L388.633638,261.497012L385.738184,262.676870L376.640242,264.455161L372.072178,265.659390L366.593483,266.874670L365.157150,267.678505L370.924276,267.928982L372.075892,268.570738L371.314869,269.341379L373.499428,269.948963L375.328243,270.604204L371.966761,271.474938L368.104252,272.309613L365.652192,273.056153L366.003491,273.726707L372.415351,274.362705L371.553940,275.087564L372.968174,275.818615L371.095214,276.518870L368.860906,277.182980L368.940799,277.885101L366.401195,278.488748L364.703344,279.093304L368.333817,279.955894L369.306267,280.712274L367.825329,281.316876L367.317356,281.973512L366.094119,282.563925L364.208416,283.076854L365.146198,283.839219L364.731819,284.473917L365.469790,285.233788L367.689812,286.184782L368.873679,287.037721L370.577745,287.980594L368.458562,288.402514L368.997531,289.195154L369.958357,290.064543L366.720392,290.252108L367.027462,291.008510L367.273383,291.760349L371.083992,293.192843L374.642136,294.636480L382.851051,297.090019L383.410443,298.047304L381.012346,298.364168L381.400767,299.282213L378.612250,299.459218L377.283668,299.951371L377.632351,300.847904L377.453600,301.615993L376.820940,302.262856L375.923454,302.829834L371.328651,302.336509L363.575866,300.850840L362.701928,301.306261L362.840187,302.062518L365.450012,303.605983L361.618242,303.105565L362.967630,304.269423L364.048249,305.367561L369.712124,308.088640L366.769211,307.829525L363.194175,307.293604L362.476495,307.771811L360.392725,307.718551L358.466699,307.695645L360.777203,309.339872L362.395744,310.745441L366.796485,313.345991L361.976036,312.095664L363.134950,313.368358L360.141783,312.822193L360.256795,313.636209L360.422874,314.481060L353.737964,312.105668L363.197903,317.369429L363.593624,318.374674L356.567931,315.690951L356.132362,316.231232L353.198243,315.475841L357.793067,318.639127L358.120551,319.606038L355.011293,318.708200L354.998880,319.478320L353.966185,319.677405L355.786821,321.505257L357.480695,323.301859L358.801560,324.917363L351.663236,321.442470L350.411766,321.455707L355.324332,325.311182L353.378357,324.909017L350.422350,323.820107L353.512582,326.654279L354.461223,328.130686L353.864282,328.585901L357.390446,331.883455L359.609102,334.350729L359.769880,335.410618L357.393277,334.647331L357.002066,335.300123L361.004283,339.235650L357.727214,337.753409L352.632676,334.805117L349.968872,333.648016L348.541020,333.419242L348.244262,334.078685L345.126761,332.431555L345.516194,333.633454L344.135393,333.361799L342.955053,333.237800L346.272358,337.007496L349.562825,340.852412L352.249606,344.256377L348.325724,341.730352L343.658233,338.424067L343.967319,339.668315L345.851719,342.434029L342.647173,340.351282L339.385718,338.134452L342.527786,342.209382L344.340216,345.049113L344.335387,346.095718L344.223544,347.046982L340.350880,344.038400L339.163889,343.803825L338.603104,344.229244L338.809220,345.500516L338.522453,346.243194L336.124643,344.590646L335.298206,344.689923L334.861024,345.235220L334.253335,345.580460L332.729502,344.814813L333.379782,346.681832L333.989259,348.542226L332.800740,348.170561L336.598338,354.183505L336.717364,355.567720L332.832796,351.673060L330.057404,349.135784L329.037127,348.905773L328.163894,348.859956L329.872276,352.443579L328.760647,352.085556L329.923163,355.016209L327.077315,352.094737L326.389843,352.312365L326.477954,353.710445L324.193375,351.454520L323.771855,352.054766L322.719758,351.650088L324.166326,355.300677L323.945723,356.293998L322.091477,354.549246L318.811834,350.282762L320.082117,353.810078L322.596869,359.663252L321.075856,358.406081L320.875433,359.524740L327.033046,372.597119L330.172443,380.368785L329.044257,380.112079L322.005300,368.121081L318.522091,362.841043L315.851015,359.017430L316.184000,361.331668L315.596234,361.756660L313.374025,358.624725L312.834659,359.096289L311.662946,358.141568L312.729540,362.316326L311.528847,361.297378L310.031260,359.507505L309.980745,361.195098L308.666968,359.764478L308.678800,361.670608L308.213878,362.396926L307.861180,363.447274L306.886238,362.821450L305.956924,362.283227L305.619397,363.416615L303.979231,360.740589L302.817854,359.371120L303.452054,363.506166L304.429367,368.942320L304.524855,371.768019L304.494226,374.311945L304.235340,376.196205L303.591086,376.804065L302.135482,374.461302L299.413173,367.181769L297.960586,364.381988L298.534321,369.531966L297.506367,368.364093L297.255157,370.436850L296.034629,368.341184L295.093133,367.366115L293.993619,365.554013L293.379813,365.996154L292.631868,365.772094L294.016614,376.952415L293.288427,377.268843L293.184885,381.251149L292.352738,381.137765L291.388340,380.152002L290.265749,377.984998L288.554812,371.387386L287.562272,369.424671L286.933446,370.112358L286.073235,368.914468L285.573653,370.809042L284.866731,370.953517L283.441327,363.570547L282.870393,364.645171L282.276006,365.617661L281.578044,365.356578L280.824739,364.177083L280.712482,373.764492L279.939480,373.066361L278.976858,367.692700L278.213872,365.676234L277.518166,364.976246L277.056983,375.175702L276.380648,380.531763L275.620735,385.191397L274.823100,372.430163L274.108792,371.193300L273.410172,370.114489L272.818489,365.268643L271.883440,373.558110L271.172875,372.931208L270.347049,374.972611L269.862912,370.113727L269.267141,368.241974L268.630691,367.356703L267.781482,369.418364L267.194456,367.979296L266.726273,365.467311L266.066171,365.266375L265.177045,367.234899L264.396342,367.982921L263.945654,365.914151L263.322688,365.411767L262.782829,364.347608L262.506090,361.562774L261.074358,366.648713L260.737990,364.374714L260.201605,363.494872L258.592600,368.815526L256.347269,377.163724L255.373993,378.140271L256.388607,368.990159L257.392029,360.572477L255.443531,366.580926L254.460185,367.795856L254.869237,362.841695L254.042100,363.420807L252.528751,366.754618L252.763009,362.957180L252.363172,361.812253L251.745027,361.537512L251.378337,360.359963L248.518358,367.994400L249.176123,363.185419L248.456832,363.200408L247.390842,364.325913L247.249771,362.467631L246.850299,361.486458L245.405858,363.674469L243.550545,366.947137L243.494382,364.918394L240.304243,371.708742L239.789185,370.891129L241.444709,364.320646L242.083691,360.675738L242.291336,358.277014L241.531114,358.381888L241.782923,356.003860L238.515441,362.117724L237.186912,363.435344L236.362556,363.533137L238.058101,357.956870L237.947566,356.564717L235.710393,359.806185L231.716610,366.631013L233.951920,360.248761L234.097750,358.351764L233.625943,357.748924L231.743414,359.926559L227.606732,366.359059L225.344405,369.000442L225.390309,367.243255L226.701438,363.223655L229.227929,357.149957L229.610984,355.054107L228.528673,355.558473L229.223551,353.005632L229.667584,350.947260L227.636344,353.023765L223.520628,358.396898L222.115289,359.262786L219.633650,361.774534L218.582086,361.986833L221.917261,355.524323L224.252675,350.747647L224.434449,349.273836L221.191876,352.784830L220.334841,352.779016L218.708573,353.838026L220.635025,349.953051L219.767362,349.967958L221.169098,346.937053L218.752858,349.010285L219.077158,347.456823L219.058387,346.375567L217.372649,347.408944L216.640487,347.218250L212.578218,351.078927L209.827396,353.235845L209.326890,352.653097L209.623384,351.144859L208.081402,351.776244L213.176137,344.873333L213.871604,343.058995L213.511055,342.443051L212.132137,342.932167L212.516112,341.516427L213.240764,339.771347L214.322481,337.695096L211.388614,339.754284L210.641120,339.546358L212.359194,336.894277L211.059561,337.244002L207.224477,340.001132L207.138729,339.119798L209.558931,335.916812L206.938247,337.416530L203.775320,339.347001L198.840755,342.781612L196.228699,344.061722L198.639236,340.948807L203.653565,335.696258L203.269284,335.107949L206.060413,331.900375L206.905160,330.355579L205.901159,330.322037L204.448631,330.627674L204.440005,329.787094L203.324047,329.802710L203.216401,329.042506L197.532232,332.422769L193.022410,334.824689L192.526732,334.249993L192.782142,333.142914L197.107582,329.218217L197.046103,328.403438L199.510705,325.893000L198.188663,325.956224L193.749872,328.033593L199.274352,323.627145L197.101929,324.206531L197.642483,323.062688L190.879044,326.400352L194.839874,323.163839L197.468125,320.802138L195.895794,320.939594L195.936333,320.131868L196.276723,319.163368L195.475923,318.837052L188.650665,321.764188L181.827051,324.565653L187.430549,320.751134L188.880970,319.179917L194.397542,315.594328L193.377269,315.348797L192.391007,315.073425L191.551755,314.715430L192.441573,313.540331L189.266365,314.247491L186.193778,314.856645L186.312237,314.012423L183.976673,314.233217L193.517409,309.403512L191.969236,309.330713L193.571412,307.960187L192.856883,307.539416L192.384462,307.016681L191.320771,306.714027L189.000249,306.862930L190.558707,305.572146L187.141927,306.070949L183.554847,306.575166L176.837269,308.078392L178.303533,306.784225L187.543913,303.026821L191.138756,301.187597L186.934712,301.782112L188.850780,300.499914L188.828352,299.809959L184.070586,300.447875L185.935504,299.212037L184.798136,298.801120L179.770826,299.370391L187.801686,296.624428L185.942955,296.382494L184.170958,296.093639L180.524783,296.199989L184.412602,294.619994L189.416026,292.869977L186.354063,292.821277L186.514799,292.104224L186.242019,291.472078L184.721853,291.059516L182.474584,290.749193L178.709078,290.653022L182.309666,289.359875L184.257995,288.366673L182.297483,287.950715L181.505146,287.352111L185.094585,286.197168L183.106458,285.750291L180.193450,285.375820L174.507471,285.241189L176.123307,284.332904L172.641348,283.892844L172.505147,283.135930L177.344849,282.020178L183.794235,280.874013L185.249821,280.109269L184.755164,279.463305L183.428232,278.845399L183.045790,278.175501L183.393991,277.480467L184.627893,276.773519L184.226301,276.105067L186.510224,275.418067L183.034275,274.749447L182.278376,274.056687L182.021676,273.361358L183.844425,272.714166L182.331191,271.985369L174.990512,271.000630L173.465454,270.181879L181.572400,269.868825L183.246736,269.274971L184.851794,268.700681L182.823961,267.868652L176.810011,266.667156L178.928048,266.125654L178.441127,265.354775L181.676360,264.975316L185.206184,264.677353L180.552615,263.428936L183.261271,263.066532L181.178061,262.084154L179.389346,261.111469L177.873301,260.151686L183.432698,260.302763L187.687838,260.317804L182.874858,258.801938L176.385569,256.902668L175.772064,256.024994L175.368439,255.177421L174.126387,254.147995L179.988466,254.620651L186.059843,255.228819L188.382312,255.066878L184.976790,253.575867L190.382523,254.195152L183.144923,251.688728L182.926309,250.901837L178.612365,249.004091L182.289705,249.253554L186.218008,249.630662L189.925141,250.003043L188.641446,248.925512L182.507023,246.319846L182.645445,245.606929L177.954301,243.315904L177.671578,242.419366L181.326114,242.864815L178.265005,241.007248L180.069029,240.844640L185.514217,242.048884L190.976109,243.347389L187.093344,241.134871L187.815687,240.665183L191.481184,241.387993L191.280934,240.580597L187.186673,238.130292L191.506848,239.210308L189.284501,237.499456L192.825970,238.317190L188.191108,235.470085L192.828301,236.840176L191.752037,235.583906L196.129516,236.934790L193.501037,234.915015L188.206215,231.504895L187.786519,230.478727L192.488480,232.101260L194.488399,232.376239L197.799294,233.389905L194.559841,230.867502L196.169800,230.983696L196.731425,230.529303L197.221051,230.037829L196.143581,228.627888L196.539111,228.070457L194.732816,226.174618L195.303322,225.704627L197.716419,226.397600L195.785933,224.356242L192.736263,221.539124L188.254728,217.703170L188.534123,216.958056L191.101687,217.770465L191.685653,217.254786L191.854670,216.450298L198.243069,220.089120L201.653230,221.698305L203.503898,222.224945L203.538096,221.423279L202.459249,219.765621L203.100378,219.402876L201.648105,217.401729L204.786371,219.015513L205.886441,219.045487L205.887016,218.188518L207.275160,218.479019L207.052378,217.429052L207.053205,216.554747L206.438802,215.131956L202.717236,210.927068L196.675700,204.522934L194.697078,201.652752L197.378326,203.033914L200.484906,204.874783L207.134991,210.173124L210.463328,212.426485L212.397804,213.390829L212.758159,212.826043L212.248660,211.376252L210.308418,208.424334L206.917538,203.882371L205.409527,201.214626L200.805891,195.150159L202.110472,195.372879L202.492728,194.596076L210.112142,201.958620L214.301819,205.641041L216.278682,206.882758L217.627434,207.436144L217.625170,206.404362L215.990769,203.372867L212.639104,198.145088L214.318206,199.065329L211.862166,194.773816L215.753507,198.553458L217.856989,200.122263L219.590505,201.261293L220.394247,201.192494L221.390671,201.398928L218.100425,195.646320L220.241320,197.418212L220.215343,196.141065L223.345254,199.451539L222.837468,197.475713L222.358681,195.491801L221.787031,193.312971L223.630092,194.843007L220.088961,187.896002L225.309817,194.860636L226.581320,195.596705L224.792697,191.266624L224.839675,189.914303L227.238962,192.587052L230.709698,197.246587L231.984656,198.159566L230.750762,194.555353L230.887601,193.370087L233.120226,196.102040L233.290082,194.988518L233.164967,193.269008L234.222406,193.850173L235.200435,194.303810L235.570572,193.530115L236.679691,194.294191L237.434255,194.338104L236.082056,189.781705L237.800980,191.913300L238.274185,191.304149L239.083584,191.463077L239.386699,190.437729L240.065068,190.289968L239.957262,188.199721L239.777677,185.847570L240.792726,186.493249L241.269171,185.754680L241.574587,184.530748L243.115888,186.684362L243.558897,185.837569L244.491011,186.381654L245.863360,188.274365L246.593106,188.312836L247.601721,189.237144L247.989788,188.227409L247.884202,185.545532L248.184196,184.101719L247.825333,180.291458L247.535652,176.520663L250.046772,182.878389L251.458894,185.453748L251.819856,184.077874L252.675984,184.629219L250.794012,173.778123L251.360876,172.788673L252.737399,175.365652L253.998123,177.604575L255.691055,182.102573L256.622090,183.153403L257.587508,184.478647L258.174903,183.878325L258.584646,182.232696L258.316769,176.445840L258.784709,174.674647L258.726306,169.321632L260.204541,173.921406L261.095448,174.805423L262.025999,176.105941L262.835730,176.600386L263.559118,176.427164L264.450335,177.788183L265.067256,176.648057L266.124768,180.049850L267.228532,184.595950L268.446187,191.474159L269.068534,191.427659L269.517547,188.650582L270.067916,186.952268L270.263970,177.444004L271.133076,180.875221L271.695857,176.731683L272.395338,175.464442L273.247115,181.340607L273.984393,184.843890L274.655006,184.585376L275.323078,186.075947L276.017482,183.189925Z" />
<line x1="50" y1="625" x2="100" y2="625" fill="none" stroke="green" stroke-width="1.0" stroke-linejoin="round" stroke-miterlimit="10" />
<text x="125" y="628" style="text-anchor:start;fill:black">n0_4mer:PS</text>
<path style="stroke:red;stroke-width:1.0" d="M276.862665,149.963068L277.721989,153.201914L278.717213,150.270985L279.559274,152.634784L280.405439,154.129601L281.408105,152.209523L282.376207,151.361537L283.284634,151.603448L284.399926,149.037159L285.630212,145.551474L286.753257,143.858945L287.404740,147.296237L288.020213,150.596981L288.588634,153.887024L289.838832,151.081868L290.452243,153.624678L291.272815,154.359192L292.229146,154.075571L292.842256,156.120486L293.760866,156.043653L295.488765,151.092570L296.708541,149.529802L297.665096,149.570144L299.196533,146.569620L300.518749,144.886056L300.222638,151.282590L300.161067,156.115734L301.158756,155.792208L302.301817,154.864622L303.492071,153.811668L304.786376,152.412351L305.328226,154.114212L306.653776,152.697743L307.143697,154.512013L307.527698,156.620297L309.114574,154.369444L311.199127,150.546126L311.581902,152.636344L311.838747,155.040567L313.187101,153.872443L312.641691,158.632356L313.215862,159.794965L313.286798,162.394932L314.589817,161.347453L317.050708,157.116911L316.844176,160.400667L318.786621,157.798021L318.895408,160.124249L318.685796,163.178107L320.260796,161.645092L321.499227,161.016294L322.459199,161.096479L324.888111,157.735067L325.216989,159.360840L326.202889,159.453941L326.416737,161.266186L325.320976,165.863112L326.110925,166.286892L328.558694,163.250005L329.551081,163.321480L332.221416,160.034136L330.758344,165.034740L331.319764,165.949080L331.315586,167.921095L332.048750,168.460977L334.033852,166.700087L335.509763,165.933647L335.416126,167.989238L337.146781,166.814170L339.855176,164.021556L340.932840,164.082429L340.168877,167.203892L339.940191,169.367441L340.046062,170.940603L340.673079,171.658206L341.213859,172.501909L342.006840,172.950244L342.722875,173.515508L343.573055,173.881030L344.295571,174.436406L344.693481,175.454199L344.002865,177.986819L347.881285,174.133275L347.328256,176.453377L348.871602,175.906565L347.930617,178.674596L349.257001,178.426011L351.032233,177.626937L354.411631,174.845986L353.643865,177.317800L361.278343,169.454365L360.790113,171.632603L359.640764,174.549487L357.059156,179.072593L353.882683,184.164479L355.022712,184.226421L355.218658,185.359138L359.377226,182.113820L360.677360,182.082720L362.221004,181.811162L361.396718,184.059180L361.587385,185.207514L363.021414,185.070750L361.136141,188.298349L361.103978,189.612336L360.322045,191.639113L362.032844,191.225633L364.362024,190.256927L368.703430,187.456320L367.924776,189.471204L367.788643,190.864524L373.905031,186.652001L377.431839,184.864406L373.839374,189.323462L369.872849,193.991524L369.391097,195.610939L369.115239,197.032488L370.189774,197.330673L369.183456,199.313358L370.605099,199.336004L371.351164,199.905969L373.588531,199.335871L375.586613,198.986225L376.979531,199.120377L379.036081,198.787539L376.477992,201.816742L375.861709,203.397157L373.204971,206.377614L378.035646,204.138449L381.050564,203.222655L381.265511,204.225561L380.733965,205.710941L379.711771,207.490339L380.168877,208.299365L380.103091,209.433754L383.962312,208.148573L380.481606,211.360655L383.604070,210.575326L384.053545,211.402058L379.703557,214.979557L380.219574,215.720659L381.818049,215.863958L388.886475,213.054566L383.850831,216.840039L381.848993,218.928721L385.872341,217.866604L392.220861,215.695977L391.585609,217.103990L392.002224,217.979573L392.154750,218.981284L392.011719,220.116776L390.567458,221.840784L387.681667,224.181690L387.169437,225.414825L391.429583,224.564959L389.337927,226.479289L391.096095,226.750506L390.382955,228.051714L391.578056,228.574537L395.307259,228.124657L400.027453,227.355135L404.307857,226.823944L399.155787,229.793737L395.939140,231.982494L396.567795,232.776314L390.511174,235.841689L392.022183,236.298881L392.488322,237.113223L395.181753,237.230622L391.596141,239.309540L392.910421,239.865659L395.386459,240.102077L399.220770,239.991490L399.215023,240.989783L396.675646,242.657390L398.037210,243.274790L396.922418,244.528964L396.363035,245.627478L392.446663,247.499761L392.518328,248.404759L394.801536,248.824577L400.976587,248.456987L399.989686,249.635779L398.214074,250.950278L394.518160,252.594535L392.215733,253.928721L395.013709,254.347377L392.704399,255.646362L393.847946,256.366452L396.367457,256.896637L399.701998,257.347767L405.274533,257.547759L407.685296,258.229906L409.967023,258.961984L408.676904,260.124211L401.900600,261.834483L399.330655,263.036488L398.797125,264.017859L396.624751,265.123079L399.288591,265.838119L400.138216,266.712191L401.298282,267.579815L402.046877,268.485054L403.828231,269.355501L402.243934,270.374263L398.793938,271.422788L396.039500,272.404561L396.550190,273.299307L398.785875,274.190188L399.042198,275.112493L400.515814,276.048801L399.477062,276.967471L397.074584,277.839163L397.468498,278.761241L397.107482,279.660795L396.302657,280.535230L398.266002,281.545251L400.999697,282.631994L402.262006,283.660333L400.030781,284.444635L396.119891,285.057090L395.668898,285.925260L394.776126,286.744559L394.281605,287.593794L393.926068,288.452714L396.826441,289.700668L398.481500,290.834426L400.057191,291.984254L400.272549,292.964829L399.508057,293.802739L399.778021,294.795245L400.115171,295.805298L399.094326,296.586657L397.132679,297.183931L402.697846,299.178709L405.395647,300.697076L408.015613,302.244217L406.822477,303.024539L406.622461,304.008407L405.889450,304.870889L403.885366,305.425314L404.240589,306.527319L402.064584,307.001149L402.197189,308.044026L402.995289,309.271115L403.078895,310.317998L400.115108,310.505639L395.974497,310.306371L393.065226,310.413755L390.421877,310.560109L392.222168,312.073022L388.907940,311.960425L390.705923,313.498771L394.582457,315.780449L397.473076,317.787209L393.274843,317.311652L393.403120,318.355056L389.079299,317.738170L387.034130,317.926308L386.947520,318.852177L388.431506,320.410939L390.368063,322.186305L392.893050,324.247265L388.736287,323.509030L390.564397,325.309397L386.574986,324.564509L386.410688,325.488487L387.465233,326.979598L382.484608,325.652671L387.747598,329.162868L387.546114,330.101607L383.812064,329.281951L382.392503,329.576559L382.219591,330.497451L385.001705,332.980439L384.348792,333.681232L382.199686,333.560550L381.000997,333.935153L382.982675,336.094325L384.646575,338.118490L383.193601,338.359700L385.492486,340.816121L379.384033,338.235685L375.480713,336.898862L379.381917,340.379661L378.667303,341.012270L375.110879,339.800736L380.814781,344.616692L381.237153,346.034054L381.581270,347.418758L381.524332,348.545809L380.381561,348.921981L380.236094,349.995711L377.547392,349.237588L378.396876,351.032772L381.979714,354.901968L379.486451,354.259057L377.199756,353.730615L373.897650,352.367456L372.633203,352.557501L370.635805,352.139663L368.399850,351.491465L368.349367,352.618991L367.860704,353.389917L365.771507,352.791609L367.816780,355.751309L370.735690,359.551867L372.058529,362.015617L368.597599,360.178848L363.860296,357.086024L364.699319,359.108009L365.067383,360.722783L364.640769,361.598434L361.198802,359.523622L362.562972,362.150099L364.147042,365.058434L363.332026,365.574656L363.986514,367.616028L361.323200,366.194114L359.694101,365.818655L360.306989,367.852989L358.144478,366.863348L358.044675,368.138214L356.235130,367.486515L355.286642,367.791648L354.642605,368.445041L353.218378,368.170943L352.461567,368.677663L352.614836,370.299664L352.037760,371.043389L350.443398,370.504586L354.539918,377.247068L354.277550,378.491319L350.292080,374.820076L348.132025,373.473586L347.100724,373.611084L346.879273,374.861005L346.764189,376.283855L346.243611,377.153782L344.988932,376.965159L343.144542,375.880497L341.920694,375.677426L342.578508,378.328396L342.455662,379.837089L341.248829,379.666678L339.116328,377.987156L339.715367,380.696077L338.497656,380.463317L337.949435,381.337292L334.574483,377.368040L335.375659,380.545406L336.602100,384.575151L334.339533,382.415865L334.248827,384.165001L339.465029,395.915487L344.971085,408.631355L345.983764,413.058166L340.828837,405.411943L331.387627,388.807673L328.097503,384.204526L328.394150,386.927106L327.419153,387.022969L325.876913,385.871036L325.538919,387.334445L324.531847,387.324726L324.146678,388.738661L323.211560,388.897141L321.484956,387.137776L321.416444,389.373491L319.755413,387.682236L319.339860,389.106282L319.085822,391.004679L318.335382,391.639038L316.491207,389.275568L315.570993,389.390152L314.568349,389.257623L314.049261,390.534693L312.764524,389.539216L312.690694,392.244920L315.532956,404.386404L319.493849,420.829051L318.679052,422.074606L314.119378,410.409152L310.463299,401.273903L309.087649,399.943498L307.448003,397.520508L305.933184,395.418073L305.372485,396.999300L304.998035,399.442088L303.626582,397.759449L302.417149,396.663619L300.951933,394.298430L300.005293,394.215276L299.426787,395.933965L298.199944,394.437566L298.646025,401.771743L297.988043,403.549086L297.472880,406.305168L296.515688,406.600381L295.418590,406.011168L294.378904,405.732956L292.908135,402.343579L291.683033,400.398491L290.701126,400.141654L289.742543,400.034654L288.693187,399.075481L287.839320,399.861810L286.255328,393.096426L285.679906,396.646018L284.710037,395.931849L283.703965,394.558407L282.841687,395.056669L282.243508,400.234773L281.341094,400.893423L280.211483,396.469372L279.251269,394.945393L278.404199,396.634979L277.622955,402.738735L276.745735,408.437681L275.783612,414.104958L274.765592,404.103848L273.819036,402.468408L272.919092,399.494250L272.114113,394.414961L270.973499,402.334114L270.073677,401.058286L269.074674,402.310691L268.133030,402.142679L267.445024,397.877775L266.608499,396.679034L265.609050,397.833812L264.729372,397.343275L263.905005,396.315863L262.625566,400.029848L262.025759,396.824630L260.954092,398.167829L260.118189,397.392332L259.657873,393.786653L258.698721,394.215842L257.712393,394.775419L256.648222,395.778402L255.163339,399.308982L254.762081,396.023392L253.429526,398.337360L251.523662,403.583321L250.640040,403.018542L251.016577,396.119668L250.507525,394.030283L249.168541,395.966058L247.837767,397.714962L247.455793,395.190667L246.725134,394.290885L245.784537,394.292599L245.412934,392.029991L244.321157,392.653385L243.523005,392.133689L243.010028,390.599942L240.690556,395.482945L239.972321,394.615291L240.107774,390.943527L239.316284,390.450117L238.223291,390.918742L237.353006,390.665711L235.365957,393.757549L233.162488,397.318160L233.259319,394.129704L230.507414,399.015797L230.188337,397.037530L230.763978,392.751624L231.480522,388.274044L231.426413,385.939359L229.530892,388.278346L228.909779,387.396580L227.547032,388.308059L226.038501,389.508686L225.559874,388.286206L225.561192,386.019978L225.252428,384.510932L222.534254,388.246736L219.457047,392.584529L220.478770,388.229835L218.871202,389.380855L219.413587,386.173916L217.392280,388.102439L212.082409,396.284988L210.395595,397.299263L209.294123,397.172179L211.118172,391.688533L212.507615,387.158933L214.239310,382.165638L213.670951,381.314471L213.792494,379.301017L213.508188,378.019761L211.198791,380.101908L208.388591,382.910889L207.509081,382.535292L205.846743,383.382468L203.936829,384.567331L206.543994,378.844933L207.897743,375.159724L206.785862,375.197181L202.948819,379.156927L201.854007,379.074028L201.161904,378.412723L201.514664,376.314314L201.950964,374.150381L203.217234,370.927069L200.616347,372.874402L200.195539,371.920925L200.289555,370.322608L198.432149,371.207740L198.399392,369.791090L194.669789,372.905508L192.611098,373.902990L192.212557,372.889401L191.944354,371.735819L191.817919,370.435468L192.286268,368.483064L192.999426,366.297613L193.646456,364.231182L192.436886,364.213963L192.439112,362.889143L192.758486,361.252583L192.585892,360.154444L190.918162,360.592527L189.517071,360.731942L188.131841,360.832898L188.358481,359.342788L186.615606,359.766379L186.023537,359.070821L185.604068,358.215560L181.924603,360.355475L181.597331,359.383414L178.791752,360.625193L175.666899,362.089014L177.536460,359.174173L180.579160,355.326251L181.884421,353.027751L183.223472,350.749204L182.706078,350.027469L180.763315,350.447942L179.292406,350.462616L178.998495,349.541438L179.866912,347.737798L177.326062,348.534129L173.137516,350.505284L172.516435,349.789310L171.117338,349.630812L171.242756,348.375161L174.900397,344.675870L173.321887,344.656053L175.304119,342.212477L173.558793,342.295546L171.711157,342.418705L172.402080,340.883146L168.197758,342.464672L171.108722,339.548272L166.468457,341.315932L167.668451,339.489663L169.703275,337.204289L167.070704,337.679701L167.647974,336.279696L169.390723,334.246281L165.341573,335.448387L161.653715,336.384919L158.030001,337.225082L161.898735,334.090369L163.973208,331.957847L168.497739,328.638411L166.980954,328.397363L165.752973,327.995472L163.705995,327.968031L161.998316,327.752002L162.796621,326.364918L159.824545,326.691280L159.036269,326.010714L158.205164,325.341350L166.972823,320.611146L163.546892,321.082493L163.747660,320.032070L164.748098,318.674171L160.906701,319.215518L162.537885,317.622603L160.409378,317.455856L161.611233,316.052639L159.125824,315.978826L157.049052,315.727372L151.489317,316.620019L152.170979,315.374022L158.415537,312.361515L159.751044,310.989131L157.786933,310.646434L158.151136,309.586918L158.158855,308.640114L156.408849,308.189401L158.796940,306.589611L155.933715,306.417432L152.882402,306.251490L157.412081,304.160788L156.920578,303.350733L156.446992,302.532101L152.339809,302.524623L154.568346,301.083852L157.258469,299.584491L156.406992,298.841801L154.850110,298.225021L156.264550,297.035423L152.987412,296.704734L151.372132,296.043290L150.949595,295.165595L154.632786,293.647663L153.097808,292.956698L153.055384,292.035891L151.831387,291.272472L151.644354,290.363189L150.903324,289.517618L151.321983,288.535571L147.349981,288.008808L148.469113,286.943165L145.179767,286.278686L143.954851,285.402222L150.827825,283.926419L153.803183,282.805556L156.205557,281.762692L152.585325,281.054352L152.378848,280.149264L152.660861,279.224799L153.520497,278.289368L151.527034,277.423110L153.117101,276.483786L154.942573,275.567207L150.755233,274.661505L149.911266,273.727397L151.414618,272.821942L154.940915,271.989376L152.557559,271.016796L146.740599,269.870919L147.314587,268.940942L151.530756,268.218895L155.079300,267.517438L155.220622,266.630132L153.022218,265.562992L149.063479,264.312460L150.763537,263.524046L150.202359,262.534016L153.931418,261.994997L156.665725,261.396357L153.313808,260.091819L155.202047,259.416560L153.492845,258.272913L152.905207,257.264348L149.623403,255.832962L155.869776,255.878708L159.305798,255.545151L154.306156,253.778796L151.379303,252.313616L148.910099,250.888276L149.547346,250.040087L146.935228,248.527198L150.900620,248.381499L154.018758,248.106163L156.231445,247.668075L155.815080,246.635830L157.754373,246.172889L154.080528,244.312673L154.791107,243.538097L152.591325,241.986172L153.213454,241.178829L157.012283,241.285165L157.820504,240.569960L158.474920,239.817246L154.850636,237.744173L155.143568,236.854089L152.217104,234.913061L150.834893,233.435801L154.327881,233.602968L154.406195,232.623243L154.952000,231.807746L155.336584,230.936653L159.870744,231.629698L160.765226,230.992236L160.777494,230.017036L162.792802,229.842402L163.936016,229.338287L161.138561,227.193612L161.585269,226.384297L159.678325,224.546749L163.839645,225.377581L162.220747,223.644036L164.481904,223.676356L165.291509,223.055424L166.841133,222.799357L166.174270,221.474439L162.578010,218.661793L160.447175,216.522370L166.840287,218.766453L165.675667,217.122449L166.282911,216.403019L164.870543,214.578836L165.755646,214.001389L168.749975,214.630782L171.388247,215.104496L167.654418,211.874621L169.619170,211.968925L168.503750,210.219852L170.861152,210.586232L173.427236,211.122524L171.158912,208.611502L168.619349,205.866223L166.316216,203.212384L166.095573,201.895732L168.456206,202.323309L168.734634,201.347423L169.664801,200.824523L174.120386,202.832076L176.472092,203.398968L177.069406,202.712248L178.336327,202.528902L178.727428,201.695607L178.819496,200.627434L177.794673,198.671245L179.997621,199.250327L182.250548,199.909808L180.092894,196.985522L180.267562,195.939343L184.217746,198.081628L184.216146,196.911176L183.992860,195.532026L180.400714,191.145243L177.482086,187.252310L176.279049,184.830054L177.944216,185.015791L181.305594,186.825374L186.923272,190.866228L188.463208,191.095592L190.636768,191.974976L191.118423,191.209910L190.132465,188.952584L189.675079,187.190068L187.804942,183.917721L184.011778,178.527025L181.598272,174.478366L182.375324,173.813499L184.100147,174.200387L190.566018,179.956417L193.895504,182.323031L196.323438,183.734501L197.514551,183.750538L194.928486,179.268882L195.663952,178.699582L195.460237,176.973481L196.616329,176.913938L195.093472,173.466650L198.195026,175.897514L199.223962,175.706348L202.030978,177.893154L203.099639,177.816351L204.109358,177.673147L201.727741,172.812533L203.383437,173.534057L204.550173,173.592077L205.994879,174.075476L205.314435,171.432871L204.785167,168.949182L206.639974,170.060781L208.416083,171.103248L206.225214,165.904289L210.489342,170.958461L211.150530,170.291274L210.382828,167.234521L210.130743,164.963913L212.793710,167.661385L214.709526,169.157638L215.961260,169.536182L216.617018,168.860356L216.968965,167.613677L219.031440,169.559956L219.830120,169.168483L219.865626,167.286757L220.256519,166.057232L222.278807,168.104375L222.617803,166.766841L223.746502,167.055802L224.466281,166.493018L224.466972,164.348253L225.626959,164.721743L226.238217,163.874926L226.786705,162.862131L227.487923,162.184591L228.989789,163.434692L229.180945,161.506962L229.162898,158.980139L229.253175,156.636202L229.875969,155.610446L231.129250,156.259390L232.850671,158.250792L233.923986,158.514351L234.790735,158.205619L236.574910,160.627160L237.344953,160.090948L238.252116,159.970752L239.502092,160.959966L239.386496,157.511773L239.024211,153.051862L239.587184,151.580043L239.227809,146.731101L241.593899,151.672316L243.614984,155.616884L244.608535,155.792086L245.193092,154.337411L245.008373,149.584388L245.483165,147.374509L246.762460,148.625327L246.831474,144.369505L248.396498,147.007666L249.950494,149.811012L251.470803,152.680073L252.889360,155.252783L253.384050,152.842816L253.517484,148.094649L254.393535,147.506083L254.848521,144.140014L256.182116,146.441276L257.600613,149.622049L258.553984,149.640576L259.518564,149.767064L260.466451,149.781237L261.264079,148.427846L262.086805,147.136259L261.778636,133.553513L262.060069,124.472177L262.373886,114.085005L263.572855,113.995420L265.032102,118.004192L266.675055,126.382780L268.546935,142.075347L269.903326,150.941881L270.739087,148.276450L271.647796,146.897604L272.684706,151.290229L273.618188,152.335649L274.534103,152.899636L275.436078,154.973740L276.340517,154.041594Z" />
<line x1="50" y1="600" x2="100" y2="600" fill="none" stroke="red" stroke-width="1.0" stroke-linejoin="round" stroke-miterlimit="10" />
<text x="125" y="603" style="text-anchor:start;fill:black">n0_4mer:D</text>
<path style="stroke:black;stroke-width:1.0" d="M277.415132,112.877095L278.642233,112.024692L279.860939,111.893895L281.057125,112.434344L282.260052,112.658819L283.547277,111.219253L284.850391,109.889773L286.057374,110.304511L287.387114,109.007618L288.608885,109.278927L289.830650,109.521862L291.106360,109.188975L292.209567,110.569346L293.272203,112.143237L294.367353,113.264478L295.513130,113.872082L296.716108,114.004571L297.826553,114.789624L298.870847,115.953146L300.010094,116.419392L301.211026,116.486745L302.514645,115.971907L303.840719,115.393920L305.142203,115.011190L306.364365,115.080669L307.717026,114.522509L308.921832,114.721740L310.227309,114.466000L311.355622,115.025431L312.632062,114.935581L313.900047,114.904484L315.042808,115.392695L316.318282,115.356515L317.377385,116.151878L318.880730,115.302632L320.256174,114.972283L321.457403,115.277813L322.341473,116.646403L322.837081,119.226270L323.958487,119.706150L325.079249,120.182191L326.128723,120.868025L327.536983,120.483800L328.036716,122.744739L329.341570,122.661253L330.466223,123.093743L331.758082,123.077807L333.088945,122.979288L334.042283,123.870331L335.560418,123.327443L336.561014,124.095288L337.640086,124.661887L338.870746,124.868063L339.668577,126.081875L340.583573,127.002033L341.967401,126.868120L343.346377,126.769351L344.533722,127.101543L346.379089,126.067824L347.925428,125.704995L348.333587,127.662521L349.570378,127.934101L350.015533,129.748806L350.798617,130.875906L352.041203,131.124902L353.409927,131.153920L355.055399,130.703443L355.771529,131.935169L357.221028,131.868689L358.341669,132.387963L359.280270,133.216893L360.560416,133.474165L361.514025,134.275161L362.255035,135.411129L362.702318,136.993454L363.571839,137.892080L364.618114,138.513834L365.326951,139.642712L367.209766,139.025941L368.035617,139.984213L368.500991,141.449044L370.442420,140.814663L371.051236,142.066373L372.164512,142.614192L373.551409,142.800380L374.435298,143.667706L375.540349,144.243540L376.826988,144.592076L378.805271,144.080707L380.389092,144.098012L382.302781,143.734844L382.758602,145.163056L383.094406,146.715022L382.340403,149.518737L381.427767,152.445578L382.602243,152.941644L383.550126,153.699954L386.064589,152.735190L387.006129,153.529113L389.061115,153.134597L389.285461,154.703608L389.006838,156.773108L390.076703,157.429046L389.733355,159.513385L390.909970,160.054305L391.968627,160.719940L393.293996,161.134887L394.129798,162.027793L395.625724,162.303808L396.287055,163.366307L397.356016,164.054507L398.561293,164.627526L398.657337,166.186884L399.284946,167.266579L399.247339,168.909715L400.407266,169.524320L400.775483,170.804318L401.509378,171.775695L402.508640,172.532952L402.435105,174.145031L403.478629,174.866513L405.173012,175.095605L406.172886,175.872036L407.328877,176.538425L408.492281,177.209165L408.862106,178.462171L408.598858,180.156692L409.557807,180.975453L410.893083,181.541134L412.030652,182.254652L413.851841,182.522573L414.808698,183.381256L414.930388,184.784231L415.102309,186.143741L415.166306,187.560341L414.204698,189.594023L414.066297,191.098281L415.558323,191.619846L416.510281,192.473910L417.945363,193.057760L419.205282,193.756618L418.056471,195.801835L419.026806,196.660557L419.672501,197.700204L419.159426,199.349279L421.052475,199.738002L421.798671,200.732060L421.922319,202.038884L422.922474,202.910750L422.225987,204.602421L422.802870,205.674483L423.769464,206.568383L423.864804,207.863456L426.155926,208.180613L426.947714,209.179193L426.398044,210.752371L427.703597,211.536442L427.477305,212.958356L427.726148,214.179101L430.970615,214.229136L432.540436,214.965243L434.061023,215.738847L433.076633,217.442844L431.168808,219.451460L429.948531,221.182309L429.670242,222.566757L431.765695,223.155062L432.730540,224.136206L433.355493,225.233805L432.000412,226.941661L432.138374,228.176715L433.311291,229.108334L433.540440,230.319352L435.339904,231.098748L435.106693,232.442031L435.431362,233.632689L436.608300,234.610608L435.750346,236.094883L434.988861,237.538468L433.702732,239.084433L432.878860,240.505067L433.070260,241.694915L433.779526,242.778790L434.358690,243.895337L435.016024,245.002605L435.813332,246.091401L436.480061,247.211618L437.200680,248.330026L437.049019,249.593181L436.899924,250.850749L437.038180,252.062631L438.096683,253.150737L439.755658,254.176533L439.657912,255.433841L439.600290,256.683006L438.041027,258.085033L437.030088,259.408922L438.150392,260.526800L437.069922,261.838602L437.462688,263.024131L437.447592,264.241220L437.186264,265.471350L438.513742,266.615039L438.958841,267.816284L438.782922,269.045950L438.397853,270.278374L437.791057,271.509286L438.325057,272.714806L438.412555,273.930949L438.265966,275.148065L438.185327,276.363565L437.645643,277.570759L438.421865,278.800801L439.113769,280.040246L439.009210,281.260168L437.871525,282.432082L436.837896,283.593364L435.933324,284.747977L435.057995,285.892140L434.486246,287.047348L434.255038,288.223610L433.903107,289.386952L434.799327,290.669004L435.759803,291.973077L436.423944,293.260001L436.717855,294.514323L436.754011,295.742232L436.941879,296.993633L436.278562,298.128305L435.916390,299.300989L435.335804,300.436262L433.662021,301.383776L434.175455,302.689147L435.440825,304.142144L437.700532,305.806226L439.514913,307.420962L439.317842,308.655530L439.087048,309.883762L438.688360,311.075443L439.402346,312.519023L439.544164,313.843106L438.120743,314.792141L436.534776,315.682450L435.948963,316.812258L435.415676,317.951769L435.934911,319.378107L435.912577,320.664380L434.439884,321.532483L432.915351,322.366831L431.745722,323.291494L430.845277,324.288079L431.246749,325.698365L432.371269,327.362060L433.195612,328.948450L432.694957,330.092330L431.715204,331.063309L430.694548,332.009865L429.141705,332.746974L428.251999,333.719094L427.333108,334.672053L425.863066,335.396214L427.306668,337.294440L426.711534,338.374203L426.465252,339.600600L426.461280,340.936619L423.646656,341.032708L424.152715,342.592212L424.053631,343.890159L425.051720,345.712640L425.253302,347.180250L424.587971,348.236981L424.116603,349.388260L422.477305,349.947540L422.125893,351.153172L421.244902,352.083748L420.347213,352.999522L419.860922,354.133956L418.207598,354.621532L418.339555,356.098503L418.024029,357.332355L418.086421,358.793428L418.360496,360.394329L416.661874,360.818544L415.656805,361.648432L414.159889,362.162860L413.095511,362.935133L413.528134,364.667828L413.514345,366.130089L412.509528,366.943910L412.441270,368.387197L411.206871,369.039027L409.110711,369.074611L408.752399,370.317642L407.279200,370.761468L408.405334,373.099457L409.243454,375.264955L408.552640,376.307454L408.438055,377.795355L405.975052,377.461550L404.229318,377.656706L403.246992,378.443785L401.863572,378.897174L400.759315,379.567512L399.976927,380.501364L399.415425,381.624605L399.315696,383.155606L399.790352,385.212370L398.621532,385.830074L398.236362,387.151715L396.874117,387.583034L395.165769,387.675365L395.165318,389.368878L393.653719,389.626707L392.841231,390.551115L391.862057,391.311035L390.438364,391.618545L390.544083,393.477589L388.800873,393.442497L387.485758,393.832933L386.273479,394.320089L384.704969,394.409141L384.206763,395.658632L383.463053,396.646031L382.199175,397.046682L381.262564,397.813436L380.782708,399.115346L379.509624,399.488138L379.567305,401.457818L378.259294,401.787308L377.147753,402.348153L376.467560,403.448846L375.085775,403.658380L374.383132,404.737755L373.624779,405.753898L373.132576,407.137278L372.462878,408.298525L371.306591,408.797584L369.967596,409.031811L368.566112,409.161254L367.068944,409.132988L365.920310,409.597517L365.544964,411.218460L364.418309,411.721728L363.783001,412.983249L363.066980,414.137225L361.882776,414.555872L361.199886,415.785570L359.929569,416.059602L358.749124,416.473152L357.215102,416.271874L355.930843,416.478848L355.174951,417.611736L354.309934,418.566097L354.466813,421.416312L356.644066,428.137789L358.545642,434.556155L357.835008,436.107958L355.517227,434.510761L351.451839,429.303461L346.637732,422.335829L344.919265,421.567761L343.873262,422.186416L342.748923,422.638542L342.124336,424.199375L341.187667,425.095586L340.375250,426.295953L339.533986,427.457967L338.023162,427.033643L336.494053,426.525817L335.109856,426.340642L333.419408,425.339252L332.306827,425.793606L331.621760,427.399894L330.216205,427.077117L329.424555,428.450351L328.480489,429.430338L327.152561,429.303309L326.291424,430.566093L326.627205,435.597401L327.522395,442.658233L327.592779,447.373380L326.549372,448.575276L323.929565,444.366467L321.257085,439.707258L319.147089,436.814964L317.505268,435.495765L316.106415,435.020876L314.638482,434.218684L312.959208,432.467748L312.177009,434.426267L311.123116,435.296358L309.736770,434.681442L308.464252,434.544228L307.079380,433.820996L305.864480,433.896004L305.012429,435.903491L304.189383,438.226966L303.194176,439.733714L302.036930,440.370977L300.898703,441.173051L299.623537,441.114025L298.270607,440.475769L296.971423,440.148820L295.528997,438.620913L294.296478,438.657549L292.972671,437.852359L291.787255,438.255307L290.641904,439.122533L289.318370,438.088756L288.099159,438.141040L286.886319,438.271492L285.650262,438.056101L284.483764,438.967116L283.269695,439.183039L281.987558,437.866175L280.760927,437.538894L279.604262,439.514280L278.420539,441.581338L277.210691,443.977289L275.964492,446.214311L274.693465,443.828950L273.441580,443.209433L272.221055,441.255687L271.056126,438.193382L269.789675,439.771373L268.579562,439.290770L267.335633,439.675470L266.004036,441.561217L264.870249,439.755145L263.692334,438.964219L262.502765,438.464091L261.412049,436.859081L260.046234,438.508771L258.669874,439.997709L257.469099,439.610435L256.210861,439.760969L255.157647,438.189274L254.089963,436.896276L252.915101,436.513077L251.678708,436.579185L250.466399,436.462786L249.199370,436.682958L247.634910,438.644101L246.429644,438.361837L245.298916,437.677157L244.239896,436.653129L243.298892,435.095067L241.958603,435.576948L240.518007,436.475611L239.243222,436.543848L237.945962,436.687335L237.030948,435.190390L236.055869,434.016705L235.283071,432.098098L234.464122,430.455123L232.989345,431.332045L231.532616,432.075068L229.603700,434.416162L228.143462,435.009415L227.500490,432.836327L226.872494,430.710416L225.676172,430.466768L224.759396,429.358014L222.902589,431.102186L221.073693,432.661541L220.301792,431.111047L218.667648,432.017206L217.478080,431.651921L216.748064,430.060511L215.330141,430.310829L214.814769,428.232986L213.940484,427.119125L212.771132,426.752621L212.130238,425.120234L210.792598,425.165037L209.580826,424.900306L208.410125,424.534479L207.024083,424.637573L205.280726,425.488287L204.118991,425.055221L203.279835,423.948627L201.841898,424.083654L200.565713,423.870033L199.254617,423.712492L196.882501,425.585547L195.500224,425.496922L194.677485,424.350059L193.891418,423.155457L193.362065,421.520632L193.056014,419.527317L192.737603,417.602623L192.063638,416.328204L191.878225,414.257327L191.200034,413.046542L190.101848,412.535524L188.468326,412.873494L186.811644,413.215784L185.519246,412.964113L184.273884,412.627770L184.093189,410.691429L183.127189,409.948517L182.238332,409.095932L181.723690,407.715970L181.413310,406.071289L180.351505,405.491986L179.411787,404.743091L177.481792,405.318688L175.492586,405.932379L175.062384,404.484874L173.846162,404.061573L172.895403,403.294739L171.345421,403.269616L170.273899,402.638929L169.286043,401.903335L168.618181,400.787827L168.042494,399.574577L166.772537,399.170236L166.124002,398.051658L165.427634,396.995431L164.623031,396.065008L163.647886,395.322054L162.147005,395.136219L160.918813,394.645135L159.969909,393.854935L159.701040,392.370524L159.421386,390.915296L158.667879,389.945720L158.513624,388.395816L157.392494,387.793243L156.255718,387.197417L154.645479,387.033833L152.634939,387.215776L151.134559,386.904605L150.061639,386.194951L149.725654,384.832666L149.790923,383.136546L148.969868,382.217093L149.420402,380.231517L149.517429,378.569017L148.720347,377.655111L148.574020,376.219393L147.244362,375.731553L145.283025,375.720191L143.602842,375.464940L141.829429,375.257879L140.604248,374.620480L141.077742,372.732288L140.729135,371.462138L140.534899,370.091176L140.076572,368.915529L138.792889,368.310640L139.003449,366.685484L138.574301,365.504069L136.846590,365.175509L136.746776,363.779162L135.307176,363.240943L134.282103,362.428871L133.538760,361.436935L132.502343,360.619055L132.621996,359.110141L132.539966,357.733351L134.023095,355.473766L133.111387,354.598809L131.252405,354.239786L129.336005,353.887213L126.820956,353.827504L126.692197,352.484215L126.953393,350.949379L129.104975,348.478039L128.303940,347.516682L127.486650,346.558374L126.596495,345.629514L124.522570,345.246614L125.015165,343.660666L125.135193,342.260022L124.832884,341.056273L124.103920,340.039796L124.303147,338.627101L122.666534,337.985287L122.815774,336.600240L123.430452,335.041362L122.218072,334.208842L122.716490,332.714721L121.845343,331.743841L120.909707,330.788711L121.665261,329.226729L119.930277,328.544141L119.630517,327.355640L119.351730,326.161742L117.522525,325.466391L118.750038,323.792635L117.446034,322.914769L117.561009,321.601475L118.155310,320.157664L116.101718,319.469918L116.197111,318.170305L115.287647,317.142509L115.450507,315.830802L116.097247,314.406509L117.084514,312.915326L116.623810,311.780419L115.183206,310.862466L114.993818,309.655155L113.748870,308.669317L114.385005,307.289853L115.486845,305.833955L115.913054,304.524023L115.623700,303.351339L114.923967,302.247306L114.170168,301.144446L112.843300,300.121820L112.438047,298.946049L112.586102,297.689526L111.789512,296.562621L111.534179,295.358666L111.697489,294.104166L110.217562,293.034122L109.652501,291.850556L109.257755,290.644298L108.348725,289.478540L108.619372,288.207114L109.760080,286.878673L110.836424,285.572785L111.810658,284.289990L111.583665,283.082201L111.328147,281.873118L112.330997,280.617530L112.543606,279.398923L113.777761,278.163926L113.596158,276.964909L112.648393,275.767024L112.397153,274.557002L111.804920,273.339718L110.559353,272.101912L110.448028,270.873664L110.183450,269.638314L110.065570,268.404288L111.080814,267.221540L110.331923,265.956197L109.979628,264.703403L109.961134,263.467518L108.842577,262.144963L110.450212,261.035565L111.293260,259.878102L111.621915,258.680232L113.500648,257.651985L113.063040,256.383817L113.640508,255.231311L113.172381,253.949298L113.123132,252.715481L113.083296,251.479764L113.250626,250.272447L113.809611,249.127737L113.747901,247.884248L115.259499,246.913350L115.387068,245.708463L116.530612,244.696462L117.484146,243.660830L117.550556,242.452970L117.430653,241.202412L116.991165,239.875019L117.110989,238.665378L116.680628,237.322435L116.552911,236.042711L117.271601,234.971187L117.682990,233.825904L118.935532,232.909147L120.024312,231.961919L120.637682,230.891170L121.270384,229.830691L119.815914,228.144820L119.309503,226.723605L118.208150,225.098899L118.394054,223.870297L119.739506,223.026638L120.533004,222.009506L121.167894,220.943279L121.304261,219.701574L122.576829,218.873614L123.361799,217.876426L124.094817,216.865341L124.171443,215.600887L123.156781,213.890951L123.639305,212.771109L124.936961,211.993841L124.743999,210.592130L125.319554,209.514782L125.663086,208.335415L126.243441,207.261154L127.659224,206.576223L128.240779,205.512712L128.199502,204.149771L127.553423,202.478908L127.874173,201.270605L127.848446,199.881171L129.144143,199.167770L129.945070,198.206263L130.928293,197.347377L131.773755,196.420692L132.897896,195.654655L134.710255,195.290069L134.593553,193.834354L135.482218,192.955516L135.249639,191.411596L135.256662,189.996123L136.478478,189.319263L136.231582,187.730776L136.716954,186.591799L136.551207,185.026045L137.089635,183.907696L137.989963,183.029281L138.875058,182.145127L139.930109,181.382993L140.682296,180.415475L142.214140,180.006775L143.471518,179.417182L145.011910,179.048914L145.180092,177.670870L146.346319,177.039804L146.911446,175.954205L146.315547,173.952822L147.521432,173.355600L148.699900,172.747118L150.363213,172.547462L152.118424,172.446974L152.504199,171.211240L152.266577,169.429370L151.116503,166.824196L151.102455,165.174662L151.236258,163.636026L151.653836,162.337827L152.679805,161.592169L154.438352,161.540950L156.425863,161.734106L157.245918,160.827910L158.972839,160.813315L160.136175,160.261452L160.792112,159.204324L162.224107,158.939611L161.371360,156.305711L160.483070,153.580010L160.760963,152.052652L160.726084,150.163098L162.931720,150.726541L164.890071,151.054145L166.203323,150.679565L167.785394,150.630120L168.035045,149.034485L168.591304,147.780932L169.533933,146.982198L170.647974,146.394314L171.702478,145.737782L173.093422,145.512253L174.129697,144.845699L175.397773,144.485538L176.673112,144.147021L177.390294,143.066485L178.581834,142.626017L177.742026,139.361408L179.122724,139.161616L180.900415,139.549796L182.017804,139.007427L184.498948,140.496761L185.323902,139.555350L185.864451,138.168354L186.825442,137.413469L187.839405,136.739343L188.924399,136.178939L189.511739,134.805150L190.500530,134.075760L191.381167,133.159477L192.308386,132.313410L193.651968,132.190245L194.937821,131.980974L195.896904,131.191408L197.320960,131.255081L198.944808,131.718436L199.609662,130.379895L201.309884,131.035341L202.311317,130.345217L203.197290,129.415367L204.419862,129.165887L205.234634,128.068245L206.098803,127.054011L206.787263,125.635140L208.141839,125.667462L209.245991,125.150698L210.364008,124.665069L211.587509,124.429732L213.192228,125.128852L214.413260,124.927653L215.767070,125.073498L216.912522,124.706411L217.573968,123.061706L218.391031,121.782113L219.746145,121.952633L221.245236,122.559247L222.475823,122.434944L223.852585,122.758974L224.513067,120.932856L225.178920,119.048668L226.275067,118.467029L227.609219,118.658775L229.316299,120.144681L230.595174,120.241291L231.655134,119.577646L232.650615,118.655756L233.425398,116.857483L234.657022,116.758129L235.677949,115.818767L236.861837,115.518123L238.149433,115.664767L239.211903,114.833464L240.471820,114.876846L241.606984,114.342577L242.816875,114.159590L244.346438,115.643038L245.516143,115.320777L246.595279,114.477762L247.633181,113.333844L248.716477,112.381654L249.860015,111.745573L251.160046,112.131848L252.550875,113.234226L253.701164,112.650054L255.042968,113.562920L256.233057,113.306979L257.369204,112.537816L258.996884,116.540509L260.646539,121.441965L262.296141,127.218365L263.846152,132.848471L265.025684,134.465278L265.717889,128.805435L266.554708,124.234350L267.407597,118.606488L268.355164,113.258077L269.584493,113.937750L270.755253,112.789621L271.971593,113.187482L273.184408,113.828681L274.384128,113.594573L275.584600,114.094585L276.793661,113.153225Z" />
<line x1="50" y1="550" x2="100" y2="550" fill="none" stroke="black" stroke-width="1.0" stroke-linejoin="round" stroke-miterlimit="10" />
<text x="125" y="553" style="text-anchor:start;fill:black">GC-content</text>
</g>
<g style="fill:pink;stroke:black">
<a href="" title="CP002792 AEDA01000000 AEDA01000001-AEDA01000057:1 [176500-199599];"><path  d="M415.536714,92.930145L418.692866,95.410579L421.805249,97.945718L424.872913,100.534789L427.894924,103.177004L414.599714,118.118134L414.599714,118.118134L411.840486,115.705677L409.039575,113.341742L406.197835,111.027050L403.316130,108.762306Z" />
</a><a href="" title="CP002792 AEDA01000000 AEDA01000001-AEDA01000057:2 [317000-336599];"><path  d="M487.715501,187.523628L489.209777,191.249349L490.638802,195.000580L492.002141,198.776181L493.299380,202.574999L474.316825,208.872826L474.316825,208.872826L473.132390,205.404339L471.887602,201.957052L470.582839,198.532014L469.218501,195.130269Z" />
</a><a href="" title="CP002792 AEDA01000000 AEDA01000001-AEDA01000057:3 [381000-402099];"><path  d="M502.355375,240.221652L502.927713,244.194847L503.430623,248.177426L503.863950,252.168175L504.227564,256.165879L484.294732,257.803629L484.294732,257.803629L483.962737,254.153551L483.567091,250.509823L483.107912,246.873556L482.585342,243.245856Z" />
</a><a href="" title="CP002792 AEDA01000000 AEDA01000001-AEDA01000057:4 [468500-491099];"><path  d="M501.523281,314.839719L500.793481,318.787028L499.994903,322.720999L499.127789,326.640433L498.192403,330.544137L478.784368,325.714212L478.784368,325.714212L479.638416,322.149961L480.430129,318.571347L481.159266,314.979460L481.825604,311.375396Z" />
</a><a href="" title="CP002792 AEDA01000000 AEDA01000001-AEDA01000057:5 [705000-730599];"><path  d="M388.458481,475.067921L384.949534,477.017573L381.407095,478.905689L377.832244,480.731693L374.226069,482.495029L370.589669,484.195161L362.277524,466.004277L362.277524,466.004277L365.597715,464.451983L368.890310,462.841981L372.154304,461.174760L375.388705,459.450828L378.592526,457.670711Z" />
</a><a href="" title="CP002792 AEDA01000000 AEDA01000001-AEDA01000057:6 [755500-779099];"><path  d="M349.049630,492.753650L345.238027,494.012830L341.405028,495.205296L337.551802,496.330685L333.679522,497.388655L329.789368,498.378883L325.025075,478.954632L325.025075,478.954632L328.576955,478.050511L332.112515,477.084538L335.630678,476.057009L339.130372,474.968236L342.610532,473.818550Z" />
</a><a href="" title="CP002792 AEDA01000000 AEDA01000001-AEDA01000057:7 [832000-854099];"><path  d="M284.858348,504.788627L280.846482,504.925681L276.832835,504.992697L272.818630,504.989655L268.805089,504.916557L269.343777,484.923813L269.343777,484.923813L273.008315,484.990555L276.673458,484.993332L280.338092,484.932143L284.001101,484.807007Z" />
</a><a href="" title="CP002792 AEDA01000000 AEDA01000001-AEDA01000057:8 [966000-990599];"><path  d="M173.676500,481.478929L170.088377,479.679143L166.532212,477.817009L163.009088,475.893095L159.520076,473.907987L156.066242,471.862290L166.408308,454.743830L166.408308,454.743830L169.561809,456.611640L172.747428,458.424130L175.964194,460.180747L179.211127,461.880956L182.487239,463.524240Z" />
</a><a href="" title="CP002792 AEDA01000000 AEDA01000001-AEDA01000057:9 [1454000-1476099];"><path  d="M99.519282,126.317394L102.140877,123.277478L104.815128,120.283778L107.541218,117.337207L110.318318,114.438661L124.638464,128.400516L124.638464,128.400516L122.102851,131.047015L119.613812,133.737363L117.172105,136.470741L114.778474,139.246316Z" />
</a><a href="" title="CP002792 AEDA01000000 AEDA01000001-AEDA01000057:10 [1478500-1501099];"><path  d="M113.797536,110.945846L116.685228,108.157461L119.621143,105.419898L122.604389,102.733991L125.634056,100.100558L138.622399,115.309205L138.622399,115.309205L135.856181,117.713644L133.132348,120.165994L130.451729,122.665508L127.815141,125.211424Z" />
</a><a href="" title="CP002792 AEDA01000000 AEDA01000001-AEDA01000057:11 [1655000-1688999];"><path  d="M247.632706,46.633997L251.622411,46.191153L255.619236,45.818007L259.621965,45.514671L263.629379,45.281239L267.640256,45.117782L271.653374,45.024349L275.667513,45.000969L275.609468,65.000884L275.609468,65.000884L271.944385,65.022232L268.280233,65.107540L264.618128,65.256784L260.959186,65.469917L257.304520,65.746876L253.655245,66.087575L250.012471,66.491910Z" />
</a></g>
<path  style="fill:pink;stroke:black" d="M350,550L375,550L375,565L350,565Z" />
<text x="405" y="565" style="text-anchor:start;fill:black">Selected loci;</text>
</svg>