<svg xmlns="http://www.w3.org/2000/svg" viewbox="0 0 550 650">
<circle cx="275" cy="275" r="240" fill="none" stroke="black" stroke-width="1.0" />
<line x1="275" y1="15" x2="275" y2="55" fill="none" stroke="grey" stroke-width="1.0" stroke-linejoin="round" stroke-miterlimit="10" />
<line x1="495" y1="275" x2="535" y2="275" fill="none" stroke="grey" stroke-width="1.0" stroke-linejoin="round" stroke-miterlimit="10" />
<line x1="275" y1="495" x2="275" y2="535" fill="none" stroke="grey" stroke-width="1.0" stroke-linejoin="round" stroke-miterlimit="10" />
<line x1="15" y1="275" x2="55" y2="275" fill="none" stroke="grey" stroke-width="1.0" stroke-linejoin="round" stroke-miterlimit="10" />
<text x="275" y="10" style="text-anchor:middle" font-size="15">Methanobacterium sp. MB1 complete sequence.</text><text x="285" y="25" style="text-anchor:start">2,029,766</text><text x="525" y="265" style="text-anchor:start">0.5 Mbp</text><text x="285" y="530" style="text-anchor:start">1.01 Mbp</text><text x="-200" y="25" style="text-anchor:end" transform="rotate(-90)">1.52 Mbp</text><circle cx="348.111716" cy="46.407181" r="2.500000" fill="grey" stroke="black" stroke-width="1.0" />
<circle cx="414.273444" cy="79.544359" r="2.500000" fill="grey" stroke="black" stroke-width="1.0" />
<circle cx="467.195861" cy="131.261519" r="2.500000" fill="grey" stroke="black" stroke-width="1.0" />
<circle cx="501.848170" cy="196.642436" r="2.500000" fill="grey" stroke="black" stroke-width="1.0" />
<circle cx="514.936328" cy="269.472010" r="2.500000" fill="grey" stroke="black" stroke-width="1.0" />
<circle cx="505.216176" cy="342.827075" r="2.500000" fill="grey" stroke="black" stroke-width="1.0" />
<circle cx="473.611712" cy="409.734508" r="2.500000" fill="grey" stroke="black" stroke-width="1.0" />
<circle cx="423.127250" cy="463.834101" r="2.500000" fill="grey" stroke="black" stroke-width="1.0" />
<circle cx="358.561835" cy="499.983154" r="2.500000" fill="grey" stroke="black" stroke-width="1.0" />
<circle cx="286.053046" cy="514.745344" r="3.000000" fill="black" stroke="black" stroke-width="1.0" />
<circle cx="212.493556" cy="506.717380" r="2.500000" fill="grey" stroke="black" stroke-width="1.0" />
<circle cx="144.875918" cy="476.662399" r="2.500000" fill="grey" stroke="black" stroke-width="1.0" />
<circle cx="89.627855" cy="427.437422" r="2.500000" fill="grey" stroke="black" stroke-width="1.0" />
<circle cx="52.001238" cy="363.721769" r="2.500000" fill="grey" stroke="black" stroke-width="1.0" />
<circle cx="35.572848" cy="291.572238" r="2.500000" fill="grey" stroke="black" stroke-width="1.0" />
<circle cx="41.904365" cy="217.847352" r="2.500000" fill="grey" stroke="black" stroke-width="1.0" />
<circle cx="70.393916" cy="149.555389" r="2.500000" fill="grey" stroke="black" stroke-width="1.0" />
<circle cx="118.333289" cy="93.188170" r="2.500000" fill="grey" stroke="black" stroke-width="1.0" />
<circle cx="181.165374" cy="54.103954" r="2.500000" fill="grey" stroke="black" stroke-width="1.0" />
<circle cx="252.917364" cy="36.018082" r="3.000000" fill="black" stroke="black" stroke-width="1.0" />

<circle cx="275" cy="275" r="185" fill="white" stroke="grey" stroke-width="0.5" />
<circle cx="275" cy="275" r="170" fill="none" stroke="black" stroke-width="0.5" />
<circle cx="275" cy="275" r="170" fill="aliceblue" stroke="black" stroke-width="0.5" />
<circle cx="275" cy="275" r="158" fill="white" stroke="none" stroke-width="0.5" />
<circle cx="275" cy="275" r="140" fill="none" stroke="black" stroke-width="0.5" />
<circle cx="275" cy="275" r="140" fill="aliceblue" stroke="black" stroke-width="0.5" />
<circle cx="275" cy="275" r="133" fill="white" stroke="none" stroke-width="0.5" />
<circle cx="275" cy="275" r="110" fill="none" stroke="black" stroke-width="0.5" />
<circle cx="275" cy="275" r="110" fill="white" stroke="black" stroke-width="0.5" />
<circle cx="275" cy="275" r="109" fill="aliceblue" stroke="none" stroke-width="0.5" />
<circle cx="275" cy="275" r="80" fill="none" stroke="black" stroke-width="0.5" />

<g style="fill:none;stroke-linejoin:round;stroke-miterlimit:10">
<path style="stroke:blue;stroke-width:1.0" d="M276.881064,123.070592L277.841971,121.989655L278.793332,121.843519L279.699416,123.227539L280.661698,122.647418L281.671442,121.148642L282.530789,123.069532L283.436317,123.745322L284.405141,123.275071L285.399566,122.525778L286.310236,123.037796L287.171152,124.098459L288.090311,124.347490L289.017761,124.484992L289.964504,124.421993L290.886740,124.609403L291.880922,124.143910L292.844356,123.999087L293.825075,123.741125L294.748930,123.954102L295.604282,124.658579L296.472731,125.220936L297.549705,124.353964L298.385668,125.113386L299.368890,124.917867L300.429038,124.292524L301.142007,125.706802L302.281871,124.680880L303.026701,125.838713L303.866065,126.445096L304.821525,126.445782L305.946331,125.640574L306.828369,126.031850L307.869430,125.689336L308.959058,125.163810L309.625659,126.493689L310.355366,127.499534L311.547555,126.585465L312.333384,127.337871L312.978199,128.607370L314.040084,128.257822L315.178967,127.654657L315.781092,129.013520L316.980593,128.232277L318.085134,127.823053L318.647373,129.254998L321.223209,124.060462L327.755557,106.463297L328.394330,108.055135L325.437149,120.602181L324.308962,127.162899L325.040695,128.007331L326.224966,127.527681L327.324193,127.319264L328.295773,127.484693L327.799457,131.641924L328.794939,131.681256L330.740769,129.246423L331.255967,130.585452L330.845179,134.223127L332.183336,133.413591L333.559862,132.551484L335.083670,131.379697L336.879446,129.621723L338.494648,128.353125L339.144534,129.332181L339.895810,130.065584L339.517048,133.270598L339.713715,135.141364L340.118520,136.522515L340.640174,137.628178L341.529635,137.954279L342.711826,137.689424L344.013955,137.206124L344.171024,139.001871L344.874657,139.698009L346.744432,138.162084L347.876925,138.070182L348.575699,138.797156L348.382381,141.143469L349.373581,141.305718L350.400323,141.413563L351.589814,141.247427L353.332315,140.147385L354.235576,140.516304L354.607025,141.778601L355.671249,141.876345L355.612229,143.813101L357.389698,142.762896L358.675328,142.533780L359.561831,142.948152L360.831443,142.775275L359.279556,146.909434L359.313883,148.568908L360.202217,148.934684L362.655327,147.020091L363.291548,147.787713L365.867186,145.791827L365.602213,147.848900L366.429413,148.354434L368.297429,147.438464L367.014349,150.813655L366.970736,152.465790L366.772415,154.293840L369.369316,152.460294L369.691360,153.604291L369.424133,155.480115L369.924761,156.363823L370.957137,156.583910L372.110842,156.665498L374.596191,155.157700L376.924692,153.889121L378.679816,153.340501L381.823428,151.212383L384.512524,149.673379L385.623981,149.972151L383.829388,153.524182L380.081227,159.158991L377.367027,163.545562L378.585444,163.611135L379.981443,163.502223L380.922347,163.889293L381.304229,164.862126L383.690338,163.776314L384.813646,164.009863L385.939940,164.251350L385.037485,166.504058L383.855907,168.990148L384.648618,169.532899L384.985987,170.511564L386.352592,170.517198L388.269634,170.029483L387.572361,171.963788L387.963441,172.883866L388.215976,173.922209L389.075335,174.417196L389.382487,175.398240L391.272631,175.011251L392.569537,175.155441L391.920169,176.946318L391.802948,178.269998L393.230569,178.315415L393.099562,179.636530L394.576443,179.660907L395.265117,180.323742L397.133719,180.071534L399.331314,179.592310L397.676795,182.062970L396.298708,184.283435L396.864143,185.031606L397.702251,185.581230L398.637909,186.066079L401.455982,185.221729L401.002248,186.712020L400.450688,188.251489L401.214739,188.873282L402.297912,189.284384L401.922514,190.674484L402.600572,191.358027L407.354356,189.408704L406.158635,191.328968L405.064772,193.155282L405.135678,194.231012L407.077820,194.153981L405.448310,196.257446L405.329212,197.426127L406.950291,197.563514L409.513926,197.174575L409.204576,198.458602L408.012553,200.225977L408.128908,201.241493L408.056512,202.354555L408.426023,203.221494L410.464625,203.202605L411.490537,203.737728L411.397442,204.857516L411.833974,205.700819L413.798400,205.782290L416.751601,205.402034L420.624286,204.616130L428.032555,202.200809L433.974747,200.577467L438.892317,199.508827L429.178581,205.136883L419.425443,210.631070L416.935442,212.791231L415.241810,214.565774L414.618892,215.856396L415.356119,216.566312L415.052392,217.707515L415.479560,218.545476L416.497025,219.151565L419.364759,219.050179L419.575457,219.995585L420.077431,220.830392L418.046306,222.595541L417.801726,223.685631L418.929889,224.284153L421.523552,224.387794L421.513513,225.404407L421.971853,226.261321L421.918141,227.286681L421.235631,228.507177L421.365494,229.461691L421.263940,230.484572L421.318734,231.455822L420.595583,232.650458L420.773800,233.575721L420.776019,234.548774L421.161739,235.414653L423.031163,235.890409L421.591700,237.240043L422.560059,237.963235L425.899677,238.116562L430.153159,238.093332L429.134008,239.342535L424.501887,241.387859L423.077024,242.669972L426.253607,242.956165L426.868873,243.806970L424.089840,245.338520L424.337872,246.249156L426.890433,246.731797L428.859460,247.349766L424.979745,249.004459L424.536757,250.033832L428.903409,250.283174L429.338748,251.192460L433.881850,251.497766L436.433318,252.140734L438.113167,252.932064L442.154045,253.438296L440.427753,254.701370L442.323339,255.519493L433.495594,257.541107L431.502392,258.740680L430.692875,259.798474L429.637515,260.867440L430.629196,261.747826L431.293239,262.665415L435.346824,263.343930L440.620528,263.990901L442.064121,264.933400L438.561737,266.160368L433.464606,267.419451L429.195401,268.580223L429.808677,269.514543L430.657731,270.449153L432.186866,271.378265L434.622256,272.310776L432.625140,273.320474L430.153337,274.307431L427.945816,275.264184L427.688841,276.209068L428.194669,277.161627L426.910214,278.084267L427.079555,279.029755L426.898964,279.966209L426.605072,280.896400L426.210023,281.818837L426.557910,282.775010L426.183155,283.694539L426.658693,284.664266L431.207258,285.925527L434.291795,287.132716L435.554281,288.229125L436.789363,289.339864L433.181153,290.007612L429.032947,290.576833L426.978238,291.320181L425.677813,292.124785L425.157372,293.007950L425.058406,293.939173L425.012850,294.877704L425.139337,295.841093L426.724778,297.019441L426.466712,297.940349L425.620378,298.766963L425.020739,299.625197L424.398614,300.473911L424.361300,301.420154L424.284797,302.360825L423.969296,303.257352L423.626048,304.146633L423.491529,305.076099L425.226638,306.396978L425.483315,307.424238L423.974604,308.065589L423.193459,308.856218L422.521102,309.664963L422.574781,310.643085L422.051237,311.481599L422.894676,312.664330L421.877076,313.375018L421.215454,314.170753L421.135254,315.120553L422.484813,316.474659L422.864260,317.570927L421.322865,318.109895L420.383779,318.813226L425.518352,321.379004L429.512589,323.659175L428.322620,324.329847L424.718464,324.195169L419.353304,323.424480L418.099689,323.991641L418.284059,325.047932L420.548728,326.852203L419.249691,327.398055L418.627355,328.180807L417.661051,328.829644L418.544820,330.180722L417.570809,330.821825L419.116606,332.458589L418.350887,333.184424L417.068333,333.690898L416.326840,334.411501L414.483850,334.655562L414.732889,335.788135L413.685553,336.356384L413.572873,337.335193L414.423684,338.758676L412.315108,338.825258L411.789368,339.613708L411.620330,340.571454L412.747847,342.165002L411.814009,342.761255L410.565465,343.191276L410.035100,343.975318L409.776371,344.898625L410.664252,346.428366L412.338371,348.399341L412.408244,349.534013L410.770668,349.737305L409.948578,350.377140L410.796560,351.957654L412.492049,354.047083L411.048432,354.341819L409.641836,354.642650L406.177091,353.693522L404.241535,353.624544L403.881903,354.503125L403.246601,355.211554L403.343052,356.381594L404.508658,358.249319L402.175266,357.866537L401.403053,358.482721L401.716787,359.821273L403.473997,362.154091L403.977371,363.666477L407.469939,367.280364L405.997071,367.464145L402.888734,366.461590L398.037284,364.148461L397.263145,364.747087L397.279903,365.929676L400.852541,369.801979L398.855169,369.504942L396.826592,369.156118L395.028150,368.958852L394.292963,369.580279L393.134718,369.858984L392.397165,370.468171L391.743284,371.143252L391.985273,372.564258L392.065611,373.866505L390.164682,373.489060L389.363091,374.035935L388.848258,374.830176L389.527268,376.686671L388.560481,377.092546L388.676918,378.476956L392.936939,383.697474L399.004953,390.718134L400.701950,393.766121L401.501149,396.012270L397.036105,393.196523L391.913288,389.646165L390.158150,389.332138L389.149309,389.742535L388.571225,390.583894L389.410169,392.888831L388.905577,393.832174L386.164801,392.419491L384.525297,392.131804L384.198451,393.241206L383.799808,394.282794L380.779632,392.423545L377.334534,390.023298L376.398726,390.402287L374.909518,390.137239L376.146372,393.030938L376.684720,395.156783L373.749946,393.164721L373.455441,394.305721L373.257169,395.578390L373.222255,397.071095L373.110644,398.489975L372.105001,398.790032L369.104255,396.506261L367.755124,396.308265L366.559613,396.293701L365.571243,396.541945L365.365712,397.846226L364.290214,397.971947L363.461187,398.430303L362.453379,398.633547L361.703982,399.197949L361.282196,400.238616L361.689943,402.513054L361.453649,403.874336L359.198748,402.208295L357.785824,401.771948L357.294917,402.740770L356.982588,404.003256L356.197984,404.533268L355.164402,404.661333L353.761124,404.172739L353.262626,405.161339L352.770299,406.174681L352.823678,408.136817L352.514189,409.511936L352.639189,411.677935L351.850826,412.261892L349.832028,410.619103L348.269042,409.752054L347.411398,410.162036L346.119070,409.747277L345.460442,410.525353L345.806836,413.276611L344.225592,412.276972L343.218242,412.388455L341.845392,411.742438L340.832425,411.810527L339.883461,412.002826L338.994365,412.316778L338.505761,413.501469L337.505150,413.577311L336.973338,414.699463L335.605920,413.931182L334.838144,414.521763L333.975454,414.894851L333.762818,416.837273L332.528684,416.326517L331.301895,415.802836L330.296625,415.811347L329.411711,416.119631L328.627326,416.692456L328.036267,417.794972L327.013583,417.742899L327.047003,420.631198L328.671250,428.161488L325.965437,423.376914L324.093657,420.860542L322.901286,420.286935L322.176319,421.124063L322.437374,425.104815L320.992170,423.730226L319.702601,422.795768L318.651051,422.610841L318.010033,423.825248L319.586024,432.938077L319.562162,436.675132L318.980150,438.508542L316.943034,434.874536L314.435625,429.200110L313.169896,428.195826L312.151012,428.141816L311.232633,428.497821L310.172229,428.242529L308.437620,424.936413L307.379466,424.543588L306.553163,425.217938L305.958841,427.062143L306.122011,432.856578L304.507457,429.708172L303.778808,431.134166L302.657249,430.441683L301.236336,427.939856L301.360179,434.584375L301.298791,440.581723L300.393105,441.527900L298.212823,433.821712L297.806324,438.090073L297.262067,441.716972L295.832422,438.730843L296.090553,449.375029L294.112279,441.668523L293.422342,444.941050L291.631046,437.818595L290.345703,435.029657L288.627419,427.009414L287.686385,427.094677L286.666064,426.153738L285.708694,425.922121L284.967870,428.978338L284.416115,435.901589L283.418125,435.924927L282.264581,432.566603L281.189104,430.106384L280.144270,427.635975L279.202287,427.777083L278.293443,429.540108L277.365728,431.482815L276.424492,434.585939L275.424324,430.151516L274.469193,428.582746L273.527287,427.652358L272.591094,427.081618L271.658842,426.644415L270.706059,427.117329L269.781429,426.592667L268.812459,427.309681L267.904479,426.524208L266.947715,426.832093L265.874006,429.038945L264.990176,427.915477L264.098911,427.079878L263.242422,425.920610L262.205818,427.062920L260.972160,430.217080L260.116373,429.041630L259.176809,428.812167L258.487257,426.306907L257.623525,425.571870L256.660015,425.721530L255.777778,425.210243L254.727515,425.987159L253.835958,425.554177L252.631110,427.279926L251.319841,429.546322L250.423448,429.021053L248.724661,433.360324L247.395072,435.224248L246.095602,436.774393L243.125236,447.233764L241.355192,450.711652L240.592367,448.860996L238.241146,454.886586L239.448215,443.649792L236.781157,450.899069L234.751116,454.867802L236.213272,443.433338L235.090718,443.530026L238.190322,426.258532L238.024488,422.947193L237.325171,421.873701L236.077675,422.925727L234.977684,423.367476L233.586339,424.830174L233.059504,423.157982L231.955156,423.543933L230.884838,423.785576L229.740187,424.249474L228.672910,424.431347L228.945443,420.364231L228.373445,419.065747L226.708235,421.116798L225.233072,422.508884L225.307161,419.333053L224.864899,417.740434L223.168618,419.698470L222.313024,419.267359L221.139654,419.693895L220.243060,419.362486L219.491284,418.656009L218.447853,418.703776L217.586685,418.282480L216.391590,418.682146L215.089676,419.312590L213.915519,419.606184L213.207605,418.792011L213.017621,416.807367L212.286966,416.092249L211.998322,414.409775L210.871636,414.593487L210.525124,413.087627L208.860732,414.394497L208.363557,413.226160L206.306229,415.267077L205.405748,414.906257L205.979084,411.625896L205.002907,411.452604L204.883663,409.626157L204.217950,408.874736L203.005542,409.151249L201.116629,410.648665L199.492877,411.609559L198.381970,411.614848L198.514333,409.421404L198.193981,408.061097L197.764521,406.912084L197.296125,405.847420L195.807738,406.492600L194.437955,406.912207L194.594748,404.841430L193.526043,404.765448L193.640918,402.818396L192.568874,402.749720L190.784156,403.758820L188.242830,405.868406L189.446834,402.333400L189.238099,400.952508L188.741319,400.011394L188.129469,399.245499L187.419594,398.623906L186.576615,398.189806L185.604704,397.930081L184.774483,397.470482L181.178792,400.713885L178.110962,403.161525L176.208270,404.010193L170.659396,409.522775L170.012712,408.639820L170.203293,406.710437L164.636837,411.957508L170.700086,402.805526L176.660120,393.990761L177.583692,391.398162L176.576739,391.132881L175.178054,391.315528L175.251315,389.784541L174.988080,388.658525L174.120272,388.223557L173.452604,387.562071L171.636279,388.158901L170.661544,387.815391L168.665489,388.555134L168.313305,387.526748L169.373042,385.036510L168.619663,384.456776L166.754926,385.004534L165.151126,385.260583L161.710893,387.314364L160.661819,386.959340L162.528534,383.775705L163.781503,381.239214L161.670486,381.921754L161.903746,380.385923L160.640533,380.247824L158.840551,380.583635L160.212060,378.046441L160.035028,376.927108L156.915529,378.394226L158.449817,375.782898L157.721214,375.150682L158.258556,373.448565L158.660575,371.883441L157.665448,371.488246L156.970934,370.840694L156.189678,370.260613L155.251600,369.800788L155.844955,368.136853L155.001398,367.605148L154.480707,366.822117L152.746227,366.952971L152.779543,365.748646L151.525731,365.499141L151.604674,364.272233L146.507394,366.753454L145.015590,366.608969L144.099688,366.046783L145.523337,363.872267L148.286894,360.826152L147.998445,359.879311L147.772221,358.895683L147.316152,358.066793L146.963836,357.172342L147.146865,355.941708L146.436066,355.281086L144.762048,355.210006L144.300151,354.382615L141.690818,354.841874L139.354895,355.104089L140.777584,353.147229L139.937231,352.520878L139.925246,351.419937L138.741754,350.979785L135.977221,351.396882L134.817682,350.907942L137.516271,348.349591L139.967214,345.971549L140.163067,344.806670L139.841769,343.915340L139.512509,343.029652L139.368788,342.053661L138.036794,341.660187L138.312152,340.482604L137.649288,339.757736L136.596562,339.209773L136.418725,338.252626L136.031648,337.392619L134.322928,337.116174L132.299351,336.956839L134.493086,334.973272L133.916558,334.189477L128.217759,335.514397L130.599280,333.489267L134.195004,331.020601L133.708215,330.203542L132.488002,329.665746L132.960481,328.478123L132.067512,327.806325L132.247953,326.737526L131.406643,326.038914L130.599691,325.321002L128.900935,324.900811L128.427195,324.051444L130.390088,322.401043L130.314659,321.435768L129.445431,320.722743L127.747089,320.256564L126.483389,319.640523L119.773628,320.611411L107.960347,322.961189L92.084932,326.295777L90.034333,325.637774L97.012358,322.544881L108.262938,318.435451L118.705228,314.683565L126.451075,311.739441L127.258934,310.570491L126.985856,309.668188L126.668577,308.775186L126.444389,307.860184L124.675633,307.276551L122.774108,306.700244L121.084185,306.059206L121.109396,305.063804L119.680259,304.345900L117.330778,303.779993L121.038240,302.119412L124.007872,300.633564L124.424497,299.604743L125.174364,298.530817L125.115517,297.590140L123.852203,296.824404L122.475019,296.060130L123.854896,294.916817L123.363697,294.027222L123.216711,293.091902L123.500233,292.107529L123.549396,291.153035L123.519215,290.208376L122.022250,289.402612L122.251528,288.427514L120.036868,287.655913L114.750096,287.089446L112.468276,286.250081L121.365872,284.678894L123.569214,283.599203L119.979781,282.840529L119.735378,281.889470L117.387894,281.016185L117.548388,280.034067L121.012114,278.969180L120.340283,278.028497L122.162098,277.046336L119.097787,276.122061L119.115336,275.156827L122.716789,274.210405L123.278201,273.273932L122.807726,272.326150L122.197331,271.369011L123.734284,270.468362L123.107049,269.508164L123.879938,268.599073L123.452855,267.640806L123.236332,266.688206L121.757041,265.655273L118.770057,264.501925L115.289140,263.274353L116.169649,262.349910L119.556798,261.650730L122.939579,260.992366L123.274390,260.075345L123.968835,259.198980L123.576840,258.209614L123.409172,257.240313L124.525837,256.426060L123.271423,255.316808L124.431175,254.518618L125.332481,253.696669L125.220200,252.733760L125.505398,251.829293L125.331703,250.852585L123.991567,249.676161L123.381858,248.607826L121.474380,247.295438L117.626821,245.593955L116.781545,244.421085L116.665240,243.380502L124.161037,243.905108L126.777188,243.486532L121.142631,241.291656L123.456075,240.813907L124.811746,240.141208L126.863729,239.649547L127.531379,238.842456L127.076956,237.758695L126.825272,236.718293L123.692800,234.908114L125.166681,234.304252L124.871498,233.224367L124.958497,232.245995L129.008167,232.420970L129.049896,231.450911L130.016101,230.759871L130.032137,229.781826L130.188302,228.844859L127.801801,227.078336L129.488078,226.628941L130.243800,225.882869L130.866908,225.097118L131.649655,224.372104L130.020299,222.784896L128.834586,221.333265L128.997860,220.365102L129.688357,219.595489L131.958996,219.444513L132.500753,218.637168L134.013503,218.223609L134.369123,217.352429L134.129790,216.233034L135.375714,215.735299L134.934143,214.521777L132.929603,212.609890L134.841048,212.411390L134.119287,211.040047L130.894152,208.496730L131.505650,207.698248L133.752785,207.682246L136.861041,208.111024L138.610682,207.912707L138.996553,207.053579L138.645295,205.819927L138.556804,204.709506L140.662009,204.738231L140.453612,203.564928L141.197543,202.894502L140.949382,201.686244L141.938015,201.153089L143.078401,200.713996L143.667077,199.970814L144.054065,199.112786L143.919867,197.947019L143.630330,196.678456L143.314820,195.381191L144.090973,194.739556L145.062822,194.224334L146.016109,193.705512L146.966274,193.192480L147.833897,192.633721L146.387250,190.561862L143.570011,187.543078L146.307378,188.210291L146.451802,187.145014L148.562527,187.434265L149.639364,187.026711L151.302495,187.045873L151.793605,186.241559L150.770790,184.331207L152.034569,184.081459L151.775679,182.704651L148.748329,179.211330L146.359761,176.138286L142.208926,171.634379L149.854334,176.335347L152.174941,176.925777L150.549973,174.360259L151.356860,173.740312L151.185377,172.312663L154.010425,173.384831L158.370192,175.808619L159.638351,175.649824L160.400649,175.063979L159.674277,173.166760L160.028483,172.205768L162.309730,172.983013L163.493555,172.791511L163.267855,171.304423L163.130636,169.880480L163.630006,169.043807L163.731039,167.819739L164.074255,166.818434L165.502184,166.880301L167.916050,167.946376L168.169279,166.868868L167.730377,165.071639L168.172413,164.160016L168.723748,163.356933L168.118150,161.319684L169.062172,160.916648L170.794298,161.379280L172.338210,161.662005L173.901318,161.989329L174.862200,161.659075L175.364337,160.810388L175.452188,159.475054L175.571420,158.158367L175.900309,157.073355L176.503829,156.307283L177.823301,156.410932L178.551382,155.801737L179.213904,155.110177L178.493163,152.662582L177.741971,150.128172L178.317154,149.268659L180.491999,150.509524L182.161022,151.123016L184.100704,152.133411L183.537518,149.757832L185.004153,150.150527L185.861585,149.712085L186.900566,149.535201L188.820993,150.640115L189.437970,149.882911L190.164547,149.281998L190.998022,148.839583L191.871917,148.460809L192.668242,147.966065L192.179291,145.461454L192.717267,144.530074L194.532910,145.640934L195.652687,145.662562L195.232169,143.152704L196.281529,143.049544L197.930501,143.976729L198.015022,142.246524L198.506913,141.192636L198.252551,138.797465L197.046494,134.632211L197.689826,133.737185L201.735954,139.139845L203.753446,140.900401L203.320790,138.046382L203.417459,136.145388L204.487062,136.115711L206.588573,138.162739L208.084099,139.056356L208.905626,138.600558L209.866826,138.436114L210.404493,137.377053L210.617451,135.593336L210.291803,132.578358L212.945300,136.142319L214.036270,136.284392L213.801961,133.377305L212.439856,127.727828L215.232734,131.846098L216.427003,132.226793L217.624759,132.642822L218.228031,131.585135L218.527210,129.719120L219.780298,130.296200L221.314944,131.659848L222.708612,132.705031L223.551824,132.276556L224.627707,132.501930L225.441738,131.993292L226.263438,131.498993L227.066674,130.941210L227.667392,129.750944L228.733886,129.982103L229.567229,129.489147L229.902451,127.355984L231.277887,128.621361L232.464326,129.310358L233.560845,129.728989L234.073822,128.085305L235.153395,128.457156L236.071247,128.250370L236.727572,127.034244L237.470071,126.108674L238.837115,127.690011L239.852965,127.900703L240.389716,126.073979L240.736302,123.312221L242.181804,125.408288L242.806583,123.789631L244.133793,125.484546L244.809273,124.042472L245.999273,125.175036L247.018958,125.487611L247.807011,124.553120L248.531388,123.197242L248.874839,119.483279L249.123303,114.901820L249.153700,108.554284L250.837759,112.782158L252.099359,114.436503L253.006171,113.654615L254.606238,118.142229L255.625975,118.408866L256.945102,121.266137L258.088328,122.876403L258.584087,118.519788L259.105422,113.882484L260.750651,120.793809L261.925856,123.264602L262.945333,124.185335L263.804415,123.098127L264.744702,123.026502L265.612200,121.765091L266.575362,121.969740L267.591316,123.320509L268.535884,123.403655L269.474579,123.367567L270.412076,123.291127L271.352250,123.301181L272.299057,123.705538L273.230410,123.231668L274.169241,123.077182L275.109720,123.201860L276.048769,123.311316Z" />
<line x1="50" y1="575" x2="100" y2="575" fill="none" stroke="blue" stroke-width="1.0" stroke-linejoin="round" stroke-miterlimit="10" />
<text x="125" y="578" style="text-anchor:start;fill:black">n1_4mer:GRV/n1_4mer:RV</text>
<path style="stroke:green;stroke-width:1.0" d="M276.131299,183.627445L276.846811,175.568614L277.405811,177.864926L277.985926,178.566456L278.578851,178.695461L279.257763,176.810946L279.728466,179.605198L280.238421,181.080382L280.789725,181.599416L281.568642,178.693240L281.937137,181.793939L282.325201,184.179991L282.759931,185.693257L283.336882,185.483144L284.040406,184.032309L284.549721,184.598301L285.233374,183.549619L285.691720,184.525483L286.665751,181.266068L286.642895,185.951555L287.593136,183.112793L288.231729,182.704524L288.871564,182.329338L289.506490,182.023023L290.340943,180.518818L290.133706,185.308731L290.503630,186.461026L292.120843,180.666663L292.557938,181.554661L292.204079,186.461773L294.056776,180.069761L294.883876,179.032427L294.501351,183.726703L295.741725,180.779909L296.682793,179.329884L296.504252,182.770214L296.046546,187.195073L296.702420,186.869490L297.821604,184.735304L298.558406,184.190612L298.508788,186.636186L299.532215,185.034829L301.434586,180.370553L301.701932,181.647774L302.895508,179.710157L302.193311,184.197531L301.285950,189.164565L301.089177,191.653636L301.664304,191.630311L303.683741,187.193551L306.933517,179.257597L308.324682,177.109996L309.579494,175.448579L309.608024,177.321696L306.619194,187.482457L307.083989,187.887381L308.974218,184.486982L311.492984,179.576434L311.022559,182.526580L309.088184,189.069074L308.906858,191.046340L312.283081,184.307855L314.519821,180.534255L315.536897,179.763462L316.703281,178.682341L316.013241,181.861754L315.898763,183.659153L315.096824,186.916323L314.877234,188.817718L316.721187,186.278004L316.614843,187.908414L316.524763,189.462313L319.254724,185.257306L318.764071,187.620268L317.516257,191.408187L318.513653,190.742213L318.544646,191.947442L320.577113,189.364310L320.515480,190.742047L320.117929,192.700552L320.161363,193.817732L319.421206,196.299134L320.192194,196.078641L323.092378,192.206801L323.462343,192.746608L325.962047,189.715628L326.507852,190.001768L325.289038,193.160520L330.330021,186.194216L331.426608,185.671167L332.172087,185.720007L332.405964,186.565184L327.961281,194.507876L325.608783,199.110674L326.631777,198.605553L328.236480,197.272836L329.506194,196.466349L333.919901,191.219121L333.499283,192.902135L333.208645,194.370949L332.679540,196.137261L332.512801,197.378361L330.283151,201.345297L332.065394,199.943192L337.896814,193.327721L337.910762,194.347483L334.361837,199.861159L332.235098,203.468051L332.743038,203.742092L333.981031,203.128612L339.195248,197.755016L343.630813,193.450202L342.234612,196.105867L348.609163,189.701268L351.454222,187.505448L350.899114,189.218392L347.249076,194.355280L343.229200,199.784479L335.923078,208.668608L336.539923,208.824079L339.497941,206.498588L338.442597,208.449815L338.964158,208.729105L338.458629,210.062281L339.379537,209.930731L339.552828,210.558478L341.279863,209.648669L339.779656,211.914019L340.289155,212.200687L340.358705,212.908191L342.713855,211.463686L344.294361,210.782746L343.468617,212.331448L342.752784,213.753173L343.176634,214.132764L344.128567,214.047778L345.898790,213.262889L350.512175,210.063240L349.849006,211.435354L346.497100,215.039824L344.694911,217.282374L347.918715,215.369773L347.547589,216.419006L346.647622,217.874875L347.062571,218.270212L348.874905,217.580710L350.968803,216.704082L347.673217,219.944495L349.237678,219.479317L349.518743,219.985199L351.246502,219.435669L351.839167,219.728858L356.374051,217.227948L355.964244,218.269507L351.167878,222.330301L351.016421,223.127731L351.065495,223.781558L350.873896,224.590461L356.608089,221.506027L361.734831,218.910070L357.713413,222.233999L353.227879,225.774229L349.964621,228.473047L354.616668,226.265923L353.321746,227.722620L355.002169,227.381527L356.636617,227.090650L358.983637,226.409772L359.452883,226.833671L355.973481,229.480139L356.050815,230.094748L354.224253,231.745588L354.081914,232.456712L357.911739,231.056078L361.858200,229.650976L360.641539,230.958777L363.276469,230.292631L362.095057,231.566355L361.805880,232.379581L360.671231,233.592945L359.521665,234.792158L360.487937,234.979626L361.063305,235.357996L358.114313,237.338316L357.240035,238.346464L359.679818,237.885752L360.300785,238.241441L359.118189,239.366908L358.928915,240.058338L358.039833,241.030153L361.638897,240.182424L365.362779,239.334093L366.328817,239.604721L367.860729,239.670697L367.717710,240.380680L361.065071,243.470395L365.969653,242.310967L365.124121,243.243419L368.940530,242.551036L367.203129,243.788757L366.733991,244.579253L368.578875,244.609208L363.911673,246.732233L363.323506,247.520141L363.644526,248.021040L363.431156,248.683056L363.877801,249.148020L365.026406,249.417358L365.217992,249.965510L364.919903,250.646769L363.113368,251.720592L364.631837,251.912101L367.772054,251.714723L372.220887,251.236923L378.019089,250.494593L376.607858,251.493970L368.932022,253.881495L362.169302,255.968108L368.877789,255.111520L368.938757,255.705497L362.489953,257.593841L366.639643,257.357341L371.789728,256.986544L372.281141,257.517511L368.790885,258.743506L366.862486,259.662940L362.786124,260.901583L361.535450,261.651465L365.195119,261.658093L368.793283,261.718692L371.197832,261.985186L372.987826,262.360255L373.456371,262.919020L371.638985,263.748871L368.946827,264.651400L366.957581,265.446359L372.220908,265.507554L372.620747,266.078290L374.461955,266.530592L369.276316,267.559760L367.274291,268.292317L368.540177,268.782214L366.771340,269.470235L369.362870,269.900194L369.273150,270.490209L372.403094,270.944716L372.879159,271.531771L375.706836,272.055710L372.276790,272.758650L368.051921,273.432315L366.678844,274.023145L366.008914,274.593757L365.277461,275.155937L370.896774,275.759360L369.164965,276.328698L367.890113,276.885969L365.227801,277.390827L366.772758,278.000433L366.299656,278.550932L365.399593,279.076582L365.010610,279.617597L366.460427,280.259887L368.781129,280.976089L375.746610,282.046470L387.151500,283.542199L386.236659,284.165521L382.899247,284.563426L383.624663,285.305885L374.355032,285.047440L370.510164,285.256358L364.963063,285.224452L363.832709,285.653456L364.430375,286.287188L367.330580,287.234418L369.680212,288.142719L373.030073,289.226861L370.044240,289.394899L368.453039,289.746311L367.319044,290.153736L366.119306,290.536725L364.732796,290.872614L366.893327,291.842152L365.341379,292.136472L367.289573,293.098647L366.166778,293.465303L365.078502,293.826173L368.053745,295.050042L364.994201,294.974621L366.193999,295.834144L367.354794,296.701814L367.468841,297.333590L363.493936,296.954255L365.945221,298.161015L364.684815,298.432223L361.768413,298.245040L363.517420,299.301924L365.155396,300.352877L366.776718,301.423018L365.470882,301.654688L362.090262,301.245743L359.494268,301.035098L360.614191,301.961660L362.519486,303.158421L369.406581,306.020540L366.807059,305.797418L364.978780,305.805155L364.314087,306.196669L367.766094,308.048220L364.759108,307.604594L362.825270,307.519005L363.565093,308.417863L364.124558,309.260780L364.528435,310.053744L363.050396,310.105264L363.365413,310.866473L363.660958,311.627383L357.838637,309.824013L360.631020,311.623355L358.960043,311.525220L358.178710,311.799398L356.600522,311.706927L360.604457,314.147057L358.973284,314.031514L357.838518,314.129531L358.012980,314.842400L362.267552,317.551121L362.743057,318.457389L363.544200,319.538939L363.044022,319.972488L360.591854,319.390221L359.250515,319.358603L361.506260,321.232545L363.493402,323.001256L365.763548,324.962360L365.066403,325.307665L364.917212,325.957238L362.830764,325.495761L357.888414,323.339532L358.298898,324.272538L352.984559,321.783166L353.885711,322.990401L356.119968,325.040314L351.779555,323.021603L351.698135,323.633848L355.356530,326.653893L351.837194,325.066592L353.470663,326.825841L353.639311,327.639328L354.388829,328.855733L354.490005,329.646010L352.139514,328.736437L349.998866,327.937871L349.610721,328.359002L349.076406,328.673142L349.256990,329.508237L354.354628,334.009620L360.047724,339.064599L355.998253,336.803922L350.609215,333.436094L347.505827,331.758054L346.340680,331.561772L347.376926,333.116714L343.449684,330.663747L343.828474,331.683289L344.745647,333.166999L342.478861,331.988548L344.391995,334.344169L344.996041,335.615040L344.371414,335.829745L343.204696,335.557705L344.769359,337.723682L345.765577,339.415949L351.565275,345.566966L359.244481,353.614715L361.203924,356.447469L361.208808,357.468212L358.410450,355.786134L355.400790,353.841699L354.275761,353.707128L355.116358,355.532717L354.105591,355.507471L355.355137,357.798350L354.780792,358.231438L353.052813,357.444456L353.330671,358.770718L353.186821,359.661495L351.307878,358.660229L348.238578,356.300466L344.257018,352.844402L341.242354,350.390682L341.316005,351.423567L345.868049,357.698194L344.364190,356.964901L334.408777,346.088864L335.993252,348.910022L337.061836,351.160511L338.127558,353.455235L339.241597,355.859659L340.431138,358.412003L335.270145,352.820072L334.355656,352.627319L332.048177,350.574637L329.846433,348.601089L330.401389,350.314534L327.352732,347.101041L327.211533,347.850993L326.365967,347.616482L326.440379,348.685076L329.146137,353.593123L331.232523,357.712948L331.745226,359.588718L327.485092,354.294992L324.951736,351.492309L326.442325,354.850401L328.735031,359.554465L323.183653,351.866268L323.002314,352.640995L321.805511,351.763709L321.938303,353.064750L323.587417,356.952095L322.614481,356.456449L322.058595,356.661729L321.131382,356.210817L320.374490,356.042568L319.835109,356.255279L318.245515,354.534573L317.094955,353.573816L319.094921,358.545390L318.026722,357.758659L317.525103,358.046037L319.747280,363.735552L317.285122,360.160325L315.426207,357.697968L315.444705,359.050701L313.756833,356.835889L312.502218,355.470893L313.573058,359.125048L313.577612,360.528661L313.804372,362.472293L312.533051,361.039634L311.438150,359.961106L310.535487,359.293234L311.414241,362.893958L309.884029,360.697046L308.363610,358.437528L307.504562,357.771981L307.193629,358.495868L307.288131,360.310698L307.630199,362.853625L306.072988,360.274810L305.516398,360.387040L305.621329,362.383998L304.408535,360.617782L304.468791,362.553751L303.649234,361.894521L304.327986,365.840587L305.943106,372.912443L304.749485,371.204368L303.074494,367.819911L301.044781,363.073297L299.423184,359.510198L298.877847,359.583035L298.716861,361.046693L297.566979,358.899073L297.405871,360.404604L297.200927,361.809461L297.089857,363.658189L296.818289,364.938127L296.077857,364.295337L295.884664,365.992776L295.257017,365.833754L294.919802,366.999003L294.474292,367.712990L293.493514,365.835550L292.388097,363.195635L291.680791,362.457710L290.768431,360.548743L290.395339,361.526226L289.918196,361.962858L289.435054,362.389733L289.158714,364.145708L288.681402,364.722590L288.083204,364.515044L287.490110,364.317900L286.581867,361.734705L286.237746,363.322211L285.805635,364.340135L285.352673,365.280431L284.732605,364.780607L284.158169,364.658835L283.702567,365.753013L283.421490,368.938977L282.849696,369.108521L282.418383,371.117787L281.600739,368.026985L281.155816,370.091759L280.459618,368.293374L279.797099,366.703658L279.220421,366.539685L278.593495,365.057310L278.025258,364.762646L277.584198,368.950311L276.973462,367.601865L276.400892,367.663051L275.828741,367.843935L275.249120,366.089227L274.685883,365.886032L274.121709,366.038208L273.523089,368.241924L272.918548,369.470400L272.421990,366.328680L271.819709,367.383298L271.302118,366.025361L270.678966,367.275283L270.089343,367.594263L269.209409,372.740207L268.608199,372.644610L268.061597,371.796888L267.776102,367.726162L267.213417,367.546014L266.408309,370.066470L265.763092,370.599573L265.045661,371.762938L265.130283,365.436605L264.162910,368.906327L263.972743,365.624121L263.426624,365.439057L262.944116,364.790850L262.621578,363.056104L261.682601,365.660402L260.921738,366.880450L260.843821,363.716660L259.635061,367.603818L260.080016,361.598423L259.442798,362.071765L258.766169,362.718731L258.155243,362.972566L257.597556,362.934157L257.288625,361.674051L256.906391,360.832072L256.392283,360.640481L256.064287,359.621603L255.222700,360.883929L254.825855,360.191943L252.552863,367.239899L252.048154,366.835407L250.427163,370.796147L249.550465,371.721893L248.725570,372.402429L247.742561,373.614482L247.731871,371.326732L247.463929,370.024534L246.936956,369.647193L246.407285,369.287790L245.525693,370.071486L247.034227,363.269725L246.622226,362.681047L244.807063,366.355025L243.699745,367.773773L245.124967,361.772156L245.094052,360.145694L243.309654,363.470430L242.219135,364.760489L242.666840,361.861878L241.024122,364.574804L240.646595,363.906275L239.999932,363.938124L239.215386,364.305210L238.112812,365.431224L236.497384,367.745488L235.826608,367.735744L234.043883,370.305618L234.081796,368.615362L233.847527,367.585139L234.929128,363.668612L234.458121,363.250843L235.505918,359.585569L236.706254,355.707536L235.742962,356.432162L233.669175,359.394174L234.064479,357.293227L234.466198,355.236069L232.362067,358.118553L232.734069,356.152270L233.725143,353.065845L231.315972,356.398861L227.489082,362.229272L224.964967,365.524754L225.050907,364.062428L226.411464,360.392982L226.947454,358.247701L225.705865,359.190480L226.094365,357.353372L224.317502,359.154352L223.130543,359.930995L224.601955,356.384662L223.869697,356.436411L225.610761,352.592484L226.149381,350.707481L226.747108,348.774544L225.205718,350.111927L223.593401,351.511219L222.930970,351.470145L223.152313,350.140861L222.295537,350.379905L221.955597,349.874696L222.215959,348.537739L219.676681,351.076711L219.989360,349.670445L220.935197,347.443070L221.526087,345.733473L219.786720,347.101944L218.743776,347.529227L219.292324,345.911097L219.450210,344.816002L218.762031,344.789700L217.043006,346.018507L215.680753,346.775991L214.788514,346.943870L213.746636,347.274883L211.475523,349.020627L215.426733,343.553186L216.294147,341.716254L215.018952,342.320439L212.889079,343.847989L210.481362,345.632695L208.521802,346.879192L208.568651,345.942356L206.429808,347.323740L209.696015,343.030196L206.979607,344.987491L206.423039,344.691639L206.461075,343.795806L201.773555,347.596402L201.467963,347.002181L204.421345,343.259473L205.035468,341.832200L206.392230,339.728621L208.435283,337.026671L206.636253,337.916834L207.371960,336.470801L204.254811,338.508762L204.033862,337.918062L202.677542,338.325215L204.466712,335.991317L205.449446,334.392970L204.805969,334.194930L203.630262,334.434244L204.274398,333.160100L203.684936,332.908492L201.181274,334.186921L201.609199,333.101033L203.924067,330.556092L203.300250,330.332028L201.843200,330.737236L203.243473,328.971551L201.339124,329.693175L198.934896,330.751102L198.917192,330.043269L193.090919,333.489288L191.400012,333.918671L194.218014,331.187337L198.486090,327.518844L200.038182,325.773630L202.226701,323.636786L198.468069,325.466169L198.345485,324.868835L198.852739,323.870558L198.000352,323.747205L197.337224,323.496120L194.384096,324.649138L193.043466,324.777594L189.639519,326.124316L190.570025,324.859420L194.141130,322.077804L190.826848,323.312179L187.292382,324.621490L188.104433,323.454362L184.257622,324.865460L181.126470,325.831992L188.812217,320.982450L191.298284,318.992579L191.307588,318.328548L195.074363,315.752993L192.355132,316.496831L194.478412,314.808442L191.746623,315.519537L191.340445,315.078512L190.398831,314.887527L190.183103,314.349266L188.114234,314.657254L191.005300,312.711099L186.416209,314.114307L181.657066,315.527028L185.328595,313.274896L187.871076,311.553654L188.149129,310.806294L189.414119,309.666416L187.274589,309.902385L184.811556,310.237162L185.647689,309.274383L188.666774,307.504608L186.943883,307.532282L186.846402,306.949448L182.777073,307.779776L186.878596,305.708780L182.090125,306.733797L180.726694,306.549112L185.207435,304.432707L185.309959,303.785404L188.909894,302.043300L191.159172,300.767557L188.751751,300.924150L188.133831,300.524584L185.890494,300.585529L185.883882,299.991274L185.965115,299.374947L186.477810,298.646456L184.905433,298.469876L185.197519,297.801035L186.138367,296.977451L184.714160,296.737434L182.354288,296.699676L182.147498,296.142591L183.752652,295.183719L179.925855,295.413627L180.468461,294.685697L181.002197,293.968143L179.079293,293.738904L175.673960,293.766527L172.011552,293.798893L176.009689,292.436531L180.828255,290.987307L180.845560,290.385277L184.931120,289.145739L183.698264,288.760724L179.851354,288.738622L177.976307,288.396701L181.909514,287.266796L181.907287,286.681211L184.442717,285.794031L186.319097,285.013950L185.826268,284.510866L184.106386,284.125542L183.661868,283.599340L178.313113,283.499362L176.246377,283.065255L169.952298,282.924925L166.639797,282.500450L172.933658,281.430142L180.503042,280.366139L181.564946,279.725707L185.513683,278.970726L180.372591,278.612007L183.620012,277.921615L185.901084,277.296607L182.942113,276.802648L182.291171,276.241272L176.572604,275.708403L177.450950,275.098139L182.606718,274.520937L178.928818,273.907043L176.121330,273.262811L177.514668,272.683495L183.001989,272.243911L182.506418,271.655806L187.961340,271.313341L182.468021,270.506608L180.278888,269.812313L181.821592,269.317998L173.724548,268.194664L164.130638,266.860196L168.165162,266.491108L176.912970,266.576407L179.208559,266.175801L181.075974,265.761061L185.302584,265.615773L184.065394,264.916819L187.783820,264.782152L184.128858,263.783223L182.959852,263.059969L182.220198,262.379469L183.749948,262.011677L182.914226,261.310544L184.383435,260.955012L183.595367,260.252818L182.172637,259.433020L179.010306,258.291071L177.199972,257.351435L176.712490,256.634437L169.905788,254.688419L168.433941,253.718727L178.206601,255.046400L186.373472,256.157224L183.754716,255.009229L183.671603,254.397649L186.251427,254.401398L186.207886,253.811122L188.840392,253.874693L187.014872,252.848745L186.936099,252.248236L185.536901,251.294953L187.539390,251.245104L184.545158,249.829508L184.629513,249.249123L185.782439,248.979386L184.281415,247.931079L187.127308,248.186683L187.519923,247.713336L184.996648,246.313661L180.519322,244.240987L183.948416,244.732641L185.524340,244.640072L185.672909,244.072479L190.097543,245.014493L183.920941,242.197460L180.147937,240.173700L177.690133,238.586050L178.025822,238.025627L182.274188,238.986357L180.611287,237.666362L188.628335,240.217439L187.624467,239.182921L187.556832,238.521246L190.366982,239.076805L188.467802,237.636764L184.628431,235.313392L186.451355,235.458205L187.328278,235.196970L184.183045,233.088970L182.373418,231.556260L187.215479,233.162313L191.707676,234.668596L190.322864,233.348939L194.418482,234.742008L190.298756,232.026505L190.866112,231.657329L193.911287,232.588792L192.622629,231.263163L192.403566,230.489180L193.542581,230.450042L196.805606,231.603575L194.959554,229.928647L195.372318,229.509501L197.935545,230.338768L196.735414,228.993641L189.714296,224.153347L189.850808,223.517538L188.975221,222.258130L194.466062,224.935942L194.299161,224.136800L196.313950,224.723320L199.340578,225.994920L196.469788,223.442554L192.061581,219.810626L193.877453,220.291330L193.143326,219.055871L197.469534,221.305379L198.319729,221.188726L198.004419,220.252904L198.094836,219.597174L195.798276,217.194555L197.244846,217.509166L197.550039,216.989770L193.486585,213.154786L190.128873,209.775423L187.067462,206.552618L191.967748,209.537498L193.547332,209.961096L193.858535,209.382851L193.335259,208.119248L192.196771,206.326019L195.299359,208.062050L201.246147,212.273784L203.992558,213.847946L205.091026,214.036088L204.858426,213.064609L206.005256,213.312881L205.861778,212.410096L208.153177,213.727194L205.706806,210.690865L205.876451,210.047148L209.439232,212.626203L206.740806,209.249065L207.045375,208.726497L207.756182,208.602499L207.948074,207.967063L209.054766,208.252039L207.937643,206.275465L207.310407,204.768016L206.324414,202.856384L204.738802,200.269677L208.574637,203.467213L211.459070,205.718127L214.634217,208.356541L213.890299,206.690027L215.027197,207.119809L214.299890,205.433323L215.247583,205.657494L213.307686,202.503433L212.069282,200.113707L212.177625,199.295956L212.537231,198.773893L214.136724,199.780709L216.818690,202.177876L218.361743,203.202205L220.464509,204.980625L220.764256,204.469052L220.349338,203.011524L218.574345,199.710072L215.680504,194.819136L218.232480,197.266627L217.591402,195.358178L220.134434,197.884062L221.319073,198.551533L221.481630,197.770769L222.482559,198.203910L223.920104,199.304495L223.152181,197.131091L222.027129,194.363661L223.763475,195.944511L222.596133,193.035950L221.822565,190.680291L225.723024,195.782227L225.412591,194.171700L227.127966,195.872887L227.046761,194.619223L228.348450,195.689264L227.878395,193.743149L228.272620,193.261012L226.994736,189.805785L224.997633,184.962720L226.765486,186.864857L230.326424,192.157743L231.054451,192.286098L228.782134,186.694006L230.861145,189.380190L230.638845,187.625006L233.234388,191.459980L234.751318,193.232402L235.342089,193.157679L234.590242,190.273381L234.715113,189.171664L234.652994,187.637173L234.405931,185.653144L236.539395,188.938019L237.818211,190.397328L234.204483,180.592219L231.806430,173.318476L236.162814,181.977596L237.589725,183.811480L238.454455,184.324640L238.448156,182.664331L236.656547,176.358325L239.481801,181.924193L240.573623,183.080897L243.278931,188.680841L242.966988,186.136561L244.045702,187.433452L245.215120,189.051916L246.006582,189.631141L245.713954,186.983733L246.057263,186.183741L246.073327,184.331367L246.886934,184.960232L245.951840,179.899775L246.789109,180.551867L248.277521,183.472394L249.822125,186.735280L250.381700,186.626490L250.098973,183.422128L251.473161,186.310928L251.488942,184.103456L252.858379,187.158232L253.226334,186.304685L253.486081,184.958765L254.303233,185.943025L254.983568,186.385861L255.118544,184.376459L255.326712,182.595856L256.458345,185.184494L256.544857,182.721907L257.965869,186.997446L257.528136,181.641786L258.311480,182.669738L259.341685,185.196445L259.886549,185.033305L260.932557,187.965240L261.068401,185.282904L261.859081,186.775915L262.095362,184.521582L262.049640,179.996947L262.636183,179.904213L263.009290,178.084729L264.221750,183.225347L265.129368,186.211850L265.554439,184.962762L265.434812,178.041192L266.246061,180.265036L267.044337,182.668473L267.717778,183.892889L268.125828,181.731119L268.756591,182.478779L269.177452,179.959886L269.793853,180.432376L270.591104,184.735768L271.146617,184.630528L271.694288,184.282381L272.223880,183.202050L272.823276,184.476706L273.355538,182.884770L273.924419,182.753117L274.496432,182.911343L275.068248,180.579194L275.637268,182.828797Z" />
<line x1="50" y1="625" x2="100" y2="625" fill="none" stroke="green" stroke-width="1.0" stroke-linejoin="round" stroke-miterlimit="10" />
<text x="125" y="628" style="text-anchor:start;fill:black">n0_4mer:PS</text>
<path style="stroke:red;stroke-width:1.0" d="M276.440910,158.620887L277.324137,149.869579L278.106970,149.555521L278.813548,151.837549L279.650625,149.854708L280.575057,146.432585L281.203430,149.848431L281.856623,152.067648L282.602778,152.351013L283.439105,151.269260L283.868801,155.840458L284.777813,153.771782L285.176413,157.882682L285.889357,158.076076L286.859094,155.669698L287.577039,155.940436L288.446116,154.838999L289.244438,154.461988L290.281069,152.217101L290.501429,156.440293L291.211004,156.714619L292.117813,155.597857L292.771421,156.275868L293.686555,155.231586L294.112382,157.291436L295.291449,154.740909L295.629668,157.186970L297.244046,152.438563L297.488588,155.313179L297.784915,157.740828L299.372887,153.587864L300.150194,153.615058L300.331367,156.440142L301.686802,153.774163L302.986788,151.515017L303.292903,153.654306L302.563633,160.006179L304.102995,156.816786L304.680882,157.605280L305.376324,157.909930L305.262381,161.251073L307.201063,156.911432L308.630666,154.610321L309.911316,152.947070L311.379127,150.730480L310.377234,156.870208L312.335374,153.083233L315.031925,147.111131L315.998414,146.812708L316.844522,146.905866L316.151394,151.620748L316.537210,152.986001L318.448097,149.916626L317.981326,153.688739L318.329624,155.069613L318.435847,157.065463L319.246988,157.118600L322.414672,151.017892L321.319380,156.093638L319.589121,162.597870L318.913975,166.268637L321.935167,160.828881L323.544640,158.961882L325.851062,155.531577L326.614068,155.792444L326.622479,157.768905L328.020994,156.586088L326.193627,162.539148L326.634103,163.408890L329.371261,159.377048L329.560225,160.816306L330.057326,161.586317L331.099946,161.236772L330.617539,163.953527L329.147916,168.539017L330.691814,167.160997L331.634425,166.981351L333.163019,165.716416L334.164716,165.474671L335.165730,165.251913L334.223254,168.540014L334.405243,169.751979L337.211875,166.356333L337.593934,167.241718L337.615875,168.724326L339.476665,167.099077L340.734219,166.525423L340.024829,169.179757L344.684423,163.155115L346.007210,162.588648L345.782993,164.465201L346.726237,164.504573L342.416569,172.538300L342.474967,173.819346L342.599040,174.980368L344.778859,173.120373L345.104245,173.992356L348.816593,170.036839L348.654127,171.633836L349.873801,171.286823L350.510837,171.757301L350.531958,173.058967L349.715787,175.454858L349.084328,177.558576L354.883924,171.269752L354.250536,173.399653L351.648683,177.979869L352.489088,178.154783L355.043421,176.222261L355.564000,176.828668L358.587110,174.421138L360.036904,173.955847L359.186040,176.214799L365.493702,170.135365L368.931780,167.504053L368.982255,168.780724L364.976046,174.568361L360.807249,180.406527L355.334381,187.534109L357.205707,186.601476L360.440213,184.256402L360.459083,185.354902L362.174377,184.681856L362.012255,185.959669L362.316140,186.748397L362.401074,187.749629L361.883461,189.333711L360.036827,192.186475L360.941011,192.336403L362.921844,191.472850L363.182527,192.257808L365.684449,190.959881L364.001345,193.538074L363.044578,195.409897L363.741362,195.772835L364.400244,196.173782L367.789120,194.201270L369.890701,193.398660L369.585922,194.674009L367.024386,197.824864L367.486253,198.407794L369.609676,197.631708L369.042611,199.062126L373.263046,196.654221L372.166710,198.507491L374.864308,197.380440L374.326759,198.779968L372.676602,201.002524L371.954949,202.489583L372.890127,202.730854L371.503064,204.673781L373.359523,204.249061L375.279856,203.805645L377.992382,202.834705L375.896598,205.230517L374.711724,206.958473L375.598752,207.262173L376.286739,207.706529L378.444120,207.192543L384.939731,203.903858L380.515803,207.687497L378.077593,210.137267L377.013950,211.684823L378.470317,211.664890L379.878331,211.692260L379.773222,212.637430L379.385594,213.740161L382.935105,212.552224L381.972763,213.989823L380.735033,215.560243L381.218938,216.150646L381.113254,217.064883L380.185359,218.413977L382.282741,218.139241L383.567144,218.316647L384.123099,218.883367L393.959935,214.753076L403.489754,210.923133L403.234835,212.038568L401.514319,213.852456L399.388934,215.826880L398.298649,217.278896L400.690985,217.104914L399.701673,218.493788L391.148546,223.233791L387.127817,225.855591L384.627026,227.758565L384.183779,228.748937L383.330789,229.899241L384.481478,230.213432L384.557621,230.972076L387.575824,230.566673L391.311737,229.922373L393.272644,230.002614L393.313556,230.823598L390.327658,232.750160L392.155799,232.901237L391.107839,234.087668L393.479068,234.074928L391.390718,235.601131L391.277561,236.440135L393.286062,236.585271L388.621381,238.876254L391.856603,238.642714L393.199307,239.026043L390.570842,240.606337L390.093041,241.522765L392.455753,241.622810L392.459353,242.406335L393.214950,242.983552L392.368038,243.991556L392.142318,244.825789L395.073135,244.862302L400.716678,244.271880L405.012523,244.073598L403.541572,245.263107L395.029174,248.014137L390.188310,249.850647L396.553221,249.248340L395.653735,250.218387L392.096154,251.703676L391.979357,252.478886L398.720155,251.974545L399.252416,252.670477L396.266313,253.981272L396.043507,254.790972L398.701717,255.133553L402.056784,255.400843L403.382161,256.009362L408.497399,256.096513L410.275962,256.698220L407.827716,257.866153L407.219532,258.776149L406.940013,259.638973L402.762230,260.926504L398.780985,262.140167L401.920250,262.607773L401.140088,263.471863L403.975309,264.017464L404.395190,264.788196L410.110014,265.178466L409.929739,266.030974L407.651892,267.006940L404.590017,267.996357L404.043215,268.826896L400.784599,269.763079L400.594118,270.549726L402.334552,271.277216L404.352569,272.019594L401.169840,272.874363L398.091917,273.688432L397.889306,274.451450L397.203939,275.211083L400.111308,275.990695L400.329515,276.768440L396.768407,277.472291L395.899184,278.203547L394.792842,278.916527L393.737464,279.618075L391.857624,280.269711L392.826539,281.044570L392.823570,281.776030L395.372649,282.670601L403.038361,283.955324L411.749679,285.415759L411.297773,286.230471L408.350310,286.819228L409.427719,287.753979L402.486437,287.892274L398.071617,288.216044L395.734341,288.721660L392.470682,289.087927L393.737144,289.986054L398.295958,291.337537L399.691849,292.308684L401.711155,293.389276L398.062163,293.638346L399.324670,294.617663L396.878510,295.005783L396.220670,295.669299L395.867090,296.379883L398.812840,297.692341L394.617656,297.689764L395.352949,298.602076L392.513530,298.801684L392.543892,299.566369L394.342666,300.714445L393.164062,301.227049L394.092798,302.207892L393.086811,302.748403L392.084685,303.278947L389.831399,303.488254L392.372926,304.891358L393.128426,305.863771L391.857663,306.305875L392.134406,307.158545L393.213326,308.243134L394.324483,309.354169L392.392896,309.586498L390.832754,309.907654L394.274994,311.752033L398.335870,313.840988L397.521297,314.419864L396.186114,314.819880L392.189536,314.312175L390.424766,314.516848L391.884732,315.826867L395.353467,317.876311L389.699750,316.664171L391.043112,317.967207L389.266826,318.115781L389.117837,318.868561L391.292281,320.532795L392.175197,321.717181L390.146041,321.736412L387.135611,321.325171L387.016155,322.089767L386.570333,322.717287L385.053260,322.876577L384.272747,323.343757L382.356081,323.292728L384.646728,325.141626L385.467956,326.346469L385.413947,327.155037L383.713159,327.177300L386.588598,329.409913L388.039986,330.986455L389.470588,332.580265L389.248361,333.357546L384.945960,332.020911L383.072418,331.901034L385.480100,334.045163L387.272683,335.899793L387.425028,336.886295L386.429771,337.240430L385.999649,337.904926L383.355303,337.295752L382.792847,337.863500L381.320235,337.890002L375.862543,335.507736L376.737382,336.892296L377.640624,338.315718L378.659991,339.833913L377.464717,339.972290L379.091738,341.911097L375.625433,340.566846L376.465390,342.012676L376.680097,343.062295L380.131601,346.319094L380.147633,347.284542L381.508462,349.195246L379.565009,348.807102L376.464008,347.563542L374.270864,346.928154L373.107283,347.015511L377.105374,350.927510L380.569096,354.522902L380.250148,355.308793L374.465339,351.873776L370.619043,349.851237L372.713485,352.471197L369.761382,351.090828L368.456383,350.999364L366.621592,350.454429L365.164302,350.195903L367.169266,352.840565L365.679529,352.549309L366.629259,354.348934L366.546366,355.274306L371.414211,360.604418L369.114028,359.609899L368.098930,359.745383L374.102464,366.338537L378.862686,371.921905L378.982324,373.244914L379.997402,375.441570L376.102638,372.921679L372.356997,370.469100L373.312390,372.607210L372.879114,373.387785L371.860057,373.576577L372.434483,375.396996L371.620216,375.799193L371.609480,377.045214L371.034468,377.704040L372.554801,380.633342L372.836481,382.263138L368.109600,378.358832L362.628376,373.493680L359.088150,370.701053L357.240848,369.775596L362.889669,377.561268L363.527846,379.609829L357.647648,373.896624L358.161135,375.772483L357.659547,376.437434L360.760552,381.583629L363.282380,386.119328L363.474091,387.787297L356.345813,380.032717L354.059777,378.397029L352.609498,377.813271L350.825278,376.753620L351.076331,378.420754L347.888757,375.383593L345.873535,373.890170L343.454944,371.775306L342.605415,371.840464L344.977414,376.572223L347.000418,380.906092L347.425688,382.963198L342.669636,377.235950L341.499241,376.831908L341.438416,378.127808L342.527730,381.257892L340.950659,380.209561L340.024098,380.172757L338.526233,379.186649L338.003161,379.782784L337.797065,380.919420L336.382376,380.009867L336.052382,380.945430L335.192490,380.964338L334.933514,382.046183L333.887693,381.722969L332.379775,380.529461L331.803485,381.028538L332.596337,384.126139L332.199512,385.018954L331.855283,386.031029L331.517260,387.075867L330.399848,386.572789L327.177976,381.738004L326.983866,383.030960L326.324542,383.372878L325.600845,383.577451L325.673555,385.515356L325.976165,388.016926L325.581182,389.019418L325.045852,389.723601L323.317644,387.659959L323.347748,389.685019L321.435788,387.083216L319.980790,385.501023L318.515335,383.825513L317.511456,383.254262L317.071944,384.115799L317.148375,386.363129L317.243373,388.736160L316.846864,389.841976L317.092097,392.776666L317.541720,396.401182L315.544977,393.039574L314.185858,391.423808L312.600771,389.044970L312.709311,391.800926L313.645745,397.285698L312.303114,395.631415L311.273456,394.927322L309.306774,391.012139L308.130173,389.638515L309.044897,395.598005L309.629734,400.639479L309.155287,401.981858L307.544221,399.049020L305.913107,395.875593L304.851535,394.809876L304.619253,397.094824L303.365788,395.170307L302.331989,394.083243L301.292738,392.898308L300.852838,394.400553L300.100535,394.498342L299.037454,393.066011L299.280500,398.155172L298.298271,397.153288L297.637112,397.813519L296.861309,397.866838L296.085714,397.915261L295.409239,398.557417L295.248588,402.488603L294.714825,404.289756L292.875240,397.302066L292.626135,401.046073L292.120432,403.212115L291.262912,402.817120L291.188780,408.847556L290.021884,405.998261L289.139251,405.430712L288.089226,403.144044L287.101997,401.203304L286.060505,398.376328L285.417205,399.889903L284.654658,400.092543L283.547324,395.461032L283.133556,400.642837L282.618706,405.187648L281.804884,405.085434L280.724472,399.162099L279.910713,398.068384L278.986650,393.288168L278.315252,395.528315L277.649826,399.339303L276.901483,400.775010L276.152313,404.093711L275.340970,399.673502L274.575442,397.840768L273.811159,398.228000L273.078657,396.300252L272.318949,396.684298L271.556141,397.002309L270.778750,397.621777L270.023660,397.495316L269.347662,395.705162L268.618011,395.337373L267.567575,400.452965L266.846282,399.560599L266.238285,397.233709L265.532161,396.529448L264.887858,395.186018L263.907881,397.733526L262.963175,399.577978L262.465587,396.843007L261.985434,394.252971L260.844797,397.658676L260.304811,395.767893L259.405721,396.860020L258.883201,395.036083L258.514896,392.269722L257.460526,394.402877L255.908517,399.598766L255.408855,397.777546L254.321081,399.630944L253.429181,400.201133L252.635070,400.173785L251.452358,402.238557L250.328527,403.847971L249.261216,405.057495L247.792716,408.144124L247.660432,404.692852L247.012876,403.808427L245.868000,405.187683L245.634693,402.520337L244.611343,403.326069L245.008659,398.240581L244.423084,397.344996L243.113466,399.308283L241.655187,401.728188L241.099502,400.673170L240.808671,398.700552L240.233796,397.814252L239.994380,395.801284L239.086889,396.122823L238.451531,395.522809L237.513705,395.914729L238.962991,388.745358L238.057559,389.143975L237.084275,389.721928L235.847733,391.047091L236.696199,386.253546L235.524796,387.390474L233.407846,391.113461L232.218848,392.143253L232.747296,388.510379L231.569364,389.501550L231.093256,388.630221L230.215558,388.801045L228.634244,390.711844L227.509052,391.427000L225.821035,393.462784L224.912098,393.573822L223.716799,394.336928L224.007418,391.664186L222.228192,393.726405L223.800996,388.292881L222.486562,389.310321L222.747002,386.911692L223.476456,383.590533L221.357359,386.272690L218.540032,390.286651L218.880980,387.816819L219.786418,384.294481L219.429723,383.328913L220.554970,379.536624L219.378878,380.199877L217.244838,382.618383L214.070357,386.865832L211.253262,390.332348L211.017121,389.085565L212.539756,384.772118L212.253522,383.703917L211.640574,383.212883L211.666548,381.648718L210.055776,382.834839L207.418524,385.657838L209.806490,380.276934L209.067982,380.011445L210.689840,376.033852L211.348190,373.646000L208.688993,376.383857L206.464237,378.382418L208.385526,374.145920L207.345272,374.359770L205.997017,375.003374L204.999943,375.116712L205.068771,373.711254L204.319614,373.470592L202.312799,374.954292L202.506001,373.402040L200.398964,374.960193L197.667479,377.292830L197.303945,376.461762L194.318416,379.020009L193.592680,378.624541L192.368878,378.852320L190.393140,379.994677L193.251542,375.171747L197.825587,368.380652L196.891006,368.328761L193.251741,371.457492L192.237052,371.437872L192.976238,369.387810L193.830702,367.244832L194.333418,365.537093L193.368029,365.486453L191.974458,365.893391L189.802915,367.118887L189.653144,366.142316L189.895900,364.762717L191.879791,361.590184L189.572670,362.897824L187.538540,363.883095L187.111054,363.218349L183.968259,365.248501L183.704663,364.395910L186.324839,360.761336L186.127966,359.893208L184.650125,360.241406L183.711622,360.064798L182.816953,359.838321L180.855845,360.572738L182.060887,358.432501L183.183280,356.404036L181.615945,356.766654L183.091014,354.475242L183.402359,353.220167L182.334215,353.145458L181.466015,352.891861L181.042383,352.264587L181.032090,351.302813L180.800575,350.527908L178.081174,351.727380L181.152206,348.355586L181.320900,347.293900L179.671007,347.629947L179.526850,346.809970L179.113627,346.195598L177.102786,346.752713L177.087468,345.836316L171.019815,349.249729L169.419953,349.409533L171.371299,347.078208L172.660182,345.245645L175.033308,342.710096L174.738321,342.008173L174.115622,341.524496L173.644055,340.938750L175.502041,338.856805L174.274922,338.767383L175.306425,337.253139L171.165693,338.948720L168.765555,339.523166L168.652047,338.694186L166.972126,338.794963L168.501819,337.005572L164.957351,338.160283L165.512576,336.943641L163.188145,337.348084L160.720307,337.799869L158.404348,338.135894L163.531077,334.470309L166.881145,331.825922L165.633390,331.620383L167.545335,329.789669L166.074452,329.692629L167.688280,328.053007L169.075691,326.553511L165.945244,327.244508L162.403162,328.086848L161.342806,327.729200L161.799087,326.668272L159.955035,326.651736L160.013095,325.772642L156.547217,326.429058L161.168801,323.587143L162.599521,322.155963L157.074335,323.617601L153.821813,324.083019L151.977052,323.945845L148.765091,324.320731L151.735217,322.282765L154.410156,320.402284L156.453919,318.796781L159.532706,316.848732L158.767659,316.313697L160.065112,315.052814L155.626175,315.772682L156.323369,314.715827L159.445900,312.876967L160.573284,311.724470L161.979417,310.502912L159.447788,310.513702L156.166388,310.718527L150.931840,311.455944L145.130079,312.288846L142.541311,312.146045L141.976943,311.417523L141.653374,310.620167L146.411278,308.497706L148.926956,307.010206L155.352872,304.591386L154.016037,304.128387L153.975266,303.346671L150.838147,303.271756L153.268538,301.926740L144.966916,302.919755L144.964555,302.079200L146.091024,301.012989L147.797081,299.850143L147.230146,299.140662L145.069443,298.716744L149.916652,297.032658L154.006141,295.540832L153.215964,294.900082L155.734830,293.731153L155.918101,292.947667L152.551964,292.680413L151.613118,292.036840L155.477716,290.749789L153.600777,290.233093L156.642865,289.107651L156.594333,288.370505L155.916604,287.700896L153.279098,287.220542L148.324439,286.926303L149.119956,286.065617L143.043281,285.776968L136.543908,285.445295L132.715657,284.848603L145.385898,283.165641L152.490697,281.956858L149.499737,281.347484L154.391558,280.351691L149.657359,279.784433L149.715898,279.005602L155.164568,278.088869L152.549692,277.397783L153.817967,276.622498L150.402803,275.896753L150.804130,275.124947L154.838334,274.376956L150.652769,273.585359L150.173693,272.806940L149.871063,272.026611L154.498547,271.390001L152.753183,270.580049L155.409725,269.934567L151.525658,269.004034L149.300938,268.115712L148.055220,267.258931L144.473350,266.229092L139.420354,265.046017L142.655306,264.459368L149.598652,264.230687L152.078339,263.676596L154.596582,263.156387L156.397207,262.591666L157.609285,261.983263L158.026908,261.295968L154.269859,260.097545L155.841320,259.541981L154.797632,258.649267L158.905710,258.475405L155.524570,257.238803L157.847382,256.842093L154.761377,255.600755L155.941526,255.034111L153.060563,253.773999L152.554999,252.904111L148.989146,251.454178L144.401720,249.759242L141.158839,248.271881L153.151678,249.881421L156.858362,249.882053L153.867150,248.461214L152.616888,247.392160L151.130506,246.249809L156.121612,246.631493L158.234031,246.370379L157.854855,245.507380L156.965668,244.505221L153.140109,242.710771L154.844599,242.364977L154.724208,241.531356L155.069280,240.825998L160.042922,241.472365L158.555458,240.254881L159.452769,239.742124L160.761485,239.366882L156.815068,237.331481L155.040017,235.945976L160.268189,236.860862L158.898894,235.605810L158.594829,234.697295L162.180961,235.155028L161.132434,233.990074L158.074712,232.069198L151.454821,228.768635L153.020422,228.491553L155.081691,228.425103L153.371968,226.892375L157.304839,227.603216L159.171313,227.519371L159.179019,226.682846L161.584645,226.859900L160.483842,225.553733L157.683441,223.480519L157.685672,222.612760L153.687392,219.923981L152.149834,218.305994L151.415643,217.036438L156.551366,218.547942L164.349753,221.421475L165.217018,220.999855L168.349524,221.718129L165.828466,219.611411L166.974353,219.349177L170.068896,220.118689L169.311834,218.886700L170.421970,218.643404L167.831648,216.388450L171.090270,217.332045L171.459964,216.695859L168.454415,214.131572L168.419695,213.233421L168.217674,212.230026L167.134382,210.691384L168.027574,210.322888L166.131113,208.252386L170.314784,209.922259L170.138992,208.909406L170.896186,208.482566L173.809933,209.458562L171.072002,206.768144L171.236202,205.952879L171.045762,204.893743L170.024549,203.255574L170.687380,202.757087L172.892456,203.344840L173.592761,202.895190L175.408587,203.253898L172.344854,200.077056L174.323541,200.561544L173.785645,199.190175L167.441055,193.393727L165.489485,190.839730L161.514966,186.662353L167.796070,190.480584L171.329005,192.220050L172.715558,192.285035L172.670111,191.195168L173.006932,190.410665L176.606523,192.362551L180.775494,194.863892L182.253282,195.125945L185.202267,196.692155L183.897129,194.555670L181.523128,191.423793L183.637083,192.290379L186.721561,194.082652L185.827154,192.241098L183.983041,189.474717L182.280858,186.788024L182.890551,186.275214L182.686955,184.970677L183.084740,184.241567L186.456965,186.482040L188.617612,187.566111L188.625541,186.484702L186.491550,183.167212L185.502536,180.983028L183.810973,178.010685L187.244827,180.497361L189.202720,181.450908L192.025870,183.397062L192.271765,182.524281L194.984347,184.434318L192.979895,180.999079L196.311877,183.682662L196.068476,182.245099L192.504229,176.831686L192.334736,175.384303L193.784317,175.888874L196.681657,178.208459L197.664943,178.204257L196.189408,175.095323L196.587241,174.324049L195.093780,171.085845L197.002301,172.257687L198.147086,172.453555L197.070267,169.664086L196.325106,167.268240L198.294477,168.587933L203.555729,174.581973L204.629590,174.783586L205.541114,174.767943L207.135109,175.761382L207.366845,174.774152L208.881952,175.698999L207.667444,172.505069L210.419864,175.355962L208.185678,170.496787L208.340279,169.302381L209.666012,169.968941L211.615469,171.682162L211.697977,170.368842L211.882257,169.199990L213.187892,169.915307L211.736702,165.908291L213.328827,167.120224L211.970086,163.141767L210.426232,158.724576L213.165731,162.015091L215.245241,164.191338L216.556382,164.997968L216.479733,163.188468L216.642321,161.798754L218.404116,163.527136L220.112087,165.212615L221.361218,166.029616L222.424395,166.499339L221.432360,162.685420L222.206847,162.522373L223.102068,162.626109L223.418503,161.470001L224.967532,163.044058L226.352044,164.307450L224.145325,157.313613L222.155239,150.598710L226.383226,158.553634L228.186736,160.891449L229.249185,161.484887L228.567795,157.704995L227.474097,152.735722L229.121256,154.774275L229.124860,152.512477L231.959979,157.879786L232.650564,157.517556L234.285616,159.823167L236.051003,162.607684L236.306094,161.068810L237.377883,161.930511L238.329269,162.468931L238.043113,159.161223L238.244057,157.279058L237.253067,151.421028L239.353667,155.658520L240.601609,157.181500L242.162177,159.882216L241.564721,154.975750L242.240894,154.522668L242.849112,153.800873L243.825676,154.476357L244.403167,153.614133L245.732400,155.778046L246.583581,156.070043L247.410597,156.284418L247.839568,154.758872L249.099316,156.939650L249.570376,155.558724L250.393344,155.805718L250.689449,153.444114L252.433601,158.416376L252.304620,153.730734L253.013320,153.357345L253.932109,154.171453L254.340430,152.018610L254.706162,149.442760L255.105832,146.884987L256.301163,149.461768L256.681532,146.563541L257.372735,145.687459L258.698315,149.616266L259.558408,150.192878L260.764586,153.788282L261.310780,151.862954L261.758145,148.775629L262.249843,145.756329L263.580877,151.422464L264.568188,153.930880L265.428773,155.255397L266.240120,156.145808L266.716984,152.253794L267.363512,150.351360L268.240467,152.215719L269.211844,156.497899L269.879807,154.921318L270.616617,154.708183L271.378101,155.234677L272.161627,156.960709L272.862489,155.266417L273.607446,155.568018L274.342821,154.820130L275.086505,155.320913L275.827691,155.286972Z" />
<line x1="50" y1="600" x2="100" y2="600" fill="none" stroke="red" stroke-width="1.0" stroke-linejoin="round" stroke-miterlimit="10" />
<text x="125" y="603" style="text-anchor:start;fill:black">n0_4mer:D</text>
<path style="stroke:black;stroke-width:1.0" d="M277.167685,99.920907L278.261541,99.400208L279.351713,99.298788L280.449843,98.991716L281.551942,98.691520L282.576727,100.271711L283.679368,99.897435L284.768136,99.867150L285.807336,100.654682L286.946901,99.839378L287.961500,100.851729L289.066541,100.598862L290.195771,100.116377L291.275866,100.238701L292.533060,98.576294L293.619710,98.737952L294.702251,98.931149L295.816858,98.845442L296.732563,100.379556L297.745150,101.038084L298.726655,101.875837L299.828173,101.815671L300.720364,103.171991L301.845330,102.939251L302.883997,103.269168L303.984089,103.223197L305.370446,101.558800L306.546333,101.184319L307.571034,101.653258L308.486216,102.668181L309.601692,102.633657L310.589522,103.230668L311.688834,103.283136L312.651784,103.965308L313.546905,104.921037L314.701320,104.724640L316.022826,103.855232L317.440308,102.655814L318.347132,103.552115L319.122058,104.924952L319.855944,106.397421L320.734458,107.281415L322.306728,105.653317L324.120921,103.269083L325.260438,103.312525L325.375541,106.788654L324.966362,111.837383L324.534002,116.755110L325.653657,116.624235L327.716271,113.625353L330.434975,108.796015L332.256565,106.810985L332.660911,108.999144L333.261660,110.561251L333.297310,113.641134L334.783400,112.679520L336.815190,110.313962L337.931820,110.442927L339.217117,110.148404L339.729403,111.827400L340.228063,113.494779L341.673507,112.814813L342.985108,112.492585L344.264074,112.272433L345.155946,112.968230L345.895755,114.000624L346.788965,114.670825L347.971829,114.697352L349.073111,114.913930L350.536261,114.368716L351.297517,115.324479L351.853296,116.688363L352.898281,117.032647L352.917428,119.429371L353.884741,119.903596L354.636920,120.794824L355.328849,121.789053L356.839698,121.229861L357.700995,121.904467L358.551070,122.594801L359.116207,123.792330L359.983127,124.435749L360.690000,125.355323L361.401312,126.256243L362.764758,126.040030L364.223954,125.684786L366.384146,124.197927L368.153781,123.403205L369.698734,123.006649L370.457647,123.881218L370.959921,125.148882L371.858584,125.787786L372.553738,126.734938L372.880208,128.225814L373.142976,129.787519L373.997720,130.459791L374.876416,131.095997L375.930817,131.481893L377.310725,131.417180L377.912299,132.448648L377.833434,134.400296L379.141027,134.446991L379.506388,135.764322L380.767411,135.886542L383.053038,134.691814L383.535166,135.856330L384.177529,136.805607L383.976587,138.801969L384.227395,140.207722L385.115317,140.818884L387.158463,140.041745L389.682293,138.730044L391.091362,138.776602L392.381714,138.977379L393.188677,139.744352L393.733835,140.806348L393.786551,142.409955L394.319559,143.462728L393.998434,145.437738L393.631932,147.431148L394.350878,148.240858L394.495022,149.651792L395.155897,150.510925L394.945704,152.258608L395.421931,153.287926L396.120058,154.088785L397.427129,154.287983L399.676761,153.582934L400.696367,154.097141L402.448523,153.921877L402.712491,155.166607L403.800373,155.636662L404.509218,156.461675L404.600702,157.844197L405.388810,158.590520L405.403722,160.020087L407.329287,159.770560L408.608861,160.102945L409.460564,160.810934L411.113246,160.850276L410.430838,162.843368L409.787087,164.776107L410.632251,165.479170L410.711426,166.796378L411.476944,167.561312L413.294349,167.510680L413.233154,168.924503L414.156271,169.578511L415.457012,169.955372L415.521311,171.257617L417.332880,171.275488L417.201005,172.713468L417.484948,173.841858L418.231348,174.639835L417.945065,176.154216L417.986327,177.428645L418.608391,178.301779L419.537510,178.971331L421.227082,179.148379L422.510549,179.607454L421.970564,181.241944L421.923925,182.546470L421.728705,183.932514L422.620234,184.640330L424.343429,184.851780L424.673080,185.912371L424.445450,187.296287L424.282198,188.630128L425.215855,189.326829L427.813933,189.094480L429.436383,189.436337L430.939715,189.860912L431.144546,190.999727L430.921518,192.360278L431.851270,193.107306L429.664792,195.463518L428.035201,197.495754L425.883015,199.755784L424.157689,201.765753L424.585712,202.701473L424.601454,203.833020L424.948603,204.802971L424.903414,205.952318L427.423235,205.932285L430.953823,205.492989L432.342959,206.038283L434.443102,206.291386L435.786328,206.889713L435.697101,208.097864L436.918171,208.762685L437.139544,209.840977L438.039865,210.648673L436.989703,212.219479L436.954631,213.383596L438.164532,214.076956L437.505580,215.466711L439.247546,215.979290L440.258299,216.768768L441.596410,217.454222L442.067899,218.446640L442.319890,219.513522L441.839773,220.816907L440.456419,222.396295L440.241746,223.588773L440.843904,224.525411L442.207649,225.239320L443.208749,226.072943L443.219822,227.197275L443.765519,228.169444L443.581607,229.342625L442.628183,230.712908L444.436662,231.355503L444.642991,232.420540L446.069180,233.186660L447.759908,233.905171L446.342371,235.361541L446.352745,236.475185L445.525364,237.768770L444.297211,239.133537L444.981361,240.086764L445.402693,241.098319L446.174014,242.045215L447.788167,242.842537L447.257981,244.043349L447.741962,245.059152L447.221155,246.246519L443.952060,247.866366L443.746144,248.970046L442.580793,250.210994L442.582513,251.269996L443.172207,252.247616L443.409035,253.276412L442.361491,254.464093L441.492007,255.616280L444.168659,256.365428L445.661028,257.269713L446.601167,258.245221L447.149795,259.266965L446.907574,260.361686L444.714211,261.606238L443.210359,262.772307L442.047908,263.896021L441.801478,264.949226L444.569392,265.835687L446.820640,266.780532L449.253966,267.745104L449.545416,268.815196L448.380723,269.930999L446.646530,271.045101L445.292749,272.131006L445.957291,273.178418L446.877898,274.232776L448.742084,275.300105L450.312043,276.388210L449.162560,277.457490L449.406487,278.541014L448.793855,279.605133L448.687045,280.678553L449.085784,281.770746L449.627507,282.874852L449.562922,283.955180L450.515091,285.093868L451.172859,286.226402L450.763261,287.293322L452.640861,288.530302L450.821842,289.487120L449.707658,290.484850L450.429857,291.644102L450.012498,292.698425L451.192304,293.920408L451.469282,295.056029L449.814981,295.965067L449.681836,297.046946L448.538143,297.994962L449.420231,299.211564L450.058799,300.405849L450.318417,301.552803L450.558178,302.701993L449.285364,303.608121L448.427108,304.571002L446.492625,305.334909L448.023078,306.711563L447.688328,307.756514L447.003775,308.731173L446.926429,309.822702L444.676178,310.461881L444.832236,311.593298L445.249273,312.787598L445.913946,314.046931L445.413359,315.044257L446.146502,316.336258L444.892343,317.148196L444.167783,318.081951L444.357450,319.248533L443.983656,320.270297L444.688698,321.587009L445.913405,323.063085L446.225263,324.296687L444.993407,325.083751L442.022779,325.334410L438.840614,325.483974L438.024109,326.339626L438.024462,327.451307L440.404530,329.349367L441.167160,330.742113L441.114566,331.871019L440.924526,332.956060L439.608639,333.642358L439.101425,334.609108L437.885132,335.311371L437.017365,336.133274L435.958978,336.874978L437.202575,338.508399L435.563734,339.015979L435.755105,340.248590L436.411075,341.681721L434.715920,342.141971L436.366179,344.014371L434.869688,344.548267L435.259203,345.900862L434.760179,346.866025L434.062072,347.739343L434.799055,349.275993L433.838777,350.028947L432.649906,350.664680L432.032364,351.568013L431.376077,352.449958L431.105784,353.523336L431.663179,355.022843L430.620961,355.709186L429.122730,356.146909L429.124578,357.370588L428.358920,358.186098L428.607609,359.555956L428.179408,360.560189L427.113824,361.204857L426.046150,361.839622L424.468901,362.168476L424.528940,363.448594L424.846846,364.893563L425.270043,366.417312L425.211919,367.660929L424.243207,368.343835L422.120997,368.288582L421.372367,369.089462L420.996538,370.130349L421.667032,371.866039L421.282691,372.918235L419.349430,372.923655L416.989075,372.611472L414.668960,372.295300L413.910724,373.049989L414.114531,374.489891L415.844572,377.050992L416.620978,378.956677L416.847443,380.480473L416.501245,381.589808L416.365389,382.865728L415.853149,383.861173L414.241300,383.999037L414.445476,385.558006L412.803042,385.652117L410.786552,385.422545L411.094300,387.079668L409.130491,386.863155L407.317893,386.747657L407.982170,388.726610L407.833120,390.030576L407.954990,391.584306L409.147102,394.106763L407.923702,394.500368L407.338492,395.464071L406.875136,396.543719L405.973890,397.221361L405.496406,398.296035L404.278891,398.669487L403.672417,399.624039L402.925181,400.444521L402.172717,401.260526L401.097639,401.752960L400.354304,402.575788L399.797158,403.591638L398.583412,403.928591L398.822822,405.789715L397.839960,406.371167L397.914872,408.093488L398.621839,410.532944L396.408130,409.772382L393.768213,408.494638L392.683667,408.936242L391.032866,408.718029L391.154570,410.544485L391.904143,413.140969L390.461453,413.161801L390.176794,414.568218L389.839638,415.927922L389.780014,417.649158L389.594575,419.237981L388.097558,419.177439L385.059416,417.107369L383.076454,416.346013L381.672074,416.313951L380.384303,416.420310L380.469765,418.379189L379.602118,419.059754L377.987267,418.698609L376.503655,418.496536L375.055141,418.322635L375.314909,420.607100L374.439648,421.266714L373.448629,421.754959L372.158673,421.788278L370.626015,421.434446L370.482679,423.211230L370.173460,424.759680L370.014702,426.574758L368.870681,426.830454L366.809481,425.572790L365.901293,426.181153L364.612931,426.149575L362.697569,425.028570L361.873174,425.752771L360.246624,425.070251L358.863961,424.787929L358.188684,425.763985L357.588131,426.891165L356.657996,427.421598L356.436374,429.295179L355.687177,430.195708L353.528227,428.355490L353.455426,430.580082L352.462927,431.006832L351.583449,431.663118L351.408929,433.790228L350.108691,433.593619L349.262699,434.350196L348.394582,435.068273L347.664339,436.100786L346.229595,435.564793L344.899264,435.234963L343.896053,435.641660L342.569966,435.281774L342.184057,437.163827L341.277793,437.819815L340.598058,439.051185L339.288702,438.709425L338.179496,438.859344L337.296588,439.598113L335.658277,438.316492L334.641742,438.677152L332.970934,437.206774L331.374389,435.875429L330.820001,437.510123L330.279419,439.238858L329.633435,440.705870L329.263301,443.075301L327.973071,442.621274L326.941698,442.969906L325.484579,441.912147L323.978751,440.627046L322.702511,440.062373L320.908700,437.623422L319.774785,437.446545L318.657814,437.310169L317.807563,438.169869L317.149672,439.812503L316.300789,440.761743L315.267872,440.989962L314.308384,441.528092L313.408097,442.340941L312.564554,443.441848L311.716781,444.575347L310.524893,444.126509L309.287600,443.412183L307.845303,441.597430L306.967853,442.608075L305.875191,442.507709L304.912017,443.114128L304.062998,444.417355L302.701854,442.706870L301.514013,441.936801L300.434770,441.801142L299.528174,442.821321L298.308661,441.682325L297.229952,441.476471L296.288811,442.317796L295.030373,440.609544L294.108670,441.637051L292.993118,440.981577L292.190034,443.291114L291.220607,444.153426L290.531389,448.247578L289.720384,451.479904L288.481288,449.673053L287.422633,450.077393L286.171316,447.568529L284.974918,445.450346L283.893345,445.009455L282.914919,446.672246L281.861414,446.955298L280.838817,448.243928L279.756870,447.939342L278.669863,447.203055L277.596312,446.734970L276.527583,446.135200L275.471132,447.266514L274.401984,448.028720L273.328362,448.271722L272.240819,449.195551L271.157194,449.412603L270.096880,448.698157L268.995371,449.426617L267.844566,451.134876L266.777058,450.600174L265.709274,450.183864L264.573134,450.996565L263.544983,449.993025L262.463608,449.893814L261.305341,450.785026L260.380829,448.753496L259.348160,448.186527L258.265440,448.198300L257.213959,447.892402L255.905214,449.966264L254.795132,450.080658L253.690454,450.125955L252.678065,449.432651L251.919657,446.899770L250.824542,446.976423L249.940171,445.598942L249.043521,444.402510L247.981458,444.324985L247.240628,442.304525L246.294527,441.612018L245.305360,441.197283L244.650100,438.994235L243.682413,438.557626L242.626741,438.581351L241.927492,436.846737L240.637319,438.008948L239.902188,436.534782L238.913718,436.265597L237.472756,437.963965L236.323405,438.324602L234.414362,441.774727L232.985549,443.109101L231.451699,444.771180L229.857503,446.565718L228.952489,445.703587L227.736676,445.993623L227.002447,444.554994L226.242453,443.257962L225.315424,442.569334L224.057649,442.988303L223.299956,441.762192L222.189230,441.689194L220.900351,442.155954L220.101909,441.105615L218.890762,441.307453L217.927343,440.767764L216.964311,440.234323L216.448352,438.459542L214.935732,439.467843L214.350420,437.932930L213.280793,437.717971L212.400754,437.006233L211.215851,437.080903L209.757933,437.820160L208.836154,437.204765L207.564787,437.438620L206.939866,436.119748L205.983165,435.603412L204.905074,435.367788L203.476895,435.913213L202.909365,434.521772L201.917927,434.083761L201.288804,432.869310L201.261398,430.410780L199.974930,430.626963L199.529738,429.104119L198.733026,428.320519L197.029911,429.340653L195.973173,429.055203L194.281756,429.982241L192.441462,431.148380L190.926545,431.658710L190.215410,430.663125L189.410562,429.850761L189.113963,428.140297L188.105691,427.714299L187.411891,426.740318L185.924595,427.133740L184.441858,427.493027L183.854245,426.340446L181.876493,427.480332L181.289692,426.326935L180.713589,425.172139L180.383133,423.646909L180.623733,421.262005L180.356435,419.701914L180.180796,418.029539L178.795129,418.186907L177.340573,418.425572L176.149196,418.260673L174.261264,419.080326L172.720775,419.371986L171.566492,419.101629L170.639578,418.509064L171.021089,416.139089L172.190575,412.757469L172.500714,410.582571L171.967314,409.548374L171.856530,407.979351L171.830703,406.325673L171.144182,405.527910L171.404880,403.558561L169.061720,404.813123L165.488573,407.508277L162.712554,409.166984L159.394576,411.406687L158.104505,411.210140L158.099894,409.521322L157.905219,408.072339L157.674082,406.682133L157.003445,405.795443L155.909283,405.376253L155.257197,404.471259L154.218673,403.982958L153.491265,403.160150L152.769412,402.333283L151.460651,402.112014L150.982961,401.032863L149.684488,400.785189L148.224543,400.684678L148.511810,398.856564L148.960595,396.897808L148.850179,395.502058L149.406906,393.491939L148.822068,392.575758L148.059779,391.826200L148.143781,390.306511L146.874173,390.020014L145.827780,389.523151L145.158864,388.688308L143.086328,389.067965L142.791455,387.900009L141.378254,387.683797L139.357472,387.958396L139.220793,386.655921L138.173049,386.104751L137.526835,385.224245L136.896080,384.332236L136.586288,383.190279L135.879545,382.361837L136.410840,380.589319L136.439176,379.218292L135.716318,378.418085L134.877061,377.701605L133.362716,377.469655L133.524609,376.024147L132.666848,375.311978L132.387227,374.193302L132.724109,372.657606L131.304530,372.328759L131.151660,371.138570L130.152190,370.514565L129.301656,369.786415L127.781243,369.483541L126.079465,369.279131L125.901586,368.103736L123.912288,368.050805L123.905417,366.769679L125.141982,364.753345L124.589191,363.823853L125.057722,362.299676L124.997195,361.095889L122.552018,361.249020L121.475033,360.607985L120.104344,360.119470L118.678886,359.647010L118.775509,358.348063L119.468709,356.745308L118.499321,356.022247L117.822513,355.142658L117.429913,354.117548L116.775013,353.223622L116.754639,352.018242L117.103894,350.642776L116.853463,349.562495L116.179406,348.681944L115.726284,347.697273L113.568542,347.477879L111.944985,346.997189L111.135419,346.145657L111.882387,344.624311L114.636232,342.278253L116.465008,340.359742L114.510729,340.005907L111.950783,339.870674L111.028298,339.064721L109.584308,338.451304L111.277214,336.641911L112.294220,335.111556L110.526528,334.610007L108.853101,334.055359L107.782356,333.272448L106.620320,332.510858L106.635012,331.344325L108.273312,329.650603L108.402402,328.468356L109.756272,326.907656L110.286523,325.622877L110.371363,324.483410L112.251161,322.821799L114.036994,321.216435L115.366937,319.766689L117.010045,318.252673L116.817764,317.254370L113.982365,316.945525L111.193294,316.590860L107.043318,316.539410L104.030350,316.163060L102.610261,315.377492L102.010090,314.389944L103.551692,312.924000L105.740342,311.342199L106.779208,310.031098L106.516536,308.998863L104.554722,308.297896L101.354490,307.808346L100.539783,306.844921L100.432159,305.749045L100.972324,304.544253L101.224578,303.395718L102.571182,302.080752L101.764008,301.109610L101.593310,300.038391L102.333274,298.841233L101.606444,297.848559L103.378572,296.534942L103.347848,295.460183L102.777254,294.447592L102.249930,293.424740L101.243563,292.444808L101.375376,291.346482L98.724527,290.495680L96.090116,289.611655L94.257824,288.635408L94.600910,287.486820L97.284440,286.196015L100.476191,284.910572L103.252411,283.686556L103.614070,282.604812L104.182404,281.520250L103.508056,280.482967L102.452610,279.447569L103.015843,278.367739L101.323230,277.325347L100.774609,276.253937L100.382636,275.175673L97.109530,274.077630L97.318661,272.978602L97.134587,271.875101L96.919879,270.768353L98.648940,269.716852L100.134262,268.677561L99.989400,267.587152L100.013673,266.502590L98.521760,265.334638L96.825529,264.134954L96.734054,263.021187L96.425123,261.889395L98.117324,260.912127L98.444591,259.837639L99.512855,258.834323L101.320788,257.915855L100.982271,256.794104L102.353285,255.856264L102.797945,254.825596L101.213925,253.548529L102.044331,252.563095L101.517629,251.401764L101.171978,250.257718L102.132257,249.301511L101.219867,248.065191L101.093744,246.942043L101.468054,245.899009L101.392900,244.780207L102.259975,243.828090L101.387139,242.559480L100.118376,241.200591L101.887935,240.429470L101.848153,239.305389L104.383595,238.725458L108.140684,238.443082L106.650694,237.022859L106.998638,236.006774L105.917812,234.651125L105.320918,233.396716L106.648582,232.615620L107.567834,231.743035L109.832795,231.235627L109.539875,230.059906L109.484039,228.942563L108.714331,227.617254L107.978732,226.287662L108.690819,225.376100L108.271833,224.124864L108.470652,223.056398L107.461373,221.601213L105.643546,219.864522L107.340549,219.266661L107.558582,218.185562L109.035815,217.538587L110.373142,216.857752L109.771774,215.492297L110.659716,214.660099L110.603211,213.481711L111.781549,212.767970L112.111688,211.736046L111.460205,210.314984L112.130525,209.411159L111.649017,208.038977L111.939787,206.976008L114.389425,206.827493L115.262176,206.027732L115.200047,204.823968L114.895587,203.504655L112.893866,201.403689L112.001824,199.778127L112.414054,198.743904L113.476112,198.018480L115.756101,197.891693L116.685248,197.128007L117.114470,196.121436L118.274759,195.484859L119.636895,194.962667L119.991372,193.927026L120.739185,193.097894L120.897029,191.954653L120.701174,190.612276L121.346817,189.725360L122.683796,189.229647L122.609837,187.941023L123.616847,187.268787L124.981977,186.814738L124.199296,185.093829L125.336496,184.511231L124.503394,182.730394L124.429868,181.397823L124.874754,180.380781L125.537163,179.500287L127.086114,179.195253L127.222252,177.979465L127.804923,177.052580L127.781883,175.716783L126.758275,173.685669L127.275302,172.691550L128.013857,171.850759L130.540152,172.282974L132.112045,172.062874L132.085595,170.693802L134.282139,170.955615L131.767067,167.718147L131.019753,165.760445L131.104067,164.414084L131.071308,162.964769L134.290747,164.065038L135.927863,163.952695L138.270560,164.430194L138.503137,163.213533L138.687818,161.947643L139.782837,161.435547L140.593261,160.689685L141.739284,160.235035L142.725591,159.650497L144.210686,159.512325L145.673753,159.371429L145.724797,157.968896L145.161601,155.988165L144.856271,154.217132L144.340171,152.223773L144.686145,151.020825L145.627271,150.381214L146.383366,149.565198L147.482645,149.087552L150.050534,150.085919L151.511604,150.008425L153.571262,150.561582L153.884185,149.335129L153.492230,147.356242L153.505532,145.777597L152.725604,143.323967L153.585404,142.615557L154.541608,142.014664L156.375793,142.398853L157.761864,142.304067L159.004813,142.061200L160.678780,142.330557L161.291676,141.377793L161.413338,139.834150L162.499815,139.431759L163.499750,138.931262L164.202741,138.068637L166.987854,139.807550L169.058006,140.702054L170.644300,141.015309L171.841593,140.847506L172.205440,139.594069L172.340954,138.019895L171.562634,135.185977L173.351824,135.810272L173.981566,134.859110L174.851115,134.236390L176.004685,134.018081L175.433902,131.321986L176.014816,130.254275L177.157587,130.006930L177.856184,129.102194L178.672067,128.367740L179.731298,128.004984L179.296336,125.311431L181.025153,125.990713L182.550366,126.377770L183.818740,126.373033L185.044789,126.314105L185.429012,124.858202L186.201798,124.037154L186.743005,122.808973L188.052975,122.905834L189.217194,122.762553L190.015670,121.972086L191.180761,121.843680L192.249235,121.547762L193.118726,120.883830L194.375879,120.955820L195.250914,120.304061L196.549737,120.482128L197.183618,119.350849L197.701528,117.963544L198.833316,117.814258L199.382755,116.454297L200.572921,116.430550L201.949174,116.824034L202.743677,115.965060L203.653137,115.349563L204.612721,114.842244L205.149380,113.353758L205.692014,111.842806L207.194734,112.593567L208.358077,112.558577L209.075285,111.430205L209.923558,110.606738L210.217864,108.342648L210.818538,106.811814L212.352115,107.728917L213.983974,108.963604L214.996117,108.541992L216.336136,109.045922L217.180474,108.154357L218.073814,107.385281L219.704650,108.815386L221.028940,109.379601L222.112328,109.227292L223.031588,108.556972L223.285155,105.691744L224.756529,106.788300L225.515092,105.508422L226.630521,105.433727L228.134136,106.763327L228.441821,103.774169L229.650224,104.045056L230.340066,102.339389L231.067638,100.708500L232.734676,102.831647L234.129677,103.947282L235.696007,105.877224L237.071585,107.088259L237.833243,105.586702L239.005149,105.934542L239.840210,104.686493L241.091431,105.452787L241.830525,103.638247L242.802372,102.956939L244.094916,104.015727L245.246411,104.357247L246.632738,106.136594L247.928058,107.506883L249.255191,109.207870L250.184490,108.396308L251.117559,107.552795L252.070256,106.788797L252.815517,104.368974L253.712676,102.944575L254.848273,103.412062L255.908199,103.265741L257.145250,104.804468L258.118269,103.876073L259.014679,102.007147L259.959346,100.441758L260.925776,98.918878L262.151244,100.667877L263.292226,101.502215L264.313063,100.559585L265.320386,99.173603L266.354833,98.005732L267.476335,98.555132L268.587970,99.036652L269.709604,100.062475L270.786133,99.758119L271.856856,98.935417L272.954599,99.576815L274.039590,99.367467L275.126263,100.315124L276.206525,100.494293Z" />
<line x1="50" y1="550" x2="100" y2="550" fill="none" stroke="black" stroke-width="1.0" stroke-linejoin="round" stroke-miterlimit="10" />
<text x="125" y="553" style="text-anchor:start;fill:black">GC-content</text>
</g>
<g style="fill:pink;stroke:black">
<a href="" title="HG425166:1 [91000-111599];"><path  d="M338.935823,54.065144L342.781930,55.214628L346.607391,56.431060L350.411038,57.714070L343.853557,76.608499L343.853557,76.608499L340.380661,75.437055L336.887850,74.326399L333.376186,73.276871Z" />
</a><a href="" title="HG425166:2 [223000-241599];"><path  d="M421.457011,97.657552L424.529757,100.240589L427.556955,102.876860L430.537683,105.565561L417.012667,120.298990L417.012667,120.298990L414.291133,117.844089L411.527169,115.437059L408.721618,113.078634Z" />
</a><a href="" title="HG425166:3 [354500-380599];"><path  d="M479.701823,170.132637L481.500833,173.721148L483.236942,177.340510L484.909620,180.989620L486.518357,184.667366L468.125456,192.522378L468.125456,192.522378L466.656609,189.164435L465.129382,185.832639L463.544239,182.528005L461.901664,179.251538Z" />
</a><a href="" title="HG425166:4 [422000-444099];"><path  d="M497.002206,214.874960L498.017721,218.758590L498.965302,222.659352L499.844661,226.576057L480.292952,230.786835L480.292952,230.786835L479.490058,227.210713L478.624876,223.649147L477.697667,220.103224Z" />
</a><a href="" title="HG425166:5 [455000-495099];"><path  d="M501.976138,237.826991L502.590327,241.793932L503.135190,245.770989L503.610560,249.756949L504.016294,253.750598L504.352267,257.750719L504.618377,261.756096L504.814543,265.765506L484.830670,266.568505L484.830670,266.568505L484.651561,262.907739L484.408591,259.250657L484.101834,255.598372L483.731381,251.951996L483.297347,248.312642L482.799864,244.681417L482.239083,241.059427Z" />
</a><a href="" title="HG425166:6 [525000-547099];"><path  d="M504.660349,287.494972L504.407303,291.501195L504.084377,295.502391L503.691671,299.497342L483.805438,297.367138L483.805438,297.367138L484.163997,293.719574L484.458842,290.066308L484.689883,286.408453Z" />
</a><a href="" title="HG425166:7 [741500-775599];"><path  d="M447.226040,427.440779L444.539350,430.423321L441.801018,433.358519L439.011876,436.245479L436.172774,439.083323L433.284578,441.871185L430.348167,444.608216L416.839631,429.859676L416.839631,429.859676L419.520702,427.360647L422.157751,424.815208L424.749974,422.224133L427.296581,419.588213L429.796798,416.908249L432.249862,414.185060Z" />
</a><a href="" title="HG425166:8 [966000-988099];"><path  d="M309.670568,502.371836L305.697102,502.942291L301.714285,503.443312L297.723331,503.874748L295.747389,483.972596L295.747389,483.972596L299.391304,483.578677L303.027789,483.121222L306.655736,482.600372Z" />
</a><a href="" title="HG425166:9 [1072500-1090099];"><path  d="M234.195561,501.351492L230.251397,500.604882L226.320865,499.789550L222.405160,498.905745L226.978624,479.435681L226.978624,479.435681L230.553833,480.242633L234.142580,480.987066L237.743773,481.668753Z" />
</a><a href="" title="HG425166:10 [1224000-1246099];"><path  d="M136.297181,458.470782L133.116299,456.022141L129.978637,453.518358L126.885149,450.960197L139.764702,435.659311L139.764702,435.659311L142.589190,437.995023L145.454012,440.281085L148.358296,442.516801Z" />
</a><a href="" title="HG425166:11 [1425500-1449099];"><path  d="M55.253746,342.908642L54.102045,339.063198L53.017632,335.198240L52.000836,331.314945L51.051969,327.414496L70.525711,322.856714L70.525711,322.856714L71.392068,326.417993L72.320446,329.963611L73.310563,333.492485L74.362115,337.003543Z" />
</a><a href="" title="HG425166:12 [1490500-1511599];"><path  d="M46.115161,297.621460L45.755222,293.623423L45.465114,289.619714L45.244924,285.611551L65.223626,284.688807L65.223626,284.688807L65.424669,288.348434L65.689551,292.003995L66.018190,295.654376Z" />
</a><a href="" title="HG425166:13 [1536000-1558099];"><path  d="M45.206057,265.266361L45.410931,261.257386L45.685740,257.252598L46.030401,253.253215L65.940801,255.144240L65.940801,255.144240L65.626111,258.795850L65.375198,262.452396L65.188139,266.112765Z" />
</a><a href="" title="HG425166:14 [1579500-1597099];"><path  d="M48.592953,234.504947L49.334172,230.559767L50.144132,226.628124L51.022584,222.711215L70.498881,227.258066L70.498881,227.258066L69.696816,230.834374L68.957288,234.424135L68.280523,238.026256Z" />
</a><a href="" title="HG425166:15 [1652000-1674099];"><path  d="M63.282773,185.134458L64.883388,181.453170L66.548007,177.800377L68.276123,174.177192L86.252112,182.944393L86.252112,182.944393L84.674267,186.252518L83.154398,189.587677L81.692966,192.948853Z" />
</a><a href="" title="HG425166:16 [1726000-1749599];"><path  d="M89.219006,139.407145L91.613723,136.185471L94.064301,133.006081L96.569994,129.869944L99.130039,126.778016L114.423079,139.666884L114.423079,139.666884L112.085647,142.489949L109.797840,145.353379L107.560356,148.256300L105.373875,151.197828Z" />
</a><a href="" title="HG425166:17 [1890000-1912099];"><path  d="M178.566304,66.192571L182.225183,64.541374L185.912323,62.954284L189.626599,61.431785L197.050373,80.002934L197.050373,80.002934L193.659077,81.393042L190.292559,82.842124L186.951843,84.349739Z" />
</a></g>
<text x="275" y="280" style="text-anchor:middle" font-size="25" font-weight="bold">HG425166</text>
<path  style="fill:pink;stroke:black" d="M350,550L375,550L375,565L350,565Z" />
<text x="405" y="565" style="text-anchor:start;fill:black">Selected loci;</text>
</svg>