<svg xmlns="http://www.w3.org/2000/svg" viewbox="0 0 550 650">
<circle cx="275" cy="275" r="240" fill="none" stroke="black" stroke-width="1.0" />
<line x1="275" y1="15" x2="275" y2="55" fill="none" stroke="grey" stroke-width="1.0" stroke-linejoin="round" stroke-miterlimit="10" />
<line x1="495" y1="275" x2="535" y2="275" fill="none" stroke="grey" stroke-width="1.0" stroke-linejoin="round" stroke-miterlimit="10" />
<line x1="275" y1="495" x2="275" y2="535" fill="none" stroke="grey" stroke-width="1.0" stroke-linejoin="round" stroke-miterlimit="10" />
<line x1="15" y1="275" x2="55" y2="275" fill="none" stroke="grey" stroke-width="1.0" stroke-linejoin="round" stroke-miterlimit="10" />
<text x="275" y="10" style="text-anchor:middle" font-size="15">Methanothermobacter wolfeii isolate SIV6 genome assembly,</text><text x="285" y="25" style="text-anchor:start">1,686,891</text><text x="525" y="265" style="text-anchor:start">0.42 Mbp</text><text x="285" y="530" style="text-anchor:start">0.84 Mbp</text><text x="-200" y="25" style="text-anchor:end" transform="rotate(-90)">1.26 Mbp</text><circle cx="362.340419" cy="51.456601" r="2.500000" fill="grey" stroke="black" stroke-width="1.0" />
<circle cx="437.703117" cy="98.569573" r="2.500000" fill="grey" stroke="black" stroke-width="1.0" />
<circle cx="490.752980" cy="169.877921" r="2.500000" fill="grey" stroke="black" stroke-width="1.0" />
<circle cx="514.214837" cy="255.602537" r="2.500000" fill="grey" stroke="black" stroke-width="1.0" />
<circle cx="504.871168" cy="343.987289" r="2.500000" fill="grey" stroke="black" stroke-width="1.0" />
<circle cx="464.003348" cy="422.911238" r="2.500000" fill="grey" stroke="black" stroke-width="1.0" />
<circle cx="397.215923" cy="481.550885" r="2.500000" fill="grey" stroke="black" stroke-width="1.0" />
<circle cx="313.668008" cy="511.864487" r="2.500000" fill="grey" stroke="black" stroke-width="1.0" />
<circle cx="224.817227" cy="509.694885" r="2.500000" fill="grey" stroke="black" stroke-width="1.0" />
<circle cx="142.848428" cy="475.339617" r="3.000000" fill="black" stroke="black" stroke-width="1.0" />
<circle cx="79.002677" cy="413.510105" r="2.500000" fill="grey" stroke="black" stroke-width="1.0" />
<circle cx="42.035673" cy="332.685547" r="2.500000" fill="grey" stroke="black" stroke-width="1.0" />
<circle cx="37.017011" cy="243.950089" r="2.500000" fill="grey" stroke="black" stroke-width="1.0" />
<circle cx="64.634941" cy="159.472764" r="2.500000" fill="grey" stroke="black" stroke-width="1.0" />
<circle cx="121.101987" cy="90.838653" r="2.500000" fill="grey" stroke="black" stroke-width="1.0" />
<circle cx="198.674351" cy="47.460124" r="2.500000" fill="grey" stroke="black" stroke-width="1.0" />

<circle cx="275" cy="275" r="185" fill="white" stroke="grey" stroke-width="0.5" />
<circle cx="275" cy="275" r="170" fill="none" stroke="black" stroke-width="0.5" />
<circle cx="275" cy="275" r="170" fill="aliceblue" stroke="black" stroke-width="0.5" />
<circle cx="275" cy="275" r="162" fill="white" stroke="none" stroke-width="0.5" />
<circle cx="275" cy="275" r="140" fill="none" stroke="black" stroke-width="0.5" />
<circle cx="275" cy="275" r="140" fill="aliceblue" stroke="black" stroke-width="0.5" />
<circle cx="275" cy="275" r="133" fill="white" stroke="none" stroke-width="0.5" />
<circle cx="275" cy="275" r="110" fill="none" stroke="black" stroke-width="0.5" />
<circle cx="275" cy="275" r="110" fill="white" stroke="black" stroke-width="0.5" />
<circle cx="275" cy="275" r="109" fill="aliceblue" stroke="none" stroke-width="0.5" />
<circle cx="275" cy="275" r="80" fill="none" stroke="black" stroke-width="0.5" />

<g style="fill:none;stroke-linejoin:round;stroke-miterlimit:10">
<path style="stroke:blue;stroke-width:1.0" d="M277.264357,123.010298L278.391449,123.258229L279.540022,122.674099L280.664616,122.980793L281.787393,123.239884L282.972849,122.238358L284.159080,121.489506L285.204157,123.024893L286.297286,123.623732L287.493886,122.868781L288.666964,122.518183L289.786523,122.788444L290.878703,123.297277L291.937637,124.049981L293.051813,124.262467L294.184853,124.317525L295.373480,123.970382L296.466111,124.350062L297.604819,124.400501L298.739074,124.490566L299.805943,124.996136L300.869408,125.493007L302.439815,123.158826L304.108238,120.511736L305.181741,121.123027L306.051893,122.702348L306.757309,124.961141L308.250699,123.485912L309.661365,122.493052L310.938783,122.150276L312.536121,120.530456L313.178515,122.836104L314.224641,123.458292L314.938070,125.307804L315.418764,127.914111L316.690268,127.593706L317.483901,128.951005L318.514431,129.459713L319.693813,129.473997L320.776747,129.810660L322.393724,128.496715L323.315359,129.361461L323.899044,131.195514L324.930818,131.673195L326.208296,131.457189L327.376511,131.567877L328.891929,130.761932L331.185480,127.973410L332.993562,126.567585L336.138248,121.893594L336.913653,123.244113L337.792342,124.309680L338.188314,126.485234L337.009321,132.218205L336.915707,135.291461L337.720198,136.275305L338.717852,136.820144L339.777103,137.231284L341.509443,136.240866L343.636629,134.497908L343.863080,136.657026L344.220815,138.496901L344.817870,139.825409L346.212725,139.608103L347.877000,138.914261L349.435354,138.458214L351.277073,137.526661L352.715483,137.361154L353.205314,138.872248L353.015109,141.515407L352.774957,144.173254L353.576537,145.038812L354.565418,145.590462L356.102150,145.267107L359.761929,141.633538L362.817672,139.073007L363.943633,139.554576L361.560055,145.300537L361.709254,147.150020L364.446497,145.206057L363.349958,148.819391L363.598338,150.449815L364.228233,151.522149L365.406853,151.834334L365.913755,153.058597L368.054772,152.108034L369.786264,151.740126L368.749749,154.949381L369.366961,155.997232L370.626313,156.237186L371.388940,157.098916L371.927305,158.226524L373.141315,158.540264L374.569798,158.615744L376.708483,157.893297L376.271323,160.136300L376.339203,161.770962L377.874343,161.764604L381.884567,159.097117L380.288047,162.521310L380.251061,164.226468L382.980066,163.036521L387.772774,159.796988L388.927607,160.338565L388.394998,162.562356L385.205241,167.341401L385.611741,168.543036L385.707017,170.028676L387.128164,170.256332L387.951272,171.052238L388.479872,172.116492L388.606049,173.533710L389.263936,174.466244L390.127853,175.217803L392.276516,174.875661L393.519214,175.331524L398.126513,173.013181L398.687396,174.092667L394.942177,178.627338L394.433417,180.491546L394.803726,181.641343L396.213481,181.985724L397.528519,182.418642L398.223924,183.327176L400.190184,183.305167L400.220588,184.708403L398.908827,187.049761L400.121780,187.583145L400.372690,188.790509L400.828789,189.850433L403.443185,189.469269L403.600663,190.740408L404.194129,191.720492L404.525140,192.866435L406.929352,192.713420L414.442595,189.463508L409.517172,193.857737L407.043806,196.685287L408.239908,197.311714L409.408571,197.966192L408.690752,199.695055L409.000664,200.829965L410.387268,201.374634L411.637292,202.008444L412.087436,203.075447L411.616334,204.615446L411.049502,206.185099L411.330061,207.313834L411.567600,208.459376L412.140357,209.439908L412.775863,210.392558L413.337461,211.382000L413.757680,212.436769L414.006996,213.566247L414.476627,214.596602L414.954438,215.623834L415.336713,216.691385L416.378111,217.489905L417.710043,218.183401L416.889735,219.730924L417.421804,220.742096L418.135553,221.687781L418.037595,222.934299L418.826498,223.857264L419.270365,224.906877L420.073995,225.835750L421.363915,226.611118L420.302768,228.159744L421.487093,228.979742L421.868987,230.059054L421.433451,231.382617L420.891335,232.724729L422.080896,233.565160L422.285050,234.689454L422.256961,235.873915L422.689891,236.934456L423.918192,237.798678L425.245352,238.654041L425.459900,239.786460L427.309400,240.548309L431.777272,240.763310L435.695868,241.159742L433.734563,242.805773L428.359293,245.083635L425.139582,246.871068L425.404129,247.979662L426.733694,248.906076L430.859343,249.390473L433.335980,250.193431L431.805712,251.628590L438.699342,251.846313L435.454534,253.523206L430.168008,255.406277L427.648204,256.878673L426.463815,258.162505L427.007312,259.247520L429.815056,260.121346L430.367065,261.235566L430.488032,262.391488L429.647783,263.618558L427.138813,264.942090L426.898886,266.093918L426.957654,267.225887L427.276731,268.346494L426.857517,269.497874L427.203643,270.620366L428.807010,271.720728L435.782621,272.770117L446.819356,273.897143L447.346769,275.177658L449.655607,276.481157L443.370199,277.682308L440.290187,278.865039L436.578343,279.982800L435.870040,281.160784L439.202166,282.513772L438.866938,283.722142L436.813658,284.822188L434.196138,285.854153L433.770039,287.013971L433.224684,288.158827L432.456512,289.276770L428.811414,290.102293L428.474213,291.224368L430.147458,292.570872L428.967285,293.599895L426.541368,294.453258L425.455368,295.454237L425.692517,296.630977L425.546150,297.755804L425.299600,298.865076L426.711943,300.249388L425.394667,301.182991L426.843828,302.602251L426.919428,303.786710L425.207313,304.623082L424.421915,305.626313L424.358614,306.774512L424.420207,307.952955L426.230451,309.535524L429.537291,311.504022L426.491067,311.978071L423.466059,312.413725L421.983971,313.206929L421.849242,314.342054L421.478848,315.414685L421.988567,316.736106L424.261074,318.585488L421.743676,319.039363L420.377763,319.812626L420.988197,321.194418L421.561616,322.579840L421.067048,323.625015L422.318722,325.263802L423.851883,327.028025L423.636713,328.198616L420.683782,328.369309L418.715032,328.865701L421.359586,331.103870L422.474877,332.795059L420.478818,333.266669L419.592484,334.165359L418.195143,334.842743L418.123756,336.069243L419.725927,338.031370L417.733718,338.432828L415.971014,338.911220L412.878324,338.751551L412.493109,339.820976L411.936164,340.809649L411.474752,341.843890L411.200061,342.971991L410.818507,344.050075L411.102195,345.475118L415.236187,348.945683L416.073451,350.735600L415.264802,351.652946L413.362207,351.957240L407.765891,350.144970L406.849485,350.928656L406.790532,352.207711L407.443494,353.921317L406.232519,354.530381L404.903104,355.053855L405.760569,356.932525L404.014558,357.183217L402.873078,357.801614L402.629064,358.999587L401.708202,359.752980L401.040628,360.672293L401.859365,362.617514L403.765582,365.358229L401.206596,364.973044L400.293778,365.737568L405.938588,371.320613L409.841171,375.748028L403.056019,372.173258L402.406368,373.184438L403.464660,375.534166L401.200452,375.287039L397.231879,373.627795L393.627460,372.187337L391.873914,372.214695L391.398054,373.295077L390.682005,374.176086L392.187837,376.991441L391.628827,378.041830L393.098664,380.917335L392.668836,382.124139L390.290320,381.540186L391.114941,383.917031L388.059967,382.645885L388.658243,384.841301L391.471902,389.250670L387.159407,386.672000L384.278073,385.436388L382.783080,385.560847L380.468466,384.811405L379.541864,385.482376L379.656943,387.267511L380.234289,389.586485L384.956484,396.533301L390.008671,404.036648L388.174200,403.898883L394.718597,413.418857L393.526367,414.121652L383.506142,404.299217L377.151377,398.584747L371.301412,393.290859L369.980559,393.459946L369.463945,394.630843L368.393990,395.104676L367.591936,395.921449L366.543595,396.415549L365.772191,397.276789L364.664939,397.684355L363.686690,398.262945L362.695950,398.821279L361.902633,399.659762L361.397909,400.925038L361.025650,402.406672L359.465614,402.128052L358.734847,403.088127L358.175004,404.325085L356.706625,404.146550L356.507968,405.982047L354.644881,405.139356L353.468448,405.388791L352.434245,405.867105L351.470569,406.463256L350.549416,407.134703L350.486139,409.336668L350.006101,410.842056L350.056936,413.359984L348.708212,413.322356L347.282169,413.115541L345.639964,412.460563L344.697429,413.148315L343.483610,413.294601L343.080655,415.095585L342.212120,415.970042L340.224650,414.466552L338.581675,413.635445L337.460343,413.912147L336.670677,414.933750L335.772996,415.728391L334.359383,415.317728L333.433907,416.049176L332.685213,417.229249L332.091442,418.832421L329.989231,416.603501L329.270624,417.898590L328.917393,420.218668L329.104430,424.117420L327.732026,423.782533L325.775255,421.723750L324.447354,421.406576L323.167113,421.199526L322.022560,421.385793L321.206525,422.612936L320.619634,424.639088L319.382847,424.567662L317.917578,423.682112L316.652526,423.440766L315.279565,422.771013L314.133999,422.902004L313.169659,423.729172L311.952903,423.576114L310.765145,423.515333L309.515955,423.168693L308.432491,423.516126L307.492627,424.531496L306.254147,424.179128L305.230518,424.846626L304.012369,424.546797L302.839396,424.446666L301.701538,424.516609L300.587466,424.714132L299.556381,425.420637L298.559034,426.395418L297.441281,426.639013L296.420350,427.580577L295.203655,427.137461L293.962945,426.430700L292.766336,425.989668L291.617750,425.906085L290.506367,426.154672L289.359472,426.050763L288.339588,427.361340L287.294360,428.582483L286.051537,427.313771L284.859284,426.511221L283.876895,429.124850L282.742770,429.471040L281.493717,427.224147L280.374039,427.679528L279.216647,426.998757L278.085852,427.105523L276.968284,428.340147L275.836690,430.345610L274.682022,429.096828L273.549284,427.494960L272.401744,428.163198L271.214171,430.051323L269.928977,434.105991L268.669861,435.945761L267.596860,433.206496L266.437151,432.803765L265.319596,431.800274L264.032885,433.441819L262.865141,433.196141L261.809811,431.643096L260.495344,433.153614L259.525484,430.946229L258.275697,431.655770L257.289413,429.949938L256.433587,427.368452L255.194693,428.032303L254.261782,426.372998L253.230297,425.553364L252.089398,425.518263L250.867302,425.978217L249.618332,426.540256L248.299563,427.435098L247.216265,426.950289L245.738533,428.557832L244.208074,430.289135L243.550485,427.636706L242.956891,424.860636L242.084355,423.521583L241.010713,423.133516L239.729089,423.630797L238.853782,422.422129L237.738178,422.221496L236.633907,421.972776L235.566602,421.584450L234.317798,421.856764L233.366058,421.054575L232.103731,421.338983L231.024826,420.982058L229.972852,420.539622L228.935520,420.056581L227.414938,421.063936L225.753286,422.426412L225.175842,420.538215L223.991924,420.451405L223.078646,419.597224L221.951830,419.345478L220.907993,418.866581L219.997642,418.043889L219.165830,417.039363L218.128153,416.572505L216.815346,416.777873L215.347417,417.326818L213.827670,417.956198L213.670409,415.422192L213.180361,413.717618L212.155671,413.237960L211.120492,412.781372L209.953172,412.603583L208.605474,412.788528L207.712377,412.022332L206.703274,411.497777L205.708032,410.946606L204.453379,410.896410L202.778308,411.624528L202.220907,410.231050L200.590039,410.826926L199.066423,411.190478L198.866550,409.188881L197.771398,408.787166L195.794481,409.881159L194.316896,410.082655L191.116916,413.092946L191.354470,410.418000L193.411770,404.912725L192.795068,403.755026L191.491640,403.673083L189.423582,404.732972L187.602423,405.370423L184.767497,407.455169L184.097416,406.325512L184.885737,403.136289L184.881012,401.135535L185.001111,399.004018L183.438705,399.199846L181.522955,399.840609L181.437423,398.033768L181.434174,396.154178L180.930189,394.948946L179.669214,394.709531L178.014432,394.942966L177.307785,393.992844L176.759831,392.858991L175.133638,393.011280L174.173285,392.361859L174.590657,390.129715L173.273225,389.901017L172.252413,389.326623L172.024423,387.877532L170.813042,387.510500L170.433930,386.245985L169.924411,385.132436L169.141785,384.310624L168.374419,383.474261L166.962666,383.284998L165.789027,382.842532L164.668630,382.337372L164.532672,380.879356L164.568743,379.277559L163.185514,379.019024L161.682058,378.853766L161.639627,377.349389L161.040428,376.359694L159.975792,375.781968L159.295365,374.864365L157.712472,374.715673L156.998335,373.817896L156.420361,372.808366L154.988021,372.496688L155.519090,370.596624L155.397816,369.240958L154.930006,368.168212L154.411824,367.139356L153.523850,366.392682L152.770942,365.541125L150.015807,366.147935L149.401785,365.170199L148.698239,364.257032L150.037070,361.922355L149.653018,360.811059L147.979989,360.573735L147.249888,359.688888L146.732731,358.663018L146.703134,357.326542L146.599911,356.048816L145.882639,355.162754L142.960120,355.620689L140.843806,355.547088L141.436768,353.843443L139.847803,353.429700L139.773991,352.131715L138.621662,351.448193L137.064330,350.976339L138.977716,348.607089L139.190112,347.189414L139.925014,345.513311L138.869477,344.778857L138.714004,343.581397L138.664282,342.338342L138.032603,341.385728L137.788012,340.246523L137.398510,339.179319L136.502658,338.345313L136.470580,337.116355L135.733122,336.205105L135.408137,335.111230L135.101528,334.011774L133.638742,333.392235L132.505612,332.621464L133.135441,331.140826L133.065772,329.949055L132.944611,328.782599L132.472842,327.750668L131.618461,326.855778L131.207653,325.796304L130.321919,324.900092L128.227116,324.402271L127.567711,323.404542L129.008660,321.729590L129.118467,320.499196L129.572348,319.171631L128.741690,318.236540L126.589664,317.673148L127.635811,316.186324L122.161887,316.491249L115.415065,317.048945L108.462214,317.556780L92.626742,320.158782L111.331226,314.235590L118.597622,311.263758L123.151578,309.017906L124.867547,307.460891L123.287269,306.621444L124.247161,305.251359L120.499161,304.807941L120.265191,303.659184L115.827637,303.256333L111.420669,302.783323L115.414285,300.883428L116.340396,299.521648L119.044203,297.915574L122.865332,296.197571L124.305716,294.853662L124.082823,293.740367L123.575307,292.659005L123.810756,291.490926L123.015492,290.432911L120.596353,289.517335L118.043675,288.578576L116.599277,287.515451L117.103688,286.292692L117.305614,285.098115L117.763921,283.893185L119.488085,282.633954L121.438452,281.391908L122.275820,280.217707L122.856788,279.063424L123.266756,277.921546L122.717718,276.797423L122.235153,275.665029L122.106131,274.526613L122.516720,273.391914L122.609835,272.257440L122.172994,271.110562L123.215111,270.005405L122.410335,268.840687L119.599155,267.567310L116.815826,266.252666L121.192555,265.344916L122.802983,264.307207L123.452732,263.217728L121.626277,261.925588L120.426914,260.662741L119.141352,259.371622L118.829533,258.164377L122.977519,257.464958L123.437955,256.372991L121.852591,255.018974L119.549704,253.539623L119.184091,252.305048L120.262795,251.283705L122.842848,250.517688L124.227321,249.586799L123.422795,248.288469L120.525051,246.589750L121.951107,245.671693L124.424031,244.980993L124.903192,243.912194L125.588301,242.891498L124.822358,241.554597L120.193369,239.311243L119.744502,237.987611L116.162328,235.880888L114.540790,234.211344L113.838898,232.752339L115.460610,231.904806L119.314255,231.698836L126.028320,232.368126L128.167405,231.794330L127.626644,230.439664L126.430430,228.867282L129.056019,228.487749L129.144636,227.316223L125.234019,224.799793L124.984632,223.469980L122.595838,221.376872L122.037451,219.896467L126.781475,220.354651L124.677958,218.303574L119.935311,215.191597L117.640494,212.955956L103.738192,205.996020L107.762027,206.164823L100.889896,201.814805L89.067815,195.210566L90.326975,194.116606L98.538688,196.141328L122.234526,205.360870L134.833370,209.838671L137.653413,209.901044L137.575718,208.606036L138.306405,207.698520L138.830002,206.691364L139.397601,205.706968L139.297211,204.375894L138.778641,202.811349L137.799117,200.977953L138.113141,199.825488L139.927165,199.506616L141.776437,199.232264L143.004157,198.623600L143.415751,197.547654L143.510173,196.278503L141.614092,193.787469L143.470932,193.568831L141.220451,190.790550L142.199269,190.018877L142.925915,189.090435L143.827178,188.279274L147.266979,189.179162L149.333971,189.202336L149.010708,187.598528L149.432792,186.498547L151.245218,186.388792L152.252485,185.719375L151.325796,183.628937L151.431659,182.276289L152.546353,181.678842L150.180289,178.397389L151.385583,177.849214L153.060982,177.687810L153.986738,176.942145L155.777877,176.913271L156.157680,175.732014L154.558562,172.863497L159.081232,175.204815L160.463621,174.899695L160.951178,173.817425L161.377555,172.672969L162.829349,172.456854L163.737226,171.754831L163.686370,170.153625L165.128039,169.955969L165.399843,168.641850L165.637600,167.279136L166.312635,166.337023L166.606213,165.003809L168.505045,165.308134L169.551824,164.754861L170.410609,164.009121L171.445728,163.454334L172.128951,162.521358L172.307769,161.023489L171.052461,157.887576L169.310706,154.123365L170.693224,153.895693L173.703157,155.603035L177.245343,158.022783L178.482252,157.738583L179.217229,156.848637L179.557472,155.458835L179.664813,153.751763L181.225169,153.890211L182.686255,153.924623L183.469245,153.078457L184.190453,152.143527L185.205364,151.604021L186.374961,151.284564L187.474666,150.876888L188.137992,149.848325L188.732625,148.706867L189.935181,148.453571L190.722943,147.585608L191.389729,146.523850L191.808083,145.059516L193.529792,145.636558L193.920186,144.104089L194.005152,142.038806L196.053937,143.202195L197.301818,143.065835L198.370373,142.635055L198.506450,140.570439L199.785384,140.496823L199.957577,138.426314L201.233902,138.346919L200.420262,134.342915L201.998690,134.806296L205.673904,139.408003L206.820030,139.162561L207.137212,137.244371L208.344568,137.113529L209.957784,137.852656L210.591933,136.534984L210.901900,134.473297L212.069012,134.264713L213.137557,133.841834L214.860799,134.945212L215.728426,134.079420L217.015273,134.213427L217.892841,133.356763L219.190390,133.545643L220.339056,133.375750L221.281604,132.670498L222.120504,131.670234L223.188252,131.276315L224.444335,131.416908L225.472792,130.920510L225.960796,128.806609L226.804774,127.692146L227.326614,125.528613L228.527014,125.453116L229.991595,126.265244L231.332702,126.721470L232.363567,126.138693L232.863610,123.633688L234.953739,126.879873L236.406281,127.912074L237.529101,127.730998L238.287629,126.078497L239.535556,126.385508L240.833529,126.948355L241.942196,126.719605L243.082119,126.637418L243.919415,125.107444L245.208381,125.739314L246.289153,125.354996L247.283662,124.487934L248.183270,123.025383L249.522168,124.050570L250.363877,122.105695L251.298499,120.590718L252.525169,120.937784L254.023295,123.304526L255.151439,123.133565L256.388806,123.846822L257.369249,122.448516L258.567982,122.893784L259.794854,123.704175L260.860024,122.924981L262.019523,123.130932L263.141854,122.918453L264.313579,123.380379L265.428507,123.069474L266.549698,122.806804L267.695047,122.984753L268.801580,122.291878L269.962106,122.937421L271.093660,122.851372L272.212167,122.002681L273.328695,119.824558L274.492153,122.061452L275.632215,121.879294L276.758572,123.121270Z" />
<line x1="50" y1="575" x2="100" y2="575" fill="none" stroke="blue" stroke-width="1.0" stroke-linejoin="round" stroke-miterlimit="10" />
<text x="125" y="578" style="text-anchor:start;fill:black">n1_4mer:GRV/n1_4mer:RV</text>
<path style="stroke:green;stroke-width:1.0" d="M276.318657,186.488212L276.954376,187.556408L277.757649,182.475911L278.344742,185.238404L279.079900,183.777025L279.884580,181.410319L281.108273,172.622478L281.362174,180.245278L281.547135,187.272667L282.397702,184.922226L283.451467,180.707295L284.242224,179.861122L284.385286,185.334398L285.195523,184.136418L285.813995,184.700204L286.446223,185.098601L286.713041,188.170643L288.066882,183.296154L288.425448,185.555983L288.503464,189.385935L289.647220,186.426889L290.314785,186.491307L292.540718,177.936544L293.860103,174.902408L294.246692,176.873692L295.241402,175.723667L294.812536,181.394766L296.145250,178.647041L297.048783,177.987300L298.649418,174.417657L299.383508,174.656406L299.749352,176.359238L299.872795,178.905667L299.659243,182.574495L298.049312,191.122410L299.800010,187.313407L300.792404,186.332183L301.891834,185.056386L302.309233,186.079335L302.244220,188.589967L303.335340,187.409912L305.488422,183.097769L305.411817,185.563575L304.654762,189.875774L305.460332,189.616145L305.882159,190.429769L308.275867,185.939414L311.702001,178.957926L313.743664,175.837001L315.379997,173.877765L316.510489,173.254088L314.574727,180.027777L315.752154,179.218102L314.296898,184.515512L311.144767,193.441817L311.889318,193.408111L313.393528,191.739000L312.775022,194.659633L314.740518,192.089068L318.234637,186.496865L317.684876,189.247915L317.319203,191.546745L316.620541,194.418342L320.145777,189.167413L321.732738,187.734345L323.968468,185.173840L324.075736,186.551336L325.045844,186.365766L326.029938,186.174953L324.035867,191.099166L321.719892,196.411573L321.034251,198.861930L322.326988,198.024804L324.009770,196.602826L327.932901,191.714097L331.593820,187.402281L331.261673,189.323422L330.002823,192.585119L330.707325,192.861357L334.411269,188.789548L331.258306,194.652397L327.266633,201.524369L328.319029,201.214844L328.260434,202.440713L327.234516,204.938542L334.335115,196.639602L336.777882,194.664162L330.665748,203.717596L331.180345,204.152995L333.689432,202.110835L332.647151,204.487121L335.279684,202.377860L336.393882,202.146734L334.863963,205.026745L337.595730,202.927550L336.636715,205.090563L335.701460,207.176614L340.353659,203.064206L344.219855,199.939766L339.776022,205.800101L336.946504,209.803194L341.580436,205.963394L346.879715,201.571288L348.516067,201.010403L349.574906,201.054703L344.703076,206.907636L343.393344,209.175634L341.401464,212.038773L341.429032,212.945827L342.754646,212.646175L342.862744,213.474048L344.769741,212.685741L344.128545,214.178077L345.354593,214.023132L346.815502,213.687813L347.555390,213.984702L355.328381,208.463266L355.405995,209.402738L348.780842,215.717633L344.502932,220.001869L346.984014,218.905494L347.633090,219.264333L348.305345,219.611194L351.526869,218.067596L353.705389,217.352689L353.436749,218.442373L349.440817,222.162056L348.479016,223.663578L348.380603,224.541607L346.118967,226.873102L353.098668,222.993845L353.709777,223.429086L351.931336,225.409482L354.359669,224.677009L360.277485,221.810983L362.256328,221.475464L357.536570,225.213017L358.581333,225.428208L361.307568,224.676586L356.950031,228.031842L360.826698,226.655783L359.073141,228.465098L360.921851,228.274574L361.427329,228.830575L361.774917,229.472508L359.559311,231.435155L357.624430,233.207917L357.039505,234.268414L355.681377,235.689145L358.229321,235.212135L358.486270,235.850658L357.123506,237.233417L359.331352,236.976578L358.646219,238.032787L360.073534,238.157049L357.840943,239.854437L355.960384,241.361704L364.380505,238.641604L363.673951,239.696582L361.832400,241.176930L361.257868,242.138662L362.317060,242.477918L362.287106,243.227483L360.930435,244.444312L364.713981,243.849781L365.597459,244.297350L362.886662,245.944086L360.133750,247.556017L362.086945,247.640841L362.716506,248.159325L361.692134,249.177458L364.902454,248.948757L369.120985,248.484742L368.623564,249.376103L365.544743,250.942317L365.549330,251.661845L368.887598,251.545896L368.471676,252.388201L366.906900,253.490167L367.467979,254.084165L373.451749,253.500315L379.158036,253.065803L379.154399,253.875613L374.997923,255.493035L367.131161,257.739054L364.387524,258.941391L369.348732,258.774674L370.765523,259.264596L374.300852,259.442491L373.335542,260.343390L377.899217,260.445902L373.919037,261.759715L372.980629,262.627570L367.425478,264.027893L367.463883,264.721240L366.987112,265.467399L366.609859,266.195744L364.337262,267.085344L363.109349,267.855220L362.839698,268.535359L367.339681,268.895416L365.007703,269.722700L367.007336,270.292929L368.320398,270.922503L368.515559,271.611729L366.744465,272.360069L368.275442,273.011303L377.378834,273.580115L382.797248,274.308082L383.541130,275.111886L382.956236,275.915517L380.957362,276.688008L380.524958,277.467527L377.404941,278.157993L377.556183,278.927559L379.333758,279.774237L381.295450,280.657786L380.554351,281.407214L379.337423,282.113831L378.661221,282.843942L377.155641,283.495820L374.904089,284.058423L368.370603,284.167787L371.450702,285.196186L376.999820,286.551757L371.355960,286.640205L365.750652,286.649597L365.095739,287.248413L365.942576,288.054243L363.825145,288.426365L361.575673,288.746777L364.798717,289.945182L364.449175,290.572673L365.554800,291.461099L366.108039,292.263761L365.866243,292.920154L365.947877,293.641162L369.794978,295.166658L367.923125,295.493156L374.145861,297.641302L376.752086,299.035366L371.768673,298.620659L365.352256,297.768938L361.365868,297.449894L361.090582,298.064336L362.389220,299.111384L364.762021,300.487133L372.309632,303.415230L368.680675,303.114583L360.338575,301.305575L360.602998,302.086989L362.394978,303.371951L368.437106,306.104761L365.669837,305.935720L364.555998,306.302403L364.358948,306.982491L363.303012,307.348630L364.803929,308.659329L370.266861,311.518548L370.539551,312.441726L368.411284,312.412762L365.342975,311.967167L365.755755,312.927776L364.404940,313.148049L366.894786,315.022229L364.120285,314.606281L358.163208,312.703227L359.341300,313.997346L359.883213,315.018098L357.367686,314.584784L354.221893,313.802045L353.514708,314.183544L356.840355,316.607604L362.191960,320.148894L368.556274,324.331650L367.776622,324.807339L367.115073,325.339726L365.043831,325.082496L356.077480,320.889534L353.994678,320.490961L353.113898,320.761977L357.586328,324.212095L354.016576,322.886137L353.931192,323.641996L360.170544,328.366530L356.867610,327.150267L350.431691,323.844259L348.626736,323.457735L349.010920,324.504656L349.601219,325.707915L352.132304,328.272699L357.511006,332.900165L356.364896,333.005268L351.894280,330.686724L350.948675,330.869114L347.329452,329.041726L349.054145,331.194801L356.828749,338.060504L357.323065,339.424572L357.643661,340.673996L354.353723,339.029800L348.591772,335.291170L344.955684,333.188523L342.987347,332.413516L345.010006,335.020730L344.635718,335.605669L345.542485,337.324444L346.605555,339.219775L343.514235,337.374446L343.328840,338.142919L342.948810,338.736695L340.417480,337.284845L340.743111,338.535285L339.267554,338.041909L337.730385,337.457780L336.784946,337.439849L343.962814,345.740112L345.190761,348.081049L341.134606,344.892655L339.936212,344.658320L339.718374,345.469911L338.466973,345.149121L337.014751,344.578890L335.236322,343.605695L333.247833,342.346249L332.551680,342.551930L332.042471,342.973542L331.247078,343.048823L331.487413,344.385738L331.080150,344.943277L329.953864,344.594564L328.751991,344.125063L327.994510,344.208758L330.160801,348.160541L328.658743,347.282257L327.675086,347.072864L326.871225,347.094245L327.231599,348.747800L324.526694,346.044866L326.194767,349.616423L325.469183,349.746436L325.073644,350.365163L327.334978,355.056148L329.985731,360.494847L327.848803,358.533502L325.529329,356.199852L319.327704,347.431256L322.988612,354.741312L320.410721,351.746013L321.028765,354.129676L322.472217,358.028137L323.029513,360.474298L323.387716,362.634030L323.413201,364.244913L321.105868,361.523225L319.954462,360.898223L318.090049,358.850303L318.902216,362.019238L318.603149,363.051434L319.121768,365.793263L317.301203,363.722128L315.141870,360.833318L313.583717,359.129128L313.505411,360.636247L314.124936,363.776373L314.126531,365.602966L311.631406,361.591795L310.830967,361.489653L311.783791,365.694489L311.039059,365.794434L307.092692,357.642319L306.098755,356.885334L308.619231,365.548516L310.091197,371.714977L309.295539,371.764290L307.747691,369.630032L306.794669,369.139488L305.650777,368.032959L304.609833,367.178284L304.613615,369.604662L304.603783,372.104749L304.444541,374.226424L302.580302,370.548207L301.021890,367.736497L299.244467,363.944096L299.353235,367.039973L299.474958,370.367377L299.595438,373.890596L297.452841,368.235778L296.143495,365.763938L295.678460,366.859287L294.970368,366.903895L293.681020,364.166353L292.933804,363.894273L292.363539,364.501883L291.718234,364.746355L290.100381,359.555348L290.317697,364.624963L289.116533,361.471129L288.409445,361.171976L288.336595,365.117321L288.006572,367.647889L287.459582,368.823081L286.562399,367.332821L285.582273,364.934909L284.602612,362.201494L284.316216,365.813632L283.360618,362.947368L283.153903,368.131786L282.848567,373.045147L281.645772,366.592926L281.000568,367.212913L280.836858,376.342289L279.978580,374.324452L279.105534,371.240930L278.424678,372.297043L277.539216,366.531887L276.815347,364.480762L276.163376,365.633341L275.495418,366.982771L274.813133,365.558581L274.154045,363.924335L273.437780,367.090487L272.597708,373.387570L271.734297,377.463119L270.815682,381.387589L270.076482,380.216496L269.436910,377.521555L268.783288,375.696433L267.867881,378.037669L267.109664,377.862398L266.591423,374.857977L265.978889,373.362982L265.331115,372.439311L264.598266,372.432556L264.221694,369.299407L264.260821,363.132916L263.227739,365.962300L262.846450,363.711539L261.929136,365.394552L261.125988,366.149597L260.412839,366.259729L259.390687,368.194791L257.860056,372.853418L256.979119,373.556875L255.603693,376.787612L255.175062,374.980670L255.258549,370.812928L254.288062,371.866510L255.100917,364.788408L255.190899,361.332845L253.841984,364.159387L252.762457,365.695682L251.780497,366.740278L251.013993,366.885564L251.610580,361.944708L250.668808,362.832023L250.453715,361.109964L249.173549,363.105950L249.005946,361.291083L249.484209,357.473769L248.336720,358.962399L245.357280,365.989319L245.179533,364.271429L246.312129,358.798337L244.844855,360.988507L242.876732,364.460985L241.187769,367.003976L240.983306,365.472987L241.269587,362.722229L242.100096,358.695725L240.028850,362.054553L239.012769,362.689670L238.075149,363.100068L237.007067,363.787288L238.021211,359.667816L238.684081,356.489602L237.314176,357.897081L236.515103,358.007871L234.264674,361.173714L233.239575,361.665391L233.246003,360.026484L232.827893,359.285136L233.143372,357.120146L231.795770,358.225811L227.309719,365.217523L225.288022,367.369975L223.911568,368.256125L222.758882,368.696927L224.276996,364.401743L223.995191,363.358311L224.177837,361.546396L222.992941,362.072153L221.060992,363.797362L221.378162,361.811118L228.517027,349.014716L226.797116,350.498676L222.789873,355.447490L219.178819,359.624337L219.054343,358.453790L217.229553,359.803082L216.743385,359.162402L218.088236,355.924617L217.399549,355.620787L217.904806,353.668010L216.474586,354.387774L216.517865,353.104152L215.898351,352.718024L217.439509,349.532490L216.518867,349.569623L217.600289,347.078421L213.116956,351.531344L210.464261,353.606992L214.047400,348.124995L210.713437,350.966917L211.033587,349.456628L212.653203,346.487062L213.928212,343.980960L214.999383,341.762327L216.125472,339.535802L214.677921,340.141236L213.522467,340.404856L213.336604,339.630997L214.019623,337.969162L210.883010,340.228654L207.658801,342.495572L206.211775,342.926291L203.390027,344.666735L206.243829,340.900563L208.582959,337.716002L207.924908,337.398763L204.286902,339.807226L204.985799,338.213542L203.354773,338.723812L204.596815,336.685898L203.026599,337.120052L198.732575,339.841145L200.293068,337.561675L197.229195,339.147904L199.048290,336.702508L201.908230,333.480693L203.850627,331.062396L202.584332,331.190877L205.101013,328.408616L205.218589,327.500102L202.203688,328.923838L197.349429,331.628675L197.762716,330.450638L194.582745,331.830605L197.719622,328.755081L199.383077,326.766450L196.567325,327.840312L194.289899,328.504835L195.622751,326.774239L197.054484,325.016691L199.993561,322.345630L199.767816,321.708042L191.157361,326.192498L187.803932,327.352330L186.704040,327.121811L186.980435,326.078327L187.778113,324.750590L186.724163,324.483872L184.983774,324.581833L189.546981,321.242040L192.950428,318.613249L194.394326,317.078649L186.886354,320.165987L188.576658,318.489674L189.919179,317.022748L194.606702,313.965240L193.216666,313.889300L194.227166,312.673614L192.071310,312.929564L195.617913,310.594792L190.457758,312.154683L192.823526,310.386941L190.313566,310.722311L189.465365,310.331876L184.077446,311.766996L186.997033,309.825888L192.652898,306.880227L192.711786,306.154566L188.327590,307.078290L188.197104,306.393384L187.179271,306.023685L187.548385,305.162438L182.372959,306.177327L184.143745,304.829662L189.181465,302.469197L185.732499,302.841766L190.498771,300.666075L186.881305,301.049443L176.726408,303.257086L182.381525,300.885628L180.472656,300.661515L176.516133,300.949459L185.399466,297.896367L181.356132,298.187846L185.307613,296.501559L188.329820,295.095516L184.116689,295.360172L183.356163,294.814774L182.043292,294.374942L180.051650,294.053151L181.815298,292.978182L184.497030,291.762494L185.081415,290.962378L182.639838,290.687020L185.096508,289.581572L184.520844,288.984013L184.682959,288.270855L187.423534,287.202402L185.783004,286.754155L186.430593,285.998239L185.692480,285.414959L185.056719,284.810539L183.017200,284.340178L179.897637,283.941712L172.573480,283.861104L172.152531,283.126115L174.631408,282.178328L176.074769,281.334775L176.306745,280.582035L183.618133,279.485862L184.423952,278.770174L185.481273,278.058340L186.339103,277.367945L181.467760,276.800916L177.444417,276.151471L176.320851,275.429579L179.235980,274.703498L181.192450,274.010707L179.818332,273.287019L182.259771,272.639767L187.612632,272.124454L179.590080,271.148759L172.420959,270.093732L169.088462,269.143260L178.659506,268.952337L183.831943,268.594873L186.294892,268.103487L177.701635,266.705757L177.170518,265.925932L173.526931,264.825014L172.518065,263.952154L182.338240,264.311924L191.420826,264.728101L181.687540,262.825594L173.982985,261.054300L170.886570,259.835635L175.036480,259.678770L180.505590,259.795709L186.186198,260.030159L180.941201,258.424589L173.419468,256.317823L179.818867,256.760721L185.454815,257.148164L185.914945,256.548848L185.717348,255.813201L181.995955,254.287477L175.364871,252.030351L174.624401,251.070795L172.661442,249.795693L173.120367,249.102245L169.788249,247.419211L172.573766,247.332360L172.805766,246.576529L176.914422,246.930423L182.812117,247.873603L189.377074,249.110745L185.599640,247.240065L183.141702,245.724821L180.880212,244.229881L180.648600,243.374261L181.433130,242.859941L184.754357,243.247234L186.884267,243.257013L183.560152,241.287869L185.803070,241.357913L187.277571,241.165486L186.425473,240.076645L186.462989,239.327096L186.693257,238.652930L189.610166,239.107358L189.166893,238.166275L190.019753,237.780212L193.716458,238.675255L192.297388,237.299479L194.071388,237.377522L193.773224,236.500476L192.107942,234.952257L192.721357,234.489877L190.752349,232.737811L194.131469,233.676058L195.190460,233.464543L192.478882,231.269059L190.147709,229.220847L188.295017,227.383999L190.982374,228.041817L194.231394,229.064775L195.152729,228.798188L197.278294,229.251907L191.404011,224.952011L187.563402,221.763886L189.223683,221.894889L186.121507,219.054161L188.581977,219.699847L188.833007,218.951390L187.584926,217.208313L196.648494,222.357451L201.260202,224.654632L194.818389,219.376298L194.952796,218.581656L203.570878,223.855142L201.209001,221.327985L195.007411,215.901113L192.078927,212.777350L195.377513,214.320201L193.463852,211.896146L190.861792,208.874275L196.892295,212.666942L197.818232,212.459097L204.734680,217.191137L205.935895,217.311336L203.724156,214.556804L206.593204,216.108166L205.842196,214.558791L207.235284,214.880059L207.314196,214.042965L209.200576,214.848081L208.147183,212.964603L203.338810,207.502282L207.551991,210.515752L205.963947,208.006055L205.929193,206.965950L204.100483,204.116392L203.831575,202.779480L207.985802,205.974078L214.552472,211.802642L213.529373,209.767007L213.179830,208.409101L211.573794,205.650133L209.184172,201.952036L206.574012,197.907907L206.574231,196.741584L206.505527,195.475198L209.886055,198.251237L217.151179,205.775738L217.837893,205.552569L219.325438,206.323501L217.710194,203.244879L216.104043,200.095537L214.499900,196.864382L216.611018,198.419118L216.288391,196.794484L218.284634,198.269633L220.319920,199.858518L222.232760,201.339980L221.630628,199.314797L224.131179,201.707679L223.221052,199.197004L224.635724,200.075732L224.020486,197.926546L223.874532,196.440234L221.820166,191.936481L222.915822,192.297516L222.698195,190.563540L222.251053,188.407294L224.578458,190.822927L228.061934,195.297563L228.446328,194.586269L227.248019,191.080795L226.776769,188.764396L228.373538,190.142030L230.663077,192.865017L228.739885,187.753611L229.544227,187.705496L234.358118,195.510250L235.624512,196.550780L233.651210,191.065510L235.606060,193.507896L237.246797,195.393987L237.389636,194.144916L234.896456,187.078225L233.614494,182.447805L235.227075,184.245854L238.702650,190.469151L240.196061,192.252218L242.228382,195.430707L240.054922,188.325509L242.782710,193.342450L243.160521,192.505224L240.964949,184.822478L240.675802,181.964331L242.635628,185.222547L244.281572,187.756625L246.201254,191.221631L244.898844,185.263836L245.035664,183.414538L244.182615,178.377593L245.237978,179.227852L245.970065,179.067690L246.771443,179.145913L247.618979,179.401605L246.956919,174.261003L249.532461,180.802563L251.504007,185.452352L252.754129,187.568756L252.657461,184.368850L253.248333,183.849184L255.540471,190.677117L255.751165,188.659575L256.650087,189.704849L256.470563,185.637951L258.087458,190.265512L257.422045,183.381208L258.648531,186.204238L259.106729,184.930336L260.284992,187.817458L261.181170,189.238923L260.911847,183.219246L261.837716,184.774152L263.072982,188.748387L263.083721,183.825492L264.259477,187.769474L264.349993,182.849960L265.067952,183.062036L266.005690,185.503885L266.654591,185.245374L267.313831,185.073310L267.728330,181.740325L268.451613,182.091076L269.126714,181.771969L269.687964,179.328190L270.573727,182.889756L271.145785,180.045175L271.821441,179.059150L272.602286,181.611085L273.346363,184.247789L273.946843,177.217701L274.681768,179.164270L275.379067,183.190999L276.026131,186.378371Z" />
<line x1="50" y1="625" x2="100" y2="625" fill="none" stroke="green" stroke-width="1.0" stroke-linejoin="round" stroke-miterlimit="10" />
<text x="125" y="628" style="text-anchor:start;fill:black">n0_4mer:PS</text>
<path style="stroke:red;stroke-width:1.0" d="M276.850741,150.773272L277.681029,155.044173L278.658276,152.258258L279.508326,154.011731L280.475759,152.566853L281.405966,152.260211L282.730062,145.440521L283.545055,147.734634L284.450256,148.372735L285.163249,151.247680L286.206225,149.972561L287.080675,150.642279L287.448670,156.067296L288.358961,155.943516L289.262504,155.904225L290.097530,156.420353L290.830860,157.645047L291.967110,155.924207L293.145314,154.110948L292.809801,162.083085L294.447595,157.398573L295.391881,157.149260L297.187831,152.221244L298.687269,149.282836L299.361418,150.797047L300.513423,149.866423L300.990888,152.204856L301.896545,152.440006L303.199528,150.924567L304.860105,148.003242L305.662456,148.817125L306.310272,150.210103L306.613013,152.865295L306.272546,157.787121L305.853679,162.721930L307.592192,159.762213L308.526054,159.745836L309.331513,160.173308L310.682539,158.815297L310.574793,162.168027L312.445578,159.248384L313.945938,157.604009L313.682114,161.241916L313.822186,163.560610L315.315789,161.990153L316.471167,161.431964L318.750531,157.904692L321.470174,153.396495L323.314664,151.340374L325.349133,148.912401L324.812478,152.905171L323.891404,157.669430L326.098723,154.900026L325.877609,157.849929L325.370302,161.342874L326.976742,160.037708L325.981934,164.439520L328.121776,162.019973L327.899011,164.636408L329.613478,163.203893L330.517248,163.468229L331.084679,164.401297L331.208406,166.174733L332.989664,164.748207L333.625083,165.527358L336.279282,162.591284L336.938197,163.369462L337.246671,164.757361L337.664323,165.923608L336.535049,169.712947L335.286415,173.591066L335.225594,175.390244L336.834841,174.428440L338.734151,173.049363L344.185358,166.142090L345.485086,165.900936L345.606643,167.478569L345.463068,169.419867L345.181341,171.519892L347.290319,170.101028L345.756249,173.946567L343.452528,178.770486L347.223437,175.054115L345.325140,179.192631L344.850881,181.309948L350.836956,174.846591L353.111742,173.423642L347.583755,182.053354L348.900679,181.806522L351.306497,180.231374L351.693280,181.190265L354.853966,178.795683L354.813796,180.288679L354.218741,182.403506L355.388380,182.441170L354.668760,184.638303L355.174817,185.418504L357.480411,184.212523L361.312277,181.405181L359.988663,184.207039L360.541663,184.970009L362.122222,184.663817L363.079459,185.022441L364.393837,185.030362L366.355085,184.416193L361.615109,190.386408L363.016447,190.289610L363.654485,190.938674L366.636266,189.398682L368.966017,188.524150L367.862852,190.808365L368.982369,191.060435L367.665986,193.468942L370.291322,192.410276L370.443774,193.515274L367.966057,196.820396L374.077101,192.933530L374.272336,194.011096L370.202093,198.505815L369.692833,200.068934L371.382476,199.892665L372.269623,200.359263L373.113623,200.866300L374.513956,200.966280L374.763536,201.928769L375.811689,202.308691L375.639506,203.566278L377.400783,203.457264L376.354856,205.305790L373.902451,208.071748L379.802428,205.211725L378.610707,207.113912L382.487357,205.712841L382.791740,206.647865L389.044255,203.868660L391.461988,203.560208L388.665238,206.435857L384.192790,210.238144L384.554172,211.122172L382.735360,213.253453L382.098356,214.673944L383.068434,215.183583L384.242584,215.592455L383.959080,216.794127L384.948464,217.314231L383.836779,218.927436L385.232564,219.243508L386.635453,219.574397L384.015753,221.883622L386.345345,221.771240L386.361800,222.778944L383.467314,225.118547L386.154806,224.882387L384.620909,226.553346L386.053348,226.905923L384.875351,228.384993L385.447850,229.109933L388.606897,228.786740L387.980917,230.019343L392.750280,229.133757L390.705534,230.920094L392.951105,231.067972L392.027984,232.401801L392.734368,233.135269L389.263314,235.325835L390.190325,235.963053L391.250040,236.566965L390.071821,237.905087L392.815198,237.987280L393.983471,238.591839L392.044202,240.136643L390.850978,241.429593L393.395981,241.646120L393.622336,242.534172L393.552805,243.500592L394.703939,244.147546L393.358825,245.432728L394.669731,246.050611L396.472032,246.570762L396.103010,247.607052L399.507091,247.810404L403.417605,247.957084L402.588976,249.122659L399.010852,250.808744L391.610202,253.152860L393.383318,253.732251L392.692135,254.760266L396.460309,255.042640L403.739911,254.830260L406.872256,255.344846L411.839765,255.645340L411.135434,256.778310L402.127899,258.947021L397.838004,260.417531L396.604789,261.481787L399.115819,262.137909L404.492495,262.554995L406.162808,263.379893L402.692269,264.645444L403.148662,265.568785L395.659219,267.023209L396.468661,267.878093L398.551969,268.679114L399.128587,269.576385L397.598699,270.557984L398.961505,271.433029L397.547203,272.387208L400.685704,273.256874L406.016757,274.159043L408.901411,275.138028L408.564888,276.132690L408.741386,277.130636L405.034078,278.040633L403.050533,278.948860L401.379327,279.839905L403.952325,280.900765L406.438428,281.996071L406.817746,283.001418L406.663614,283.976958L406.171423,284.925611L405.225079,285.830228L403.702422,286.669602L397.331589,287.011381L397.685123,287.969531L403.383652,289.539798L404.098497,290.595641L403.507686,291.496441L400.641511,292.080821L401.502497,293.158650L398.719905,293.700883L395.178226,294.082303L396.592177,295.236561L392.695024,295.490140L395.784329,296.956239L395.866704,297.902632L393.694936,298.408380L395.626797,299.724312L395.521993,300.639817L394.616108,301.379994L400.720647,303.710014L400.933827,304.747456L396.341514,304.618744L392.130549,304.517118L389.130677,304.667063L388.378646,305.375021L390.137252,306.767288L391.737355,308.146541L397.213770,310.687448L395.411669,311.136843L387.106716,309.556842L388.260370,310.838492L388.856546,311.962449L393.423580,314.422638L398.230926,317.045266L401.838628,319.333758L398.546378,319.218526L396.930723,319.667693L391.928228,318.825763L395.510606,321.195207L396.144399,322.476206L393.522627,322.470269L391.305186,322.590565L390.419210,323.234891L388.506895,323.432073L392.705855,326.263526L389.877291,326.053048L385.713509,325.193549L383.352436,325.099506L383.282216,326.049533L383.180383,326.990014L383.865117,328.320983L381.031685,327.916164L381.179682,328.981708L382.640622,330.737422L388.621647,334.911999L388.040354,335.685969L387.168400,336.298617L384.298022,335.791703L381.322659,335.178205L379.337964,335.085494L378.556282,335.667055L380.331374,337.765565L377.685463,337.230109L379.362429,339.314205L382.105478,342.110616L381.289816,342.707390L374.890264,339.681911L374.595855,340.549417L372.682609,340.338250L373.037900,341.638289L375.279527,344.259710L381.140581,349.481665L377.653349,348.181867L381.842256,352.375004L385.586326,356.349149L387.244329,358.864555L381.516893,355.828638L377.840590,354.253068L378.005606,355.610362L376.093267,355.335246L375.021153,355.706162L370.240224,353.026991L367.590666,352.016102L369.405177,354.722675L372.280844,358.400468L375.641669,362.590906L376.863425,364.996565L375.962551,365.548733L372.167869,363.460332L370.760837,363.492923L370.374172,364.461972L368.305729,363.837615L369.769896,366.587274L370.715149,368.889768L368.321119,367.915577L365.603816,366.564190L363.465980,365.745910L363.612218,367.261056L362.712316,367.696501L361.167621,367.433661L358.764852,366.209054L362.338676,371.534167L367.283345,378.539441L365.912845,378.544484L367.254125,381.664385L366.988583,382.972631L363.977770,381.028615L360.740024,378.729969L355.500256,373.881670L350.744690,369.468931L348.986580,368.697938L349.065282,370.247956L349.105178,371.778465L349.690330,374.062828L349.815053,375.781355L346.835728,373.289477L346.926043,374.967830L345.363409,374.348799L345.436150,376.038984L345.229928,377.360190L345.867064,379.956333L341.976217,375.804997L342.796855,378.707983L345.126288,384.036220L344.402527,384.698533L341.847622,382.423097L337.371087,376.914059L337.586335,378.997935L337.386331,380.435501L334.639767,377.528830L335.963596,381.624341L337.411258,386.068344L337.251948,387.743265L337.403039,390.033785L335.491929,388.520406L333.821067,387.394295L331.224789,384.409613L330.748122,385.499185L330.079327,386.226228L331.285198,390.823029L328.945305,388.144354L328.213953,388.784689L327.443503,389.349431L327.622707,392.033190L326.316522,391.439670L326.481970,394.213719L324.449339,391.891694L321.722173,387.779111L321.462685,389.558868L321.078435,391.086974L318.674544,387.466900L317.784711,387.655325L318.049353,390.947180L319.731756,398.285358L318.297044,397.161887L316.083742,393.718471L315.391825,394.594444L313.846330,392.908563L313.358871,394.414886L312.860821,395.951466L312.643632,398.476630L311.820855,399.084180L310.090799,396.567300L308.365176,393.906409L306.759892,391.515445L307.104178,396.333682L306.320720,397.042082L306.008969,399.677407L304.933120,399.297756L304.394536,401.183673L303.339433,400.891392L301.585795,397.348176L299.845209,393.588636L298.874911,393.343153L297.666806,391.838039L296.842274,392.253082L296.136336,393.353983L295.399855,394.361043L294.021670,391.517648L293.859394,396.194519L293.030337,396.833625L292.276915,398.066230L291.175539,396.804964L289.971860,394.559447L288.966765,393.698491L288.275130,395.551693L287.431834,396.184394L286.561374,396.616895L285.763462,397.937500L284.935609,399.116712L283.724026,395.235697L283.064678,398.932854L282.534766,405.822168L281.561970,405.913653L280.354209,400.512077L279.463930,401.822809L278.450684,399.387830L277.445859,395.559500L276.520814,393.479712L275.648265,395.361368L274.751498,395.427915L273.882553,392.462761L272.991120,393.420388L271.956413,399.652255L270.838497,405.569318L269.777235,407.790430L268.812808,407.221453L267.993336,404.125001L267.056888,403.660143L265.856982,407.089115L264.890671,406.790308L264.051674,405.019343L263.045985,405.342323L262.433812,401.637216L261.508060,401.378369L260.869898,398.624272L260.471092,394.233970L259.465544,395.032148L258.596538,394.732622L257.949922,392.913716L256.437643,396.951125L256.088308,393.314724L254.931272,394.819557L253.339966,398.659006L252.711924,396.894321L250.679269,402.629921L249.192668,405.150945L249.061452,400.889841L248.571912,398.600058L248.761133,393.394704L248.309101,391.325382L246.965617,393.136237L246.492255,391.268662L245.191140,392.774836L244.635044,391.322032L244.009348,390.200511L242.149906,393.584005L241.686555,391.865732L241.468388,389.391812L240.701614,388.858535L240.331252,387.058540L239.942458,385.395844L236.978896,391.707046L235.723049,392.580636L233.777815,395.411531L234.117749,391.577243L233.120741,391.630715L232.437099,390.814782L231.864021,389.727225L231.535920,388.036444L230.564175,388.042538L229.182520,389.054593L228.188429,389.065214L226.545354,390.609338L226.573587,388.169726L226.903627,385.122992L226.937337,382.848222L225.672178,383.505851L223.844557,385.336904L222.581965,385.887952L221.551218,385.922232L221.907873,383.115085L220.402390,384.118736L218.214323,386.410027L215.401669,389.806338L214.274458,389.876823L212.113142,391.850259L210.228573,393.232877L210.518649,390.650367L211.703919,386.562399L211.573879,384.876403L210.434288,384.950647L209.600338,384.494549L206.520171,387.735262L208.574612,382.539437L212.539755,374.455285L207.662510,380.468614L207.838501,378.485174L205.135059,380.914534L204.645055,379.948035L202.074130,382.050210L201.189833,381.632371L203.271733,376.992666L202.351319,376.683125L198.141399,380.898812L194.316500,384.444479L189.315573,389.433400L190.824363,385.690045L196.340633,376.852475L198.775785,372.193926L201.498702,367.297633L196.526293,372.049173L194.678540,372.834601L197.500935,367.975834L194.557897,370.057788L193.640038,369.702644L194.972240,366.760118L195.200843,365.133637L196.284131,362.586676L196.247693,361.324994L193.184505,363.351771L192.876156,362.370100L190.592898,363.469262L190.339000,362.422092L188.750644,362.744753L186.367096,363.836085L183.805208,365.052098L183.910976,363.617194L186.296841,360.019105L188.106711,357.051226L186.997750,356.866925L185.997051,356.569531L185.783010,355.551115L185.059043,354.996685L186.002072,352.978249L182.724765,354.642511L179.189875,356.455985L180.815267,353.872931L179.276768,353.955654L178.923529,353.051689L180.757690,350.403231L178.200594,351.273430L176.951492,351.080658L176.149668,350.529842L174.705985,350.456286L173.916649,349.877452L173.566664,348.972867L174.302633,347.293238L173.495930,346.732586L171.869534,346.736018L172.003673,345.510066L172.943453,343.755780L171.284546,343.755685L174.191788,340.752700L174.066144,339.768030L176.403175,337.236374L173.554581,337.982578L165.075938,342.117250L163.842763,341.738564L164.676458,340.124869L165.252236,338.687342L165.487233,337.465111L166.131554,336.027258L163.246723,336.554817L164.811031,334.627651L162.571847,334.760910L160.290059,334.882128L159.030849,334.444382L159.247930,333.248382L162.725341,330.454209L162.432445,329.559547L166.271086,326.702360L168.288596,324.771737L167.062933,324.367787L170.627963,321.800243L166.339417,322.754229L166.512515,321.717023L164.710912,321.521986L163.080650,321.230636L161.653742,320.834628L166.124601,318.085848L164.969426,317.597731L164.046729,317.007243L160.460519,317.392160L160.502740,316.409407L161.596041,315.061256L163.336463,313.513234L160.253389,313.622551L159.313664,312.981803L160.093456,311.779823L157.735884,311.573670L161.263873,309.545770L156.162132,310.130573L151.695882,310.454235L153.452712,308.970845L149.103187,309.177443L145.322837,309.168563L143.143135,308.694477L139.946694,308.441541L141.694157,306.956819L144.007505,305.372173L146.457542,303.796778L148.459442,302.359969L146.717881,301.737808L146.063006,300.873604L144.046901,300.264861L143.440132,299.366841L140.905021,298.804587L138.050424,298.260361L142.080797,296.558350L138.889229,296.036611L144.316819,294.202108L151.890220,292.153410L153.294496,291.034450L158.220654,289.501251L154.555357,289.046141L151.129849,288.511104L152.586018,287.430241L151.279115,286.632482L146.166255,286.145641L144.984268,285.272716L147.623806,284.109903L147.397167,283.171173L148.560958,282.151321L153.936922,280.942889L152.543995,280.097158L156.794181,279.038413L156.767377,278.157743L152.707842,277.354673L147.873304,276.500506L144.625844,275.567556L147.338099,274.604736L148.522052,273.666165L154.285608,272.827507L154.734379,271.939247L156.542115,271.102055L149.723007,269.943169L145.293341,268.796241L142.978690,267.699431L151.769719,267.264362L153.342865,266.452825L157.742646,265.883649L152.919755,264.593214L149.807063,263.387865L148.544132,262.319920L147.775357,261.284820L156.683462,261.352772L160.611023,260.941569L153.532476,259.152224L146.229746,257.222882L144.543857,255.998757L146.026591,255.232476L152.517014,255.292305L155.509161,254.859450L155.387011,253.921329L149.500873,251.918836L156.212700,252.237141L160.117951,252.096976L159.399882,251.057092L154.181392,249.036140L154.765517,248.223106L147.728705,245.659175L148.482388,244.838627L147.011324,243.478489L146.814633,242.415339L143.668962,240.572157L146.114721,240.185174L147.844308,239.633953L149.581128,239.108336L156.011964,239.987625L160.249082,240.303502L158.423142,238.801421L154.474837,236.588710L151.350954,234.576025L147.041550,232.109481L143.931327,229.978137L146.970591,229.953084L149.666169,229.849491L156.317594,231.244056L151.107550,228.271928L147.246598,225.725552L148.839761,225.257270L143.107092,221.858347L144.872262,221.439401L144.753089,220.252197L142.755215,218.249543L142.973068,217.174628L145.462589,217.111117L151.651315,218.770704L164.214534,223.497526L162.925814,221.879550L164.015866,221.380097L163.682965,220.192741L164.105962,219.370856L168.549687,220.603728L165.951195,218.247486L163.859185,216.102441L162.033695,214.052891L162.918526,213.447926L166.043565,214.103300L170.362665,215.490002L172.295461,215.572349L173.469861,215.237928L170.010593,212.144010L165.063891,208.064970L165.654067,207.302667L162.984585,204.490295L166.844651,205.789816L167.248700,204.911555L167.225684,203.748450L171.534089,205.483667L174.418876,206.328891L174.270393,205.121713L173.416471,203.402566L180.146719,207.082917L175.220471,202.425181L173.320276,199.878559L166.139743,193.313000L168.344986,193.718881L168.073667,192.245739L166.299258,189.570139L174.159314,194.525118L178.325083,196.663668L177.072559,194.432886L177.670457,193.701454L176.120396,191.148320L182.052803,194.981183L184.429649,195.845065L182.934072,193.320352L185.222568,194.147505L184.967859,192.695236L185.535786,191.982586L184.693351,189.940114L186.213546,190.114949L187.249862,189.845538L186.908683,188.230939L185.142111,185.162274L184.000997,182.655743L188.212561,185.607258L187.109146,183.110887L188.554582,183.263612L191.139225,184.667600L190.448986,182.552384L192.916742,183.897068L191.533380,180.962388L190.489057,178.345004L191.330298,177.856155L192.060487,177.240526L197.676139,182.471108L195.915846,178.919018L199.448352,181.804428L200.148755,181.249287L199.023610,178.372473L197.053059,174.331863L198.136474,174.188574L197.350675,171.568913L199.786136,173.242967L203.853573,177.230429L205.716668,178.284471L202.896133,172.746676L205.981951,175.558084L203.260636,169.975487L204.233719,169.724749L208.774071,174.876233L209.585640,174.483819L206.923127,168.668253L210.116220,171.973515L209.172599,168.727709L209.556561,167.568008L212.170596,170.108417L212.999933,169.721771L213.202457,168.255015L212.300527,164.812112L215.158439,167.987820L217.526843,170.401554L217.572134,168.613799L216.970443,165.556490L217.685178,164.931054L222.306462,171.938923L223.487154,172.369079L221.795004,166.998430L224.036559,169.574699L226.161431,172.019497L225.497632,168.579383L222.771182,160.495146L222.542106,157.686144L224.156487,158.984908L226.644413,162.387405L227.963882,163.169713L231.308007,168.916102L230.017112,163.428667L232.057648,166.158838L233.157764,166.588493L230.635541,157.454208L231.062048,155.906271L232.027659,155.796471L234.859257,160.996315L236.382153,162.656906L235.792513,158.116465L236.144404,156.238560L236.055588,152.896752L237.566686,154.542159L238.022248,152.803338L239.472053,154.359796L240.389644,154.161025L240.657459,151.631488L243.246505,157.552538L244.122294,157.319253L245.551638,159.261357L245.561300,155.583703L246.773339,156.715586L248.266756,159.158338L248.613737,156.644724L249.092493,154.575193L250.341653,156.080014L250.982451,154.668311L251.494602,152.486534L252.082719,150.548951L253.150617,151.176119L253.971854,150.413783L255.524585,154.133577L256.279419,153.040154L256.928325,151.120877L258.634958,156.654302L259.096300,153.316707L260.687725,158.761038L261.064803,154.424587L261.799892,152.810596L262.826288,153.867866L263.107404,147.095490L264.174117,148.339271L265.408753,151.991599L266.419577,153.260422L267.211756,151.375395L268.232079,153.107125L269.117807,152.592220L269.937218,150.270175L270.950960,152.784758L271.862666,152.803511L272.734044,150.643510L273.679120,152.360497L274.582762,149.348442L275.515628,150.116487L276.441471,150.507604Z" />
<line x1="50" y1="600" x2="100" y2="600" fill="none" stroke="red" stroke-width="1.0" stroke-linejoin="round" stroke-miterlimit="10" />
<text x="125" y="603" style="text-anchor:start;fill:black">n0_4mer:D</text>
<path style="stroke:black;stroke-width:1.0" d="M277.750348,90.389282L279.128575,90.277410L280.490745,90.775643L281.900187,89.822226L283.281127,89.841299L284.643921,90.220240L285.961323,91.283078L287.314516,91.594353L288.688803,91.578975L289.978047,92.620509L291.419945,91.803272L292.762430,92.154647L294.081070,92.702350L295.569578,91.681731L296.959882,91.629029L298.431058,90.966807L299.941725,90.105755L301.267234,90.655605L302.675011,90.621495L304.098385,90.511701L305.239375,92.139666L306.460050,93.183026L307.773579,93.643869L308.734773,95.956989L310.101280,96.041510L311.693177,95.034005L312.960306,95.654796L314.563236,94.721455L316.035319,94.448216L317.299056,95.099664L318.776767,94.848798L319.846791,96.259094L321.286694,96.174539L322.852801,95.642537L324.283637,95.654400L325.917682,94.967895L326.705684,97.248828L327.946015,97.914420L329.469255,97.644511L330.886668,97.745195L332.621126,96.881811L333.643289,98.229649L334.491623,100.044385L335.772716,100.551442L337.074760,100.997226L338.227736,101.851993L339.332051,102.819659L340.711077,103.046754L341.826412,103.960227L342.950338,104.834311L344.220800,105.333644L345.016350,106.973361L346.192682,107.672154L347.551731,107.943399L349.082903,107.837020L350.403358,108.222658L351.905400,108.221356L353.432908,108.187956L354.424811,109.295439L355.338732,110.543208L356.032365,112.209454L357.259764,112.784161L358.827317,112.701674L360.802197,111.870134L362.617020,111.389715L363.414514,112.815299L364.826456,113.106756L365.587405,114.564198L366.393924,115.915549L368.377603,115.230035L369.456593,116.112754L370.896311,116.392878L372.055528,117.143594L372.552816,118.952236L372.807292,121.107649L373.917057,121.893024L374.869583,122.916287L376.506344,122.905384L378.134749,122.931162L378.604963,124.661003L379.463881,125.805633L380.941958,126.068420L382.165619,126.699627L384.162487,126.282620L385.962238,126.167834L386.758443,127.407195L387.702396,128.442022L389.006478,129.009761L390.215130,129.706359L390.902257,131.055538L392.161240,131.690641L392.562828,133.365812L393.485753,134.398465L395.049988,134.677043L396.206739,135.443090L397.639834,135.899762L398.680976,136.807894L399.446386,138.019920L399.912461,139.548132L400.362704,141.075654L400.444095,142.973916L400.833992,144.523959L402.213488,145.045080L403.891771,145.278014L405.910943,145.194291L406.874280,146.173095L407.506029,147.471137L407.273024,149.579996L407.527614,151.200341L408.335778,152.292610L409.348049,153.196914L411.156110,153.393312L412.527516,153.998061L413.311722,155.124165L414.971017,155.500325L415.723376,156.658982L416.880240,157.479297L418.604200,157.844030L418.985680,159.308560L419.206283,160.888614L419.726924,162.219608L419.253873,164.305468L419.725369,165.646918L421.057539,166.340036L421.812505,167.468022L422.994809,168.286816L424.387125,168.965315L424.957659,170.231454L425.610342,171.436450L426.884975,172.217958L426.834785,173.892727L427.374618,175.163632L426.989786,177.026241L429.446895,177.063228L432.102726,177.012359L433.702137,177.649373L434.786896,178.614756L433.543496,180.968415L432.090407,183.405186L432.171817,184.919854L434.766457,185.007206L435.804299,185.994020L437.692930,186.525458L439.020130,187.380549L438.173784,189.388934L438.873684,190.572495L439.085307,192.004369L438.344130,193.901688L439.584324,194.808625L440.323759,195.966803L441.338035,196.998856L442.891273,197.790928L442.812162,199.336649L443.462626,200.548414L443.186586,202.163127L443.540369,203.496152L444.507049,204.571378L445.003834,205.845472L444.817380,207.391262L445.479396,208.594642L445.688963,209.973262L445.582867,211.464764L446.791524,212.467866L446.416270,214.046718L447.680461,215.042409L447.423747,216.567170L447.379462,218.010205L448.239464,219.153983L448.710309,220.427320L449.159838,221.708233L450.462577,222.735860L451.603521,223.825187L451.835442,225.182869L453.853601,226.049436L454.164960,227.395980L454.139324,228.828690L453.556508,230.394717L452.559368,232.046489L451.985815,233.578352L452.252888,234.906206L453.621451,235.993024L455.032531,237.087716L456.449404,238.198795L457.246136,239.448572L456.535181,240.989044L455.823747,242.514730L455.013464,244.042751L453.697063,245.637967L455.541152,246.714537L457.762342,247.759835L460.287324,248.792902L461.332392,250.059462L460.768829,251.542182L459.622494,253.082908L457.357760,254.728175L456.670569,256.173524L454.204930,257.777332L453.369391,259.197721L453.631687,260.514771L454.121139,261.817419L456.746660,262.984713L457.305368,264.311136L458.615973,265.606255L459.417745,266.942140L459.485147,268.315704L459.204916,269.699535L458.551860,271.086547L458.438416,272.455906L457.739704,273.827049L457.718368,275.188349L457.499376,276.547676L457.870282,277.913309L458.218450,279.284262L458.968676,280.673280L459.271096,282.056966L458.726362,283.407185L459.357734,284.812806L460.177978,286.240417L460.326086,287.635720L461.710261,289.128180L462.085718,290.559068L461.180241,291.881184L460.501885,293.213888L458.135677,294.359999L456.272119,295.529561L455.344654,296.786393L455.784947,298.207236L457.589069,299.822777L456.124493,300.999299L455.999956,302.359049L455.433067,303.649770L453.290856,304.672911L454.838413,306.309006L453.653091,307.475653L452.693798,308.670610L453.664575,310.235271L453.605335,311.607903L455.553155,313.410830L456.421789,315.010546L456.606214,316.472241L456.705902,317.921655L455.506683,319.060611L454.955245,320.349059L454.152650,321.568837L454.259648,323.025053L453.716150,324.309215L453.824916,325.775756L453.249701,327.050410L452.246341,328.193543L452.884542,329.832825L452.757195,331.246946L452.939683,332.766432L450.974279,333.580988L445.776607,333.267418L444.075060,334.096608L443.430040,335.282852L444.525803,337.103516L448.342978,339.970524L448.204379,341.394257L447.216113,342.491091L446.348804,343.628026L445.369999,344.713182L444.015448,345.633318L444.358477,347.263294L444.537550,348.837386L444.611136,350.377522L444.716693,351.943484L443.128895,352.738672L441.753575,353.615791L440.137935,354.363035L439.620739,355.629497L439.228067,356.959645L438.423514,358.084449L438.621567,359.724932L437.753655,360.819005L436.911578,361.922596L436.314420,363.156297L434.943089,363.960555L434.819941,365.457455L435.333351,367.331767L434.587156,368.491989L433.692963,369.563026L433.005509,370.755521L431.478946,371.431437L431.910971,373.317958L432.270789,375.182643L431.667041,376.446560L431.188937,377.796383L429.670664,378.456598L429.185185,379.802702L428.472200,380.998107L427.350856,381.908643L424.860415,381.835920L420.759567,380.558862L417.622786,379.915704L415.785711,380.189555L416.581669,382.436982L418.361902,385.480411L419.316892,387.939842L419.783084,390.053999L419.019281,391.207852L418.372033,392.459702L417.243163,393.316614L414.523959,392.824293L413.481024,393.722061L411.385713,393.699822L409.083002,393.462634L406.949689,393.339692L405.888829,394.159444L405.979956,396.039033L405.402907,397.319293L405.321063,399.080402L403.476189,399.161622L401.235779,398.828341L401.116019,400.567961L401.109200,402.445921L401.369332,404.626100L402.296700,407.538474L401.546430,408.737334L399.591911,408.652134L397.155278,408.011246L394.013873,406.544301L391.084220,405.243385L390.036534,406.019975L387.716116,405.322577L387.179972,406.672499L387.907723,409.544275L388.097039,411.827024L389.718706,415.913555L390.190773,418.666165L389.706163,420.265952L389.288493,421.975008L388.160051,422.782603L386.724870,423.182255L385.811652,424.271410L384.364648,424.638549L382.896439,424.961994L381.313891,425.108664L379.499243,424.901682L377.835072,424.882219L376.519811,425.354010L375.791301,426.699622L375.417747,428.607746L375.332389,431.002333L374.675469,432.548337L373.875558,433.891496L372.447720,434.229110L370.414409,433.547412L369.606293,434.888582L368.154879,435.145842L367.244751,436.334573L366.916114,438.575785L365.447272,438.807255L364.570251,440.113834L362.908597,439.971092L361.259861,439.823877L359.509652,439.450031L358.102064,439.717842L357.322089,441.239784L356.174317,442.039569L355.438855,443.711665L353.824992,443.547471L351.780287,442.414105L350.613057,443.163856L348.879285,442.635672L347.306295,442.435363L346.100839,443.072975L344.593236,442.985835L343.692316,444.368473L342.903780,446.072313L342.080068,447.738777L341.341797,449.682887L340.151817,450.476959L338.710636,450.593120L337.501043,451.345652L335.617359,450.164185L334.394822,450.859615L333.270906,451.867128L331.963213,452.332009L330.879638,453.514993L329.475353,453.687144L328.039600,453.740426L326.287112,452.677225L324.516278,451.465509L323.085279,451.407325L321.622725,451.204694L320.377188,451.813516L319.417851,453.590344L318.106723,454.001352L316.740883,454.183571L315.525725,455.026182L314.204758,455.420809L313.036534,456.552131L311.856092,457.688268L310.265589,456.779570L308.908180,457.024942L307.232585,455.487992L305.952460,456.105105L304.936848,458.378802L303.656465,459.152605L302.421115,460.288482L301.147831,461.255181L299.591758,460.180736L298.065581,459.192750L296.594941,458.527597L295.075287,457.304038L293.840434,458.654848L292.471800,458.790102L291.158896,459.562760L289.762625,459.416316L288.379385,459.396484L287.023238,459.765489L285.721999,461.160420L284.365592,461.846935L282.866879,459.413478L281.455519,458.404989L280.079731,458.110577L278.730241,458.868278L277.393812,461.491075L276.014337,463.328935L274.611225,463.406275L273.227352,461.335486L271.865828,459.754641L270.503038,459.176262L269.127584,459.250109L267.764537,458.963905L266.362769,459.579247L264.940596,460.383608L263.619203,459.342737L262.085714,461.572582L260.612085,462.568117L259.221516,462.380987L257.662815,464.038501L256.383465,462.610296L255.003657,462.304808L253.679895,461.529616L252.381690,460.621033L250.893660,461.265669L249.659488,459.966196L248.441541,458.671107L247.220780,457.504149L245.948835,456.748974L244.471819,457.267307L242.894885,458.290871L241.941871,455.796148L240.944655,453.715063L239.828265,452.377286L238.449869,452.391978L236.716416,454.046366L234.910325,455.892157L233.597457,455.442277L232.439165,454.350367L231.047736,454.259036L229.882300,453.260079L228.381959,453.584327L227.072400,453.159663L225.679805,453.038647L224.231523,453.099118L222.730377,453.315822L221.147472,453.771387L219.916998,453.042797L218.925197,451.578987L218.246438,449.206952L217.461240,447.249723L216.418586,446.118485L214.942769,446.255404L213.334926,446.732781L211.979715,446.479866L210.418067,446.766263L209.216585,446.082036L208.072019,445.261467L207.122425,443.969336L205.751682,443.736575L203.994052,444.415139L202.901207,443.490710L200.812448,444.862188L199.584764,444.224893L198.978138,442.224431L197.082488,443.059869L195.875454,442.384351L195.265681,440.472594L194.294225,439.346621L193.038624,438.807936L192.081782,437.680475L190.244384,438.267692L188.306033,439.002282L187.394807,437.779472L186.202654,437.089461L185.825619,434.938489L185.210384,433.258533L183.683953,433.191587L182.704305,432.172763L180.702655,432.876126L179.289052,432.564627L179.050860,430.336940L177.736790,429.871956L177.097082,428.342293L175.562760,428.216950L173.068055,429.527783L170.910365,430.269863L168.707864,431.029615L167.833101,429.822308L167.301225,428.140256L167.464312,425.512916L168.497612,421.743189L168.957852,418.842641L169.515254,415.877152L167.643889,416.172115L164.256982,418.396152L161.209137,420.095371L158.659517,421.091995L158.879300,418.607564L158.225239,417.236112L157.345010,416.151003L155.763788,415.900477L154.041306,415.795396L153.193037,414.664303L151.841100,414.108734L150.674542,413.336191L149.049261,413.061946L147.956330,412.193245L147.391651,410.760257L146.513313,409.670213L145.504975,408.718313L145.099616,407.152604L144.313024,405.986562L144.737478,403.630300L144.042739,402.403551L142.952892,401.562877L141.095697,401.442587L138.985880,401.531512L138.775174,399.847495L137.598384,399.055444L137.191832,397.571484L136.282577,396.541500L134.983532,395.847843L134.468162,394.477552L133.898323,393.162493L133.118445,392.028549L132.658127,390.637299L130.892823,390.300089L130.499428,388.859730L129.191042,388.140340L128.372132,387.035838L128.370773,385.316621L127.271774,384.429624L126.268777,383.466066L125.779719,382.129089L124.638695,381.259831L123.009740,380.722163L122.535870,379.375138L121.254534,378.578749L119.966211,377.775950L119.110658,376.679665L119.557002,374.745885L119.357426,373.244842L119.405221,371.601309L119.276764,370.081233L117.565288,369.523460L116.079616,368.811973L114.422847,368.183967L113.320491,367.220557L113.325013,365.628474L113.037637,364.210481L113.455075,362.418409L113.934321,360.614068L113.378597,359.371360L111.686553,358.712495L110.799464,357.628462L109.157274,356.912315L107.966691,355.958155L107.627912,354.588139L107.254942,353.238713L107.233842,351.732157L106.267637,350.659303L105.777376,349.370077L105.228062,348.107413L104.561464,346.894140L104.885668,345.269295L104.621904,343.896996L103.927402,342.699480L103.777582,341.287817L102.785789,340.200820L102.832458,338.720858L102.762271,337.291990L102.196925,336.044678L102.266984,334.576360L102.278211,333.136411L102.396302,331.668746L102.336140,330.267055L101.547321,329.098399L99.833321,328.204448L99.573718,326.859108L99.132194,325.568129L99.097498,324.162402L101.342167,322.143217L102.615719,320.421438L104.377578,318.600561L106.229694,316.790455L103.309284,316.158655L101.472953,315.234317L99.043190,314.418798L98.045714,313.260174L98.805887,311.724092L97.654685,310.587634L99.149854,308.926876L99.074095,307.584090L99.476320,306.159024L100.802032,304.586858L100.031148,303.378441L98.996826,302.202185L97.450876,301.088418L94.735543,300.117014L92.458776,299.049430L90.336903,297.930817L89.339240,296.651583L90.065479,295.171684L89.310901,293.855365L89.163147,292.472748L89.611074,291.038332L88.724054,289.717910L89.392706,288.274572L88.500504,286.942679L87.081181,285.628583L87.431761,284.207573L87.468301,282.805896L88.439886,281.373686L89.697281,279.949044L91.215462,278.538678L91.419213,277.166847L92.395780,275.794928L92.557444,274.435125L90.979104,273.059318L90.311192,271.676162L90.091127,270.294080L89.893912,268.908947L89.906949,267.528682L89.780432,266.141106L89.714257,264.753992L90.082695,263.392031L89.114278,261.940364L89.727743,260.595728L90.450550,259.267999L90.236764,257.862486L91.227858,256.572659L91.780404,255.248403L91.112956,253.789538L91.127164,252.401987L91.536140,251.063609L91.199409,249.625780L91.851258,248.323957L93.476145,247.178164L94.589461,245.971676L95.673647,244.773989L95.399001,243.350006L94.139724,241.737094L94.232913,240.360137L94.741180,239.063384L95.062853,237.731711L96.164379,236.568312L95.259777,234.970844L94.113294,233.298804L93.638510,231.764031L94.621119,230.575642L95.526520,229.377925L96.717862,228.264136L98.579585,227.344860L98.204774,225.827618L97.830798,224.298719L96.966120,222.613313L96.128756,220.915850L96.811214,219.670143L97.954918,218.575849L100.590331,217.981105L104.481117,217.843607L105.384566,216.737391L106.342179,215.658051L106.236120,214.204164L103.468007,211.759420L106.903266,211.599557L109.759686,211.266862L111.774228,210.642992L115.157105,210.596873L114.693333,209.017749L116.019094,208.174190L117.635691,207.469953L119.116480,206.725881L117.563525,204.643324L113.735235,201.486414L110.727698,198.632312L107.652261,195.681224L107.313475,193.985401L108.538506,193.042210L108.661984,191.557809L108.998750,190.173109L108.925525,188.569490L108.281564,186.649839L108.493243,185.166970L109.879324,184.320250L110.537586,183.080524L112.378795,182.513054L114.121882,181.911527L114.281108,180.398593L115.666038,179.608530L116.744118,178.645288L117.944611,177.765190L119.170566,176.910934L119.684458,175.611321L120.072842,174.225312L121.839418,173.742768L123.106437,172.946258L123.757315,171.740040L124.479372,170.580615L124.004529,168.576366L124.242454,167.054206L126.172983,166.750402L127.606914,166.105319L128.222211,164.860289L128.818059,163.595658L129.375184,162.295545L129.953411,161.005286L130.523252,159.701804L133.183074,160.084797L134.931235,159.762268L136.091005,158.970489L137.073622,158.035954L136.480246,155.747487L135.235641,152.851430L135.391961,151.141633L136.745822,150.489921L138.055487,149.809310L140.018240,149.745038L141.255366,149.025849L141.167371,147.048167L142.285733,146.211462L143.043957,145.024624L143.511919,143.541423L144.907266,142.984083L145.528563,141.641912L146.033039,140.166178L147.058190,139.227395L148.481430,138.717856L149.652023,137.945208L150.701576,137.043112L152.089563,136.523039L153.387863,135.912442L154.264179,134.820920L155.732338,134.421118L156.542373,133.248764L157.236152,131.926255L157.856481,130.499416L158.600761,129.210686L159.867752,128.573664L161.283187,128.135227L162.827605,127.878735L164.039261,127.197171L164.734673,125.821751L165.694542,124.792207L167.020376,124.266682L169.003567,124.682297L171.081448,125.273081L172.242010,124.565048L173.142326,123.471730L173.811852,122.018550L175.117929,121.520483L176.176394,120.643812L176.855980,119.160847L178.368511,118.997338L178.902445,117.246193L180.491416,117.221090L182.157878,117.350908L183.510218,116.966608L185.067155,116.952256L185.887005,115.642928L187.215051,115.235515L188.259168,114.310979L189.341478,113.448374L190.518441,112.759314L191.109041,110.921199L192.288786,110.211433L193.457879,109.476499L194.497310,108.468460L195.895449,108.200961L196.755284,106.788838L197.911946,105.994522L199.351680,105.824394L200.563848,105.151054L201.791718,104.509367L202.598491,102.862464L204.106578,102.871194L205.619854,102.915998L206.876166,102.334160L208.407383,102.461276L209.725434,102.051865L211.270901,102.262409L212.550974,101.768939L213.859775,101.355709L214.878658,100.101137L215.722016,98.283233L216.806843,97.133646L218.334783,97.336332L219.722905,97.122095L221.147280,97.038326L222.887681,98.045199L224.186673,97.589796L225.774533,98.167639L226.995302,97.443799L228.249511,96.825092L229.430129,95.900229L230.624933,94.995238L231.969986,94.681827L233.266645,94.159201L234.772730,94.561048L236.191622,94.608601L237.704023,95.132427L239.260290,95.938444L240.651709,95.971838L242.131206,96.507802L243.570391,96.883472L244.831536,96.259813L246.338883,97.126165L247.556609,96.213254L248.806203,95.444730L249.976682,94.040980L251.129368,92.359661L252.313363,90.747596L253.660720,90.360168L255.211315,91.822129L256.656428,92.475888L258.177504,94.074559L259.483163,93.456016L260.760178,92.373292L262.052466,91.299573L263.330096,89.760907L264.711718,89.704078L266.076138,89.295425L267.448611,88.959293L268.869062,89.945263L270.263494,90.517101L271.660225,91.711885L273.033980,92.461200L274.389389,91.113792L275.754955,92.152096L277.123982,91.562684Z" />
<line x1="50" y1="550" x2="100" y2="550" fill="none" stroke="black" stroke-width="1.0" stroke-linejoin="round" stroke-miterlimit="10" />
<text x="125" y="553" style="text-anchor:start;fill:black">GC-content</text>
</g>
<g style="fill:pink;stroke:black">
<a href="" title="LT608329:1 [92000-114099];"><path  d="M352.281487,58.372274L356.050392,59.754015L359.794608,61.201323L363.512995,62.713755L367.204420,64.290852L359.186644,82.613387L359.186644,82.613387L355.816213,81.173429L352.421164,79.792512L349.002532,78.471057L345.561358,77.209467Z" />
</a><a href="" title="LT608329:2 [264000-286099];"><path  d="M466.439233,147.520511L468.634900,150.881002L470.771583,154.279301L472.848633,157.714373L474.865416,161.185171L457.485815,171.082112L457.485815,171.082112L455.644404,167.913123L453.747967,164.776753L451.797082,161.673959L449.792343,158.605684Z" />
</a><a href="" title="LT608329:3 [378500-396599];"><path  d="M502.025800,238.131505L502.634667,242.099267L503.174194,246.077051L503.644217,250.063644L483.762112,252.232023L483.762112,252.232023L483.332960,248.592090L482.840348,244.960200L482.284427,241.337461Z" />
</a><a href="" title="LT608329:4 [415500-433599];"><path  d="M504.938223,269.669547L504.996231,273.683334L504.984181,277.697522L504.902075,281.710889L484.910590,281.127333L484.910590,281.127333L484.985556,277.462955L484.996559,273.797826L484.943595,270.133064Z" />
</a><a href="" title="LT608329:5 [585000-602599];"><path  d="M463.761039,406.412596L461.438823,409.686915L459.059817,412.920208L456.624744,416.111489L440.831288,403.840924L440.831288,403.840924L443.054616,400.927146L445.226752,397.975010L447.347035,394.985413Z" />
</a><a href="" title="LT608329:6 [620000-669099];"><path  d="M445.076196,429.835680L442.348037,432.780336L439.568902,435.676932L436.739639,438.524583L433.861107,441.322423L430.934186,444.069600L427.959765,446.765277L424.938751,449.408632L421.872064,451.998861L418.760639,454.535174L415.605422,457.016799L403.378864,441.189251L403.378864,441.189251L406.259714,438.923420L409.100580,436.607656L411.900599,434.242664L414.658916,431.829166L417.374691,429.367896L420.047098,426.859604L422.675322,424.305054L425.258563,421.705024L427.796034,419.060307L430.286961,416.371708Z" />
</a><a href="" title="LT608329:7 [1189500-1232099];"><path  d="M54.074739,338.968970L52.991975,335.103550L51.976836,331.219822L51.029632,327.318968L50.150652,323.402178L49.340163,319.470644L48.598413,315.525563L47.925626,311.568139L47.322009,307.599575L46.787744,303.621081L66.632288,301.132291L66.632288,301.132291L67.120095,304.764829L67.671224,308.388301L68.285507,312.001601L68.962758,315.603631L69.702769,319.193293L70.505317,322.769493L71.370155,326.331141L72.297020,329.877154L73.285631,333.406451Z" />
</a><a href="" title="LT608329:8 [1325000-1342599];"><path  d="M50.687858,224.166319L51.609192,220.259275L52.598573,216.368905L53.655700,212.496395L72.903030,217.931491L72.903030,217.931491L71.937828,221.467261L71.034480,225.019338L70.193262,228.586639Z" />
</a><a href="" title="LT608329:9 [1356500-1392099];"><path  d="M58.180588,198.257947L59.552945,194.485614L60.990928,190.737807L62.494101,187.015668L64.062005,183.320329L65.694162,179.652916L67.390077,176.014548L69.149231,172.406331L87.049298,181.327519L87.049298,181.327519L85.443114,184.621978L83.894670,187.943967L82.404439,191.292474L80.972875,194.666479L79.600413,198.064955L78.287471,201.486865L77.034450,204.931169Z" />
</a></g>
<text x="275" y="280" style="text-anchor:middle" font-size="25" font-weight="bold">LT608329</text>
<path  style="fill:pink;stroke:black" d="M350,550L375,550L375,565L350,565Z" />
<text x="405" y="565" style="text-anchor:start;fill:black">Selected loci;</text>
</svg>