<svg xmlns="http://www.w3.org/2000/svg" viewbox="0 0 550 650">
<circle cx="275" cy="275" r="240" fill="none" stroke="black" stroke-width="1.0" />
<line x1="275" y1="15" x2="275" y2="55" fill="none" stroke="grey" stroke-width="1.0" stroke-linejoin="round" stroke-miterlimit="10" />
<line x1="495" y1="275" x2="535" y2="275" fill="none" stroke="grey" stroke-width="1.0" stroke-linejoin="round" stroke-miterlimit="10" />
<line x1="275" y1="495" x2="275" y2="535" fill="none" stroke="grey" stroke-width="1.0" stroke-linejoin="round" stroke-miterlimit="10" />
<line x1="15" y1="275" x2="55" y2="275" fill="none" stroke="grey" stroke-width="1.0" stroke-linejoin="round" stroke-miterlimit="10" />
<text x="275" y="10" style="text-anchor:middle" font-size="15">Methanohalophilus mahii DSM 5219, complete genome.</text><text x="285" y="25" style="text-anchor:start">2,012,424</text><text x="525" y="265" style="text-anchor:start">0.5 Mbp</text><text x="285" y="530" style="text-anchor:start">1 Mbp</text><text x="-200" y="25" style="text-anchor:end" transform="rotate(-90)">1.5 Mbp</text><circle cx="348.721240" cy="46.603024" r="2.500000" fill="grey" stroke="black" stroke-width="1.0" />
<circle cx="415.314235" cy="80.290176" r="2.500000" fill="grey" stroke="black" stroke-width="1.0" />
<circle cx="468.339986" cy="132.804185" r="2.500000" fill="grey" stroke="black" stroke-width="1.0" />
<circle cx="502.671333" cy="199.067371" r="2.500000" fill="grey" stroke="black" stroke-width="1.0" />
<circle cx="514.988715" cy="272.672626" r="2.500000" fill="grey" stroke="black" stroke-width="1.0" />
<circle cx="504.101141" cy="346.502918" r="2.500000" fill="grey" stroke="black" stroke-width="1.0" />
<circle cx="471.061351" cy="413.419460" r="2.500000" fill="grey" stroke="black" stroke-width="1.0" />
<circle cx="419.064023" cy="466.951966" r="2.500000" fill="grey" stroke="black" stroke-width="1.0" />
<circle cx="353.136877" cy="501.924279" r="2.500000" fill="grey" stroke="black" stroke-width="1.0" />
<circle cx="279.654530" cy="514.954861" r="3.000000" fill="black" stroke="black" stroke-width="1.0" />
<circle cx="205.722128" cy="504.783760" r="2.500000" fill="grey" stroke="black" stroke-width="1.0" />
<circle cx="138.488333" cy="472.394440" r="2.500000" fill="grey" stroke="black" stroke-width="1.0" />
<circle cx="84.454105" cy="420.918683" r="2.500000" fill="grey" stroke="black" stroke-width="1.0" />
<circle cx="48.844115" cy="355.333777" r="2.500000" fill="grey" stroke="black" stroke-width="1.0" />
<circle cx="35.101559" cy="281.981248" r="2.500000" fill="grey" stroke="black" stroke-width="1.0" />
<circle cx="44.555230" cy="207.953689" r="2.500000" fill="grey" stroke="black" stroke-width="1.0" />
<circle cx="76.291035" cy="140.408964" r="2.500000" fill="grey" stroke="black" stroke-width="1.0" />
<circle cx="127.240380" cy="85.878096" r="2.500000" fill="grey" stroke="black" stroke-width="1.0" />
<circle cx="192.476878" cy="49.633777" r="2.500000" fill="grey" stroke="black" stroke-width="1.0" />
<circle cx="265.692691" cy="35.180539" r="3.000000" fill="black" stroke="black" stroke-width="1.0" />

<circle cx="275" cy="275" r="185" fill="white" stroke="grey" stroke-width="0.5" />
<circle cx="275" cy="275" r="170" fill="none" stroke="black" stroke-width="0.5" />
<circle cx="275" cy="275" r="170" fill="aliceblue" stroke="black" stroke-width="0.5" />
<circle cx="275" cy="275" r="161" fill="white" stroke="none" stroke-width="0.5" />
<circle cx="275" cy="275" r="140" fill="none" stroke="black" stroke-width="0.5" />
<circle cx="275" cy="275" r="140" fill="aliceblue" stroke="black" stroke-width="0.5" />
<circle cx="275" cy="275" r="133" fill="white" stroke="none" stroke-width="0.5" />
<circle cx="275" cy="275" r="110" fill="none" stroke="black" stroke-width="0.5" />
<circle cx="275" cy="275" r="110" fill="white" stroke="black" stroke-width="0.5" />
<circle cx="275" cy="275" r="109" fill="aliceblue" stroke="none" stroke-width="0.5" />
<circle cx="275" cy="275" r="80" fill="none" stroke="black" stroke-width="0.5" />

<g style="fill:none;stroke-linejoin:round;stroke-miterlimit:10">
<path style="stroke:blue;stroke-width:1.0" d="M276.895994,123.173231L277.845616,123.102691L278.786185,123.438722L279.726632,123.653647L280.725150,122.257434L281.795480,119.628796L283.024909,114.486378L284.023639,114.600379L284.763432,118.844229L285.355112,124.478733L286.236652,125.321139L287.200060,125.038007L288.211549,124.257824L289.120665,124.682996L290.131514,124.050931L290.998201,124.857845L292.213059,122.501015L294.033205,115.327820L295.633250,110.643607L295.344508,120.743531L296.161701,121.927080L296.726979,124.760059L297.551281,125.649845L298.732059,124.213910L299.363105,126.257980L300.528506,125.020181L301.677018,123.979635L303.258102,120.661400L304.206069,120.921193L304.501135,124.506508L305.230789,125.728142L306.460559,124.492984L307.145094,125.873826L308.418487,124.533905L308.805086,127.160939L310.060995,125.957608L310.829333,126.847869L311.541713,127.927883L312.237995,129.026726L313.172598,129.171100L314.201656,128.968289L315.738639,126.941280L318.099354,122.100729L321.658025,113.348395L325.131071,105.300103L327.989883,99.659958L329.796709,97.687202L331.875161,94.954845L332.937536,95.501815L329.932102,108.379547L328.466967,116.165920L325.827642,127.068145L325.397442,131.247531L326.089344,132.137601L327.389150,131.338619L328.944923,129.893976L329.754634,130.485262L330.170759,132.086862L330.805296,133.087164L331.459371,134.015207L332.779465,133.289308L333.387761,134.316603L335.129366,132.637702L336.477258,131.945307L338.017810,130.848634L337.591538,134.225402L337.768129,136.169978L338.874585,136.040821L338.960918,138.112010L339.595249,138.975662L340.491365,139.282219L342.082686,138.174006L342.486832,139.496956L343.586160,139.417881L344.609871,139.501489L345.931487,139.024637L347.153430,138.763575L347.583841,139.995908L347.976577,141.274296L349.143200,141.131321L349.639993,142.197730L350.824237,142.041384L351.015005,143.620123L351.179536,145.212205L351.731082,146.122771L352.798296,146.167315L354.506492,145.177510L354.954713,146.257603L356.709039,145.247667L356.981387,146.600340L357.480071,147.580522L358.114221,148.341705L359.201252,148.415541L359.958986,148.989863L361.347050,148.640603L362.898903,148.078342L363.743951,148.552436L365.381022,147.914963L365.340625,149.636632L366.019441,150.343213L365.988553,152.005566L367.293538,151.857317L368.609801,151.712827L369.256717,152.457216L369.263700,154.018939L368.721444,156.251820L370.934456,154.996385L374.843444,151.693304L371.805630,156.959823L373.476638,156.439952L373.150410,158.322786L375.221327,157.360057L374.702630,159.438534L375.080856,160.454152L375.943404,160.912659L376.497985,161.719155L377.189858,162.370048L377.409852,163.534230L378.018724,164.267427L377.813965,165.862077L378.866487,166.115158L379.715127,166.589084L380.658442,166.970652L382.684076,166.266217L382.099622,168.198570L383.273484,168.368093L384.739687,168.265781L384.038036,170.265204L385.322409,170.348130L385.200648,171.763302L386.815737,171.553654L391.327632,168.719867L393.195241,168.360030L392.818940,170.026678L391.469014,172.526837L392.232466,173.146774L393.005079,173.761644L394.637647,173.651063L395.012729,174.613768L395.261742,175.675251L393.590219,178.295044L394.676860,178.646895L395.162228,179.486663L395.442762,180.484907L395.650031,181.533659L396.427256,182.139018L399.774625,180.808092L403.660078,179.130316L404.230855,179.954235L403.804677,181.501401L405.701356,181.365204L407.120616,181.591336L407.492626,182.563762L408.195235,183.304785L407.508969,184.991613L406.114808,187.130070L407.848449,187.165374L404.517946,190.524920L404.000616,192.005898L405.354632,192.281092L404.391166,194.021338L405.194216,194.645779L406.242546,195.126138L407.323128,195.596550L407.536784,196.589778L408.408852,197.194359L408.478674,198.266594L407.667040,199.831456L408.023688,200.722844L408.713400,201.429220L408.083091,202.854933L409.107426,203.379513L409.294054,204.354036L411.195906,204.435829L411.563463,205.323587L410.681484,206.838009L411.525097,207.478549L410.546671,209.012660L412.149074,209.288756L414.947432,209.019303L414.199170,210.431405L413.816783,211.659086L412.718504,213.196299L413.445347,213.905839L414.363502,214.537532L416.766200,214.544167L419.683052,214.365220L416.059310,216.916727L416.899337,217.604500L416.522199,218.782768L417.841038,219.289041L423.465308,218.160978L423.047672,219.378320L420.703519,221.294858L418.494052,223.124695L417.600363,224.452351L418.263769,225.221983L419.620672,225.760433L423.195318,225.573845L421.773793,227.064312L420.298397,228.548217L420.312316,229.541917L423.722367,229.492740L429.936151,228.647459L435.006013,228.217251L430.539435,230.575565L431.662941,231.310873L424.140743,234.410603L422.162417,235.934357L424.248026,236.376712L424.163753,237.390746L422.483480,238.792364L422.026248,239.876564L421.367166,240.998721L421.399739,241.953282L422.440110,242.684676L423.776579,243.364085L426.242465,243.825562L424.123127,245.231916L425.360326,245.960065L428.075677,246.425973L429.001305,247.247197L430.482942,247.981503L428.830345,249.257201L429.173031,250.188511L426.117870,251.647307L424.875800,252.796569L425.234924,253.701208L428.586834,254.203488L428.051648,255.248384L425.704945,256.507206L426.076902,257.418432L426.425717,258.335523L427.397990,259.191034L426.272278,260.261972L426.425977,261.200969L433.766706,261.531108L445.090006,261.639702L443.116178,262.850500L434.392553,264.481013L431.146460,265.674132L428.446286,266.796652L434.321772,267.479935L434.985910,268.449547L428.229638,269.684373L426.478907,270.691947L426.956279,271.627856L428.580666,272.551179L426.859363,273.527054L427.291020,274.473876L427.811707,275.426297L429.324486,276.394217L428.834317,277.350536L427.823671,278.289712L426.547716,279.209147L425.653931,280.125967L425.585635,281.065260L426.120422,282.032237L426.088161,282.976520L427.521755,284.007593L427.915774,284.989426L427.989527,285.954052L427.054545,286.841902L427.170020,287.807346L425.666313,288.628782L425.939725,289.604303L427.705823,290.738260L427.966864,291.731129L429.533037,292.879623L429.418377,293.844233L429.625629,294.850208L429.388365,295.800498L428.326342,296.633056L430.151464,297.879563L430.966795,298.995824L431.300948,300.047315L432.836394,301.305300L431.804629,302.140753L438.511884,304.354461L452.785036,308.064088L431.732129,305.162451L431.568481,306.146075L424.185730,305.647086L422.253006,306.209602L423.333108,307.407678L423.592735,308.437904L422.954495,309.266330L422.625427,310.162814L424.195366,311.522727L423.766210,312.403814L429.257536,314.810241L427.726643,315.434013L423.422617,315.287959L423.088733,316.191886L425.364138,317.838158L419.990649,317.287894L419.396871,318.094883L420.327620,319.362834L424.498950,321.658661L421.381809,321.690874L419.404866,322.055753L419.222656,322.994634L418.893131,323.885097L417.792887,324.508004L418.733617,325.841782L420.310112,327.422600L420.737909,328.607757L421.010702,329.745609L416.457062,329.048125L414.870584,329.445281L415.152110,330.565104L414.463305,331.302282L414.703951,332.416554L418.150239,334.880510L422.940455,337.972584L422.281908,338.781498L423.363279,340.352973L422.463355,341.059099L421.506147,341.731825L421.567076,342.867847L420.784524,343.614233L418.413254,343.595325L413.039573,342.087424L411.320772,342.307602L412.146342,343.783702L412.752856,345.167838L417.563010,348.742801L417.748827,349.972473L411.692289,347.884151L408.650720,347.337821L408.786847,348.495327L408.551442,349.455377L409.121087,350.874616L407.292403,350.934441L406.144788,351.368377L405.940158,352.348130L405.690076,353.305339L407.638379,355.602531L408.133657,357.046194L408.052040,358.146708L405.185131,357.489960L403.673733,357.662858L404.178927,359.131563L403.603393,359.905091L408.147152,364.103698L405.159019,363.285714L405.966674,365.032697L407.754430,367.487694L406.237768,367.653655L399.634460,364.163091L398.075851,364.215160L397.219558,364.763964L397.421344,366.094404L399.340256,368.734257L397.457056,368.519517L401.755631,373.061470L400.852621,373.625209L402.603734,376.289963L402.817557,377.767241L399.977656,376.775315L394.011021,373.158714L390.231027,371.256337L389.658150,371.999746L389.509658,373.107455L389.055049,373.959615L388.093842,374.370226L389.068793,376.496050L387.505705,376.371024L385.916856,376.201447L385.241458,376.853922L384.620845,377.556740L384.567598,378.797510L385.872528,381.355218L383.704982,380.587264L382.658094,380.884902L382.734516,382.291757L385.725116,386.655854L381.451544,383.695545L379.328327,382.866817L378.851168,383.723922L378.004501,384.194594L378.533185,386.137259L380.266454,389.422148L379.089161,389.570096L379.013671,390.933355L379.479942,392.926257L382.182258,397.509111L380.592965,397.224292L376.645072,394.150530L373.925602,392.440099L371.130357,390.578796L372.166101,393.319154L371.487993,394.000809L370.367055,394.131333L370.052759,395.270445L369.175497,395.702206L368.538272,396.441533L368.047755,397.377874L367.831199,398.688572L367.008911,399.200871L366.116987,399.616286L364.833185,399.484585L363.353077,399.058774L362.862295,400.014439L360.866356,398.810765L359.693812,398.763297L360.088366,401.021144L362.056004,405.687615L361.759728,407.022212L362.896122,410.588720L358.858287,406.146904L356.059368,403.531026L354.193999,402.328488L355.461307,406.185601L353.914611,405.485104L353.421712,406.517749L355.367122,411.713880L354.996292,413.049027L356.838382,418.282972L354.192344,415.682856L350.983466,411.976353L348.697250,409.832978L348.626461,411.725254L349.810537,416.026605L345.792000,410.488161L344.602995,410.263739L343.264395,409.723538L343.092682,411.491960L343.981774,415.463087L342.229479,414.083291L341.188912,414.141392L339.109711,411.968853L338.464384,412.825179L337.433540,412.845705L337.381842,415.052008L336.781803,416.068353L337.009357,419.028743L334.605165,415.859774L332.772407,413.939671L333.169248,417.395737L334.116610,422.336201L333.425927,423.287464L332.681751,424.122307L331.007103,422.524213L330.396932,423.708913L328.568244,421.591737L326.360919,418.321130L326.324776,421.086329L324.449540,418.610095L323.680665,419.297984L323.165239,420.769084L322.555701,421.999386L321.456409,421.723562L320.314431,421.284835L319.069754,420.474494L318.538201,422.022283L320.079288,430.792970L319.363063,431.982542L317.492498,429.032321L316.556940,429.395352L315.129751,427.890596L314.838707,430.735603L314.327214,432.834516L313.000883,431.675255L313.654127,438.827754L312.303141,437.639213L309.637952,430.468162L307.427795,424.953470L306.531419,425.346713L305.352894,424.364123L304.422004,424.562865L303.421501,424.396713L302.645118,425.425874L301.846227,426.390463L300.760799,425.738470L299.434294,423.557230L298.795123,425.534888L297.817529,425.435694L296.991149,426.355998L296.111428,426.964212L295.235971,427.650339L293.935721,425.027199L293.021636,425.335275L291.949819,424.276029L291.090282,425.059080L290.206595,425.688250L289.547909,428.766859L288.617571,429.195758L287.661101,429.358847L286.531069,427.244333L285.472460,425.762678L284.527501,425.772287L283.673000,427.359999L282.746091,427.897748L281.740242,426.795696L280.766957,426.171938L279.939656,429.866340L279.108010,435.177150L278.097460,434.670441L277.120753,436.237007L276.079164,431.220021L275.102134,428.939211L274.145111,428.178827L273.201287,427.099814L272.207609,429.517460L271.219064,430.473108L269.950711,440.182051L268.938069,439.639026L268.277638,431.065762L267.427361,428.504657L266.603687,426.031146L265.608839,426.815082L264.419461,430.299263L263.559841,428.752902L262.640714,428.173593L261.758088,427.247194L260.496658,430.495913L259.802051,427.629689L258.874429,427.294231L258.006781,426.450691L257.033782,426.574639L256.124985,426.160470L255.236470,425.620371L254.318884,425.330067L253.342439,425.462929L252.420438,425.210863L251.394933,425.628324L250.191822,427.090314L249.744648,423.971061L248.900261,423.325414L247.928650,423.411308L246.564130,425.560133L243.975268,433.822595L242.383053,436.603852L242.335435,431.785056L240.163785,437.131620L238.918642,437.965173L238.396695,435.565471L237.845391,433.412555L238.295015,427.213793L237.932325,424.612100L235.730605,429.362893L234.472106,430.246110L234.737092,425.382471L233.313240,426.897527L232.213141,427.176322L231.386214,426.480772L231.480163,422.679754L231.181212,420.340822L230.303285,419.971028L228.578678,422.291623L227.607092,422.162679L226.996564,420.929129L225.081839,423.616928L224.511264,422.262596L223.967503,420.873074L222.537668,422.008544L220.740978,424.095475L219.854885,423.635551L218.828209,423.551759L217.647211,423.858615L216.836871,423.196750L216.377674,421.667132L216.506393,418.734261L213.925593,422.432340L211.620083,425.335850L208.909497,429.070548L209.975275,424.010781L212.339344,416.181702L212.868585,412.664410L211.719080,412.908131L210.492690,413.295976L208.909013,414.412119L208.785900,412.447866L208.198551,411.480839L207.520598,410.713154L206.768467,410.103028L205.451069,410.600636L205.100951,409.212750L204.273478,408.756191L203.221300,408.718687L203.021273,407.105072L201.834511,407.309933L200.204839,408.284827L198.108009,410.038561L194.571592,414.220248L194.659646,412.084388L194.570475,410.292765L193.258850,410.564684L191.445012,411.636074L189.550155,412.794031L189.472593,411.015401L192.036923,405.127002L193.242594,401.486523L192.197794,401.365084L191.001360,401.461300L189.993349,401.261054L189.320699,400.560553L188.827056,399.605590L188.416235,398.543432L187.422017,398.316415L186.460159,398.036081L183.405587,400.618750L179.307907,404.531715L178.198700,404.335462L177.400113,403.719059L175.463033,404.585013L176.863325,401.123861L179.354629,396.350939L180.640309,393.194073L180.307657,392.103489L179.324141,391.820201L178.047208,391.882744L177.860649,390.630589L176.839661,390.375365L175.744078,390.197780L175.505602,389.026867L174.441419,388.804106L173.379393,388.568864L172.714017,387.885955L172.516697,386.694019L171.879994,385.988660L169.274038,387.377973L165.608719,389.828654L160.793541,393.393959L155.786293,397.050290L163.458735,387.777778L165.015515,384.823551L164.423237,384.044539L165.852553,381.298877L162.493300,383.209835L162.295629,382.053217L163.976678,379.145450L160.810448,380.782842L160.933378,379.353019L163.113969,376.081999L162.152982,375.677548L160.937905,375.489499L160.873215,374.287606L159.048487,374.609884L154.258402,377.421479L155.315613,375.246307L157.009554,372.580318L158.482782,370.142995L157.620192,369.631849L155.768863,369.902092L154.065210,370.030610L154.167684,368.735600L155.147885,366.782189L154.869047,365.811308L152.833435,366.156934L151.713240,365.799852L150.398853,365.573273L147.705704,366.321530L143.263783,368.267739L129.935838,376.349853L127.760835,376.507150L124.176638,377.594628L127.089160,374.268157L139.668354,364.605218L145.831635,359.368994L145.992040,358.119614L140.389147,360.544802L138.729479,360.409643L136.645811,360.516966L137.534038,358.786157L144.710036,353.300744L143.230740,353.073938L143.119163,352.031514L142.057963,351.542028L139.990028,351.614135L140.622789,350.149650L141.572578,348.528526L142.621180,346.876691L141.955517,346.166038L141.130467,345.535813L140.596984,344.748142L139.040436,344.481753L137.180866,344.350161L134.741748,344.483347L128.954036,346.218262L128.790863,345.171157L132.956022,342.084105L135.867939,339.649408L136.695742,338.217691L135.330980,337.790130L134.622443,337.057864L134.450424,336.087616L135.659278,334.530527L136.473896,333.162309L136.057798,332.319111L136.047242,331.310717L135.165869,330.653867L133.531460,330.283567L130.439316,330.453899L126.957230,330.731688L125.632152,330.168111L124.445744,329.540381L122.021949,329.340241L124.140052,327.529299L124.062930,326.501649L127.322213,324.362194L128.793634,322.857490L127.500623,322.263067L123.023366,322.653345L120.541902,322.374157L121.592845,321.005760L126.024980,318.664552L129.925435,316.539387L129.185901,315.767714L126.459824,315.531571L128.538440,313.983387L129.656516,312.715511L128.196020,312.117639L125.861499,311.718630L123.919574,311.197673L125.810417,309.761024L127.863069,308.315493L128.059645,307.307737L125.152610,306.967297L124.133361,306.201089L121.371522,305.773200L117.429504,305.540676L124.188636,303.254671L127.216746,301.733247L125.941416,301.003781L120.410576,300.975028L122.138884,299.704170L121.808977,298.776894L124.473626,297.401641L125.744366,296.260746L123.418093,295.627215L118.017800,295.364509L119.118762,294.232710L118.208329,293.351819L115.337952,292.677858L116.424863,291.555850L108.212249,291.361109L105.746145,290.536604L112.849109,288.864095L119.722722,287.300200L124.271973,285.993179L125.142554,284.989353L124.394402,284.094985L123.679956,283.190127L123.824991,282.235823L122.067209,281.363070L121.854772,280.414191L122.930593,279.425586L124.360894,278.442673L124.705588,277.495929L124.243573,276.562045L124.319428,275.620298L123.572088,274.677795L124.162329,273.737131L123.560740,272.786320L124.474717,271.859442L122.861709,270.875227L123.422114,269.943040L122.824495,268.971590L121.974864,267.980634L120.899614,266.966734L120.895851,266.001309L122.946402,265.167968L124.017571,264.290100L123.684888,263.316443L119.459792,262.012680L119.111468,261.002855L119.485749,260.056978L118.807622,259.006882L121.760803,258.341720L123.509087,257.573961L124.302216,256.711029L123.951825,255.710670L122.520040,254.559369L117.321539,252.859333L117.886013,251.937278L118.327598,251.001763L119.830119,250.239273L123.376232,249.833244L123.908535,248.951111L124.211580,248.032731L124.514085,247.115985L124.775589,246.193036L121.361049,244.542400L117.751129,242.804972L119.306089,242.109056L123.478798,242.000855L125.304828,241.418100L126.234562,240.649590L124.963292,239.367772L123.199531,237.946031L124.353458,237.229420L126.266567,236.720386L126.920611,235.901202L127.911075,235.178574L126.148097,233.701963L124.370569,232.194036L126.687355,231.849714L128.090321,231.261057L130.573407,231.016698L130.221297,229.919672L130.977578,229.166697L131.062877,228.202032L126.233233,225.602521L130.857233,226.136491L131.271037,225.273994L132.245324,224.610779L131.065988,223.181491L130.659430,222.014676L131.922141,221.462029L132.000006,220.470792L132.929812,219.806771L134.675657,219.474065L134.486989,218.382080L134.302001,217.283735L134.265032,216.239234L134.280020,215.210884L132.831945,213.544811L133.413443,212.743994L134.396039,212.125410L135.157807,211.415261L136.009496,210.752173L136.891514,210.110163L137.139557,209.172706L136.708263,207.903145L136.547321,206.753727L136.836004,205.820326L138.919859,205.797605L138.702917,204.612657L139.343346,203.866896L140.489851,203.393668L141.066977,202.623963L140.465313,201.209730L141.934088,200.930717L141.168318,199.405996L139.503136,197.345422L139.818944,196.400991L142.218290,196.682551L142.859477,195.944417L145.323823,196.315042L146.244485,195.769464L145.897889,194.440453L145.924840,193.333045L141.668977,189.469817L138.604076,186.296676L145.030715,189.316607L144.832418,188.014956L148.004771,188.982934L149.221277,188.656289L149.698258,187.827601L149.879131,186.788905L150.317569,185.927297L150.640036,184.979520L149.929894,183.269834L150.423965,182.430330L151.150706,181.764355L152.010580,181.202741L151.663916,179.714411L153.269061,179.734762L149.721694,175.691027L146.877593,172.127208L150.353151,173.631221L154.104717,175.421556L155.482239,175.297046L159.467939,177.392062L160.502111,177.033971L160.436735,175.732273L161.395530,175.314281L161.497476,174.142333L160.754000,172.197849L161.766371,171.821973L162.814015,171.487056L163.521851,170.843930L164.509882,170.467233L164.380221,169.027739L163.945031,167.272916L163.526115,165.507220L163.559930,164.164741L162.877215,162.084311L162.883761,160.671828L165.607296,162.046746L169.097295,164.275108L170.143128,163.989016L170.816973,163.313484L171.408063,162.547487L168.231274,157.636704L162.362857,149.622001L159.565251,144.882695L153.165603,135.929381L156.854471,138.428900L164.348822,145.466065L169.917863,150.418584L173.007758,152.538349L174.246399,152.477790L176.643509,153.858726L177.413369,153.261252L179.839509,154.756933L180.580702,154.150340L182.542332,155.125638L183.821865,155.245684L184.276384,154.286090L183.913493,152.214262L184.466298,151.353302L185.469428,151.107653L186.817956,151.354663L188.338015,151.866746L189.237829,151.514081L189.681201,150.500304L189.304849,148.261138L189.257725,146.469009L188.679082,143.834772L190.910362,145.471084L192.313029,145.873328L191.131833,142.210109L190.268959,138.969878L192.525436,140.731439L193.977918,141.230233L196.588977,143.697830L197.889772,144.024992L197.929210,142.202193L197.738748,139.938345L197.128620,136.877752L198.845144,137.928644L200.729448,139.331589L201.363514,138.472683L202.469783,138.490405L202.010777,135.531587L202.747039,134.814568L205.391746,137.849516L206.594359,138.107619L208.104609,139.012840L208.795907,138.269064L209.159660,136.827213L209.443583,135.181410L210.078379,134.255435L210.927212,133.783819L212.491647,134.913512L213.680834,135.239817L214.244197,134.139654L214.754521,132.889198L215.482844,132.131119L216.986301,133.253115L217.644701,132.326837L218.754673,132.523572L219.348496,131.408956L220.199696,130.941961L221.087691,130.568761L222.621567,131.957999L222.916461,129.964779L219.258875,116.678536L218.001280,109.821017L223.756648,123.437050L226.554325,128.707317L227.918184,129.793697L228.765951,129.313878L229.517195,128.514727L230.206135,127.487172L230.005177,123.427483L231.843747,126.221894L233.062351,126.974462L233.297481,124.220672L234.464996,124.797619L236.194137,127.550816L237.205871,127.663213L237.601370,125.327952L238.155006,123.528159L239.438173,124.723455L240.664659,125.753630L241.976779,127.240193L243.003955,127.515642L243.688608,126.192780L244.725858,126.527052L245.889134,127.534212L245.862671,122.390816L243.059951,101.848815L243.124962,95.940663L247.510873,114.786998L250.124554,124.383218L250.783545,122.454443L252.011664,124.111858L252.418129,120.298020L254.030294,124.785511L255.191717,126.331364L256.108540,126.116762L256.154067,118.664190L257.614442,122.785262L258.832882,125.160010L259.771582,125.088858L260.324565,120.972543L261.077671,118.535284L261.866495,116.172193L262.895233,116.573659L264.031557,118.594723L264.881150,116.536193L265.895548,116.904939L267.051690,120.139252L268.052091,120.830229L269.084828,122.591149L270.012291,121.809411L270.976585,122.070896L271.915722,121.256927L272.890225,122.284225L273.861610,124.616555L274.801075,124.910440L275.740660,124.430708L276.690944,123.534423Z" />
<line x1="50" y1="575" x2="100" y2="575" fill="none" stroke="blue" stroke-width="1.0" stroke-linejoin="round" stroke-miterlimit="10" />
<text x="125" y="578" style="text-anchor:start;fill:black">n1_4mer:GRV/n1_4mer:RV</text>
<path style="stroke:green;stroke-width:1.0" d="M276.191498,179.587607L276.746361,181.780257L277.400050,178.925802L277.959361,180.241503L278.497152,181.698702L279.306646,176.533263L280.117810,172.633953L280.678964,174.053617L280.935658,180.065425L281.477422,180.844598L281.641865,186.526421L282.261221,185.745753L283.182278,181.641201L283.691371,182.478803L284.323006,181.995493L285.004193,181.111251L285.513516,181.855572L286.747951,176.444818L287.495310,175.467252L286.559214,187.355537L287.525886,184.394146L287.989618,185.178057L288.483660,185.701895L289.581362,182.354576L289.769944,184.826299L290.890764,181.641858L292.090696,178.248440L293.843212,172.083144L294.322245,173.064048L293.628631,179.970176L293.002197,186.109782L293.374408,187.097005L293.099865,191.031867L293.764713,190.512244L294.702418,188.835835L295.024380,189.877443L296.324601,186.824062L296.612432,188.014857L296.814959,189.485165L297.667851,188.403125L298.922840,185.884040L300.362117,182.825035L300.226864,185.505175L300.812930,185.568406L299.454962,192.216918L299.475369,194.012612L300.129312,193.685835L301.266571,191.850014L302.551712,189.641135L301.953845,193.243400L302.595077,193.023428L303.608639,191.735680L305.946910,186.727767L307.129268,185.156130L308.195451,183.971528L310.433817,179.686855L310.853937,180.370160L309.479401,185.685306L308.747663,189.179712L308.243813,191.986818L309.731155,189.817904L310.527658,189.397272L310.201366,191.657238L310.232316,193.016055L312.138802,190.046095L311.301843,193.353543L313.122408,190.681177L314.483152,189.104392L315.243339,188.871940L315.623693,189.454839L315.931509,190.177618L316.712548,189.920509L314.740593,195.207081L316.883265,192.204553L316.013320,195.165866L316.836433,194.799734L320.091285,189.860935L319.174690,192.836204L320.959490,190.781673L322.427020,189.368514L324.642938,186.673426L326.227697,185.171682L324.527207,189.400079L323.904754,191.680508L321.747261,196.483481L321.040226,198.758151L321.882856,198.447143L324.641843,195.067129L324.429108,196.507556L324.742417,197.093176L326.067767,196.107873L326.572058,196.409010L327.530249,196.028335L328.200739,196.093309L328.612166,196.544499L330.267704,195.196175L330.314399,196.184814L331.707888,195.262861L332.977903,194.545551L335.256601,192.474836L332.683981,197.025262L333.042942,197.556186L335.689889,195.069429L334.345448,197.845218L335.530238,197.313549L335.530642,198.305669L336.186017,198.462919L341.728897,192.589784L335.564582,201.150431L333.865290,204.129672L333.937920,204.936999L338.582846,200.366361L339.359066,200.403894L336.279665,204.863397L336.759738,205.198468L336.337507,206.541847L337.275297,206.362429L338.532432,205.849510L339.272004,205.915428L337.722310,208.419719L337.884738,209.076958L338.842714,208.904037L339.375166,209.180298L341.765211,207.583960L339.740226,210.440027L343.223732,207.810635L343.950631,207.937737L342.047292,210.598762L344.933380,208.661175L344.153816,210.216247L343.188278,211.915605L347.775961,208.509875L351.949099,205.573773L349.088634,208.989136L350.431703,208.632776L350.899795,209.057183L348.167480,212.228503L352.559315,209.296985L350.776999,211.615329L349.703986,213.301619L348.258361,215.261122L349.294776,215.184490L350.849628,214.709415L348.345276,217.443734L349.639349,217.177663L349.769912,217.820026L352.386957,216.580869L358.801890,212.555916L359.691917,212.711408L358.716465,214.230683L359.438087,214.508332L360.639800,214.453058L362.617964,213.871504L362.583121,214.705402L363.511285,214.877594L362.486136,216.368936L362.728676,216.996948L358.410206,220.597626L357.209259,222.109682L355.190934,224.113381L355.230111,224.788481L357.086305,224.337372L357.036514,225.072797L363.659693,221.797770L364.876964,221.827798L364.310551,222.913016L364.214090,223.713148L361.809781,225.813971L360.232081,227.408502L363.724208,226.182834L358.954071,229.488042L358.324373,230.500360L358.746928,230.944569L361.802506,230.026939L363.591895,229.799290L362.226834,231.180059L360.613708,232.657882L359.383125,233.920290L357.685972,235.383268L356.676368,236.492229L360.423816,235.375512L363.212402,234.749434L360.820806,236.486341L358.449752,238.174692L362.307331,237.121957L361.753523,238.004183L365.560567,237.047248L363.573905,238.528375L363.418563,239.236424L361.585671,240.605348L365.860534,239.562513L371.203646,238.169031L369.495504,239.497931L364.307923,242.081820L363.582529,242.976054L363.494500,243.631294L365.885788,243.421086L365.568045,244.163943L367.042612,244.301916L364.871616,245.648317L369.235163,244.873093L368.496798,245.751376L371.887064,245.353721L378.818101,243.940543L381.297890,243.920496L378.000135,245.581591L376.041322,246.822263L368.873865,249.451759L369.135612,250.010819L372.386514,249.797742L369.235311,251.240074L368.108638,252.141551L367.318454,252.945834L365.233651,254.038608L362.261330,255.302557L365.897735,255.077404L369.235614,254.961699L371.407304,255.128309L368.321056,256.371172L369.209405,256.804808L368.550204,257.537356L368.717961,258.110947L366.768587,259.053239L362.266833,260.396298L361.817324,261.028250L361.747096,261.594714L365.571358,261.582258L368.542540,261.738483L372.227629,261.834838L373.097228,262.340360L370.243695,263.312779L372.002740,263.711310L369.545308,264.595241L372.487969,264.887111L372.591308,265.491956L367.943259,266.530337L366.040605,267.276617L361.943806,268.170703L364.369877,268.541375L363.472418,269.161332L364.462755,269.656825L363.119971,270.289043L362.433369,270.873103L364.539464,271.333902L365.371334,271.864965L365.466009,272.427151L365.168975,272.999012L372.802588,273.440552L363.480010,274.141796L362.445607,274.697899L367.835899,275.258983L373.695250,275.891645L372.119344,276.483951L372.269620,277.093845L369.145565,277.614837L366.034288,278.097422L366.017013,278.665966L372.359806,279.530541L372.583008,280.151779L372.537422,280.760341L371.943270,281.332948L372.285313,281.965629L373.546972,282.674770L376.738200,283.562766L372.356014,283.806507L374.598990,284.636786L376.452869,285.455997L376.603443,286.113128L376.314378,286.722172L370.881134,286.700722L373.399250,287.632094L374.476746,288.402343L372.719890,288.787454L373.822377,289.572939L378.410919,290.909990L378.468994,291.580965L378.788176,292.297526L375.651310,292.421375L380.081489,293.864748L387.853844,295.988321L377.753723,294.774530L372.477442,294.391130L368.957561,294.301614L363.355347,293.726512L367.695065,295.251931L370.064835,296.392491L366.794447,296.259636L365.743611,296.614168L363.665020,296.705019L367.714926,298.311018L373.214786,300.346926L374.124965,301.243097L370.059592,300.803055L370.170710,301.472379L369.315821,301.870211L362.797977,300.607110L364.327335,301.659518L364.412842,302.294241L369.866793,304.607951L366.746167,304.263942L366.755381,304.899398L367.066654,305.638081L363.593669,305.098102L363.763613,305.775408L361.782815,305.697015L364.927429,307.442544L365.221030,308.186610L363.431695,308.156795L360.902895,307.821906L360.058540,308.109436L360.736478,308.991328L362.255166,310.225502L359.185155,309.599032L361.670124,311.254576L367.476959,314.363899L368.030208,315.287406L370.693564,317.152337L369.544308,317.352975L367.276711,317.030955L372.406037,320.103841L372.365994,320.825804L364.690493,317.899441L363.179493,317.855356L363.978833,318.932790L361.712973,318.489598L363.330745,319.993458L363.717370,320.890356L361.196249,320.270746L357.895962,319.200019L362.023950,322.101302L363.150120,323.424954L360.334230,322.574120L360.443740,323.337000L357.912885,322.591120L358.487870,323.616748L360.274711,325.372930L361.211714,326.655318L364.481844,329.376894L361.181764,328.111181L358.667275,327.285245L359.118568,328.300537L355.792062,326.902612L354.728643,326.925616L352.198654,325.967230L356.345701,329.437535L358.409575,331.575978L361.428791,334.415246L360.658626,334.676869L363.120404,337.212865L354.941256,332.189717L353.309446,331.764911L352.101329,331.626951L352.045412,332.329920L351.203933,332.446552L349.982084,332.263244L354.652620,336.621349L356.481390,338.853411L354.641707,338.218413L354.970489,339.297477L353.768485,339.144966L345.960470,333.527256L342.389270,331.292515L344.217263,333.557172L345.969884,335.804257L342.655865,333.701464L340.615770,332.653483L344.620258,336.946663L345.708742,338.710703L341.637307,335.800424L342.230575,337.115449L339.586972,335.424907L339.705204,336.297675L344.603782,341.767896L341.353238,339.450191L340.472556,339.394185L343.654143,343.371993L340.965401,341.519896L338.945476,340.293448L337.528854,339.649637L336.446779,339.329895L336.344628,340.031156L337.625023,342.224566L340.819577,346.544325L339.619232,346.125866L336.234108,343.251370L337.392536,345.422304L335.761768,344.450582L336.166383,345.800340L335.985081,346.488018L332.550396,343.321285L329.334763,340.327402L329.891996,341.841980L330.936037,343.987171L330.840538,344.755302L328.892500,343.190288L332.379697,348.542018L331.159248,347.912028L331.282274,349.023334L329.810444,348.029602L331.062896,350.678111L330.591512,351.029816L330.198913,351.490818L329.869629,352.043824L328.896700,351.686657L326.628941,349.443809L326.345463,350.031264L328.229538,353.836244L330.818267,358.793831L330.030014,358.739131L330.727366,360.965139L323.982338,351.604021L323.226175,351.469381L321.371049,349.555593L323.059401,353.356935L322.155343,352.971237L323.130509,355.717648L322.886618,356.460742L321.621394,355.454205L322.799894,358.688249L323.189165,360.606626L323.573090,362.563323L322.557010,362.008039L323.028087,364.188755L321.457696,362.578187L319.044053,359.295510L318.119267,358.796299L317.965306,359.794396L316.576849,358.340903L319.226507,365.055552L315.613119,359.019783L316.032348,361.257621L313.255195,356.731304L313.178260,357.911472L314.207916,361.566337L313.313069,361.015772L313.392145,362.662003L313.403480,364.199521L311.964775,362.355681L309.825863,358.754411L309.597334,359.692739L308.855924,359.379047L310.006898,363.848982L307.782875,359.752247L306.430182,357.787944L308.196851,364.114459L307.491950,363.915577L306.471772,362.821053L307.705615,368.090385L304.983291,362.076711L304.234960,361.657521L303.676383,361.787278L302.068851,358.672500L301.693228,359.305385L301.971700,362.070510L301.760755,363.337396L301.619086,364.888849L302.865364,371.302049L302.732920,373.135341L300.845666,368.688723L300.059287,368.102079L300.284626,371.332059L298.238148,365.841477L296.605208,361.709613L295.322962,358.790298L294.954735,359.574136L294.777764,361.229736L294.030748,360.417159L293.582327,360.928891L293.074593,361.182472L292.784916,362.518124L292.300410,362.944347L291.945635,364.074192L292.274421,368.995616L291.436079,367.685858L291.187293,369.719410L290.687862,370.380100L289.965914,369.678736L288.599544,364.661629L287.236190,359.216641L286.479947,357.634913L286.290609,360.170872L285.611716,359.076340L285.344594,361.293905L285.073603,363.717612L284.635832,364.864429L284.743462,371.551873L284.371401,374.052783L283.967802,376.545057L282.974935,372.227068L282.047391,368.046486L281.098584,362.795882L280.577877,363.269664L280.338378,368.780153L279.904602,371.810447L279.096186,367.249409L278.508050,366.958161L277.883633,365.406631L277.357290,366.914090L276.809921,368.299282L276.223752,368.039666L275.662594,370.917342L275.061553,367.774726L274.496416,365.232060L273.940850,364.562087L273.448857,360.832760L272.928620,360.175699L272.323142,362.570543L271.754446,363.147631L270.947308,369.086940L270.451938,367.193592L269.899811,366.741141L269.436474,364.938525L268.889609,364.687231L268.267214,365.486974L267.697366,365.504482L267.030761,366.625310L266.287395,368.411195L265.879504,366.595155L265.184259,367.702503L264.657883,367.173286L264.250412,365.690477L263.262258,369.001653L262.877579,367.386507L261.977107,369.662804L261.481560,368.917502L261.164544,367.040568L260.402584,368.148827L259.450474,370.328738L259.493626,366.465801L258.866151,366.689037L259.050748,362.437436L258.161872,364.153266L258.478937,359.575043L257.609621,361.162336L256.720634,362.738240L256.936335,359.070307L256.843889,357.003948L255.358037,361.162193L254.451674,362.609933L254.404304,360.409355L254.453863,357.928067L254.011313,357.503805L253.302317,358.115122L251.964420,361.038182L249.648025,367.377108L249.642985,365.185102L248.792066,366.026220L249.426135,361.782081L249.621622,359.176548L248.069101,362.348704L246.005664,366.997012L245.583797,366.342090L245.916215,363.413910L247.739517,356.160227L246.926525,356.883072L245.633720,358.941601L244.965406,359.162136L241.897678,365.960105L241.201955,366.097663L241.247033,364.262999L240.054481,365.700761L240.845633,362.023623L240.763786,360.655546L240.284658,360.304774L240.348574,358.647818L240.893309,355.900365L240.864711,354.576375L240.263912,354.601283L239.823678,354.256321L236.650314,359.971296L235.527213,361.023058L234.867310,361.039699L232.545575,364.553229L233.986153,360.136938L234.643517,357.451605L234.680614,356.089501L233.968802,356.244533L234.376407,354.204452L233.495476,354.692591L232.328322,355.699588L231.985250,355.133464L233.560604,351.055171L230.439015,355.582540L230.435286,354.414231L228.739872,356.242546L227.439190,357.326978L226.906599,357.061556L226.399044,356.753035L224.809542,358.239025L219.308509,366.071364L219.016472,365.277471L220.324374,361.951394L222.213065,357.795937L224.330909,353.389928L221.981794,355.911491L220.811780,356.581234L221.443545,354.547828L219.537140,356.279228L221.733568,352.022959L220.790283,352.350003L219.482449,353.172906L219.583752,352.007118L215.941906,355.996249L216.031244,354.821894L217.980497,351.183314L217.099388,351.361895L217.042898,350.453091L214.655772,352.553546L215.000868,351.124447L217.006916,347.641599L218.838876,344.452960L218.891047,343.509018L217.826169,343.926683L217.278178,343.709623L213.818351,346.911479L212.637720,347.378515L211.150634,348.175408L210.969882,347.464132L210.969841,346.558639L210.309988,346.393885L212.493262,343.124548L213.984635,340.671190L211.162635,342.853851L213.458311,339.600663L212.551649,339.738085L213.075425,338.398014L212.580723,338.111239L208.925931,340.977387L208.838251,340.244968L211.883200,336.469555L211.544928,336.031591L209.029814,337.662349L209.399701,336.536374L203.170077,341.541756L204.676372,339.335059L206.016214,337.322516L206.466092,336.143182L209.567526,332.646465L207.857173,333.412673L203.580101,336.354334L195.511053,342.428092L200.942002,337.030153L203.370658,334.238813L205.360664,331.864514L203.669045,332.507166L205.504218,330.315207L204.253279,330.592804L205.162099,329.176712L206.793949,327.231874L203.635290,328.947151L202.840697,328.843053L202.450167,328.432454L204.565352,326.199341L202.232125,327.204018L203.313297,325.753368L203.839252,324.716837L204.137927,323.852539L203.023646,323.960500L201.838247,324.101420L202.491547,323.008990L200.451799,323.692702L199.354157,323.738491L200.790512,322.159912L200.604978,321.628223L200.220426,321.221386L199.880735,320.785549L200.370695,319.850194L196.920095,321.262730L196.128131,321.069009L196.828216,320.007787L197.127162,319.190514L198.694919,317.673159L198.143731,317.353574L195.938010,317.927669L196.074916,317.217351L193.360469,318.015842L191.220012,318.477436L187.971751,319.475542L187.111893,319.225023L184.949569,319.610604L183.007148,319.859652L182.129190,319.572127L182.819116,318.534912L187.350096,315.727596L190.017177,313.844920L186.315310,314.869423L182.811966,315.754324L185.619813,313.847663L186.598711,312.767677L188.144101,311.467781L190.146466,310.005413L189.534026,309.635155L189.573036,308.999860L187.919295,309.029700L181.390877,310.908732L185.169548,308.817273L183.571639,308.768512L179.032122,309.765704L177.298939,309.704974L181.419301,307.584716L188.513082,304.510437L187.265775,304.325695L186.602059,303.935153L179.547301,305.585806L172.846605,307.030917L172.780905,306.351826L175.507403,304.837151L180.668960,302.648411L185.683744,300.574039L185.033344,300.153500L185.011555,299.554791L186.925659,298.442575L191.711784,296.612649L190.001799,296.490784L189.749800,295.989017L188.644575,295.690075L189.093686,295.016085L186.761810,294.979340L185.455976,294.688021L179.627112,295.346123L180.563633,294.530610L179.011025,294.227476L179.406147,293.528221L184.514690,291.952520L186.536755,291.002556L187.802018,290.211987L178.211141,291.263036L177.268906,290.794504L181.184048,289.561244L182.460129,288.771972L186.589378,287.593667L182.501067,287.587224L179.065322,287.445122L177.905831,286.979530L179.337422,286.196910L177.649159,285.778732L179.063569,285.016130L181.180023,284.203307L179.018706,283.810572L178.444596,283.255603L186.953114,281.974584L182.727930,281.729759L186.773140,280.881118L184.074834,280.490918L182.295583,280.017584L179.101729,279.590064L180.438591,278.934414L183.666369,278.228946L183.836293,277.653084L185.670274,277.041522L185.540101,276.485655L180.342635,275.980781L184.832657,275.371187L181.033639,274.800060L183.062754,274.230268L184.191856,273.672602L184.313385,273.107915L170.160972,272.157604L165.946370,271.361739L164.465312,270.621185L166.902843,270.041510L169.784739,269.515120L172.285076,269.002109L182.123181,268.994434L187.017559,268.758988L187.637057,268.254408L180.979993,267.149503L179.728920,266.445662L178.341424,265.712290L178.340111,265.102635L179.779748,264.648826L183.581630,264.484121L183.881889,263.941732L186.679463,263.721188L184.888272,262.920114L187.367836,262.694993L186.700829,262.038587L182.527174,260.835510L184.796656,260.606096L176.961527,258.727417L176.860460,258.080275L181.180235,258.221106L179.408051,257.287463L183.047122,257.367158L179.730989,256.113738L174.314067,254.385630L172.026057,253.246354L178.760397,254.040395L182.081812,254.155178L179.741402,253.004489L179.244712,252.259070L173.535927,250.232971L177.794653,250.628366L177.695551,249.956695L178.340782,249.478155L182.172220,249.868709L182.342073,249.292633L180.640527,248.184867L181.304476,247.740094L186.233545,248.571851L185.947929,247.880312L185.260050,247.057310L186.245930,246.755147L190.420269,247.500773L184.142704,244.831156L184.846252,244.438435L185.634708,244.082230L182.950960,242.508739L179.031898,240.449973L179.765615,240.040842L181.559307,240.035645L183.363658,240.056942L187.314238,240.934723L187.503639,240.377944L186.016989,239.145435L184.168906,237.739829L182.803295,236.505310L186.014234,237.191721L184.593426,235.919821L184.846258,235.359147L187.657611,235.942659L185.869814,234.473464L188.832699,235.169496L191.491020,235.763569L190.131330,234.475867L189.355258,233.446593L191.775116,233.976683L194.697154,234.791806L195.271925,234.454968L192.308805,232.296125L189.812299,230.330863L191.246741,230.414044L191.401638,229.824300L186.605483,226.516925L188.744099,226.986856L187.385230,225.511335L186.194930,224.104945L187.943628,224.382371L188.277957,223.849513L191.997262,225.342032L194.494715,226.150974L196.566178,226.735242L197.299631,226.515072L193.581753,223.485980L194.555450,223.395828L195.572195,223.345155L197.305412,223.779160L195.900626,222.141505L198.374500,223.099620L195.467054,220.402771L196.002044,220.041136L197.314568,220.231223L199.804104,221.280309L200.190843,220.847876L198.428536,218.840192L198.191303,217.925172L197.050292,216.318266L197.326530,215.762722L196.161526,214.091869L201.635941,217.586128L197.600182,213.644634L198.518432,213.590972L200.725848,214.596707L202.128281,214.977374L201.595217,213.764970L205.741056,216.486175L205.430058,215.474964L206.270908,215.447047L208.765233,216.880277L208.114954,215.566346L201.845601,209.173367L204.997563,211.214061L204.826465,210.251545L206.692948,211.179473L205.456222,209.205849L206.279303,209.166496L206.578588,208.628911L205.370624,206.608072L206.158868,206.532485L205.406644,204.914498L199.832024,198.349040L206.378270,204.144748L209.862085,206.896087L210.333499,206.538184L209.159934,204.417989L210.797587,205.306133L208.077707,201.437065L206.156584,198.369419L203.018501,193.862919L200.453508,189.907226L203.179669,191.978817L204.266327,192.195541L205.426779,192.516615L211.107596,198.284662L209.688068,195.576910L211.394527,196.659994L212.791500,197.395262L212.358747,195.847651L216.319499,199.893334L217.613793,200.596924L221.253901,204.409311L220.702517,202.753524L218.083027,198.275216L218.585946,197.952322L217.784604,195.825373L218.161800,195.303747L221.570338,199.084727L222.677029,199.662004L222.685569,198.661246L220.010584,193.673392L218.187521,189.835894L218.640109,189.360759L220.961674,191.761138L222.502546,193.018262L222.393432,191.707129L220.847344,188.061468L222.296788,189.199189L222.813669,188.838880L223.508430,188.775454L224.855371,189.827212L225.762580,190.160836L224.760375,187.175292L225.475918,187.158004L228.415391,191.152222L229.864800,192.552507L230.435263,192.373788L229.433197,189.238422L229.454421,187.971130L230.567667,188.792242L230.423031,187.169139L233.012258,190.974737L233.267931,190.165672L233.865499,190.045149L232.008674,184.778239L233.530940,186.554875L232.275612,182.377152L233.080384,182.609325L235.972023,187.535015L237.159984,188.754084L238.337264,189.998643L237.357672,186.206924L236.357534,182.240092L237.254977,182.776275L238.073939,183.145228L238.399772,182.287057L238.381996,180.518864L238.774478,179.771009L239.645445,180.285040L241.317608,183.015636L242.071963,183.306439L239.817128,175.070123L239.932647,173.376847L243.669752,182.334226L245.176008,184.939705L245.481639,183.961625L245.119174,180.843816L247.243331,185.604826L246.526373,181.232133L244.883779,173.548519L247.685687,180.835852L247.823582,179.076552L248.744899,180.072245L249.920163,182.066713L251.240711,184.722721L251.064563,181.689995L250.482693,176.879946L251.047706,176.530774L252.971589,181.912729L253.771366,182.724913L254.888845,185.014218L255.213129,183.793288L255.124405,180.541345L256.547270,184.502599L257.406094,185.875232L258.226135,187.145488L258.950807,187.995224L259.604238,188.513674L259.775954,186.270730L259.805320,182.998681L259.587451,177.912467L261.456923,186.107541L261.769592,184.362234L261.978094,181.718818L262.881732,184.047827L263.597028,185.133391L264.284024,186.105972L264.834955,186.002593L264.954129,181.892914L265.592446,182.390438L265.590386,176.240487L265.678417,170.240316L266.269706,169.421677L266.924459,169.307886L267.678998,170.605669L268.491492,173.075085L269.125643,172.994210L269.847063,174.602843L270.365033,172.152981L271.246943,178.299670L271.821822,177.386645L272.584400,183.183573L273.238903,187.213986L273.744140,184.094715L274.332792,186.860523L274.881961,185.939216L275.447471,184.033316L276.056520,180.362674Z" />
<line x1="50" y1="625" x2="100" y2="625" fill="none" stroke="green" stroke-width="1.0" stroke-linejoin="round" stroke-miterlimit="10" />
<text x="125" y="628" style="text-anchor:start;fill:black">n0_4mer:PS</text>
<path style="stroke:red;stroke-width:1.0" d="M276.574009,148.957089L277.334442,150.388874L278.040862,153.274059L278.835757,152.179392L279.528943,154.171301L280.490463,149.466576L281.344754,148.092717L282.374243,143.919204L282.675349,152.240910L283.367655,153.368285L283.970899,155.502310L285.041891,151.566025L285.964178,149.900060L286.243729,155.308491L287.055073,154.740920L288.271164,150.450920L289.600170,145.649890L291.119166,139.774096L292.483658,135.732021L291.495594,149.926830L292.102101,151.292148L292.465720,154.226250L293.274735,153.972085L294.288794,152.445023L294.415430,156.464606L295.889780,152.272666L297.113646,149.813187L299.037556,143.712956L299.446505,146.030630L299.089202,152.114285L298.542435,158.753515L299.272399,158.881074L300.325783,157.509691L301.381194,156.219182L301.708666,158.195557L303.504280,153.829850L304.607992,152.572738L305.662529,151.590266L306.788970,150.386954L307.049662,152.562252L307.702387,153.178985L308.170148,154.447870L310.252378,149.938662L310.540475,151.866310L313.164771,145.807514L314.552602,144.123038L315.240257,144.789396L315.034636,148.265551L317.921711,142.022834L317.243987,146.865229L316.432030,151.918055L316.010405,155.640828L315.854644,158.467182L318.488817,153.391141L320.341756,150.663963L321.354327,150.311860L321.691871,151.765435L321.347322,154.942903L320.732230,158.702965L321.823156,158.077817L322.968327,157.352238L324.643086,155.386611L323.262844,160.732883L325.274643,158.013265L327.813923,154.189722L327.179334,157.643485L326.339223,161.448336L326.238131,163.531431L328.538996,160.416817L328.711036,161.895581L329.278065,162.519543L330.767130,161.253914L330.309324,163.947495L331.999714,162.322137L333.019828,162.061990L334.862779,160.243304L336.062714,159.704498L335.272280,162.895098L335.935705,163.338554L337.298146,162.518066L337.865258,163.147778L340.749389,159.707739L339.727526,163.128740L338.257572,167.227476L339.326508,166.957446L337.484738,171.526313L337.913379,172.271639L338.733080,172.377538L339.869133,171.989103L342.094885,169.915653L341.821560,171.770599L342.456744,172.202234L342.077581,174.158515L345.149017,170.955830L346.368897,170.559480L347.196490,170.751849L346.193617,173.559177L348.591328,171.523004L350.922066,169.644897L350.449086,171.667784L348.295904,175.921731L350.895493,173.736414L352.237327,173.275912L352.487816,174.258398L353.274440,174.540069L352.626660,176.644445L351.230784,179.643545L357.399375,173.236736L353.128435,179.733906L353.069779,181.008603L356.149476,178.532805L357.138694,178.585479L357.299571,179.609748L354.799297,183.667067L354.535063,185.108601L355.371155,185.298591L355.621653,186.141740L356.590180,186.194948L358.286460,185.477206L359.543570,185.256260L357.529917,188.482613L360.287855,186.702016L362.667872,185.364919L363.028151,186.113748L360.858753,189.380299L364.853124,186.509175L365.796200,186.690459L363.146132,190.332598L366.376952,188.319797L364.622943,191.040632L363.848198,192.802076L370.403027,187.837164L372.784658,186.775187L373.609710,187.141556L371.741448,189.883781L372.700873,190.116098L369.844860,193.631149L371.891414,192.920136L371.579637,194.214688L370.616946,196.029506L371.131124,196.609419L373.346677,195.820050L373.410831,196.776194L375.729796,195.954270L372.848500,199.197772L372.186288,200.677197L375.245247,199.325230L381.182759,195.879050L381.359033,196.775836L380.822131,198.184303L377.753158,201.387367L379.979927,200.779677L382.709445,199.854264L382.689321,200.863749L385.762038,199.763490L383.944617,201.987989L384.096162,202.869533L379.992163,206.521294L378.639178,208.322485L378.341752,209.422607L378.705348,210.096648L380.618815,209.813405L383.417820,209.017206L387.517924,207.481106L387.765509,208.286682L388.032978,209.077813L388.750130,209.608019L387.219731,211.416809L387.240118,212.327878L388.322489,212.648553L386.590380,214.506248L381.036882,218.370674L380.531131,219.484895L386.456507,217.253507L389.199321,216.734056L387.387031,218.540389L386.875729,219.669429L385.091522,221.404832L383.916937,222.815416L382.147193,224.483557L385.660259,223.669396L386.839722,223.968489L387.034766,224.722347L383.138640,227.279801L384.268898,227.593992L384.059450,228.491877L386.891536,228.107717L384.953125,229.725162L385.542169,230.287859L387.152414,230.449404L389.130023,230.486931L392.616919,229.971092L392.452788,230.872853L387.876233,233.394731L387.452334,234.346753L389.307005,234.481518L391.003662,234.693702L394.088055,234.453623L403.745583,232.060728L403.568366,233.010126L394.960501,236.648722L393.553300,237.912946L397.501870,237.515897L405.320808,236.011678L407.371555,236.297047L401.403449,238.897247L401.063727,239.844180L394.573894,242.457368L394.996327,243.145850L402.587828,241.982067L404.261392,242.408809L398.487564,244.683434L399.228258,245.322828L393.504913,247.471158L387.644402,249.572852L392.517643,249.242961L398.975965,248.637698L402.983809,248.619688L397.547921,250.536880L394.017291,252.013522L393.751445,252.833141L397.140498,252.988880L400.838095,253.132931L399.127031,254.227913L397.582486,255.272464L395.423255,256.390637L395.039711,257.216653L396.803033,257.731995L401.217144,257.909497L400.353354,258.822903L396.899622,260.041867L399.355724,260.528108L399.781773,261.267703L403.925079,261.625990L402.070483,262.619884L394.170092,264.140359L401.404697,264.276522L409.283316,264.452260L406.138312,265.522834L404.298668,266.467035L403.404615,267.331018L400.252738,268.303899L400.801763,269.062096L398.531230,269.942145L394.074629,270.869230L391.355843,271.690845L389.208177,272.465545L396.763229,273.058503L391.870642,273.866424L393.021586,274.592268L398.190580,275.343664L401.757440,276.145168L398.997377,276.894638L398.790916,277.664747L398.853171,278.439948L398.570618,279.204463L392.919284,279.749531L398.427222,280.743562L398.100966,281.498969L401.859538,282.492040L403.271283,283.379491L400.981639,284.020286L397.767557,284.561052L402.693914,285.747321L401.129330,286.409247L400.650820,287.157453L402.006788,288.089650L402.437123,288.938751L402.597348,289.763137L399.221664,290.159219L399.608648,290.996750L397.520358,291.506972L400.497456,292.706634L401.306184,293.625865L406.244917,295.192310L407.174968,296.181113L411.190366,297.697734L404.408266,297.398814L410.823504,299.383706L423.725273,302.659614L408.678554,300.725886L404.947119,300.850303L396.974930,300.057196L388.540585,299.064408L398.140660,301.903656L395.950310,302.217514L393.134186,302.359932L394.104770,303.369495L390.657287,303.312672L393.913302,304.897992L399.888986,307.230909L398.255640,307.631636L394.038878,307.312012L394.041387,308.112170L392.986029,308.613761L387.662730,307.859151L391.239106,309.691269L391.833535,310.664705L394.919095,312.426781L391.012695,312.004148L390.385649,312.599554L392.050010,313.952079L388.359758,313.511934L389.039285,314.538786L387.054327,314.636111L389.093071,316.160628L390.006670,317.303679L388.293187,317.478424L385.932758,317.385354L385.459200,317.996762L385.834715,318.941846L386.662117,320.078753L384.326625,319.931858L384.541910,320.821966L389.533382,323.752473L390.604192,325.063233L393.875881,327.363983L395.544092,329.000088L395.191088,329.745625L399.805628,332.791214L394.866005,331.415549L386.840045,328.493690L387.275310,329.565956L387.549016,330.570434L386.690866,331.016888L389.580671,333.364510L387.420957,333.151383L387.906697,334.299222L385.916025,334.140281L388.197830,336.267791L387.009404,336.531966L383.361386,335.411837L382.647368,335.897976L381.219656,335.968960L383.271480,338.048768L384.760209,339.836846L385.482272,341.197465L387.575488,343.410586L382.481431,341.237513L379.889768,340.547577L383.101204,343.496794L379.374067,342.052214L379.077259,342.783366L375.800991,341.549700L376.256110,342.761824L379.802617,346.086690L386.863930,351.900566L387.376586,353.290806L389.072273,355.534843L377.537473,348.354977L375.544741,347.882821L375.206871,348.596780L374.009741,348.673699L373.878428,349.539785L370.960435,348.284250L376.291093,353.361438L376.637919,354.649204L375.773705,354.992682L376.724475,356.788009L375.374643,356.739899L371.068759,354.236240L369.238473,353.720553L365.978865,351.967287L367.557331,354.299548L365.379193,353.417309L362.288083,351.695922L366.486539,356.402828L364.564620,355.700417L361.830263,354.224642L361.692326,355.096486L360.461511,354.954264L363.562614,358.898698L364.440439,360.796343L363.881736,361.332559L361.110876,359.692580L363.173885,362.811515L360.395335,361.113155L358.805648,360.572273L359.673111,362.544958L359.012433,362.954343L357.162626,362.100219L356.566736,362.557468L357.800705,365.002410L358.321063,366.710819L354.897475,364.053508L357.953820,368.629776L359.105773,371.132734L357.019766,369.938217L356.823665,370.915452L353.988878,368.772102L348.261940,363.083796L349.334222,365.516778L349.680348,367.104950L349.820034,368.464251L347.437626,366.655472L349.674980,370.708918L350.176862,372.602758L349.234741,372.634701L351.149244,376.461485L351.495772,378.260015L346.799243,373.196344L345.241356,372.335589L346.566800,375.488740L344.462504,373.834386L341.736968,371.228086L341.748661,372.539998L344.585104,378.059851L344.960978,380.024730L346.443940,383.716189L347.971935,387.566643L339.248839,375.479471L337.914089,374.759135L334.735813,371.043525L337.741985,377.295691L336.042007,375.932799L335.069720,375.740396L336.444317,379.523975L335.760775,379.854433L337.844419,385.028264L335.951884,383.279219L336.329129,385.558795L334.807680,384.421282L333.614889,383.848579L334.424097,387.021368L331.429122,382.999180L331.237457,384.289676L330.473703,384.480405L330.769380,386.789867L332.430188,391.941346L328.178252,385.014334L327.938128,386.285781L324.546347,380.854577L324.172019,381.786547L324.715422,384.765638L326.372811,390.335891L324.990091,389.143962L323.887455,388.550583L321.970046,386.000281L320.217037,383.744650L320.974448,387.543407L322.972040,394.560613L321.660709,393.426844L320.424117,392.433141L319.277886,391.629141L318.130576,390.780801L317.432139,391.117319L315.970335,389.326511L316.949322,394.400861L314.320299,389.193012L315.045990,393.703301L313.584801,391.774486L312.832107,391.942791L313.333245,396.068123L311.832580,393.903576L310.913588,393.550946L310.558947,395.077483L310.661405,398.244987L309.322033,396.451486L308.057599,394.831476L307.666158,396.363676L307.249348,397.866999L306.769210,399.190703L306.250544,400.419880L305.498142,400.741925L304.581619,400.375753L303.439431,398.994027L301.487518,393.885946L300.144461,391.273683L298.692412,387.969106L298.347311,389.890218L297.081359,387.247668L297.000515,390.645005L297.375285,396.751035L296.715301,397.456293L295.722264,396.255645L294.892690,395.944889L294.133616,396.044836L292.963780,393.434987L292.159023,393.098471L291.510780,393.847844L290.784850,394.073243L289.974338,393.641273L288.842432,390.472636L288.586629,394.656620L287.759560,393.996537L287.253094,396.420824L286.675050,398.401636L286.187879,401.683645L285.368192,401.404657L284.231309,396.880680L283.531040,397.813780L282.895955,399.953140L282.125635,400.177190L281.367416,400.684503L280.461107,397.988534L279.484986,392.567048L278.833277,395.179528L278.232528,401.040872L277.476974,402.685088L276.686325,403.208244L275.885919,403.245851L275.081517,397.865674L274.306210,399.313091L273.569317,395.979033L272.798544,396.817972L272.026946,397.252783L271.028873,404.911154L270.209849,405.098120L269.572900,400.995066L268.833248,400.005986L268.344207,394.723027L267.705402,392.922593L266.770657,395.788824L266.054429,395.226267L265.273537,395.543963L264.373640,397.175220L263.653518,396.650004L262.823043,397.290520L262.023061,397.557709L261.632349,394.138109L260.504830,397.290629L259.727743,397.307795L259.073978,396.374234L257.823579,399.854601L256.879931,400.886689L257.331889,392.537361L256.379626,393.820068L255.086869,397.080485L255.410126,390.552707L254.071287,393.938357L253.468328,393.041531L252.013931,396.704929L250.123113,402.350389L249.619505,400.750143L249.508932,397.353337L246.642158,406.980550L246.453173,403.934687L245.566439,404.114395L245.400724,401.199604L245.129830,398.870150L245.402557,394.460841L243.656311,398.207973L243.455375,395.834809L243.210160,393.735456L242.396944,393.798476L241.251461,395.030511L240.975207,393.175980L240.492945,392.095873L240.701599,388.763023L239.787098,389.210865L236.907456,395.864991L237.134964,392.577087L235.611275,394.740642L235.095076,393.805402L234.658558,392.665561L233.431356,393.821265L232.906428,392.953482L231.477821,394.592275L231.338912,392.682044L230.432302,392.863608L229.144222,394.018233L229.063798,392.043150L229.516697,388.794625L230.027839,385.508493L227.578404,389.474740L225.726959,391.874633L222.007231,398.537037L221.366983,397.905520L224.380223,389.052210L224.417329,387.075889L222.710038,388.955533L221.546236,389.598492L220.489584,389.984098L220.944024,387.209916L220.312666,386.730709L220.419343,384.771470L220.748333,382.421952L220.230469,381.785010L219.475926,381.611445L217.850371,383.079918L217.732665,381.685030L216.823487,381.773386L214.955554,383.582293L213.989201,383.721121L214.270133,381.654462L212.662092,382.905891L213.283156,380.307175L213.110451,379.106151L210.029350,382.751427L205.426755,388.771964L204.939811,387.977103L204.526987,387.074194L206.205712,382.903357L206.171505,381.484261L206.431955,379.642221L205.788051,379.199699L204.118704,380.280552L201.207830,383.140305L200.441470,382.811212L201.560629,379.788142L198.647038,382.510739L201.583699,377.020219L200.926297,376.589667L200.640488,375.655287L201.608514,373.057792L201.444409,372.008375L200.551805,371.922486L201.237671,369.798298L199.466208,370.834189L199.907293,369.060428L201.543863,365.841241L200.734415,365.678263L200.797519,364.455801L200.321230,363.894460L196.863866,366.839384L194.308134,368.652083L192.752591,369.260728L193.531663,367.199305L194.382527,365.096242L193.747029,364.673276L195.548300,361.592444L194.022636,362.156406L190.916134,364.374211L192.328451,361.780799L189.442048,363.695024L187.499981,364.582003L188.309857,362.651164L187.518292,362.353701L187.774820,361.016530L188.886890,358.865698L184.634234,361.914509L185.267417,360.233265L184.726154,359.681400L182.712798,360.492957L184.521311,357.773770L184.938982,356.364471L183.207726,356.893357L181.854788,357.061579L182.872776,355.148507L180.237065,356.407519L172.653646,361.817345L177.170045,356.941279L178.911104,354.467324L179.848655,352.696533L181.455025,350.416156L181.529767,349.397686L180.078609,349.589270L180.800749,348.075015L179.706361,347.975423L179.447194,347.231803L177.320818,347.885203L177.730930,346.638002L176.675405,346.472700L173.347041,347.926314L167.975046,350.772447L168.316244,349.535177L164.169672,351.406782L164.624060,350.081064L164.157379,349.390374L166.216723,347.027124L169.056451,344.199224L170.702567,342.198663L164.293704,345.353526L165.686095,343.514169L164.059016,343.572816L167.756106,340.365663L173.073268,336.255209L170.949654,336.650345L173.318694,334.391987L171.738650,334.453227L169.202109,335.037150L173.760014,331.617855L173.233587,331.080934L171.215289,331.351172L171.061046,330.597372L167.758931,331.505283L165.806722,331.665605L162.577580,332.453162L162.419176,331.650322L160.311731,331.816085L154.243296,333.886137L155.251242,332.471845L156.873860,330.788260L158.620052,329.077361L164.801418,325.370827L161.454088,326.046127L158.168540,326.648647L160.920398,324.582867L162.183794,323.198460L162.934988,322.052213L163.737072,320.900324L163.000315,320.387962L162.664117,319.709587L164.398219,318.221348L156.853689,320.321269L159.285781,318.561390L158.155896,318.155663L155.177266,318.407458L153.563732,318.136097L156.166876,316.377588L159.060069,314.560180L158.913485,313.802620L157.921496,313.323114L152.741102,314.175287L146.437934,315.311542L145.432287,314.739976L149.896774,312.517605L156.164875,309.830554L160.819259,307.693519L155.824619,308.319877L156.710340,307.277232L158.926353,305.895096L160.489275,304.714648L159.854317,304.113216L158.820336,303.604003L153.279499,304.163267L154.964986,302.968038L161.882039,300.612744L157.196107,300.901511L154.093327,300.793306L151.110522,300.621878L149.785616,300.081595L147.293905,299.752289L156.205109,297.256350L160.143247,295.777008L161.013724,294.885296L153.876587,295.351872L149.415779,295.295900L149.634923,294.458008L150.978659,293.457108L156.810170,291.835572L149.973841,292.013518L147.457459,291.545450L146.571370,290.845593L150.808115,289.536148L145.295756,289.360916L144.737920,288.599858L143.014436,287.947175L141.102635,287.291066L144.808095,286.131564L150.756210,284.841901L155.933377,283.683990L154.000045,283.065741L155.900642,282.192342L155.998343,281.440910L157.334252,280.631940L155.735095,279.962252L154.154554,279.272287L155.157636,278.487702L156.786742,277.701620L160.550255,276.900659L152.214835,276.272224L150.693421,275.511726L149.169382,274.732260L151.487910,273.965911L153.219515,273.219860L153.018610,272.454982L138.438068,271.297533L128.472017,270.111515L125.815904,269.090094L126.062545,268.168138L133.455680,267.621283L135.667425,266.863874L145.394959,266.619528L147.168421,265.932300L154.666464,265.708636L153.967835,264.894038L152.663430,264.015467L154.088760,263.381905L153.008763,262.508864L152.192293,261.649857L154.430451,261.130854L153.161384,260.213433L155.837995,259.782635L155.913354,259.035894L152.368666,257.780530L151.242157,256.833618L152.871026,256.292940L150.536702,255.139176L149.539760,254.175909L152.419444,253.866528L155.596433,253.645653L153.841708,252.550194L155.828854,252.147796L151.179400,250.453631L148.075179,249.013498L148.073521,248.186288L153.828478,248.610580L156.708537,248.463058L155.752578,247.465393L151.315219,245.626093L145.955308,243.500637L148.342134,243.243937L154.830387,244.071874L152.459186,242.644393L157.331587,243.143597L161.608513,243.540235L158.229389,241.816056L157.870869,240.922288L160.148287,240.805571L155.617548,238.643576L151.836715,236.650152L155.080317,236.837087L163.119642,238.624579L159.348839,236.598441L159.464832,235.834290L163.142813,236.300694L160.583547,234.613541L154.437179,231.595488L152.655850,230.089241L157.163261,230.906945L159.320203,230.888616L164.236659,231.969252L163.407390,230.843128L161.511098,229.271099L161.025794,228.246204L159.006755,226.569592L159.992003,226.135394L158.663583,224.711090L158.167586,223.628460L161.980571,224.460526L160.352999,222.871243L163.895847,223.642532L166.246569,223.902543L167.308446,223.578116L165.249932,221.751089L166.088650,221.315277L166.320208,220.583272L166.813721,219.982791L164.406494,217.886650L163.789513,216.685520L162.138899,214.918515L161.716103,213.782540L160.615891,212.262022L163.975481,213.199751L162.799011,211.623960L161.099043,209.722247L164.136201,210.539898L164.649150,209.912745L167.964010,210.963682L174.517034,214.028909L174.024340,212.863977L170.863585,210.019014L169.802913,208.440905L171.733011,208.755519L168.739265,205.894707L170.901474,206.372131L172.118997,206.249329L175.893098,207.872401L172.833203,204.865241L175.834708,206.010724L178.527733,206.986372L180.554798,207.528670L181.067802,207.005275L178.161066,203.975422L176.665620,201.929918L175.871397,200.374469L175.939495,199.452008L173.873571,196.872893L179.097722,199.947976L176.920061,197.251360L175.891029,195.422845L177.967514,196.088541L181.658438,198.116872L180.005348,195.754479L183.043858,197.310315L184.710674,197.747163L183.937427,196.095347L187.738984,198.430151L186.709795,196.545850L183.254735,192.444720L182.815518,191.001871L184.048323,191.079751L182.710038,188.771803L183.679999,188.603745L184.194569,188.009618L182.122874,184.906040L180.165631,181.851020L181.325857,181.834249L181.247740,180.584748L179.250433,177.361397L186.071191,183.176707L191.506917,187.705133L191.723602,186.836060L192.351411,186.398880L194.058593,187.135395L190.309563,181.905804L189.118440,179.404019L184.976593,173.526196L179.526024,166.019077L182.375754,167.930395L185.130567,169.794241L188.521111,172.473893L194.912674,178.839489L194.504913,177.113315L196.073208,177.789413L195.335897,175.619501L196.389370,175.669036L196.651508,174.719773L199.975322,177.728075L200.799198,177.543891L198.308255,172.956444L198.827995,172.319195L201.440822,174.536313L201.138400,172.790367L201.129742,171.422076L206.416905,177.554046L205.689600,175.202405L206.025699,174.350675L203.731357,169.597225L204.571475,169.424914L202.951592,165.521950L205.867253,168.510188L208.459579,171.088307L209.082097,170.631067L207.846793,167.189937L209.372765,168.158884L210.987418,169.313402L210.230673,166.541356L212.409813,168.687902L212.057879,166.546776L210.889468,162.927333L212.149796,163.521155L216.424014,169.568906L217.619678,170.184607L216.618467,166.756459L214.453970,161.045921L212.458056,155.494334L213.703505,156.072339L215.919831,158.593205L218.155114,161.242835L220.570367,164.353644L221.172113,163.829571L218.839156,157.140638L218.694110,154.910916L219.126069,153.870059L219.269426,152.170028L224.903770,162.730127L225.956371,163.218528L228.438847,167.049488L227.223412,162.301597L226.045625,157.486710L226.982038,157.676046L226.195869,153.598144L229.189517,158.956334L228.004396,153.742761L229.761546,156.077980L230.251602,155.118906L230.962915,154.737663L230.342684,150.644323L227.706686,140.672845L227.656339,137.800818L233.366791,151.861061L236.391380,158.412531L236.319616,155.704781L237.389619,156.487549L239.691583,161.283110L239.914638,159.458711L237.732831,149.459368L239.745251,153.461766L239.787300,150.711229L241.423520,153.601122L242.966370,156.299447L244.461008,158.962136L244.622127,156.574777L243.390392,148.496043L244.397662,149.192069L246.564842,154.839210L246.529897,151.248219L247.777374,153.194502L248.917894,154.775682L248.154156,147.415273L250.001773,152.401629L251.319165,155.040911L251.508439,151.960997L250.306698,141.134378L250.576752,137.801403L253.053302,147.089558L255.220050,155.235615L255.046599,149.308496L256.684968,154.785939L256.271798,146.698410L257.931075,152.728387L258.794528,153.371820L259.516171,152.972235L259.414711,145.712749L260.831536,150.951694L261.418417,149.123250L262.112782,148.136027L262.983769,148.882481L263.275403,143.234283L263.939377,141.240234L264.797933,141.476070L265.766400,143.332833L266.412989,140.525192L267.182293,139.248733L268.150276,141.543545L269.062659,143.254099L270.051485,147.497799L270.780615,145.407406L271.760085,151.851553L272.618267,156.276935L273.361603,156.404860L274.108230,157.195527L274.843263,156.741189L275.584007,156.276667L276.386018,150.847995Z" />
<line x1="50" y1="600" x2="100" y2="600" fill="none" stroke="red" stroke-width="1.0" stroke-linejoin="round" stroke-miterlimit="10" />
<text x="125" y="603" style="text-anchor:start;fill:black">n0_4mer:D</text>
<path style="stroke:black;stroke-width:1.0" d="M277.236786,95.883449L278.378860,94.638473L279.494108,95.100506L280.634547,94.582275L281.746513,95.008253L282.838631,95.778288L283.909536,96.792149L284.980726,97.587686L286.052471,98.227419L287.182685,97.913246L288.371533,96.883255L289.521004,96.509189L290.659293,96.329359L291.754794,96.642220L292.943013,96.003967L293.766319,98.879224L294.753538,99.993655L295.711299,101.250060L296.560711,103.255810L297.774937,102.315493L298.946957,101.779966L300.119391,101.301861L301.309927,100.757500L302.455756,100.554700L303.629391,100.211383L304.808380,99.875942L306.201441,98.366577L307.686550,96.474339L308.667980,97.382048L309.581636,98.589460L310.027426,102.043581L310.743520,104.003342L311.789512,104.327638L312.743401,105.061064L314.166095,103.715748L315.280695,103.768944L316.378524,103.902297L317.500373,103.945627L318.629473,103.972077L319.845373,103.679427L321.112001,103.226279L321.925025,104.457748L322.052907,108.075104L322.366290,110.894536L322.965086,112.632231L323.757421,113.664895L324.948466,113.375289L325.723258,114.429433L326.559804,115.260876L327.935956,114.434271L329.404195,113.381703L331.618837,110.213098L333.531835,108.045183L335.234130,106.565807L336.708741,105.782461L337.563802,106.710120L338.387545,107.700290L338.530526,110.431904L339.351032,111.355365L340.037004,112.595986L340.643926,114.000828L341.815708,114.009740L342.450007,115.305350L343.623579,115.316154L344.594325,115.805052L345.830833,115.694408L347.328942,115.023451L348.577105,114.932986L350.469560,113.481425L351.771621,113.334723L353.018680,113.321859L353.624987,114.631616L354.318315,115.741181L355.807834,115.257898L357.694925,114.030887L359.004908,113.962944L360.318952,113.905107L360.861463,115.299870L361.288093,116.881649L362.988488,116.133069L363.317272,117.862603L364.364896,118.297694L365.272789,118.977805L364.821424,121.970392L366.018272,122.126062L366.576888,123.350196L366.601450,125.428209L367.883209,125.440250L368.075846,127.197402L369.239161,127.402153L370.620925,127.279851L371.699229,127.639424L373.697642,126.622306L374.936735,126.775048L376.876037,125.915640L378.402870,125.691383L379.153648,126.595800L380.360878,126.851739L380.947704,127.979090L381.863689,128.643531L382.307101,129.946851L383.375720,130.399661L383.822945,131.676619L384.548102,132.576947L386.003901,132.534028L386.294969,133.985581L386.970380,134.937181L388.063078,135.367050L386.855758,138.608413L387.449645,139.617279L388.638881,139.910722L389.172134,140.984578L391.484895,139.986860L392.934381,140.020202L393.393873,141.189947L394.652587,141.456994L395.400140,142.299337L396.158758,143.127393L397.414139,143.419719L396.930386,145.569828L398.547345,145.483410L399.727154,145.870757L400.102726,147.090051L402.068998,146.692330L401.637256,148.715333L402.521332,149.412069L403.724267,149.801137L403.169166,151.889093L405.595219,151.117337L406.165523,152.123268L407.480853,152.435318L409.646498,151.983247L410.059316,153.144659L410.537567,154.239886L410.585053,155.707934L411.006445,156.835675L410.574596,158.688487L410.811758,159.949448L411.191905,161.080483L411.621070,162.164003L413.844107,161.778915L415.454004,161.918997L416.597777,162.448190L417.760070,162.971837L417.685964,164.462648L417.330712,166.153189L418.067481,166.998882L418.548622,168.036276L418.941825,169.134718L419.883357,169.829976L419.896998,171.195408L419.623644,172.751752L420.126011,173.749818L421.702780,174.005824L422.826952,174.586680L423.264155,175.636998L424.319712,176.275166L424.346887,177.591953L425.130958,178.411438L427.282846,178.366143L427.946877,179.279142L428.296925,180.387079L429.023564,181.261672L428.684005,182.778479L428.858767,183.975458L430.255692,184.453020L430.384542,185.673483L430.384573,186.959805L431.084111,187.846471L430.869523,189.238645L431.303094,190.267243L432.976007,190.632424L432.824841,191.975564L434.305914,192.462352L434.250273,193.748489L434.598135,194.823057L434.557791,196.087230L434.047048,197.572119L434.065188,198.788247L434.153514,199.964255L436.127299,200.259876L437.352886,200.919763L438.941468,201.428263L439.614991,202.357510L440.225949,203.317181L439.600881,204.806376L439.943746,205.874228L440.187217,206.981702L440.121971,208.211399L441.116727,209.013020L440.477299,210.460431L441.717695,211.173164L441.340612,212.505641L441.715876,213.549873L441.908232,214.660109L442.753089,215.536447L445.069621,215.908099L445.825832,216.838259L448.486400,217.138755L448.083759,218.471590L447.075875,219.987478L446.366078,221.391513L446.697487,222.462629L447.884549,223.277803L448.228149,224.351347L448.541040,225.434032L448.076471,226.733576L448.084982,227.894059L449.185320,228.760874L451.116647,229.423492L451.700864,230.447705L450.591541,231.891751L450.079099,233.174954L448.169294,234.772553L448.600034,235.813377L450.331170,236.571627L450.775591,237.623003L452.487103,238.415958L451.142847,239.838216L449.726437,241.254101L448.385301,242.634856L447.156829,243.975363L446.103186,245.267150L446.014251,246.381553L446.374761,247.420190L448.013873,248.263652L451.256733,248.888352L452.443704,249.843822L454.629044,250.677228L453.301971,251.989780L452.722487,253.191922L452.606844,254.331011L451.253688,255.603192L452.664595,256.570009L453.211707,257.637340L450.278857,259.027322L447.422913,260.372590L445.005792,261.646317L444.287844,262.765825L445.758074,263.730954L446.935773,264.731113L447.920340,265.755555L447.225435,266.870876L447.235365,267.948006L450.174661,268.923087L451.308885,269.985783L452.499117,271.061021L453.570251,272.152724L452.084432,273.282385L450.841556,274.392516L450.666900,275.490056L451.022946,276.590248L452.484596,277.711905L452.639183,278.823895L451.524625,279.902866L451.503063,281.005478L451.974270,282.128137L452.937841,283.280158L454.068665,284.453717L454.904688,285.624767L454.997010,286.758543L454.695623,287.866208L454.474676,288.977363L454.309153,290.091503L453.352320,291.133168L453.621405,292.282667L452.888219,293.333623L452.260744,294.388332L451.391097,295.408622L450.453602,296.411238L450.986071,297.592374L451.572553,298.789338L452.212815,300.003236L452.795299,301.218758L452.121511,302.250522L451.614606,303.302590L452.124994,304.519973L452.134302,305.659543L454.191186,307.169287L455.805857,308.625894L452.646047,309.187249L452.993127,310.408067L451.176597,311.191794L448.537879,311.780560L451.004001,313.453189L448.833397,314.117824L448.256904,315.126379L448.525901,316.332033L447.220127,317.159142L448.117437,318.526365L447.600169,319.544043L446.533117,320.412982L446.596083,321.578183L446.687304,322.755989L446.013034,323.720948L445.933498,324.854371L444.840194,325.688378L443.707299,326.499735L444.766754,327.984248L443.860894,328.860946L444.472188,330.224188L443.708875,331.143195L442.289668,331.833648L442.911893,333.217065L442.226871,334.151869L441.501454,335.067666L440.900198,336.024188L440.457378,337.036993L439.903277,338.006490L440.706585,339.502065L440.068150,340.443388L440.177944,341.683456L439.399873,342.566264L438.686430,343.470908L438.244179,344.486793L437.061414,345.181870L438.988257,347.235665L439.127268,348.524026L439.575115,349.962027L439.761791,351.292905L438.049241,351.739961L435.976688,351.996009L435.785103,353.141783L435.002572,354.000356L432.986365,354.235705L433.101190,355.532767L431.817952,356.116377L431.009541,356.937074L431.476651,358.433147L431.601287,359.759707L431.485334,360.964660L431.273068,362.122760L431.193882,363.361577L429.945161,363.936885L429.224736,364.808318L428.693226,365.788676L427.254674,366.226160L428.113660,368.045079L426.912383,368.618947L425.423688,369.002575L425.097772,370.107323L423.333450,370.292697L422.787896,371.251199L422.183988,372.172162L421.189922,372.832079L422.541930,375.076389L424.706000,377.914998L424.193793,378.940711L423.776737,380.036139L421.226781,379.610167L417.797286,378.510823L416.966776,379.267277L416.503488,380.293533L415.823274,381.160027L415.644470,382.409106L415.732403,383.874266L414.980930,384.696948L413.793838,385.172503L412.547826,385.590523L411.893354,386.478841L411.059550,387.220115L410.835881,388.468262L410.621000,389.734125L409.218370,389.993119L408.346612,390.697897L407.912686,391.784109L407.050098,392.495443L406.694631,393.660824L406.597564,395.070694L405.881963,395.924030L405.316032,396.918304L405.369002,398.503463L404.730588,399.444939L402.919706,399.250900L401.660042,399.573877L400.126748,399.612512L398.791604,399.832176L398.683233,401.290479L398.170341,402.347894L397.200034,402.933726L396.656141,403.967111L396.121139,405.016975L395.526975,406.009973L394.555234,406.593477L393.021554,406.546502L391.725280,406.747540L390.027759,406.476503L389.449716,407.476017L388.717621,408.302230L387.657503,408.742004L387.803462,410.625090L385.748398,409.858317L385.258446,410.984218L385.071247,412.499626L384.008961,412.929256L384.060699,414.780171L382.895850,415.082098L381.542330,415.126151L380.357579,415.378759L379.858478,416.546228L378.906159,417.107416L378.236234,418.057599L378.370736,420.145445L377.102956,420.276693L376.044192,420.695698L375.379553,421.684912L374.510613,422.381385L373.796296,423.312025L373.177214,424.396192L372.358023,425.184666L370.334032,424.093949L369.454528,424.770936L368.755159,425.739991L367.720550,426.173297L367.259979,427.551634L365.761370,427.212070L364.131241,426.622673L362.931997,426.743616L361.418508,426.301874L360.803194,427.426835L360.613817,429.337108L359.846278,430.230707L358.887162,430.779505L357.315221,430.173813L356.443076,430.873157L355.771325,431.967836L355.541112,433.952315L355.663150,436.689495L354.861344,437.616445L353.327488,437.042677L352.099297,437.077049L350.857841,437.068450L349.891409,437.641174L349.044570,438.481454L348.256276,439.465944L347.488657,440.515653L346.320227,440.655041L344.539035,439.335638L343.180319,438.970165L341.672879,438.212248L339.460660,435.655166L338.744931,436.787321L337.571069,436.762464L336.395571,436.717584L336.344655,439.675130L335.422440,440.348530L334.683990,441.546414L333.485384,441.467653L332.359287,441.581381L331.178106,441.521708L329.964613,441.346962L328.709322,441.020839L327.592335,441.102696L326.731666,442.001066L325.854572,442.871213L325.323597,444.935597L324.271903,445.282550L323.319830,445.983904L322.065027,445.607419L320.738835,444.932229L319.733955,445.432181L318.191712,443.843013L316.698282,442.350478L315.410839,441.611351L313.933303,440.010987L313.203996,441.566881L312.522012,443.412906L311.905648,445.660077L311.088175,447.074033L310.092647,447.688063L309.336988,449.547534L308.473014,450.949829L307.708101,452.975171L306.574295,453.052847L305.346027,452.568777L303.987070,451.237501L302.608847,449.661620L301.416423,449.163163L300.143226,448.050440L299.022582,447.919269L297.914415,447.855220L297.022455,449.483315L295.959274,449.840858L295.018015,451.297453L294.075371,452.898222L292.957864,452.951675L291.876935,453.383936L290.774811,453.622828L289.697955,454.191318L288.554186,453.955492L287.444257,454.148884L286.331653,454.322911L285.184677,453.915882L284.039433,453.426626L282.861877,452.055818L281.697030,450.552391L280.528152,448.316659L279.423357,447.472978L278.360595,448.234690L277.275666,448.014788L276.212010,450.450871L275.116384,450.417514L274.021152,450.389818L272.926123,450.367785L271.862503,448.613983L270.778457,448.591006L269.742703,446.986800L268.655520,447.312918L267.493582,449.268338L266.346401,450.416760L265.203324,451.220582L264.081519,451.505349L263.100236,449.662612L261.943951,450.470065L260.783154,451.195086L259.665874,451.302149L258.358622,453.418621L257.412062,451.631822L256.234421,452.227181L255.227089,451.224471L254.353680,449.185709L253.088269,450.479991L252.072633,449.732375L250.927467,449.982119L249.756917,450.372848L248.729219,449.766746L247.549393,450.167432L246.270962,451.127748L245.010819,451.893998L243.960978,451.395476L243.306536,448.750790L242.449564,447.345628L241.942049,444.231102L240.915634,443.874324L239.680750,444.527149L239.324046,441.039862L238.431160,440.166935L237.175443,440.922663L235.974528,441.389172L234.458602,443.123212L233.084873,444.177324L232.340588,442.688611L231.335363,442.261711L229.855285,443.616083L228.412852,444.753480L227.370679,444.399089L226.165087,444.614954L225.149309,444.162804L224.108403,443.800343L222.804880,444.291639L221.959220,443.294703L221.066484,442.472328L220.369455,441.075359L219.711638,439.605151L218.636209,439.398612L217.466257,439.456462L216.453060,439.058671L215.224547,439.253780L214.117431,439.100015L213.483025,437.687615L212.382948,437.521957L211.542884,436.685566L210.464900,436.460294L209.047971,437.061576L208.707122,435.029620L208.262781,433.299302L207.462884,432.442898L205.976067,433.175373L204.015981,434.935201L201.732985,437.337530L200.355754,437.672232L200.123555,435.526164L198.903065,435.518633L197.294531,436.301760L196.371260,435.644965L195.291745,435.307565L194.743143,433.913979L194.705182,431.552059L193.411574,431.657453L192.499222,431.023364L191.662557,430.251814L190.078654,430.859113L189.730199,429.198950L188.383555,429.350331L187.062640,429.436561L187.056810,427.228212L185.349420,427.970385L184.268199,427.622514L182.800511,427.909453L180.921353,428.845238L179.870283,428.403522L178.368541,428.674326L177.652774,427.688439L177.915999,425.198230L177.254074,424.170809L177.092291,422.401625L177.228038,420.221472L175.068851,421.446228L174.220334,420.726827L173.197530,420.258484L171.250095,421.087703L170.909468,419.645518L170.111395,418.851299L170.091729,417.007012L169.911188,415.408342L169.406592,414.261269L168.287745,413.926365L166.255388,414.757032L164.928236,414.654557L163.722938,414.384615L163.428568,412.977407L162.307764,412.597194L161.666254,411.631024L160.493636,411.303548L159.061470,411.271436L158.808504,409.853439L157.771434,409.351344L157.009284,408.532394L156.477866,407.457623L155.132619,407.289326L154.756849,406.050038L154.238696,404.976090L154.397431,403.190579L155.108346,400.850956L154.637283,399.775942L154.926204,397.930845L152.648856,398.707492L151.126823,398.691921L150.392467,397.880889L149.457420,397.266124L149.759613,395.457196L148.719821,394.948314L146.824434,395.235116L144.718822,395.689792L143.543430,395.262086L143.138263,394.128794L143.684301,392.154559L143.583794,390.778592L142.476688,390.292149L140.507606,390.537705L138.044128,391.175562L137.168014,390.446534L136.632855,389.432232L136.201815,388.336683L136.100226,386.981291L136.587229,385.169724L136.816160,383.584922L136.852015,382.168219L135.302143,381.979965L132.622348,382.628388L131.552268,382.036287L131.772512,380.486062L133.796353,377.641723L134.844392,375.548296L134.576378,374.418322L135.936206,372.157664L135.424864,371.223544L135.384917,369.970417L134.773849,369.110692L132.218829,369.537665L129.967086,369.731253L128.747829,369.230030L129.966535,367.168341L129.573910,366.148036L128.986316,365.251313L127.806453,364.715167L124.141643,365.661792L123.449395,364.794483L123.150721,363.695068L122.729848,362.670284L123.022585,361.242653L122.072392,360.523848L120.555914,360.110286L119.170515,359.609515L117.708216,359.136019L116.334272,358.600919L116.481114,357.263018L115.937128,356.288633L116.069177,354.973497L115.068790,354.229248L113.689471,353.661918L112.784406,352.853246L112.448381,351.769392L113.536736,350.025873L114.299364,348.454883L113.786807,347.475610L112.754248,346.725317L111.484022,346.069594L110.468610,345.292735L111.024187,343.847759L111.233096,342.560275L110.165585,341.799279L109.194141,340.990592L109.495592,339.676387L108.429639,338.896875L108.583790,337.648492L108.547652,336.478168L106.885814,335.901711L107.533696,334.486700L107.767627,333.230163L109.099219,331.607457L108.037572,330.808202L106.100253,330.285676L104.901140,329.504595L102.679345,329.032356L102.130171,328.021256L103.179546,326.527783L103.197050,325.355414L103.318632,324.157747L104.568161,322.650512L104.780483,321.447127L104.203827,320.460484L103.342448,319.543809L104.546307,318.097188L104.535436,316.969212L105.310075,315.656361L105.229967,314.556249L103.645053,313.799059L101.147284,313.224951L100.569643,312.211640L101.442505,310.893839L101.246271,309.804473L102.591018,308.416706L101.513282,307.502923L100.624797,306.543596L98.953360,305.711940L96.558172,304.982850L96.584232,303.834105L95.962929,302.788478L96.522456,301.561391L97.486350,300.285964L97.753087,299.119700L98.610143,297.882166L98.545143,296.771094L100.535909,295.420303L102.089259,294.144760L102.358537,293.024428L104.227605,291.751984L104.188575,290.679580L102.287860,289.767095L101.189552,288.768295L99.398789,287.807276L96.553038,286.895103L96.107875,285.803192L96.331020,284.670376L97.535332,283.494148L98.872225,282.328143L99.954337,281.188444L99.544219,280.106186L97.978464,279.045611L97.644157,277.945337L96.391635,276.850630L96.546080,275.734631L96.957523,274.621165L97.388398,273.512970L98.238661,272.416172L98.758195,271.322893L98.059768,270.202797L96.981153,269.060913L97.209086,267.956839L97.493812,266.857671L96.511894,265.695400L96.386270,264.570107L96.093091,263.431589L95.719888,262.282812L97.061705,261.260776L97.798793,260.204026L97.309420,259.045261L97.051628,257.901333L97.025066,256.776486L97.515180,255.706034L98.756888,254.726709L100.103147,253.774184L101.503986,252.844010L102.364380,251.857411L103.725507,250.950225L103.495582,249.824910L103.705558,248.762038L103.304849,247.602308L100.840051,246.092653L99.828933,244.799673L98.851831,243.497348L97.945669,242.193039L98.902929,241.231707L99.092698,240.127890L99.044436,238.974977L99.321746,237.887286L100.008879,236.889443L100.262465,235.800216L100.681184,234.749235L100.887270,233.649956L100.019385,232.287838L100.192497,231.171707L101.837677,230.433108L102.469876,229.445244L102.649096,228.339391L103.425682,227.397769L103.137027,226.159875L103.757452,225.178456L103.784331,224.024513L103.866793,222.883535L104.171690,221.808501L104.364213,220.697332L105.990633,220.050347L106.882824,219.177286L106.334857,217.823557L106.860578,216.828691L106.083592,215.376271L105.965172,214.144802L106.864846,213.280030L107.089603,212.170000L108.221120,211.403353L109.122574,210.557833L109.783948,209.624487L110.636031,208.771642L110.428212,207.490377L110.080038,206.141326L109.880397,204.843971L109.529899,203.472002L109.647891,202.294214L110.196415,201.303941L111.001224,200.431522L111.277140,199.319736L112.771246,198.777331L115.145655,198.670788L116.333997,198.017889L118.062472,197.642151L118.828045,196.803615L118.728776,195.529602L118.428302,194.142321L118.083732,192.719176L117.452911,191.129978L117.319793,189.791228L118.490683,189.156973L119.838094,188.631290L121.425409,188.254335L122.816104,187.781920L123.050274,186.651098L123.066515,185.386431L123.435949,184.323922L122.359181,182.380548L123.078919,181.514384L123.676245,180.574176L122.979949,178.815616L124.972505,178.759239L127.903005,179.337374L127.876975,178.007853L129.400196,177.702307L129.627619,176.535627L128.338551,174.320858L129.370319,173.685457L129.964932,172.749255L130.565560,171.816529L130.929138,170.711387L131.472273,169.732461L131.169088,168.122460L131.220033,166.760239L131.590566,165.629521L132.523636,164.927231L134.099810,164.733126L135.545459,164.453429L136.842855,164.070057L136.907794,162.696813L137.341557,161.614157L138.493854,161.125160L139.159842,160.234647L140.705545,160.095746L142.323238,160.037140L141.718741,158.048281L141.404971,156.288252L141.154490,154.561592L140.938884,152.844050L142.310688,152.568831L142.767194,151.452474L143.831851,150.904110L144.825968,150.295027L144.673978,148.579341L145.635392,147.934450L145.881791,146.582546L146.131242,145.219915L147.513103,144.997924L149.423223,145.335909L151.643826,146.026911L154.245732,147.158593L154.995208,146.352202L155.504411,145.283542L155.845626,144.022039L156.206309,142.769060L156.826908,141.796053L157.018422,140.327267L157.845308,139.574265L158.076125,138.122925L158.973416,137.443260L159.922637,136.827100L160.390660,135.628409L161.058300,134.663124L161.749174,133.720261L162.819778,133.251111L163.237591,131.952451L165.163752,132.593746L167.054786,133.223627L167.746909,132.292505L168.774187,131.806289L168.739835,129.874834L169.033040,128.362990L170.299190,128.192708L171.959061,128.594788L173.296022,128.560036L173.830808,127.370944L174.320473,126.099992L175.044089,125.162220L175.706774,124.123262L177.174998,124.313580L178.421219,124.179425L179.565153,123.896390L180.708848,123.621748L181.525081,122.822863L182.606684,122.456002L183.336683,121.506372L184.144717,120.678431L184.997173,119.919481L186.029381,119.469011L186.922491,118.774908L187.881518,118.195182L188.658253,117.281400L188.724925,115.039836L189.602274,114.272382L189.987330,112.557085L191.077795,112.173864L192.837366,113.113380L194.101315,113.106721L195.880852,114.163983L196.810438,113.515543L197.320197,111.980870L198.079609,110.944351L198.953675,110.138021L199.943291,109.575299L201.696009,110.719579L202.798606,110.436769L204.050411,110.505694L205.161906,110.261537L205.797738,108.882355L206.694324,108.106370L207.322792,106.650754L208.756353,107.196582L209.927449,107.100936L211.581646,108.286990L213.069827,109.088880L213.436455,106.874072L213.950887,104.998656L214.278776,102.533565L215.148925,101.555057L216.921849,103.221700L218.636229,104.796832L220.575424,107.147694L221.291837,105.762520L222.205087,104.964814L223.075356,104.004462L223.393454,101.154798L224.796944,101.928542L225.899089,101.690599L227.025575,101.544014L228.389755,102.285827L229.446879,101.913514L230.323567,100.833211L231.178641,99.623724L232.165279,98.904055L233.297388,98.773834L234.493917,98.931096L235.741387,99.340426L236.865538,99.220879L237.763125,98.031955L238.871400,97.815134L240.484535,100.156346L242.301458,103.738670L244.122160,107.607190L245.317011,108.254590L245.912730,105.472651L246.315932,101.322625L246.791413,97.306996L247.779151,96.330984L248.610051,94.209957L250.047144,96.252601L251.421363,98.033432L252.632301,98.720590L254.216762,102.593336L255.197266,101.622305L256.154222,100.333664L257.072176,98.515445L257.850847,95.009397L258.921921,94.308108L259.982543,93.388937L261.120689,93.348564L262.297235,93.864043L263.320212,92.091497L264.420898,91.298239L265.652148,92.871313L266.837447,93.878048L268.011747,94.942411L269.125242,94.564921L270.242522,94.169335L271.358747,93.493202L272.508789,94.674039L273.656677,97.544469L274.764285,97.151944L275.871207,97.891615L276.992331,96.537752Z" />
<line x1="50" y1="550" x2="100" y2="550" fill="none" stroke="black" stroke-width="1.0" stroke-linejoin="round" stroke-miterlimit="10" />
<text x="125" y="553" style="text-anchor:start;fill:black">GC-content</text>
</g>
<g style="fill:pink;stroke:black">
<a href="" title="CP001994:1 [32000-51599];"><path  d="M297.941163,46.146984L301.931705,46.582218L305.914043,47.087030L309.886964,47.661267L306.853315,67.429852L306.853315,67.429852L303.225865,66.905549L299.589817,66.444634L295.946279,66.047246Z" />
</a><a href="" title="CP001994:2 [85000-108599];"><path  d="M335.324984,53.052041L339.189322,54.138661L343.034108,55.292558L346.858169,56.513379L350.660342,57.800754L344.081182,76.687645L344.081182,76.687645L340.609633,75.512216L337.118098,74.397553L333.607642,73.343995L330.079333,72.351864Z" />
</a><a href="" title="CP001994:3 [403500-421599];"><path  d="M493.967179,204.619787L495.162134,208.452010L496.290024,212.304505L497.350508,216.176097L478.015681,221.291219L478.015681,221.291219L477.047414,217.756287L476.017600,214.238792L474.926555,210.739806Z" />
</a><a href="" title="CP001994:4 [468000-490099];"><path  d="M503.619786,249.840638L504.024057,253.834435L504.358566,257.834680L504.623210,261.840153L484.655974,262.984488L484.655974,262.984488L484.414343,259.327316L484.108922,255.674919L483.739805,252.028409Z" />
</a><a href="" title="CP001994:5 [550000-572099];"><path  d="M502.539195,308.554653L501.918930,312.520649L501.229544,316.475216L500.471246,320.417149L480.865050,316.467832L480.865050,316.467832L481.557409,312.868675L482.186849,309.257984L482.753178,305.636857Z" />
</a><a href="" title="CP001994:6 [632500-650099];"><path  d="M486.484646,365.411529L484.874537,369.088675L483.200498,372.737161L481.463040,376.355875L463.509732,367.542320L463.509732,367.542320L465.096107,364.238277L466.624577,360.907051L468.094677,357.549657Z" />
</a><a href="" title="CP001994:7 [692500-710599];"><path  d="M465.946575,403.216245L463.679811,406.529194L461.355573,409.802078L458.974570,413.033900L442.976781,401.030953L442.976781,401.030953L445.150741,398.080158L447.272871,395.091873L449.342525,392.067006Z" />
</a><a href="" title="CP001994:8 [812000-834099];"><path  d="M406.073991,463.996320L402.755587,466.255091L399.398268,468.455605L396.003056,470.597189L385.481051,453.588738L385.481051,453.588738L388.581027,451.633378L391.646406,449.624214L394.676253,447.561857Z" />
</a><a href="" title="CP001994:9 [1064000-1086099];"><path  d="M233.726906,501.266506L229.784297,500.511730L225.855461,499.688260L221.941595,498.796349L226.555370,479.335797L226.555370,479.335797L230.128899,480.150151L233.716097,480.902014L237.315871,481.591158Z" />
</a><a href="" title="CP001994:10 [1129500-1147099];"><path  d="M188.636428,488.169729L184.929257,486.630010L181.249522,485.025827L177.598345,483.357667L186.068054,465.239609L186.068054,465.239609L189.401738,466.762711L192.761496,468.227401L196.146304,469.633231Z" />
</a><a href="" title="CP001994:11 [1306000-1328099];"><path  d="M89.806086,411.393600L87.453895,408.140748L85.158833,404.847339L82.921598,401.514377L99.624068,390.513127L99.624068,390.513127L101.666761,393.556266L103.762252,396.563291L105.909905,399.533287Z" />
</a><a href="" title="CP001994:12 [1354000-1376099];"><path  d="M71.517629,382.214387L69.677472,378.646801L67.899857,375.047643L66.185327,371.418009L84.343125,363.033835L84.343125,363.033835L85.908565,366.347848L87.531605,369.634036L89.211749,372.891397Z" />
</a><a href="" title="CP001994:13 [1408500-1426599];"><path  d="M56.300714,346.208302L55.091267,342.380627L53.948806,338.532428L52.873679,334.664877L72.189011,329.476627L72.189011,329.476627L73.170649,333.007869L74.213765,336.521442L75.318043,340.016275Z" />
</a><a href="" title="CP001994:14 [1470000-1492099];"><path  d="M46.730836,303.163609L46.274080,299.175473L45.886996,295.179974L45.569702,291.178327L65.520162,289.771516L65.520162,289.771516L65.809866,293.425193L66.163290,297.073258L66.580329,300.714600Z" />
</a><a href="" title="CP001994:15 [1773000-1798599];"><path  d="M118.639399,106.324683L121.607004,103.621504L124.621334,100.970529L127.681470,98.372565L130.786481,95.828404L143.326787,111.408542L143.326787,111.408542L140.491777,113.731473L137.697739,116.103527L134.945525,118.523982L132.235973,120.992102Z" />
</a><a href="" title="CP001994:16 [1896500-1919099];"><path  d="M193.559992,59.901127L197.326388,58.512564L201.116445,57.189944L204.929008,55.933672L208.762914,54.744130L214.522661,73.896814L214.522661,73.896814L211.022137,74.982918L207.541102,76.129949L204.080615,77.337558L200.641732,78.605377Z" />
</a><a href="" title="CP001994:17 [1947500-1966599];"><path  d="M228.696348,49.709139L232.635268,48.935342L236.587093,48.230406L240.550619,47.594547L243.546217,67.368934L243.546217,67.368934L239.927346,67.949501L236.319158,68.593139L232.722753,69.299649Z" />
</a></g>
<text x="275" y="280" style="text-anchor:middle" font-size="25" font-weight="bold">CP001994</text>
<path  style="fill:pink;stroke:black" d="M350,550L375,550L375,565L350,565Z" />
<text x="405" y="565" style="text-anchor:start;fill:black">Selected loci;</text>
</svg>