<svg xmlns="http://www.w3.org/2000/svg" viewbox="0 0 550 650">
<circle cx="275" cy="275" r="240" fill="none" stroke="black" stroke-width="1.0" />
<line x1="275" y1="15" x2="275" y2="55" fill="none" stroke="grey" stroke-width="1.0" stroke-linejoin="round" stroke-miterlimit="10" />
<line x1="495" y1="275" x2="535" y2="275" fill="none" stroke="grey" stroke-width="1.0" stroke-linejoin="round" stroke-miterlimit="10" />
<line x1="275" y1="495" x2="275" y2="535" fill="none" stroke="grey" stroke-width="1.0" stroke-linejoin="round" stroke-miterlimit="10" />
<line x1="15" y1="275" x2="55" y2="275" fill="none" stroke="grey" stroke-width="1.0" stroke-linejoin="round" stroke-miterlimit="10" />
<text x="275" y="10" style="text-anchor:middle" font-size="15">Methanococcus maripaludis strain S2, complete sequence.</text><text x="285" y="25" style="text-anchor:start">1,661,137</text><text x="525" y="265" style="text-anchor:start">0.41 Mbp</text><text x="285" y="530" style="text-anchor:start">0.83 Mbp</text><text x="-200" y="25" style="text-anchor:end" transform="rotate(-90)">1.24 Mbp</text><circle cx="363.629859" cy="51.964693" r="2.500000" fill="grey" stroke="black" stroke-width="1.0" />
<circle cx="439.729899" cy="100.460433" r="2.500000" fill="grey" stroke="black" stroke-width="1.0" />
<circle cx="492.541670" cy="173.631258" r="2.500000" fill="grey" stroke="black" stroke-width="1.0" />
<circle cx="514.599043" cy="261.132830" r="2.500000" fill="grey" stroke="black" stroke-width="1.0" />
<circle cx="502.783714" cy="350.594837" r="2.500000" fill="grey" stroke="black" stroke-width="1.0" />
<circle cx="458.766045" cy="429.369818" r="2.500000" fill="grey" stroke="black" stroke-width="1.0" />
<circle cx="388.768921" cy="486.321160" r="2.500000" fill="grey" stroke="black" stroke-width="1.0" />
<circle cx="302.688006" cy="513.397513" r="2.500000" fill="grey" stroke="black" stroke-width="1.0" />
<circle cx="212.692770" cy="506.771027" r="2.500000" fill="grey" stroke="black" stroke-width="1.0" />
<circle cx="131.506060" cy="467.378505" r="3.000000" fill="black" stroke="black" stroke-width="1.0" />
<circle cx="70.605438" cy="400.788963" r="2.500000" fill="grey" stroke="black" stroke-width="1.0" />
<circle cx="38.600576" cy="316.416328" r="2.500000" fill="grey" stroke="black" stroke-width="1.0" />
<circle cx="40.016078" cy="226.188565" r="2.500000" fill="grey" stroke="black" stroke-width="1.0" />
<circle cx="74.651831" cy="142.861394" r="2.500000" fill="grey" stroke="black" stroke-width="1.0" />
<circle cx="137.611295" cy="78.214981" r="2.500000" fill="grey" stroke="black" stroke-width="1.0" />
<circle cx="219.993735" cy="41.388547" r="2.500000" fill="grey" stroke="black" stroke-width="1.0" />

<circle cx="275" cy="275" r="185" fill="white" stroke="grey" stroke-width="0.5" />
<circle cx="275" cy="275" r="170" fill="none" stroke="black" stroke-width="0.5" />
<circle cx="275" cy="275" r="170" fill="aliceblue" stroke="black" stroke-width="0.5" />
<circle cx="275" cy="275" r="157" fill="white" stroke="none" stroke-width="0.5" />
<circle cx="275" cy="275" r="140" fill="none" stroke="black" stroke-width="0.5" />
<circle cx="275" cy="275" r="140" fill="aliceblue" stroke="black" stroke-width="0.5" />
<circle cx="275" cy="275" r="133" fill="white" stroke="none" stroke-width="0.5" />
<circle cx="275" cy="275" r="110" fill="none" stroke="black" stroke-width="0.5" />
<circle cx="275" cy="275" r="110" fill="white" stroke="black" stroke-width="0.5" />
<circle cx="275" cy="275" r="109" fill="aliceblue" stroke="none" stroke-width="0.5" />
<circle cx="275" cy="275" r="80" fill="none" stroke="black" stroke-width="0.5" />

<g style="fill:none;stroke-linejoin:round;stroke-miterlimit:10">
<path style="stroke:blue;stroke-width:1.0" d="M278.379293,51.636276L280.332616,40.049533L280.678474,87.387490L281.261868,109.520570L281.958607,121.790249L283.063872,122.857518L284.246833,122.390514L285.402036,122.450163L286.517759,123.034535L287.816507,121.333766L288.981150,121.407131L290.033274,122.625967L291.360349,121.099548L292.313278,123.077787L293.438501,123.406725L294.747608,122.291192L296.973699,114.625071L302.060464,88.027480L301.314684,102.401265L299.687410,120.907356L300.300889,124.381661L302.579839,118.090041L304.020118,116.919188L304.727701,119.689858L305.805689,120.401260L306.139755,124.667741L307.105125,125.702711L308.279453,125.744288L309.342508,126.282179L310.404367,126.806524L311.690294,126.406797L312.695410,127.151106L314.250554,125.776181L315.244825,126.569604L316.559195,126.188410L317.197717,128.197898L318.284001,128.599262L319.412815,128.856675L320.411521,129.535019L321.646356,129.459273L322.859448,129.471389L323.856873,130.140350L325.444056,129.088822L326.720757,128.982380L327.822557,129.381462L328.602649,130.646933L329.251546,132.218722L331.088645,130.681475L333.245965,128.424360L333.578618,130.776047L334.185756,132.385274L334.922962,133.639064L335.536598,135.145326L336.577653,135.641658L337.505432,136.387971L338.552686,136.863774L339.657720,137.216645L341.478035,136.080041L342.285211,137.082603L343.255904,137.737741L345.036176,136.790080L345.354256,138.728998L346.230727,139.554878L347.767670,139.137255L348.422384,140.371862L348.972931,141.770067L349.973412,142.342792L351.098694,142.698352L352.887218,141.928323L353.898183,142.510376L355.943245,141.385933L355.735880,143.975211L355.984404,145.771109L357.334599,145.799117L360.552076,142.964824L362.109747,142.763725L360.807253,146.861655L361.196162,148.363593L361.748271,149.602421L363.029861,149.785085L364.360361,149.914582L365.090002,150.889047L366.123978,151.441676L366.391109,153.022062L367.349194,153.667045L368.358025,154.248049L369.038392,155.251176L370.053978,155.825073L371.295357,156.124668L372.045635,157.034295L374.300580,156.137511L378.784609,152.663084L379.100858,154.155451L377.991592,157.256276L376.895283,160.272698L377.183767,161.686092L378.070724,162.426648L378.970701,163.154371L380.944885,162.745670L381.148593,164.220812L381.750896,165.266170L383.294362,165.351506L383.766537,166.527119L385.438700,166.513438L386.356430,167.255039L386.016401,169.198324L386.704648,170.143445L387.472890,171.011617L389.421271,170.804601L390.116896,171.753275L390.060051,173.364294L390.298380,174.696283L391.010740,175.608315L391.977828,176.304390L393.356136,176.664517L393.434445,178.104445L395.012086,178.319996L395.011565,179.808438L395.347306,181.016516L396.323402,181.723131L397.706132,182.128492L397.765295,183.536136L400.108110,183.254217L401.969580,183.358077L403.821045,183.495927L401.588384,186.514963L401.530981,187.972501L402.490186,188.726137L402.970985,189.805028L403.712951,190.709313L403.925311,191.956980L404.518978,192.954201L404.512941,194.324413L405.884071,194.838216L405.872042,196.200742L406.361697,197.253809L406.912169,198.269489L408.366956,198.767655L408.594331,199.972769L409.913735,200.568644L413.114555,200.159965L411.913017,202.145448L411.743530,203.557703L411.171004,205.162989L411.244046,206.422294L412.073194,207.299706L412.496021,208.379956L413.307215,209.274132L415.212456,209.664331L415.472532,210.832027L414.689517,212.462582L415.174214,213.514255L415.342705,214.702138L415.564506,215.862437L416.955963,216.537009L417.462199,217.585138L416.857214,219.072632L418.079400,219.837712L417.748404,221.202131L418.502677,222.154141L418.739713,223.298286L421.538794,223.540088L421.512212,224.791182L420.800007,226.264584L420.839954,227.474698L420.418156,228.826079L420.969892,229.863582L420.944378,231.078294L421.314885,232.171181L422.695793,232.977350L422.868221,234.134883L422.568416,235.416858L424.025306,236.232123L425.206908,237.135580L427.410808,237.803948L431.509386,238.055897L431.027226,239.413615L430.350802,240.802138L429.710236,242.168216L428.120588,243.714157L426.260745,245.284392L425.448640,246.624257L425.201022,247.845985L425.555007,248.956566L426.585789,249.957786L428.120954,250.892673L429.108571,251.930501L428.076480,253.267646L426.501075,254.659269L426.383706,255.839716L426.446879,256.994666L428.582734,257.917963L430.295798,258.915787L429.756010,260.154065L427.392808,261.543397L427.315011,262.710749L429.063472,263.742050L432.272459,264.703026L432.687235,265.873305L432.143660,267.097029L431.482759,268.316611L429.180903,269.583063L428.747829,270.762517L429.046807,271.920293L427.673814,273.103016L428.357282,274.254752L427.958204,275.413815L427.694343,276.568276L428.837676,277.744024L429.491148,278.924945L429.865391,280.107002L429.323311,281.258153L428.847107,282.404977L427.799820,283.513609L427.583520,284.659934L428.127064,285.857961L427.713581,286.990362L428.650546,288.234166L427.087151,289.259349L427.277669,290.440153L429.179922,291.812309L434.098587,293.567565L429.209150,294.180481L427.757590,295.174540L427.859770,296.365776L427.702807,297.522859L428.702932,298.859768L431.918163,300.576009L433.169348,302.009805L428.955784,302.490474L425.735184,303.093672L426.801223,304.482313L427.700766,305.857548L425.524360,306.604785L427.612505,308.250561L431.047592,310.237573L431.156049,311.505757L430.581705,312.614998L428.427440,313.324947L424.941497,313.661562L423.674086,314.536616L422.350704,315.380646L422.178338,316.532929L425.319337,318.649661L424.479164,319.634562L425.768833,321.264743L424.020220,321.964538L421.357966,322.345601L421.344981,323.567366L420.261732,324.430886L419.717091,325.470270L420.615985,327.022608L419.972330,328.032713L418.492160,328.725455L417.482988,329.580096L420.118398,331.852209L419.451685,332.855269L417.809636,333.455080L415.807975,333.883313L415.881168,335.170049L415.044775,336.069592L416.330146,337.906802L418.021955,339.960545L415.716528,340.201987L414.117797,340.744094L413.555771,341.765368L413.472440,343.020726L412.357189,343.767555L412.974474,345.386969L411.590614,345.988281L410.728803,346.849671L411.333535,348.495490L414.025799,351.309799L413.809612,352.563313L410.489727,352.058975L408.282557,352.143869L407.019920,352.752245L406.645948,353.879346L406.371581,355.071737L406.566154,356.561714L405.904849,357.529101L406.695193,359.426320L406.947391,361.003284L405.248272,361.306706L405.118933,362.644710L403.932101,363.270464L403.000488,364.062265L403.532447,365.883142L401.404733,365.820743L399.448279,365.850318L397.814391,366.089698L397.281582,367.136558L396.618013,368.087229L395.421346,368.624406L394.850498,369.643925L394.467734,370.817861L394.049299,371.971246L393.471959,373.001117L392.776383,373.935845L391.401889,374.292811L390.581128,375.113109L389.550434,375.747092L389.184520,376.967523L388.835637,378.214423L388.013585,379.037644L387.099789,379.774137L386.299395,380.614805L385.072285,381.044332L384.237609,381.845303L383.711733,382.952134L383.283436,384.166080L382.793405,385.328968L383.766730,388.023156L380.772865,386.589527L379.432064,386.857774L378.516309,387.572182L378.660945,389.455282L377.594911,390.015079L376.202094,390.196214L374.834541,390.388440L374.086315,391.290040L373.024951,391.823183L372.123802,392.543722L371.264035,393.314676L370.568604,394.292102L369.562586,394.883788L368.961676,395.993215L368.037690,396.692709L367.322387,397.669342L366.692503,398.770178L365.697948,399.383987L364.342163,399.492111L362.939363,399.515239L362.101168,400.329820L361.130327,400.955533L360.147531,401.562621L359.274466,402.334275L358.779266,403.690838L359.663330,407.225834L358.846077,408.157012L355.896255,405.654048L354.278783,405.232657L353.435825,406.070131L352.879136,407.402820L351.412938,407.188326L351.305527,409.337844L349.528101,408.551149L348.526733,409.131296L347.194214,409.097220L347.281335,411.727110L346.206503,412.195923L345.989818,414.346569L344.377166,413.766540L343.279634,414.194032L342.045894,414.334984L340.805087,414.446496L339.331479,414.039411L339.291384,416.756898L339.525224,420.182317L338.768102,421.454057L336.405145,418.993474L334.125311,416.606694L333.345450,417.767024L332.599221,419.043203L331.492565,419.435584L330.491318,420.101999L329.689170,421.312514L327.815155,419.625527L327.115411,421.130849L326.714631,423.549372L324.705637,421.334524L324.366385,424.028334L322.816759,423.094138L321.650408,423.309605L320.937260,424.997439L319.916759,425.728313L319.084888,427.132363L318.067056,427.938385L316.133496,425.424285L314.868679,425.257399L313.212611,423.540148L312.222066,424.363615L311.117730,424.751382L309.868443,424.525425L308.562766,424.014419L307.623738,425.134770L306.775825,426.756376L305.935456,428.523678L304.583505,427.773761L303.158870,426.550393L302.214831,427.900838L300.688793,425.936669L299.473794,425.680615L298.325215,425.809707L297.198347,426.081564L296.107028,426.620322L295.176295,428.424672L294.233372,430.335898L292.844517,428.641196L291.485423,426.962197L290.293747,426.669683L289.319076,428.638604L288.287131,430.270066L287.203837,431.542151L286.049024,432.052912L284.623892,428.359582L283.494699,428.994032L282.362788,429.753245L281.197097,429.934650L280.012281,429.589058L278.844828,429.708401L277.667993,429.363959L276.504232,429.797013L275.332866,429.661299L274.162726,429.685432L272.976100,430.944316L271.716906,434.796784L270.535767,433.785493L269.352089,433.260101L268.371893,428.200488L267.225969,427.893732L265.876573,431.133439L264.209708,438.420496L263.341473,433.340185L262.504474,428.810143L261.491349,427.022399L260.352117,426.807988L259.163418,427.083822L258.056528,426.573674L256.808013,427.298153L255.498595,428.397633L254.358131,428.101768L253.343114,426.940889L252.039327,427.804220L250.998429,426.902223L249.615444,428.131246L248.365349,428.467278L247.423496,427.057460L246.454870,425.888387L245.295514,425.763170L243.950532,426.536259L242.846996,426.100021L241.914695,424.901781L240.944697,423.934186L239.765169,423.899817L238.743385,423.205474L237.377963,423.897818L236.381541,423.114612L234.821183,424.458672L233.845646,423.594606L232.882582,422.718370L231.578472,423.035955L230.813778,421.529537L229.814794,420.841768L228.309826,421.762506L225.657926,426.131199L224.992023,424.332282L224.873779,421.007772L224.234022,419.307319L223.023078,419.254231L221.989305,418.705095L220.973115,418.116124L219.996533,417.432657L218.907526,417.045659L217.841670,416.599694L216.632334,416.502147L215.333025,416.603673L214.246501,416.187804L212.889412,416.386055L211.811746,415.934185L211.095156,414.691989L209.969144,414.356906L208.851079,413.999050L208.253736,412.562547L207.390266,411.699328L205.854767,412.182542L204.334957,412.598026L202.141543,414.266358L201.553312,412.841870L202.031017,409.483938L201.033356,408.896228L199.077125,410.014137L195.299450,414.255653L194.990367,412.374604L194.889594,410.185657L194.471261,408.577142L194.868172,405.672807L193.783140,405.221305L192.285272,405.415317L190.329869,406.291827L191.223476,402.773541L190.353657,401.994542L188.679867,402.406660L186.087700,404.118298L184.219496,404.719445L183.253526,404.011077L184.724872,399.930200L184.743605,397.934459L182.571059,398.917509L180.748773,399.386029L180.159187,398.216473L180.151369,396.316735L180.071509,394.544015L179.116229,393.889014L176.816330,394.873528L174.456320,395.877810L173.886739,394.708899L174.869621,391.742180L174.253339,390.678252L173.364933,389.931128L172.615315,389.028780L172.049515,387.928628L169.909407,388.538963L167.725321,389.154082L167.367023,387.812940L165.744507,387.792667L163.114993,388.772335L162.034378,388.146188L163.752683,384.751936L164.958233,381.932044L164.540572,380.725054L163.938607,379.702897L162.604839,379.365696L160.072456,380.109379L159.384128,379.143714L158.742887,378.139002L159.650122,375.785094L159.095530,374.733610L157.769173,374.341384L156.100527,374.219850L154.795648,373.775833L154.224446,372.724036L153.632418,371.693039L151.527943,371.851859L146.215227,374.454734L144.883604,373.920837L144.505904,372.659117L144.303318,371.276923L146.335958,368.286377L147.559583,365.936324L148.810001,363.611106L148.344461,362.514955L148.765694,360.820324L148.123368,359.860731L147.099914,359.151894L145.581832,358.754775L145.620437,357.347864L143.612919,357.235696L143.962444,355.643771L143.415613,354.614197L143.416172,353.260207L143.297074,351.988301L142.546504,351.088553L142.109454,350.008323L141.096756,349.249893L140.302416,348.363612L140.071105,347.171479L139.366974,346.233792L138.840470,345.201335L138.828955,343.908358L138.188207,342.937532L136.332121,342.556404L135.190692,341.808594L134.829993,340.683115L134.879244,339.371818L135.379685,337.867188L135.485900,336.554254L134.545165,335.704146L133.812437,334.757353L133.531653,333.618288L132.914075,332.618682L129.966405,332.540311L128.331643,331.908525L128.579181,330.541763L129.752082,328.843525L129.743008,327.600498L129.783927,326.346450L129.707670,325.140147L129.037478,324.138927L129.088925,322.895798L129.268300,321.618682L127.585817,320.930547L127.193446,319.828968L127.338815,318.567848L126.099906,317.711616L127.163635,316.198694L124.770319,315.643475L123.273183,314.819194L121.525306,314.039353L123.270616,312.375633L124.064579,310.971186L125.616125,309.409283L125.786532,308.183398L125.760072,307.006425L125.627497,305.854786L124.891233,304.824682L120.902632,304.407207L122.291665,302.946536L124.603877,301.349152L124.049162,300.270891L121.340462,299.530846L119.214416,298.663150L120.332583,297.297614L121.241983,295.980439L122.891027,294.584495L122.994975,293.403258L122.617861,292.280307L121.891487,291.190513L121.473348,290.061242L120.803703,288.950077L121.763723,287.695293L120.960651,286.589244L120.737290,285.433104L119.908815,284.311096L117.382545,283.266623L114.012601,282.222622L115.139348,280.960691L120.081677,279.603142L122.404624,278.378966L121.478512,277.237698L117.549487,276.103722L116.887250,274.912235L116.999052,273.717005L119.855159,272.566366L120.119767,271.398410L120.620754,270.241334L120.408243,269.063903L118.112759,267.786802L119.688512,266.681415L121.355036,265.604534L122.070875,264.486525L121.754200,263.299355L119.872599,261.974618L121.800118,260.968584L123.214717,259.939445L123.289506,258.786996L123.105501,257.604176L123.411306,256.476371L123.687171,255.347222L123.918378,254.213885L123.216922,252.946175L119.781373,251.246647L120.888746,250.221562L122.662135,249.323015L122.837834,248.167298L122.225701,246.866073L121.807925,245.589257L120.555570,244.135613L120.405639,242.887586L122.229449,242.058946L125.880272,241.663673L125.663108,240.426911L124.122127,238.865471L123.781492,237.572101L125.266543,236.735273L127.247697,236.048502L127.319072,234.870069L126.622449,233.472920L125.402820,231.908629L124.283229,230.348649L125.383308,229.440589L127.803575,228.957965L126.198516,227.217152L125.697469,225.807270L129.366700,225.791841L129.544363,224.622718L130.764085,223.819907L131.307909,222.785673L130.637066,221.302176L124.908916,217.875316L122.283788,215.549711L123.905475,214.860863L123.911253,213.535091L126.522878,213.284361L129.701540,213.312429L131.258993,212.686107L133.602472,212.427147L133.673562,211.175794L132.921564,209.537704L133.312128,208.413685L132.728904,206.820917L135.845812,207.015423L138.127768,206.842933L138.234593,205.600052L136.510085,203.402437L136.177968,201.894620L140.308797,202.763236L140.053542,201.306468L135.295435,197.330345L129.092945,192.430962L130.724783,191.907243L129.643288,189.813588L132.337858,189.936363L136.515167,191.000576L139.192268,191.212533L142.564701,191.903458L144.255663,191.579390L145.666550,191.096191L146.747656,190.412173L148.240609,190.013859L147.766010,188.293352L148.701016,187.524101L149.830088,186.897564L150.533340,185.976931L148.695703,183.210430L150.885694,183.359216L152.171027,182.864398L152.814987,181.894764L153.870628,181.242338L153.418486,179.412877L153.072979,177.639790L154.213315,177.044876L154.030936,175.370597L154.281048,174.034270L155.522308,173.526523L155.518778,171.957587L155.936134,170.736556L157.568508,170.585929L160.299182,171.449657L161.262918,170.747268L161.983697,169.823650L163.377782,169.534089L163.649429,168.184883L165.230821,168.095654L166.115077,167.339911L166.851044,166.437401L167.856187,165.806624L168.717344,165.032393L169.767701,164.457825L169.392585,162.369806L169.460287,160.721581L170.734010,160.373028L171.530563,159.505436L173.629911,160.111750L173.925007,158.684279L175.113278,158.279936L176.487409,158.107059L177.216032,157.174217L178.160712,156.499722L179.084814,155.801475L180.325583,155.503781L181.078604,154.594013L181.862916,153.718679L182.666663,152.863618L183.537827,152.094151L184.310372,151.187557L184.394712,149.319226L184.973959,148.110117L185.068877,146.190093L188.008465,148.370313L189.567213,148.601088L190.110476,147.333738L191.136579,146.783733L191.236467,144.796843L189.453547,139.788296L189.121297,136.962956L190.669321,137.136830L193.653577,139.727115L197.051391,143.128777L198.208826,142.814201L197.526131,139.285631L199.214541,139.879344L200.565181,139.902141L202.419078,140.876271L202.498811,138.567863L204.089234,139.089458L204.493371,137.334573L206.428763,138.579661L207.113735,137.357239L208.189504,136.914964L209.240926,136.423869L210.139661,135.604878L211.396506,135.557745L211.771970,133.556683L212.664853,132.673894L212.811498,130.034286L215.157236,132.537366L216.987723,133.915317L217.749331,132.716689L218.633311,131.794765L219.874283,131.777846L220.956496,131.357437L222.313290,131.683389L223.417227,131.339778L224.399042,130.650063L225.582202,130.533709L226.765970,130.432220L227.668484,129.479636L228.920700,129.599131L229.789593,128.501773L230.468105,126.728857L231.560193,126.290662L233.006885,127.095092L234.436263,127.903264L235.483878,127.352855L236.379035,126.199337L236.927263,123.611014L237.995828,123.007939L239.595249,124.637396L241.152849,126.216200L242.348394,126.278915L243.342415,125.412605L244.545922,125.525855L245.565688,124.728699L246.510683,123.485889L247.208856,120.784139L248.523014,121.429448L249.840890,122.177367L251.310504,123.985526L252.464609,123.884576L253.535469,123.202512L254.732820,123.406589L255.861046,123.105744L257.040302,123.215904L257.926252,120.709647L258.249753,112.389751L259.323505,110.623034L260.846167,113.685852L262.666825,121.071127L263.987347,123.129698L265.106958,122.595042L266.240485,122.181283L267.379947,121.780809L268.485460,120.451559L269.663868,120.669490L270.835104,120.766714L272.009215,121.112169L273.192401,122.691708L274.323842,117.848059L275.571436,99.840974L277.163243,75.212425Z" />
<line x1="50" y1="575" x2="100" y2="575" fill="none" stroke="blue" stroke-width="1.0" stroke-linejoin="round" stroke-miterlimit="10" />
<text x="125" y="578" style="text-anchor:start;fill:black">n1_4mer:GRV/n1_4mer:RV</text>
<path style="stroke:green;stroke-width:1.0" d="M276.795917,156.293920L277.718484,155.225938L278.412699,162.246999L279.094290,166.802126L279.362694,178.945260L279.876065,183.002430L281.007730,175.848583L281.589525,178.362091L281.867597,184.388835L282.998276,179.102970L283.782847,178.514182L284.151008,182.247352L284.963334,181.275743L285.537499,182.534541L286.493338,180.506809L287.578216,177.732302L289.925645,166.065254L292.530514,153.874050L292.148583,162.521973L291.403490,172.613515L291.036472,179.533522L290.703171,185.659959L291.634437,184.387504L293.216450,179.829524L293.279486,183.264166L293.498118,185.697311L294.162779,185.888029L295.461925,183.229887L295.838734,184.759324L296.033118,186.960838L297.658504,183.234594L297.177656,188.014823L298.336984,186.276820L299.746820,183.729129L300.677810,183.055105L301.293337,183.527822L301.928614,183.918565L303.549182,181.057017L304.516948,180.449494L305.024688,181.320336L305.508345,182.231753L304.215718,188.375982L306.988959,182.470831L307.318182,183.759572L308.512121,182.615488L308.399841,185.053521L306.930589,190.963862L309.368588,186.568127L312.792279,179.895945L312.158919,183.512589L311.768736,186.401601L310.727956,190.716161L311.211328,191.342780L310.694032,194.219703L314.130126,188.225043L313.917630,190.409799L317.404551,184.637375L315.525913,190.312506L316.249952,190.448194L317.377594,189.778885L317.554844,191.021950L317.477097,192.724998L319.121076,191.103838L319.269613,192.345284L319.681048,193.072309L318.140082,197.301980L318.786196,197.525140L321.434803,194.270613L323.616287,191.938223L324.098692,192.551115L326.742514,189.587959L326.617886,191.230273L324.304394,196.323713L324.919848,196.664908L328.381198,192.615139L329.259464,192.631842L325.783862,199.163054L326.994508,198.611475L327.537721,199.054935L328.319641,199.157392L326.253757,203.255688L327.706508,202.389779L329.710247,200.816381L329.089421,202.807900L330.454234,202.141474L331.588057,201.807382L331.785608,202.689005L331.332726,204.372251L332.102512,204.507711L333.360642,204.058589L337.092787,200.675125L342.640241,195.268540L343.926351,194.987462L341.828128,198.599660L341.105789,200.569285L337.495475,205.697344L336.512869,207.815938L336.378160,208.972947L336.044822,210.319713L339.343336,207.849769L342.219755,205.901928L344.839275,204.287442L343.330496,206.853987L344.154373,207.068015L341.949438,210.221840L341.022158,212.079072L340.064152,213.924629L341.558246,213.462643L346.481486,209.906841L346.147263,211.189020L346.194378,212.112049L345.947421,213.279359L348.666765,211.886327L349.848170,211.849693L348.343858,214.062697L347.317207,215.834645L350.916221,213.842988L348.541348,216.667989L348.248892,217.797339L346.617511,219.938428L348.759093,219.174606L347.140280,221.253306L348.239132,221.291399L353.137760,218.603069L356.607621,217.032533L353.456456,220.159088L355.099473,219.907906L355.272533,220.678787L354.076015,222.356200L355.177297,222.494021L353.973687,224.131685L353.159120,225.488897L350.920242,227.708123L354.373445,226.386621L353.367393,227.814273L356.157271,226.967211L354.374667,228.829439L355.480869,228.997260L355.947782,229.539329L359.336377,228.471966L364.030943,226.756866L362.326811,228.531404L361.419833,229.849554L359.991214,231.411188L359.092791,232.672347L358.393323,233.812133L359.223124,234.191923L357.127540,235.971640L359.700806,235.531440L357.357812,237.378881L357.635961,238.004814L360.517152,237.488923L359.892009,238.526379L362.649763,238.124451L361.615890,239.328205L360.718634,240.453829L360.068032,241.461832L361.721042,241.565899L357.695393,243.834427L359.565781,243.858063L362.136718,243.657808L366.255537,242.953865L367.492287,243.303472L362.459750,245.765521L362.320243,246.544691L362.746714,247.138212L363.559064,247.616004L361.891401,248.850185L363.946012,248.964011L365.801042,249.165138L364.960815,250.138273L365.025038,250.852056L365.109657,251.558611L365.210485,252.259583L361.332638,253.930410L360.629743,254.787065L362.437265,255.057479L361.227943,256.018371L364.975008,255.905982L364.246923,256.764926L364.087491,257.498506L367.954290,257.468123L368.750611,258.051344L366.229249,259.218905L364.116067,260.277884L366.386685,260.612102L365.610335,261.435959L363.827810,262.389066L369.903099,262.258187L371.940980,262.730405L367.439859,264.009938L368.861907,264.560333L373.456803,264.802685L370.446513,265.843698L365.867266,266.976231L370.314859,267.309699L378.376180,267.445945L379.365621,268.166953L376.522192,269.124051L376.707060,269.885012L371.679998,270.870791L370.529777,271.643691L371.431058,272.342239L371.627748,273.068216L368.029869,273.844097L370.269196,274.537034L368.552423,275.253098L368.879665,275.964209L373.833214,276.762902L373.651178,277.506296L371.567655,278.184515L370.218967,278.861340L364.583435,279.311834L363.321409,279.921040L365.582072,280.734674L369.369671,281.691582L367.572769,282.268385L369.842931,283.168972L367.938883,283.713740L365.572579,284.183582L367.983651,285.139257L370.233861,286.114246L365.265201,286.227154L362.647984,286.575581L361.256606,287.056405L364.459239,288.194766L364.755689,288.933045L363.036629,289.349044L364.795429,290.333925L362.628461,290.647012L366.118200,291.982398L369.143517,293.284231L371.156364,294.431138L367.530702,294.428171L360.532508,293.635457L359.859791,294.162443L363.921941,295.787941L366.669521,297.162946L363.571152,297.124365L362.141940,297.469053L364.452771,298.788005L365.001186,299.664328L368.407194,301.359003L373.489302,303.599279L377.326506,305.554752L377.478282,306.446363L373.507831,306.045282L364.775000,304.041476L361.466979,303.695712L363.242769,305.027993L359.037023,304.308019L362.301161,306.189118L361.801607,306.753126L363.209421,308.026831L363.861606,309.039678L365.827093,310.582814L367.557715,312.070883L365.759786,312.149948L358.736508,310.017072L360.535380,311.531980L361.724072,312.817932L365.225195,315.159716L365.086216,315.917142L360.212864,314.483976L357.693909,314.079372L357.371674,314.692140L357.499735,315.525695L357.170753,316.138595L355.087543,315.856249L354.127576,316.123840L355.978238,317.866803L361.959626,321.878710L366.693430,325.329559L364.775477,325.164274L361.493223,324.192505L357.136467,322.540541L357.149300,323.381279L354.299764,322.514668L351.468183,321.607799L353.720474,323.801128L354.695744,325.244266L357.159955,327.670583L360.786546,330.915654L355.512576,328.350229L353.429230,327.827878L350.004162,326.349913L351.847979,328.470539L350.935983,328.693062L347.836257,327.332241L347.318761,327.794482L347.111812,328.484312L347.571894,329.681371L348.000136,330.874786L346.470772,330.566632L346.597405,331.539268L345.132147,331.248763L346.686506,333.392026L344.646307,332.612078L345.461800,334.190116L344.237538,334.060809L345.266681,335.863014L342.554831,334.414465L342.407822,335.195626L343.156481,336.797273L343.271024,337.848696L342.911574,338.473595L343.421625,339.927007L340.538640,338.140338L338.494631,337.104097L339.187656,338.739159L338.403622,338.920440L343.227141,344.832009L345.085076,347.827752L342.054849,345.742329L337.918821,342.392704L333.852692,339.001277L336.455510,342.854946L335.707597,343.056875L336.564348,345.077403L336.102882,345.622514L335.854822,346.420657L334.687282,346.133504L332.407867,344.477658L334.280680,347.859760L333.060496,347.473158L334.271387,350.142598L332.204937,348.662045L330.749960,347.920594L330.134708,348.257837L329.127802,348.063854L329.627756,349.916999L329.603308,351.085925L330.389533,353.427232L327.470861,350.500292L326.376760,350.132504L325.856988,350.593427L326.486541,352.793449L326.738224,354.473547L330.159359,361.147003L328.746223,360.355055L324.210837,354.479515L321.929257,352.091519L320.105826,350.374060L322.192199,355.231761L319.833346,352.558135L320.778041,355.593419L320.551669,356.626631L319.469413,356.123419L319.825953,358.262013L320.993076,362.000334L321.321084,364.248364L321.173881,365.635137L318.321110,361.649842L318.641991,363.968033L316.279918,360.788052L313.206842,355.963502L313.574370,358.370657L314.987477,363.168901L316.370148,368.083194L314.067891,364.725913L312.849723,363.756620L311.375488,362.120261L309.334448,359.013867L309.262363,360.682765L309.016679,361.971072L307.941300,361.136871L308.569966,364.811313L307.658851,364.430838L306.231203,362.571835L306.713447,366.096320L303.979649,360.316744L302.452067,357.872906L301.466104,356.968644L302.262168,361.671082L300.711455,358.954775L300.292054,359.873189L299.251113,358.688070L299.498600,361.998664L299.153224,363.327805L299.315866,366.641832L298.864362,367.765602L298.255179,368.317698L298.111099,370.823270L297.190010,370.156837L296.456718,370.265105L294.112823,362.957403L294.618694,368.695819L293.899594,368.793194L292.638775,366.089342L292.834769,370.986318L292.125425,371.215621L290.687547,367.173504L290.136486,368.192541L289.516746,368.858352L288.762629,368.668215L288.048703,368.734114L288.055506,374.276736L287.503048,375.979287L286.009309,369.790086L284.811167,365.439086L283.965209,363.908913L283.641103,367.715967L283.086299,369.494452L282.564675,372.034277L281.826632,372.035045L280.683161,365.562852L280.371367,372.373493L279.776109,375.385670L279.087544,377.193363L278.241106,374.962370L277.404372,371.747234L276.623214,368.915435L275.926089,370.301697L275.197476,366.754276L274.510451,365.443696L273.820801,365.858910L273.177072,363.726679L272.402827,367.377205L271.564935,371.253930L271.108064,364.957266L270.173751,369.918994L269.049841,376.827828L267.658945,386.181323L267.142115,381.721793L267.028570,373.122066L266.963673,365.438460L266.341772,364.732299L265.691076,364.396611L265.201393,362.656819L263.992844,367.148784L263.160334,368.130562L262.198499,369.949367L261.844448,367.297034L261.399830,365.509689L260.604244,366.108511L259.355129,369.377018L258.604054,369.472470L258.118719,368.083758L257.691790,366.490491L257.678089,362.916224L256.191666,366.793669L254.808040,369.890215L254.676500,367.081025L253.304759,369.879881L253.740080,364.842863L252.917179,365.267528L251.473642,368.110944L251.151236,366.467927L250.185221,367.306948L250.673821,362.833693L250.403544,361.267120L249.164727,363.079565L248.411117,363.173564L247.524550,363.680977L246.960521,363.137264L242.968141,373.111264L243.037130,370.446538L244.800201,362.966043L244.397538,361.990528L243.766186,361.684813L242.555696,362.952284L242.602411,360.820558L241.721485,361.175427L240.380396,362.668881L240.074051,361.522886L240.530321,358.565677L239.639687,358.918284L238.513102,359.793553L238.184728,358.804810L236.628974,360.582191L236.613218,358.911102L235.205825,360.276336L235.278724,358.466510L235.274891,356.872555L235.002603,355.870269L231.844696,360.619124L231.765720,359.185211L230.022108,360.973647L230.610884,358.307757L231.440523,355.281371L230.591588,355.389193L227.729507,359.061421L223.374894,365.201232L223.696101,363.087553L223.547883,361.825029L222.695734,361.759764L228.018904,351.613149L227.977017,350.395604L227.578540,349.768846L225.072342,352.419195L224.911038,351.394242L222.128412,354.323015L220.712366,355.127380L217.050634,359.153975L216.572525,358.489067L215.784078,358.267612L220.471970,350.460405L221.548136,347.804548L219.543004,349.350011L214.854632,354.375555L216.132307,351.480465L218.044087,347.849817L218.030060,346.742586L217.303162,346.539950L213.302595,350.327044L208.734038,354.667706L210.769448,351.043128L215.857066,343.954848L215.481441,343.339762L214.042268,343.932320L212.692642,344.393504L212.456489,343.605339L213.605559,341.330020L206.306331,348.098916L204.746135,348.634914L201.398622,350.984241L198.367018,352.925663L199.503364,350.617312L204.762793,344.293082L207.566083,340.528270L209.764469,337.439487L207.832150,338.322351L206.743811,338.379994L204.284091,339.674708L205.146322,337.922342L203.736385,338.222439L205.195196,335.990821L205.803174,334.542564L200.404120,338.212537L199.263539,338.200955L198.233239,338.081749L201.390849,334.559928L205.137288,330.659327L205.300431,329.672556L204.690074,329.297219L202.706990,329.960676L203.506836,328.504024L203.732376,327.498866L202.418723,327.624216L201.201360,327.659723L195.810205,330.607381L194.133719,330.876032L197.651867,327.585086L199.951309,325.195900L195.823670,327.094086L196.678019,325.687164L195.729342,325.454409L196.984483,323.830222L196.789185,323.132880L192.977980,324.626840L195.919604,322.033501L197.203723,320.476615L196.916364,319.855523L196.137972,319.512636L193.791567,320.030406L198.194870,316.832240L194.551057,318.030955L193.751409,317.671357L193.108074,317.221962L193.367205,316.309677L191.084925,316.670260L186.083464,318.318478L182.043861,319.419567L187.683860,315.916001L186.129876,315.827153L190.104830,313.225960L192.640873,311.337221L188.926980,312.200494L188.759531,311.501106L189.998035,310.221092L190.748035,309.165855L181.609111,312.051697L184.040650,310.292974L182.681906,310.018993L183.739961,308.830173L186.244266,307.140249L187.999268,305.762288L188.248070,304.937950L184.649498,305.416895L186.105000,304.180081L185.801376,303.534096L182.462597,303.832324L182.693443,302.996104L185.245646,301.482275L187.091124,300.216439L185.667397,299.895002L179.390926,300.866294L172.708951,301.845268L170.422680,301.601330L174.095425,299.855913L178.390370,298.024171L184.721590,295.794851L187.263425,294.511628L184.246305,294.463299L181.277761,294.359517L180.751321,293.726000L171.467607,294.757628L171.841630,293.878597L182.581332,291.191598L182.408414,290.500887L180.101743,290.149951L174.580829,290.253233L177.091522,289.114967L176.969773,288.376325L183.609752,286.766773L187.009245,285.653046L185.447353,285.155372L184.512386,284.568644L182.943004,284.030958L181.783091,283.433296L183.299578,282.597181L182.171489,281.984010L181.360688,281.333019L180.079967,280.698645L176.537524,280.164099L167.716049,279.813243L171.254355,278.868343L178.319377,277.872705L183.025895,277.036611L182.264292,276.351697L172.772279,275.716612L171.083619,274.942318L173.853861,274.178676L179.813141,273.506879L179.365383,272.776110L177.296168,271.988326L177.949111,271.273388L173.719840,270.343446L175.316329,269.660877L181.075574,269.256475L182.875487,268.666682L184.325602,268.076816L180.823441,267.092399L186.673617,266.910279L183.122663,265.883677L184.050401,265.280394L179.221184,264.030864L184.452686,263.935423L187.447400,263.628513L183.257676,262.377906L181.585072,261.426968L180.732922,260.574159L177.661293,259.349611L180.356135,259.047505L180.400028,258.317976L181.199300,257.726270L179.381663,256.642612L175.064177,255.028688L173.391562,253.893847L172.971099,253.000082L182.366007,254.291291L183.490849,253.814652L177.992958,251.767278L179.925795,251.468305L183.065371,251.505896L184.347158,251.101462L187.996910,251.358301L186.852456,250.329758L186.253009,249.436487L187.390579,249.044832L188.700541,248.721164L187.682009,247.687529L179.885362,244.456969L181.205244,244.096170L184.912741,244.560340L187.823706,244.807256L186.537362,243.610273L186.983878,243.017011L184.012949,241.156087L173.877446,236.512744L169.424151,233.900796L171.908864,233.967329L171.511902,232.899667L172.678110,232.469133L178.459811,234.013125L179.439180,233.572944L191.619136,238.101346L193.282071,238.095497L188.354283,235.078195L183.747814,232.115971L184.556083,231.657512L187.932713,232.462778L192.195029,233.766334L191.097653,232.424770L186.430670,229.210758L186.105048,228.186831L195.788427,232.517733L195.824749,231.762823L187.825217,226.534616L180.396397,221.463668L182.171990,221.537351L176.980618,217.555666L178.334698,217.362409L181.005027,217.986366L186.358567,220.312089L187.846026,220.315230L192.057827,222.079263L193.724619,222.273393L196.562882,223.267415L198.614008,223.786826L197.317478,222.061386L196.522034,220.645401L198.802049,221.367102L196.798936,219.067763L191.565095,214.365056L196.791874,217.254409L199.627324,218.461981L195.619922,214.512214L199.611855,216.647380L198.327995,214.720635L197.135653,212.824371L199.078083,213.429134L200.106808,213.318412L202.010014,213.953353L200.125699,211.408584L202.829890,212.759406L201.825091,210.921214L203.401107,211.337930L206.617589,213.265287L204.954290,210.795288L205.583155,210.398609L205.174186,209.025293L206.303101,209.101215L209.723882,211.427504L210.289577,211.017497L213.478312,213.243006L210.872389,209.645686L211.736368,209.542940L209.351574,206.039045L207.479510,202.989470L208.303062,202.780545L209.038387,202.483737L207.793439,199.982751L209.066034,200.273440L207.074133,196.831840L209.600571,198.579178L214.009706,202.630216L215.598514,203.423577L214.538369,201.014325L217.348882,203.354116L217.786697,202.786475L218.144304,202.111750L217.703106,200.389085L216.492393,197.607505L220.728598,202.070695L220.431220,200.500918L219.999806,198.707908L217.885009,194.497577L218.765184,194.453898L221.305958,196.839985L222.114730,196.755559L224.354418,198.833568L223.248105,195.878081L220.681840,190.567124L218.890871,186.315892L216.104706,180.334712L214.931746,176.800862L221.664285,186.306783L226.453350,192.870169L226.893574,192.191182L225.798364,188.811340L228.638924,192.341149L231.003307,195.146793L231.928789,195.407853L230.280409,190.847045L232.023943,192.630290L231.031283,189.150311L234.239761,193.908773L233.263497,190.377176L236.313084,195.041243L237.530439,196.039235L237.947220,195.367718L238.930339,195.922035L238.003262,192.237002L238.860695,192.485290L237.686145,188.018814L239.342104,190.112245L241.269467,192.968027L239.418503,186.570408L239.047149,183.658171L239.808432,183.568769L241.645988,186.348166L242.797261,187.403195L242.962249,185.773498L242.976510,183.646221L244.227309,185.040174L245.659533,187.060300L247.174517,189.450777L247.346952,187.742225L247.357213,185.427277L248.025289,185.186367L248.188687,183.215693L250.095138,187.282016L251.061038,188.189873L250.954374,185.156467L251.807087,185.641257L252.266081,184.602901L252.812667,183.867072L253.665104,184.391523L255.078329,187.429204L255.110510,184.407623L256.219791,186.260366L256.389378,183.655687L256.946442,182.830982L257.742818,183.221509L257.072809,175.520212L258.212930,177.632436L259.411103,180.309202L260.442001,182.196480L262.021535,187.970388L262.258343,184.890811L262.993259,185.192600L263.281109,181.994280L263.856444,180.821657L264.394107,179.157721L263.793762,166.210606L264.631533,166.280729L265.969710,172.079926L267.802250,185.165751L268.262140,182.081357L268.797056,179.441985L269.565282,180.185770L270.155279,177.585414L270.852116,176.597205L271.594933,176.519343L272.418222,179.392320L273.161596,180.406761L273.895166,181.906723L274.565399,173.990480L275.371068,161.258713L276.252322,159.341046Z" />
<line x1="50" y1="625" x2="100" y2="625" fill="none" stroke="green" stroke-width="1.0" stroke-linejoin="round" stroke-miterlimit="10" />
<text x="125" y="628" style="text-anchor:start;fill:black">n0_4mer:PS</text>
<path style="stroke:red;stroke-width:1.0" d="M277.559592,105.816701L278.861953,104.845695L279.744219,118.254571L280.354481,133.499647L280.760916,148.160171L281.531580,151.767541L282.630945,149.059073L283.462576,150.893078L284.345197,151.699341L285.266136,151.911986L286.244204,151.474431L287.079459,152.565201L287.983901,152.861515L288.807225,153.843038L289.796738,153.347703L291.129284,150.271790L294.137832,135.322632L297.301238,120.911045L297.171757,129.574835L296.408987,141.370455L295.467210,153.156963L295.816254,156.570101L296.743958,156.554495L298.090896,154.363348L298.755141,155.784525L299.906353,154.760508L300.807934,154.986310L301.407756,156.563304L303.123357,153.213774L304.172952,152.889607L305.156909,152.866561L304.937511,157.579129L305.368531,159.544096L307.348198,155.693832L308.248249,155.947529L309.058375,156.513946L310.111257,156.242173L311.885402,153.626128L312.388595,155.234548L313.304132,155.487745L313.778613,157.083936L313.594892,160.566916L316.308906,155.512561L316.581673,157.606959L318.798745,154.257848L319.491286,155.184025L318.618240,160.203859L319.214953,161.233001L321.756370,157.337861L323.013198,156.788725L322.781333,159.865511L324.075595,159.228485L325.064937,159.337479L326.939634,157.453765L325.736104,162.487629L328.259728,159.236242L329.030674,159.862510L327.346912,165.610022L329.908702,162.451267L330.250886,163.890763L329.792253,166.872553L331.760949,165.058230L331.478443,167.606325L333.114477,166.495876L334.318811,166.232337L333.524499,169.593671L334.505304,169.711909L336.359129,168.323872L338.731379,166.113823L340.299495,165.345948L342.164718,164.130328L342.354812,165.691103L341.707669,168.552860L340.535957,172.159839L342.369499,171.026559L343.526622,170.973694L343.223146,173.120488L344.607390,172.735240L345.293406,173.388487L345.900298,174.150416L346.321386,175.165293L347.723949,174.813092L349.187413,174.406582L349.089097,176.114721L349.354810,177.308960L351.769656,175.703923L352.532917,176.269307L351.191662,179.473901L352.188989,179.711224L352.227399,181.124736L354.297133,180.081575L357.892120,177.290269L359.006645,177.481638L357.261356,180.955834L358.350917,181.152419L356.085651,185.082274L356.544679,185.937292L357.322485,186.442261L356.472580,188.675400L358.628851,187.722949L361.348925,186.238232L362.550693,186.354557L362.153304,188.081998L363.452421,188.111083L362.098231,190.726505L364.304379,189.890477L362.295662,193.056030L362.619836,193.989855L366.516579,191.662292L367.066844,192.426543L368.369877,192.523820L369.729068,192.590537L370.059693,193.558030L371.783366,193.342702L371.013875,195.227450L370.897883,196.542431L370.086967,198.399311L369.942752,199.692683L369.898489,200.890401L371.355704,200.919005L373.625461,200.354217L373.226610,201.818200L373.114674,203.049368L377.706139,200.870526L378.179048,201.709932L377.430774,203.401086L380.339452,202.547949L380.688004,203.479888L381.399454,204.165986L382.000043,204.928519L378.950839,208.043469L377.831174,209.860003L378.350481,210.621409L378.849344,211.396014L378.697836,212.562581L382.842913,211.173361L379.250386,214.359761L381.319057,214.228193L382.623515,214.558107L383.776991,214.988179L386.919703,214.354150L384.728678,216.610857L385.023612,217.517650L384.281151,218.953788L384.774380,219.745658L389.008469,218.691348L386.566541,220.943397L383.004709,223.674383L385.488292,223.515085L383.847831,225.278217L386.280987,225.180760L386.426772,226.123977L388.133350,226.392564L391.341213,226.053534L393.249395,226.300296L391.359840,228.104864L389.503721,229.856778L389.490936,230.859600L388.229345,232.327037L391.329610,232.160812L391.819180,232.981328L392.188309,233.847074L393.755527,234.303224L389.509562,236.723794L390.560726,237.341880L392.304089,237.753002L392.123569,238.783365L394.744025,238.963245L395.463128,239.738423L394.479497,241.005497L395.073529,241.816272L394.549705,242.932481L393.366174,244.207879L392.546275,245.368729L392.935744,246.217631L393.088143,247.125247L391.585898,248.409316L390.025863,249.678994L393.848813,249.778536L393.162961,250.856755L394.296299,251.563899L396.437989,252.095884L398.225238,252.722788L397.705888,253.773986L395.887220,255.029239L394.668433,256.159430L398.848549,256.460317L396.045696,257.815074L397.491543,258.554126L400.667079,259.094610L400.450472,260.085347L402.711004,260.795512L399.475861,262.107853L400.929456,262.919432L401.420802,263.836779L401.472788,264.795780L404.807658,265.514506L401.271957,266.732697L401.203770,267.695520L403.203374,268.552476L397.830444,269.753904L399.353110,270.631022L401.430632,271.515413L401.598036,272.469049L401.052207,273.433792L400.863672,274.388359L399.979199,275.338120L400.679114,276.290811L399.606792,277.222629L400.049271,278.176956L398.899476,279.085838L397.899288,279.983839L397.661519,280.903950L397.665354,281.834595L395.005152,282.597425L397.882752,283.713392L397.547908,284.621894L397.765691,285.574004L397.157817,286.453242L394.205918,287.086852L396.395207,288.237351L395.521285,289.065410L394.837100,289.905297L392.299576,290.491636L393.147714,291.513944L394.840164,292.675793L394.062482,293.482427L395.393010,294.622794L396.262319,295.707372L397.509478,296.875395L394.723264,297.313743L395.897538,298.480305L396.221344,299.496233L393.189192,299.815545L391.533457,300.389812L392.969587,301.639065L392.635071,302.500423L394.448854,303.879157L393.643003,304.636073L391.240950,304.972067L391.206651,305.902614L391.851476,307.022501L396.674640,309.335923L401.302461,311.675652L401.298683,312.712858L398.818727,312.994866L397.252649,313.528591L391.440040,312.667398L390.388233,313.293780L391.037642,314.486266L391.528009,315.639292L389.511326,315.910191L392.421722,317.954352L392.575811,319.022015L393.941885,320.562349L395.399062,322.168056L395.925292,323.432562L394.521689,323.922819L392.524962,324.146784L390.164528,324.186526L389.836890,325.077142L389.888351,326.137418L390.546851,327.481358L387.305599,327.037585L386.306968,327.601291L384.091444,327.567499L383.716630,328.404014L384.075462,329.608375L382.251787,329.713949L381.649940,330.427644L381.212241,331.224725L385.914012,334.792183L388.492508,337.294844L386.724609,337.428896L384.307240,337.167841L381.404429,336.586824L381.304526,337.607337L380.793117,338.388900L379.455601,338.666291L379.192343,339.591886L378.304171,340.128224L380.444470,342.597673L381.559210,344.455272L378.068478,343.296498L375.695995,342.826188L373.890602,342.703228L375.157137,344.688964L375.109096,345.785466L374.396844,346.415800L374.194989,347.414792L373.862826,348.325160L372.704398,348.618175L372.935181,349.960233L371.264157,349.842832L369.800430,349.862307L370.599397,351.674507L369.675593,352.117718L370.418447,353.931035L368.280878,353.358855L367.813130,354.171194L368.077745,355.621314L369.316548,357.951392L364.598265,355.011836L364.226240,355.901158L364.757097,357.628268L363.431793,357.652830L363.937535,359.395072L361.641860,358.471313L360.581770,358.707527L360.262308,359.666557L359.431891,360.120116L361.770470,363.811522L363.191015,366.642241L362.188656,366.983335L359.424672,365.427743L356.744176,363.895366L358.528664,367.226602L358.163769,368.231598L358.709006,370.284201L356.016657,368.638790L354.682878,368.517708L356.685150,372.349901L354.007267,370.618252L354.030464,372.133512L353.231886,372.651800L352.852943,373.699772L351.099461,372.992276L347.716099,370.112197L348.330937,372.435282L348.718335,374.507934L348.137370,375.301251L348.864644,377.925261L349.052163,379.852052L345.928294,377.058681L345.575633,378.208610L343.817202,377.289347L344.325507,379.747185L343.862677,380.777910L343.921864,382.641063L342.898983,382.831231L340.195381,380.295857L339.231450,380.514138L336.490734,377.754048L336.806146,380.077026L335.418606,379.519399L335.180749,380.949757L337.400926,386.819773L334.744930,383.989813L335.798057,387.929415L334.309073,387.188826L334.269188,389.195904L332.833516,388.521942L330.792908,386.595633L330.490017,388.121275L328.899912,387.014962L326.240506,383.582928L325.821057,384.839381L325.681929,386.749235L326.459347,390.783981L325.575055,391.154031L324.072866,390.074598L322.429382,388.594634L320.655690,386.716115L319.749100,386.907828L318.692545,386.709538L318.402341,388.491023L317.945805,389.894938L317.424828,391.173341L315.864336,389.583001L315.173327,390.397178L313.344303,387.886498L312.734926,388.915028L312.265101,390.414411L311.962280,392.509395L310.507922,390.942860L309.644691,391.258073L308.508099,390.632963L307.282561,389.640821L306.492252,390.166468L306.236116,392.722927L305.661892,394.188975L305.568274,397.663473L305.191755,400.181098L304.090134,399.746457L303.034976,399.471735L301.017239,394.731594L300.006364,394.426487L299.030181,394.254805L298.021721,393.887701L297.575264,396.499552L296.941495,398.273701L296.133587,399.172174L295.578705,401.699276L294.834620,403.241185L293.846259,403.267313L292.840286,403.153990L292.149514,405.408412L291.051560,404.638392L289.873432,403.060170L288.470434,399.170106L287.606786,400.022804L286.425408,397.590568L285.840660,401.681221L284.909465,402.111580L283.722586,398.984485L282.866695,400.358127L282.428193,409.660143L281.320181,407.839422L280.233669,405.847826L279.123453,402.175775L278.045088,397.528397L277.108990,397.021334L276.204134,398.914676L275.259841,395.731283L274.354226,394.306067L273.431583,395.848712L272.528601,395.289471L271.592513,396.198767L270.634064,397.337872L269.782519,395.595600L268.660833,399.673910L267.547380,402.540145L266.176293,408.636288L265.405301,405.310324L264.773152,400.884497L264.364660,394.686994L263.164388,397.662120L262.221821,397.712987L261.023198,400.034305L260.428506,396.988411L259.666678,395.611585L258.614738,396.530300L257.959636,394.552183L256.686789,396.875168L255.759927,396.767444L255.076894,395.185283L253.841694,396.912905L253.136927,395.553470L252.135216,395.862314L251.808938,392.704714L249.908478,397.458635L249.121342,396.614319L248.024961,397.217595L247.032800,397.309061L245.589916,399.284863L244.891240,398.075006L243.609444,399.235306L243.678061,395.130037L242.420103,396.191927L242.866719,391.022528L242.162919,390.169455L241.160672,390.367595L240.345714,389.919906L238.968649,391.296379L237.300354,393.502330L235.474522,396.063676L234.497338,395.947801L233.461392,395.993753L233.532570,392.875276L233.483698,390.222334L232.104479,391.284175L231.669591,389.781376L231.196581,388.429892L229.725420,389.650990L229.078203,388.763163L229.472449,385.373545L228.443274,385.489988L227.508111,385.368549L226.946898,384.386157L224.513055,387.605367L222.699588,389.325426L222.597377,387.295423L221.040577,388.385199L221.409724,385.448352L220.760470,384.666270L219.716200,384.681779L219.604579,382.865224L217.180460,385.520001L217.350312,383.194679L215.495670,384.668194L213.400007,386.509813L211.488744,387.942474L207.749796,392.501963L208.199806,389.694317L209.113248,386.183358L208.856731,384.715226L212.491303,376.934365L212.420284,375.338923L209.827927,377.756024L208.908169,377.483805L206.490955,379.488021L203.728366,381.928525L203.953824,379.862628L201.629690,381.548244L202.690709,378.325281L202.420973,377.058401L204.030604,373.213328L203.341043,372.603666L198.884867,377.045934L197.443978,377.352892L196.919022,376.442220L197.291010,374.394170L194.691384,376.133119L196.199440,372.707055L195.722933,371.790248L193.283115,373.243452L194.021157,370.871580L197.062393,365.867589L196.730722,364.869512L194.703554,365.800955L192.522559,366.857508L189.974046,368.266820L190.359919,366.444407L184.545915,371.254802L184.331734,370.031783L180.349738,372.714589L176.358672,375.305255L178.064385,372.090559L180.484517,368.245011L180.313123,367.011075L184.519994,361.601965L184.212772,360.589470L186.519728,357.159277L185.413866,356.932865L184.577308,356.450365L182.630277,356.946995L182.793147,355.564250L181.036928,355.853451L180.348495,355.207671L178.526888,355.505384L175.488110,356.772163L180.005981,351.863228L180.807865,350.042475L180.365828,349.231334L178.551880,349.482580L176.627426,349.787633L177.992093,347.598736L178.079400,346.395975L178.024692,345.310826L177.566244,344.524785L174.679587,345.445383L171.606910,346.441341L172.098469,344.957549L167.584101,346.844527L170.877782,343.507239L171.912491,341.714522L169.653053,342.051518L173.220709,338.704062L171.297523,338.821083L170.005604,338.526112L171.662014,336.460837L165.209188,339.179349L165.876055,337.686780L166.145864,336.441287L167.617687,334.543929L170.087738,332.140910L164.565276,334.069907L165.494790,332.511593L165.129730,331.647078L164.611395,330.861343L161.983732,331.121232L162.571796,329.772924L159.173674,330.348203L164.025229,327.002342L161.825862,326.992476L164.106095,324.932476L160.162627,325.666771L161.110786,324.222567L156.557746,325.130447L157.144324,323.834231L159.878305,321.684148L156.956955,321.832139L160.323670,319.495356L159.579088,318.782578L158.556561,318.165680L158.538091,317.173215L159.210023,315.941778L159.746149,314.773917L156.799258,314.792801L155.660279,314.173662L155.284665,313.296205L155.998518,312.077865L153.317742,311.905603L152.975427,311.003693L157.379679,308.739092L152.238403,309.210916L145.368405,310.070823L141.283360,310.092602L137.538542,309.966067L144.875673,307.053640L151.257701,304.490475L156.311465,302.338877L158.107996,300.995468L154.321277,300.881107L151.833429,300.441618L151.627461,299.512537L146.715637,299.481176L148.287569,298.189131L149.096304,297.058119L147.757160,296.301902L151.886072,294.654418L149.520791,294.059744L148.446473,293.244577L148.931398,292.202190L150.262887,291.060284L155.499896,289.467885L154.818794,288.628685L156.025634,287.580986L154.770356,286.794745L153.906424,285.955287L153.948138,285.028884L153.956533,284.106779L150.957709,283.389235L147.142620,282.676080L144.972858,281.819583L143.826452,280.885038L148.788478,279.706023L151.284552,278.676000L150.722169,277.751922L149.715334,276.826124L147.725796,275.892187L145.332413,274.928025L149.011668,273.976953L152.130568,273.072645L149.764820,272.087777L150.820136,271.172216L148.481480,270.141874L145.035615,269.024633L147.147750,268.152150L151.258527,267.433147L153.294006,266.633034L151.681482,265.584367L153.463359,264.795090L151.111850,263.653215L149.329455,262.530621L151.556665,261.807852L151.159744,260.817108L157.354387,260.624102L155.199447,259.440092L153.136088,258.233717L148.466805,256.614940L144.965234,255.100573L146.330902,254.312223L148.899477,253.745394L151.708511,253.258434L154.745221,252.854658L153.165580,251.609490L150.741014,250.167914L149.748094,248.982615L149.631672,247.967533L151.743191,247.445435L152.411880,246.619538L152.540027,245.671422L155.136222,245.332670L155.818279,244.542839L157.607889,244.052268L158.822750,243.430690L159.109478,242.565208L157.200310,241.067875L157.748930,240.263197L159.111309,239.711020L160.066517,239.049592L156.804055,237.045144L156.907664,236.090516L159.020278,235.811514L160.370076,235.298933L158.339208,233.604553L155.789029,231.681537L152.832898,229.558228L149.350533,227.177799L147.159453,225.233460L148.996837,224.847809L146.731522,222.818680L148.866836,222.571797L152.554031,223.014629L156.630687,223.685119L165.082772,226.358170L166.777823,226.125956L162.572250,223.199186L157.666467,219.859024L158.264412,219.058030L159.200561,218.425520L157.746041,216.612073L162.810308,218.070700L162.128544,216.646862L165.297537,217.229341L167.181108,217.175230L167.652106,216.377895L166.641824,214.757573L161.695963,210.881062L163.207372,210.615015L160.601796,207.956845L158.651593,205.626174L159.451889,204.913085L162.866865,205.818730L161.873655,204.018863L166.346371,205.674228L168.243132,205.742527L167.794167,204.293234L170.317474,204.815347L170.325316,203.666931L168.536593,201.262414L170.185992,201.225326L170.365782,200.161813L171.974284,200.127756L173.493445,200.051829L174.304072,199.466682L174.887558,198.714109L178.057956,199.964034L175.079504,196.442722L174.319848,194.605673L176.360368,195.005608L178.049465,195.152115L179.601893,195.211869L181.743340,195.796281L182.332024,195.081736L182.743310,194.211424L182.634805,192.873597L184.642010,193.426032L182.629281,190.331925L184.670556,190.936719L183.681031,188.717551L185.601874,189.243176L187.903355,190.176464L189.810992,190.769273L190.593584,190.270750L189.339928,187.701329L190.043002,187.097438L186.871513,182.424671L184.692416,178.687059L187.822778,180.604489L187.067286,178.329352L187.453532,177.278958L189.972010,178.633142L188.034703,174.921525L192.753010,178.892393L195.365896,180.507869L197.021803,181.039382L195.731551,178.000802L197.548837,178.747626L197.384260,177.034913L196.874570,174.844233L199.738919,176.996466L199.833274,175.571211L203.472674,178.882376L203.832479,177.839775L203.364618,175.632838L202.376918,172.639235L203.226228,172.197182L201.774237,168.408532L203.344306,168.984475L208.048338,174.310680L204.211954,166.774282L201.707238,161.072749L200.835218,157.777765L197.728200,150.797252L199.947467,152.304675L203.797768,156.596130L208.008649,161.665954L210.507602,163.984910L212.758084,165.968110L215.637287,169.160057L217.037335,169.798804L217.661291,169.042660L217.179857,166.194534L217.383505,164.569814L218.022670,163.750767L219.359739,164.305433L220.797768,165.102293L222.563338,166.623042L224.002517,167.531426L224.856025,167.232671L226.217919,168.051734L226.279632,166.010830L227.572212,166.710973L226.695163,162.398073L228.054921,163.241800L228.177575,161.128811L228.139434,158.538890L228.930637,157.956155L229.129242,155.823161L230.716887,157.299640L231.420822,156.457391L231.718383,154.458852L233.868315,157.663168L233.893579,154.830903L234.693913,154.193972L236.960504,158.047876L236.903899,154.789706L238.331483,156.180616L240.193630,159.110471L240.582848,157.178300L241.796025,158.051522L242.497044,157.134164L243.398589,156.925202L244.451196,157.300136L245.235173,156.645833L245.704208,154.669572L246.848789,155.442898L248.003089,156.328180L248.640964,154.940228L249.836347,156.097523L249.904633,151.827384L250.355420,149.181771L251.400968,149.493788L251.465257,144.403342L253.282820,149.037048L254.550343,150.783746L255.229600,148.968759L256.963806,154.054809L258.014577,154.878837L258.419879,150.984867L259.647197,153.154123L259.947120,147.782506L260.182971,141.102942L260.938929,138.496090L261.902181,137.661921L263.175713,140.236169L264.674395,146.127369L265.811583,148.286878L266.863762,149.659079L267.931743,151.687014L268.888650,152.116849L269.722383,149.795845L270.642685,148.978645L271.674726,151.859387L272.590955,151.045005L273.524672,150.688884L274.434331,143.527880L275.479535,128.010907L276.749382,113.434859Z" />
<line x1="50" y1="600" x2="100" y2="600" fill="none" stroke="red" stroke-width="1.0" stroke-linejoin="round" stroke-miterlimit="10" />
<text x="125" y="603" style="text-anchor:start;fill:black">n0_4mer:D</text>
<path style="stroke:black;stroke-width:1.0" d="M277.834213,87.664894L279.260087,87.304246L280.535378,92.115254L281.752787,96.547272L282.858657,101.973598L283.917235,106.756965L285.188957,106.841716L286.425888,107.434982L287.726233,107.089908L288.873472,108.661065L290.080405,109.331029L291.345509,109.325439L292.565306,109.764619L293.946429,108.747058L295.321303,107.927154L296.970997,105.097665L298.968411,100.066680L301.053903,94.982253L302.237846,96.346221L302.924057,100.705015L303.361599,106.160996L303.194505,114.593023L304.310089,115.339631L305.723878,114.485404L306.878634,115.016671L308.785300,111.895940L310.336212,110.677306L311.657176,110.595465L313.136105,109.854272L314.215829,110.852734L315.396519,111.396834L316.503276,112.215898L317.622221,112.957683L318.984231,112.777982L320.233696,113.031072L321.809947,112.152359L323.246105,111.815792L324.406487,112.424664L325.403954,113.542950L326.494179,114.333640L327.356622,115.796609L328.467581,116.469691L330.110551,115.590823L331.686372,114.963498L332.920980,115.326387L334.249082,115.440969L335.307893,116.279396L335.524143,119.268745L336.931329,119.150163L338.188513,119.426219L339.315678,120.024149L341.047308,119.191458L342.348239,119.408732L344.240824,118.298895L345.151891,119.431186L346.363314,119.886825L347.359420,120.804590L347.153133,124.220719L348.516434,124.310196L349.620878,124.937812L350.375330,126.253754L352.031780,125.795127L353.431780,125.862086L354.770231,126.062943L356.092163,126.308465L357.232878,126.893380L358.406288,127.421745L359.221114,128.577089L360.755793,128.484725L361.880895,129.105423L363.105152,129.563680L363.986413,130.585571L364.777605,131.739571L365.630350,132.781280L366.091794,134.415205L367.317744,134.857765L368.980432,134.656421L369.905767,135.567744L371.377466,135.683091L372.629938,136.129800L372.921896,137.930260L374.734456,137.602529L375.140277,139.216147L376.164596,139.977579L377.872138,139.841479L378.295213,141.395004L379.650413,141.737791L379.883787,143.500846L380.009960,145.366607L381.877153,145.083402L382.832849,145.924412L385.245773,145.046937L386.315447,145.780459L386.219785,147.849507L387.568659,148.255188L387.687022,150.038793L388.173231,151.392738L389.198692,152.151692L388.700351,154.528335L390.265792,154.705888L391.782712,154.954035L392.098916,156.436858L394.134370,156.187277L394.102247,158.003030L394.876090,159.011685L396.365489,159.335359L396.453119,160.992607L397.569115,161.677010L398.422880,162.607470L398.562269,164.178739L400.174757,164.429696L401.781043,164.706952L403.124429,165.229965L404.543567,165.702524L405.712846,166.398019L405.466315,168.260731L406.036397,169.438970L406.909557,170.371110L407.125808,171.818266L407.347567,173.247440L407.684885,174.575961L408.260329,175.717018L408.775706,176.897991L410.629072,177.107978L411.885523,177.767573L412.760605,178.705601L413.814729,179.523789L415.154241,180.156247L414.462846,182.154475L415.705060,182.855999L416.524210,183.841812L415.583375,185.945287L418.120615,185.847985L418.684332,186.998517L418.660497,188.500696L419.880941,189.252468L419.779824,190.784647L420.293368,191.950537L421.702283,192.611279L422.627838,193.554326L423.536511,194.512626L423.799009,195.820639L424.327249,196.983281L425.224631,197.955410L426.026498,198.981627L427.348244,199.755376L426.619290,201.536902L425.849591,203.313788L425.854980,204.705168L425.449985,206.274318L427.300583,206.816750L428.579078,207.634371L429.302534,208.704336L431.055672,209.345075L432.079619,210.308499L432.054312,211.704251L432.610053,212.862057L432.375727,214.325961L432.280391,215.725433L433.803580,216.519477L434.147323,217.756326L433.691154,219.272553L433.339467,220.738056L432.761313,222.266373L433.512311,223.345119L435.483274,224.042525L436.533010,225.051197L437.013983,226.242175L436.466337,227.736097L435.592779,229.307878L435.982038,230.510725L436.676227,231.632637L436.176945,233.070960L435.592467,234.517570L434.801056,236.000348L433.972130,237.474565L433.873610,238.764417L434.729224,239.838302L434.538165,241.143658L435.990072,242.106251L437.730886,243.031050L439.061432,244.056783L440.151968,245.143085L439.609352,246.525406L440.005063,247.740901L439.465586,249.106577L439.805126,250.329265L440.791574,251.462477L442.117194,252.562628L442.356563,253.818068L443.157548,255.007955L443.465497,256.262648L442.545443,257.647073L443.119921,258.872048L443.299381,260.138813L443.519138,261.403349L444.203184,262.635738L443.505960,263.967544L442.498778,265.305428L441.768234,266.612996L440.815204,267.918022L441.426257,269.152839L442.103065,270.394430L443.270539,271.635932L443.941204,272.900893L444.414802,274.176720L444.128647,275.457563L444.057842,276.736340L443.602384,278.007384L442.175086,279.247189L441.788320,280.500184L440.805092,281.723764L440.212538,282.952018L441.370910,284.269755L441.582987,285.546228L441.448559,286.802564L442.463737,288.148476L441.711796,289.359152L441.610847,290.621058L441.201840,291.851991L439.951091,292.986834L439.040432,294.144302L439.201063,295.423271L439.128623,296.676301L438.873281,297.905175L439.449751,299.255471L437.976781,300.299375L436.460486,301.316360L435.579012,302.421291L436.240770,303.791287L438.820458,305.532475L439.996106,307.044978L439.638685,308.269946L437.987526,309.221609L434.767950,309.809559L433.426932,310.774859L433.492621,312.051995L433.134884,313.232280L433.556743,314.606205L434.765794,316.194701L435.452369,317.668793L436.378924,319.225002L438.012946,321.001369L438.776813,322.557437L438.879540,323.934523L438.325396,325.117835L436.141148,325.784515L434.182263,326.494156L432.613506,327.307040L433.302130,328.868382L432.819268,330.039672L432.198248,331.160475L432.332456,332.554203L431.658409,333.655081L433.183172,335.594271L434.373164,337.436718L433.989122,338.677750L432.808669,339.594510L429.962633,339.802532L428.789662,340.683239L429.136373,342.214542L429.103188,343.592152L429.479106,345.164380L427.798254,345.800140L426.331447,346.516003L424.412116,346.996676L423.807093,348.097336L423.372832,349.282511L422.216433,350.101707L422.553704,351.685970L421.847825,352.735659L422.333996,354.425684L422.485122,355.953032L421.497449,356.859083L420.743602,357.890805L419.560562,358.671572L418.664930,359.610496L417.741932,360.527815L416.695869,361.364450L415.485957,362.091361L415.711431,363.711671L415.867755,365.306608L415.410980,366.519849L414.735471,367.593229L413.699219,368.424166L411.936316,368.750370L411.695238,370.112039L411.982371,371.857941L410.606115,372.431859L410.279164,373.757131L409.417757,374.695750L408.420099,375.529192L407.705430,376.573611L407.712941,378.180795L406.614636,378.933867L405.083446,379.332082L404.620027,380.581600L403.451558,381.256334L403.764035,383.165817L403.655437,384.745297L402.282922,385.248872L401.022829,385.837063L399.061794,385.787993L397.933046,386.463015L398.098068,388.321181L397.410822,389.411350L397.321705,391.074153L396.260058,391.822703L394.711485,392.089801L393.032785,392.208058L392.151550,393.106480L391.621677,394.364903L390.732700,395.261728L390.739859,397.104625L389.505713,397.647716L388.549239,398.482818L387.393664,399.097350L386.360130,399.841418L385.783834,401.102908L384.769456,401.871183L384.098442,403.040509L383.407966,404.197347L382.204538,404.743895L381.425117,405.803298L380.377850,406.536348L379.457206,407.427908L378.460087,408.224195L376.857054,408.228381L375.259913,408.215983L373.653937,408.166998L372.687920,408.970098L372.269360,410.538111L372.027357,412.383124L370.806935,412.856544L369.923633,413.814714L368.842891,414.487334L367.674609,415.026448L367.049201,416.394040L366.118507,417.307427L364.892816,417.759914L363.744475,418.329564L362.631667,418.954087L361.007343,418.722511L359.847922,419.250498L358.854366,420.061406L358.001579,421.126415L357.228844,422.350550L356.087769,422.924532L355.215324,423.996038L353.454875,423.404955L352.318451,423.972016L351.597881,425.354687L349.787422,424.588004L349.044578,425.946377L347.504864,425.679831L345.599973,424.607262L344.849418,425.965314L343.679572,426.432468L342.892534,427.758795L341.844792,428.520188L340.558924,428.733977L339.288104,428.971721L337.525589,427.995515L336.143609,427.906954L334.798438,427.887770L333.546377,428.090549L332.706123,429.383911L332.475737,432.387756L331.090304,432.276392L329.718077,432.176717L328.430994,432.302058L326.335337,429.972252L325.361272,430.974795L324.281186,431.673296L322.820004,431.145101L321.640992,431.514366L320.413895,431.718628L319.118607,431.672620L318.324541,433.436889L317.509491,435.210112L316.679413,437.016310L315.993707,439.498344L314.967964,440.715229L313.769992,441.256337L312.258461,440.422833L310.605152,438.855267L309.049454,437.614873L307.605949,436.813849L306.430829,437.313623L305.514928,439.230642L304.350541,439.899875L303.412696,441.941192L302.189083,442.398150L300.914320,442.549622L299.751497,443.458254L298.386794,442.996803L297.208164,443.875420L295.957663,444.261912L294.554028,443.360073L293.229963,443.043319L291.865404,442.255970L290.513807,441.457644L289.225356,441.233928L288.044176,442.321420L286.817522,442.976493L285.617718,444.196493L284.451771,446.344082L283.126791,445.811283L281.793426,444.843565L280.482462,444.090416L279.163095,442.514848L277.881277,441.704068L276.630429,442.783677L275.356550,440.665950L274.107700,439.851317L272.867627,439.302328L271.659690,437.581642L270.381043,439.288751L269.135235,439.336564L267.785769,441.748002L266.395681,444.223199L265.044311,445.376333L263.636294,447.104933L262.467782,445.206211L261.301019,443.623735L260.146409,442.157958L258.867901,442.190135L257.620426,441.901667L256.340283,441.926932L255.060247,441.929958L254.088117,439.492419L252.765847,439.911821L251.538355,439.602763L250.241817,439.766727L248.830244,440.624332L247.710961,439.619961L246.562614,438.854529L245.457744,437.896661L244.196090,437.828205L242.948284,437.676379L241.404903,438.960148L240.290426,438.114381L238.982040,438.188958L237.584156,438.630852L236.635264,437.126566L235.112824,438.046050L233.862171,437.812368L232.641160,437.460216L231.293299,437.581828L230.174757,436.848956L229.023661,436.252757L227.724194,436.176251L226.578460,435.574621L225.180134,435.800802L223.851425,435.776718L222.527997,435.717944L221.329570,435.268985L220.293248,434.349952L219.479334,432.822992L218.587899,431.563412L217.201782,431.683446L215.947505,431.428862L214.432567,431.840665L213.252416,431.366366L212.141488,430.720890L211.375252,429.247018L210.535461,427.989413L209.459026,427.313635L208.419290,426.561661L206.655791,427.433954L205.291378,427.378685L204.272815,426.563770L202.381557,427.593489L201.764109,425.937520L200.496913,425.636918L199.173811,425.437404L198.746133,423.480511L197.433842,423.264962L196.367368,422.574646L194.883589,422.656854L193.249006,422.987647L191.476183,423.530940L189.479362,424.424719L188.653441,423.254954L188.152600,421.554281L187.737058,419.747509L187.892811,417.047688L187.032439,416.045229L185.834053,415.586876L184.617250,415.149971L182.682211,415.800432L180.891683,416.190302L179.531781,415.909038L178.893973,414.565016L178.858784,412.379555L178.271483,411.016673L177.274594,410.240512L175.381289,410.686479L173.954065,410.470129L172.796243,409.881210L171.778811,409.104194L171.260089,407.689182L169.598466,407.732780L168.652316,406.863517L168.339085,405.223490L167.380999,404.384056L167.800893,401.913986L167.503133,400.330780L166.205048,399.919375L165.263164,399.092783L163.684440,398.975353L162.151783,398.785665L161.702636,397.405487L159.923782,397.455925L158.120471,397.504493L156.109835,397.739264L153.361467,398.690387L153.392033,396.802348L153.364051,395.000925L152.916994,393.633004L153.504191,391.288408L152.991823,390.022955L151.996927,389.215783L152.123518,387.379246L151.360501,386.371184L149.894962,385.988553L149.077759,385.022526L148.059533,384.229877L147.179632,383.314960L146.728647,382.040545L145.603830,381.329049L146.105463,379.293410L146.327303,377.512993L146.283389,375.965704L147.047043,373.812360L146.153923,372.955079L145.096305,372.217272L144.757139,370.942618L143.195014,370.563682L141.570158,370.210135L139.073518,370.448102L136.689166,370.568393L135.205107,370.039481L133.825094,369.424052L134.420299,367.494450L134.291368,366.061556L133.965109,364.766280L134.190821,363.133024L133.261965,362.229111L132.178301,361.413253L131.281554,360.477338L130.023853,359.747299L129.712108,358.461335L129.084892,357.359866L129.351618,355.762620L129.183978,354.419316L128.036172,353.608788L127.578529,352.425025L126.530350,351.548204L124.628120,351.094586L124.583039,349.693539L123.775045,348.673978L122.455008,347.894405L123.311658,346.080562L122.471561,345.071938L121.843248,343.962273L121.131499,342.887481L119.819049,342.068728L118.475689,341.248601L117.597878,340.220546L118.058987,338.642717L117.779578,337.375287L117.964895,335.930908L117.683789,334.674709L117.002419,333.569836L116.493340,332.398471L116.358326,331.093562L117.073021,329.500344L115.053902,328.846559L114.805552,327.584363L114.340900,326.393866L113.204766,325.411320L114.849859,323.572714L113.623679,322.614537L114.722150,320.975297L112.741136,320.217923L109.966031,319.648661L108.883285,318.595680L107.177049,317.689119L108.461223,316.023644L110.356788,314.238050L112.111338,312.519994L112.247083,311.194419L111.122281,310.145688L110.126513,309.056710L109.824549,307.818238L107.272379,307.008340L108.289368,305.509040L108.605158,304.152101L107.871529,302.979211L109.343605,301.446074L108.320178,300.317937L108.281905,299.034899L107.559836,297.847382L107.912558,296.513018L109.504538,295.036546L109.780046,293.736130L110.625185,292.381872L110.448630,291.142786L109.845642,289.941448L108.902594,288.760810L108.279662,287.543306L106.256219,286.412488L104.427640,285.240528L104.517350,283.941369L104.492055,282.649757L106.000675,281.301443L107.432375,279.978995L107.349510,278.712336L107.163721,277.446348L107.237526,276.176008L106.645857,274.906551L106.726388,273.633589L108.029042,272.380859L106.716327,271.086726L105.563661,269.777206L105.170787,268.478807L104.875304,267.178184L105.675879,265.930889L107.895590,264.781482L108.750945,263.570815L108.405877,262.280182L108.780937,261.043299L108.019812,259.706460L107.493379,258.379530L106.940210,257.039778L107.056045,255.766100L107.826815,254.571999L107.477838,253.241925L106.941289,251.878143L105.958076,250.438493L105.617336,249.079102L106.818057,247.959237L108.161574,246.878904L110.385871,245.971484L111.261804,244.847033L110.819337,243.479601L111.209592,242.267900L111.009002,240.935712L110.330392,239.493219L110.493903,238.223987L109.936435,236.786018L109.914139,235.462726L110.339310,234.245044L111.730323,233.276061L112.812208,232.242917L113.912402,231.227021L115.512236,230.363456L117.704488,229.691129L118.387369,228.601941L118.599332,227.374817L117.878318,225.853412L116.314424,224.043191L116.383856,222.738588L116.321839,221.384102L116.920986,220.250722L116.668115,218.818150L115.816917,217.156611L114.724091,215.383121L113.578972,213.563138L113.908552,212.289349L114.573403,211.146481L114.887336,209.864042L116.746857,209.220885L117.893409,208.299197L119.813311,207.724231L122.658846,207.584248L123.287131,206.485194L122.833304,204.889562L121.693498,202.953501L121.239530,201.314986L121.969836,200.236236L122.405501,199.013854L124.489722,198.625383L125.493791,197.707150L126.226577,196.654096L128.101496,196.216291L128.679742,195.095297L129.386734,194.045365L129.024091,192.391997L128.840687,190.822131L128.413867,189.093084L127.800888,187.231152L128.725592,186.275728L129.858466,185.453982L131.005965,184.650927L132.642077,184.169414L133.238879,183.033861L133.813412,181.881494L134.220751,180.614211L134.670193,179.368894L135.377089,178.295820L135.857059,177.062470L137.313709,176.521772L137.516516,175.086141L138.668513,174.338564L138.993871,172.980044L138.954147,171.332775L139.534660,170.145881L139.869830,168.760952L141.439374,168.350215L143.269522,168.169721L145.133300,168.042557L146.368076,167.416096L146.680593,166.017175L147.726448,165.237364L148.955444,164.623612L149.261505,163.199767L150.584108,162.679020L150.405186,160.794944L151.107965,159.702369L152.565286,159.317934L154.084451,159.009499L155.735581,158.848228L156.813240,158.142710L157.894737,157.446838L158.095651,155.859378L158.140161,154.088486L158.118625,152.220952L158.016097,150.236794L159.031114,149.428871L159.925474,148.490441L160.894135,147.632851L162.431627,147.420123L163.178569,146.317425L164.854279,146.292047L166.266130,145.978707L167.668410,145.669713L168.333413,144.474255L169.590343,144.002228L170.335907,142.895005L171.438215,142.235162L172.955683,142.119850L174.122142,141.561126L175.462864,141.243106L176.270717,140.211557L177.315129,139.498965L177.265116,137.244659L178.259915,136.437498L179.183468,135.524160L180.227322,134.782598L181.955281,135.069054L182.058456,132.904464L182.337915,130.964814L182.307242,128.493099L182.394579,126.150773L183.542821,125.486480L185.314306,125.859546L188.124509,128.026534L190.475949,129.503082L192.229805,130.007824L193.604217,129.876493L194.408772,128.728369L194.857164,126.902459L195.979792,126.300428L196.731058,124.986469L197.588884,123.853441L199.262263,124.322132L200.570181,124.089860L202.182182,124.498933L203.446054,124.212156L204.752283,124.026549L205.974205,123.670069L207.080153,123.060924L208.397002,122.929365L209.071220,121.315440L210.255074,120.867200L211.123399,119.653402L211.969068,118.351179L213.343626,118.355790L214.274413,117.228821L215.548906,116.984571L216.556171,116.023067L217.680210,115.361942L219.224472,115.888508L220.336659,115.199068L221.729099,115.335631L223.448880,116.506497L224.256550,114.881644L225.598301,114.920457L227.116356,115.569043L227.826036,113.507364L229.182218,113.624144L230.274700,112.812140L231.590174,112.804506L233.210988,113.993336L234.796063,115.136700L235.971068,114.691377L236.927019,113.305526L237.801885,111.486183L238.627055,109.329010L240.215276,110.636351L241.255001,109.373421L242.482473,108.987932L243.912524,109.668161L244.791637,107.370752L246.183787,107.861575L247.613482,108.647544L248.843636,108.259871L250.321488,109.513458L251.689597,110.148480L252.877702,109.530771L254.106641,109.182101L255.110430,106.905833L256.133726,104.511127L257.211344,102.308949L258.438714,101.345500L259.870869,102.570187L261.286537,103.843912L262.749873,106.064270L264.052491,106.350693L265.353650,106.709540L266.664276,107.390550L267.892441,106.383012L269.198878,107.221150L270.481089,107.656952L271.736212,107.065092L272.991821,105.790861L274.248304,100.291690L275.588568,94.589607L276.997866,90.485935Z" />
<line x1="50" y1="550" x2="100" y2="550" fill="none" stroke="black" stroke-width="1.0" stroke-linejoin="round" stroke-miterlimit="10" />
<text x="125" y="553" style="text-anchor:start;fill:black">GC-content</text>
</g>
<g style="fill:pink;stroke:black">
<a href="" title="BX950229 BX957219-BX957223:1 [-8000-22099];"><path  d="M268.041334,45.105292L272.054610,45.018860L276.068783,45.002483L280.082631,45.056166L284.094930,45.179892L288.104458,45.373623L292.109995,45.637300L290.622170,65.581883L290.622170,65.581883L286.964940,65.341134L283.304066,65.164249L279.640663,65.051282L275.975845,65.002267L272.310731,65.017220L268.646436,65.096136Z" />
</a><a href="" title="BX950229 BX957219-BX957223:2 [29000-49099];"><path  d="M300.178449,46.382315L304.164543,46.856560L308.141754,47.400298L312.108868,48.013366L316.064680,48.695576L312.493838,68.374222L312.493838,68.374222L308.882010,67.751334L305.259862,67.191577L301.628496,66.695120L297.989019,66.262114Z" />
</a><a href="" title="BX950229 BX957219-BX957223:3 [838000-860099];"><path  d="M268.535699,504.909140L264.524216,504.761306L260.515924,504.543485L256.512044,504.255743L252.513795,503.898166L254.469117,483.993978L254.469117,483.993978L258.119692,484.320461L261.775409,484.583182L265.435154,484.782062L269.097813,484.917041Z" />
</a><a href="" title="BX950229 BX957219-BX957223:4 [958000-980099];"><path  d="M168.382041,478.795512L164.841557,476.903733L161.334629,474.950452L157.862324,472.936265L154.425700,470.861784L164.910422,453.830324L164.910422,453.830324L168.048209,455.724415L171.218574,457.563456L174.420552,459.346887L177.653168,461.074163Z" />
</a><a href="" title="BX950229 BX957219-BX957223:5 [1028500-1050099];"><path  d="M118.447366,443.497101L115.530530,440.739218L112.662270,437.930849L109.843460,435.072849L107.074957,432.166091L121.677135,418.499474L121.677135,418.499474L124.204898,421.153471L126.778594,423.762949L129.397441,426.327112L132.060639,428.845179Z" />
</a><a href="" title="BX950229 BX957219-BX957223:6 [1173000-1192099];"><path  d="M53.677381,337.580335L52.618912,333.708191L51.628182,329.818164L50.705494,325.911439L49.851128,321.989207L69.429291,317.903189L69.429291,317.903189L70.209364,321.484358L71.051819,325.051367L71.956398,328.603131L72.922826,332.138566Z" />
</a><a href="" title="BX950229 BX957219-BX957223:7 [1335000-1360099];"><path  d="M57.952204,198.906279L59.313280,195.129862L60.740057,191.377774L62.232098,187.651159L63.788952,183.951150L65.410142,180.278877L83.635347,188.515496L83.635347,188.515496L82.155130,191.868442L80.733655,195.246710L79.371356,198.649272L78.068647,202.075091L76.825926,205.523124Z" />
</a><a href="" title="BX950229 BX957219-BX957223:8 [1380500-1400099];"><path  d="M74.189983,162.860190L76.177677,159.372651L78.225934,155.920334L80.334130,152.504289L82.501624,149.125558L99.240613,160.071162L99.240613,160.071162L97.261597,163.156090L95.336722,166.275087L93.466574,169.427203L91.651724,172.611478Z" />
</a><a href="" title="BX950229 BX957219-BX957223:9 [1504500-1529099];"><path  d="M146.564671,84.200717L149.914139,81.988271L153.301709,79.834619L156.726350,77.740415L160.187018,75.706299L163.682660,73.732890L173.362428,91.234377L173.362428,91.234377L170.170756,93.036186L167.011015,94.893423L163.884169,96.805521L160.791171,98.771900L157.732961,100.791959Z" />
</a><a href="" title="BX950229 BX957219-BX957223:10 [1627000-1649099];"><path  d="M245.384427,46.914670L249.369575,46.432545L253.362531,46.020045L257.362078,45.677294L261.366997,45.404396L262.552476,65.369231L262.552476,65.369231L258.895810,65.618398L255.244050,65.931345L251.598308,66.307976L247.959694,66.748177Z" />
</a></g>
<path  style="fill:pink;stroke:black" d="M350,550L375,550L375,565L350,565Z" />
<text x="405" y="565" style="text-anchor:start;fill:black">Selected loci;</text>
</svg>