<svg xmlns="http://www.w3.org/2000/svg" viewbox="0 0 550 650">
<circle cx="275" cy="275" r="240" fill="none" stroke="black" stroke-width="1.0" />
<line x1="275" y1="15" x2="275" y2="55" fill="none" stroke="grey" stroke-width="1.0" stroke-linejoin="round" stroke-miterlimit="10" />
<line x1="495" y1="275" x2="535" y2="275" fill="none" stroke="grey" stroke-width="1.0" stroke-linejoin="round" stroke-miterlimit="10" />
<line x1="275" y1="495" x2="275" y2="535" fill="none" stroke="grey" stroke-width="1.0" stroke-linejoin="round" stroke-miterlimit="10" />
<line x1="15" y1="275" x2="55" y2="275" fill="none" stroke="grey" stroke-width="1.0" stroke-linejoin="round" stroke-miterlimit="10" />
<text x="275" y="10" style="text-anchor:middle" font-size="15">Methanothermobacter sp. KEPCO-1 chromosome, complete genome.</text><text x="285" y="25" style="text-anchor:start">1,741,029</text><text x="525" y="265" style="text-anchor:start">0.43 Mbp</text><text x="285" y="530" style="text-anchor:start">0.87 Mbp</text><text x="-200" y="25" style="text-anchor:end" transform="rotate(-90)">1.3 Mbp</text><circle cx="359.745506" cy="50.460028" r="2.500000" fill="grey" stroke="black" stroke-width="1.0" />
<circle cx="433.572947" cy="94.848340" r="2.500000" fill="grey" stroke="black" stroke-width="1.0" />
<circle cx="486.970870" cy="162.446233" r="2.500000" fill="grey" stroke="black" stroke-width="1.0" />
<circle cx="513.059830" cy="244.544829" r="2.500000" fill="grey" stroke="black" stroke-width="1.0" />
<circle cx="508.478694" cy="330.567073" r="2.500000" fill="grey" stroke="black" stroke-width="1.0" />
<circle cx="473.817665" cy="409.430413" r="2.500000" fill="grey" stroke="black" stroke-width="1.0" />
<circle cx="413.542249" cy="470.974604" r="2.500000" fill="grey" stroke="black" stroke-width="1.0" />
<circle cx="335.417940" cy="507.270688" r="2.500000" fill="grey" stroke="black" stroke-width="1.0" />
<circle cx="249.509773" cy="513.642512" r="2.500000" fill="grey" stroke="black" stroke-width="1.0" />
<circle cx="166.885603" cy="489.269170" r="3.000000" fill="black" stroke="black" stroke-width="1.0" />
<circle cx="98.190196" cy="437.290767" r="2.500000" fill="grey" stroke="black" stroke-width="1.0" />
<circle cx="52.273826" cy="364.403867" r="2.500000" fill="grey" stroke="black" stroke-width="1.0" />
<circle cx="35.052063" cy="279.998748" r="2.500000" fill="grey" stroke="black" stroke-width="1.0" />
<circle cx="48.743648" cy="194.949622" r="2.500000" fill="grey" stroke="black" stroke-width="1.0" />
<circle cx="91.584645" cy="120.213672" r="2.500000" fill="grey" stroke="black" stroke-width="1.0" />
<circle cx="158.055696" cy="65.419396" r="2.500000" fill="grey" stroke="black" stroke-width="1.0" />
<circle cx="239.593098" cy="37.626136" r="2.500000" fill="grey" stroke="black" stroke-width="1.0" />

<circle cx="275" cy="275" r="185" fill="white" stroke="grey" stroke-width="0.5" />
<circle cx="275" cy="275" r="170" fill="none" stroke="black" stroke-width="0.5" />
<circle cx="275" cy="275" r="170" fill="aliceblue" stroke="black" stroke-width="0.5" />
<circle cx="275" cy="275" r="160" fill="white" stroke="none" stroke-width="0.5" />
<circle cx="275" cy="275" r="140" fill="none" stroke="black" stroke-width="0.5" />
<circle cx="275" cy="275" r="140" fill="aliceblue" stroke="black" stroke-width="0.5" />
<circle cx="275" cy="275" r="133" fill="white" stroke="none" stroke-width="0.5" />
<circle cx="275" cy="275" r="110" fill="none" stroke="black" stroke-width="0.5" />
<circle cx="275" cy="275" r="110" fill="white" stroke="black" stroke-width="0.5" />
<circle cx="275" cy="275" r="109" fill="aliceblue" stroke="none" stroke-width="0.5" />
<circle cx="275" cy="275" r="80" fill="none" stroke="black" stroke-width="0.5" />

<g style="fill:none;stroke-linejoin:round;stroke-miterlimit:10">
<path style="stroke:blue;stroke-width:1.0" d="M277.598509,94.982585L278.693188,104.452798L280.228462,93.942468L281.628627,91.395685L283.151255,86.888272L283.980106,97.407209L284.560941,109.599298L285.280957,116.952434L286.816920,111.560792L288.642135,103.532500L289.861195,103.844917L291.894443,95.473780L292.540305,102.005877L292.423444,114.695901L293.190358,118.185020L293.776844,122.738876L294.788746,123.541089L295.956827,123.141436L297.177823,122.433522L298.291093,122.514653L299.427602,122.458683L300.520678,122.682470L301.894331,121.299404L302.951450,121.780094L303.662666,124.060424L304.497403,125.557845L305.663776,125.342665L307.045927,124.142610L307.815478,125.825514L308.731829,126.767140L309.883222,126.664209L311.153184,126.095186L312.087734,126.916052L313.100781,127.399948L314.291740,127.202525L315.589465,126.642035L316.983661,125.785749L317.694871,127.353799L318.682954,127.923284L319.761886,128.181692L320.959025,128.065442L322.573180,126.671112L323.881379,126.291734L324.921781,126.742442L325.538085,128.418994L326.219605,129.850690L327.052853,130.814348L328.112900,131.137707L328.925970,132.118065L330.002908,132.388991L330.997284,132.874771L332.489233,132.120539L332.959243,133.901894L333.971904,134.334007L335.182155,134.303930L335.960957,135.280892L337.130111,135.359780L337.893945,136.346311L339.185837,136.170641L340.285862,136.425984L341.147133,137.186692L342.304637,137.331176L343.047787,138.320188L344.011485,138.856417L345.348812,138.667230L346.598758,138.668686L347.759009,138.855735L348.764927,139.338159L349.370058,140.546856L350.158154,141.407820L351.914426,140.565987L356.831734,134.336554L362.302511,127.394147L360.909036,132.113961L357.790900,139.524089L356.707193,143.441038L356.854540,145.301928L358.739437,144.413230L360.050837,144.451509L361.007791,145.043236L360.556592,147.730556L360.988504,149.060929L361.983610,149.557433L362.695407,150.460262L363.425090,151.329928L364.345372,151.930096L365.473328,152.249837L366.260565,153.034857L367.810290,152.812292L371.300865,150.098817L375.705948,146.317029L377.585560,145.846891L375.949820,149.772865L374.125124,153.836720L372.938820,157.034451L373.376874,158.232061L374.617958,158.476285L376.886450,157.549836L376.643118,159.524798L376.356356,161.512779L377.941484,161.399054L380.316515,160.450679L382.824302,159.408776L384.643729,159.146148L384.111164,161.363109L384.566165,162.525576L384.899463,163.800608L386.097897,164.199103L386.625967,165.268069L385.919874,167.525370L385.750970,169.228156L386.549793,169.994250L387.642986,170.488338L387.886061,171.768936L388.845214,172.390822L390.488130,172.411033L389.762859,174.527844L391.235767,174.711064L392.308582,175.253343L391.861139,177.078272L392.775336,177.750505L393.384251,178.676285L397.383549,176.881833L399.533305,176.626454L401.055999,176.892858L399.635614,179.434771L397.086292,182.781065L397.147806,184.111783L398.028246,184.828953L398.322105,185.974667L399.120482,186.754025L399.758583,187.649111L401.039867,188.100912L400.959476,189.491033L402.699300,189.649868L403.827294,190.234743L406.854485,189.600219L406.323849,191.283155L406.138190,192.726618L406.983307,193.518033L407.698918,194.393239L408.667525,195.119897L408.634364,196.443126L407.308890,198.501883L411.021661,197.659791L410.795166,199.080306L412.303981,199.532351L409.619456,202.268088L411.823012,202.348449L411.544844,203.754778L411.592959,204.979294L411.464191,206.284541L412.698085,206.904610L414.958594,207.039517L415.899139,207.835210L417.191738,208.474267L413.748868,211.301630L413.798041,212.488031L414.281469,213.475629L416.423847,213.745368L419.371458,213.702369L418.620532,215.240976L417.071803,217.084785L416.823592,218.376244L416.682698,219.614758L417.557836,220.455527L418.577831,221.250035L419.188868,222.204687L420.041169,223.076734L419.920584,224.296940L419.950647,225.457772L419.826863,226.664669L419.677975,227.872161L420.053471,228.905206L420.408888,229.945152L421.523321,230.756387L422.828542,231.524036L424.404003,232.229873L423.045063,233.772662L424.073816,234.643296L427.116614,234.995694L427.928987,235.959985L427.727291,237.183527L428.694139,238.119392L429.643706,239.069968L430.751338,239.995522L431.961172,240.911846L429.389826,242.635385L431.238581,243.423326L433.829684,244.091157L435.444435,244.977165L440.413377,245.281440L439.615971,246.649651L438.051295,248.129413L431.966347,250.294558L427.055139,252.190981L426.669791,253.366947L426.776974,254.468309L426.292451,255.644767L426.254802,256.758171L426.262026,257.864013L426.373885,258.957062L428.600081,259.841392L435.537663,260.325929L434.392117,261.589964L434.831503,262.714107L429.115329,264.271839L427.576276,265.485037L429.350262,266.492324L433.337503,267.418432L434.450489,268.518279L433.609928,269.698835L430.531979,270.925307L430.824773,272.042924L430.731458,273.169002L428.871184,274.301561L428.822121,275.412044L429.972528,276.533733L432.693725,277.699076L435.741032,278.911931L433.594760,280.005299L429.474795,280.991622L429.299019,282.100508L430.144365,283.261971L428.949366,284.313106L428.200293,285.378108L427.580606,286.443037L427.314179,287.529228L427.817314,288.681761L427.294659,289.743744L426.431712,290.764237L427.389354,291.976618L427.186080,293.066965L427.124379,294.174090L425.895416,295.126649L426.256270,296.287028L425.730336,297.323645L425.621968,298.419807L425.316796,299.484808L425.436767,300.620311L425.706786,301.787013L425.394937,302.852855L424.961536,303.893621L425.060741,305.037634L424.079447,305.961984L423.612731,306.985675L423.428793,308.068804L423.248590,309.153624L423.449822,310.330230L423.213269,311.406261L423.623730,312.646583L424.253048,313.954506L422.603155,314.663997L421.883948,315.609693L421.202038,316.559370L421.065361,317.662337L421.138606,318.830949L421.960650,320.236181L422.746573,321.648159L423.321482,323.009657L421.505388,323.592804L420.730042,324.506023L420.506516,325.604423L419.964965,326.591935L421.437273,328.309831L418.820202,328.535853L421.199632,330.626288L424.542958,333.137412L423.095399,333.808609L418.770422,333.295974L417.611549,334.028191L416.655170,334.833547L416.083252,335.795653L414.392205,336.263618L413.781313,337.194137L413.745186,338.384425L412.952740,339.229928L413.137849,340.533412L414.145128,342.245873L413.244414,343.045774L412.275815,343.804305L410.996575,344.395799L410.154621,345.200260L410.515528,346.634416L412.226635,348.811029L413.254378,350.655457L410.261361,350.291309L408.864221,350.784312L407.044332,351.017734L406.238566,351.820339L405.895667,352.893516L406.292660,354.418539L406.150828,355.631424L405.113832,356.293776L403.457400,356.553829L403.007293,357.570388L402.788463,358.741489L404.051556,360.907032L404.805420,362.767495L405.098863,364.340963L401.019206,362.884607L399.367335,363.073615L399.895831,364.808428L401.681669,367.486963L399.061536,366.954100L396.806130,366.651912L396.115881,367.509165L396.455518,369.164374L395.187777,369.578264L394.252096,370.243684L393.634808,371.161314L393.496715,372.474965L392.692968,373.246635L391.673379,373.833149L390.431620,374.221101L390.456659,375.700754L390.240766,376.986297L390.343610,378.571440L388.386321,378.301851L386.925968,378.459597L385.891824,378.997953L386.024033,380.638390L385.553177,381.721276L383.721526,381.479776L383.332728,382.641859L383.771172,384.648997L383.433532,385.898208L382.570334,386.615767L382.857082,388.542159L383.347550,390.719804L381.005379,389.868931L378.184711,388.444490L376.882384,388.649929L375.901351,389.203400L375.188700,390.059930L375.613677,392.246093L375.703017,394.078650L375.710631,395.845992L374.999219,396.768771L373.104314,396.235020L371.451886,395.968172L369.566816,395.376241L368.294068,395.536994L367.508220,396.320776L366.992479,397.467674L366.518707,398.686031L365.284979,398.878760L363.753137,398.642053L362.797771,399.193650L361.893273,399.815761L361.178266,400.714136L361.559863,403.245914L362.517664,406.705121L361.894105,407.836825L361.905981,409.971557L360.916567,410.574849L358.531671,408.939990L356.874441,408.417776L354.381773,406.475237L353.152448,406.576217L352.120660,406.999821L351.241916,407.685287L350.425136,408.485008L350.069918,410.124283L348.308944,409.227602L347.069860,409.253327L346.525842,410.579138L345.380923,410.774549L344.268549,411.022626L343.633440,412.215722L342.670017,412.766054L342.260908,414.468078L341.753502,416.008187L340.737137,416.493063L340.298873,418.246523L338.635267,417.309701L337.689716,417.955154L336.390470,417.785687L334.527986,416.254841L333.374305,416.359732L332.250919,416.526294L331.158769,416.761244L330.154121,417.214481L329.093494,417.522639L328.085537,417.968987L327.478771,419.523046L326.278588,419.459461L325.203028,419.734836L324.194726,420.204581L323.170912,420.633005L322.007456,420.632814L320.823061,420.548926L319.810648,421.003960L318.866745,421.695053L317.974124,422.582481L316.878053,422.783853L315.540398,422.102918L314.348926,421.911307L313.396954,422.612132L312.739837,424.506898L311.511054,424.167871L310.308584,423.900934L309.197587,423.997877L308.329450,425.178853L306.941213,424.000107L305.810000,423.961144L304.794202,424.481496L303.791547,425.094248L302.723044,425.382691L301.821039,426.619802L300.560709,425.834110L299.430677,425.763582L298.492020,426.906900L297.338664,426.690046L296.194208,426.496949L295.105858,426.688715L293.929929,426.186494L292.887094,426.733825L291.790613,426.851357L290.644174,426.484621L289.527307,426.353066L288.486236,427.037175L287.475350,428.196798L286.311702,427.506385L285.254190,428.234575L284.109073,427.653611L283.021322,427.988066L281.917614,428.058046L280.803161,427.852633L279.709728,428.214762L278.623574,429.087998L277.501424,428.503161L276.383692,427.445833L275.283272,427.412886L274.181083,427.804230L273.086525,427.132898L271.986266,427.229101L270.886130,427.257702L269.752169,428.249473L268.662219,427.821191L267.594369,427.052732L266.492870,427.070710L265.287423,428.715626L264.006152,431.084143L263.043712,428.891848L261.858667,429.679703L260.677124,430.290450L259.450968,431.245011L258.427057,430.160495L257.541180,427.989853L256.509961,427.262301L255.579127,425.822747L254.341483,426.777408L253.057501,427.941929L252.094029,426.852463L251.191166,425.466188L250.146862,425.042301L248.999739,425.233475L247.930693,424.960904L246.798099,425.032527L245.746010,424.671224L244.750319,424.043131L243.517420,424.571249L242.114305,425.827829L241.243784,424.623558L240.095154,424.674331L238.770710,425.436011L238.060622,423.662326L237.178683,422.649701L235.795025,423.581643L234.776117,423.101535L234.078592,421.481535L232.689459,422.341773L229.948614,427.722519L229.027071,426.800369L228.712214,423.955819L227.663820,423.537759L227.271216,421.115801L226.200735,420.818603L225.637146,419.039727L224.226270,419.741645L223.105377,419.587363L221.514575,420.703415L220.900003,419.152678L220.116971,418.090967L218.677359,418.732948L217.914596,417.640049L217.057923,416.804890L216.134794,416.145918L214.727084,416.634982L213.756276,416.081302L213.004195,415.037880L212.335255,413.833055L211.208276,413.652206L210.223076,413.158536L209.295776,412.544621L208.241085,412.197599L206.877699,412.468657L205.677409,412.389295L205.031488,411.215833L204.442460,409.956877L203.432318,409.515331L202.414937,409.084589L201.060573,409.262599L199.369042,410.018624L197.424625,411.175221L196.013645,411.354282L195.341907,410.253640L196.153729,406.692170L195.498921,405.637110L194.958953,404.411768L191.345016,408.097775L187.694473,411.705823L181.030962,419.824691L180.174599,418.859747L187.477346,405.717611L188.304328,402.482448L188.014021,400.944743L186.569417,401.080445L185.835462,400.194926L184.891142,399.607592L184.552461,398.193463L183.974788,397.122665L182.747209,396.923077L182.344525,395.635710L181.501327,394.931606L180.197986,394.809884L179.532676,393.877233L178.680545,393.180902L177.373397,393.034739L177.223677,391.493405L176.082507,391.140288L173.759091,392.144733L172.369896,392.033941L171.332408,391.509791L172.093072,388.987451L171.041695,388.494276L170.602162,387.335391L170.688472,385.630374L169.711951,385.063538L168.059331,385.187828L167.558493,384.116860L166.741340,383.370945L164.917759,383.617052L162.763628,384.155016L162.280369,383.052903L161.336102,382.394590L159.874588,382.213353L160.842314,379.783814L159.883646,379.142893L160.687431,376.925074L160.470470,375.644141L159.962880,374.627942L159.030911,373.979293L158.083054,373.338579L156.689757,373.061199L155.756128,372.391694L155.897812,370.851245L155.498386,369.759700L155.012575,368.742335L154.208071,367.974708L153.555096,367.089112L152.694191,366.359100L151.811015,365.640944L151.292674,364.653289L150.836323,363.624224L150.581032,362.457822L148.772686,362.374554L146.703130,362.444174L144.779289,362.385599L144.215616,361.401370L144.653388,359.767124L143.968676,358.872939L141.551266,359.068686L139.655775,358.904367L137.671266,358.768572L138.916596,356.667134L140.554385,354.370036L140.988818,352.814711L140.390236,351.868515L139.641216,351.005955L139.118802,350.014489L139.274973,348.655128L139.574175,347.232331L139.069123,346.246289L137.707555,345.701496L137.937711,344.335948L137.395193,343.367540L134.658704,343.468628L130.245540,344.332714L128.082770,344.069393L125.973903,343.751869L125.901129,342.484543L125.825548,341.225669L127.985229,339.000662L128.333149,337.593890L131.679269,334.946708L133.001847,333.192898L131.955708,332.419294L132.532853,330.997065L131.008726,330.399642L130.380177,329.446419L130.754399,328.120032L130.232793,327.128641L131.342376,325.560777L129.750814,324.945657L127.457215,324.546415L125.101371,324.136478L125.807942,322.715116L125.534189,321.616227L128.178164,319.631390L129.086760,318.207201L127.731909,317.454686L123.094395,317.606501L123.948614,316.193239L124.842206,314.787405L126.329592,313.247053L127.078434,311.918168L126.337670,310.965227L124.292120,310.310643L121.520427,309.793405L124.316604,308.017873L126.049166,306.513278L125.962736,305.409389L125.185147,304.443335L125.135103,303.331270L124.333873,302.357914L124.291880,301.243346L123.836466,300.199891L124.520197,298.970916L124.437844,297.870994L123.527492,296.891962L123.106118,295.834772L121.795840,294.888993L120.126743,293.970039L119.410828,292.918859L118.219369,291.910392L117.910522,290.797548L119.050383,289.546730L120.705061,288.269763L122.561093,287.002399L122.786025,285.879839L121.787317,284.840272L119.860815,283.840125L119.207547,282.749666L120.967510,281.547976L122.274706,280.388396L122.734003,279.272061L121.621287,278.195560L119.096304,277.122548L117.100486,276.009917L116.941833,274.870088L114.248173,273.707574L116.159446,272.576303L118.214061,271.475599L122.552176,270.472027L122.953829,269.385298L122.746581,268.276901L122.735292,267.174876L120.472610,265.939868L121.131955,264.863631L122.832629,263.872044L122.944375,262.776240L122.705457,261.650039L123.449019,260.612235L123.558861,259.518966L123.454048,258.402160L123.389252,257.286748L122.276176,256.038366L123.248138,255.045828L124.150556,254.055793L124.345192,252.973330L124.540688,251.891525L124.643908,250.795289L124.912370,249.725820L125.239062,248.667867L125.181247,247.541476L125.300766,246.445091L125.679045,245.398707L125.547569,244.249909L125.373335,243.086674L126.157072,242.128896L124.893158,240.711653L124.546229,239.487893L123.050896,237.975112L124.065901,237.066289L125.412925,236.254840L125.026979,234.997597L125.815826,234.052375L125.751569,232.874018L126.564426,231.944340L129.260735,231.583608L129.521880,230.515704L129.502743,229.358932L128.634324,227.923473L128.796884,226.808599L129.054835,225.722968L131.079915,225.246664L131.501292,224.229890L130.318767,222.633486L130.389056,221.475306L131.368004,220.655736L132.666445,219.969374L133.270050,219.023542L133.574817,217.960512L133.414679,216.704269L134.114033,215.799379L134.207093,214.639180L133.838688,213.271330L134.723604,212.448360L135.336482,211.509224L135.814321,210.510212L137.035000,209.862136L136.948951,208.598787L137.199487,207.490284L137.336745,206.321031L137.359741,205.087276L138.988173,204.674868L139.475986,203.682734L139.108913,202.232325L139.557982,201.209982L140.547383,200.485530L141.863521,199.953774L142.129989,198.835050L142.901511,198.005267L143.464911,197.056330L143.803375,195.971916L144.678172,195.211306L144.457283,193.774879L144.900487,192.742174L146.100717,192.192755L145.560454,190.519668L146.469360,189.783713L147.603089,189.205270L147.687801,187.920108L148.573271,187.179656L149.922446,186.771681L151.010920,186.192378L151.450009,185.150597L149.249822,182.155550L141.440546,174.892259L146.357761,177.119824L151.656924,179.738359L154.555935,180.581654L154.986277,179.512466L154.496476,177.694165L154.031591,175.867852L153.745947,174.162114L156.351157,174.871243L157.502497,174.381892L160.074557,175.137686L159.980373,173.589612L159.918308,172.049075L159.367550,170.044040L159.592512,168.718933L158.693067,166.328773L161.002864,166.935314L162.462994,166.766613L164.621449,167.298169L165.728524,166.827843L166.216317,165.744878L167.097912,165.054449L168.337820,164.737021L168.764956,163.580416L170.240691,163.528167L171.577538,163.346638L172.303958,162.513082L172.910330,161.543397L172.523709,159.447148L172.372162,157.579828L173.289309,156.919892L174.593605,156.718228L174.033337,154.303173L177.264245,156.436987L179.089703,156.925308L179.419847,155.580707L178.758422,152.959063L179.939671,152.650995L182.087285,153.616841L183.312349,153.408940L184.053169,152.562962L184.261991,150.984074L185.181276,150.362646L186.370101,150.121828L187.315922,149.545718L188.796253,149.748013L189.625069,149.014770L190.581718,148.469436L191.269528,147.516815L192.071984,146.730394L193.019054,146.165193L194.115612,145.839562L194.860767,144.952103L196.078158,144.833357L197.037841,144.297491L198.000350,143.767336L198.995747,143.295036L199.875425,142.621409L200.803891,142.030724L201.401252,140.834555L202.134812,139.867815L202.363998,137.933807L203.102584,136.927994L205.204514,138.569668L206.489028,138.662441L207.256112,137.728245L208.263041,137.272530L209.176736,136.621787L209.665818,135.054868L211.016043,135.325746L211.285184,133.219431L211.555255,131.050411L213.186166,131.962126L214.043102,131.101666L215.407643,131.446744L216.111305,130.199047L216.096930,127.113853L217.570503,127.730194L219.395849,129.313128L221.469677,131.649362L222.756919,131.954487L223.299106,130.204238L223.862981,128.451910L224.975852,128.244456L226.797351,130.173533L228.025574,130.388604L228.925742,129.596293L230.037828,129.466277L230.892134,128.490229L231.735724,127.442319L233.049716,128.002328L234.288280,128.339139L235.296523,127.858717L235.963410,126.064476L237.198276,126.411096L238.414573,126.721043L238.768249,123.459826L237.847928,114.496963L233.714072,90.589642L230.805618,70.692703L234.378970,80.426339L241.345668,107.772053L245.495260,122.716611L246.949109,124.407765L247.751181,122.612066L248.923429,122.837427L250.118992,123.242470L251.245382,123.261022L252.351314,123.161254L253.521384,123.520454L254.554251,122.915410L255.564465,122.079225L256.725343,122.415784L257.850252,122.493473L259.022138,123.045949L260.159162,123.341764L261.234114,123.017114L262.375455,123.450054L263.241112,120.357620L264.398460,120.871054L264.926656,111.299267L265.728614,104.234525L266.956845,104.075407L267.509146,86.907197L269.426275,104.016506L270.883251,112.758131L272.103720,115.450989L273.160787,106.782958L274.370082,105.456373L275.611410,100.433252L276.964102,91.792188Z" />
<line x1="50" y1="575" x2="100" y2="575" fill="none" stroke="blue" stroke-width="1.0" stroke-linejoin="round" stroke-miterlimit="10" />
<text x="125" y="578" style="text-anchor:start;fill:black">n1_4mer:GRV/n1_4mer:RV</text>
<path style="stroke:green;stroke-width:1.0" d="M276.375947,179.678250L277.012999,182.041980L277.750675,179.746298L278.426570,180.088501L279.207316,177.905076L279.935068,177.402876L280.447429,180.761508L281.006200,182.667614L281.722902,182.015893L282.251481,183.856396L282.994311,182.930216L283.630278,183.291665L284.560459,180.708415L285.048681,182.547283L285.222631,186.873001L285.793717,187.473927L286.566252,186.474334L287.938779,181.242281L289.117138,177.884876L290.183340,175.595612L290.898217,175.721532L291.902969,174.116372L293.398839,169.850981L293.232595,175.055400L292.653419,182.035879L292.113953,188.295894L293.566141,184.386265L295.418278,178.880195L294.490270,186.400011L295.621766,184.378664L296.507867,183.540948L298.026867,180.158797L297.973760,183.270345L298.177845,185.210472L298.883418,185.161553L300.747719,180.889887L302.317730,177.909975L302.326773,180.499322L302.578241,182.146455L302.687656,184.184907L303.655029,183.387657L304.972158,181.549513L305.362323,182.630913L306.319109,181.988602L306.972614,182.266414L307.413035,183.145920L307.907413,183.846939L308.304203,184.791803L309.389316,183.882269L309.594130,185.304672L307.230819,193.195810L310.699574,186.274936L311.475196,186.203446L311.382060,188.217680L312.519209,187.286205L311.282806,191.841835L313.343027,188.822322L312.832967,191.594825L316.723400,184.755280L315.760416,188.483036L316.892652,187.719346L317.015744,189.058551L315.375770,193.901806L314.925022,196.237233L319.600538,188.566205L321.934694,185.631571L322.262021,186.564861L320.228362,191.820051L319.653840,194.270613L321.518182,192.314822L319.335592,197.508536L318.865059,199.598808L320.646162,197.824205L322.987536,195.185940L323.179571,196.160764L324.593546,195.148090L324.169624,197.090999L327.568365,193.022700L327.340166,194.660641L328.734715,193.807477L328.098454,196.013559L324.888775,201.932720L328.166526,198.326412L328.562311,198.934030L328.519067,200.148995L328.630749,201.125651L332.442534,197.064541L331.425711,199.589883L332.425183,199.397915L332.002791,201.067994L333.757099,199.919648L333.700246,201.097598L330.915407,205.637556L332.461005,204.763883L332.124179,206.194954L335.665670,202.993187L335.430979,204.313526L338.527167,201.768709L338.815010,202.500736L333.677309,209.299880L337.892517,205.595042L342.079298,202.040046L345.570572,199.346009L348.252725,197.598306L347.440822,199.554467L348.806457,199.234469L348.375601,200.756487L347.645844,202.548361L347.581360,203.650179L341.680576,210.390566L338.861796,214.009293L341.780423,212.137236L341.276001,213.508243L343.253431,212.584196L346.392422,210.653704L351.562910,206.988596L345.363665,213.398283L344.191729,215.300950L348.882781,212.177994L344.798279,216.513765L343.501651,218.436791L347.993879,215.608303L356.976526,209.277225L359.600050,208.171236L359.665618,209.106256L359.548180,210.172091L352.790430,216.240327L346.736975,221.621671L347.471139,221.883755L347.562080,222.617961L348.570584,222.693501L350.824332,221.910885L351.122474,222.516816L351.948343,222.762776L354.579528,221.811586L358.190349,220.262754L361.564695,218.933603L358.015435,222.078994L357.051359,223.522678L358.371052,223.529572L359.775155,223.504096L362.712978,222.582469L363.682881,222.867826L358.144482,226.927673L356.157481,228.854875L359.458348,227.781442L357.806026,229.486563L359.261851,229.475187L360.215087,229.751703L356.137918,232.664538L353.605429,234.705041L357.508102,233.453701L363.618880,231.175591L363.319474,232.114216L366.814350,231.233292L368.501801,231.254309L361.495512,235.290680L356.111134,238.469104L355.634366,239.381632L358.363537,238.892916L364.351066,237.063078L368.817596,235.963465L364.528549,238.503911L364.308204,239.343267L359.070907,242.135807L357.999674,243.243251L360.302235,243.066156L361.644543,243.274765L364.190344,243.070763L362.001522,244.560960L367.167003,243.498529L366.137914,244.583121L362.984215,246.339757L361.905608,247.383314L362.275481,247.957750L362.378466,248.615538L366.328259,248.140613L372.135560,247.192845L367.329851,249.288140L366.411534,250.253413L379.000093,247.649591L377.907075,248.729678L376.901887,249.768295L379.561129,249.909401L377.340212,251.222200L378.530889,251.731855L376.040860,253.056379L375.215948,253.991811L376.821100,254.421397L380.443479,254.480310L381.166773,255.133761L384.084477,255.401624L383.945373,256.237304L383.432595,257.130485L378.437938,258.719568L364.484141,261.576939L363.404210,262.390680L370.012501,262.147146L367.304060,263.191304L366.592453,263.953648L365.480596,264.749745L365.327341,265.426909L365.629518,266.055881L367.115685,266.580094L369.094690,267.083591L367.879775,267.860538L364.888558,268.742745L370.028786,269.073814L371.291869,269.692461L373.447487,270.286105L380.254103,270.721382L379.767625,271.498388L375.028925,272.379400L370.644974,273.184952L370.617315,273.875788L370.076727,274.568436L373.292036,275.263296L377.239631,276.011846L377.260972,276.750292L380.935901,277.578147L378.442129,278.264665L367.298091,278.579971L372.364806,279.480518L374.049645,280.274734L372.824788,280.917872L369.110533,281.375244L366.942294,281.895366L366.734098,282.545965L369.688531,283.477481L370.040425,284.200925L367.407388,284.619729L365.250554,285.054175L363.451673,285.500654L366.231654,286.499038L363.594352,286.816843L366.982903,287.945200L366.467202,288.546585L364.355940,288.893716L364.129714,289.518165L364.609084,290.260981L367.240351,291.395038L367.218820,292.078749L366.731025,292.674142L373.263571,294.669403L367.958344,294.306315L360.918926,293.492190L362.963343,294.597563L361.870322,295.013251L364.468487,296.293001L364.599656,297.008748L369.268004,298.878207L370.315178,299.876917L363.349509,298.741326L362.029023,299.061321L359.684547,299.072417L361.228467,300.185355L361.940864,301.075934L366.688213,303.222688L372.281389,305.714741L371.130361,306.116097L368.905443,306.146491L369.419386,307.075255L367.640978,307.218786L363.653048,306.550949L367.172784,308.555088L366.458676,309.044718L366.321126,309.746019L371.149215,312.379670L372.901073,313.876467L366.878974,312.255050L364.026353,311.848801L361.287075,311.446688L360.331631,311.771142L359.067085,311.947932L357.156812,311.818156L358.199036,313.008692L357.547207,313.433460L361.976334,316.262087L364.620767,318.311805L362.055249,317.849773L358.807594,317.005384L357.529157,317.112654L356.858729,317.517999L356.964948,318.327221L364.071069,322.909266L366.262228,324.940448L357.494128,320.919180L357.145409,321.504834L354.024639,320.494372L351.316211,319.671603L351.670473,320.625137L354.414250,323.037443L354.720454,324.012071L352.207774,323.238618L348.920429,321.929908L351.608653,324.415983L352.306294,325.659848L357.901699,330.185998L361.484296,333.476064L361.530326,334.421755L351.630679,328.441513L347.784763,326.544220L352.724008,330.888742L355.845043,334.022845L354.265370,333.751294L347.523063,329.569318L345.703414,329.003767L351.140790,334.031898L348.921914,333.170693L346.651568,332.226326L350.750216,336.400532L347.381782,334.540989L345.312931,333.695171L345.288308,334.540701L346.429193,336.398109L350.509621,340.859136L349.188168,340.655382L347.990122,340.540623L346.296135,339.955125L346.551018,341.138714L339.572716,335.558390L339.706086,336.567271L345.705476,343.254742L340.888563,339.529994L342.104228,341.676285L344.186571,344.744933L344.542401,346.123088L343.039805,345.598600L344.895848,348.580013L343.105059,347.739107L340.766202,346.265188L337.096851,343.271216L334.435750,341.300654L334.050108,341.834815L334.685668,343.544943L336.047235,346.138934L338.576282,350.177269L338.542077,351.246224L336.614522,350.027833L337.248813,351.925629L334.804981,350.006302L333.211063,349.098180L332.455393,349.233020L330.943497,348.367626L330.537863,348.936403L331.409945,351.237115L329.147183,349.294594L327.126484,347.617439L327.070947,348.656550L325.963487,348.205281L326.338663,349.891222L329.716758,356.067602L333.137173,362.490491L332.399427,362.747697L332.973781,365.037665L331.739502,364.533948L329.661298,362.647399L328.232053,361.743825L320.377431,350.155899L318.856610,348.836290L318.573512,349.580479L318.138076,350.074031L319.972389,354.590704L322.307955,360.153331L319.554225,356.578132L317.639601,354.429990L319.633354,359.603711L318.321858,358.573864L315.622476,354.770342L315.078341,355.126809L315.133984,356.706800L314.786518,357.498874L316.495910,362.654773L316.090841,363.444206L317.605923,368.464864L317.073649,369.090725L317.143747,371.102936L315.220471,368.547216L312.643236,364.324194L310.346936,360.596451L309.250693,359.668923L308.097950,358.548957L308.435025,361.211957L308.553857,363.405905L306.666324,360.283159L306.115259,360.689356L304.474132,358.033042L302.923189,355.502278L303.677717,359.645979L301.812852,356.062118L301.644928,357.548092L301.347228,358.687353L299.806448,355.825425L300.746464,361.098908L300.631116,363.022824L299.986588,363.175404L299.896727,365.339052L298.334917,362.122153L298.807290,366.524053L299.207911,370.899983L297.123847,365.388165L295.061279,359.601048L295.159139,362.832774L295.230955,366.158467L293.655808,362.026043L293.218864,363.085128L293.633997,368.489251L293.490278,371.392335L292.656562,370.777408L291.819360,370.080136L289.802673,362.350785L289.642625,365.360765L290.007743,372.044855L288.915596,369.493448L287.614284,365.167353L286.847038,364.380023L285.892126,361.991472L285.803243,366.642465L285.076128,366.126732L284.181544,363.906109L283.753674,366.200349L282.934417,364.448706L282.643828,368.865904L281.886869,367.850004L281.198870,367.633472L280.465035,366.585306L279.920803,368.852879L279.164574,367.144703L278.420064,365.082932L277.669407,361.839945L277.062754,362.716048L276.486276,366.207283L275.827739,366.194761L275.167088,364.900660L274.520760,364.422896L273.889126,363.321280L273.233428,364.232740L272.563294,365.184500L271.771693,369.274443L271.137462,368.136333L270.741202,362.441820L269.976682,364.795209L268.821685,372.780796L267.716912,378.400974L267.078578,376.958257L266.207694,378.489598L265.773465,375.035270L265.217396,373.300851L264.451978,373.753514L264.139465,370.169757L264.477444,361.651449L263.739878,362.446246L262.682023,365.499745L261.178823,371.335313L260.894853,368.508428L260.672154,365.548587L260.059339,365.199119L259.343434,365.466026L259.206930,362.491824L259.194142,359.086274L258.103126,361.448917L257.345353,361.986166L256.763834,361.638586L255.391154,364.934532L254.652194,365.191126L253.926686,365.363789L251.878832,371.006749L253.356055,362.105940L253.118131,360.424085L251.250591,365.007105L250.786674,364.151779L251.042474,360.757927L249.679931,363.174338L245.765279,374.104616L245.984524,370.807685L245.028434,371.449614L244.291870,371.360054L244.443025,368.546420L244.064532,367.439234L244.889222,362.862590L243.028205,366.142609L241.928111,367.143982L239.700542,371.161739L240.116144,367.950119L240.243551,365.616971L238.434050,368.314727L239.223500,364.395212L238.369965,364.646736L240.939215,356.670330L238.048326,361.832528L238.917380,358.120075L236.614246,361.706829L236.265661,360.815503L236.092249,359.566543L235.092975,360.115127L233.542412,361.786935L232.888165,361.544885L231.649781,362.479375L231.892464,360.434111L233.068452,356.633017L232.214373,356.836960L229.985780,359.606663L231.078916,356.134331L230.042993,356.634992L226.907974,360.855307L225.142621,362.519262L223.635055,363.671394L223.891532,361.778458L225.922241,356.971620L227.502262,353.048844L228.303561,350.499621L220.552452,361.627802L222.439750,357.300542L219.487549,360.555559L219.595241,359.054637L225.058204,349.589515L219.618284,356.436554L220.526673,353.870518L220.937734,352.079607L219.668333,352.690572L218.560621,353.047544L220.556011,349.155069L220.862179,347.633228L215.563571,353.552337L219.679487,347.026283L218.020937,348.087567L217.332985,347.879026L217.320403,346.823432L215.552855,347.939752L214.351642,348.326458L219.422375,341.216714L213.597262,347.093737L208.235223,352.252783L205.027681,354.792730L205.374025,353.251145L207.956064,349.262906L206.249176,350.057255L207.341056,347.803173L211.924964,341.895912L213.293174,339.505626L206.793433,345.277598L207.920985,343.124989L210.460285,339.606655L210.208634,338.928997L204.301810,343.757230L200.657921,346.264228L201.323933,344.612349L197.335359,347.327095L200.044813,343.800364L195.842747,346.611591L205.525425,336.945955L208.082930,333.804145L205.014547,335.610929L207.164318,332.897565L207.395189,331.862254L202.973972,334.698624L203.377581,333.497167L207.280290,329.499574L204.056320,331.255322L202.692577,331.491475L202.537606,330.775001L200.845071,331.230120L201.611823,329.818964L201.021908,329.432172L201.600035,328.194491L201.065090,327.772471L202.069402,326.265104L194.678444,330.598586L196.346255,328.608571L191.529780,331.013327L189.795267,331.289639L190.274932,330.098481L188.382116,330.443967L190.571680,328.187301L193.841857,325.312620L191.838345,325.727425L190.460110,325.734552L192.885378,323.476408L192.510550,322.898188L192.801434,321.939253L187.756682,323.988411L186.985052,323.589477L187.557049,322.453457L186.645850,322.125622L191.749899,318.634389L188.798752,319.391060L191.330498,317.326042L187.976886,318.236543L184.759145,319.026011L177.826223,321.543102L176.715137,321.206124L174.482409,321.372900L177.145545,319.290498L174.214604,319.743454L178.089038,317.188725L176.084726,317.214663L183.151945,313.417251L191.066818,309.397033L187.182007,310.250950L190.873693,308.066053L182.168897,310.716121L181.500016,310.200840L184.584958,308.296335L183.148945,308.074276L189.154539,305.213595L188.593250,304.711987L181.600157,306.364647L177.038728,307.111514L174.695341,307.079781L177.319412,305.465164L185.796619,302.116340L188.972496,300.474095L183.833270,301.281694L174.373639,303.223693L175.780321,302.058209L176.377921,301.131954L178.705435,299.772807L189.692084,296.291094L184.329675,296.935475L177.158492,297.924127L173.527935,298.003443L178.696734,296.102053L187.992338,293.408065L186.368660,293.084235L182.673031,293.145156L180.548041,292.855709L182.369378,291.819843L181.578597,291.267805L180.691473,290.721812L187.716557,288.903953L188.488704,288.141412L182.900573,288.310912L187.201591,287.043012L181.093008,287.191024L178.310448,286.843262L176.354199,286.360818L174.016022,285.892153L171.575740,285.400758L174.520557,284.372561L175.568208,283.551391L183.174149,282.229981L185.539644,281.394382L182.568977,280.936495L175.178698,280.688007L174.858785,279.981377L175.398971,279.234075L185.026440,278.174413L185.524052,277.510388L185.341303,276.867989L181.580041,276.271864L182.853575,275.589364L184.333814,274.925479L180.986455,274.244142L178.260111,273.523877L177.981115,272.819107L184.498942,272.311957L183.940088,271.637375L180.703043,270.836102L182.948814,270.269344L175.087462,269.142004L176.614706,268.518669L183.392044,268.300737L182.600083,267.571966L180.230041,266.692577L184.743093,266.431298L183.481706,265.644564L184.405843,265.077813L184.853022,264.467790L178.319689,262.996525L181.040738,262.645099L184.175210,262.389724L187.328970,262.181950L187.956781,261.631362L185.915615,260.658966L188.103935,260.367037L189.417953,259.952299L190.579375,259.527533L188.998182,258.595279L184.979243,257.154341L183.007836,256.072457L184.038317,255.599114L186.229248,255.395490L184.829823,254.402762L181.919848,253.029980L177.331674,251.201512L174.604211,249.767896L176.078870,249.378034L174.215822,248.117770L178.267381,248.449121L178.314213,247.710040L182.159134,248.070305L186.977240,248.777618L190.821875,249.260015L184.490161,246.607948L184.290070,245.824386L182.655955,244.561600L180.445406,243.074518L189.806215,245.548412L187.977652,244.211331L184.969996,242.414174L186.851974,242.373865L188.157059,242.142309L190.726388,242.417173L191.750071,242.120314L190.527928,240.930794L187.301590,238.891434L188.404843,238.612508L190.262147,238.671137L186.608956,236.347330L183.499854,234.198523L182.992265,233.173455L183.343905,232.532397L186.890121,233.400397L189.625641,233.935763L190.874043,233.785934L190.846823,233.016731L189.588689,231.616345L192.481464,232.333659L185.346987,227.821588L184.996691,226.804554L186.193162,226.617243L191.784762,228.881602L195.841579,230.380067L197.852955,230.777073L199.752192,231.141172L196.664605,228.580842L196.557639,227.749170L197.084689,227.296856L196.341014,226.057510L195.699447,224.860757L195.653606,224.026432L191.143517,220.270022L193.141347,220.727412L193.007117,219.782355L192.844960,218.807018L194.492783,219.076925L201.485675,223.143810L198.173614,219.972826L201.859215,221.809742L199.949950,219.588702L196.629783,216.258629L197.224698,215.823012L200.533989,217.487616L204.836347,219.997405L198.437090,214.083604L197.888076,212.732609L198.560171,212.358484L196.949222,210.091032L198.222718,210.207005L199.699194,210.516718L207.556612,216.396329L207.334166,215.340457L206.031849,213.301785L205.363496,211.793122L203.346774,209.013109L199.508393,204.464518L201.158200,205.000953L204.754683,207.440991L202.843681,204.593498L205.470191,206.169692L201.709782,201.392162L201.519211,200.127623L203.878143,201.477146L203.476748,199.986231L212.413845,208.403595L213.993144,209.137900L212.396484,206.427965L212.723168,205.789101L208.711422,200.252621L211.867318,202.767645L214.642732,204.928775L215.875041,205.349009L214.359076,202.509072L218.752155,206.765872L220.169596,207.498561L218.849469,204.844674L213.788348,197.379417L215.214682,198.052294L220.965261,204.407861L220.131400,202.236316L220.172567,201.188649L217.781336,196.796547L217.576375,195.315851L217.693905,194.256588L219.189021,195.148259L222.916827,199.324393L224.338757,200.240721L226.982393,203.028683L227.923298,203.323731L226.384854,199.804114L226.523559,198.818238L226.895567,198.184315L226.126161,195.688785L227.971539,197.435454L228.723304,197.417743L229.451738,197.370819L228.976825,195.248138L229.618901,195.033014L231.166949,196.445355L231.873959,196.384200L233.142628,197.373382L232.234577,194.300436L229.435744,187.498271L232.686143,192.288440L233.118648,191.655666L233.050004,189.995289L233.713184,189.794909L236.056845,193.131009L237.536230,194.752998L237.042731,192.140897L236.393946,189.092379L236.211007,186.991770L236.542227,186.008300L238.698650,189.304962L238.995318,188.267580L236.882987,181.274374L237.129198,179.918928L236.944291,177.411528L239.108564,180.961859L242.100696,186.897855L243.722108,189.358762L244.220557,188.797759L243.505894,184.744425L245.037063,187.097910L246.944581,190.706558L247.145280,189.248876L247.537934,188.333682L248.673555,189.786465L247.520099,183.722086L246.961918,179.372967L248.408064,181.819398L250.924780,188.270858L252.086144,190.081135L251.567060,185.596770L253.002110,188.531924L252.490839,183.771465L254.378781,188.751253L255.064603,188.875819L255.758191,189.053309L255.726588,185.900470L256.619035,186.955664L256.151950,181.344277L256.755627,180.834963L256.910157,177.884016L258.425452,182.307501L259.105490,182.252009L260.344415,185.610724L260.499241,182.372520L260.949524,180.804394L262.442991,186.440758L262.738562,183.793961L263.499825,184.515448L264.055577,183.619561L264.220890,179.145259L264.808607,178.076930L265.494205,177.860469L266.279687,178.722984L267.572090,185.832482L268.129084,184.639865L268.487091,180.313016L269.032005,178.014806L270.035462,183.560411L270.815283,186.070842L271.135786,177.970899L271.884050,179.412933L272.641652,182.057061L273.320885,182.501624L273.964821,180.321090L274.662872,184.261349L275.317893,184.236926L275.994768,182.209911Z" />
<line x1="50" y1="625" x2="100" y2="625" fill="none" stroke="green" stroke-width="1.0" stroke-linejoin="round" stroke-miterlimit="10" />
<text x="125" y="628" style="text-anchor:start;fill:black">n0_4mer:PS</text>
<path style="stroke:red;stroke-width:1.0" d="M277.042677,133.489106L277.994784,136.704293L279.092396,133.283556L280.136870,132.715413L281.255327,130.641808L282.140517,133.787373L282.926777,137.869724L283.324450,147.029527L284.349021,145.694180L285.916262,137.793899L286.994962,136.855067L288.443739,132.142155L289.147318,135.469769L289.240966,143.976228L289.896593,146.579831L290.137772,152.248059L290.565515,155.864819L291.655754,154.308119L293.185219,149.899588L294.133116,149.736670L295.031895,149.908244L296.124701,148.919401L297.671428,145.433214L298.109052,148.324399L298.395784,151.796188L298.790655,154.469842L299.665106,154.619716L301.182906,151.742998L301.293957,155.471420L302.619934,153.625563L303.126357,155.396787L305.174057,150.721530L305.474341,153.322016L305.780751,155.757289L306.694329,155.780493L307.583604,155.904143L309.479669,152.455709L309.601110,155.343416L310.742633,154.657658L311.534451,155.167552L312.842951,154.013159L314.257213,152.599547L314.895994,153.627318L316.218525,152.589348L316.924779,153.401085L316.681335,156.880834L317.977839,155.952006L318.583402,156.949430L318.269254,160.354038L319.161673,160.498039L321.420803,157.180584L322.022513,158.133746L323.351160,157.292164L322.967169,160.583659L325.458395,157.036496L325.751756,158.679809L326.098684,160.153409L325.856107,162.884487L328.247683,159.829081L327.725672,163.085906L329.286757,161.897024L331.235045,159.973565L330.736468,163.048527L332.382338,161.798015L334.750671,159.205942L336.606851,157.694292L337.067337,158.861639L337.056219,160.871765L337.229171,162.496285L337.214406,164.415083L338.426289,164.141076L341.053200,161.458831L343.433867,159.296120L344.782244,158.936442L343.400338,163.072263L342.226156,166.757347L340.784704,170.764495L343.310908,168.473121L344.058524,168.998855L345.435375,168.572974L343.495981,173.109015L342.909715,175.539188L344.950929,174.120948L346.607968,173.306675L347.082044,174.187079L347.175654,175.580740L352.021424,170.500779L350.894689,173.570575L352.485415,172.987979L354.854470,171.429613L357.837702,169.149236L359.303694,168.863384L358.880147,170.947605L354.798172,177.460568L353.988599,179.859652L354.032509,181.192759L354.949436,181.482672L355.675803,182.000525L357.032317,181.804331L354.978441,185.449315L357.136282,184.358609L360.104362,182.434775L362.881743,180.787861L364.120313,180.831992L363.402517,182.930711L364.950809,182.661591L366.665275,182.250476L367.707856,182.539982L367.590890,183.980164L362.704137,190.020011L361.851088,192.053551L362.328684,192.794433L364.302967,192.143518L365.937366,191.840388L368.270176,190.935191L371.848376,188.968865L367.862398,193.701177L366.817366,195.779411L368.280338,195.684389L365.703773,198.996375L365.141054,200.568695L367.863437,199.441375L374.752624,195.025652L375.887504,195.305162L377.570844,195.170936L377.209506,196.630146L372.909726,201.043042L371.632603,203.097235L371.861136,204.007604L372.767963,204.422017L373.470174,204.990632L374.286231,205.483816L374.932342,206.100933L376.384815,206.173810L378.252659,205.989222L380.567180,205.539338L385.007964,203.749819L381.262134,207.259596L380.262251,208.960646L380.983506,209.569418L383.279248,209.226747L385.143229,209.178086L386.208950,209.625891L381.243189,213.572504L387.633126,210.958218L387.237785,212.250651L387.567103,213.128709L384.116263,216.046898L386.462180,215.814778L383.875307,218.191956L381.995264,220.151756L387.826825,218.186949L388.878496,218.684035L390.525205,218.903776L391.962853,219.245327L390.639288,220.897078L386.841714,223.654464L383.205873,226.266155L381.950093,227.757267L384.651491,227.506866L390.309852,226.041425L392.637734,226.052151L389.847573,228.182674L389.249472,229.385345L386.958653,231.234197L386.890589,232.189213L391.074777,231.546111L390.906514,232.560381L389.260483,234.095907L391.593701,234.207607L391.938174,235.032067L392.997588,235.618822L392.221692,236.815853L392.124866,237.780300L391.718229,238.834934L391.239039,239.900911L396.235067,239.345103L397.538445,239.920720L394.806403,241.636516L394.212188,242.727324L402.323342,241.515939L402.240524,242.517787L402.941927,243.320577L402.155628,244.487601L401.249918,245.667002L401.343908,246.604722L401.146885,247.603961L401.001934,248.586316L401.824124,249.368149L404.839099,249.732832L406.577034,250.378918L408.402673,251.032559L407.577099,252.167422L408.221500,253.045314L402.648656,254.908965L394.600077,257.059400L392.954395,258.175861L396.605264,258.549799L394.307941,259.736628L394.004897,260.647616L394.287811,261.486268L395.523282,262.226677L399.464291,262.716768L405.405239,263.080207L406.539796,263.933245L403.346790,265.134267L397.767662,266.453990L395.505196,267.485054L399.833547,268.119264L405.656391,268.743868L412.510804,269.410135L407.613821,270.567694L401.213852,271.693396L400.857122,272.611618L399.830817,273.532313L399.221102,274.436146L400.522353,275.336238L402.938891,276.266186L402.722462,277.186090L404.039080,278.140405L404.267910,279.079735L398.390145,279.785940L401.785946,280.834416L399.459103,281.627875L397.967444,282.438867L395.274949,283.147677L392.716072,283.828313L393.284601,284.729986L395.761138,285.811766L398.258544,286.932739L395.998270,287.596077L398.747541,288.785836L397.211666,289.508514L398.550827,290.572617L395.164674,291.027738L394.990311,291.886818L393.271186,292.516341L396.024067,293.817708L394.802922,294.514463L398.062438,295.958294L398.083696,296.877214L396.177567,297.441853L396.653403,298.439393L399.966401,300.014504L394.240211,299.764739L392.368267,300.260980L394.666731,301.660836L393.323225,302.259395L393.773300,303.267383L393.363128,304.074043L397.688388,306.077128L398.230652,307.162755L392.385757,306.543962L388.247366,306.310030L386.919629,306.814257L388.400395,308.121651L391.309020,309.884244L391.278411,310.791834L395.612637,313.081137L395.873192,314.125017L395.452119,314.951474L394.388035,315.557367L394.631665,316.605638L394.741437,317.615072L393.884444,318.279347L393.884403,319.253712L395.987965,321.033709L400.381921,323.744391L400.353869,324.777959L394.263454,323.358898L391.819175,323.352497L389.658481,323.430450L386.598952,323.090266L385.375901,323.510797L383.221890,323.499088L386.621621,325.993281L385.705126,326.543610L385.159737,327.260430L388.053478,329.636334L384.952083,329.119905L384.143720,329.704158L382.610418,329.911022L381.654630,330.397164L381.626220,331.363334L385.146451,334.245226L386.447278,335.986096L380.648218,333.807574L381.246157,335.148947L378.886716,334.807435L377.567708,335.037886L379.800600,337.364839L379.282286,338.080044L381.391774,340.409577L379.723212,340.429979L376.931965,339.713610L376.376515,340.392354L375.880564,341.108382L380.189293,345.022403L381.561109,347.050933L382.034614,348.502376L373.992908,344.036721L373.163260,344.516592L373.619526,345.914013L375.510505,348.380083L374.253081,348.566135L372.008027,347.992805L369.817036,347.421922L372.407258,350.519776L371.214412,350.713124L370.912485,351.602917L371.276200,353.038192L371.533562,354.408156L369.877383,354.200854L366.462662,352.477339L369.397145,356.140580L374.700733,361.958509L378.664692,366.741651L381.183377,370.346116L375.354236,366.428827L370.010614,362.823765L360.476496,355.162633L360.560692,356.410245L363.672941,360.599434L361.999858,360.205991L363.448216,362.884156L364.266148,364.986560L363.471714,365.482661L360.816870,364.044213L363.761482,368.440042L362.520095,368.475193L362.424172,369.734071L355.993975,364.047302L354.532168,363.718234L353.518329,363.869575L353.484349,365.133954L354.253157,367.354473L355.194802,369.828228L355.370190,371.438829L353.814358,370.972024L353.956883,372.573073L352.923107,372.729720L348.932974,369.110957L349.228772,370.904415L348.713974,371.672885L347.502803,371.521474L348.157112,373.870636L346.234115,372.739336L344.709001,372.111655L344.259432,372.970387L344.380915,374.660553L343.019663,374.224939L344.130486,377.422786L346.728346,382.943815L345.670992,383.036215L345.623752,384.684025L345.297038,385.927504L342.988728,384.017447L341.178513,382.840614L335.935872,375.924405L334.708418,375.524142L334.747940,377.264651L333.914259,377.529628L334.085883,379.568318L335.959803,384.726371L333.332933,381.806744L332.603929,382.305870L333.355595,385.614585L333.424055,387.708094L330.503122,383.991462L330.470128,385.898908L329.094915,385.129173L328.143557,385.195207L328.501116,388.014226L328.541356,390.242780L328.641010,392.672600L327.844410,393.177742L326.738146,392.981626L325.377632,392.171360L323.112609,389.167125L322.322366,389.596259L322.092592,391.414552L322.028706,393.714283L320.890352,393.327924L319.598986,392.507018L316.710058,387.332758L316.100093,388.186925L315.217245,388.298001L314.587291,389.129770L314.498879,391.586036L313.356887,390.962692L312.100646,389.940733L311.608515,391.280536L310.225132,389.772023L309.537544,390.497213L308.584680,390.337091L307.723527,390.478361L307.874213,394.285769L307.640420,396.864742L306.436463,395.853423L305.781786,396.942478L304.498309,395.516924L302.746371,392.010089L301.852048,391.993578L301.666547,395.156541L299.842965,390.888037L299.462421,393.271671L299.274026,396.786032L298.202231,395.956387L297.573603,397.449727L296.510653,396.600100L295.068355,393.423650L294.055645,392.593846L293.929662,397.405240L292.688302,395.111902L291.596222,393.630381L290.988821,395.627715L289.809827,393.280728L289.011249,393.855550L288.329005,395.545187L287.527748,396.307850L286.464266,394.440712L285.541048,393.834581L284.814270,395.518837L283.917738,395.230534L282.942798,393.694038L282.040022,392.979589L281.267598,394.539859L280.459199,395.789378L279.740851,399.871875L278.845391,400.096537L277.998489,402.507029L277.042039,400.312378L276.103773,396.606331L275.224963,396.039965L274.365864,393.325439L273.487789,395.230013L272.666474,392.870568L271.744705,395.481136L270.787227,398.023241L270.001876,395.518403L269.274786,392.550338L268.444150,392.190266L267.271744,397.310870L266.006463,402.684914L265.139616,401.915032L264.137926,402.851752L263.486129,399.834859L262.501574,400.590891L261.710786,399.417319L260.971552,397.929855L260.451660,394.803087L259.520251,395.215927L258.250618,398.057130L257.022472,400.305594L255.945851,401.317254L255.246634,399.836588L255.177809,394.669685L254.217181,395.086296L254.037646,391.129075L253.355451,390.147784L252.407520,390.589158L251.218796,392.172310L250.037572,393.594521L248.333773,397.302696L248.031961,394.535141L247.275288,393.885434L245.307495,398.293114L246.297459,390.513221L245.768174,389.117400L244.014995,392.429053L243.170905,392.192510L242.329987,391.944989L240.971603,393.500126L238.117355,400.030792L238.419090,395.788378L237.767660,394.815055L237.465925,392.779411L236.816322,391.894632L236.183999,390.987299L235.443737,390.424308L234.277430,391.088611L233.628376,390.268475L231.323057,393.983436L230.841697,392.662439L230.444683,391.164569L228.794319,392.914902L229.486829,388.724360L227.660276,390.857158L226.844914,390.465388L225.293892,391.804100L224.608491,391.082092L224.634881,388.766156L224.763365,386.298713L224.278946,385.242922L222.793963,386.346900L221.734466,386.505581L220.181313,387.658994L218.534050,388.946507L218.785919,386.409756L219.397621,383.247613L219.463638,381.225557L216.291078,385.346596L216.668763,382.753850L214.955261,384.031988L212.612211,386.376527L211.999273,385.590994L209.732881,387.670742L208.911003,387.214305L210.397597,382.901497L211.818281,378.820946L210.260454,379.672034L207.224374,382.833205L202.572096,388.409959L199.065668,392.029677L200.125839,388.591693L202.082765,383.903997L204.444580,378.748866L203.877272,377.976753L203.030447,377.611031L202.232535,377.171980L201.792825,376.234994L203.028806,373.027880L205.206226,368.637812L201.239707,372.483033L199.540881,373.246373L199.946824,371.271397L200.244383,369.475439L199.567626,368.929436L198.121620,369.327323L198.261861,367.779692L198.922013,365.641411L196.629670,367.015602L190.932339,372.273758L187.972934,374.241061L187.180938,373.697966L186.501608,373.027474L187.708120,370.299060L189.376319,367.133801L189.430747,365.752754L192.014077,361.749867L187.767367,364.881374L187.940268,363.417269L188.230633,361.859364L185.761874,363.050372L185.837912,361.714217L181.636007,364.498612L181.211164,363.615767L178.797577,364.590857L180.317459,361.907838L176.323094,364.270534L183.625213,356.472947L185.617646,353.545771L184.016069,353.796668L185.354273,351.512377L184.390672,351.211301L181.860159,352.198764L179.298925,353.163260L179.873508,351.556046L179.439307,350.775567L179.787008,349.386863L179.632458,348.405313L177.938885,348.599399L177.062910,348.156332L176.742819,347.296428L177.173305,345.897054L175.203055,346.231998L176.014071,344.580176L173.287883,345.405133L169.567102,346.860620L165.269682,348.635365L164.115576,348.254665L165.723046,346.065085L164.405480,345.791373L166.723644,343.210845L166.403178,342.322766L158.179295,346.258966L154.353499,347.403054L151.761252,347.754056L150.630746,347.216045L151.166733,345.714628L154.176850,342.843982L155.150224,341.164192L159.946878,337.436918L160.394654,336.127273L162.919501,333.745444L164.234869,332.040724L164.294759,331.002660L161.573363,331.354864L161.339147,330.451979L156.259742,331.872751L153.955529,331.905974L153.955449,330.842831L154.907518,329.355785L153.436966,328.967641L155.697128,326.936705L155.147136,326.150324L159.561071,323.284597L164.788484,320.166274L161.408071,320.596845L162.695642,319.141506L158.596107,319.785588L157.846350,319.105964L159.143773,317.665332L157.768868,317.213287L161.176094,315.060701L159.120038,314.846700L157.912086,314.319350L153.575255,314.802794L152.154520,314.288863L152.847825,313.097498L159.992470,309.960371L159.127015,309.311810L157.779849,308.792417L150.370096,309.956209L150.785240,308.874620L152.027781,307.584026L152.062501,306.626987L159.190033,303.903776L155.713007,303.858580L149.122539,304.492911L148.644378,303.644478L151.564323,302.047330L158.751422,299.594517L156.823078,299.112681L156.742189,298.241383L155.014107,297.682782L155.069273,296.776989L152.121823,296.397218L152.931367,295.349592L158.352664,293.581520L160.021528,292.465690L156.365385,292.145980L155.714220,291.362028L151.477569,291.035706L148.024217,290.552947L145.498688,289.914379L146.428751,288.867722L144.261774,288.147560L144.373390,287.184640L147.784532,285.940859L153.153796,284.593658L153.743912,283.667054L152.468193,282.869755L148.224334,282.223918L143.708590,281.530898L145.702908,280.496465L150.875248,279.379323L153.512962,278.408509L152.140400,277.559711L148.392496,276.723696L141.835482,275.851713L144.015471,274.892341L145.161954,273.956117L145.514510,273.024223L145.756473,272.094727L154.038668,271.407232L153.400146,270.509607L151.759559,269.558036L153.329939,268.747183L149.880757,267.664104L151.371967,266.855753L153.036095,266.080815L155.375880,265.383411L155.555090,264.529600L158.766199,263.965135L156.687668,262.905550L154.202800,261.769870L156.175576,261.117297L151.815216,259.705826L154.436673,259.146874L155.029054,258.343019L157.922682,257.882568L159.168291,257.209847L158.529378,256.250259L160.191495,255.666689L161.263217,255.001914L159.830437,253.891920L159.680217,253.002921L155.314867,251.273694L152.637056,249.823617L155.575065,249.528291L154.790982,248.452530L154.483590,247.470885L154.794619,246.627522L152.351758,245.114747L149.321213,243.413614L152.139341,243.177358L151.209357,241.981240L150.609956,240.857794L152.651022,240.466499L155.009520,240.195208L160.234372,240.810796L164.010050,241.061496L160.661999,239.133286L159.346056,237.801484L158.692475,236.662770L158.136326,235.542064L160.660559,235.472726L159.261346,234.051449L159.449625,233.177227L159.056239,232.085859L159.941366,231.466686L161.956665,231.293894L164.935979,231.530048L158.768438,228.121582L161.660972,228.334276L160.848881,227.033426L164.324362,227.551073L161.249464,225.257835L160.978018,224.155652L160.433396,222.918235L161.029768,222.193446L164.074743,222.628498L166.450174,222.788589L165.868125,221.535309L166.297931,220.769508L166.969536,220.127217L168.229104,219.793938L163.688652,216.424248L163.853584,215.482732L163.475502,214.240460L166.392522,214.809066L170.508205,216.100178L170.745802,215.238465L170.113628,213.866082L170.702388,213.196426L170.054720,211.784774L169.582978,210.459111L169.518978,209.368542L171.120447,209.320229L170.618953,207.943715L169.704908,206.277847L170.420437,205.663365L171.020902,204.975863L171.470095,204.186888L172.000655,203.453120L178.224712,206.735785L177.625420,205.255109L176.407362,203.300361L170.978625,198.198459L164.553657,192.216389L168.457644,193.934989L172.641674,195.945525L180.049890,200.566840L178.406706,198.146660L177.821246,196.528770L177.999664,195.509398L175.446986,192.209238L178.822051,193.834619L179.356156,193.096109L184.580711,196.431850L183.983457,194.752627L181.615627,191.459278L181.480910,190.115646L181.863437,189.228674L181.568274,187.702192L183.307411,188.079125L184.481162,187.942767L182.885368,185.119181L184.148993,185.062994L182.346513,181.944978L182.702660,180.954722L186.500510,183.512864L186.631755,182.319160L191.165597,185.793851L192.445830,185.875737L191.234522,183.248455L191.373628,182.062447L192.175183,181.606263L193.864956,182.170499L190.802799,177.252020L193.437866,178.917338L193.498697,177.572310L196.318984,179.552246L199.363560,181.884353L198.903162,179.923455L197.055633,176.161185L197.614612,175.399827L200.148843,177.212848L202.922973,179.415457L203.033935,178.115790L201.347129,174.335140L201.345146,172.792513L200.948412,170.662444L202.930444,171.886247L206.767304,175.859521L208.737699,177.218706L209.731043,177.171453L208.845867,174.277535L209.923441,174.342286L211.470253,175.161647L212.898952,175.833785L212.308056,173.265118L214.492888,175.204969L214.389225,173.386852L214.453220,171.808425L214.952357,170.945656L214.313054,168.062259L215.076542,167.609210L215.473049,166.486471L217.552724,168.461114L215.882734,163.444044L216.439788,162.540800L219.025176,165.585134L221.144442,167.826870L221.057275,165.694013L221.367283,164.316228L222.734930,165.124759L223.458149,164.597896L225.284308,166.472761L224.183405,161.921029L223.084013,157.207974L224.271375,157.613418L224.738039,156.348747L226.610502,158.433542L226.062173,154.667160L227.316931,155.283569L226.979793,151.858987L229.377335,155.465337L231.313482,158.010415L234.218159,163.336229L234.210619,160.763495L233.767693,156.836761L234.562404,156.368465L236.711306,159.960343L237.489061,159.522075L237.650345,157.129879L238.736903,157.623473L239.518883,157.145050L239.231189,153.006446L240.756397,155.007252L242.688685,158.600958L244.033182,160.236820L243.839574,156.114249L244.858152,156.520106L245.308510,154.661835L245.255250,150.591864L244.691127,144.060703L243.463308,134.136203L244.235017,132.775803L245.532280,133.850399L248.307526,142.365436L251.401526,153.200737L252.124366,152.191322L252.483543,149.077611L253.566142,149.928683L254.617946,150.683087L255.932220,153.199450L256.844190,153.281884L258.116239,155.926015L258.857893,154.927819L259.451054,152.659306L260.453949,153.547775L260.965643,150.197521L261.692945,148.446092L262.700593,149.312601L263.593829,149.069656L265.011503,155.094198L265.606161,151.460634L266.337102,149.055721L266.957259,144.298346L267.690718,140.373635L268.564803,138.246011L269.263650,130.962203L270.479878,136.337549L271.609534,141.381097L272.641614,145.082268L273.544149,141.845817L274.497697,139.804015L275.491753,134.597157L276.535033,131.814993Z" />
<line x1="50" y1="600" x2="100" y2="600" fill="none" stroke="red" stroke-width="1.0" stroke-linejoin="round" stroke-miterlimit="10" />
<text x="125" y="603" style="text-anchor:start;fill:black">n0_4mer:D</text>
<path style="stroke:black;stroke-width:1.0" d="M277.478979,103.263296L278.762038,101.273383L279.965329,103.054551L281.191370,103.507151L282.447397,103.131651L283.777983,101.404439L285.122342,99.887265L286.565337,97.207868L287.689620,99.490521L288.674481,103.125943L289.930885,103.042298L290.990089,105.083763L292.445600,102.939922L294.047701,99.751948L295.469112,98.540399L297.068127,96.049923L298.556757,94.701529L300.009592,93.774058L301.315181,93.971663L302.649422,93.980940L304.026411,93.740827L305.391776,93.609822L306.898447,92.700975L308.363721,92.111952L309.883465,91.301267L310.869517,93.274921L312.037191,94.236637L313.153892,95.389136L314.164576,96.963420L315.742611,95.958604L316.916485,96.756289L318.243201,96.893393L319.597455,96.931229L320.956536,96.967244L322.494074,96.349113L324.085804,95.587192L325.582639,95.224096L326.684417,96.266404L327.884135,96.943707L329.065836,97.664876L330.572035,97.331905L332.280566,96.404357L333.814070,96.074231L335.008227,96.787745L336.101431,97.780994L337.116872,98.969337L337.664133,101.421254L338.941323,101.807701L340.114667,102.472559L341.272751,103.168650L343.162004,101.999817L344.525560,102.206349L345.291159,103.880626L346.094239,105.418539L346.736221,107.292408L347.889825,107.940591L349.357979,107.877096L351.063226,107.313796L352.345005,107.708303L353.518487,108.338771L354.903282,108.526638L356.459662,108.377665L357.994477,108.298481L359.246391,108.801497L360.673079,108.969506L361.892460,109.547923L363.113846,110.124269L364.636003,110.149499L365.490708,111.402437L364.413383,116.069423L364.074389,119.312334L363.555015,122.779670L363.263979,125.768555L365.015178,125.284524L367.566719,123.527306L369.706323,122.510788L371.731923,121.728797L373.402536,121.546982L373.818313,123.319168L375.572890,123.035543L377.420370,122.644895L379.708700,121.643262L380.962456,122.187274L381.652389,123.538698L382.197473,125.075140L383.475097,125.579615L385.403734,125.209154L385.118876,127.831675L384.870039,130.352587L383.834907,133.842299L383.425539,136.452866L383.769562,138.061359L385.437717,138.003233L388.030604,136.839680L390.198759,136.245166L393.718438,134.087744L395.707255,133.808010L396.764156,134.635701L397.427173,135.912349L398.094778,137.172586L399.044399,138.110959L399.936121,139.111076L401.433850,139.458724L401.205804,141.646012L402.424784,142.289873L403.213585,143.383191L404.608397,143.858549L407.109474,143.243697L408.110505,144.148074L409.949318,144.242297L410.256717,145.824135L410.939770,147.035106L412.428045,147.492430L412.283828,149.457878L413.464970,150.200930L414.053694,151.477567L413.041577,154.147880L414.639091,154.518532L415.647916,155.408073L416.018738,156.835839L417.986176,156.933401L418.175217,158.505039L418.475853,159.971569L420.312794,160.211953L420.733022,161.578581L421.766130,162.466044L422.744129,163.400195L422.492663,165.253084L423.472526,166.180087L423.950000,167.474075L423.998801,169.066280L425.046265,169.943703L425.265419,171.398433L427.198757,171.678210L428.584954,172.348725L429.656057,173.240039L430.701293,174.155071L430.276058,176.014006L431.272396,176.957938L431.550460,178.351115L433.088063,178.970831L433.970221,179.998933L434.436225,181.275519L433.853105,183.154597L430.251755,186.725801L431.168561,187.690048L431.674159,188.885743L435.206339,188.444061L440.033721,187.368865L440.961175,188.406172L441.926737,189.429498L441.222440,191.300011L440.186134,193.311034L439.804294,194.975051L440.321174,196.193544L440.998906,197.335860L442.043683,198.311731L443.721330,199.011157L444.276837,200.225868L444.743296,201.479421L446.017500,202.388919L446.017730,203.841285L445.971201,205.304017L446.167923,206.660378L445.806742,208.229866L444.976498,209.964793L444.657039,211.486993L445.251911,212.661603L446.250611,213.694020L445.862627,215.220652L447.070406,216.188594L448.415375,217.123379L449.529917,218.148099L451.246302,218.992812L451.013057,220.462470L450.289098,222.070385L450.462672,223.396915L451.131027,224.578684L452.369527,225.606435L453.916068,226.564513L454.176369,227.879399L455.069007,229.031627L455.699481,230.257394L454.777754,231.860340L454.865251,233.209976L454.893854,234.569590L454.521278,236.012339L455.422020,237.178277L455.359454,238.548365L454.881572,239.994382L455.485907,241.226946L455.392748,242.590210L455.917658,243.842156L456.828604,245.034943L457.373585,246.295631L458.107634,247.532955L458.684779,248.800567L458.497433,250.177311L458.163396,251.567435L457.310002,253.012812L456.581981,254.429163L456.203584,255.795644L453.587987,257.375365L450.548331,258.953867L451.132962,260.181517L451.609273,261.424437L454.733203,262.488547L458.225135,263.573713L460.137779,264.795338L462.429342,266.025447L462.139481,267.392711L461.614763,268.762839L459.155465,270.175417L456.560635,271.554537L455.955739,272.872429L457.416548,274.171990L458.855447,275.492495L459.709669,276.828036L460.916637,278.182138L459.714028,279.495358L457.739992,280.767330L457.019028,282.059981L456.526238,283.353446L456.748345,284.678725L458.246075,286.085399L458.660210,287.441527L458.690292,288.776160L458.735589,290.113925L457.662929,291.353844L457.278823,292.646530L456.189260,293.862037L455.203520,295.075197L454.780813,296.342909L455.341481,297.730636L455.866662,299.124257L456.269668,300.510959L456.600216,301.895573L455.487229,303.063476L455.514413,304.403639L454.595010,305.586140L454.960384,306.986623L455.179650,308.368926L454.676317,309.618874L455.157271,311.062051L454.402678,312.259750L454.630164,313.661507L453.833937,314.842839L454.248286,316.295357L453.921235,317.582257L453.742775,318.905355L453.736312,320.274139L453.743578,321.651428L452.955495,322.820294L452.027329,323.943575L451.717557,325.233707L450.210364,326.174923L450.997967,327.786585L450.994730,329.173205L450.885254,330.532410L451.312435,332.069949L450.480621,333.203288L449.120818,334.150666L447.579411,335.019866L446.140587,335.907640L444.756728,336.799174L446.836949,338.964849L449.151676,341.261530L449.041747,342.661739L448.084090,343.731606L445.347516,344.072444L442.672911,344.401312L442.098526,345.580534L442.422853,347.145925L442.836249,348.764926L442.915513,350.250480L441.606135,351.112436L441.732439,352.629574L439.902749,353.230839L438.737237,354.130714L437.948716,355.205566L437.220278,356.306773L437.275067,357.805085L437.904642,359.613816L438.848069,361.611187L438.548964,362.969201L437.865899,364.123355L436.595760,364.949977L435.931438,366.107828L434.543750,366.849110L433.628503,367.853006L431.750941,368.279496L430.185756,368.871401L429.259230,369.838451L428.549489,370.936132L428.982351,372.758871L429.071168,374.382745L429.050416,375.951297L428.380205,377.102126L427.131802,377.863402L425.849510,378.590763L424.339078,379.147665L424.256834,380.699692L423.520485,381.796129L423.169866,383.174931L423.118407,384.784992L422.272204,385.813627L422.233542,387.458020L421.072217,388.249683L419.985747,389.092303L419.256168,390.213815L418.430541,391.259887L418.707625,393.213368L418.186552,394.527931L417.148399,395.412849L413.971820,394.455458L410.354936,393.055937L407.673742,392.414212L405.306619,392.007298L406.842964,395.116978L408.203379,398.127530L409.116740,400.779033L409.283178,402.769261L407.215182,402.632451L405.808220,403.111060L404.853538,404.025425L404.279864,405.323202L404.000104,406.932255L403.079195,407.895912L401.832519,408.517780L400.523743,409.064710L399.620659,410.040711L399.425028,411.796757L399.076981,413.408030L397.909209,414.112604L396.860884,414.948964L395.977859,415.976672L393.923874,415.624331L393.602100,417.314553L393.143075,418.862494L391.425325,418.875698L390.718969,420.132592L388.618100,419.627052L386.806079,419.454721L385.593766,420.039236L384.769283,421.133564L384.336296,422.766210L383.230096,423.501005L382.264791,424.430650L380.699931,424.517011L379.553721,425.183688L378.459945,425.924104L377.318964,426.594383L376.312080,427.464305L375.291120,428.317120L374.554144,429.615112L373.361971,430.213482L372.609590,431.513421L371.850088,432.821210L371.031541,434.051242L370.206651,435.288401L369.204917,436.241258L367.864272,436.613496L366.738422,437.355744L365.873833,438.571000L363.971779,437.906021L362.651740,438.279596L361.109285,438.222442L359.733334,438.462337L359.515726,440.963503L358.723902,442.385397L357.276577,442.502830L355.989418,442.934670L354.459603,442.848192L353.219715,443.360649L352.194360,444.341721L350.643481,444.164075L349.345220,444.533906L347.828295,444.388477L346.118306,443.757684L345.032014,444.590143L343.660803,444.731930L342.235949,444.723304L341.610390,446.754382L340.772665,448.294294L339.598492,448.975464L338.861668,450.870790L337.720261,451.692366L336.443311,452.140460L335.167172,452.591167L333.989801,453.341278L332.593522,453.429284L330.985062,452.826743L329.722108,453.297903L328.097101,452.562342L326.796647,452.880942L325.463685,453.081771L324.044166,452.959275L322.654926,452.922198L321.331726,453.116336L320.155077,453.882474L319.008415,454.798743L317.986442,456.279468L316.710457,456.731227L315.281216,456.502749L313.839109,456.177568L312.370883,455.681904L310.748117,454.353079L309.626946,455.514978L308.440994,456.399512L307.167852,456.845432L306.082180,458.416390L304.747523,458.574252L303.400744,458.648278L302.065375,458.786642L300.746810,459.039110L299.373444,458.885533L297.978788,458.523262L296.555508,457.852491L295.093650,456.723449L293.739118,456.453377L292.500617,457.330567L291.250426,458.199292L290.033248,459.607684L288.696711,459.661512L287.300081,458.807562L285.952983,458.554610L284.596432,458.029632L283.235614,457.219912L281.872758,456.025352L280.539485,455.208042L279.220721,454.480945L277.936778,455.219229L276.648865,456.660851L275.338017,456.868044L274.016692,458.478425L272.681887,459.304087L271.354414,459.145065L270.007843,459.763799L268.674828,459.710460L267.357344,459.285271L266.005530,459.674831L264.674230,459.580137L263.417143,458.315516L262.086419,458.339375L260.742159,458.515601L259.354468,459.155313L257.909728,460.294912L256.486106,461.037541L255.141166,460.923928L253.852181,460.316175L252.557369,459.811218L251.548147,457.127383L250.517470,454.872296L249.326364,453.948412L248.014922,453.894424L246.544660,454.831004L244.902175,456.705300L243.359084,457.826040L242.055866,457.506783L240.600871,458.001431L239.487152,456.693212L238.634202,454.177832L237.692091,452.246931L236.533588,451.423379L234.977831,452.397234L233.332207,453.674304L231.522657,455.532328L230.057964,455.868981L228.980132,454.655820L227.630404,454.524475L226.627505,453.104157L225.538352,452.052027L224.354891,451.365983L223.369757,450.024597L221.923021,450.257595L220.707671,449.714736L219.235471,449.985353L217.853593,449.946695L216.858185,448.735366L215.390921,448.937986L214.190834,448.349855L212.670941,448.659500L211.126192,449.003140L210.298035,447.402253L208.934490,447.245918L207.820700,446.438674L206.886980,445.194899L205.702893,444.594690L205.072497,442.670891L204.290002,441.161020L203.276732,440.222023L201.655907,440.671713L199.711145,441.801632L198.289717,441.730875L196.822943,441.738818L195.535287,441.350704L194.276514,440.896472L192.848083,440.779979L191.366456,440.751935L190.492158,439.521236L190.193093,437.211940L189.365076,435.955473L188.467441,434.849454L187.364191,434.133116L185.588610,434.619859L183.813846,435.067477L182.911554,433.972445L181.703091,433.411357L180.395184,433.012718L179.237659,432.357809L178.854057,430.450447L178.772370,428.101260L179.479890,424.568484L179.634485,421.976935L178.431646,421.503983L175.644847,423.389790L172.333773,425.966497L170.181122,426.764535L168.349056,427.058237L167.718471,425.632790L166.699971,424.763365L165.888191,423.615006L165.124688,422.412631L163.950417,421.765282L163.335671,420.384885L161.943344,420.018810L160.030759,420.297034L158.844137,419.638888L158.379759,418.089319L157.342050,417.253493L156.519298,416.161174L155.754809,415.007296L153.962627,415.051002L153.128025,413.976352L152.344173,412.850263L151.779651,411.488125L150.941278,410.438481L150.196735,409.292278L148.638933,409.015601L147.182356,408.614995L146.526026,407.374972L147.117674,404.876416L146.528172,403.605078L145.603283,402.674454L144.523817,401.894068L142.140290,402.359159L141.342639,401.285282L140.160167,400.572890L139.377059,399.486485L138.203960,398.755964L137.155659,397.906823L136.131280,397.032484L135.102898,396.157939L133.556919,395.721274L132.297010,395.027163L131.068648,394.297202L129.833726,393.563655L129.400539,392.175762L129.195306,390.616924L129.418718,388.737996L128.611488,387.676643L127.881725,386.556688L126.779899,385.716369L125.541580,384.969671L124.741620,383.895394L124.590434,382.357734L125.558163,380.047147L126.150430,378.033681L126.660605,376.104695L125.862057,375.080152L124.455155,374.455917L122.766562,374.000584L121.655858,373.155337L122.030310,371.366301L123.527588,368.902764L125.031000,366.478953L125.789599,364.544981L125.803874,363.078007L124.220656,362.551284L122.908724,361.851282L120.476310,361.767332L117.730833,361.821918L115.053543,361.799590L112.589102,361.625412L111.348018,360.775923L110.977690,359.466576L110.796212,358.066066L110.424859,356.767474L109.973800,355.511708L109.396987,354.318498L108.647783,353.206257L107.156801,352.432973L106.283384,351.363849L105.370968,350.306435L104.258721,349.329639L104.956987,347.570274L106.432890,345.506502L106.564616,344.027258L106.093988,342.800426L105.806819,341.501799L103.627739,340.934286L102.770212,339.841009L102.564784,338.501168L102.146228,337.242219L102.868942,335.582097L102.696248,334.248690L101.348703,333.313927L100.979851,332.043465L99.286661,331.197243L98.384370,330.083863L98.948281,328.516787L98.302882,327.322791L98.013920,326.021837L98.709529,324.445970L97.886851,323.300545L96.189377,322.379563L97.050688,320.779364L95.681764,319.754129L95.181146,318.502789L96.478534,316.827327L95.096181,315.783710L94.928620,314.457393L94.978750,313.086794L94.279818,311.873934L93.907977,310.590284L93.704950,309.272996L94.077321,307.851891L94.275985,306.470122L94.213858,305.138163L93.297322,303.944613L92.747067,302.684950L90.869264,301.611979L89.827376,300.399505L90.256352,298.983456L89.740611,297.691961L90.289563,296.272691L90.401853,294.910795L89.330039,293.671716L89.511296,292.302088L89.528257,290.951048L89.604903,289.597230L90.851107,288.162459L92.008486,286.752853L92.352789,285.407584L92.145080,284.095849L91.247343,282.811391L89.771457,281.535163L90.791327,280.168263L93.108607,278.789605L95.498570,277.443819L96.998265,276.138489L97.682270,274.854258L97.837955,273.575638L96.015334,272.268931L94.777370,270.948764L93.199314,269.600194L91.881282,268.237862L92.734180,266.951635L92.297615,265.610635L92.694627,264.311210L92.714152,262.991550L92.381653,261.645173L92.457878,260.325429L92.008129,258.959148L91.332155,257.563162L91.773713,256.269737L92.858146,255.051190L93.056544,253.742864L93.921871,252.517999L93.171636,251.091006L92.469764,249.657176L92.781136,248.358469L93.447727,247.116075L93.493260,245.780577L94.497877,244.604137L94.327962,243.232837L93.897931,241.807923L94.203620,240.513356L93.991253,239.116938L95.026401,237.970127L96.007500,236.823343L97.178852,235.729223L97.905685,234.547005L97.472242,233.097529L96.880490,231.598263L97.052897,230.277210L96.726810,228.824732L97.064734,227.539209L98.533106,226.563896L98.779018,225.260905L99.562844,224.112181L99.060079,222.586694L98.761524,221.109803L99.202793,219.854134L98.724716,218.303455L100.242734,217.396594L100.438004,216.060760L101.186975,214.912640L101.719481,213.693030L102.777765,212.665183L103.689412,211.592995L103.379816,210.066191L103.782998,208.802126L103.893174,207.421100L103.573811,205.860530L104.493467,204.796373L105.085296,203.601434L105.271843,202.234042L106.454362,201.296392L106.716697,199.959602L107.513078,198.860756L107.624610,197.448894L107.860870,196.088060L108.186934,194.764536L108.310102,193.337114L108.870304,192.119377L109.372525,190.871504L110.439359,189.913658L111.655190,189.042501L113.040306,188.272970L112.836165,186.651698L112.198715,184.774524L112.952193,183.657069L112.661257,181.942716L113.823183,181.056715L115.226030,180.322833L115.742204,179.068886L116.822588,178.156905L118.459778,177.598944L118.923836,176.317955L119.587571,175.160226L120.280827,174.020605L121.263767,173.072312L122.304169,172.167854L123.267053,171.216632L123.691525,169.895940L123.228188,167.941847L125.671666,168.043047L128.176465,168.225350L131.012712,168.690643L134.184608,169.453665L133.925323,167.660340L133.189933,165.475735L132.606713,163.375250L130.539937,160.062018L130.167214,158.048440L130.125518,156.277114L130.784347,155.066677L133.125079,155.270561L134.629157,154.794478L136.859309,154.965230L139.210895,155.277601L140.945070,155.075807L141.860426,154.153371L142.230347,152.729768L141.371589,150.144473L141.486903,148.434971L143.458127,148.488526L143.855707,147.036004L145.662299,146.963492L145.795927,145.235991L146.079145,143.637627L147.360937,143.051981L147.505694,141.283648L149.167616,141.104821L150.111825,140.172571L151.846835,140.105609L152.848759,139.248118L153.491672,137.986514L155.767193,138.581489L157.978775,139.145266L159.108011,138.475731L160.489472,138.112666L160.216107,135.755930L158.946184,132.126722L160.191347,131.556327L161.670925,131.290943L163.025607,130.881463L164.342285,130.434394L165.230537,129.429847L165.687710,127.838489L166.531268,126.750656L167.626042,126.002048L169.087752,125.771261L170.425428,125.379589L171.139511,124.093187L172.210380,123.316435L172.475272,121.330542L172.928233,119.591418L173.910051,118.638271L175.309719,118.334596L176.522706,117.746285L177.942302,117.497251L179.373311,117.281873L180.290019,116.219993L182.204031,116.845228L183.060531,115.681487L184.003053,114.652370L184.711987,113.191897L185.142666,111.196273L185.959425,109.869739L186.737986,108.447079L188.606422,109.089523L190.631764,110.084085L192.239662,110.306052L193.541183,109.937215L194.238599,108.329784L194.901301,106.610981L195.706270,105.153663L197.397625,105.597319L198.048413,103.764479L199.003997,102.572899L200.265385,102.063300L201.266848,100.941313L202.942076,101.418183L204.267463,101.076318L206.482208,102.974461L208.338794,104.056784L209.596639,103.638494L210.826436,103.147471L211.459490,101.021269L212.031643,98.648094L213.211410,97.926717L214.757295,98.266335L216.437172,99.046028L218.469548,100.970251L220.021672,101.496333L220.969117,100.112640L222.002163,98.961082L223.013854,97.695401L224.504219,98.058116L226.023410,98.565577L226.985483,97.057964L228.099909,96.063018L229.010446,94.226828L230.888411,96.217873L233.334064,100.731215L235.489488,104.308113L237.801366,108.846211L239.390126,110.378236L240.298213,108.779353L240.443203,103.287716L240.684739,97.887971L240.997895,92.458457L241.656156,88.525883L243.104302,88.881526L244.648727,89.877508L246.281514,91.552986L247.687484,91.894532L248.902740,90.947125L250.168566,90.292733L251.328995,88.754120L252.769029,89.382543L254.207135,90.096549L255.606317,90.560506L257.081726,91.893504L258.419592,91.943253L259.820151,92.775187L261.314942,95.026364L262.558536,94.121591L264.084758,97.617678L265.538165,100.726726L266.850917,101.824333L268.146832,102.919259L269.311245,100.487746L270.526260,98.689079L271.774661,97.323934L273.097155,100.963140L274.357303,102.016698L275.602230,103.054318L276.830671,104.238370Z" />
<line x1="50" y1="550" x2="100" y2="550" fill="none" stroke="black" stroke-width="1.0" stroke-linejoin="round" stroke-miterlimit="10" />
<text x="125" y="553" style="text-anchor:start;fill:black">GC-content</text>
</g>
<g style="fill:pink;stroke:black">
<a href="" title="CP042937:1 [-8000-27599];"><path  d="M268.360562,45.095851L272.373953,45.014992L276.388145,45.004189L280.401914,45.063445L284.414038,45.192742L288.423293,45.392040L292.428460,45.661279L296.428319,46.000377L294.564987,65.913388L294.564987,65.913388L290.912942,65.603777L287.256051,65.357950L283.595426,65.175982L279.932182,65.057928L276.267437,65.003825L272.602305,65.013688L268.937904,65.087516Z" />
</a><a href="" title="CP042937:2 [141500-160099];"><path  d="M387.412862,74.342709L390.897694,76.335145L394.347222,78.388096L397.760395,80.500937L387.085578,97.413899L387.085578,97.413899L383.969202,95.484784L380.819633,93.610350L377.637831,91.791169Z" />
</a><a href="" title="CP042937:3 [177500-198099];"><path  d="M412.461614,90.597439L415.658946,93.024560L418.813433,95.507113L421.924112,98.044341L424.990037,100.635471L411.947425,115.797604L411.947425,115.797604L409.148102,113.431789L406.307917,111.115190L403.427734,108.848511L400.508430,106.632444Z" />
</a><a href="" title="CP042937:4 [374000-395099];"><path  d="M499.402539,224.566870L500.248541,228.490916L501.025930,232.429128L501.734469,236.380309L502.373943,240.343253L482.602296,243.356883L482.602296,243.356883L482.018428,239.738543L481.371501,236.130943L480.661711,232.535184L479.889275,228.952360Z" />
</a><a href="" title="CP042937:5 [528000-550099];"><path  d="M492.237156,350.551427L490.885515,354.331231L489.468114,358.086870L487.985384,361.817200L486.437776,365.521085L468.051882,357.649686L468.051882,357.649686L469.464916,354.267879L470.818713,350.861925L472.112862,347.432863L473.346968,343.981737Z" />
</a><a href="" title="CP042937:6 [1021500-1042599];"><path  d="M155.785409,471.692352L152.370811,469.581813L148.993567,467.412003L145.654706,465.183582L142.355245,462.897230L153.889571,446.558340L153.889571,446.558340L156.902123,448.645879L159.950648,450.680524L163.034219,452.661655L166.151895,454.588669Z" />
</a><a href="" title="CP042937:7 [1149500-1169099];"><path  d="M80.617619,397.945069L78.501537,394.533904L76.445311,391.086327L74.449566,387.603390L72.514911,384.086152L90.122310,374.600400L90.122310,374.600400L91.888734,377.811791L93.710936,380.991864L95.588360,384.139651L97.520435,387.254194Z" />
</a><a href="" title="CP042937:8 [1174000-1196099];"><path  d="M70.520557,380.300320L68.713956,376.715624L66.970192,373.099945L65.289796,369.454383L63.673280,365.780049L82.049516,357.886132L82.049516,357.886132L83.525466,361.240958L85.059741,364.569515L86.651873,367.870787L88.301378,371.143771Z" />
</a><a href="" title="CP042937:9 [1477000-1497099];"><path  d="M87.533622,141.747019L89.887759,138.495575L92.298283,135.285711L94.764460,132.118405L97.285538,128.994623L112.738970,141.690743L112.738970,141.690743L110.437116,144.542892L108.185389,147.434779L105.984475,150.365525L103.835046,153.334235Z" />
</a><a href="" title="CP042937:10 [1671000-1697599];"><path  d="M217.489571,52.306151L221.384874,51.336373L225.296508,50.434725L229.223283,49.601481L233.164001,48.836897L237.117464,48.141204L240.411597,67.868056L240.411597,67.868056L236.801914,68.503254L233.203867,69.201353L229.618551,69.962140L226.047059,70.785384L222.490478,71.670833Z" />
</a><a href="" title="CP042937:11 [1719500-1748499];"><path  d="M257.147932,45.693865L261.152595,45.417228L265.161476,45.210524L269.173354,45.073816L273.187007,45.007146L277.201211,45.010534L277.009802,65.009618L277.009802,65.009618L273.344658,65.006524L269.680019,65.067397L266.017000,65.192217L262.356717,65.380947L258.700286,65.633529Z" />
</a></g>
<text x="275" y="280" style="text-anchor:middle" font-size="25" font-weight="bold">CP042937</text>
<path  style="fill:pink;stroke:black" d="M350,550L375,550L375,565L350,565Z" />
<text x="405" y="565" style="text-anchor:start;fill:black">Selected loci;</text>
</svg>