<svg xmlns="http://www.w3.org/2000/svg" viewbox="0 0 550 650">
<circle cx="275" cy="275" r="240" fill="none" stroke="black" stroke-width="1.0" />
<line x1="275" y1="15" x2="275" y2="55" fill="none" stroke="grey" stroke-width="1.0" stroke-linejoin="round" stroke-miterlimit="10" />
<line x1="495" y1="275" x2="535" y2="275" fill="none" stroke="grey" stroke-width="1.0" stroke-linejoin="round" stroke-miterlimit="10" />
<line x1="275" y1="495" x2="275" y2="535" fill="none" stroke="grey" stroke-width="1.0" stroke-linejoin="round" stroke-miterlimit="10" />
<line x1="15" y1="275" x2="55" y2="275" fill="none" stroke="grey" stroke-width="1.0" stroke-linejoin="round" stroke-miterlimit="10" />
<text x="275" y="10" style="text-anchor:middle" font-size="15">Methanococcus aeolicus Nankai-3, complete genome.</text><text x="285" y="25" style="text-anchor:start">1,569,500</text><text x="525" y="265" style="text-anchor:start">0.39 Mbp</text><text x="285" y="530" style="text-anchor:start">0.78 Mbp</text><text x="-200" y="25" style="text-anchor:end" transform="rotate(-90)">1.17 Mbp</text><circle cx="368.533429" cy="53.976251" r="2.500000" fill="grey" stroke="black" stroke-width="1.0" />
<circle cx="447.275909" cy="107.904186" r="2.500000" fill="grey" stroke="black" stroke-width="1.0" />
<circle cx="498.775466" cy="188.255889" r="2.500000" fill="grey" stroke="black" stroke-width="1.0" />
<circle cx="514.888194" cy="282.324908" r="2.500000" fill="grey" stroke="black" stroke-width="1.0" />
<circle cx="493.066101" cy="375.235600" r="2.500000" fill="grey" stroke="black" stroke-width="1.0" />
<circle cx="436.760033" cy="452.295493" r="2.500000" fill="grey" stroke="black" stroke-width="1.0" />
<circle cx="354.873973" cy="501.318688" r="2.500000" fill="grey" stroke="black" stroke-width="1.0" />
<circle cx="260.357008" cy="514.552881" r="2.500000" fill="grey" stroke="black" stroke-width="1.0" />
<circle cx="168.155619" cy="489.905278" r="2.500000" fill="grey" stroke="black" stroke-width="1.0" />
<circle cx="92.850112" cy="431.273537" r="3.000000" fill="black" stroke="black" stroke-width="1.0" />
<circle cx="46.348955" cy="347.929414" r="2.500000" fill="grey" stroke="black" stroke-width="1.0" />
<circle cx="36.005627" cy="253.052568" r="2.500000" fill="grey" stroke="black" stroke-width="1.0" />
<circle cx="63.455776" cy="161.646388" r="2.500000" fill="grey" stroke="black" stroke-width="1.0" />
<circle cx="124.358561" cy="88.165429" r="2.500000" fill="grey" stroke="black" stroke-width="1.0" />
<circle cx="209.083094" cy="44.229635" r="2.500000" fill="grey" stroke="black" stroke-width="1.0" />

<circle cx="275" cy="275" r="185" fill="white" stroke="grey" stroke-width="0.5" />
<circle cx="275" cy="275" r="170" fill="none" stroke="black" stroke-width="0.5" />
<circle cx="275" cy="275" r="170" fill="aliceblue" stroke="black" stroke-width="0.5" />
<circle cx="275" cy="275" r="155" fill="white" stroke="none" stroke-width="0.5" />
<circle cx="275" cy="275" r="140" fill="none" stroke="black" stroke-width="0.5" />
<circle cx="275" cy="275" r="140" fill="aliceblue" stroke="black" stroke-width="0.5" />
<circle cx="275" cy="275" r="133" fill="white" stroke="none" stroke-width="0.5" />
<circle cx="275" cy="275" r="110" fill="none" stroke="black" stroke-width="0.5" />
<circle cx="275" cy="275" r="110" fill="white" stroke="black" stroke-width="0.5" />
<circle cx="275" cy="275" r="109" fill="aliceblue" stroke="none" stroke-width="0.5" />
<circle cx="275" cy="275" r="80" fill="none" stroke="black" stroke-width="0.5" />

<g style="fill:none;stroke-linejoin:round;stroke-miterlimit:10">
<path style="stroke:blue;stroke-width:1.0" d="M277.455865,121.629067L278.635506,123.662073L279.835894,124.045210L281.031583,124.407821L282.613715,116.627180L283.625632,121.253655L284.796545,122.259742L286.082925,121.459542L287.005163,125.376092L288.454501,122.625837L289.705520,122.411978L291.188808,120.025930L292.710648,117.659176L294.246523,115.513225L294.838111,120.988283L295.697575,123.875518L296.875167,124.264698L297.977322,125.123104L299.174975,125.321803L300.597422,124.195659L302.120347,122.628199L303.132782,123.959767L305.479845,118.337289L306.291188,120.764992L306.976393,123.618009L307.351050,127.687312L308.493387,128.109325L311.031536,122.617277L314.318293,114.467828L314.756513,118.125302L314.236325,125.224056L314.586667,128.675930L317.112134,124.142917L318.902038,122.457795L320.210797,122.514571L320.275853,126.663490L320.889193,128.855181L322.649819,127.393464L322.983429,130.332395L324.535341,129.560979L326.119155,128.758017L327.036541,129.874421L328.697806,128.932951L328.851645,132.058889L329.510291,133.749040L331.268953,132.596943L332.210158,133.539497L333.371922,133.927184L334.171329,135.174677L336.249959,133.431709L338.038678,132.440384L339.472304,132.298408L338.189460,138.070442L339.214510,138.727726L341.429301,136.905937L342.816276,136.864870L343.558774,138.133567L344.278557,139.418502L346.381478,138.020934L346.112125,141.163563L347.582710,140.996325L349.050794,140.861696L349.903444,141.848114L351.159047,142.117235L351.873404,143.325852L352.453327,144.739143L353.848090,144.778291L354.838377,145.494558L356.074263,145.816776L359.912980,142.075907L361.665440,141.697298L364.590196,139.583687L366.015910,139.793761L367.451411,140.007169L364.101653,147.106941L366.440050,145.965580L368.908904,144.705748L368.369246,147.617185L369.312793,148.467243L369.733839,150.003597L367.328668,155.182169L368.049487,156.225907L368.819819,157.197782L369.897181,157.783279L371.537170,157.690704L372.779746,158.101043L376.015068,156.179308L376.696646,157.300362L378.896219,156.682950L379.667764,157.711814L379.346042,159.940143L378.505172,162.687686L378.825642,164.134464L378.267148,166.485427L380.528722,165.872042L387.354544,160.659733L391.906569,157.917326L384.414204,167.161769L383.725970,169.542845L383.649974,171.291896L385.376846,171.319719L391.270945,167.522510L389.488492,170.857624L389.809548,172.233309L390.913598,172.904868L392.991159,172.740868L392.977073,174.395807L393.722637,175.390722L392.487755,178.018992L398.419199,174.773456L398.702580,176.176354L395.649415,180.187945L395.689521,181.709754L395.968245,183.032067L400.461007,181.191951L401.572091,181.931795L400.667734,184.137899L400.617312,185.697136L399.093640,188.267614L401.046836,188.396349L401.267779,189.724664L401.595866,190.971093L403.903050,190.918636L411.292403,187.646167L414.615139,187.085552L416.300829,187.596125L410.891916,192.438853L408.698831,195.229803L405.473596,198.563931L408.811197,198.041031L409.898577,198.846431L408.845391,200.847820L406.790326,203.359359L407.037884,204.588448L408.071919,205.399685L409.124495,206.211135L410.189695,207.026388L411.005978,207.974760L413.016852,208.351832L410.580619,210.861838L410.777552,212.094086L413.443959,212.200186L417.281759,211.827972L416.389156,213.574716L414.180502,215.854371L415.055427,216.801979L416.802996,217.402819L415.694081,219.161339L416.445772,220.169768L419.789555,220.202954L420.289328,221.339714L419.794069,222.836221L419.964227,224.082490L422.425592,224.540268L420.119143,226.624213L418.335035,228.490738L418.980295,229.552258L421.461138,230.055446L424.014947,230.574044L422.653110,232.264289L419.432608,234.446828L420.243533,235.470938L420.788578,236.573632L421.316789,237.684685L421.155196,238.969701L423.200729,239.721679L423.790048,240.837836L422.050884,242.474345L427.161196,242.619680L437.987881,241.677517L435.041359,243.612722L433.460703,245.238214L433.388748,246.562677L427.292373,248.914099L423.629130,250.764848L423.205046,252.050605L424.511672,253.072569L423.580243,254.422985L423.810772,255.604061L426.042342,256.541825L428.981211,257.432762L425.618264,259.036979L427.061720,260.114153L429.990016,261.079374L432.538935,262.121081L430.065184,263.572364L426.212030,265.072904L425.092763,266.352689L425.299555,267.547628L426.172172,268.717257L428.145068,269.863171L428.907046,271.070968L431.808001,272.252999L431.925570,273.507617L432.556849,274.763154L435.493445,276.043762L434.508740,277.314630L433.807482,278.576406L433.824809,279.849346L431.893575,281.048071L430.596032,282.246112L430.888367,283.511063L435.390487,285.045468L430.629318,285.998875L433.623642,287.487625L433.809928,288.782534L433.745708,290.058466L437.814676,291.760796L438.157381,293.117374L436.728086,294.270716L435.236431,295.395414L435.388604,296.721115L434.207709,297.860719L428.884738,298.355363L429.761965,299.757732L430.127338,301.091672L431.298755,302.577287L428.945605,303.434876L430.775427,305.064580L434.860551,307.182707L436.171609,308.791580L431.531368,309.129303L425.371710,309.049718L424.244271,310.052942L424.384094,311.350226L424.943452,312.760470L423.460238,313.653578L424.796477,315.284854L422.542747,315.948271L420.061276,316.513299L419.945935,317.738771L420.703631,319.233231L421.416686,320.733194L423.167357,322.585366L423.854054,324.124067L419.676291,324.033297L418.561612,324.940499L422.196362,327.529793L420.872317,328.377770L423.915307,330.847220L423.068999,331.886203L422.514410,333.032767L424.298737,335.119501L421.800578,335.483954L416.102952,334.462391L413.625626,334.729900L411.818898,335.254783L411.703278,336.515330L411.020474,337.522427L411.098051,338.882905L410.459042,339.911508L409.509178,340.785729L411.010655,342.874874L415.074206,346.309226L413.718445,347.023295L409.235983,346.066210L408.828948,347.228428L408.753038,348.576336L407.854254,349.473674L407.001031,350.390667L405.156941,350.725869L407.610291,353.581080L408.912164,355.808139L407.813134,356.602618L407.448174,357.846426L404.943761,357.734700L402.654526,357.720957L403.107422,359.478476L402.389961,360.476653L401.224367,361.168140L402.761992,363.725740L401.297119,364.215751L400.979869,365.512273L403.088377,368.591132L403.204848,370.260048L400.254278,369.633571L400.037546,371.052026L395.587841,369.178611L394.630146,369.982458L394.673307,371.588951L396.060228,374.319478L394.883367,374.970539L393.227477,375.205371L390.194702,374.230643L388.319131,374.206561L387.453901,375.050798L387.490770,376.708829L387.672251,378.524507L386.780960,379.368394L385.348619,379.697271L384.791073,380.851476L382.122731,379.946723L382.554041,382.070307L381.107062,382.334953L380.039744,382.970816L378.952712,383.579409L380.430212,386.902684L377.851354,385.931749L380.980295,391.158194L376.186155,387.702868L375.846323,389.149809L375.885829,391.054098L375.130894,392.065629L372.694361,391.085904L371.646804,391.725506L370.909220,392.741194L370.063572,393.630263L368.310033,393.371863L368.111972,395.085880L366.732085,395.282803L365.065973,395.079964L365.207487,397.296421L363.359902,396.821455L361.827105,396.747357L360.906004,397.519154L360.359114,398.836756L362.870610,404.690416L365.757664,411.288747L362.548538,408.779164L359.879031,406.994540L355.822872,402.926828L354.474169,403.051242L353.759881,404.197722L352.961544,405.222738L354.217597,409.757316L352.343034,409.013064L350.437304,408.162415L349.927962,409.768013L348.960034,410.571650L348.715831,412.735753L347.163992,412.470610L346.152968,413.222610L344.481777,412.673848L342.084251,410.611901L342.548224,414.346106L345.399482,423.240202L342.509645,420.142695L339.724317,417.119067L338.611338,417.693238L336.892614,416.881663L334.992946,415.587678L333.618093,415.470854L331.625687,413.813135L330.275292,413.667081L329.285322,414.418636L328.756603,416.398817L328.653935,419.603809L327.076907,418.875214L324.827879,416.183767L323.896463,417.161330L324.086190,421.516707L323.680490,424.262793L322.572776,424.928013L321.609324,426.077082L320.585191,427.069111L318.832600,425.595973L318.442904,428.836820L316.679566,427.242881L315.979604,429.533793L314.567643,429.181385L311.980686,424.047224L312.536608,431.643337L314.689378,446.681180L312.325086,442.556193L308.637029,431.909278L306.050914,425.723749L306.388335,433.784178L304.383364,430.161543L302.750979,428.242977L300.676802,423.563390L299.800762,425.673448L298.845940,427.480772L297.868540,429.314678L296.484079,428.434392L295.580685,431.071938L294.312098,431.083536L293.033748,430.990570L291.665101,430.021818L290.074665,426.642400L288.898754,427.181977L287.752705,428.163256L286.456055,427.330525L285.194147,426.793411L283.950774,426.401479L282.872448,429.094309L281.584358,427.896659L280.424191,429.776788L279.105588,426.885077L277.877997,426.314334L276.689639,428.442692L275.457673,427.329741L274.237038,427.526199L272.976651,430.528976L271.671592,433.356609L270.600385,426.553554L269.400338,426.156383L268.216321,425.528863L267.018296,425.338434L265.825204,425.100547L264.615430,425.142052L263.382726,425.454563L261.911865,428.483304L260.030157,435.371968L258.275368,439.893137L257.012019,439.239576L255.794218,438.269001L254.756195,435.974321L254.649492,426.983357L253.816246,424.119765L252.558992,424.371388L250.814485,427.653866L249.391116,428.666948L248.776213,424.942734L247.978725,422.532066L246.113547,425.888170L244.505204,427.660401L243.003011,428.761174L241.828089,428.245306L240.978769,426.300074L239.892202,425.492454L238.423929,426.300577L237.417701,425.187681L235.720245,426.799487L231.539618,437.577254L231.176161,433.828772L231.051672,429.446253L232.034832,421.524257L231.359683,419.530808L230.138973,419.385714L228.597306,420.233398L227.128434,420.793854L225.255448,422.502946L223.789161,422.928670L223.169934,420.927305L221.191683,422.735813L220.117323,422.014269L219.563804,419.944383L219.226605,417.398401L218.352375,416.288582L215.957544,418.914932L214.420272,419.359582L213.695048,417.870949L213.961542,414.164388L212.768400,413.851673L211.205786,414.338158L210.806885,412.294408L209.045241,413.167996L207.255235,414.043230L207.563873,410.640754L204.785022,413.438405L199.859682,420.254695L199.659740,417.827292L201.507900,411.660814L200.845876,410.283910L200.296817,408.733974L196.655868,412.651666L196.559899,410.288985L196.636957,407.696159L197.817689,403.338730L196.597503,403.035284L195.407443,402.672059L193.666413,403.167463L190.838851,405.305247L190.879063,402.982878L189.052102,403.508831L187.620727,403.412079L186.723970,402.522619L186.759313,400.315575L187.427988,397.274414L184.272384,399.561509L183.678243,398.290732L183.330071,396.711144L183.519937,394.456691L179.912246,397.129430L175.325049,400.928071L173.202105,401.515312L176.591299,395.317983L177.479877,392.302437L177.986994,389.809955L176.785559,389.361763L176.016810,388.407053L174.774054,387.991882L172.805930,388.369104L169.462723,390.209552L162.758400,395.575717L161.108640,395.400471L167.178498,387.170949L167.102923,385.465512L168.057224,382.748968L168.084368,381.010370L164.147713,383.167384L163.552687,382.019536L161.743911,382.026740L157.262251,384.490749L149.604775,389.753394L142.525948,394.296658L135.837528,398.316376L141.446969,391.450118L149.551778,382.627389L154.492931,376.724507L154.514738,375.065078L156.821721,371.560755L150.761029,374.864723L144.354195,378.303702L147.344774,374.288294L153.382814,368.038832L153.131650,366.693553L147.275506,369.507703L152.605035,364.056599L152.134833,362.902861L148.513063,363.971610L144.809692,365.027143L145.413087,363.084619L145.588609,361.458593L142.512056,361.987888L145.808355,358.351043L148.174742,355.393556L147.500697,354.396995L147.079448,353.244955L145.592020,352.737906L143.290753,352.692070L142.490276,351.740828L141.532549,350.875004L142.273646,349.053910L139.483838,349.193970L140.740633,347.114774L142.344078,344.890791L140.471501,344.507022L140.585934,343.089994L139.340968,342.361247L134.826364,343.209442L135.048809,341.720687L137.729108,339.099099L136.881325,338.152973L132.245144,338.895877L127.158624,339.756755L126.843269,338.485976L130.022068,335.754591L133.381707,333.018122L134.585005,331.216481L132.302082,330.809019L128.640822,330.894040L130.345530,328.919928L128.071703,328.431606L124.091269,328.515008L129.191734,325.395743L129.182084,324.095680L131.364370,322.083934L126.429702,322.387580L122.361146,322.342227L124.555402,320.344476L124.200669,319.137461L124.592071,317.718508L125.325424,316.218079L122.625710,315.651876L118.098925,315.516754L119.994862,313.706044L124.476489,311.309142L127.046666,309.438023L125.196992,308.606487L120.781580,308.302420L106.409016,309.995699L97.766736,310.311885L102.542070,307.927089L111.251678,304.907363L116.081445,302.712292L123.967780,300.092752L125.184771,298.659548L123.627701,297.664785L124.700365,296.275255L125.064082,295.000598L124.724977,293.822510L125.846716,292.470250L125.473832,291.301415L126.239983,290.013695L124.664037,288.957762L122.878701,287.895931L118.836507,286.980106L117.538738,285.812266L118.457685,284.490548L114.774766,283.426850L120.089533,281.904085L123.058617,280.553216L124.346933,279.298626L122.277186,278.134149L124.775782,276.879752L124.587067,275.677723L124.448277,274.472933L124.174766,273.264302L122.221152,272.018279L118.231452,270.684528L118.687998,269.444316L121.060221,268.294160L110.168837,266.496983L84.974948,263.671158L94.778031,262.806777L117.343817,263.064719L121.363813,262.131120L114.228038,260.236246L110.718719,258.586551L116.535914,257.885273L120.266045,257.033684L123.972873,256.237404L125.691511,255.235776L125.137216,253.940165L124.570763,252.630940L121.167891,250.864492L114.816933,248.552283L119.552598,248.053930L124.155230,247.605972L126.154026,246.736087L126.194345,245.507449L128.186296,244.678622L119.055070,241.488722L105.025903,237.047724L102.353521,234.997169L118.742032,237.473706L125.461802,237.818685L128.285175,237.270867L129.127228,236.239629L127.838783,234.633104L127.783888,233.347839L128.663058,232.328229L130.138930,231.497153L128.823264,229.823016L131.073735,229.252951L131.453366,228.104925L129.323916,226.114992L129.881684,225.005906L129.410826,223.536035L131.026515,222.806675L133.421748,222.388700L134.729638,221.592699L132.130220,219.289219L131.880955,217.867721L133.170975,217.061911L134.212945,216.167882L136.182946,215.681156L137.480523,214.929015L136.929914,213.367442L133.979881,210.691627L134.589285,209.606522L138.812197,210.241348L138.961445,208.971697L135.902329,206.105447L120.994803,197.180108L134.415525,202.542910L132.381468,200.043321L141.898561,203.679422L140.932420,201.774116L142.304325,201.137954L142.068119,199.606105L144.965824,199.867229L144.916259,198.442866L144.764409,196.942913L146.162415,196.371911L145.892999,194.781776L146.627882,193.806610L147.718992,193.062665L148.253921,191.964201L149.480394,191.323773L150.503387,190.558203L150.346719,188.986756L147.152157,185.263013L144.773172,182.027993L146.691343,181.837543L151.465456,183.784534L154.135040,184.251454L155.095732,183.462423L156.216290,182.803249L156.411892,181.424020L156.581944,180.009909L158.495657,180.002042L158.402540,178.361616L154.606280,173.578178L155.848584,172.982585L157.506456,172.760416L161.125893,174.296556L163.208582,174.531885L161.234325,171.099056L160.855341,169.064348L166.000478,172.202844L165.266798,169.838208L159.620090,162.640759L156.851050,158.086628L160.996907,160.368097L164.418453,162.013465L169.262713,165.218352L170.434486,164.680623L172.264280,164.858113L173.433460,164.348528L172.875156,161.936343L173.286376,160.562793L173.973949,159.486899L176.099299,160.072996L175.477943,157.460487L177.207515,157.610101L177.012860,155.442773L177.924254,154.601316L178.728896,153.623129L175.574399,147.563470L177.339840,147.738318L178.718087,147.432412L178.882109,145.506406L180.916554,146.103571L184.223042,148.519276L187.003580,150.297696L189.221746,151.351320L190.208118,150.659151L190.950158,149.601988L191.843463,148.760923L193.096989,148.470137L194.074016,147.757644L194.630018,146.368984L196.620997,147.291402L197.116093,145.788807L197.416879,143.925508L197.059962,140.884244L197.994311,140.015688L200.077790,141.189911L202.057842,142.243812L203.312370,142.015170L203.212960,139.239518L202.411466,135.023027L200.372700,128.227866L194.630076,113.750918L197.992314,117.347539L202.017912,122.504857L207.122313,130.204518L210.963435,135.503008L212.416001,135.737163L213.224395,134.538820L215.261111,136.163903L216.009630,134.822735L217.538627,135.338734L216.454292,129.401015L218.284055,130.622506L217.918054,126.200902L219.758768,127.477853L221.464815,128.472139L222.193861,126.796908L223.082002,125.514675L224.913636,126.974884L227.965485,132.239543L229.002483,131.532164L229.558286,129.262325L231.211381,130.502902L232.620678,131.009662L233.843630,130.915592L234.941018,130.382940L235.398204,127.451413L236.245900,125.850072L237.123875,124.281394L238.725750,125.605358L240.027175,125.764061L240.663837,123.013041L241.991519,123.247307L242.355765,118.914982L244.524313,123.229333L246.018982,124.437255L247.775869,127.198601L248.794296,126.042814L250.130156,126.686934L251.267078,126.170565L252.427448,125.773788L253.301709,123.352693L254.722988,124.713705L255.994151,125.086573L257.191982,124.913385L258.345050,124.330762L259.560768,124.288609L260.171002,117.843559L260.826176,110.734804L262.323234,112.945659L263.553612,111.887180L265.153896,116.531769L266.773404,122.935225L267.999098,123.046141L269.160773,121.545050L270.218103,115.793467L271.563427,118.960451L272.834717,120.496779L274.065980,119.512247L275.310415,119.765329L276.554445,119.657906Z" />
<line x1="50" y1="575" x2="100" y2="575" fill="none" stroke="blue" stroke-width="1.0" stroke-linejoin="round" stroke-miterlimit="10" />
<text x="125" y="578" style="text-anchor:start;fill:black">n1_4mer:GRV/n1_4mer:RV</text>
<path style="stroke:green;stroke-width:1.0" d="M276.391201,188.118265L277.195175,183.619806L277.858851,185.759563L278.538121,186.662776L279.510748,181.171959L280.148167,183.237234L280.715532,185.887788L281.641430,182.991063L282.484150,181.722818L283.388019,180.004477L284.367014,177.805601L285.582184,173.697662L286.386816,173.839894L287.582351,170.736049L287.131507,180.817936L287.696881,182.293027L288.815791,179.799474L288.817045,184.873928L289.971320,182.305794L290.577462,183.227127L291.292608,183.462303L292.509057,180.996781L294.418587,175.190817L294.990011,176.468760L295.586429,177.540147L294.307746,187.080874L295.368124,185.672293L297.197746,181.122432L299.650255,174.355779L298.563984,182.019188L297.624210,188.637110L299.531736,184.323421L302.200928,177.558899L304.227339,173.446564L304.590678,175.197574L304.562597,178.144564L303.974025,182.725472L303.699877,186.095372L302.928201,190.797890L305.470391,185.536926L307.029494,183.369833L308.044684,182.841129L309.834962,180.243054L309.630038,183.079760L310.089676,184.073125L308.858518,189.312312L309.507669,189.674729L310.139271,190.075678L310.108788,192.035873L314.425177,183.875775L317.190529,179.587693L318.455167,178.817282L315.488968,187.261690L314.908107,190.309352L315.612519,190.574187L313.858868,195.848281L315.222939,194.701449L315.963939,194.831583L317.538107,193.370559L318.271440,193.561069L318.770401,194.190195L319.638106,194.140910L318.432465,197.792406L320.963342,194.802883L321.163507,195.927913L322.006737,195.944160L321.935897,197.482932L322.956182,197.210510L321.724731,200.549107L324.193191,197.992218L326.943561,195.104057L329.858684,192.080652L329.707738,193.730391L331.431359,192.601809L329.340017,197.002445L330.791469,196.270605L331.840380,196.136607L331.157301,198.385104L330.730181,200.230787L329.587340,202.974826L330.017843,203.601606L330.368861,204.323777L334.127591,200.758102L333.892696,202.255914L337.968774,198.482090L337.140182,200.709334L338.587675,200.203917L337.786331,202.333607L337.684605,203.614750L338.205670,204.173241L336.420160,207.273475L336.365323,208.413168L335.705270,210.178611L335.525967,211.398462L339.775088,208.015647L346.196386,202.545309L348.494225,201.395065L341.170762,209.782345L339.433919,212.503268L341.429813,211.591702L341.607037,212.434013L347.689088,207.808315L343.061463,213.089127L340.557956,216.318693L341.729071,216.225936L344.821043,214.488353L342.253098,217.650352L342.005997,218.781413L344.127771,217.938046L348.619621,215.214810L347.186920,217.331238L345.320903,219.738486L344.673908,221.143659L348.913371,218.806245L353.773894,216.100223L353.861711,217.013141L352.454027,218.998070L352.855423,219.651639L352.207075,221.037896L351.005310,222.778639L352.661551,222.551031L349.087090,225.824167L351.898433,224.840402L356.702980,222.634143L360.777437,220.986688L362.042983,221.158178L358.462077,224.292607L353.660676,228.067820L354.689557,228.315026L360.669546,225.728787L362.067718,225.848129L362.275378,226.648245L354.852359,231.592609L356.951849,231.297718L356.617733,232.311655L356.750421,233.072396L357.880265,233.327659L355.288985,235.432707L357.901828,234.966810L363.040218,233.351438L365.075935,233.267704L365.792542,233.815431L368.685244,233.404458L365.242643,235.794872L360.130640,238.823199L362.312558,238.718521L366.276258,237.925641L361.816568,240.544244L361.546617,241.450951L363.063577,241.671464L359.042251,243.960341L361.304315,243.907848L364.886127,243.428226L366.005617,243.851276L364.370071,245.208289L366.955810,245.162237L364.393070,246.782852L363.572155,247.819848L369.355201,246.869802L367.278415,248.291564L361.321295,250.763075L361.881374,251.354615L358.908837,252.883646L359.546164,253.438108L363.586103,253.161681L367.967621,252.869599L366.505426,253.990373L360.073287,256.182946L366.879066,255.447883L375.181656,254.518100L372.306216,255.916325L372.093667,256.764053L373.727894,257.274265L372.041350,258.377953L367.209015,259.964593L364.785921,261.096745L369.018125,261.211271L364.172243,262.650454L364.972121,263.273068L367.881416,263.649398L370.302030,264.127287L364.141881,265.552449L362.294607,266.454429L366.234955,266.805616L372.229363,267.051431L366.599511,268.249511L366.087624,269.020082L366.400594,269.734127L370.579867,270.260819L378.047721,270.717318L375.909537,271.615268L374.555175,272.458495L376.774236,273.217094L375.552232,274.043735L375.711368,274.848606L377.929747,275.669399L374.167663,276.439021L372.911104,277.204996L377.247263,278.121882L375.827697,278.886794L370.548232,279.449684L365.393766,279.935243L366.659216,280.740738L373.277760,281.945637L372.651993,282.687640L377.505667,283.896093L378.708544,284.837694L376.096328,285.407262L376.543392,286.275614L372.898613,286.665113L374.747469,287.696182L372.685747,288.229390L364.857025,287.902617L362.690495,288.308944L368.709521,289.990991L371.090271,291.161921L374.000303,292.467572L371.611126,292.844780L370.526951,293.436654L374.136555,294.957911L373.915691,295.738873L366.415612,294.931795L365.511996,295.495264L362.306327,295.505602L364.097888,296.680544L364.543584,297.549887L367.539340,299.093836L370.432423,300.664697L365.523842,300.123531L361.575234,299.775899L361.177696,300.410363L361.463472,301.248891L360.182123,301.606603L357.003176,301.336105L361.205618,303.449145L360.130450,303.852182L360.541339,304.757099L366.664132,307.712071L366.450560,308.463696L370.751046,310.909201L370.698324,311.766064L372.666191,313.422276L372.359653,314.204710L371.579869,314.792298L363.698230,312.378444L359.856757,311.562400L359.082422,312.029739L356.235557,311.555320L356.808465,312.603632L357.382095,313.669235L358.481381,315.003991L357.815069,315.503182L363.875964,319.352737L366.332094,321.495505L359.645152,318.948177L354.428804,317.050603L353.116574,317.160066L354.279502,318.610937L351.542410,317.907128L353.863396,320.041800L351.856295,319.715324L359.759192,325.225882L363.573426,328.448869L364.383221,329.918550L363.176845,330.154679L357.869481,327.762685L354.317057,326.397965L351.107277,325.187777L351.764725,326.507919L353.277686,328.436929L354.667386,330.325904L350.925440,328.633410L348.863990,328.068778L349.976074,329.783235L349.564266,330.403487L349.648326,331.399173L350.107279,332.696320L346.006700,330.455943L345.831240,331.237708L347.623514,333.614818L349.174575,335.853843L349.044903,336.745921L346.201725,335.348030L345.130208,335.411334L342.634678,334.211572L342.535765,335.086908L343.024534,336.504564L339.678613,334.427423L338.984557,334.741529L339.732085,336.416923L339.352921,337.043767L337.014469,335.754755L340.705180,340.409665L338.570356,339.306005L337.583873,339.330240L338.013936,340.818541L340.436642,344.453866L338.238864,343.207150L342.796899,349.307825L338.454801,345.677041L336.594506,344.719955L332.971553,341.687625L332.509698,342.236082L331.656041,342.321877L333.404742,345.538526L334.059408,347.503198L333.238009,347.675476L331.158542,346.241977L331.422772,347.768067L331.183248,348.669736L329.133699,347.173457L328.181376,347.099248L329.499195,350.137829L329.521999,351.449737L327.701313,350.162620L327.766649,351.552465L333.040014,360.662698L333.154283,362.328981L331.341974,361.093752L329.388356,359.578794L323.129477,351.179567L322.381234,351.342112L321.896374,351.928819L323.260888,355.612372L322.634669,356.031493L321.099623,354.877287L319.303581,353.204966L318.711387,353.620805L317.943224,353.716617L316.682519,352.882500L319.874917,360.485600L320.659298,363.698301L319.699612,363.569518L317.754349,361.428609L315.864175,359.299237L316.683088,362.772087L317.128451,365.574270L312.939494,358.306023L311.611748,357.127637L311.393289,358.427408L311.840317,361.331727L309.749593,358.273010L308.437273,356.968677L308.170796,358.214350L307.622343,358.782547L308.004728,361.814071L309.945578,369.182538L308.419171,367.328648L306.052495,362.985046L304.050642,359.461692L305.303096,365.451304L305.925263,369.822200L304.104068,366.722943L304.478072,370.548715L304.007388,371.766684L301.764285,366.954244L301.180528,367.708561L300.490280,368.108302L299.792973,368.494125L299.160113,369.143583L296.786107,362.806884L296.474700,364.615682L297.681193,373.110228L295.810633,368.421096L294.794940,367.339001L293.340715,364.027374L294.649747,374.402181L293.688162,373.684549L291.902599,368.337410L290.858729,366.757010L290.246240,367.626328L289.630681,368.554608L288.739759,367.714553L287.834211,366.659009L287.398547,369.023367L287.258822,374.077808L286.387301,373.499306L284.888730,366.986777L283.883658,364.364453L283.088832,363.567252L282.426273,364.191441L281.620473,363.032052L280.916649,363.100397L280.263982,364.039749L279.850626,369.945551L278.946988,366.653766L278.283152,368.683239L277.402891,363.894290L276.728287,365.866863L276.028810,368.430231L275.269133,364.577018L274.541591,366.642015L273.815093,366.080344L272.989132,370.671607L272.362364,365.858670L271.644251,365.584556L270.888159,366.241151L269.940176,370.303710L269.426852,366.177237L268.467516,369.447878L267.653028,370.150158L266.596078,373.551979L265.092187,381.142425L264.123295,382.236679L263.317065,381.671239L262.349086,382.545849L261.523055,382.165726L261.717395,374.198253L261.908477,367.155751L261.458350,365.135654L260.340524,367.527520L259.324171,369.063324L259.257445,365.013002L259.070907,361.970435L257.141392,368.284305L255.481502,372.711814L254.427259,373.862075L253.996401,372.030978L255.352359,362.377483L254.843603,361.402049L254.674219,359.079625L253.317977,361.646449L251.579701,365.509461L249.509151,370.356556L248.571010,370.785403L248.222128,369.104650L249.146741,363.167456L249.176867,360.522714L248.089287,361.612429L246.733363,363.470290L247.401390,359.052142L246.118617,360.639311L246.358231,357.735197L244.805841,360.011511L243.582712,361.259129L240.752726,366.738198L241.548843,362.461942L241.473582,360.598309L241.422593,358.747627L239.171188,362.332091L239.393942,359.848113L238.536324,359.978453L237.985045,359.392099L236.383799,361.160794L235.867553,360.472375L236.697309,356.920707L235.550646,357.642076L235.583776,355.900111L235.192540,355.068565L233.817975,356.195978L229.939218,362.107565L228.436535,363.273303L231.114688,356.606084L232.103011,353.259606L228.573208,358.113452L224.904600,363.018275L222.462402,365.613834L223.235551,362.655396L229.183467,351.183721L227.992814,351.765137L226.828465,352.270530L223.234576,356.573227L222.654708,356.045308L223.207100,353.798509L222.332493,353.748171L223.556935,350.600434L221.588474,352.157725L221.902396,350.406901L223.915261,346.328229L220.851766,349.341044L220.223081,348.952655L217.199155,351.742800L221.820680,344.442733L216.475279,350.168364L213.960689,352.116292L211.870516,353.457873L216.106990,347.004692L216.867514,344.924873L216.306586,344.460669L216.475658,343.146262L212.233801,346.912509L212.502444,345.457968L211.641766,345.286527L208.951129,347.102115L205.901969,349.228669L202.849076,351.274489L208.051986,344.648652L209.385012,342.176920L209.842902,340.648288L209.183672,340.259057L204.078001,344.204230L201.268221,345.802433L202.056290,343.931637L202.169788,342.728783L198.263104,345.224519L198.758232,343.657884L197.747826,343.455654L197.490287,342.583754L196.917128,341.990632L200.757244,337.671077L202.760572,334.996085L204.636211,332.492635L200.291278,335.051735L198.884894,335.185416L201.102756,332.476153L200.865385,331.714007L199.748314,331.619249L192.472201,336.065129L199.432661,329.984045L204.242207,325.623074L200.690677,327.269588L193.680362,331.232870L194.026742,330.040269L192.094209,330.388617L188.051456,332.087989L192.059075,328.511298L198.981163,323.187757L197.948898,322.981643L195.952480,323.350867L193.594275,323.902012L191.551505,324.224230L191.124628,323.575043L192.743877,321.761841L192.233043,321.179350L188.269999,322.483953L188.954836,321.217465L192.295088,318.573718L194.204527,316.744706L190.284732,317.914125L192.967751,315.732965L190.545361,316.096200L190.219030,315.418695L194.688779,312.501592L192.508288,312.718266L185.277490,315.159044L178.944689,317.073677L177.979378,316.573871L178.883398,315.278715L182.403915,312.934724L188.899774,309.471046L192.109790,307.418282L189.085708,307.810357L187.452910,307.633162L186.989185,307.005810L180.268806,308.593421L183.073407,306.772609L189.234245,303.876617L190.441265,302.718456L187.694788,302.846634L183.050554,303.518896L182.677042,302.826430L184.893927,301.373149L181.451076,301.569546L179.574366,301.278754L181.099172,300.051764L178.791338,299.844079L184.590444,297.576001L188.650031,295.829259L190.041527,294.775167L190.134545,294.038535L183.233424,294.816369L175.878238,295.575450L173.708607,295.181257L177.282182,293.657091L177.887910,292.736771L180.577435,291.465451L185.439907,289.879667L182.065214,289.676713L181.914684,288.937548L179.098467,288.575080L181.504997,287.471701L182.672285,286.564392L179.039609,286.239793L180.074467,285.348827L180.506213,284.536843L179.137133,283.900273L179.576733,283.089412L173.535581,282.783858L173.853281,281.945360L174.209672,281.110523L170.842457,280.478039L174.933861,279.459771L184.472901,278.308621L185.036034,277.566967L179.008968,276.969910L184.674334,276.130243L179.872439,275.428621L186.760843,274.691083L186.042729,273.976279L183.874701,273.221546L180.130365,272.388461L180.445337,271.639312L178.711515,270.805534L165.161495,269.333847L152.447303,267.693699L159.237576,267.167897L167.783839,266.883255L173.642444,266.510085L180.007256,266.276778L177.992945,265.307963L178.580317,264.586306L183.475768,264.373029L186.652302,264.024275L185.588263,263.164413L184.262054,262.248827L186.293311,261.809178L186.177012,261.064106L185.079324,260.153258L184.712406,259.349073L186.232913,258.879533L186.127906,258.124346L182.802374,256.726883L181.498963,255.689267L171.304839,252.716766L168.169345,251.146563L166.745834,249.917107L172.834434,250.464323L175.370028,250.227912L182.939575,251.325773L186.843558,251.575640L185.546400,250.462528L184.567986,249.413882L182.796964,248.113646L184.945701,247.956030L184.839075,247.135110L187.337291,247.136356L188.579599,246.767424L186.664513,245.356967L188.195268,245.095271L187.485115,244.064575L187.153842,243.153976L188.076992,242.698905L185.115160,240.776757L180.923941,238.315890L181.630574,237.727476L185.470221,238.426496L193.322799,240.868718L192.092419,239.572207L191.757453,238.638156L188.561120,236.414891L181.280176,232.261634L183.023636,232.163851L191.312592,235.205807L194.593417,235.973488L188.657863,232.235065L179.755989,226.872542L187.493237,229.899107L188.932534,229.765126L193.544698,231.353295L190.686178,228.948940L188.974333,227.115758L190.100592,226.848292L197.036680,229.953379L199.176232,230.376050L195.168735,227.152895L197.830363,227.904263L198.665959,227.571269L196.706251,225.480408L196.646135,224.559585L196.721374,223.716928L194.408599,221.274653L197.989394,222.766339L196.627428,220.921366L191.975611,216.724800L186.534561,211.842434L187.020977,211.120118L192.209561,213.869176L195.568897,215.361068L198.041709,216.248334L201.774705,218.164477L198.445829,214.592327L196.426147,211.971289L205.262592,218.135928L205.345265,217.268716L198.752537,210.767774L195.971955,207.336206L200.762227,210.400374L206.363845,214.302292L207.329197,214.183543L205.590773,211.609314L204.362957,209.443002L209.024541,212.778722L207.649042,210.454836L203.728157,205.594068L202.235618,202.996574L204.569517,204.181041L203.372444,201.814649L205.901925,203.258983L207.896482,204.204017L208.533741,203.742222L212.377083,206.775583L213.849452,207.299484L213.408033,205.703358L217.038162,208.726483L215.769107,206.171074L211.573629,200.090930L217.100163,205.497154L216.069279,203.096752L216.384113,202.301350L216.100007,200.739951L213.178259,195.761373L213.881148,195.355568L214.468701,194.799768L215.443620,194.763433L216.321330,194.608907L217.911356,195.457645L219.670229,196.590561L220.883335,196.991251L220.284286,194.763564L222.727125,197.011578L223.533433,196.869138L225.799902,198.992030L226.414922,198.608223L225.268072,195.404755L227.265951,197.223449L227.610679,196.380027L229.546502,198.207599L230.178803,197.873674L229.934224,196.003593L231.190575,196.756939L232.670760,197.959937L232.690877,196.514054L231.372360,192.493334L229.106013,186.499779L227.469218,181.519541L226.205719,177.102271L226.330081,175.361473L226.856369,174.404496L230.009889,179.027891L232.324930,182.036801L233.727126,183.158993L234.963862,183.968546L235.532134,183.274751L237.122005,184.991518L239.315440,188.267808L240.844483,190.057675L241.360969,189.367662L239.150072,181.547738L240.402071,182.605957L241.153865,182.361826L240.235076,177.430489L240.921842,176.880184L242.725012,179.614580L246.160815,187.466510L246.970932,187.576376L247.594588,187.107164L248.249037,186.725087L247.732354,182.353933L249.619732,186.146176L250.215351,185.524859L250.864119,185.074404L252.146720,187.046335L252.464624,185.326085L253.944508,188.283452L254.182687,186.168422L255.315705,187.868654L255.346658,184.646020L254.344697,176.238814L255.658332,178.677387L256.804276,180.469224L258.412331,184.944572L258.219374,179.616382L259.388434,181.899324L260.609400,184.756381L261.521585,185.894751L262.297310,186.222096L263.021296,186.217931L262.995999,180.315411L263.458006,177.723665L264.491681,179.936344L265.197040,179.307562L265.518554,174.516449L266.297956,174.149096L267.329964,176.949551L268.163986,177.585739L268.929764,177.302521L270.256125,187.311687L270.997096,188.117389L271.513783,183.382192L272.100859,178.477175L272.845512,177.174244L273.603448,175.349374L274.400227,175.154836L275.193599,178.183585L275.870095,188.047780Z" />
<line x1="50" y1="625" x2="100" y2="625" fill="none" stroke="green" stroke-width="1.0" stroke-linejoin="round" stroke-miterlimit="10" />
<text x="125" y="628" style="text-anchor:start;fill:black">n0_4mer:PS</text>
<path style="stroke:red;stroke-width:1.0" d="M276.893336,156.759475L277.960691,151.753120L278.932861,152.233841L279.866748,153.490571L280.786209,154.641114L281.634511,156.744103L282.571791,156.946417L283.623394,155.533355L284.799744,152.862876L285.854217,152.074422L287.102090,149.425792L288.480518,145.952155L289.236249,148.525630L290.604330,145.694342L291.079662,150.166725L292.107184,150.090955L292.921880,151.505628L293.527355,154.149432L295.075150,150.705671L295.642974,153.384233L297.057170,151.074938L298.161319,150.650722L299.264394,150.283955L300.217093,150.704350L301.499201,149.548020L301.903774,152.491849L302.243150,155.520753L303.329275,155.191288L305.606690,150.036322L305.287831,155.487647L305.652964,157.989129L308.318025,151.846689L310.911363,146.355760L313.343917,141.770064L313.721402,144.401781L313.997808,147.232144L313.600933,152.066340L312.810940,157.871708L312.595683,161.650923L315.936899,154.806571L317.942282,152.150463L318.397208,153.968803L319.630193,153.598382L318.631672,159.186273L319.438052,159.848946L320.718524,159.297517L321.364225,160.357655L324.016838,156.536482L325.847046,154.845446L326.415301,156.162756L329.970913,150.685334L331.157779,150.701597L328.226953,159.658880L327.803048,162.944463L328.923105,162.903975L329.230277,164.538224L329.793924,165.612850L330.539067,166.307349L331.796576,166.008954L333.977742,164.001053L334.509887,165.131635L335.039468,166.242322L336.809208,165.125044L335.726742,169.043614L338.123976,166.876835L338.664958,167.928396L337.964746,171.010456L339.576931,170.250075L338.176034,174.335704L338.949476,174.892501L341.134350,173.276780L344.090519,170.569116L344.363923,171.958288L346.906476,170.005833L346.069769,172.989208L348.143220,171.784910L347.703574,174.127160L347.231192,176.455640L347.834050,177.283744L346.335673,180.876267L348.761917,179.276830L348.322898,181.406138L350.900454,179.697728L351.533727,180.465764L356.228136,176.293819L354.486618,179.971089L355.989426,179.734811L356.098632,181.139680L357.541867,181.001293L357.833708,182.178533L354.599214,187.227873L355.337811,187.826332L355.690142,188.838665L356.673160,189.176694L358.308650,188.849967L364.464900,183.953923L367.478773,182.381919L361.869956,189.381297L361.071019,191.516682L367.422235,186.781527L365.671225,189.829800L366.867373,190.080464L365.041390,193.095486L362.021192,197.106826L363.279865,197.244287L365.257564,196.776681L367.063544,196.493402L366.765193,198.008242L369.832017,196.720313L372.812085,195.568539L370.497805,198.708614L371.862952,198.880480L370.836185,200.920815L372.579671,200.813584L375.873853,199.575933L376.246255,200.553831L374.385773,203.140662L376.844778,202.597318L375.271562,204.917506L376.956969,204.947898L375.294190,207.266008L375.307244,208.420353L377.165940,208.358819L380.347257,207.479826L382.946253,207.027176L383.246077,208.042668L381.392019,210.361518L378.889251,213.015418L379.919996,213.534138L386.022259,211.147655L388.376763,210.996025L387.009221,212.945357L381.357900,217.184314L384.345838,216.689386L384.880926,217.529219L387.289442,217.409749L387.059909,218.656084L384.189250,221.190338L384.602000,222.073329L393.561377,218.913010L396.180654,218.856848L396.884289,219.711848L396.723794,220.955553L391.539866,224.370273L389.609699,226.295888L392.096436,226.342258L396.307047,225.727812L392.755225,228.265311L390.959531,230.049289L389.794028,231.555060L386.964203,233.647815L388.015172,234.284945L393.171887,233.493082L393.339598,234.495605L393.283824,235.569826L397.714926,235.181538L398.446636,236.033759L395.961085,237.880652L403.817685,236.595472L401.741747,238.316732L393.934204,241.606161L393.908772,242.638131L389.999949,244.688775L390.270325,245.602495L394.628144,245.509172L399.860787,245.277616L395.313821,247.375972L393.729119,248.738734L393.721807,249.735674L399.384440,249.569898L400.433992,250.399911L399.767738,251.566362L402.891264,252.038235L399.480722,253.677909L397.003055,255.106440L398.630289,255.855980L402.399643,256.315526L403.763906,257.167368L399.704582,258.746053L393.957256,260.462792L395.774834,261.221174L391.413794,262.662082L391.420229,263.603222L396.151549,264.118619L400.196028,264.765136L397.464654,265.974883L396.935274,266.994928L394.870100,268.093911L398.058407,268.898338L404.055812,269.636417L404.434402,270.658480L400.613233,271.793269L402.261649,272.770599L400.025219,273.810993L402.240558,274.808727L404.156394,275.839963L404.218373,276.875087L401.148323,277.840909L404.988956,278.968910L402.421279,279.911947L399.782310,280.811116L399.262994,281.784407L402.557386,282.989088L403.078769,284.051780L402.816589,285.062344L402.102912,286.030798L406.611888,287.484578L402.328693,288.107726L404.432084,289.372439L400.583345,289.963888L401.655955,291.121181L400.648490,292.016329L396.117408,292.391312L394.885879,293.195295L397.845625,294.651980L397.141534,295.543618L400.480589,297.139742L399.996826,298.087826L399.664903,299.060265L402.094887,300.586410L401.394769,301.500194L396.923606,301.583603L393.185799,301.761637L394.063088,302.964300L396.548838,304.576962L394.102414,304.993728L392.949770,305.709776L397.272983,307.882944L395.796818,308.525341L393.680141,308.963607L388.357722,308.424668L389.744021,309.834402L391.655760,311.437381L390.319852,312.036075L390.257918,313.036839L385.403574,312.417680L386.920016,313.933399L393.641380,317.339410L393.716677,318.440946L398.632574,321.365519L398.159155,322.316161L397.716108,323.277014L395.906499,323.686536L395.078727,324.474166L395.603718,325.823780L393.810222,326.191997L388.270186,324.883975L387.247097,325.510254L386.655217,326.322827L384.614007,326.451590L383.242276,326.869327L384.561408,328.584278L388.170365,331.476636L388.580194,332.821607L382.610650,330.871976L379.083676,330.103201L379.451218,331.373060L378.854671,332.129515L376.565163,331.934050L381.082577,335.587680L381.685551,337.070113L384.437256,339.849400L388.973815,343.776515L390.309231,345.847926L389.999071,346.932000L383.595104,344.142092L379.689059,342.839186L375.831325,341.491672L378.602803,344.515845L380.944354,347.323816L382.575886,349.707274L379.018980,348.478568L376.455188,347.892120L376.548048,349.198745L374.703225,349.082488L374.462104,350.146767L373.446421,350.625110L373.686250,352.073558L371.766410,351.829393L369.548242,351.310380L370.742802,353.548714L370.919006,354.986698L369.435713,355.040325L367.062359,354.304056L365.151560,353.924240L364.794949,354.891014L365.209172,356.562863L363.355164,356.181699L360.755798,355.069047L360.781400,356.388227L358.856651,355.847651L361.045706,359.297840L362.048851,361.657341L358.324767,359.289017L359.718751,362.082779L359.696143,363.465774L360.517155,365.767143L360.013327,366.692298L362.839091,371.274785L357.133600,366.481807L355.214104,365.795821L353.948205,365.818134L350.571999,363.353187L350.498049,364.711005L351.640959,367.563379L353.949404,371.920787L355.474011,375.423884L351.610615,372.187203L349.327135,370.859202L351.261928,374.997710L348.724910,373.293332L350.410120,377.235282L348.719417,376.636674L346.399283,375.114751L348.578881,379.938210L346.050365,378.078000L347.188788,381.545226L347.778106,384.289247L346.102892,383.649278L344.670307,383.343605L340.220762,378.231735L337.898146,376.343440L336.798212,376.373798L337.157106,378.823861L337.456040,381.244175L335.296485,379.476335L335.343815,381.519292L332.750482,378.872006L330.866419,377.405341L330.984335,379.605001L334.035257,387.460696L334.377764,390.347957L332.595262,389.121453L330.423516,387.039536L327.978161,384.289335L328.348049,387.334997L327.631272,388.154863L324.465739,383.614891L323.673626,384.184896L323.500205,386.181113L324.667196,391.390278L322.546021,388.938033L321.928819,390.042074L321.521765,391.707432L320.342081,391.450100L321.194588,396.508051L319.828847,395.819135L319.992373,399.302453L318.896024,399.376274L316.237519,394.893756L315.283980,395.243108L314.869619,397.247141L312.496560,393.172309L312.071812,395.162675L311.740750,397.564655L309.111409,392.196809L308.387562,393.229582L307.394999,393.329157L306.496351,393.772516L305.626884,394.342347L303.101213,388.259334L303.127226,392.377216L304.131929,401.013665L302.095967,396.636616L301.004140,396.303541L299.262807,392.773711L300.015982,401.548357L299.099867,402.261554L296.903170,395.950940L295.940965,396.162313L294.645479,394.353271L293.801807,395.226504L292.776904,394.956815L291.889980,395.624384L290.749046,394.431600L290.434408,399.743414L289.161847,397.498921L287.864805,394.670774L286.841387,394.117493L285.893917,394.281033L284.927123,394.227298L283.962496,394.173809L283.162082,396.535451L282.083169,394.811114L281.509416,402.414506L280.337217,398.936557L279.266782,396.750664L278.225572,394.329152L277.280679,394.909580L276.357981,398.323528L275.358336,394.266971L274.397864,395.374965L273.430202,395.665761L272.389466,399.202075L271.546392,393.966457L270.475328,397.138262L269.257783,402.418975L268.350222,400.251110L267.202909,402.561156L266.188540,402.397736L264.833546,406.665081L263.400735,411.023465L262.083327,413.376347L260.927636,413.743638L260.493170,407.454858L259.309250,408.387596L257.962010,410.482377L257.460072,405.993149L256.697593,403.836964L256.712913,396.722139L255.726262,396.651770L254.856661,395.870765L254.302329,393.345431L253.183376,394.115457L250.857518,401.108074L249.788351,401.212371L249.024356,399.825666L248.077145,399.376349L249.360548,389.024414L248.332575,389.312102L246.967405,390.959634L246.041835,390.723621L244.540329,392.713626L242.355006,397.118889L241.905790,394.941859L241.092751,394.159199L241.176128,390.349662L239.734229,391.795447L238.985170,390.914131L238.097672,390.498692L238.224608,387.000224L236.767735,388.366619L235.376695,389.456685L235.130740,387.251712L234.069831,387.377644L231.501096,391.520548L230.789330,390.593940L230.733150,388.020351L229.685078,388.022940L228.274667,388.892166L228.745603,385.222769L226.996387,386.872230L226.111972,386.462064L224.873502,386.842666L224.508672,385.282237L223.942731,384.199834L221.832151,386.380821L222.065985,383.644798L220.228450,385.167274L220.274509,382.898768L217.868908,385.440834L214.984878,388.774459L217.487975,381.945375L217.189941,380.466433L213.635444,384.855104L210.047180,389.122956L206.390874,393.333084L206.334711,391.274455L210.837587,381.689246L210.234836,380.764822L209.771229,379.631537L206.198837,383.418562L205.886346,382.007472L206.223343,379.637856L206.602778,377.267155L207.434637,374.293670L206.448302,374.029057L205.741508,373.357890L204.612159,373.280625L200.772689,376.907956L199.226807,377.299087L200.231519,374.270912L200.566127,372.197398L197.731556,374.242549L197.175563,373.322408L195.685490,373.572765L197.363824,369.920755L196.683949,369.202749L195.482920,369.104417L195.749860,367.279563L189.584324,372.862476L191.983416,368.590537L190.375001,368.878836L187.821725,370.167986L186.786788,369.763183L185.496883,369.618393L186.318456,367.258898L189.032809,363.013596L187.760660,362.896997L187.801204,361.460478L183.380746,364.400185L183.076598,363.271306L181.213795,363.627746L180.151546,363.204747L177.328478,364.382500L176.886645,363.353872L176.267198,362.490335L174.831641,362.340715L175.984737,359.949423L178.264413,356.658113L179.992456,353.905396L182.146859,350.868167L178.331072,352.703604L177.013591,352.479401L179.948941,348.929268L179.186487,348.298665L176.629879,349.013523L171.082112,351.892384L175.300259,347.543179L175.492877,346.191543L176.256841,344.456483L170.910264,346.978488L171.890422,345.087076L170.807579,344.610025L165.611777,346.821256L167.781385,344.174623L170.642514,341.151409L172.582989,338.777627L170.169780,339.121330L169.347502,338.467523L167.601715,338.351627L166.173307,338.025190L166.720693,336.555779L163.905686,336.984437L162.880457,336.384516L161.051940,336.204956L164.217903,333.366398L165.444133,331.604378L166.308656,330.059661L167.466309,328.395660L164.691250,328.676986L164.381927,327.736341L164.982719,326.372935L167.733045,324.046424L160.849481,326.092816L154.623654,327.726657L152.471765,327.504024L151.622314,326.702771L155.429403,323.985631L158.309937,321.717978L162.508005,318.995512L163.558318,317.559175L157.896597,318.650273L157.999689,317.548064L154.161013,317.851724L156.637189,315.909765L158.576518,314.198819L156.443425,313.862990L154.601412,313.402008L153.640646,312.640626L154.567702,311.298674L154.583915,310.244588L148.200860,311.013195L146.980091,310.254716L148.391275,308.777891L151.957434,306.773430L154.400722,305.114621L152.062474,304.654876L150.772545,303.915523L151.192674,302.774671L150.380847,301.910659L149.582881,301.033775L147.790745,300.345121L151.853626,298.512121L150.578407,297.724640L154.252026,296.056088L154.534479,295.014348L154.226180,294.073188L151.659718,293.467586L149.103381,292.820952L149.630687,291.723553L149.364266,290.736347L150.166859,289.621644L149.055972,288.730479L150.262829,287.589175L150.415890,286.566862L150.770885,285.531399L145.880292,284.905438L146.548078,283.820305L146.077586,282.816061L142.850431,281.950245L147.861221,280.666350L153.191165,279.451919L153.774365,278.458965L150.230141,277.560504L155.264282,276.498251L149.363306,275.566087L154.907576,274.579568L156.744053,273.639110L155.795664,272.673539L152.605768,271.630773L153.672123,270.687731L151.721150,269.629795L136.004565,267.829751L117.328294,265.599988L118.555423,264.415476L134.118278,264.334621L145.363968,264.141422L154.845774,263.966189L153.697573,262.880596L152.567180,261.776788L157.589779,261.367381L154.473482,260.026595L151.652197,258.672237L150.584502,257.516207L154.227347,257.040920L159.588912,256.892563L157.197887,255.549773L157.022414,254.549144L156.202357,253.425861L154.510058,252.120529L153.736346,250.966139L150.587335,249.305100L135.333197,244.986757L123.372356,241.144170L125.115024,240.271094L135.504017,241.499198L148.926708,243.653021L150.255747,242.920811L154.037006,242.858495L157.561239,242.786090L158.461612,242.027551L157.843451,240.837216L158.694422,240.072578L156.742762,238.451740L157.617749,237.689982L156.350573,236.238563L159.772711,236.332795L160.966110,235.714670L160.582176,234.554721L159.136542,232.997133L160.682990,232.519135L161.200770,231.671462L156.483418,228.785529L158.172839,228.363286L160.318442,228.151830L167.643126,230.137692L162.184941,226.792242L159.236526,224.432429L158.004169,222.774696L152.924437,219.330774L156.969605,220.029708L163.985411,222.211461L170.113561,224.091832L165.011756,220.523237L157.128665,215.438799L160.616907,216.047074L161.895090,215.554931L157.308901,211.936841L160.296899,212.350731L157.824553,209.776938L161.012016,210.350360L168.429944,213.424622L170.475070,213.484787L171.255608,212.820492L171.818961,212.029805L173.894061,212.179714L172.300054,210.043864L172.850644,209.241202L173.434585,208.460936L172.219432,206.482496L171.974127,205.121072L165.634616,199.535709L159.517515,193.942314L157.205614,190.903806L160.666507,191.984642L164.187017,193.177883L168.917273,195.350338L170.767982,195.426966L175.206741,197.543131L177.685621,198.210780L175.146467,194.901605L179.423288,197.066489L177.264506,193.994803L178.188600,193.444346L175.880982,190.134319L180.954142,193.163935L185.590143,195.931274L184.034599,193.248444L184.584474,192.424491L182.074292,188.757284L185.158647,190.270862L186.348357,190.041524L184.984316,187.340945L183.186159,184.146330L185.902905,185.411470L184.397944,182.427482L185.377877,181.949908L187.946656,183.156425L189.087847,182.894483L190.265943,182.686644L190.731052,181.704823L191.539876,181.099664L195.497040,184.096383L196.306609,183.554788L195.158253,180.703716L199.200570,184.010519L197.566086,180.520418L199.026168,180.773072L198.852453,178.994547L198.806971,177.341298L198.172065,174.884945L198.181248,173.219899L199.162648,172.829102L200.589197,173.055532L201.365324,172.403842L203.052519,173.041118L205.153828,174.317290L204.963433,172.296699L207.523099,174.327958L205.241026,169.099624L207.824193,171.221817L206.819726,167.798107L206.535009,165.422754L209.243667,167.858435L210.020031,167.196737L212.010846,168.581603L213.592932,169.333444L213.646740,167.453043L215.806891,169.281880L217.984413,171.230491L218.317745,169.851035L217.311150,165.901393L214.311035,157.969705L214.707011,156.419659L214.560656,153.738361L214.471206,151.083625L214.811833,149.237591L217.944022,153.289198L221.375436,158.184469L222.926276,159.124781L223.552634,158.022469L224.551654,157.755578L226.653695,160.115947L228.345042,161.603989L229.218207,161.143958L229.708036,159.703672L230.084657,157.916351L231.406744,158.583865L231.929109,157.113314L231.499613,152.913971L231.724263,150.397976L233.392642,152.033716L235.234647,154.303104L236.876954,156.092911L237.960323,156.208784L239.201367,156.868879L239.732376,155.172764L240.884104,155.563599L242.100769,156.230382L243.428354,157.370187L244.678555,158.304183L245.564533,157.868891L246.978865,159.595618L247.680276,158.421353L248.418329,157.337834L248.721231,154.186385L248.342160,147.538309L250.083844,150.916118L251.280084,151.769832L253.134080,156.288639L252.929563,149.548297L254.266688,151.355433L255.774841,154.438803L257.165672,157.097992L258.370491,158.777932L259.166266,157.645772L259.755137,154.752295L260.338799,151.434876L261.694123,154.628196L262.419084,152.190304L263.143464,149.345455L264.321779,151.246520L265.501077,153.569839L266.469081,153.433080L267.388972,152.504217L268.548826,155.753068L269.604373,157.888468L270.457867,155.632702L271.223689,149.273028L272.198542,147.798238L273.219118,147.925574L274.243893,149.129558L275.244919,152.519175L276.179956,157.082100Z" />
<line x1="50" y1="600" x2="100" y2="600" fill="none" stroke="red" stroke-width="1.0" stroke-linejoin="round" stroke-miterlimit="10" />
<text x="125" y="603" style="text-anchor:start;fill:black">n0_4mer:D</text>
<path style="stroke:black;stroke-width:1.0" d="M277.609772,112.017393L278.955744,110.331292L280.281246,110.143329L281.614014,109.866117L282.889125,110.898363L284.187350,111.241389L285.470186,111.756855L286.740858,112.344682L288.251755,109.839442L289.536306,110.374242L290.957057,109.425728L292.412105,108.315405L293.588095,109.863969L294.891691,110.167026L296.153296,110.777942L297.428449,111.237446L298.697604,111.706824L299.881115,112.705011L301.217609,112.674933L302.376258,113.715841L303.515548,114.789460L305.175077,112.995024L306.583418,112.665055L307.916944,112.751604L309.509475,111.625945L310.709165,112.395906L311.834823,113.454914L312.928563,114.594471L313.807169,116.554689L314.807329,117.924784L316.351976,117.148031L318.123807,115.601610L319.959994,113.941111L321.856618,112.191799L322.966743,113.219411L323.764165,115.234795L324.783348,116.453338L325.544206,118.427418L326.721410,119.062572L328.492242,117.943258L330.131648,117.279054L331.692264,116.889998L332.883027,117.548448L333.925847,118.590181L334.861189,119.883410L335.949607,120.751346L337.374821,120.769109L339.080873,120.129836L340.684200,119.784382L342.242537,119.580941L343.560585,119.952797L344.588740,120.973802L345.369231,122.512105L345.655299,125.059460L346.495858,126.373516L346.757969,128.836026L347.976326,129.314644L349.379332,129.436038L350.582850,129.958617L352.486676,129.166350L352.955181,131.077559L354.002287,131.892380L355.268137,132.311584L356.066099,133.555380L357.870407,133.053765L359.374826,133.098579L359.983773,134.644891L361.157290,135.244679L361.921269,136.500194L362.381295,138.211969L364.039272,138.046036L365.305392,138.502663L366.737445,138.721905L368.376610,138.656240L369.336622,139.592869L369.969586,140.984921L370.447452,142.571084L371.652501,143.137870L372.757458,143.845783L374.181972,144.134515L375.470753,144.615929L376.750457,145.119452L377.826029,145.889387L378.628336,146.998582L379.991448,147.417301L380.528321,148.837362L381.211166,150.067311L382.191691,150.940616L382.595867,152.469789L383.190561,153.764251L384.418117,154.347289L385.973668,154.583703L387.207682,155.184079L389.516462,154.664491L390.067807,156.007610L390.421006,157.539075L391.410760,158.413882L391.788440,159.893750L393.029355,160.519164L394.801270,160.647809L395.394072,161.910238L395.561247,163.556679L396.634615,164.357283L396.463988,166.276881L396.945950,167.591654L397.679193,168.677900L398.450431,169.728435L399.567072,170.487193L401.460396,170.612468L402.175669,171.722894L402.656623,173.017544L404.393036,173.316791L404.866720,174.615989L406.522156,175.008297L407.418649,175.989675L408.257492,177.016032L409.007339,178.108077L409.432379,179.430398L410.500656,180.294943L410.358136,181.998786L411.088053,183.092512L411.757055,184.226531L412.207208,185.501969L412.793074,186.684342L412.448444,188.449901L413.870607,189.099377L414.756922,190.090668L414.906213,191.526224L417.069431,191.770679L417.666232,192.948225L419.222199,193.583017L420.295927,194.504067L420.858877,195.711757L422.161921,196.523286L421.699902,198.271870L422.198286,199.505937L422.909705,200.630744L422.603299,202.259473L423.710078,203.188086L425.952801,203.589829L426.928068,204.611532L427.475380,205.835368L427.864297,207.129405L427.772162,208.629469L427.631328,210.138358L429.184760,210.930738L429.739121,212.148457L428.575742,214.048866L428.580913,215.465686L427.672970,217.219398L427.614698,218.634205L428.413948,219.730808L430.031058,220.546597L431.420133,221.461684L431.274497,222.905551L433.125422,223.691562L432.458199,225.297923L432.420839,226.692241L434.407953,227.475568L434.363045,228.875045L434.811491,230.128811L434.429800,231.610045L434.494052,232.961199L434.559021,234.307506L435.304548,235.481592L436.418489,236.575268L435.222267,238.213001L436.463777,239.286410L436.414394,240.650574L436.010588,242.081770L437.569381,243.116927L437.340260,244.509563L438.452821,245.653466L439.113819,246.889224L439.629755,248.155820L440.370643,249.392531L440.224030,250.768189L440.449897,252.086691L439.995817,253.494508L438.648785,255.001250L438.195032,256.381586L438.376165,257.684854L437.775480,259.065346L437.985004,260.361294L438.383564,261.643278L437.687332,263.010645L439.262601,264.216132L440.404551,265.470529L440.750244,266.781529L442.921675,268.021145L442.284969,269.388887L441.437211,270.751090L441.240902,272.087751L439.696265,273.433716L438.840920,274.753707L438.450100,276.062991L438.186345,277.367996L438.937056,278.691926L439.989371,280.037566L439.244181,281.331428L438.426454,282.610775L436.512801,283.818141L435.339035,285.042246L437.448293,286.480796L438.049093,287.836018L438.812927,289.216726L439.129449,290.569163L438.129024,291.793156L438.859105,293.195295L437.268177,294.335070L437.120570,295.635233L435.475929,296.732942L433.626204,297.777220L434.909595,299.269766L434.994079,300.594729L435.868925,302.057379L436.188835,303.440090L436.140366,304.763801L435.712771,306.017485L435.863715,307.384661L435.171027,308.581796L434.090856,309.687361L433.405666,310.868903L433.344641,312.190342L433.551979,313.581084L434.147226,315.078270L434.789095,316.603195L434.040408,317.770829L433.825373,319.079594L433.948121,320.487404L433.075202,321.610068L432.027053,322.670836L430.745367,323.647004L429.232021,324.533090L429.044181,325.836886L429.804381,327.465882L430.194070,328.987060L430.545723,330.509419L430.577650,331.929156L431.381050,333.647073L431.945104,335.296288L432.306569,336.885042L431.840833,338.156546L429.746571,338.757818L429.496102,340.106417L427.902126,340.881244L428.044776,342.400628L428.081650,343.885460L427.422979,345.061913L426.981627,346.338477L426.168829,347.439584L424.573262,348.153269L423.121440,348.918650L422.224055,349.949084L420.398782,350.491759L419.844939,351.682724L419.171326,352.810282L418.280828,353.817487L418.026858,355.176097L417.749438,356.529479L417.794470,358.078437L418.415334,359.983841L418.458165,361.568591L418.420856,363.120180L416.989997,363.814843L414.945615,364.102843L413.262516,364.595003L411.371837,364.928318L410.522879,365.933712L410.027949,367.177980L408.782448,367.906713L407.973035,368.931590L406.820747,369.708747L405.624188,370.443989L405.728848,372.135456L405.006789,373.224243L404.384726,374.391466L404.422282,376.078274L403.227007,376.808086L402.184018,377.650885L402.537206,379.633280L401.215304,380.250731L400.282735,381.185155L400.650415,383.237370L399.196597,383.729366L398.378112,384.770123L397.244905,385.528056L395.260558,385.496728L394.390285,386.473119L393.883918,387.795447L392.923009,388.691616L393.428852,391.023180L391.893645,391.367905L390.852729,392.193399L390.398882,393.619021L389.566494,394.665586L389.359129,396.379757L388.579128,397.502338L387.468279,398.269256L385.258344,397.807628L383.650765,397.983801L381.949050,398.028930L380.798068,398.691269L380.633459,400.519585L380.462249,402.372390L380.236505,404.191664L379.620910,405.556909L377.929888,405.575483L376.321922,405.674196L375.795523,407.167147L375.011640,408.339970L374.096685,409.347717L373.421559,410.693422L372.150499,411.222630L370.841401,411.689019L369.481411,412.071145L368.493117,412.988814L366.830969,412.900505L365.463785,413.233827L364.665154,414.437392L363.018361,414.315884L361.926474,415.058628L360.769770,415.696745L359.736852,416.539846L358.024365,416.233021L356.790935,416.719987L355.641305,417.348551L354.061616,417.202945L352.884608,417.765548L351.391011,417.734244L350.728040,419.260033L350.028338,420.750951L349.343383,422.306819L348.361137,423.300727L346.642450,422.792139L344.840111,422.062335L343.612963,422.514780L342.419321,423.036648L340.977391,423.000779L339.950261,423.890965L339.089736,425.188110L338.087406,426.180999L337.639908,428.556494L336.829698,430.109877L335.531393,430.460151L334.546871,431.629262L333.290906,432.101005L332.009931,432.503901L330.867704,433.297182L329.175626,432.509944L327.313110,431.148698L325.921678,431.134664L324.480900,430.941561L323.385555,431.834463L322.293433,432.767691L320.791172,432.325055L319.336420,432.000871L317.962430,431.928794L316.650123,432.062318L315.434772,432.560284L314.202071,433.000313L312.548315,431.692189L311.278472,431.926897L310.015434,432.187926L308.913011,433.196670L307.985856,435.116123L307.020420,436.981707L305.752723,437.392570L304.378024,437.227638L303.129302,437.753308L301.652726,436.924786L300.293606,436.737745L298.906206,436.316749L297.690131,437.047739L296.298805,436.517741L295.144621,437.812126L293.872002,438.241410L292.452157,437.343162L291.198788,437.950419L289.845847,437.552002L288.511738,437.279443L287.257013,437.980809L285.991082,438.659974L284.687023,438.855047L283.406696,439.551618L282.064198,439.039113L280.741832,438.840537L279.425801,438.731293L278.134473,439.798922L276.815733,439.893741L275.492557,438.940378L274.179449,439.039078L272.881704,437.827202L271.570212,438.179987L270.224276,439.509392L268.897099,439.740728L267.561972,440.048762L266.226163,440.258567L264.884992,440.482501L263.532774,440.795307L262.091167,442.181451L260.710551,442.570992L259.455329,441.530100L258.060686,442.009754L256.764893,441.495958L255.349174,442.052331L253.879706,442.943970L252.610397,442.211893L251.446401,440.801918L250.414977,438.642333L249.215110,437.748784L248.073180,436.575264L246.580090,437.499757L245.108771,438.201576L243.709027,438.448164L242.438111,438.008502L241.325046,436.824617L240.226193,435.645636L239.264723,433.922822L237.987769,433.655962L236.836175,432.868476L235.527900,432.739771L234.209846,432.636534L233.078176,431.821795L231.674290,432.023426L230.421889,431.659480L228.862980,432.341235L227.398725,432.648965L226.104646,432.370238L225.002223,431.485464L224.179926,429.773597L223.066202,428.994517L222.031213,428.006715L220.540071,428.331671L219.143028,428.360589L217.497194,429.032810L216.212179,428.707595L215.138415,427.836204L214.070174,426.969102L213.197029,425.643640L212.084791,424.924958L210.713892,424.818521L209.054449,425.352295L207.617566,425.344257L206.889571,423.765554L205.414729,423.826999L204.284613,423.140990L203.538840,421.670970L201.871478,422.090414L201.041090,420.820077L200.180382,419.634746L198.511478,420.004124L197.607558,418.913621L196.746225,417.763155L194.935068,418.332602L193.320068,418.512711L191.458798,419.087071L189.958204,419.005633L188.904591,418.159428L188.518454,416.228783L187.516135,415.330272L185.946587,415.332555L185.504139,413.564890L184.596716,412.540936L183.797241,411.365871L182.947470,410.279871L181.561331,409.980512L180.519590,409.176958L178.713127,409.442738L177.691317,408.596770L176.342031,408.195128L174.940309,407.850322L174.518325,406.211194L173.870369,404.889537L173.469876,403.271873L172.485304,402.406158L171.840508,401.126470L169.834970,401.498142L168.228440,401.358708L167.073559,400.670502L165.117237,400.894915L164.909177,399.113264L164.237066,397.874983L162.995035,397.269990L162.505196,395.847721L161.455322,395.033976L159.822156,394.824041L159.172211,393.585011L158.023917,392.857912L157.013014,391.987981L156.831731,390.306169L155.091747,390.144325L153.510386,389.807403L153.080273,388.379798L152.637534,386.978015L153.017618,384.848611L153.030897,383.080774L152.160033,382.108978L150.926874,381.447635L149.514948,380.926608L149.113261,379.551098L148.289886,378.531921L147.786567,377.255630L146.805225,376.365634L146.076692,375.274588L144.930451,374.505007L143.238854,374.136877L142.851320,372.781309L141.435812,372.183510L141.048352,370.834592L141.819138,368.680154L140.775160,367.817038L139.322919,367.224312L138.037932,366.503133L135.386834,366.666111L134.709907,365.511469L134.390959,364.130990L133.618164,363.041995L133.024433,361.841963L132.708762,360.477131L132.987283,358.769835L132.483404,357.536144L132.240133,356.157656L130.874381,355.414064L129.719777,354.539712L128.647062,353.610598L128.354167,352.261482L128.973115,350.447908L127.760345,349.587040L127.470204,348.255653L127.045788,346.995523L125.695449,346.179831L125.515466,344.802300L124.802211,343.675991L123.686634,342.726595L122.141522,341.954322L120.461248,341.220707L119.866823,340.010258L120.427150,338.325339L121.317805,336.528131L122.611453,334.599015L123.540623,332.841788L122.192086,331.959123L121.846678,330.695384L120.427702,329.814176L119.698393,328.676929L120.102967,327.152543L118.276700,326.374088L118.668392,324.863107L118.942837,323.402444L117.710455,322.407564L118.055819,320.935998L117.344310,319.777000L116.050730,318.772187L116.683767,317.237125L116.931684,315.818172L117.349816,314.366533L116.650785,313.196851L115.558591,312.112019L116.035061,310.661855L115.901268,309.356290L116.316768,307.939072L116.634374,306.552704L115.797395,305.396273L114.230932,304.363225L113.643832,303.137364L113.053746,301.906028L112.275481,300.698246L112.074944,299.394565L110.585143,298.273296L110.081888,296.999137L109.911037,295.678012L109.514853,294.383193L110.222492,292.964123L108.678407,291.786108L109.121949,290.400749L109.950682,288.991891L109.893806,287.666147L110.508601,286.294999L109.574892,285.029077L109.424990,283.708215L109.185727,282.390049L110.118837,281.026144L110.163349,279.703330L110.143474,278.383155L109.609147,277.069532L109.510368,275.745655L109.997261,274.422341L110.219687,273.103707L110.727619,271.793965L110.546108,270.472969L109.688080,269.124438L107.242478,267.692239L101.675647,266.058852L95.712759,264.311321L96.390318,262.915859L99.671597,261.726853L105.825587,260.829606L113.501119,260.169492L113.674795,258.881895L113.063259,257.510213L113.183645,256.211340L111.664428,254.708286L110.803473,253.265021L111.403675,252.010225L112.792449,250.879486L114.756888,249.858636L116.739497,248.869716L115.253917,247.308773L114.459816,245.845245L113.494745,244.332255L113.156838,242.923480L108.852142,240.685547L103.326501,238.108782L100.479486,236.032588L100.419527,234.549056L105.514119,234.296943L110.989480,234.220274L114.396578,233.699280L114.768648,232.424360L116.042995,231.397473L117.612159,230.469930L116.845574,228.882257L116.728980,227.470046L117.186267,226.226518L116.104471,224.494962L117.595332,223.577661L119.102478,222.684950L119.951850,221.585022L120.349128,220.332838L119.992568,218.806644L119.463087,217.201580L118.809234,215.531078L119.989222,214.554946L121.395385,213.681943L122.169009,212.567535L123.527359,211.702588L123.038857,210.064467L122.108690,208.214322L121.392570,206.431789L121.525624,205.012203L123.779485,204.572074L125.635291,203.975599L126.872299,203.104053L126.959763,201.676228L126.223780,199.822346L127.163834,198.805396L128.663925,198.089475L128.788532,196.654593L129.157172,195.342637L129.045914,193.757959L130.016414,192.770836L131.588697,192.138025L133.097115,191.487041L134.209957,190.617072L134.335178,189.153885L135.759711,188.485648L136.509681,187.407003L136.784453,186.023539L137.292130,184.782747L137.446757,183.301685L136.478226,181.045417L135.753200,178.916937L135.401378,177.015087L134.949060,175.014327L136.037340,174.101876L138.177169,173.972726L140.789943,174.231609L141.938903,173.418208L143.724314,173.107310L143.867153,171.525167L144.943625,170.674128L146.751967,170.426205L147.708854,169.498468L149.561551,169.328408L149.158120,167.254211L150.430351,166.602989L151.068105,165.402049L150.796586,163.377096L152.183527,162.833061L152.984734,161.759776L153.385990,160.306154L155.526690,160.503866L156.626363,159.725409L156.868862,158.104254L158.002520,157.357194L157.146846,154.583712L157.854563,153.373850L159.296529,152.929784L160.652794,152.409561L163.125844,153.118916L164.658337,152.839403L165.332663,151.614133L167.056551,151.577552L167.991114,150.650925L168.667012,149.416506L170.132006,149.116674L170.707404,147.749285L171.674654,146.850217L172.719537,146.046638L173.709143,145.172721L175.155232,144.891539L176.463743,144.445546L177.594151,143.771220L178.286804,142.500754L178.621820,140.715020L179.512660,139.682094L180.242854,138.408316L181.254995,137.530076L183.033820,137.791222L183.984037,136.829610L185.297017,136.420161L186.188037,135.358282L186.606745,133.527849L188.056163,133.336097L189.651401,133.404711L191.220834,133.457465L192.758798,133.482991L193.869714,132.785626L195.004849,132.129705L195.862344,130.967883L196.863841,130.052765L198.143746,129.652845L198.688376,127.843561L199.512067,126.535229L200.396452,125.320208L200.911387,123.323555L202.441180,123.389271L204.225165,124.024374L205.425792,123.439829L207.220556,124.176182L208.083026,122.848724L209.471374,122.708271L211.104976,123.167935L212.298887,122.603419L214.043429,123.405372L214.948304,122.130936L216.174178,121.655030L217.329294,120.989925L217.933572,118.806990L218.950987,117.695617L220.089196,116.897615L221.489035,116.853825L223.089468,117.439724L224.619817,117.862479L225.931655,117.631233L226.816135,115.999127L227.924825,115.054772L229.285912,114.959468L230.715585,115.128694L232.466920,116.530017L233.938288,116.968941L235.274963,116.924110L236.577272,116.756900L237.828365,116.381309L239.206981,116.564353L240.064789,114.389387L241.221319,113.490748L242.212802,111.717877L243.405389,110.859064L244.992354,112.086731L246.029087,110.324949L247.546966,111.281896L248.943311,111.598200L250.315999,111.815087L251.846447,113.182000L253.044164,112.270838L254.223547,111.120483L255.391964,109.742770L256.691004,109.367409L258.045760,109.499729L259.453594,110.240529L260.893611,111.516329L262.261497,112.156435L263.559590,111.972367L264.841207,111.499192L266.143177,111.285780L267.459996,111.344998L268.775774,111.427292L270.093879,111.657611L271.377343,110.511196L272.705253,111.258890L274.020004,111.858407L275.325257,112.343411L276.620554,113.051369Z" />
<line x1="50" y1="550" x2="100" y2="550" fill="none" stroke="black" stroke-width="1.0" stroke-linejoin="round" stroke-miterlimit="10" />
<text x="125" y="553" style="text-anchor:start;fill:black">GC-content</text>
</g>
<g style="fill:pink;stroke:black">
<a href="" title="CP000743 AAZL01000000 AAZL01000001:1 [61500-82599];"><path  d="M331.056382,51.935700L334.940854,52.947992L338.807066,54.027924L342.653843,55.175166L346.480011,56.389369L340.264358,75.398989L340.264358,75.398989L336.770900,74.290369L333.258626,73.242887L329.728606,72.256863L326.181914,71.332596Z" />
</a><a href="" title="CP000743 AAZL01000000 AAZL01000001:2 [98000-115599];"><path  d="M362.937433,62.474689L366.633118,64.041777L370.300890,65.673126L373.939633,67.368237L377.548238,69.126595L368.631000,87.028630L368.631000,87.028630L365.336187,85.423173L362.013856,83.875463L358.665020,82.385971L355.290700,80.955151Z" />
</a><a href="" title="CP000743 AAZL01000000 AAZL01000001:3 [524000-541599];"><path  d="M473.801085,390.663860L471.752194,394.115801L469.643370,397.531459L467.475257,400.909792L465.248513,404.249771L448.705164,393.010661L448.705164,393.010661L450.738278,389.961114L452.717860,386.876549L454.643308,383.757905L456.514034,380.606133Z" />
</a><a href="" title="CP000743 AAZL01000000 AAZL01000001:4 [800000-822599];"><path  d="M260.967133,504.571511L256.962695,504.291639L252.963751,503.941922L248.971520,503.522468L244.987217,503.033403L241.012057,502.474877L243.967530,482.694453L243.967530,482.694453L247.597024,483.204411L251.234866,483.650949L254.879947,484.033929L258.531156,484.353235L262.187382,484.608771Z" />
</a><a href="" title="CP000743 AAZL01000000 AAZL01000001:5 [906000-928099];"><path  d="M167.690577,478.432268L164.156538,476.528477L160.656263,474.563298L157.190818,472.537330L153.761259,470.451190L150.368631,468.305514L161.206141,451.496339L161.206141,451.496339L164.303759,453.455435L167.435095,455.360171L170.599197,457.209968L173.795100,459.004261L177.021831,460.742506Z" />
</a><a href="" title="CP000743 AAZL01000000 AAZL01000001:6 [1068500-1086099];"><path  d="M66.406214,371.894955L64.746934,368.239734L63.151698,364.556111L61.620994,360.845209L60.155287,357.108157L78.837436,349.968317L78.837436,349.968317L80.175690,353.380408L81.573290,356.768624L83.029809,360.131931L84.544804,363.469307Z" />
</a><a href="" title="CP000743 AAZL01000000 AAZL01000001:7 [1183000-1208099];"><path  d="M45.063611,269.591034L45.193031,265.578915L45.392452,261.569665L45.661814,257.564506L46.001035,253.564659L46.410011,249.571340L66.287401,251.782528L66.287401,251.782528L65.913988,255.428601L65.604265,259.080636L65.358326,262.737520L65.176245,266.398140L65.058079,270.061379Z" />
</a><a href="" title="CP000743 AAZL01000000 AAZL01000001:8 [1223500-1246599];"><path  d="M48.952347,232.544631L49.727723,228.606021L50.571720,224.681544L51.484079,220.772394L52.464524,216.879763L53.512755,213.004835L72.772516,218.395719L72.772516,218.395719L71.815435,221.933696L70.920246,225.487838L70.087222,229.057062L69.316617,232.640280L68.608664,236.236402Z" />
</a><a href="" title="CP000743 AAZL01000000 AAZL01000001:9 [1323000-1344099];"><path  d="M83.117020,148.189424L85.359395,144.859919L87.659535,141.570055L90.016742,138.320835L92.430296,135.113249L108.305923,147.277314L108.305923,147.277314L106.102243,150.205980L103.950011,153.172659L101.849882,156.176447L99.802497,159.216431Z" />
</a><a href="" title="CP000743 AAZL01000000 AAZL01000001:10 [1445000-1462599];"><path  d="M165.052930,72.981085L168.595392,71.093013L172.170265,69.267053L175.776462,67.503760L179.412883,65.803674L187.724806,83.994658L187.724806,83.994658L184.404596,85.546912L181.111981,87.156874L177.847966,88.824055L174.613545,90.547948Z" />
</a></g>
<path  style="fill:pink;stroke:black" d="M350,550L375,550L375,565L350,565Z" />
<text x="405" y="565" style="text-anchor:start;fill:black">Selected loci;</text>
</svg>