<svg xmlns="http://www.w3.org/2000/svg" viewbox="0 0 550 650">
<circle cx="275" cy="275" r="240" fill="none" stroke="black" stroke-width="1.0" />
<line x1="275" y1="15" x2="275" y2="55" fill="none" stroke="grey" stroke-width="1.0" stroke-linejoin="round" stroke-miterlimit="10" />
<line x1="495" y1="275" x2="535" y2="275" fill="none" stroke="grey" stroke-width="1.0" stroke-linejoin="round" stroke-miterlimit="10" />
<line x1="275" y1="495" x2="275" y2="535" fill="none" stroke="grey" stroke-width="1.0" stroke-linejoin="round" stroke-miterlimit="10" />
<line x1="15" y1="275" x2="55" y2="275" fill="none" stroke="grey" stroke-width="1.0" stroke-linejoin="round" stroke-miterlimit="10" />
<text x="275" y="10" style="text-anchor:middle" font-size="15">Methanobrevibacter sp. TLL-48-HuF1 chromosome, complete genome.</text><text x="285" y="25" style="text-anchor:start">1,951,395</text><text x="525" y="265" style="text-anchor:start">0.48 Mbp</text><text x="285" y="530" style="text-anchor:start">0.97 Mbp</text><text x="-200" y="25" style="text-anchor:end" transform="rotate(-90)">1.46 Mbp</text><circle cx="350.947879" cy="47.333754" r="2.500000" fill="grey" stroke="black" stroke-width="1.0" />
<circle cx="419.089738" cy="83.067336" r="2.500000" fill="grey" stroke="black" stroke-width="1.0" />
<circle cx="472.421869" cy="138.528004" r="2.500000" fill="grey" stroke="black" stroke-width="1.0" />
<circle cx="505.462727" cy="208.015439" r="2.500000" fill="grey" stroke="black" stroke-width="1.0" />
<circle cx="514.816330" cy="284.387632" r="2.500000" fill="grey" stroke="black" stroke-width="1.0" />
<circle cx="499.521304" cy="359.794953" r="2.500000" fill="grey" stroke="black" stroke-width="1.0" />
<circle cx="461.149690" cy="426.486940" r="2.500000" fill="grey" stroke="black" stroke-width="1.0" />
<circle cx="403.645372" cy="477.608905" r="2.500000" fill="grey" stroke="black" stroke-width="1.0" />
<circle cx="332.918718" cy="507.906466" r="2.500000" fill="grey" stroke="black" stroke-width="1.0" />
<circle cx="256.239104" cy="514.265603" r="3.000000" fill="black" stroke="black" stroke-width="1.0" />
<circle cx="181.487759" cy="496.032714" r="2.500000" fill="grey" stroke="black" stroke-width="1.0" />
<circle cx="116.347721" cy="455.081799" r="2.500000" fill="grey" stroke="black" stroke-width="1.0" />
<circle cx="67.514169" cy="395.621847" r="2.500000" fill="grey" stroke="black" stroke-width="1.0" />
<circle cx="40.006276" cy="323.764226" r="2.500000" fill="grey" stroke="black" stroke-width="1.0" />
<circle cx="36.651339" cy="246.894555" r="2.500000" fill="grey" stroke="black" stroke-width="1.0" />
<circle cx="57.794184" cy="172.913598" r="2.500000" fill="grey" stroke="black" stroke-width="1.0" />
<circle cx="101.261720" cy="109.425213" r="2.500000" fill="grey" stroke="black" stroke-width="1.0" />
<circle cx="162.586300" cy="62.954816" r="2.500000" fill="grey" stroke="black" stroke-width="1.0" />
<circle cx="235.464904" cy="38.278695" r="2.500000" fill="grey" stroke="black" stroke-width="1.0" />

<circle cx="275" cy="275" r="185" fill="white" stroke="grey" stroke-width="0.5" />
<circle cx="275" cy="275" r="170" fill="none" stroke="black" stroke-width="0.5" />
<circle cx="275" cy="275" r="170" fill="aliceblue" stroke="black" stroke-width="0.5" />
<circle cx="275" cy="275" r="157" fill="white" stroke="none" stroke-width="0.5" />
<circle cx="275" cy="275" r="140" fill="none" stroke="black" stroke-width="0.5" />
<circle cx="275" cy="275" r="140" fill="aliceblue" stroke="black" stroke-width="0.5" />
<circle cx="275" cy="275" r="133" fill="white" stroke="none" stroke-width="0.5" />
<circle cx="275" cy="275" r="110" fill="none" stroke="black" stroke-width="0.5" />
<circle cx="275" cy="275" r="110" fill="white" stroke="black" stroke-width="0.5" />
<circle cx="275" cy="275" r="109" fill="aliceblue" stroke="none" stroke-width="0.5" />
<circle cx="275" cy="275" r="80" fill="none" stroke="black" stroke-width="0.5" />

<g style="fill:none;stroke-linejoin:round;stroke-miterlimit:10">
<path style="stroke:blue;stroke-width:1.0" d="M277.070813,114.203529L278.080548,115.550088L279.087880,116.326443L280.013660,119.334699L280.968311,120.603503L282.008277,119.629064L282.976809,120.295239L284.019395,119.548237L284.978215,120.261587L285.826856,122.409450L286.648774,124.555019L287.759433,122.939819L289.212930,117.775644L290.349827,116.583234L290.322569,126.811981L291.309038,126.617956L292.511610,124.601405L293.370473,125.606048L294.469437,124.667269L296.303414,118.428885L297.333807,118.411054L298.383367,118.278998L300.117153,113.778940L299.869846,121.856741L299.984213,127.175336L300.691976,128.726517L301.624997,128.941049L302.648073,128.675944L304.245482,125.505228L305.822131,122.659131L306.689527,123.401281L308.193999,121.157280L308.265428,125.502380L309.458463,124.712152L311.449217,120.600900L312.662071,119.935765L313.630924,120.297338L314.641908,120.488688L314.615531,124.621143L315.200564,126.294390L317.788560,120.672975L318.727323,121.142288L318.207880,126.610561L320.304126,123.063402L320.567599,125.697734L321.299510,126.726347L322.621870,125.873656L322.736070,128.772273L325.800237,122.717128L328.217003,118.829907L327.812171,123.226258L328.055063,125.634184L326.987410,131.575009L327.050144,134.237952L328.315198,133.622290L329.923422,132.150776L331.198446,131.598343L332.344437,131.403043L332.204232,134.389980L333.042536,134.920524L333.852805,135.511909L334.546957,136.366129L335.144287,137.425392L335.531273,138.934306L336.368958,139.409282L337.166987,139.967705L338.853819,138.622575L339.645820,139.214919L340.209884,140.272450L341.462006,139.910846L343.057647,138.887481L344.213636,138.775741L346.895624,135.725371L350.818949,130.417118L351.506823,131.361986L352.814993,131.146313L350.076288,138.319902L352.786445,135.522084L352.979609,137.268295L351.042982,142.683570L353.247751,140.854271L354.286295,141.063094L354.143003,143.248093L356.236790,141.714531L356.323495,143.485529L356.728863,144.713133L356.517618,146.890003L359.121456,144.658752L360.055845,145.055307L359.451297,147.774455L359.704962,149.158639L361.095765,148.853707L366.399003,142.918320L362.900985,149.705421L361.714679,153.074005L363.473378,152.282093L365.904031,150.607153L366.587984,151.350660L367.073542,152.354351L366.734383,154.431117L367.719065,154.751791L370.934449,152.224920L368.762165,156.584694L371.214974,155.081859L373.508038,153.830789L375.310600,153.224147L376.060248,153.911536L374.814480,156.957790L375.018738,158.249475L374.354735,160.524895L375.299883,160.928209L374.016506,163.839587L374.922656,164.266340L377.630828,162.727316L377.918915,163.857910L377.924362,165.277879L378.527406,166.049653L380.756486,165.129462L381.414157,165.861657L381.962064,166.703792L383.731740,166.320849L384.628131,166.827145L384.983909,167.865127L385.770279,168.480654L385.850368,169.769147L387.402179,169.663802L386.158683,172.165566L386.238690,173.413108L386.908897,174.115027L386.828710,175.485190L388.847997,174.994509L392.032767,173.524656L395.292780,172.047520L396.059777,172.734318L391.885217,177.543672L392.828165,178.036878L393.721305,178.577418L394.787788,178.984833L394.868227,180.181712L394.773685,181.504080L394.964156,182.592465L394.482751,184.183228L395.818989,184.389142L398.698166,183.468493L395.843233,186.779613L397.233623,186.965605L397.653529,187.857214L398.953572,188.129255L401.291551,187.698024L404.118616,186.967135L406.424892,186.629070L403.063446,190.081736L401.828412,192.071547L402.218261,192.981256L404.450184,192.717563L405.851372,193.005210L406.754635,193.616083L406.117553,195.171514L406.097313,196.336493L405.576788,197.788069L405.396827,199.023522L405.669136,199.987798L407.112591,200.286145L407.161172,201.377883L407.152221,202.494006L408.460598,202.890393L410.445036,202.941149L417.244253,200.495139L419.877415,200.300879L419.701637,201.567180L416.908875,204.129912L412.880156,207.247689L410.559023,209.468598L411.317671,210.181497L413.929664,210.033114L414.573322,210.824204L419.791383,209.551158L420.126128,210.522116L417.909866,212.605601L418.232902,213.559697L416.543627,215.360573L417.526567,216.024275L417.718916,217.018265L416.562990,218.547206L418.234820,218.946858L416.642084,220.619344L417.567149,221.315017L417.687269,222.316413L417.228870,223.523983L418.503207,224.105519L420.631483,224.404100L420.481048,225.503969L423.095088,225.676377L419.983128,227.747832L418.170964,229.356230L418.185851,230.365206L419.304264,231.034113L420.111665,231.807350L421.108355,232.532990L423.968458,232.740112L427.877347,232.693010L425.270306,234.454442L424.352097,235.732215L422.403423,237.257710L423.495713,237.995328L425.915284,238.422936L424.918881,239.684996L421.828768,241.409405L420.264198,242.750319L421.438954,243.477615L422.607321,244.219340L423.178855,245.094555L426.710403,245.397274L429.967658,245.796350L430.045184,246.814402L432.356767,247.439786L437.032858,247.695046L443.517274,247.717145L439.263171,249.490296L440.260303,250.424261L437.082807,251.962623L437.337437,252.991992L435.836437,254.249348L437.706996,255.072367L439.136650,255.969282L442.108751,256.714480L442.871715,257.724224L446.535253,258.462815L458.776386,258.476422L467.370286,258.951846L450.917120,261.464561L428.761748,264.164802L427.783497,265.222066L427.577813,266.221414L428.837303,267.142538L431.167816,268.031481L434.932765,268.895167L434.612047,269.936520L431.622447,271.040783L429.934467,272.081671L428.877382,273.092749L429.838030,274.078038L427.095034,275.073826L427.819175,276.058301L432.628189,277.106789L430.827115,278.086474L429.416639,279.053462L431.850462,280.128298L434.776894,281.254224L433.913484,282.245620L433.021058,283.224965L428.212106,283.964316L428.284732,284.959438L432.829580,286.275837L438.811157,287.763959L447.650767,289.571874L439.961092,289.993320L437.331953,290.808992L430.898334,291.196550L426.304975,291.704884L426.310622,292.692493L427.382248,293.813270L429.844727,295.130460L429.189908,296.055908L433.055363,297.621502L433.299436,298.697689L430.205509,299.257397L430.791378,300.377767L424.273225,300.303817L426.257782,301.643377L430.969198,303.510018L434.165586,305.154781L433.926925,306.171049L424.815771,305.387199L424.354782,306.296386L429.115399,308.331391L426.568758,308.803764L424.770623,309.416653L424.940664,310.473807L424.038736,311.275468L424.322008,312.364581L423.486605,313.173273L428.613812,315.547754L424.900633,315.601970L424.575318,316.549560L423.335069,317.235838L422.275101,317.961223L421.859351,318.868095L419.664113,319.229043L420.000858,320.355069L424.419139,322.795572L423.682775,323.617659L420.184502,323.510868L418.268364,323.898457L415.671915,324.025923L415.927689,325.135126L416.505035,326.369463L419.337830,328.452294L417.958185,328.990750L416.316975,329.413305L416.334760,330.467855L417.080282,331.819006L416.749295,332.748196L416.108769,333.549563L415.066701,334.177305L415.905081,335.603801L420.155130,338.542527L419.130609,339.203198L423.002907,342.073632L425.921425,344.571219L423.481307,344.609209L418.343620,343.330011L416.775922,343.706627L416.708608,344.804424L418.755961,346.966980L423.044943,350.310293L418.708144,349.272928L409.353291,345.538018L407.746450,345.788590L407.610167,346.816519L410.988994,349.782907L412.489628,351.765389L414.860406,354.274786L412.535165,354.131345L409.899876,353.775723L408.769487,354.275188L410.230050,356.321961L409.173566,356.867724L407.651438,357.115882L405.767311,357.119016L405.341634,358.026835L416.144404,366.191147L428.849102,375.809636L419.723090,371.167595L403.861568,361.829110L401.402859,361.361136L399.521355,361.257055L398.697693,361.870603L398.010372,362.576135L399.305018,364.709638L397.656588,364.726872L396.681603,365.222270L397.896106,367.355183L399.031008,369.463934L395.367010,367.904174L396.411152,369.963962L395.680964,370.651787L395.545796,371.815101L399.792868,376.554977L397.579778,376.073062L396.875133,376.817537L393.587486,375.374642L390.235194,373.817920L391.551508,376.256437L393.279761,379.102004L390.708963,378.169247L387.769900,376.859778L386.725441,377.230502L385.752897,377.658750L385.055057,378.337475L385.230047,379.845611L383.552615,379.589805L381.872877,379.306816L382.232872,381.015044L383.044234,383.201854L382.207614,383.755791L381.413335,384.349676L379.688839,383.972893L378.279358,383.900824L377.022812,383.972845L376.361501,384.673616L376.813888,386.596348L377.321909,388.614058L378.306087,391.203021L378.590383,393.044995L375.700875,391.253900L373.578393,390.295579L372.756985,390.836873L375.075412,395.145354L376.990552,399.060513L377.381228,401.183471L375.577043,400.604446L371.220892,396.763207L370.175735,397.048119L370.382566,398.951181L372.386810,403.256201L372.638359,405.321516L368.034060,400.856898L364.002872,397.039828L363.263330,397.677432L361.797765,397.294009L362.777796,400.377691L362.628414,401.895851L363.497878,404.936565L361.008187,403.045656L359.779682,402.989741L358.990587,403.589488L356.915282,402.193753L356.818715,403.859212L355.974067,404.362423L355.760160,405.887343L356.381010,408.814229L354.965606,408.414561L351.919534,405.227016L350.126496,404.082499L350.008553,405.810281L350.405804,408.487803L350.293134,410.315828L348.720508,409.521147L347.934674,410.144963L349.093265,414.432729L346.035405,410.781229L345.134598,411.187406L343.870819,410.876008L343.558357,412.447330L342.040495,411.599597L342.102960,413.982660L339.327081,410.454236L338.213214,410.351237L338.656823,413.622452L340.630439,420.381722L339.182505,419.651106L337.787274,419.000918L336.219467,417.910139L334.554958,416.535747L335.103446,420.452388L334.923123,422.703776L333.260631,421.303427L330.339813,416.615208L329.537893,417.258641L329.402578,419.686425L328.416549,419.889531L328.191335,422.192279L327.821824,424.168140L328.642365,429.643097L325.226766,422.864978L325.935177,428.182605L326.016069,431.790981L324.671555,431.067526L323.777820,431.745073L322.024529,429.613340L318.427478,421.160894L317.925118,422.953291L316.325239,420.944440L314.821329,419.168448L314.092820,420.167208L313.763052,422.724885L314.826822,430.860454L314.598720,434.235819L312.520054,430.136013L310.543712,426.219732L309.427270,425.823813L308.538273,426.416967L307.826953,427.861214L307.554681,431.495895L306.858891,433.255403L304.783684,428.034237L303.907954,428.810123L302.408466,426.188653L301.550695,427.028511L300.410676,426.241303L299.615757,427.514242L298.345642,425.812560L296.941126,423.039260L296.147565,424.308642L295.758120,428.680066L294.865671,429.570162L293.441195,426.180516L292.349703,425.277852L291.573919,427.151919L290.631515,427.624015L289.600482,427.222480L288.423439,425.116058L287.482463,425.512846L286.489595,425.284556L285.473665,424.670742L284.488426,424.401337L283.833455,429.846459L283.102647,435.168770L281.989100,433.360801L280.958036,433.107096L279.916361,432.393112L278.802001,428.359494L277.840028,429.780669L276.834359,429.050173L275.836275,427.958021L274.849522,429.750092L273.852632,429.794177L272.868221,428.889651L271.867519,429.353219L270.885968,428.867481L269.906056,428.510698L268.822348,430.878353L267.792454,431.404347L266.795789,431.157239L265.878759,429.602882L265.006428,427.660977L263.809978,430.562561L263.038644,427.551359L262.079334,427.202383L261.198451,426.032890L260.161617,426.600091L258.420716,433.829700L256.405735,442.669441L255.322319,442.580897L255.231832,434.477958L254.362221,433.144584L253.878685,429.109002L252.709228,430.205600L251.470456,431.655151L251.405204,425.485607L250.280941,426.283316L249.750427,423.514256L248.914317,422.670705L247.759342,423.615720L247.183060,421.435825L246.224915,421.333636L245.243006,421.342851L244.274294,421.276419L242.168113,426.448810L241.519596,424.775525L240.108627,426.498399L239.062471,426.571220L238.715301,423.761343L237.404700,424.933929L236.546630,424.274625L235.252771,425.284419L233.458663,428.073281L232.596094,427.363128L231.457585,427.641572L231.596555,423.521984L231.579305,420.103853L230.319198,420.887584L229.602565,419.888609L228.833585,419.084200L228.317796,417.528746L227.403290,417.218123L226.037128,418.228879L225.140073,417.841070L224.928891,415.530977L224.013470,415.237225L222.010799,417.873644L220.980286,417.824398L220.379253,416.649965L220.573245,413.483637L219.714502,413.050587L218.238197,414.134123L217.378443,413.681372L216.028388,414.390455L214.869611,414.617019L214.057687,414.030909L212.792812,414.466970L210.482477,417.178459L210.471540,414.803006L210.586047,412.225542L210.051959,411.078226L209.771202,409.432570L209.057034,408.705235L208.136939,408.398416L206.703232,409.096121L204.233525,411.760298L203.326945,411.353803L201.631453,412.423286L201.940972,409.747724L200.763089,409.840561L198.941822,411.067263L197.955374,410.771676L197.246691,409.987929L198.534429,405.797525L198.156142,404.522984L196.387755,405.580040L195.060387,405.870187L195.178301,403.805169L194.103506,403.681361L194.236970,401.651586L193.268540,401.367774L191.961920,401.592784L191.328714,400.784399L190.669578,400.021881L189.176355,400.484915L188.643387,399.535469L188.663921,397.809360L187.781333,397.382077L187.251683,396.462640L184.188559,399.012410L184.619547,396.770945L183.825180,396.202461L177.896258,402.368339L178.399703,400.029788L177.499566,399.529006L176.059517,399.705405L174.294814,400.264393L172.471631,400.863739L170.512692,401.594865L171.505094,398.760389L175.859738,392.013522L175.999690,390.334173L173.993044,391.150041L171.312146,392.693588L171.104558,391.409244L170.399048,390.691362L172.437601,386.978616L171.886297,386.135115L170.810181,385.854573L170.500659,384.758906L168.161694,385.778285L166.325914,386.239156L165.559264,385.590142L165.065168,384.667818L165.339706,382.993991L164.445992,382.480549L165.563120,380.032150L166.485403,377.812736L165.324787,377.580201L163.545984,377.906369L162.919573,377.155561L162.154154,376.530563L160.796648,376.428822L161.486207,374.516216L161.299049,373.392594L161.509940,371.939030L161.130698,371.001603L159.728315,370.920828L159.497409,369.860828L157.996379,369.838536L158.040287,368.561377L156.325192,368.686498L153.598047,369.576800L153.050239,368.747917L153.374222,367.258885L153.844400,365.679063L155.032623,363.590181L154.729951,362.622492L154.233525,361.799218L153.387556,361.224997L148.867133,363.214996L143.727190,365.556556L138.358452,367.967162L145.591563,361.832140L143.977103,361.697051L142.536648,361.428870L144.444766,358.990218L144.542918,357.744159L146.654812,355.250363L147.227354,353.752439L147.087108,352.706720L143.625800,353.655722L144.670190,351.894661L143.075866,351.694353L139.602308,352.551447L134.935398,354.031013L132.332287,354.292942L125.876116,356.628716L126.387854,355.109178L133.486062,350.110845L133.257885,349.066007L134.777597,347.126187L138.870339,343.916080L139.782801,342.363759L139.606232,341.366898L139.553023,340.314558L137.657591,340.141821L138.613191,338.615968L137.838101,337.905256L135.796044,337.759987L136.465241,336.387916L132.650354,336.984799L131.512360,336.384170L129.517157,336.132427L121.778257,338.226536L126.672542,335.092041L128.585344,333.222329L129.193194,331.895953L132.561518,329.527291L133.575757,328.097389L132.187987,327.571640L134.224163,325.795108L129.735519,326.359901L125.915652,326.632828L122.003689,326.886685L122.907268,325.490535L125.701004,323.497961L124.923903,322.684187L124.994673,321.600350L125.724109,320.321772L126.335715,319.092509L129.026650,317.273624L129.510058,316.120021L126.896099,315.830736L129.014899,314.236833L128.716382,313.308727L128.772747,312.289409L129.060294,311.216787L128.010305,310.474083L127.079007,309.692345L126.385773,308.846769L125.505458,308.036096L125.496342,307.029759L126.511075,305.813615L126.399118,304.840015L124.634516,304.188293L123.882715,303.325660L123.395368,302.407626L121.382589,301.751098L121.865361,300.652108L123.387190,299.394513L125.894238,298.007082L125.618427,297.065731L124.021521,296.309078L119.808810,295.885280L119.427932,294.917427L117.350647,294.152359L115.634123,293.320282L114.413296,292.413591L120.957954,290.700946L120.780413,289.716243L121.707575,288.632224L123.411411,287.497349L116.394509,287.048060L120.139765,285.761032L121.358145,284.682617L124.885517,283.490170L125.757387,282.477047L122.685754,281.647921L122.854491,280.659183L121.709455,279.713488L122.066735,278.716910L123.742955,277.701687L122.826107,276.737898L123.004090,275.756990L121.021927,274.775285L120.956507,273.783173L119.650977,272.772334L115.496081,271.685279L112.126981,270.565805L120.165811,269.786650L122.790595,268.893509L111.534602,267.387283L113.361825,266.428894L124.568949,266.051371L124.892723,265.100181L119.977634,263.772946L122.997296,263.007180L121.439188,261.888688L121.892337,260.933666L118.399993,259.595234L117.451841,258.476922L119.786165,257.710519L120.471818,256.778697L123.922402,256.198392L127.562111,255.686409L124.816016,254.342107L117.841431,252.350621L114.404359,250.798616L117.100339,250.163953L123.705450,250.203452L124.486902,249.335170L125.004275,248.428274L125.571762,247.535188L124.925573,246.416140L126.352692,245.694757L123.790231,244.176688L118.369773,242.019799L123.890999,242.164722L127.393797,241.929036L127.352012,240.919682L127.136934,239.865607L126.988450,238.821805L125.779636,237.506374L128.326332,237.140461L128.919120,236.288396L127.278174,234.833702L124.056062,232.911852L128.740097,233.200980L130.065823,232.568419L128.787237,231.169883L128.692421,230.112619L127.502945,228.706374L127.880571,227.782044L127.528665,226.619423L129.409132,226.195662L129.464839,225.169553L130.001753,224.307860L129.912492,223.225760L130.636683,222.433720L127.816603,220.330838L129.191090,219.770288L130.984605,219.386555L129.871666,217.880139L128.797657,216.367310L129.515009,215.564607L131.735872,215.392495L131.714638,214.298292L131.869128,213.273610L135.373190,213.715401L136.048926,212.941770L136.025426,211.854696L136.490359,210.986671L126.857049,205.373331L122.988303,202.356243L126.797397,203.000577L131.306373,204.043772L137.157038,205.825191L136.502673,204.376680L136.200114,203.092426L136.814816,202.278385L139.809600,202.738937L142.711105,203.190742L142.357944,201.889284L142.116423,200.636465L143.446669,200.264384L144.760527,199.897317L146.069079,199.541392L146.277628,198.546354L141.452258,194.512493L134.110697,188.846155L132.273409,186.454842L132.424673,185.272056L136.355070,186.494063L142.979770,189.521457L144.767229,189.483542L148.055026,190.467497L145.724982,187.709098L142.815139,184.499503L144.092668,184.130507L149.280517,186.526563L148.144803,184.500263L143.909663,180.199147L140.914293,176.711763L141.861625,176.081855L144.763891,176.930246L144.756970,175.604304L145.569081,174.898612L147.137065,174.788775L152.270302,177.529599L153.262363,177.032475L154.631582,176.850553L157.639496,178.038306L157.084197,176.295019L158.826284,176.474038L158.337651,174.760895L159.762918,174.688373L155.703422,169.796680L157.474213,170.005170L157.268741,168.450448L159.686076,169.279443L161.425235,169.519761L164.539058,171.078784L165.225847,170.384175L164.664641,168.485106L158.336797,160.915847L165.763848,166.793835L161.373666,160.986019L163.690694,161.863083L167.703257,164.527462L166.714760,162.063563L170.506492,164.603785L167.124887,159.551002L164.179977,154.857664L162.078405,150.986315L152.478857,138.690787L156.425753,141.360804L164.738213,149.105571L163.840882,146.419756L173.548398,156.109714L177.025990,158.676283L178.134209,158.477348L179.798052,158.966893L180.708313,158.555152L179.977294,156.094837L181.975823,157.046100L182.676347,156.371142L183.253377,155.533212L183.275245,153.955988L183.492845,152.613793L184.730864,152.634349L185.354258,151.826858L185.490649,150.334770L187.087463,150.879368L188.495209,151.184098L189.319603,150.666277L190.200155,150.232031L191.607657,150.587081L192.051119,149.508855L192.591573,148.563990L190.955743,144.220839L188.016225,137.710828L190.302264,139.395220L191.082194,138.698189L193.274770,140.324482L195.982530,142.875640L197.250676,143.074851L197.358145,141.296225L197.400146,139.364677L197.943494,138.279235L198.346814,136.923545L199.203033,136.369630L201.554018,138.589876L204.002314,141.078077L205.305474,141.465312L206.349738,141.375288L207.240681,140.993376L208.197052,140.744726L208.655743,139.485475L209.420971,138.835118L210.035961,137.859970L210.334758,136.187221L210.037383,133.169881L212.439984,136.059038L213.758743,136.614295L214.408975,135.665852L213.171595,130.279087L212.748820,126.652505L213.451601,125.638766L215.763246,128.578821L217.270580,129.618728L219.908545,133.614284L220.057983,131.268545L221.105031,131.238692L221.613974,129.757540L222.340059,128.832955L224.414674,131.704286L224.584779,129.201795L226.859019,132.820889L227.943685,133.020976L228.865594,132.741369L229.567988,131.770498L230.153868,130.392922L230.973845,129.737025L232.444481,131.261155L233.479472,131.365372L234.182484,130.311182L234.252554,126.916784L235.312529,127.050845L236.149975,126.354064L237.831920,128.951512L238.639915,128.177021L239.296651,126.743766L239.263913,122.294215L239.031429,116.713388L240.619464,119.061216L242.235867,121.704121L243.117575,120.983568L244.513323,122.794813L245.787018,124.114558L246.977091,125.094763L248.348498,127.166632L249.484333,128.053642L250.312401,127.181392L250.718667,123.620599L250.547592,116.013580L250.499719,108.576278L251.477120,107.747794L251.634436,100.736697L252.957066,102.157710L254.448909,105.146335L255.059153,100.789292L257.071269,108.908051L259.096318,118.212033L260.544681,122.730619L261.780427,125.522757L262.766671,125.726146L263.613774,124.134408L264.444410,122.018962L265.494760,122.993437L266.420369,121.982002L267.498159,123.788970L268.384105,121.705856L269.371385,121.665970L270.387406,122.574328L271.301780,119.722557L272.260838,117.345033L273.257375,115.614680L274.308482,121.100868L275.298663,121.556082L276.326608,116.812059Z" />
<line x1="50" y1="575" x2="100" y2="575" fill="none" stroke="blue" stroke-width="1.0" stroke-linejoin="round" stroke-miterlimit="10" />
<text x="125" y="578" style="text-anchor:start;fill:black">n1_4mer:GRV/n1_4mer:RV</text>
<path style="stroke:green;stroke-width:1.0" d="M276.230491,179.453681L276.866927,178.367423L277.521492,177.126749L278.227406,174.794750L278.944101,172.968563L279.588099,173.283519L280.175071,174.633032L280.835946,174.415856L281.403102,175.703088L281.760462,179.720023L282.121511,183.025035L282.275603,188.293205L283.351918,182.610539L284.003636,182.078638L283.927805,188.657188L284.519951,188.386077L285.580694,184.127632L286.432066,182.031158L287.730122,176.704710L288.443104,176.198848L288.623761,179.479768L288.922333,181.689142L289.631374,181.084675L289.771444,184.040566L290.426330,183.726684L290.925381,184.331189L291.204660,186.104757L291.820068,185.981843L291.407180,191.131055L292.294201,189.522018L293.336600,187.280009L294.277781,185.654147L294.687874,186.521044L296.044409,183.216483L294.762325,191.286675L295.577325,190.277968L296.849623,187.500284L297.294282,188.104111L297.318818,190.278723L297.922189,190.208698L296.985873,195.702767L298.636644,191.832778L299.346473,191.386560L300.369216,189.919177L300.257672,192.243223L300.853655,192.203966L301.577956,191.771991L301.677674,193.279499L303.955355,188.201099L305.142568,186.543917L305.871343,186.280691L305.520449,189.075839L305.983537,189.521353L304.926340,194.068564L305.557170,193.970522L307.655725,190.066382L307.291495,192.601746L308.023822,192.304613L310.658815,187.349374L310.630021,189.010742L311.965990,187.386243L312.879887,186.810182L312.352065,189.560535L313.288644,188.932572L314.324850,188.114304L315.346192,187.364438L315.594155,188.299997L315.684612,189.544154L316.824109,188.588870L318.279795,187.030479L319.107188,186.787422L318.202440,189.970220L318.398663,190.929059L320.526563,188.183159L319.097669,192.208670L318.921802,193.803396L320.227157,192.661722L321.520009,191.585545L319.995758,195.526115L320.914477,195.107819L320.613139,196.802125L321.012148,197.272509L321.049356,198.340154L320.881098,199.722732L322.528572,198.137895L323.381079,197.874013L324.377430,197.400304L327.547431,193.580847L327.728319,194.443923L326.808330,196.950955L325.179610,200.450997L325.636266,200.808462L328.961324,197.019912L327.433777,200.260587L325.041620,204.638507L328.812674,200.358578L330.875766,198.539743L333.295162,196.297990L332.978725,197.770014L329.915238,202.823476L329.954794,203.728622L333.219698,200.491539L332.509571,202.369281L333.832961,201.673167L333.893983,202.557816L333.725276,203.708227L334.850691,203.288042L335.099837,203.924966L334.216857,205.876961L332.586146,208.650066L333.556005,208.403828L335.402527,207.189388L335.163278,208.327433L337.107641,207.057534L337.014683,208.030371L336.680999,209.245208L338.658015,208.007471L340.171815,207.292925L341.091335,207.216737L342.303866,206.856650L344.162337,205.871115L344.637849,206.286569L342.936052,208.823771L343.357219,209.266066L345.426954,208.143313L344.498585,209.870331L341.242167,213.718456L343.661193,212.296303L338.565985,217.695774L342.313571,215.098592L344.613687,213.850475L344.372582,214.849268L345.493454,214.668233L347.525249,213.734036L350.394947,212.137348L354.456461,209.613711L356.208276,209.044595L357.502279,208.870804L357.587915,209.671222L353.689635,213.574489L351.768710,215.865609L347.815263,219.654378L347.932031,220.303019L349.148119,220.133470L344.375196,224.353336L345.303738,224.366248L345.442312,224.952199L348.956320,223.168976L353.369377,220.825343L358.450846,218.103347L359.264242,218.340190L355.455602,221.650272L358.658298,220.298904L358.070677,221.443596L355.252849,223.988872L357.689982,223.184359L357.321310,224.150702L356.676697,225.272660L353.102916,228.135200L354.466380,228.010388L352.324071,229.946675L356.123362,228.430151L358.399320,227.835043L357.136792,229.244621L357.842922,229.547805L356.169832,231.143425L353.997943,232.971874L360.494107,230.219797L362.826635,229.716390L363.293379,230.193100L359.084140,233.007909L358.560278,233.939690L358.117263,234.819784L359.454024,234.842452L364.995660,232.915843L364.782519,233.718009L359.106485,236.982047L366.145465,234.505109L365.772384,235.368808L363.955841,236.842051L365.132344,237.022724L361.336533,239.275014L358.034981,241.265773L356.960242,242.315718L359.903930,241.773917L362.640209,241.352288L362.901498,241.899875L363.722483,242.241516L361.286645,243.770807L364.380152,243.300663L368.101747,242.654201L368.054497,243.340699L371.433500,242.882462L368.256417,244.606340L358.302302,248.442722L359.518285,248.653429L358.898431,249.438254L364.053817,248.493032L363.908255,249.158441L364.349634,249.652987L363.846416,250.412810L365.727181,250.520219L363.397641,251.758414L363.732906,252.280154L371.632283,250.919534L372.677298,251.326130L368.761897,252.913377L362.876528,254.896141L361.401127,255.818337L362.269735,256.214355L366.342064,255.952374L366.487144,256.536072L369.014357,256.655304L379.183050,255.366708L376.993756,256.458598L378.137217,256.936057L377.938318,257.653357L371.515064,259.374264L371.045034,260.084421L374.834047,260.153752L376.911857,260.514923L378.467981,260.972896L378.900576,261.595048L372.371621,263.074355L373.698092,263.556514L374.903982,264.068219L373.960659,264.815901L376.967262,265.169651L390.675508,264.599462L395.540479,264.944122L389.147793,266.217225L372.881286,268.102556L371.710725,268.810646L370.946232,269.479720L374.061477,269.940292L372.793533,270.636258L370.915992,271.338767L369.221960,272.010933L370.940312,272.574750L373.766293,273.139649L370.646114,273.814503L372.249159,274.420943L365.345248,275.043853L370.998425,275.664807L376.845536,276.361222L372.663329,276.934421L372.336415,277.555097L370.597417,278.125602L367.551452,278.622786L374.162004,279.521267L373.853395,280.145300L369.331277,280.519247L362.853180,280.708124L367.025624,281.574597L362.500352,281.817917L366.290681,282.705012L366.669000,283.331799L366.440630,283.905112L366.420864,284.497873L360.899216,284.483736L368.794061,285.967180L372.108897,286.989165L368.763104,287.189595L371.209136,288.138154L369.005942,288.454498L369.466852,289.141845L369.074837,289.703155L366.902131,289.970475L364.881594,290.236138L364.845130,290.825815L363.545735,291.185507L360.251923,291.151438L358.422809,291.362089L367.383220,293.738129L371.766526,295.276837L378.024703,297.281723L376.634692,297.667172L375.751708,298.152315L370.883896,297.684752L367.723193,297.568476L372.037178,299.281441L368.798988,299.114056L367.730394,299.477026L362.758510,298.770202L362.269023,299.241898L359.725457,299.124104L363.787878,300.900073L367.925832,302.757710L364.789544,302.451906L365.259559,303.232444L365.392461,303.914364L362.229063,303.522960L361.464833,303.890716L360.098548,304.044707L363.952547,306.001076L359.969818,305.228074L362.533998,306.776781L365.895771,308.661220L365.375456,309.131929L361.075105,308.142734L363.653800,309.792829L362.340830,309.928275L359.127797,309.273387L360.903164,310.643375L356.380795,309.382876L356.982563,310.261006L363.329790,313.666894L362.689234,314.061302L370.433749,318.249746L370.720924,319.125089L370.942365,319.978538L361.913819,316.430670L364.457747,318.352496L360.563069,317.147621L360.724617,317.915380L365.270559,320.920530L364.972976,321.500888L353.941104,316.445572L352.031037,316.077697L352.222956,316.820956L348.348380,315.335654L348.598231,316.092531L347.671758,316.191344L348.428396,317.247288L347.345142,317.246450L351.663733,320.432871L352.219855,321.436942L348.188302,319.656782L348.413824,320.445726L352.199044,323.479314L357.918808,327.818780L366.039940,333.819453L374.389789,340.125167L365.555821,335.173781L353.391831,327.821745L350.924132,326.872991L352.574538,328.736576L354.273026,330.671980L351.714376,329.616115L353.738520,331.824771L350.047664,329.899555L348.038790,329.155479L346.078374,328.414681L347.875953,330.503453L348.561654,331.777888L351.117382,334.536608L351.323361,335.493930L349.462413,334.803712L352.400276,337.987439L351.617951,338.175273L350.326271,337.929453L348.753188,337.426063L344.015108,334.182696L346.347705,336.984735L348.073467,339.314421L346.398834,338.661135L345.350504,338.544321L341.349398,335.710723L341.662906,336.790985L340.283527,336.298726L341.896817,338.629090L342.536000,340.070539L341.597229,339.998203L344.123069,343.338048L344.897921,344.999892L345.365124,346.381261L346.322535,348.290590L347.887164,350.869836L346.547048,350.441333L345.839365,350.665109L346.609948,352.482297L345.781832,352.582676L340.583054,347.820738L341.309249,349.587426L340.304008,349.416284L338.345554,348.129133L338.805019,349.625243L335.398757,346.569343L333.158591,344.822191L333.772606,346.490540L334.473775,348.300620L332.940029,347.357717L332.334457,347.554175L330.905075,346.689589L333.234746,350.676990L337.738310,357.624919L336.898555,357.618283L332.962176,353.411493L327.679559,347.233672L326.497673,346.576750L325.777259,346.542793L329.537776,352.899204L332.192252,357.820846L333.291416,360.586079L330.916161,358.245814L329.359802,357.065618L328.960421,357.613339L326.259624,354.593255L327.410655,357.543410L325.480344,355.646309L324.053417,354.500478L326.095025,359.015194L325.032650,358.474438L322.437841,355.313649L321.759959,355.343058L322.857989,358.461375L320.399263,355.368454L320.643009,357.029014L321.656375,360.135999L322.556160,363.119616L322.471924,364.335246L320.295082,361.579670L317.408502,357.348854L317.361785,358.576038L317.103926,359.410894L318.008591,362.632947L317.508084,363.042115L313.835265,356.775841L311.741811,353.671043L312.698112,357.093395L314.507880,362.516155L315.172838,365.539400L312.774715,361.635289L312.763000,363.153588L309.198786,356.275362L311.772313,363.990251L313.542796,370.003668L311.522484,366.714842L309.374651,362.965119L308.335098,361.952492L307.282096,360.855878L308.345061,365.446694L308.293027,367.129225L307.978914,368.132021L306.963912,367.147286L305.892772,365.946708L308.216377,374.895032L306.531696,371.908398L305.050897,369.419617L304.060459,368.384325L302.351297,364.929139L300.798097,361.826890L299.995144,361.152674L299.414153,361.221156L299.115973,362.309052L299.666504,366.596552L298.916235,366.144088L300.651326,375.385298L298.813115,370.758166L298.980821,374.154679L298.182886,373.630945L296.755693,370.310393L295.223138,366.302440L294.687886,366.678145L294.645727,369.440356L294.443468,371.583207L292.226089,363.510926L292.070857,365.828655L291.607719,366.610331L292.110737,372.975588L291.052022,370.539714L290.840375,373.143753L290.524501,375.288086L288.210608,364.133470L288.009246,366.849478L287.204334,365.353219L286.455289,364.130934L285.789174,363.449416L284.934886,361.052959L284.837701,365.312083L284.340330,366.197727L284.132254,370.211541L283.856507,374.043468L283.500201,377.494950L283.300607,383.572402L282.055137,375.819292L280.685068,364.515029L280.305439,368.001943L280.135533,376.516457L279.412140,374.971379L278.851961,377.218642L278.110611,374.583562L277.480330,375.047876L276.873412,377.100376L276.174535,373.637913L275.517213,369.600329L274.907045,370.593885L274.300245,369.405673L273.704827,368.496405L273.071265,370.038580L272.528770,367.425586L271.974273,366.183079L271.253560,369.532495L270.758383,367.043437L270.231075,365.770734L269.599310,366.540418L269.170021,364.058273L268.215434,369.318354L267.724923,367.784035L266.948395,369.845991L266.253818,370.711080L265.616874,370.865079L264.603148,374.601946L263.820886,375.805052L263.355369,374.169086L262.864071,372.905538L263.022810,366.779628L262.450892,366.562976L261.056115,372.088114L259.935281,375.297983L260.889608,364.994885L261.016755,360.578976L260.130852,362.458130L259.406585,363.274116L259.367056,360.288001L258.027503,364.347771L257.946397,361.724879L257.586965,360.636109L257.217385,359.658012L256.185953,361.786515L255.346086,362.922337L255.658777,358.979624L255.333546,357.945835L254.196746,360.289946L254.148672,358.157244L252.378533,362.815737L251.881997,362.409256L252.496769,357.920858L252.881036,354.476511L252.283960,354.632975L251.607419,355.046930L250.463821,356.995328L249.090796,359.596313L248.328520,360.123611L248.711859,357.044617L247.649796,358.504847L245.438969,363.327834L244.752033,363.483013L245.136020,360.555740L245.503132,357.786736L243.706077,361.073183L244.253056,357.902324L244.165606,356.524012L244.262390,354.712960L243.675305,354.702671L241.893804,357.667788L239.958557,360.893332L240.125678,358.934192L239.303685,359.374929L237.426699,362.241615L236.774059,362.206853L235.794956,362.896735L233.614363,366.202295L233.647461,364.591620L234.452114,361.381993L234.980076,358.849183L235.989389,355.398488L234.623247,356.867462L233.781228,357.235524L233.383100,356.711990L230.457044,361.081835L230.266021,360.103784L230.567040,358.225355L230.017833,357.963664L228.824148,358.871726L227.224800,360.469319L227.691479,358.369307L226.643035,358.952781L229.102906,353.508880L227.112428,355.716161L224.840927,358.317475L221.672866,362.302550L222.230236,360.152514L218.010282,365.653058L216.008676,367.509465L216.561901,365.353120L214.179989,367.721007L214.485382,365.972605L215.357244,363.421822L215.822495,361.524922L219.359893,355.238982L222.382181,349.846585L221.164218,350.540421L220.879335,349.914700L219.559777,350.709356L219.052688,350.378656L218.455110,350.167462L217.878991,349.924074L218.483536,348.149274L217.591607,348.322854L216.112355,349.222475L217.018828,347.121175L214.246436,349.581024L213.000053,350.117975L214.812163,346.973302L212.833062,348.374553L213.492770,346.655185L211.942057,347.511667L207.967428,351.087059L208.235307,349.806240L208.244049,348.833810L210.453900,345.472054L211.904480,343.003841L210.886884,343.214266L208.926696,344.398845L205.161304,347.414205L206.305007,345.316423L206.157209,344.565816L206.104021,343.728642L207.571580,341.403836L204.370896,343.665578L205.565874,341.639468L209.369647,337.181829L208.894493,336.829068L208.833037,336.092477L204.283196,339.454740L201.133150,341.460071L201.685938,340.113316L202.044067,338.959614L202.177648,338.017768L200.630378,338.523793L199.437731,338.705484L202.232276,335.552080L201.836184,335.088524L201.539392,334.544281L197.589569,336.924113L196.238420,337.177447L197.479423,335.391517L194.689015,336.738436L194.882026,335.773260L195.171490,334.747750L193.224013,335.387663L192.756640,334.918227L196.360593,331.520976L195.532850,331.343369L196.448183,329.937689L199.366968,327.174299L193.540484,330.422821L198.219305,326.519300L196.097715,327.209161L191.903368,329.218378L196.166152,325.716252L192.431076,327.370450L195.847611,324.491595L192.287122,325.979933L193.664976,324.410797L190.454137,325.618888L190.762282,324.700300L187.441785,325.902140L188.803295,324.370703L186.797798,324.767817L191.322688,321.506810L191.046694,320.955084L190.992680,320.284033L189.182269,320.549169L184.001436,322.550442L184.345613,321.629891L194.196192,315.907188L196.469913,314.122847L191.564588,315.898112L191.423599,315.301791L189.435630,315.583378L189.958350,314.666644L188.748698,314.556614L188.843992,313.843364L184.636077,315.042318L185.217004,314.095152L189.883963,311.412734L186.989430,311.982366L185.996438,311.727078L188.589503,310.007565L188.868331,309.250577L194.823937,306.285875L193.299075,306.276170L193.001829,305.786015L191.087392,305.889722L188.412324,306.242793L184.700346,306.926464L176.897771,308.976038L172.462105,309.774377L172.263838,309.105534L172.192606,308.395730L171.350855,307.932794L172.941214,306.705375L169.786542,306.943942L175.961020,304.374083L178.461454,302.957392L178.321611,302.324345L177.439844,301.896341L177.431555,301.223750L179.827427,299.923776L177.323038,299.908600L182.234739,298.020875L183.216878,297.150683L183.085799,296.556908L185.285192,295.432474L181.948702,295.562969L178.655452,295.640918L181.822740,294.335639L184.871383,293.098407L183.665817,292.729394L180.486525,292.715753L178.900097,292.373283L177.421744,291.992380L177.603015,291.315302L177.965275,290.612895L180.867329,289.524711L182.881143,288.607233L184.843836,287.724626L179.640652,287.833246L180.740973,287.067702L176.971670,286.909175L179.863956,285.936589L175.854813,285.751038L181.009254,284.580135L180.919879,283.977497L179.080159,283.530107L184.129594,282.491588L182.391468,282.034770L185.911369,281.190651L183.868149,280.743193L187.057471,279.973851L183.301314,279.594099L179.090583,279.186071L180.552867,278.513042L180.666085,277.900647L178.824276,277.337468L178.563210,276.722512L176.902233,276.120323L176.515065,275.490488L177.000120,274.856979L177.380093,274.228877L175.001117,273.566041L171.991867,272.859342L168.462032,272.099519L171.983356,271.531374L178.516303,271.129169L184.212398,270.771947L184.459482,270.198954L182.382647,269.490510L176.519429,268.505046L176.271365,267.849859L178.569690,267.391771L182.861737,267.133061L183.941855,266.634290L180.354030,265.689662L180.603435,265.100032L179.594308,264.372629L180.812668,263.893832L180.891064,263.288143L187.604049,263.551588L183.561098,262.422527L186.467357,262.240852L182.828047,261.109904L184.796367,260.811865L183.499248,260.003407L184.957236,259.646305L183.582741,258.805443L186.635965,258.758748L188.257990,258.478721L181.805125,256.626990L179.645577,255.562505L175.898842,254.133171L182.036856,254.799544L183.224189,254.437757L179.544607,252.966851L179.620900,252.336553L178.862838,251.501368L181.176464,251.425573L181.421487,250.845430L185.914027,251.392113L185.368980,250.628881L182.349978,249.166119L181.578576,248.301473L182.204746,247.832844L183.669413,247.621882L184.231775,247.152175L182.789473,246.058679L183.020269,245.479121L178.790782,243.436866L180.496510,243.320951L178.473086,241.949710L182.040946,242.501032L183.663207,242.406615L182.056996,241.157137L185.136915,241.621646L184.091839,240.565674L184.195145,239.934507L181.389954,238.156796L179.317711,236.627769L180.071971,236.218785L183.012312,236.726940L189.929867,238.960712L190.701246,238.645455L188.924718,237.220084L189.781301,236.939685L188.840303,235.851974L192.602234,236.919219L190.599794,235.332198L190.351192,234.547801L190.443880,233.921155L188.543908,232.307792L189.290620,231.987793L190.382571,231.851414L193.507757,232.781597L193.974483,232.359347L194.172001,231.796362L196.579573,232.431705L194.517891,230.639224L190.108090,227.493283L191.157693,227.369078L193.120733,227.784263L195.841278,228.671261L195.471603,227.764731L192.450524,225.248492L189.374045,222.639707L187.491386,220.711139L187.296976,219.805232L187.516237,219.153512L189.988973,219.958294L188.723773,218.347306L193.281535,220.583774L195.438564,221.277404L198.049849,222.316002L199.148721,222.347737L196.685953,219.887516L199.485806,221.127436L198.037389,219.342799L195.864694,216.991806L197.092065,217.116550L194.617027,214.470409L194.633831,213.668109L197.498802,215.060863L195.125830,212.399462L197.026271,213.074234L200.275086,214.865640L200.325539,214.109800L203.698488,216.091635L206.266660,217.464684L206.494819,216.901326L206.716101,216.328827L204.412429,213.554900L199.715800,208.609598L198.198905,206.387672L196.924602,204.339933L199.001173,205.323780L200.225706,205.554904L204.027544,208.229395L206.811280,210.015493L207.034866,209.388223L206.745866,208.254746L210.201108,210.812096L209.848875,209.626605L210.058974,208.992693L209.237628,207.291177L209.791747,206.990845L210.977903,207.361375L212.051554,207.631960L210.636714,205.222398L211.818859,205.612686L215.616502,208.933706L215.480157,207.918116L218.224238,210.174712L218.474156,209.615289L218.242679,208.486569L219.614952,209.241799L215.060550,202.897108L219.267550,207.072720L217.789256,204.347998L215.715121,200.814802L216.261661,200.520264L218.631572,202.570865L217.947923,200.710308L216.791573,198.185605L219.491688,200.760432L217.234972,196.695768L218.163715,196.907012L219.043924,197.066499L219.965584,197.298836L220.418792,196.876911L221.181988,196.902861L222.293943,197.452361L225.644956,201.367279L226.664523,201.874549L227.924703,202.774222L228.031395,201.913331L226.564798,198.553229L228.114571,199.934378L226.897945,196.871204L226.691737,195.392511L227.462557,195.513093L228.272630,195.712941L231.026295,199.274731L230.071203,196.469803L230.190552,195.494941L227.826024,190.024858L228.043402,189.117797L229.110128,189.769426L229.999188,190.115610L230.443454,189.629673L230.150801,187.703008L228.882753,183.794587L229.471039,183.499500L229.446072,181.951721L229.734084,181.012210L229.696763,179.364208L233.261049,185.401638L234.834646,187.308690L235.764764,187.861572L235.748525,186.304188L238.716297,191.562580L238.155110,188.757664L240.465759,192.703276L239.168707,188.047193L239.664277,187.657296L240.088319,187.081142L240.113064,185.466798L241.005648,186.068833L242.360954,187.937476L242.826437,187.468342L242.228867,184.037882L242.679895,183.445137L243.592772,184.171926L243.596012,182.251764L245.684419,186.548588L245.400678,183.728443L245.716058,182.679095L246.785815,184.022905L247.235563,183.392073L249.828687,189.979407L249.913819,188.217763L250.356002,187.642628L249.621327,182.769546L250.120670,182.253455L250.684570,181.965572L252.265443,185.666687L252.905585,185.782173L252.586222,181.927993L252.545093,179.046732L254.214378,183.528875L254.587024,182.413468L254.368677,178.470762L255.508616,180.841746L255.888348,179.584795L256.957699,181.811278L257.251880,180.058532L258.041432,180.932420L258.642453,180.795837L260.123042,185.923245L261.014393,187.808212L261.334090,186.146004L261.853093,185.696648L262.412556,185.500849L262.667434,183.022182L263.211669,182.565749L263.763657,182.132226L264.173494,180.415590L264.862670,181.087675L265.626846,182.593866L266.649222,187.034607L266.881093,183.197352L267.390182,182.143267L267.866590,180.483509L268.099069,174.985548L269.031518,179.552810L269.685168,180.209797L270.350019,181.272557L270.679245,174.885594L271.285819,173.818750L272.018947,176.489486L272.612512,174.756334L273.389950,182.332126L273.918881,176.117918L274.572075,179.764219L275.193856,175.402783L275.803937,179.136590Z" />
<line x1="50" y1="625" x2="100" y2="625" fill="none" stroke="green" stroke-width="1.0" stroke-linejoin="round" stroke-miterlimit="10" />
<text x="125" y="628" style="text-anchor:start;fill:black">n0_4mer:PS</text>
<path style="stroke:red;stroke-width:1.0" d="M276.670028,145.324105L277.537081,143.680107L278.377878,143.885603L279.127081,146.861411L279.891330,148.464333L280.833996,145.662441L281.446954,149.965736L282.546664,144.931164L283.298762,146.305910L283.820080,150.692367L284.365244,154.047020L285.009660,155.710158L285.892373,154.507870L286.395279,157.395863L287.167290,157.327399L288.121771,155.616180L289.232995,152.759810L290.170362,151.630265L291.427595,148.154771L292.369810,147.339217L293.039393,148.520462L292.919303,154.900477L293.671596,155.151448L293.913190,158.536572L295.241205,155.238403L296.458313,152.830255L297.263178,152.869043L297.589438,155.448152L297.270753,161.158101L298.198582,160.339136L300.433184,153.330840L300.479734,156.910236L300.868341,158.745507L302.424553,155.389989L303.139479,155.801000L304.195048,154.796629L304.599516,156.464811L304.875581,158.554664L305.424232,159.510919L306.716198,157.678848L307.476583,157.865553L308.218883,158.116984L307.948382,161.844901L309.268496,160.073633L310.289145,159.375093L312.567843,154.689413L312.683085,156.996641L311.516215,163.141544L313.993169,158.110944L314.544568,158.952900L315.127610,159.679660L315.064834,162.205549L317.082615,158.900764L317.991083,158.736865L317.236305,163.000564L318.176043,162.704298L318.747073,163.370529L318.777211,165.376910L321.137698,161.591911L321.057962,163.844016L324.080665,158.673034L323.634747,161.771322L324.279885,162.276727L326.697713,158.790893L328.188348,157.483807L328.874681,157.979340L330.391589,156.696000L330.902866,157.579026L330.366882,160.608685L330.114420,162.975690L332.308168,160.386002L331.960921,162.891178L331.821461,164.926709L332.995858,164.404846L332.825239,166.435794L335.869625,162.472585L335.759979,164.383451L335.981538,165.654756L334.923301,169.160300L335.541676,169.656176L336.599885,169.394901L339.432053,166.156096L338.328331,169.575286L339.232392,169.613703L338.552870,172.223773L338.794954,173.302212L341.345238,170.734340L345.302045,166.071117L345.933958,166.630123L344.980103,169.575250L340.872946,177.136298L343.131349,175.174914L345.252598,173.477216L345.357470,174.712049L345.713592,175.572485L345.952496,176.584612L347.789084,175.395601L350.279073,173.368680L348.244758,177.435047L347.190183,180.118567L348.299492,179.937214L350.562388,178.296695L349.234730,181.246531L351.691338,179.415266L353.847740,178.013818L356.189996,176.436329L354.930955,179.228252L353.117586,182.616885L353.394066,183.491664L353.485958,184.569602L353.204638,186.057294L356.938968,183.011604L357.557406,183.510400L359.556947,182.499183L360.094549,183.106434L360.408096,183.951027L360.264675,185.269017L358.311552,188.447531L358.715296,189.141606L361.829279,187.087695L367.699120,182.345715L367.283473,183.941559L367.957004,184.450965L368.672607,184.922184L366.455421,188.180875L363.829823,191.754320L363.185196,193.418656L367.136227,190.858116L361.335056,197.169639L363.839134,195.943294L367.428941,193.809273L371.104586,191.670808L371.159033,192.702368L370.658075,194.192498L374.001465,192.454752L380.003190,188.590803L383.758391,186.669056L385.497200,186.431648L384.407552,188.456326L379.841741,193.160028L379.061497,194.842170L375.863630,198.335300L371.100092,202.927622L374.810422,201.144432L373.233737,203.285448L372.869591,204.512928L371.640675,206.338807L374.456538,205.297583L378.014159,203.789063L380.773390,202.883873L382.723049,202.566340L381.261650,204.538403L381.730538,205.212811L381.324340,206.451752L379.813642,208.377291L379.836632,209.306706L381.835364,209.008543L382.116514,209.784101L384.293347,209.419724L380.566327,212.577114L380.035090,213.800687L382.224135,213.446685L381.941895,214.520971L387.425019,212.372167L386.436202,213.859956L381.841444,217.272890L388.293730,214.725986L386.678686,216.504808L389.511840,215.957438L389.363038,216.963335L386.490144,219.321197L385.265566,220.817098L384.287600,222.168625L383.764704,223.282821L388.525427,221.912753L389.825116,222.203426L387.972366,223.934043L391.385599,223.291205L388.820079,225.306192L389.442430,225.909480L390.691885,226.253208L389.213116,227.740029L388.929545,228.714385L387.646922,230.078418L387.827732,230.846289L390.092601,230.812489L391.974651,230.952109L396.678288,230.073437L391.402114,232.871301L388.927030,234.594930L392.982255,234.010111L390.536543,235.691785L396.213480,234.629397L392.254730,236.784931L386.160935,239.561221L384.190934,240.962315L385.904442,241.210201L389.863489,240.810754L390.359851,241.470173L389.197848,242.603960L389.563869,243.295810L392.766621,243.224505L391.435682,244.386628L395.896193,244.044822L399.018591,244.094951L400.161562,244.664819L399.365992,245.704254L393.401164,247.912900L390.619654,249.331617L393.730070,249.442217L395.657031,249.839303L394.049382,250.973463L399.286214,250.748461L407.055738,250.114101L405.286615,251.315251L405.895686,252.074306L407.399451,252.688717L399.511587,254.841642L396.792594,256.085882L401.492833,256.189343L401.283093,257.050957L404.003884,257.511006L403.743904,258.389834L399.878537,259.705430L400.396411,260.460994L401.682175,261.138072L399.150961,262.223552L409.162201,262.065836L419.716814,261.988320L421.305065,262.794757L422.444660,263.655293L401.099894,266.114063L397.421839,267.165170L397.562848,267.948329L400.140843,268.608251L397.281229,269.543568L401.620846,270.166725L399.308950,271.056463L401.330790,271.806518L402.664342,272.595328L401.558284,273.431359L398.177794,274.266554L393.268878,275.057407L398.280631,275.853742L403.286824,276.714625L399.595710,277.467872L397.609334,278.218515L398.476630,279.037126L395.166168,279.703722L399.397663,280.671880L402.969639,281.660795L397.928302,282.192436L398.582498,283.029581L398.941612,283.854775L396.805765,284.490952L400.944084,285.629789L396.116234,286.008259L396.898742,286.871330L396.933128,287.667846L394.562786,288.200376L397.902148,289.370739L399.812216,290.409446L397.357541,290.906991L400.363065,292.119364L398.086118,292.616567L398.205797,293.444113L396.682045,294.017944L393.806218,294.353039L396.171640,295.540221L396.700107,296.436926L392.717129,296.517822L394.754610,297.688159L390.071441,297.569477L397.265183,299.799101L399.962627,301.185159L409.553654,304.100664L406.451069,304.316998L403.442277,304.515490L398.258655,304.161227L395.098536,304.231532L396.505922,305.404211L391.109664,304.849735L393.038814,306.157412L387.015382,305.340400L389.313412,306.754384L388.638206,307.356508L391.451189,308.969663L393.900521,310.516562L393.917047,311.357235L391.386324,311.404680L397.208654,314.091595L394.029578,313.921384L394.346430,314.877527L385.232752,312.623180L383.804348,312.919677L385.793316,314.414801L391.068989,317.135615L391.893163,318.288774L391.485970,318.993038L386.752539,318.029686L388.681779,319.615241L387.545538,320.007833L386.332229,320.356383L387.138375,321.529021L384.498119,321.262270L387.614869,323.436075L394.371685,327.255670L390.994628,326.669982L398.275195,330.867247L397.734096,331.577525L399.271596,333.259505L392.861369,331.182958L391.042618,331.235902L387.889727,330.608494L388.807831,331.974374L393.794733,335.430745L389.233566,334.039531L381.530564,330.930560L381.378455,331.727549L382.104227,333.003492L383.217397,334.510783L383.736564,335.711523L383.208144,336.333852L383.861661,337.633943L381.720320,337.320075L384.561230,339.928761L383.616974,340.317917L383.636324,341.285848L383.612456,342.234911L384.195053,343.572110L383.524005,344.129137L389.377273,348.897331L400.780410,357.417623L393.153640,353.512360L378.545531,344.770735L375.869812,343.916413L376.130841,345.054238L375.915030,345.870760L377.195276,347.757014L377.909243,349.268530L376.542442,349.281258L376.819361,350.495175L376.364219,351.174188L375.789157,351.762581L372.003753,349.871458L374.498374,352.824481L374.734048,354.049252L370.789718,351.932515L374.326487,355.830734L375.514606,357.879241L372.919420,356.804335L371.520679,356.696888L367.319578,354.167035L370.734251,358.171032L372.576614,360.880467L368.928216,358.748942L368.479220,359.435409L365.319336,357.643587L364.800466,358.237584L362.933224,357.565923L362.662463,358.380392L363.750251,360.510344L361.447870,359.372221L364.137307,363.124987L364.014543,364.144402L367.737328,369.076540L371.046033,373.696302L372.612104,376.606565L370.800761,376.015169L370.105786,376.584616L366.826607,374.356817L364.173739,372.741711L360.789791,370.257471L361.145229,371.899769L362.972837,375.248235L356.898509,369.547550L357.412387,371.388099L353.702773,368.258636L351.025047,366.271732L351.021309,367.471727L353.322699,371.531662L351.371846,370.376073L350.267860,370.248089L350.213619,371.449801L350.778864,373.475854L355.713303,381.297574L355.958968,383.058918L354.245218,382.203290L349.505562,377.161264L346.347057,374.165459L347.745883,377.495562L345.598786,375.839997L347.756256,380.359285L348.872655,383.463156L347.750928,383.308762L349.077411,386.832794L346.774926,384.887326L343.367431,381.157362L344.504015,384.464352L341.934089,381.932457L342.615125,384.583291L342.365661,385.768889L341.650953,386.200403L339.447552,384.111585L338.905138,384.801939L338.418347,385.597677L338.769872,387.889189L336.681396,385.852992L335.777049,385.902632L336.764182,389.446500L338.451992,394.407404L333.858648,387.505863L331.799963,385.294202L330.367157,384.234482L329.426722,384.115912L331.612463,390.351767L331.805471,392.654653L327.446464,385.437092L325.616205,383.378701L325.756044,385.529037L325.392793,386.627946L326.958865,392.102117L324.982079,389.632551L323.165780,387.437738L321.211093,384.823292L323.355777,392.022627L324.202064,396.277569L322.469435,394.204700L320.346992,391.043464L318.716061,389.030578L318.298084,390.153459L319.458728,395.591921L318.755184,396.080348L317.732470,395.675937L317.871261,398.591579L316.761241,397.942913L319.391473,408.503048L316.453498,402.401714L313.564609,396.169613L312.389457,395.149140L311.192886,393.999659L309.581848,391.389761L307.749023,387.878563L308.376388,392.872233L308.777986,397.289235L307.542555,395.843466L306.369238,394.547273L308.433179,405.839226L306.384735,401.205443L305.235254,400.015190L303.490777,396.213218L302.688865,396.303264L303.271669,402.639559L302.892915,404.885489L300.528182,397.718315L299.667868,397.534819L297.265131,389.402481L297.454231,394.471895L296.529163,393.757654L296.890490,400.344314L295.193602,395.189900L295.224837,400.308990L294.594991,401.583399L292.289277,391.652706L292.499593,398.552786L291.100296,394.196467L290.255776,393.701643L289.183701,391.277671L288.208846,389.411009L287.881329,393.253201L287.172336,393.849051L286.680756,396.781842L286.560696,404.284767L285.971961,407.299298L285.440438,411.561512L283.795595,400.690780L282.673421,395.822923L282.341909,403.700332L281.823391,409.881134L280.715744,404.508775L279.883196,404.584312L278.986834,402.635096L278.096009,399.882244L277.372341,404.291891L276.499482,400.927061L275.667057,397.007368L274.878820,399.620089L274.081920,398.860397L273.310729,396.945687L272.489950,398.682919L271.782976,395.318802L271.040876,394.311843L270.207396,395.929971L269.406810,396.372699L268.585646,397.089471L267.922830,394.956356L267.065900,396.200646L265.957007,400.714774L265.251304,399.331791L264.266810,401.434435L263.589555,399.866592L262.879560,398.831539L261.738165,402.048505L260.759270,403.412460L259.864970,403.894346L259.722228,398.252078L259.265369,395.572408L258.368262,396.351371L257.045108,400.015853L255.647928,403.842351L256.089708,395.608237L256.061935,390.903008L255.039836,392.402735L253.033400,399.352629L252.849509,395.845512L251.352472,399.486921L250.519326,399.494719L250.366391,396.146395L250.125618,393.419917L249.468917,392.771244L249.068165,391.006791L248.628605,389.504639L248.644731,386.156788L247.752694,386.709505L246.723936,387.767854L245.341846,390.131909L244.924252,388.716516L244.056901,389.020445L243.342737,388.748947L242.605207,388.562654L242.112891,387.536200L242.636389,383.153141L240.462977,387.767064L239.294520,388.956158L239.073580,387.125438L238.555448,386.271446L236.455294,390.170897L234.615151,393.135978L233.961085,392.570219L234.230677,389.424324L231.915724,393.502265L232.713548,389.016051L232.262435,387.995175L231.356744,388.181640L231.989358,384.436435L231.320186,384.070628L229.201944,387.259866L228.742358,386.331132L228.700558,384.437408L226.869740,386.753866L226.013819,386.754755L224.138746,389.029669L221.774281,392.294502L222.934898,387.800736L223.169336,385.418483L222.316544,385.381638L223.298411,381.553818L220.757237,384.982033L220.245108,384.241421L220.605466,381.800018L217.180943,386.738666L217.094099,385.162596L216.302937,384.942797L216.080129,383.669917L213.832490,386.101894L212.946420,386.013187L213.710613,383.007049L213.761037,381.317285L214.285583,378.854524L211.297244,382.373201L208.704706,385.120785L208.677457,383.577504L208.219772,382.760654L204.141413,387.714148L200.364295,392.042791L199.887845,391.133443L196.663862,394.424604L195.724282,394.176471L196.679249,391.112399L198.664660,386.611825L202.688421,379.281027L204.044351,375.931360L200.894380,378.982324L204.176174,373.035486L202.211877,374.399706L202.030241,373.313255L203.279657,370.340820L202.698591,369.835793L201.462256,370.179921L200.959439,369.565706L199.186423,370.556060L199.526945,368.878843L197.248782,370.447329L196.127912,370.559945L195.919618,369.565223L196.162891,368.050064L191.678235,372.068856L191.238444,371.319190L188.133697,373.599850L189.728934,370.541634L189.164089,369.936741L188.694470,369.229210L192.338834,364.091535L192.107430,363.194993L191.655514,362.539304L184.541181,368.794756L185.032344,367.091192L185.235559,365.707196L185.995638,363.788185L188.120209,360.559641L187.407603,360.157283L186.472328,359.964518L188.792609,356.677654L184.484942,359.659538L180.173515,362.554039L179.152216,362.360340L176.527426,363.598528L178.244212,360.932904L177.357833,360.601747L179.785800,357.394844L178.099086,357.769193L177.417585,357.270359L179.390579,354.559302L178.760128,354.040599L177.536777,353.999857L173.445865,356.237757L171.607402,356.622128L173.298930,354.229053L171.115121,354.860682L171.238618,353.707899L171.057420,352.795956L170.125192,352.445039L170.181344,351.365412L172.165261,348.911033L173.466366,346.988828L172.563385,346.642275L174.304522,344.463247L168.591047,347.397734L173.994697,342.773839L171.521170,343.471311L169.503126,343.833949L173.993901,339.980346L169.561553,341.875753L170.854942,340.118754L168.373837,340.718843L168.059102,339.966293L162.478179,342.368517L165.580411,339.557619L164.611601,339.174512L165.009785,337.998861L163.153576,338.108994L164.868647,336.209637L166.030883,334.648454L165.457502,334.048737L162.233329,334.852761L155.807933,337.282692L155.768654,336.329019L166.283956,330.037848L168.157501,328.227787L167.937892,327.479372L168.647409,326.284810L164.958640,327.192871L166.671780,325.528381L164.022459,325.896573L163.630887,325.210671L160.363883,325.797882L160.124634,325.021385L164.062957,322.458989L161.705978,322.606566L160.271607,322.342360L162.696315,320.497696L163.955708,319.157173L167.351110,317.006175L166.444210,316.556558L165.014873,316.293649L161.425946,316.808627L165.096421,314.655698L156.188561,317.007129L149.654656,318.411228L144.265633,319.336840L141.180351,319.424382L144.316413,317.450972L145.043077,316.291653L146.432247,314.940597L146.157882,314.117858L149.593885,312.194342L150.600969,311.025739L153.342726,309.384161L150.686679,309.271916L148.127192,309.099968L150.255601,307.668040L147.959572,307.396577L153.847471,305.065535L158.561330,303.100984L157.374062,302.587157L157.623144,301.732483L156.259641,301.239874L152.922110,301.154045L153.019984,300.312630L157.176726,298.659672L157.494679,297.809621L155.150575,297.464763L152.836718,297.085114L148.859075,296.966313L151.325969,295.717060L151.021224,294.948195L153.137843,293.803383L156.709182,292.473195L156.619632,291.708186L151.174939,291.664097L155.920967,290.245333L150.826597,290.085464L153.881731,288.923437L148.211679,288.748585L153.918607,287.341386L156.440794,286.313388L155.947269,285.587304L161.220054,284.380308L155.490191,284.078257L157.098307,283.192832L154.586971,282.588513L155.130232,281.779591L155.192539,281.002347L150.839968,280.419100L149.451300,279.669892L151.753941,278.789659L149.836600,278.041988L151.808589,277.200391L148.554211,276.444071L148.754750,275.628743L153.063465,274.822046L152.093241,274.029130L149.553512,273.201129L145.600314,272.310888L142.419969,271.390527L147.778824,270.716395L155.335396,270.199174L152.336324,269.287452L150.451223,268.395615L152.389042,267.706293L147.372697,266.582772L145.590118,265.627857L149.991268,265.136970L156.860481,264.913025L158.434241,264.290850L153.814038,263.078919L150.925643,261.987533L154.090890,261.531769L151.978142,260.493788L152.094671,259.704431L152.473093,258.949617L158.214090,258.936031L155.540855,257.783786L152.939205,256.605726L155.311911,256.174254L154.679009,255.279889L155.431519,254.611710L153.749319,253.520455L153.686349,252.702630L153.293018,251.819133L154.491842,251.242281L152.210813,249.970073L150.863888,248.861789L155.590883,249.052958L157.772396,248.735318L154.673022,247.225956L154.269716,246.312747L152.353444,245.021725L154.970747,244.841034L156.551883,244.426065L159.265050,244.330103L160.024837,243.737682L158.851268,242.613903L158.105869,241.593304L155.817642,240.107637L157.493800,239.775233L157.782503,239.037499L160.547200,239.077689L153.500319,236.004698L153.192806,235.038998L156.596247,235.309209L153.207849,233.299030L156.119638,233.438808L151.910710,231.075788L155.097331,231.340452L155.361544,230.562011L156.328430,230.049409L156.359393,229.185364L159.433514,229.515143L156.161115,227.341095L154.465880,225.757857L157.597879,226.152828L165.957219,228.804890L165.343623,227.709767L164.483490,226.492410L163.057459,225.004302L162.994986,224.108743L167.914716,225.509686L165.000602,223.300667L166.298687,223.053526L166.383834,222.232362L161.560638,218.983394L162.701581,218.644408L167.469611,220.167511L171.219621,221.234860L170.623616,220.070673L170.815030,219.311751L168.799166,217.351903L165.833419,214.828685L163.203314,212.436988L163.049976,211.401048L171.028245,215.044614L171.774173,214.585655L168.985150,212.033309L165.364082,208.923842L161.999815,205.900358L158.775750,202.896445L159.952764,202.596505L162.386373,203.111510L164.851982,203.682960L164.828524,202.656654L172.557979,206.783984L171.170419,204.890725L168.640378,202.180779L168.788083,201.272861L172.493317,202.862266L175.389130,203.936632L173.229387,201.402348L170.931134,198.714872L171.565925,198.151332L168.578432,194.862954L167.457639,192.928446L171.635513,195.058292L170.651966,193.218330L175.156383,195.705441L176.839497,196.006011L175.760319,194.079108L178.416140,195.203694L175.237654,191.490918L173.849441,189.215052L178.741868,192.292691L182.066382,194.103102L179.488662,190.772020L177.460076,187.860080L173.283450,182.944136L175.894554,184.139481L173.490537,180.725163L182.823225,188.280455L183.841103,188.124693L187.928280,190.943219L186.567598,188.522555L186.611051,187.444470L189.948642,189.658481L189.729737,188.329666L187.994090,185.418868L191.849761,188.278193L193.008221,188.376608L191.396101,185.526292L190.273996,183.146744L191.753166,183.575975L192.308999,183.003263L192.057338,181.519410L195.282369,183.980202L194.176145,181.509236L196.743694,183.292088L200.733222,186.823680L197.467656,181.734110L198.930785,182.286063L196.399708,177.933128L196.806494,177.153791L199.901939,179.776270L202.374827,181.682188L203.122411,181.405442L202.093382,178.789228L203.334887,179.151524L202.280602,176.424154L202.471829,175.346379L204.390106,176.657217L202.791144,173.050846L204.766494,174.473489L206.708714,175.900204L207.074566,175.059740L209.109827,176.698543L210.178424,176.933170L209.419551,174.382496L209.783179,173.517739L207.271738,168.102398L207.939570,167.633318L208.659523,167.247813L210.236297,168.275489L212.839362,171.061788L212.831364,169.512182L214.417273,170.673033L211.406422,163.845983L214.117692,166.976990L214.407242,165.853419L214.256442,163.901861L214.491774,162.618977L215.638932,163.028063L216.735148,163.364564L215.679743,159.535731L215.138831,156.613433L214.406986,153.224959L214.304055,151.022696L215.108179,150.643741L217.285249,153.163321L220.739873,158.523223L221.866436,158.995748L223.439807,160.488795L223.130060,157.790482L226.224525,162.836701L226.080804,160.495499L226.021377,158.281633L226.639802,157.642946L228.057114,158.966756L229.520348,160.467588L229.175470,157.396753L231.198955,160.413964L231.541317,159.076803L232.989324,160.705412L232.869332,158.058826L230.446775,148.791734L235.242336,160.022897L235.551602,158.493481L235.191164,154.888180L235.885562,154.387925L234.980841,148.835124L235.840163,148.728471L237.898267,152.583947L241.660982,162.391530L241.572573,159.362356L242.239165,158.870284L242.539622,157.033411L242.607376,154.244980L243.189172,153.287071L245.028966,157.231631L246.131677,158.428954L246.516657,156.724452L246.334550,152.508131L246.960942,151.608736L247.463891,150.105282L248.086833,149.079453L248.881472,148.827586L249.779984,149.088692L250.973396,150.902272L251.081935,147.053143L252.384306,149.552879L253.580797,151.645437L254.488247,152.184543L256.206682,157.835049L256.210291,152.831724L256.757464,151.083436L257.068089,147.500662L257.735299,146.237698L258.456049,145.276140L259.116289,143.721978L259.887771,142.973909L261.045183,145.722433L262.003444,146.872215L263.742393,156.414669L264.538220,156.705856L265.077641,153.925116L265.841150,153.646767L266.281188,148.639185L267.155869,149.557689L268.100141,151.940779L269.007227,154.206550L269.506450,147.711249L270.354764,148.455060L271.218026,150.022625L271.967161,147.659953L272.850424,151.279204L273.623852,149.133701L274.433902,149.013479L275.251917,145.572621L276.083119,145.846301Z" />
<line x1="50" y1="600" x2="100" y2="600" fill="none" stroke="red" stroke-width="1.0" stroke-linejoin="round" stroke-miterlimit="10" />
<text x="125" y="603" style="text-anchor:start;fill:black">n0_4mer:D</text>
<path style="stroke:black;stroke-width:1.0" d="M277.125947,109.922428L278.180733,110.364515L279.234421,110.638359L280.337837,109.269586L281.409799,109.182474L282.516342,108.365457L283.561572,108.954169L284.566946,110.111036L285.610875,110.450527L286.620745,111.220601L287.740811,110.451261L288.856630,109.863999L290.009803,108.960591L291.054612,109.309557L292.027403,110.324153L292.990527,111.319515L293.983472,111.960304L295.165739,111.006426L296.330565,110.296621L297.309851,111.031994L298.247016,112.008274L299.214968,112.705403L300.153741,113.544094L301.311170,112.981368L302.595638,111.724260L303.711384,111.535959L304.747745,111.810332L305.610001,113.000300L306.318963,114.906167L307.126139,116.213965L308.247759,115.946893L309.339870,115.846566L310.342326,116.168627L311.367204,116.387327L311.957012,118.449876L312.934867,118.812595L314.279093,117.701659L315.328506,117.812552L316.263467,118.365651L317.453981,117.958793L318.100312,119.548570L319.230341,119.372381L320.546164,118.580159L321.309593,119.691365L322.144545,120.530870L323.101030,120.957000L324.111030,121.210402L325.379695,120.674176L326.677073,120.088652L327.645348,120.507480L328.852775,120.235728L330.116090,119.831779L331.126955,120.154664L332.257350,120.155819L333.019508,121.147710L333.677060,122.388016L334.603871,122.908715L335.480048,123.551117L337.099485,122.357275L338.301296,122.229068L339.444147,122.259769L340.194511,123.217812L340.955249,124.133343L341.793292,124.858178L342.758767,125.291416L343.888730,125.367474L344.501008,126.561446L345.493076,126.933073L346.554042,127.165037L347.443855,127.752277L348.832261,127.338489L349.368229,128.630622L349.724334,130.245655L350.254342,131.493795L350.712619,132.853066L351.489620,133.596482L353.403748,132.262097L354.510067,132.431479L355.303322,133.164030L357.055981,132.220823L357.098173,134.253217L357.786306,135.150588L358.852544,135.407967L359.320308,136.655394L360.912972,136.063534L362.530013,135.465316L364.205271,134.808379L365.492617,134.787013L366.215649,135.644621L366.979793,136.432805L367.325706,137.836932L367.826510,138.991915L368.714656,139.571944L369.714058,139.994025L370.371362,140.902194L371.598479,141.012088L372.208519,141.980108L373.368188,142.196973L374.078745,143.023139L375.236937,143.255990L376.487831,143.379498L377.125488,144.301746L377.452820,145.608982L377.384218,147.392783L378.046116,148.248754L378.756881,149.040404L380.222723,148.924137L381.153506,149.461155L381.821462,150.308747L382.638603,150.980341L383.583603,151.507074L385.208133,151.275360L386.211971,151.755592L387.332274,152.114449L387.883449,153.097214L388.058857,154.474039L388.453750,155.603351L389.411002,156.138275L390.078054,156.975966L391.415509,157.132434L393.180117,156.877042L394.169705,157.412232L395.416991,157.702304L396.250950,158.402191L396.373677,159.779313L395.407324,162.161887L396.645370,162.464187L396.850582,163.721974L396.747527,165.245582L397.769313,165.749301L397.624979,167.284699L397.380988,168.887386L398.147259,169.604516L399.759326,169.609111L401.472420,169.550073L404.040889,168.809706L405.944767,168.649816L406.909796,169.268512L407.362421,170.298541L407.373657,171.668481L407.501517,172.935025L407.787775,174.070309L407.074784,175.947610L406.966246,177.350457L407.976030,177.922187L408.182498,179.080070L409.999995,179.085306L410.942457,179.727050L411.697133,180.504923L413.056847,180.873063L413.297025,182.008204L413.767963,182.983622L413.405473,184.501731L413.859294,185.476178L413.926488,186.694139L414.968975,187.291888L415.828692,188.011102L415.488983,189.465893L416.015439,190.385230L416.428272,191.371431L417.071895,192.220975L419.033170,192.316012L420.367902,192.789847L420.970741,193.685082L420.636451,195.095813L419.630153,196.855411L419.600610,198.070242L419.993342,199.055218L422.368353,199.016546L423.222494,199.780425L423.972233,200.602431L424.863383,201.359305L424.985578,202.494571L424.546160,203.891403L424.593290,205.046544L424.768061,206.136664L423.795826,207.741063L425.196967,208.269200L426.448492,208.877640L425.952024,210.248550L427.252960,210.848194L426.773439,212.198034L426.201808,213.571960L427.221310,214.296858L428.156228,215.064240L429.647758,215.626075L430.436383,216.468987L430.774896,217.484146L430.354440,218.773527L430.854687,219.724974L431.656154,220.573863L431.802190,221.652254L433.376025,222.252273L433.284514,223.412712L432.684385,224.729264L432.443890,225.920600L431.584714,227.292568L432.236165,228.198479L433.170543,229.027065L434.617903,229.719041L435.472475,230.591148L435.767195,231.622198L435.910202,232.693348L436.288303,233.702520L435.531930,234.995940L434.972177,236.227834L434.768304,237.364859L435.555750,238.269029L436.667673,239.108631L437.983173,239.916314L438.903303,240.821127L438.446007,242.013340L439.010875,242.997125L439.569836,243.986820L439.483238,245.098662L439.906349,246.117517L439.139686,247.340014L437.586681,248.677305L438.852278,249.554107L439.495001,250.538068L440.577404,251.465924L441.605087,252.413429L440.742779,253.616346L438.953675,254.919680L439.042330,255.980218L438.912862,257.064183L439.907911,258.029230L445.849952,258.528883L448.866090,259.367470L450.308648,260.375184L449.202578,261.596482L443.586198,263.120161L441.051712,264.372918L440.118230,265.499899L439.938763,266.575515L439.265224,267.670159L437.247763,268.806801L437.271785,269.852143L438.863767,270.857731L440.461962,271.883376L442.528700,272.923546L442.513595,274.002563L441.141373,275.080644L441.262422,276.151398L440.076518,277.206340L440.471357,278.277498L440.196875,279.336445L440.540371,280.412419L440.464609,281.476861L440.481912,282.545106L441.940538,283.689222L441.319511,284.731220L440.953990,285.782603L439.584256,286.758412L437.112077,287.631569L436.043249,288.592189L436.798997,289.705917L436.937353,290.770563L438.274856,291.962910L438.124957,293.009874L437.086742,293.952527L436.688372,294.962214L435.713458,295.893420L436.715147,297.083541L437.027475,298.190006L437.567153,299.336573L437.913479,300.462092L437.968235,301.546847L437.719950,302.583218L436.972597,303.530743L436.441172,304.510255L435.154597,305.342155L436.158130,306.608666L438.671201,308.197502L439.237120,309.414890L440.734982,310.844422L439.426963,311.671477L437.530378,312.348790L437.760958,313.506904L437.375996,314.521706L436.851316,315.499767L436.127057,316.422909L435.989931,317.494747L433.951195,318.053398L433.381560,318.995789L433.010793,319.990833L432.729793,321.010934L433.436429,322.326263L433.259888,323.385762L431.823459,324.053081L430.027827,324.589656L428.849737,325.307200L429.720162,326.697043L430.638174,328.120356L430.930350,329.343678L431.201420,330.568767L431.098864,331.667347L431.352055,332.901494L430.917472,333.885059L430.511707,334.878907L429.122065,335.486326L427.696267,336.064421L427.705085,337.211548L428.144232,338.543379L428.572524,339.883430L428.461591,341.004402L428.491458,342.191804L427.073481,342.741362L426.543003,343.677973L427.380527,345.243830L427.094813,346.303249L427.343447,347.620109L426.692639,348.512409L425.274059,349.023690L424.067624,349.626100L423.260830,350.420114L422.827607,351.401997L422.077958,352.218709L421.026092,352.870114L419.290392,353.142075L416.834302,352.997352L415.150220,353.250893L413.838586,353.695605L413.729869,354.818722L414.270963,356.328249L413.626047,357.153308L413.340547,358.192489L412.353731,358.808142L411.641113,359.585630L413.232175,361.806788L417.499491,365.771316L420.860229,369.237967L421.986158,371.312691L420.467428,371.662203L415.580863,369.725769L412.377029,368.858924L410.279633,368.709411L410.113293,369.887568L409.927187,371.060205L409.295659,371.919780L410.182245,373.889755L409.432163,374.676325L409.137289,375.802819L408.972705,377.035684L406.729407,376.674135L405.884835,377.373977L405.840102,378.703924L404.389802,378.918073L404.290019,380.214706L403.320428,380.806510L401.849696,380.973412L401.527241,382.094998L401.214567,383.233089L399.892095,383.502488L398.477569,383.676770L398.083095,384.744223L397.197561,385.375343L397.323557,386.927942L397.306229,388.367730L396.017709,388.630985L395.609560,389.718113L394.985351,390.605180L394.113154,391.253199L393.957704,392.606718L393.295061,393.467635L392.766680,394.467340L392.143131,395.375548L390.967123,395.712704L389.877674,396.130433L388.881653,396.639539L388.079006,397.352011L387.853292,398.696438L387.338844,399.736452L387.089774,401.083282L386.762027,402.356879L384.237052,401.108469L382.130946,400.298497L381.217031,400.861581L380.076278,401.149134L380.214439,402.982023L379.963103,404.365598L378.877808,404.726567L377.846484,405.147596L377.567455,406.526853L377.152917,407.749360L377.021716,409.360266L376.191848,410.064488L375.104475,410.421787L373.810447,410.487873L371.979446,409.791983L371.210723,410.556428L370.221074,411.009321L369.890242,412.411799L369.235627,413.360987L368.091732,413.591362L367.349205,414.417260L366.586223,415.218398L365.254924,415.143113L364.524811,415.995816L363.807350,416.876707L362.616158,416.998803L361.790864,417.709614L361.377805,419.112670L360.091938,419.063134L358.609075,418.657283L357.190959,418.335953L354.987277,416.598197L354.347312,417.601944L354.502808,420.072370L354.463486,422.242585L354.458137,424.528637L352.450448,423.043317L350.442332,421.493966L349.627395,422.233221L348.554957,422.464626L348.143591,424.035072L347.562831,425.291064L346.159107,424.840507L345.467798,425.884650L344.959013,427.346434L344.079382,428.021672L343.346061,429.034706L342.247786,429.230984L340.913532,428.867921L340.207380,429.969048L339.523187,431.148311L338.459912,431.421565L337.479049,431.896668L335.975970,431.038197L334.956451,431.392606L334.234088,432.536073L332.876753,431.987598L331.796628,432.168930L330.232502,430.975863L328.743478,429.934590L327.949706,430.881169L327.138073,431.800198L326.107915,432.073256L325.326639,433.125795L324.704793,434.723853L323.635183,434.909055L322.422825,434.607760L321.359191,434.789772L320.387143,435.289482L319.340681,435.530234L318.182475,435.353726L316.742815,434.080680L315.367785,432.977492L314.313426,433.088586L313.726582,435.124703L313.029312,436.794648L312.259266,438.230619L311.372262,439.211721L310.369165,439.699221L309.228899,439.544145L307.860180,438.229194L306.848962,438.646030L305.642073,438.036828L304.685200,438.747416L303.830130,440.080493L302.625618,439.424370L301.679753,440.302345L300.532477,439.939485L299.328667,439.148267L298.248315,439.140617L297.023483,438.048019L295.867876,437.368089L294.903593,438.169222L293.776438,437.635800L292.701657,437.504780L291.626796,437.341800L290.542832,437.047282L289.527933,437.467761L288.487597,437.632700L287.553428,439.199540L286.535053,439.838173L285.542251,440.994486L284.579178,442.918641L283.527330,443.563669L282.413000,442.965638L281.330267,442.984907L280.263985,443.522007L279.142094,442.077680L278.079390,442.825858L276.992336,442.317180L275.901846,439.951279L274.839321,440.241202L273.781902,439.336653L272.733009,438.650382L271.666269,439.269839L270.630887,438.407659L269.583666,438.226199L268.559394,437.513381L267.525660,437.193793L266.459045,437.566766L265.397625,437.757991L264.332571,437.954753L263.245750,438.406392L262.102833,439.486399L261.020602,439.673983L259.880814,440.452025L258.994695,438.522243L258.051027,437.371327L257.038836,436.960606L255.918969,437.499646L254.622253,439.395679L253.534907,439.484181L252.270733,440.841222L251.427179,439.132217L250.363288,439.026465L249.216513,439.444894L248.615706,436.474734L247.354304,437.607900L246.353409,437.167969L245.474237,436.082474L244.115571,437.583905L243.182599,436.805117L242.178658,436.413106L241.175875,436.027118L240.473347,434.266525L239.429353,434.126287L238.551274,433.260428L237.469438,433.290045L236.148717,434.283920L235.221090,433.642391L234.169128,433.504003L233.411379,432.246728L232.887495,430.177942L231.865615,429.987842L230.913025,429.550573L229.280464,431.447402L227.754277,432.886382L226.621373,432.961375L225.324820,433.541284L224.610072,432.265678L223.427168,432.460668L222.322992,432.397963L221.270059,432.173773L219.896470,432.863191L219.258663,431.445196L218.329258,430.871514L217.300593,430.573671L216.366290,430.023485L215.072353,430.412541L214.141388,429.848878L213.419692,428.769034L212.468530,428.276688L211.358064,428.170992L210.173305,428.230041L208.999991,428.245718L207.944247,427.977822L206.833202,427.828268L205.819460,427.454435L204.991078,426.676604L204.345139,425.520984L203.921178,423.923351L203.056416,423.271334L201.948260,423.118908L200.883905,422.868934L199.604144,423.034703L198.451331,422.934723L197.756207,421.951808L196.846818,421.385169L195.715091,421.230539L194.678593,420.892164L193.106387,421.506794L192.078255,421.128612L191.557026,419.865785L190.562778,419.433364L189.596157,418.951135L188.413017,418.826597L187.690641,417.935296L187.186875,416.700622L186.415921,415.909938L185.638059,415.136291L184.248649,415.313732L183.024689,415.217725L182.102872,414.653756L181.394233,413.772803L180.234341,413.559259L179.849825,412.216725L178.867514,411.744328L177.930878,411.203879L177.465759,410.008475L176.199529,409.922255L175.444489,409.132639L174.748125,408.268966L173.831363,407.700151L172.673185,407.441623L172.007396,406.543687L171.294530,405.711234L170.971928,404.397638L170.693505,403.046565L170.085957,402.111889L169.117201,401.615858L167.536303,401.837528L166.428607,401.484370L166.001912,400.339214L165.287938,399.531521L164.688060,398.598584L163.835727,397.950565L162.522757,397.803738L161.972362,396.820273L161.515577,395.743728L160.774866,394.974208L159.579398,394.677079L158.531554,394.217488L157.625553,393.607177L157.377539,392.336776L157.212256,390.997944L156.162949,390.533320L155.367302,389.817596L153.967913,389.672499L152.875890,389.223766L151.656050,388.884439L150.869795,388.138315L150.812938,386.734573L149.993162,386.023854L149.816630,384.746798L149.339377,383.742051L148.774805,382.816913L149.383003,380.905919L149.799113,379.183198L148.406235,378.969870L147.952992,377.979311L146.374816,377.893116L144.566834,377.969001L145.119495,376.181919L144.559815,375.274864L144.265394,374.168361L143.869704,373.144636L143.019159,372.461550L142.000209,371.896718L141.287623,371.103904L139.774070,370.877158L138.544780,370.434258L139.126755,368.730096L137.482040,368.563449L137.806299,367.055997L136.705472,366.508645L134.370566,366.757025L133.950820,365.741298L133.358846,364.837807L133.037660,363.764757L132.266783,362.973360L132.397718,361.630483L131.102707,361.153487L130.981581,359.970948L130.577888,358.960077L130.398198,357.823266L131.522808,355.956557L131.922341,354.520785L131.818969,353.375666L130.469875,352.908770L128.480425,352.767668L126.276339,352.714148L125.601098,351.846303L125.856631,350.504312L126.335828,349.062896L126.535502,347.773868L126.328939,346.691409L125.926832,345.705747L125.927791,344.532919L124.971758,343.806025L124.508989,342.848747L123.309399,342.217570L121.435469,341.868214L121.640214,340.607485L120.852093,339.773519L121.778705,338.226351L121.699157,337.106913L121.592809,336.002937L121.552541,334.877448L120.364537,334.196453L120.337655,333.067603L119.896536,332.096341L118.285567,331.546114L115.944539,331.235858L114.286252,330.660473L112.510440,330.106195L112.562351,328.924759L113.954400,327.313702L114.216588,326.086258L114.213290,324.949672L113.488245,324.036713L113.487439,322.903193L114.875458,321.371784L116.649372,319.754854L117.726320,318.358751L117.534878,317.322351L117.374446,316.278951L117.099779,315.266132L116.564682,314.317732L116.642897,313.217462L115.450713,312.419563L113.896594,311.691169L112.735921,310.857976L111.848267,309.953731L111.540875,308.920149L112.465721,307.637930L113.130261,306.421449L113.152451,305.336957L112.246923,304.423081L110.533613,303.640350L110.710153,302.520755L110.561022,301.458245L110.925329,300.316791L110.938844,299.234109L110.501472,298.217296L110.194304,297.179179L110.662512,296.039638L110.840690,294.943235L110.616308,293.897116L110.833601,292.801764L109.976140,291.820282L110.057921,290.739426L109.723389,289.697972L110.304968,288.577877L111.056145,287.453575L111.440792,286.365512L111.358517,285.312800L110.321933,284.313857L109.828364,283.275090L108.591981,282.263059L108.960926,281.175966L108.524737,280.118901L107.457902,279.071965L107.360156,277.994310L107.481858,276.913137L107.373000,275.834838L107.783651,274.755965L108.176226,273.682218L106.850641,272.588781L105.657266,271.480814L104.921126,270.369626L106.753676,269.335056L110.128879,268.385534L113.871349,267.496107L113.935496,266.459314L111.460496,265.271593L108.532663,264.021209L105.950937,262.757102L107.715765,261.801486L109.423538,260.862769L110.314755,259.870008L112.543100,259.019090L112.985081,258.008465L113.048160,256.959963L113.378754,255.942313L112.363491,254.759886L111.170866,253.539242L111.349617,252.489796L111.015393,251.366866L110.725951,250.244288L110.678830,249.153913L109.972752,247.952720L110.988359,247.033458L111.910448,246.108704L113.698308,245.352855L113.511865,244.242234L112.535796,242.970809L111.348961,241.640601L110.612979,240.386522L111.108048,239.387047L112.219118,238.529170L113.529304,237.729105L113.213169,236.557121L113.014752,235.406240L113.321580,234.376120L113.296020,233.260823L113.894438,232.306837L114.196834,231.276821L114.927291,230.366450L115.542583,229.429316L116.115301,228.484202L117.915026,227.910726L117.372949,226.639788L117.675712,225.621986L117.139899,224.334827L117.065563,223.186817L117.746242,222.286079L117.497588,221.072031L118.426387,220.261052L118.534871,219.165674L119.555503,218.398787L121.352966,217.930013L122.214684,217.127754L122.275648,216.023477L121.111417,214.432265L120.471952,213.028386L120.874231,212.034566L121.813851,211.264267L123.954141,211.010619L125.104033,210.356106L124.893816,209.115824L125.492421,208.227032L125.140173,206.908808L124.844128,205.604273L126.957316,205.420456L127.780684,204.646440L128.855253,204.000319L129.382752,203.093883L129.089022,201.776356L128.683745,200.389608L128.889734,199.305163L129.579347,198.470632L129.678270,197.323607L129.522259,196.031552L129.891472,195.017914L130.496813,194.133966L130.737939,193.044538L131.322844,192.148467L131.934883,191.269158L131.359190,189.685664L130.926492,188.168749L131.680620,187.360163L131.812406,186.168844L132.599028,185.381785L133.705967,184.802971L134.426155,183.983286L134.900234,183.004447L137.732765,183.593916L140.292781,184.041090L142.212018,184.086576L142.882380,183.290385L141.625207,181.139238L142.771791,180.667104L143.493435,179.898142L145.187444,179.844091L146.856580,179.792969L146.903090,178.541095L147.735608,177.877468L148.205455,176.937573L148.839571,176.123095L148.480362,174.519676L148.643067,173.315128L148.845126,172.132227L149.298143,171.146791L150.861050,171.085746L151.370710,170.151028L151.858820,169.194128L151.354612,167.369107L150.700075,165.384410L150.373687,163.661724L150.611254,162.425267L151.559933,161.829342L152.053102,160.815584L153.592230,160.780051L154.330283,160.000597L155.559031,159.694786L156.706250,159.321346L156.654278,157.770158L158.426510,158.028808L159.261089,157.360746L160.578490,157.191814L161.564461,156.692043L161.056780,154.620270L162.756150,154.875537L163.303177,153.907108L164.657636,153.818900L167.086651,154.942487L167.571616,153.922758L168.666534,153.590841L169.360634,152.804577L169.159697,150.966632L168.502933,148.556929L168.672054,147.095050L168.934911,145.726786L169.533564,144.754975L170.593010,144.351962L171.684231,143.996445L172.936931,143.856735L174.118600,143.638469L175.381888,143.539568L176.544929,143.321307L177.268769,142.518996L177.947367,141.649799L178.735194,140.926029L179.116451,139.625376L179.847005,138.805764L180.562863,137.959074L181.208385,137.002231L182.328687,136.743798L183.972332,137.286673L185.318406,137.405056L187.206618,138.386918L189.051660,139.345087L189.860784,138.688391L190.615816,137.940684L191.078614,136.705424L191.233008,134.934009L191.990729,134.149767L193.357764,134.407337L194.674563,134.600682L195.193645,133.400199L195.567107,131.916422L196.424190,131.287209L196.971973,130.079712L197.854125,129.480836L199.278704,129.918023L199.980321,128.977498L200.572457,127.805726L201.404926,127.094448L201.946634,125.781475L202.947035,125.392975L203.794202,124.683525L204.874523,124.466080L205.767271,123.847128L207.178356,124.373370L208.321756,124.328439L209.826854,125.128878L211.579166,126.551709L212.802491,126.780406L213.524872,125.816575L213.839818,123.824498L214.833057,123.480259L215.201827,121.535048L216.427906,121.772058L217.525566,121.690702L218.186226,120.431981L218.759031,118.893171L219.453354,117.650093L220.435098,117.201134L221.400276,116.699091L222.660703,117.081084L223.913977,117.472716L225.163807,117.885826L226.028478,117.090535L227.028243,116.718629L228.183373,116.868506L229.004768,115.885741L229.853858,114.967186L231.024650,115.186028L231.934862,114.459394L232.934806,114.052350L234.123203,114.378457L235.122333,113.972935L236.482084,115.056426L237.860396,116.296769L239.340240,118.072372L240.510344,118.566284L241.411304,117.846183L242.398673,117.510722L243.236743,116.421465L244.194430,115.888821L245.107124,115.091597L246.011069,114.201130L246.893166,113.130943L248.010266,113.397209L249.293043,114.732697L250.563192,116.115010L251.765301,117.173030L252.724674,116.618148L253.838095,117.171865L254.864380,117.113269L255.845491,116.689012L256.980512,117.575003L257.855111,116.169575L258.663803,113.948046L259.577202,112.539397L260.457410,110.563052L261.444128,109.588167L262.516188,109.591564L263.589362,109.626850L264.670147,109.806342L265.722252,109.531054L266.776854,109.249988L267.814748,108.513524L268.896641,108.733062L270.007172,110.009269L271.099820,111.242838L272.177893,112.571083L273.225539,112.702873L274.266048,111.657063L275.321535,109.805264L276.381758,110.235851Z" />
<line x1="50" y1="550" x2="100" y2="550" fill="none" stroke="black" stroke-width="1.0" stroke-linejoin="round" stroke-miterlimit="10" />
<text x="125" y="553" style="text-anchor:start;fill:black">GC-content</text>
</g>
<g style="fill:pink;stroke:black">
<a href="" title="CP081485:1 [424000-441599];"><path  d="M500.156695,228.048292L500.941822,231.984969L501.658126,235.934749L502.305388,239.896428L482.539702,242.948913L482.539702,242.948913L481.948724,239.331727L481.294707,235.725406L480.577852,232.131049Z" />
</a><a href="" title="CP081485:2 [451500-476099];"><path  d="M503.426559,248.142841L503.860491,252.133525L504.224709,256.131174L504.519104,260.134570L504.743584,264.142495L484.765881,265.086626L484.765881,265.086626L484.560921,261.427216L484.292126,257.771941L483.959579,254.121914L483.563380,250.478246Z" />
</a><a href="" title="CP081485:3 [613500-632099];"><path  d="M486.431841,365.534947L484.819586,369.211153L483.143418,372.858661L481.403848,376.476360L463.455687,367.652329L463.455687,367.652329L465.043991,364.349212L466.574405,361.018879L468.046463,357.662343Z" />
</a><a href="" title="CP081485:4 [659000-681099];"><path  d="M470.950674,395.429786L468.819040,398.831255L466.628367,402.195003L464.379322,405.520007L462.072591,408.805253L445.805409,397.170014L445.805409,397.170014L447.911555,394.170441L449.965031,391.134568L451.965211,388.063320L453.911485,384.957631Z" />
</a><a href="" title="CP081485:5 [768000-786599];"><path  d="M417.601915,455.456903L414.430789,457.918165L411.217191,460.323708L407.962100,462.672800L396.400178,446.353426L396.400178,446.353426L399.372218,444.208603L402.306373,442.012237L405.201749,439.764998Z" />
</a><a href="" title="CP081485:6 [869500-910099];"><path  d="M352.122384,491.684420L348.328974,492.997389L344.513226,494.243954L340.676305,495.423735L336.819377,496.536373L332.943619,497.581529L329.050211,498.558884L325.140338,499.468141L320.780309,479.949173L320.780309,479.949173L324.350192,479.118981L327.905043,478.226613L331.443779,477.272341L334.965322,476.256454L338.468598,475.179262L341.952541,474.041094L345.416090,472.842296Z" />
</a><a href="" title="CP081485:7 [950000-972099];"><path  d="M294.008933,504.213133L290.005717,504.509975L285.997930,504.736905L281.986793,504.893855L277.973528,504.980778L277.714960,484.982449L277.714960,484.982449L281.379246,484.903085L285.041588,484.759783L288.700872,484.552586L292.355982,484.281556Z" />
</a><a href="" title="CP081485:8 [1308000-1325599];"><path  d="M73.248098,385.436272L71.351447,381.898395L69.516830,378.327957L67.744804,374.726044L85.766995,366.054214L85.766995,366.054214L87.384931,369.342917L89.060017,372.602883L90.791742,375.833117Z" />
</a><a href="" title="CP081485:9 [1354500-1375099];"><path  d="M59.032093,354.106656L57.684384,350.325448L56.402872,346.521295L55.187947,342.695356L74.302038,336.808803L74.302038,336.808803L75.411318,340.302052L76.581394,343.775409L77.811911,347.227816Z" />
</a><a href="" title="CP081485:10 [1628000-1647599];"><path  d="M76.498032,158.823544L78.555824,155.376902L80.673454,151.966697L82.850278,148.593970L99.558950,159.585799L99.558950,159.585799L97.571415,162.665245L95.637926,165.778910L93.759073,168.925845Z" />
</a><a href="" title="CP081485:11 [1658000-1675599];"><path  d="M88.628043,140.220574L91.008654,136.988462L93.445310,133.798390L95.937270,130.651330L111.507942,143.203388L111.507942,143.203388L109.232675,146.076791L107.007901,148.989465L104.834300,151.940524Z" />
</a><a href="" title="CP081485:12 [1682000-1704099];"><path  d="M99.589120,126.235007L102.212143,123.196322L104.887799,120.203879L107.615273,117.258588L110.393734,114.361346L124.707322,128.329925L124.707322,128.329925L122.170467,130.975232L119.680164,133.664411L117.237174,136.396642L114.842240,139.171093Z" />
</a></g>
<text x="275" y="280" style="text-anchor:middle" font-size="25" font-weight="bold">CP081485</text>
<path  style="fill:pink;stroke:black" d="M350,550L375,550L375,565L350,565Z" />
<text x="405" y="565" style="text-anchor:start;fill:black">Selected loci;</text>
</svg>