<svg xmlns="http://www.w3.org/2000/svg" viewbox="0 0 550 650">
<circle cx="275" cy="275" r="240" fill="none" stroke="black" stroke-width="1.0" />
<line x1="275" y1="15" x2="275" y2="55" fill="none" stroke="grey" stroke-width="1.0" stroke-linejoin="round" stroke-miterlimit="10" />
<line x1="495" y1="275" x2="535" y2="275" fill="none" stroke="grey" stroke-width="1.0" stroke-linejoin="round" stroke-miterlimit="10" />
<line x1="275" y1="495" x2="275" y2="535" fill="none" stroke="grey" stroke-width="1.0" stroke-linejoin="round" stroke-miterlimit="10" />
<line x1="15" y1="275" x2="55" y2="275" fill="none" stroke="grey" stroke-width="1.0" stroke-linejoin="round" stroke-miterlimit="10" />
<text x="275" y="10" style="text-anchor:middle" font-size="15">Methanothermobacter wolfeii strain DSM 2970 chromosome, complete</text><text x="285" y="25" style="text-anchor:start">1,706,705</text><text x="525" y="265" style="text-anchor:start">0.42 Mbp</text><text x="285" y="530" style="text-anchor:start">0.85 Mbp</text><text x="-200" y="25" style="text-anchor:end" transform="rotate(-90)">1.28 Mbp</text><circle cx="361.372957" cy="51.081014" r="2.500000" fill="grey" stroke="black" stroke-width="1.0" />
<circle cx="436.171208" cy="97.169064" r="2.500000" fill="grey" stroke="black" stroke-width="1.0" />
<circle cx="489.371155" cy="167.087963" r="2.500000" fill="grey" stroke="black" stroke-width="1.0" />
<circle cx="513.843556" cy="251.467986" r="2.500000" fill="grey" stroke="black" stroke-width="1.0" />
<circle cx="506.308902" cy="339.001498" r="2.500000" fill="grey" stroke="black" stroke-width="1.0" />
<circle cx="467.776900" cy="417.958269" r="2.500000" fill="grey" stroke="black" stroke-width="1.0" />
<circle cx="403.411165" cy="477.757423" r="2.500000" fill="grey" stroke="black" stroke-width="1.0" />
<circle cx="321.837248" cy="510.385369" r="2.500000" fill="grey" stroke="black" stroke-width="1.0" />
<circle cx="233.986745" cy="511.469687" r="2.500000" fill="grey" stroke="black" stroke-width="1.0" />
<circle cx="151.632364" cy="480.865068" r="3.000000" fill="black" stroke="black" stroke-width="1.0" />
<circle cx="85.810289" cy="422.672791" r="2.500000" fill="grey" stroke="black" stroke-width="1.0" />
<circle cx="45.341234" cy="344.691111" r="2.500000" fill="grey" stroke="black" stroke-width="1.0" />
<circle cx="35.648394" cy="257.370234" r="2.500000" fill="grey" stroke="black" stroke-width="1.0" />
<circle cx="58.030692" cy="172.411894" r="2.500000" fill="grey" stroke="black" stroke-width="1.0" />
<circle cx="109.488711" cy="101.201228" r="2.500000" fill="grey" stroke="black" stroke-width="1.0" />
<circle cx="183.126641" cy="53.281065" r="2.500000" fill="grey" stroke="black" stroke-width="1.0" />
<circle cx="269.076378" cy="35.073114" r="2.500000" fill="grey" stroke="black" stroke-width="1.0" />

<circle cx="275" cy="275" r="185" fill="white" stroke="grey" stroke-width="0.5" />
<circle cx="275" cy="275" r="170" fill="none" stroke="black" stroke-width="0.5" />
<circle cx="275" cy="275" r="170" fill="aliceblue" stroke="black" stroke-width="0.5" />
<circle cx="275" cy="275" r="160" fill="white" stroke="none" stroke-width="0.5" />
<circle cx="275" cy="275" r="140" fill="none" stroke="black" stroke-width="0.5" />
<circle cx="275" cy="275" r="140" fill="aliceblue" stroke="black" stroke-width="0.5" />
<circle cx="275" cy="275" r="133" fill="white" stroke="none" stroke-width="0.5" />
<circle cx="275" cy="275" r="110" fill="none" stroke="black" stroke-width="0.5" />
<circle cx="275" cy="275" r="110" fill="white" stroke="black" stroke-width="0.5" />
<circle cx="275" cy="275" r="109" fill="aliceblue" stroke="none" stroke-width="0.5" />
<circle cx="275" cy="275" r="80" fill="none" stroke="black" stroke-width="0.5" />

<g style="fill:none;stroke-linejoin:round;stroke-miterlimit:10">
<path style="stroke:blue;stroke-width:1.0" d="M277.248928,122.272595L278.403521,120.928827L279.518464,121.615653L280.632294,122.071169L281.738455,122.562043L282.843174,122.954642L283.959629,123.064402L285.115105,122.576391L286.216466,122.934834L287.324527,123.160414L288.502029,122.579535L289.662055,122.285841L290.722666,123.010881L291.798761,123.514513L292.947510,123.356427L294.159119,122.733194L295.278057,122.890876L296.257654,124.037203L297.323643,124.500886L298.435819,124.639338L299.577368,124.601195L300.732929,124.500474L301.809315,124.867770L302.925698,125.006363L304.013401,125.298210L305.084943,125.664341L306.166831,125.970409L307.869660,123.407307L309.106556,123.111775L310.315710,122.972072L311.042475,124.867571L311.890338,126.172088L313.394517,124.846751L314.750082,124.181000L315.997876,123.967875L317.605785,122.494883L318.052999,125.160244L319.027850,125.912139L319.753717,127.462274L320.389742,129.237890L321.598909,129.146704L322.420166,130.261039L323.483657,130.616847L324.605449,130.803236L325.825958,130.717756L327.224881,130.158565L328.045714,131.208972L328.741505,132.561535L329.773492,133.000787L330.990475,132.969217L332.196099,132.984602L333.482774,132.819822L335.878114,130.039546L337.483561,129.232485L340.178861,125.984237L340.960506,127.171398L341.512426,128.836168L341.935820,130.732933L341.104038,135.230501L341.340036,137.362765L342.175800,138.213013L343.189551,138.694484L344.272309,139.041263L345.856613,138.427171L347.554295,137.638623L348.106670,139.026604L348.373689,140.906608L349.126620,141.867864L350.414574,141.870495L352.090258,141.218921L353.479994,141.096042L354.977495,140.815621L356.301052,140.850837L356.714095,142.382183L356.920041,144.214006L356.814343,146.495754L357.714771,147.168876L358.685849,147.732520L360.060644,147.693597L363.477526,144.667434L365.836387,143.290086L366.433730,144.490539L364.995846,148.534700L365.389325,149.941277L367.780864,148.603233L366.800644,151.849835L367.160164,153.248725L367.934397,154.086337L369.183590,154.310720L369.733316,155.431969L371.844580,154.599227L372.952558,155.041089L372.279164,157.640311L373.009286,158.515851L374.350198,158.671691L374.871119,159.790371L375.488962,160.787656L376.648357,161.170964L377.968586,161.387476L379.870900,160.986956L379.385845,163.178027L379.786306,164.393010L381.444104,164.287349L384.455476,162.820256L383.171656,165.756892L383.399379,167.127208L385.773485,166.376189L389.965549,163.914038L390.997377,164.556886L389.978337,167.129950L388.069564,170.475300L388.401690,171.706341L388.573246,173.069947L389.725446,173.550998L390.743506,174.159551L390.953657,175.468729L391.484326,176.493486L392.047072,177.486604L393.061670,178.105007L394.939809,178.032688L396.626595,178.141105L400.155450,176.828034L399.751873,178.619811L397.214627,182.008882L396.834687,183.706517L397.582721,184.547639L398.565769,185.219870L400.011106,185.568631L400.543993,186.577560L402.187070,186.814131L402.423758,188.032243L401.422681,190.073134L402.468291,190.726127L402.630140,191.963096L403.273801,192.882198L405.414698,192.859085L405.308934,194.259615L406.221171,195.025439L406.792530,196.002120L409.685946,195.609867L413.483445,194.739451L410.488366,197.802347L408.648680,200.148639L410.276774,200.539917L410.452508,201.737456L410.618349,202.933330L410.797816,204.115202L412.030807,204.750563L413.368210,205.346675L413.329428,206.638111L412.968943,208.075662L412.681788,209.462785L413.353289,210.388308L413.412200,211.597950L413.951616,212.584486L414.691536,213.484140L415.161679,214.505277L415.344347,215.648419L415.770059,216.686465L416.142315,217.746132L416.696326,218.732780L417.070383,219.791739L417.960972,220.653789L418.809267,221.539829L418.319673,222.919659L418.752132,223.957538L419.284464,224.961721L419.442361,226.095381L420.241482,227.013870L420.691959,228.051988L421.078577,229.111869L421.763536,230.081228L421.765477,231.259850L422.425568,232.242458L423.516188,233.109141L422.484626,234.570014L422.135275,235.828215L423.039741,236.752423L423.264506,237.856694L423.438371,238.972556L423.727173,240.059992L424.750691,240.981011L426.114095,241.839417L426.221090,242.981125L427.492384,243.883271L431.684663,244.227734L434.277585,244.934744L431.798977,246.596605L427.778777,248.485132L425.801068,249.970709L426.033444,251.073451L427.262056,252.026730L430.397215,252.722648L432.266200,253.635230L431.524615,254.908575L436.315397,255.499840L433.593534,257.012610L429.636445,258.613700L427.922324,259.933074L426.842175,261.167558L427.601992,262.230526L429.411378,263.223318L429.942870,264.329630L429.833250,265.482055L428.651253,266.689822L427.280911,267.888024L427.330221,269.009400L427.566174,270.124889L427.613729,271.247959L427.192069,272.379401L427.641494,273.495764L428.763469,274.616907L435.026814,275.779578L442.339501,277.047409L443.151975,278.295762L445.309255,279.592707L439.366008,280.643796L437.839952,281.792117L435.068304,282.857518L433.738345,283.964275L436.327724,285.302655L435.742641,286.454236L434.125721,287.517240L432.723601,288.576140L432.354376,289.712295L431.763105,290.822163L430.779320,291.882431L428.240824,292.749811L428.352543,293.908024L429.489038,295.204008L431.913040,296.697273L437.391469,298.674612L437.972147,299.986065L441.885807,301.845185L444.591587,303.562982L441.546366,304.312743L445.213958,306.252051L436.660144,305.913640L429.950373,305.814856L424.650227,305.907964L424.171880,306.956129L423.872536,308.040278L423.776922,309.170353L424.399732,310.473428L423.379059,311.387221L424.179358,312.750062L424.084307,313.896201L423.047244,314.792156L422.319286,315.761888L421.724955,316.762872L421.787232,317.951420L422.735390,319.412335L425.026012,321.308099L423.876077,322.156512L421.143117,322.477639L419.567520,323.145402L419.262498,324.226746L418.799521,325.253834L418.785506,326.440004L420.125995,328.128094L418.924996,328.893429L417.491309,329.556171L417.369393,330.714836L417.765727,332.085623L417.345237,333.136750L416.552668,334.032837L415.289658,334.722466L415.137930,335.880552L415.168895,337.124801L417.627667,339.475150L417.778743,340.813796L416.236756,341.368209L416.012066,342.534575L414.054008,342.859972L413.932453,344.071816L415.282625,346.036017L412.998247,346.160673L412.063338,346.961008L409.400262,346.830117L409.059233,347.921904L408.174852,348.716667L407.578523,349.667085L407.140823,350.707485L406.810302,351.812685L406.587234,352.986206L409.045283,355.782490L409.430192,357.369780L409.525108,358.796513L408.156221,359.310957L403.749058,357.854726L402.452064,358.353464L402.233254,359.554357L402.620621,361.173131L401.398721,361.709853L400.401532,362.390537L400.619939,363.923979L399.256935,364.339703L398.138391,364.918182L397.733341,366.015461L396.917141,366.809177L396.285099,367.740472L396.635550,369.435745L397.926295,371.896890L396.296537,372.068728L394.564588,372.135441L398.941856,377.215606L401.084039,380.551592L396.772321,378.476475L394.909791,378.423791L395.393302,380.396638L394.439072,381.124779L391.271611,379.852499L388.489769,378.869182L386.741112,378.790956L385.871487,379.514353L385.172953,380.398644L385.323266,382.109239L386.530417,384.887971L385.497392,385.485290L384.248045,385.856638L382.794396,386.004655L382.707596,387.561812L381.456320,387.906797L381.709579,389.858065L383.498261,393.521537L379.993765,391.402626L377.744662,390.609385L376.464635,390.876213L374.560873,390.405556L373.680549,391.102647L373.068483,392.119213L373.291005,394.156480L378.165126,401.958149L380.024874,406.209032L392.072536,423.488270L393.116758,427.102881L388.505997,423.408364L381.671620,416.621304L370.899710,404.290099L365.341298,398.689380L363.856170,398.555868L363.179356,399.539108L362.209840,400.113026L361.390086,400.903028L360.335460,401.350207L359.296016,401.814382L358.298326,402.337307L357.386787,402.991117L356.441022,403.592435L355.712018,404.541709L354.937040,405.427811L353.866122,405.832969L352.893064,406.397261L352.410274,407.802324L351.243575,408.042737L350.526837,409.070748L349.059876,408.760309L347.872360,408.933202L346.842563,409.388141L345.961430,410.123492L344.840334,410.401374L344.487520,412.187356L343.821163,413.390261L343.569746,415.469392L342.463471,415.824008L341.294038,416.038782L339.677215,415.272591L338.494778,415.417978L337.444762,415.849163L336.473363,416.460098L336.239867,418.810366L334.467021,417.549830L332.862890,416.630384L331.656696,416.648018L330.683837,417.244272L329.854487,418.223483L328.652083,418.232701L327.410974,418.118536L326.504932,418.917293L325.827325,420.389414L324.341058,419.545701L323.132178,419.475028L322.457315,421.026128L322.146272,423.787137L321.394915,425.248881L319.863343,424.176384L318.707421,424.310204L317.100473,422.849543L315.999403,423.114582L315.080046,424.053217L314.007947,424.445606L313.350257,426.481423L312.008034,425.839179L310.675703,425.178452L309.330021,424.397111L308.249123,424.736010L306.976085,424.185259L305.932208,424.684848L304.902579,425.277015L303.653280,424.750883L302.483288,424.595182L301.409193,424.953045L300.341713,425.364872L299.322467,426.097535L298.238856,426.465192L297.175645,426.992976L296.034040,426.993896L294.812817,426.368881L294.061418,429.457350L295.003023,447.528330L296.566572,473.798043L296.295221,485.758128L293.300877,470.504803L289.836724,447.148029L287.230937,430.268568L285.915779,427.949938L284.756908,427.519324L283.730786,429.303524L282.650637,430.506055L281.394395,427.902440L280.249197,427.387329L279.144250,428.057251L278.010028,427.719915L276.879118,427.221846L275.759550,427.487251L274.631456,429.725823L273.492706,429.671044L272.376002,428.365266L271.269117,427.432602L270.122975,428.151550L268.896084,430.645794L267.630577,433.165073L266.422426,433.918025L265.411801,431.255545L264.199199,432.087856L262.904410,433.822184L261.865418,432.172382L260.692478,432.247869L259.717602,430.283554L258.579775,430.118724L257.588851,428.663153L256.644544,426.985526L255.404809,427.791157L254.418935,426.621836L253.385830,425.888793L252.268964,425.768516L251.085323,426.065564L249.868418,426.520109L248.598182,427.226346L247.547234,426.645791L246.157176,427.893341L244.700919,429.364727L243.950115,427.249925L243.271063,424.932780L242.334823,423.934421L241.268452,423.560703L240.100685,423.627067L239.135640,422.837083L237.984423,422.823331L236.930171,422.418419L235.857340,422.090675L234.641108,422.288547L233.675182,421.570836L232.454676,421.753931L231.393341,421.376133L230.365393,420.892178L229.297396,420.543727L227.857873,421.349253L226.435661,422.045635L225.771319,420.451940L224.592703,420.399959L223.651338,419.664738L222.576023,419.314562L221.565455,418.788548L220.675931,417.949862L219.742456,417.243347L218.694992,416.836773L217.442104,416.936432L216.095963,417.239600L214.799285,417.395702L214.312326,415.651070L213.655630,414.343486L212.654764,413.835842L211.614711,413.415646L210.484761,413.186228L209.248408,413.171149L208.343101,412.455935L207.327283,411.972665L206.357924,411.396529L205.199948,411.190963L203.609382,411.803366L202.944779,410.632650L201.585031,410.769855L200.221160,410.891111L199.811741,409.284714L198.714167,408.922143L196.959010,409.687765L195.631355,409.683209L192.979983,411.868366L192.861717,409.804598L194.214058,405.414361L193.527169,404.385406L192.281643,404.243082L190.501832,404.907268L188.841030,405.350621L186.409172,406.908087L185.769218,405.770263L186.101094,403.245450L185.935770,401.484644L185.471924,400.175256L185.280734,398.510445L183.639543,398.841776L179.433369,402.566481L173.895235,407.908284L172.131283,408.180593L170.882845,407.764672L174.989871,400.611857L177.957146,395.060140L177.948124,393.279237L177.278533,392.322950L176.304737,391.733450L174.640153,391.944858L173.697028,391.300099L173.237162,390.105755L172.677892,389.035206L171.590102,388.554283L171.108461,387.409339L170.006598,386.936694L169.071682,386.279932L168.616733,385.122750L167.732454,384.414349L166.889370,383.662179L166.547157,382.412669L165.662803,381.705339L165.128901,380.658158L164.179251,380.011850L163.335707,379.261539L161.647339,379.286391L161.200738,378.160533L161.246501,376.603299L160.570175,375.702548L158.921271,375.646780L158.448077,374.563253L158.081778,373.396386L157.361581,372.531941L156.527206,371.760698L155.241768,371.349355L154.168076,370.756237L153.620585,369.743550L152.784697,368.956134L152.688264,367.605481L152.675831,366.205760L152.367610,365.038313L151.464768,364.308784L151.013345,363.252438L150.168242,362.476368L148.725655,362.108048L147.329963,361.690471L146.098588,361.146782L146.903260,359.251233L147.194036,357.718351L146.114897,357.076661L144.954748,356.475897L144.264617,355.573967L144.408302,354.164610L144.297897,352.921366L143.577379,352.045043L142.376411,351.442613L140.654358,351.122922L139.417278,350.510536L138.526764,349.695323L138.026796,348.663560L137.598842,347.594555L136.414802,346.919934L136.247849,345.714723L136.898221,344.107079L137.944146,342.326472L137.437351,341.322654L136.081278,340.720282L136.326140,339.359189L135.955423,338.291164L135.778284,337.138434L135.603378,335.989678L135.208645,334.939991L134.371542,334.076953L134.252085,332.911668L133.336547,332.072388L133.412124,330.833793L132.804850,329.866962L130.994371,329.350808L131.651615,327.900256L131.221636,326.859368L131.345214,325.622611L131.079391,324.528077L130.589482,323.510446L130.152626,322.473252L129.391033,321.538424L128.715194,320.570083L126.868711,319.951485L127.857209,318.470964L127.771950,317.320042L128.101602,316.056765L127.999958,314.920648L126.542199,314.145150L126.481162,312.993925L126.396626,311.851958L125.671596,310.866749L122.790634,310.375428L119.398735,309.958223L116.478078,309.390295L117.267065,308.005009L119.831044,306.277796L119.338416,305.186146L123.632969,303.198549L125.052043,301.793356L124.829417,300.693614L124.323827,299.639637L124.468400,298.479350L123.724220,297.455779L122.437041,296.500020L120.497709,295.614319L118.495798,294.709706L118.437892,293.547022L118.396923,292.383632L119.032337,291.151495L120.147810,289.884443L121.449967,288.619040L122.447346,287.399224L122.839313,286.240268L123.183934,285.091488L122.919019,283.984916L122.264203,282.895563L122.106801,281.775357L122.215560,280.643732L122.619455,279.505598L121.925967,278.398267L122.712957,277.259126L122.446797,276.139689L120.653721,275.016620L117.859023,273.859881L120.226810,272.737333L121.970061,271.635685L122.594001,270.526501L121.942150,269.379176L120.099798,268.169130L119.562199,266.998324L117.525798,265.730486L121.719692,264.844338L122.669548,263.780177L121.673837,262.571145L119.408741,261.233687L119.814043,260.117205L119.113899,258.890883L121.529135,257.997516L123.111868,257.039847L123.056347,255.897878L120.186675,254.378116L120.403862,253.247408L122.784604,252.438245L123.320669,251.375092L124.250572,250.381717L123.864465,249.174788L121.122479,247.538690L119.656821,246.095340L117.459919,244.484776L115.763289,242.937943L114.708069,241.495563L115.880855,240.516022L118.027725,239.769270L123.664918,239.862118L125.911248,239.224771L125.796248,238.033263L125.392346,236.761863L126.281679,235.820410L126.956840,234.830306L125.232747,233.176188L124.458105,231.762506L121.333692,229.637749L121.652409,228.501656L124.863519,228.265527L124.921929,227.068816L125.006621,225.875933L126.005259,224.985326L124.249427,223.157804L122.827244,221.412575L118.651965,218.644931L108.675854,213.661630L116.156730,215.088228L124.637296,217.018733L131.475566,218.438259L133.804520,218.151487L133.709108,216.900498L134.349809,215.949551L134.787061,214.914987L135.119445,213.834477L135.277910,212.674318L134.964544,211.294205L134.341772,209.756671L134.212215,208.432597L136.110754,208.074619L136.938681,207.216515L138.118047,206.540187L138.923550,205.685856L139.120585,204.521395L138.295988,202.811431L139.284482,202.050495L137.398031,199.725400L137.784896,198.619050L138.475388,197.681268L139.084482,196.698950L142.025318,197.083554L144.027148,196.955448L144.304611,195.811019L143.738580,194.140831L145.746669,194.059014L146.647216,193.301179L146.487794,191.863822L145.628675,189.950362L147.327587,189.714349L145.981929,187.434779L145.672325,185.826770L147.542619,185.724639L148.573318,185.051792L150.009734,184.680293L150.548749,183.667499L149.996882,181.838678L152.575365,182.350514L154.222526,182.190611L154.438075,180.936325L155.173424,180.082482L156.204745,179.467527L157.158414,178.797132L157.349501,177.500791L158.380308,176.897748L158.836772,175.812051L159.038347,174.498473L159.858857,173.715459L159.920757,172.257110L161.574854,172.223101L162.565287,171.602839L163.285344,170.736462L164.294033,170.142157L164.447757,168.732635L164.590595,167.294679L165.705325,166.800191L164.389722,163.873298L165.936220,163.801384L166.485010,162.718996L166.085930,160.632805L168.465367,161.469164L169.528584,160.930550L170.170976,159.937164L167.007330,154.697239L161.412569,146.574985L158.227229,140.998197L159.835601,140.862522L167.339242,147.718071L170.869341,150.037006L174.719670,152.839835L175.778135,152.298079L176.128579,150.873220L177.252799,150.413223L180.513385,152.725870L182.699978,153.720293L183.669047,153.142187L184.460255,152.326034L184.797494,150.880536L185.635083,150.109721L186.944989,150.005793L188.061586,149.640425L188.821129,148.760804L189.625472,147.939982L190.709211,147.535451L191.720279,147.026277L192.885623,146.761443L193.566728,145.739164L194.558196,145.203639L195.573906,144.709779L196.120675,143.436836L196.903497,142.540758L197.887030,141.979916L199.090261,141.804808L199.644472,140.484516L200.706188,140.059115L201.828361,139.749774L203.423085,140.337692L203.969615,138.958378L204.761914,138.027048L205.504013,136.980723L206.233906,135.889739L206.997121,134.845354L207.094578,132.381939L209.275471,134.302633L211.578179,136.583334L212.489670,135.876698L213.055192,134.374755L214.345300,134.508540L215.712715,134.849043L216.371970,133.513100L217.020324,132.111841L217.997900,131.497327L219.321293,131.763899L220.724164,132.269637L221.666921,131.579093L222.858023,131.558009L223.824173,130.920632L225.046482,131.009177L226.165010,130.813535L227.054959,129.934433L227.916582,128.940801L229.222550,129.327687L230.327178,129.095243L231.309624,128.458202L232.159251,127.345958L232.698817,125.089816L233.900757,125.136206L235.001157,124.822105L236.088567,124.456551L237.633961,125.913355L238.308482,123.895321L239.494520,123.937633L241.167540,126.143341L242.352935,126.301206L243.400243,125.836260L244.353157,124.891467L245.576377,125.266100L246.729622,125.318118L247.862320,125.278664L248.950945,124.999475L249.938580,124.104231L251.150291,124.554637L252.235106,124.227190L253.232128,123.271024L254.358396,123.177502L255.445960,122.789527L256.422606,121.454613L257.505694,120.899606L258.712798,121.453827L259.956944,122.485377L261.073450,122.303658L262.223349,122.506482L263.302316,121.838200L264.478630,122.456291L265.639158,122.985165L266.733742,122.460196L267.857565,122.413459L268.980315,122.341678L270.121886,122.844343L271.229411,122.289660L272.353160,122.223300L273.482800,122.679086L274.601920,121.732022L275.725889,122.684735L276.854045,122.142054Z" />
<line x1="50" y1="575" x2="100" y2="575" fill="none" stroke="blue" stroke-width="1.0" stroke-linejoin="round" stroke-miterlimit="10" />
<text x="125" y="578" style="text-anchor:start;fill:black">n1_4mer:GRV/n1_4mer:RV</text>
<path style="stroke:green;stroke-width:1.0" d="M276.329796,184.691942L277.122382,178.923674L277.886606,177.010910L278.418326,182.185145L278.941787,185.828514L279.549791,186.799158L280.211071,186.631694L281.226221,181.177632L281.780242,183.078126L282.045956,188.193015L283.437464,179.751931L284.497728,176.075424L284.751773,180.730781L284.888036,185.833070L285.577813,185.625077L286.932399,180.167445L287.743374,179.409801L287.386405,187.037029L288.252917,185.652921L288.841914,186.192379L289.821759,184.299690L289.991352,187.322795L290.980277,185.510406L292.104193,183.130495L291.541801,189.648503L292.951597,185.891850L293.475154,186.657857L296.438122,176.128802L296.748958,178.144411L297.854836,176.613946L298.452604,177.309803L297.953339,182.398584L299.940731,177.461805L300.352774,178.806992L302.093858,175.188902L303.168767,174.171414L302.903431,177.886131L302.925374,180.438619L302.184946,185.380516L301.563108,189.696704L301.602538,191.734792L303.638732,187.586971L304.446925,187.307770L305.570018,186.136825L304.742346,190.568881L306.403090,187.906099L308.069348,185.358911L307.861949,187.901480L307.518756,190.695757L308.043965,191.177525L308.756640,191.183748L311.967530,185.126527L314.567306,180.783964L317.360002,176.178612L319.347704,173.609658L319.420681,175.445774L317.809720,180.923853L319.198551,179.738669L316.031763,188.242986L313.887747,194.318675L314.827953,193.900173L316.093884,192.856579L314.974383,196.543445L317.400650,193.274718L320.165715,189.491280L320.105959,191.106008L319.746226,193.224457L319.152994,195.700790L322.439909,191.254229L324.526599,189.052410L326.826745,186.572289L326.708113,188.245331L328.107418,187.371175L327.896293,189.152010L326.558894,192.685819L324.399317,197.409424L322.363102,201.802934L324.409833,199.858682L327.574129,196.314688L331.021981,192.476347L333.653939,189.953627L333.172022,191.967193L331.667630,195.368670L332.801324,195.028612L335.658776,192.363636L331.032464,199.832692L329.379550,203.160071L330.264960,203.096712L330.212204,204.249659L331.159639,204.117889L337.727611,197.014708L338.439685,197.307741L331.927182,206.321815L333.447728,205.534808L334.616878,205.195100L334.755617,206.066933L337.322581,204.166269L338.021083,204.427004L337.574560,205.957062L341.772527,202.406563L338.633109,206.833862L338.799379,207.656685L342.328963,204.971058L346.318691,201.906239L341.429828,207.912177L339.455260,210.857853L342.871102,208.446007L349.480299,203.033087L350.679435,202.944298L351.401052,203.322278L345.968278,209.394918L345.661263,210.637111L342.128353,214.753447L342.445496,215.359541L345.340262,213.716703L345.227962,214.718345L348.156043,213.134623L345.054183,216.636974L346.560644,216.269100L349.182513,215.025927L350.381660,214.968851L355.565958,211.804043L355.322472,212.944860L349.143964,218.585066L344.791726,222.703484L347.865817,221.233163L348.951883,221.268212L349.530506,221.681816L352.918888,220.120607L354.768901,219.691785L355.594604,219.993524L351.975754,223.290057L353.413620,223.157935L349.265465,226.682461L348.924375,227.675394L354.447598,224.960407L351.919179,227.340305L355.039576,226.218771L359.240498,224.505326L364.517874,222.234020L362.113380,224.511888L358.500385,227.423710L358.661801,228.144321L361.226354,227.538626L359.363600,229.370044L360.341877,229.649906L359.403348,230.942485L362.535218,230.124691L362.080852,231.164274L364.878849,230.582207L358.984029,234.262024L358.582754,235.214194L356.670856,236.859294L359.008303,236.518575L360.664444,236.520488L360.836690,237.200159L362.294093,237.323282L360.026878,239.042159L360.577899,239.549636L359.600162,240.682251L356.938062,242.462621L358.422260,242.582280L365.653219,240.538434L363.164486,242.225419L361.699426,243.494655L363.029652,243.743071L362.978335,244.488853L363.387118,245.074303L361.180804,246.526845L365.084949,245.970880L366.624268,246.217775L363.775516,247.829169L360.478679,249.525002L361.713897,249.850542L363.886710,249.928385L362.189431,251.098746L365.223956,250.979700L369.185222,250.666287L367.402284,251.851329L365.409147,253.056816L365.776486,253.674165L368.778318,253.696302L367.931131,254.607127L367.985760,255.311612L366.870753,256.253377L375.048519,255.350855L380.388314,255.106889L379.182257,256.127876L375.006510,257.643798L366.724806,259.775924L364.859308,260.764589L370.433823,260.600963L372.187397,261.067461L373.807980,261.576837L374.493448,262.229068L376.155481,262.772103L373.051433,263.879185L371.324372,264.792833L368.991226,265.739359L367.538733,266.569953L367.418979,267.266538L366.210695,268.043522L364.294917,268.850574L364.642760,269.489460L363.046836,270.238015L365.836752,270.757651L365.465209,271.442329L366.055650,272.090401L369.760609,272.670290L368.339264,273.392789L367.146748,274.091922L367.887678,274.768576L379.338524,275.508290L383.612900,276.328885L383.752923,277.131547L382.434416,277.897170L380.438760,278.620426L379.184666,279.345582L376.091116,279.962415L377.217907,280.772452L379.066657,281.645868L378.923467,282.405403L380.118457,283.268889L379.696166,284.011776L377.825226,284.613937L376.187650,285.212910L374.425400,285.775130L367.564468,285.721698L371.095249,286.848328L376.139273,288.226949L373.395717,288.605745L370.094513,288.863571L370.684536,289.669869L370.295710,290.329230L376.250155,292.052770L373.814671,292.391728L377.661067,293.849035L372.774204,293.696981L363.816243,292.662815L366.433529,293.884196L362.298272,293.701345L365.074959,294.990939L361.153087,294.787218L363.931782,296.115936L362.356001,296.422444L363.726399,297.452349L364.209143,298.274729L364.068144,298.939746L363.863286,299.587652L364.440688,300.457837L367.975291,302.205505L370.714972,303.773914L373.958740,305.545310L370.002536,305.092063L366.413765,304.697668L361.486451,303.802631L359.032426,303.674416L359.610670,304.569018L359.451402,305.212923L369.511839,309.599135L369.251349,310.292885L360.104685,307.584343L357.911720,307.446671L360.901846,309.348302L363.946866,311.327747L362.191671,311.362238L357.620033,310.172030L360.120923,311.979344L363.248249,314.112850L367.338578,316.741857L369.316571,318.475180L366.720048,318.099937L363.809708,317.533423L363.259191,318.071511L362.745099,318.623453L364.117731,320.127247L360.496925,319.087652L357.891431,318.519668L355.005616,317.758940L357.724759,319.998370L354.982180,319.272771L352.805135,318.819184L350.491911,318.251605L352.409585,320.110572L356.704690,323.422925L364.735233,329.079005L365.648916,330.543559L364.240403,330.588393L363.702480,331.164037L354.213252,325.976623L348.527983,323.087194L349.297342,324.375174L355.127675,329.104521L353.153712,328.613651L350.871077,327.873470L357.340977,333.287621L352.758160,330.907470L349.350237,329.292070L346.635892,328.123085L347.737200,329.774434L345.516831,328.920591L349.196882,332.605180L354.074136,337.330341L354.466627,338.593937L348.299089,334.548897L345.943946,333.507906L342.798577,331.757761L346.249294,335.544349L351.226277,340.746178L352.755668,343.070116L354.082276,345.266698L352.251671,344.664733L345.179781,339.230605L342.901457,338.070404L342.049838,338.205344L341.580194,338.694963L342.100841,340.146005L342.555307,341.560457L344.865197,344.857546L343.872328,344.886420L341.846869,343.837657L338.847784,341.725306L337.497646,341.284548L337.654951,342.439367L334.770218,340.291904L334.431123,340.889044L333.042232,340.309735L340.479675,349.780112L341.204731,351.740928L335.772029,346.501359L333.794451,345.215829L333.660424,346.113014L333.704769,347.243878L334.249046,349.020654L334.021948,349.860144L332.011500,348.415607L332.871955,350.667211L331.937408,350.592271L328.252289,346.793686L326.678932,345.755404L327.738415,348.333575L326.528026,347.775020L324.099812,345.439598L325.097356,348.010794L324.501421,348.293269L323.496201,347.957372L322.418716,347.488510L323.408940,350.205194L323.010126,350.806257L322.974927,351.999117L321.996868,351.681582L321.764023,352.578000L322.202643,354.625807L325.515049,361.661830L323.953888,360.423058L322.403760,359.148334L317.186366,351.193232L318.224146,354.442306L316.698475,353.000844L316.738669,354.478031L318.272136,358.892879L318.957270,361.783665L318.799358,363.074719L318.949469,365.033223L317.380330,363.465177L316.342205,362.954428L317.038321,366.173131L314.589332,362.551355L313.415227,361.648622L314.276852,365.382355L314.278070,367.237196L311.740405,363.071311L309.235499,358.797869L310.213844,363.038512L309.796109,363.886605L310.399953,367.428255L308.302427,363.906083L307.239463,363.036233L306.837492,363.961686L307.174313,367.033261L304.994294,362.868934L302.235703,356.751524L303.740165,363.433468L305.232714,370.410280L305.826609,374.831274L303.780485,370.698815L303.674091,372.954402L302.019487,369.887741L300.873577,368.470969L301.069813,371.950726L299.961695,370.632198L300.420943,375.411339L299.227091,373.745978L297.626799,370.248512L295.884719,365.885954L295.644041,367.969562L294.179104,364.480610L293.667472,365.334248L292.894508,364.929809L291.979851,363.741943L291.334584,363.911307L290.525801,363.156467L290.032026,364.192418L288.691803,360.057065L288.348352,362.001298L288.397062,366.824134L287.493025,365.275737L287.103393,367.469288L286.254644,366.197959L286.132235,371.016779L285.726699,373.877416L285.180305,375.754155L284.571406,377.249511L283.494695,373.562531L281.945177,363.167215L281.520838,366.368815L280.748653,364.862550L280.170665,366.383746L279.545226,367.385785L278.817212,366.276977L278.157788,366.672459L277.641063,372.540901L276.837709,368.239928L276.087026,363.056769L275.447540,364.848205L274.777835,368.271353L274.101055,367.245301L273.527885,361.040964L272.891675,361.139799L272.066226,367.128288L271.128009,373.733191L270.075635,380.688407L269.287167,380.842526L268.685808,377.900202L267.891075,378.392865L267.071990,379.099420L266.508175,376.615752L265.540564,378.964628L265.359928,372.952208L264.729044,372.027754L264.488524,367.769672L264.198586,364.437091L263.399139,365.456328L263.040314,363.107661L261.960556,366.028520L261.464290,364.778526L260.522803,366.450368L259.567644,368.042779L257.961088,373.242147L257.278727,372.890193L255.939144,376.039969L255.483444,374.430999L255.446597,370.878105L254.434717,372.179744L255.235555,365.114501L255.317574,361.685468L254.142011,363.828730L254.269754,360.452499L252.934376,363.120037L251.819251,364.763192L252.012858,361.381311L250.582515,364.110867L250.580281,361.611842L248.875924,365.111213L248.968270,362.381698L249.067568,359.762456L248.561148,359.196714L245.770471,365.740914L245.329938,364.836558L247.018149,357.675677L245.027845,361.454747L243.389295,364.056933L241.552044,367.076707L241.484078,365.188956L242.370740,360.861540L242.672558,358.216938L240.571286,361.728657L239.319950,362.986173L238.332746,363.542923L237.866899,362.832745L238.511114,359.567434L239.098732,356.549585L238.114010,357.140959L236.765258,358.493924L234.482591,361.784889L233.732369,361.720272L233.774947,360.011878L232.804243,360.406136L233.258657,357.942923L231.689002,359.506622L227.683034,365.671862L226.111970,367.024047L225.251637,367.002055L222.814356,369.833848L225.045104,364.218436L224.367708,363.886557L224.890791,361.481442L223.493516,362.403011L222.261496,363.005747L222.365755,361.382842L228.695016,349.751061L227.925178,349.758602L223.452057,355.540949L219.913316,359.690129L219.993289,358.220110L217.667057,360.366387L217.428533,359.372631L218.963585,355.838061L218.342538,355.462145L219.882768,352.063129L219.939412,350.798187L220.686869,348.623041L221.271954,346.718524L219.512021,347.942279L219.074004,347.405465L216.696603,349.345398L217.142600,347.668395L219.501012,343.662617L216.089573,346.795422L216.427359,345.321448L215.963787,344.826055L212.110345,348.282513L210.018185,349.601874L208.591395,350.115954L210.117095,347.310233L210.308811,346.037316L210.331364,344.970651L210.932825,343.303985L211.955551,341.229523L215.305202,336.793132L213.451897,337.779898L212.335202,337.984495L213.354284,336.054470L211.045200,337.415343L210.518856,337.008653L206.490597,339.918341L206.458670,338.997402L202.933578,341.302343L202.371893,340.838338L205.715171,336.884401L208.154207,333.826811L204.344552,336.262243L204.295530,335.398549L201.592788,336.778261L201.247072,336.147253L200.940848,335.486589L195.913199,338.627879L197.330773,336.550894L198.049251,335.064444L196.015628,335.721252L198.737668,332.740248L203.594966,328.240095L204.250323,326.945343L203.055351,327.011794L202.439235,326.648013L203.465036,325.128421L196.541545,329.123131L194.721104,329.510952L192.159677,330.363453L193.961154,328.300519L197.777872,324.979570L197.778532,324.176205L191.779424,327.139321L193.484579,325.239045L197.765124,321.819736L198.752284,320.457006L198.361077,319.928712L194.914361,321.160382L190.405747,322.932792L186.276246,324.413215L185.724221,323.862938L185.052903,323.373136L183.345315,323.424855L186.682798,320.832942L185.506796,320.610011L188.255153,318.407718L196.025466,313.794963L190.549052,315.716074L183.162106,318.447076L187.331724,315.687258L194.154052,311.799955L193.262120,311.481836L193.742232,310.552405L194.577922,309.483525L190.610714,310.451301L192.439911,308.969899L186.592799,310.616879L190.258883,308.416830L189.387968,308.033983L184.766767,309.055954L188.318371,306.988364L186.290314,306.996666L190.059798,304.932138L192.599409,303.356904L186.345475,304.780868L187.302970,303.742414L185.790429,303.512481L184.419216,303.217379L182.833152,302.968680L186.686714,301.090736L189.975372,299.439948L185.981842,299.879765L188.648317,298.450437L179.837326,300.092364L178.750620,299.622410L186.464228,296.955871L185.393825,296.522243L187.737878,295.280848L186.163202,294.958556L183.732587,294.799869L186.041772,293.614166L184.858748,293.169998L183.077552,292.825750L187.221067,291.352560L185.779533,290.942303L183.649973,290.629641L184.884324,289.736355L184.375716,289.135233L186.356265,288.158512L179.618636,288.441672L176.109824,288.194326L173.846024,287.739052L175.430635,286.795416L175.707548,286.021900L176.432831,285.207290L179.729769,284.157406L186.628178,282.838093L185.608429,282.265597L185.567514,281.606471L183.031365,281.113321L179.125128,280.664270L176.553236,280.089132L177.190012,279.334382L179.908936,278.512586L183.336996,277.710298L180.352907,277.101180L187.699848,276.295068L180.753214,275.704096L174.551065,275.010817L169.607124,274.235334L174.375084,273.528940L182.134473,272.958381L185.409950,272.370307L178.673185,271.462540L176.721007,270.666041L175.128071,269.858761L171.382818,268.900709L178.961412,268.636916L187.540110,268.558186L182.557849,267.506497L176.301475,266.267409L170.690668,264.996425L171.662096,264.321162L179.997529,264.475019L184.211238,264.264599L182.052610,263.314797L175.669481,261.768694L174.764351,260.896251L181.587801,261.154205L187.710589,261.404184L187.186469,260.659525L183.900953,259.433494L176.080005,257.346527L173.575767,256.128023L172.777511,255.199692L170.416501,253.942280L170.082531,253.070008L172.506476,252.787811L171.731985,251.822611L174.074935,251.566616L179.885728,252.176448L188.552141,253.581670L187.225379,252.565733L182.944318,250.748086L178.882105,248.919589L179.645721,248.371486L182.082931,248.313069L182.145181,247.589283L187.005416,248.318117L184.870223,246.944410L181.725374,245.210416L181.292259,244.309943L181.948845,243.764514L182.213456,243.091278L182.819185,242.538654L184.418136,242.350103L185.626172,242.039994L186.042816,241.447540L185.718902,240.572372L190.915015,241.862833L190.742402,241.075974L190.152937,240.110476L189.623255,239.155505L188.335393,237.861886L190.188331,237.914430L192.891490,238.373945L192.582398,237.506076L188.699697,234.970211L185.712579,232.783044L187.218679,232.701561L190.817847,233.669381L192.199375,233.588294L195.419865,234.463750L192.543895,232.231261L187.357904,228.719299L189.265069,228.915949L181.076050,223.619283L183.990299,224.339342L185.018666,224.040378L181.986693,221.414952L194.475931,227.816963L199.121652,229.785350L195.466916,226.810512L188.614527,221.785144L198.262695,226.945586L197.891101,225.918819L192.530474,221.649416L189.206229,218.598559L192.760386,220.063629L192.065891,218.712199L187.180266,214.447072L193.490498,217.908051L195.000272,218.082962L198.575139,219.774331L202.938996,222.115745L202.456479,220.935346L199.691727,218.007608L204.208087,220.601162L200.873725,217.165905L204.300901,218.997540L203.453131,217.463617L205.364664,218.151486L201.030002,213.699654L203.478708,214.835206L202.023314,212.687615L199.259066,209.356925L202.793296,211.482975L199.220843,207.344276L204.252198,210.893936L209.449344,214.718335L208.187302,212.643560L209.030303,212.515201L208.466577,211.045336L207.908823,209.551982L206.713234,207.397300L205.294339,204.968893L204.832393,203.458919L205.021285,202.592673L204.343466,200.805824L206.673579,202.186535L207.485835,201.982078L206.072600,199.343642L212.514652,205.391943L213.384252,205.335573L210.843029,201.377103L213.352976,203.196766L211.125041,199.483831L208.181361,194.813653L210.212571,196.076816L209.789935,194.358497L209.998354,193.394568L211.106030,193.561926L215.593608,198.122815L221.832088,205.138816L221.559902,203.697849L223.763762,205.579079L220.491939,199.996415L218.169055,195.576969L218.129680,194.272504L219.248008,194.609230L220.785139,195.583312L220.937726,194.540949L223.969889,197.832255L224.196862,196.932174L225.023865,196.951944L227.007839,198.820980L226.995922,197.543325L228.585447,198.861768L226.502369,194.110594L226.059484,191.992139L226.283757,190.964348L228.203304,192.888074L225.955113,187.451058L227.290429,188.344442L228.579199,189.195939L232.150633,194.384697L230.333284,189.451647L231.453918,190.079755L232.081882,189.764465L231.027061,186.045013L233.897437,190.287187L232.954731,186.694609L234.091736,187.427138L238.158695,194.594700L238.527680,193.827023L236.977566,188.682611L239.360897,192.450920L241.263303,195.248828L240.017562,190.576957L237.483188,182.541599L237.506953,180.611330L239.918917,184.752259L242.597221,189.789697L243.226675,189.556611L244.842557,192.037216L243.766709,187.066437L245.928385,191.201183L245.741302,188.613000L244.684118,183.274337L244.525930,180.465268L246.270166,183.576356L248.197482,187.460984L249.567367,189.696459L248.672037,184.258586L247.926483,179.054788L248.066151,176.788730L249.360595,178.735420L249.902698,177.901689L251.002939,179.254199L250.877779,175.658771L251.620745,175.530126L253.936194,182.323091L255.299148,185.267799L256.140498,185.975461L255.892529,181.411424L257.367702,185.270984L259.016839,190.374682L259.095391,187.252661L260.074753,189.054662L260.245155,186.160516L261.442948,189.481321L261.301508,184.274336L262.460708,187.597154L262.847531,185.616526L263.746077,187.398413L264.351825,186.990983L264.605650,183.440295L265.518944,185.618168L266.416587,187.976719L266.579586,182.675169L267.444412,184.821573L267.953718,182.740605L268.718006,183.920739L269.381478,183.758349L270.146392,185.434876L270.763435,184.492666L271.324396,181.787243L272.002759,181.511596L272.645259,179.632094L273.392673,182.224415L274.087545,183.393149L274.752078,179.545632L275.437688,183.158778L276.163345,179.087231Z" />
<line x1="50" y1="625" x2="100" y2="625" fill="none" stroke="green" stroke-width="1.0" stroke-linejoin="round" stroke-miterlimit="10" />
<text x="125" y="628" style="text-anchor:start;fill:black">n0_4mer:PS</text>
<path style="stroke:red;stroke-width:1.0" d="M276.781699,154.002626L277.724428,151.670143L278.642011,151.367850L279.526322,152.100662L280.461891,151.440595L281.281087,153.236775L282.112498,154.387681L283.127920,152.521108L284.109813,151.495392L284.765481,154.688152L285.875016,152.235119L287.085110,149.126277L288.126275,148.109882L288.587655,152.471174L289.416889,153.187635L290.765127,149.706893L291.579952,150.630981L291.482913,157.945377L292.845056,154.694135L293.415202,156.850856L294.798130,153.847275L295.488268,155.173974L295.937872,157.747864L297.253666,155.471804L297.260837,160.139725L298.717823,157.269457L299.461147,158.034795L301.970317,150.614685L302.417007,152.902638L304.002086,150.151115L304.222637,153.275133L305.179979,153.243912L306.296554,152.605457L306.976893,153.673886L309.017949,149.681236L310.288887,148.685328L310.169769,152.596690L310.786726,153.818374L310.577855,157.711961L309.599823,163.888040L311.151150,161.847900L312.333909,161.046978L313.546780,160.208624L314.606639,159.868510L314.729626,162.217481L316.414035,160.141562L317.559333,159.634406L317.414776,162.582313L318.111737,163.233660L319.004770,163.373300L319.840420,163.663210L322.663908,159.122069L325.432637,154.911884L327.680281,152.102497L328.996075,151.550983L328.745891,154.546407L327.947906,158.644767L329.787199,156.916909L329.154511,160.496423L328.715400,163.555396L329.683168,163.651183L329.197172,166.664142L330.341116,166.383608L331.902792,165.322514L333.451013,164.339263L333.947490,165.361708L334.300384,166.626142L335.080035,167.095668L336.298343,166.789906L337.729883,166.139662L339.350607,165.203853L340.130938,165.724828L340.510072,166.906426L341.238204,167.498768L340.210282,170.891270L338.626463,175.063114L338.130794,177.434835L339.877601,176.335663L342.523660,173.940404L348.573239,166.622319L348.213834,168.842236L348.439153,170.175400L347.594861,172.987171L347.845059,174.214757L348.859146,174.380574L347.818016,177.314947L347.348446,179.421659L349.433198,178.157594L348.086858,181.344617L348.731851,181.939052L354.266208,176.453312L354.678710,177.420402L350.247634,184.219625L353.129567,182.142921L352.656572,184.072575L356.094777,181.450441L357.415750,181.329055L356.389804,183.857130L356.978056,184.547813L359.890250,182.709423L357.419527,186.709158L358.267872,187.106753L360.164726,186.420058L363.936477,183.849959L361.958611,187.180055L362.347587,188.076734L364.172953,187.557541L365.891419,187.175771L368.170906,186.290365L368.533882,187.248648L363.132865,193.527489L364.930556,193.085381L364.403853,194.761565L367.904186,192.847022L371.308099,191.092468L369.832562,193.598466L371.660244,193.257984L368.341849,197.235725L370.467300,196.648547L370.903798,197.464997L369.553716,199.700939L376.029183,195.752684L376.039951,196.939051L371.007262,201.949639L370.234175,203.638881L373.250081,202.502410L373.517605,203.419306L372.786683,205.044640L374.560975,204.877774L376.977147,204.293572L377.811330,204.830427L375.686886,207.361649L378.161096,206.796488L377.064877,208.596003L374.845339,211.081415L378.674950,209.700955L379.026587,210.544353L383.169087,209.074851L384.519398,209.352878L389.535321,207.487578L392.254922,207.042820L384.989007,212.331201L385.198073,213.282400L386.130266,213.830823L383.998227,216.045851L384.454584,216.836577L384.900138,217.633473L385.421280,218.392053L386.013793,219.116644L387.713690,219.297313L384.016425,222.119605L385.388672,222.454444L387.777019,222.332557L386.794899,223.790455L387.872879,224.298764L387.076473,225.644965L387.930185,226.258573L385.890433,228.104470L384.690592,229.561032L387.093386,229.529725L384.279916,231.605247L387.388476,231.326067L390.009987,231.279278L389.353591,232.489787L388.502985,233.754621L391.378545,233.677152L392.851634,234.128704L392.797426,235.116698L390.884177,236.713189L389.835353,237.995270L391.958953,238.259310L391.373581,239.382445L392.098331,240.101476L392.879168,240.811741L394.541650,241.281774L392.438118,242.806668L392.108520,243.822230L393.591280,244.360733L393.763753,245.247239L392.790796,246.411022L395.296417,246.739140L394.520142,247.848510L394.370633,248.805224L396.416960,249.291718L395.135489,250.485835L400.686417,250.315671L404.195780,250.612989L403.021862,251.809444L399.066339,253.468197L392.211879,255.545693L393.520668,256.224089L395.289261,256.850779L397.496331,257.439236L401.938584,257.755267L406.371251,258.137249L411.979690,258.441593L407.974201,259.918308L399.657053,261.790515L399.216178,262.761395L397.242106,263.864050L400.977955,264.458380L403.223812,265.220597L404.894863,266.054598L403.291152,267.113657L398.722186,268.308526L395.598934,269.367668L397.310757,270.189958L395.605947,271.146149L398.179813,271.971598L399.399045,272.857970L399.565781,273.772442L396.747533,274.696673L403.000172,275.623559L406.901860,276.613827L409.132529,277.628984L407.109511,278.562580L406.394131,279.511649L404.929484,280.419408L401.945636,281.231575L401.513921,282.144497L403.528735,283.208057L405.808329,284.321170L406.340228,285.331561L406.402982,286.310579L406.293376,287.275647L404.584172,288.078983L403.268165,288.900936L399.198765,289.385883L398.709355,290.253085L402.578417,291.684649L404.960624,292.970407L410.436172,294.744872L416.824649,296.743838L418.636066,298.105241L415.406774,298.647613L416.585660,299.919572L414.486709,300.610389L411.161360,301.037607L406.665663,301.184244L403.121532,301.461541L400.011036,301.780308L396.367209,301.935837L395.786740,302.741705L394.094206,303.277693L390.518303,303.328728L392.257288,304.672134L392.444952,305.641471L391.277674,306.253127L392.592559,307.536777L394.153169,308.915012L394.306220,309.910200L397.604316,311.857410L398.935488,313.254812L396.634116,313.527618L391.943393,312.991500L388.650410,312.849059L387.346137,313.335914L387.120189,314.182810L388.050448,315.444379L393.638334,318.431423L392.790702,319.107313L387.647409,318.129727L384.750308,317.949684L386.846168,319.722275L387.614602,320.994142L387.721362,322.009088L386.835698,322.609380L387.043130,323.675241L389.456777,325.728833L391.538780,327.681612L392.845338,329.320754L390.626221,329.333626L389.150659,329.669905L387.039443,329.676550L387.524489,330.942802L388.756793,332.603922L385.840033,332.156170L384.940435,332.720939L379.657426,330.934081L381.743510,333.063438L381.403127,333.897635L379.392643,333.793040L377.116752,333.505784L376.905467,334.385590L378.383344,336.270949L383.545200,340.414846L384.698351,342.215771L383.191242,342.392987L382.209133,342.881955L376.904171,340.579060L374.744107,340.232501L373.608850,340.531673L377.979671,344.534849L374.726142,343.412394L375.490700,345.030533L379.003554,348.622149L376.704252,348.124511L372.031227,345.854195L371.493131,346.556488L369.611981,346.247144L369.965790,347.615452L372.932455,351.033070L376.491245,355.000670L373.966885,354.199208L375.426433,356.587416L378.814171,360.616181L379.026941,362.086434L375.473036,360.377330L372.002041,358.665552L373.168360,360.940122L372.101330,361.277105L370.724784,361.323589L366.029931,358.313276L363.851772,357.530146L364.368962,359.244737L364.522816,360.643374L367.937921,365.230378L368.932423,367.549133L370.196862,370.186437L370.376182,371.780523L367.781323,370.544473L365.470777,369.548157L361.991783,367.262851L362.979277,369.697492L364.136260,372.370837L362.398466,371.895381L358.397921,368.840227L358.548273,370.415091L358.030182,371.244077L356.919472,371.382393L354.137763,369.511022L356.382526,373.658623L359.024571,378.403198L360.254249,381.509316L360.947137,384.010552L362.536856,387.724124L361.558653,388.174885L358.432470,385.768124L355.329517,383.298671L348.599226,375.767233L345.392171,372.881393L345.118824,374.031521L343.338461,373.039758L344.480914,376.259970L343.211955,375.996640L342.466481,376.496138L341.263593,376.296482L340.027104,376.022166L339.486452,376.821782L339.663041,378.783317L340.259272,381.479100L338.310756,380.027786L337.113054,379.778074L339.307887,385.324334L339.298211,387.198438L337.738075,386.368900L334.327401,382.151834L333.706235,382.897070L332.187947,381.975329L329.684452,379.129161L331.990116,385.488304L332.391659,388.306820L331.846014,389.309820L331.664842,391.081455L329.860229,389.515858L329.044756,389.978764L329.302545,392.771903L326.170509,388.162997L325.317382,388.494885L324.922364,389.879391L325.018066,392.458067L322.252525,388.270168L322.467968,391.186844L322.250220,393.130785L321.418749,393.576620L321.450167,396.280045L318.857532,392.084601L317.221731,390.294791L316.444879,390.807061L315.604288,391.146848L314.511636,390.750193L312.326690,387.040943L312.870029,391.526054L313.604830,396.831523L313.518000,399.739668L311.230419,395.470801L311.097232,398.312813L309.576193,396.425578L308.187110,394.891866L308.076837,398.009066L307.145697,398.155243L306.990034,401.358888L305.583423,399.653430L303.605182,395.414783L301.939436,392.234823L301.410094,393.936735L300.197013,392.557321L299.452239,393.327463L298.849206,394.855465L297.609414,393.163774L296.721216,393.231462L296.339904,396.169305L295.063363,394.045820L294.466115,395.928602L293.674899,396.718437L293.132243,399.279297L291.900118,397.121796L290.690378,394.873659L290.704927,402.259229L290.384387,407.692071L290.408835,417.036769L289.707419,420.558858L288.178699,415.785541L286.716183,410.940914L285.002980,401.985227L283.852462,399.039114L282.866314,397.965681L281.997534,398.670900L281.091265,398.810422L280.216521,399.737188L279.227897,397.738371L278.430216,401.686211L277.417144,397.638722L276.503591,396.801511L275.595351,394.522735L274.708741,397.279192L273.793104,398.845678L272.955793,394.478149L272.164824,390.836725L271.142255,396.143441L270.019220,402.006583L268.840245,407.202757L267.866712,407.159528L267.102499,403.702825L266.131564,403.983367L265.095296,405.054559L264.253194,403.599535L263.090106,405.896561L262.655185,400.434953L261.722931,400.425930L261.017330,398.404902L260.475098,395.268050L259.456174,396.201124L258.804871,394.310407L257.876586,394.538768L256.798333,395.726494L256.231707,393.556601L255.093654,395.016785L253.537466,398.747653L252.887596,397.146272L250.966242,402.400897L249.576334,404.525949L249.709665,399.008562L248.991386,397.901808L248.995873,393.563863L248.432446,392.008995L247.701010,391.259268L247.603145,387.933038L245.421318,393.123764L245.470025,389.349401L244.331935,390.244761L243.040091,391.636715L241.952592,392.212522L241.389708,390.933833L240.922185,389.390297L239.943732,389.584525L239.899075,386.781801L237.401415,391.722029L235.981907,393.141014L235.076454,392.958821L234.370050,392.197179L233.582818,391.684750L232.701384,391.441113L232.601876,389.090326L232.563081,386.669687L231.253508,387.611727L229.957317,388.466084L228.790129,388.952467L227.639600,389.364392L227.123827,388.243860L227.559551,384.949015L227.029992,383.963679L225.971415,384.181154L224.545280,385.178920L222.673793,387.078343L222.031762,386.308062L222.326100,383.621019L220.403519,385.505767L219.673591,384.937384L216.479976,389.181842L215.273247,389.452306L213.638324,390.503730L211.375666,392.663560L210.927197,391.435670L212.199710,387.160050L212.204607,385.239258L211.139566,385.214121L210.332706,384.736012L207.648836,387.390172L209.464453,382.556340L213.301146,374.601694L209.718403,378.672426L208.870562,378.323769L205.739629,381.480718L205.609988,379.980726L202.786396,382.523076L202.305985,381.535158L204.080032,377.309056L203.187145,376.985088L201.201105,378.183224L201.498306,376.184810L198.627501,378.525160L195.615543,380.965814L194.934388,380.251054L195.793481,377.545958L192.243217,380.527059L192.134312,379.078588L192.976510,376.478382L191.401188,376.883695L195.072788,370.959430L199.070446,364.806932L194.867160,368.375228L192.462196,369.756892L191.959850,368.928189L193.492425,365.837975L191.817386,366.342727L192.435238,364.334035L191.490325,364.032233L192.973263,361.170816L195.399247,357.398802L191.136990,360.541406L190.017549,360.416007L189.167559,360.009220L186.907546,360.971978L187.014476,359.611771L186.912552,358.470162L183.070569,360.834995L181.641764,360.891177L181.033065,360.182267L185.315601,355.105059L185.616533,353.660811L182.910512,354.846760L182.398996,354.103433L181.215508,353.927432L181.600665,352.435743L180.324660,352.324520L176.034417,354.620999L175.948161,353.496072L177.544879,351.069275L177.427035,350.011708L176.631272,349.477590L178.835245,346.701117L176.899930,347.026361L175.427215,346.985329L172.659808,347.844706L172.229227,347.017042L170.661855,346.975761L169.605061,346.565240L169.651321,345.406131L169.689801,344.264168L171.730941,341.837619L169.727597,342.039612L169.023701,341.396227L170.313953,339.519412L172.373924,337.211866L172.404745,336.164758L172.746215,334.945139L168.726859,336.254538L166.687202,336.372193L162.937137,337.411543L162.796558,336.411839L162.775369,335.353892L162.723218,334.320337L163.101314,333.070748L160.827974,333.187518L162.130531,331.480658L163.308279,329.866752L158.865193,330.991715L158.068530,330.318456L160.091077,328.329770L161.470482,326.677063L162.987960,324.994016L165.105283,323.081821L167.207781,321.219344L165.610800,320.953577L167.765325,319.122422L162.772032,320.213624L163.824823,318.840843L164.321020,317.706235L160.362110,318.266794L164.975166,315.602773L162.259393,315.664371L161.741991,314.911069L163.197118,313.475252L159.925647,313.655829L161.023907,312.355291L159.799064,311.819642L159.683905,310.922829L156.725767,310.891150L160.203567,308.914754L159.984438,308.060707L157.652063,307.797680L158.130921,306.738014L154.219084,306.847347L151.983081,306.470052L150.517419,305.870274L145.863492,306.016917L146.518368,304.860796L143.312498,304.585627L143.992070,303.421314L147.938038,301.587226L144.467545,301.311754L148.132721,299.602308L153.074608,297.713791L154.233091,296.579158L155.503023,295.445477L154.893122,294.640729L152.328712,294.133804L152.547389,293.177191L149.784739,292.646030L149.085919,291.799964L146.470117,291.186698L149.737757,289.839105L147.563814,289.145978L148.833446,288.065391L151.545940,286.866445L152.600732,285.856139L154.296085,284.810612L156.547389,283.750217L155.830231,282.921430L150.667833,282.345522L148.013901,281.564452L146.033038,280.715082L150.593048,279.595491L154.242360,278.570570L152.487691,277.719792L156.689251,276.755099L150.225861,275.932158L146.020800,275.013889L143.188917,274.043660L147.972244,273.142950L152.950027,272.316770L155.115832,271.481099L152.254423,270.492350L150.097960,269.492004L149.468253,268.537837L146.837154,267.455861L152.645735,266.893358L158.415433,266.413022L154.652933,265.244482L148.333448,263.792870L144.288221,262.464352L144.423866,261.506390L151.583396,261.327119L153.521046,260.635609L156.352561,260.083827L149.784935,258.320747L150.788541,257.522713L156.479118,257.432532L159.667425,257.036303L155.938251,255.556504L156.349472,254.725648L149.068009,252.525908L146.859647,251.156962L146.382055,250.086941L144.579565,248.740054L144.289640,247.678743L145.818404,247.004026L146.697358,246.203859L149.168024,245.783581L152.471597,245.598173L159.738209,246.442727L157.409473,244.945103L151.558873,242.479644L149.164560,240.856098L146.600409,239.143294L145.318503,237.753870L148.162086,237.557483L150.191762,237.155412L153.191931,237.083593L152.548679,235.892109L149.352276,233.849335L143.686648,230.920629L142.025454,229.270871L139.648248,227.336068L140.078149,226.367920L143.019644,226.327212L146.478450,226.524834L154.679287,228.603206L159.433069,229.456069L159.745022,228.595724L160.359447,227.859248L160.778166,227.045209L160.987227,226.142462L162.711824,225.899787L163.227784,225.141888L161.074310,223.172222L159.161720,221.269229L159.395100,220.339591L161.288970,220.207032L164.589563,220.792172L166.602167,220.786167L170.330453,221.683794L168.858455,219.945980L163.281652,216.005479L163.880174,215.271117L157.442281,210.690526L160.606139,211.322522L162.043071,211.028483L162.348737,210.101508L165.793828,211.010700L170.363456,212.648817L169.632455,211.157285L166.338260,208.062602L172.919213,211.074998L172.336547,209.652893L168.519970,206.116716L165.089277,202.743901L163.176255,200.301318L164.211735,199.807441L161.907030,197.020825L168.856630,200.653677L173.962296,203.115171L174.160714,202.132128L174.529448,201.266497L173.058309,199.025714L175.202176,199.474211L181.177581,202.903763L177.339207,198.804027L180.224007,199.925652L179.019735,197.814830L180.015748,197.457277L178.076028,194.677258L180.708570,195.680621L180.082257,193.952870L180.763646,193.327333L182.062873,193.247344L179.025681,189.314009L181.023194,189.845649L183.941710,191.261016L183.432383,189.539738L186.367494,191.049571L184.309229,187.824299L183.455905,185.697951L181.747512,182.681674L181.417559,180.980636L182.476600,180.665530L183.300805,180.118384L184.214773,179.669325L184.441920,178.494908L186.645176,179.442488L187.301102,178.739598L183.479526,173.047102L182.922302,170.894471L181.821041,168.073116L182.968335,167.806322L187.987080,172.128977L192.007449,175.403995L195.122344,177.694102L195.582163,176.788571L195.573750,175.285395L196.465346,174.901180L198.109785,175.497185L202.102189,179.214269L201.842626,177.390183L205.414752,180.717668L203.889450,177.151241L202.958559,174.319822L202.203868,171.665793L202.298855,170.169646L203.311180,169.986568L204.790906,170.510184L207.911237,173.548358L208.136218,172.252212L208.425998,171.030947L208.550387,169.523057L208.675338,167.982264L209.991757,168.360760L212.154366,170.179497L213.372054,170.473028L213.888184,169.581951L214.929254,169.596734L213.628346,165.446821L214.850191,165.749064L217.489561,168.697886L216.943044,165.773671L217.420764,164.720820L217.590029,163.043457L221.200138,168.153282L220.432918,164.613608L222.419991,166.632050L221.405715,162.438841L222.673851,162.984721L226.190763,168.474963L227.608988,169.526328L226.285248,164.409232L228.514707,167.328431L230.667281,170.200580L229.008914,164.009810L226.786036,156.178976L227.126194,154.477789L229.661420,158.364365L231.474352,160.539643L232.840307,161.626059L235.488529,166.304390L234.443557,160.818227L236.941632,165.296900L236.519919,161.386648L235.845244,156.530876L236.138049,154.444913L237.689959,156.272549L239.632877,159.488347L241.443062,162.446745L240.958553,157.673453L240.447889,152.551573L240.924050,150.745856L242.047287,151.277192L243.042106,151.358923L244.336895,152.657373L244.704364,150.235136L245.991345,151.579161L248.385709,157.901967L249.243705,157.686849L250.162662,157.757635L250.427380,154.643070L251.399091,154.897313L253.130634,159.209265L253.511743,156.447106L254.655165,157.846575L255.105270,155.213072L255.973465,154.979502L256.747583,154.113510L257.354832,152.007580L258.260118,151.875331L259.404578,153.603782L260.055076,151.477603L261.153893,153.035139L261.979922,152.254353L263.215652,155.523913L263.873438,153.003864L265.108463,156.941262L265.720272,153.497330L266.559278,152.622488L267.487610,153.002990L268.030030,146.381008L269.095901,148.868496L270.109216,150.970442L271.091620,153.091783L271.971824,152.357689L272.872530,152.201543L273.776338,152.149195L274.678398,151.177441L275.573479,154.665415L276.501694,151.191847Z" />
<line x1="50" y1="600" x2="100" y2="600" fill="none" stroke="red" stroke-width="1.0" stroke-linejoin="round" stroke-miterlimit="10" />
<text x="125" y="603" style="text-anchor:start;fill:black">n0_4mer:D</text>
<path style="stroke:black;stroke-width:1.0" d="M277.716947,90.488811L279.033163,92.426090L280.397938,91.760950L281.735915,92.105496L283.062487,92.609666L284.497926,90.876139L285.859237,90.851223L287.213152,90.961118L288.642366,90.046147L290.007834,90.101765L291.276148,91.263313L292.640485,91.263689L293.902788,92.269019L295.255969,92.338599L296.566538,92.778235L297.954451,92.569853L299.278868,92.880120L300.554637,93.521858L302.053398,92.614336L303.472560,92.324374L304.953907,91.699987L306.462841,90.988975L307.750909,91.594827L309.100411,91.840939L310.417141,92.256532L311.564183,93.502685L312.751106,94.486559L313.994408,95.160373L314.983327,96.940493L316.307417,97.178825L317.869469,96.430201L319.101884,97.078311L320.701825,96.269334L322.210912,95.873263L323.472844,96.430830L324.934320,96.262788L325.983155,97.560480L327.351971,97.724858L328.873542,97.397328L330.332140,97.309421L331.726462,97.447744L332.619640,99.129529L333.948807,99.451882L335.325151,99.642419L336.942795,99.159823L338.511432,98.856238L339.287408,100.736107L340.339266,101.822401L341.509100,102.576450L342.717227,103.222018L343.858741,104.026774L344.911236,105.035560L346.276944,105.278282L347.386741,106.129417L348.502905,106.953315L349.600680,107.807312L350.420617,109.260047L351.581017,109.944596L352.975953,110.128681L354.475452,110.110409L355.792065,110.486839L357.152184,110.784286L358.614452,110.892357L359.567168,112.000714L360.344621,113.423697L361.123487,114.816216L362.396582,115.279201L363.916869,115.304432L365.903642,114.527611L367.588300,114.323892L368.294726,115.818884L369.835463,115.887267L370.440703,117.519991L371.315626,118.684642L373.313383,118.041906L374.258246,119.096945L375.736234,119.317697L376.714927,120.314320L377.114895,122.169274L377.338625,124.249225L378.566470,124.831865L379.597600,125.700871L381.107196,125.894469L382.553680,126.193424L382.847465,128.077776L383.851595,128.976058L385.263336,129.332922L386.751889,129.603563L388.596206,129.434895L390.262698,129.520728L390.758729,131.084456L391.680804,132.105292L393.280245,132.304152L394.303545,133.207600L395.441738,133.975784L396.263910,135.112010L396.489570,136.919077L397.577892,137.733410L398.904270,138.287655L400.347602,138.725193L401.705875,139.267986L402.469674,140.449624L403.309600,141.545018L403.494248,143.307624L403.994197,144.728101L404.099179,146.527965L404.389996,148.120951L405.869093,148.547169L407.493764,148.850390L409.467483,148.845679L410.530397,149.711872L410.598918,151.487657L410.537035,153.357820L410.913911,154.814538L411.521786,156.056668L412.944046,156.592813L414.365783,157.143479L415.604363,157.860727L416.559671,158.819843L418.082058,159.322956L418.900557,160.402951L420.133879,161.156949L421.720028,161.647762L421.923860,163.208030L422.502880,164.472760L422.246380,166.348612L422.253499,168.008894L422.610229,169.401503L423.833457,170.174457L424.580692,171.287387L425.453845,172.314020L427.233196,172.734424L427.220760,174.361379L428.712108,174.994018L429.391629,176.162193L429.258339,177.841311L429.937644,178.999483L429.487366,180.845535L432.117250,180.822207L434.928065,180.730993L435.888228,181.754359L436.885425,182.762007L435.564118,185.074362L433.878130,187.549077L434.660664,188.643929L436.992275,188.918405L437.932004,189.951488L439.966646,190.429134L441.277185,191.297545L440.409561,193.255210L440.916969,194.518965L440.793901,196.081280L439.762008,198.055301L441.324273,198.812352L442.485132,199.767549L443.057402,200.992684L444.757041,201.731720L444.474392,203.329331L444.743405,204.684351L445.302868,205.917260L445.086521,207.459111L446.220102,208.464217L446.156129,209.935480L446.196982,211.358622L447.177918,212.432981L446.868162,213.974303L447.041165,215.335614L447.984978,216.431555L447.568718,217.985263L448.554986,219.073361L448.962062,220.352741L448.690273,221.839972L449.232726,223.073855L449.982539,224.250165L450.050658,225.624760L451.241373,226.686922L452.655426,227.702844L452.744667,229.077852L454.969750,229.913879L455.151049,231.275579L455.042145,232.703264L454.470942,234.229437L453.081146,235.921748L452.715835,237.371246L453.012572,238.675767L454.428317,239.760968L456.046507,240.825640L457.375741,241.963495L457.749533,243.283686L457.287463,244.744737L456.344615,246.271590L455.413952,247.779178L454.607106,249.251980L456.327901,250.366424L458.537932,251.441158L460.791501,252.541114L461.883471,253.804017L461.002616,255.289934L459.948330,256.777659L457.749334,258.351993L456.471659,259.814761L454.272455,261.327208L453.557586,262.703368L453.867888,264.004592L454.867763,265.271910L457.394641,266.481623L457.315005,267.830207L458.924752,269.122855L459.387964,270.466782L458.941354,271.832710L459.497230,273.181836L458.367977,274.543150L458.278860,275.892851L457.892300,277.237698L457.395898,278.574942L457.439614,279.919825L457.910707,281.280561L458.071848,282.635997L458.909693,284.027857L459.150278,285.399338L458.731862,286.733420L459.500916,288.147209L460.109508,289.561192L460.159200,290.937673L461.480717,292.435545L461.708000,293.844514L460.855748,295.141934L459.932458,296.420638L457.424690,297.492554L455.704635,298.632472L452.367882,299.525683L450.178426,300.538788L448.403921,301.585412L447.080272,302.680764L448.745644,304.262617L448.032985,305.454411L448.959889,306.939821L449.014702,308.276154L450.457057,309.893003L453.892824,311.947575L453.591486,313.258502L453.610067,314.640128L452.618854,315.794626L450.805413,316.743185L451.731761,318.340197L451.250308,319.600407L450.167152,320.701234L450.779684,322.246084L450.728273,323.622393L452.133034,325.418037L453.052844,327.100053L453.071469,328.531992L453.090583,329.970710L452.406900,331.193653L451.714877,332.409513L451.121332,333.653785L450.897668,335.021627L449.872688,336.113020L449.947673,337.588430L449.188610,338.767409L448.222654,339.864082L448.744429,341.522168L448.692315,342.972748L448.419292,344.342611L446.816121,345.173271L444.517876,345.695391L442.796485,346.432350L442.093995,347.591158L442.846495,349.391898L443.342242,351.099480L442.777368,352.336901L442.339173,353.633930L440.808552,354.410297L439.904787,355.475453L439.755563,356.910062L439.906417,358.504960L440.120454,360.146607L439.810049,361.528589L438.540018,362.403838L436.914645,363.073935L435.397699,363.785409L434.804992,365.000799L434.257317,366.243347L433.635193,367.444938L433.530985,368.954631L432.481566,369.906384L431.799832,371.076391L430.621287,371.937452L430.125139,373.221088L429.418770,374.374124L429.624548,376.124229L428.854968,377.246131L427.362355,377.879464L427.095568,379.337957L425.461659,379.854581L425.767147,381.725212L425.951684,383.533005L425.158574,384.648874L424.859301,386.131281L423.447782,386.787961L422.928538,388.113338L422.615053,389.605783L421.158502,390.209722L419.222812,390.415702L414.992444,388.731230L411.277121,387.388574L409.889940,387.923476L410.055134,389.763594L411.724632,392.926815L412.987887,395.799573L413.001225,397.617744L412.252494,398.772835L411.715559,400.126110L411.019560,401.342040L408.229867,400.590751L406.822770,401.110273L405.065457,401.276284L402.199732,400.326532L400.141946,400.128240L399.305001,401.135296L399.026110,402.719770L398.505872,404.072092L398.615643,406.105850L396.625885,405.913401L394.384035,405.412959L394.249541,407.207467L394.111658,409.025703L394.332261,411.281675L395.065005,414.172832L394.247542,415.300752L393.211293,416.174954L390.036654,414.456939L386.515410,412.234263L384.025428,411.206980L381.061326,409.522266L379.692262,409.815711L379.114507,411.129051L379.327864,413.509645L380.219280,416.854559L381.693750,421.078085L382.498468,424.478269L381.980122,426.092155L381.565336,427.880817L380.514609,428.774691L378.959702,428.925812L377.664375,429.447622L376.127476,429.592548L374.472234,429.534030L373.104299,429.903149L371.293397,429.549614L369.891549,429.828063L369.091061,431.089999L368.436491,432.617360L368.186314,434.867140L367.671815,436.709522L366.527744,437.474607L365.437983,438.340977L363.420287,437.508971L362.421749,438.530445L361.442014,439.601344L360.032881,439.855583L359.765784,442.350825L358.408837,442.724144L357.347135,443.693231L355.892188,443.855262L354.253198,443.609046L352.198237,442.428310L350.865524,442.775742L349.922034,443.992649L348.949774,445.170325L348.400142,447.366498L346.772862,447.048460L345.045517,446.449672L343.386619,445.974126L341.916273,445.937511L340.293687,445.479932L338.909522,445.616552L337.819220,446.540312L336.449177,446.703930L335.707232,448.650470L334.802612,450.193050L333.597998,450.889555L332.792081,452.826196L331.405676,453.008540L330.004968,453.132342L328.724315,453.640255L327.151163,453.155119L325.909914,453.786768L324.742230,454.698947L323.576851,455.651885L322.198056,455.823209L320.715056,455.571980L319.265133,455.418021L317.331652,453.196966L316.010063,453.467266L314.749119,454.008467L313.595088,455.066390L312.655322,457.218841L311.319966,457.527937L309.838784,457.078238L308.255512,456.014167L306.813408,455.638513L305.648739,456.854072L304.547358,458.555926L303.333458,459.670563L302.135421,460.987526L300.751572,461.083211L298.955671,458.020065L297.031741,453.526290L295.110524,448.455532L293.374419,444.373163L292.028819,443.533679L290.983211,445.745612L289.996115,448.997424L289.035617,453.178509L287.909330,455.883219L286.592324,456.210411L285.211168,455.467067L283.875378,455.400007L282.601200,456.759493L281.335025,458.909550L279.968230,458.488821L278.605265,457.920469L277.264982,458.479582L275.919588,459.616412L274.553763,462.343512L273.161475,463.660251L271.784633,462.929115L270.459141,460.525761L269.118329,459.700099L267.789918,458.852301L266.427704,458.981550L265.040287,459.525133L263.637512,460.170528L262.325884,459.333521L261.025014,458.499744L259.616006,459.089530L258.157909,460.104232L256.834649,459.577081L255.391898,460.233984L254.013092,460.221233L252.706860,459.590056L251.144795,461.008112L249.891912,459.972658L248.697296,458.619503L247.482097,457.518447L246.223036,456.779934L244.770839,457.253777L243.184066,458.442795L242.235120,455.989276L241.288111,453.703837L240.180330,452.395773L238.862640,452.195838L237.095647,454.114255L235.314541,455.942871L234.013805,455.511663L232.834436,454.572126L231.489833,454.353992L230.543964,452.537131L229.000417,453.124933L227.735161,452.612280L226.408883,452.331803L224.731354,453.292797L223.329464,453.230028L221.740173,453.779287L220.553297,452.963885L219.551565,451.580134L218.873885,449.239378L218.094336,447.301931L216.983548,446.416444L215.571489,446.421669L214.055854,446.698124L212.631113,446.691257L211.111727,446.918783L209.834319,446.478780L208.731951,445.586465L207.759109,444.385127L206.405715,444.151910L204.722075,444.704904L203.537750,444.033164L201.591824,445.132381L200.356262,444.552948L199.734681,442.607415L197.878038,443.412677L196.698302,442.715666L196.099439,440.802543L195.082624,439.800912L193.843694,439.264064L192.906194,438.126044L191.080124,438.740979L189.211663,439.393216L188.279245,438.238217L187.073747,437.606275L186.710625,435.442997L186.063059,433.839582L184.592753,433.712723L183.645987,432.664170L181.649791,433.408976L180.280337,433.060508L180.029820,430.864190L178.726784,430.415776L178.124665,428.845822L176.617150,428.718028L174.138339,430.064462L171.986008,430.850723L169.767896,431.686260L168.898940,430.494139L168.326705,428.886761L168.506515,426.236816L169.250399,422.855667L167.863380,422.487737L167.618995,420.558099L167.981821,417.852503L168.189365,415.408992L167.823302,413.757987L167.136280,412.542092L165.713794,412.262530L162.678569,413.962595L160.516520,414.523513L157.844123,415.655615L155.084365,416.832195L153.489695,416.590545L153.682157,414.278018L153.123662,412.856492L151.953311,412.132188L150.458749,411.758597L149.336395,410.966441L148.116329,410.274583L146.994465,409.472513L145.990459,408.544361L144.012965,408.608548L143.023955,407.649347L142.494974,406.234167L141.389153,405.394697L141.054455,403.809483L141.035284,401.942679L140.743886,400.355642L140.928573,398.348011L139.496061,397.836110L137.896018,397.459678L135.871889,397.437969L134.709691,396.639580L134.236119,395.246063L133.698920,393.916585L133.221768,392.545834L131.934104,391.846707L131.496496,390.453192L130.856075,389.230407L129.565595,388.519841L129.496869,386.859247L128.358261,386.026375L127.163914,385.227625L126.981108,383.677417L125.394701,383.155924L125.468139,381.435256L124.883045,380.195074L123.772986,379.321190L122.636649,378.457718L121.525636,377.569261L120.513469,376.608212L119.507149,375.637809L119.276535,374.167877L117.809011,373.483233L116.502807,372.683942L116.162041,371.287476L116.348654,369.584014L117.101724,367.566100L116.727725,366.226202L115.929805,365.132347L114.680699,364.287161L112.053677,364.184727L111.049108,363.172037L110.879658,361.711374L110.212373,360.517902L110.990623,358.587012L111.665318,356.733797L111.561666,355.286439L110.344336,354.384926L108.747230,353.651594L107.106692,352.920072L105.752427,352.039149L105.543684,350.632957L105.655692,349.092577L105.597322,347.636788L105.124728,346.363319L104.430475,345.181968L103.454522,344.111050L102.915426,342.859867L102.677043,341.491981L103.069359,339.890305L102.150560,338.787113L102.508787,337.215796L101.619113,336.097813L100.819322,334.941617L101.425571,333.307200L100.751492,332.109378L100.419082,330.798217L100.872359,329.243577L101.027983,327.793036L100.847808,326.450456L100.810126,325.070097L99.350535,324.092427L98.426799,322.951800L97.885108,321.701413L97.788282,320.334105L98.393616,318.796388L98.841754,317.310930L100.385905,315.582577L101.067635,314.076587L101.688719,312.598750L102.065119,311.185957L100.467571,310.180939L99.440075,309.044864L96.613241,308.232122L94.096663,307.324598L91.928932,306.322761L90.629890,305.149509L91.401077,303.637066L90.366677,302.407462L89.909920,301.083922L90.515956,299.614605L89.421857,298.371198L90.185915,296.893873L90.091849,295.525620L88.092909,294.355480L88.328789,292.942898L87.890421,291.595586L88.533391,290.155693L89.848161,288.677359L90.563287,287.259842L91.750959,285.826320L92.312943,284.443871L92.485657,283.087997L91.918839,281.762868L90.599405,280.452369L90.126812,279.104214L89.676598,277.749209L89.998912,276.382100L89.768722,275.019946L89.423562,273.653571L90.213520,272.298562L88.638605,270.902903L88.973732,269.539662L90.243306,268.215083L89.311606,266.811416L90.525554,265.503566L91.211993,264.181558L89.899518,262.736076L90.468609,261.408433L90.424156,260.037998L89.941582,258.626508L90.813823,257.335998L92.105360,256.099847L93.305648,254.870738L94.154026,253.615700L94.229551,252.273818L92.889944,250.742059L92.417369,249.309543L92.698039,247.978737L93.704855,246.762262L94.016385,245.444293L94.177291,244.102006L93.302050,242.573797L91.628390,240.880098L92.706902,239.690163L93.314982,238.418012L94.201111,237.209170L95.913759,236.188793L96.253168,234.882206L95.359989,233.290111L94.906105,231.784799L93.760880,230.096177L94.035853,228.747474L95.094566,227.604217L96.751464,226.634448L100.977525,226.402706L102.661794,225.502336L103.798274,224.461298L103.744333,223.071536L101.230716,220.909110L102.252957,219.828913L104.018248,219.002067L106.414414,218.409056L109.779343,218.181631L110.520546,217.078789L111.022037,215.894752L112.529038,215.082638L111.442274,213.310051L108.856517,210.933517L106.518043,208.602714L103.578805,205.981927L102.449791,204.046515L103.864459,203.150609L104.421098,201.902356L104.081945,200.262720L104.100252,198.766933L103.380310,196.925711L103.245333,195.332806L104.582495,194.423047L105.743505,193.441810L106.606701,192.324528L108.360470,191.657304L109.101165,190.495034L109.716764,189.270076L110.838877,188.312298L112.054201,187.413735L112.846085,186.294357L113.984232,185.370382L114.311305,183.996290L115.484006,183.102695L117.319090,182.606953L117.745896,181.294885L118.172797,179.977624L117.971941,178.268163L117.565300,176.411285L119.550479,176.053625L121.122954,175.454985L121.786938,174.276633L122.501518,173.130441L122.293704,171.357460L123.410882,170.477195L123.529246,168.904879L125.873053,168.901339L127.712105,168.567716L129.023837,167.870760L129.966933,166.910918L129.311284,164.744538L128.372454,162.326565L127.865544,160.204158L129.204741,159.512063L130.390251,158.708092L131.957364,158.223637L133.494855,157.731991L133.462843,155.936800L134.352835,154.906024L135.392040,154.004716L135.460668,152.253458L136.508103,151.354264L136.996097,149.951775L137.892946,148.913672L138.660510,147.754049L140.608585,147.707910L142.757189,147.882768L143.311922,146.537151L144.661142,145.966820L145.455983,144.851159L145.936302,143.409985L147.108503,142.670028L148.060435,141.704806L149.028202,140.755547L149.655091,139.436969L152.256311,140.273601L156.224619,142.685407L158.916515,143.752880L160.354173,143.438958L161.382954,142.664798L159.857595,138.872894L159.582512,136.492139L159.328382,134.090374L158.757558,131.249719L159.928170,130.534637L160.609131,129.199510L162.159680,128.974534L163.071342,127.928802L163.722378,126.528456L164.506773,125.290694L165.582661,124.440752L166.679626,123.618874L168.344349,123.602159L169.461964,122.820971L170.246969,121.552429L171.442375,120.878695L172.421356,119.880553L174.029939,119.842004L176.199784,120.703059L177.824985,120.751945L178.772343,119.732477L179.957211,119.092220L180.799149,117.881997L181.971242,117.214205L182.978773,116.263132L184.143837,115.579033L185.081808,114.489028L185.982681,113.316604L187.847752,113.908060L188.936465,113.083072L190.761661,113.661718L192.094468,113.323962L192.719261,111.590160L194.245975,111.638775L195.063505,110.250046L196.198090,109.496638L197.455845,109.000203L198.258372,107.513163L199.667843,107.340378L200.753154,106.447038L201.837633,105.537654L202.926617,104.623609L203.895890,103.404602L205.236461,103.071070L206.550394,102.678255L207.925210,102.446940L208.957565,101.326753L209.994078,100.189012L211.522126,100.373085L212.792865,99.863317L214.206986,99.764370L215.575070,99.546485L217.186296,100.075177L218.571704,99.951709L219.922058,99.731804L221.195729,99.271254L221.858834,96.759326L223.012394,95.820591L224.180301,94.901242L225.696188,95.219160L227.114537,95.211347L228.564736,95.347797L230.119739,95.932383L231.421708,95.533898L232.987410,96.252345L234.179964,95.399277L235.484682,95.018117L236.694346,94.181693L237.941701,93.488093L239.230944,92.974818L240.611585,92.925223L242.053445,93.230512L243.476105,93.473229L245.051116,94.676628L246.365925,94.374574L247.769415,94.650738L249.280905,95.729741L250.579652,95.384196L251.925104,95.382856L253.365354,96.185889L254.554199,94.901061L255.802997,94.021926L257.091860,93.437603L258.229322,91.119489L259.497032,89.966986L260.865539,89.932647L262.312852,91.055842L263.748233,92.277597L265.164931,93.510445L266.492130,93.243144L267.764115,91.499028L269.091370,90.701017L270.416408,89.362742L271.775127,88.859037L273.152035,89.471569L274.517036,89.050390L275.882896,89.739538L277.234790,90.751237Z" />
<line x1="50" y1="550" x2="100" y2="550" fill="none" stroke="black" stroke-width="1.0" stroke-linejoin="round" stroke-miterlimit="10" />
<text x="125" y="553" style="text-anchor:start;fill:black">GC-content</text>
</g>
<g style="fill:pink;stroke:black">
<a href="" title="CP104550:1 [384000-406099];"><path  d="M502.167176,239.012860L502.760639,242.982955L503.284725,246.962802L503.739272,250.951190L504.124144,254.946904L484.200305,256.690651L484.200305,256.690651L483.848901,253.042391L483.433879,249.400820L482.955366,245.767046L482.413508,242.142176Z" />
</a><a href="" title="CP104550:2 [422000-444099];"><path  d="M504.965918,271.040635L504.999993,275.054697L504.964009,279.068742L504.857975,283.081548L504.681924,287.091892L484.709583,286.040423L484.709583,286.040423L484.870325,282.378804L484.967138,278.714938L484.999994,275.049941L484.968882,271.384928Z" />
</a><a href="" title="CP104550:3 [459000-488099];"><path  d="M503.373434,302.305209L502.862110,306.286717L502.281377,310.258694L501.631412,314.219930L500.912413,318.169221L500.124599,322.105361L499.268209,326.027153L479.766626,321.590009L479.766626,321.590009L480.548547,318.009243L481.267855,314.415375L481.924333,310.809502L482.517779,307.192720L483.048014,303.566132L483.514875,299.930843Z" />
</a><a href="" title="CP104550:4 [607500-625099];"><path  d="M455.891835,417.049794L453.385174,420.185157L450.824174,423.276295L448.209617,426.322267L433.147911,413.163809L433.147911,413.163809L435.535116,410.382704L437.873419,407.560361L440.162110,404.697638Z" />
</a><a href="" title="CP104550:5 [662500-691599];"><path  d="M423.630099,450.525194L420.544125,453.092414L417.413816,455.605384L414.240128,458.063341L411.024025,460.465535L407.766488,462.811234L404.468509,465.099724L393.210378,448.569314L393.210378,448.569314L396.221576,446.479823L399.195849,444.338097L402.132290,442.144790L405.030006,439.900568L407.888114,437.606117L410.705742,435.262134Z" />
</a><a href="" title="CP104550:6 [815500-841099];"><path  d="M306.947530,502.770400L302.967523,503.293271L298.978996,503.746602L294.983166,504.130254L290.981248,504.444110L286.974462,504.688076L285.933204,484.715200L285.933204,484.715200L289.591574,484.492448L293.245499,484.205884L296.893866,483.855593L300.535564,483.441682L304.169484,482.964279Z" />
</a><a href="" title="CP104550:7 [1024000-1046099];"><path  d="M139.825148,461.085355L136.598099,458.697887L133.413208,456.254463L130.271445,453.755826L127.173769,451.202740L140.028224,435.880762L140.028224,435.880762L142.856537,438.211842L145.725103,440.493205L148.633047,442.724158L151.579483,444.904020Z" />
</a><a href="" title="CP104550:8 [1212000-1234099];"><path  d="M52.175537,332.002270L51.214648,328.104765L50.321925,324.191084L49.497642,320.262419L48.742049,316.319967L68.416654,312.726926L68.416654,312.726926L69.106543,316.326557L69.859149,319.913599L70.674244,323.486960L71.551577,327.045551Z" />
</a><a href="" title="CP104550:9 [1328000-1345599];"><path  d="M48.577451,234.591719L49.317158,230.646255L50.125610,226.714302L51.002561,222.797057L70.480599,227.336443L70.480599,227.336443L69.679905,230.913058L68.941753,234.503103L68.266368,238.105483Z" />
</a><a href="" title="CP104550:10 [1364000-1393599];"><path  d="M55.902861,205.025407L57.157456,201.212292L58.478407,197.421653L59.865313,193.654646L61.317752,189.912417L62.835280,186.196107L64.417435,182.506847L82.728962,190.549730L82.728962,190.549730L81.284386,193.918185L79.898817,197.311338L78.572677,200.728155L77.306372,204.167597L76.100286,207.628614L74.954786,211.110154Z" />
</a><a href="" title="CP104550:11 [1501500-1527599];"><path  d="M117.307192,107.569483L120.253274,104.842864L123.246495,102.168077L126.285940,99.545936L129.370686,96.977241L132.499791,94.462772L144.891114,110.161662L144.891114,110.161662L142.034104,112.457481L139.217598,114.802811L136.442452,117.196940L133.709511,119.639137L131.019610,122.128658Z" />
</a></g>
<text x="275" y="280" style="text-anchor:middle" font-size="25" font-weight="bold">CP104550</text>
<path  style="fill:pink;stroke:black" d="M350,550L375,550L375,565L350,565Z" />
<text x="405" y="565" style="text-anchor:start;fill:black">Selected loci;</text>
</svg>