<svg xmlns="http://www.w3.org/2000/svg" viewbox="0 0 550 650">
<circle cx="275" cy="275" r="240" fill="none" stroke="black" stroke-width="1.0" />
<line x1="275" y1="15" x2="275" y2="55" fill="none" stroke="grey" stroke-width="1.0" stroke-linejoin="round" stroke-miterlimit="10" />
<line x1="495" y1="275" x2="535" y2="275" fill="none" stroke="grey" stroke-width="1.0" stroke-linejoin="round" stroke-miterlimit="10" />
<line x1="275" y1="495" x2="275" y2="535" fill="none" stroke="grey" stroke-width="1.0" stroke-linejoin="round" stroke-miterlimit="10" />
<line x1="15" y1="275" x2="55" y2="275" fill="none" stroke="grey" stroke-width="1.0" stroke-linejoin="round" stroke-miterlimit="10" />
<text x="275" y="10" style="text-anchor:middle" font-size="15">Methanocaldococcus vulcanius M7, complete genome.</text><text x="285" y="25" style="text-anchor:start">1,773,982</text><text x="525" y="265" style="text-anchor:start">0.44 Mbp</text><text x="285" y="530" style="text-anchor:start">0.88 Mbp</text><text x="-200" y="25" style="text-anchor:end" transform="rotate(-90)">1.33 Mbp</text><circle cx="358.238347" cy="49.896962" r="2.500000" fill="grey" stroke="black" stroke-width="1.0" />
<circle cx="431.143373" cy="92.738520" r="2.500000" fill="grey" stroke="black" stroke-width="1.0" />
<circle cx="484.664550" cy="158.206265" r="2.500000" fill="grey" stroke="black" stroke-width="1.0" />
<circle cx="512.157686" cy="238.172942" r="2.500000" fill="grey" stroke="black" stroke-width="1.0" />
<circle cx="510.209745" cy="322.711380" r="2.500000" fill="grey" stroke="black" stroke-width="1.0" />
<circle cx="479.062549" cy="401.326862" r="2.500000" fill="grey" stroke="black" stroke-width="1.0" />
<circle cx="422.582752" cy="464.259957" r="2.500000" fill="grey" stroke="black" stroke-width="1.0" />
<circle cx="347.781832" cy="503.698065" r="2.500000" fill="grey" stroke="black" stroke-width="1.0" />
<circle cx="263.945677" cy="514.745286" r="2.500000" fill="grey" stroke="black" stroke-width="1.0" />
<circle cx="181.481821" cy="496.030202" r="3.000000" fill="black" stroke="black" stroke-width="1.0" />
<circle cx="110.627438" cy="449.876130" r="2.500000" fill="grey" stroke="black" stroke-width="1.0" />
<circle cx="60.178487" cy="382.012699" r="2.500000" fill="grey" stroke="black" stroke-width="1.0" />
<circle cx="36.397770" cy="300.864567" r="2.500000" fill="grey" stroke="black" stroke-width="1.0" />
<circle cx="42.237456" cy="216.505572" r="2.500000" fill="grey" stroke="black" stroke-width="1.0" />
<circle cx="76.972599" cy="139.408155" r="2.500000" fill="grey" stroke="black" stroke-width="1.0" />
<circle cx="136.291132" cy="79.143292" r="2.500000" fill="grey" stroke="black" stroke-width="1.0" />
<circle cx="212.829171" cy="43.192347" r="2.500000" fill="grey" stroke="black" stroke-width="1.0" />

<circle cx="275" cy="275" r="185" fill="white" stroke="grey" stroke-width="0.5" />
<circle cx="275" cy="275" r="170" fill="none" stroke="black" stroke-width="0.5" />
<circle cx="275" cy="275" r="170" fill="aliceblue" stroke="black" stroke-width="0.5" />
<circle cx="275" cy="275" r="154" fill="white" stroke="none" stroke-width="0.5" />
<circle cx="275" cy="275" r="140" fill="none" stroke="black" stroke-width="0.5" />
<circle cx="275" cy="275" r="140" fill="aliceblue" stroke="black" stroke-width="0.5" />
<circle cx="275" cy="275" r="133" fill="white" stroke="none" stroke-width="0.5" />
<circle cx="275" cy="275" r="110" fill="none" stroke="black" stroke-width="0.5" />
<circle cx="275" cy="275" r="110" fill="white" stroke="black" stroke-width="0.5" />
<circle cx="275" cy="275" r="109" fill="aliceblue" stroke="none" stroke-width="0.5" />
<circle cx="275" cy="275" r="80" fill="none" stroke="black" stroke-width="0.5" />

<g style="fill:none;stroke-linejoin:round;stroke-miterlimit:10">
<path style="stroke:blue;stroke-width:1.0" d="M277.189232,120.465201L278.282072,120.568088L279.350220,121.502423L280.427495,121.817605L281.512540,121.857758L282.571791,122.419399L283.668355,122.196109L284.800399,121.480426L285.908836,121.254870L287.069340,120.417664L288.143207,120.751578L289.069766,122.643423L290.168046,122.552011L291.513411,120.170607L292.527723,121.012139L293.439062,122.619558L294.497501,122.913962L295.685638,122.233917L296.919282,121.318417L297.868199,122.406117L299.074837,121.768120L299.941549,123.269456L300.970426,123.713845L302.220194,122.902747L303.067371,124.331591L304.186168,124.264500L305.487286,123.310293L306.797533,122.395056L307.690215,123.493210L308.707633,123.974924L310.015983,123.179566L310.989083,123.857534L311.914109,124.705447L312.949002,125.084536L314.090283,125.049141L315.744413,123.119647L316.158842,125.805974L316.851206,127.383196L317.913778,127.621690L319.286269,126.826625L319.916292,128.508874L321.040453,128.552089L323.063468,125.819085L325.665993,121.475734L325.560077,125.366690L325.426833,129.175411L325.900354,131.114157L327.652880,129.447711L329.170498,128.504901L330.289840,128.672685L330.778398,130.484156L331.590091,131.417258L332.634364,131.750631L333.781310,131.836946L335.495699,130.581681L335.524386,133.337575L336.161280,134.607870L337.020605,135.345534L338.639221,134.394429L340.066830,133.909396L342.184155,131.990818L342.032649,134.900684L343.038980,135.347017L343.080347,137.740120L344.228399,137.874314L345.332295,138.106779L346.656099,137.927683L347.022137,139.572818L347.788726,140.439344L348.769629,140.904617L350.483857,140.060848L350.920686,141.508223L351.411094,142.833423L352.510487,143.097071L354.878216,141.246032L356.361477,140.929008L357.218503,141.655718L357.332416,143.564233L357.615205,145.166262L358.501983,145.802463L359.176691,146.760376L359.886888,147.654051L360.710284,148.371647L361.642944,148.926935L362.926935,148.980433L364.580983,148.528411L365.159401,149.604551L365.334310,151.220711L365.974632,152.179923L367.267511,152.261887L368.655024,152.236422L369.673509,152.707584L369.627279,154.539880L371.259426,154.233086L372.652641,154.250064L372.452874,156.227784L373.923656,156.161995L374.841187,156.773109L375.481656,157.710355L376.554155,158.144101L376.771353,159.556111L377.237733,160.670009L377.893294,161.564389L380.835782,159.968493L383.423421,158.818592L386.056203,157.674711L388.212193,157.081459L388.259800,158.692339L385.501104,163.121896L383.581973,166.611491L384.090645,167.635699L385.233254,168.037757L385.560506,169.230427L386.206246,170.111252L386.871069,170.971726L388.676874,170.784277L388.870841,172.081473L389.507567,172.970384L389.875708,174.093034L390.510007,174.976508L391.501884,175.552910L392.114884,176.455152L392.640521,177.427795L393.947743,177.757515L396.184092,177.353187L396.766267,178.298625L395.286097,180.855819L395.951225,181.709273L396.667542,182.523916L397.580401,183.192726L398.089378,184.165389L399.883623,184.200626L401.633407,184.292641L400.626074,186.353908L400.856322,187.520257L401.279467,188.546361L401.675303,189.586940L402.611299,190.264535L402.905253,191.368784L403.462824,192.297284L405.149449,192.509608L406.122534,193.189020L405.829107,194.653981L406.296033,195.642542L406.688354,196.673635L407.303549,197.571177L407.744931,198.570063L408.183790,199.568490L408.723650,200.508868L410.648147,200.690958L410.675989,201.920402L412.252260,202.320954L412.282221,203.545604L412.627003,204.600642L413.634307,205.319933L414.706984,206.016060L416.587658,206.330605L419.330617,206.258864L419.665925,207.352187L418.102279,209.314663L418.564601,210.329718L418.247787,211.689197L417.636581,213.163342L417.249167,214.524686L416.313635,216.100836L416.982784,216.998967L418.675194,217.491792L420.991810,217.761008L422.627536,218.322869L422.218867,219.673107L423.592507,220.354953L423.139873,221.709633L420.296637,223.891923L419.591982,225.287920L420.988822,225.961266L421.302641,227.006435L421.513587,228.084136L421.071271,229.364034L421.490352,230.369589L421.512345,231.494650L422.073695,232.459290L422.000899,233.606489L422.538635,234.580833L422.712949,235.655805L423.088852,236.677025L423.897527,237.591095L425.531014,238.312329L425.222848,239.512856L425.080198,240.667149L426.062322,241.566754L425.360504,242.837633L425.588531,243.902720L426.195008,244.892562L426.827303,245.883243L425.364779,247.266554L425.581057,248.328201L425.737390,249.400428L427.147078,250.268559L427.044401,251.389492L426.540031,252.565976L427.171378,253.572937L427.954549,254.566545L429.861653,255.427307L429.813125,256.546631L429.495903,257.693479L429.013681,258.851317L428.442913,260.009261L429.037829,261.051970L430.100412,262.062757L430.702423,263.122529L431.765700,264.157779L433.193848,265.184432L432.172119,266.365004L430.682815,267.552554L431.297121,268.632507L430.375881,269.772202L429.106786,270.907544L429.200773,271.997944L428.078912,273.104431L427.802982,274.190348L428.232854,275.273535L428.307778,276.359692L427.944594,277.440057L428.073913,278.526868L428.091628,279.612504L427.800027,280.687341L428.652488,281.809313L428.624207,282.898786L429.837116,284.061289L430.317242,285.193853L428.685837,286.180662L427.848111,287.208759L427.501039,288.268835L427.218426,289.331368L428.025370,290.501685L426.952250,291.481207L427.186207,292.598165L427.226930,293.696538L427.098093,294.775356L426.734134,295.822071L427.295871,296.999380L426.597366,297.995900L426.607981,299.097369L426.236943,300.138034L426.184257,301.231126L427.435628,302.561947L426.259253,303.457189L426.003807,304.518155L425.410147,305.509835L424.495330,306.428428L424.689670,307.578176L424.257888,308.593312L424.047085,309.656946L424.482811,310.876267L423.318688,311.709950L424.349119,313.089735L427.503620,315.046913L427.780199,316.278596L426.804552,317.171063L422.934275,317.226944L421.596797,317.970523L421.449127,319.056137L421.336995,320.155257L421.384011,321.307947L421.704866,322.555248L421.407297,323.607529L421.024589,324.631607L421.949371,326.109948L421.931499,327.273360L422.432587,328.631178L422.798169,329.952748L420.997902,330.463697L421.043746,331.668162L419.360668,332.194927L417.651885,332.690350L416.712827,333.481990L418.118420,335.252013L417.875464,336.344781L416.254131,336.837346L415.234827,337.578584L414.791079,338.571778L414.386975,339.583453L413.518287,340.376776L412.827724,341.248690L412.544091,342.315903L412.187727,343.350273L411.637002,344.288343L411.118105,345.241770L411.356243,346.592288L410.838060,347.552318L410.328291,348.516841L409.746294,349.441664L408.665050,350.085028L408.925716,351.484514L408.154453,352.300013L407.185940,352.994888L406.157536,353.645906L407.619576,355.805276L408.023931,357.349404L406.959899,357.989422L404.941283,358.010209L404.387115,358.952662L402.866067,359.258794L402.170899,360.098801L402.008964,361.299230L401.770357,362.456072L400.432142,362.850731L399.960112,363.846126L399.596826,364.923359L401.838854,367.914996L404.912402,371.587996L402.511635,371.213059L397.762627,369.001800L398.754662,371.159670L398.349653,372.254070L396.341769,372.072703L394.926861,372.341964L393.053410,372.216570L393.251933,373.794045L392.913684,374.938189L391.040300,374.771425L390.194991,375.472596L389.919475,376.674555L390.259226,378.439923L388.741906,378.542185L389.087974,380.344725L390.442814,383.120724L391.296116,385.476686L389.362730,385.191692L388.367175,385.791725L386.599513,385.620587L383.481915,384.064621L382.946723,385.075172L381.658516,385.313968L380.939044,386.134531L382.155189,389.016671L381.655843,390.108504L379.408993,389.297030L377.389377,388.693111L376.413811,389.226734L375.588811,389.927037L375.408532,391.374221L375.155552,392.757311L373.496721,392.483174L372.743093,393.276023L373.937958,396.463933L372.002616,395.825887L370.142941,395.244448L369.040814,395.597395L368.117380,396.173588L367.683228,397.393424L368.832867,400.752646L366.743924,399.787672L364.857699,399.053904L363.909909,399.593728L363.235355,400.519508L362.758976,401.740684L361.886910,402.400099L360.229345,401.891404L359.514749,402.773758L358.864248,403.763395L358.128074,404.631875L358.004687,406.479870L358.068594,408.669424L357.828043,410.412638L356.287293,410.033379L353.117819,406.873494L351.940861,407.010305L351.400361,408.243596L350.682117,409.184848L349.253173,408.858536L348.506924,409.754811L348.009425,411.127758L347.098697,411.746564L345.506595,411.054317L344.421874,411.316306L343.961706,412.818254L342.859394,413.050372L341.585037,412.917080L340.551864,413.270229L339.632096,413.862883L338.656984,414.339482L337.495205,414.400684L336.686868,415.250711L336.057162,416.530995L335.689186,418.463660L333.513543,416.097897L333.311319,418.474115L333.310008,421.436281L334.161245,426.691692L331.976800,424.204336L330.286634,422.913812L328.523404,421.349236L327.228151,421.005628L326.085346,421.065300L324.449737,419.669177L323.470875,420.157077L322.634969,421.090384L322.006852,422.705959L320.329817,421.007424L319.390879,421.643526L318.455082,422.307143L317.880794,424.248071L317.098367,425.534532L315.931426,425.463018L314.672987,425.024701L313.414553,424.543956L312.066072,423.656466L311.239255,424.854572L310.257479,425.451671L309.352242,426.408999L308.025086,425.492152L306.712004,424.561087L305.656141,424.803332L304.637362,425.235435L303.692754,426.075284L302.521075,425.722727L301.466448,425.992228L300.365590,425.993655L299.280200,426.075173L298.189264,426.111984L297.137609,426.404806L296.047739,426.436828L294.959766,426.470420L293.878923,426.548773L292.837804,426.958746L291.929704,428.612635L291.040080,430.659284L289.935153,430.749305L288.666791,428.995218L287.435409,427.370412L286.407631,428.151082L285.303166,427.941405L284.258852,428.663256L283.167337,428.672565L282.060337,428.330598L280.979183,428.509310L279.892813,428.585046L278.790720,428.049501L277.706643,428.081941L276.629710,428.806371L275.537036,427.924923L274.453804,427.911577L273.361541,428.758297L272.267450,429.022543L271.187744,428.545513L270.115062,428.048284L269.041031,427.753860L267.941748,428.084718L266.856883,428.042973L265.756742,428.250746L264.716639,427.510480L263.611808,427.765935L262.378625,429.534270L261.170822,430.718491L260.051317,430.791677L258.929690,430.860606L257.997791,429.185250L257.019169,428.097571L255.920996,428.079767L254.859414,427.771608L253.637701,428.632220L252.214501,430.770373L250.877656,432.129261L250.106347,429.832670L249.104944,429.088622L248.198267,427.850923L247.333065,426.469934L246.468457,425.177135L245.389658,425.050885L244.134097,425.782125L242.667106,427.444108L242.052667,425.094674L241.165416,424.085800L240.095180,423.906436L238.982897,423.896701L237.961983,423.505858L236.817817,423.602232L235.923845,422.731771L234.853745,422.541672L233.746081,422.480732L232.672685,422.288255L231.771108,421.507880L230.549823,421.807538L229.618915,421.141482L228.679746,420.518193L227.392336,420.976820L225.416495,423.459345L224.210463,423.559641L224.077324,420.572060L223.136381,419.959043L222.257434,419.187274L221.239893,418.803341L219.001067,421.617119L216.497043,424.977142L214.444850,427.047957L212.984727,427.561301L211.344537,428.470862L211.733466,424.531181L212.599110,419.621824L212.638615,416.761125L212.470611,414.454439L211.164071,414.708919L210.216599,414.166060L209.144723,413.888620L208.100395,413.547334L207.093699,413.124791L206.359327,412.156040L205.132369,412.171166L204.117927,411.758708L202.763105,411.988683L201.617079,411.804374L201.289206,410.109199L200.265088,409.707861L199.887884,408.155494L199.038187,407.460278L197.944494,407.188710L196.057781,408.246896L195.981761,406.246172L194.552047,406.503724L194.351397,404.757880L193.433036,404.185278L192.315922,403.922414L190.556434,404.635797L190.107700,403.327766L189.674992,402.017305L188.940406,401.170706L187.968262,400.674245L186.527131,400.841278L184.309807,402.072344L182.832209,402.226999L181.829003,401.712752L180.625081,401.463205L181.888980,397.942965L181.946274,396.075666L180.555076,396.100586L178.895759,396.444340L179.018276,394.539526L178.334820,393.659102L177.053360,393.507797L175.404566,393.779150L174.976447,392.587768L173.199231,392.973471L172.864983,391.679467L171.811079,391.212022L172.549214,388.747526L171.053154,388.777357L170.224769,388.065194L168.269132,388.551478L167.929378,387.308064L168.056066,385.595842L166.559266,385.565605L163.554396,387.030737L165.115449,383.907552L165.524669,381.975408L164.852320,381.117584L163.604480,380.808556L163.245311,379.653892L161.946480,379.376937L160.834347,378.915364L158.190826,379.818234L155.395206,380.807035L155.295030,379.393490L154.481490,378.609169L156.416622,375.493522L156.241815,374.204854L155.389671,373.486602L155.104692,372.304379L151.953809,373.424081L150.643125,373.036064L151.273057,371.126184L152.669593,368.659157L152.880878,367.132635L151.993512,366.442049L150.344931,366.303745L151.180737,364.350842L150.204134,363.718035L148.331948,363.704976L145.742505,364.160407L145.418234,363.035977L146.365742,361.066822L147.279061,359.152132L146.312870,358.487467L143.313533,359.113918L142.531734,358.298003L144.484049,355.785951L144.426787,354.547645L143.668752,353.739319L143.298751,352.698211L142.493881,351.912969L140.444165,351.833629L136.166695,352.977248L139.826534,349.667036L140.298465,348.165853L140.149313,347.014517L139.600901,346.079351L139.107628,345.114923L138.129794,344.396240L138.243324,343.125235L137.326011,342.369202L136.376343,341.620991L132.787261,342.109984L132.039492,341.228755L131.021855,340.465438L131.158327,339.177723L130.757190,338.135362L130.266018,337.132430L128.955960,336.473331L128.271804,335.541391L128.226759,334.346800L128.227530,333.140246L129.815913,331.324538L131.817200,329.384393L131.355601,328.398493L131.095475,327.337973L130.811980,326.287541L130.146438,325.371235L129.728195,324.365990L128.959582,323.475962L127.295142,322.869573L127.369567,321.692468L127.722348,320.435804L126.394174,319.695177L125.602241,318.781774L126.200160,317.464325L127.542504,315.953894L127.475767,314.848993L127.163126,313.811927L126.882910,312.766022L126.669449,311.703408L126.166127,310.711042L125.136714,309.837221L124.677454,308.823424L124.349154,307.777865L123.535649,306.832853L121.203589,306.187078L119.485632,305.390156L119.719617,304.204025L120.688070,302.891607L121.281946,301.661216L120.356314,300.694722L120.014508,299.624640L119.023311,298.650595L118.305813,297.625092L118.905518,296.410854L117.683711,295.444179L117.904082,294.284946L121.520542,292.738346L121.499402,291.639794L121.366850,290.553909L121.457356,289.446716L117.476433,288.696280L118.273522,287.509047L120.629701,286.221113L122.410258,285.005614L122.272576,283.928600L122.182811,282.848067L122.357625,281.755340L122.390479,280.671048L122.113343,279.597114L121.987916,278.516225L121.868453,277.433817L120.308971,276.362645L118.905157,275.269246L119.641602,274.167454L119.855289,273.069507L121.561145,272.003535L121.557666,270.915943L120.863326,269.804605L120.961613,268.715237L120.614764,267.605310L121.192861,266.540586L122.207027,265.510309L122.501982,264.443714L122.015796,263.320618L122.038764,262.231916L122.018196,261.138306L122.079123,260.050966L122.238098,258.973270L121.082741,257.748914L123.193115,256.895698L123.249610,255.811251L123.488748,254.750072L123.572360,253.668363L123.683257,252.589720L123.772545,251.507028L121.796863,250.087429L120.246788,248.708839L123.591284,248.172199L124.392821,247.212468L123.989055,246.030374L122.949086,244.712607L125.153775,244.046603L125.586622,243.030817L125.680093,241.942956L125.894915,240.880772L126.358380,239.876940L126.398816,238.773191L126.861501,237.772310L127.115487,236.720404L127.265433,235.640520L127.669515,234.628320L127.229205,233.380094L126.452755,232.023377L123.696904,230.062171L127.569083,230.073331L128.633726,229.262195L128.775767,228.167084L129.298765,227.194005L129.790435,226.213294L129.959315,225.123886L130.827316,224.277519L131.252252,223.279837L131.126641,222.080590L131.367799,221.011155L131.931261,220.063197L132.517230,219.126899L133.164637,218.218304L133.533181,217.199803L133.994563,216.219327L134.473912,215.247239L133.907794,213.822776L132.659324,212.079865L132.658355,210.870303L135.067992,210.759648L136.498972,210.224816L136.132781,208.850688L135.048410,207.113681L135.391354,206.054161L136.739972,205.497624L137.903463,204.861572L138.592790,203.990602L138.741726,202.836793L139.513081,202.011716L140.319440,201.210466L140.913729,200.296290L141.140006,199.174862L140.151029,197.347818L141.060349,196.602844L140.960222,195.264115L139.571728,193.133816L139.900084,192.019948L139.684086,190.561335L144.977330,192.578988L146.075914,191.989349L146.723319,191.114899L147.017759,190.007121L143.014197,185.994682L143.567090,185.006579L144.573717,184.332138L147.984236,185.361838L150.108281,185.528831L151.389074,185.114591L151.452281,183.815662L152.635152,183.342664L153.010505,182.267619L152.875645,180.792699L154.430281,180.622130L155.117536,179.782886L156.014134,179.112641L156.543543,178.147252L155.130484,175.566861L155.128941,174.123675L157.782104,174.929515L159.433814,174.915684L158.489398,172.644512L156.127106,169.067909L156.248164,167.656950L156.909944,166.725310L158.210673,166.385153L159.893826,166.419778L163.443295,168.264532L164.212505,167.487010L165.013169,166.740658L166.368684,166.549177L167.422787,166.069105L167.879386,164.983481L167.206837,162.712232L166.322665,160.174017L166.927658,159.180812L166.188137,156.719537L167.162362,156.099068L170.592411,158.229363L169.380281,155.176191L166.900511,150.597415L166.600269,148.452368L171.342525,152.239059L174.881593,154.711999L175.196422,153.347891L175.801135,152.323012L178.139976,153.464564L180.347464,154.492792L180.933279,153.476274L180.599446,151.243725L182.166319,151.493262L184.117662,152.289075L184.704066,151.257649L184.138628,148.612181L183.773177,146.188350L184.180937,144.818644L184.688707,143.572213L187.911579,146.318896L190.214578,147.789673L190.743889,146.622533L191.720933,146.130348L192.917003,145.985502L192.938490,143.979173L192.643230,141.413469L193.682114,140.982646L196.288333,143.181359L197.641610,143.337752L198.369323,142.435196L199.121267,141.563293L200.261070,141.373638L201.196372,140.823686L201.761593,139.588560L202.048271,137.804930L203.903178,138.977586L204.877246,138.494406L205.924980,138.157644L206.015048,135.895265L206.857989,135.114152L208.426135,135.838028L209.544548,135.648758L210.663138,135.470164L210.916788,133.390772L212.227791,133.630169L212.981190,132.616045L213.386979,130.765495L215.040161,131.836724L216.153342,131.653226L216.946801,130.684531L218.836659,132.474871L219.808350,131.978724L220.333860,130.296990L220.296468,127.036011L221.215582,126.291725L222.166762,125.621648L223.549756,126.186896L224.001944,124.040515L225.259816,124.250549L226.888226,125.638338L227.965916,125.360003L229.304739,125.936299L231.008142,127.779361L231.879625,126.878952L233.286807,127.836227L234.182539,127.008667L235.142161,126.388715L236.262380,126.365296L236.766289,123.921567L237.999584,124.314880L239.308083,125.065471L240.532898,125.518277L241.642830,125.502815L242.750268,125.491020L243.705537,124.764126L244.734426,124.366472L245.787700,124.080846L247.021858,124.760338L248.088417,124.574929L249.162269,124.432468L250.151324,123.777553L251.243516,123.734978L252.043279,121.752477L253.010033,120.756382L254.098181,120.567462L255.347114,121.628698L256.450500,121.629465L257.450672,120.739671L258.573313,120.895740L259.020163,114.294802L257.980820,90.583989L253.298626,20.131685L257.187173,46.678764L262.294379,95.778783L264.559601,111.300046L265.998734,116.158503L267.138440,116.387280L268.207597,115.049914L269.133836,109.154682L270.057027,100.215489L271.246918,97.903608L272.700971,112.021910L273.915800,120.596038L275.009604,120.046566L276.105449,120.301179Z" />
<line x1="50" y1="575" x2="100" y2="575" fill="none" stroke="blue" stroke-width="1.0" stroke-linejoin="round" stroke-miterlimit="10" />
<text x="125" y="578" style="text-anchor:start;fill:black">n1_4mer:GRV/n1_4mer:RV</text>
<path style="stroke:green;stroke-width:1.0" d="M276.389503,176.916889L277.084768,176.905066L277.713045,179.270162L278.260927,182.965523L278.849217,184.485740L279.414741,186.037717L280.387180,180.035959L281.370801,175.203794L282.168083,173.975659L283.267033,169.117050L283.782278,171.931359L283.381551,184.239113L283.494650,189.623651L284.796610,183.147190L285.383337,183.778349L286.246196,182.061419L287.124683,180.424033L288.203935,177.487252L288.304309,181.720153L288.966525,181.804804L289.637573,181.834559L290.431546,181.123037L290.067962,187.224234L291.652958,181.948890L292.306526,182.096865L292.746289,183.347140L295.094990,175.017237L295.839647,174.984910L296.041172,177.482121L297.474367,174.304918L296.940624,179.871010L297.035392,182.458508L296.159292,188.850654L297.332570,186.776397L298.620477,184.391527L300.514331,179.891853L300.619449,182.133715L299.682652,187.939802L301.365805,184.452210L302.832349,181.878290L302.260409,186.092214L303.118698,185.558557L304.138840,184.557943L306.896325,178.350163L305.829195,183.760533L305.139267,187.843104L305.546653,188.650288L308.338388,182.840204L309.768737,180.973734L310.968433,179.807752L310.945251,181.869713L310.735423,184.330593L311.031516,185.444194L311.454184,186.215109L311.695262,187.399260L310.562468,191.763048L310.598620,193.285455L309.971849,196.252383L313.608446,189.697848L314.691758,188.932582L316.056317,187.606918L314.374297,192.707085L314.808273,193.291778L315.711321,192.920056L316.924320,191.957475L320.854793,185.749246L321.144885,186.728570L318.360315,193.467217L318.223011,195.095912L319.567253,193.987489L320.200868,194.196408L320.660772,194.714403L321.870500,193.929135L323.458350,192.536341L328.608964,185.233203L330.226269,183.995744L331.686434,183.064347L330.032510,187.145901L327.380169,192.682064L329.223823,191.102778L326.312020,196.828310L325.613007,199.071177L325.944437,199.734700L327.064027,199.242284L329.217237,197.294200L329.612888,197.896820L330.747008,197.465976L328.864602,201.192804L328.699023,202.503767L329.431137,202.593419L330.491552,202.261334L331.325481,202.242803L330.174830,204.762678L333.634085,201.437776L335.003470,200.804206L334.200939,202.847929L334.502131,203.519478L332.157723,207.316711L337.227962,202.362905L337.783148,202.756957L337.096469,204.561142L336.904866,205.773281L337.134286,206.499513L344.597448,199.355458L348.325637,196.427717L349.825947,195.950153L352.230784,194.558652L349.613933,198.378181L344.250740,204.886298L339.784264,210.331164L340.753839,210.286707L343.092554,208.927994L341.995337,210.907781L340.949639,212.796884L341.736155,212.942428L346.386814,209.554601L345.165747,211.582928L344.000688,213.518355L341.436930,216.641717L342.964495,216.147557L345.156967,215.113362L345.280911,215.863010L345.174880,216.796264L346.323388,216.691509L349.446743,215.012859L349.614689,215.744320L344.550139,220.565273L344.943545,221.051938L345.320737,221.551181L346.099981,221.749273L347.407420,221.566471L352.390346,218.731654L355.268666,217.503650L351.155447,221.262089L351.038819,222.147221L351.086069,222.909841L353.477316,222.085284L353.538575,222.849425L350.243567,225.801778L350.691634,226.270698L352.352979,225.972689L353.046379,226.304703L350.664712,228.532066L354.354864,227.036630L354.768676,227.554723L355.609553,227.824373L353.651742,229.715049L352.668695,231.010661L355.191898,230.328880L364.430499,226.009322L364.768206,226.647860L364.511330,227.601159L360.132032,230.689398L359.129671,231.965750L358.124345,233.220226L358.209050,233.913378L360.187977,233.684204L359.076892,234.956236L358.596992,235.908875L360.600741,235.708428L362.200728,235.719456L363.650283,235.819495L364.818601,236.061307L363.959569,237.180039L360.149046,239.510094L359.865883,240.331650L362.282479,240.063844L367.597713,238.695225L367.634786,239.435674L368.870777,239.722059L371.866353,239.377299L369.728234,240.923405L364.587266,243.487689L362.739181,244.834446L362.782908,245.513066L363.249447,246.050382L362.984999,246.825874L359.566086,248.579643L359.427941,249.277803L358.701976,250.145550L361.163163,250.077514L360.977505,250.789871L363.074709,250.871362L360.258637,252.290871L362.418707,252.377467L365.350168,252.300490L368.365117,252.244897L367.545414,253.137997L362.597186,254.960973L362.964698,255.531576L363.800466,256.005429L365.528014,256.305516L367.508133,256.578870L369.808775,256.818000L362.499377,258.861518L364.365909,259.170987L364.170477,259.856272L367.221126,260.009496L368.175500,260.531063L369.333955,261.034777L373.819388,261.085364L376.733943,261.409192L377.490034,262.046464L375.027271,263.076979L374.553646,263.848071L374.550145,264.561942L376.815163,265.053079L374.119242,266.024814L375.178328,266.643921L377.019581,267.217625L377.256718,267.927726L377.320306,268.651258L373.286596,269.600159L370.715127,270.421246L372.959409,271.009166L373.141987,271.697902L370.533499,272.463015L370.026321,273.149981L366.642790,273.865191L369.101874,274.501386L369.424799,275.168557L368.874275,275.832574L371.845895,276.545066L371.695811,277.227900L373.948965,277.981237L373.648043,278.671760L375.777219,279.466076L373.770891,280.078433L378.257416,281.042772L374.700384,281.543582L371.843597,282.045383L367.617720,282.397850L366.096506,282.926140L365.689707,283.538438L370.492717,284.673547L365.083822,284.770768L363.985555,285.289911L364.664908,286.012660L367.739445,287.057716L366.081777,287.498910L365.537163,288.078237L363.084219,288.361551L363.102550,289.003482L365.508604,290.043999L368.637316,291.246481L370.577918,292.281482L368.785110,292.644280L367.745963,293.129938L365.293572,293.315533L361.902643,293.269557L362.368398,294.014693L363.863805,295.000481L363.257643,295.521974L362.937980,296.105346L362.477845,296.651400L364.103292,297.724746L368.518667,299.557672L372.873489,301.443742L373.276618,302.301088L363.489457,300.258780L362.918499,300.770712L362.383262,301.287415L364.031874,302.472596L364.456245,303.299095L365.045510,304.188783L362.760006,304.136505L366.679272,306.160435L372.606380,308.948135L373.246355,309.952799L373.737104,310.917346L377.246224,313.016107L373.105563,312.269695L371.980447,312.630531L367.231942,311.541804L360.415952,309.543365L360.789988,310.403777L365.767390,313.212538L369.434030,315.546044L363.765291,313.859111L358.746169,312.371007L358.175471,312.825107L358.540413,313.707550L358.256852,314.294916L356.145823,314.003797L356.936797,315.100955L353.813975,314.267045L356.780155,316.470548L359.021958,318.358310L362.369815,320.872524L362.933131,321.965869L362.124665,322.330311L362.477210,323.327482L359.358994,322.387836L358.839588,322.880499L356.230465,322.156635L350.885575,319.775465L351.073551,320.615933L355.903858,324.294823L358.196065,326.503112L355.932778,325.898527L353.309496,325.026347L352.447072,325.251432L349.580481,324.145653L349.531312,324.874030L351.202086,326.777301L353.207075,328.953336L350.012888,327.537866L350.268198,328.515379L356.240205,333.632249L361.727879,338.531956L358.648389,337.191370L362.748651,341.210163L360.032556,340.111130L357.568388,339.157170L351.856388,335.596818L349.434066,334.546815L346.774511,333.257773L343.388833,331.317965L348.537731,336.437388L349.490566,338.134761L346.339463,336.337655L344.151249,335.313433L347.406218,339.061118L348.207786,340.700665L343.707587,337.546286L346.132023,340.680747L348.527097,343.863559L350.072785,346.316161L349.032811,346.332686L347.179492,345.539735L343.070323,342.473225L339.360103,339.705810L339.029673,340.292183L338.641041,340.822178L341.400595,344.657028L344.761639,349.228695L346.281510,351.930694L339.970525,346.123548L335.174856,341.818128L334.296823,341.788560L333.107032,341.389780L335.031453,344.576892L336.381947,347.169470L333.424753,344.686842L332.860474,345.015247L335.652414,349.461622L332.618133,346.768807L334.077338,349.663679L330.393628,346.036467L329.849830,346.376049L329.828456,347.404064L335.801159,356.484312L331.253420,351.514422L328.563004,348.946917L329.378832,351.203671L330.024217,353.274889L330.782593,355.560694L328.794207,353.877099L326.413192,351.545139L327.835554,354.879517L326.164306,353.556594L326.021229,354.563706L327.184709,357.660860L329.011583,361.912476L329.624371,364.303453L326.490899,360.536003L320.689457,352.130013L319.935373,352.097295L322.118922,357.176243L321.561318,357.553496L320.425199,356.889438L321.700645,360.612842L319.365069,357.719695L318.387835,357.291881L316.745314,355.554594L314.757295,353.067146L315.112177,355.163187L315.205113,356.791636L314.670185,357.168552L314.435168,358.181611L313.661658,358.065066L313.592048,359.474564L312.161810,357.892467L312.757384,360.844851L312.406433,361.708414L314.032026,367.268123L309.687535,358.644536L309.543909,359.994763L309.824775,362.456864L311.117337,367.606232L311.730241,371.184960L311.491547,372.629451L309.569586,369.523745L308.779938,369.433001L307.606932,368.231067L304.598959,361.594131L303.732589,361.046283L303.017615,360.926457L303.781609,365.438200L301.473125,360.269985L302.202674,364.862966L301.803270,365.859641L302.465069,370.593113L301.963795,371.416618L300.914849,370.262412L299.071327,366.026511L297.761486,363.608153L297.465052,365.097900L298.161131,370.774633L297.799625,372.291178L296.680947,370.559718L295.292269,367.469926L293.792485,363.629673L293.701220,366.384791L292.748274,364.968184L292.629834,367.825949L291.731274,366.630983L291.149822,367.135433L289.923067,363.832489L289.140905,362.986907L288.204324,361.045490L287.549090,360.826456L287.147331,362.399094L286.342967,361.079362L286.053609,363.731801L285.552327,364.894381L285.808360,373.070268L285.549154,377.373162L284.670533,375.847896L283.326610,368.822917L282.371280,365.319904L282.060822,369.793790L281.233718,367.534047L280.598887,367.921142L280.032525,369.689482L279.225676,366.769763L278.624032,368.043248L278.071275,371.407117L277.279239,367.023787L276.531616,361.624948L276.018653,371.136919L275.325226,367.610487L274.675964,365.716148L273.982116,370.521536L273.342242,368.440960L272.766631,364.952992L272.201855,362.667699L271.487949,365.028872L270.858640,364.820941L270.193422,365.335561L269.480026,366.519697L268.919807,365.174132L267.957389,369.472501L267.033642,372.538923L266.309111,372.860630L265.463610,374.386019L264.750759,374.403989L264.527380,369.971399L263.651761,371.624441L262.768623,373.138052L262.204124,372.060064L261.388397,372.891184L260.304129,375.466588L260.221430,371.265346L259.863579,369.144980L258.945112,370.534664L258.645966,368.267448L258.145413,367.274881L257.714395,365.983602L258.120737,360.535937L256.940965,363.219664L254.705128,370.686877L254.931542,366.423749L254.102845,367.079425L254.444270,362.692200L252.876107,366.461400L252.171358,366.532629L251.428461,366.738686L251.517643,363.777673L250.805940,363.915691L249.925341,364.640673L249.078814,365.199111L250.410761,358.335870L248.935274,361.085109L248.228326,361.213278L247.952551,359.971380L246.422280,362.626326L243.749722,368.567323L243.609442,366.817536L243.848263,364.053108L243.670749,362.565395L243.813927,360.256278L241.930568,363.457688L239.489482,367.974089L237.419864,371.339768L236.732418,371.086093L236.852417,368.845349L236.709430,367.317084L235.801000,367.647289L236.313646,364.660437L235.175831,365.529083L236.462471,360.947257L235.934849,360.496523L237.928857,354.635290L237.625873,353.821944L237.157655,353.370509L235.797853,354.739116L234.701199,355.524035L231.430199,360.540618L230.864218,360.154852L229.853151,360.615632L229.207888,360.368108L230.973559,355.698862L231.554213,353.309974L232.136803,350.986012L231.015387,351.699250L230.479256,351.375330L226.495310,356.871265L227.804364,353.390087L223.390487,359.363155L228.288749,350.155087L227.519206,350.199803L224.974937,352.999925L222.349204,355.828277L223.553180,352.769781L225.806981,348.230169L225.559170,347.484474L222.800666,350.376087L219.940999,353.314348L216.366653,357.155265L215.104258,357.679160L216.759690,354.206945L217.207958,352.441834L218.666546,349.382193L219.476785,347.243321L216.878885,349.524927L215.057115,350.748209L219.570793,344.033779L218.458275,344.406484L217.353102,344.748252L213.043685,348.890119L213.499047,347.300569L211.023029,349.140750L211.731258,347.278473L209.925693,348.287101L213.830589,342.914258L213.771522,342.019007L212.964803,341.943508L211.343504,342.724449L210.512909,342.641527L210.191943,342.021114L206.677307,344.661461L204.974386,345.393275L206.691373,342.701286L208.822582,339.666224L208.612366,338.958635L206.350058,340.206852L210.290450,335.597961L207.336232,337.470738L206.612849,337.247055L203.796847,338.893858L201.933226,339.637699L201.237725,339.327332L199.365733,340.022406L200.499496,338.135476L200.356629,337.353468L197.408088,338.888828L200.751777,335.258215L195.954850,338.227850L195.177309,337.927783L199.380098,333.750765L200.955338,331.690407L201.618355,330.362700L198.691010,331.727499L196.957527,332.162297L201.577162,327.983617L199.728580,328.510847L196.307354,330.108049L190.820485,333.066110L194.077403,329.977642L197.771453,326.672204L200.453504,324.116822L195.350009,326.673979L191.410054,328.392562L193.870087,326.015688L196.968186,323.299647L197.452342,322.243484L192.480097,324.474600L196.697300,321.195308L197.391210,320.047900L188.894301,324.167792L183.488042,326.398695L190.554585,321.645906L193.820588,319.094234L195.660205,317.369952L194.703264,317.152717L196.436841,315.535387L194.228937,315.952726L193.415271,315.641371L191.315903,315.949862L189.780917,315.955346L184.051567,317.918433L185.497869,316.463302L182.738731,316.950286L179.850793,317.452645L179.239283,316.914655L178.394105,316.471664L177.150078,316.187306L176.291939,315.727846L177.478735,314.432085L179.303316,312.907850L183.698000,310.420844L189.792259,307.364022L189.033588,306.957228L184.625232,307.869239L186.493967,306.481511L185.270299,306.202518L187.637201,304.687461L187.650491,303.994380L186.858090,303.565855L184.081028,303.755800L185.755096,302.532446L185.100124,302.038583L184.324187,301.573009L185.897953,300.427838L190.006092,298.605660L190.578738,297.803727L191.068970,297.034591L186.760528,297.498780L187.114817,296.746604L187.447932,296.007151L184.860731,295.953775L184.946069,295.262644L184.891255,294.605414L178.653921,295.248795L173.912930,295.498595L173.774209,294.781244L173.106972,294.163313L174.457958,293.172795L174.989571,292.346041L175.289766,291.567289L177.554204,290.482531L175.657560,290.063198L177.077940,289.138978L179.797370,288.058563L177.932420,287.614504L176.907387,287.041756L183.376903,285.589314L182.540475,285.022811L182.223705,284.392726L184.377852,283.526572L173.809847,283.798230L176.648702,282.849861L179.082600,281.972196L187.379299,280.745464L183.313676,280.360075L186.133838,279.563803L185.846587,278.945573L185.619917,278.321410L185.992603,277.676343L182.727014,277.120438L182.774630,276.465797L181.596223,275.822777L180.543015,275.162927L176.864215,274.474102L178.113084,273.794419L184.666492,273.235902L185.115470,272.607613L181.826500,271.859455L181.682303,271.192640L178.694601,270.387198L180.135245,269.782425L186.822098,269.523432L186.642426,268.883673L180.853035,267.812472L181.319134,267.180207L183.708092,266.728033L188.444310,266.538605L187.690423,265.840079L186.418536,265.071767L185.959933,264.381191L185.195463,263.644268L188.080656,263.382972L188.288588,262.784949L188.074922,262.126241L185.322724,261.068761L180.239111,259.590803L176.341908,258.238889L182.882673,258.677919L186.204297,258.616894L185.113905,257.756438L181.451644,256.365874L188.010134,257.030699L189.276217,256.658139L189.553588,256.083528L188.658612,255.242783L189.806667,254.869363L186.594865,253.448113L186.808258,252.837126L186.142020,251.999298L184.612721,250.918999L184.254155,250.133712L182.531762,248.956157L183.572399,248.548822L177.319562,245.988387L184.633426,247.462566L187.970952,247.804407L187.863188,247.091691L185.846604,245.747902L187.398056,245.567983L187.266439,244.830471L188.343584,244.512752L189.386725,244.196508L190.811200,244.033728L189.827943,242.985306L191.096897,242.782143L189.851954,241.610100L192.476536,241.962948L193.609910,241.745819L193.071645,240.846680L191.191123,239.363828L186.892210,236.796685L185.925363,235.625534L183.107935,233.599535L190.392173,236.158018L194.443776,237.324870L193.783133,236.312396L189.159530,233.361363L189.918225,232.982299L192.539365,233.547599L192.795682,232.944367L192.285830,231.941548L188.501974,229.190122L189.660740,229.026808L191.053761,229.007068L191.188426,228.305916L194.989292,229.677848L192.534510,227.512613L190.991648,225.828482L189.461689,224.116053L187.132690,221.884345L185.677646,220.137097L183.751696,218.060023L193.695935,223.461577L194.201700,222.976211L195.198339,222.814596L196.913521,223.142847L191.403970,218.626579L190.909386,217.422321L189.869612,215.820284L195.075422,218.595251L199.210776,220.705363L202.121494,222.005378L200.061999,219.692042L201.640259,220.049918L202.786984,220.106052L201.760528,218.502727L202.460275,218.218374L203.150913,217.933583L205.407737,218.917555L204.405605,217.280385L202.494583,214.855925L199.842086,211.751588L206.715601,216.704695L204.044371,213.549971L198.674014,207.947016L191.175803,200.301116L194.150652,201.918052L196.324540,202.863858L195.367877,200.941599L199.118558,203.420661L204.669483,207.709014L204.813106,206.887594L204.784273,205.887104L206.257580,206.371797L207.680882,206.833782L212.334793,210.640698L210.232596,207.532017L206.498809,202.623211L207.246450,202.389738L203.250497,197.006993L204.380289,197.135262L199.046621,190.052875L198.533281,188.249782L201.790387,190.749231L201.295342,188.955968L200.321294,186.558445L206.087806,192.204935L208.928535,194.464480L209.930588,194.530133L214.901439,199.591131L220.470354,205.575390L218.011737,201.377512L215.683183,197.237444L217.506620,198.510306L221.942071,203.360256L220.118044,199.789279L217.435854,194.928495L216.626070,192.576411L216.327738,190.898332L217.234733,190.935638L221.043938,195.274987L226.412467,202.100251L224.983673,198.792241L226.053028,199.257325L225.092475,196.557514L221.289991,189.245670L219.222467,184.526235L222.218167,188.011985L226.289455,193.424318L229.888017,198.220415L227.677471,193.135894L229.757589,195.438862L232.633104,199.251869L231.024954,195.052580L228.728065,189.447219L227.800096,186.234535L230.742119,190.325837L232.805890,192.862152L233.042621,191.879551L232.960597,190.229627L234.129282,191.098234L236.311041,194.126945L237.363667,194.874212L236.729750,192.001831L234.318989,185.104278L236.293558,187.828890L236.476764,186.557629L236.397990,184.633684L238.438971,187.704956L237.385765,183.374079L237.000068,180.535301L241.141209,189.076897L241.391608,187.908653L241.710889,186.882664L240.077931,180.541590L239.849193,177.811705L240.927440,178.664757L242.618694,181.341305L242.878757,179.917820L243.454794,179.394757L245.774120,184.269072L246.661169,184.839370L246.998779,183.656489L248.451431,186.154073L249.393972,187.041774L250.660403,189.130120L249.418223,182.248487L249.757072,180.880901L250.302693,180.237419L251.587338,182.486137L251.696581,180.096245L252.558504,180.727811L254.097079,184.345303L254.716121,184.093523L256.355334,188.563781L256.690047,187.099092L256.497137,182.910173L256.788415,180.913707L257.601137,181.569947L259.017023,185.661499L259.693801,185.804218L260.562741,187.138674L260.971449,185.675792L260.502827,178.224166L260.834502,175.639338L261.389809,174.441463L261.927135,172.979241L262.978042,175.600333L263.617445,174.946217L264.319656,174.804109L265.416097,178.617100L266.642393,184.438854L267.898648,191.599309L268.489607,191.551098L268.260925,179.940870L268.020065,165.558301L269.119064,171.221632L269.879826,171.696753L270.778264,175.584948L271.562634,177.820470L272.379014,182.321426L273.113725,185.992470L273.650099,179.305596L274.312975,177.158819L275.006104,176.516920L275.702057,176.752700Z" />
<line x1="50" y1="625" x2="100" y2="625" fill="none" stroke="green" stroke-width="1.0" stroke-linejoin="round" stroke-miterlimit="10" />
<text x="125" y="628" style="text-anchor:start;fill:black">n0_4mer:PS</text>
<path style="stroke:red;stroke-width:1.0" d="M276.819198,146.585331L277.718355,147.092792L278.573533,148.907856L279.376106,151.491387L280.213124,152.413499L281.001798,154.056629L281.947796,152.525755L283.011709,149.499591L284.015962,147.932342L285.237755,143.876330L286.083769,144.921100L286.178466,153.952307L286.851880,155.881469L287.932143,153.748503L288.813190,153.645749L289.790554,152.770833L290.687924,152.629748L292.009666,149.381442L292.538079,152.036126L293.308712,152.830451L294.244259,152.513856L295.226760,151.951611L295.265495,156.946915L296.676895,153.876826L297.396467,154.773564L298.432408,153.980491L300.503701,148.106157L301.584303,147.414753L302.310969,148.423984L303.316238,148.130753L303.563264,151.156920L304.339289,151.784509L304.441922,155.128204L305.403218,154.893743L306.559227,153.938375L308.334471,150.741213L308.411565,153.888576L308.167695,158.011516L310.017288,154.740519L311.257560,153.689149L311.354243,156.433355L311.274351,159.616622L313.854427,154.402397L315.332003,152.789008L315.105466,156.307270L315.933276,156.628930L315.077652,161.707925L318.169920,155.662167L319.006931,155.990577L320.039192,155.801535L320.376001,157.435650L320.668939,159.126861L321.718877,158.880915L322.101384,160.283640L322.648187,161.251895L322.785145,163.154841L323.354874,164.004224L322.703284,167.584463L325.618831,163.161899L327.250565,161.700123L328.243019,161.666125L327.735685,164.781569L328.352525,165.491608L329.071150,165.984699L330.457010,165.152297L333.087831,161.939133L333.160605,163.743470L332.935815,166.060103L333.800582,166.298484L333.755123,168.197366L336.225461,165.549953L336.355633,167.118039L337.073805,167.632315L338.081795,167.650997L341.625901,163.436685L345.669442,158.547811L345.820285,160.141669L345.072295,163.136334L342.665978,168.659686L343.633245,168.807956L342.191817,172.636112L342.236661,174.132638L342.550914,175.200296L343.647051,175.112534L345.313232,174.224929L346.931923,173.445582L348.223298,173.159613L347.176796,176.100783L347.601699,176.984256L348.416711,177.338012L349.166925,177.781541L349.968945,178.160520L350.042617,179.471071L351.848231,178.586338L352.835018,178.755050L352.310979,180.776034L354.555302,179.429397L355.058256,180.199057L356.908116,179.390768L358.173210,179.294607L358.050397,180.792145L358.022106,182.158381L357.019706,184.576658L362.118578,180.311973L365.598058,177.919408L366.657262,178.168716L368.727710,177.375933L366.797925,180.731761L364.024494,184.866135L361.922524,188.232349L363.645430,187.757372L365.064182,187.608341L363.176200,190.644752L363.752513,191.289414L363.569853,192.639396L366.474939,191.138380L366.713717,192.107483L365.776211,194.115722L364.170725,196.672324L365.667966,196.487958L367.132480,196.354859L368.359352,196.443946L368.680066,197.300832L369.705751,197.575895L371.949492,196.880762L372.197452,197.810090L369.365678,201.142924L369.377275,202.205990L369.565883,203.123126L370.558093,203.431233L372.286861,203.206525L376.429703,201.253313L378.254433,201.038972L377.306229,202.809195L378.265815,203.222382L378.370455,204.230363L378.188579,205.423279L378.482846,206.286123L374.936749,209.656071L375.586148,210.243930L378.771447,209.228325L378.724635,210.283328L377.692409,211.933559L381.438769,210.666677L381.150374,211.863263L382.014601,212.371184L381.177821,213.866485L380.152416,215.444663L382.508259,215.112225L388.166301,213.006677L388.298798,213.973501L388.104476,215.107905L386.406450,217.013755L385.715896,218.366288L387.249457,218.581427L389.235515,218.593257L389.712187,219.365091L389.267914,220.576992L390.233102,221.115387L389.533279,222.428112L390.122089,223.141966L388.884541,224.666785L389.271805,225.460208L388.258189,226.849809L387.616762,228.061620L390.487463,227.822505L392.134173,228.115245L394.877671,227.999575L395.149026,228.872413L394.851208,229.958252L397.959366,229.781567L395.324774,231.715560L391.574171,233.995048L389.567566,235.610596L391.419782,235.893727L391.554776,236.765015L391.080782,237.829180L391.600678,238.571313L393.161159,239.000489L393.257829,239.884541L392.956160,240.881467L392.505415,241.912028L392.005683,242.945533L392.260123,243.767091L394.654911,244.035265L397.350849,244.260663L399.378959,244.686151L399.010507,245.704998L396.187485,247.276743L395.824403,248.259037L395.325696,249.262129L398.244355,249.549428L396.949907,250.716134L397.745307,251.460457L395.548974,252.765814L394.545103,253.825471L394.583851,254.691201L398.435185,254.935665L397.096622,256.039991L399.151837,256.620531L402.136765,257.098030L403.530050,257.829455L404.333148,258.653810L401.803177,259.885353L402.624088,260.703640L401.609393,261.724719L402.303867,262.562938L400.795421,263.609303L402.180723,264.391595L404.650746,265.109833L404.190748,266.064916L403.734188,267.012337L402.999250,267.967754L400.027326,269.019030L400.186708,269.899935L399.947975,270.795984L399.300402,271.699081L399.304984,272.579970L397.959745,273.477395L398.856250,274.343727L398.800280,275.220995L399.846463,276.107268L401.842912,277.023635L402.452629,277.936546L403.045294,278.857882L401.687675,279.715418L402.314442,280.642108L400.208812,281.437772L402.613189,282.468106L400.725880,283.251699L398.724459,284.000969L397.240002,284.763933L394.428017,285.391212L395.298781,286.326132L399.075204,287.568993L395.859148,288.108754L394.428470,288.810200L395.064534,289.746347L397.098344,290.874875L397.438650,291.801930L396.695604,292.579123L396.025260,293.358398L397.802681,294.518903L397.852165,295.420023L397.184146,296.199480L397.982720,297.236555L396.696854,297.895462L394.725428,298.403872L395.202262,299.382338L392.877603,299.781428L393.521611,300.794819L393.218598,301.607333L393.353074,302.519868L393.587301,303.461263L392.327075,304.039301L395.117599,305.634580L397.709211,307.223006L399.885465,308.741916L399.048882,309.460582L393.030060,308.690967L392.020806,309.301195L392.165415,310.246749L391.173406,310.847668L391.669272,311.907818L393.921524,313.549113L393.928306,314.484446L397.729559,316.713970L400.453157,318.633425L401.465989,319.992410L400.058256,320.492125L399.590752,321.324012L396.713077,321.238043L396.148525,322.008272L392.682178,321.625052L389.615255,321.351958L390.033149,322.471832L391.766039,324.157816L392.375739,325.396260L389.472581,325.113088L387.037808,324.995907L387.685058,326.244969L388.813546,327.734280L386.796463,327.764819L384.299380,327.536171L384.488020,328.584890L384.377119,329.494349L382.197744,329.359755L384.546591,331.529927L386.744950,333.670410L387.530213,335.103389L386.950030,335.816645L385.678938,336.145461L383.971243,336.213525L383.721039,337.090210L381.379399,336.756319L380.732135,337.386106L378.906491,337.305380L381.257522,339.742843L382.810031,341.740561L380.683718,341.464363L378.011652,340.806791L377.586775,341.563296L377.007914,342.219271L375.351643,342.152191L375.902676,343.560699L377.824492,345.936349L375.456560,345.358220L375.965526,346.786074L380.329939,351.018163L389.211250,358.664725L395.878580,364.871480L394.646285,365.278311L385.406778,359.540679L377.022896,354.273684L374.533221,353.476190L372.464243,352.970822L371.783638,353.557125L367.257375,350.973625L370.263790,354.588510L369.514153,355.105828L369.122740,355.926711L365.895371,354.278567L369.595763,358.693231L369.868254,360.139952L365.717395,357.582381L367.507868,360.418433L368.281875,362.365368L369.552187,364.820818L368.043837,364.650342L366.613736,364.532476L363.723283,362.945023L360.845282,361.306396L359.953549,361.628628L359.857460,362.765736L361.055404,365.275753L362.737557,368.355668L363.712220,370.742818L359.558437,367.566530L355.132387,363.978961L353.708647,363.652932L353.040809,364.164976L354.975666,367.692380L355.743129,369.933267L354.433770,369.745605L352.541642,368.830845L354.107146,372.118085L349.960769,368.370692L350.990946,371.039594L348.289673,368.986252L348.058519,370.071005L347.711494,371.019624L351.791497,377.914195L349.066120,375.742789L346.826315,374.160505L346.362016,375.003022L345.853291,375.792593L347.164445,379.219210L345.808700,378.825022L342.713082,375.812790L343.032747,377.855418L343.041479,379.469450L342.302570,379.953212L342.126803,381.329217L343.483061,385.199184L343.445511,386.899145L340.658446,384.070945L336.414772,378.676480L335.283911,378.431355L336.674483,382.561402L335.749194,382.708685L334.447033,382.167040L335.040916,385.068574L332.826463,382.818776L332.151484,383.396814L330.730284,382.540943L329.502060,382.019862L328.695809,382.309737L328.469409,383.775976L328.586333,385.992962L328.289253,387.404388L327.487270,387.769571L326.963050,388.742500L324.660992,385.772918L324.548664,387.653398L323.919248,388.395211L324.151586,391.189835L321.687004,387.579717L321.116709,388.469462L321.955835,392.922086L321.926725,395.321916L320.784126,394.894240L320.032538,395.480011L318.827789,394.838483L318.078171,395.426539L316.707941,394.253043L314.225210,389.756502L313.268918,389.604993L312.887268,391.195425L312.253495,392.058745L310.739714,390.117684L310.953429,393.770742L310.003207,393.656371L309.815830,396.177689L309.104429,396.949962L307.947397,396.113903L306.783886,395.191806L305.631204,394.244168L304.718712,394.189287L304.928103,398.757041L304.159255,399.429166L303.006414,398.439490L301.326664,394.968086L300.117231,393.458623L299.429473,394.376289L298.835205,395.823584L297.886058,395.501423L296.694744,393.814073L296.320150,396.632377L294.770270,392.686417L293.902940,392.617026L292.982073,392.179514L292.218128,392.759206L291.444710,393.318396L290.710678,394.224996L290.056399,395.863822L289.029191,394.513493L288.787070,400.097767L288.240886,403.494797L287.176629,401.982393L285.974553,398.659517L285.240788,400.479843L284.197496,398.479321L283.283222,397.957126L282.391904,397.678708L281.503837,397.372966L280.589690,396.392298L279.760987,397.233401L278.965262,399.469299L278.043205,397.868750L277.119624,394.881401L276.335906,401.078183L275.432075,398.036381L274.558724,398.538272L273.657673,400.968313L272.839956,396.752723L272.006366,395.574034L271.164846,395.157878L270.278324,396.036735L269.421302,395.995029L268.600747,395.268531L267.651073,396.843247L266.827557,396.203886L265.733269,399.307772L264.570776,402.693894L263.747437,401.705442L262.772279,402.434445L262.010915,400.976830L261.280469,399.416151L260.193360,401.070960L259.133859,402.301466L258.397872,400.931479L257.756816,399.008593L256.691904,400.161138L255.840673,399.800927L255.288255,397.602422L254.167262,398.965277L253.612026,396.976128L252.559698,397.855354L251.974946,396.193467L251.867083,392.226427L250.764656,393.391371L248.763735,398.699537L248.791663,394.394544L247.739445,395.118562L246.445374,396.816057L245.048466,398.821302L244.226515,398.387893L243.722768,396.728675L243.311823,394.800695L243.047400,392.429134L241.620610,394.329677L240.510451,395.014828L240.716141,391.192094L239.889392,390.961336L238.879681,391.318878L238.319875,390.233079L236.854467,391.963597L234.557790,396.089141L234.064692,394.735975L233.707835,393.041432L233.506763,390.973782L233.347248,388.870014L232.093125,389.771943L230.305554,392.019568L228.900142,393.180777L227.201369,395.017609L226.763893,393.663724L225.972605,393.203154L224.853347,393.522193L224.829063,391.277387L224.332970,390.177287L224.108763,388.498774L223.151781,388.473066L223.818801,384.946154L222.653744,385.398129L222.270884,384.200623L220.818187,385.208499L219.247985,386.402252L217.518187,387.854081L216.101896,388.637035L215.154525,388.489829L215.271470,386.349126L215.746221,383.610017L215.267506,382.666366L215.438794,380.587517L215.098092,379.455423L214.543981,378.712292L210.437015,383.976128L212.171960,379.354892L207.977435,384.558001L212.328233,375.834426L211.272198,375.931718L209.525775,377.088520L206.718230,379.824585L206.880290,377.973417L209.292502,372.814105L208.445126,372.575122L205.764240,374.976768L203.521197,376.669405L200.986537,378.705415L199.112747,379.753595L200.546857,376.256432L199.606318,376.028184L200.657087,373.161722L201.199786,371.024205L198.810893,372.692339L196.683503,373.966447L199.395298,369.161157L198.716982,368.639452L196.553387,369.914284L195.523573,369.784892L195.352118,368.634112L192.788299,370.272362L192.518393,369.227330L191.648175,368.871359L192.465410,366.635270L190.725161,367.244919L192.017735,364.547938L189.244169,366.236037L189.206130,364.990542L189.101447,363.831806L186.534045,365.199425L185.454847,365.015300L185.406184,363.797224L186.813680,361.172542L186.928401,359.849225L184.525132,360.937165L186.467904,357.906843L184.461501,358.589889L184.347229,357.513570L181.772649,358.657181L180.105501,358.947350L179.694487,358.114971L178.109030,358.296688L178.159607,357.067422L178.688159,355.454262L176.590955,356.029561L178.154797,353.597424L175.077267,354.927733L174.546442,354.192015L176.176210,351.778377L178.466025,348.908777L178.708697,347.646866L174.806189,349.483286L173.420631,349.401923L177.682774,345.226360L174.780136,346.246827L172.980327,346.443844L168.332279,348.578228L171.087540,345.596622L174.009887,342.570632L174.564120,341.174688L170.812661,342.592906L167.948316,343.378602L167.882678,342.356955L171.818286,338.866776L171.069310,338.316521L168.206445,339.027806L170.984288,336.364906L171.140044,335.285349L165.585101,337.477734L160.285890,339.430437L165.978667,335.221137L166.946901,333.691218L167.709898,332.296296L167.774276,331.289406L168.395778,330.003432L167.071525,329.722138L166.808276,328.895625L165.480576,328.592086L164.005711,328.342623L160.074949,329.232964L159.333122,328.584542L157.066951,328.622990L155.859274,328.156921L155.246237,327.416458L154.709789,326.639035L152.785709,326.442835L152.110222,325.705443L153.019217,324.322131L155.312342,322.411275L158.191712,320.316074L161.314543,318.180567L160.933109,317.403324L159.058381,317.167884L160.260089,315.812877L158.571392,315.486770L160.049833,314.062148L158.480903,313.676795L156.871940,313.284048L157.590733,312.134135L158.124997,311.056453L157.091459,310.462561L154.429879,310.333688L155.414379,309.127205L158.168000,307.448166L161.186582,305.743086L161.047519,304.916186L158.290140,304.757992L157.437714,304.090006L158.205651,303.023513L155.743887,302.722277L156.754296,301.605953L155.291592,301.045562L152.495537,300.746431L149.559495,300.437022L148.494745,299.721282L148.646512,298.763661L148.568813,297.852212L149.028279,296.848828L148.515636,296.015928L150.166862,294.833928L147.801551,294.286978L146.995412,293.482597L147.825969,292.443952L146.440517,291.707062L147.223158,290.685764L150.735305,289.361858L149.503549,288.604085L150.549514,287.599439L151.655410,286.605403L145.174823,286.287974L147.370448,285.186690L149.590691,284.115951L155.022903,282.867137L154.135078,282.065886L155.148013,281.155109L154.449293,280.335091L155.652787,279.435004L155.075638,278.605978L154.415415,277.771040L152.982111,276.939308L152.323146,276.080638L151.947358,275.212252L148.696963,274.323158L150.550387,273.451452L153.575426,272.628733L155.063912,271.807753L151.337719,270.831788L150.686005,269.927991L149.283684,268.978484L151.407230,268.202380L152.418647,267.386697L154.671527,266.670569L153.268649,265.706577L151.883884,264.723168L152.772063,263.924917L153.394749,263.112277L156.378296,262.555025L155.227631,261.575882L154.339334,260.610157L156.228633,259.981429L157.996321,259.362111L157.783865,258.487743L157.055577,257.532221L155.921678,256.501351L152.763271,255.122919L149.768063,253.724235L152.624692,253.316569L154.323826,252.734839L155.480706,252.071667L153.307935,250.759860L154.880521,250.187190L157.012320,249.754805L156.300779,248.721887L156.673379,247.923707L158.832199,247.550295L156.139281,246.023484L156.651763,245.258700L155.043262,243.949450L155.539037,243.173181L155.772527,242.329142L156.419615,241.601625L156.709396,240.777011L151.316344,238.265293L156.315875,238.833350L159.549298,238.922961L159.603605,238.040670L157.856362,236.564031L160.024796,236.371267L157.255701,234.510477L158.280338,233.935974L158.829969,233.202246L162.141819,233.488574L161.547991,232.355364L163.907762,232.341818L162.864436,231.027232L165.144537,231.020986L164.413398,229.816773L164.094402,228.766991L163.467206,227.575408L161.954369,225.983700L159.081369,223.759441L158.422368,222.477857L164.280627,224.170661L167.769206,224.849510L166.300440,223.221033L163.094819,220.718153L163.289939,219.831899L166.916088,220.666952L166.470508,219.476439L167.177259,218.870798L164.015259,216.221809L165.262933,215.883443L166.959144,215.805975L166.997509,214.828390L170.183261,215.626445L168.626504,213.745294L168.246367,212.515282L167.006638,210.758277L165.258556,208.661464L163.606152,206.580511L162.070978,204.531009L170.870412,208.992542L170.672417,207.826356L172.787408,208.159218L171.595333,206.329063L170.055684,204.230250L169.804679,202.971718L168.420058,200.909293L172.014645,202.320692L176.000258,204.077583L175.710162,202.800009L174.402602,200.754136L176.257568,201.037025L174.311586,198.459996L177.348425,199.671116L178.477330,199.445341L179.764174,199.358574L182.158737,200.181841L180.719863,197.914373L178.632508,195.062060L177.949076,193.327738L184.172531,197.459375L182.040514,194.493869L178.697020,190.397068L174.384421,185.337686L176.321415,185.801714L178.820919,186.815097L178.682293,185.423896L181.045903,186.372636L184.188251,188.112936L184.228195,186.911104L184.317900,185.742182L185.296552,185.445596L188.126436,187.033275L190.976632,188.705139L188.954127,185.366309L188.552575,183.661631L189.023406,182.860428L187.795089,180.206685L187.924334,178.991055L182.173480,171.181761L176.843821,163.643452L171.801791,156.237886L174.046984,157.145786L182.703161,165.693394L189.774494,172.605185L193.065346,175.128596L193.866904,174.664539L196.541331,176.553725L199.100856,178.368739L198.199912,175.782840L198.314864,174.468102L199.996475,175.214657L203.539983,178.513434L202.314484,175.391122L200.409483,171.244878L199.895317,168.952702L200.612506,168.371892L201.964849,168.713754L205.160595,171.805895L207.450451,173.650026L207.515996,172.177482L208.660356,172.343147L208.519175,170.508320L206.766093,166.056563L205.739607,162.656405L208.305487,165.082951L212.377364,170.125703L214.851352,172.628348L213.919112,169.335059L214.255625,168.177851L216.996895,171.295761L216.273986,168.235058L214.959829,163.990950L215.163477,162.469754L217.582350,165.148572L219.398770,166.762964L219.688608,165.424336L219.574204,163.236629L220.429107,162.973725L221.454173,163.071049L223.348682,165.037039L223.909992,164.199127L222.667763,159.357736L224.720992,161.766215L225.035801,160.291250L225.083522,158.146804L226.156911,158.379663L226.299224,156.367958L226.571035,154.609584L229.905416,160.563940L230.440472,159.530349L230.884451,158.224738L230.436386,154.462807L230.905469,153.083247L231.677792,152.512713L233.342653,154.511571L233.429124,151.945935L234.852284,153.322805L236.164055,154.434893L237.448628,155.529464L238.704996,156.601124L239.830512,157.303801L240.991002,158.177074L242.104546,158.945131L241.780613,154.556904L242.458553,153.668128L243.098639,152.595752L244.473178,154.374921L244.845909,152.196711L245.757727,152.159122L247.116128,154.069346L247.637573,152.369519L249.649037,157.473548L249.960823,154.793987L250.592549,153.522693L251.598725,154.102274L252.407850,153.682542L253.599257,155.378335L254.638153,156.342792L255.596179,156.913496L256.096510,154.635523L256.410503,150.905870L256.949088,148.385990L257.826796,148.116230L258.699446,147.790327L259.547603,147.236858L260.370873,146.408523L260.482465,138.806133L260.920417,133.405183L261.137737,124.791637L261.707967,118.893843L262.814101,118.803603L264.112736,121.427915L265.579558,127.292429L266.643555,127.537381L267.536151,124.411394L268.748129,127.778554L269.583231,121.859760L270.739842,124.359961L271.886234,128.070984L273.034922,135.695681L274.088312,145.163996L275.007755,149.887211L275.900809,148.938872Z" />
<line x1="50" y1="600" x2="100" y2="600" fill="none" stroke="red" stroke-width="1.0" stroke-linejoin="round" stroke-miterlimit="10" />
<text x="125" y="603" style="text-anchor:start;fill:black">n0_4mer:D</text>
<path style="stroke:black;stroke-width:1.0" d="M277.344390,109.512792L278.494006,110.595944L279.660978,110.537343L280.841350,110.137206L282.016470,110.007856L283.270549,108.338603L284.438875,108.613555L285.633987,108.422592L286.805733,108.614331L287.951941,109.113433L289.115023,109.346362L290.263960,109.711925L291.448034,109.687355L292.631897,109.683704L293.902882,108.930834L295.080285,109.056491L296.248908,109.252496L297.246335,110.707967L298.273643,111.822651L299.347425,112.535601L300.534522,112.477494L301.863580,111.576881L303.045920,111.623417L304.125436,112.256895L305.275231,112.479583L306.299755,113.348621L307.402175,113.782753L308.525517,114.101994L309.614323,114.575700L310.836988,114.434478L311.813331,115.386723L312.777989,116.344708L313.519216,118.170308L314.607701,118.531935L315.847523,118.308342L317.173475,117.792623L318.588563,116.998635L319.737385,117.203117L321.175587,116.419698L322.576996,115.816484L323.710732,116.133592L324.617402,117.174340L325.469612,118.350819L326.605419,118.629156L327.627760,119.247352L329.077022,118.619775L330.779618,117.321386L331.950443,117.567637L333.580176,116.579659L335.076499,116.004555L335.782617,117.518763L336.818705,118.151000L337.610908,119.381505L337.866478,121.887439L339.162023,121.829251L340.088246,122.655475L341.330538,122.742141L342.270415,123.524312L342.790154,125.223288L344.011718,125.355320L345.181647,125.610311L346.470127,125.626283L347.723563,125.731707L348.862427,126.082606L349.239353,127.948756L350.856170,127.355231L352.340299,127.054266L352.846312,128.621302L353.940735,129.066452L355.123141,129.355465L355.255648,131.530529L356.628384,131.472345L358.813134,130.030280L360.186300,130.034810L362.845572,127.904904L364.890634,126.874292L365.701441,127.897850L366.177080,129.444578L365.977666,132.024256L365.929563,134.310221L366.423086,135.720800L367.490606,136.247075L368.590290,136.729727L369.390383,137.653733L370.325160,138.377071L371.196619,139.188371L372.345997,139.609294L372.985715,140.736483L373.956656,141.403811L374.607550,142.497859L375.301004,143.524830L376.306340,144.139771L377.400667,144.644391L378.227985,145.490344L378.954126,146.458119L380.028591,146.994760L379.972922,148.894949L380.056972,150.596840L381.147034,151.097304L382.358275,151.465440L383.982968,151.375647L386.330952,150.501281L387.798007,150.644852L388.930002,151.170993L390.341664,151.405331L391.154113,152.289026L391.526926,153.628929L391.773226,155.084366L392.294690,156.243652L392.372063,157.837063L392.931755,158.934499L394.127789,159.407154L394.970720,160.227988L395.780715,161.080698L397.765647,160.840921L398.036754,162.203406L399.277864,162.675418L400.490438,163.184323L399.504163,165.635387L401.419280,165.529850L401.630556,166.906981L402.211323,167.959630L404.352009,167.714172L405.282957,168.490720L406.082836,169.377052L407.718626,169.600746L407.881067,170.998129L407.624537,172.705546L407.519735,174.275468L407.199262,175.988626L408.038134,176.823639L408.528015,177.915532L409.679887,178.528957L410.870603,179.125015L411.258908,180.289666L411.720071,181.398499L413.633897,181.523647L413.448985,183.068179L413.918846,184.167515L414.832088,184.977898L413.713425,187.081650L414.756984,187.801748L415.552261,188.682705L415.796407,189.900362L416.803987,190.657000L417.559730,191.568889L417.540440,192.930147L418.988459,193.449033L420.687427,193.844413L421.236721,194.890460L421.844546,195.904646L421.638820,197.350499L420.355439,199.343553L421.121445,200.255541L421.021721,201.606887L420.652398,203.080359L420.730756,204.321220L419.613752,206.124013L421.219152,206.625876L423.358647,206.901940L424.726388,207.554072L426.469631,208.055413L427.490607,208.891367L427.690456,210.085713L428.181073,211.154518L427.263857,212.799072L428.350602,213.619061L428.560415,214.793586L429.694975,215.609540L432.019293,215.989970L431.365629,217.496380L431.933731,218.546217L431.716444,219.875008L432.102998,220.986515L432.220950,222.188310L432.424803,223.357887L433.453406,224.260825L432.388851,225.828166L433.163738,226.813123L433.740796,227.863536L434.142767,228.968340L435.439567,229.822338L435.960538,230.903816L437.211131,231.794131L436.460167,233.216748L436.376226,234.455956L434.837473,236.044143L433.272242,237.611348L433.886535,238.652582L433.676186,239.881647L435.644698,240.637826L437.475698,241.447961L437.415032,242.658320L438.585447,243.628319L438.274918,244.885393L438.151775,246.101602L438.833066,247.176404L438.890312,248.359702L439.272567,249.490618L440.104584,250.557876L440.843036,251.647848L440.682115,252.866248L440.623896,254.067086L440.308716,255.295581L441.189579,256.383561L442.038419,257.485644L443.066584,258.580589L442.630849,259.821131L441.974209,261.072339L441.432945,262.303971L441.219382,263.503944L440.385783,264.738189L440.479290,265.908610L440.189894,267.097761L440.279200,268.266580L441.147387,269.409783L441.295292,270.583866L442.059855,271.747597L441.403670,272.939431L442.289188,274.113591L442.666316,275.299301L441.347377,276.475341L441.695252,277.659433L441.772217,278.842481L441.690830,280.022234L443.787360,281.282402L444.837682,282.526581L444.592829,283.719834L445.050975,284.951626L443.816065,286.079814L442.685981,287.199174L442.246427,288.358826L441.014241,289.444594L441.106900,290.638968L440.830259,291.798839L440.408813,292.940747L439.122628,293.978442L438.090674,295.030825L438.353799,296.238791L438.087783,297.380102L438.098383,298.559820L437.964481,299.720185L437.167955,300.775826L437.326606,301.981316L438.634146,303.391235L438.588854,304.578566L439.026385,305.859136L438.828213,307.025064L437.592581,307.980971L438.150094,309.299071L437.109024,310.281101L436.354983,311.315992L437.128706,312.698730L436.140368,313.674111L436.274975,314.916725L435.212889,315.860412L433.710267,316.676757L434.195535,318.011910L434.814357,319.396174L435.349380,320.770761L436.220813,322.257122L436.133419,323.473597L435.786006,324.613794L436.205284,325.996592L435.958922,327.175784L436.012419,328.456460L435.759915,329.639928L436.100913,331.031946L436.017976,332.284862L435.807873,333.496672L435.061369,334.512321L432.929536,334.996451L431.160263,335.593591L428.635054,335.869390L427.133771,336.524953L428.046207,338.159045L428.505219,339.624795L429.100436,341.164317L427.894941,341.933387L425.921418,342.347383L424.621201,343.042151L424.124117,344.095052L424.444935,345.533849L424.020421,346.628606L423.733868,347.792328L423.046656,348.760456L423.167143,350.135253L424.042109,351.911015L423.526765,352.982281L423.488920,354.309254L422.769602,355.275560L422.000282,356.211477L421.377722,357.226247L420.303070,357.982082L419.765667,359.040658L418.176154,359.479546L417.434756,360.408058L417.114432,361.590504L415.753418,362.134398L415.333729,363.255713L414.304694,363.991824L413.492526,364.860696L412.675049,365.722534L411.966608,366.653784L411.293248,367.607656L410.891088,368.748263L410.428395,369.851952L409.885553,370.903074L416.015023,376.772613L421.160103,382.068654L423.748865,385.592635L422.213276,386.078801L415.070192,382.254549L407.821173,378.204517L404.141621,376.820701L404.002845,378.201518L403.249152,379.096983L403.666607,380.956500L403.603584,382.442373L403.726209,384.102385L403.082848,385.125605L401.677727,385.487790L399.440624,385.098355L396.517659,384.056583L396.195084,385.327005L395.502374,386.267551L394.756793,387.161085L395.382296,389.358396L393.821987,389.488310L393.410352,390.720332L392.552143,391.521002L391.309437,391.934188L391.020898,393.308550L390.362417,394.316173L391.515535,397.229717L392.042317,399.536903L391.777473,401.032291L390.156652,401.062544L387.805085,400.258707L386.109861,400.147812L384.644217,400.273227L383.843909,401.150884L382.639788,401.556858L381.274755,401.760520L379.792805,401.806670L379.002456,402.681504L378.721514,404.194907L378.276931,405.524424L377.611128,406.587916L376.150820,406.627498L375.283803,407.430411L374.103953,407.816835L373.671597,409.210512L373.224444,410.604694L372.072598,411.032497L371.523546,412.309903L370.320730,412.661298L368.991000,412.816649L367.907839,413.323323L366.704975,413.644314L364.997349,413.180028L364.475166,414.529680L363.591321,415.329129L362.786418,416.261087L362.422854,417.924531L361.337310,418.422401L360.236359,418.890557L358.711335,418.626659L357.642086,419.129275L356.483937,419.471509L355.943648,420.919667L355.081587,421.807655L353.773749,421.875474L353.133669,423.192840L351.719580,423.043315L350.555501,423.360253L349.787982,424.461921L348.258600,424.034296L346.956465,424.042877L345.941736,424.639223L344.500143,424.321945L343.856245,425.720202L343.385230,427.538867L342.821408,429.198145L342.242436,430.868509L340.781075,430.500418L338.964360,429.241843L337.215883,428.081235L336.125324,428.506495L335.236273,429.448107L334.390458,430.524947L333.571790,431.702915L332.142539,431.245052L330.836418,431.092667L330.022343,432.322122L328.902504,432.696104L327.764290,433.014685L326.686276,433.515226L325.478706,433.615294L324.439120,434.243494L323.509068,435.247803L322.521275,436.091013L321.251239,435.979024L319.938044,435.688592L318.838034,436.147643L317.379008,435.257608L316.124541,435.093665L314.959217,435.259658L313.790667,435.405030L312.753275,436.101798L311.821363,437.291757L310.743172,437.878212L309.642958,438.384141L308.612560,439.250074L307.603081,440.269025L306.408228,440.373007L305.206803,440.431466L304.040662,440.678231L302.748273,440.177046L301.527927,440.060882L300.416812,440.627719L299.154301,440.197476L297.962841,440.215841L296.898096,441.179994L295.712659,441.268914L294.704876,442.864172L293.467358,442.564622L292.245326,442.355470L291.042700,442.299208L289.681490,440.428685L288.487928,440.266870L287.337326,440.632542L286.108275,439.892543L284.977551,440.591039L283.901845,442.492702L282.708262,442.401697L281.579669,443.926166L280.382492,443.956041L279.166030,443.202573L277.969134,442.927873L276.766536,441.719607L275.585026,441.590422L274.407801,440.790291L273.237545,440.394410L272.047810,441.402743L270.874420,441.165195L269.703849,440.931878L268.524680,440.990136L267.384150,440.178316L266.178407,440.794355L264.948502,441.651143L263.786759,441.301350L262.597868,441.367350L261.427832,441.175643L260.328456,440.203655L259.172908,439.946249L258.011295,439.767819L257.003514,438.201899L255.665619,439.622351L254.288153,441.180828L253.132748,440.868817L251.815435,441.737497L250.868322,439.973362L249.899500,438.500819L248.853079,437.627703L247.612647,437.968541L246.504264,437.511862L245.385251,437.133757L244.041491,437.951586L242.996890,437.176272L241.668379,437.827331L240.253826,438.822317L238.780630,440.000745L237.853446,438.679376L237.028747,436.988054L236.008622,436.192517L235.472824,433.486272L233.872042,435.066972L232.397156,436.064813L231.181804,436.036437L229.957985,436.022989L228.752880,435.928177L227.525633,435.896304L226.408828,435.484184L225.199084,435.374739L224.333522,434.172147L223.486362,432.953498L222.689553,431.624157L221.799783,430.610894L220.954755,429.498513L219.908023,428.982320L218.466485,429.550945L217.044790,430.024855L215.667086,430.346190L214.986130,428.850491L214.364996,427.248465L213.787061,425.587511L212.932633,424.642025L211.216549,425.752921L209.838245,426.020473L208.478134,426.218811L207.168223,426.279944L206.555520,424.795021L205.738837,423.785075L204.911591,422.816286L204.192431,421.640625L202.857614,421.741199L201.663302,421.539517L200.428517,421.406242L199.157434,421.329402L198.461003,420.147108L197.606126,419.281807L196.286660,419.278684L194.660123,419.810674L193.476653,419.521045L192.013400,419.709921L191.053367,419.010437L190.258380,418.035728L189.331119,417.292626L188.051312,417.130108L186.894909,416.754838L186.026466,415.915760L184.423084,416.229061L183.963991,414.756363L183.314267,413.597086L182.111717,413.276218L181.057058,412.728367L179.144288,413.416106L177.504712,413.674509L177.280123,411.922123L176.496023,410.973371L176.660989,408.741263L176.306759,407.249793L174.293097,407.972501L173.216567,407.434213L172.427078,406.522589L171.823820,405.380959L171.505519,403.896217L170.634540,403.111402L169.076583,403.159074L167.520780,403.181483L166.591183,402.445490L166.156663,401.134865L166.006975,399.514084L164.828874,399.075427L164.354329,397.846020L163.824195,396.689976L162.684562,396.201993L162.291182,394.911447L160.840749,394.743438L159.300167,394.650735L157.518854,394.783162L157.255206,393.363000L156.188856,392.754777L155.241465,392.023791L155.117756,390.495979L153.622807,390.289605L153.612189,388.674934L153.388680,387.277947L152.670356,386.346356L152.843061,384.617029L152.060274,383.757245L151.415446,382.776836L150.531854,382.004651L148.956775,381.815372L147.915462,381.160288L145.468078,381.655997L145.152630,380.381253L144.106764,379.700896L143.299660,378.825245L143.801531,376.930977L142.447495,376.485445L141.462477,375.747235L140.481278,375.000152L140.169624,373.756660L139.767441,372.586940L140.057726,370.931170L140.200790,369.399183L138.959197,368.839460L138.959697,367.423814L137.009621,367.326831L135.001960,367.241206L133.785729,366.614615L133.509056,365.376468L134.385797,363.420288L133.188967,362.777311L131.908808,362.173831L130.169064,361.833022L129.708347,360.715980L130.359018,358.956631L130.603865,357.452605L130.415821,356.207290L127.863512,356.275163L127.489219,355.123453L127.818589,353.599513L126.280366,353.072122L126.875383,351.426263L126.783733,350.148946L126.299883,349.074851L126.396500,347.717434L126.730213,346.256814L126.477905,345.087360L125.883066,344.080818L126.125808,342.691622L125.250453,341.813634L124.769473,340.756198L124.652082,339.542421L123.334477,338.839544L122.793613,337.801743L122.074407,336.834463L120.477943,336.210051L120.292988,335.018981L118.901701,334.290021L118.438755,333.200212L118.406370,331.952992L117.535719,331.009894L117.745124,329.683656L117.551098,328.503988L116.737040,327.533054L116.059678,326.510868L116.044449,325.274370L115.489229,324.209775L115.659434,322.923793L116.631631,321.410657L116.679517,320.181315L115.556385,319.282841L114.594974,318.328331L114.340443,317.178293L112.979667,316.310989L112.569744,315.192286L112.763216,313.926923L111.821813,312.932403L112.045072,311.665782L111.642844,310.542440L110.673349,309.536088L109.097342,308.642001L108.826387,307.473154L108.821679,306.253631L109.404103,304.931164L110.748262,303.488203L110.846562,302.274808L111.855105,300.921035L113.146456,299.541697L113.830426,298.271293L114.821484,296.971045L114.967403,295.797179L114.042368,294.759007L111.422661,293.905406L110.149401,292.870159L109.579184,291.747299L108.282276,290.686350L108.972435,289.435681L109.136044,288.238350L108.672369,287.090286L109.177213,285.873331L109.990449,284.646625L109.851345,283.481361L109.033560,282.345009L108.236118,281.197032L107.859015,280.025724L107.765116,278.843066L108.379588,277.648204L109.340094,276.459268L109.846476,275.284871L109.761092,274.114505L111.346586,272.963632L111.077635,271.798806L110.279613,270.615764L109.427695,269.419151L106.985639,268.145017L106.726232,266.940082L106.438032,265.729068L106.869781,264.557741L107.696272,263.418827L108.343444,262.276820L110.306487,261.252591L111.155034,260.153994L112.110382,259.076456L112.003466,257.899523L110.799346,256.596348L110.263496,255.353727L110.592839,254.210809L110.372485,252.997044L111.275237,251.936065L111.739522,250.820832L110.914270,249.509513L111.703587,248.446147L111.538359,247.229356L111.948444,246.109228L112.636656,245.043416L113.282650,243.976479L113.016039,242.734019L112.452864,241.423004L112.621441,240.256726L112.993684,239.134387L113.312741,238.001634L112.617726,236.630112L112.735703,235.442323L112.595627,234.187249L111.835871,232.765308L113.262598,231.909882L113.535720,230.755360L113.095081,229.399193L114.322844,228.514038L115.794660,227.715163L116.863081,226.810888L117.172606,225.680724L118.668885,224.930036L117.851513,223.438050L117.983690,222.246529L118.645047,221.233172L117.767984,219.683016L118.128485,218.557930L117.980783,217.245289L118.440645,216.152063L118.546322,214.923530L118.952531,213.807646L119.598820,212.787430L120.159140,211.735467L121.557373,211.034659L121.542637,209.748762L121.377867,208.389832L121.521970,207.156720L121.539074,205.860693L122.487143,204.983999L123.270045,204.037813L124.374706,203.249736L125.876572,202.664698L126.964379,201.892493L128.066785,201.137671L128.693852,200.149946L128.939420,198.965355L128.476334,197.400180L128.776559,196.227835L128.515934,194.743496L128.913382,193.610516L130.744511,193.286322L131.121120,192.147985L132.175563,191.402427L130.901822,189.280701L129.651067,187.136792L129.041401,185.350410L127.951329,183.239961L131.160259,183.820385L133.470520,183.873085L135.479770,183.762306L137.806262,183.889774L137.294216,182.137382L137.996738,181.192504L138.346462,180.003164L139.441594,179.333085L140.244620,178.462604L140.426288,177.142848L141.293848,176.318235L141.846142,175.261161L143.143193,174.766815L144.064389,173.995655L144.418915,172.785574L144.940664,171.699866L145.373910,170.537985L146.262310,169.741078L148.040714,169.685816L148.311646,168.386646L147.615314,166.249989L148.010847,165.023000L147.769339,163.226855L148.200292,162.004028L149.922043,161.938596L150.191622,160.565400L150.465252,159.181861L151.943558,158.920250L153.076035,158.345322L154.183552,157.754479L155.667512,157.541787L157.166085,157.361869L158.072625,156.601286L159.812544,156.698560L160.540891,155.768338L160.958683,154.506557L161.405687,153.263015L161.517583,151.642560L161.999516,150.406554L157.610257,143.709973L153.765127,137.461059L151.716666,133.123609L153.001280,132.576685L158.223375,136.702127L164.116468,141.778159L168.599417,145.306700L170.471926,145.732500L172.504431,146.393345L173.649671,145.965473L174.374941,145.003632L174.547689,143.310053L175.392917,142.481869L175.567756,140.744843L176.093856,139.458141L177.720535,139.684639L178.891037,139.294802L180.240992,139.171070L181.602019,139.080232L182.342949,138.090736L183.169489,137.219364L184.566215,137.209873L184.424961,134.840242L184.802683,133.231766L184.840341,131.049528L185.166865,129.286456L187.200014,130.299709L188.804056,130.647420L190.329074,130.891980L191.990178,131.399797L193.262843,131.260950L194.283091,130.685559L195.259188,130.029779L195.681471,128.346943L196.258620,126.916748L197.095297,125.952750L198.690016,126.449933L200.634298,127.676438L202.451798,128.710147L204.152337,129.559833L204.693411,128.035368L205.507674,127.054463L205.761729,124.840288L206.203486,122.975453L207.606798,123.223190L208.578783,122.508917L209.714664,122.168701L211.146626,122.540314L211.848387,121.166625L212.463781,119.540112L213.896573,119.938465L214.550925,118.354858L215.591371,117.743470L216.953915,117.994960L218.148328,117.811090L219.400789,117.801257L220.883374,118.474735L222.285590,118.959928L223.353073,118.471713L224.482325,118.169289L225.759466,118.340132L226.613942,117.158580L227.686718,116.664073L229.047117,117.149118L229.845962,115.696958L230.925683,115.200325L231.793197,113.901993L232.878691,113.382218L234.061397,113.233335L235.402099,113.736558L236.681495,114.031707L237.904157,114.117586L238.979382,113.566013L240.013115,112.801645L241.060973,112.068325L241.765316,109.589040L242.878469,109.050924L244.226456,109.749320L245.518894,110.212317L246.936430,111.461550L248.162476,111.673953L249.209536,110.783983L250.419733,110.914502L251.515625,110.274197L252.735053,110.496022L253.632367,108.246803L254.796112,107.950692L255.972872,107.749659L257.710655,112.802858L259.651718,120.646192L261.291194,126.454458L262.896375,132.850908L263.359083,125.789070L263.722345,115.921195L264.251913,106.475663L264.833423,95.594743L265.986935,93.154843L267.483210,97.991760L269.065609,107.225811L270.518914,116.547911L271.733887,120.882210L272.806782,119.522845L273.866393,113.559869L275.010283,109.092273L276.186051,109.021492Z" />
<line x1="50" y1="550" x2="100" y2="550" fill="none" stroke="black" stroke-width="1.0" stroke-linejoin="round" stroke-miterlimit="10" />
<text x="125" y="553" style="text-anchor:start;fill:black">GC-content</text>
</g>
<g style="fill:pink;stroke:black">
<a href="" title="CP001787 ACUW01000000 ACUW01000001 ACUW01000002 ACUW01000003:1 [147500-166599];"><path  d="M389.765816,75.679135L393.226966,77.712432L396.652102,79.805825L400.040182,81.958676L389.167123,98.744878L389.167123,98.744878L386.073658,96.779231L382.946360,94.867873L379.786180,93.011384Z" />
</a><a href="" title="CP001787 ACUW01000000 ACUW01000001 ACUW01000002 ACUW01000003:2 [206000-228099];"><path  d="M428.315208,103.551912L431.284039,106.253743L434.205264,109.006977L437.077994,111.810773L439.901354,114.664279L425.562106,128.606515L425.562106,128.606515L422.984256,126.001141L420.361328,123.441153L417.694123,120.927331L414.983451,118.460441Z" />
</a><a href="" title="CP001787 ACUW01000000 ACUW01000001 ACUW01000002 ACUW01000003:3 [530000-552099];"><path  d="M494.288839,344.371500L493.044741,348.188052L491.734224,351.982311L490.357688,355.753120L488.915551,359.499330L470.314199,352.151563L470.314199,352.151563L471.630932,348.731109L472.887770,345.288197L474.084329,341.823874L475.220245,338.339195Z" />
</a><a href="" title="CP001787 ACUW01000000 ACUW01000001 ACUW01000002 ACUW01000003:4 [614500-639099];"><path  d="M464.087404,405.942559L461.773342,409.222646L459.402387,412.461848L456.975262,415.659177L454.492705,418.813660L438.884644,406.308124L438.884644,406.308124L441.151326,403.427944L443.367397,400.508643L445.532182,397.551112L447.645021,394.556249Z" />
</a><a href="" title="CP001787 ACUW01000000 ACUW01000001 ACUW01000002 ACUW01000003:5 [1526000-1548099];"><path  d="M97.977083,128.156931L100.566810,125.089820L103.209670,122.068373L105.904860,119.093510L108.651557,116.166139L123.116639,129.977779L123.116639,129.977779L120.608785,132.650596L118.147960,135.366775L115.734913,138.125487L113.370381,140.925893Z" />
</a><a href="" title="CP001787 ACUW01000000 ACUW01000001 ACUW01000002 ACUW01000003:6 [1560500-1588099];"><path  d="M117.195754,107.674509L120.140021,104.945930L123.131459,102.269151L126.169159,99.644987L129.252193,97.074238L132.379624,94.557687L144.781396,110.248323L144.781396,110.248323L141.925916,112.546043L139.110971,114.893249L136.337419,117.289224L133.606106,119.733240L130.917862,122.224552Z" />
</a><a href="" title="CP001787 ACUW01000000 ACUW01000001 ACUW01000002 ACUW01000003:7 [1737500-1785999];"><path  d="M245.363429,46.917397L249.348534,46.434906L253.341451,46.022038L257.340966,45.678918L261.345861,45.405652L265.354914,45.202323L269.366906,45.068992L273.380613,45.005701L277.394814,45.012468L281.408285,45.089291L280.851043,65.081527L280.851043,65.081527L277.186569,65.011384L273.521429,65.005205L269.856740,65.062993L266.193617,65.184730L262.533177,65.370378L258.876535,65.619882L255.224803,65.933165L251.579096,66.310131L247.940523,66.750667Z" />
</a></g>
<path  style="fill:pink;stroke:black" d="M350,550L375,550L375,565L350,565Z" />
<text x="405" y="565" style="text-anchor:start;fill:black">Selected loci;</text>
</svg>