<svg xmlns="http://www.w3.org/2000/svg" viewbox="0 0 550 650">
<circle cx="275" cy="275" r="240" fill="none" stroke="black" stroke-width="1.0" />
<line x1="275" y1="15" x2="275" y2="55" fill="none" stroke="grey" stroke-width="1.0" stroke-linejoin="round" stroke-miterlimit="10" />
<line x1="495" y1="275" x2="535" y2="275" fill="none" stroke="grey" stroke-width="1.0" stroke-linejoin="round" stroke-miterlimit="10" />
<line x1="275" y1="495" x2="275" y2="535" fill="none" stroke="grey" stroke-width="1.0" stroke-linejoin="round" stroke-miterlimit="10" />
<line x1="15" y1="275" x2="55" y2="275" fill="none" stroke="grey" stroke-width="1.0" stroke-linejoin="round" stroke-miterlimit="10" />
<text x="275" y="10" style="text-anchor:middle" font-size="15">Nitrosopumilus adriaticus strain NF5, complete genome.</text><text x="285" y="25" style="text-anchor:start">1,803,090</text><text x="525" y="265" style="text-anchor:start">0.45 Mbp</text><text x="285" y="530" style="text-anchor:start">0.9 Mbp</text><text x="-200" y="25" style="text-anchor:end" transform="rotate(-90)">1.35 Mbp</text><circle cx="356.949909" cy="49.424708" r="2.500000" fill="grey" stroke="black" stroke-width="1.0" />
<circle cx="429.048956" cy="90.964897" r="2.500000" fill="grey" stroke="black" stroke-width="1.0" />
<circle cx="482.630409" cy="154.627191" r="2.500000" fill="grey" stroke="black" stroke-width="1.0" />
<circle cx="511.253462" cy="232.759007" r="2.500000" fill="grey" stroke="black" stroke-width="1.0" />
<circle cx="511.477455" cy="315.968440" r="2.500000" fill="grey" stroke="black" stroke-width="1.0" />
<circle cx="483.275463" cy="394.253224" r="2.500000" fill="grey" stroke="black" stroke-width="1.0" />
<circle cx="430.037531" cy="458.203067" r="2.500000" fill="grey" stroke="black" stroke-width="1.0" />
<circle cx="358.163174" cy="500.130821" r="2.500000" fill="grey" stroke="black" stroke-width="1.0" />
<circle cx="276.292112" cy="514.996522" r="2.500000" fill="grey" stroke="black" stroke-width="1.0" />
<circle cx="194.265730" cy="501.013225" r="3.000000" fill="black" stroke="black" stroke-width="1.0" />
<circle cx="121.944085" cy="459.861805" r="2.500000" fill="grey" stroke="black" stroke-width="1.0" />
<circle cx="68.020663" cy="396.488905" r="2.500000" fill="grey" stroke="black" stroke-width="1.0" />
<circle cx="38.977379" cy="318.512322" r="2.500000" fill="grey" stroke="black" stroke-width="1.0" />
<circle cx="38.305406" cy="235.305301" r="2.500000" fill="grey" stroke="black" stroke-width="1.0" />
<circle cx="66.085520" cy="156.869818" r="2.500000" fill="grey" stroke="black" stroke-width="1.0" />
<circle cx="118.978387" cy="92.634279" r="2.500000" fill="grey" stroke="black" stroke-width="1.0" />
<circle cx="190.625972" cy="50.320176" r="2.500000" fill="grey" stroke="black" stroke-width="1.0" />
<circle cx="272.415814" cy="35.013913" r="2.500000" fill="grey" stroke="black" stroke-width="1.0" />

<circle cx="275" cy="275" r="185" fill="white" stroke="grey" stroke-width="0.5" />
<circle cx="275" cy="275" r="170" fill="none" stroke="black" stroke-width="0.5" />
<circle cx="275" cy="275" r="170" fill="aliceblue" stroke="black" stroke-width="0.5" />
<circle cx="275" cy="275" r="163" fill="white" stroke="none" stroke-width="0.5" />
<circle cx="275" cy="275" r="140" fill="none" stroke="black" stroke-width="0.5" />
<circle cx="275" cy="275" r="140" fill="aliceblue" stroke="black" stroke-width="0.5" />
<circle cx="275" cy="275" r="133" fill="white" stroke="none" stroke-width="0.5" />
<circle cx="275" cy="275" r="110" fill="none" stroke="black" stroke-width="0.5" />
<circle cx="275" cy="275" r="110" fill="white" stroke="black" stroke-width="0.5" />
<circle cx="275" cy="275" r="109" fill="aliceblue" stroke="none" stroke-width="0.5" />
<circle cx="275" cy="275" r="80" fill="none" stroke="black" stroke-width="0.5" />

<g style="fill:none;stroke-linejoin:round;stroke-miterlimit:10">
<path style="stroke:blue;stroke-width:1.0" d="M277.192355,117.705119L278.327841,115.844442L279.351483,118.937189L280.385373,120.510411L281.487698,119.935703L282.438036,122.651367L283.511317,122.497283L284.468969,124.231803L285.532086,124.120970L286.598991,123.994414L287.654104,124.043230L288.741718,123.740379L289.856652,123.215644L291.467101,118.052431L292.093204,122.344458L292.898865,124.633266L293.939217,124.818467L295.076012,124.273938L296.031194,125.093121L297.075565,125.242410L298.238555,124.624547L299.206533,125.281669L300.443210,124.305978L301.769682,122.914053L302.541378,124.674011L303.659476,124.496223L304.381353,126.350631L305.587191,125.726584L306.437406,126.835890L307.461488,127.093919L308.413345,127.668359L309.503712,127.629829L310.691069,127.206654L312.126871,125.825064L312.811842,127.467763L313.734507,128.131524L314.536562,129.218358L315.997375,127.897950L317.310139,127.179085L319.394030,123.887423L320.638178,123.563135L320.802347,126.765692L321.332491,128.673380L321.929994,130.298441L323.251033,129.684232L324.103295,130.492888L324.843004,131.604489L325.903231,131.780699L326.700430,132.688640L328.172435,131.755403L329.218069,132.001247L330.499305,131.643959L330.660195,134.151889L331.631985,134.564227L332.818212,134.454612L334.357754,133.522797L335.507077,133.554742L336.357592,134.286693L337.013393,135.445466L337.319521,137.349802L338.500295,137.303988L339.287451,138.113878L340.877056,137.232748L344.311377,132.609051L344.826956,134.054555L346.200955,133.764257L344.292899,139.899784L345.039724,140.755995L346.075182,141.055964L347.445922,140.741049L349.023716,140.075625L348.749169,142.769810L349.514609,143.559215L351.419048,142.363080L353.136166,141.541715L353.856357,142.439204L357.031024,139.264443L356.715861,141.890509L357.471311,142.736274L359.473508,141.604975L359.506177,143.588627L359.662900,145.340206L360.233436,146.432748L360.047947,148.633749L360.352120,150.070357L361.010493,150.971384L362.050094,151.321930L363.855909,150.607299L364.760428,151.174751L365.626683,151.795903L366.097016,152.947813L366.014098,154.815477L366.844281,155.459479L367.571095,156.235986L368.664655,156.544960L369.458132,157.237761L370.413274,157.730895L371.846503,157.649547L372.038203,159.072574L373.400047,159.096460L374.145124,159.855085L374.908487,160.590888L375.933457,161.030202L377.057831,161.366150L377.739281,162.198780L379.408981,161.958229L381.681681,161.100585L384.228444,159.998505L384.696370,161.106106L384.052768,163.342347L385.381840,163.546158L384.778828,165.689362L385.676557,166.321022L386.773337,166.763772L388.354278,166.753426L386.961391,169.565572L385.660412,172.236407L388.508865,171.055063L393.012895,168.433151L389.153851,173.353212L389.049911,174.862074L389.868034,175.552865L390.816876,176.135118L390.673042,177.643288L392.644426,177.376630L392.724339,178.687803L392.655847,180.104912L393.061894,181.127918L394.364086,181.442883L394.692777,182.524611L395.486657,183.245051L395.924474,184.236145L397.862572,184.113172L397.521999,185.679524L397.546569,186.962999L398.350153,187.682576L400.465770,187.491128L402.212619,187.584282L404.129657,187.585572L405.353321,188.075811L403.714804,190.458411L404.281813,191.369846L406.439033,191.267938L410.573135,189.956795L417.990586,186.686589L415.231075,189.735264L412.517419,192.692462L409.857046,195.556034L407.270210,198.316625L408.955079,198.582189L411.595873,198.332508L409.817459,200.561475L409.372389,202.024541L408.824865,203.525113L409.168725,204.538825L410.810381,204.879855L411.958558,205.491687L413.001005,206.167890L412.437775,207.640842L411.691482,209.184084L414.110335,209.209725L419.662285,207.813681L426.924074,205.724114L428.442541,206.319388L428.711804,207.480783L426.588224,209.670073L426.470996,210.968593L423.974133,213.244309L418.674498,216.611244L417.554486,218.220761L415.797573,220.054346L416.095011,221.068312L417.015358,221.847889L418.811893,222.315219L417.825321,223.802779L419.988992,224.164685L419.402825,225.497578L420.051196,226.402350L418.620367,227.992454L418.700925,229.072372L421.298294,229.363514L427.649501,228.547187L421.236054,231.610077L423.715225,231.999864L424.851007,232.800880L423.877095,234.192825L429.864237,233.709949L422.826537,236.687812L422.507479,237.865625L422.324710,239.001571L422.533320,240.038365L423.332232,240.939094L422.841592,242.134731L422.786636,243.226170L423.427372,244.169070L425.876579,244.755641L424.517113,246.110571L423.693629,247.343242L426.924487,247.836353L425.571704,249.159831L425.138542,250.310083L426.374249,251.189162L425.287704,252.432238L426.921716,253.268426L429.330720,254.020349L434.932876,254.392965L431.339705,255.962638L427.758542,257.478229L425.609042,258.787406L426.318986,259.777017L426.414993,260.832573L425.869809,261.943580L426.507328,262.951601L425.584675,264.080520L425.758553,265.123610L426.078281,266.159635L426.298625,267.204391L426.267639,268.262662L426.781879,269.299366L427.572983,270.334228L427.680672,271.395805L427.339294,272.466004L426.360799,273.537354L426.584230,274.591683L427.187010,275.650710L426.985930,276.709162L427.493889,277.777892L427.377771,278.838256L427.509562,279.905347L427.290521,280.961022L427.307095,282.025086L428.031507,283.127660L427.572385,284.170018L427.929865,285.261641L428.516541,286.376256L426.852746,287.317655L427.520497,288.442406L427.662119,289.527785L427.395091,290.574816L433.373605,292.301925L434.910064,293.598428L431.093846,294.258082L428.195458,294.985368L426.567124,295.848239L427.122967,297.006007L427.459943,298.140649L428.944649,299.464792L429.586669,300.672643L430.013106,301.854904L434.453252,303.770168L435.729465,305.158559L433.633300,305.911256L425.970947,305.511795L423.531176,306.097694L424.391449,307.366215L424.014883,308.373577L424.037249,309.471102L422.991285,310.317530L422.825972,311.368837L422.667110,312.423082L423.323222,313.691432L425.877920,315.482987L425.888023,316.615128L425.645827,317.680290L422.026671,317.764065L424.478036,319.609278L429.520803,322.289495L441.093882,327.100028L443.549851,329.163525L434.426158,327.460232L427.436377,326.340339L424.341191,326.459505L421.776064,326.722786L423.103869,328.353936L420.640845,328.616294L419.187956,329.225469L417.157071,329.595560L418.291274,331.180189L418.991337,332.615641L418.664024,333.649490L416.107277,333.756339L415.924339,334.835979L416.679307,336.325440L419.854977,338.902355L422.714569,341.397490L423.434691,342.968625L414.558657,340.084622L413.567635,340.802066L411.576826,341.027076L412.243177,342.533273L412.904272,344.056524L413.172839,345.399697L416.839455,348.517458L417.481605,350.114658L413.378506,349.188561L410.222670,348.714495L408.168852,348.803405L406.706359,349.197392L406.899832,350.522178L406.315558,351.407745L407.118993,353.112803L409.946971,356.059309L407.405297,355.793615L410.986310,359.284943L407.141151,358.181970L406.759028,359.229250L406.282342,360.219169L405.384484,360.933825L406.581204,363.044035L409.502568,366.362260L407.401073,366.289735L405.950348,366.642503L399.966863,363.758969L398.481212,364.004955L397.642760,364.706000L396.339852,365.057766L395.729130,365.916191L396.237007,367.629769L396.512531,369.188707L396.013465,370.159340L393.645881,369.643169L393.515424,370.898241L394.838621,373.358820L394.593485,374.560639L394.241783,375.683066L395.707792,378.370484L399.782510,383.376455L406.579420,390.898313L401.228430,387.756978L395.066727,383.766816L394.603601,384.874547L389.560875,381.723749L389.543816,383.208731L386.838836,382.138211L384.627642,381.495019L382.768135,381.158460L382.047014,381.928272L382.364043,383.750309L381.498986,384.388547L381.961970,386.407076L388.798059,395.192862L389.285488,397.405229L383.105969,392.416581L381.235128,392.010753L375.846142,387.642685L375.179553,388.479728L374.283000,389.056543L373.513779,389.778427L373.329025,391.191965L374.180026,393.867738L373.072620,394.219856L371.785736,394.341120L370.459913,394.397690L371.144939,396.987960L370.547680,397.983599L368.082015,396.549047L366.069556,395.653889L367.429295,399.246764L372.227023,407.616090L372.977844,410.612213L368.145027,405.834324L363.790107,401.575201L361.921265,400.766394L361.501381,402.042847L362.907954,406.062873L365.949751,412.662217L364.796741,412.998600L361.044039,409.269276L360.666481,410.753566L358.600747,409.548701L357.406696,409.712344L359.495445,415.314389L357.007222,413.355224L355.472482,412.948836L352.679577,410.319222L352.457628,412.137397L350.001002,409.976216L347.569966,407.772271L349.143557,412.926745L354.580652,425.547683L371.026700,459.764999L366.289940,453.683376L348.275800,420.925314L342.171697,411.126785L340.985568,411.105266L340.391268,412.309072L339.492590,412.889449L339.466969,415.375734L339.991051,419.157586L337.445977,416.129264L335.933189,415.345605L334.543163,414.803183L333.346002,414.684750L332.812779,416.166521L331.655892,416.138397L330.516977,416.138559L329.378850,416.124609L328.324825,416.316867L327.463971,417.024324L326.683848,417.970082L325.484209,417.755655L324.828953,419.089737L323.891169,419.633578L322.508463,418.839896L321.524086,419.227147L320.581242,419.749372L319.744658,420.627633L319.764476,424.392807L318.022206,422.304347L316.785561,421.866046L315.365215,420.724873L314.459354,421.413471L313.667493,422.560713L313.027583,424.356103L311.930913,424.395659L311.246672,426.141530L309.622207,423.937443L308.256747,422.724253L308.521913,428.900158L310.083538,441.646327L309.770247,446.063570L305.995044,433.128233L303.667728,426.854076L302.006870,423.735621L301.060295,424.440128L299.954375,424.236604L299.052535,425.274334L298.201949,426.728584L297.279470,427.816179L296.141846,427.448122L294.823887,425.653938L293.805355,426.044673L292.799609,426.575587L291.597044,425.375341L290.620055,426.178637L289.705480,427.731784L288.892026,430.646537L287.676323,429.151171L286.414509,426.747341L285.329084,426.418966L284.286391,426.697048L283.238483,426.934010L282.144267,426.243752L281.178994,428.499909L280.312729,434.660053L279.402453,442.395634L278.221993,441.712187L276.953280,433.089260L275.830080,429.129034L274.760170,426.428003L273.691385,427.994450L272.614874,428.643780L271.540703,428.776351L270.483011,428.275566L269.497966,425.961196L268.292682,429.449809L267.250187,428.729850L266.162142,428.965551L265.064868,429.280002L264.177763,426.575621L263.150595,426.127355L262.085095,426.187861L261.016471,426.259302L259.931795,426.468229L258.995790,425.240013L257.914228,425.431963L256.752197,426.254506L255.558171,427.222403L254.185791,429.397366L253.538477,426.231039L252.629264,425.109934L250.837196,429.730397L250.160210,427.104047L249.054025,427.201359L248.597352,423.620122L247.531923,423.596379L246.176134,425.071817L244.914939,425.951065L243.609764,426.966828L243.144754,423.969687L242.223342,423.219370L240.977731,423.921525L239.771929,424.396440L238.709522,424.238076L237.368975,425.184185L237.109547,421.870293L236.175313,421.269509L235.026590,421.472719L233.666157,422.405197L232.924161,421.126161L231.953677,420.670693L230.537007,421.695084L229.929800,420.049030L229.104178,419.152937L227.953695,419.280246L225.351517,423.735472L224.288310,423.467324L222.716093,424.652318L222.705660,421.397281L221.861108,420.551400L221.185427,419.272927L219.886492,419.668096L216.837638,424.530169L217.191123,420.609482L215.129431,422.790792L214.770953,420.748453L215.639705,415.856837L212.823457,419.712958L210.877265,421.420623L209.179592,422.491198L208.231092,421.857750L209.380336,416.700493L208.017805,417.038264L205.713340,419.309328L199.537784,429.404442L192.369174,441.127323L191.417774,440.143585L192.930066,434.388731L198.889985,420.316549L202.696212,410.739166L202.146763,409.503072L201.757706,407.999569L200.797192,407.549090L199.819369,407.126886L198.449394,407.379586L197.943916,406.136174L197.497417,404.816159L196.112656,405.067438L195.118879,404.659299L193.328577,405.519524L193.899033,402.621207L192.710956,402.518740L191.194582,402.903123L190.331009,402.277189L189.926174,400.973046L189.188367,400.175675L188.474914,399.349172L187.251624,399.251143L185.532635,399.829770L185.173457,398.503898L184.351796,397.824883L183.387912,397.337148L182.252697,397.070595L181.526858,396.262128L181.638065,394.387740L180.043614,394.698084L177.971897,395.574077L175.254951,397.196861L177.040486,393.316477L177.219644,391.438458L176.644814,390.479089L176.185653,389.393441L175.428690,388.658759L173.717392,388.999364L172.001189,389.316443L172.233414,387.472467L169.247716,389.132545L167.940239,388.940451L164.949799,390.499390L166.223504,387.581022L168.161849,384.043720L167.717966,382.980963L166.849645,382.348157L166.591629,381.114634L165.662657,380.541920L164.425030,380.257811L164.405048,378.817286L162.726876,378.930183L163.151447,377.098938L162.738582,376.050534L161.964056,375.330493L160.855161,374.901220L159.891573,374.336392L158.723205,373.939213L156.830877,374.137892L157.057643,372.555243L157.158558,371.096508L156.647378,370.147744L156.210381,369.143674L155.899686,368.045905L153.677489,368.427724L154.105878,366.762770L153.242285,366.087820L151.172241,366.297405L151.081897,365.037710L148.641552,365.472044L148.688351,364.113526L148.225865,363.122965L149.585588,360.887634L149.727919,359.513706L146.952515,360.093585L148.064341,358.085238L147.310710,357.313099L144.711217,357.709189L146.275797,355.462839L144.874795,355.082796L145.724523,353.322924L144.790312,352.653539L143.694513,352.071575L143.413242,351.008643L143.553645,349.710663L142.453899,349.118351L140.964579,348.729665L138.817860,348.678941L134.475397,349.767048L138.376587,346.474165L136.675130,346.140843L136.549979,344.989415L134.996303,344.554026L127.698190,346.904160L129.816890,344.621228L130.829246,342.904024L135.445991,339.545057L136.851105,337.730148L136.898114,336.551516L133.615548,336.837087L128.759639,337.750413L131.966763,335.197378L135.577102,332.537449L133.893332,332.084688L132.296246,331.576702L132.975806,330.165021L130.381937,330.015689L126.689062,330.240426L130.909923,327.527723L132.153940,325.949212L130.890537,325.270503L128.965513,324.803157L128.136379,323.946024L125.553810,323.652163L122.759881,323.390899L120.002760,323.080514L122.740571,321.070470L122.482555,319.990698L120.207632,319.491481L113.388387,320.234554L106.172654,320.987867L107.174021,319.461035L115.147868,316.158498L125.843618,312.298100L127.783431,310.724748L124.979251,310.299967L125.795900,309.012159L125.903079,307.896337L125.820845,306.825842L125.909185,305.722233L124.870770,304.847027L124.912224,303.752914L123.533907,302.924043L122.529698,302.011834L120.814218,301.208797L120.335411,300.182423L116.183068,299.723581L119.794226,298.054705L118.108424,297.188697L118.537890,296.016786L123.487065,294.277976L117.597796,293.913525L118.659023,292.681587L121.086615,291.321476L119.140301,290.430207L123.221383,288.958730L124.674503,287.769217L123.132522,286.834757L123.999907,285.708957L122.836136,284.726184L122.631001,283.673501L116.776867,282.900879L113.042577,281.956173L109.766088,280.943529L109.310016,279.803959L115.625355,278.509389L122.913936,277.288586L122.947607,276.228227L123.677558,275.167685L122.052584,274.103530L120.757108,273.020866L118.356322,271.898060L116.186723,270.747666L119.757825,269.760352L122.665826,268.795354L123.844383,267.787836L123.572805,266.716757L123.036371,265.624734L123.100641,264.565555L121.919760,263.412001L122.518515,262.387958L121.774972,261.250636L122.733683,260.266235L123.033392,259.225471L121.433883,257.976849L121.503508,256.900795L122.132268,255.893826L122.897419,254.911887L123.327780,253.892221L120.953405,252.466308L121.799298,251.498357L124.031643,250.762727L122.865162,249.486608L123.301244,248.471474L125.390735,247.760981L124.775455,246.565893L125.337293,245.590371L126.196553,244.680617L125.978444,243.552919L125.919183,242.453533L126.881503,241.580465L127.802981,240.708568L126.994946,239.431059L121.509854,236.979442L113.822512,233.880927L113.138083,232.502665L114.659432,231.705389L119.122279,231.742642L123.430264,231.798228L122.679237,230.434038L127.435846,230.706963L128.444424,229.893925L129.863036,229.220813L129.711204,228.057142L126.050555,225.725328L127.806412,225.165432L124.614838,222.913870L126.132879,222.274849L128.332286,221.900559L128.782282,220.907930L131.250329,220.679050L133.361969,220.345927L133.764218,219.367191L134.222267,218.411119L133.957771,217.159768L133.003444,215.609020L132.197812,214.099277L133.448289,213.463123L134.268726,212.650060L134.586002,211.616302L137.924910,211.969868L138.133426,210.906460L138.264526,209.802091L138.688148,208.834180L138.276110,207.452773L137.731670,205.989494L137.537394,204.687418L139.087068,204.280734L138.299493,202.655857L134.193389,199.221997L131.806524,196.645586L131.952636,195.425103L136.194122,196.512874L138.772649,196.712941L140.946494,196.714374L143.184435,196.784275L143.965374,196.007750L144.063510,194.817471L144.230041,193.660903L140.966547,190.329817L141.149340,189.134383L138.736135,186.239777L139.556008,185.423197L143.075690,186.423243L146.532484,187.439121L149.172245,187.947857L149.461436,186.847948L150.882740,186.548069L151.150071,185.430543L150.558641,183.675213L151.974861,183.388558L153.410966,183.133779L152.640673,181.205106L151.420113,178.894759L154.762808,180.142177L154.792602,178.798953L156.548370,178.842205L156.997697,177.834816L151.462722,171.824127L147.783694,167.237587L147.028139,165.056604L147.936002,164.288099L153.899484,167.990302L160.673406,172.548288L162.424836,172.694255L162.509461,171.330551L162.620633,169.975213L162.305550,168.199702L163.401663,167.752340L165.829754,168.612354L166.754331,168.032445L165.402538,165.176404L164.509905,162.727781L163.382890,159.990190L163.653617,158.657631L167.592076,161.195484L168.314534,160.370945L168.999737,159.503518L170.956005,160.036900L173.123938,160.843220L172.974860,159.059663L174.738127,159.449486L174.209328,157.191330L174.846578,156.270967L176.850932,156.987997L177.164653,155.683486L174.744878,150.979552L175.275332,149.861834L180.300584,154.453456L181.977520,154.874053L181.260861,152.189968L180.408731,149.266262L182.977345,150.889432L184.517254,151.171737L186.142358,151.599464L187.521273,151.711458L188.137548,150.754226L188.531317,149.463356L189.214404,148.578005L189.545492,147.157299L190.259510,146.292928L191.381910,146.049897L192.759107,146.216397L192.827251,144.324249L194.092240,144.323706L194.584418,143.073138L196.115285,143.531648L196.848288,142.671561L198.719760,143.760006L199.452850,142.910888L199.676152,141.145243L200.674565,140.738626L202.224892,141.349318L202.150958,138.964656L203.659746,139.521721L204.542308,138.905438L204.005446,135.495635L206.898481,138.841122L208.084444,138.848727L209.332528,139.001970L210.079302,138.120388L210.776824,137.117331L211.657743,136.494693L212.235882,135.190800L213.256437,134.858137L213.524621,132.788772L214.840602,133.126402L215.442569,131.776911L216.872309,132.420366L218.341477,133.205154L218.951406,131.844030L219.205236,129.513686L219.612484,127.509216L221.282224,128.869133L222.333856,128.586985L222.718962,126.414330L223.506542,125.329171L224.218165,123.984464L224.800564,122.199625L226.303971,123.216454L227.346255,122.827361L228.937810,124.233240L230.771126,126.538970L231.422964,124.912087L232.444530,124.521861L232.721389,121.421342L233.466550,119.912372L234.207665,118.317886L234.939717,116.610469L236.196463,116.953848L237.941517,119.385801L238.403683,116.430786L237.752735,108.317162L239.579607,111.134894L242.591679,119.840993L244.677571,124.597627L246.010866,125.852967L247.239939,126.664045L247.841737,124.069625L248.855428,123.659140L249.507319,121.043883L249.746899,115.605827L251.661588,120.742595L253.417510,125.302231L254.354846,124.378630L255.338076,123.722937L256.480699,124.304448L257.283196,122.036165L258.404686,122.422166L259.685096,124.440063L260.715581,124.134366L261.577595,121.873646L262.567530,120.821810L263.494147,118.726050L264.594098,118.808047L265.978081,123.689937L266.997743,122.964209L267.959118,120.756460L268.958288,118.746355L270.153543,122.057259L271.250532,123.280322L272.293380,122.433598L273.337757,120.657119L274.413391,120.631550L275.496049,118.484401L276.595803,117.607694Z" />
<line x1="50" y1="575" x2="100" y2="575" fill="none" stroke="blue" stroke-width="1.0" stroke-linejoin="round" stroke-miterlimit="10" />
<text x="125" y="578" style="text-anchor:start;fill:black">n1_4mer:GRV/n1_4mer:RV</text>
<path style="stroke:green;stroke-width:1.0" d="M276.406670,174.075658L277.142352,172.541024L277.927115,170.021097L278.484115,175.051595L278.897953,181.833938L279.458554,183.678232L279.797580,189.038685L280.523217,187.057428L281.088820,187.773668L281.788929,186.615917L282.033104,191.098792L282.759645,189.587031L283.667433,186.448371L284.484885,184.599774L285.335255,182.698171L285.392538,187.693232L285.819568,189.204517L286.953018,185.259503L287.415977,186.500968L288.389776,184.165609L289.074639,183.923756L289.410235,185.872147L289.985209,186.246206L291.090192,183.587180L291.672309,183.999418L292.545073,182.862946L292.039039,188.794222L293.090374,186.714287L293.352084,188.506854L293.895417,188.905762L294.938258,187.084941L295.564287,187.167059L295.965237,188.184933L296.375616,189.113254L296.681126,190.405735L297.399344,190.069075L297.663550,191.433563L298.619391,190.251629L300.126123,187.215686L300.923549,186.758983L303.237905,181.300820L303.630158,182.341612L303.636972,184.559119L302.905957,188.956189L303.530971,189.074380L304.882007,187.059618L305.373042,187.618472L305.064827,190.410802L306.091689,189.416563L306.511106,190.110231L306.323092,192.386156L307.615721,190.752809L308.086725,191.274049L309.431362,189.617244L310.683353,188.260363L312.256263,186.200955L312.198564,188.042230L312.242489,189.590621L310.515933,195.075177L312.427843,192.330077L311.741787,195.327968L312.080814,196.044483L312.808327,195.932270L316.662396,189.410184L315.077550,194.103617L316.790460,192.103546L314.889502,197.227524L315.063794,198.210375L315.623799,198.442818L317.332992,196.547233L319.033443,194.739441L318.958778,196.183145L319.832864,195.916624L320.830982,195.453336L321.403727,195.741416L319.601625,200.022825L322.566600,196.292229L326.101268,191.759565L324.285395,195.958332L327.671891,191.824003L325.784363,196.027750L325.963235,196.950671L325.139893,199.368317L325.413679,200.094164L327.456487,198.219597L325.696649,201.894557L328.762433,198.616005L329.943166,198.083012L329.459928,199.872081L329.241581,201.260294L328.288593,203.603706L328.638620,204.169963L329.580473,203.960430L331.008498,203.143942L334.397151,199.882103L335.232739,199.907024L332.696594,204.087142L332.215096,205.671556L332.711013,206.055100L332.619939,207.130572L331.801752,209.031724L332.491915,209.163762L335.351406,206.853740L337.852099,205.018835L339.272617,204.432739L339.688142,204.963284L340.923717,204.616099L343.126596,203.272709L342.501849,204.915198L339.664660,208.790729L343.088569,206.250172L340.538301,209.741210L342.582651,208.637135L342.477873,209.657489L340.395019,212.551657L339.750361,214.024362L337.825533,216.657749L341.000039,214.560932L346.352134,210.568295L340.943700,216.281304L341.214785,216.862197L343.687277,215.533909L347.559197,213.061217L344.534734,216.475793L347.449373,214.880264L347.525673,215.665567L347.427415,216.583814L347.113032,217.662275L349.612688,216.518858L347.194994,219.221696L350.468751,217.527815L348.947454,219.496298L351.156243,218.663890L348.703899,221.268692L350.261611,220.932338L351.656758,220.736017L351.495655,221.646416L350.644910,223.019669L352.190843,222.745595L354.023656,222.304241L352.713784,223.956557L353.909050,223.955109L355.145221,223.944203L358.619581,222.546561L366.117879,218.724053L364.174324,220.779313L361.639715,223.144012L356.723522,226.856867L352.741324,229.929631L357.582703,227.888764L358.024266,228.400772L357.633624,229.374418L354.519005,231.814522L353.662121,232.987134L359.027666,230.871325L366.060377,227.984692L371.732818,225.906792L374.846654,225.198509L369.624079,228.624116L361.109407,233.538971L360.380850,234.620329L364.240774,233.553405L369.341953,231.980996L370.428505,232.286368L367.532772,234.354193L370.736479,233.740481L366.548546,236.299639L365.488479,237.488933L360.662013,240.187292L362.324612,240.218737L359.620619,241.977163L357.662840,243.403231L358.541110,243.733056L360.209795,243.783810L362.317148,243.700261L365.442937,243.289350L366.969098,243.472272L368.168121,243.785147L365.332581,245.433769L366.176306,245.859537L363.780549,247.305676L370.508542,245.935768L364.078755,248.569306L367.048346,248.384761L368.180300,248.759758L369.991166,248.962945L373.059236,248.855353L371.240297,250.057412L371.598676,250.681698L368.369336,252.185434L366.602634,253.292511L365.050521,254.322078L362.854348,255.469929L360.748942,256.564149L363.188112,256.681805L366.326134,256.692981L365.597330,257.494946L371.103363,257.124940L376.092934,256.924884L373.199143,258.147680L371.597326,259.114805L374.126161,259.407672L375.800608,259.863405L376.928376,260.419701L371.478802,261.884714L377.110776,261.843228L374.543626,262.878651L370.687087,264.024461L370.898118,264.676867L372.896163,265.151456L373.417445,265.791388L370.873554,266.703010L370.736941,267.386660L367.036828,268.326052L363.097691,269.228605L365.147581,269.725003L363.944914,270.417145L364.321237,271.021705L366.393635,271.567432L367.015227,272.186120L366.515170,272.839684L366.307788,273.481196L369.338887,274.088374L363.627594,274.761267L368.202668,275.398509L368.555504,276.052081L370.450709,276.738770L365.900650,277.289704L370.224586,278.062822L369.381140,278.694308L367.758016,279.278416L372.009194,280.152257L370.217635,280.722840L370.444634,281.404364L368.876651,281.956676L370.143036,282.717602L366.104915,283.029539L365.553418,283.617335L367.178267,284.420642L370.925455,285.479619L371.840029,286.263033L372.639000,287.046214L371.329662,287.566846L368.845092,287.908504L367.842796,288.430577L368.830255,289.241728L368.489453,289.857288L370.507452,290.861191L372.060167,291.814975L372.829279,292.651348L374.192104,293.611963L372.417017,293.982662L367.554563,293.705625L362.894947,293.402400L365.471352,294.600956L366.928342,295.588398L368.939161,296.727363L363.054809,296.013929L361.660435,296.320606L361.461704,296.911876L364.530245,298.354761L365.381050,299.250698L365.400931,299.932703L366.379856,300.889325L364.521214,301.038071L367.730167,302.673804L370.557213,304.244298L380.228108,308.007762L380.876188,309.023332L377.074693,308.588353L369.595354,306.859571L367.002397,306.701889L361.970381,305.647711L364.324081,307.178709L366.459024,308.669771L362.495995,307.905046L361.097741,308.065920L359.880969,308.279269L357.898639,308.170455L359.658656,309.561102L359.420817,310.152391L360.253308,311.198255L364.107122,313.569736L367.508654,315.809926L369.743091,317.586886L370.745617,318.842163L367.019483,317.914237L361.629949,316.138248L357.058087,314.670387L355.974332,314.845053L357.486774,316.305826L359.071009,317.834566L365.281937,321.794445L364.091500,321.968011L365.373106,323.451532L362.954416,322.946955L361.654926,323.024959L359.130568,322.395348L359.285601,323.259593L354.292788,321.137588L356.215941,323.017357L359.400495,325.697290L357.470555,325.323472L361.900890,328.861573L355.582202,325.725957L354.781356,326.001619L356.571542,327.950450L360.912891,331.623481L361.559551,332.919003L361.354203,333.656985L356.804616,331.403786L360.072609,334.536053L352.262130,329.876204L352.797952,331.076573L354.916215,333.454033L350.885744,331.321978L351.595386,332.680866L352.508483,334.219483L351.162586,334.036344L354.947685,337.867127L348.989347,334.020897L346.705691,333.021559L345.529220,332.887606L345.839226,333.973101L343.482856,332.824227L346.202282,335.975470L349.562725,339.759426L352.163021,342.967042L352.241826,343.998362L351.767242,344.542401L352.926987,346.588083L351.104731,345.898395L354.475226,350.079683L349.866596,346.719928L347.528446,345.455937L343.568064,342.543899L340.318109,340.245655L339.505916,340.338806L340.335711,342.108418L337.086467,339.666645L341.218655,344.939766L339.376860,343.950699L337.253772,342.615369L335.752096,341.914294L334.351411,341.294082L337.477300,345.771997L334.650776,343.526951L334.533941,344.363009L333.842782,344.532455L334.196316,345.947069L335.813213,348.926265L333.909214,347.637683L334.556846,349.491475L333.058057,348.663616L335.144403,352.414493L331.259047,348.464605L329.830145,347.641951L332.605725,352.435676L333.672917,355.028912L336.950981,360.747036L331.992912,355.053970L329.643891,352.897885L329.966834,354.531521L330.368783,356.319023L330.496936,357.740953L332.514013,362.053636L332.686714,363.652280L329.652174,360.283164L330.126083,362.356948L328.304152,360.788761L327.779676,361.280292L329.452295,365.424289L326.223819,361.420228L326.663478,363.563400L324.710019,361.595748L323.728904,361.273686L321.067160,357.905172L320.675748,358.567254L319.096336,357.030918L321.966507,363.849470L325.535845,372.236033L325.150048,373.159554L318.361688,361.352766L318.316779,362.783606L316.221877,360.026389L315.786922,360.644682L315.536627,361.670007L315.012042,362.125543L315.462952,364.751458L314.800818,364.950712L313.865963,364.518819L312.399685,362.811845L310.944272,361.053311L311.071944,363.080022L310.122868,362.496378L309.427575,362.523827L310.067972,366.008798L309.705000,366.972209L309.990445,369.722038L308.794080,368.482637L307.005401,365.502598L306.134543,365.031354L303.903537,360.504643L303.826711,362.277736L302.643019,360.694832L303.720427,366.205584L305.175093,373.208982L304.440919,373.253388L304.020955,374.365262L301.421668,367.865711L299.259888,362.582071L298.641749,362.722436L298.669056,365.324520L298.413950,366.959993L297.912548,367.687535L297.646110,369.429847L296.831610,368.914989L296.293862,369.585914L295.759535,370.307680L296.233667,375.859631L296.992196,383.197779L294.751659,375.767561L292.725123,368.890668L291.747687,367.234960L291.200005,367.897293L290.766493,369.289595L290.134215,369.554857L289.992563,373.043503L289.117465,371.832511L288.778094,374.350100L287.622032,370.922601L286.874981,370.379883L286.292802,371.165772L286.020993,374.854260L285.131842,373.060991L284.482481,373.485473L283.540848,370.691826L282.920216,371.314250L282.065818,368.934760L281.518536,370.558321L280.966119,372.459029L280.233388,371.514088L279.881742,378.346230L279.109329,377.084846L278.433294,378.178606L277.962392,387.639799L277.050689,381.106623L276.253124,376.421956L275.506548,369.055608L274.856101,365.857789L274.160489,373.149952L273.484849,372.602181L272.758973,374.620504L272.186875,370.458140L271.481758,371.531211L271.052519,365.898871L270.453212,365.192756L269.646777,368.259238L268.704680,372.758338L268.042740,372.442974L267.376282,372.232931L266.715225,371.985422L266.127194,370.976809L265.666733,368.819626L265.150164,367.465637L264.402212,368.308397L264.101708,365.335024L263.310564,366.524009L262.513359,367.624440L262.261143,364.765795L261.798170,363.585634L259.860066,371.951001L259.617824,369.191263L258.706370,370.579857L258.358464,368.674965L257.470818,369.829098L256.763616,369.947957L256.201352,369.321762L254.947437,372.078735L255.080779,368.151382L255.213160,364.478095L254.717579,363.779766L254.026044,363.947087L253.301272,364.232122L251.381783,369.259530L252.004621,364.134274L252.805047,358.618057L250.628212,364.304417L250.150618,363.618134L250.461456,360.220480L249.242410,362.164841L249.312750,359.748981L248.930230,358.900115L248.767089,357.394236L248.133752,357.392630L245.900463,362.175542L244.788164,363.450423L244.312295,362.837471L243.424895,363.394069L241.929664,365.582123L241.895710,363.750175L241.375999,363.260036L239.344523,366.667003L239.612693,364.133843L237.685779,367.110336L237.255029,366.339169L237.964362,362.882359L236.655057,364.246038L236.663516,362.539183L235.603336,363.280541L233.703744,365.830829L232.551121,366.665009L231.826416,366.551210L229.890579,368.953297L227.554151,372.079706L223.102430,379.338839L223.950438,375.864838L225.088772,371.933030L227.572005,365.554081L228.482279,362.329818L228.160624,361.475773L229.450222,357.713150L228.530602,358.008671L228.595860,356.553380L227.874262,356.494923L228.197294,354.650140L226.675203,355.943620L225.632550,356.395792L225.901149,354.694959L224.418129,355.835150L226.135860,351.893047L226.484868,350.181193L225.630141,350.347863L226.609724,347.741841L226.113185,347.389139L227.440497,344.376292L226.215955,345.109790L223.949792,347.286770L223.982909,346.181842L223.543118,345.748860L222.874737,345.627757L222.812834,344.689810L223.454316,342.842537L223.127300,342.294133L221.987979,342.789784L219.822926,344.553933L218.017413,345.810648L217.295498,345.693324L218.335205,343.440304L219.109543,341.555276L217.765214,342.199517L218.057732,340.919800L216.601919,341.660300L215.345178,342.144912L211.849054,345.090047L210.366734,345.737612L210.238318,344.893674L207.826114,346.491126L207.906838,345.415312L207.486589,344.874734L205.421336,346.015048L206.887889,343.555853L208.635351,340.872394L205.667453,342.865588L205.905285,341.696233L206.283634,340.412040L206.945457,338.883910L209.277821,335.838407L207.855024,336.292083L207.302628,335.936836L206.591326,335.719411L203.207318,337.833998L203.679891,336.547903L203.386870,335.935174L200.854802,337.204055L203.083335,334.485396L202.188319,334.375956L199.244396,335.902536L197.302814,336.576917L199.097119,334.298351L197.647416,334.567477L199.440220,332.352455L197.212648,333.193276L196.609540,332.796779L195.705287,332.614781L192.928439,333.762845L193.587193,332.437159L192.076670,332.641487L188.569588,334.190196L192.322013,330.777975L191.490459,330.496023L191.465064,329.677464L193.705422,327.405403L190.994634,328.327812L196.041096,324.355579L192.993337,325.469260L192.572954,324.939303L196.568163,321.774628L194.819510,322.063049L195.685431,320.814586L189.188100,323.773234L192.344088,321.220296L188.135493,322.782078L189.964481,321.006965L185.319677,322.715011L187.472646,320.789696L188.321020,319.579227L188.371157,318.792713L186.435850,318.998790L181.440570,320.670262L181.889133,319.650462L179.976241,319.755926L185.213863,316.526943L187.232837,314.852994L187.077923,314.186555L188.577658,312.798399L188.032969,312.316765L188.896585,311.237730L194.764019,308.112019L189.058310,309.767702L185.854453,310.342876L183.490554,310.544089L184.037595,309.603972L179.902950,310.420190L183.393399,308.394987L182.722062,307.912971L183.170781,307.033296L182.235797,306.636021L182.268306,305.905187L179.468743,306.100173L178.776800,305.585415L174.684887,306.117988L177.764311,304.421455L175.364663,304.391152L175.321004,303.650419L170.797026,304.166067L167.095303,304.392791L171.230939,302.490856L176.203465,300.437990L182.144788,298.219409L181.359171,297.723631L174.771358,298.583856L179.441012,296.783366L181.033609,295.732487L181.844539,294.873762L185.488674,293.445052L182.867290,293.316803L184.845507,292.271256L180.027203,292.509031L182.054484,291.466347L177.105385,291.640316L180.866646,290.326753L173.955908,290.729883L176.702641,289.601368L177.699097,288.760970L179.422780,287.838418L181.296523,286.922503L179.690465,286.452440L177.654252,286.009444L178.833764,285.197780L178.403391,284.563124L178.881906,283.839760L183.568356,282.766550L178.883312,282.490199L181.068830,281.661617L180.074062,281.067584L180.473860,280.380836L174.609407,280.013008L170.506115,279.488078L170.554410,278.756949L172.330516,277.976764L173.963706,277.224793L179.092809,276.443208L180.659786,275.762048L181.218392,275.103922L182.701073,274.459009L180.361661,273.785669L178.263983,273.084383L177.844853,272.398605L183.032668,271.895970L179.106399,271.094206L182.259884,270.575044L177.592251,269.671683L177.115156,268.961078L181.361916,268.567705L178.877928,267.723669L183.853176,267.461068L180.995869,266.564713L175.395537,265.361960L174.747676,264.593548L177.898250,264.236051L177.789704,263.537660L175.478878,262.561352L179.023367,262.324413L181.377276,261.970800L178.392142,260.868355L181.791116,260.701359L182.213786,260.103601L179.979393,259.064807L182.142967,258.761500L181.510834,257.978640L181.161054,257.238411L183.621136,257.043499L182.313353,256.114672L181.197323,255.205411L180.821129,254.439410L183.931570,254.452502L181.379621,253.189933L180.821852,252.366874L178.865409,251.186805L173.351655,249.067807L175.713040,248.931909L176.901808,248.511862L180.701932,248.831506L183.301230,248.863190L177.905077,246.591998L181.712626,246.998748L183.078323,246.708848L185.021096,246.618801L182.355100,245.066402L178.755103,243.160769L178.066652,242.181780L173.979310,240.011330L179.690917,241.243817L183.293726,241.798747L185.737577,241.978083L187.793217,242.045801L190.300680,242.316950L190.812282,241.838437L189.987909,240.827415L189.168496,239.801222L191.615411,240.123855L192.645541,239.878366L190.786624,238.389859L189.196268,236.985297L190.401752,236.811857L192.921128,237.258335L192.857048,236.533102L191.750421,235.305118L191.043355,234.247416L192.420390,234.202275L192.037683,233.291388L190.609747,231.834104L195.689661,233.732632L189.667139,229.840455L187.448130,227.882142L186.662839,226.662557L188.402081,226.827001L192.325061,228.251848L193.010919,227.882560L194.962650,228.259155L193.159474,226.438087L196.201926,227.497768L195.764811,226.478172L194.861218,225.153566L194.065402,223.872859L193.232621,222.545971L189.992286,219.627259L191.918784,220.053674L194.168843,220.728260L195.977688,221.139979L196.382142,220.609353L196.226883,219.686225L199.887616,221.471302L198.665236,219.793967L195.607152,216.735328L197.715387,217.449528L199.906379,218.263245L197.655428,215.711296L197.966191,215.092575L200.049866,215.870155L202.793817,217.213952L204.010526,217.371487L202.892169,215.625136L198.282893,210.927401L197.517095,209.365766L197.032514,208.016445L198.485113,208.331953L198.629767,207.515931L204.891931,212.173921L207.381138,213.549518L205.806819,211.232691L207.246554,211.680626L206.234750,209.831314L208.127757,210.734781L211.215374,212.841157L207.949049,208.740755L208.249102,208.111374L203.190140,202.031899L200.977772,198.727802L202.523818,199.271894L209.606602,205.712150L210.428691,205.620840L211.286092,205.578171L214.346685,207.981301L212.575193,205.050153L213.737141,205.381506L215.753853,206.719581L214.069143,203.781274L213.775261,202.419814L217.352747,205.686374L214.796341,201.577756L213.751837,199.233051L214.013705,198.472163L217.361542,201.629781L219.994769,203.968187L218.957727,201.577592L220.278479,202.262405L221.455747,202.785090L222.311177,202.893818L220.935975,199.918898L222.027706,200.343256L222.839547,200.391056L223.217111,199.820757L223.340396,198.869385L221.629350,195.155786L219.004800,189.952364L220.668367,191.213470L225.064666,196.804688L227.017760,198.695930L228.463745,199.838045L227.309330,196.760431L226.439270,194.069250L226.368877,192.656564L227.477946,193.238405L228.439834,193.592681L229.580776,194.287459L230.085720,193.866899L233.153729,198.149785L233.279637,197.093088L234.005755,197.150127L234.339198,196.460470L233.346704,193.151234L235.373813,195.773321L237.124269,197.935273L237.465953,197.266590L236.095002,192.972214L235.998069,191.265581L235.623078,188.897720L237.202795,190.805444L239.284537,193.935168L238.596288,190.787155L238.345759,188.558491L239.204898,188.920311L240.832544,191.191693L241.644241,191.523155L242.240878,191.328607L243.652883,193.261569L243.737433,191.751267L244.445662,191.881669L244.908267,191.344333L245.937941,192.403983L246.670127,192.656423L246.674324,190.764817L247.707180,191.924302L248.305324,191.793780L248.064765,188.987751L248.402626,187.943785L249.623105,189.818543L250.137543,189.368789L250.513175,188.413439L251.947303,191.260205L252.824894,192.197233L253.549562,192.609521L254.811494,195.179096L254.765669,192.585910L254.263939,187.926131L254.929483,188.035890L255.116971,186.022735L255.609598,185.294321L256.320813,185.570989L257.679053,189.086320L258.452623,189.864921L259.078768,189.924855L258.584821,183.773652L258.672672,180.487386L259.230113,179.762056L259.727087,178.599431L260.984115,182.360703L262.492803,188.249146L262.749263,185.621992L263.357559,185.424119L264.070104,186.061074L264.445678,183.875803L265.242351,185.287876L266.013807,186.657254L266.467260,184.881023L267.049857,184.302659L267.329867,179.880745L268.073423,180.922365L268.824412,182.304807L269.693107,185.996061L270.377490,187.176413L270.886225,184.880159L271.381859,181.425912L272.036360,181.474512L272.797336,185.870708L273.278699,177.973965L273.876851,170.713156L274.611572,172.783662L275.335056,169.281548L276.022818,174.120596Z" />
<line x1="50" y1="625" x2="100" y2="625" fill="none" stroke="green" stroke-width="1.0" stroke-linejoin="round" stroke-miterlimit="10" />
<text x="125" y="628" style="text-anchor:start;fill:black">n0_4mer:PS</text>
<path style="stroke:red;stroke-width:1.0" d="M276.961045,134.300930L277.871004,137.692904L278.814637,138.190760L279.569926,143.903039L280.461421,144.465053L281.075755,150.554113L281.716007,154.665003L282.649709,153.198686L283.662202,150.908277L284.383019,152.843838L284.903693,156.854185L285.764067,156.516359L286.642989,156.048324L287.440895,156.426111L288.396092,155.362530L288.826815,158.842185L289.419563,160.657783L290.618604,157.739129L291.419328,157.965739L292.568402,155.818388L293.579026,154.776112L294.381093,155.127200L295.244151,155.098758L296.287754,154.058397L297.498913,152.196726L298.186489,153.237333L299.097936,153.081077L298.949681,158.119352L299.993573,157.205597L301.076229,156.187428L301.306356,159.005669L302.068426,159.386973L302.786840,159.937321L303.825006,159.181770L303.704362,163.002842L304.263617,164.042016L304.881581,164.818797L306.368077,162.448688L307.830970,160.296903L309.390761,157.937493L311.724653,153.140045L311.697957,156.231059L312.012123,158.108837L311.013200,163.958728L311.985657,163.611729L313.242990,162.453907L314.296575,161.945970L315.274298,161.685842L316.048632,162.008937L316.203695,163.998752L316.415323,165.768157L318.002023,163.924740L318.236202,165.590801L320.650700,161.795575L323.063931,158.165467L324.587145,156.810713L323.824764,160.864072L323.695639,163.324749L323.071997,166.819091L324.103222,166.541717L324.813731,166.982358L324.435294,169.738310L325.677372,169.019517L328.732441,164.613891L328.222017,167.571561L330.346539,165.213418L329.733469,168.286274L331.583505,166.547312L335.299761,161.362678L336.816629,160.439572L336.314600,163.240763L333.192031,170.663320L334.261128,170.465745L335.678091,169.683913L336.277352,170.336938L335.991391,172.470950L339.225204,168.727477L339.506217,169.923829L343.094660,165.792891L345.056211,164.371825L341.848656,171.046964L342.190866,172.098330L343.984712,170.942541L343.754076,172.843568L344.440562,173.360057L345.453812,173.404387L345.856571,174.329184L346.219219,175.297559L346.571827,176.266076L348.877104,174.566423L351.935084,171.922033L350.709219,175.025637L350.877126,176.241634L352.296369,175.832684L351.899502,177.747375L352.951638,177.816631L352.928000,179.221431L352.411876,181.198794L354.045516,180.567674L355.036255,180.726820L353.647060,183.661075L354.094375,184.425941L355.975585,183.565788L355.525353,185.340973L359.422836,182.309076L360.632210,182.287509L364.002112,179.976295L365.911728,179.283315L362.946954,183.687762L358.709230,189.291252L361.175128,187.987960L362.355029,188.017527L359.707550,191.821320L362.490415,190.278251L362.491304,191.451023L360.191591,194.774784L361.189238,194.961298L361.566025,195.727777L365.185424,193.561641L363.970320,195.777555L361.373289,199.162658L364.515607,197.501758L369.963727,193.936014L365.579031,198.763770L369.257874,196.783194L370.225261,197.094665L367.580039,200.329754L368.131218,200.950525L372.115462,198.881270L370.882249,200.920774L370.833912,202.019008L369.374458,204.164136L373.258096,202.314181L371.682386,204.517011L373.781899,204.035450L374.291292,204.713424L372.797374,206.789062L372.713962,207.854648L372.402087,209.063576L375.378101,208.064344L377.191167,207.879487L377.479324,208.707909L382.173776,206.725903L392.682347,201.179446L399.404700,198.165547L398.567115,199.867456L392.235796,204.831510L386.795962,209.141264L381.229030,213.413944L383.928016,212.859463L382.969409,214.399753L383.222903,215.245475L379.696972,218.140777L379.597541,219.135214L386.054864,216.677494L394.491487,213.305449L403.958416,209.551867L402.882169,211.214961L398.473755,214.484700L388.741724,220.234220L385.544587,222.719493L391.818877,220.745151L394.344128,220.580249L394.778267,221.387458L392.753779,223.275651L396.763581,222.523590L393.881090,224.745340L393.176012,226.011352L387.426200,229.310431L388.829704,229.661799L385.143304,232.017044L383.242850,233.625613L386.996294,233.083129L386.839977,234.027973L390.528841,233.587486L392.148581,233.925950L392.242396,234.808386L394.570144,234.939469L395.558243,235.540783L395.016421,236.642074L394.404722,237.752731L399.253225,237.188466L393.091934,239.960761L392.492166,241.027829L393.396232,241.658771L394.185269,242.331347L398.191569,242.154546L398.989329,242.865698L399.138664,243.748624L395.920584,245.453354L393.300813,246.965724L394.284976,247.609093L392.670918,248.841689L388.890109,250.513855L389.047666,251.310329L394.505650,251.044182L391.780024,252.435973L397.700701,252.177882L403.111159,252.094105L400.221410,253.510289L398.785965,254.643700L404.176863,254.680762L403.146967,255.756974L401.753354,256.868623L410.134269,256.629906L406.597193,258.043962L406.073408,259.039295L398.761535,260.804255L395.459273,262.032935L397.750849,262.651027L401.016328,263.209047L397.711366,264.380439L397.813944,265.233400L396.174592,266.213160L396.001309,267.073046L397.306783,267.843203L393.076537,268.916148L394.728443,269.667392L399.422000,270.326950L395.434318,271.317047L398.040806,272.095487L396.085701,272.985873L397.573565,273.815534L395.532377,274.675327L397.514875,275.523840L397.466056,276.377195L402.516085,277.322886L404.025895,278.250044L401.901978,279.081700L400.710966,279.920633L400.072974,280.768926L400.082401,281.643254L402.486516,282.662288L404.450851,283.686192L404.450291,284.592840L401.793774,285.284977L398.997417,285.928522L402.656737,287.148198L402.873303,288.068683L407.172938,289.439567L408.567478,290.534639L409.555261,291.600758L404.823349,291.936321L400.407033,292.249887L402.204758,293.401356L404.972793,294.727508L406.290684,295.864637L402.041998,296.098222L404.459194,297.427873L404.683848,298.398871L400.774812,298.599824L401.456319,299.641255L396.184004,299.491742L388.803545,298.826835L392.346199,300.423492L395.820475,302.059119L398.979428,303.675432L395.513667,303.760107L396.385858,304.863917L394.743200,305.346362L395.610769,306.462392L396.050818,307.479893L395.923208,308.350790L394.601858,308.885054L391.476011,308.878123L392.379314,310.029938L394.643999,311.615810L404.743070,315.697571L404.847964,316.726666L402.730313,317.030504L396.006176,315.754696L397.793664,317.311844L393.048522,316.599415L396.368250,318.722516L394.724178,319.075319L389.072430,317.899776L392.325652,320.059029L389.808875,320.013098L393.321791,322.344416L390.762233,322.258845L385.073981,320.834235L386.392837,322.297007L387.686889,323.776163L390.471278,325.939821L393.201965,328.131616L394.660712,329.792946L388.664042,328.008401L387.691524,328.514193L383.393476,327.402040L385.694768,329.469592L388.123292,331.647276L389.351808,333.262772L390.572587,334.902958L391.272079,336.297298L388.871095,336.049457L387.535179,336.346769L383.986308,335.401217L383.967100,336.387124L384.763324,337.847429L379.681753,335.910503L382.051499,338.292131L382.964226,339.851441L382.113425,340.360533L384.085165,342.611489L378.460248,340.127534L377.363911,340.437910L379.214729,342.648797L382.730703,346.003168L382.478726,346.916508L382.629367,348.108360L377.974690,346.000423L380.217085,348.633688L373.440347,344.918245L375.603502,347.514758L375.904541,348.805766L373.532633,348.130374L373.281800,349.012021L374.683136,351.161777L377.101365,354.142418L376.555610,354.858591L372.895893,353.091018L373.431739,354.647275L370.884679,353.698369L370.114984,354.182478L368.537213,353.979140L368.505314,355.075109L369.529876,357.101352L370.530659,359.145698L371.066902,360.814373L370.544683,361.552630L373.419402,365.413559L373.242284,366.521515L374.710810,369.196095L372.551257,368.451144L370.285939,367.563132L364.393009,363.057793L361.530687,361.434702L364.394616,365.548865L362.775323,365.156869L361.253554,364.838063L363.627924,368.608309L364.398795,370.750390L358.027507,365.178240L358.226642,366.668474L355.369336,364.770591L357.003691,367.890777L353.431532,365.102328L354.436835,367.551875L353.346944,367.579840L352.949878,368.423303L352.055634,368.671013L353.175054,371.393321L354.023041,373.839064L353.560825,374.677371L354.475732,377.296692L349.591986,372.404260L348.078813,371.818777L346.514501,371.132349L347.963425,374.520933L352.506770,382.277974L347.774431,377.221168L346.660430,377.155901L344.549292,375.630883L346.339809,379.775350L346.871221,382.153543L348.564937,386.348434L347.838911,386.938001L345.008026,384.245533L345.646730,386.952135L344.764575,387.280492L342.703274,385.676283L341.821457,385.964702L341.783376,387.670917L344.254837,393.719143L340.337746,388.819531L343.376737,396.059837L339.744077,391.517249L333.830665,382.635175L336.140838,388.738228L336.840411,391.987362L345.738388,411.107751L341.078202,404.336004L333.500615,391.501228L330.031202,386.523468L328.249411,384.835006L327.178757,384.565344L326.351329,384.792557L326.888030,387.985306L327.772857,392.056235L326.306978,390.954885L324.333911,388.629334L322.676888,386.942000L320.078163,382.920538L320.332398,385.692084L319.878159,386.798284L319.565144,388.296158L319.476153,390.425017L319.251617,392.271833L319.273966,394.853301L317.110675,391.488359L315.144218,388.516965L313.979763,387.717276L312.554798,386.097462L311.918566,386.777193L311.857601,389.260529L311.063559,389.524687L312.194721,396.055325L312.300899,399.484559L310.965158,398.141620L309.462333,396.126686L307.254407,391.443560L306.746793,392.796104L306.548103,395.392098L305.203346,393.625840L304.603708,394.755108L303.876623,395.409867L302.437233,393.029200L301.651056,393.382212L301.076815,394.719479L301.145863,399.192493L301.908110,407.383222L299.755212,401.294319L297.420457,393.762035L296.616725,394.050335L296.504143,398.313331L295.198836,395.796683L294.381486,396.090765L293.929361,398.788094L292.897259,397.758341L292.919420,404.212084L291.455597,400.056232L290.365995,398.419720L289.665412,399.885803L288.963649,401.515812L288.036049,401.169351L287.247411,402.202164L286.255571,401.107639L285.182758,398.828030L284.063150,395.487795L283.276342,396.326836L282.431222,396.392099L281.686691,398.315880L281.030679,402.669155L280.157315,403.119155L279.286041,403.805653L278.633416,413.154343L277.594051,409.221235L276.615292,405.734108L275.672370,399.845477L274.809219,395.458821L273.923245,400.887017L273.034956,401.583143L272.114375,403.274853L271.263031,401.807063L270.434693,400.259915L269.660688,397.948653L268.694543,400.078760L267.917895,398.378333L266.892120,400.905101L266.062927,400.172126L265.160273,400.495914L264.203293,401.391261L263.443109,400.010445L262.484438,400.808615L261.771083,399.186870L261.060669,397.729070L259.917598,400.016762L259.316647,397.794917L258.557068,396.971743L257.879340,395.642659L257.090274,395.176101L255.593993,399.269484L254.614481,399.828752L253.567737,400.723529L253.585096,395.544181L252.772353,395.246783L251.397633,397.886013L250.945904,395.690845L249.405433,398.908759L249.374108,394.838383L248.771867,393.606278L248.145603,392.546477L246.913040,394.112166L246.392669,392.642511L244.653032,396.113752L244.668756,392.569421L243.322390,394.343356L242.816362,392.929016L241.718992,393.687090L241.561053,391.130896L240.982701,390.116068L237.534465,398.608633L238.282806,393.166624L238.410643,389.922514L236.662228,392.573168L236.047502,391.692754L234.130430,394.652801L233.029627,395.131872L234.496411,388.389236L232.665259,390.958023L232.503305,388.930525L231.999491,387.872541L230.150806,390.303219L230.142379,387.987751L227.942047,391.162787L226.501102,392.362631L227.298408,388.191746L226.423250,388.060084L226.186602,386.462623L225.587228,385.724763L222.511520,390.448047L221.473265,390.586765L219.931106,391.775662L218.255666,393.186339L215.548166,396.645343L210.854259,403.963497L210.642990,402.157984L211.680323,397.973693L212.185442,394.931585L213.900224,389.705368L213.911171,387.783392L214.139268,385.516079L215.539894,381.214079L214.587207,381.173014L214.482406,379.653568L214.369097,378.183347L213.754196,377.586195L210.475088,381.387027L210.709052,379.354060L208.181544,381.782920L209.809593,377.584209L210.285941,375.283767L208.704056,376.180312L206.890393,377.384582L205.605831,377.755397L204.426147,377.947926L205.144352,375.392758L203.606615,376.092580L205.835051,371.502728L203.774304,372.929306L200.556583,375.868010L201.006213,373.809983L199.847122,373.913459L197.111620,376.044113L199.424483,371.643135L199.657510,369.973620L198.402232,370.185877L196.760145,370.851020L191.828907,375.454876L195.411398,369.775417L196.325996,367.371360L199.000989,362.981034L197.916987,362.988795L196.310741,363.569258L191.889445,367.242842L192.999024,364.745630L192.425739,364.117797L188.520002,367.038035L189.816295,364.401617L189.657080,363.327843L187.220077,364.592054L188.724195,361.837881L189.274069,360.090065L188.049901,360.110383L187.193213,359.758754L184.992471,360.679386L186.435673,358.136780L189.690327,353.970368L187.887683,354.518911L184.850214,356.147060L183.813504,355.936963L182.894437,355.612126L181.448397,355.733261L178.991984,356.692633L177.253162,357.004633L181.114070,352.657128L182.185647,350.687594L176.965962,353.812935L175.650211,353.737134L175.336639,352.860984L173.041277,353.516108L176.949872,349.423398L173.392749,351.013113L172.933384,350.253056L171.310517,350.339788L166.722471,352.526193L166.589919,351.483877L164.716939,351.659724L167.553614,348.582579L169.693092,346.044378L168.655803,345.670727L168.201166,344.904758L170.181396,342.569834L168.359332,342.697026L172.040636,339.357770L171.001676,339.003561L169.881481,338.687173L170.536442,337.299243L172.370062,335.240064L169.979683,335.663033L163.800069,338.203126L167.127993,335.320864L164.445742,335.813241L167.197667,333.324548L163.022149,334.578559L165.133348,332.476439L165.682915,331.222064L164.785370,330.715827L162.850402,330.716072L159.554556,331.353739L160.382114,329.963956L157.873686,330.166168L161.599468,327.448826L162.370080,326.142584L164.752775,324.136793L162.257740,324.309898L161.432118,323.730949L162.398116,322.389951L165.298198,320.272060L160.878197,321.167964L160.117928,320.546446L159.203471,319.977675L155.018037,320.643609L154.426056,319.909406L154.096175,319.075225L153.672709,318.274066L156.372091,316.381631L154.908437,315.955661L155.656712,314.774175L154.168700,314.336594L152.610677,313.902554L151.486133,313.314297L154.251136,311.536042L151.864581,311.323376L146.595936,311.906774L143.660016,311.761625L142.053331,311.214120L147.025070,308.903558L152.492224,306.543126L158.129058,304.224791L153.550909,304.471806L148.296407,304.813427L149.809299,303.538130L150.169707,302.542214L150.104589,301.645155L153.703348,299.994859L153.676946,299.120103L156.153703,297.767860L151.775690,297.717434L147.185071,297.643856L138.658635,298.175569L145.819875,296.033053L145.322034,295.187417L148.961725,293.722082L149.899686,292.692556L150.019883,291.787965L152.072063,290.640921L152.615399,289.705793L152.819861,288.818122L150.890772,288.160946L152.219228,287.155372L151.129063,286.392125L156.308168,285.082133L147.764123,284.915261L153.622226,283.608136L152.722993,282.815841L148.995898,282.172697L148.106113,281.336451L145.915054,280.544279L146.881041,279.608489L147.590143,278.694078L149.054517,277.773287L149.354677,276.890707L151.464798,275.997875L151.017793,275.137388L147.180137,274.250810L148.454218,273.376255L144.418649,272.414160L148.520778,271.613433L154.124610,270.920281L151.109891,269.953895L153.561006,269.205720L151.213326,268.228726L149.084058,267.231724L147.299549,266.227854L147.742461,265.366750L154.015321,264.993121L153.331523,264.082304L150.617621,262.964372L149.193608,261.940970L150.745037,261.226056L149.827852,260.240599L148.028688,259.130491L149.512372,258.426911L146.903957,257.173249L144.265303,255.876336L150.021835,255.827815L152.731105,255.370293L151.351961,254.263915L150.730535,253.268209L153.728643,252.920400L153.667806,252.034561L156.056245,251.626831L153.875653,250.320360L154.380883,249.546507L154.200492,248.627746L155.272176,247.986168L152.073020,246.362584L153.003821,245.681576L149.750204,243.974770L143.581064,241.472831L145.634055,241.034580L147.340424,240.529798L146.475805,239.333472L146.128954,238.268013L148.686317,238.043182L156.706439,239.492860L157.279399,238.768596L158.319465,238.196557L154.784470,236.158322L151.022025,233.986259L149.302539,232.443264L149.034012,231.371488L156.241983,232.938769L158.164688,232.701054L155.058943,230.628769L159.555035,231.374994L160.304744,230.742375L162.402278,230.647730L164.407384,230.544728L162.260368,228.766425L159.928517,226.870606L161.828968,226.736050L157.901758,224.093797L165.348206,226.419592L163.622292,224.723453L165.192578,224.508140L164.601369,223.301189L164.440655,222.283335L160.787006,219.560974L161.072117,218.714939L161.193832,217.784899L162.309103,217.358230L166.110461,218.341754L165.473045,217.036545L163.222994,214.844882L160.026631,212.087420L154.761634,208.113374L158.582330,209.172180L160.132319,208.987904L166.406878,211.582929L164.075465,209.180437L171.276412,212.471798L169.933489,210.659658L170.294874,209.873265L169.841627,208.570475L165.343833,204.655226L160.338888,200.311484L162.604335,200.666364L162.258086,199.302707L170.424212,203.723243L171.070977,203.098184L173.111289,203.454662L175.682716,204.221725L175.067200,202.727640L172.290607,199.623827L173.139928,199.149258L174.470605,199.045325L174.140073,197.685533L176.121947,198.104808L178.366309,198.763510L181.288434,200.003361L181.018959,198.707173L182.171848,198.563657L178.998621,194.821561L178.215531,193.015793L178.053121,191.710837L179.669876,191.938083L179.705640,190.793747L186.909547,196.059332L189.054419,196.894614L186.466981,193.409412L188.540641,194.198906L186.770575,191.385156L188.557193,191.927178L192.779671,194.875355L188.357876,189.380906L185.387435,185.202536L182.611785,181.121631L178.294604,175.355159L183.921967,179.835399L187.266371,182.041466L190.374241,184.073175L191.580617,184.107346L193.369891,184.803056L193.747626,183.953005L193.554850,182.446555L196.275882,184.271470L195.469989,182.041747L193.052218,177.853235L196.422634,180.520526L196.815453,179.648903L196.679456,178.113688L197.021299,177.149470L199.816530,179.296056L202.519822,181.401657L200.748155,177.720768L197.679935,172.223698L200.364631,174.339592L201.348041,174.205157L204.178933,176.647654L202.711265,173.119544L204.801143,174.589396L206.896874,176.126771L206.450360,173.978586L206.575718,172.635067L203.955269,167.094566L206.092206,168.735111L206.777695,168.168546L209.163601,170.303237L210.961052,171.568977L208.740580,166.297219L212.262378,170.442206L211.892905,168.145484L212.914786,168.182518L213.493145,167.459400L212.417954,163.788149L215.360793,167.267810L217.646629,169.671168L219.562338,171.477961L219.670783,169.927384L219.356841,167.520871L218.064289,163.121274L221.756891,168.548309L222.579178,168.340770L223.016472,167.341563L221.851333,162.940684L220.927717,158.910590L220.650055,156.157443L223.765053,160.872417L226.586164,165.113158L225.239383,159.888575L226.928237,161.632609L226.192512,157.628260L228.067025,159.879542L229.805967,161.896435L230.503017,161.348464L231.828766,162.429872L232.035815,160.591162L233.143577,161.136101L232.702737,157.412696L233.169636,156.115736L233.817304,155.298421L235.005575,156.064173L235.196705,153.844089L235.716566,152.555130L236.444776,151.881655L237.864727,153.452049L238.553104,152.660378L238.459506,149.147326L239.773836,150.438632L240.905981,151.152182L241.284200,149.103801L242.377709,149.698774L243.567326,150.722133L244.260666,149.799211L245.217063,149.936924L246.490293,151.469486L246.999926,149.698669L248.087825,150.496400L249.993605,155.278667L252.237904,162.097659L252.568430,159.591169L253.767206,161.542511L253.618764,156.175094L253.836856,152.494713L254.751460,152.714445L255.325231,150.815505L256.764012,154.467542L258.369174,159.647344L258.971523,158.060633L259.733872,157.543793L260.700799,158.644309L261.190436,155.770602L261.752527,153.202326L262.675352,153.837091L263.637404,154.993360L264.182964,151.596386L264.955932,150.440981L266.055088,153.509073L267.111681,156.596809L268.062632,158.650735L268.824326,157.667664L269.395431,152.221550L270.203968,150.962721L271.017419,149.319146L272.035197,155.031257L272.736645,147.419542L273.506450,136.320683L274.464646,134.119500L275.471237,126.313091L276.450358,131.952775Z" />
<line x1="50" y1="600" x2="100" y2="600" fill="none" stroke="red" stroke-width="1.0" stroke-linejoin="round" stroke-miterlimit="10" />
<text x="125" y="603" style="text-anchor:start;fill:black">n0_4mer:D</text>
<path style="stroke:black;stroke-width:1.0" d="M277.382684,104.049608L278.561485,104.670309L279.700043,106.436309L280.805886,108.447207L281.893338,110.240403L283.082884,109.443351L284.281086,108.704847L285.471949,108.262012L286.726890,107.004624L287.904117,107.003178L288.984814,108.168567L290.131337,108.444387L291.211368,109.375066L292.289601,110.213202L293.505795,109.728929L294.632048,110.072951L295.821665,109.891292L296.947092,110.226296L298.166129,109.875660L299.409347,109.410359L300.721268,108.559039L301.874634,108.779364L303.034504,108.958371L304.247362,108.837665L305.219947,110.053879L306.406189,110.072002L307.460318,110.773194L308.428409,111.860705L309.650192,111.694072L310.709758,112.293642L312.022566,111.753988L313.156527,112.028147L314.320746,112.176506L315.726293,111.362665L316.744694,112.122769L317.948958,112.151714L318.758899,113.649499L319.479582,115.403499L320.377489,116.462540L321.269853,117.502319L322.644141,116.906937L324.014199,116.370883L325.401577,115.822452L326.752685,115.428399L327.646854,116.445508L328.774722,116.745249L329.584917,117.962271L330.682221,118.334724L332.037377,117.998083L333.304206,117.930600L334.787478,117.312073L335.745083,118.093989L336.529294,119.300135L337.266929,120.590713L338.118000,121.571809L339.069673,122.292096L340.225805,122.523938L341.431781,122.649893L342.608703,122.853815L344.332553,121.859547L345.654683,121.790191L346.407185,122.953956L347.243988,123.917723L347.934047,125.166761L348.649072,126.339629L349.998493,126.231380L351.301636,126.234863L352.128392,127.169259L353.168515,127.688293L353.920189,128.742744L354.811305,129.526483L356.261655,129.300132L357.466235,129.532866L360.000850,127.468053L361.197522,127.772741L362.132020,128.527472L363.933118,127.843646L364.040856,129.958598L365.228126,130.296249L366.107338,131.129266L366.952280,132.009560L367.932920,132.674811L368.556457,133.878193L369.537705,134.533643L369.851441,136.166229L370.688478,137.015563L371.784523,137.491555L373.045707,137.742158L374.029266,138.388313L374.941910,139.132148L376.155583,139.471301L376.267459,141.275867L376.937998,142.321935L377.637316,143.321537L378.242368,144.432298L379.494002,144.725905L380.651862,145.147006L381.538366,145.905763L382.684230,146.354218L384.233555,146.335878L385.274430,146.929759L386.040966,147.842652L386.626082,148.956541L387.267908,149.997985L388.784551,150.071773L390.076566,150.408623L391.762512,150.337717L392.955645,150.810045L392.820964,152.670624L392.709803,154.478526L393.309372,155.541636L392.943100,157.559909L393.838991,158.305910L395.304986,158.502110L395.218885,160.198136L396.753254,160.344540L397.677616,161.076761L398.606899,161.807859L399.977308,162.144215L399.995197,163.699679L400.927550,164.433288L400.702648,166.172785L401.011151,167.432969L402.207298,167.935432L402.815686,168.936344L403.696910,169.710964L404.437306,170.602599L405.709721,171.071517L406.814590,171.684225L408.441572,171.902206L408.997716,172.955890L409.215713,174.259967L409.824086,175.264716L410.738142,176.044746L411.221431,177.139029L411.961368,178.047435L412.633733,179.004314L412.969702,180.192419L413.709914,181.100208L414.329758,182.090007L414.451431,183.406453L415.663710,184.007095L418.107992,183.834331L420.741464,183.578339L423.247084,183.440086L423.411585,184.761266L422.996365,186.420557L422.726847,187.974465L421.923761,189.821259L422.622417,190.785336L423.227553,191.803968L422.643691,193.479560L422.812749,194.725300L423.126017,195.886972L424.348935,196.566658L426.136066,196.967063L427.712998,197.496097L428.573865,198.400463L427.914045,200.055820L426.968335,201.828395L426.299252,203.445148L426.556159,204.611920L427.020284,205.680243L427.796380,206.608608L429.391016,207.182433L430.640599,207.923622L432.440030,208.445301L432.853851,209.563313L432.564837,210.966265L432.461413,212.283354L431.322447,213.995830L431.194961,215.296558L431.232590,216.526804L431.131552,217.801972L431.773525,218.802900L432.963598,219.615594L433.806965,220.559726L434.075833,221.703565L434.526578,222.786284L433.969669,224.192396L434.188623,225.342487L434.841796,226.358497L435.776167,227.295857L436.344919,228.348063L436.894769,229.409270L436.726299,230.670861L436.705165,231.886015L436.469236,233.152035L435.665868,234.553057L436.453912,235.549136L436.432984,236.744499L437.767910,237.624290L438.488179,238.656486L438.896386,239.762606L439.492954,240.831971L439.629025,241.998858L440.370552,243.047398L440.749003,244.170972L440.639868,245.384083L441.162605,246.484218L440.962556,247.707863L441.593322,248.795235L442.563134,249.838095L443.476961,250.900288L445.090180,251.878015L445.110803,253.081559L444.589294,254.349246L443.872108,255.629964L442.983762,256.917072L442.844494,258.114518L443.231936,259.259064L443.213003,260.442684L442.064150,261.714467L441.965651,262.892672L441.821429,264.071310L442.205548,265.215946L443.255991,266.330669L443.374770,267.500724L443.085641,268.687029L442.538257,269.876581L443.419764,271.024267L443.268384,272.201041L443.446317,273.372251L443.553583,274.545974L443.115103,275.718814L442.905998,276.888191L443.676229,278.072677L444.188115,279.261693L443.904403,280.432674L444.312151,281.627290L444.037062,282.796747L444.565366,284.005790L444.423609,285.182822L444.473263,286.371708L444.913524,287.591345L443.662806,288.681217L443.986773,289.893663L444.165113,291.098260L443.663271,292.237428L444.856370,293.556389L444.722920,294.739718L444.159371,295.870041L443.848659,297.027433L442.985101,298.106551L443.475742,299.371589L443.499557,300.575171L443.786396,301.823434L444.026999,303.070789L443.519309,304.194756L443.397869,305.384047L442.186766,306.370178L441.694121,307.481986L440.924528,308.533970L440.637846,309.679286L440.599840,310.877823L439.870001,311.924511L438.987478,312.928968L438.244914,313.957748L438.297209,315.175143L438.195028,316.358302L438.459277,317.639807L439.220692,319.063068L438.728841,320.156643L438.614633,321.354553L438.275597,322.490215L438.060453,323.662728L438.052068,324.900401L438.093977,326.159023L438.530915,327.550689L437.471943,328.462467L437.154639,329.613435L437.325603,330.933632L436.519162,331.918143L436.389078,333.139889L435.334714,334.025702L433.796114,334.719230L433.282693,335.788620L433.460421,337.127554L433.627145,338.471906L433.018899,339.509733L431.815308,340.297082L430.907642,341.197837L429.455833,341.855718L428.734508,342.819534L428.543184,344.017445L427.319624,344.747545L427.362345,346.055754L427.281275,347.314308L427.347616,348.651350L427.941110,350.257757L427.737075,351.484153L427.534497,352.717028L427.188946,353.881751L425.706553,354.450755L424.950854,355.392818L423.805174,356.118782L422.678556,356.844817L421.810482,357.706370L420.405984,358.255426L419.487251,359.071874L418.983911,360.127707L418.730072,361.335100L418.605112,362.627734L418.171564,363.738396L417.263986,364.554227L415.962275,365.112585L415.855132,366.433144L415.799033,367.797848L415.325510,368.895053L415.432986,370.390558L414.579510,371.239224L413.649338,372.030459L412.572236,372.712062L411.654654,373.500340L411.116213,374.561043L409.575783,374.881401L409.235928,376.087611L408.677168,377.134534L407.616288,377.795626L407.240605,378.987839L405.642869,379.213101L403.786059,379.208853L401.916381,379.167968L400.735748,379.674025L400.270645,380.773601L399.815301,381.888031L399.699723,383.304552L399.429713,384.600680L399.007819,385.773357L398.974009,387.306370L398.860373,388.785056L398.567463,390.114195L398.661877,391.822499L397.844703,392.681498L396.268324,392.803066L394.705159,392.917187L392.589105,392.458669L391.152831,392.652577L390.417263,393.548798L389.856663,394.629855L388.564595,394.946278L387.853870,395.871898L386.991802,396.637080L385.889253,397.136955L386.036003,399.024512L385.276500,399.917180L384.575607,400.880715L384.615716,402.713296L384.296371,404.151693L383.746024,405.332633L383.017725,406.309408L381.745610,406.622088L380.810090,407.343304L380.186983,408.460436L379.054886,408.933595L378.096133,409.625756L376.326911,409.243390L374.844155,409.214084L374.261156,410.390614L372.875890,410.471097L372.103387,411.394356L371.365836,412.374822L370.555355,413.259059L370.286029,414.944684L369.364110,415.688421L368.526035,416.561700L367.789460,417.597776L367.036228,418.619917L366.473396,419.955641L365.672067,420.929425L364.444081,421.216539L363.100422,421.300867L362.486631,422.599590L362.041677,424.209987L360.520434,423.978137L359.812087,425.158341L357.895208,424.183093L355.894154,423.002008L356.470761,426.557294L356.727072,429.608198L357.198419,433.158001L355.838224,433.226051L353.241265,430.813806L350.250430,427.498739L347.795081,425.150922L346.935001,426.049650L346.129477,427.079554L345.313080,428.105541L344.270025,428.648839L343.298689,429.356520L342.012167,429.347134L340.827077,429.557373L339.512219,429.447140L338.159465,429.221993L337.302000,430.203706L335.976287,430.017541L335.312479,431.523630L334.379045,432.361240L333.367545,433.005789L332.371192,433.702656L331.101197,433.638974L329.969717,433.955217L328.900610,434.452889L327.940937,435.287628L326.599958,434.962620L325.525182,435.449519L324.424094,435.857498L323.129588,435.623218L322.075580,436.182751L321.067424,436.915748L319.827738,436.835293L318.978544,438.181875L318.052534,439.294659L316.813932,439.227264L315.764371,439.903049L314.619954,440.207457L313.190208,439.286234L312.063541,439.633777L310.891313,439.778149L309.551470,439.119013L308.606048,440.335911L307.438529,440.492497L306.050141,439.473810L304.885253,439.587810L303.606457,439.040834L302.501687,439.470494L301.568164,440.991367L300.355873,440.814118L299.288025,441.592972L298.196809,442.265901L297.002793,442.212794L295.928032,443.094019L294.788103,443.508947L293.506258,442.673528L292.310261,442.537289L291.170979,442.952517L289.936726,442.351370L288.820246,443.061920L287.662703,443.341152L286.478116,443.263170L285.308980,443.401469L284.126968,443.319427L282.969015,443.703626L281.805646,444.067354L280.655057,444.947820L279.481349,445.395513L278.274378,444.422668L277.086128,443.841345L275.906544,443.326725L274.733423,443.316453L273.545519,445.048162L272.354035,445.446397L271.175486,445.011370L270.013919,444.193330L268.899995,442.367934L267.730452,442.396296L266.553294,442.553824L265.405827,442.141418L264.168093,443.205785L262.970260,443.487834L261.859829,442.589788L260.641092,443.092038L259.468806,443.000333L258.435708,441.507154L257.296860,441.188769L256.147537,440.986824L255.046586,440.392177L253.808876,440.918743L252.434255,442.390050L251.231325,442.488646L250.119907,441.947977L248.924210,441.980508L247.879987,441.066773L246.859832,440.072687L245.683835,440.020267L244.375402,440.672477L242.995153,441.633630L241.846829,441.345229L240.627631,441.403970L239.581157,440.634694L238.557228,439.797907L237.209115,440.417429L236.039975,440.223043L234.942604,439.728850L233.862380,439.178891L232.884685,438.246627L231.978917,437.079161L230.771390,437.064851L229.710494,436.511927L228.821193,435.375453L227.541641,435.601221L226.811529,433.986414L225.778867,433.407942L224.179228,434.621579L223.083514,434.215975L221.868276,434.170462L220.691565,433.997424L219.848672,432.859741L219.018987,431.718070L217.542269,432.381022L216.350709,432.234451L215.305277,431.693381L214.151237,431.436662L213.551442,429.777140L212.488329,429.310367L211.433510,428.824741L210.018303,429.195937L208.861347,428.934582L207.855333,428.321033L206.411414,428.694168L205.186714,428.553837L204.112994,428.074903L202.775944,428.153827L201.721146,427.624216L200.642774,427.143504L199.322573,427.147680L198.326148,426.493869L197.415279,425.677960L196.448248,424.978546L195.504826,424.239878L195.181154,422.363115L194.053556,421.989419L193.037215,421.410801L191.950817,420.955545L190.378645,421.336398L189.373506,420.721536L188.776558,419.423524L187.668392,418.990126L186.371918,418.856958L185.981583,417.260793L185.408007,415.982762L184.963136,414.525105L184.636979,412.911282L183.594938,412.403072L182.639555,411.762706L181.526078,411.352856L180.428116,410.913595L179.584155,410.108230L178.018549,410.313835L177.210223,409.452672L176.765518,408.104003L175.757833,407.526219L175.335795,406.174369L174.164523,405.813240L172.377366,406.229973L171.441969,405.540961L170.550381,404.796585L170.122647,403.484406L169.437037,402.499999L168.752004,401.521862L167.589103,401.111424L165.421593,401.854566L164.227125,401.445132L162.493343,401.632672L161.044496,401.477071L161.076544,399.683057L160.626704,398.436724L160.359893,397.007983L160.098790,395.590600L158.713885,395.353295L157.387978,395.040008L156.007946,394.767272L154.989813,394.120019L154.421630,393.027137L153.269189,392.505174L152.127238,391.964246L151.561164,390.874051L150.811646,389.960000L150.659796,388.501718L150.308499,387.239299L149.351652,386.525239L147.580268,386.519598L146.541143,385.857560L145.800227,384.935295L144.520010,384.466084L144.396070,383.028180L143.433214,382.289155L142.834830,381.252126L142.616815,379.916907L142.607999,378.429900L142.464870,377.062308L141.667165,376.204178L141.165288,375.122708L140.329881,374.291407L138.255577,374.357191L137.231013,373.641936L135.576451,373.364040L134.483702,372.675387L135.085402,370.817806L135.229380,369.295017L135.054562,368.000335L134.734076,366.810511L134.171180,365.783311L132.887526,365.215038L132.484862,364.083268L131.792947,363.133741L131.727500,361.803169L131.351503,360.668082L130.456063,359.842067L130.214695,358.632539L129.037574,357.961217L128.026479,357.186009L128.004956,355.858442L126.796268,355.183011L125.766473,354.400689L125.493663,353.213832L124.285153,352.513041L123.034555,351.821748L122.838733,350.593924L122.270654,349.553567L121.664597,348.530585L122.185062,346.975411L121.834663,345.840426L121.082865,344.890133L121.238969,343.530740L120.810908,342.437432L120.654853,341.228104L121.164942,339.743463L120.994810,338.555312L120.938056,337.325744L120.135542,336.397967L118.219772,335.896558L116.525549,335.286944L116.062379,334.198479L115.912067,332.995159L116.018070,331.704427L116.417608,330.319175L115.172159,329.507200L113.859205,328.704254L113.512613,327.572172L112.852290,326.540117L111.768672,325.634748L111.922311,324.343846L111.510436,323.227333L110.577540,322.259428L110.986540,320.906823L110.791206,319.729793L111.172285,318.401801L111.454905,317.109356L111.274557,315.941245L110.896010,314.822785L110.099182,313.801255L110.856636,312.417673L111.735186,311.022302L112.258366,309.719258L112.865206,308.410126L112.084527,307.389046L109.603551,306.685658L108.095831,305.770181L106.235915,304.898461L105.489352,303.813748L106.785685,302.388584L107.191825,301.123279L108.868721,299.677610L109.096879,298.463172L108.751532,297.331340L108.389109,296.198987L108.108878,295.053718L108.035282,293.883092L107.907735,292.719007L108.111764,291.522039L108.100262,290.349385L107.773120,289.204884L107.553546,288.048798L107.790898,286.858503L106.576988,285.765454L106.643345,284.583588L106.343409,283.421874L106.101460,282.254298L106.392328,281.064884L106.166710,279.895095L106.861610,278.702364L106.889891,277.529716L106.838840,276.358348L106.445909,275.186779L105.611111,274.007162L104.872112,272.817041L104.741468,271.628452L104.969053,270.447306L106.179390,269.302060L106.785305,268.148533L107.324147,266.999598L107.259147,265.824381L106.453720,264.601682L106.405560,263.418718L105.767346,262.189282L106.109918,261.030771L105.812926,259.818311L106.308588,258.676891L106.215054,257.479684L106.974956,256.374044L107.369573,255.234223L106.506589,253.940851L106.818569,252.788361L106.779337,251.589223L106.389933,250.335986L106.924272,249.216465L107.367260,248.087337L106.646519,246.766701L106.995150,245.619924L108.298633,244.649061L108.575623,243.499632L108.958671,242.371873L109.251348,241.227954L109.148240,240.001347L109.835883,238.942319L110.981427,237.992978L111.474658,236.904676L110.552891,235.479663L109.181979,233.925743L107.764251,232.335363L107.412700,230.999448L107.288928,229.715230L107.656789,228.560874L108.525524,227.549944L109.400195,226.548861L111.358349,225.881122L112.517143,224.991913L113.179596,223.958513L113.348912,222.770480L112.933490,221.386010L112.979521,220.145569L113.578388,219.091379L114.714361,218.230685L115.454789,217.238402L116.435744,216.340427L117.199244,215.369345L117.746957,214.320539L117.906140,213.120690L118.341210,212.027359L118.089887,210.652482L117.619484,209.174579L117.599084,207.873370L118.701309,207.052158L119.933034,206.298739L121.441099,205.682616L122.802512,205.016258L123.271303,203.946645L123.318803,202.675704L123.185477,201.309179L123.231988,200.020358L123.411975,198.790387L123.713053,197.616221L124.522200,196.702229L124.452756,195.327938L123.778707,193.617120L123.954748,192.349151L123.780613,190.879141L124.675254,189.999585L125.813257,189.265444L127.612691,188.927594L128.549425,188.100263L129.661821,187.385069L131.342100,187.027168L131.215607,185.565907L131.430188,184.305610L131.444922,182.908968L130.812241,181.078272L131.553731,180.130836L132.342935,179.217045L133.675077,178.675770L135.233984,178.304869L136.126129,177.484015L137.226533,176.815999L137.822982,175.792265L138.366541,174.727698L139.168956,173.852561L139.947004,172.961124L140.472907,171.877871L141.431710,171.127007L141.942948,170.028302L142.853451,169.244143L144.001356,168.656670L144.407896,167.468151L145.745799,167.049466L146.587129,166.224001L147.926780,165.828645L149.284527,165.463080L149.620041,164.208799L150.022813,163.003952L150.279027,161.656420L150.456048,160.222322L151.405132,159.493702L152.675908,159.073710L153.504831,158.241337L154.634873,157.702816L154.761677,156.181396L154.462334,154.213627L154.859841,152.922068L155.077973,151.432838L156.045788,150.708447L157.824460,150.846165L158.752190,150.096608L160.453914,150.192103L162.022788,150.166169L162.970452,149.465775L164.252738,149.147931L164.690097,147.869261L164.928615,146.343615L165.441016,145.120941L166.340849,144.350934L167.357068,143.722503L168.997642,143.869941L170.179003,143.466774L170.851109,142.424853L171.563275,141.425465L171.859554,139.873076L172.600874,138.887808L173.738115,138.428520L174.832520,137.917898L176.148275,137.720239L177.649994,137.799327L178.486778,136.950018L179.805809,136.795521L181.009976,136.487163L181.644123,135.336597L182.599122,134.658040L183.348190,133.660844L183.682783,132.003496L184.302255,130.767318L185.382049,130.255642L186.555661,129.901453L188.102918,130.178331L189.470346,130.179045L190.205307,129.110907L190.944809,128.035151L191.590975,126.777425L192.946914,126.779408L194.627575,127.396929L196.100852,127.666934L197.886806,128.558655L198.598901,127.425280L199.606568,126.851835L200.305348,125.659133L201.342449,125.130971L202.736619,125.341773L203.513520,124.277009L204.665980,123.997777L204.882967,121.680847L205.855916,120.979209L206.673951,119.917602L207.205804,118.171428L208.461490,118.082575L209.316704,117.045494L210.820294,117.575564L213.027656,119.906671L214.816504,121.282910L216.260816,121.836034L217.756007,122.565625L218.629969,121.654086L219.615421,121.029678L221.084025,121.767747L222.291538,121.797642L223.444208,121.682863L224.697364,121.885499L225.471617,120.622040L226.290939,119.457423L227.127754,118.308724L228.245931,118.062762L229.515098,118.341019L230.730479,118.460897L232.081334,119.096319L233.301511,119.296109L234.485314,119.384328L235.521783,118.911829L236.509218,118.227691L237.246516,116.467384L238.225783,115.659958L239.214477,114.858508L240.500462,115.395036L241.442378,114.338565L242.236756,112.490935L243.303339,111.922932L244.192278,110.378860L245.229622,109.552952L246.274858,108.721217L247.418064,108.426393L248.571810,108.188821L249.936983,109.343663L251.147403,109.556597L252.338355,109.666865L253.549168,109.959247L254.731929,110.074331L255.978208,110.769124L257.112429,110.541118L258.190709,109.748829L259.369906,109.921950L260.539321,110.028743L261.679358,109.807357L262.847481,109.942954L263.983149,109.637738L265.120993,109.315386L266.283823,109.400372L267.409074,108.706731L268.552749,108.258115L269.695577,107.604962L270.839785,106.659724L271.994473,105.584853L273.157969,103.963407L274.349923,103.929717L275.545903,102.754053L276.739731,103.412170Z" />
<line x1="50" y1="550" x2="100" y2="550" fill="none" stroke="black" stroke-width="1.0" stroke-linejoin="round" stroke-miterlimit="10" />
<text x="125" y="553" style="text-anchor:start;fill:black">GC-content</text>
</g>
<g style="fill:pink;stroke:black">
<a href="" title="CP011070:1 [284500-306099];"><path  d="M467.461263,149.068819L469.629752,152.446912L471.738956,155.862335L473.788230,159.314048L475.776952,162.801001L458.318087,172.557435L458.318087,172.557435L456.502297,169.373696L454.631220,166.222132L452.705426,163.103702L450.725501,160.019357Z" />
</a><a href="" title="CP011070:2 [530500-553099];"><path  d="M496.180504,338.080780L495.045905,341.931305L493.844279,345.761441L492.575990,349.570023L491.241426,353.355891L472.437824,346.542335L472.437824,346.542335L473.656339,343.085674L474.814342,339.608273L475.911479,336.111191L476.947416,332.595495Z" />
</a><a href="" title="CP011070:3 [728000-745599];"><path  d="M405.767635,464.208418L402.445576,466.461811L399.084696,468.656882L395.686019,470.792964L385.191583,453.767489L385.191583,453.767489L388.294723,451.817154L391.363352,449.812958L394.396536,447.755513Z" />
</a><a href="" title="CP011070:4 [756000-781099];"><path  d="M386.713704,476.047379L383.187929,477.966431L379.629198,479.823658L376.038597,481.618494L372.417218,483.350391L368.766166,485.018823L360.612586,466.756317L360.612586,466.756317L363.946156,465.232966L367.252632,463.651668L370.531007,462.012905L373.780283,460.317176L376.999469,458.564998Z" />
</a><a href="" title="CP011070:5 [834000-856099];"><path  d="M328.637197,498.658336L324.725652,499.560370L320.798959,500.394000L316.858316,501.158974L312.904923,501.855057L309.608842,482.128530L309.608842,482.128530L313.218463,481.492976L316.816441,480.794522L320.401682,480.033381L323.973093,479.209785Z" />
</a><a href="" title="CP011070:6 [886500-906099];"><path  d="M287.052677,504.683985L283.042303,504.859351L279.029480,504.964700L275.015428,504.999999L275.014087,485.000000L275.014087,485.000000L278.679090,484.967770L282.342973,484.871582L286.004618,484.711465Z" />
</a><a href="" title="CP011070:7 [1024500-1042099];"><path  d="M179.442120,484.209683L175.805462,482.510105L172.199019,480.747317L168.623890,478.921856L177.873987,461.189520L177.873987,461.189520L181.138235,462.856246L184.431074,464.465748L187.751501,466.017537Z" />
</a><a href="" title="CP011070:8 [1266000-1284099];"><path  d="M55.326274,343.142895L54.170474,339.298681L53.081941,335.434882L52.061006,331.552673L71.447005,326.635049L71.447005,326.635049L72.379163,330.179675L73.373041,333.707492L74.428337,337.217426Z" />
</a><a href="" title="CP011070:9 [1417500-1436099];"><path  d="M50.907678,223.205878L51.845740,219.302816L52.851777,215.416720L53.925483,211.548774L73.149354,217.066272L73.149354,217.066272L72.169014,220.597875L71.250458,224.146049L70.393967,227.709715Z" />
</a><a href="" title="CP011070:10 [1491500-1509099];"><path  d="M71.525403,167.770860L73.427800,164.236070L75.391598,160.735020L77.416198,157.268776L94.597398,167.506274L94.597398,167.506274L92.748850,170.671105L90.955817,173.867716L89.218847,177.095133Z" />
</a></g>
<text x="275" y="280" style="text-anchor:middle" font-size="25" font-weight="bold">CP011070</text>
<path  style="fill:pink;stroke:black" d="M350,550L375,550L375,565L350,565Z" />
<text x="405" y="565" style="text-anchor:start;fill:black">Selected loci;</text>
</svg>