<svg xmlns="http://www.w3.org/2000/svg" viewbox="0 0 550 650">
<circle cx="275" cy="275" r="240" fill="none" stroke="black" stroke-width="1.0" />
<line x1="275" y1="15" x2="275" y2="55" fill="none" stroke="grey" stroke-width="1.0" stroke-linejoin="round" stroke-miterlimit="10" />
<line x1="495" y1="275" x2="535" y2="275" fill="none" stroke="grey" stroke-width="1.0" stroke-linejoin="round" stroke-miterlimit="10" />
<line x1="275" y1="495" x2="275" y2="535" fill="none" stroke="grey" stroke-width="1.0" stroke-linejoin="round" stroke-miterlimit="10" />
<line x1="15" y1="275" x2="55" y2="275" fill="none" stroke="grey" stroke-width="1.0" stroke-linejoin="round" stroke-miterlimit="10" />
<text x="275" y="10" style="text-anchor:middle" font-size="15">Nitrosopumilus maritimus SCM1, complete genome.</text><text x="285" y="25" style="text-anchor:start">1,645,259</text><text x="525" y="265" style="text-anchor:start">0.41 Mbp</text><text x="285" y="530" style="text-anchor:start">0.82 Mbp</text><text x="-200" y="25" style="text-anchor:end" transform="rotate(-90)">1.23 Mbp</text><circle cx="364.443427" cy="52.289710" r="2.500000" fill="grey" stroke="black" stroke-width="1.0" />
<circle cx="440.999763" cy="101.667721" r="2.500000" fill="grey" stroke="black" stroke-width="1.0" />
<circle cx="493.638701" cy="176.019606" r="2.500000" fill="grey" stroke="black" stroke-width="1.0" />
<circle cx="514.775976" cy="264.632677" r="2.500000" fill="grey" stroke="black" stroke-width="1.0" />
<circle cx="501.366109" cy="354.739481" r="2.500000" fill="grey" stroke="black" stroke-width="1.0" />
<circle cx="455.341206" cy="433.357347" r="2.500000" fill="grey" stroke="black" stroke-width="1.0" />
<circle cx="383.332577" cy="489.158943" r="2.500000" fill="grey" stroke="black" stroke-width="1.0" />
<circle cx="295.715292" cy="514.104322" r="2.500000" fill="grey" stroke="black" stroke-width="1.0" />
<circle cx="205.113329" cy="504.599332" r="2.500000" fill="grey" stroke="black" stroke-width="1.0" />
<circle cx="124.580700" cy="462.013460" r="3.000000" fill="black" stroke="black" stroke-width="1.0" />
<circle cx="65.720623" cy="392.482519" r="2.500000" fill="grey" stroke="black" stroke-width="1.0" />
<circle cx="37.013709" cy="306.024588" r="2.500000" fill="grey" stroke="black" stroke-width="1.0" />
<circle cx="42.596077" cy="215.096607" r="2.500000" fill="grey" stroke="black" stroke-width="1.0" />
<circle cx="81.663415" cy="132.799561" r="2.500000" fill="grey" stroke="black" stroke-width="1.0" />
<circle cx="148.586865" cy="70.990884" r="2.500000" fill="grey" stroke="black" stroke-width="1.0" />
<circle cx="233.724035" cy="38.576028" r="2.500000" fill="grey" stroke="black" stroke-width="1.0" />

<circle cx="275" cy="275" r="185" fill="white" stroke="grey" stroke-width="0.5" />
<circle cx="275" cy="275" r="170" fill="none" stroke="black" stroke-width="0.5" />
<circle cx="275" cy="275" r="170" fill="aliceblue" stroke="black" stroke-width="0.5" />
<circle cx="275" cy="275" r="163" fill="white" stroke="none" stroke-width="0.5" />
<circle cx="275" cy="275" r="140" fill="none" stroke="black" stroke-width="0.5" />
<circle cx="275" cy="275" r="140" fill="aliceblue" stroke="black" stroke-width="0.5" />
<circle cx="275" cy="275" r="133" fill="white" stroke="none" stroke-width="0.5" />
<circle cx="275" cy="275" r="110" fill="none" stroke="black" stroke-width="0.5" />
<circle cx="275" cy="275" r="110" fill="white" stroke="black" stroke-width="0.5" />
<circle cx="275" cy="275" r="109" fill="aliceblue" stroke="none" stroke-width="0.5" />
<circle cx="275" cy="275" r="80" fill="none" stroke="black" stroke-width="0.5" />

<g style="fill:none;stroke-linejoin:round;stroke-miterlimit:10">
<path style="stroke:blue;stroke-width:1.0" d="M277.320008,123.118663L278.475533,123.335221L279.650145,122.832153L280.842875,122.070414L281.990827,122.554137L283.178609,122.170470L284.272177,123.438538L285.397818,123.974113L286.533466,124.287436L287.690795,124.302206L288.897930,123.788826L290.032434,124.100353L291.326445,122.897587L292.559622,122.401736L293.633156,123.285132L295.191869,120.364877L295.852384,124.281930L297.007681,124.413140L298.067543,125.167978L299.163673,125.642704L300.231819,126.255586L301.339257,126.609905L302.529893,126.502436L303.687596,126.591308L304.955710,126.141774L305.894461,127.318206L307.091430,127.236638L308.782770,124.982955L309.583264,126.721692L310.485531,127.940234L311.637502,128.096127L313.854282,124.125076L315.164915,123.826267L315.931877,125.548679L316.686541,127.232623L317.149601,129.843245L318.069957,130.795853L319.404114,130.366823L320.746193,129.953394L321.529544,131.305028L322.750791,131.288151L323.715299,132.043679L324.837888,132.327950L327.517486,128.266562L330.712462,123.008962L329.736820,129.128356L329.560506,132.907290L330.529717,133.619632L331.380528,134.614133L332.081649,135.948911L333.716477,135.019476L335.797677,133.106037L339.242157,128.175093L342.739892,123.345844L345.786009,119.722187L346.244205,121.827660L344.044001,129.475125L343.221242,134.000279L344.655924,133.796211L346.853748,132.102267L349.770548,129.089040L354.063359,123.572797L353.185085,128.002524L353.224987,130.598670L353.422959,132.836679L352.592951,136.846845L352.831391,138.868113L354.116801,139.040498L353.359024,142.678052L354.482415,143.089515L355.434649,143.786833L356.343634,144.550713L358.064070,144.030383L360.320305,142.717693L362.223988,142.007337L361.879702,144.713190L364.588341,142.849220L364.304172,145.410571L363.301610,148.937079L363.051868,151.314884L364.360518,151.484395L366.950078,149.927830L368.211944,150.219775L368.342338,152.015677L368.715040,153.463521L370.236207,153.422483L370.344929,155.180266L371.250870,155.919963L370.800363,158.311723L372.148751,158.495264L372.701779,159.635036L374.462365,159.358821L375.454294,159.994130L376.064025,161.064322L376.720106,162.074019L379.266310,161.010286L380.646159,161.258477L380.217969,163.440534L379.850539,165.517601L380.428649,166.583896L381.121134,167.526502L381.873386,168.405523L383.533166,168.391221L383.786502,169.762854L387.264883,168.045720L387.357862,169.582436L386.645565,171.842745L387.488961,172.645027L392.135061,170.041633L396.184648,168.070469L396.578570,169.363459L392.384999,174.570247L391.978131,176.455804L392.061848,177.904163L394.012349,177.811088L393.349298,179.850012L394.909421,180.094386L395.631777,181.012243L397.340985,181.173366L400.044845,180.607740L401.006254,181.384213L400.988528,182.882430L404.416384,181.884632L404.374521,183.406289L403.200828,185.699339L401.469424,188.332473L400.485196,190.408190L401.484294,191.132607L404.117931,190.798985L407.261865,190.181454L405.674542,192.601104L405.534342,194.076295L405.172520,195.670509L405.823212,196.637962L412.755338,193.908864L417.282930,192.700455L418.956231,193.193553L419.911851,194.108459L413.641177,198.991851L410.971503,201.800544L412.458250,202.348815L410.597958,204.651742L412.667629,204.907264L413.464232,205.828280L411.490261,208.112151L411.821743,209.240904L412.371986,210.263353L414.268241,210.665053L413.163190,212.451529L413.295250,213.660158L413.986039,214.619906L414.213266,215.781016L416.966021,215.886454L419.786164,216.005684L423.705691,215.728929L424.753751,216.632716L422.563991,218.780656L423.476116,219.728064L419.870966,222.326427L419.782820,223.607064L418.947468,225.138255L418.782844,226.422028L420.369494,227.119869L423.395638,227.376419L423.768386,228.507065L425.067085,229.356374L425.036503,230.614780L423.816562,232.209036L422.809730,233.718190L424.864751,234.375583L423.123973,236.059470L423.985372,237.047186L424.443548,238.143644L424.557652,239.325038L426.041977,240.188069L424.665524,241.707078L428.030566,242.183146L432.068614,242.570022L438.422241,242.557582L439.644111,243.620163L433.210359,246.096883L426.803598,248.463837L424.935502,249.969031L425.462856,251.060764L425.061016,252.298464L426.380471,253.280207L427.968106,254.243546L427.111107,255.541836L427.388579,256.688189L427.978756,257.801519L427.846117,258.997623L428.704706,260.093661L431.278858,261.048023L428.946053,262.440703L426.355886,263.815053L427.483635,264.902096L427.845230,266.050120L428.011238,267.212594L426.701948,268.440491L425.867630,269.630678L429.267593,270.689154L431.665157,271.819456L433.511735,272.993004L431.035162,274.216246L426.255673,275.395540L426.221882,276.550527L426.182521,277.705079L426.716334,278.873981L425.799897,280.003377L425.969082,281.163666L426.235424,282.331974L426.233575,283.490162L426.351115,284.656933L426.835129,285.852833L428.213784,287.128257L427.767784,288.267826L427.040810,289.375524L426.227100,290.464840L427.792750,291.805116L428.903501,293.118031L430.624299,294.526838L431.660165,295.873399L426.142848,296.314404L425.318149,297.370341L424.113127,298.356497L424.308913,299.556977L423.707672,300.626123L428.552297,302.670241L433.168671,304.751168L435.928956,306.544880L432.462086,307.116105L427.409532,307.300017L422.870616,307.520177L423.558069,308.862944L423.508090,310.046886L422.467925,310.992664L421.468098,311.936227L425.321636,314.131552L424.543405,315.151022L425.534384,316.652302L429.373687,318.986704L424.994906,318.980419L432.389729,322.457115L432.532724,323.815906L427.283685,323.467215L425.081512,324.031860L421.419562,324.076323L421.431144,325.327500L420.392064,326.215339L421.113859,327.727492L417.774016,327.758194L416.338354,328.458121L415.843276,329.504099L418.266894,331.703890L422.594333,334.724545L426.120035,337.498668L429.502976,340.284080L419.608883,337.409360L416.058579,337.159460L413.935323,337.495365L412.903826,338.302190L416.816691,341.414382L418.275136,343.436532L416.838181,344.085581L414.228164,344.134950L411.708058,344.190178L409.258491,344.243567L409.579409,345.715580L408.990387,346.717339L408.216551,347.617544L408.422592,349.057295L411.491619,352.130316L412.643181,354.174116L409.195986,353.561407L406.222125,353.172272L404.944455,353.762041L403.037520,353.949674L402.675102,355.078543L402.985621,356.641984L406.423462,360.254191L407.842740,362.623696L407.789782,364.051675L405.402061,363.901817L400.279936,361.818787L398.922590,362.286703L399.501818,364.125138L399.384948,365.486294L402.175385,369.009992L398.247367,367.570383L396.077146,367.395202L395.148043,368.146819L394.352852,368.998577L393.381811,369.707740L392.843770,370.762565L391.966919,371.542646L390.562998,371.877298L393.021973,375.483538L390.558334,374.918420L389.480103,375.524423L390.966343,378.408801L394.229010,382.964188L391.179045,381.828644L388.085484,380.589406L385.943410,380.186887L383.701375,379.649299L383.896928,381.452106L383.038047,382.238416L381.309898,382.147404L382.610872,385.128362L381.744033,385.923627L380.353038,386.165197L379.298582,386.749852L377.242922,386.238622L376.877622,387.554671L375.959148,388.266882L375.502158,389.503027L374.722877,390.380935L374.925617,392.416401L375.306077,394.703948L373.774632,394.722079L371.176915,393.404237L369.860619,393.623743L368.603555,393.902419L368.322879,395.427131L367.070704,395.704238L365.615867,395.697689L364.888607,396.653239L363.813126,397.138641L363.215850,398.286059L361.767389,398.240036L362.618750,401.490770L364.547047,406.407515L363.009679,406.295343L364.609171,410.914658L358.041112,403.070536L356.363714,402.608232L355.220808,402.961357L355.627013,405.818982L354.028759,405.446019L352.894978,405.818853L351.399906,405.566390L350.256938,405.896532L349.882103,407.577840L348.984023,408.356290L347.544615,408.149004L346.358602,408.387181L346.021934,410.231095L345.212004,411.206122L344.477758,412.347536L342.561584,411.131072L341.332130,411.257489L342.696402,416.801865L347.389099,429.658876L348.427224,435.049469L346.968146,435.084006L342.342375,427.906808L337.842655,420.696600L336.063285,419.598253L333.887431,417.472506L333.103810,418.675477L334.337732,425.013161L330.664178,418.930424L330.148464,420.899652L328.691247,420.392533L326.572924,418.008064L326.722128,421.928784L325.269948,421.363245L323.534944,419.904896L323.312164,422.983407L322.650667,424.826490L320.876359,423.156138L320.711720,426.715956L317.834208,421.198969L316.471794,420.663035L315.196130,420.389943L314.697254,422.976873L313.016631,421.164079L311.850984,421.259044L310.863759,422.073272L310.558502,425.817075L309.111120,424.791361L307.932353,424.894193L306.661184,424.549326L305.425956,424.334902L304.390428,425.104091L303.923992,428.948258L302.512701,427.861172L301.063791,426.436637L299.461793,423.924626L298.385204,424.500856L297.620491,427.217628L296.714589,429.213795L295.638145,430.142294L294.633994,431.743607L293.656514,433.763522L292.330363,432.872055L291.980156,441.388783L290.197382,436.092496L288.778825,434.037267L287.299152,430.786733L285.761958,426.007737L284.645899,426.677233L283.462627,426.308404L282.299181,426.212675L281.196224,427.549071L280.018372,427.212091L278.912920,429.507327L277.726152,429.162285L276.526542,426.982188L275.368831,428.299491L274.178718,431.971968L272.915398,436.965955L271.529474,444.205539L270.535491,433.579094L269.518891,428.107986L268.387730,427.184859L267.055299,430.461515L265.927797,429.381096L264.686265,430.250450L263.742854,426.900742L262.646735,426.030953L261.375121,427.255531L259.973783,429.604343L258.932249,428.161298L257.832634,427.414941L256.313269,430.234600L255.427065,427.754539L254.219430,427.905869L252.731127,429.976899L251.920234,427.345799L250.556970,428.422568L249.789658,425.815785L248.761726,424.914681L247.129622,427.377112L246.143500,426.232696L245.108147,425.409607L244.308640,423.491145L243.287674,422.729292L241.889246,423.699908L240.026526,426.598035L239.059620,425.530882L238.291653,423.709654L237.444298,422.297741L235.332229,425.762090L229.783913,441.665557L214.857534,490.166746L222.112199,458.786204L226.195968,439.846812L228.090042,429.114779L227.815204,425.871402L227.187678,423.876763L226.467544,422.246405L225.398078,421.712400L223.003086,425.010134L222.547732,422.669191L221.444902,422.199627L220.388832,421.607340L219.807426,419.777936L218.340979,420.281054L217.320831,419.623826L216.966084,417.343934L216.694746,414.942378L214.752298,416.549424L212.510875,418.758461L210.837497,419.577580L208.061386,422.778320L208.453378,418.976855L209.413339,414.100295L208.865740,412.528670L207.335829,413.001385L205.323290,414.402179L202.651966,417.023760L201.042639,417.481705L199.289177,418.174708L197.685831,418.542864L196.571686,417.984699L195.800281,416.811386L195.001546,415.706177L193.995235,414.976924L193.174564,413.936288L192.453056,412.744451L191.122885,412.570023L190.728913,410.870405L189.753809,410.127373L188.182368,410.316870L186.838359,410.129588L183.080293,413.565447L183.522813,410.637906L181.936846,410.741356L186.493777,402.003696L187.558196,398.455282L185.526947,399.299285L185.066980,397.946772L183.183959,398.529844L183.132020,396.647936L182.888900,395.052103L181.155900,395.395465L180.863787,393.886226L179.183573,394.127210L178.600188,392.995692L178.454022,391.349404L177.659746,390.499956L175.513426,391.233379L175.161339,389.857194L174.331766,389.040565L174.050904,387.613271L171.864441,388.299233L170.801810,387.724859L168.151333,388.835474L166.564728,388.771769L164.202128,389.486863L162.905026,389.070672L164.241059,386.002318L164.828811,383.739394L165.064836,381.861137L164.978090,380.323131L163.665224,379.962074L163.919439,378.131332L163.163406,377.253913L162.247555,376.521094L161.274690,375.834942L159.410425,375.921544L159.498899,374.299877L158.493041,373.627102L158.726263,371.914922L158.219531,370.835184L157.659652,369.804145L156.913417,368.925479L155.805046,368.329648L154.918188,367.553337L153.024386,367.536562L150.975068,367.607337L149.210384,367.437017L150.876797,364.760570L148.634883,364.919964L145.753125,365.491555L143.944675,365.273958L143.819343,363.890643L142.461224,363.341361L141.458518,362.544007L141.317738,361.183683L142.316040,359.112451L144.668813,356.232149L146.492254,353.739244L145.854546,352.779549L144.166191,352.440826L140.773634,353.070700L135.394605,354.778591L131.979350,355.287420L135.081071,352.146709L138.323770,349.003192L140.678671,346.406864L141.110774,344.870787L135.145994,346.629808L125.388880,350.190276L128.342478,347.308132L126.728498,346.701362L136.542819,340.655285L135.549544,339.826358L128.195890,341.886059L125.489643,341.744819L126.570627,339.907207L131.156896,336.597236L132.254816,334.841052L133.819011,332.921500L134.050633,331.572614L132.359709,330.990152L131.051966,330.238377L124.762542,331.339213L119.864222,331.828377L122.787823,329.442487L123.670731,327.826509L129.048845,324.701792L131.044714,322.798257L128.224028,322.493291L127.830820,321.381801L127.228899,320.333687L127.187153,319.114119L128.542220,317.494181L127.751911,316.506809L126.456517,315.649851L125.288335,314.742951L126.712005,313.155020L126.842744,311.917190L127.109444,310.653279L126.213797,309.668922L124.984220,308.749529L121.769268,308.245292L115.599032,308.311281L107.652585,308.640004L108.114531,307.222985L115.007969,304.626246L122.034607,302.118384L125.723123,300.290033L124.966349,299.240907L121.749511,298.561035L121.626924,297.382124L121.110277,296.258402L121.543217,295.005372L123.686111,293.551795L122.873983,292.473052L118.366345,291.779695L114.346258,290.970201L108.323701,290.284198L112.146132,288.680209L116.372679,287.105791L120.372648,285.613288L119.658819,284.470811L118.882599,283.321823L120.922233,282.033379L121.842559,280.819510L122.208481,279.637227L120.415206,278.510109L120.340845,277.330095L121.334005,276.141288L122.214503,274.967763L120.306527,273.785797L121.423480,272.621393L119.972576,271.414385L118.187509,270.174500L119.763647,269.035893L119.649580,267.842832L121.484827,266.751920L123.569185,265.703454L124.473248,264.604346L124.436647,263.445709L124.960224,262.332448L124.684907,261.152155L123.543668,259.879543L124.797576,258.845149L124.366183,257.633932L121.390928,256.101005L120.027286,254.730490L117.048566,253.112581L122.133915,252.625976L124.178393,251.747231L125.332088,250.753373L124.823430,249.492346L125.085587,248.357251L125.464650,247.244780L123.509265,245.683181L126.704337,245.124645L125.462680,243.684138L125.781047,242.559173L126.677086,241.565554L126.843790,240.411952L126.068719,239.029316L126.825182,238.012015L127.244818,236.915588L128.523505,236.049692L129.328516,235.070005L128.492054,233.635079L129.548034,232.731096L129.677089,231.562196L129.829581,230.397122L129.203168,228.983062L124.268532,226.156525L124.389379,224.921362L125.960537,224.176327L127.131456,223.311558L130.224870,223.148638L132.033767,222.561058L132.199001,221.380721L132.013700,220.061441L133.111191,219.235712L132.815168,217.861830L134.435259,217.262011L135.740232,216.550983L136.389762,215.574377L136.054115,214.170002L136.936231,213.295311L135.866681,211.537949L131.923305,208.414471L130.617721,206.460438L131.833359,205.692696L132.724550,204.777758L135.878641,205.008026L134.841112,203.139361L135.991577,202.383081L136.550258,201.323467L135.525428,199.405519L131.788784,195.959207L131.546975,194.390225L129.042368,191.509647L130.878764,191.092688L129.119795,188.570028L128.422107,186.637222L129.874532,185.994492L131.163577,185.266078L139.286318,188.886608L144.834663,191.005865L147.400874,191.274535L147.669368,190.052409L147.712981,188.669363L149.259911,188.309039L150.338316,187.640326L151.768813,187.231746L152.109536,186.051890L149.737647,182.869013L148.573814,180.516564L151.761144,181.423118L153.721357,181.442593L155.097105,181.034388L153.823783,178.533526L152.184418,175.686497L151.225810,173.338023L150.896482,171.470118L156.668614,174.742709L157.497725,173.893385L159.575876,174.137041L159.172487,172.213795L159.662619,171.063293L161.384500,171.031545L162.955147,170.885309L165.282201,171.474862L166.112419,170.674659L166.234882,169.186890L164.783235,166.123763L167.910641,167.584708L169.125048,167.167993L169.887586,166.296134L170.474178,165.237371L171.689271,164.840686L172.701604,164.236662L173.656419,163.574918L173.992240,162.225572L175.220044,161.869518L175.572370,160.518132L176.048138,159.292538L177.511753,159.225331L176.998942,156.795581L176.305615,154.091593L178.600843,155.044673L181.082452,156.287030L180.226413,153.306190L180.638817,151.907752L181.940267,151.665803L182.384494,150.284659L182.574773,148.534188L182.276108,146.069815L184.335725,146.880458L185.920238,147.058225L188.764489,149.103521L190.365120,149.393223L191.490061,148.996560L192.599794,148.584701L193.121507,147.262869L193.241915,145.280499L194.188364,144.584438L195.504817,144.493076L196.477426,143.845443L197.777518,143.752711L199.062576,143.651658L199.702798,142.432501L201.242370,142.801954L202.418964,142.543091L203.179454,141.521808L204.471566,141.489261L205.414547,140.802480L205.947277,139.303591L206.610439,138.028516L208.472547,139.171980L209.158445,137.931951L209.786094,136.538825L210.125557,134.485318L212.458468,136.773814L213.787430,136.912377L214.810072,136.370939L215.958793,136.122578L216.932254,135.461843L217.648475,134.159837L217.327781,130.216065L217.193151,126.590787L218.705429,127.143943L220.652073,128.910912L222.655382,130.938273L223.297645,129.247064L224.388987,128.788803L225.086041,127.159063L226.895443,128.844404L228.890494,131.217033L229.900817,130.583363L230.559966,128.778269L232.337699,130.674570L233.489603,130.521124L234.000447,128.080163L233.045314,120.097247L234.976062,122.622975L235.561658,120.045218L238.235534,125.792407L239.933716,127.855264L241.101414,127.777630L242.230356,127.538719L243.121820,126.192104L244.143131,125.389604L245.147715,124.457230L246.592611,125.779021L247.830004,126.097106L249.065590,126.452365L250.128893,125.826535L251.223604,125.355314L252.281273,124.608854L253.538945,125.195991L254.737111,125.430307L255.833175,124.912507L256.917654,124.250046L257.955723,123.101574L259.029021,122.139528L260.450268,124.639212L261.361166,121.860599L262.512763,121.534061L263.412584,117.742326L264.809857,120.625029L266.158184,123.447348L267.239930,121.883685L268.491960,123.742213L269.601834,122.407900L270.725906,120.872371L271.891465,120.258304L273.094384,121.920725L274.261969,121.563878L275.429973,122.956017L276.585171,123.544537Z" />
<line x1="50" y1="575" x2="100" y2="575" fill="none" stroke="blue" stroke-width="1.0" stroke-linejoin="round" stroke-miterlimit="10" />
<text x="125" y="578" style="text-anchor:start;fill:black">n1_4mer:GRV/n1_4mer:RV</text>
<path style="stroke:green;stroke-width:1.0" d="M276.412927,182.501533L277.068395,184.739690L277.687164,187.067267L278.498608,183.428534L279.168720,184.094561L279.877395,183.858586L280.514355,184.863270L281.045061,187.196891L281.921777,184.550276L282.439052,186.664420L283.123737,186.612755L283.722253,187.443663L284.464992,186.821087L285.269352,185.756325L286.016717,185.299696L287.759106,177.287109L287.082116,187.672178L287.640473,188.507967L288.563356,186.901105L289.363923,186.215623L290.302758,184.788520L290.338830,188.584107L291.561839,185.664647L292.019924,186.951332L292.832327,186.386227L292.971415,189.092989L294.227803,186.466555L294.923283,186.527917L296.121968,184.437999L295.995835,187.988689L297.056914,186.559307L298.767505,182.708485L300.234039,180.023480L301.428684,178.503040L300.503803,184.595999L300.644116,186.685603L300.700833,188.950072L301.354202,189.159035L302.413223,188.081402L302.564207,189.874773L304.240111,186.998307L304.553374,188.274848L304.945191,189.275222L306.728335,186.351286L308.877686,182.577147L308.114216,186.751814L307.209080,191.117431L308.384690,190.001551L308.152157,192.452097L308.936975,192.329415L308.630651,194.824273L309.371723,194.780817L309.693897,195.707392L309.715865,197.279102L311.409944,195.130313L310.899022,197.818464L311.819845,197.394368L313.637445,195.144096L313.047986,197.870598L313.468971,198.495588L314.972541,196.995598L315.100135,198.197658L315.446153,198.956309L316.989586,197.488295L317.375164,198.183286L319.658899,195.485460L319.476756,197.207420L320.467625,196.865450L320.608453,197.982714L320.153814,200.061895L322.595616,197.357197L321.534914,200.372816L322.547280,200.030773L323.573318,199.690957L322.149047,203.110632L322.422733,203.883773L323.989683,202.735856L326.197677,200.706969L327.507069,200.038802L328.210522,200.255991L333.359080,194.335102L332.145789,197.269258L329.953570,201.435192L332.934765,198.667352L332.890196,199.923784L334.755560,198.716694L334.443607,200.297367L334.124401,201.852237L332.588631,204.854983L334.282518,203.905992L331.885784,207.830021L331.877693,208.870430L336.074028,205.078930L337.501443,204.538288L336.573361,206.643482L339.943331,204.000349L337.603112,207.599789L336.705878,209.575103L334.834484,212.522277L337.283379,210.951743L336.938630,212.272050L340.935524,209.236549L340.947139,210.222161L338.855803,213.227608L343.243999,209.984231L344.799807,209.511698L341.888749,213.196742L343.329087,212.826595L345.344532,211.968085L349.041570,209.668042L348.095175,211.489453L347.177821,213.247640L343.675013,217.147102L346.085168,216.039083L352.621423,211.612110L345.528852,218.296500L349.249718,216.233016L348.347421,217.852873L349.367537,217.965510L350.530056,217.984833L351.913994,217.857090L352.742617,218.157833L358.662358,214.804753L359.774194,214.982131L357.467258,217.555904L352.449384,221.925143L351.082215,223.711621L353.799934,222.750469L354.379100,223.234914L354.673806,223.905783L353.058154,225.779198L353.142933,226.555923L354.558265,226.515753L352.616342,228.508443L360.699325,224.552186L360.700570,225.428924L364.318090,224.242937L363.989017,225.325259L358.307170,229.327971L361.305033,228.538195L362.502552,228.752037L361.372977,230.189676L361.878358,230.766349L362.465478,231.305412L360.750760,232.977340L359.518328,234.378906L358.106239,235.836125L363.137451,234.284916L359.256008,236.856089L362.472302,236.202304L362.868374,236.827097L361.065701,238.389097L362.970553,238.369746L363.887137,238.782203L368.931791,237.560694L370.115598,237.928214L373.075930,237.634756L369.824661,239.700433L364.531325,242.447344L364.947512,243.071717L361.595631,245.004271L362.305228,245.503359L365.383042,245.230674L369.456032,244.686882L369.188034,245.564458L372.641649,245.301823L369.545197,247.030744L368.301410,248.171956L366.600777,249.416800L367.311218,249.976841L363.215945,251.808780L367.219499,251.507832L372.470099,250.961540L370.367519,252.251364L373.540096,252.288624L367.650422,254.390021L367.202771,255.227447L369.010270,255.589687L376.651829,254.820182L379.348867,255.111949L369.822146,257.677142L368.633343,258.632340L369.394706,259.241284L369.166153,260.017792L368.364145,260.875682L367.596634,261.714405L368.158519,262.359191L369.780051,262.875667L370.486823,263.525803L365.732104,264.799536L364.597791,265.619470L364.291515,266.340476L371.051966,266.424849L370.924102,267.174276L365.642285,268.301687L369.511564,268.741173L365.728726,269.687363L367.527584,270.290870L368.473468,270.958258L366.580296,271.740692L377.607638,272.132737L374.053072,272.989070L378.770588,273.686109L374.189070,274.501780L371.571736,275.252539L372.931810,276.004127L368.790095,276.678168L372.188313,277.481642L372.851248,278.246598L370.308344,278.891186L367.692489,279.493781L367.909983,280.215911L373.342421,281.274722L372.820163,281.991965L373.817472,282.822296L372.305125,283.450914L367.267696,283.723950L368.228618,284.533778L367.915524,285.219439L369.243035,286.094603L371.706005,287.134111L373.174014,288.080705L369.095569,288.269506L369.353931,289.041748L367.811530,289.537635L368.892611,290.442606L365.757301,290.639797L374.175591,292.871517L376.750251,294.138992L380.994550,295.776779L378.210090,296.050820L371.505201,295.452261L370.936410,296.098641L368.302536,296.267768L364.276224,296.068574L368.673619,297.863027L368.182134,298.498609L368.118147,299.240407L365.340039,299.255465L366.237273,300.245013L370.189140,302.122864L371.365397,303.255564L371.929825,304.226874L373.966273,305.667458L369.624901,305.116197L370.088781,306.065650L371.032083,307.187649L367.046699,306.635895L368.395299,307.899127L369.460119,309.087425L364.728489,308.156685L363.797056,308.585531L360.962422,308.266085L365.016833,310.627942L367.119930,312.276641L371.347625,314.846459L376.025489,317.687567L370.942268,316.406139L366.467984,315.306662L362.122889,314.189291L365.218980,316.413347L366.708441,317.948114L368.486317,319.654498L369.345727,320.953278L364.244796,319.315276L363.306664,319.693443L357.199517,317.394248L352.830163,315.896339L352.435933,316.446996L350.079352,315.926432L352.499598,318.016782L356.089668,320.823119L357.564940,322.492408L354.578180,321.586891L356.223021,323.386567L355.719372,323.925693L357.056622,325.597227L354.832126,325.071159L356.068199,326.713377L359.863486,330.050808L358.349949,329.978018L358.699500,331.130679L357.381941,331.164023L354.244181,329.916085L351.577663,328.938606L355.222769,332.427798L353.081109,331.801649L354.144003,333.504459L353.469784,333.938200L351.425650,333.321191L350.793293,333.760043L351.047394,334.892552L348.837672,334.071567L350.894384,336.673526L348.414133,335.594865L347.737540,335.976407L348.862933,337.886670L346.010222,336.399546L344.114509,335.689115L343.565718,336.141005L340.667782,334.463455L341.466601,336.117190L341.494728,337.087004L341.554283,338.100980L341.625153,339.141558L343.917045,342.369803L344.516178,344.001662L341.222835,341.744536L343.903162,345.515109L343.675585,346.364598L343.135816,346.894760L343.294947,348.174056L339.690017,345.381677L339.268176,346.003653L339.034957,346.841334L338.880258,347.779361L338.912891,348.948219L337.079564,347.945849L337.032255,349.028474L336.025650,348.967552L334.049226,347.696017L334.706230,349.662979L332.856329,348.493550L333.318037,350.255650L332.918696,350.931125L331.192348,349.846567L332.051897,352.212767L330.326716,351.087062L328.507778,349.779794L329.096863,351.836464L327.543725,350.854727L329.735192,355.322197L328.111742,354.233608L327.978593,355.355250L325.256971,352.509045L324.146706,352.080113L324.053032,353.245191L325.755618,357.352031L323.273130,354.680331L322.076241,354.061063L322.688717,356.499363L322.059552,356.852017L322.647512,359.359331L322.045597,359.799744L320.547876,358.598959L320.434124,359.927810L320.194047,361.052860L319.637672,361.593800L319.890731,363.742520L318.179866,362.003903L316.100735,359.427908L318.225513,365.543341L320.626084,372.479856L320.763830,374.751512L321.472690,378.372601L319.254025,375.482672L316.996061,372.365131L315.015658,369.757336L312.939663,366.791387L313.199173,369.456532L312.793072,370.545582L309.359198,363.842306L309.532143,366.357534L308.515078,365.756732L306.923679,363.522100L307.814350,368.216823L307.080714,368.404461L305.720348,366.718019L305.213414,367.545719L304.439688,367.566282L302.808124,364.805389L302.432413,366.047432L299.351508,358.115005L298.961748,359.161804L297.319096,355.728471L298.427446,362.328968L297.112720,360.017668L296.717043,361.193464L296.171313,361.821192L296.650745,366.829009L294.902767,362.398553L294.460297,363.575073L294.161601,365.508444L292.710599,361.926131L292.915611,366.499400L292.979178,370.694368L291.786782,368.267730L291.736923,372.245381L289.590573,363.828143L289.528899,367.882780L289.117260,369.997752L288.610459,371.659465L287.976840,372.550273L286.851835,369.616477L285.969528,368.348676L285.754609,372.969804L285.549508,378.374777L284.866883,379.589125L283.778044,376.317498L283.040722,376.847495L281.884301,371.597917L281.275732,373.682940L280.329052,370.281322L279.597822,370.250284L278.902080,371.067983L278.192888,371.843409L277.485792,373.155097L276.760627,374.562448L275.964607,371.036136L275.236257,373.196906L274.490710,372.340809L273.693255,376.529313L272.826781,380.955317L272.233092,373.280399L271.724584,366.494693L270.924882,368.790972L269.949513,373.827677L269.369612,370.811958L268.457382,373.484639L267.878455,371.096110L267.459446,367.190768L266.586063,369.024206L265.745379,370.220542L265.094281,369.423462L264.280646,370.168338L263.252582,372.588267L262.810626,370.130456L261.846229,371.786988L260.518181,375.784056L260.259539,372.299399L259.659694,371.287129L259.323119,368.783780L258.410416,369.786045L257.650628,369.855091L257.183458,368.373892L256.342434,368.881003L256.420333,364.892273L256.036364,363.340556L254.785040,365.785090L253.913148,366.404283L252.653227,368.596103L252.892303,364.560775L252.644514,362.680761L251.203840,365.440141L248.251321,373.595073L246.369608,377.428595L245.908284,376.094317L247.203953,368.887523L247.531541,365.243001L245.857058,368.183333L245.795752,365.935427L244.761243,366.743725L243.192208,369.080982L242.460644,368.875439L242.108997,367.598241L240.560180,369.660058L239.678753,369.822255L239.630921,367.778102L237.736587,370.548207L237.588272,368.805569L237.963618,365.841781L238.153229,363.438423L237.643137,362.768369L235.919516,364.906047L234.710471,365.784529L233.349896,366.949655L233.499986,364.787300L234.038492,361.873730L232.522271,363.334028L232.879917,360.904101L230.356350,364.318540L227.954254,367.353770L227.201308,367.086022L227.107610,365.568015L227.150125,363.838931L224.718336,366.669810L225.462027,363.700424L221.780481,368.605747L221.487380,367.470263L221.650494,365.585308L220.760884,365.507740L216.123183,371.566090L216.758979,368.902090L217.902340,365.507936L216.730916,365.820146L215.946083,365.514779L214.807287,365.738216L215.951170,362.554722L216.070968,360.953531L218.495142,356.082726L220.185860,352.389702L218.476311,353.524806L219.621526,350.707506L218.110300,351.539739L219.338895,348.704228L221.047050,345.319051L219.163110,346.634853L216.553772,348.812736L214.873310,349.754665L212.291417,351.756817L212.999106,349.718463L214.175702,347.171619L209.361266,351.687853L211.637926,347.893506L210.302772,348.291327L212.577291,344.635349L210.985455,345.322970L209.065905,346.329565L206.720246,347.744550L207.646923,345.667769L205.886636,346.414479L205.521873,345.702694L207.185851,342.963162L205.583925,343.513937L206.353635,341.726863L207.514809,339.603055L208.267658,337.912643L206.321793,338.763406L206.326720,337.789034L205.008488,338.019608L204.743780,337.292923L207.114464,334.271029L203.679621,336.316340L201.551450,337.176694L205.700848,332.761298L204.136811,333.153446L207.495262,329.539884L202.945039,332.312156L205.411385,329.487885L202.704745,330.721737L200.969630,331.162996L199.044905,331.714396L198.168866,331.459675L199.082566,329.900228L197.795706,329.937688L198.509490,328.554449L195.649052,329.658780L195.018459,329.197095L189.104966,332.251805L192.614284,329.008504L190.347297,329.574792L192.135315,327.530477L193.313995,325.912831L194.335850,324.424524L194.447500,323.513803L194.559187,322.613099L189.978925,324.451199L190.240031,323.436745L189.515959,322.988127L195.956008,318.582265L196.027078,317.759800L197.095541,316.414965L194.676879,316.917037L190.057556,318.505447L188.038423,318.704405L188.955153,317.423615L190.823410,315.706245L193.566920,313.614913L189.339751,314.820896L182.731192,317.038993L180.366281,317.246641L180.844384,316.173643L187.396834,312.513880L186.760216,311.991521L191.786757,309.139411L188.280431,309.806490L186.632892,309.686467L183.469920,310.123599L178.087399,311.342333L178.455947,310.365419L180.998994,308.621807L182.359488,307.339248L184.498155,305.819242L184.678705,304.989871L186.559349,303.617338L187.792018,302.484445L188.650874,301.490459L189.356914,300.559817L185.400016,300.997103L185.761238,300.154936L184.798212,299.684282L184.643106,298.986438L186.669026,297.727868L185.771397,297.233601L187.638384,296.061034L185.799072,295.784857L183.067788,295.682284L177.712011,296.107826L173.503953,296.210432L166.279412,296.854900L166.814408,295.888953L172.830522,293.919055L179.110605,291.999697L184.575873,290.319380L184.361888,289.644381L181.785563,289.330973L180.517425,288.788083L180.451696,288.060949L183.256427,286.960138L180.189418,286.624223L175.914119,286.380912L174.351502,285.782172L174.504617,284.990004L173.891802,284.271610L177.279757,283.208791L177.193432,282.464199L183.560930,281.276181L173.989730,281.158374L175.218440,280.318846L180.899879,279.295505L182.138195,278.528462L188.192092,277.634623L185.137471,277.040480L182.150763,276.398867L180.677029,275.700543L182.639448,274.980512L184.649735,274.290833L188.247499,273.656369L183.890621,272.892740L188.145436,272.327275L185.684733,271.568550L186.376701,270.917025L183.753562,270.097502L184.371464,269.436189L184.586147,268.755853L180.961543,267.783452L185.528218,267.446080L184.752946,266.685950L182.620690,265.777425L185.165056,265.337905L184.307637,264.544381L180.463159,263.368843L178.838035,262.422587L174.844161,261.121349L180.707172,261.198967L181.056780,260.516399L180.881806,259.752585L179.419775,258.765595L179.217137,257.977496L181.485612,257.642817L175.755024,255.793895L181.011956,256.065352L185.738844,256.307074L186.475840,255.754476L187.267844,255.223716L184.437326,253.857544L182.247386,252.597890L186.357895,252.872807L186.231204,252.119534L185.176751,251.114644L190.662997,251.882393L184.473654,249.440874L188.725917,249.928418L188.217726,249.060309L186.270959,247.738451L186.714738,247.135077L179.806498,244.153214L178.991606,243.076822L184.395556,244.103145L182.062313,242.513008L192.317879,245.387313L191.868367,244.507941L188.056539,242.354250L187.113655,241.232086L189.034924,241.214521L190.813257,241.168850L196.094764,242.589101L194.625761,241.265955L197.672915,241.847974L194.892587,239.929268L194.178513,238.878542L190.223971,236.331615L189.202483,235.071254L185.945248,232.724911L186.261176,232.041329L184.610729,230.386982L188.744794,231.604995L193.388787,233.157245L194.412139,232.901528L198.467957,234.273196L195.783657,232.065161L192.631279,229.539252L190.980764,227.787529L186.203724,224.206956L185.469794,222.875558L180.044883,218.741730L180.782083,218.201825L182.966164,218.555611L184.287626,218.408096L192.332378,222.545529L194.761377,223.222976L188.694081,218.369493L183.951315,214.257613L182.215870,212.070464L187.635659,214.767033L193.791419,218.091133L197.823222,220.032818L198.912143,219.927614L195.647127,216.635628L195.027437,215.233248L195.469341,214.611326L196.374431,214.346251L198.967687,215.414927L199.578743,214.958327L194.745352,210.102940L196.770055,210.745805L195.236269,208.459342L202.465089,213.544169L201.012316,211.336175L203.612262,212.618080L205.286473,213.135692L204.107950,211.115367L205.013267,210.955812L206.018015,210.900330L208.278761,212.044622L206.924671,209.776934L205.860288,207.736817L206.149356,206.986762L206.907067,206.699821L207.988840,206.750166L206.607135,204.270306L208.416571,205.080701L210.373048,206.088854L211.103052,205.815735L212.984080,206.814833L211.564956,204.175235L213.284600,205.027099L213.873079,204.617913L213.891221,203.543621L215.256345,204.049890L213.403505,200.705109L213.049213,199.105400L213.138324,198.021759L218.436770,203.503361L218.681024,202.683746L218.491857,201.286275L218.042500,199.512919L218.380079,198.756043L217.206082,195.920348L217.774556,195.429494L218.451465,195.090109L219.515611,195.309945L222.778977,198.761767L223.110544,197.990766L225.959384,201.005379L225.284753,198.728736L225.031884,197.045660L225.070890,195.781178L226.348773,196.485600L227.524534,197.059717L227.973900,196.453322L228.995336,196.810499L230.782069,198.516607L228.909823,193.854097L230.364156,194.997818L230.381863,193.574040L232.459596,195.938833L234.240529,197.842082L234.166074,196.250614L234.588093,195.586034L233.841172,192.566576L235.992762,195.359556L235.353520,192.464500L235.869661,191.919057L237.273390,193.286118L237.403833,191.906821L238.474339,192.602843L239.121663,192.365241L239.537766,191.585316L241.139001,193.631225L241.559175,192.878186L241.874900,191.840684L239.565697,184.028478L241.537117,187.110708L243.379687,190.003515L244.871348,192.080573L244.736760,189.685587L244.286126,186.270058L244.893377,185.826721L246.813974,189.362679L248.268419,191.643086L248.348613,189.656910L247.895482,185.817583L249.854085,189.932038L251.028110,191.564715L250.138639,185.910562L249.997884,182.688582L250.837246,183.008838L251.549735,182.862997L253.377345,187.245038L253.728133,185.739239L255.204165,189.026214L255.876375,188.944921L257.059296,191.252482L257.135190,188.381968L257.187807,185.174484L257.736346,184.315872L258.675439,185.534606L259.744689,187.620320L260.589828,188.569776L261.343726,189.049682L262.131492,189.814346L262.665012,188.898422L263.073462,186.964746L263.643951,186.075472L264.644785,188.670046L265.061658,186.429599L265.656758,185.574523L266.327773,185.378901L267.061536,185.865430L267.360954,181.117474L268.033357,180.452769L269.040788,184.721269L269.907428,187.711043L270.489331,185.998612L270.993455,181.881173L271.816331,185.005967L272.464478,183.566821L273.118852,181.357178L273.867455,184.022009L274.568266,185.242807L275.254266,185.088113L275.892248,189.750048Z" />
<line x1="50" y1="625" x2="100" y2="625" fill="none" stroke="green" stroke-width="1.0" stroke-linejoin="round" stroke-miterlimit="10" />
<text x="125" y="628" style="text-anchor:start;fill:black">n0_4mer:PS</text>
<path style="stroke:red;stroke-width:1.0" d="M276.874131,152.308386L277.776748,153.828681L278.638945,155.921884L279.724226,151.349575L280.513522,154.769059L281.303528,157.209156L282.285754,155.908285L283.096439,157.401113L284.221862,154.494116L284.991771,156.351969L285.804497,157.445760L286.575054,158.806475L287.826780,155.501590L289.180338,151.768705L289.890905,153.755282L291.062137,151.991549L290.981541,159.487691L292.122224,157.841726L293.668836,153.739171L294.559053,154.104176L295.072594,156.669802L295.586858,159.017767L296.841851,157.184008L297.429367,158.966820L298.238814,159.519895L299.385836,158.430754L300.770437,156.341330L301.888867,155.596279L303.036957,154.789470L303.403376,157.290224L304.834164,155.375190L305.970201,154.739723L307.471929,152.781322L307.573657,156.066386L307.613768,159.393117L308.850749,158.423218L309.326536,160.070029L309.636967,162.180397L310.475426,162.518726L311.171600,163.292971L313.424606,159.356447L313.647194,161.588797L314.934753,160.677879L316.689520,158.519815L318.544535,156.204693L318.758195,158.385993L318.423028,161.912783L319.156413,162.576414L319.588398,163.976191L320.322813,164.593474L320.961465,165.427521L322.256284,164.709907L326.431874,157.452886L328.108536,156.102108L327.809270,159.156374L328.976518,158.952533L329.294565,160.562690L329.888059,161.557314L331.839182,159.777814L333.377931,158.902034L333.469012,160.900665L334.931703,160.214970L335.316920,161.596850L334.526739,165.115159L335.681612,164.997781L337.018673,164.576627L335.883430,168.511139L337.467362,167.651987L337.369072,169.679685L339.256656,168.358466L340.232383,168.586312L341.855798,167.784588L342.224121,169.005706L342.809175,169.867299L343.920939,169.914469L343.655454,172.042694L344.366096,172.678833L345.378578,172.873532L345.176594,174.813080L344.139508,177.880787L349.779447,171.638596L351.714678,170.651300L352.823974,170.819221L353.746504,171.246594L350.525043,177.053632L350.136593,179.081433L350.938599,179.568152L350.890948,181.108933L349.584057,184.153946L352.048087,182.600799L351.504384,184.664638L353.493359,183.738702L358.677408,179.201276L357.488487,182.005665L357.163086,183.785514L357.619042,184.676281L356.110155,187.674604L357.045224,188.009903L355.423908,191.023299L356.870201,190.809903L357.591623,191.355864L359.286286,190.933677L360.740241,190.780007L362.809345,190.055593L363.318826,190.859027L365.114741,190.451609L366.722924,190.250686L362.666345,195.231406L364.906006,194.440111L369.016219,192.043038L368.171741,194.045433L366.160344,197.006978L366.929239,197.557380L369.976813,196.222386L377.451521,191.335137L370.887478,197.908775L373.128362,197.333606L371.943754,199.468277L373.032613,199.816119L373.525346,200.626442L376.819555,199.353614L377.473910,200.075340L381.876075,198.102433L384.759191,197.293420L382.741747,199.950490L379.626747,203.300920L376.684964,206.452351L376.172088,207.916262L376.172495,209.022900L377.019101,209.575912L377.050421,210.650496L378.034487,211.124606L379.346819,211.409159L377.687833,213.490824L381.310930,212.418947L385.816336,210.901418L387.173723,211.254697L386.997644,212.481566L382.431292,216.102247L382.697241,217.021826L383.499944,217.654228L384.051408,218.424099L384.429120,219.284750L387.481456,218.808335L386.992965,220.117194L388.704152,220.351652L388.546239,221.491253L389.242364,222.225754L385.460187,224.993079L386.769746,225.425351L387.340960,226.195403L386.516484,227.562761L391.560639,226.465057L394.102954,226.470519L396.613718,226.527240L395.610800,227.991329L395.237303,229.191654L392.005012,231.443543L387.742243,234.008096L390.435630,234.024310L393.212803,234.052446L394.144504,234.746252L395.095866,235.444206L395.433580,236.350088L394.612252,237.618908L396.088483,238.170355L394.153472,239.750891L394.648098,240.596185L392.328941,242.231176L393.503140,242.876896L391.036765,244.494924L393.558236,244.798252L398.210529,244.613334L398.279266,245.593393L399.972681,246.196481L398.930510,247.431801L399.643313,248.270690L396.224765,249.970706L403.452311,249.499777L405.248623,250.175665L401.467981,251.895831L397.369587,253.609075L395.998516,254.799913L394.697582,255.955641L395.781424,256.727940L398.851943,257.229950L398.276099,258.272495L396.917761,259.404191L397.791585,260.244719L398.333214,261.134389L396.826549,262.245248L398.081074,263.063552L398.520370,263.972575L399.051157,264.879602L396.626987,266.011969L399.519038,266.753992L394.725194,267.989470L395.537976,268.865299L398.272339,269.669772L399.770267,270.559473L409.569016,271.239610L411.449343,272.229868L416.097720,273.213492L412.337987,274.310160L400.834271,275.329062L400.351816,276.285273L399.361270,277.225172L400.030231,278.192568L400.420782,279.161326L400.894060,280.139920L399.243465,281.023390L400.021944,282.018657L398.260059,282.864588L401.358162,284.031797L401.506526,285.014135L399.413772,285.805290L399.311263,286.753683L397.706525,287.548259L395.974548,288.305548L397.769668,289.452853L399.546061,290.627320L403.362861,292.103067L400.626391,292.716033L399.204052,293.484042L395.773453,293.917481L396.079217,294.914012L396.943268,296.013934L399.244169,297.388894L399.892730,298.492039L404.609315,300.405685L402.230930,300.950132L396.999997,300.855351L396.012966,301.613557L395.493907,302.465882L392.938821,302.832750L394.773098,304.233156L395.159455,305.301731L394.717884,306.164819L391.795644,306.358551L391.275713,307.173056L394.122471,308.942345L394.040995,309.904338L397.521276,311.943365L398.537643,313.281582L395.385440,313.314984L396.525585,314.702595L397.838343,316.172464L398.918192,317.589935L396.343086,317.743924L393.996996,317.941944L390.769242,317.779326L390.262461,318.595488L387.659194,318.597309L388.514084,319.927966L389.971754,321.523708L392.284256,323.505215L396.259911,326.237471L393.316576,326.062297L388.812561,325.153117L384.906246,324.437615L388.525756,327.111890L387.916189,327.879945L389.591235,329.735434L390.100066,331.062161L387.182478,330.705180L385.955092,331.156181L383.085247,330.744765L382.976183,331.736751L383.032016,332.823318L380.380858,332.444056L378.445574,332.418307L381.385694,335.117700L381.250866,336.116856L380.752618,336.910007L381.116219,338.216062L380.707539,339.071541L380.424786,340.006355L380.238260,341.006030L379.114870,341.414840L381.029634,343.781255L378.430971,343.223555L379.912049,345.356269L376.372562,344.110909L374.930542,344.251699L375.942853,346.100586L375.416885,346.883839L375.256720,347.933737L375.119371,349.009772L375.726516,350.655102L374.048982,350.585286L373.326002,351.228910L372.263503,351.601696L370.604716,351.485623L370.068726,352.255038L368.513225,352.184337L368.802024,353.634917L369.017795,355.046456L367.900506,355.327151L366.099497,354.994026L369.586240,359.343866L368.513171,359.677996L368.800648,361.251320L365.588163,359.583362L361.405614,356.922284L362.510766,359.248616L363.338684,361.355411L362.670709,362.021825L360.545940,361.219868L364.878051,366.980693L363.119465,366.569809L362.812917,367.657416L360.965210,367.106712L358.569832,365.922606L357.354925,365.985943L357.821448,367.918050L355.830888,367.091368L355.801752,368.488897L355.026796,369.034529L355.150133,370.650110L352.776237,369.270488L351.127159,368.720809L351.255354,370.357752L351.566119,372.260160L351.439737,373.640530L350.524731,374.012549L348.494235,372.892174L349.559811,375.907587L348.680669,376.328003L346.284623,374.623823L345.375078,374.957222L345.624279,376.956710L345.999588,379.189694L344.099776,378.085011L342.944276,378.054441L341.275042,377.212989L340.739658,378.103964L340.386440,379.298844L340.044631,380.536248L337.241004,377.735907L339.773587,383.782448L338.011826,382.686346L335.570722,380.352380L335.378157,381.898782L335.603693,384.238228L333.388533,382.166810L333.563850,384.470571L332.901663,385.249115L332.279904,386.118801L332.007784,387.696192L331.546944,388.937471L329.715344,387.394632L329.180784,388.491056L329.683977,391.831990L330.296735,395.530404L331.263531,400.151083L328.859577,397.292926L326.369302,394.096379L325.113134,393.668225L323.446186,392.210914L322.798915,393.194174L322.683133,395.548886L319.752681,390.716654L318.765925,390.786238L317.979857,391.386762L315.989240,388.660258L316.319710,392.378285L315.253931,392.201154L313.903774,391.150282L313.423276,392.693078L312.147409,391.801428L311.494690,392.858356L311.680840,396.742712L309.526179,392.842540L307.813335,390.251584L306.943044,390.538421L305.529832,388.804069L304.880905,389.884323L303.657469,388.739539L303.926017,393.622365L303.132222,394.319409L302.245585,394.642896L301.278110,394.606883L300.003219,393.100909L299.395555,394.736839L298.691756,395.999579L298.506867,400.115551L297.242178,398.578030L296.877101,402.111001L294.470750,393.538905L293.830042,395.379851L293.570333,399.963334L292.476791,399.117581L291.636578,400.061475L290.572699,399.321172L289.513440,398.506717L288.922749,401.830175L288.234594,404.685962L287.149588,403.785827L286.194648,404.210303L285.087217,402.769343L283.886288,399.689037L283.009766,400.949808L281.876955,397.957213L280.948315,398.227618L280.007280,398.277661L279.007379,396.547688L278.190958,400.999602L277.210494,400.002169L276.234237,397.880393L275.297832,398.789553L274.360844,397.162263L273.403391,399.050634L272.364854,403.476581L271.511214,398.921475L270.667943,396.010646L269.714577,396.646778L268.494323,402.302765L267.717782,398.921031L266.791645,398.558620L265.909460,397.665177L265.122783,395.758800L264.092405,396.890377L263.174453,396.672735L262.351722,395.566133L261.550715,394.405158L260.136603,398.473361L259.420448,396.588681L258.230132,398.394657L256.854823,401.278652L256.136864,399.512506L255.395714,398.051025L254.643283,396.779953L253.712323,396.629008L252.157501,399.887939L251.442860,398.459524L250.154826,400.015766L250.168094,395.141898L249.371841,394.386694L247.693249,397.634217L247.484712,394.269354L246.240814,395.453529L245.626691,393.994589L245.189381,391.920645L242.704966,397.741124L240.822351,400.978104L236.133990,414.047722L235.229796,413.202283L236.919211,403.626597L237.664392,397.659862L237.093853,396.203312L237.055609,393.150258L234.892114,396.686445L234.576683,394.563953L234.062694,393.103370L232.221787,395.433763L231.409872,394.810266L229.547222,397.021029L229.523394,394.291577L228.359969,394.591068L228.324039,392.034558L227.983359,390.321076L227.928234,387.980125L227.224270,387.247055L225.625207,388.588474L224.479260,388.838550L223.221590,389.309603L223.194142,387.084495L222.875409,385.549094L220.021817,389.329190L219.218881,388.765846L215.946754,393.147817L209.548033,403.486344L210.441301,399.374820L206.982634,403.625819L205.717918,403.630348L204.927044,402.751829L202.163484,405.417727L200.556619,405.935575L199.846648,404.865633L198.890284,404.231226L199.479996,401.018735L196.523276,403.712637L195.317400,403.472380L196.020995,400.192988L196.663511,397.097876L197.869116,393.222217L197.249854,392.205376L200.944022,384.806588L200.548633,383.594315L202.355358,379.242817L203.967749,375.287347L203.083903,374.908510L202.080500,374.687714L201.198757,374.292629L200.739465,373.332856L200.780401,371.733389L197.120654,374.913793L197.175449,373.285949L196.674074,372.381518L195.610448,372.174724L195.075072,371.319059L194.892111,370.052738L191.567915,372.476401L193.611124,368.632044L193.267902,367.589036L194.448721,364.858586L190.613790,367.702196L188.782215,368.273094L188.117284,367.563954L189.072872,365.155917L187.113247,365.812924L186.951730,364.600140L186.159738,364.035476L184.710799,364.115794L185.840552,361.666356L184.457497,361.675644L180.380276,364.203776L180.640535,362.606843L182.137796,359.905338L180.442336,360.138708L180.993004,358.351631L180.649859,357.377341L179.618667,357.002289L178.838434,356.404035L179.323404,354.747070L177.974373,354.623493L179.687778,352.006706L176.852974,353.065656L178.270436,350.739248L177.655746,350.028311L173.081615,352.320184L169.138194,354.045235L167.935363,353.676889L173.133500,348.665478L174.300079,346.656905L176.863622,343.709696L173.420136,344.970575L172.779902,344.266387L169.151553,345.551397L169.948135,343.867449L169.011080,343.330049L170.392681,341.313803L171.624559,339.431311L171.870682,338.189378L170.349923,338.026886L166.825770,339.028570L160.831372,341.404425L153.953360,344.173045L148.824138,345.831271L157.764997,339.639536L164.142268,335.023795L163.324495,334.368066L161.840507,334.052868L164.828046,331.427385L163.424391,331.074714L163.514935,329.966678L159.860247,330.679459L165.018205,327.152485L162.426304,327.332154L159.406887,327.665881L155.678578,328.267793L155.508452,327.252882L154.516469,326.594079L157.003823,324.465874L162.859375,321.007279L160.514533,320.950842L160.289214,320.027070L158.399938,319.743912L153.263570,320.651296L155.277990,318.855825L155.704281,317.669093L158.134241,315.795876L157.538432,315.000029L156.690791,314.282851L155.003463,313.828088L155.023689,312.811703L153.552908,312.257924L154.460104,310.974622L155.845066,309.572362L158.303455,307.894832L155.948687,307.579135L155.489023,306.725777L154.073154,306.114900L151.607890,305.746317L153.364493,304.323743L153.240043,303.371491L155.823001,301.811630L155.220429,300.987651L148.851976,301.362150L144.025009,301.328457L144.367962,300.223012L149.637643,298.213756L152.059576,296.795424L158.511639,294.735103L156.280837,294.181431L149.750000,294.256184L154.847805,292.534116L153.489038,291.785584L150.432861,291.239178L152.236091,290.051433L150.713314,289.275453L146.533428,288.762239L148.581226,287.566986L149.314876,286.525312L151.480888,285.375973L149.350004,284.589096L151.623550,283.468293L148.832939,282.692128L148.556458,281.740061L148.738364,280.763622L150.806988,279.718951L148.993384,278.824305L146.472044,277.918444L144.729177,276.962660L146.836625,275.951878L148.385162,274.973285L149.325198,274.013567L149.820849,273.061214L145.603047,272.007190L141.098798,270.879536L143.801109,269.959401L144.270007,268.977122L141.556363,267.830326L152.368920,267.471509L151.577979,266.476248L152.023327,265.562721L151.411632,264.565686L151.543997,263.626561L153.072630,262.827531L155.561478,262.153926L152.024624,260.822581L153.285724,260.025119L150.293157,258.689086L147.671989,257.356085L147.030423,256.269918L152.907188,256.176464L152.584355,255.168318L151.257819,253.982256L149.133816,252.631096L152.158496,252.199418L152.811909,251.353893L156.111532,251.048961L157.423205,250.377259L156.090034,249.148474L154.800907,247.905130L152.660251,246.438975L151.325381,245.129441L155.556830,245.184123L155.255253,244.135375L155.470677,243.215351L157.063306,242.672386L153.741483,240.763980L156.246069,240.489649L156.528854,239.588334L157.893908,239.019745L160.137766,238.746755L155.066731,236.136466L153.029305,234.444253L154.485181,233.903463L150.554468,231.499229L159.270881,233.551497L161.957725,233.536942L158.279993,231.173677L155.820176,229.208426L152.703513,226.935768L158.644233,228.241457L163.509281,229.204376L164.982984,228.824521L163.972758,227.399887L161.684057,225.390696L166.512167,226.513652L163.964313,224.353954L159.790448,221.383379L155.537054,218.289868L154.961054,216.888867L156.733901,216.627943L160.146900,217.217391L161.146957,216.626588L161.872716,215.903187L160.906499,214.284729L160.521630,212.953329L156.836060,209.783240L156.349661,208.327463L157.069075,207.541420L161.888449,209.146511L160.402372,207.104087L159.953751,205.645707L162.159903,205.795123L162.782346,204.991792L169.214171,207.876506L172.020777,208.548739L166.688434,203.930264L160.164016,198.388111L158.231091,195.803124L162.530837,197.458621L169.118422,200.800937L175.286840,203.981858L177.222509,204.228658L174.120846,200.802959L173.039419,198.800707L174.154153,198.426423L175.366156,198.139938L175.199864,196.788537L173.853443,194.478822L170.467694,190.471072L170.659460,189.299858L169.406387,186.911487L178.453005,193.199722L180.032992,193.284197L182.131615,193.847293L182.692734,193.085839L182.168093,191.344185L183.573094,191.336115L186.344348,192.619100L186.773069,191.752749L187.067553,190.751802L185.888905,188.307480L186.635439,187.710187L188.754207,188.491712L189.653348,188.075750L189.492031,186.570418L189.161893,184.861352L191.397698,185.855606L192.003005,185.135206L195.172716,187.231623L192.766285,183.186656L194.382514,183.595921L195.050687,182.945642L195.761455,182.343927L195.968962,181.144663L195.194345,178.742049L195.345082,177.416443L196.154464,176.887710L199.733910,179.862709L200.725129,179.627520L201.820454,179.538767L199.816459,175.357529L200.520955,174.707080L199.699829,171.966472L199.429350,169.920957L200.675292,169.970235L202.202278,170.443482L206.808361,175.446032L206.799808,173.783973L207.946877,173.827322L207.699166,171.749589L208.830972,171.770916L210.103001,172.032737L212.266837,173.759868L213.093188,173.367834L212.804011,171.115385L211.092324,166.382548L213.913129,169.338538L213.720160,167.111328L216.238460,169.679903L217.234013,169.579844L217.760722,168.621034L218.716822,168.455614L218.761074,166.541636L218.373225,163.721984L217.874834,160.588990L221.820698,166.424684L220.695877,161.950421L221.620402,161.665248L223.275868,162.968211L223.726835,161.678601L224.424137,160.907410L226.081960,162.332281L226.147129,160.087702L228.247252,162.652050L228.639055,161.149790L229.081494,159.723320L229.277776,157.615999L229.328290,155.044580L232.656726,161.179829L234.346197,163.113482L233.757875,158.735263L234.891536,159.129834L234.487919,155.006632L236.019190,156.564994L237.892889,159.289141L238.692077,158.734744L239.535782,158.311535L240.898298,159.634849L242.122851,160.569548L242.951460,160.155669L243.245620,157.758251L243.649672,155.644685L244.914642,156.793459L246.425445,159.030939L247.041707,157.681735L248.705119,160.800700L249.610189,160.747491L250.598826,161.094898L250.653400,156.954828L251.293762,155.451269L251.673108,152.466332L253.078443,154.860740L254.507957,157.625261L255.891230,160.388239L256.975930,161.559496L257.548508,159.476369L258.340533,158.712384L259.341657,159.418575L260.122962,158.504057L260.908528,157.521396L261.815380,157.498802L262.519511,155.547494L263.467037,155.815303L264.355834,155.485303L264.951301,151.503268L265.806739,150.234408L266.887058,152.093461L267.842777,152.322013L269.052238,157.642894L269.828041,154.794979L270.665879,152.485680L271.610402,152.768086L272.562728,153.673532L273.506646,155.037965L274.400230,150.308210L275.350813,150.947800L276.260824,154.534336Z" />
<line x1="50" y1="600" x2="100" y2="600" fill="none" stroke="red" stroke-width="1.0" stroke-linejoin="round" stroke-miterlimit="10" />
<text x="125" y="603" style="text-anchor:start;fill:black">n0_4mer:D</text>
<path style="stroke:black;stroke-width:1.0" d="M277.585271,105.752961L278.860409,106.540039L280.174463,105.674745L281.468071,105.706713L282.747748,106.048288L284.051980,105.850234L285.301671,106.610609L286.593515,106.606899L287.836413,107.261291L289.096220,107.613375L290.428061,107.140815L291.751830,106.840589L293.175813,105.668275L294.525779,105.315255L295.740468,106.126981L296.951993,106.885343L298.189129,107.392270L299.452345,107.685605L300.740969,107.803113L302.031219,107.918208L303.176948,108.893723L304.398939,109.372272L305.558296,110.167085L306.792648,110.528036L308.033135,110.849196L309.339689,110.849316L310.512849,111.482889L311.845874,111.380820L313.094498,111.667016L314.056452,113.141559L315.240135,113.650798L316.352849,114.422902L317.578107,114.743432L318.926369,114.615127L320.153479,114.943276L321.395568,115.220787L322.668251,115.400129L323.797803,116.055692L325.055496,116.289967L326.393331,116.284425L327.809060,116.064671L328.932731,116.732989L330.317255,116.642041L331.765283,116.398253L333.147105,116.366930L334.075934,117.564774L335.133276,118.394045L335.975740,119.753889L336.982664,120.664978L338.534700,120.229257L339.144346,122.079395L339.852561,123.642458L340.019496,126.398492L340.550961,128.246360L341.924028,128.193918L343.227892,128.312617L345.058999,127.335803L346.685724,126.839885L347.665930,127.694445L348.193594,129.437673L348.670397,131.235928L349.158754,132.966411L350.170976,133.669417L351.528118,133.731047L352.798110,133.969391L354.546426,133.368711L356.153291,133.057905L357.587170,133.076788L358.923553,133.281440L359.984175,133.958693L360.751867,135.112847L361.903797,135.633981L363.233547,135.879513L363.873435,137.208849L364.888991,137.943940L365.891568,138.696903L366.003991,140.761011L367.707649,140.471781L369.829815,139.617152L371.274351,139.764886L374.429537,137.566829L376.594491,136.809324L377.602117,137.649413L378.406331,138.755741L378.711078,140.499932L378.717722,142.595072L379.227797,144.017188L380.256619,144.778195L381.057778,145.817824L382.545756,146.026753L384.206367,146.050570L385.929913,146.025931L387.133815,146.622740L387.571841,148.090854L388.019114,149.530269L388.467872,150.950629L389.326954,151.912497L391.010001,151.998066L392.032557,152.797432L392.953793,153.703837L393.622065,154.866265L394.137852,156.173065L395.371950,156.762349L396.523109,157.441801L397.752360,158.054345L398.569057,159.063752L399.221404,160.223036L399.095794,162.083839L399.665982,163.293584L400.309314,164.430993L401.329471,165.235521L403.522555,165.041415L404.693293,165.744353L405.774170,166.530608L406.724709,167.429809L406.499954,169.277200L406.980125,170.540696L408.079832,171.313599L408.867892,172.333067L410.915334,172.401964L412.738652,172.667680L413.687794,173.597255L415.422293,173.965858L416.271507,174.983540L416.097803,176.715712L415.833746,178.488827L415.302107,180.419846L415.113933,182.095262L416.112645,182.976934L416.716676,184.118154L417.797951,184.956497L418.279643,186.174949L418.195944,187.733799L419.019165,188.733693L419.048989,190.204040L419.800663,191.244144L420.610061,192.253727L421.849113,193.027056L422.416116,194.181109L423.073130,195.285705L424.716615,195.869868L425.305536,197.021447L426.721151,197.751989L427.306735,198.913066L427.299679,200.364654L427.966700,201.481334L428.342823,202.737084L429.264805,203.737392L429.189601,205.196141L429.363991,206.532987L430.306682,207.529684L431.047560,208.619990L432.969555,209.222707L434.243030,210.115114L435.024294,211.217563L435.401954,212.482525L434.496247,214.234671L434.557364,215.602942L434.007706,217.186456L434.350389,218.436076L435.687364,219.339747L435.657736,220.720735L436.388226,221.843803L437.384698,222.887007L437.873452,224.098965L438.484727,225.275334L438.775832,226.550281L438.888797,227.875140L438.100076,229.447746L438.539769,230.668643L438.619690,231.985778L438.749619,233.286114L440.204408,234.256639L441.057998,235.389103L441.757709,236.565930L442.021992,237.846151L443.180999,238.934190L443.904562,240.126252L445.392223,241.173908L445.645612,242.476326L445.101971,243.924430L443.733433,245.504402L442.609725,247.018409L442.867941,248.291546L442.523159,249.656756L443.899825,250.766563L444.662228,251.978297L444.498302,253.317654L444.745850,254.602449L445.083042,255.878588L444.788951,257.223776L444.583805,258.553700L445.339526,259.792741L444.827700,261.145039L444.105710,262.503371L444.832411,263.753210L443.590458,265.128156L442.487313,266.475844L442.659943,267.750476L443.147701,269.015687L445.762820,270.228213L447.094180,271.506223L447.803376,272.812050L446.202366,274.140062L444.191195,275.442442L443.157807,276.724176L442.414758,277.995519L443.524267,279.303161L443.673905,280.596417L443.951010,281.897820L444.118162,283.198939L443.950751,284.484794L443.948237,285.779715L444.534341,287.117933L444.897957,288.448960L444.528731,289.723508L444.411330,291.017914L443.898509,292.271960L443.923207,293.579246L443.937780,294.887916L443.433631,296.134079L443.378828,297.434794L442.954981,298.685278L441.866504,299.833067L441.289086,301.046872L441.048286,302.310117L440.058693,303.443821L440.304158,304.787935L440.661553,306.160563L440.541402,307.449000L440.876703,308.832358L440.087571,309.986862L439.571335,311.193052L439.070697,312.398957L438.427411,313.567743L439.099673,315.051994L438.910196,316.334764L437.319379,317.254791L437.305831,318.577615L436.582694,319.709329L436.176383,320.925041L436.828619,322.450215L436.090433,323.572974L436.144630,324.935155L436.377996,326.361654L436.230548,327.674267L437.530424,329.476297L437.606158,330.886755L436.608573,331.927714L436.274888,333.198588L434.195679,333.826366L432.911517,334.726555L431.856119,335.700813L430.678843,336.616440L430.702000,338.005340L430.828519,339.445954L431.322098,341.052737L430.939298,342.299266L429.871604,343.246366L429.562454,344.524703L428.492925,345.458077L428.527699,346.898781L428.549386,348.344111L427.108054,349.087761L426.269015,350.113939L425.835899,351.340508L423.981783,351.837077L422.549491,352.530789L422.008129,353.684986L421.271136,354.733716L421.794662,356.479571L421.451034,357.758302L420.261996,358.556556L418.724099,359.139382L417.980600,360.177088L418.042158,361.700832L417.897197,363.112352L417.590717,364.433701L417.240748,365.735325L416.428207,366.744253L416.182529,368.124660L416.567730,369.938355L415.105084,370.516869L413.991265,371.320715L413.200423,372.343505L411.761650,372.901389L411.464833,374.274045L411.275635,375.737036L410.412281,376.707379L409.512245,377.647663L408.862636,378.779291L407.466977,379.326852L406.646756,380.319953L405.421310,380.983363L403.942753,381.427310L403.365628,382.609836L402.511418,383.562822L400.647733,383.642298L398.987605,383.872914L396.883460,383.685177L394.594886,383.295497L394.886957,385.238133L395.192815,387.225616L395.511529,389.258545L395.562963,391.068721L394.994760,392.300783L394.592206,393.707058L393.831739,394.767891L395.211373,398.023644L394.051515,398.713012L392.612966,399.101486L391.653136,399.987037L388.960814,398.987496L388.606138,400.512367L388.068415,401.852367L387.145718,402.768641L385.831401,403.233672L385.221446,404.514392L383.763314,404.796703L382.076604,404.784676L380.916681,405.394948L378.910455,404.940614L377.381384,405.052691L377.319312,407.036445L376.520148,408.092412L375.530670,408.903917L374.653584,409.868941L373.076501,409.877929L371.934340,410.470585L371.494155,412.055445L369.875038,411.966307L368.509343,412.222062L367.583829,413.119189L365.961925,412.966447L366.027737,415.387946L366.021474,417.755151L364.636299,417.980140L363.108709,417.958188L361.243385,417.354586L359.347695,416.655714L359.027251,418.601417L358.663267,420.517899L358.102718,422.132336L357.413188,423.549868L355.857499,423.406541L354.886753,424.328442L354.110080,425.631533L352.791156,425.909121L351.822486,426.867008L350.526923,427.180579L348.979348,426.966176L347.891898,427.684733L346.871978,428.554051L345.764828,429.246237L344.897344,430.477769L343.717866,431.029982L342.618202,431.768394L341.336176,432.084494L339.723771,431.592972L338.254003,431.410552L336.855190,431.377608L335.537242,431.530669L334.406221,432.163888L333.498586,433.410508L332.295446,433.876211L331.196533,434.639374L329.971531,435.052115L328.505271,434.744200L327.136173,434.696604L325.797454,434.720834L324.657401,435.366886L323.546504,436.124525L322.381227,436.718564L321.209705,437.304189L319.755495,436.881228L318.521003,437.230416L317.258613,437.473398L316.050031,437.924774L315.112456,439.496705L313.981115,440.333670L312.792131,440.955695L311.582502,441.508133L310.252705,441.513617L308.867557,441.226770L307.688237,441.946804L306.456028,442.425047L305.034614,441.872973L303.759186,442.097506L302.263240,440.979975L300.855608,440.294067L299.548259,440.189949L298.169056,439.543204L296.946243,439.975606L295.550360,439.059214L294.360898,439.757699L293.260180,441.342291L292.070379,442.272873L290.835720,442.858888L289.623316,443.784512L288.292414,443.367843L286.959844,442.816020L285.749943,444.037822L284.439694,443.777982L283.157551,443.995002L281.882789,444.452099L280.580923,444.274820L279.281850,444.075056L277.979745,443.502847L276.689393,443.195666L275.404389,443.078648L274.120748,443.051832L272.824508,444.027756L271.523564,444.493668L270.213266,445.024519L268.902259,445.332819L267.617197,444.919073L266.314491,444.957610L265.044502,444.412073L263.730130,444.642944L262.444914,444.414777L261.181889,443.940143L259.891952,443.829675L258.637968,443.348512L257.377406,442.982397L256.134075,442.495054L254.897157,441.998539L253.639711,441.703723L252.353607,441.634815L251.006855,441.976712L249.732211,441.788586L248.366595,442.170985L247.084361,441.999678L245.809656,441.781591L244.583889,441.295526L243.492713,440.125080L242.176383,440.161636L240.888025,440.040787L239.523508,440.264355L238.120986,440.623111L236.952606,439.922429L235.769546,439.310864L234.413843,439.419101L233.097445,439.346594L231.261274,441.234238L229.053432,444.358095L226.812200,447.397521L225.559089,446.808189L224.773524,444.651441L224.574966,440.662970L224.505240,436.454872L223.254431,436.124005L221.700484,436.709560L220.418877,436.439865L219.248830,435.841092L218.068004,435.280996L217.191680,433.889881L215.940513,433.549151L214.806966,432.894853L213.457389,432.803211L212.314111,432.177597L211.290070,431.265899L209.872416,431.317115L208.920292,430.251475L207.895911,429.375352L206.703558,428.892599L205.478558,428.480349L204.171953,428.239927L202.737013,428.259865L201.129700,428.616054L199.655853,428.664731L198.288756,428.476170L196.381073,429.333919L194.807183,429.494550L193.237964,429.617995L191.573280,429.891537L190.290467,429.436154L188.979271,429.024774L187.749751,428.461078L186.674109,427.627892L185.618787,426.765693L184.526493,425.971351L183.310955,425.382664L182.342941,424.391122L181.191275,423.700210L180.159524,422.821543L179.784664,420.941126L179.204896,419.407460L179.453830,416.671196L179.010774,415.009307L178.365916,413.666926L177.446908,412.730970L175.557880,413.148683L174.749187,412.052151L173.377190,411.723929L172.689978,410.474874L171.977847,409.272917L170.832326,408.639893L169.931053,407.693361L168.521024,407.383807L167.520912,406.556993L166.750746,405.453246L165.886424,404.469698L164.786927,403.765495L164.356151,402.287785L162.948686,401.935725L162.166021,400.871395L161.376235,399.821017L159.984918,399.426911L159.063585,398.517467L158.020057,397.736955L156.746955,397.190255L155.624360,396.479661L155.000227,395.263456L153.747064,394.677121L152.899276,393.686522L152.032449,392.715893L151.009589,391.893312L150.523506,390.568615L150.198023,389.108362L149.748194,387.775385L148.469549,387.188665L147.315007,386.482083L146.144936,385.780693L145.693779,384.462112L145.524112,382.919001L144.442691,382.141064L143.919900,380.905062L143.065916,379.939713L141.992641,379.144760L140.488152,378.675321L138.634525,378.453402L136.586177,378.351281L135.750462,377.328097L136.067025,375.470361L136.505638,373.550995L136.822021,371.744623L136.488653,370.409840L135.308597,369.657695L134.548080,368.615726L134.129900,367.348332L133.355115,366.317111L132.989099,365.025086L132.104062,364.063442L131.566553,362.884517L130.696011,361.908976L128.713158,361.587511L126.445904,361.404204L123.901653,361.346327L122.930422,360.367212L123.333818,358.623759L123.842863,356.843863L124.778613,354.859530L125.225940,353.160370L127.047895,350.777457L128.606946,348.572967L127.948362,347.502448L127.365124,346.393501L124.090526,346.560062L121.519129,346.348680L120.136800,345.557896L118.198278,344.999850L117.862926,343.715028L116.837018,342.729369L116.693266,341.364701L117.127848,339.769286L117.299064,338.296164L117.832650,336.692413L117.354365,335.494672L117.189553,334.179093L117.563868,332.671028L117.716540,331.256358L117.161616,330.098731L116.047167,329.129347L114.629877,328.248565L112.265278,327.657171L111.879760,326.408933L111.360394,325.201878L111.173404,323.893354L111.585158,322.414210L110.902900,321.256267L110.795552,319.935572L109.985891,318.805188L109.825628,317.499944L109.724189,316.182718L109.633223,314.866426L108.785660,313.729881L108.006826,312.568988L107.455969,311.350738L106.816099,310.146720L106.356457,308.900551L106.482969,307.538015L107.333404,306.047370L107.938213,304.617455L108.283865,303.244539L108.443245,301.910541L106.735086,300.869383L106.282626,299.621356L106.012805,298.343974L105.343570,297.117237L106.283960,295.685380L105.696193,294.446077L105.577466,293.149729L106.016034,291.798289L105.456934,290.547080L106.240086,289.176334L106.573018,287.853662L106.118062,286.591692L105.884712,285.310588L105.086831,284.057205L104.535556,282.781402L104.256229,281.487737L103.899262,280.192913L103.389653,278.896703L102.964892,277.591881L103.350152,276.274855L104.220531,274.963966L103.375708,273.652906L103.978506,272.351203L103.041363,271.022785L102.227052,269.683358L102.722424,268.381177L102.802979,267.066690L103.817346,265.802680L105.514736,264.595066L106.771505,263.381831L106.653247,262.081003L107.504265,260.858677L107.231246,259.544229L107.130273,258.240932L108.058685,257.044817L107.107795,255.644270L106.118992,254.222052L105.340523,252.809549L105.044396,251.449156L105.155012,250.140884L106.424773,249.010085L107.257571,247.825250L108.369749,246.697670L108.972348,245.493611L109.018182,244.192155L109.503806,242.972814L108.932144,241.544293L109.376060,240.315304L109.523646,239.024746L109.376402,237.665693L109.276812,236.310824L109.103215,234.931716L109.680936,233.732401L110.194648,232.520847L111.176317,231.436813L112.092552,230.345457L111.945088,228.963224L112.961738,227.911054L112.894917,226.545914L112.767821,225.154983L112.855216,223.823261L111.966409,222.170109L111.828975,220.744977L111.893151,219.379233L112.381739,218.155696L113.750440,217.248304L115.369937,216.448890L115.880316,215.253340L116.773077,214.205650L117.009326,212.907453L116.826991,211.436847L118.161264,210.577349L119.603136,209.778048L121.346757,209.125070L122.862171,208.394617L122.268219,206.739753L120.826294,204.677667L119.486414,202.626548L118.699783,200.802886L119.608620,199.774671L120.703393,198.844530L121.323062,197.685112L122.007061,196.559235L122.167414,195.161446L122.439545,193.814400L122.932187,192.580049L123.117381,191.173307L123.903751,190.095310L124.393873,188.850625L125.520831,187.973302L126.652377,187.108152L127.638500,186.164834L128.641017,185.237977L129.967279,184.519754L131.570391,183.990678L132.196159,182.850389L132.559223,181.536035L132.122881,179.680697L131.903219,177.946614L134.007277,177.793176L135.562639,177.285915L137.412781,177.007030L138.884279,176.479451L139.368821,175.242699L139.533868,173.760644L139.813243,172.350919L140.531915,171.267925L141.072290,170.043408L140.616125,168.019117L140.542819,166.272643L141.048722,164.979067L141.691358,163.791001L144.757535,164.650944L146.722370,164.621567L148.397578,164.368925L149.096644,163.272416L149.526473,161.929068L150.845670,161.387564L151.552201,160.289427L152.622894,159.530068L153.345920,158.443059L154.544377,157.813678L154.918205,156.378718L155.598231,155.234823L156.884324,154.701005L157.224351,153.200224L158.589142,152.756887L159.782770,152.144889L160.580286,151.112334L161.824267,150.565722L162.744616,149.667682L163.746507,148.860826L165.065679,148.420633L165.499417,146.957593L166.142379,145.723339L166.925493,144.645446L167.584343,143.407347L169.125082,143.253409L170.444693,142.840768L172.025581,142.775930L173.114551,142.092500L173.372136,140.310262L174.247319,139.327201L174.246414,137.138462L175.010350,135.966966L176.392927,135.656328L177.310080,134.691792L179.098125,134.991455L180.680250,135.019891L181.786681,134.355677L183.355137,134.401895L184.249525,133.421852L185.266867,132.627081L186.482020,132.147774L187.439113,131.251641L188.404739,130.361808L188.966780,128.777986L190.111141,128.168434L191.099260,127.285198L192.680674,127.456565L194.476829,128.049074L195.376469,127.019992L196.217072,125.863456L197.151281,124.866536L197.852331,123.396108L199.046017,122.878397L201.078956,124.076607L202.363757,123.786864L203.920334,124.084732L205.593867,124.669913L206.378195,123.335498L207.503123,122.735795L208.722832,122.350846L209.308630,120.479985L210.197756,119.278686L210.988261,117.804114L211.691131,116.065467L212.557514,114.689581L213.668107,113.913562L215.183583,114.211423L216.673837,114.475992L217.717700,113.516769L219.050901,113.367497L220.075112,112.317112L221.409155,112.175471L223.429322,114.187497L224.968394,114.788756L226.269865,114.662483L227.644763,114.798493L228.918071,114.609691L229.966356,113.624203L231.344037,113.815889L232.439844,112.967222L233.505991,111.968422L234.644740,111.219266L235.818601,110.587469L237.100749,110.402648L238.426826,110.423076L239.899642,111.150922L241.253132,111.377364L242.530591,111.259273L243.878021,111.519574L245.118593,111.237444L246.279955,110.496749L247.457063,109.801265L248.580348,108.719100L249.836209,108.423270L251.194331,108.829942L252.517914,109.049393L253.806663,109.043730L255.016765,108.402608L256.231245,107.733047L257.493764,107.445367L258.836645,107.963603L260.155059,108.318208L261.516791,109.293740L262.834270,109.893785L264.080037,109.568667L265.325693,109.178079L266.502645,107.336079L267.715236,105.689837L268.969278,104.527192L270.244123,103.498859L271.553158,103.417540L272.874774,104.279294L274.177753,104.055491L275.481022,104.904406L276.769574,105.925739Z" />
<line x1="50" y1="550" x2="100" y2="550" fill="none" stroke="black" stroke-width="1.0" stroke-linejoin="round" stroke-miterlimit="10" />
<text x="125" y="553" style="text-anchor:start;fill:black">GC-content</text>
</g>
<g style="fill:pink;stroke:black">
<a href="" title="CP000866 ABEO01000000 ABEO01000001 ABEO01000002:1 [704000-723599];"><path  d="M375.671579,481.797566L372.047131,483.523031L368.393121,485.184978L364.710663,486.782900L361.000879,488.316312L353.522541,469.767067L353.522541,469.767067L356.909736,468.366996L360.271980,466.908023L363.608250,465.390593L366.917528,463.815169Z" />
</a><a href="" title="CP000866 ABEO01000000 ABEO01000001 ABEO01000002:2 [886000-909099];"><path  d="M219.879530,498.297411L215.990848,497.301417L212.120141,496.237708L208.268587,495.106607L204.437361,493.908460L200.627628,492.643631L207.094791,473.718098L207.094791,473.718098L210.573242,474.872942L214.071319,475.966902L217.587954,476.999646L221.122078,477.970859L224.672614,478.880245Z" />
</a><a href="" title="CP000866 ABEO01000000 ABEO01000001 ABEO01000002:3 [969500-992099];"><path  d="M152.653169,469.759474L149.272781,467.594565L145.930691,465.370989L142.627917,463.089425L139.365465,460.750567L151.159773,444.598343L151.159773,444.598343L154.138533,446.733823L157.154110,448.816990L160.205583,450.847211L163.292024,452.823868Z" />
</a><a href="" title="CP000866 ABEO01000000 ABEO01000001 ABEO01000002:4 [1090000-1112099];"><path  d="M78.885460,395.162752L76.818200,391.721780L74.811308,388.245254L72.865395,384.734231L70.981055,381.189783L88.721833,371.955889L88.721833,371.955889L90.442317,375.192124L92.219020,378.397840L94.051400,381.572060L95.938898,384.713817Z" />
</a><a href="" title="CP000866 ABEO01000000 ABEO01000001 ABEO01000002:5 [1172000-1194099];"><path  d="M51.405673,328.903403L50.498983,324.992934L49.660679,321.067237L48.891015,317.127507L48.190226,313.174945L67.912815,309.855384L67.912815,309.855384L68.552666,313.464246L69.255402,317.061390L70.020811,320.645722L70.848658,324.216150Z" />
</a><a href="" title="CP000866 ABEO01000000 ABEO01000001 ABEO01000002:6 [1359500-1377099];"><path  d="M70.937338,168.894252L72.820218,165.349028L74.764684,161.837204L76.770144,158.359852L94.007523,168.502473L94.007523,168.502473L92.176451,171.677448L90.401069,174.883895L88.681917,178.120839Z" />
</a></g>
<path  style="fill:pink;stroke:black" d="M350,550L375,550L375,565L350,565Z" />
<text x="405" y="565" style="text-anchor:start;fill:black">Selected loci;</text>
</svg>