<svg xmlns="http://www.w3.org/2000/svg" viewbox="0 0 550 650">
<circle cx="275" cy="275" r="240" fill="none" stroke="black" stroke-width="1.0" />
<line x1="275" y1="15" x2="275" y2="55" fill="none" stroke="grey" stroke-width="1.0" stroke-linejoin="round" stroke-miterlimit="10" />
<line x1="495" y1="275" x2="535" y2="275" fill="none" stroke="grey" stroke-width="1.0" stroke-linejoin="round" stroke-miterlimit="10" />
<line x1="275" y1="495" x2="275" y2="535" fill="none" stroke="grey" stroke-width="1.0" stroke-linejoin="round" stroke-miterlimit="10" />
<line x1="15" y1="275" x2="55" y2="275" fill="none" stroke="grey" stroke-width="1.0" stroke-linejoin="round" stroke-miterlimit="10" />
<text x="275" y="10" style="text-anchor:middle" font-size="15">Pyrococcus sp. NA2, complete genome.</text><text x="285" y="25" style="text-anchor:start">1,861,320</text><text x="525" y="265" style="text-anchor:start">0.46 Mbp</text><text x="285" y="530" style="text-anchor:start">0.93 Mbp</text><text x="-200" y="25" style="text-anchor:end" transform="rotate(-90)">1.39 Mbp</text><circle cx="354.485968" cy="48.544749" r="2.500000" fill="grey" stroke="black" stroke-width="1.0" />
<circle cx="425.000124" cy="87.650160" r="2.500000" fill="grey" stroke="black" stroke-width="1.0" />
<circle cx="478.583331" cy="147.902292" r="2.500000" fill="grey" stroke="black" stroke-width="1.0" />
<circle cx="509.187495" cy="222.500311" r="2.500000" fill="grey" stroke="black" stroke-width="1.0" />
<circle cx="513.358236" cy="303.024123" r="2.500000" fill="grey" stroke="black" stroke-width="1.0" />
<circle cx="490.624790" cy="380.384771" r="2.500000" fill="grey" stroke="black" stroke-width="1.0" />
<circle cx="443.553148" cy="445.850333" r="2.500000" fill="grey" stroke="black" stroke-width="1.0" />
<circle cx="377.456422" cy="492.031522" r="2.500000" fill="grey" stroke="black" stroke-width="1.0" />
<circle cx="299.795142" cy="513.715733" r="2.500000" fill="grey" stroke="black" stroke-width="1.0" />
<circle cx="219.335162" cy="508.455404" r="3.000000" fill="black" stroke="black" stroke-width="1.0" />
<circle cx="145.158234" cy="476.844286" r="2.500000" fill="grey" stroke="black" stroke-width="1.0" />
<circle cx="85.636924" cy="422.450417" r="2.500000" fill="grey" stroke="black" stroke-width="1.0" />
<circle cx="47.489575" cy="351.413391" r="2.500000" fill="grey" stroke="black" stroke-width="1.0" />
<circle cx="35.021988" cy="271.751363" r="2.500000" fill="grey" stroke="black" stroke-width="1.0" />
<circle cx="49.641417" cy="192.456018" r="2.500000" fill="grey" stroke="black" stroke-width="1.0" />
<circle cx="89.697724" cy="122.477653" r="2.500000" fill="grey" stroke="black" stroke-width="1.0" />
<circle cx="150.669637" cy="69.714928" r="2.500000" fill="grey" stroke="black" stroke-width="1.0" />
<circle cx="225.675080" cy="40.123325" r="2.500000" fill="grey" stroke="black" stroke-width="1.0" />

<circle cx="275" cy="275" r="185" fill="white" stroke="grey" stroke-width="0.5" />
<circle cx="275" cy="275" r="170" fill="none" stroke="black" stroke-width="0.5" />
<circle cx="275" cy="275" r="170" fill="aliceblue" stroke="black" stroke-width="0.5" />
<circle cx="275" cy="275" r="159" fill="white" stroke="none" stroke-width="0.5" />
<circle cx="275" cy="275" r="140" fill="none" stroke="black" stroke-width="0.5" />
<circle cx="275" cy="275" r="140" fill="aliceblue" stroke="black" stroke-width="0.5" />
<circle cx="275" cy="275" r="133" fill="white" stroke="none" stroke-width="0.5" />
<circle cx="275" cy="275" r="110" fill="none" stroke="black" stroke-width="0.5" />
<circle cx="275" cy="275" r="110" fill="white" stroke="black" stroke-width="0.5" />
<circle cx="275" cy="275" r="109" fill="aliceblue" stroke="none" stroke-width="0.5" />
<circle cx="275" cy="275" r="80" fill="none" stroke="black" stroke-width="0.5" />

<g style="fill:none;stroke-linejoin:round;stroke-miterlimit:10">
<path style="stroke:blue;stroke-width:1.0" d="M277.075826,121.255341L278.047505,124.543424L279.052903,124.948974L280.122808,123.292862L281.157529,123.068835L282.117808,124.494810L283.248608,122.421662L284.506858,118.727401L285.327740,122.255070L286.360758,122.300968L287.171526,125.089374L288.344566,123.342627L289.437448,122.705091L290.652556,120.963276L291.472712,123.095962L292.501875,123.175997L293.432157,124.069975L294.266002,125.629878L295.411869,124.748511L296.576247,123.835644L298.469564,118.148620L300.712606,110.742996L300.526688,118.838180L300.351185,126.227654L301.287319,126.783858L302.914416,123.562939L303.622907,125.392242L304.670471,125.396413L305.500302,126.474273L306.287589,127.694662L307.346102,127.614317L308.223649,128.351415L309.903304,125.624581L311.449481,123.627271L311.503687,127.776507L312.267305,128.925849L314.527513,124.320965L318.197603,114.746569L319.157344,115.479657L320.095415,116.266770L317.858626,127.924682L318.107653,130.704258L319.366419,130.065692L320.386561,130.232449L321.864911,128.977967L323.785399,126.448422L324.247041,128.389246L326.079739,126.267499L324.902991,132.825781L325.872750,133.135145L327.006728,132.997533L328.250955,132.585087L329.968933,130.962382L331.487132,129.931953L336.122196,121.109296L337.164057,121.514849L336.881280,125.129093L338.903578,123.145730L340.296914,122.718704L338.199704,130.314480L338.601803,132.033081L338.678570,134.423847L339.366561,135.419963L339.366573,137.862280L339.744821,139.443416L341.280651,138.603362L345.192083,133.000928L344.928162,135.906716L344.292203,139.459712L344.280830,141.709964L345.261597,142.024657L346.102564,142.604797L347.100284,142.894535L348.065188,143.249676L348.696291,144.201585L349.967018,144.021857L351.602019,143.236690L352.368579,143.962236L352.583563,145.601563L353.788519,145.581112L354.610211,146.197292L355.420777,146.828862L356.527318,146.993101L356.729088,148.568325L357.532734,149.196248L358.763178,149.181035L359.753839,149.537529L361.191217,149.248460L361.342560,150.833653L362.372449,151.145001L362.949201,152.097446L367.027753,148.215451L368.740616,147.672867L372.012604,145.074991L373.159507,145.373776L370.905205,150.111697L367.744952,155.900251L368.245925,156.910293L369.095860,157.474062L369.754055,158.275981L372.691566,156.304100L372.129078,158.598134L374.874129,156.937938L374.162325,159.371675L374.016777,161.106523L376.338764,160.012817L377.191993,160.610919L379.885886,159.178913L378.998417,161.705691L378.129933,164.163271L378.656023,165.095157L379.455958,165.734395L381.053950,165.551794L384.839581,163.165783L382.052970,167.464957L382.596572,168.368493L383.395455,169.017713L383.802104,170.047490L385.550100,169.792878L388.822131,168.134076L390.223744,168.272572L393.416283,166.791612L395.017805,166.805934L397.542604,166.020488L397.941774,167.143122L394.119720,171.911038L391.875453,175.225322L393.261474,175.414501L399.654133,171.461610L404.873339,168.600006L403.639959,171.053911L397.951609,177.014967L397.356104,178.833051L398.473691,179.296134L403.686169,176.639502L404.023818,177.754344L408.157752,176.041149L408.886655,176.895610L410.029994,177.452057L413.311549,176.495646L413.392942,177.839207L411.185684,180.755008L406.224509,185.492455L401.898186,189.693008L401.355897,191.290569L402.084247,192.037117L403.849162,192.120153L404.895924,192.681313L410.955088,190.122495L408.763830,192.740327L404.897163,196.321832L405.289930,197.281393L416.266572,192.021696L423.047683,189.377638L425.664468,189.216392L424.758418,191.065998L424.474153,192.546479L425.521816,193.289111L417.355214,198.962138L410.639376,203.722150L411.164317,204.615313L409.359534,206.693722L409.919784,207.551306L413.941663,206.709246L413.538769,208.064721L420.193113,206.054818L424.438716,205.271257L417.822391,209.528966L414.217941,212.315201L412.664149,214.129289L413.450786,214.895631L415.633045,215.073381L415.575452,216.216123L414.765966,217.660125L414.917957,218.698361L416.321980,219.239006L416.600733,220.230925L418.488135,220.611682L422.538116,220.212858L421.248303,221.812551L424.131463,221.901232L417.763816,225.251901L417.878515,226.291160L419.242601,226.910655L424.654867,226.226415L424.492684,227.393311L424.654348,228.452287L430.048378,227.920218L423.606782,230.969752L423.806173,232.001342L419.820177,234.210443L420.867460,234.976390L421.456218,235.876109L421.405439,236.946750L421.260085,238.036858L426.148065,237.885348L422.124120,239.924880L423.043320,240.760353L425.044415,241.363074L432.704393,240.762411L428.468740,242.765350L429.038109,243.730079L429.889102,244.644652L429.901137,245.726830L435.877668,245.720897L435.442690,246.917784L425.750541,249.661919L423.705592,251.036801L429.725243,251.137340L438.987485,250.841166L436.922380,252.261223L431.949755,254.039037L429.355281,255.445284L430.205548,256.401333L435.638033,256.849565L428.418690,258.713494L425.685591,260.031703L425.137764,261.109081L435.714199,261.224192L433.253138,262.510806L427.365537,264.009990L425.934733,265.137021L426.297881,266.138676L426.742795,267.140206L428.182478,268.102247L430.387759,269.053841L433.926443,269.992701L435.629798,271.024359L440.703635,272.018013L441.070656,273.132849L433.066619,274.290068L428.923665,275.347869L428.194294,276.380521L426.161825,277.382908L425.304949,278.384533L427.770628,279.472154L428.395585,280.527180L432.563291,281.742768L431.439725,282.753118L429.420946,283.698539L428.450262,284.683551L430.169844,285.844304L439.718173,287.629646L431.666944,288.076819L429.330278,288.931580L430.201487,290.067239L431.626667,291.273717L435.086445,292.726439L431.107987,293.353575L425.422318,293.715533L430.258989,295.382652L433.954371,296.960421L434.849040,298.184859L433.448509,299.075051L429.376026,299.523683L433.568707,301.288478L428.812345,301.568130L427.832140,302.462680L424.060409,302.825057L423.298159,303.720188L423.076198,304.715781L423.129529,305.768255L423.514831,306.895703L422.951412,307.821173L423.680148,309.037616L426.429834,310.744721L426.094273,311.744171L421.470839,311.668904L424.660279,313.542945L424.840405,314.669946L428.952571,316.872877L437.487643,320.374638L432.374488,320.094310L424.816590,319.025304L421.486102,319.123132L421.300265,320.146702L421.906023,321.422174L425.962588,323.827428L429.028971,325.970439L424.840764,325.709431L420.537064,325.350589L420.026733,326.272930L416.730001,326.186456L417.138591,327.421478L418.333035,328.964066L423.786853,332.167232L421.764191,332.530184L417.705664,332.053739L415.941097,332.454901L415.270557,333.289005L413.281916,333.560524L413.196686,334.627940L414.489592,336.306133L417.576237,338.814672L415.347392,338.957894L417.336443,341.028450L416.165775,341.647192L416.851314,343.145761L417.916201,344.848771L416.549450,345.368642L415.523006,346.045548L416.708325,347.850219L413.210332,347.235785L410.631764,347.058068L409.381128,347.561166L409.395532,348.745145L409.673319,350.084970L408.314564,350.511718L407.316017,351.130578L406.723526,351.978024L405.612885,352.516639L405.214485,353.473762L404.551870,354.271632L404.070224,355.179558L403.053699,355.751303L402.201194,356.419139L401.782823,357.363242L401.820637,358.610744L401.064505,359.338754L403.981038,362.556230L405.122151,364.620098L400.493130,362.686912L398.419157,362.483705L397.339248,362.965162L405.745462,370.355068L420.025064,382.276794L425.328739,387.778146L426.997311,390.641849L409.529025,378.793118L398.785897,371.844665L397.753467,372.380061L397.753760,373.737885L396.990638,374.487948L392.459920,372.120750L392.819143,373.764557L392.881842,375.179958L389.519289,373.661595L389.918320,375.365011L388.025154,375.064701L387.741071,376.179129L387.937844,377.740724L387.841274,379.053794L389.913976,382.409615L385.679605,379.860737L383.627528,379.317199L383.317492,380.434349L382.550776,381.111497L381.391100,381.394332L380.708877,382.149206L380.883273,383.785304L382.174894,386.610088L385.290933,391.418214L384.540962,392.201372L377.618651,386.291715L376.459824,386.536620L375.558135,387.055963L375.059519,388.026220L374.315813,388.723958L373.611220,389.467850L372.776826,390.061159L373.619183,392.652983L371.134498,391.274318L370.981808,392.698761L374.885140,399.187785L375.171414,401.280016L374.621751,402.343514L370.283476,398.507210L367.581748,396.695253L365.765475,395.994390L364.875283,396.508077L365.509041,399.108785L364.884441,400.016535L368.714188,407.217434L370.061721,411.056392L368.664742,411.003539L368.127874,412.197721L367.710846,413.587716L360.207042,404.250444L356.865594,401.025169L355.868262,401.349012L355.606911,402.833333L354.370015,402.775710L356.315181,407.900665L356.985324,411.050703L358.419951,415.569494L352.981659,408.450236L350.667209,406.519919L350.754810,408.753215L352.448959,413.923322L351.457704,414.349025L348.273926,410.711001L345.770355,408.217726L345.429701,409.764685L347.014209,415.092584L347.707969,418.822008L344.123897,414.056193L341.228289,410.518839L340.839825,412.061976L341.780749,416.459792L338.791445,412.525112L337.560896,412.292915L337.110245,413.779472L336.267070,414.412209L337.765905,420.481540L336.418634,420.043184L334.235798,417.561205L333.236102,417.869859L331.360137,415.983219L329.969422,415.244018L329.343322,416.450011L328.785410,417.871672L327.279191,416.766053L326.569257,417.803515L325.402149,417.577491L324.576252,418.312955L323.716362,418.965871L322.801617,419.467737L321.805759,419.727093L321.587682,422.445374L320.830606,423.532507L319.164804,421.640583L318.680757,423.660803L317.226107,422.381664L315.561812,420.269838L314.552120,420.437370L313.571958,420.711005L312.609733,421.055039L311.990161,422.773128L311.471345,424.992239L311.175237,428.274509L309.716591,426.667171L309.043688,428.484327L308.122669,429.250735L307.386951,430.946308L306.179749,430.395747L304.704432,428.405325L303.061056,425.349991L302.050443,425.564287L301.075857,425.989753L299.844359,424.886186L298.898554,425.470353L297.902915,425.765005L296.946364,426.342547L295.980052,426.892282L294.772136,425.644019L293.751047,425.745134L293.028380,428.382195L292.284291,431.136792L291.073247,429.742972L289.982757,429.380044L288.659327,426.365696L287.572740,425.683056L286.703590,427.701236L286.015485,432.688143L284.770345,429.900503L283.629197,428.272881L282.552457,427.484581L281.575178,428.756438L280.508200,427.998006L279.493803,428.669793L278.438328,427.900359L277.396955,427.346575L276.387727,429.514865L275.348958,431.509732L274.278178,434.634128L273.195378,435.076493L272.075610,437.229112L271.033628,435.058714L269.787412,440.282551L268.613436,441.764028L267.894209,432.695892L266.735957,434.453527L265.837778,431.354020L264.887691,429.678040L263.964528,427.931074L263.165404,424.900531L262.162716,424.711543L261.066637,425.546649L259.862498,427.341922L258.233991,432.889906L256.868721,435.424801L256.114369,432.559733L254.737661,434.901947L254.105028,431.419410L253.884820,425.327613L252.556256,427.313550L251.354326,428.287395L249.962325,430.343290L249.147386,428.783205L248.454127,426.637943L247.252896,427.433621L246.732485,424.554738L245.806376,423.937395L244.330820,426.055275L242.691199,428.798548L240.483688,433.964945L240.753942,427.739833L240.663849,423.440037L239.735951,422.896676L238.930585,421.872108L238.123736,420.897653L236.867949,421.690315L235.706764,422.072222L234.521108,422.509188L232.693947,425.186894L231.564759,425.299939L231.303630,422.463461L230.681310,420.939294L230.004204,419.649326L229.049054,419.278224L228.341204,418.151173L227.260562,418.178569L226.028242,418.635450L224.967567,418.565742L224.083905,417.987531L223.674719,416.114594L221.921720,417.922961L220.812209,417.945998L220.599131,415.636069L219.201544,416.404341L213.902790,426.822344L208.800435,436.347505L211.494283,426.854273L215.338112,414.999991L215.138624,412.879581L211.919927,417.649085L207.693934,424.469277L211.006544,414.587919L210.218045,413.826030L209.775062,412.347804L208.719326,412.173265L207.497969,412.326419L206.535537,411.941256L204.201447,414.251406L205.161263,410.098075L204.730272,408.711089L203.059785,409.673909L201.731718,409.959685L198.547152,413.586002L197.421513,413.408793L197.495615,411.113789L198.862427,406.638521L198.568230,405.112362L196.986743,405.774860L196.118221,405.224395L195.001484,405.078069L194.064102,404.632734L191.694970,406.443505L189.247633,408.306025L186.136144,411.114445L185.121706,410.658588L184.873236,409.059029L187.412657,403.400974L187.850378,400.924572L187.040717,400.278492L187.023932,398.520671L186.357073,397.695441L185.326062,397.373509L182.225088,399.828801L177.582163,404.244095L176.182818,404.275513L174.580312,404.549746L176.244491,400.641749L177.703845,397.079595L180.128604,392.402148L178.478554,392.808142L176.743915,393.287237L174.892584,393.873939L175.271849,391.813765L173.776547,391.956936L175.236593,388.709379L174.425056,388.085123L173.081042,388.050030L169.837972,390.075522L172.426352,385.732543L170.641367,386.144866L171.336354,383.921612L170.402607,383.427370L169.416176,382.981356L164.797366,386.193263L167.526302,381.985399L167.118326,380.951095L165.728036,380.876738L158.347569,386.510849L161.580043,381.964769L164.719469,377.606158L160.747871,379.871251L161.846040,377.464318L161.261235,376.604805L161.556538,374.972152L160.804596,374.273175L155.432738,377.534036L158.821680,373.274531L158.705316,372.033649L154.024799,374.561359L146.288872,379.478445L146.303093,378.033358L145.377078,377.346382L145.749302,375.643357L149.116125,371.663653L151.742012,368.331265L149.743351,368.520898L144.651825,370.958658L141.164997,372.139184L137.743241,373.214781L146.377823,365.729562L147.169214,363.884970L141.896396,366.224443L142.668780,364.388040L147.939583,359.584095L144.939178,360.319905L136.193635,364.722466L133.034637,365.411372L134.147207,363.371898L139.500953,358.743386L145.328206,353.937086L144.682736,353.129083L142.701259,353.107677L142.949735,351.763476L144.368494,349.763347L140.914998,350.542700L136.560493,351.769330L135.800703,350.966455L137.652927,348.756579L141.394309,345.589468L140.928836,344.681667L140.156263,343.930938L139.364041,343.184855L140.063963,341.695627L139.797077,340.695499L138.616353,340.134756L138.279677,339.165596L137.830166,338.250056L137.330415,337.356904L136.947021,336.410710L137.217926,335.179243L136.444404,334.406468L135.753418,333.593010L135.560935,332.569043L132.980837,332.515117L133.610820,331.151877L131.805945,330.752420L128.534923,330.890224L127.038509,330.319776L123.778036,330.378050L128.996118,327.351999L130.658696,325.658710L131.232899,324.369571L132.497645,322.862198L131.880026,321.996804L131.547253,321.035507L130.597779,320.267207L129.615907,319.499274L128.231051,318.841654L128.856855,317.582168L123.781701,317.955491L118.600765,318.288265L124.663609,315.519485L129.170457,313.250614L126.380749,312.911817L124.547147,312.299547L122.410068,311.737671L126.088787,309.790066L126.056852,308.738732L126.423711,307.602668L124.446106,306.972801L120.610511,306.699558L118.691357,305.995331L112.879742,306.011689L116.081150,304.288543L121.562666,302.208531L120.749621,301.279834L122.164286,299.978225L122.786299,298.822623L124.023485,297.585822L123.128467,296.672477L120.163948,296.029897L119.903971,294.999748L121.469861,293.744959L125.209736,292.262819L125.412449,291.216910L125.431673,290.193906L123.412416,289.365747L123.520975,288.324235L124.706685,287.198001L124.278766,286.209006L123.907781,285.211381L120.248496,284.409603L119.885583,283.380986L122.255003,282.219084L123.607943,281.131073L124.360064,280.082190L121.355152,279.145302L122.407761,278.086125L122.974192,277.047999L123.895287,276.015326L123.643373,274.995146L122.864624,273.967990L123.459939,272.948824L122.807701,271.912198L120.496098,270.821605L120.081622,269.763520L115.730029,268.539656L123.396333,267.825112L124.961110,266.883598L124.787562,265.856723L120.549659,264.551713L119.777481,263.446226L123.333749,262.680778L124.125277,261.719168L125.053180,260.780042L125.299160,259.782932L124.229800,258.645094L125.053785,257.709463L125.393565,256.724359L125.670114,255.734063L125.492021,254.683998L122.581644,253.239515L115.339005,251.104525L110.942429,249.312939L115.998453,249.003611L120.568629,248.679138L123.095124,248.053165L123.913142,247.144863L123.857845,246.078244L125.714713,245.387419L127.961495,244.799932L128.036878,243.779912L127.709095,242.669487L127.785204,241.642850L128.648614,240.798086L125.561116,239.010838L127.054067,238.311885L128.910753,237.723592L128.437182,236.547003L123.998925,234.290977L121.928286,232.622158L119.123335,230.710436L117.047370,228.965876L124.676875,230.086168L125.416675,229.204929L128.706905,229.129737L131.689383,228.999966L130.571102,227.563118L130.469189,226.446190L130.460953,225.354980L127.058298,223.067019L122.592667,220.340910L118.952780,217.843572L111.541477,213.874252L112.434111,212.953854L115.396295,212.846715L124.232644,215.112441L134.353129,218.030135L134.551599,217.003697L129.530028,213.777293L132.771460,214.007938L135.569190,214.089988L137.698245,213.912911L136.964991,212.466909L136.613886,211.178345L138.638135,210.991963L139.167937,210.117973L139.464587,209.132197L139.752112,208.139439L137.698842,205.967010L133.181223,202.492010L133.505478,201.448617L134.921510,200.979189L137.819132,201.321338L141.967306,202.387825L143.532319,202.085755L142.993454,200.617136L139.669987,197.536069L141.962658,197.651300L143.186666,197.167500L144.990287,197.043968L145.326650,196.050568L146.634196,195.653842L147.194792,194.802812L148.241552,194.261803L148.861240,193.454223L148.910353,192.273618L148.816308,190.987860L150.467255,190.868097L150.828777,189.885785L148.895105,187.303100L150.043759,186.844371L152.678514,187.460368L153.408215,186.735196L153.703725,185.693100L154.429243,184.965704L152.074798,181.908316L146.656508,176.434571L150.247602,177.846471L153.643940,179.168248L156.855342,180.402224L157.872804,179.912096L158.441241,179.060788L158.356866,177.662922L158.251144,176.230010L157.362847,174.108021L157.982770,173.260557L160.495356,174.079631L161.600818,173.685472L162.625903,173.228753L164.192154,173.277138L164.804686,172.459942L165.126373,171.366409L166.290108,171.068270L166.941727,170.285805L166.757337,168.680736L168.391266,168.862021L167.728602,166.750437L169.071927,166.652677L169.709786,165.840431L169.833813,164.485443L168.489870,161.549149L169.613914,161.216675L171.811918,162.069961L174.312195,163.301179L172.999910,160.297648L173.291423,159.058536L171.835517,155.784882L175.464405,158.396637L177.448920,159.146537L178.895635,159.288049L179.653142,158.610261L180.270272,157.757784L181.012295,157.056070L181.402211,155.904442L182.092028,155.125114L180.904926,151.885720L179.377286,148.120562L183.267611,151.557378L181.483407,147.365443L182.521360,146.978046L183.069720,145.909992L182.507221,143.246581L181.872203,140.418975L182.359064,139.171865L189.479831,147.775427L191.767857,149.355337L191.621771,147.270098L190.626405,143.818850L190.447413,141.569101L189.202496,137.560947L190.558099,137.677224L192.812049,139.297869L194.288376,139.682099L196.492291,141.334069L197.798023,141.501416L197.648442,139.134341L200.551139,142.154838L202.477123,143.517915L202.156202,140.801685L200.187683,134.927828L203.652321,139.216610L204.510330,138.621301L205.136231,137.565373L206.989156,138.944248L206.382766,135.382190L209.079437,138.549673L209.983855,138.069199L211.537736,138.979267L212.424524,138.481984L213.050326,137.402307L213.659993,136.261837L214.821304,136.365191L216.119814,136.809743L216.355701,134.745032L214.399825,127.272850L214.590412,124.858546L218.430915,131.615798L220.806022,134.872071L221.200963,133.052058L221.241965,130.218224L222.734040,131.270389L224.528562,133.232426L225.399388,132.643967L226.510812,132.750072L227.533809,132.610510L228.224596,131.459823L229.051345,130.696961L229.984297,130.253948L231.084128,130.353802L232.089804,130.155562L233.263553,130.543697L234.096351,129.755962L235.049135,129.378397L234.378743,122.917960L234.912335,120.745997L233.808948,111.987262L234.216006,108.884457L235.708947,110.167298L236.845346,110.003838L238.775579,113.387975L240.642006,116.715229L243.909281,126.952657L244.848532,126.445755L244.571585,119.710295L244.788213,115.102521L246.390784,117.772980L247.797742,119.553899L248.847494,119.371843L250.062312,120.213874L251.308218,121.348295L252.173577,120.020493L253.507953,121.918039L255.064077,125.687044L256.058838,125.447325L256.422230,119.924526L257.708620,121.918602L259.003525,124.264924L260.136296,125.315981L260.969329,123.295922L262.167351,125.229663L263.111780,124.297058L264.134413,124.288559L264.890646,120.214663L266.192819,124.539535L267.112028,122.613617L268.147119,122.699609L269.174349,122.626822L269.966447,115.068762L271.050943,115.226238L272.070940,111.931402L273.198382,114.275449L274.289025,115.502416L275.363519,116.518503L276.406645,119.489348Z" />
<line x1="50" y1="575" x2="100" y2="575" fill="none" stroke="blue" stroke-width="1.0" stroke-linejoin="round" stroke-miterlimit="10" />
<text x="125" y="578" style="text-anchor:start;fill:black">n1_4mer:GRV/n1_4mer:RV</text>
<path style="stroke:green;stroke-width:1.0" d="M276.351042,174.935998L276.826553,184.822331L277.397417,186.240180L278.093856,183.378373L278.780004,181.731990L279.348910,183.042837L280.221641,178.412887L281.095053,174.810248L281.549458,178.134998L281.984259,181.125142L282.273898,185.411024L283.493575,178.472819L284.645588,173.252521L285.337261,173.271073L286.263355,171.134342L286.285020,177.105516L286.790799,178.452130L287.215158,180.295368L287.774405,180.967774L288.398536,181.129130L289.431402,178.552304L291.029457,172.600787L290.350141,181.094126L289.873553,187.715191L290.621251,186.922492L292.243739,181.451881L292.967253,181.087793L293.204153,183.211546L293.529007,184.770264L293.835115,186.322253L294.228719,187.383944L295.013684,186.659963L296.133533,184.554971L297.434705,181.829881L297.574973,183.952583L297.033392,188.637194L299.202149,182.741314L301.934701,175.078291L302.468228,175.769820L303.502987,174.671147L301.632449,183.607058L301.729431,185.527649L302.773621,184.270333L303.232226,184.948890L303.543503,186.063946L304.376549,185.548384L303.913571,188.922941L305.118800,187.300954L304.160640,191.920987L305.309704,190.477701L306.335918,189.438424L307.765980,187.370319L307.694824,189.328252L309.077367,187.483836L315.528825,172.958354L316.314316,172.993562L316.245203,175.107820L316.830170,175.598839L317.700869,175.415758L314.852746,183.763570L315.427853,184.124500L315.629146,185.307517L313.998144,190.431828L314.905236,189.978959L314.342263,192.628890L314.424979,193.868713L317.587936,188.844308L317.173811,191.112568L317.443622,191.977372L315.753077,196.594773L316.468416,196.517912L316.796383,197.173824L317.211558,197.658037L317.644235,198.104396L319.430501,196.143398L320.587808,195.351554L322.149432,193.898153L323.936148,192.117731L323.276288,194.481962L322.785735,196.506626L322.816324,197.637160L325.161984,195.054010L327.603072,192.407365L324.798233,197.964098L322.918234,201.958756L325.139452,199.686550L325.674277,199.986052L326.887981,199.296307L328.123294,198.605169L328.577147,199.051602L329.076419,199.432173L333.857452,193.913424L333.577411,195.434768L338.876005,189.453482L339.479643,189.850299L335.074186,196.771054L329.545478,204.954649L331.524515,203.415495L330.736357,205.385167L331.879782,204.931898L337.510686,199.049103L337.410367,200.205888L338.695977,199.704441L337.822768,201.745451L335.234663,205.715426L336.961187,204.693811L338.278601,204.168804L341.665069,201.384559L340.259333,203.907465L338.464014,206.793384L337.870645,208.339249L339.539249,207.489058L340.169423,207.744830L344.562062,204.174723L343.562752,206.128501L339.306808,211.269978L341.979253,209.511881L341.823675,210.540655L342.959087,210.325433L346.329184,208.030078L347.338470,207.995591L350.354340,206.141466L349.396696,207.932609L352.008975,206.514426L351.778302,207.642358L352.008361,208.355182L350.336962,210.686058L350.288862,211.600833L356.061222,207.670115L358.544835,206.555083L358.802997,207.283920L352.475630,213.256585L351.284625,215.043370L353.285596,214.321209L358.821764,210.931340L359.824202,211.067733L359.786245,211.989403L360.574942,212.295636L359.539600,213.927168L363.783885,211.768843L362.872965,213.307497L361.873221,214.880861L358.864256,217.796634L353.169281,222.450894L351.222380,224.503488L348.948706,226.724954L350.341555,226.537934L351.947782,226.236034L356.556673,224.083723L356.770002,224.714556L356.492183,225.640526L358.056447,225.456406L364.844461,222.226432L372.454367,218.637935L373.430497,218.956772L373.745380,219.656901L371.144835,221.964207L371.090435,222.837230L365.065825,226.892083L357.673743,231.555339L357.930867,232.132211L356.876126,233.375462L356.185178,234.414149L360.838998,232.809560L358.249085,234.778041L361.591075,233.882090L366.647322,232.236968L362.629728,234.829766L359.554441,236.928196L360.971612,236.986085L359.500571,238.316542L357.004886,240.056039L359.483015,239.672074L357.034096,241.344991L357.799970,241.682089L362.577660,240.444743L358.661309,242.641040L361.263931,242.302173L364.615173,241.722097L362.149465,243.305562L365.221659,242.876269L360.905605,245.064960L361.796762,245.410040L363.652773,245.443865L369.443402,244.220224L369.411597,244.934157L370.155380,245.403364L370.037326,246.142319L363.304142,248.836637L362.379499,249.751039L361.071572,250.757374L364.580878,250.420494L366.514894,250.552976L364.527516,251.730285L364.798276,252.305999L365.348257,252.814839L365.680346,253.381356L366.870650,253.752039L371.063696,253.464460L373.168878,253.687558L369.569831,255.136506L366.134733,256.499540L369.433305,256.492850L371.242606,256.812101L375.368929,256.733249L375.607517,257.390709L366.361070,259.644074L362.872680,260.839735L365.304331,261.072722L373.212796,260.531172L375.404166,260.900232L368.559852,262.504889L368.812701,263.115206L368.381990,263.809804L372.996450,263.927415L370.430286,264.869384L363.678667,266.191138L364.920925,266.680412L379.991640,266.000517L376.068080,267.023799L367.868146,268.301492L364.920148,269.124079L365.546429,269.696811L364.335810,270.372689L373.155513,270.580092L374.933293,271.175894L376.247849,271.809982L376.424977,272.489698L380.987752,273.092655L380.138334,273.817918L378.238043,274.536322L374.964060,275.225920L375.893861,275.909212L370.817707,276.510466L368.019143,277.094584L368.511605,277.737426L367.873645,278.346441L374.206629,279.245452L375.998634,280.005470L375.433378,280.657417L375.231758,281.325172L373.695177,281.897477L378.419901,282.929646L371.704252,283.071798L368.850976,283.472040L371.020500,284.321842L372.561302,285.136748L375.546668,286.133575L373.032549,286.525661L365.711181,286.286278L361.964919,286.416896L362.974131,287.154110L365.634205,288.145786L364.075533,288.534353L364.519432,289.220772L368.635455,290.523452L364.360764,290.435357L368.780051,291.851504L363.160860,291.456959L362.282754,291.903629L365.418695,293.145132L368.589816,294.439712L368.065228,294.987100L366.458143,295.288847L367.581588,296.194871L368.423626,297.052467L367.532529,297.502713L363.851066,297.243822L369.687949,299.385578L371.855567,300.642316L374.315245,302.012313L380.503043,304.461701L377.173899,304.277055L370.545272,303.077062L365.487120,302.255658L365.351356,302.881465L366.268856,303.840878L369.271395,305.491195L377.347308,308.868221L371.427750,307.633285L364.292537,305.892005L362.946882,306.092849L360.377878,305.834622L365.305015,308.304976L364.437563,308.672730L370.597197,311.730579L367.716429,311.343969L362.847520,310.121447L363.167446,310.941624L359.402812,310.073333L355.376125,309.038204L357.500319,310.596542L359.128249,311.974641L362.157270,314.010096L363.658156,315.402524L363.749530,316.170018L364.196398,317.111408L363.995482,317.753674L363.348472,318.179375L363.067515,318.781105L364.379962,320.188674L362.627545,320.048065L362.536054,320.750817L359.007753,319.631406L354.105809,317.714404L354.187962,318.451800L355.517601,319.891309L357.359688,321.649978L357.785185,322.632057L357.970831,323.487395L355.287247,322.649185L355.619081,323.585091L356.393991,324.804256L356.312302,325.511917L354.425593,325.086176L352.965234,324.904109L352.196810,325.150165L353.922398,327.032229L355.453879,328.824666L358.323757,331.562687L359.252349,333.027812L352.592224,329.216693L345.847374,325.219033L347.971748,327.468621L353.117403,331.972457L357.844126,336.280802L353.739243,334.070980L356.947692,337.347041L357.544784,338.685740L352.888894,335.936859L351.450055,335.647664L351.790982,336.767389L352.299765,338.040862L348.093480,335.436731L346.927938,335.295218L345.227409,334.681617L344.503781,334.879467L346.014576,337.021258L344.217166,336.280120L342.017718,335.144846L345.312519,338.964026L345.273870,339.801314L346.357919,341.697950L341.696745,338.190231L341.073676,338.451880L339.944579,338.215915L338.909161,338.053908L338.047684,338.049600L338.480885,339.345839L341.396502,343.216287L342.743171,345.546571L343.967175,347.798689L343.761721,348.570360L337.622106,342.914765L336.191452,342.268870L334.486418,341.288102L335.026324,342.805128L334.331691,342.939178L336.025081,345.837880L335.470440,346.159999L335.220881,346.843693L333.155473,345.338828L334.575857,348.055559L337.849564,353.141235L338.389416,354.911186L339.243401,357.120424L333.936478,351.393938L333.132482,351.412978L331.526340,350.352109L330.056194,349.433950L328.685861,348.615705L329.851391,351.290521L332.783494,356.524318L332.696162,357.577209L332.808253,358.939023L332.736998,360.059221L334.023258,363.230222L326.589365,353.255837L324.195624,350.732508L323.408854,350.634257L323.543006,351.983650L324.485271,354.665042L328.883177,363.066091L329.707693,365.784787L329.064874,366.103769L322.216943,355.802490L318.941547,351.376396L320.886376,356.017301L322.196168,359.657671L323.043472,362.562282L319.678060,357.748456L318.069452,356.073699L318.104750,357.479380L318.418265,359.463566L317.625340,359.316232L317.308232,360.111256L315.240852,357.342359L315.784353,359.902777L315.375046,360.525331L313.186857,357.325330L311.762762,355.677659L310.820081,355.036585L311.061248,357.056776L313.550079,364.353048L313.085555,364.940948L312.210808,364.554253L309.904221,360.630064L309.567653,361.469964L307.347421,357.528287L306.685035,357.472847L307.147730,360.394904L305.867325,358.703262L306.869205,363.250923L306.143990,363.100052L305.634553,363.557086L305.534381,365.234750L304.899127,365.362197L304.128537,365.067730L304.965387,369.837467L304.125736,369.393660L302.962463,367.843881L302.468592,368.485169L301.882259,368.827073L300.246686,365.419579L299.672507,365.723442L298.150471,362.454164L297.432602,362.115604L297.638295,365.438418L297.868109,369.047501L297.917960,372.103415L297.345665,372.622022L296.725606,372.948845L296.227423,373.855127L296.076271,376.484288L295.066109,375.006835L294.192306,374.116586L292.335229,367.881446L291.315509,365.813041L290.973218,367.491388L290.335793,367.520941L289.444885,365.948056L289.042983,367.441964L288.587306,368.698322L287.876613,368.224657L287.526931,370.442759L286.647026,368.633838L286.538662,373.168851L285.803031,372.588653L284.623929,367.653050L284.128718,369.060918L283.400104,368.085669L282.466776,364.488576L281.936743,365.506355L281.873933,373.401268L280.995563,370.054555L280.291342,368.985481L279.425943,364.360069L278.927521,366.842625L278.231608,364.762450L277.696726,367.217076L277.083709,367.661284L276.381771,362.823110L275.807199,364.876647L275.217569,372.580826L274.535122,377.809821L273.883055,374.077025L273.276877,370.589446L272.735212,366.393076L272.232978,362.737709L271.613701,363.422009L270.828168,367.583746L269.884017,373.712161L269.197374,374.022260L268.908168,368.180758L268.383045,366.698664L268.033180,363.243830L267.177897,366.223275L266.453193,367.346201L266.086756,364.701771L264.971743,369.438730L263.896451,373.243742L263.124408,374.076122L262.945125,370.132051L262.215302,370.706035L261.785736,369.077755L261.255274,368.278020L260.796005,367.079988L259.386055,371.874877L259.390502,367.852451L258.577570,368.809817L257.588206,370.654767L258.262858,363.551074L257.410878,364.734594L256.695112,365.157281L255.250530,369.012764L253.299533,374.941546L253.412396,371.282236L254.972147,361.583239L254.228498,362.115240L253.029743,364.461335L252.474432,364.120405L250.898374,367.716625L250.544760,366.534497L249.341242,368.503117L248.109103,370.462941L247.823822,369.038339L248.491913,364.457644L247.511200,365.519282L248.166366,361.262882L247.735845,360.604849L245.662923,365.007403L245.194704,364.391074L243.620048,367.038220L244.305777,363.075647L244.994069,359.265575L245.594381,355.848306L243.156402,360.744702L241.612783,363.074620L241.287379,362.153212L240.661102,362.021571L236.483983,370.709641L232.535886,378.497339L234.948734,370.770211L237.436320,363.145299L239.851564,355.957905L236.665503,361.689516L233.432273,367.311115L236.232784,359.562319L235.590037,359.454517L237.341003,354.300658L236.548411,354.578703L236.152929,354.030646L234.099337,356.808693L231.489542,360.579325L232.042653,358.097935L233.136680,354.658627L229.629655,359.934438L227.762777,362.010649L224.099220,367.267793L223.130795,367.540526L222.767727,366.730715L227.184345,357.671168L228.095758,354.846662L226.297232,356.641222L225.836266,356.163452L224.316746,357.411275L224.668647,355.614302L224.749347,354.288393L222.701775,356.300011L220.450211,358.554941L219.276699,359.106451L219.659914,357.315594L222.293833,352.265994L220.461072,353.804601L220.234832,353.000836L221.570589,350.016272L220.421985,350.544364L219.465085,350.785703L216.316624,353.958582L211.289101,359.525153L211.003398,358.722218L210.682613,357.974777L215.513898,350.681226L215.647462,349.470916L217.868342,345.699702L216.409120,346.512426L216.113803,345.891136L214.528692,346.807494L214.510192,345.853036L212.636671,347.056659L213.908570,344.631429L212.166271,345.649406L211.037363,345.948311L211.019180,345.012213L210.788874,344.318596L210.560202,343.630189L213.723149,339.384899L212.295617,340.000389L212.729339,338.684664L210.583622,339.995427L212.708458,337.008525L209.303725,339.520618L209.313278,338.645747L205.249302,341.676360L205.689359,340.365892L208.721300,336.666394L206.258545,338.097314L206.063078,337.424459L205.865700,336.758865L206.785419,335.114161L205.628831,335.306247L200.768366,338.656797L204.874481,334.318747L204.896026,333.493167L198.418451,338.025835L191.440733,342.827409L191.623138,341.750618L190.711588,341.551609L192.413239,339.307651L193.133488,337.863620L192.680163,337.332792L193.074022,336.168737L190.712570,337.050034L192.238532,335.069348L191.138392,335.007606L197.251638,329.843380L194.387547,331.052502L189.115146,333.862403L189.612632,332.678071L193.338995,329.361715L196.457465,326.523906L189.081041,330.536797L186.863640,331.130094L185.205250,331.337771L191.216397,326.781343L195.024105,323.684944L193.487074,323.869428L193.225496,323.278740L191.660321,323.447032L196.376773,319.997840L192.047381,321.735017L188.786967,322.808006L191.411592,320.617436L190.329361,320.468873L197.987669,315.688832L193.466668,317.375842L192.163599,317.345243L190.907448,317.273734L191.228102,316.406428L192.304810,315.181837L194.588232,313.403438L193.771569,313.122136L193.888973,312.400913L194.632663,311.402073L192.345904,311.767383L191.398361,311.514789L189.650465,311.594079L191.624693,310.083160L193.832699,308.510866L190.195623,309.344194L190.311471,308.633549L185.193263,309.966137L183.450771,309.934655L183.486592,309.214992L180.716554,309.526951L185.382072,307.133924L188.118058,305.492499L186.636108,305.344129L188.732408,303.974655L189.442474,303.094822L187.048987,303.224412L184.830810,303.266237L188.018408,301.623392L186.878802,301.322864L184.064542,301.496138L181.986843,301.421576L179.554287,301.417516L181.462344,300.210780L187.120241,298.050575L183.864891,298.247981L180.718843,298.373730L181.337810,297.550182L187.415107,295.462423L187.463809,294.828774L185.237203,294.696997L182.122674,294.724155L176.913390,295.139339L178.704240,294.095035L174.223416,294.277369L174.951613,293.438791L183.455630,291.233258L184.154320,290.477494L184.450255,289.798713L181.280007,289.667905L183.533190,288.683275L185.843936,287.722811L179.826602,287.926490L180.207970,287.223503L178.591134,286.770850L184.898295,285.383915L185.060550,284.750410L184.783763,284.164621L182.239514,283.790784L181.252227,283.246141L184.515205,282.343864L185.790788,281.634411L184.469820,281.118371L180.264957,280.760326L178.977005,280.188218L183.284621,279.334682L183.492419,278.705872L184.262280,278.061249L180.001713,277.563031L181.365696,276.893721L179.421246,276.287579L182.296323,275.622909L185.744497,274.997138L185.090208,274.390097L186.651133,273.804150L183.383615,273.141212L181.219379,272.463802L181.112354,271.826453L175.370327,270.958799L186.671705,270.819721L187.360845,270.259132L187.717167,269.687184L181.332482,268.663561L180.782353,267.987040L183.746025,267.587817L183.717729,266.964827L186.241003,266.582688L185.137037,265.865443L182.248667,264.938733L182.981205,264.389166L186.953575,264.244414L188.051634,263.782274L187.945017,263.170470L181.640363,261.671218L172.189947,259.613054L169.556699,258.490378L173.674880,258.433575L180.477290,258.889807L181.120430,258.346438L183.551134,258.140025L185.938872,257.957738L186.641244,257.472949L188.511614,257.236251L187.788916,256.473327L185.786997,255.417649L186.729102,254.998847L184.446313,253.837854L184.956372,253.314916L186.539067,253.063169L188.260431,252.867367L190.167061,252.742781L182.060415,249.944021L181.355575,249.074579L184.605166,249.315926L183.557411,248.349735L189.059736,249.322603L188.389295,248.484054L189.682206,248.248569L189.152912,247.444686L187.610205,246.297299L189.615976,246.316014L187.670444,245.004800L178.419724,241.096770L173.017691,238.425249L176.163959,238.798682L175.792550,237.901111L175.159889,236.894256L174.794725,235.977804L182.589183,238.292728L188.294709,239.879498L191.593093,240.558225L187.113977,238.012158L190.072171,238.580281L191.452166,238.502331L192.486157,238.288667L190.433933,236.689591L190.098477,235.844657L194.374526,237.154534L194.654038,236.621662L195.164366,236.201300L194.241913,235.076781L191.019916,232.776057L188.703633,230.879071L186.038654,228.756301L185.173629,227.533606L189.386076,229.017499L195.379610,231.541438L195.858993,231.107032L195.105214,229.980998L196.221258,229.906447L199.137033,230.892821L195.202200,227.881381L196.488421,227.923123L192.787723,224.946442L195.318957,225.747127L198.819622,227.197159L201.465055,228.162263L201.343750,227.382946L200.067500,225.837402L197.955721,223.704507L202.680962,226.142663L204.989805,227.010920L200.606811,223.264878L200.318213,222.312597L204.817219,224.773544L203.641111,223.199803L205.747689,224.011549L203.193971,221.379989L199.592691,217.893782L196.319333,214.574703L197.856155,214.922623L199.671122,215.514727L203.044459,217.385595L202.415921,216.073737L202.666352,215.462362L205.425279,216.940860L206.349405,216.921328L208.245722,217.747924L209.113197,217.715388L205.467422,213.716430L206.356506,213.671663L207.058290,213.468804L210.306518,215.610648L208.740673,213.343701L209.960192,213.653988L210.690429,213.517049L210.870047,212.854676L209.077491,210.248890L211.555801,211.835953L209.626724,209.030611L210.556974,209.085184L209.994649,207.605739L213.040109,209.889055L211.614447,207.483934L211.365734,206.295310L214.198646,208.458408L214.935981,208.367501L211.715981,203.835104L212.670066,203.947745L210.188322,200.104730L214.475996,204.097702L217.133151,206.276262L216.932401,205.085224L217.919548,205.321994L217.985377,204.435871L217.763100,203.174169L219.728468,204.671480L218.864986,202.571572L217.466847,199.723449L216.782806,197.753031L219.501762,200.317023L218.961702,198.517067L218.488681,196.769076L219.765356,197.438607L219.689277,196.211397L215.429045,188.912704L216.970798,189.918840L220.072479,193.286757L221.455031,194.170175L223.550260,196.182421L222.112695,192.772645L224.012333,194.537291L223.696155,192.816352L225.083184,193.823289L225.712373,193.620236L226.183801,193.156701L227.306292,193.797479L227.446188,192.769379L229.087792,194.356603L230.184101,195.031343L232.527042,197.997634L231.251197,194.402670L229.795499,190.362966L231.647925,192.495682L232.299396,192.385728L231.456858,189.342792L233.150403,191.279845L233.543182,190.646408L236.185546,194.657164L236.313337,193.521841L237.211563,194.006814L238.336927,195.013873L237.769682,192.306975L237.572323,190.346486L237.756161,189.200659L239.062704,190.656106L239.320178,189.667368L239.053870,187.372871L239.457621,186.663287L241.176787,189.269173L243.747875,194.192212L243.123597,190.894595L242.466725,187.380998L242.381283,185.299640L244.701639,189.895923L245.207598,189.494440L245.928238,189.713852L246.372600,189.123279L246.986742,189.035418L247.474036,188.553938L247.645518,187.042842L248.808949,188.734242L249.504609,188.939671L250.164146,189.039267L250.646105,188.522187L251.261140,188.471439L251.426495,186.743085L251.863084,185.971071L250.216932,176.921519L250.847849,176.626906L251.953654,178.316628L252.895553,179.411427L253.658089,179.784965L255.002013,182.870735L256.454755,186.691515L256.264543,182.691671L255.529548,175.633642L255.162105,170.006891L256.555043,173.632470L257.916848,177.379079L258.398311,176.206782L259.265536,177.337510L260.045054,178.010551L260.696617,177.887489L261.631220,179.777845L262.926576,184.574361L263.720362,185.939990L263.888941,182.251906L264.598093,182.911434L265.308942,183.680987L265.896549,183.324250L266.427115,182.307244L267.260456,184.671487L267.756743,183.179679L268.483827,184.617230L268.932216,182.095547L269.741709,185.168195L270.137109,181.054641L270.705364,179.554775L271.427748,181.565739L271.744059,171.548896L272.404226,169.978354L273.130902,170.942336L273.826660,170.324909L274.530983,169.782358L275.237434,171.487413L275.924841,172.754900Z" />
<line x1="50" y1="625" x2="100" y2="625" fill="none" stroke="green" stroke-width="1.0" stroke-linejoin="round" stroke-miterlimit="10" />
<text x="125" y="628" style="text-anchor:start;fill:black">n0_4mer:PS</text>
<path style="stroke:red;stroke-width:1.0" d="M276.750116,145.378865L277.427835,155.136781L278.240636,155.021609L279.035049,155.505831L279.989001,151.901143L280.898071,150.286006L281.758045,149.993296L282.801397,146.761561L283.401030,150.750667L284.251181,150.655630L284.741715,155.016146L286.056079,149.350658L287.443949,143.733719L288.517932,141.970098L289.325501,142.896584L289.834783,146.312294L290.157680,150.882732L291.036926,150.665041L291.761211,151.620956L292.506910,152.345642L293.893533,148.731069L295.318547,145.201268L295.384164,150.298036L295.341998,155.623857L295.869553,157.330923L296.966975,155.828098L298.050671,154.517504L299.260609,152.673862L299.543350,155.482531L299.788224,158.294376L300.820358,157.349004L301.418835,158.387741L303.385900,153.517067L304.980788,150.491404L305.099458,153.605485L304.920733,157.721713L306.076319,156.536948L308.985426,148.921680L310.540245,146.609307L311.250908,147.398919L309.904127,155.221648L310.479776,156.237315L310.589579,158.737496L311.696753,157.949953L312.418255,158.411927L313.536633,157.655921L313.625431,160.010276L315.342424,157.532100L313.731911,164.652324L315.475423,162.129358L316.595467,161.425099L317.965728,160.092007L318.904489,159.955051L320.019539,159.382578L324.239898,151.026008L326.689594,147.376652L326.299790,150.756511L326.724559,152.086772L328.510262,150.206781L325.452778,159.496508L325.784073,160.845335L326.798792,160.649521L326.667322,162.958489L326.364375,165.564419L326.549751,167.070006L327.017527,167.954947L329.916537,163.903463L329.820513,165.957163L330.329646,166.771427L329.979547,169.224334L332.075603,166.980139L333.930594,165.269387L334.323515,166.304722L333.121384,170.196174L334.149744,170.019238L334.916185,170.317823L336.405843,169.375667L337.151694,169.734799L336.976153,171.632520L338.408816,170.843981L339.773418,170.201990L341.770203,168.584554L341.646070,170.358305L340.213526,174.117248L339.079150,177.324846L341.226110,175.523107L341.774715,176.152315L342.294478,176.818485L343.997131,175.777535L344.760749,176.110503L345.652312,176.268579L349.018658,173.026173L349.451159,173.873584L355.449502,167.257276L355.934879,168.120053L351.849021,174.926769L348.773600,180.262583L350.509846,179.371848L352.242055,178.524502L352.152381,179.958833L356.049602,176.524197L356.050499,177.867096L356.564262,178.582189L357.149435,179.209572L354.370239,183.704840L355.698812,183.432582L356.139603,184.176009L361.048289,179.980482L361.453720,180.818619L360.669112,182.928922L360.157817,184.708513L360.469102,185.595496L360.445097,186.820234L363.272426,185.124587L361.923215,187.685359L360.972942,189.798175L364.331919,187.656845L364.149751,189.004512L366.457574,187.962647L368.079023,187.609475L368.420498,188.468100L369.982869,188.204984L369.261815,190.024532L372.941554,187.898679L371.534769,190.310000L370.881405,192.022014L372.394383,191.855996L370.850803,194.286056L376.835043,190.415268L378.726784,190.020826L379.756305,190.352832L376.232013,194.324178L376.221870,195.443704L378.292239,194.938680L381.301756,193.748893L382.520473,193.961482L383.529626,194.344034L383.784095,195.289313L383.226573,196.815300L386.277235,195.749263L385.300009,197.562263L384.439408,199.264314L381.085100,202.639913L376.463950,206.791111L374.712350,208.941634L373.455647,210.726382L375.729913,210.207341L375.890088,211.063124L379.904784,209.507370L379.332223,210.839647L379.263594,211.847978L383.326387,210.382759L388.496200,208.333682L394.754009,205.741090L395.838524,206.198346L395.984748,207.192565L395.191047,208.699741L393.206412,210.831554L388.773900,214.228611L382.407491,218.557872L384.011664,218.650789L382.883432,220.153756L382.798324,221.109784L387.463053,219.723659L388.699044,220.066083L391.877217,219.500667L395.648701,218.704800L388.914619,222.780542L388.798130,223.760822L386.849483,225.543713L385.318111,227.108611L383.742270,228.662693L384.085997,229.383943L385.524441,229.656647L385.089838,230.700909L388.327970,230.284519L386.034558,232.053471L388.467223,231.990929L390.091920,232.261503L388.600564,233.685851L390.054893,234.034311L387.410996,235.828776L390.377451,235.666572L391.091343,236.296063L395.191787,235.828642L394.892228,236.819723L395.270610,237.591653L396.326326,238.159776L391.335674,240.531260L389.267392,241.981581L388.975425,242.898070L391.491669,243.036620L393.212405,243.421080L391.387529,244.748913L392.696230,245.255572L392.964613,246.033599L392.358314,247.021196L394.105136,247.453213L397.202647,247.604636L400.525586,247.748423L397.531065,249.263515L396.613307,250.312353L397.527663,250.986885L399.123846,251.543113L401.216229,252.029143L401.592383,252.842589L396.403974,254.594477L395.335066,255.608576L394.707446,256.537996L401.004561,256.436856L403.905485,256.897789L396.224527,258.810214L399.032534,259.286764L399.084487,260.130647L399.443902,260.939127L399.685003,261.763783L395.143911,263.065549L394.280188,263.964059L405.616280,263.804071L402.680658,264.923559L399.766934,266.000657L397.561319,266.991109L393.903809,268.035956L395.331044,268.767235L402.054998,269.278758L401.977135,270.141018L407.192238,270.835016L408.374419,271.698938L412.521508,272.525176L413.511602,273.442698L409.814188,274.394503L404.792798,275.293333L403.883654,276.161444L399.786209,276.967124L396.030055,277.725328L398.808265,278.624320L397.262833,279.405398L403.941388,280.517922L404.148913,281.400591L401.776086,282.141303L401.972512,283.012660L400.616582,283.778925L406.515286,285.083839L398.442367,285.303599L397.587773,286.066146L401.470316,287.277965L404.524734,288.457791L407.984835,289.725467L402.355492,289.973152L396.836797,290.158925L397.300346,291.055788L399.912193,292.257307L399.542272,293.063887L400.352329,294.046337L398.016342,294.541984L398.641136,295.497975L393.280940,295.430762L396.435808,296.821017L393.466677,297.114135L391.412364,297.545020L394.226234,298.926199L396.212107,300.177189L396.610232,301.117552L393.137099,301.207240L394.352666,302.323622L395.312065,303.399431L394.685805,304.106039L394.210892,304.844390L395.813068,306.113743L398.187671,307.613688L401.300291,309.351856L406.992740,311.858943L402.995617,311.676047L398.005741,311.146632L394.374791,310.956924L392.243246,311.180015L392.927508,312.264988L396.483393,314.292660L401.155174,316.746592L398.276416,316.719467L390.647733,315.009955L389.103490,315.340289L388.575829,316.018445L389.876731,317.367157L391.464342,318.848157L395.651346,321.356942L392.300076,320.980528L389.012303,320.582130L388.381386,321.220133L385.924343,321.094275L386.271986,322.122184L383.835351,321.959359L385.767500,323.682679L387.252059,325.242091L389.740837,327.288697L391.311692,328.955829L391.398006,329.953832L391.820782,331.121025L390.287938,331.345752L387.188921,330.772608L387.187951,331.719926L386.549715,332.346110L385.239563,332.616831L383.574961,332.683404L384.933500,334.360291L389.209669,337.668814L389.014138,338.566772L388.483472,339.279038L384.428152,337.961603L385.120342,339.353321L380.302103,337.495098L380.683235,338.690003L382.679348,340.888031L379.651245,340.010273L379.367301,340.814542L377.919645,340.876967L377.225563,341.409854L378.371036,343.150811L379.003706,344.579800L380.904283,346.891031L380.897379,347.935571L375.057282,344.913900L372.365651,344.016092L373.239953,345.637131L382.650811,353.511714L396.699198,365.022369L400.267386,368.976864L396.825525,367.686699L384.193955,359.246363L374.889306,353.149018L371.926561,351.891632L372.077620,353.085094L372.285025,354.339592L368.828243,352.581096L368.365691,353.265898L369.075430,354.948467L368.079432,355.190554L368.711246,356.843611L366.732857,356.213965L363.705934,354.608869L365.188376,357.045298L365.711213,358.647106L367.832127,361.769802L361.227665,356.694333L360.301471,356.916718L360.275962,358.006127L359.165567,358.039237L358.427654,358.430189L360.439000,361.603143L361.870593,364.251528L361.827937,365.421118L363.233971,368.135863L362.338556,368.446309L356.952559,363.878979L355.370147,363.352357L354.374953,363.450694L354.950771,365.311581L354.583946,366.129509L355.369839,368.293265L355.072756,369.227482L352.961005,368.007714L351.541110,367.576188L352.145464,369.600485L355.277796,374.809859L356.519190,377.766290L357.393124,380.320674L353.943760,377.327538L350.788972,374.621775L350.564271,375.730513L347.003358,372.345892L346.438891,372.959208L346.044368,373.812661L348.291877,378.404447L347.882118,379.311998L348.881919,382.278387L348.573852,383.390371L349.633174,386.564521L342.985564,378.127208L340.790312,376.278628L339.628739,375.976293L341.045633,379.740812L342.139175,383.085601L345.148324,389.649673L344.394030,390.156056L343.448868,390.341985L338.234208,383.212881L335.935525,380.914244L335.504284,381.826780L335.778043,384.020028L336.591599,387.254605L333.880704,384.053244L332.861916,383.918951L332.048671,384.160568L330.951329,383.844718L329.802589,383.403776L329.214379,384.062791L327.970902,383.391070L327.853187,385.027059L326.965780,385.077659L325.769187,384.451011L324.304911,383.202014L324.470362,385.536849L323.078519,384.401878L323.792115,388.092484L323.686330,389.975211L323.053725,390.649611L320.867569,387.526300L319.872828,387.248054L318.823605,386.807587L318.241953,387.554302L317.810589,388.718951L316.231998,386.809260L315.807902,388.003604L315.290324,388.973181L314.992928,390.609883L314.633841,392.125340L313.993146,392.846464L313.880341,395.221076L313.636029,397.279185L312.896446,397.818672L311.601490,396.528079L311.218642,398.264630L309.339602,394.855419L308.315646,394.318105L307.057804,392.879968L305.978269,392.024773L305.389793,393.016854L304.818183,394.121575L304.200069,395.088354L304.173201,398.606877L304.161224,402.397312L302.823815,400.442328L301.799461,399.803850L301.503672,402.617751L300.448350,401.831212L299.419600,401.112378L297.850930,397.434351L297.133465,398.196114L296.136794,397.390583L295.421553,398.203369L294.432070,397.348425L293.696416,398.074521L293.669642,403.746210L292.421776,401.130921L291.721129,402.398376L291.231855,405.492614L290.641831,408.077870L290.213767,412.432820L288.821136,408.061082L287.597058,404.798167L286.343845,400.706698L285.161075,396.779487L284.463060,398.468188L284.005557,403.915752L283.110286,403.581692L282.041023,400.063538L281.203682,400.252726L280.466761,402.836807L279.624397,403.449141L278.805127,405.119869L277.831310,400.906644L277.030232,404.038264L276.165835,404.808562L275.289585,404.880647L274.398187,408.093544L273.586963,400.341461L272.745438,400.070752L271.931568,398.823289L270.994690,402.001759L270.241171,399.261085L269.315370,401.156660L268.474479,400.909000L267.568662,401.816351L266.908845,398.762445L266.214793,396.746594L265.469098,395.721258L264.712122,394.979747L263.743770,396.620877L262.877970,396.994588L261.979879,397.613903L260.887762,399.864496L259.978676,400.320456L259.355097,398.463059L258.683383,397.145923L257.802336,397.437214L256.805886,398.473607L255.106966,403.960219L253.776340,406.679684L253.680196,401.819971L253.841125,395.865802L252.548130,398.343318L252.296504,395.117221L251.233626,396.249141L248.584512,405.104517L247.586705,405.494624L246.468409,406.402303L246.911344,400.277386L247.552068,393.661292L246.768357,393.402912L245.187096,396.396039L245.397608,392.119228L243.477897,396.262482L242.246489,397.594425L241.828415,395.880621L238.884964,403.208724L237.628586,404.317143L238.578195,397.913766L239.821179,390.842148L239.552515,388.954084L238.943930,388.209982L236.143641,394.212964L233.834416,398.462478L234.464174,393.892638L235.388352,388.663783L234.705080,388.160114L233.927894,387.924341L232.594399,389.184822L232.108364,388.147031L231.278347,388.028368L229.877095,389.350380L226.123831,396.453902L223.453463,400.633833L224.378741,396.045079L225.959109,390.077222L226.420024,386.894967L225.226858,387.556832L220.901730,395.138194L223.612574,387.090586L221.845339,388.909044L220.244095,390.302575L219.460160,389.944233L218.218135,390.517268L217.231584,390.547237L216.485594,390.090110L216.905826,387.379052L218.927191,381.696817L215.237940,386.876093L211.819012,391.378957L209.634547,393.487891L209.010414,392.732884L209.423861,390.165313L211.625497,384.571734L211.120119,383.744860L210.789779,382.636612L209.743310,382.731001L208.067373,383.832853L206.283323,385.061555L205.016288,385.424358L201.331586,389.520960L197.495298,393.715414L196.472984,393.525437L196.089709,392.375090L199.931673,385.048393L202.939559,379.121854L201.139672,380.197657L203.039052,376.035029L202.155839,375.827520L200.511671,376.650473L199.358601,376.775631L196.872430,378.651727L195.706877,378.733571L194.261273,379.159670L197.212790,373.964820L198.076132,371.518045L197.591896,370.791546L197.592061,369.479371L197.550260,368.239169L196.506496,368.208200L196.563426,366.874474L194.889938,367.561824L195.742402,365.337054L194.444109,365.575968L192.661547,366.331041L193.089046,364.632598L190.431628,366.295094L190.050632,365.473456L193.142916,361.008991L191.208066,361.860090L192.541768,359.330642L188.991719,361.781423L188.004974,361.599770L186.360579,362.053189L187.248101,360.025330L183.844884,362.137355L185.980259,358.953268L187.908457,356.030882L185.475296,357.174116L184.236965,357.188662L182.370129,357.747866L183.779024,355.388566L183.433357,354.601376L180.364178,356.154261L182.220943,353.481237L177.678164,356.203134L174.080042,358.056098L169.225000,360.860544L169.268927,359.647158L170.309845,357.660215L171.238161,355.796003L171.047499,354.822999L169.040338,355.232928L169.097290,354.070586L168.020769,353.755099L167.959862,352.691122L168.454700,351.239038L171.480721,348.022079L171.087662,347.253682L166.574495,349.310958L167.085771,347.894676L171.069350,344.186614L173.032706,341.890549L166.234786,345.304292L162.659505,346.544622L163.487756,344.963459L167.883652,341.201836L170.753782,338.459387L170.132733,337.871051L169.626123,337.211543L167.524406,337.477725L170.585077,334.759008L168.995533,334.722291L165.155930,335.912205L165.794929,334.597443L164.675806,334.245057L169.249018,330.872661L168.117720,330.550614L167.547284,329.928888L167.178893,329.202194L165.166371,329.288112L166.507993,327.716586L166.550887,326.793647L164.744284,326.745224L164.599219,325.906642L163.133129,325.669665L161.953243,325.287083L161.583172,324.537205L160.966378,323.892538L162.534418,322.323940L163.249112,321.137656L162.461246,320.576101L159.961488,320.686865L158.278573,320.445337L154.744783,320.888693L155.158860,319.806152L152.578657,319.831155L157.799279,317.024171L158.264190,315.970155L159.847303,314.543395L159.269474,313.870356L158.690590,313.192926L158.656788,312.335770L154.724283,312.704030L158.153396,310.764498L157.097699,310.218839L157.482715,309.241365L156.960964,308.530497L153.321090,308.678354L155.695793,307.155522L159.749735,305.229769L157.710790,304.919724L154.928603,304.767523L153.725660,304.198104L155.936405,302.816779L154.672884,302.256603L151.862114,302.020621L153.572834,300.787221L151.427516,300.372149L153.149555,299.162419L148.183105,299.258573L149.053767,298.211732L154.674497,296.336921L154.961058,295.451187L153.785436,294.810322L149.800214,294.594736L153.799845,293.131331L155.419391,292.064475L153.315195,291.527281L154.349189,290.558012L152.313265,289.979195L156.562686,288.649498L155.142751,287.993823L152.878127,287.405757L152.766291,286.583921L151.944523,285.824074L156.339442,284.630645L154.757031,283.942364L153.255905,283.227925L148.432377,282.695894L150.467771,281.728600L154.208442,280.708890L154.859314,279.865455L154.245654,279.073930L151.767423,278.324786L154.170658,277.443732L153.846916,276.632100L155.512760,275.802877L155.463559,274.996167L153.978219,274.179049L153.449191,273.354744L155.012879,272.565603L153.508312,271.714385L153.460965,270.891793L147.182466,269.815437L157.269471,269.428213L156.778337,268.604761L155.204736,267.708185L153.601839,266.787633L153.696120,265.970913L153.239678,265.109913L153.757030,264.327520L155.457355,263.663371L156.014693,262.905161L153.874755,261.860852L154.941508,261.155864L155.565993,260.410166L156.261671,259.680862L153.833380,258.535185L146.878053,256.708268L140.969341,254.940459L136.344949,253.290299L139.462522,252.839932L144.367590,252.735368L149.181185,252.680645L152.912083,252.491255L151.589998,251.384921L155.279810,251.252021L157.578796,250.882995L155.763004,249.669908L154.659855,248.585208L156.085650,248.055400L155.213650,247.006261L155.018566,246.105035L151.916382,244.477323L156.415979,244.741877L158.682114,244.482224L152.914007,242.086317L153.527422,241.370366L154.711542,240.822188L153.724692,239.655210L158.936719,240.322390L158.017350,239.185655L159.578228,238.809454L157.197983,237.187750L155.772131,235.840258L148.251257,232.419914L140.966962,228.963493L139.457411,227.419564L142.588120,227.512043L150.689300,229.467914L147.713330,227.400812L148.177582,226.595982L148.150959,225.602121L156.084305,227.764505L163.010130,229.637827L164.164274,229.231858L161.103940,227.065536L162.508146,226.759962L163.826008,226.433910L164.538820,225.854583L164.016522,224.721886L165.325074,224.419526L165.145184,223.434329L162.964085,221.484526L163.713666,220.916819L162.145156,219.209567L163.323028,218.850471L163.557432,218.022519L161.450578,215.974980L160.800909,214.654480L162.931607,214.809032L168.030203,216.613529L168.616607,215.997935L166.532470,213.880868L167.911721,213.701852L170.092455,214.006131L169.794739,212.878906L169.884170,211.970763L167.800836,209.733597L169.725098,209.926914L172.372717,210.601846L173.158476,210.132520L174.240950,209.861616L176.398154,210.308139L174.252241,207.922910L176.342959,208.349221L178.700283,208.990544L177.324004,207.073358L177.434384,206.168239L179.964454,206.987609L176.398981,203.424444L178.906669,204.249291L177.920900,202.507726L177.053194,200.824542L172.486932,196.271860L174.696306,196.886408L177.456301,197.972256L180.116292,199.027138L178.549367,196.698044L178.641360,195.687453L178.516490,194.485848L179.251611,193.996488L179.235878,192.867515L177.916966,190.592142L180.388468,191.612721L182.548831,192.401111L184.441391,192.985881L187.752986,194.906249L187.497555,193.576340L188.162028,193.093805L189.519970,193.277102L189.914094,192.547246L188.400996,189.939802L189.427632,189.805496L189.590127,188.811308L189.509310,187.556822L188.046156,184.850652L193.052258,188.884694L191.849511,186.431018L191.297710,184.628251L195.172125,187.635599L194.217315,185.383083L192.846413,182.615673L193.996749,182.661322L192.552715,179.725323L196.951758,183.568512L197.747206,183.253156L198.711715,183.147083L199.258266,182.542200L199.643893,181.735539L200.146457,181.067276L201.599690,181.604088L200.959445,179.468875L200.256887,177.205885L200.287518,175.865836L202.351548,177.238288L201.480166,174.657686L202.930829,175.231706L203.201394,174.179219L202.238956,171.353894L199.532629,165.940445L200.320135,165.505998L201.879717,166.222188L198.994585,160.264582L197.833370,156.785855L197.403358,154.355422L204.517239,163.772437L208.208471,168.006626L210.872941,170.714028L211.126088,169.536537L212.120127,169.578103L212.247113,168.157970L212.530119,166.976333L214.132596,168.088257L215.131118,168.171081L216.817018,169.515770L216.475474,167.181725L216.162843,164.838348L218.967683,168.363624L219.214385,167.069723L218.864899,164.572138L220.660598,166.293979L219.820898,162.725211L222.499704,166.328559L223.719930,166.998810L223.781729,165.222214L225.439073,166.875223L224.946210,163.824498L225.328101,162.652637L226.309926,162.831748L226.825264,161.935154L229.112554,165.254596L229.225026,163.412757L229.040136,160.771762L231.172029,163.910370L232.195142,164.320616L232.452570,162.739253L232.299561,159.998672L233.700280,161.427178L234.774726,162.012542L235.484048,161.587405L236.739097,162.756201L237.465076,162.402411L237.564919,160.122571L238.526334,160.453430L238.626871,158.043773L240.188877,160.342214L240.510236,158.578940L241.030247,157.425428L242.561554,159.814899L243.475278,160.091837L243.389068,156.651742L244.004238,155.730887L243.054407,148.575976L244.174773,149.447087L245.303475,150.417987L246.238370,150.623077L246.908078,149.670393L247.903918,150.170326L249.647830,154.278398L250.185929,152.742751L250.279619,148.840927L250.214805,143.823045L251.709645,147.003727L253.088236,149.786192L253.472543,146.894558L254.803912,149.644586L255.715249,149.929846L256.193398,147.312982L257.465360,150.105564L258.808152,153.728832L260.158981,157.820594L260.627756,155.029602L261.267527,153.425778L262.210220,154.481666L263.009356,154.248953L263.687329,152.683808L264.589689,153.500865L265.452460,153.969065L266.426959,156.087389L267.026565,152.917929L267.975355,154.992086L268.704520,153.378699L269.363410,149.730818L270.332053,152.907207L270.922701,145.451866L271.794728,145.318816L272.666787,145.103814L273.553882,145.990040L274.408267,142.252610L275.303190,142.820020L276.197903,142.566735Z" />
<line x1="50" y1="600" x2="100" y2="600" fill="none" stroke="red" stroke-width="1.0" stroke-linejoin="round" stroke-miterlimit="10" />
<text x="125" y="603" style="text-anchor:start;fill:black">n0_4mer:D</text>
<path style="stroke:black;stroke-width:1.0" d="M277.398950,97.323358L278.589072,97.806066L279.788312,97.721862L280.973242,98.108074L282.187601,97.652780L283.423144,96.893653L284.642268,96.642495L285.868962,96.337303L287.021783,97.200558L288.195909,97.634851L289.380908,97.877509L290.578574,97.953729L291.877333,96.967711L293.120600,96.675274L294.293106,97.087535L295.510982,97.072811L296.631428,97.873038L297.719619,98.853837L298.893166,99.122728L300.094148,99.189036L301.237974,99.646831L302.500503,99.321570L303.671812,99.597601L304.823847,99.980029L306.111750,99.582203L307.254542,100.017544L308.519732,99.797253L309.940148,98.825800L310.869731,100.327045L312.050775,100.560964L313.345531,100.277797L314.234216,101.820881L315.638596,101.079295L316.873315,101.102384L317.923037,101.886544L319.229866,101.635165L320.427841,101.828892L321.729334,101.644635L322.928655,101.855632L324.076009,102.255311L325.213156,102.686592L325.985289,104.335174L326.869203,105.555922L327.824988,106.506419L328.552551,108.140572L329.794863,108.149599L330.987739,108.321872L332.103631,108.727306L333.539551,108.220119L334.917389,107.913068L336.117160,108.121831L337.277435,108.444575L338.694665,108.097947L339.892592,108.345378L341.270052,108.148256L342.704743,107.834707L343.640932,108.757822L344.737469,109.282638L345.701953,110.113416L346.383175,111.579745L347.205363,112.693621L347.474143,115.006830L348.531708,115.545179L349.579996,116.101830L351.173697,115.514715L353.057368,114.368469L353.979401,115.224122L355.067522,115.738636L355.833619,116.883913L356.599446,118.010062L357.762596,118.365578L359.084362,118.432281L360.121510,119.036446L360.899683,120.106659L361.857537,120.842605L362.964628,121.313167L363.761441,122.321241L365.190627,122.245766L366.226285,122.847427L368.116044,122.046562L369.370027,122.317135L370.225924,123.233063L371.194647,123.963774L370.888710,126.663948L371.682255,127.628287L372.571078,128.440469L373.250403,129.558349L374.427979,129.936246L375.754806,130.107886L376.305536,131.394125L377.643786,131.562842L378.675924,132.168031L380.134452,132.196711L382.188188,131.447248L383.336039,131.934981L384.208070,132.788631L384.773958,134.032211L385.467504,135.100319L386.128202,136.200629L387.031225,136.992873L387.952451,137.762024L389.284892,138.038186L390.465326,138.507451L391.074934,139.650711L391.707191,140.758226L392.346329,141.849336L393.592405,142.253041L395.115288,142.361724L396.303918,142.853338L396.912283,143.977335L397.210797,145.421824L397.754554,146.593245L398.783958,147.254338L399.766223,147.968080L401.000269,148.432336L401.976205,149.162682L403.502228,149.358569L404.230569,150.341817L405.594478,150.717263L406.175374,151.841371L406.031671,153.630283L406.681967,154.669477L406.637085,156.331345L407.575376,157.098150L408.095809,158.234982L409.883118,158.269029L411.229106,158.703423L412.116341,159.537214L413.537066,159.930372L414.330116,160.852450L415.447639,161.512846L416.679901,162.089645L418.254770,162.407544L418.932600,163.438531L419.603042,164.473536L420.256089,165.520031L420.470137,166.890953L421.045432,167.986362L421.602441,169.091926L422.690886,169.815759L423.919466,170.448907L423.943444,171.926216L424.160850,173.258171L423.101316,175.439257L421.873302,177.698008L422.097664,178.971998L421.859425,180.535383L423.423086,180.940131L424.669794,181.560329L425.520850,182.435396L427.275811,182.767179L428.421119,183.483521L429.509773,184.242797L431.136248,184.699672L431.840108,185.700177L432.897453,186.504372L433.710244,187.451630L432.715551,189.383986L432.462942,190.892470L431.466796,192.777439L431.451950,194.128434L432.663017,194.846597L433.301201,195.862538L434.740658,196.486401L434.996927,197.697170L435.899136,198.596789L437.068368,199.378207L437.200193,200.646013L437.402098,201.876215L437.388992,203.196749L437.468689,204.468959L437.193600,205.885987L437.564241,207.021159L438.424291,207.954147L438.641255,209.152334L439.500727,210.093437L440.121737,211.133348L440.011416,212.453411L440.301009,213.616745L440.417939,214.840955L441.091197,215.862660L442.785252,216.532823L443.140657,217.679021L444.128665,218.613838L444.505489,219.756956L443.838232,221.232625L442.406763,222.930668L442.168332,224.240045L442.267486,225.440830L442.213935,226.682281L444.545902,227.246280L445.937418,228.097610L445.924066,229.339839L446.143738,230.516848L446.125022,231.752941L446.121714,232.980787L446.766319,234.050058L446.758728,235.275424L446.693637,236.509756L446.338734,237.802398L446.108811,239.060221L445.992252,240.288368L446.517139,241.385870L447.415796,242.416915L448.677303,243.391414L449.453204,244.465529L448.977300,245.757976L448.541297,247.034645L447.601794,248.380310L447.839418,249.537088L448.019766,250.702816L447.597457,251.949254L448.666925,252.998761L449.456967,254.094387L450.028919,255.223543L451.314595,256.282928L450.814924,257.535490L451.675729,258.653758L452.865722,259.754029L452.914747,260.959130L453.953143,262.092247L453.986309,263.303963L454.048712,264.513345L454.827065,265.685530L454.860874,266.900928L454.374280,268.135958L455.478638,269.313655L455.512915,270.532245L455.788955,271.746539L456.169322,272.963093L454.716277,274.192832L453.117435,275.402547L452.885639,276.603029L451.945762,277.789365L451.960392,278.984754L453.816385,280.234608L453.414659,281.428672L454.016678,282.660845L453.811043,283.861835L452.548889,285.001337L452.464844,286.199003L452.422606,287.399475L452.023226,288.573127L452.338677,289.802265L453.044012,291.072247L454.486829,292.424903L456.939066,293.903709L456.869424,295.138478L454.047452,296.050562L450.080234,296.783469L445.888342,297.434499L444.742271,298.450829L444.716173,299.616009L444.805669,300.800686L445.775859,302.128908L446.896134,303.497980L447.820861,304.851486L449.338015,306.327108L449.478933,307.569925L449.218248,308.740006L449.121319,309.942489L448.550956,311.048587L448.731427,312.311331L448.146038,313.410286L448.455530,314.709488L449.205531,316.120880L448.450189,317.180841L447.579352,318.205158L447.864842,319.518961L448.225029,320.860978L448.804147,322.272219L448.107771,323.340306L447.152535,324.328833L445.520184,325.109290L444.842827,326.158420L445.413392,327.587756L445.269045,328.804868L445.746447,330.226331L445.749504,331.503508L445.399667,332.667019L444.273959,333.562700L443.002518,334.395818L442.315495,335.426778L441.985829,336.585273L442.490530,338.059225L442.282710,339.273754L440.715958,339.959098L440.459356,341.150667L439.129162,341.907559L438.004130,342.735872L438.222310,344.122445L437.063206,344.925665L437.148229,346.264678L437.542034,347.751019L436.956160,348.805253L436.760389,350.039024L436.397059,351.198787L435.912748,352.302926L435.364724,353.376551L433.622916,353.856393L431.603075,354.175301L430.475698,354.927828L430.785665,356.421552L432.065089,358.445106L433.357209,360.507421L434.201116,362.356397L434.241032,363.782308L433.072364,364.534972L431.792457,365.213571L431.017923,366.175448L429.441998,366.658832L428.573393,367.551008L427.603819,368.376914L426.980548,369.411653L426.318536,370.422226L425.660337,371.434904L425.582442,372.824436L424.438453,373.522295L423.821850,374.563706L423.218681,375.615324L422.062412,376.287503L420.668147,376.783978L419.386104,377.345791L419.859114,379.157543L424.061522,383.713307L428.339453,388.427048L429.130219,390.630055L427.490412,391.017007L422.209967,388.576840L416.782548,385.924457L414.864948,385.954562L413.645092,386.520194L412.956847,387.508991L411.702757,388.031528L411.453890,389.385554L412.383725,391.753314L410.380029,391.633710L410.097984,392.989113L408.970718,393.608463L407.385359,393.808835L407.514234,395.549569L406.669780,396.416037L405.518274,396.994887L403.902130,397.125231L402.524653,397.464488L401.694956,398.322650L400.841685,399.157631L399.664683,399.668470L399.250387,400.943352L398.571671,401.958502L397.806972,402.889065L396.889172,403.660800L395.958015,404.416841L394.462888,404.559583L393.080734,404.808288L392.510611,405.946787L391.358702,406.437611L390.986747,407.813411L390.536219,409.114379L390.170536,410.529612L389.807046,411.965153L388.600930,412.399903L387.994650,413.560949L387.370021,414.710312L386.618470,415.710625L386.582605,417.632716L385.533110,418.273909L383.533882,417.663738L382.215654,417.923206L380.385920,417.477888L378.942804,417.529574L378.364968,418.766041L377.247425,419.256621L376.199577,419.841154L375.921402,421.540390L374.838493,422.083930L373.697240,422.536406L372.698932,423.199375L370.865323,422.576568L370.021812,423.462597L369.264054,424.491998L368.747384,425.921460L368.307031,427.500017L367.481817,428.469128L366.813642,429.713557L365.609353,430.060045L364.498092,430.559878L363.421181,431.117046L362.012105,431.077122L360.884240,431.529486L360.086846,432.589769L358.751183,432.652765L357.789145,433.414034L356.209085,432.979803L354.774052,432.799269L353.495425,432.908849L352.202497,432.974681L351.296603,433.830361L349.774253,433.392209L348.871536,434.256329L347.753200,434.660417L346.770662,435.364762L346.098800,436.784150L344.980169,437.203076L344.083363,438.143826L342.951579,438.537241L341.690223,438.610240L340.737266,439.439831L339.447667,439.425956L338.959314,441.479436L337.979259,442.293547L336.562898,441.940782L335.595788,442.799423L333.994877,441.884581L333.107984,442.976130L332.329246,444.418538L331.180222,444.789853L330.036491,445.177167L328.626435,444.722328L327.453570,444.996886L326.582281,446.268864L325.720867,447.620745L324.399355,447.418430L322.931601,446.664319L321.676416,446.634167L320.129505,445.483060L319.336011,447.176117L318.512591,448.829785L317.163756,448.402880L316.158663,449.389289L314.821376,448.968564L313.567453,448.879501L312.453034,449.417045L311.434795,450.437070L310.365133,451.255144L309.212406,451.686264L308.037118,452.011529L306.774993,451.861401L305.522787,451.739273L304.347276,452.052313L303.294431,453.147726L302.111716,453.470647L300.977958,454.144504L299.711466,453.907134L298.477022,453.871566L297.322887,454.460198L296.186682,455.252453L295.108193,456.646373L293.859434,456.566600L292.563157,455.968088L291.156724,454.040578L289.916420,453.771828L288.732072,454.167619L287.518665,454.206360L286.399011,455.721621L285.121027,454.770953L283.954115,455.784141L282.748344,456.190197L281.528052,456.325833L280.309936,456.578209L279.054982,455.322584L277.844563,455.795851L276.630970,456.598502L275.403268,455.867784L274.183867,455.491341L272.992962,453.031568L271.843568,450.101569L270.681922,449.251419L269.569441,447.194048L268.400817,447.315862L267.197661,448.154093L266.021064,448.247289L264.797511,449.106253L263.562769,449.944075L262.411627,449.451391L261.076716,451.356473L259.783870,452.454216L258.549308,452.745791L257.244602,453.688102L256.133681,452.669078L255.013243,451.841999L254.002793,450.176269L253.035918,448.331392L251.791723,448.736774L250.301087,450.841675L248.675284,453.651610L247.218178,455.100729L245.913384,455.464465L244.907084,454.006466L244.104530,451.484134L242.839860,451.677411L241.650118,451.443978L240.478895,451.116658L238.872774,452.937851L237.677431,452.665422L236.462899,452.482700L235.292894,452.096493L234.393998,450.545488L233.212668,450.255185L232.191431,449.313469L231.389314,447.541795L229.958086,448.271888L228.589242,448.712681L227.245485,449.022296L225.664945,450.139918L224.580835,449.466569L223.933333,447.336226L223.464844,444.702764L222.747342,442.978174L221.868654,441.823469L220.394919,442.530714L219.233484,442.253120L218.097515,441.896479L217.185982,440.894640L216.239242,440.017677L214.481260,441.391244L213.272240,441.213263L212.315457,440.360211L210.979495,440.504565L210.037962,439.626674L208.699310,439.752632L207.113992,440.457854L206.230010,439.442153L205.199802,438.790108L204.125474,438.246331L203.065416,437.672649L201.814817,437.525267L200.489998,437.527497L199.077239,437.700484L197.782109,437.602037L196.561002,437.335910L195.075262,437.599227L193.984922,437.044746L192.717120,436.839560L192.051202,435.458556L191.673503,433.555852L190.669742,432.868382L189.802686,431.932881L188.394886,431.989004L187.055811,431.902377L186.221219,430.913969L185.539916,429.672558L184.491387,429.075843L183.466051,428.439811L182.069508,428.417143L180.688763,428.350637L179.112692,428.579984L177.435558,428.942832L175.749184,429.289988L174.135716,429.495727L173.405686,428.342264L172.512246,427.445380L172.168732,425.748208L172.220497,423.508561L171.191483,422.852211L170.659823,421.496303L170.031901,420.291989L168.543519,420.275802L167.923100,419.072151L167.268915,417.926666L166.412723,417.057036L166.061193,415.540118L165.848776,413.867704L165.326690,412.609479L164.698737,411.496412L163.835188,410.680935L162.937678,409.908106L161.594577,409.664842L160.265908,409.390552L158.641267,409.444740L158.057796,408.289608L156.986116,407.693234L156.352459,406.605624L155.753396,405.487834L154.034091,405.587758L153.856915,404.020777L153.359224,402.810567L152.655345,401.824471L152.064112,400.727440L151.323697,399.788049L150.661239,398.773837L150.524154,397.248309L149.719616,396.387754L148.559549,395.867451L147.373528,395.362733L145.859080,395.154061L145.013991,394.313272L144.081702,393.550462L143.116501,392.813810L142.549216,391.722372L141.462295,391.087964L140.216586,390.582536L139.019360,390.025192L137.228395,389.953505L135.943849,389.441796L134.883202,388.736749L134.938306,387.131884L135.185269,385.393530L134.768667,384.193624L134.956810,382.536301L133.665894,382.018549L133.547648,380.613165L133.713737,379.010971L133.996146,377.342428L133.826927,376.017119L132.279814,375.674240L130.464069,375.500609L127.778000,375.900686L127.214103,374.827476L126.345784,373.959084L126.046931,372.713220L126.199072,371.182810L124.456454,370.874431L123.759662,369.889107L124.154028,368.228349L123.047520,367.500346L122.372877,366.504508L121.930830,365.370303L120.772994,364.655262L120.605230,363.363597L120.676588,361.944900L120.639770,360.597902L120.240973,359.458003L119.156646,358.689243L118.705726,357.576794L117.308737,356.957892L116.558645,355.993834L116.573925,354.641556L115.434661,353.869296L115.276896,352.609928L114.226361,351.783045L112.896805,351.078288L112.296052,350.024030L111.497169,349.057972L111.754789,347.617081L112.425354,346.007925L112.857375,344.519536L113.267471,343.054781L112.684591,342.013809L112.154750,340.949295L111.085803,340.097554L108.634649,339.774134L106.741125,339.206611L106.475422,338.007893L106.981274,336.529087L108.017160,334.874337L109.067664,333.236402L108.678276,332.114820L107.443198,331.277223L106.758257,330.246126L106.793834,328.979142L107.101272,327.632891L108.124485,326.077385L108.370400,324.774270L107.125972,323.913961L105.416602,323.172332L104.818125,322.103031L105.240318,320.754557L105.092488,319.566187L105.328482,318.282115L104.397025,317.295068L104.382761,316.077939L104.937136,314.731718L105.111708,313.483244L104.574915,312.397034L103.078980,311.510491L101.709765,310.580298L100.382113,309.625975L99.759397,308.521455L99.438723,307.355722L100.356758,305.968904L101.581240,304.545575L102.397428,303.208760L102.198566,302.044763L101.636634,300.934856L101.898658,299.702028L101.785385,298.526081L101.965271,297.312957L100.825821,296.265453L99.431866,295.233631L98.951260,294.085589L98.664732,292.913027L98.796731,291.698542L98.688011,290.508566L99.334962,289.257203L100.090476,288.007868L99.894384,286.834297L99.543951,285.668535L98.339938,284.545119L97.243050,283.401207L97.877405,282.173108L98.132881,280.967025L98.421549,279.764045L98.680887,278.565993L99.085845,277.369808L99.811431,276.177154L99.807476,274.994382L100.436570,273.815850L100.348540,272.635998L99.331064,271.435885L99.184172,270.245246L98.608052,269.037680L98.002779,267.820599L97.668167,266.607486L97.653969,265.406410L98.533880,264.258688L98.884826,263.086126L99.530292,261.939155L99.697232,260.760882L98.788633,259.488896L99.183620,258.326745L98.902193,257.099685L98.244052,255.826271L98.265753,254.620492L97.848950,253.359561L98.234664,252.194452L98.058191,250.956132L96.343388,249.493528L95.518188,248.138066L94.270905,246.702621L94.996590,245.569854L97.775067,244.794266L100.038700,243.963121L102.440623,243.186081L102.929473,242.073502L101.990740,240.681476L101.699801,239.406073L101.711710,238.187529L103.649289,237.388333L103.919313,236.235118L102.809312,234.759513L102.379975,233.428155L101.511838,231.977839L102.872229,231.079553L104.442362,230.251595L105.907136,229.413534L107.218770,228.549835L107.764677,227.483077L109.325517,226.715399L109.307903,225.494198L108.797180,224.116855L109.037133,222.962272L108.213800,221.464741L107.593214,220.016156L107.849733,218.847389L108.528233,217.821719L107.773852,216.297469L108.079838,215.136055L108.088678,213.864307L107.943164,212.528653L109.197996,211.718734L109.559107,210.573583L110.288301,209.573492L109.609818,208.007708L109.568999,206.687464L110.610100,205.814624L110.851142,204.607817L111.605067,203.621318L112.627526,202.758667L113.050622,201.633140L113.311231,200.431501L113.603328,199.240666L113.825180,198.012662L114.123734,196.816993L114.565580,195.688334L115.417430,194.764246L115.272632,193.335846L115.361727,192.017171L115.870339,190.912097L116.353557,189.792363L117.821276,189.208390L119.322406,188.658520L122.403021,189.014868L124.907426,189.085866L124.755956,187.647221L124.380275,186.062794L123.397319,184.096457L122.626327,182.229859L124.011132,181.669952L125.767147,181.357062L126.276225,180.271091L126.320727,178.882306L126.586284,177.626980L126.862031,176.370870L127.531279,175.372998L129.733370,175.425760L131.250555,175.032582L131.530343,173.783305L131.505308,172.307718L131.443106,170.790483L131.576094,169.401172L132.392458,168.510085L132.865495,167.361044L132.901383,165.870890L134.400862,165.505492L135.535746,164.868674L137.072911,164.562540L137.967235,163.752067L138.615246,162.742063L140.739228,162.961248L141.699121,162.226934L143.203701,161.964373L144.186829,161.265816L144.244876,159.757030L144.680952,158.568712L144.636016,156.936268L144.432242,155.137313L144.512273,153.577241L144.862095,152.252998L146.190756,151.852351L147.366249,151.316129L147.963373,150.220728L148.782109,149.339453L149.483758,148.339226L149.738709,146.877915L150.320143,145.738229L151.850640,145.587711L152.855495,144.895961L154.654108,145.064861L155.795497,144.541435L156.109788,143.108194L156.620789,141.878804L157.753063,141.345771L158.756239,140.670691L160.331344,140.668649L161.812573,140.576522L162.347270,139.363422L163.321013,138.673660L164.314646,138.010309L165.156322,137.158618L166.182128,136.538126L167.165352,135.865910L168.228605,135.299984L169.196764,134.612276L169.848704,133.499797L170.961570,133.004890L171.483358,131.697690L171.945556,130.289259L172.759677,129.361473L172.813350,127.327827L173.580195,126.300478L175.409385,126.843447L177.164447,127.310481L179.680822,128.977359L180.919055,128.726197L181.835125,127.978206L182.670948,127.098059L183.141157,125.615499L184.786470,126.046679L185.595625,125.108178L185.919501,123.333011L186.939218,122.724239L187.103342,120.612195L187.548705,118.953536L189.220087,119.483254L190.391257,119.127420L191.209937,118.118665L192.672235,118.320160L193.479329,117.279258L193.934170,115.528900L195.403932,115.767997L196.304313,114.875219L197.077172,113.705937L198.596858,114.086992L200.023255,114.299907L201.307842,114.229235L202.451384,113.860778L203.293225,112.814394L204.056297,111.565640L205.381821,111.607953L206.722821,111.706828L208.102003,111.920432L209.447178,112.075597L210.282512,110.962251L211.386941,110.517404L212.365938,109.740980L213.422152,109.157810L214.658555,109.063081L215.339955,107.422849L216.546714,107.236386L217.672596,106.821909L218.868622,106.616608L220.703917,108.381034L221.867975,108.137386L223.003145,107.806356L224.125836,107.435196L225.016800,106.280460L226.101490,105.754689L227.451946,106.162462L228.708662,106.267263L230.023086,106.610802L231.409365,107.266860L232.386572,106.358240L233.436665,105.710159L234.742865,106.114419L235.850176,105.700320L237.117100,105.988816L238.351820,106.164508L238.901559,103.106956L239.702308,101.090659L240.482979,98.844323L241.447900,97.423736L243.003380,99.156900L244.620110,101.395461L245.991744,102.377870L247.042492,101.470102L248.088938,100.469842L249.029214,98.671911L250.211554,98.438693L251.468658,98.758635L252.696746,98.901445L253.901014,98.879011L255.055455,98.430016L256.229512,98.125344L257.415421,97.915568L258.659722,98.323720L259.950003,99.350918L261.179459,99.801679L262.359888,99.674958L263.512882,99.119568L264.624585,97.748083L265.826667,97.781954L267.019390,97.636638L268.212224,97.461877L269.444414,98.482204L270.635025,98.398728L271.829877,98.510779L273.018755,98.250664L274.210633,97.916238L275.407109,97.514846L276.607499,97.284089Z" />
<line x1="50" y1="550" x2="100" y2="550" fill="none" stroke="black" stroke-width="1.0" stroke-linejoin="round" stroke-miterlimit="10" />
<text x="125" y="553" style="text-anchor:start;fill:black">GC-content</text>
</g>
<g style="fill:pink;stroke:black">
<a href="" title="CP002670:1 [106000-127599];"><path  d="M355.553637,59.567617L359.301182,61.006283L363.023047,62.510134L366.718101,64.078711L370.385215,65.711537L362.090849,83.910534L362.090849,83.910534L358.742614,82.419693L355.368869,80.987514L351.970644,79.614433L348.548973,78.300868Z" />
</a><a href="" title="CP002670:2 [183500-201099];"><path  d="M408.532076,87.732318L411.780010,90.091296L414.986279,92.506599L418.149908,94.977491L405.702090,110.631622L405.702090,110.631622L402.813559,108.375590L399.886096,106.170313L396.920591,104.016464Z" />
</a><a href="" title="CP002670:3 [254000-283099];"><path  d="M448.915736,124.489812L451.516013,127.547983L454.062521,130.651070L456.554485,133.798127L458.991146,136.988195L461.371761,140.220303L445.165521,151.940277L445.165521,151.940277L442.991916,148.989222L440.767139,146.076551L438.491867,143.203151L436.166794,140.369898L433.792628,137.577654Z" />
</a><a href="" title="CP002670:4 [302000-320099];"><path  d="M470.918564,154.517983L472.991425,157.955583L475.003977,161.428837L476.955606,164.936685L459.394249,174.507408L459.394249,174.507408L457.612327,171.304590L455.774780,168.133359L453.882167,164.994680Z" />
</a><a href="" title="CP002670:5 [452000-473099];"><path  d="M504.767190,264.654053L504.912757,268.665619L504.988290,272.679115L504.993767,276.693318L504.929185,280.707004L484.935343,280.210743L484.935343,280.210743L484.994309,276.546073L484.989308,272.880931L484.920343,269.216435L484.787434,265.553701Z" />
</a><a href="" title="CP002670:6 [488000-510099];"><path  d="M504.326858,292.583860L503.985050,296.583487L503.573491,300.576540L503.092306,304.561802L502.541641,308.538059L482.755412,305.621706L482.755412,305.621706L483.258192,301.991210L483.697535,298.352493L484.073306,294.706662L484.385392,291.054828Z" />
</a><a href="" title="CP002670:7 [539500-557099];"><path  d="M497.828630,331.985980L496.800149,335.866196L495.704106,339.727872L494.540835,343.569832L475.450327,337.607238L475.450327,337.607238L476.512445,334.099362L477.513180,330.573483L478.452227,327.030677Z" />
</a><a href="" title="CP002670:8 [646000-671599];"><path  d="M463.534766,406.737019L461.206923,410.007340L458.822360,413.236537L456.381802,416.423625L453.885994,419.567635L438.330691,406.996536L438.330691,406.996536L440.609472,404.125919L442.837807,401.215968L445.015016,398.267571L447.140438,395.281626Z" />
</a><a href="" title="CP002670:9 [724000-783099];"><path  d="M422.749934,451.266721L419.651153,453.818467L416.508309,456.315743L413.322361,458.757788L410.094278,461.143859L406.825044,463.473228L403.515655,465.745187L400.167119,467.959043L396.780456,470.114122L393.356697,472.209767L389.896886,474.245340L386.402076,476.220221L376.714939,458.722811L376.714939,458.722811L379.905852,456.919659L383.064810,455.061092L386.190851,453.147677L389.283022,451.179996L392.340381,449.158649L395.361997,447.084252L398.346949,444.957436L401.294329,442.778850L404.203239,440.549156L407.072792,438.269035L409.902114,435.939180Z" />
</a><a href="" title="CP002670:10 [984000-1006099];"><path  d="M233.810129,501.281671L229.867242,500.528345L225.938104,499.706320L222.023910,498.815848L218.125854,497.857200L223.071432,478.478313L223.071432,478.478313L226.630527,479.353601L230.204356,480.166640L233.791830,480.917184L237.391857,481.605004Z" />
</a><a href="" title="CP002670:11 [1036000-1058099];"><path  d="M194.926532,490.611316L191.175792,489.181003L187.450585,487.685448L183.752046,486.125107L180.081302,484.500455L188.335102,466.283024L188.335102,466.283024L191.686651,467.766402L195.063577,469.191061L198.464853,470.556568Z" />
</a><a href="" title="CP002670:12 [1094000-1118099];"><path  d="M154.511369,470.914496L151.110541,468.781841L147.747451,466.590158L144.423122,464.340115L141.138569,462.032397L152.778694,445.768710L152.778694,445.768710L155.777633,447.875757L158.812890,449.930144L161.883537,451.931246L164.988642,453.878453Z" />
</a><a href="" title="CP002670:13 [1186000-1205599];"><path  d="M100.405230,424.721963L97.818813,421.652061L95.286367,418.537487L92.808664,415.379190L108.651389,403.172304L108.651389,403.172304L110.913640,406.055967L113.225873,408.899708L115.587384,411.702662Z" />
</a><a href="" title="CP002670:14 [1433000-1455599];"><path  d="M46.792622,246.340053L47.327564,242.361650L47.931857,238.393189L48.605318,234.435879L49.347740,230.490925L68.969676,234.361279L68.969676,234.361279L68.291812,237.963194L67.676913,241.576390L67.125167,245.199767L66.636742,248.832222Z" />
</a><a href="" title="CP002670:15 [1491000-1510599];"><path  d="M56.728115,202.492178L58.026795,198.693852L59.391567,194.918769L60.822015,191.168080L79.446188,198.457812L79.446188,198.457812L78.140126,201.882354L76.894030,205.329169L75.708279,208.797206Z" />
</a></g>
<text x="275" y="280" style="text-anchor:middle" font-size="25" font-weight="bold">CP002670</text>
<path  style="fill:pink;stroke:black" d="M350,550L375,550L375,565L350,565Z" />
<text x="405" y="565" style="text-anchor:start;fill:black">Selected loci;</text>
</svg>