<svg xmlns="http://www.w3.org/2000/svg" viewbox="0 0 550 650">
<circle cx="275" cy="275" r="240" fill="none" stroke="black" stroke-width="1.0" />
<line x1="275" y1="15" x2="275" y2="55" fill="none" stroke="grey" stroke-width="1.0" stroke-linejoin="round" stroke-miterlimit="10" />
<line x1="495" y1="275" x2="535" y2="275" fill="none" stroke="grey" stroke-width="1.0" stroke-linejoin="round" stroke-miterlimit="10" />
<line x1="275" y1="495" x2="275" y2="535" fill="none" stroke="grey" stroke-width="1.0" stroke-linejoin="round" stroke-miterlimit="10" />
<line x1="15" y1="275" x2="55" y2="275" fill="none" stroke="grey" stroke-width="1.0" stroke-linejoin="round" stroke-miterlimit="10" />
<text x="275" y="10" style="text-anchor:middle" font-size="15">Pyrococcus furiosus DSM 3638, complete genome.</text><text x="285" y="25" style="text-anchor:start">1,908,256</text><text x="525" y="265" style="text-anchor:start">0.47 Mbp</text><text x="285" y="530" style="text-anchor:start">0.95 Mbp</text><text x="-200" y="25" style="text-anchor:end" transform="rotate(-90)">1.43 Mbp</text><circle cx="352.603022" cy="47.892600" r="2.500000" fill="grey" stroke="black" stroke-width="1.0" />
<circle cx="421.868504" cy="85.185241" r="2.500000" fill="grey" stroke="black" stroke-width="1.0" />
<circle cx="475.354678" cy="142.871264" r="2.500000" fill="grey" stroke="black" stroke-width="1.0" />
<circle cx="507.315080" cy="214.752978" r="2.500000" fill="grey" stroke="black" stroke-width="1.0" />
<circle cx="514.315936" cy="293.107532" r="2.500000" fill="grey" stroke="black" stroke-width="1.0" />
<circle cx="495.605087" cy="369.516643" r="2.500000" fill="grey" stroke="black" stroke-width="1.0" />
<circle cx="453.192794" cy="435.771043" r="2.500000" fill="grey" stroke="black" stroke-width="1.0" />
<circle cx="391.635764" cy="484.752470" r="2.500000" fill="grey" stroke="black" stroke-width="1.0" />
<circle cx="317.547582" cy="511.198440" r="2.500000" fill="grey" stroke="black" stroke-width="1.0" />
<circle cx="238.888159" cy="512.267644" r="3.000000" fill="black" stroke="black" stroke-width="1.0" />
<circle cx="164.108531" cy="487.845207" r="2.500000" fill="grey" stroke="black" stroke-width="1.0" />
<circle cx="101.242899" cy="440.555035" r="2.500000" fill="grey" stroke="black" stroke-width="1.0" />
<circle cx="57.045440" cy="375.477906" r="2.500000" fill="grey" stroke="black" stroke-width="1.0" />
<circle cx="36.264656" cy="299.605598" r="2.500000" fill="grey" stroke="black" stroke-width="1.0" />
<circle cx="41.133200" cy="221.089706" r="2.500000" fill="grey" stroke="black" stroke-width="1.0" />
<circle cx="71.128003" cy="148.365846" r="2.500000" fill="grey" stroke="black" stroke-width="1.0" />
<circle cx="123.026475" cy="89.247348" r="2.500000" fill="grey" stroke="black" stroke-width="1.0" />
<circle cx="191.252729" cy="50.085806" r="2.500000" fill="grey" stroke="black" stroke-width="1.0" />
<circle cx="268.476650" cy="35.088671" r="2.500000" fill="grey" stroke="black" stroke-width="1.0" />

<circle cx="275" cy="275" r="185" fill="white" stroke="grey" stroke-width="0.5" />
<circle cx="275" cy="275" r="170" fill="none" stroke="black" stroke-width="0.5" />
<circle cx="275" cy="275" r="170" fill="aliceblue" stroke="black" stroke-width="0.5" />
<circle cx="275" cy="275" r="159" fill="white" stroke="none" stroke-width="0.5" />
<circle cx="275" cy="275" r="140" fill="none" stroke="black" stroke-width="0.5" />
<circle cx="275" cy="275" r="140" fill="aliceblue" stroke="black" stroke-width="0.5" />
<circle cx="275" cy="275" r="133" fill="white" stroke="none" stroke-width="0.5" />
<circle cx="275" cy="275" r="110" fill="none" stroke="black" stroke-width="0.5" />
<circle cx="275" cy="275" r="110" fill="white" stroke="black" stroke-width="0.5" />
<circle cx="275" cy="275" r="109" fill="aliceblue" stroke="none" stroke-width="0.5" />
<circle cx="275" cy="275" r="80" fill="none" stroke="black" stroke-width="0.5" />

<g style="fill:none;stroke-linejoin:round;stroke-miterlimit:10">
<path style="stroke:blue;stroke-width:1.0" d="M277.101530,115.426195L278.038729,121.192596L279.125963,118.390259L280.175133,117.875814L281.105558,120.548220L282.086035,121.382829L283.025896,122.790466L284.374830,117.002267L285.749141,112.001731L286.356907,118.489486L287.101883,122.172248L287.925648,124.380446L288.848968,125.207157L289.838409,125.268079L290.873174,124.905038L292.435327,119.906085L293.459294,119.998914L294.200569,122.342400L295.183383,122.638627L296.316811,121.836948L297.596991,120.116100L299.436014,114.898563L300.721092,113.611616L300.689411,120.368960L301.191027,123.526339L301.873017,125.454639L302.882088,125.501525L304.949670,120.082812L305.880871,120.724591L306.834579,121.228646L307.986832,120.785595L308.894842,121.489908L310.038551,121.129974L311.413931,119.817626L310.477825,128.161510L311.324555,128.878883L312.368592,128.798147L313.701436,127.635172L314.428276,128.793384L315.247613,129.571498L316.258492,129.649193L317.357050,129.435061L318.997926,127.425551L320.343005,126.492832L320.783743,128.510368L321.132840,130.736896L321.955818,131.429152L322.866731,131.841712L324.250182,130.867198L325.570783,130.127460L325.917318,132.164678L326.863533,132.484618L328.648574,130.546819L329.650806,130.765632L329.980829,132.729379L330.884294,133.176307L331.519038,134.289259L333.391084,132.351828L333.797391,134.014588L334.685393,134.496982L335.824765,134.395090L336.507184,135.348540L336.841253,137.059769L337.796039,137.365317L338.896839,137.360039L340.803914,135.661937L346.370654,126.416413L356.851684,107.432727L363.151751,97.508567L359.044028,108.540000L350.300914,128.266611L347.772664,135.463056L348.948371,135.457692L349.030753,137.498449L349.210194,139.313495L348.573459,142.556923L349.300167,143.299297L350.123681,143.865016L351.329412,143.771479L352.194542,144.272537L355.032764,141.482124L356.917255,140.356928L355.210529,145.096475L355.122058,147.131138L356.454870,146.886914L357.065491,147.784591L358.127735,147.982011L358.304852,149.522567L359.403468,149.666811L361.785742,147.943278L362.646050,148.480736L365.847686,145.686630L370.724196,140.635230L372.307818,140.298296L373.910284,139.962392L371.112883,145.578083L365.972953,154.169877L366.521398,155.092921L367.769167,155.103518L368.418272,155.893515L370.535909,154.831666L374.020639,152.118403L377.018580,150.090667L374.415141,154.901298L372.833385,158.384143L375.571918,156.710686L379.730457,153.450698L376.120514,159.191397L376.087374,160.756661L381.539211,156.181194L380.062497,159.369223L377.445577,163.730479L378.198946,164.383019L382.945795,160.811846L381.638018,163.673023L379.974069,166.844987L380.589257,167.634963L383.336052,166.283383L387.262133,163.817546L387.180816,165.351959L385.457019,168.450064L384.370843,170.879484L385.050152,171.605707L387.669665,170.532939L386.948277,172.564491L387.182302,173.699528L388.413603,173.935520L390.361770,173.554493L388.983307,176.090074L389.276501,177.147384L391.551839,176.521904L397.079925,173.221313L395.628228,175.770775L395.524315,177.179855L395.004714,178.905457L395.679387,179.662665L394.557160,181.821316L396.374728,181.683003L397.980746,181.730344L399.931480,181.540383L397.690919,184.470468L398.590138,185.057889L401.427463,184.260476L400.085909,186.465525L398.451997,188.836579L400.022263,188.959391L403.487234,187.816047L405.391705,187.772233L404.773646,189.417325L403.241489,191.634311L403.287985,192.800798L407.394225,191.394404L411.513106,190.045651L405.333016,195.077449L404.036309,197.037198L404.358475,198.000786L405.033549,198.754147L407.510029,198.470185L413.086646,196.457538L410.605883,199.046088L413.172125,198.799695L412.909407,200.124692L409.111066,203.326361L408.453252,204.803809L408.817789,205.733234L409.288892,206.606855L409.612072,207.554933L409.848367,208.543838L410.530088,209.313565L410.912059,210.230192L411.944748,210.841237L416.973133,209.622084L421.290547,208.798071L424.705751,208.436797L417.387161,212.810602L418.082857,213.625528L417.026051,215.183098L415.625218,216.860405L418.716665,216.687478L417.251059,218.370230L416.458663,219.762050L422.774401,218.414486L419.062107,220.921060L416.883293,222.802345L417.202240,223.745634L421.381046,223.326078L420.530004,224.701800L419.575677,226.095028L419.317902,227.239002L421.642758,227.538738L420.672517,228.910299L419.330605,230.378311L419.882146,231.250967L420.965526,231.970627L422.338250,232.618511L421.999268,233.762177L429.005055,232.888812L427.088092,234.487493L422.498585,236.748455L421.503670,238.034381L421.955709,238.947984L426.421226,238.907950L428.274372,239.531283L430.903962,240.002794L429.720368,241.337139L426.786941,243.020762L426.118987,244.199397L426.175483,245.223394L425.932200,246.302479L427.872273,246.975411L428.604349,247.885480L428.870604,248.882135L431.624060,249.474723L426.296779,251.364629L424.001747,252.727299L424.034871,253.724738L424.853897,254.613826L425.663218,255.513355L424.796820,256.627529L427.506507,257.313783L428.029629,258.273645L425.863944,259.514997L424.719256,260.628160L428.908249,261.248284L432.416172,261.979155L436.894465,262.681571L433.052101,264.020266L430.315527,265.237648L429.936770,266.285376L429.336678,267.338329L434.918253,268.116615L433.803828,269.212004L428.580657,270.414860L427.155350,271.460106L426.653837,272.470857L426.016267,273.476153L426.548856,274.468818L427.756890,275.470532L432.659700,276.523911L440.626346,277.691795L431.484150,278.574101L430.372705,279.572589L429.044950,280.549030L426.627163,281.461989L430.043552,282.630746L427.017778,283.485669L429.016454,284.615024L433.635951,285.952590L434.109404,287.038545L436.309581,288.273910L437.829923,289.479156L428.082565,289.629072L425.713296,290.404853L426.917890,291.539545L438.216247,293.857974L439.275188,295.077411L429.106257,294.865417L424.042689,295.211343L425.196030,296.375929L432.168542,298.425225L427.655155,298.781157L424.383807,299.280190L425.111740,300.414247L424.052908,301.245813L424.017542,302.252521L422.883671,303.052810L423.297125,304.144237L422.962382,305.091781L423.194486,306.156627L422.236405,306.969065L422.211775,307.980317L424.873151,309.614591L424.840973,310.648135L422.899090,311.216858L421.795802,311.973015L424.523233,313.708833L425.175592,314.934759L421.757655,315.062469L421.496278,316.029606L421.022911,316.935988L420.984253,317.967507L419.946567,318.701315L419.816999,319.704683L419.971201,320.800078L418.533491,321.387597L419.246811,322.669502L418.188195,323.367867L417.856416,324.306236L417.490056,325.232310L422.670866,328.154578L427.031633,330.857839L431.060985,333.507539L426.482223,332.931543L419.651987,331.414108L416.375102,331.211500L416.104925,332.183029L417.270011,333.748866L413.942170,333.448597L414.336650,334.697501L415.465185,336.278920L419.578354,339.209889L422.474236,341.662139L421.982466,342.609034L423.295742,344.399918L424.699183,346.262146L420.481106,345.433035L415.343674,344.090294L412.267567,343.702632L410.386948,343.879978L409.618443,344.608717L409.102706,345.465100L408.379940,346.210082L407.748452,347.000276L408.117038,348.338763L411.364294,351.302631L409.831090,351.614951L409.463198,352.581703L408.864615,353.415830L406.871504,353.419228L404.565095,353.207188L405.010163,354.648604L405.785523,356.312935L408.340711,359.124091L408.751849,360.620004L407.344622,360.953058L405.011280,360.660172L403.411918,360.824425L401.669623,360.872075L401.355562,361.879123L400.814152,362.732641L398.716886,362.486645L399.111230,363.997270L397.154553,363.818032L397.271569,365.139922L397.879914,366.843491L398.591157,368.649934L395.699795,367.716541L396.091810,369.292089L393.610206,368.620877L394.154086,370.330363L393.988363,371.489729L394.034585,372.833546L392.927728,373.232102L392.770975,374.422477L391.385185,374.572590L389.182538,373.997822L388.685459,374.885815L387.990265,375.601167L389.565488,378.364180L393.768743,383.583758L396.063451,387.154170L394.858046,387.513194L393.716852,387.921786L395.326658,390.971841L391.760175,389.027076L387.222947,386.049264L387.184804,387.483293L382.662318,384.379993L382.531423,385.695744L384.990512,389.729290L385.262664,391.539807L385.256178,393.080902L383.378691,392.613379L378.731426,389.068429L375.973699,387.515631L375.711411,388.721081L376.164668,390.759890L374.486889,390.364533L374.081600,391.436198L373.898656,392.784003L375.178403,395.916168L374.068239,396.191894L375.540797,399.659653L374.585282,400.152611L370.097772,396.141818L369.669119,397.244696L370.233705,399.660947L372.090044,403.840908L378.764529,414.601411L372.960021,408.621165L367.679042,403.179428L364.559451,400.598605L363.174853,400.395572L362.981171,401.887850L360.860827,400.588054L359.836848,400.861310L360.815740,404.140371L361.800024,407.506328L362.408963,410.372436L361.408650,410.777036L360.538147,411.383756L358.473026,410.058881L356.313214,408.522487L355.034489,408.392237L352.150255,405.525806L351.063537,405.643709L351.122893,407.748437L350.355853,408.439486L351.310621,412.233029L350.362556,412.654579L348.236289,410.887638L347.691736,412.030301L346.955533,412.827333L344.675501,410.629705L342.956970,409.455535L342.373982,410.511384L341.687954,411.377079L341.090550,412.441553L339.923656,412.323055L339.337857,413.435967L338.118092,413.185095L337.084651,413.325720L336.128339,413.631636L335.376833,414.406929L334.080400,413.914835L333.362456,414.775371L332.029844,414.154076L331.590636,415.716156L331.236632,417.540326L329.302386,415.337744L328.418640,415.801908L327.549958,416.311132L326.836486,417.253007L326.120813,418.213817L325.160034,418.499930L324.638553,420.067977L322.895244,418.041511L322.089656,418.773348L322.330519,422.791986L321.946692,424.986824L322.234672,429.467798L319.960751,425.570273L317.635759,421.291107L316.694740,421.650525L316.682783,425.365786L315.324224,424.276697L314.420966,424.845513L313.139507,423.954268L311.503795,421.576187L310.563332,421.919008L309.760668,422.854398L309.156777,424.704010L308.225662,425.176363L306.715286,422.962608L306.011310,424.474849L304.868454,423.888925L303.719357,423.215455L303.101894,425.322748L303.138463,431.206253L303.489305,439.349739L302.749957,441.596271L301.156106,438.670593L299.550920,435.397485L298.017953,432.301520L296.110673,426.211486L294.900961,424.740838L294.186943,427.027708L293.887350,433.023803L293.434064,438.353037L292.524017,440.034855L291.729342,443.085484L290.284818,439.560731L288.684172,433.667327L287.145578,427.556101L286.028583,426.096725L285.243809,429.337081L284.106513,427.380989L283.032686,426.117601L282.109826,427.723634L281.103727,427.761472L280.142144,429.132717L279.054440,426.451464L278.059373,426.591902L277.138219,432.285949L276.085477,429.880457L275.063867,425.949450L274.070207,425.885620L273.050935,427.890467L271.965107,431.962909L271.011519,428.854281L269.968468,429.746510L268.996484,428.509609L268.108021,425.790912L267.141020,425.248235L266.139759,425.397154L265.127725,425.668680L264.008278,427.367464L263.060172,426.593115L262.124073,425.786127L261.001234,427.112387L260.032344,426.687544L259.095858,425.996247L258.159184,425.376374L257.255529,424.535452L255.921634,427.204058L255.261396,424.487725L254.283600,424.309919L253.287074,424.264693L251.832713,427.219002L250.229786,430.844615L249.514465,428.804782L247.347177,435.330296L246.496128,434.005828L245.496136,433.564884L244.945726,430.810599L244.426571,428.074671L243.782936,426.109337L242.766962,426.001505L241.242620,428.194167L239.971087,429.127721L237.086554,436.879469L236.499312,434.644466L236.894241,428.562690L237.690329,421.228170L236.853327,420.502015L235.401582,422.084088L234.716816,420.796036L233.848524,420.206737L231.521848,424.652819L230.558712,424.291312L229.469135,424.347789L229.895140,419.531387L228.884851,419.417551L226.652245,423.037939L225.617843,422.897811L224.901901,421.816468L223.550095,422.590881L223.700635,419.099040L221.449129,422.345216L222.584581,416.315267L221.667754,415.933665L220.652488,415.808292L217.533184,421.020233L216.888557,419.851700L215.005694,421.741181L213.912648,421.650268L212.737600,421.741277L210.527386,424.209962L210.832881,420.857433L212.372759,414.851286L212.358341,412.449685L211.717525,411.467126L210.840418,411.004646L208.947782,412.659982L206.162035,416.076241L207.677586,410.695587L206.580804,410.655086L205.020525,411.505489L204.571633,410.180827L203.688582,409.703501L202.597404,409.613371L199.329631,413.494917L199.835655,410.441341L200.966914,406.356621L197.936135,409.653287L190.452500,420.498440L190.528518,418.188618L192.066423,413.489601L192.024150,411.512565L193.356357,407.349245L191.971983,407.630760L193.132119,403.882611L193.125322,402.037122L191.379316,402.888808L191.610680,400.719616L190.933176,399.946924L189.941516,399.640723L189.027259,399.215606L188.142189,398.744991L187.372542,398.109417L185.992700,398.320885L184.340506,398.882680L182.600174,399.531673L182.118461,398.473367L180.637551,398.737386L180.339837,397.447031L180.933240,395.037442L180.989243,393.352308L179.001945,394.233482L178.904694,392.758271L176.874277,393.642780L174.576107,394.806213L176.507954,390.942021L175.597853,390.463681L174.128413,390.621839L174.533323,388.638331L174.019170,387.715311L173.379450,386.937354L172.776929,386.121800L167.419229,390.411255L170.522133,385.613028L170.645981,384.034503L169.930391,383.344776L166.847862,385.063768L167.177201,383.292804L166.089444,382.954072L165.919876,381.707285L165.461183,380.753372L165.236047,379.582978L161.788684,381.454135L160.236765,381.498200L163.218588,377.369412L163.240235,376.004464L161.034371,376.642603L155.392073,380.268867L154.053459,380.041718L158.743963,374.632605L159.889198,372.343700L157.016478,373.447810L157.600308,371.656409L157.617076,370.352612L155.907396,370.446569L152.614056,371.769324L152.167132,370.814898L152.737622,369.081465L154.328486,366.598451L153.445770,366.013065L148.216035,368.632206L148.077033,367.449409L146.042598,367.637684L149.246511,364.086555L150.961042,361.650857L150.581996,360.702051L149.605790,360.162409L147.214597,360.562216L146.601857,359.753234L145.568828,359.216687L140.650022,361.163253L144.299337,357.613201L146.528490,355.025066L145.627250,354.408746L143.405083,354.584422L142.928406,353.689571L143.021890,352.460822L142.852041,351.394995L141.366066,351.084359L136.446533,352.681609L137.801814,350.738616L138.090810,349.406986L140.515447,346.946129L140.190416,345.982171L140.994373,344.435620L139.614304,344.023621L139.321208,343.051081L135.139851,343.999352L136.689845,342.105830L135.047579,341.767664L136.824925,339.806204L136.584190,338.810507L135.439183,338.227353L135.297800,337.185887L133.567389,336.843478L135.555309,334.883500L134.530054,334.231235L133.239900,333.678767L125.510732,335.728124L121.699315,336.103458L122.140080,334.764267L123.742101,332.992517L124.364586,331.618914L126.608623,329.662940L126.827380,328.476859L131.237976,325.817531L132.271939,324.397139L132.298160,323.338152L130.301894,322.954497L131.078415,321.647568L131.097778,320.596322L128.521106,320.353505L124.852812,320.407940L126.682635,318.790625L127.354066,317.537377L130.071794,315.722723L128.826608,315.035915L127.659739,314.314314L126.300497,313.629877L125.525904,312.782127L126.520791,311.492120L126.199759,310.533607L124.514564,309.890164L123.718958,309.026434L123.184505,308.097860L118.448014,308.052076L120.441463,306.569493L118.915877,305.811788L124.279452,303.723103L126.454220,302.296169L126.396170,301.296405L126.388454,300.289640L125.329485,299.456806L125.008168,298.496276L122.893743,297.802305L122.353275,296.856516L124.933834,295.479472L125.537836,294.395351L124.624273,293.507808L124.264959,292.545166L124.354221,291.530049L118.876306,291.091371L118.255439,290.112885L117.281071,289.159205L107.623368,288.915762L106.916528,287.860598L116.777453,286.058583L123.550372,284.583445L123.437659,283.588905L123.139867,282.602890L121.240729,281.683207L123.350046,280.591255L121.273809,279.654332L116.248012,278.760309L122.926935,277.600246L123.740250,276.590060L123.387074,275.595306L123.906174,274.598271L123.605672,273.600461L123.915695,272.608237L124.318590,271.621972L122.703578,270.582187L122.798421,269.581601L122.452123,268.563181L123.576800,267.611408L123.585090,266.611995L124.007961,265.637669L122.163267,264.512520L117.843980,263.175864L105.263782,261.104694L107.289136,260.158060L111.340064,259.429722L111.623125,258.370337L109.527641,257.055321L120.962101,257.268275L125.193262,256.754973L124.969826,255.724298L125.601172,254.804481L120.499514,253.077890L116.813999,251.491273L119.065377,250.775267L124.539539,250.609899L124.401476,249.568625L125.587535,248.755793L124.181289,247.483763L123.200156,246.270586L127.123417,246.003136L126.350305,244.833672L124.351326,243.393693L125.364594,242.576078L126.218504,241.733859L126.004615,240.654276L127.494664,239.973208L125.735931,238.515566L127.003740,237.790953L127.206125,236.805322L127.185102,235.759693L128.030133,234.946151L127.713562,233.816028L127.818184,232.798327L129.876530,232.352301L128.758000,230.975341L130.368769,230.419419L131.064649,229.593881L130.418194,228.340895L130.721432,227.387442L128.796411,225.682196L120.211481,221.648451L121.632808,221.005811L126.895779,221.759931L133.115884,222.938313L132.455569,221.628351L125.526271,217.908767L122.320851,215.529431L122.976137,214.628684L120.716485,212.552013L128.616992,214.624917L134.435986,215.938857L135.452409,215.281719L135.276513,214.114733L135.632428,213.174625L135.625316,212.069795L134.219536,210.315637L125.085398,204.919488L122.704923,202.580831L122.156139,201.081871L122.484006,199.997191L125.553432,200.280506L126.048219,199.297735L129.956996,200.078391L129.511545,198.630418L131.990983,198.726494L140.856813,202.316396L142.993289,202.345459L141.118520,200.160702L142.187518,199.606111L144.275453,199.648817L142.944721,197.718786L144.544304,197.497108L145.766909,197.067506L146.628046,196.429408L145.217773,194.386662L138.949739,189.246606L136.311784,186.302407L130.276754,181.094171L138.917881,185.422179L143.912873,187.467496L147.496585,188.641090L150.164233,189.243316L150.466801,188.238576L147.318802,184.790682L147.892322,183.935139L147.571717,182.429535L149.910421,182.863957L153.158677,184.012791L152.703600,182.412266L155.153140,183.018937L156.203751,182.575824L155.769934,180.971388L155.961236,179.844157L155.313719,178.027902L157.380313,178.412376L158.427672,177.980118L159.300126,177.409436L157.510497,174.568348L156.645137,172.472061L160.431302,174.423687L161.967984,174.447030L162.387047,173.483515L162.467931,172.205127L164.011349,172.266096L163.938696,170.832507L165.446421,170.882100L163.154962,167.293704L160.902336,163.667023L162.159930,163.434153L167.651910,167.456978L167.848524,166.230732L160.016849,156.733018L155.284521,150.232063L153.146719,146.318410L154.781191,146.358164L155.178867,145.079117L157.623340,146.035806L167.514706,155.329958L172.948333,159.863336L173.947759,159.467064L175.931638,160.218638L176.795755,159.693327L175.720403,156.863453L175.434237,154.926339L173.767923,151.267504L169.572787,144.394404L175.467610,150.022005L177.745430,151.218156L179.775325,152.144917L183.329513,155.108084L183.909715,154.226859L184.083596,152.791649L184.026618,151.018491L185.286300,151.031848L186.311854,150.734143L186.202887,148.832541L188.779331,150.763028L189.317060,149.785442L188.927176,147.421080L189.935518,147.107129L191.160168,147.130218L193.261506,148.526562L194.038978,147.901311L194.037603,146.032697L195.048855,145.761328L196.045477,145.473581L196.316212,143.984147L197.733982,144.404026L198.342514,143.463672L199.245531,143.022972L199.706095,141.801351L199.209516,138.837502L198.751623,135.866654L201.312544,138.413102L203.263661,139.908267L204.360107,139.831601L206.048149,140.918007L205.040357,136.726884L205.327892,135.014352L208.314176,138.772793L207.395388,134.561394L210.463760,138.645140L211.546218,138.616724L211.393807,135.901452L213.233805,137.538917L213.953997,136.712997L214.681925,135.889533L214.247292,132.320089L215.199001,131.948982L216.046235,131.324113L215.938572,128.318678L218.631247,132.300989L220.423807,134.131070L221.590482,134.400836L222.477356,133.944316L222.974105,132.414043L223.710070,131.503449L225.136716,132.541806L225.237980,129.771046L225.204669,126.491701L227.029940,128.747031L228.538232,130.130968L229.799292,130.804509L230.590943,129.991163L231.022646,127.949138L231.169698,124.845808L231.880591,123.581198L231.925614,119.868180L234.225917,124.310258L235.619765,125.565310L236.653173,125.498284L238.205305,127.520828L237.429660,120.075233L237.771447,116.947489L238.653384,116.007261L240.329176,118.604197L241.583891,119.422458L243.021684,121.190100L244.987278,125.718199L245.315296,122.147535L246.058004,120.543790L246.593379,117.685142L246.109266,108.750868L248.081582,113.815031L249.182500,113.884000L251.050005,118.968237L253.130182,125.983093L254.006569,125.089694L254.827217,123.702188L255.814015,123.493909L256.952337,124.539715L257.735745,122.589683L258.901447,123.995786L259.866790,123.598898L260.996176,124.917724L261.901028,123.862138L262.869870,123.445351L263.901142,123.818100L264.604707,119.373177L265.800226,122.140354L266.923533,124.257363L267.865046,123.114659L268.708597,119.187624L269.474949,111.458212L270.667310,115.664920L271.580007,109.007261L272.669565,108.730486L273.768045,109.190983L274.848857,96.039474L276.004269,100.063602L276.982758,114.147940Z" />
<line x1="50" y1="575" x2="100" y2="575" fill="none" stroke="blue" stroke-width="1.0" stroke-linejoin="round" stroke-miterlimit="10" />
<text x="125" y="578" style="text-anchor:start;fill:black">n1_4mer:GRV/n1_4mer:RV</text>
<path style="stroke:green;stroke-width:1.0" d="M276.150499,187.640076L276.850520,181.334652L277.517286,179.451038L278.270499,175.703147L278.948835,175.106662L279.266928,182.497845L279.874701,182.552256L280.960573,174.544097L282.123011,166.987791L282.261056,174.934759L282.553833,179.606969L283.232493,179.068686L283.741175,180.453933L284.612823,177.998603L285.018880,180.262595L285.802501,178.907610L286.446569,178.884155L287.027629,179.372156L287.397128,181.415911L287.613305,184.372357L288.607486,181.731807L289.670025,178.883990L291.674700,170.373693L291.689192,174.543545L291.274216,180.879400L291.875731,181.088426L291.234628,187.953002L293.640852,178.578624L293.868543,180.736072L294.795631,179.380676L295.558942,178.886343L296.484425,177.696813L297.063475,178.109366L297.397078,179.552140L295.515707,190.087931L296.581369,188.185620L297.348481,187.563221L299.667250,181.073639L299.204717,185.244879L299.595079,186.129501L300.626189,184.720713L300.602441,187.014227L302.329882,183.332218L303.572624,181.419094L303.321809,184.381561L303.080206,187.189720L303.210188,188.745286L304.149344,187.821074L303.765279,190.817160L305.651935,187.189936L305.446299,189.590809L306.499165,188.443700L308.804225,183.979356L310.442078,181.461292L310.345148,183.539462L311.345232,182.762724L309.382966,189.399594L311.029327,186.981122L311.673750,187.063041L313.425725,184.543525L315.222086,182.021050L313.168291,188.339269L312.976428,190.291541L312.110575,193.662033L312.121006,195.037768L316.346984,187.448846L318.457749,184.527125L319.916118,183.047447L321.561829,181.248876L325.461854,175.053812L323.453717,180.581783L322.701306,183.535787L322.977769,184.464826L322.322932,187.104411L322.667133,187.845037L321.975335,190.437470L321.516617,192.547007L319.695278,196.980467L320.493629,196.785568L323.264242,193.265440L324.618995,192.221117L325.502500,191.991704L324.494350,194.842314L323.160131,198.140003L324.649017,196.911499L323.825164,199.312727L323.829367,200.389427L323.242646,202.334805L326.262493,198.878818L328.840199,196.176464L330.852705,194.375225L330.673509,195.753852L334.663610,191.252238L336.135497,190.371079L338.414970,188.422492L335.955669,192.919436L329.716629,202.325466L329.743610,203.277469L330.430703,203.360396L332.358309,201.869269L335.552462,198.835042L340.305966,193.957285L342.511318,192.340608L341.716853,194.402544L341.609993,195.601936L338.718091,200.056921L337.457289,202.512587L336.593884,204.459401L336.540942,205.449843L342.427416,199.800972L343.679530,199.411968L338.644734,205.873354L335.996461,209.619057L342.506355,203.589844L339.627473,207.530805L339.694603,208.345009L338.493746,210.438429L340.526761,209.243056L343.953049,206.710106L345.010470,206.570199L342.157485,210.218007L340.029420,213.092305L338.156255,215.663450L344.798422,210.283059L345.241041,210.727669L343.209000,213.407362L343.279977,214.154739L348.867022,210.043667L347.185228,212.360692L348.055272,212.444274L351.765664,210.138419L352.462202,210.419348L347.716621,215.183039L350.168881,213.991308L349.793213,215.108856L348.046922,217.292557L347.657445,218.373320L352.833436,215.159021L353.484389,215.476764L358.379998,212.624506L355.080824,215.911034L353.109894,218.155911L353.966989,218.323809L351.974352,220.518373L348.702249,223.559455L349.042740,224.043616L355.885499,220.115812L358.935795,218.849710L356.899328,220.989315L351.474713,225.286236L354.307489,224.184545L356.965906,223.239371L361.462058,221.193241L360.223751,222.739263L358.736271,224.407152L358.551721,225.266754L358.723441,225.908322L356.385692,227.996524L358.696288,227.394292L356.725154,229.225104L356.687358,229.950381L356.771911,230.603485L359.348659,229.921130L355.611856,232.598296L355.176021,233.499287L357.385100,233.041383L355.907860,234.462507L357.122760,234.528146L354.116690,236.655058L356.143566,236.330486L357.245018,236.468120L363.344578,234.317765L369.808394,232.095666L371.237955,232.210017L366.376360,235.090216L362.909092,237.291960L364.247159,237.411906L362.138478,238.973775L363.967630,238.901702L365.620533,238.924206L363.097665,240.598894L364.420918,240.759099L363.888695,241.632403L358.963058,244.110706L361.523110,243.814224L368.883647,241.858167L366.024940,243.539885L363.056063,245.213666L364.763818,245.293294L367.647562,245.014406L364.942290,246.542928L360.593274,248.537723L362.303510,248.637579L364.556932,248.599392L364.728844,249.189716L364.033679,250.023310L370.120435,248.990240L369.564468,249.810364L362.703423,252.255433L363.763830,252.603224L364.342769,253.081920L369.697905,252.428253L372.310642,252.481665L370.295697,253.608093L367.414036,254.893269L366.258335,255.773234L369.884838,255.660867L364.975270,257.277826L363.352474,258.201086L363.401331,258.794243L368.244011,258.540397L365.770770,259.592647L372.900899,259.044932L366.995867,260.628534L363.429545,261.781599L361.763746,262.614165L366.039865,262.614906L368.714343,262.879071L367.700968,263.630293L371.166748,263.847518L371.314723,264.472665L363.133604,265.953775L360.041594,266.836693L367.443184,266.740193L370.855134,267.071241L376.835104,267.251443L376.341644,267.959889L373.895911,268.783901L367.758148,269.782695L368.130829,270.376746L372.078359,270.821442L371.536224,271.481500L368.216150,272.217038L368.354121,272.828117L367.328054,273.460237L366.865650,274.073019L365.908354,274.681364L367.019984,275.283446L372.147482,275.939010L375.903220,276.639901L367.341149,277.109074L367.706414,277.728332L363.843272,278.200326L367.512483,278.942662L367.901838,279.572330L361.020665,279.801694L367.724247,280.788640L371.710849,281.677139L374.840136,282.554110L373.902823,283.138557L373.135929,283.726439L364.745522,283.576377L364.303719,284.127998L366.512123,284.963072L375.205298,286.577701L378.090489,287.599530L370.348924,287.291169L363.946778,287.061872L366.668679,288.046305L374.805952,289.875603L368.537125,289.571542L365.768435,289.753104L364.801383,290.203571L361.998604,290.319051L364.242204,291.320730L366.663603,292.388137L371.017168,293.869868L366.577707,293.624574L367.695626,294.488465L363.390945,294.192101L360.503586,294.155637L367.766859,296.425364L370.232362,297.656394L369.143336,298.053393L363.305220,297.241169L364.562757,298.186161L364.408129,298.775449L358.297333,297.738826L364.450533,300.052651L367.114289,301.454093L368.568640,302.540033L362.066129,301.250393L363.678267,302.374782L363.612120,302.994815L358.647140,302.033341L365.157748,304.794592L361.454539,304.203676L360.623804,304.552663L358.847271,304.558849L365.357027,307.524287L368.849618,309.481225L371.374383,311.130926L371.062373,311.737258L364.412366,309.870720L359.310520,308.522315L356.433654,308.001137L361.606346,310.763156L358.142013,309.975227L358.815984,310.910185L360.488835,312.295103L361.553811,313.440129L368.207544,317.132202L366.984609,317.311105L370.179748,319.542524L372.741319,321.528351L368.540618,320.286634L362.522739,318.086885L356.737654,315.909824L356.574949,316.502381L360.087030,318.996936L358.768420,319.016637L359.464419,320.094624L356.437740,319.170306L353.220939,318.094611L358.928823,321.962367L358.046378,322.189370L356.995949,322.309490L358.964801,324.185288L349.695732,319.418858L350.662288,320.670748L350.896053,321.496478L354.105612,324.182122L357.258922,326.896807L357.629444,327.894471L356.251907,327.770183L355.079494,327.761755L354.022050,327.814584L351.120649,326.603833L349.956875,326.538590L346.378217,324.773411L346.840500,325.802154L346.837359,326.512896L344.793741,325.746718L348.647320,329.293600L348.902304,330.236412L349.034875,331.099169L349.249344,332.035244L350.821360,334.040776L345.947565,331.000014L346.435669,332.152788L344.246033,331.152810L348.187040,335.151826L349.310387,336.899485L348.746168,337.256652L344.879185,334.784683L346.123751,336.665265L348.650811,339.710750L346.341612,338.519184L349.749914,342.441458L348.052706,341.788089L345.602603,340.406829L341.834137,337.738569L341.351937,338.113022L343.651246,341.166646L343.498453,341.895054L343.843641,343.123640L343.235985,343.417539L342.115231,343.186006L345.152730,347.217111L346.174762,349.241221L347.086685,351.190508L344.396254,349.321207L345.189084,351.169727L334.789751,340.747895L336.685587,343.736640L335.809356,343.664570L336.746634,345.654939L338.282846,348.382494L335.390109,345.967715L335.007544,346.466378L334.256113,346.522622L335.719667,349.279421L336.041594,350.684937L336.039456,351.710606L332.930418,348.795589L332.850545,349.701470L333.150332,351.118801L333.455898,352.572433L341.324118,364.230303L335.748666,357.863472L332.998315,355.214370L332.207405,355.227940L330.270824,353.601963L331.573451,356.591134L329.178173,354.246049L326.002331,350.665473L325.911572,351.614608L326.404010,353.471828L326.783933,355.199066L326.359225,355.702607L327.706173,359.035791L328.458993,361.496347L325.919654,358.613948L324.236733,357.062096L321.773559,354.133328L321.582092,355.007550L322.055124,357.058025L322.273733,358.711912L321.593303,358.790958L321.400900,359.754243L319.024967,356.686946L320.077241,359.974555L321.052385,363.211110L316.145909,355.094258L314.713629,353.574976L315.018861,355.491178L314.755244,356.299600L314.264714,356.654687L315.333444,360.311149L316.220585,363.694461L315.586742,363.856977L314.392763,362.767786L313.211643,361.659358L311.124679,358.409983L309.993544,357.279781L310.138689,359.155527L308.939177,357.812340L309.245258,360.152975L308.764159,360.580412L306.084532,355.334097L305.868532,356.363887L306.048932,358.493117L305.892879,359.778219L305.661225,360.896736L304.642479,359.802449L307.226143,369.180452L304.579212,363.339778L304.409720,364.793263L306.913330,374.651019L305.196120,371.471552L306.019261,376.439825L303.523685,370.523741L302.222072,368.403919L299.407605,360.847475L298.893768,361.193983L299.497790,365.688644L299.264380,367.232860L298.143305,365.386436L296.587851,361.683178L295.279773,358.779667L295.166758,360.779244L296.007342,367.072019L295.383923,367.133104L293.849188,362.937883L293.221070,362.825753L292.755624,363.508624L292.718743,366.443257L292.836282,370.409902L293.193579,375.998792L293.845907,383.718690L293.134228,383.868448L291.983524,381.273598L290.605108,376.952194L289.691993,375.403053L287.694988,365.931635L286.087966,358.429200L285.985822,362.046146L286.213461,368.819081L286.592522,377.726875L286.005743,378.648110L285.634326,381.846747L284.885466,381.429754L283.650735,375.304858L282.215745,365.634299L281.520996,364.340679L281.608469,374.565683L280.729785,370.877567L279.763886,364.622201L279.152661,364.201833L278.662979,366.675479L278.233547,371.923663L277.493820,368.155347L276.865994,367.459989L276.313164,371.595454L275.637374,365.943188L275.038208,365.304470L274.473230,360.483614L273.848468,365.329592L273.175390,369.367781L272.536756,370.018778L271.859149,371.597953L271.315520,369.211984L270.981166,362.928819L270.459223,361.810712L269.868330,362.106943L269.023226,366.216332L268.367510,366.939706L267.996642,363.917596L267.340843,364.694095L266.527673,367.061392L266.159028,364.597555L265.317221,366.929723L264.875941,365.400569L264.336303,364.864652L262.999557,370.737558L263.369296,363.083608L262.340151,366.243703L261.693434,366.475491L261.591843,363.097338L260.050470,369.056663L259.299447,369.752582L257.371327,377.210552L256.863978,376.169876L256.291646,375.545746L256.153926,372.703840L255.848608,370.886953L255.852814,367.683878L255.214093,367.690665L254.136229,369.681757L253.488908,369.649116L251.359174,375.939501L250.504769,376.570341L251.250147,370.709713L252.174887,364.458695L252.575946,360.531574L250.837332,364.749646L249.851426,366.019679L249.781292,363.986512L247.532163,369.544938L246.712247,370.026853L246.608774,368.127306L248.405853,360.216737L246.913616,362.957360L245.488701,365.361836L244.831336,365.354080L244.161005,365.376129L242.582401,367.994187L242.280913,366.907357L241.392335,367.471487L241.314551,365.818089L242.376940,361.208396L241.805564,361.003050L238.677304,367.294108L238.330105,366.405347L238.296989,364.772573L237.655137,364.652505L236.564867,365.584693L235.151786,367.221335L235.108921,365.675885L237.188597,359.435675L238.117173,355.929098L236.999685,356.946760L237.582406,354.317327L233.296665,361.914271L231.946047,363.234594L235.294461,355.030797L234.382848,355.531832L231.070098,360.691880L231.781301,357.954353L229.635962,360.690272L230.187159,358.317561L228.556078,360.003511L230.156699,355.804760L233.154947,349.245518L230.057525,353.527750L225.128834,360.823672L223.105432,362.967101L224.088298,360.016727L224.020483,358.871928L225.392482,355.416764L225.348305,354.314697L226.675899,351.075456L224.617885,353.173118L222.137277,355.847827L224.698158,350.836189L225.067160,349.214231L224.263971,349.346203L223.126756,349.947784L222.336021,350.029562L221.224403,350.550319L220.668701,350.276791L221.350453,348.310024L217.941620,351.900313L217.526681,351.402957L215.634954,352.845326L215.051661,352.545779L217.502370,348.372022L217.434241,347.470860L214.655930,349.949785L214.543262,349.085627L213.418110,349.458016L208.939449,353.810572L210.869648,350.492417L209.744003,350.800149L212.286447,346.884031L212.461978,345.737051L213.193948,343.988227L211.912069,344.492795L213.424993,341.935238L206.883710,348.074271L212.289735,341.392744L211.410717,341.441388L209.864695,342.165665L208.260933,342.918706L209.346400,340.939788L211.806193,337.638821L211.252982,337.360318L207.280300,340.379442L208.281513,338.569303L204.764244,341.043634L205.558921,339.440061L207.116534,337.167675L209.107276,334.551479L204.075458,338.255519L200.861934,340.250109L202.381766,338.068724L207.047273,333.236177L206.776760,332.693132L201.604791,336.242430L203.933973,333.509412L207.079865,330.172951L203.023949,332.685086L198.995803,335.095747L197.367059,335.557019L200.917899,332.006520L206.386033,327.082989L203.034355,328.883883L200.018326,330.375295L195.943493,332.583962L194.544668,332.795795L200.653702,327.668563L203.042055,325.268220L204.052227,323.870497L201.302325,325.052323L195.068745,328.520161L195.154772,327.704354L193.643168,327.936265L190.086528,329.457924L194.276653,326.023567L199.558317,321.992719L201.072484,320.376568L195.342872,323.174098L193.316260,323.667986L193.123489,323.055104L189.001830,324.715711L191.380187,322.608864L190.396188,322.434109L194.336681,319.529220L200.731692,315.363112L198.153242,316.111240L195.813079,316.694807L195.266490,316.314278L186.980274,319.875052L189.039989,318.114120L184.428758,319.682900L185.103647,318.616244L192.353304,314.428591L193.024646,313.447683L190.072884,314.151903L191.682916,312.746402L190.531885,312.599441L191.694785,311.426424L193.078147,310.180739L186.164907,312.458634L184.574561,312.429807L180.808492,313.264108L176.153421,314.398831L177.887175,312.968598L180.612631,311.188266L177.889185,311.500771L179.900594,310.031774L177.317679,310.254447L186.764088,306.189956L189.236394,304.682158L189.961065,303.805690L182.387681,305.692711L188.998644,302.874582L187.548534,302.709545L187.522961,302.085065L179.770920,303.799449L183.676212,301.963301L184.245161,301.146828L188.523150,299.298740L187.551213,298.951639L181.696468,299.895872L180.274212,299.608324L178.348340,299.430356L177.413501,298.984087L179.920996,297.704936L180.516475,296.906078L180.231789,296.315455L181.076425,295.476627L179.078139,295.251526L179.642402,294.477352L180.479318,293.658856L186.598825,291.846781L189.921030,290.633766L185.725518,290.797695L185.475456,290.234640L185.745396,289.584586L183.062298,289.402075L179.599562,289.301515L179.326748,288.698846L185.749952,287.179920L187.498062,286.354919L188.214324,285.681329L186.393080,285.313615L185.004457,284.875024L181.273361,284.660226L180.707044,284.091471L177.578552,283.746003L171.673352,283.590620L173.475574,282.767955L181.325836,281.547129L185.928386,280.636283L184.580968,280.123968L182.057498,279.653174L175.009466,279.346128L179.559806,278.518830L178.472306,277.922547L174.521354,277.380006L183.041700,276.572364L180.157369,275.996997L181.962090,275.365312L182.963678,274.755293L180.760589,274.128820L183.461615,273.550888L183.984145,272.959575L184.555076,272.376374L187.035112,271.868437L184.269181,271.171576L184.750159,270.596320L180.499853,269.764930L183.111428,269.302407L184.057487,268.759630L176.867794,267.616710L164.663981,265.967439L164.083367,265.184190L168.855107,264.901588L168.859337,264.196247L169.743407,263.585430L181.753651,264.266157L184.947163,264.032426L184.602892,263.385885L183.097439,262.576744L178.325448,261.282825L176.756687,260.399623L178.775044,260.051274L185.558797,260.501308L187.820197,260.278061L187.259788,259.588486L183.579970,258.320802L184.951316,257.957519L191.275530,258.582613L187.656378,257.274862L177.559762,254.556899L178.457699,254.080619L176.934834,253.073553L175.717588,252.113879L180.006749,252.442790L175.487751,250.676343L179.072808,250.882097L181.912309,250.943155L181.531677,250.187036L184.949517,250.458449L185.499849,249.974127L183.408798,248.737911L190.063941,250.039685L186.011688,248.210979L189.981363,248.794179L186.809380,247.179220L182.790363,245.242320L184.271125,245.059075L179.507909,242.788341L173.022037,239.850867L175.693126,240.038193L182.273913,241.667099L190.275827,243.912070L193.734360,244.572426L188.399908,241.923244L184.189475,239.628087L181.657053,237.931895L179.944086,236.525050L184.928452,237.850352L192.082606,240.160386L189.990381,238.620810L187.706681,236.961463L190.209889,237.385939L186.569973,235.072234L186.576794,234.372213L180.723885,230.928787L179.700952,229.683513L178.065904,228.120871L178.409478,227.499667L180.897766,227.951270L180.873312,227.161677L183.255565,227.609636L185.045871,227.781413L188.318873,228.768835L191.560576,229.789518L193.949787,230.391162L191.412566,228.274905L194.459654,229.279524L198.565219,230.942084L195.593954,228.530100L197.973301,229.238932L197.894196,228.502253L198.745281,228.327980L197.024615,226.566125L192.211309,222.817732L192.297009,222.107574L186.654436,217.675668L192.695829,220.822211L196.930674,222.869759L198.132127,222.936879L198.359613,222.351423L195.689064,219.744616L191.061786,215.695974L192.212590,215.687895L191.784468,214.547954L194.068977,215.389405L199.049476,218.282574L196.419990,215.508919L204.617268,220.982077L203.866714,219.657888L202.229168,217.610614L202.481921,217.031330L201.472090,215.426291L202.790820,215.702842L204.345882,216.196557L206.747091,217.430016L202.126169,212.706442L198.619462,208.833398L205.461873,213.954631L204.904591,212.643317L206.244763,213.019653L204.066640,210.204375L206.590694,211.678615L204.467545,208.845644L209.388932,212.644332L207.267603,209.773990L205.518138,207.201745L205.934379,206.714289L210.019447,209.901449L209.492993,208.503956L197.416524,195.200799L195.640673,192.291401L195.751927,191.311092L197.553925,192.127732L198.915395,192.502206L201.120456,193.826998L207.075264,199.375180L211.336417,203.173515L212.681441,203.751247L215.754811,206.358070L214.690457,204.187453L214.333364,202.810475L215.669730,203.449272L215.009380,201.675522L211.373411,196.177955L215.022481,199.689139L218.266531,202.791840L215.129853,197.757921L221.092609,204.496824L221.860953,204.544960L221.635987,203.268962L221.823927,202.529904L223.210805,203.436674L221.823860,200.491974L223.837933,202.306331L225.626832,203.857280L223.968169,200.423565L223.164904,198.168949L225.408588,200.440232L224.348098,197.747368L225.573541,198.522763L225.858110,197.853374L225.450544,196.071264L227.117432,197.599239L227.632394,197.292528L227.249153,195.490381L231.087010,200.777724L228.245298,194.773761L229.614709,195.931188L229.487602,194.486313L229.271046,192.844982L231.210875,195.096300L230.959870,193.367317L231.882705,193.802797L231.431921,191.633120L231.438286,190.291014L232.535485,191.070172L232.376944,189.361481L234.411464,192.084883L232.519661,186.753364L236.739132,194.160841L236.834230,192.969070L236.789870,191.439369L238.047586,192.762153L236.232515,187.180339L235.751424,184.481731L234.166357,179.100726L235.706232,181.004689L238.127780,185.138920L238.555179,184.487889L241.038816,189.026352L243.186971,192.886040L243.150739,191.157651L244.300910,192.554014L243.793298,189.472639L244.262981,189.005416L245.131479,189.666358L243.879468,184.175665L243.093181,179.841934L245.747136,185.812742L246.134393,184.996265L246.954618,185.531984L248.029047,186.931782L247.312441,182.418726L246.757599,178.246962L246.347655,174.383972L246.574561,172.626165L249.544305,180.922787L250.256379,181.106314L252.265094,186.364050L253.084950,187.160886L251.560570,178.345343L251.474912,175.125067L252.164762,175.110725L252.899433,175.307075L253.705491,175.857775L254.926110,178.448233L256.190022,181.440097L256.439195,179.426713L257.382013,180.977198L257.423434,177.661602L256.359005,167.732071L257.359137,169.368163L258.407503,171.453304L259.803670,175.997468L262.130592,187.310228L262.432655,185.258856L262.720444,182.902148L263.559080,184.654410L264.039772,183.626457L264.591043,183.108841L265.121566,182.340417L265.890525,183.863714L266.339371,182.182002L266.980208,182.466464L267.618540,182.775545L268.463033,185.957415L268.496106,177.630900L269.486183,183.384692L270.021895,182.086522L270.659746,182.606845L271.234555,181.745287L271.876954,182.557696L272.556897,185.154675L273.140914,184.767407L273.768698,187.150280L274.331109,184.973855L274.925613,186.922627L275.509210,186.299340L276.085112,186.969849Z" />
<line x1="50" y1="625" x2="100" y2="625" fill="none" stroke="green" stroke-width="1.0" stroke-linejoin="round" stroke-miterlimit="10" />
<text x="125" y="628" style="text-anchor:start;fill:black">n0_4mer:PS</text>
<path style="stroke:red;stroke-width:1.0" d="M276.667252,148.401865L277.489891,148.972411L278.338091,148.295619L279.209716,147.187212L280.075393,146.608210L280.631149,152.923095L281.364059,154.306872L282.568700,147.441703L283.679904,143.379313L284.466813,144.537040L285.035260,148.270445L286.103710,145.611064L287.330906,141.626781L288.191931,141.882418L288.725891,145.209513L288.687033,153.248590L289.543380,152.880510L290.207419,154.090661L291.009398,154.147418L291.422859,157.000397L292.329732,156.218853L293.578724,153.274728L295.945157,143.578478L296.400496,146.185015L296.118667,152.861914L296.978802,152.690404L296.519553,159.616236L298.585214,153.003496L299.056240,154.819250L300.543380,151.617183L301.352555,151.801034L302.236179,151.647059L303.223074,151.059799L304.400633,149.705645L304.054141,154.748372L304.819802,155.045256L306.400455,152.148044L306.496400,155.070044L307.425313,154.761538L308.373796,154.408970L308.439383,157.195372L309.668272,155.858442L310.529760,155.828819L311.300205,156.109762L311.688749,157.610706L312.127777,158.896844L312.598875,160.038690L313.243675,160.622041L314.242588,160.154858L316.241328,156.853996L316.399552,158.864302L316.966175,159.681488L318.107843,158.928602L320.015319,156.195601L319.797689,159.079683L320.720501,158.970078L320.423442,161.913039L321.752379,160.784935L323.177231,159.479794L324.113186,159.384597L325.765855,157.647660L326.390562,158.318231L325.622656,162.083451L326.257807,162.654506L325.628556,165.941201L328.704102,161.282973L335.244884,149.578688L346.010082,129.627722L348.428639,127.153200L346.277969,133.824821L337.062206,154.063915L334.500089,160.912374L334.548463,162.630656L334.595675,164.309544L334.613844,166.001576L335.166126,166.692099L335.933435,166.992487L335.466793,169.449901L335.817198,170.440685L337.600067,168.987999L339.414884,167.537279L341.051601,166.434468L339.438233,170.640214L338.807438,173.168061L339.128022,174.138764L339.363128,175.226250L339.793661,175.996214L342.142110,173.867600L343.221420,173.696010L345.225820,172.187462L345.837156,172.744795L347.023527,172.481098L350.570788,168.923877L351.240507,169.461449L353.453951,167.890472L350.904329,172.790146L348.225925,177.741450L347.963723,179.406324L351.813149,175.725352L356.679732,170.859926L360.185942,167.850208L361.022823,168.248297L357.668333,173.782689L357.829978,174.937044L357.703044,176.419272L356.980438,178.577361L356.838948,180.018394L358.103683,179.825233L358.403503,180.741990L364.652506,175.014242L361.866957,179.395060L357.217952,185.700370L355.850363,188.338038L359.648551,185.456338L359.566782,186.714749L360.192503,187.225978L359.462313,189.117216L361.631270,188.064410L365.928126,184.946374L363.650616,188.350904L362.253299,190.833022L360.193351,193.896339L360.947863,194.250284L365.571422,191.022380L369.448634,188.577108L368.613275,190.467334L368.648168,191.548782L371.739890,189.929988L369.448669,193.041412L370.484912,193.238235L376.480683,189.255969L372.704343,193.543367L369.086057,197.604462L369.918004,197.962492L370.464657,198.556065L369.415635,200.411163L370.072115,200.904107L375.777399,197.518926L375.292296,198.937459L378.679089,197.439021L377.544414,199.335901L375.483347,201.873742L374.928534,203.279288L374.716786,204.421520L372.754570,206.772119L374.649098,206.421262L380.919550,203.129163L386.333669,200.521433L384.170499,203.004618L383.813974,204.263517L381.056335,207.045498L380.593372,208.318868L384.334480,206.959357L385.661893,207.140136L381.668704,210.551543L382.968169,210.733131L386.042851,209.889442L382.949743,212.654728L385.150282,212.347495L383.414404,214.276247L381.745080,216.131341L380.930123,217.487240L382.990620,217.286040L383.280319,218.044730L381.951379,219.639825L384.405059,219.280156L382.736409,221.020523L382.482932,222.030110L383.992850,222.175185L384.835123,222.657331L384.733143,223.589903L392.308078,220.980218L396.641891,219.952507L395.559885,221.395833L392.137145,223.838866L388.949630,226.122038L390.368886,226.410257L390.839536,227.107710L392.202972,227.445313L390.979762,228.828764L389.996695,230.095138L392.692293,229.933474L391.087114,231.422489L389.548402,232.858618L395.137640,231.698442L398.333620,231.462042L395.359122,233.401381L395.831426,234.126890L395.506292,235.119287L396.106932,235.803466L392.790904,237.731834L390.829431,239.189821L393.201698,239.307472L394.451706,239.786672L393.878162,240.804986L391.394082,242.347874L397.969945,241.375062L396.932990,242.520066L390.976709,244.923181L391.281544,245.659990L389.675701,246.867100L396.565899,246.024125L396.954318,246.778954L397.137515,247.582661L396.907267,248.476360L397.773471,249.133466L398.428388,249.843209L393.862141,251.588061L392.919480,252.579358L392.242865,253.507004L395.659506,253.700964L396.176273,254.431643L397.343012,255.061561L396.010858,256.095853L394.834383,257.087221L394.582184,257.929215L399.487820,258.064636L400.826234,258.725748L399.167019,259.771005L400.562051,260.438538L397.926599,261.563949L395.736976,262.607294L393.162854,263.657320L398.108600,264.000236L400.642985,264.607308L404.450531,265.150206L405.233533,265.952796L401.961904,267.019814L394.180647,268.296527L396.751798,268.955927L400.763352,269.586750L401.220319,270.399590L396.111821,271.384215L395.079102,272.206360L399.463537,272.924311L396.517624,273.773813L396.058958,274.575686L394.918752,275.369382L399.574477,276.204115L403.614316,277.090268L396.690977,277.779425L397.213470,278.596719L392.807465,279.243678L394.181276,280.079222L395.886858,280.949663L398.188472,281.876410L396.803836,282.604037L401.262124,283.717427L402.477947,284.645244L400.964561,285.365424L400.748282,286.181784L394.382071,286.408543L394.357121,287.199845L395.889031,288.161383L405.284019,290.052990L407.222224,291.159957L401.510434,291.308115L396.190298,291.434343L394.070870,291.946190L400.724223,293.738598L395.160682,293.719053L395.237679,294.542906L395.681642,295.431667L392.051107,295.610812L395.141209,296.971580L396.081748,297.968616L396.168579,298.812773L395.905186,299.589037L396.253214,300.492455L394.242632,300.890849L392.199792,301.256638L394.472709,302.593327L396.629796,303.936514L394.955440,304.374143L389.731669,303.897119L392.773824,305.489491L392.301378,306.192834L390.206578,306.449534L391.235561,307.554406L394.326008,309.268965L393.906942,309.997849L389.312902,309.465281L389.558598,310.363982L390.050278,311.347300L386.004203,310.874682L390.153356,313.054935L387.343716,312.948840L389.447892,314.501164L386.108839,314.169426L392.810424,317.406221L393.157175,318.412048L398.760295,321.397953L398.656431,322.290089L395.920956,322.159033L390.765245,321.028883L386.606884,320.228894L386.986851,321.243762L388.421645,322.712916L386.721573,322.866076L388.421507,324.480927L388.602196,325.452811L394.593006,329.059107L394.897001,330.150255L397.335593,332.251004L396.536880,332.855886L393.133676,332.193085L388.685792,330.966789L385.842392,330.476790L385.415569,331.175444L389.271819,334.087853L387.283814,334.000227L386.214394,334.376141L382.446527,333.276986L378.401942,331.967693L384.799880,336.438515L383.038259,336.390485L382.166481,336.832220L382.597943,338.029218L376.071592,335.103631L378.142759,337.258320L375.893141,336.810536L378.209127,339.167936L379.522630,340.942886L380.325765,342.423310L379.123277,342.624312L379.871570,344.096441L377.953521,343.809242L375.802398,343.336124L375.071575,343.806870L373.354578,343.584549L372.819601,344.173327L373.902935,345.920989L371.481821,345.151502L374.401220,348.279654L378.924449,352.675707L375.921732,351.472410L374.616753,351.521428L373.985134,352.078004L373.267241,352.563859L374.027904,354.228218L373.267134,354.686525L370.558234,353.538526L371.541779,355.417914L370.407236,355.542967L369.098932,355.505730L371.382054,358.564559L376.139143,363.862426L371.813152,361.197833L377.682278,367.642816L374.828838,366.268041L379.473643,371.785236L380.651601,374.177314L382.345356,377.105381L382.415355,378.527819L379.577773,377.129837L374.105345,373.068852L373.508893,373.770994L366.772878,368.237048L365.556336,368.221132L372.547928,376.750636L370.927968,376.389052L370.977677,377.789077L367.791680,375.698236L362.148434,370.832915L357.321885,366.731797L356.843502,367.415858L354.579607,366.060710L356.957223,370.037214L353.510919,367.262468L353.873711,368.935163L352.699300,368.783703L354.455073,372.198769L353.746679,372.637317L353.192829,373.267902L350.816365,371.579888L351.161129,373.345628L352.254643,376.126351L351.950132,377.114744L356.860744,385.132773L352.096056,380.161929L349.055472,377.422165L347.944423,377.297610L350.198086,381.941001L351.687169,385.599460L346.721344,379.906327L346.425477,380.964617L346.889360,383.183168L345.928344,383.277093L346.120084,385.145444L345.378972,385.589023L343.930545,384.904258L343.968680,386.590931L343.149570,386.906781L342.551019,387.586231L339.092377,383.433979L338.196784,383.544285L337.183791,383.440454L336.285766,383.524299L339.552336,391.087544L337.044879,388.328982L333.805972,384.112638L335.295269,388.661873L334.425806,388.827249L329.136558,380.381739L328.907976,381.659049L328.806580,383.222846L327.647124,382.663538L328.393733,386.037319L328.548362,388.262639L327.742661,388.486547L327.225575,389.337995L325.361117,387.205474L324.639852,387.577146L323.525899,387.043746L321.764641,384.956979L321.300108,385.886607L320.242035,385.391563L320.117715,387.188019L320.657850,390.726788L317.669660,385.274417L317.283569,386.451868L316.527919,386.671968L316.620177,389.216757L315.726711,389.094971L314.683518,388.528274L315.957031,394.696349L314.784784,393.819222L314.707248,396.233502L314.053632,396.946979L313.243796,397.182529L314.258904,403.385276L311.221563,396.303373L310.531422,396.914822L308.857492,394.085021L309.239738,398.515865L308.008921,397.196094L306.670477,395.384640L305.235645,393.085648L303.480000,389.357695L302.136691,387.106923L302.355318,391.355763L301.830371,392.593478L300.983799,392.443933L300.245971,392.781050L299.038814,390.867345L298.406994,391.679695L298.203162,394.747361L299.151468,404.191115L298.555257,405.763303L298.301748,409.423643L297.152406,407.991492L296.079447,406.903642L294.613506,403.140088L293.727012,402.977817L291.833258,395.573227L291.419730,398.547000L290.502017,397.830206L290.079159,401.162010L289.616049,404.519784L288.720111,404.211049L288.274080,408.369270L287.609528,410.757786L286.469721,407.990866L285.254835,403.807182L283.823831,395.890595L283.389363,401.397307L282.399410,398.815723L281.305521,393.624733L280.599137,395.273060L279.839285,396.115554L279.078748,397.258036L278.207205,394.803468L277.486431,398.202664L276.693176,399.548897L275.852792,396.679945L275.050985,395.502761L274.253443,396.150223L273.430305,398.131555L272.580911,400.113842L271.754313,400.201245L270.922149,400.415715L270.071734,401.015523L269.565001,393.913374L268.789321,393.735963L267.903445,395.459668L266.984198,397.335561L266.194986,397.055283L265.509070,395.500872L264.743957,395.105455L263.828094,396.395371L262.850530,398.127042L261.862879,399.725746L261.328862,397.073436L260.506527,397.138776L259.186322,401.158915L258.669200,398.679165L258.090186,396.874601L257.362426,396.248841L257.011282,393.193586L255.595368,397.086444L254.941393,396.053364L253.245410,401.132505L251.777683,404.543231L251.462403,401.499915L250.999071,399.428198L250.573674,397.297431L250.066631,395.692477L249.749898,393.288674L248.831667,393.754361L247.471279,396.126771L244.879588,403.605462L244.173242,402.824243L244.810798,396.659696L244.738076,393.605863L244.440252,391.563372L243.026966,393.760413L242.226174,393.617586L241.659079,392.646480L239.936156,395.690573L239.200783,395.260062L238.496625,394.736321L238.965127,390.468047L237.775950,391.573541L237.198462,390.746053L236.057005,391.632890L235.336902,391.235866L233.679705,393.532752L232.653215,393.951398L231.807400,393.844433L231.097197,393.364719L231.301908,390.474835L230.781165,389.566031L227.216008,396.416674L229.527947,388.346078L228.621943,388.436946L227.605701,388.777836L226.292923,389.793817L224.270459,392.404156L223.621241,391.788381L225.703944,385.081759L225.216562,384.235899L223.441186,386.185335L222.215090,386.892765L220.438242,388.712616L217.416943,393.010480L219.463976,386.938845L218.686239,386.653578L216.146489,389.802623L217.015380,386.296191L215.985928,386.474464L216.754329,383.292334L214.570596,385.600298L216.449533,380.504197L217.526936,376.974238L215.269289,379.367157L209.370100,387.942997L207.664293,389.141562L208.535519,385.988092L208.780651,383.944629L209.951337,380.447786L210.324315,378.314346L210.288818,376.873237L208.850731,377.637505L207.069625,378.892175L207.449745,376.840285L207.435670,375.419581L207.784914,373.493841L204.858720,376.341907L205.274661,374.336621L203.926123,374.852988L201.613258,376.678380L200.917866,376.230360L200.343714,375.617854L198.235947,377.047363L196.355447,378.126525L195.978118,377.218234L197.735897,373.595777L196.729524,373.536506L196.972134,371.913778L196.893143,370.714649L196.965981,369.350111L192.594059,373.310705L194.202013,370.113081L193.806686,369.312641L194.481905,367.292096L194.618048,365.920404L194.361716,365.008858L192.723454,365.629492L192.851112,364.300117L187.848023,368.495510L191.563773,363.335778L190.791333,362.985592L190.273759,362.367278L186.828445,364.730022L188.639277,361.737174L188.550268,360.690506L188.632420,359.488811L188.106535,358.890600L188.223198,357.680845L185.714743,358.956137L184.988852,358.528712L185.350202,357.101281L185.313220,356.055692L183.762091,356.372416L181.351872,357.421229L180.826158,356.789706L183.843808,353.121783L183.589528,352.301465L182.130506,352.492163L181.197379,352.228691L179.527808,352.554065L178.905348,352.014898L175.321404,353.814854L173.696268,354.021249L175.164293,351.824039L178.674122,348.118343L174.989105,349.882611L172.610151,350.616719L172.210883,349.870556L172.565480,348.584738L175.356249,345.589839L176.040395,344.130979L178.410182,341.533341L175.544386,342.546019L169.300569,345.773949L167.564127,345.916428L167.227274,345.124235L167.381735,344.019287L169.614082,341.612271L171.907113,339.216689L170.542818,339.115618L165.737397,341.078548L163.419320,341.480880L166.489088,338.687414L166.869903,337.510222L168.840191,335.441991L166.223725,335.986681L166.788006,334.737136L168.325174,332.975307L170.301691,331.011176L170.128712,330.218565L168.466378,330.200877L159.298207,333.988187L162.586669,331.382052L158.870275,332.292058L158.316560,331.612901L165.324579,327.323294L164.580217,326.788552L163.561188,326.373952L165.182012,324.752508L164.214706,324.314054L162.209656,324.319228L162.204114,323.439366L156.297643,325.052609L155.486652,324.470167L155.200327,323.667101L152.597485,323.787890L152.834605,322.763503L155.432354,320.842424L152.538871,321.029123L153.333386,319.818337L153.745598,318.761828L159.373563,315.872060L159.965291,314.812672L158.688309,314.398876L157.002755,314.105546L156.918087,313.272466L155.771114,312.778420L152.510183,312.925890L149.147077,313.060799L154.882758,310.464553L154.537143,309.705825L155.587797,308.553096L154.666025,307.958672L149.333200,308.531256L147.921531,308.013061L145.939200,307.622319L145.173461,306.907805L151.795432,304.421341L152.431084,303.417698L151.269858,302.829630L154.846494,301.195112L153.638659,300.622443L152.712530,299.977937L151.900237,299.300510L156.979261,297.491438L156.070758,296.853954L156.634523,295.945534L157.525335,294.990990L152.946766,294.944023L153.008034,294.110087L151.586578,293.500951L152.668484,292.515873L156.392221,291.186358L155.939728,290.450170L158.071345,289.391239L154.969465,288.971241L153.463093,288.335993L150.733239,287.807938L148.750929,287.172593L150.423452,286.183850L147.299921,285.617037L149.586219,284.595805L150.617056,283.693446L157.536704,282.432854L155.431639,281.775835L154.674454,281.024108L147.463744,280.543413L149.099661,279.641880L147.706644,278.854031L145.682289,278.063108L154.004395,277.068863L148.185730,276.333086L150.254913,275.489810L149.717354,274.666898L149.244916,273.837479L152.583202,273.062062L154.328645,272.294747L152.672361,271.451521L156.395646,270.777667L153.041043,269.853893L155.123848,269.150724L154.622129,268.331369L154.622331,267.535927L155.818414,266.821898L152.853427,265.809912L142.231433,264.131018L138.660307,262.934320L142.036277,262.350098L143.837433,261.649339L142.188044,260.597184L152.481866,260.896601L156.513127,260.569433L156.176704,259.733722L153.638527,258.594530L153.237171,257.723044L150.848391,256.549276L151.404987,255.799285L155.212223,255.582035L157.519700,255.161256L156.039943,254.104740L155.527877,253.202816L156.221222,252.520104L155.591087,251.585312L157.697169,251.195069L151.633666,249.117567L153.005535,248.565487L152.942854,247.709172L152.530833,246.768976L154.841690,246.467065L151.528550,244.820025L153.556092,244.466714L156.192680,244.296378L154.513446,243.014528L156.620149,242.737817L155.187787,241.498322L155.691426,240.790466L162.185006,241.846852L159.028273,240.087898L157.727389,238.852336L156.425169,237.594159L154.396267,236.079043L154.661481,235.287763L152.161380,233.563733L148.556873,231.418365L153.005434,232.050804L155.337379,231.984033L159.320496,232.553598L164.427038,233.599145L160.372664,231.218286L158.451737,229.602894L155.622908,227.593284L152.016678,225.221118L157.967678,226.730490L163.416449,228.115653L161.002954,226.215872L161.849398,225.694012L162.958353,225.296782L159.861871,223.013041L160.941716,222.593670L158.850757,220.703765L156.522379,218.661667L156.090166,217.492996L156.542836,216.746306L157.017971,216.011978L158.927994,216.008334L160.856446,216.039426L162.462381,215.926921L166.059670,216.896944L167.493945,216.749352L168.762757,216.528593L166.574761,214.390656L167.627781,214.047828L171.018469,215.063810L169.275292,213.127928L171.993558,213.804534L171.075883,212.329785L171.909302,211.902907L174.703780,212.701693L169.316586,208.387034L168.422602,206.838775L164.357534,203.207992L168.177639,204.682794L172.932787,206.845339L173.361856,206.159810L176.609944,207.410357L172.857455,203.837990L172.115334,202.309927L172.429165,201.514283L171.767388,200.006517L169.679720,197.425242L174.894260,200.244230L174.669805,199.042364L180.100442,202.165699L178.551755,199.962702L180.745139,200.667627L179.418901,198.595477L179.934417,197.976059L179.131984,196.274541L182.129172,197.706212L183.223004,197.587912L178.745409,192.720244L179.685217,192.431122L182.468198,193.769195L182.901099,193.069072L183.245648,192.286785L183.816798,191.706715L185.719930,192.360108L185.260203,190.830542L188.978714,193.246801L186.429043,189.706545L187.248888,189.375175L186.975424,187.969423L189.602017,189.446944L186.054050,184.711128L178.816696,176.069775L177.698388,173.591882L177.388165,171.918277L179.436231,172.740638L181.527607,173.648799L183.794716,174.790845L189.090745,179.351901L193.482572,183.030462L194.495925,182.959763L196.632989,184.203381L196.196568,182.472823L196.287188,181.336648L196.964937,180.891790L195.054745,177.285656L193.613548,174.176639L196.869022,176.894720L200.117825,179.692872L198.488737,176.288216L202.841383,180.626826L203.500347,180.201332L203.128894,178.392029L204.794284,179.321347L204.854477,178.071539L203.996031,175.512419L206.133307,177.150697L207.735542,178.077386L207.776182,176.761066L206.881994,174.034083L207.680539,173.786439L207.897723,172.657792L209.022974,172.914179L209.012747,171.408259L209.551821,170.745736L211.464100,172.296088L211.513742,170.849569L211.985919,170.075673L213.039471,170.273552L213.827274,170.033920L214.272280,169.202097L215.404232,169.572134L215.222706,167.606231L215.003984,165.522963L214.863664,163.531427L215.620779,163.178823L217.147648,164.300373L218.235673,164.617551L218.805155,163.932591L220.028173,164.550252L220.893708,164.470526L221.714766,164.307789L222.873145,164.864205L223.054159,163.351116L224.248212,164.012380L224.898667,163.499145L224.718291,161.097263L223.414810,156.030024L222.557797,151.837607L223.922340,152.816233L226.827118,157.598142L228.022270,158.329005L230.623360,162.659346L231.883869,163.711123L232.549386,163.249865L233.431961,163.364184L234.140737,163.018128L234.497455,161.683886L235.016745,160.768808L234.746867,157.522446L234.813144,155.147767L236.549647,157.771083L237.209070,157.166872L237.843058,156.465052L238.515719,155.867924L237.988338,151.240920L238.438132,149.746065L238.671778,147.429238L239.480718,147.077783L241.856459,152.510630L243.550805,155.660928L243.749280,153.163682L244.624500,153.250013L244.198736,147.988141L244.458168,145.335727L245.745624,147.031185L247.396849,150.485597L248.107409,149.794424L249.031019,150.093910L250.507525,153.175636L251.086570,151.864981L252.182476,153.228567L252.389892,149.786024L251.855012,141.814247L253.146487,144.143211L254.457670,146.804085L255.733847,149.482985L257.570723,156.240120L258.701655,158.616452L258.727111,152.951767L260.095921,157.306859L260.373818,153.064017L261.362927,154.610754L261.729379,150.521755L262.779522,152.739503L263.279380,149.387362L264.366727,152.311736L265.287557,153.652088L266.259685,155.944749L266.829125,152.674699L267.749155,154.522952L268.549774,154.610228L269.338974,154.490889L270.011768,151.461848L270.790255,150.391342L271.569470,148.841958L272.276861,142.829744L273.182134,145.300729L274.034153,145.006483L274.890579,145.440529L275.727963,148.194073L276.542153,149.892169Z" />
<line x1="50" y1="600" x2="100" y2="600" fill="none" stroke="red" stroke-width="1.0" stroke-linejoin="round" stroke-miterlimit="10" />
<text x="125" y="603" style="text-anchor:start;fill:black">n0_4mer:D</text>
<path style="stroke:black;stroke-width:1.0" d="M277.244465,104.572849L278.439564,100.904083L279.639286,98.905957L280.865884,96.903676L282.006462,97.758133L283.074980,99.943612L284.260504,99.376372L285.456808,98.767263L286.702668,97.542600L287.983201,96.077384L289.023990,97.899055L290.015701,100.025539L291.097415,100.887571L292.200484,101.432773L293.471935,100.331446L294.750252,99.313931L295.846141,99.956768L296.915702,100.755243L298.031473,101.138813L299.106954,101.789539L300.367983,101.123214L301.689757,100.132344L303.057155,98.953860L304.195360,99.265765L305.207134,100.299510L306.222043,101.252792L307.186748,102.420755L308.362862,102.427791L309.564814,102.320258L310.718939,102.465925L312.003392,102.008057L313.168733,102.133408L314.256306,102.607917L315.393550,102.857995L316.376529,103.747475L317.548607,103.841677L318.835782,103.495747L319.995979,103.667218L321.048400,104.244860L321.995134,105.190380L323.016763,105.840276L323.979481,106.676303L324.990427,107.325965L326.137321,107.515319L327.183195,108.034686L328.121638,108.882061L329.369855,108.760192L330.518902,108.955845L331.538373,109.537989L332.878078,109.193904L333.586696,110.650230L334.287210,112.085157L335.280410,112.690058L336.746610,112.038392L338.115834,111.678908L339.391629,111.586310L340.526923,111.863077L341.050426,113.640218L342.005718,114.332517L343.428888,113.914267L344.647023,114.001212L345.484008,114.966749L346.311307,115.936306L347.004360,117.182766L347.889402,117.989191L350.950441,114.176934L355.196064,108.043159L358.971438,103.093153L360.596579,102.653346L360.067490,106.512903L357.944525,113.372065L356.232214,119.242409L356.635643,120.951629L357.589050,121.602634L358.885357,121.623349L359.929983,122.113506L360.885790,122.763210L361.532224,123.950403L362.921036,123.842704L364.079806,124.145074L365.476213,124.059421L366.591687,124.455575L367.213257,125.657673L367.749966,126.977933L368.803203,127.465324L370.037017,127.676529L370.909270,128.452009L372.017449,128.868051L372.740230,129.862662L373.277848,131.118519L374.052350,132.015458L374.970226,132.701528L376.064709,133.138936L377.692169,132.844822L379.084076,132.898854L380.010133,133.597388L380.781114,134.501702L381.195833,135.867160L382.155652,136.510174L383.744260,136.353178L385.534049,135.966492L386.753141,136.317756L387.750960,136.950174L388.569915,137.801590L388.940628,139.184563L389.646281,140.156893L389.405634,142.221767L390.170634,143.100452L390.639072,144.311139L391.330262,145.261637L392.972352,145.160761L393.477636,146.317531L394.373638,147.045675L395.703180,147.316719L396.290600,148.376156L397.165350,149.132772L397.833778,150.100427L397.974124,151.593890L398.704171,152.485551L399.785422,153.031935L400.450938,153.986509L401.308500,154.754915L402.361825,155.341048L403.623745,155.740351L406.066468,155.070863L406.575031,156.187918L407.718586,156.732575L407.396126,158.575018L406.838032,160.596495L408.110822,161.019942L408.486097,162.213648L409.907682,162.526744L410.732310,163.346101L411.590821,164.139931L412.600893,164.815204L413.205783,165.816722L414.138714,166.560135L414.750688,167.554944L415.514972,168.432236L416.463958,169.172651L417.037072,170.195587L417.683720,171.162630L417.887066,172.447089L418.426646,173.484147L419.543108,174.116020L420.348495,174.970832L422.100615,175.186092L422.765112,176.149994L422.943217,177.434919L424.305722,177.941127L424.394278,179.277158L425.116527,180.202952L425.907357,181.087872L424.582878,183.273087L424.766371,184.512245L426.100237,185.059241L427.109831,185.809603L429.599209,185.712805L430.803235,186.380499L431.230735,187.493948L431.256235,188.826520L431.369863,190.101936L430.745790,191.764008L430.327945,193.297756L430.152051,194.690193L430.354485,195.878178L431.587486,196.544530L432.156806,197.549762L432.877173,198.482757L433.174492,199.620879L433.701413,200.648216L434.505546,201.548496L435.680547,202.286060L435.916011,203.452414L435.925418,204.713783L437.039663,205.494127L438.173624,206.276406L439.338939,207.056288L439.898642,208.092966L438.268192,210.003365L437.306888,211.621062L436.880140,213.013141L438.010481,213.808100L439.723978,214.399451L441.507265,214.985303L443.006993,215.691911L443.642037,216.713800L443.643252,217.953796L443.172593,219.344459L443.297568,220.530110L443.414231,221.714990L444.227280,222.681179L444.747659,223.742504L445.117494,224.850836L445.107646,226.068950L445.028961,227.301638L445.423791,228.399268L445.461204,229.593350L445.030446,230.905155L445.632296,231.946277L445.814982,233.094690L445.381903,234.388572L445.402049,235.567824L444.523609,236.945466L443.316854,238.378921L443.896886,239.415953L444.470545,240.459040L444.890584,241.537133L445.180950,242.642614L445.833020,243.682842L446.380260,244.747644L447.216677,245.768088L448.565286,246.713784L447.722598,248.017517L447.575070,249.203571L447.864964,250.322907L448.197144,251.438203L449.216428,252.467004L450.304088,253.499081L451.720963,254.505626L450.857888,255.778484L450.943344,256.940793L449.988238,258.202541L450.518425,259.317413L451.651990,260.388044L451.320555,261.583901L451.991241,262.704581L450.109491,263.993499L449.267001,265.198122L449.053073,266.359557L448.793949,267.519361L448.089846,268.691315L448.490021,269.820467L449.045291,270.950837L448.180694,272.111851L448.858507,273.245661L449.278839,274.389149L449.066558,275.536172L450.546869,276.696805L450.594388,277.853798L449.871883,278.994078L449.466905,280.134527L448.979546,281.267117L449.484073,282.436096L449.106674,283.568972L449.233702,284.725768L449.253219,285.878376L448.504323,286.979137L448.670994,288.140304L448.717751,289.294959L447.449320,290.334532L447.444159,291.479330L447.331900,292.614555L447.063030,293.732779L447.594144,294.941494L447.483901,296.080665L447.564522,297.244821L448.145195,298.479830L449.472043,299.830896L449.799342,301.053012L448.561666,302.038046L446.985473,302.953765L445.528068,303.870776L445.605117,305.040809L446.719436,306.404273L447.749444,307.769725L447.861110,308.971698L447.253876,310.032053L446.089656,310.970142L445.189362,311.952783L444.625152,313.001657L444.663566,314.185370L445.885622,315.654792L445.966337,316.865460L443.904863,317.541557L443.003823,318.493120L442.363400,319.505348L442.549104,320.738198L444.098178,322.359781L443.746589,323.461950L443.231912,324.515654L442.902193,325.622424L442.386012,326.671686L442.220926,327.829331L442.119218,329.010106L442.626449,330.395812L441.997451,331.410449L441.185108,332.358027L440.980645,333.513495L440.356467,334.520564L441.427751,336.147107L442.812487,337.913198L443.130190,339.298246L442.644891,340.381314L440.816668,340.929598L439.463594,341.649173L437.045200,341.914817L436.001818,342.728396L436.437150,344.166257L435.084403,344.837941L436.323426,346.646681L436.315183,347.918602L435.922361,349.021111L436.099483,350.391854L435.475352,351.391986L434.935058,352.430752L435.061010,353.797012L434.829310,354.994819L433.162536,355.467373L431.185584,355.760689L430.528636,356.723487L430.020181,357.763569L430.636663,359.414413L431.084777,360.992483L430.264189,361.878065L429.482194,362.781281L428.131967,363.353088L426.090569,363.506529L424.386956,363.835035L423.274276,364.500295L422.361879,365.278850L422.698464,366.828173L422.291444,367.925550L421.644728,368.873261L421.568563,370.190994L421.408302,371.463633L420.198233,372.043600L420.166555,373.411545L418.237967,373.487069L416.673645,373.791773L416.509957,375.069051L414.923397,375.335806L416.383006,377.798954L418.711730,380.945841L418.771972,382.458733L418.250534,383.546626L416.025670,383.330029L413.839528,383.111929L413.742797,384.511844L414.258378,386.414993L414.201377,387.880813L413.667492,388.969671L411.607608,388.792173L409.900028,388.882855L408.349211,389.086052L405.507544,388.151826L404.815935,389.058302L406.134834,391.756230L407.386612,394.442895L409.245247,397.733079L410.295815,400.339148L409.832088,401.569633L409.140608,402.592645L409.278619,404.418858L407.269680,404.173538L404.843304,403.485338L404.268058,404.612001L401.078991,403.090490L400.154356,403.837265L401.241180,406.680094L400.783716,407.944458L400.263865,409.153664L398.810118,409.359681L395.819916,407.859814L393.289119,406.810313L392.559457,407.745518L391.608711,408.432074L389.266076,407.502410L387.394510,407.080926L386.007795,407.205461L385.541552,408.424574L385.879006,410.640210L385.195286,411.630169L384.503327,412.616995L383.972968,413.816958L383.523392,415.134494L383.895991,417.544884L383.105415,418.458580L381.971920,418.916530L380.223591,418.528948L378.748740,418.489337L378.302393,419.871774L377.914226,421.356787L377.275881,422.503909L374.989971,421.254658L372.599230,419.795183L370.059131,418.050349L368.375211,417.543812L367.346347,418.019085L366.952922,419.488951L367.593628,422.633159L367.868214,425.260242L368.027630,427.758448L367.514925,429.193186L365.206197,427.614356L364.073438,427.988998L363.549117,429.418158L362.542615,430.019697L362.656007,432.635978L361.465953,432.935650L359.985133,432.687251L358.944886,433.243477L357.577000,433.172238L355.990916,432.656191L354.747948,432.784448L353.673780,433.239019L352.855199,434.214131L352.238469,435.624705L351.072177,435.903812L349.942446,436.253894L348.749077,436.459623L347.054583,435.538907L346.268206,436.627622L345.033381,436.703390L343.874048,436.942487L343.085509,438.061632L341.630969,437.581032L340.167069,437.041992L338.887522,436.932674L337.986697,437.781265L337.006507,438.437978L336.534575,440.471503L335.867316,442.035990L334.564295,441.868043L333.266135,441.690203L332.053855,441.739092L330.577516,440.984995L329.670041,441.917652L328.920452,443.369392L327.974847,444.245773L327.104114,445.391946L325.505183,444.138172L324.204883,443.830975L322.404835,441.734316L320.834941,440.344210L320.107002,441.982114L319.038217,442.396435L318.455883,444.717432L317.597133,446.043187L316.505148,446.465797L315.695553,448.098413L314.443544,447.875115L313.144933,447.410934L312.071627,447.951762L310.797299,447.543369L309.655370,447.750846L308.757211,449.214915L307.763154,450.256777L306.683695,450.887050L305.678491,451.978767L304.590438,452.645557L303.319347,452.206974L301.964528,451.166214L300.590262,449.880321L299.265224,448.806899L297.920853,447.463418L296.687595,446.841620L295.588151,447.253803L294.541694,448.168276L293.515763,449.374763L292.556503,451.396248L291.491635,452.553667L290.270486,452.060563L289.138899,452.593457L287.856252,451.136634L286.643915,450.431606L285.432473,449.568533L284.232907,448.697152L283.128406,449.603373L281.975933,449.590657L280.859411,450.632378L279.704380,450.729641L278.542772,450.544327L277.376331,449.801325L276.219217,448.963099L275.073485,448.679819L273.934232,447.951461L272.786248,448.653223L271.643961,448.572384L270.482879,449.246373L269.329433,449.400273L268.178649,449.421609L266.986242,450.334524L265.834412,450.228012L264.720398,449.489939L263.562575,449.555685L262.466408,448.740902L261.374584,447.994061L260.227166,448.000234L259.217703,446.492468L258.104689,446.223085L256.938229,446.481097L255.756508,446.830546L254.475123,447.966373L253.260358,448.435282L252.210366,447.594298L250.967767,448.208223L249.757489,448.528693L248.651052,448.123877L247.360461,448.897297L246.244520,448.538846L245.032234,448.752272L243.860010,448.711130L242.773932,448.195035L241.567806,448.322772L240.498171,447.743332L239.252610,448.038835L238.038202,448.154236L236.971383,447.577446L235.988130,446.652790L234.775932,446.745159L233.569621,446.792533L232.764403,445.205554L231.530122,445.371932L230.424981,445.021515L229.368068,444.494929L228.199626,444.383559L226.972727,444.468615L225.686877,444.736924L224.634394,444.192831L223.368198,444.359739L222.164664,444.302474L221.412183,442.819502L220.191782,442.819491L218.909674,442.988540L217.820798,442.568204L216.438735,442.990763L215.627245,441.777057L214.231350,442.204933L213.727201,440.195320L213.158365,438.420235L211.953004,438.347678L210.983991,437.661397L209.555802,438.129718L208.530287,437.579498L207.586093,436.838206L206.819681,435.688745L206.075390,434.513287L204.905634,434.330580L203.592236,434.458847L202.714801,433.609750L201.093369,434.377860L200.045434,433.887713L198.973708,433.447032L197.224734,434.392310L196.021215,434.190259L194.704395,434.202501L193.475252,434.026281L192.631968,433.097927L191.937747,431.900208L191.385993,430.458009L190.633820,429.410336L190.304317,427.616203L189.773781,426.216554L188.854352,425.521839L187.996903,424.724296L186.631696,424.794167L185.345310,424.713092L184.244480,424.311743L183.099108,423.976860L181.994019,423.569776L181.252282,422.584749L179.767728,422.762824L178.434141,422.687055L177.629531,421.797911L176.581201,421.277991L176.219049,419.748983L176.029265,417.995437L174.709094,417.882915L172.791670,418.594351L170.911784,419.215711L169.211281,419.556178L168.015814,419.187715L167.188870,418.320226L166.179185,417.696626L165.662396,416.432937L164.980157,415.394976L165.442098,412.924968L165.539736,410.954092L164.986695,409.813833L164.284558,408.864876L162.594309,409.100559L161.786509,408.271686L160.788995,407.665375L159.737032,407.117643L159.358055,405.803149L158.165517,405.411239L157.460519,404.472419L156.965946,403.309161L156.208805,402.437652L155.355007,401.670800L153.624474,401.819458L152.896411,400.909729L151.938484,400.236676L151.848559,398.688265L152.004509,396.915310L151.275830,396.032777L150.211666,395.475897L148.905107,395.143080L147.606649,394.789695L146.380710,394.356367L145.237949,393.836081L144.254152,393.163405L143.824063,391.991972L143.985561,390.307923L144.040805,388.737678L143.370598,387.807735L141.628271,387.786093L139.899762,387.730340L138.262760,387.577217L137.242978,386.902919L137.699193,385.039503L137.418826,383.784038L137.641887,382.145211L137.722001,380.636055L137.208580,379.593704L136.502781,378.699036L135.028448,378.371473L132.915836,378.492672L131.374361,378.174741L130.361409,377.465179L129.464322,376.667988L129.024472,375.551381L127.817363,374.960181L126.185827,374.642605L125.094677,373.949724L125.316051,372.394515L125.540845,370.853286L125.758275,369.332625L124.906861,368.493206L122.941309,368.333334L120.821648,368.242165L120.511685,367.045677L121.580059,365.045499L122.191786,363.338729L123.883969,361.037774L124.465653,359.398828L124.515087,358.073395L124.828060,356.614985L122.662422,356.497085L121.553832,355.795014L120.325809,355.145130L117.640694,355.226415L118.389720,353.549482L118.167347,352.372658L117.053861,351.632889L118.290269,349.762141L117.337284,348.946203L117.217053,347.738872L117.652468,346.285538L116.706760,345.461349L116.440914,344.332280L115.172198,343.636878L113.767568,342.986046L113.057686,342.032792L113.175724,340.739065L112.525678,339.759939L112.626691,338.483756L111.978697,337.502625L110.634460,336.779618L109.855801,335.834178L109.247111,334.821740L109.988303,333.328945L109.844052,332.159267L109.885651,330.930060L109.556521,329.829735L107.581663,329.263286L106.620159,328.352208L105.352923,327.526950L104.675643,326.509977L105.443202,325.061556L105.429548,323.853917L105.592930,322.600928L105.186681,321.510733L104.111026,320.597739L103.209464,319.628578L102.446606,318.615814L102.612318,317.368168L103.249027,316.014259L103.713374,314.712936L104.663058,313.312525L104.011372,312.277866L103.977539,311.107159L104.821356,309.759992L103.933841,308.769317L104.095869,307.569527L103.553114,306.504384L101.847510,305.640449L102.216412,304.403063L101.520678,303.347267L101.510680,302.177167L101.830011,300.959976L101.811317,299.797788L102.531233,298.536746L102.256002,297.416580L101.566180,296.345731L101.305197,295.217622L101.039129,294.088365L101.190785,292.914184L102.072094,291.673240L102.264882,290.507282L102.266177,289.361161L102.549305,288.194748L102.977471,287.023099L102.103523,285.940561L101.473557,284.833592L100.251372,283.748805L99.435672,282.630972L100.213770,281.444277L101.074823,280.265892L100.956431,279.122515L100.483067,277.984006L99.529635,276.844565L98.321152,275.693727L98.707962,274.531274L99.402427,273.376718L99.791924,272.226342L100.501402,271.088030L101.305717,269.961478L101.280195,268.815549L101.262236,267.669065L101.489092,266.533653L100.986898,265.360112L100.991764,264.210539L100.605115,263.033225L99.752726,261.814711L99.220360,260.609954L98.247984,259.357943L98.628621,258.220381L98.767817,257.061833L99.560914,255.974477L101.130673,254.985425L101.812277,253.907393L103.033701,252.905971L102.427202,251.671857L101.928552,250.442852L102.168214,249.314698L102.217571,248.157928L103.533402,247.204740L103.905063,246.107423L103.212496,244.825632L103.439523,243.699516L104.017869,242.640174L104.013850,241.471621L104.532393,240.406039L105.094248,239.353530L104.110870,237.970690L103.333594,236.617009L104.089543,235.602515L103.513419,234.278593L103.748865,233.141294L105.216402,232.313206L105.561705,231.211710L105.805402,230.084041L106.406393,229.053011L107.097892,228.051511L106.942023,226.812473L107.310970,225.720919L107.770799,224.657359L107.878951,223.487243L108.114496,222.353982L107.941315,221.087209L108.204991,219.956918L107.587879,218.528075L107.443344,217.247609L107.827289,216.145464L108.794945,215.253096L110.330428,214.577622L111.773888,213.884692L112.950677,213.105540L112.418206,211.672218L112.769045,210.575270L113.938464,209.808533L113.955199,208.577720L114.822539,207.697825L114.935904,206.501845L115.138314,205.339403L115.943338,204.440273L115.967074,203.193742L116.238905,202.054081L115.918621,200.634299L116.073082,199.427266L116.652972,198.420437L117.586998,197.588989L117.842997,196.425484L118.932220,195.681147L119.258005,194.551853L119.625112,193.440846L120.661948,192.684181L120.448932,191.258672L121.441829,190.483854L122.285437,189.633072L123.100963,188.771214L123.867051,187.885172L124.649003,187.011790L124.382600,185.519168L124.504069,184.245201L125.702093,183.621591L125.967247,182.429330L127.595373,182.089873L128.336785,181.202023L128.873747,180.183809L129.992086,179.546658L129.740087,178.003718L130.216365,176.937083L130.988923,176.070721L131.428107,174.974448L131.375188,173.526200L131.599376,172.262241L131.692400,170.893982L131.585869,169.366816L132.795451,168.806183L133.826764,168.121056L134.484060,167.155660L135.966914,166.831447L137.496993,166.560768L138.878097,166.188433L139.801579,165.459671L140.313306,164.397191L140.083671,162.712919L140.004206,161.133707L140.604923,160.117229L141.439958,159.300184L142.768463,158.918026L144.030801,158.490162L144.995881,157.806010L145.816599,156.994604L146.835029,156.367259L147.555201,155.465970L148.879774,155.137434L149.491730,154.136069L149.932459,152.962955L150.383212,151.790421L150.093286,149.866469L150.428712,148.547913L150.880684,147.335931L151.386510,146.169540L152.349312,145.476319L153.273200,144.744517L154.506523,144.350101L156.446590,144.742886L158.392919,145.174108L159.913765,145.157485L161.084062,144.760011L161.282551,143.246093L161.909468,142.214570L162.906987,141.616284L164.075052,141.227464L165.172118,140.761147L165.320366,139.126410L165.944915,138.064819L166.725450,137.192352L167.903345,136.828162L169.438224,136.940259L170.575503,136.547535L171.220874,135.501787L172.274875,135.002830L173.221002,134.359782L173.757184,133.143103L174.923786,132.806621L175.555836,131.709047L176.325095,130.799361L177.654389,130.712322L177.865852,128.960610L178.205873,127.372749L179.417632,127.106026L180.252572,126.258376L181.725995,126.421187L183.640383,127.319869L184.471718,126.486605L185.580403,126.108023L186.626485,125.629999L187.089570,124.154783L188.022590,123.470720L188.942353,122.759760L190.183881,122.622366L192.162471,123.843176L192.738228,122.519771L193.626863,121.760538L194.394548,120.762651L194.663021,118.778780L195.710445,118.286596L196.465639,117.208256L197.583386,116.851709L198.366227,115.804644L199.480403,115.439043L200.907212,115.749961L201.832741,114.992634L202.698427,114.092360L203.623291,113.310935L204.460826,112.316800L205.376935,111.487739L207.004892,112.347709L208.504582,112.944393L209.685262,112.788343L211.126910,113.303557L212.102774,112.653300L212.977890,111.728411L214.167836,111.628131L215.095014,110.820033L215.903971,109.663914L216.729700,108.523163L217.434174,106.995872L218.207921,105.624780L219.608948,106.121625L220.710796,105.724812L221.961306,105.800427L223.182835,105.801478L224.136978,104.924936L225.170486,104.293661L226.312824,104.029342L227.406312,103.591975L228.301002,102.413410L229.737996,103.245980L230.814105,102.733672L232.209733,103.489592L233.343040,103.223677L234.271624,102.089114L235.372158,101.654037L236.522655,101.433454L237.753098,101.587188L238.979844,101.749583L240.197903,101.896085L241.212268,101.020229L242.296529,100.469733L243.386577,99.925988L244.460966,99.265875L245.526208,98.513694L246.853225,99.347988L248.105377,99.784286L249.370527,100.365492L250.621649,100.918586L251.659494,99.943958L252.792364,99.632819L253.885144,98.969051L255.039175,98.784133L256.300749,99.601273L257.533283,100.253191L258.713444,100.453145L259.834081,100.013398L260.936864,99.294236L262.066769,98.831396L263.255487,99.174156L264.512730,100.747854L265.671148,100.882310L266.819126,100.849628L268.017568,102.073653L269.183492,102.831065L270.346952,103.883729L271.514836,105.844125L272.630066,105.912345L273.743193,105.846129L274.858191,107.091833L275.965988,106.731955L277.097627,104.829132Z" />
<line x1="50" y1="550" x2="100" y2="550" fill="none" stroke="black" stroke-width="1.0" stroke-linejoin="round" stroke-miterlimit="10" />
<text x="125" y="553" style="text-anchor:start;fill:black">GC-content</text>
</g>
<g style="fill:pink;stroke:black">
<a href="" title="AE009950 AE010126-AE010298:1 [129000-155099];"><path  d="M369.781301,65.437348L373.424238,67.123427L377.037194,68.872828L380.619068,70.685017L384.168770,72.559442L374.675833,90.162968L374.675833,90.162968L371.434801,88.451537L368.164394,86.796930L364.865608,85.199651Z" />
</a><a href="" title="AE009950 AE010126-AE010298:2 [216000-238099];"><path  d="M425.132461,100.758087L428.150536,103.404798L431.121959,106.103778L434.045827,108.854206L436.921247,111.655243L422.841139,125.859135L422.841139,125.859135L420.215755,123.301666L417.546137,120.790406L414.833098,118.326120L412.077464,115.909558Z" />
</a><a href="" title="AE009950 AE010126-AE010298:3 [338000-360099];"><path  d="M481.307408,173.327715L483.050412,176.943761L484.730042,180.589676L486.345787,184.264349L487.897153,187.966661L469.384357,195.534777L469.384357,195.534777L467.967892,192.154405L466.492647,188.799269L464.959072,185.470390L463.367633,182.168783Z" />
</a><a href="" title="AE009950 AE010126-AE010298:4 [603500-621099];"><path  d="M485.355347,368.008751L483.700083,371.665793L481.981246,375.293389L480.199361,378.890434L462.355938,369.856484L462.355938,369.856484L463.982877,366.572225L465.552249,363.260072L467.063578,359.921034Z" />
</a><a href="" title="AE009950 AE010126-AE010298:5 [695000-724099];"><path  d="M448.281354,426.240115L445.615459,429.241257L442.897592,432.195415L440.128582,435.101691L437.309273,437.959197L434.440522,440.767065L420.576129,426.352538L420.576129,426.352538L423.195423,423.788832L425.769575,421.179804L428.297802,418.526249L430.779332,415.828973L433.213410,413.088800Z" />
</a><a href="" title="AE009950 AE010126-AE010298:6 [750000-772099];"><path  d="M418.208367,454.976009L415.045541,457.447928L411.840056,459.864272L408.592888,462.224305L405.305027,464.527307L393.974155,448.046671L393.974155,448.046671L396.976115,445.943930L399.940921,443.789118L402.867668,441.582891L405.755465,439.325921Z" />
</a><a href="" title="AE009950 AE010126-AE010298:7 [858000-875599];"><path  d="M346.588827,493.575021L342.763264,494.791128L338.917059,495.940285L335.051384,497.022141L329.829525,477.715868L329.829525,477.715868L333.359054,476.728086L336.870806,475.678856L340.363712,474.568498Z" />
</a><a href="" title="AE009950 AE010126-AE010298:8 [894000-915099];"><path  d="M320.238378,500.507182L316.295845,501.262355L312.340732,501.948606L308.374246,502.565726L305.472138,482.777402L305.472138,482.777402L309.093712,482.213944L312.704902,481.587367L316.304606,480.897862Z" />
</a><a href="" title="AE009950 AE010126-AE010298:9 [917500-935099];"><path  d="M302.671389,503.329355L298.682278,503.777511L294.685953,504.155980L290.683631,504.464646L289.319837,484.511198L289.319837,484.511198L292.974131,484.229373L296.622949,483.883815L300.265181,483.474628Z" />
</a><a href="" title="AE009950 AE010126-AE010298:10 [1450000-1471099];"><path  d="M45.440890,260.765702L45.724276,256.761511L46.077502,252.762876L46.500459,248.771014L66.369984,251.051795L66.369984,251.051795L65.983806,254.696539L65.661296,258.347467L65.402552,262.003467Z" />
</a><a href="" title="AE009950 AE010126-AE010298:11 [1522000-1544099];"><path  d="M55.204568,207.250696L56.420433,203.425055L57.702878,199.621217L59.051515,195.840340L60.465932,192.083575L79.121068,199.293699L79.121068,199.293699L77.829644,202.723788L76.598280,206.175894L75.427352,209.648963L74.317215,213.141940Z" />
</a><a href="" title="AE009950 AE010126-AE010298:12 [1667500-1687599];"><path  d="M111.178869,113.560733L114.021323,110.726248L116.912813,107.941802L119.852458,105.208244L133.343549,119.972745L133.343549,119.972745L130.659525,122.468602L128.019469,125.010922L125.424185,127.598930Z" />
</a><a href="" title="AE009950 AE010126-AE010298:13 [1849500-1870099];"><path  d="M230.780807,49.290756L234.726712,48.553401L238.684884,47.885024L242.654117,47.285829L245.466803,67.087061L245.466803,67.087061L241.842720,67.634152L238.228737,68.244410L234.625955,68.917646Z" />
</a></g>
<path  style="fill:pink;stroke:black" d="M350,550L375,550L375,565L350,565Z" />
<text x="405" y="565" style="text-anchor:start;fill:black">Selected loci;</text>
</svg>