<svg xmlns="http://www.w3.org/2000/svg" viewbox="0 0 550 650">
<circle cx="275" cy="275" r="240" fill="none" stroke="black" stroke-width="1.0" />
<line x1="275" y1="15" x2="275" y2="55" fill="none" stroke="grey" stroke-width="1.0" stroke-linejoin="round" stroke-miterlimit="10" />
<line x1="495" y1="275" x2="535" y2="275" fill="none" stroke="grey" stroke-width="1.0" stroke-linejoin="round" stroke-miterlimit="10" />
<line x1="275" y1="495" x2="275" y2="535" fill="none" stroke="grey" stroke-width="1.0" stroke-linejoin="round" stroke-miterlimit="10" />
<line x1="15" y1="275" x2="55" y2="275" fill="none" stroke="grey" stroke-width="1.0" stroke-linejoin="round" stroke-miterlimit="10" />
<text x="275" y="10" style="text-anchor:middle" font-size="15">Pyrodictiaceae archaeon YC29 DNA, complete genome.</text><text x="285" y="25" style="text-anchor:start">2,005,174</text><text x="525" y="265" style="text-anchor:start">0.5 Mbp</text><text x="285" y="530" style="text-anchor:start">1 Mbp</text><text x="-200" y="25" style="text-anchor:end" transform="rotate(-90)">1.5 Mbp</text><circle cx="348.979024" cy="46.686391" r="2.500000" fill="grey" stroke="black" stroke-width="1.0" />
<circle cx="415.753484" cy="80.607467" r="2.500000" fill="grey" stroke="black" stroke-width="1.0" />
<circle cx="468.820441" cy="133.459770" r="2.500000" fill="grey" stroke="black" stroke-width="1.0" />
<circle cx="503.011885" cy="200.096193" r="2.500000" fill="grey" stroke="black" stroke-width="1.0" />
<circle cx="514.998029" cy="274.027243" r="2.500000" fill="grey" stroke="black" stroke-width="1.0" />
<circle cx="503.611582" cy="348.053027" r="2.500000" fill="grey" stroke="black" stroke-width="1.0" />
<circle cx="469.961432" cy="414.964425" r="2.500000" fill="grey" stroke="black" stroke-width="1.0" />
<circle cx="417.324652" cy="468.245164" r="2.500000" fill="grey" stroke="black" stroke-width="1.0" />
<circle cx="350.827359" cy="502.706416" r="2.500000" fill="grey" stroke="black" stroke-width="1.0" />
<circle cx="276.945498" cy="514.992115" r="3.000000" fill="black" stroke="black" stroke-width="1.0" />
<circle cx="202.874171" cy="503.905799" r="2.500000" fill="grey" stroke="black" stroke-width="1.0" />
<circle cx="135.826933" cy="470.527127" r="2.500000" fill="grey" stroke="black" stroke-width="1.0" />
<circle cx="82.333287" cy="418.106735" r="2.500000" fill="grey" stroke="black" stroke-width="1.0" />
<circle cx="47.602795" cy="351.749665" r="2.500000" fill="grey" stroke="black" stroke-width="1.0" />
<circle cx="35.017742" cy="277.918207" r="2.500000" fill="grey" stroke="black" stroke-width="1.0" />
<circle cx="45.803744" cy="203.802554" r="2.500000" fill="grey" stroke="black" stroke-width="1.0" />
<circle cx="78.910389" cy="136.620578" r="2.500000" fill="grey" stroke="black" stroke-width="1.0" />
<circle cx="131.113533" cy="82.914903" r="2.500000" fill="grey" stroke="black" stroke-width="1.0" />
<circle cx="197.329290" cy="47.915741" r="2.500000" fill="grey" stroke="black" stroke-width="1.0" />
<circle cx="271.109132" cy="35.031541" r="3.000000" fill="black" stroke="black" stroke-width="1.0" />

<circle cx="275" cy="275" r="185" fill="white" stroke="grey" stroke-width="0.5" />
<circle cx="275" cy="275" r="170" fill="none" stroke="black" stroke-width="0.5" />
<circle cx="275" cy="275" r="170" fill="aliceblue" stroke="black" stroke-width="0.5" />
<circle cx="275" cy="275" r="156" fill="white" stroke="none" stroke-width="0.5" />
<circle cx="275" cy="275" r="140" fill="none" stroke="black" stroke-width="0.5" />
<circle cx="275" cy="275" r="140" fill="aliceblue" stroke="black" stroke-width="0.5" />
<circle cx="275" cy="275" r="133" fill="white" stroke="none" stroke-width="0.5" />
<circle cx="275" cy="275" r="110" fill="none" stroke="black" stroke-width="0.5" />
<circle cx="275" cy="275" r="110" fill="white" stroke="black" stroke-width="0.5" />
<circle cx="275" cy="275" r="109" fill="aliceblue" stroke="none" stroke-width="0.5" />
<circle cx="275" cy="275" r="80" fill="none" stroke="black" stroke-width="0.5" />

<g style="fill:none;stroke-linejoin:round;stroke-miterlimit:10">
<path style="stroke:blue;stroke-width:1.0" d="M276.907308,122.817558L277.855027,123.149511L278.802335,123.340818L279.716912,124.509360L280.673141,124.190791L281.600072,124.640916L282.560125,124.328647L283.589304,122.872093L284.510778,123.434601L285.456748,123.550683L286.385830,123.882444L287.369102,123.510326L288.509122,121.420692L289.471456,121.507017L290.475367,121.180614L291.420023,121.458433L292.241182,122.806826L293.213207,122.762568L294.047488,123.827504L294.798100,125.433577L295.862289,124.643448L296.765635,125.042523L297.630035,125.676399L298.702942,124.950401L299.481890,126.080841L300.463842,125.949401L301.431714,125.918550L302.773063,123.869196L303.823852,123.498483L304.691510,124.094920L305.356870,125.660271L306.095480,126.790951L307.134598,126.476108L308.163693,126.236602L308.798275,127.741628L309.861810,127.357744L310.670080,128.058254L311.685029,127.904662L312.700255,127.769926L313.599709,128.094663L314.469919,128.523809L315.064073,129.943594L315.956912,130.252063L317.023735,129.957618L317.842181,130.526314L319.557955,128.123653L320.507014,128.310784L321.341206,128.864395L322.504208,128.392022L323.944823,127.113069L323.949057,130.149913L325.268495,129.263223L325.882705,130.428171L327.057723,129.997840L328.080941,130.011386L329.188057,129.812298L329.043935,132.922834L329.605859,134.109059L331.130980,132.824763L331.518873,134.427903L333.214592,132.791826L334.462179,132.301457L335.191143,133.063987L336.633172,132.160731L337.616904,132.345252L339.291930,130.988259L338.807481,134.446385L340.001820,134.167080L340.669454,135.032644L340.899749,136.800795L341.877005,136.984400L342.506130,137.882530L343.316743,138.402988L344.663797,137.864596L345.950045,137.473870L346.443947,138.620956L347.284424,139.095431L348.166202,139.492776L348.943256,140.083007L350.652844,138.993033L351.506078,139.465610L352.255337,140.119918L351.968777,142.551792L352.061178,144.285410L352.328201,145.691699L353.347644,145.831650L354.995628,144.959633L356.472310,144.400250L356.500191,146.160651L358.428447,144.923919L359.347340,145.287297L359.920267,146.179960L359.170903,149.041677L359.901178,149.656452L362.466348,147.596312L364.493635,146.378358L362.146808,151.410591L362.674728,152.301884L363.399601,152.912229L364.062223,153.605956L365.562456,153.169357L367.547043,152.115577L367.574283,153.669221L368.170695,154.461529L368.919424,155.053982L370.560814,154.520906L370.564566,156.054898L370.368562,157.810652L371.263018,158.214192L371.693522,159.178500L372.432077,159.769469L373.399802,160.093317L373.994320,160.854826L375.721007,160.323772L376.513897,160.871568L377.915152,160.746174L378.670143,161.348443L378.092909,163.394124L379.286611,163.511820L379.794693,164.366631L380.635746,164.869392L381.905064,164.935177L382.847349,165.348430L383.214824,166.345332L384.201706,166.720165L383.931787,168.333330L384.567078,169.048111L384.945830,170.007177L385.403198,170.885414L385.521797,172.074514L385.917987,172.996011L387.239114,173.071918L387.408125,174.196606L388.051721,174.890576L388.793566,175.498999L389.635896,176.023279L390.669483,176.389366L392.086964,176.441303L391.848174,177.886904L392.457676,178.618469L393.247060,179.204420L393.018705,180.608286L393.537441,181.405415L394.086894,182.177221L394.937235,182.716864L395.128493,183.762509L397.898816,182.867199L401.266164,181.573075L405.330338,179.824039L406.495688,180.230835L406.856265,181.220888L406.335635,182.825107L406.553387,183.897439L407.435472,184.509295L407.195091,185.883628L407.880372,186.627784L409.895162,186.502093L409.661051,187.857894L410.057389,188.797426L411.701185,188.949167L411.812785,190.071374L412.382494,190.905859L415.365382,190.284643L423.448538,186.670610L427.374548,185.622795L428.670155,186.152505L424.865675,189.600796L417.582604,194.930486L415.364948,197.328874L412.590769,199.986396L413.353418,200.691568L413.392569,201.784297L418.227317,200.371551L415.938063,202.683776L414.152542,204.698082L417.255687,204.245874L414.348086,206.777990L413.538967,208.247163L415.900344,208.194133L421.177376,206.810825L424.682575,206.314580L425.300981,207.167825L424.525268,208.642678L426.472821,208.911476L424.867988,210.726652L426.043625,211.340159L429.372851,211.073318L425.435173,213.805532L423.682989,215.601521L422.297289,217.222880L421.145563,218.728873L422.762188,219.167176L422.714431,220.240629L425.704520,220.203949L426.468442,220.998502L424.784628,222.654480L426.402620,223.151443L430.010416,222.998998L428.684800,224.512994L420.983703,228.054421L419.049528,229.670537L419.843613,230.416321L420.936996,231.079092L421.367481,231.948028L421.327371,232.954373L422.508743,233.613891L422.311515,234.663361L420.759339,236.068665L421.271235,236.912385L424.848888,236.981951L427.506571,237.323345L428.411743,238.118266L427.130171,239.433364L428.996170,240.013474L431.190540,240.542849L430.763661,241.659298L431.383135,242.550293L430.351014,243.778653L427.083786,245.425644L425.749474,246.664403L426.013181,247.593528L425.858743,248.597026L425.913683,249.561098L428.320933,250.142448L426.380711,251.429671L426.340537,252.406433L426.153737,253.401816L426.171051,254.365218L425.335980,255.438102L425.554019,256.368455L425.744271,257.303358L427.433728,258.072788L427.818040,258.998967L426.386308,260.107397L428.634906,260.857749L430.959786,261.628863L433.674594,262.397304L430.626437,263.620387L430.484330,264.609968L429.165582,265.668164L427.608466,266.721964L429.757989,267.577766L430.422841,268.521870L431.919960,269.444347L432.146096,270.422199L427.442529,271.515220L427.827397,272.464563L427.034460,273.430690L429.208147,274.374724L429.318893,275.341391L427.872833,276.296273L430.393361,277.291626L428.694931,278.230091L426.768661,279.141296L426.530802,280.085327L425.814675,281.007722L425.407289,281.935836L425.990338,282.911273L426.863796,283.911704L428.291239,284.959817L426.599252,285.804363L425.374249,286.664672L425.416675,287.616766L425.208739,288.547813L424.956961,289.473074L425.736962,290.502409L428.705436,291.781796L427.320980,292.597283L426.760510,293.497017L424.230924,294.138561L425.024207,295.196741L424.976411,296.148059L425.223674,297.143954L424.227693,297.953563L424.241876,298.914104L423.834462,299.806486L424.082002,300.809007L425.278308,301.987194L425.697404,303.038440L427.010233,304.269488L427.093166,305.275166L426.110201,306.065271L424.519093,306.716077L423.018039,307.368339L423.420197,308.432258L422.359124,309.164984L422.461527,310.163969L423.883453,311.490639L424.293482,312.584496L423.636365,313.411182L423.923435,314.482624L423.787063,315.446127L424.857711,316.747460L423.322962,317.323348L422.031101,317.952985L420.053219,318.363623L418.954997,319.019957L420.755296,320.571259L421.852666,321.926642L420.626539,322.542694L421.164432,323.734030L419.186376,324.080689L418.535427,324.865029L418.513001,325.867390L417.206621,326.409766L417.001958,327.344304L417.125147,328.403790L418.366078,329.897832L416.126038,330.056643L415.615293,330.875244L414.945418,331.627124L415.643358,332.937880L415.029029,333.713960L416.114970,335.211891L425.471316,340.321807L429.537756,343.241264L423.749266,341.802254L419.353809,340.918485L415.145101,340.061089L413.396278,340.306555L414.452024,341.876469L412.318641,341.915065L410.083123,341.876511L413.552629,344.678690L415.488682,346.758954L416.468322,348.380824L415.202499,348.842935L410.170891,347.278547L408.998239,347.735025L408.357715,348.473045L407.314945,348.983209L407.894327,350.404255L407.471073,351.265499L407.971066,352.666914L409.103793,354.459827L407.363199,354.553421L404.065139,353.676414L403.833667,354.646995L403.248772,355.400650L404.639822,357.408951L405.151264,358.883906L403.694402,359.091137L402.841485,359.681788L403.622672,361.363849L403.840587,362.686606L403.296924,363.498109L403.162310,364.595773L400.830878,364.145063L401.309360,365.678235L401.603945,367.097514L400.947895,367.832815L397.646456,366.591130L395.028018,365.812949L395.896145,367.666828L396.553469,369.385849L393.519288,368.226256L394.509482,370.223522L396.152429,372.780134L395.994993,373.911651L395.475460,374.753024L395.391817,375.962172L393.025082,375.243912L392.781932,376.314826L392.028425,376.949687L388.241638,374.905950L388.614908,376.508536L388.919324,378.071579L388.962985,379.417370L390.595104,382.253083L390.281136,383.314070L390.523176,384.912671L386.488704,382.413316L384.201882,381.537732L382.406316,381.107853L381.801410,381.841075L381.856120,383.244102L383.563140,386.360634L382.029653,386.173073L380.025269,385.468406L379.230418,386.017389L377.639726,385.705341L377.140599,386.561213L376.589972,387.365623L375.435418,387.497852L374.539166,387.910377L373.901746,388.614833L373.649886,389.770021L374.861256,392.663072L373.913705,393.038127L374.120406,394.801955L373.161099,395.167902L369.451628,392.117268L369.942291,394.247352L371.268932,397.481031L369.086493,396.260870L368.510075,397.090139L367.851992,397.817787L366.072663,397.046697L364.761261,396.875392L364.632838,398.312049L362.836562,397.447028L362.242768,398.242722L362.217275,399.858692L360.643631,399.257437L359.659173,399.491644L359.264160,400.596326L358.842293,401.676268L360.867994,406.520356L362.967521,411.598617L358.292083,406.136631L356.371093,404.903903L354.415255,403.565523L353.388524,403.700371L352.724558,404.429108L351.766942,404.668795L350.838724,404.951855L350.131465,405.613427L349.651642,406.681798L349.342809,408.074047L348.045266,407.697828L347.080421,407.909960L346.805235,409.405727L346.355221,410.601277L344.768940,409.627376L345.058796,412.285953L344.756806,413.836369L344.906506,416.335338L343.299431,415.291806L341.203017,413.179301L340.113986,413.121054L338.896592,412.770632L338.473823,414.136990L338.527630,416.598291L337.688773,417.106473L337.641178,419.443193L337.688516,422.070549L337.096853,423.251358L335.772616,422.680318L334.288540,421.679324L332.959642,421.018846L332.026793,421.336558L332.849516,426.242564L334.689015,434.031528L333.646064,434.279878L334.503234,439.785639L335.337325,445.431633L332.267736,440.041629L332.151841,443.101928L332.897986,448.864345L329.521326,442.212999L329.864979,446.915111L327.032319,441.637599L324.863475,438.281379L322.035629,432.549393L319.793060,428.541599L319.319370,430.536912L318.949423,432.988834L317.840686,432.827293L316.477496,431.682686L314.443104,427.863789L313.143570,426.752230L312.160040,426.858505L311.561559,428.575091L311.001888,430.544470L309.708161,429.351811L308.671121,429.249987L307.635040,429.133287L306.229840,427.197208L305.124706,426.631337L304.430677,428.153639L303.425255,428.092489L302.540978,428.690067L301.912488,430.800260L301.744498,435.830421L300.664981,435.550232L299.954945,437.641138L299.064517,438.673920L297.123212,432.314402L295.935003,430.946023L295.099622,432.187269L293.980201,431.207772L293.130436,432.448707L292.131407,432.449385L291.135696,432.469237L290.383773,435.014135L289.277691,433.960855L288.227724,433.406649L287.183904,432.827912L286.390702,435.667667L285.324466,434.820740L284.250719,433.648222L283.195763,432.539440L281.973216,427.448027L280.992821,426.858361L280.017385,426.180853L279.087269,426.856665L278.154493,427.798608L277.193085,427.553308L276.249057,429.051010L275.283913,429.223034L274.282577,437.089926L273.194155,443.874259L272.183133,441.072987L271.211626,438.073069L270.387062,431.357550L269.454516,430.004979L268.533664,428.767629L267.558872,428.957211L266.581209,429.145035L265.519907,430.656489L264.653594,428.972067L263.797864,427.421116L262.651656,429.744140L261.573394,430.926474L260.440237,432.529706L259.565168,431.302479L258.854341,428.648408L257.852958,428.892403L256.853865,429.079078L255.947101,428.491186L255.109233,427.421051L254.110085,427.617241L252.872890,429.445832L251.901735,429.328771L251.036369,428.531659L249.900773,429.448526L249.316964,427.017577L248.818643,424.266084L247.710400,425.052061L247.048662,423.401624L246.144534,423.093459L245.151179,423.236640L244.081150,423.727928L242.957430,424.427828L242.230913,423.276991L241.322560,422.979759L240.535698,422.168591L239.462842,422.577766L238.582509,422.175035L237.504397,422.559771L236.283872,423.458890L236.002881,420.788477L234.184911,423.841842L231.343463,430.379175L229.498750,433.132401L230.277510,426.838595L231.420687,419.607374L230.507137,419.357904L229.587714,419.125794L228.535112,419.305050L227.773528,418.579756L226.833279,418.404146L225.393350,419.680746L224.418653,419.564134L223.584954,419.044605L223.033766,417.756647L222.428642,416.650822L221.637932,416.064869L220.148218,417.301686L219.097301,417.363105L218.523375,416.216941L218.124461,414.669281L217.303114,414.182651L216.172799,414.432694L215.381244,413.872368L214.040510,414.575815L212.977082,414.618556L211.897980,414.681658L211.114218,414.086703L210.561993,413.002209L209.091405,413.874673L208.867729,412.120816L208.005607,411.712031L206.473435,412.648825L206.107969,411.236164L204.583646,412.110012L204.376522,410.418229L203.749113,409.557768L202.997872,408.940019L201.672673,409.379032L200.978943,408.651481L200.946742,406.754629L200.086721,406.350688L199.292964,405.830353L198.689915,404.986472L197.957283,404.370539L196.748320,404.546919L194.440607,406.498182L193.015127,406.961273L191.822961,407.027083L191.698041,405.406070L191.567437,403.823779L190.520096,403.666427L189.199715,403.909270L189.084226,402.345283L189.337401,400.269532L188.916155,399.207727L187.977054,398.897006L187.232947,398.306161L185.527117,399.049768L183.640963,400.006103L182.710334,399.632349L181.367425,399.802829L180.974523,398.703921L181.769468,396.075485L182.433562,393.667119L180.219290,394.948064L179.517118,394.292165L178.726888,393.746336L179.183876,391.680251L176.953533,392.882149L177.233619,391.058200L176.495244,390.458424L176.586565,388.897965L175.148792,389.108544L174.965360,387.882789L174.005223,387.537442L172.954254,387.284879L171.657380,387.289887L171.280129,386.291923L171.609077,384.554298L170.727191,384.110705L170.043905,383.456688L169.698164,382.458120L167.357539,383.478314L164.933441,384.539621L163.802984,384.286164L164.120498,382.616370L164.895422,380.532308L164.368344,379.715160L163.691065,379.041476L163.472095,377.944164L162.915630,377.164370L161.220953,377.410990L162.312435,375.157365L161.056777,375.002280L158.843757,375.662906L156.871955,376.082395L155.701375,375.795870L155.768867,374.464946L156.007047,373.008119L156.012356,371.758593L156.292684,370.301011L156.027646,369.293760L154.779059,369.062704L154.772615,367.858946L154.450931,366.907045L154.460681,365.710767L153.609356,365.165422L151.915961,365.231825L151.413295,364.414998L149.487730,364.615218L149.113511,363.696585L150.581382,361.500667L150.023565,360.731707L149.793645,359.740446L149.746139,358.632890L147.771039,358.803646L147.379188,357.919652L146.268426,357.498657L143.619863,358.039134L143.899756,356.716925L142.737985,356.294616L140.408744,356.568585L142.690111,354.056510L142.078447,353.295770L143.171391,351.543246L144.082391,349.921203L143.871777,348.954706L143.213060,348.241424L142.714310,347.437270L140.761142,347.416992L139.444497,347.034204L135.452962,348.037519L134.952595,347.184946L133.999947,346.561157L133.728285,345.589152L134.151372,344.278101L131.836042,344.306070L132.960285,342.666358L126.006997,344.836589L126.199904,343.612081L122.420938,344.198383L116.356116,345.753600L126.360125,340.178201L123.930682,340.117796L124.520784,338.748165L128.234967,336.092728L126.290052,335.811707L127.236429,334.346573L124.615331,334.307540L125.461383,332.893627L125.941584,331.636146L127.301472,330.062692L128.381367,328.615968L129.285571,327.252365L128.214133,326.600698L126.444071,326.179179L129.230345,324.199505L127.054064,323.903407L122.214789,324.443087L119.726717,324.175418L113.930174,324.902717L112.374503,324.269847L114.140077,322.636375L119.697938,319.933814L121.239957,318.445259L121.729149,317.271627L123.527885,315.755813L120.700124,315.481397L121.658157,314.204590L122.902378,312.872596L125.809637,311.157275L126.986722,309.891398L126.138023,309.108148L120.136174,309.463300L109.356998,310.774104L104.147710,310.779991L112.069392,308.056547L117.054647,306.015814L124.033415,303.663998L126.598009,302.214632L126.408794,301.287890L123.872151,300.760969L118.558149,300.658944L115.316186,300.164064L116.166853,299.010881L115.295987,298.119752L112.890890,297.431631L107.760968,297.074239L96.575281,297.413923L93.609042,296.632728L108.116284,293.842638L107.599307,292.839277L111.981308,291.339743L108.040232,290.678572L112.075953,289.270140L117.456769,287.804486L119.456940,286.661184L116.788735,285.864598L113.103341,285.098718L114.227281,284.017513L115.819735,282.927816L120.922416,281.705976L121.073474,280.733172L117.602423,279.874898L115.874221,278.930411L115.959455,277.931136L114.173562,276.955916L109.639335,275.974662L110.012504,274.938479L107.624967,273.888637L107.287367,272.835241L114.379108,271.919909L117.528481,270.992938L119.456239,270.066404L121.313353,269.160985L119.614462,268.120992L120.050158,267.167028L118.009735,266.077188L118.489894,265.120102L119.017314,264.171560L116.907443,263.029108L112.314632,261.655446L109.723889,260.399636L111.058169,259.481482L117.381356,259.082779L121.842693,258.563062L122.907165,257.712500L123.489456,256.816208L124.575904,255.989585L125.005713,255.088111L125.909625,254.256491L125.917896,253.304418L126.005383,252.362747L125.825666,251.378066L123.343442,250.009763L122.303796,248.854492L122.207838,247.851372L120.859838,246.614241L123.494575,246.116615L125.803493,245.586628L126.720845,244.800895L127.285695,243.950570L127.593491,243.049374L127.626584,242.088243L127.092336,240.994394L128.226266,240.285239L127.961929,239.248229L126.675952,237.949535L128.273677,237.370187L128.765154,236.517920L127.689389,235.246064L127.997884,234.339278L126.616108,232.954265L126.748709,231.986355L124.097817,230.190033L127.093842,230.069143L130.888903,230.233626L131.101227,229.308809L131.021149,228.288106L130.203870,227.017946L130.877878,226.236806L130.969628,225.259732L131.927936,224.584926L131.942050,223.579793L132.241946,222.675047L133.497246,222.126893L134.141541,221.359257L133.184491,219.974712L132.770305,218.785951L134.433685,218.422299L134.437191,217.397494L133.887471,216.136685L131.800825,214.209911L131.601033,213.061623L132.919254,212.571585L132.490774,211.314836L135.478838,211.598203L135.078049,210.355074L135.932525,209.689202L137.680089,209.456417L137.815993,208.462511L134.476559,205.751646L130.463953,202.645008L119.633597,196.001782L105.227871,187.333663L115.182059,191.200997L132.442272,199.108422L141.252031,202.719000L141.493487,201.764757L142.614539,201.296668L142.671443,200.238188L143.139494,199.408600L143.695106,198.629844L144.729232,198.134724L145.556788,197.525301L145.816833,196.577184L146.261396,195.738700L145.690869,194.265541L145.695667,193.137865L146.074102,192.241107L146.376518,191.292394L147.319474,190.762315L148.724764,190.548906L149.016854,189.596756L147.586016,187.456368L149.020127,187.274452L149.449542,186.399988L150.021591,185.625161L151.525010,185.525466L151.462729,184.294195L150.813231,182.613907L150.525940,181.182698L151.183228,180.455551L151.594756,179.539582L153.450641,179.751696L154.239790,179.142523L155.514482,178.927601L156.489370,178.482392L156.784382,177.484069L158.093745,177.326561L159.621004,177.368275L160.425684,176.810431L160.013849,175.200862L160.162348,174.061014L161.767361,174.206914L162.689768,173.759355L163.489510,173.206362L164.245910,172.617019L164.195306,171.274903L165.066860,170.790455L165.612861,169.998705L165.603464,168.664399L167.196830,168.891192L163.519854,163.887955L165.943132,164.932243L164.916462,162.494543L168.816635,165.111235L170.375145,165.357327L171.251354,164.902280L171.797885,164.097921L172.702827,163.679575L173.699729,163.368245L173.937919,162.218471L174.769598,161.726231L174.677697,160.180422L173.760623,157.654670L174.279281,156.765758L175.350599,156.527272L177.042331,157.045797L177.851644,156.517370L178.407270,155.677641L177.722243,153.279439L176.856917,150.606149L179.952829,152.965108L181.122639,152.896230L181.713614,152.078281L182.834879,151.962103L181.208857,148.142278L181.009776,146.192123L182.280001,146.245989L182.912768,145.419865L184.677711,146.201512L187.025195,147.861448L188.374872,148.119929L186.273516,143.276877L187.617296,143.500742L189.005256,143.813269L188.895884,141.833663L190.391444,142.330515L192.082872,143.167578L193.808798,144.098525L194.698992,143.703866L196.301462,144.493483L197.041151,143.868733L198.201036,143.957028L198.922927,143.303718L199.262780,141.974210L200.150120,141.595200L199.250826,137.987266L200.977007,139.105165L200.956357,137.015661L202.097215,137.073990L203.829554,138.284400L205.149658,138.742135L206.725472,139.734564L207.610801,139.382379L208.613791,139.272993L209.029904,137.954329L209.083732,135.841327L209.298200,134.017046L208.323458,129.551612L209.749116,130.274070L212.149377,133.233347L212.494448,131.592755L212.836948,129.902684L213.628955,129.234440L215.017034,129.997021L215.871483,129.487495L216.915615,129.448201L218.942081,131.928078L219.978268,131.939595L221.274456,132.653569L222.330023,132.758349L222.694470,130.977203L223.470370,130.293604L224.720510,130.954064L225.070034,129.021531L226.433542,130.047675L226.926769,128.477828L228.054234,128.827932L229.399323,129.898862L230.359875,129.779627L231.260048,129.466820L230.869716,124.758700L231.693558,124.071834L233.011869,125.129783L233.983684,124.985765L235.093080,125.363335L236.167149,125.637437L236.773681,124.093175L237.848391,124.376485L238.867504,124.456749L240.284072,126.257352L241.311494,126.459736L242.076228,125.494010L242.860633,124.573639L243.632760,123.548490L244.535861,123.122310L246.128179,126.231669L247.183330,126.705450L248.176382,126.882766L249.099582,126.685693L249.554314,123.700448L250.300680,122.293097L251.335360,122.638292L252.761827,125.657120L253.729138,125.737891L254.640846,125.430280L255.572077,125.255437L256.577635,125.677562L257.484748,125.316852L258.440768,125.369265L259.314760,124.654413L260.306976,125.066251L261.238490,124.885489L262.115012,124.046479L262.968514,122.795157L264.071780,124.773363L265.017418,124.767484L265.942344,124.429143L266.877242,124.210159L267.806727,123.833043L268.747419,123.626239L269.724045,124.385206L270.668421,124.368316L271.594264,123.532866L272.504558,121.108968L273.484226,122.623829L274.440477,122.968067L275.393155,123.008924L276.337389,123.949141Z" />
<line x1="50" y1="575" x2="100" y2="575" fill="none" stroke="blue" stroke-width="1.0" stroke-linejoin="round" stroke-miterlimit="10" />
<text x="125" y="578" style="text-anchor:start;fill:black">n1_4mer:GRV/n1_4mer:RV</text>
<path style="stroke:green;stroke-width:1.0" d="M276.148510,183.361380L276.809072,178.780808L277.412617,178.770819L277.895589,182.617716L278.375694,185.263870L278.892000,186.334677L279.605274,183.218068L280.430195,178.824087L281.577481,170.180125L282.217722,170.462804L282.808733,171.359187L282.926412,177.921848L282.927570,184.874927L283.647351,183.280983L284.388191,181.684884L285.137433,180.206140L285.784018,179.806181L286.601530,178.027118L287.240959,177.848281L287.246679,182.481425L287.556021,184.507533L288.468689,182.205529L288.808702,183.883697L289.503858,183.184473L289.240145,188.379632L289.750771,188.657519L291.178084,183.751575L292.933963,177.409963L294.531917,172.337974L295.158471,172.545944L293.938957,181.830359L293.500420,186.822243L293.320943,190.321866L294.885438,185.799281L295.457915,185.865295L296.426151,184.258719L297.924788,180.562075L298.528349,180.658777L299.103755,180.868072L299.095178,183.296970L300.191043,181.513918L298.965953,188.228618L299.795904,187.367517L300.923012,185.528292L299.833736,191.254931L301.895185,186.345425L301.353900,190.049736L302.280034,188.973230L303.075128,188.354250L304.659780,185.382884L305.971721,183.348459L305.263232,187.261828L304.839766,190.216977L305.269807,190.686143L308.404299,183.757402L308.052450,186.441568L310.421835,181.878840L308.587735,188.338830L308.483480,190.189052L310.139080,187.603102L310.562929,188.125917L313.819146,181.841026L312.558664,186.433364L313.451849,185.885099L315.431427,182.888530L314.226529,187.133907L313.434060,190.338357L313.230733,192.169308L311.779581,196.608291L313.432941,194.401787L312.563442,197.479469L313.043391,197.726817L315.729121,193.563503L315.635660,195.007408L317.499024,192.621950L317.125392,194.587020L317.392230,195.296830L316.798584,197.587069L316.849477,198.641373L319.150307,195.627579L319.871369,195.508099L321.796035,193.298808L325.461434,188.165743L328.160927,184.826076L328.405172,185.695814L323.644526,194.801887L327.747838,189.253462L329.630092,187.428206L326.182340,194.088540L328.821869,191.084525L326.401198,195.953189L324.910171,199.288624L324.947125,200.256166L325.644641,200.230967L328.379521,197.247264L325.189542,202.866811L327.242075,200.911606L328.729211,199.807604L328.175646,201.559667L331.304433,198.255646L332.772547,197.280525L331.728678,199.675380L334.432365,197.106066L334.277889,198.309941L335.182075,198.140497L335.763586,198.391802L334.686168,200.711195L331.825582,205.172451L334.108425,203.289957L332.835217,205.723781L335.737287,203.167498L335.577024,204.260986L334.332783,206.586471L335.613452,205.988358L335.185591,207.335499L334.945312,208.450215L335.186435,209.018784L336.688650,208.217368L339.451208,206.098078L340.943759,205.382160L337.555475,209.782753L339.152201,208.951673L339.434588,209.487460L343.339925,206.382304L347.742812,202.871276L347.665211,203.845783L344.601153,207.695352L345.620600,207.560824L338.041995,215.548903L339.404689,215.021931L339.844828,215.366470L342.830412,213.400941L343.261222,213.785894L342.365633,215.346465L347.662300,211.464145L348.504347,211.536290L349.012552,211.902764L352.699242,209.596169L351.202549,211.667685L348.818305,214.427362L349.755839,214.437996L345.506274,218.608871L346.909338,218.221951L349.031254,217.296028L350.584699,216.842973L349.258598,218.600656L353.840926,215.895808L361.966417,210.651764L364.884190,209.360531L368.706937,207.465252L365.229869,210.826507L357.117601,217.367651L350.107734,222.986843L347.907610,225.183581L353.799406,221.879138L353.882605,222.539049L353.614365,223.425083L354.865378,223.317371L352.721210,225.393174L355.477395,224.340989L353.915616,226.011926L352.276708,227.697624L350.202318,229.612803L349.583881,230.621330L349.984060,231.017158L350.228068,231.505377L356.232765,228.710458L358.529243,228.092834L362.401167,226.636451L361.547139,227.815056L361.517214,228.532347L358.953446,230.584966L364.471531,228.380950L361.955386,230.382634L353.513831,235.333654L356.401579,234.513059L359.372117,233.693115L355.947244,235.996835L358.568236,235.377325L355.044232,237.660774L357.513977,237.136493L358.621021,237.261087L362.878303,236.000780L365.323990,235.591087L361.506928,237.900083L361.687799,238.463989L364.457593,237.955099L355.664052,242.187236L361.622524,240.394520L367.581186,238.685182L360.221790,242.186646L364.459132,241.197334L357.585156,244.384770L364.821213,242.341074L361.331020,244.221282L363.191991,244.179377L366.030826,243.826055L368.712322,243.562534L371.216741,243.391831L370.009091,244.446885L371.893324,244.509637L370.569530,245.583161L366.119178,247.576953L372.378862,246.357353L365.797300,248.910353L370.427184,248.226266L373.475019,248.035704L366.690545,250.510075L361.680819,252.429153L367.046564,251.646935L368.818108,251.822294L368.532509,252.513839L368.682898,253.097799L366.100827,254.302723L362.691049,255.654502L364.086022,255.931428L365.155000,256.292718L366.264652,256.658276L363.665103,257.758101L366.867757,257.732094L366.939896,258.314383L375.742834,257.368205L374.897195,258.160738L375.585314,258.692346L374.603234,259.491545L366.292072,261.371044L360.478927,262.786014L373.101623,261.609171L364.785817,263.316962L363.048079,264.103766L364.525411,264.490154L368.597912,264.606292L370.720655,264.977431L362.172636,266.424406L366.433429,266.583459L367.517875,267.068025L374.773114,267.075542L372.740186,267.853107L370.489111,268.619068L374.185866,268.996155L367.574103,269.978446L365.790587,270.645660L367.254659,271.154763L373.388464,271.516618L376.542116,272.041991L372.573113,272.769515L370.615376,273.413722L367.488523,274.045327L373.213202,274.601770L378.249242,275.228413L375.834565,275.855018L380.320357,276.553186L377.688823,277.158134L369.648908,277.582675L366.056559,278.055830L368.124019,278.709607L364.503224,279.127324L365.952096,279.765516L370.348389,280.595255L376.104945,281.569108L371.869093,281.903787L365.711458,282.036573L366.406109,282.667032L361.506895,282.802337L366.765142,283.856699L374.123254,285.194243L380.963877,286.569299L375.506433,286.611271L376.257731,287.341590L364.538458,286.483124L370.149494,287.809331L366.587388,287.914668L366.531458,288.492337L363.426798,288.601430L365.208644,289.454783L368.628669,290.605245L374.928498,292.299575L377.298126,293.370844L376.005191,293.792812L371.788323,293.636539L369.361662,293.783323L364.283221,293.354865L369.592106,295.064932L370.670680,295.921106L369.578621,296.304222L365.080828,295.885100L363.540097,296.113448L365.375867,297.150703L364.612218,297.559793L368.771053,299.232677L368.714618,299.845646L358.790222,297.777451L362.501098,299.376114L365.644232,300.864960L367.181913,301.929597L370.552774,303.565478L366.159811,302.875732L363.803792,302.765033L358.422265,301.657512L358.029125,302.106517L361.250325,303.757516L362.024717,304.623001L360.298134,304.633060L364.087173,306.576456L362.893838,306.774903L362.289873,307.176512L362.658967,307.938021L366.025603,309.855583L363.548152,309.544752L365.995231,311.158092L366.222504,311.912020L363.573759,311.487865L362.218992,311.570791L369.068834,315.137927L362.648467,313.049486L356.640602,311.051111L357.338129,311.977478L363.269625,315.307908L360.147113,314.528773L357.867525,314.103599L357.261377,314.449771L358.616515,315.746140L356.805560,315.500030L367.255585,321.395715L359.152420,317.983460L362.293106,320.279678L363.990428,321.870166L359.097427,319.968556L356.398788,319.183736L357.028816,320.193538L357.169639,320.944724L355.176726,320.492283L350.418771,318.419669L352.668493,320.365298L356.648184,323.378576L352.873390,321.803754L356.868232,324.905799L360.583464,327.909041L356.646218,326.184966L367.063718,333.522716L362.875768,331.636888L356.596191,328.316355L347.999919,323.354911L345.298316,322.201890L350.059898,326.084428L350.569833,327.127417L350.159193,327.542327L353.984662,330.956795L353.406055,331.288170L354.785745,333.039809L355.084070,334.027820L353.596160,333.694815L350.942714,332.458100L350.264733,332.690376L347.783168,331.515879L347.646591,332.143186L344.717068,330.549607L350.183546,335.679404L354.012023,339.591182L351.840817,338.623777L353.552135,340.874861L346.615265,335.826005L347.259657,337.157026L352.314410,342.352695L346.048277,337.681411L343.451822,336.157857L343.150438,336.660946L346.917724,340.893848L341.589155,336.783692L341.702746,337.671537L344.754895,341.367175L346.230189,343.626421L349.103828,347.295950L345.587484,344.734134L341.704040,341.728813L343.321167,344.208608L348.813862,350.715924L343.889881,346.556803L341.101252,344.527077L339.535662,343.737907L336.122141,340.925229L339.962816,345.954456L338.961392,345.745778L335.225097,342.458215L337.414430,345.798632L334.504476,343.356641L336.565054,346.625248L334.689922,345.330575L335.503394,347.201393L340.092894,353.674576L336.153434,349.863464L334.081875,348.259804L332.698262,347.468916L335.878479,352.454467L332.409443,348.990631L335.839587,354.434367L333.109135,351.862490L330.883290,349.889333L327.897250,346.822444L333.540415,355.536762L329.307587,350.706544L330.730671,353.727437L331.745589,356.235970L328.094371,352.032820L326.864032,351.266262L327.329557,352.997575L325.282430,350.971093L325.795596,352.801454L327.247533,356.131544L326.997455,356.865777L326.195738,356.730820L325.708974,357.092863L322.753313,353.402664L322.466270,354.042160L321.585490,353.688615L321.060225,353.925532L320.730669,354.501170L320.771736,355.739074L323.037841,360.988005L321.331479,359.168174L321.912042,361.501682L320.741629,360.619619L319.778795,360.096251L318.366648,358.681049L315.471578,354.307375L312.445456,349.527368L313.473984,352.785800L316.497804,360.239392L314.522909,357.492433L314.147096,358.039582L312.797034,356.496073L314.540990,361.675327L316.707815,367.963571L317.641266,371.661644L317.707613,373.478733L318.690748,377.500788L318.428831,378.682921L318.784206,381.397682L316.534111,377.755023L312.002484,368.221074L306.542330,355.940830L307.197343,359.177172L305.215278,355.503621L304.267521,354.489172L306.889492,363.313356L306.880506,365.051170L304.794243,360.864934L304.434952,361.577651L302.694607,358.165321L301.000634,354.742080L301.164072,356.983068L301.103148,358.597386L300.586649,358.785243L300.829482,361.517800L300.873195,363.688106L300.950093,366.070729L302.754272,374.770708L302.122387,374.920272L300.595311,371.687178L298.839093,367.389638L297.316114,363.783511L297.183381,365.654774L296.439126,365.054028L295.146448,362.041782L295.274774,365.164617L295.220271,367.630611L295.133231,370.088012L294.347097,369.287198L292.426908,362.717550L292.883342,368.062723L290.774998,359.960845L292.051417,370.153971L291.557534,370.853945L291.706954,375.468756L290.236921,370.316306L289.113917,366.985920L288.569825,367.294664L287.990615,367.374060L288.000587,371.842111L287.614344,373.649329L286.508940,369.719016L285.597212,367.028525L284.810100,365.161552L285.383506,376.333261L284.551201,374.346703L284.378536,379.416050L283.273069,374.072906L282.523328,372.455723L281.773933,370.547401L281.232649,371.480196L280.732207,373.306351L279.953137,370.209495L279.300305,369.013008L278.802773,371.362456L278.021121,366.030609L277.471302,366.817700L276.941854,369.060302L276.297155,365.231511L275.737931,366.011938L275.163704,363.924723L274.588377,367.999571L274.060648,362.843860L273.490922,363.970134L272.907943,365.053978L272.388593,363.514795L271.624140,369.360577L271.078226,368.258660L270.441539,369.314720L269.804340,370.130672L268.836034,376.208007L268.219018,375.912514L267.621350,375.397109L267.623465,367.439568L266.903175,369.030411L266.649960,365.343457L266.275649,363.348077L265.322513,367.094755L264.623399,368.128599L264.053101,367.950267L264.255589,361.557562L263.519021,362.977645L262.634593,365.339012L260.917625,373.294090L259.862477,376.139858L259.388307,375.021952L258.003115,379.590625L258.796142,370.910441L258.285667,370.292352L257.447103,371.514728L258.182989,364.286306L257.090064,366.918262L256.081171,368.955594L254.721488,372.545061L253.832228,373.714125L252.935046,374.841809L252.877501,372.206973L252.893571,369.398314L253.823793,362.939991L252.953283,364.098017L253.132178,361.058379L250.968053,367.151678L249.857935,368.992158L249.356389,368.515471L249.735068,364.921108L249.461008,363.756729L249.987901,359.919289L250.109540,357.592952L246.932786,366.064587L247.445549,362.450062L247.755725,359.611989L247.513826,358.564537L245.192658,363.743770L243.576339,366.648978L243.508785,365.003539L242.432716,366.240636L243.591945,361.281193L241.932731,364.098057L240.142531,367.147182L237.614040,371.990197L237.176706,371.321677L238.820205,365.465744L240.094690,360.716981L239.565604,360.478671L238.851571,360.679291L238.616126,359.750423L238.338222,358.942592L238.047006,358.184149L237.389385,358.254277L238.716539,353.993273L236.409451,357.646582L236.519553,356.081375L236.869674,354.060667L236.088820,354.404054L234.193048,356.968635L234.958675,354.182983L234.479141,353.899505L232.874037,355.775168L234.083889,352.270343L233.613273,351.988544L231.294327,355.094642L229.208679,357.680229L231.035377,353.221306L226.519266,360.004659L225.714165,360.171517L228.675152,353.909669L229.884664,350.757911L226.625141,355.085360L221.649735,362.084356L226.072498,353.752764L222.555406,358.245412L224.455873,354.124921L222.896376,355.450432L223.967335,352.724884L222.316754,354.153103L221.022970,355.005334L222.805713,351.326821L224.998340,347.145855L224.569435,346.799408L221.211675,350.568583L218.708204,353.045817L216.861352,354.550814L216.725575,353.696551L216.756156,352.633200L215.603273,353.144864L218.241190,348.710836L218.799244,347.047514L220.004582,344.598486L217.847433,346.403934L216.901381,346.660695L220.268075,341.649896L217.235379,344.450923L217.127932,343.699772L213.387575,347.216549L216.539655,342.658591L213.529745,345.247336L215.085290,342.609976L215.510679,341.288339L215.950247,339.974725L216.943841,338.082585L215.164267,339.204032L211.373370,342.419562L214.425762,338.384672L211.776869,340.331808L210.715821,340.600538L210.592223,339.907908L212.104349,337.594541L207.542264,341.298517L206.794812,341.197941L209.013468,338.246335L206.687267,339.659420L208.729256,336.943868L207.366835,337.427781L207.105654,336.885373L206.051744,337.059397L208.426940,334.170524L210.637717,331.487564L204.835801,335.805446L199.771461,339.373206L200.002204,338.365929L200.313922,337.304588L199.918955,336.840234L206.358532,330.817996L203.855099,332.116792L203.874677,331.371702L197.651765,335.518443L203.115522,330.520769L200.876046,331.512370L200.913010,330.753490L197.911575,332.259029L198.044331,331.415523L201.238890,328.366174L200.039655,328.521362L198.304062,329.038109L202.177641,325.628939L200.939385,325.804321L192.352651,330.936244L196.049860,327.715568L195.569128,327.319823L196.265156,326.156749L198.386887,324.098125L195.787205,325.066639L196.069516,324.198661L197.019052,322.930853L189.408325,326.872551L189.031763,326.366900L185.186524,327.903499L190.556974,324.029899L191.464066,322.805736L197.251243,318.849343L194.487997,319.745054L194.670861,318.986795L187.454505,322.227617L184.890791,322.884040L177.768410,325.890038L177.110799,325.455249L179.481715,323.477989L173.896291,325.518429L176.992253,323.206296L178.757921,321.591058L188.387936,316.261156L194.835336,312.575098L194.780685,311.989318L187.708614,314.588805L188.968075,313.369386L191.749359,311.505191L184.960917,313.810969L184.142114,313.490522L183.073685,313.265445L178.314557,314.537414L174.351352,315.423714L173.099032,315.186914L175.733108,313.431012L178.953120,311.493915L190.396854,306.540443L189.375697,306.311367L182.488394,308.174136L180.745061,308.134121L183.155732,306.641378L187.356245,304.581118L187.356329,303.970543L183.398298,304.643385L176.653775,306.146483L176.512273,305.513506L177.556481,304.521984L178.586933,303.551356L179.748369,302.559319L175.864054,303.011093L177.190387,301.975589L178.372508,300.999056L172.509703,301.888877L173.359416,300.986237L179.681053,298.734598L181.320931,297.703744L178.592409,297.726310L174.603716,298.003398L176.059642,297.018126L178.087616,295.930276L181.167035,294.650557L182.748871,293.716580L178.539209,293.942057L177.734135,293.467852L183.863769,291.712976L182.289662,291.401772L185.447079,290.265023L187.079560,289.420346L177.704141,290.332545L180.889696,289.226698L177.213168,289.156234L176.735310,288.597245L178.309693,287.762361L179.706283,286.970909L181.328001,286.171344L188.190386,284.801568L183.970241,284.700707L180.194850,284.502541L169.497593,284.907339L178.205464,283.478009L180.812225,282.655207L186.115563,281.663735L184.415155,281.220593L185.845876,280.561216L181.446004,280.247310L186.421014,279.411589L186.634849,278.845950L186.844549,278.283452L170.825100,278.226492L171.317672,277.560956L173.687465,276.867202L169.501821,276.283033L174.728641,275.591015L178.229684,274.963916L177.442251,274.352221L183.613377,273.820423L179.861155,273.175603L184.583298,272.699233L188.611156,272.259886L176.682753,271.264634L173.753945,270.517778L182.006020,270.299000L182.276890,269.729922L181.844341,269.119431L181.855995,268.533870L175.603626,267.473629L169.129683,266.315801L175.077326,266.172908L175.728007,265.603044L179.012039,265.306593L178.347329,264.627175L180.563985,264.266013L181.501603,263.778633L186.181678,263.775248L184.949251,263.045675L186.766366,262.723720L184.654200,261.852180L186.456496,261.547288L179.638492,259.899391L180.960889,259.504068L181.277300,258.952269L179.817288,258.087614L183.792516,258.203640L183.777905,257.609184L181.511523,256.569198L184.097856,256.486518L184.219451,255.918000L177.206767,253.803141L183.842473,254.642499L176.567283,252.369231L184.040755,253.486420L183.568100,252.768667L175.372913,250.113747L179.876084,250.604274L181.318444,250.347455L174.662603,247.922477L181.470650,249.129822L181.750053,248.576899L177.397391,246.681569L178.964446,246.482520L186.188851,248.020995L184.766590,246.970080L181.786261,245.402481L184.083112,245.503306L188.281764,246.263603L188.566212,245.755443L186.706106,244.508085L186.497379,243.813855L183.682349,242.177130L188.679528,243.361052L188.419047,242.648658L185.028116,240.737530L177.627326,237.218805L183.837629,238.969507L188.930404,240.357135L186.767558,238.842429L189.796451,239.458412L193.334208,240.331708L194.018543,240.021645L196.294572,240.417868L188.456061,236.324856L190.507798,236.604696L189.488694,235.493175L187.390706,233.855707L184.202700,231.661926L182.658232,230.212058L173.861938,225.160313L178.959399,226.921911L191.889942,232.741530L195.629831,234.015110L195.672285,233.405274L194.403919,232.094127L192.093368,230.195026L188.809277,227.719921L190.290869,227.839646L191.090190,227.593382L194.209524,228.685411L190.891331,226.080329L193.889659,227.141460L193.277885,226.087460L195.164197,226.534332L194.981704,225.734636L196.693905,226.109406L200.308009,227.712753L200.042333,226.883883L200.225317,226.336960L201.759419,226.679264L199.856628,224.745174L202.803309,226.058282L200.052177,223.504831L200.354132,223.020667L200.067855,222.120950L196.739258,219.034004L196.496048,218.113140L199.908401,219.864866L200.774006,219.781158L196.679942,215.969416L197.020659,215.456259L197.680059,215.188977L202.278891,218.014407L201.846221,216.931728L198.757833,213.697441L196.988716,211.465931L198.331902,211.756571L199.534683,211.949849L207.235126,217.658527L206.772920,216.529762L196.375075,206.759610L197.525237,206.901917L202.616754,210.568659L202.214131,209.388094L200.231283,206.746513L204.838434,210.141445L205.528837,209.967529L206.609103,210.169829L208.742338,211.398919L206.699879,208.610929L208.548901,209.593325L207.945802,208.167211L210.932135,210.338266L211.852935,210.463653L209.370088,207.079851L206.865830,203.598108L210.709631,206.775273L211.578783,206.846893L212.601629,207.097702L214.440729,208.264367L213.633234,206.516968L214.220074,206.310549L215.133055,206.481862L209.242815,198.781648L206.561784,194.661608L209.697518,197.362171L211.797607,198.895822L211.843871,197.974463L212.953689,198.353320L209.066450,192.499448L208.551502,190.778225L214.153500,196.876728L214.321091,196.076567L217.053764,198.645332L215.769863,195.929399L213.337385,191.597894L214.516047,192.110427L212.700248,188.488535L213.532861,188.506792L218.962881,195.091748L221.495340,197.676669L221.433195,196.540548L218.805749,191.574152L220.619244,193.164251L220.322608,191.588526L222.077934,193.152138L224.652253,196.052787L223.441768,193.026025L225.121398,194.582634L224.121866,191.811725L224.582240,191.391760L224.573166,190.179165L224.819999,189.377277L228.610127,194.694941L230.165639,196.252374L230.065346,194.913051L228.131755,190.226185L230.372815,193.071349L230.123985,191.371115L232.302097,194.219117L231.461634,191.364528L230.162709,187.535382L231.418057,188.655493L233.783990,192.054701L233.748520,190.661098L231.684184,185.016123L232.784129,185.876255L232.754918,184.350483L233.199648,183.816600L235.147971,186.608526L237.594525,190.627742L238.586411,191.455862L237.200858,186.771481L238.904964,189.268804L240.716792,192.123684L241.969744,193.714090L242.116864,192.599203L242.282322,191.497417L241.579442,188.104179L242.126035,187.900062L243.219538,189.173013L241.157861,181.815982L243.177237,185.634767L242.357789,181.483185L244.440097,185.653097L245.996623,188.436000L245.438057,184.898297L246.492097,186.236742L247.030363,186.000749L247.407842,185.238972L247.284661,182.784502L244.944159,172.675061L246.837118,176.848964L248.857171,181.687169L250.557164,185.602081L250.425723,182.855260L250.993932,182.665604L249.582889,174.660349L250.511593,175.716818L251.620258,177.590111L253.689737,183.694795L254.377072,184.068836L255.720636,187.452910L254.765494,180.293621L255.205558,179.425824L255.551427,178.039954L257.694704,185.830702L258.226746,185.579445L258.883338,186.005469L259.445373,185.929091L258.788075,178.604209L258.794283,174.805952L259.736161,176.725756L261.468505,184.127768L261.884274,182.964195L262.262943,181.426466L263.591607,187.067554L263.949065,185.426673L264.372532,184.178994L264.903168,183.764100L265.533370,184.260805L266.082961,184.006807L266.973155,187.440863L266.594750,176.528659L267.056172,174.506257L268.321319,183.190383L268.702299,180.222968L269.149733,177.747501L269.993540,182.060726L270.400761,178.346784L271.035163,179.012083L271.725677,181.526594L272.283497,180.532954L272.792565,176.826287L273.280152,168.939003L274.007580,175.234997L274.633745,175.482315L275.252658,177.324313L275.773971,187.584166Z" />
<line x1="50" y1="625" x2="100" y2="625" fill="none" stroke="green" stroke-width="1.0" stroke-linejoin="round" stroke-miterlimit="10" />
<text x="125" y="628" style="text-anchor:start;fill:black">n0_4mer:PS</text>
<path style="stroke:red;stroke-width:1.0" d="M276.494084,155.788349L277.282894,153.579575L278.043066,153.624877L278.852430,152.090196L279.575715,153.363680L280.260098,155.167444L280.933530,156.746271L281.740325,155.619961L282.679045,152.625413L283.553048,151.122738L284.375655,150.562339L285.163232,150.526556L285.972189,150.261984L286.721461,150.675112L287.568551,150.073289L288.289737,150.729344L288.602436,154.927144L289.954364,150.002019L290.763184,149.893748L290.952020,154.489114L291.544101,155.765053L292.235105,156.256264L292.711334,158.132300L293.469288,158.081631L293.616672,161.757962L294.549613,160.567877L295.617103,158.714405L297.147225,154.482936L299.119503,148.225089L298.884741,153.607430L299.366822,155.128138L299.435881,158.532314L299.967999,159.599634L301.256149,157.221987L301.094873,161.305190L302.042330,160.473801L303.128148,159.127000L303.871770,159.233354L305.474184,155.989760L307.257994,152.230384L308.805631,149.544458L306.778135,159.943749L308.126600,157.925573L308.686022,158.734732L308.413185,162.323056L309.678653,160.688786L310.611437,160.208601L312.188307,157.727788L313.691774,155.589049L316.262981,150.323779L315.802927,154.255947L316.493496,154.703414L317.563920,154.064139L317.112176,157.700279L318.808718,155.338119L319.389648,156.065471L319.511413,157.983068L318.897274,161.738742L320.079145,160.818169L321.126927,160.274448L323.169942,157.329168L324.219063,156.883094L324.035394,159.370225L326.019909,156.757725L326.831241,156.917308L327.238899,157.986640L327.538194,159.270105L327.082270,162.158572L328.320856,161.352347L327.630211,164.628511L327.736808,166.165847L328.453224,166.426589L328.932889,167.163016L330.302395,166.135474L332.728723,163.101439L332.722317,164.814117L333.930469,164.202688L333.427099,166.790283L333.050465,169.081020L335.463238,166.300563L336.222046,166.542048L339.241870,162.840128L339.399954,164.180278L338.639739,167.051450L338.783264,168.341558L337.191426,172.467704L337.874755,172.791212L340.125791,170.603647L341.473366,169.915764L346.818462,163.025435L345.637223,166.371263L344.473648,169.611753L343.526723,172.452554L340.784693,177.879006L344.229975,174.159455L347.106481,171.367445L342.612117,179.114199L343.158454,179.614316L344.832457,178.555120L348.662251,174.596504L349.375395,174.945268L349.219304,176.451240L349.151450,177.814767L350.238616,177.660941L348.348754,181.325117L349.105104,181.571372L348.509686,183.505658L346.722396,186.867174L350.218612,183.745160L350.466214,184.605008L352.613009,183.208995L353.037810,183.871098L354.458680,183.380352L356.440211,182.275985L356.118127,183.801801L356.645927,184.358735L357.918278,184.098307L356.622067,186.637935L361.979790,182.013773L359.738519,185.540242L362.480681,183.796965L361.594893,185.845650L361.032096,187.528638L364.171742,185.465815L365.405806,185.357392L366.113044,185.781551L364.613022,188.343778L365.183308,188.879407L362.219102,192.748934L359.251963,196.538787L360.184401,196.661500L364.440681,193.775935L363.447941,195.683201L361.333557,198.550012L362.496092,198.493489L365.590652,196.783961L366.018066,197.405210L370.544398,194.574895L369.699517,196.294762L369.659913,197.325491L369.891324,198.125620L367.823305,200.759643L370.272363,199.775014L368.200260,202.354666L368.277166,203.229883L370.420781,202.527995L372.746245,201.723173L377.312489,199.296890L381.972915,196.881197L383.444821,196.843634L384.678808,196.993989L380.616211,200.875693L382.193916,200.766714L381.536960,202.205269L385.270665,200.663491L383.684930,202.718985L384.145348,203.395246L384.303618,204.267242L387.538347,203.170570L387.618138,204.108994L385.973932,206.111236L389.176398,205.110702L388.244896,206.652793L391.646982,205.593073L393.857061,205.282898L392.641532,206.983179L391.911711,208.379227L390.425430,210.181026L390.844404,210.897349L386.826413,214.032958L387.196208,214.740380L388.006763,215.214495L391.201557,214.453296L391.981035,214.976281L390.469716,216.662995L390.448669,217.578959L386.179487,220.568768L389.050275,220.046656L393.648977,218.744298L397.505787,217.853205L396.321628,219.328677L396.109895,220.342023L396.706415,220.988315L393.858017,223.141516L396.747814,222.786450L398.649736,222.885769L400.105619,223.193046L399.378035,224.405132L398.751837,225.561453L397.300789,227.027716L393.101382,229.526859L399.059709,228.123300L398.868017,229.080758L402.601516,228.604184L399.557826,230.592669L397.996510,232.016175L397.050475,233.203226L398.569005,233.546578L397.635447,234.713019L393.362788,236.936781L392.457875,238.038390L393.578913,238.500744L398.244972,237.908438L400.830760,237.988621L401.010725,238.792147L400.739165,239.721719L403.005952,239.949584L394.286555,243.139367L393.907806,244.037557L396.119024,244.270983L401.449289,243.760781L404.603332,243.842049L401.563365,245.410648L400.518349,246.483376L404.769337,246.371623L402.813701,247.641895L402.999456,248.439943L406.227374,248.626852L403.294202,250.051789L399.611521,251.577419L399.474267,252.409916L399.438609,253.221021L395.441050,254.697745L399.278045,254.851101L397.750398,255.887478L397.363922,256.732340L398.070967,257.414531L400.917997,257.812248L397.174881,259.102458L396.402985,259.975989L391.884338,261.278349L395.569125,261.611237L395.952381,262.335506L400.028244,262.700367L403.300455,263.189811L400.126958,264.272301L407.649374,264.464352L402.078355,265.707861L397.879281,266.788757L402.167697,267.302380L399.812934,268.229695L401.139309,268.950326L402.072617,269.703527L405.117917,270.393256L404.326063,271.232621L401.268482,272.113549L400.231040,272.922392L394.993071,273.761423L395.187363,274.512670L399.086019,275.274509L397.868440,276.041853L400.812706,276.855392L398.246315,277.590176L392.986527,278.219487L392.123094,278.930615L392.530833,279.681856L394.374628,280.504805L393.040241,281.184824L394.804808,282.030412L397.323017,282.947714L394.827178,283.539992L391.084745,284.004803L389.611475,284.613470L389.617386,285.337713L393.259370,286.413785L396.237428,287.468555L403.713333,289.053119L401.280073,289.588839L398.589562,290.063459L395.875454,290.502030L394.578987,291.098107L393.699261,291.737692L392.295277,292.290093L393.864854,293.283281L394.250949,294.108441L397.132533,295.356031L399.580046,296.567240L397.448084,296.989402L396.655104,297.634891L399.731495,299.016982L400.347617,299.951285L397.531239,300.190001L395.803163,300.624837L395.410939,301.331264L391.318019,301.201111L394.614224,302.732372L395.273245,303.680597L398.215498,305.199543L396.996940,305.712617L394.951098,305.998225L396.209592,307.135122L393.735686,307.276991L396.271500,308.783895L398.253571,310.169901L395.882494,310.314052L390.662814,309.577369L390.252269,310.242958L396.617638,313.024477L395.717227,313.575085L398.759631,315.403805L394.811577,314.947482L388.511753,313.639123L386.418214,313.707325L389.993128,315.758679L388.491980,316.029005L388.313185,316.769141L389.019015,317.842858L387.871637,318.220881L387.630553,318.939873L391.938232,321.466868L390.705574,321.818781L389.764217,322.276996L390.489739,323.424673L390.120821,324.120532L394.719936,326.972182L394.847420,327.922597L391.270845,327.216423L389.322037,327.204619L385.457074,326.278692L388.037564,328.340263L387.252049,328.832282L389.253676,330.675560L385.999126,329.953084L383.801417,329.716682L386.825779,332.118487L389.631099,334.460128L392.477175,336.873785L382.870218,332.680338L381.143336,332.615221L379.682255,332.674384L379.748410,333.569525L381.773887,335.583514L382.939808,337.142497L383.368709,338.296952L386.746890,341.212807L382.660071,339.706255L380.536968,339.333949L379.863943,339.828536L377.481788,339.247027L380.101057,341.810242L379.935291,342.631937L378.594177,342.690218L375.223640,341.387816L376.511609,343.160093L376.408966,344.017134L377.397377,345.632825L379.636094,348.149054L381.258696,350.279123L380.468658,350.716572L381.940775,352.793622L382.745868,354.416589L378.146016,352.028399L375.520453,351.053566L373.760763,350.700070L372.624354,350.804974L369.762963,349.539735L368.797062,349.736217L371.609582,352.972006L372.191478,354.452623L371.515294,354.914137L373.582666,357.672728L370.890015,356.443622L371.215228,357.763365L369.050313,356.932231L365.380207,354.736752L365.856196,356.174906L367.663159,358.839490L369.820027,361.877840L371.098956,364.163892L367.634926,362.036493L367.332319,362.848102L365.052832,361.761016L363.286411,361.132526L363.864675,362.790367L360.447723,360.479457L361.595236,362.720044L362.833827,365.097161L359.333763,362.598562L358.889618,363.237360L356.908900,362.242404L354.305780,360.537771L355.944286,363.409927L354.233191,362.637457L352.508317,361.817175L352.575917,362.996780L352.778321,364.348988L355.571077,368.736999L356.522828,371.055535L353.481822,368.655852L357.122306,374.257189L353.265021,370.811309L350.607708,368.751356L349.904603,369.080049L352.535849,373.647305L351.045917,373.009755L352.452335,376.124572L349.911632,374.087598L348.820207,373.926638L349.189952,375.733093L350.525988,378.904601L345.936443,373.887711L348.242148,378.464871L346.553240,377.434339L342.440672,372.847382L339.730752,370.186823L341.543838,374.184061L341.691785,375.763781L344.851559,381.988663L345.679651,384.753492L342.891345,381.889418L342.587804,382.899737L337.711023,376.523007L336.305363,375.652783L335.558451,375.843627L334.998181,376.344298L334.431126,376.836959L333.198118,376.175396L334.756283,380.407124L335.484750,383.268043L333.303486,380.917145L332.747716,381.481712L330.110335,378.156053L329.985214,379.492217L329.700638,380.551315L331.658073,386.026138L331.911985,388.271434L332.391173,391.032130L330.074411,388.126692L328.110475,385.852476L325.662254,382.465758L324.332727,381.368755L326.071724,386.951127L325.678408,387.958346L325.902844,390.389459L326.374324,393.463151L325.543383,393.577429L325.272506,395.021659L326.381747,399.860064L324.152502,396.602854L322.574334,394.854938L320.957686,392.932102L322.753361,399.847038L322.593530,401.805104L321.459727,401.182375L321.241522,403.059236L320.268064,402.866293L319.342005,402.790572L318.748477,403.678327L318.550650,405.780113L317.451626,405.196092L317.440597,407.984285L314.985621,403.057099L313.929874,402.478550L313.631263,404.398332L312.356300,403.049881L312.426772,406.347638L310.289763,401.859197L308.687355,399.105949L307.799070,398.899631L306.451352,396.891343L306.784969,401.454863L306.072130,401.979605L304.986759,400.957955L304.591759,402.849806L304.003428,403.982102L302.626902,401.560954L300.825408,396.971818L300.046706,397.063984L298.575217,393.664783L298.342009,396.468953L298.348327,400.749217L297.393218,399.963436L296.750915,400.919171L295.776391,399.940677L295.576668,403.719705L294.712293,403.472723L294.376372,406.787674L293.468781,406.328369L292.520495,405.511160L291.842365,406.714186L291.061467,407.186486L290.456686,409.229267L289.471536,408.003345L288.627810,407.994626L287.588113,405.935113L286.545074,403.537221L285.723595,403.418816L285.063536,405.361073L284.137892,403.891417L283.623680,408.492895L282.539358,404.298676L281.629580,402.434187L280.963956,405.383650L279.752196,395.420881L278.910858,392.839639L278.300574,397.628111L277.510741,396.616306L276.783499,399.062056L276.039575,403.214760L275.228570,399.160523L274.413042,407.613625L273.561408,409.530461L272.737758,408.374190L272.024523,403.081387L271.302251,400.336836L270.531990,399.887904L269.779235,399.148315L268.834130,402.572076L268.203952,399.433196L267.213057,402.856140L266.355148,403.650059L265.797447,400.213926L264.441961,407.308813L263.582061,407.599324L262.721268,407.850042L262.056571,406.073019L261.585935,402.653495L260.926917,401.304034L260.035901,402.060365L259.526891,399.652209L258.589724,400.750380L258.134206,398.217873L257.630221,396.239964L256.145510,400.974408L255.946942,397.070298L254.965630,398.281844L255.096414,392.809084L254.239838,393.358575L253.093945,395.450598L253.073727,391.412832L251.708590,394.537332L251.499998,391.706833L250.546546,392.627647L248.555735,398.320605L247.338751,400.164511L247.195064,397.175785L247.346141,393.086808L247.608982,388.748694L246.739929,389.208223L246.071268,388.845806L244.563948,391.708534L243.843495,391.476795L242.333078,394.127629L240.054361,399.375980L238.321174,402.471461L239.106300,396.863720L240.493677,389.500857L239.198518,391.158562L238.698324,390.211287L238.210343,389.256885L237.083682,390.274665L236.032137,391.016889L233.310139,396.590960L233.076364,394.819943L232.716892,393.460529L231.996875,393.134053L231.430650,392.395372L231.125136,390.985046L230.024445,391.679844L229.951030,389.722749L229.704810,388.258329L230.485445,384.314409L229.796869,384.043867L228.587059,385.008317L228.056617,384.347111L226.581896,385.860448L226.013575,385.272365L225.594465,384.363330L226.317267,380.987914L224.602990,382.931623L221.574052,387.572739L222.973200,382.874072L221.978298,383.198675L219.678875,386.123152L219.409754,384.931465L217.618403,386.729606L218.404188,383.520634L218.630562,381.454053L218.780303,379.581178L215.946309,383.221289L217.155021,379.444159L215.951928,380.057590L215.232313,379.794862L214.989568,378.704838L213.086078,380.464073L214.063502,377.324890L212.920326,377.773901L208.698306,383.225149L205.526319,386.823498L205.730004,384.952405L205.097765,384.429309L205.508603,382.297968L205.242799,381.243134L204.378547,381.104075L205.498100,378.016462L208.168827,372.731213L209.683511,369.243149L206.794525,372.106046L206.711742,370.939908L204.347244,372.956583L201.738704,375.243056L200.478356,375.637567L199.388834,375.782098L199.073919,374.891585L201.019632,371.075919L203.087538,367.189403L199.569304,370.459994L197.674162,371.607543L197.549678,370.529704L200.697669,365.481793L197.493088,368.187257L198.702832,365.572157L197.029634,366.389858L196.144080,366.263240L197.251046,363.850402L197.477784,362.478938L195.960030,363.073426L193.400110,364.787513L192.951428,364.152229L192.839208,363.158928L196.586237,358.088190L194.346808,359.395220L191.789448,360.985867L193.607848,358.058834L188.654030,362.016454L184.138494,365.426510L183.295983,365.128140L184.355377,362.976994L188.037281,358.351452L187.749425,357.584481L188.078273,356.246531L187.112356,356.123374L188.564304,353.785726L185.204822,355.823432L184.524661,355.415009L182.533986,356.152806L180.781452,356.651340L179.823652,356.442584L175.052196,359.446287L175.527068,357.982267L176.665800,355.992612L181.595832,350.954575L179.398770,351.750905L180.413434,349.966349L178.633649,350.398507L178.240035,349.733625L176.503612,350.094001L177.196615,348.601047L178.069835,346.996893L177.468201,346.499702L177.745471,345.363665L174.343698,346.868164L173.469482,346.535955L176.533829,343.457515L175.993463,342.916799L176.674259,341.547478L174.826297,341.886690L171.445424,343.209714L170.472822,342.914921L165.760174,345.007215L165.923557,343.942030L167.543519,341.979381L170.680772,339.119631L167.299877,340.271303L168.121338,338.861092L166.455728,338.936639L168.779672,336.674388L168.936751,335.697611L167.990084,335.352277L168.274379,334.313438L166.132530,334.613873L161.403536,336.281170L160.662849,335.758770L160.558172,334.897704L157.783597,335.417112L155.528942,335.634638L157.460542,333.730870L157.937128,332.578790L156.805792,332.218145L159.017767,330.252823L154.175106,331.633521L154.524280,330.551643L151.155058,331.166748L152.598549,329.589834L157.757769,326.410415L155.403671,326.551496L154.545363,326.028722L154.227935,325.272839L152.696702,325.013281L153.007120,323.996239L153.682218,322.844367L154.831314,321.523107L158.271537,319.352076L159.309888,318.129807L154.988565,318.886163L155.982058,317.679157L154.507338,317.357657L154.087312,316.655774L158.470994,314.330336L153.101894,315.293318L149.442679,315.631822L148.628460,315.022167L145.340197,315.171251L145.173163,314.332998L145.044470,313.484479L146.625805,312.142728L148.516226,310.738286L149.243817,309.683167L153.997983,307.557383L149.660541,307.883477L150.277660,306.887501L151.302217,305.800982L150.655465,305.135724L157.421897,302.716868L157.155657,302.001201L151.720013,302.434652L144.209997,303.246863L139.542451,303.367603L140.966070,302.193779L146.066675,300.318706L149.554517,298.818311L152.650598,297.436990L154.270936,296.358682L151.803456,295.999851L149.053402,295.657239L147.179295,295.142858L145.793483,294.532209L146.630971,293.583504L142.587811,293.322360L142.498285,292.489186L139.545975,292.015894L138.418946,291.288688L141.305619,290.095270L138.737768,289.520965L140.494738,288.481776L142.846287,287.410065L146.671320,286.240012L143.876371,285.657206L145.741420,284.690616L141.503182,284.167421L140.585720,283.384434L143.690446,282.364966L143.018020,281.573232L148.880889,280.489129L144.713459,279.852673L140.068637,279.179077L143.123613,278.257350L146.127492,277.375136L147.013722,276.556526L145.953303,275.760621L143.512692,274.950970L139.743618,274.101904L139.047923,273.245192L142.563969,272.460386L139.956068,271.563636L147.491950,270.955651L145.597958,270.083630L145.785703,269.279608L144.675055,268.411858L143.644543,267.534186L146.230271,266.871248L147.768381,266.167482L147.774864,265.366414L143.918583,264.247816L143.703456,263.401365L144.963994,262.690962L143.272565,261.697419L152.629503,261.867122L154.460202,261.298949L158.077644,260.967367L159.036726,260.344702L158.745008,259.567035L161.508571,259.209507L159.400708,258.177096L157.963513,257.218253L155.951550,256.148536L152.395356,254.796989L151.407301,253.837759L151.187306,253.000542L150.010365,251.982471L148.363450,250.857681L153.638846,251.074234L157.442468,251.057779L162.109617,251.270531L159.463547,249.957266L161.963411,249.756419L155.446536,247.513338L154.663064,246.538041L159.421195,246.897435L152.574706,244.418890L155.845935,244.441440L157.451320,244.066759L154.530707,242.489589L157.467603,242.490590L155.366181,241.100822L158.241613,241.123709L152.870354,238.733955L155.487899,238.694675L159.992362,239.274265L159.978470,238.478002L158.494586,237.201472L157.560152,236.083179L157.361747,235.197527L160.297030,235.387824L158.949564,234.106683L159.105774,233.343419L156.982935,231.743334L161.878225,232.731566L159.909392,231.171992L156.739079,229.114037L156.757482,228.266506L161.826294,229.447777L163.845917,229.449162L160.689237,227.316704L157.418065,225.084794L153.534702,222.535442L159.027624,224.043260L157.933047,222.684594L159.795260,222.648174L159.289030,221.540717L161.061462,221.490602L161.440364,220.797333L162.961649,220.658749L158.324101,217.503444L154.505008,214.680001L153.747601,213.347524L150.820375,210.876561L155.092546,212.127678L161.198289,214.416884L169.435708,217.950217L166.141890,215.285684L168.253628,215.570791L170.407285,215.908138L173.227799,216.657260L171.428268,214.760133L172.152901,214.315851L171.464540,213.031678L171.463494,212.146421L172.585677,211.945935L171.210672,210.198890L168.040047,207.284016L168.716997,206.775820L169.410499,206.282809L173.259314,207.876218L173.753341,207.287664L176.581780,208.282859L176.105470,207.051522L175.001938,205.366775L173.326440,203.249735L173.014526,202.067921L173.408701,201.383196L176.635704,202.777159L174.692985,200.378740L175.244878,199.813601L173.857369,197.769152L175.611034,198.117431L178.978251,199.755599L180.639729,200.098362L180.085005,198.683544L181.204242,198.610716L182.422195,198.632672L182.871854,198.028304L187.839126,201.245965L187.164339,199.725313L180.146402,192.674369L181.098412,192.463211L182.566654,192.721231L182.556919,191.668349L181.922662,190.033277L185.832082,192.571648L185.957609,191.646757L186.211710,190.834413L188.334839,191.809652L187.138138,189.596529L188.050380,189.416982L184.461365,184.760318L184.770832,183.934464L184.298489,182.302989L187.207981,184.144371L189.138420,185.020490L191.619649,186.517047L193.731633,187.668158L193.707330,186.536807L197.213583,189.280247L197.209891,188.189127L196.010644,185.731456L197.324861,186.100261L196.391637,183.886004L195.067451,181.168617L197.473480,182.829066L197.628430,181.834227L197.386347,180.341992L198.096332,179.999816L196.263237,176.479195L196.715573,175.776489L200.384793,179.198530L200.672649,178.324404L201.117335,177.646199L202.281388,177.922657L200.869895,174.734923L200.048908,172.284094L200.881408,172.076509L202.018606,172.304560L201.424642,170.082433L202.484208,170.202351L204.065437,171.101944L203.547579,168.921909L203.976171,168.118657L204.870181,168.015536L203.552950,164.501891L204.788520,164.905686L207.317457,167.389501L208.484947,167.760319L209.510720,167.921777L210.585048,168.180087L209.591402,164.978978L210.125897,164.304558L212.561680,166.913631L212.288717,164.853127L213.324729,165.076280L212.101132,161.230498L215.118016,165.065884L214.644367,162.524011L216.848314,164.981844L218.257835,166.000554L219.025598,165.810091L220.951569,167.919296L220.953809,166.234560L221.148599,164.900483L220.062057,160.872424L221.283126,161.595993L221.825628,160.898408L220.585824,156.300769L221.184911,155.638570L223.233119,158.233974L223.355266,156.510861L223.781016,155.447680L224.460173,154.960230L224.955266,154.021731L226.576324,155.831606L226.405483,153.228557L228.455870,156.209325L230.399133,159.034582L232.014058,161.108264L233.587292,163.159967L232.905630,159.093541L233.177758,157.554060L233.058214,154.840789L234.473381,156.513763L236.095030,158.883527L235.479839,154.546690L235.626391,152.404881L236.295927,151.843823L237.855596,154.164223L240.414327,159.925275L240.103770,156.195984L240.503261,154.774712L241.489008,155.387634L242.135106,154.799007L242.861019,154.490324L243.586630,154.174943L244.759081,155.617300L245.927281,157.130674L246.673210,156.978621L247.797185,158.447772L248.519281,158.240507L248.879762,156.388681L248.227934,149.694965L249.804272,153.346614L250.544647,153.078861L252.361534,158.350382L253.636476,161.108074L254.551587,162.085986L255.019352,160.584245L255.183329,157.170460L255.509054,154.494576L256.042376,152.943807L257.293253,156.088405L258.173670,156.926103L259.036710,157.724755L259.900122,158.614697L260.651523,158.698458L261.047371,155.762584L261.837711,156.064348L262.403368,154.259219L263.002863,152.576205L263.856016,153.438223L264.516312,152.178812L265.330433,152.674720L266.190667,153.901006L266.886003,152.888678L267.606057,152.086036L268.301986,150.658935L269.222556,153.586744L270.041433,154.954081L270.856770,156.721564L271.566669,155.605109L272.273288,153.731865L272.936618,147.753645L273.779879,152.344995L274.543771,151.034719L275.317582,152.224860L276.050411,156.361750Z" />
<line x1="50" y1="600" x2="100" y2="600" fill="none" stroke="red" stroke-width="1.0" stroke-linejoin="round" stroke-miterlimit="10" />
<text x="125" y="603" style="text-anchor:start;fill:black">n0_4mer:D</text>
<path style="stroke:black;stroke-width:1.0" d="M277.362062,86.533116L278.537720,86.839105L279.699295,87.564838L280.806482,89.747183L281.955116,90.112020L283.139975,89.559740L284.347064,88.715413L285.660897,86.181458L286.692110,88.672520L287.820832,89.310687L289.052849,88.484646L290.377108,86.669982L291.822152,83.756306L293.006251,84.014841L294.127703,84.877761L295.192521,86.182282L296.186863,87.977097L297.496617,86.959133L298.623041,87.513126L299.528499,89.697379L300.845649,88.727889L301.877816,89.821414L302.979720,90.376665L304.356616,89.160263L305.388864,90.149727L306.643554,89.776943L307.803713,89.978888L309.016812,89.893004L310.227602,89.839632L311.107333,91.486938L312.523151,90.405965L313.635613,90.852743L314.997742,90.133197L316.084779,90.704744L316.799871,92.878843L317.877187,93.412050L318.707638,94.947794L320.113471,94.109280L321.519115,93.329803L322.898166,92.705976L323.899784,93.528783L324.277246,96.586285L325.438633,96.742225L326.321676,97.866338L327.793284,96.968907L329.974962,93.786083L331.405872,93.178950L332.453530,93.822014L333.765094,93.638559L334.782680,94.366451L335.477274,96.035604L336.993059,95.271752L338.093284,95.734543L339.582998,95.109800L340.313683,96.598109L341.644631,96.437021L341.762306,99.487257L342.504012,100.829976L344.503177,98.954068L344.942851,101.040175L347.002590,99.110133L347.964016,99.899475L349.201470,100.026401L350.559062,99.886487L351.624855,100.432133L353.069002,100.128086L353.610427,101.838804L354.898395,101.892167L356.077261,102.192564L356.787361,103.482679L358.264052,103.166077L359.228851,103.915581L360.126018,104.793413L361.576037,104.572314L362.722640,104.962685L363.525472,106.014107L364.700168,106.351460L365.969142,106.520900L367.089295,106.973713L369.124975,105.784256L370.091409,106.540756L370.766242,107.801731L370.480536,110.696676L369.660791,114.432165L370.286636,115.661585L370.343229,117.811769L372.341741,116.761906L374.403436,115.656734L375.754289,115.722863L377.938371,114.505345L379.371513,114.493327L380.051955,115.641139L379.569092,118.516620L379.818568,120.251484L377.276761,126.023429L377.030254,128.360535L380.274226,125.702744L381.978224,125.287229L384.417385,123.884787L384.460059,125.803194L384.184696,128.117481L384.358487,129.793258L386.540337,128.811711L389.610317,126.724275L390.059448,128.055715L390.908159,128.867821L391.860834,129.548351L392.391307,130.748997L393.897334,130.754354L394.710846,131.607873L395.647483,132.313176L396.555586,133.053076L397.835933,133.364309L399.909130,132.784307L400.980723,133.364393L402.652368,133.283536L403.344212,134.298741L402.951043,136.483314L404.013028,137.077907L404.935023,137.825597L405.999828,138.426054L407.262538,138.828220L407.876630,139.900424L408.561884,140.895247L408.804906,142.324664L409.499761,143.297014L410.502232,143.968693L411.049498,145.079467L412.388550,145.437159L412.246343,147.186782L412.345296,148.692551L413.319255,149.387673L413.573226,150.732724L414.330561,151.620169L414.564600,152.964828L414.475014,154.577165L415.226956,155.453611L416.585502,155.819503L417.666125,156.429477L419.227870,156.651813L420.199851,157.369135L421.363757,157.937829L422.055256,158.888368L421.419336,160.872834L421.408397,162.349196L421.225442,163.941897L420.838254,165.670332L420.736678,167.166441L420.793742,168.531623L420.525039,170.119859L420.700637,171.374462L421.296025,172.325501L421.391888,173.621570L421.807581,174.689099L422.619930,175.485317L423.042898,176.543932L423.385234,177.651937L424.454202,178.284923L424.909842,179.317606L425.707552,180.132422L426.394714,181.019418L426.458245,182.289855L426.105094,183.802856L424.686096,185.934242L425.068791,186.975265L425.238690,188.136475L427.126975,188.312220L430.021741,187.945092L431.384656,188.464348L432.769070,188.985316L433.227925,190.017140L434.276769,190.735644L433.792819,192.261162L435.175799,192.812770L435.821616,193.750546L435.823936,195.010530L437.725584,195.332839L437.523390,196.690643L437.310596,198.042770L436.781369,199.531837L436.694388,200.802674L436.973884,201.899740L437.748770,202.774264L438.003415,203.880607L437.813990,205.174546L437.902779,206.341922L437.821639,207.574627L439.236883,208.191231L440.418565,208.915701L441.574311,209.661500L442.517177,210.500058L442.497100,211.710222L442.890444,212.761158L442.419514,214.126390L442.338470,215.340522L443.535181,216.101689L444.267629,217.033484L444.663134,218.083483L445.776628,218.898156L448.624138,219.165783L450.616297,219.737115L453.301054,220.117933L456.179381,220.472614L455.869893,221.799620L456.584237,222.823684L457.449311,223.810714L456.560757,225.285280L454.803385,226.975730L452.148872,228.872147L450.289650,230.527394L449.460477,231.899646L449.228793,233.113637L450.218269,234.035579L449.654759,235.320031L448.972192,236.620044L449.563815,237.635186L449.806791,238.727360L450.618988,239.705339L452.370689,240.508329L453.087106,241.525891L453.342591,242.633678L454.933451,243.508433L455.632707,244.551483L455.585511,245.722108L456.185440,246.789006L455.431338,248.063479L455.039690,249.274335L455.952964,250.299999L456.302557,251.408694L456.819049,252.499307L457.068236,253.626077L456.974956,254.792342L456.550944,255.990446L456.044436,257.189783L455.081888,258.423277L454.721369,259.591676L453.892192,260.791526L454.725819,261.858208L455.341019,262.948954L456.249075,264.028766L456.988365,265.128292L455.385858,266.348647L455.349098,267.482927L454.955385,268.628792L455.241704,269.749405L457.170811,270.835643L457.055833,271.979658L457.796238,273.113164L459.117126,274.253450L459.205700,275.407508L459.699573,276.566145L459.861134,277.726194L459.615441,278.879925L459.475028,280.033752L460.264498,281.217420L459.247547,282.339525L459.522628,283.509020L459.415741,284.662627L460.325012,285.875282L460.951832,287.081879L460.473427,288.218550L459.788667,289.334231L458.075691,290.356164L458.237331,291.526769L458.316816,292.692795L459.769269,294.002431L460.180945,295.218340L459.603519,296.326809L459.056719,297.433374L458.652117,298.553009L459.083225,299.781875L459.766083,301.053724L460.563875,302.353332L460.166397,303.481500L460.465689,304.718507L459.141309,305.691137L458.674350,306.797619L458.791393,308.005521L459.908329,309.403652L462.279342,311.060536L461.816717,312.187122L461.371826,313.314363L459.281404,314.089879L456.236044,314.632397L457.191514,316.039385L457.490957,317.310245L457.878890,318.609664L459.909015,320.320336L459.609241,321.475206L459.520125,322.684402L459.060574,323.798192L459.438779,325.137655L459.723097,326.460282L457.665844,327.122949L456.627607,328.059848L454.279250,328.595487L453.174723,329.483997L455.729244,331.506072L456.907752,333.128464L455.719878,333.999616L455.939569,335.328729L453.770899,335.853176L453.031749,336.849248L452.687781,337.980453L451.513644,338.812254L451.391791,340.020973L451.718114,341.402162L451.683777,342.655867L449.066743,342.907600L449.590424,344.375686L448.630727,345.257454L449.435409,346.858479L448.716482,347.839058L443.323703,346.821497L437.182363,345.405745L435.262683,345.769295L436.424037,347.494405L437.535884,349.221244L439.562182,351.396497L438.786223,352.287584L437.419407,352.890848L438.692487,354.766981L441.718548,357.538474L444.459281,360.221773L446.482537,362.590027L447.039994,364.238611L445.050473,364.563496L442.104567,364.354115L441.068856,365.143143L439.186712,365.458191L438.605681,366.479261L439.464438,368.317139L439.634800,369.782618L440.268205,371.531311L440.810822,373.247028L439.463228,373.846300L434.378557,372.155075L432.362928,372.284232L431.474767,373.095855L431.500507,374.483649L434.310136,377.677116L434.144949,378.988048L433.041974,379.686494L433.431081,381.378742L432.533930,382.214784L432.301433,383.505169L431.915487,384.696558L430.113034,384.890048L430.213445,386.428648L430.745457,388.296385L430.595925,389.685582L427.229743,388.683629L422.556380,386.640851L419.611438,385.844586L418.015384,386.050953L419.841914,388.931409L422.752481,392.727157L422.498210,394.043381L421.216933,394.530221L421.312344,396.145823L421.134580,397.550393L419.973026,398.131990L419.245907,399.078870L418.079001,399.643730L415.485744,398.941705L416.039393,401.010773L416.248113,402.798037L415.628788,403.849629L416.477297,406.267466L415.615431,407.117275L414.893385,408.099316L411.706742,406.709527L409.339515,406.062093L407.599485,405.996456L405.679987,405.728519L404.401452,406.082281L404.170849,407.499370L403.060492,408.018076L401.862578,408.437476L402.221817,410.505874L400.630641,410.502924L400.268625,411.822380L400.356112,413.652638L399.110062,414.015854L397.087279,413.487405L395.987159,413.985776L395.203408,414.845552L392.326551,413.241827L391.634545,414.185194L390.473094,414.566644L389.461722,415.122972L391.202564,419.087795L392.376385,422.424534L392.485386,424.474300L390.994550,424.496486L389.796933,424.883032L388.131603,424.642164L386.159810,423.965531L385.528031,425.071946L384.497165,425.640322L382.916998,425.439810L381.993752,426.143775L380.607742,426.186155L379.963266,427.287640L379.709831,428.976215L377.112982,427.200121L375.867353,427.399218L373.064997,425.201988L371.302753,424.541816L372.079585,427.843935L371.610912,429.233329L372.061546,432.133139L371.816254,433.955510L370.856806,434.623435L369.548872,434.704660L368.672182,435.510003L367.327831,435.508708L366.424933,436.269052L365.375892,436.773356L363.859919,436.427548L362.888237,437.058184L361.558687,437.021380L360.407712,437.306199L359.365864,437.793858L357.235891,436.147968L355.876389,435.967580L354.466965,435.664450L353.841585,436.946129L353.570560,438.992905L352.749190,439.923093L352.150674,441.348421L350.784963,441.123469L349.941968,442.039988L349.050087,442.860944L347.738012,442.725303L347.004092,443.925380L345.915055,444.304122L344.809828,444.641168L343.787492,445.179645L341.857151,443.434514L340.132992,442.137890L338.459000,440.908074L336.605322,439.137211L335.471807,439.238505L334.471069,439.696562L332.928758,438.628279L332.184949,439.803043L331.336126,440.702646L330.047732,440.305192L329.150210,441.074812L327.922124,440.827328L327.012272,441.573398L326.091491,442.302604L325.331695,443.589814L324.739821,445.498100L323.492198,445.181272L322.545348,445.915419L321.682894,446.982186L320.632970,447.380134L319.729816,448.352718L318.740069,449.017614L317.633796,449.227596L316.410797,448.944083L315.263507,448.956594L314.312418,449.827554L313.280002,450.363624L312.343402,451.370595L311.390652,452.348191L310.305305,452.707647L309.006913,451.967812L307.805912,451.685796L306.750913,452.183252L305.503704,451.590329L304.287737,451.124419L303.029477,450.341608L301.818209,449.784763L300.755052,450.172033L299.898750,452.050783L298.951704,453.417606L297.822003,453.477402L296.626145,452.983996L295.453102,452.619251L294.367970,453.004933L293.304294,453.632710L292.210776,454.017686L291.145583,454.757052L289.962564,454.181963L288.845122,454.347000L287.656356,453.519916L286.522023,453.358691L285.443332,454.101336L284.314216,454.038419L283.291408,456.266275L282.205052,457.576353L281.069425,457.880309L279.914462,457.589832L278.764927,457.367067L277.609751,456.537062L276.467661,456.012302L275.332665,455.705407L274.211423,453.166151L273.114534,451.320086L272.003012,451.692300L270.883268,452.207470L269.716395,454.090098L268.539623,455.577685L267.408082,455.533652L266.280460,455.407607L265.114577,455.998533L263.956146,456.332338L262.793982,456.646242L261.621037,457.039962L260.632618,455.045864L259.535668,454.591081L258.485273,453.681487L257.346156,453.773539L256.121621,454.654041L255.007188,454.432806L253.856767,454.527473L252.770596,454.081285L251.593740,454.359938L250.470163,454.209730L249.157842,455.376631L248.014988,455.297685L246.956938,454.668007L245.632997,455.710363L244.467752,455.720004L243.115491,456.781096L241.576496,458.779374L240.346745,458.984010L239.225492,458.603708L238.243371,457.542526L237.265506,456.512999L236.419669,454.916126L235.093272,455.574132L233.579572,457.002695L232.305812,457.311638L230.868514,458.268065L229.750881,457.866541L228.402553,458.379066L227.165911,458.422157L227.002653,454.435308L227.330466,448.838193L227.178671,445.202197L226.451746,443.721780L224.653575,445.932580L222.089934,450.569213L220.324213,452.396586L218.961835,452.849339L217.308103,454.172544L216.412931,453.118687L215.389375,452.475456L213.783646,453.541138L212.533824,453.531597L211.407800,453.160168L210.621807,451.853588L209.910577,450.380104L209.157769,449.056702L207.982829,448.862289L206.387358,449.730541L205.367957,449.111396L204.961840,446.992733L203.880562,446.561980L202.602686,446.596682L201.365976,446.518697L199.431901,448.024398L198.186642,447.913019L197.289803,447.018093L195.962833,447.073013L195.129319,446.053247L193.597940,446.520642L193.002539,445.016221L191.757128,444.869472L190.059053,445.620279L189.217116,444.638358L187.498887,445.376312L187.259537,443.239492L186.230315,442.642132L185.595813,441.311731L184.519375,440.814020L183.815137,439.642231L183.367034,438.032226L182.378089,437.400469L182.182406,435.399339L181.881551,433.617811L180.352020,433.933388L178.355970,434.995751L176.140474,436.369736L173.600529,438.210635L173.079476,436.778656L172.410849,435.599440L171.909291,434.176876L170.508938,434.144257L168.841741,434.495783L168.578428,432.739197L168.664600,430.500602L168.268999,428.998873L167.147913,428.552038L166.724193,427.119431L164.624829,428.029766L162.495094,428.939886L161.480495,428.302131L159.734228,428.637710L158.993040,427.623697L159.205804,425.378188L161.525878,420.470080L162.802180,416.989983L161.891105,416.313339L160.952613,415.669695L156.987025,418.710505L153.690451,420.851561L154.276892,418.310068L153.186411,417.778944L153.585431,415.518136L153.555158,413.785442L151.717687,414.116323L150.146884,414.122543L148.007850,414.734371L146.398108,414.736073L145.993701,413.424383L147.797270,409.785582L148.449329,407.422183L147.569770,406.680401L145.242058,407.415019L141.508894,409.527675L139.481049,409.870160L138.593907,409.062038L138.501018,407.481881L138.377421,405.949107L137.750122,404.909860L137.103076,403.893512L136.775709,402.585864L136.145159,401.565527L134.945863,401.060844L135.420062,399.059463L133.668143,399.039918L132.421192,398.561134L131.706635,397.616408L129.288973,398.111811L128.894693,396.883908L128.625862,395.560534L127.708302,394.774935L127.711219,393.246881L127.237598,392.111850L126.792101,390.960128L126.612470,389.608744L125.867314,388.699298L125.846941,387.243776L126.140007,385.568852L126.750644,383.680297L126.730823,382.272771L127.557090,380.273600L126.930902,379.325916L125.017463,379.273699L124.067968,378.536805L122.096861,378.485803L121.887996,377.233969L122.670182,375.337172L122.117749,374.332883L122.140300,372.961359L122.343096,371.487166L121.476182,370.693905L121.156404,369.559698L120.117788,368.865851L118.319889,368.617966L117.251540,367.919748L116.477712,367.042316L114.732156,366.717682L114.312963,365.625514L113.617046,364.689595L112.279604,364.102769L112.604611,362.606419L112.323728,361.446182L112.693418,359.949636L112.775408,358.615783L112.176543,357.637096L111.035600,356.927993L111.411606,355.462931L112.339614,353.744346L112.673222,352.330920L114.897206,350.044014L114.248410,349.122944L113.718731,348.145050L113.937136,346.832441L111.303332,346.780566L110.833742,345.763177L110.048161,344.879266L108.043820,344.497538L107.287562,343.582364L105.445748,343.098407L106.452780,341.470346L106.587467,340.200632L106.193853,339.139482L106.369197,337.866341L105.250578,337.074508L103.617505,336.456788L103.436224,335.311056L103.971752,333.921145L102.587179,333.191985L103.780836,331.596353L104.262111,330.252784L103.704672,329.249638L104.406973,327.853199L105.048222,326.489455L104.549073,325.476614L103.467510,324.629792L102.317714,323.791783L101.473007,322.858208L100.089992,322.062125L99.738030,320.980914L99.368529,319.903333L99.236145,318.765533L98.333530,317.816292L96.912708,316.980792L95.215192,316.193372L89.347166,316.315067L84.582778,316.124620L81.269762,315.571105L82.563055,314.043008L85.990070,312.115981L89.531793,310.214814L94.405501,308.118240L93.893737,307.040264L95.779223,305.549637L98.243686,303.990838L97.954331,302.900063L98.129071,301.737660L97.915491,300.635862L97.968831,299.496451L99.231713,298.200033L100.913171,296.868992L101.002982,295.750925L100.354604,294.719000L99.973402,293.651942L97.956745,292.745458L96.952843,291.719748L96.627388,290.623244L95.635827,289.578006L95.697588,288.442441L96.988807,287.224288L97.826538,286.051648L97.199070,284.972601L96.752995,283.877416L94.365280,282.861833L94.032221,281.740355L93.943551,280.607658L93.874471,279.473805L94.374967,278.328941L94.370152,277.196759L96.210132,276.053815L97.032141,274.933638L97.348584,273.820403L98.134498,272.717100L96.402381,271.575185L95.452545,270.431188L95.059863,269.292591L93.612551,268.108549L93.809174,266.978577L94.774452,265.889299L95.571491,264.801872L95.314530,263.657128L95.339258,262.527811L95.445880,261.404022L96.020540,260.318895L96.838338,259.261337L96.828456,258.134516L95.917709,256.915259L94.431068,255.621229L94.332471,254.464583L93.533776,253.221027L93.673827,252.084218L93.808607,250.946664L92.328443,249.584214L92.293370,248.411117L93.143373,247.369911L93.394186,246.242502L95.946335,245.495219L96.935701,244.510823L96.871787,243.349577L97.553134,242.322183L96.238640,240.920473L96.210415,239.752496L95.246561,238.390720L95.161430,237.198075L94.754317,235.931424L94.282837,234.641843L95.355616,233.697772L95.508488,232.546867L96.786318,231.667993L97.437371,230.645912L97.198107,229.400466L97.245569,228.223459L97.542205,227.110403L99.665229,226.502478L100.838620,225.650012L100.346883,224.326126L102.597363,223.805536L101.916788,222.420870L99.575405,220.506466L99.682051,219.332494L96.930707,217.227946L95.480611,215.511470L96.295104,214.535851L96.972957,213.519129L97.809805,212.562536L98.086929,211.411037L97.948966,210.105678L99.635603,209.474345L100.832459,208.674723L103.104678,208.303560L105.258372,207.912293L105.380607,206.728485L103.070196,204.543329L100.480632,202.201442L98.236000,199.961164L98.044083,198.567355L99.442193,197.862204L99.940471,196.768611L102.346275,196.541963L102.069633,195.104953L104.135307,194.756151L107.450832,195.027818L109.271354,194.617686L111.673508,194.514562L115.590721,195.199442L120.451164,196.417486L123.645921,196.844311L122.776850,195.183253L118.634200,191.757601L113.692826,187.825264L109.562065,184.248717L110.723881,183.542092L111.169653,182.440587L111.384177,181.204294L112.645211,180.570462L112.938706,179.376966L114.023866,178.652132L114.823191,177.761972L115.776382,176.969801L114.612320,174.861576L114.271263,173.243181L114.933163,172.251410L115.014410,170.882070L116.035281,170.122457L118.472653,170.316721L118.842025,169.141415L118.776928,167.662213L120.016934,167.078202L119.470602,165.244075L120.273347,164.351530L121.496215,163.765493L121.964558,162.635505L122.039828,161.208549L122.536320,160.086651L123.319084,159.178950L123.929245,158.138861L125.136903,157.564533L126.316433,156.977419L128.101472,156.886153L129.242002,156.291549L129.930939,155.332693L132.065242,155.580135L132.711468,154.597888L134.161773,154.302402L136.035030,154.389091L135.281848,152.191772L136.371714,151.601192L136.794912,150.416763L136.968998,148.996806L138.550847,148.864063L138.312696,147.046000L139.171697,146.243506L140.215763,145.619897L140.034171,143.810540L143.282410,145.352638L147.665869,148.086319L147.751005,146.571486L149.467653,146.705849L148.449845,144.033721L146.752965,140.602224L148.978111,141.265988L149.639841,140.286653L150.604968,139.632547L151.203715,138.577891L152.945448,138.791653L153.627480,137.832807L154.645767,137.253739L155.429712,136.407535L155.246704,134.423757L156.637009,134.278768L157.728887,133.789814L159.004549,133.531357L160.027121,132.972386L161.028724,132.391371L162.203446,132.033249L162.717533,130.836018L163.630824,130.145093L164.835553,129.838377L165.500098,128.820647L167.057512,129.001800L168.394628,128.903831L168.968933,127.761806L169.654764,126.763925L171.109804,126.853841L171.855312,125.938389L172.544781,124.933549L174.472019,125.756405L175.111773,124.681605L176.295648,124.424505L177.858943,124.764223L178.634316,123.894884L178.851023,122.129866L179.468286,120.977864L180.370181,120.275548L180.670285,118.572156L181.773842,118.188242L182.676227,117.466865L183.852891,117.216127L185.307408,117.462823L186.284210,116.882014L188.032962,117.696746L188.649714,116.474151L189.893149,116.398775L190.935499,115.956951L191.194965,114.013857L191.680822,112.468322L192.126448,110.810989L193.474135,110.932998L194.481961,110.380382L195.954415,110.791430L197.386428,111.146644L198.409529,110.652131L199.831714,111.027698L201.107433,111.106889L202.181592,110.749887L203.377204,110.674954L204.433041,110.286782L205.621907,110.216482L206.512593,109.438365L207.678571,109.325122L208.597693,108.604586L209.172030,106.992798L210.006316,106.011811L210.695813,104.625336L211.482631,103.463655L212.840542,103.844505L214.170206,104.176723L214.899984,102.819197L216.251283,103.238463L217.106441,102.209843L218.342437,102.313685L219.479282,102.128646L220.245156,100.770346L221.312403,100.346974L221.954606,98.505411L223.280168,98.920124L224.650159,99.524741L225.986923,100.055311L227.394180,100.885126L228.334872,100.022472L229.155538,98.668721L230.120282,97.827415L230.965043,96.469372L232.131430,96.391415L233.515854,97.258484L234.580791,96.782541L235.851713,97.228651L237.003132,97.157961L237.940924,96.066406L239.122024,96.131851L240.098395,95.161892L241.078605,94.160312L242.056638,93.090177L243.085469,92.246906L244.285305,92.371028L245.450393,92.305539L246.805047,93.470467L247.829076,92.530691L248.967841,92.326867L249.986691,91.238262L250.974740,89.820553L252.279609,90.839929L253.329561,89.807146L254.665218,91.253040L255.914438,92.061768L257.036889,91.696913L258.192837,91.662635L259.268767,90.701423L260.365938,89.871158L261.481064,89.159652L262.684106,89.652385L263.869180,89.965691L265.064637,90.561192L266.227828,90.652399L267.394644,90.875845L268.528993,90.269573L269.666689,89.532849L270.815896,88.915642L271.958441,87.430585L273.137651,87.783706L274.310177,87.563160L275.485135,87.449990L276.659382,87.581739Z" />
<line x1="50" y1="550" x2="100" y2="550" fill="none" stroke="black" stroke-width="1.0" stroke-linejoin="round" stroke-miterlimit="10" />
<text x="125" y="553" style="text-anchor:start;fill:black">GC-content</text>
</g>
<g style="fill:pink;stroke:black">
<a href="" title="AP028634:1 [294000-330099];"><path  d="M458.161704,135.889289L460.561625,139.107088L462.905021,142.366282L465.191180,145.665878L467.419404,149.004870L469.589016,152.382241L471.699354,155.796963L454.595063,166.162445L454.595063,166.162445L452.668232,163.044655L450.687282,159.960968L448.652816,156.912323L446.565454,153.899649L444.425831,150.923863L442.234600,147.985872Z" />
</a><a href="" title="AP028634:2 [352000-390599];"><path  d="M480.288422,171.285663L482.067221,174.884236L483.782944,178.513306L485.435071,182.171766L487.023096,185.858503L488.546538,189.572392L490.004931,193.312304L471.308850,200.415582L471.308850,200.415582L469.977274,197.000880L468.586305,193.609937L467.136369,190.243786L465.627906,186.903453L464.061375,183.589955L462.437255,180.304301Z" />
</a><a href="" title="AP028634:3 [428000-450099];"><path  d="M498.960867,222.640377L499.840558,226.557008L500.651760,230.488395L501.394227,234.433340L481.707773,237.960876L481.707773,237.960876L481.029868,234.358969L480.289205,230.769442L479.486009,227.193388Z" />
</a><a href="" title="AP028634:4 [694000-716099];"><path  d="M464.326685,405.596349L462.018629,408.880664L459.653606,412.124199L457.232335,415.325964L441.386045,403.123706L441.386045,403.123706L443.596770,400.200355L445.756140,397.238867L447.863495,394.240144Z" />
</a><a href="" title="AP028634:5 [879500-918599];"><path  d="M361.525969,488.103864L357.793615,489.581493L354.036042,490.993759L350.254393,492.340232L346.449822,493.620500L342.623486,494.834174L338.776551,495.980885L334.910189,497.060283L329.700608,477.750693L329.700608,477.750693L333.230764,476.765156L336.743183,475.718159L340.236794,474.610022L343.710533,473.441081L347.163343,472.211693L350.594170,470.922233L354.001972,469.573093Z" />
</a><a href="" title="AP028634:6 [950000-982099];"><path  d="M312.728269,501.884503L308.762842,502.508397L304.787131,503.062989L300.802346,503.548111L296.809702,503.963615L292.810414,504.309374L291.261682,484.369429L291.261682,484.369429L294.913206,484.053735L298.558664,483.674362L302.196946,483.231425L305.826943,482.725058L309.447550,482.155416Z" />
</a><a href="" title="AP028634:7 [999000-1016599];"><path  d="M277.585103,504.985472L273.570909,504.995560L269.557151,504.935590L265.545051,504.805579L266.367220,484.822485L266.367220,484.822485L270.030442,484.941191L273.695178,484.995946L277.360312,484.986735Z" />
</a><a href="" title="AP028634:8 [1344000-1376599];"><path  d="M73.264541,385.466306L71.367364,381.928712L69.532215,378.358547L67.759653,374.756898L66.050219,371.124861L64.404433,367.463545L82.717091,359.423236L82.717091,359.423236L84.219765,362.766178L85.780553,366.082385L87.398979,369.370847L89.074550,372.630563L90.806755,375.860540Z" />
</a><a href="" title="AP028634:9 [1400000-1426099];"><path  d="M57.077678,348.551762L55.827214,344.737291L54.643511,340.901577L53.526932,337.045789L52.477815,333.171101L71.827570,328.112745L71.827570,328.112745L72.785459,331.650503L73.804945,335.171005L74.885717,338.673179L76.027445,342.155957Z" />
</a><a href="" title="AP028634:10 [1429500-1494099];"><path  d="M51.218774,328.122151L50.325748,324.208539L49.501159,320.279938L48.745260,316.337544L48.058280,312.382559L47.440429,308.416186L46.891894,304.439634L46.412844,300.454115L46.003423,296.460842L45.663757,292.461032L45.393949,288.455904L45.194081,284.446676L65.177205,283.625226L65.177205,283.625226L65.359693,287.285825L65.606039,290.942682L65.916169,294.594682L66.289988,298.240714L66.727382,301.879666L67.228217,305.510431L67.792343,309.131901L68.419585,312.742975L69.109754,316.342552L69.862639,319.929536L70.678011,323.502833Z" />
</a><a href="" title="AP028634:11 [1496500-1514599];"><path  d="M45.061504,280.318666L45.003702,276.304876L45.015958,272.290688L45.098270,268.277326L65.089724,268.861906L65.089724,268.861906L65.014570,272.526280L65.003380,276.191408L65.056156,279.856173Z" />
</a><a href="" title="AP028634:12 [1645500-1670099];"><path  d="M67.277213,176.251613L69.032247,172.641391L70.850021,169.062348L72.729981,165.515574L74.671555,162.002150L92.091420,171.828050L92.091420,171.828050L90.318679,175.035959L88.602193,178.274317L86.942487,181.542139L85.340064,184.838430Z" />
</a></g>
<text x="275" y="280" style="text-anchor:middle" font-size="25" font-weight="bold">AP028634</text>
<path  style="fill:pink;stroke:black" d="M350,550L375,550L375,565L350,565Z" />
<text x="405" y="565" style="text-anchor:start;fill:black">Selected loci;</text>
</svg>