<svg xmlns="http://www.w3.org/2000/svg" viewbox="0 0 550 650">
<circle cx="275" cy="275" r="240" fill="none" stroke="black" stroke-width="1.0" />
<line x1="275" y1="15" x2="275" y2="55" fill="none" stroke="grey" stroke-width="1.0" stroke-linejoin="round" stroke-miterlimit="10" />
<line x1="495" y1="275" x2="535" y2="275" fill="none" stroke="grey" stroke-width="1.0" stroke-linejoin="round" stroke-miterlimit="10" />
<line x1="275" y1="495" x2="275" y2="535" fill="none" stroke="grey" stroke-width="1.0" stroke-linejoin="round" stroke-miterlimit="10" />
<line x1="15" y1="275" x2="55" y2="275" fill="none" stroke="grey" stroke-width="1.0" stroke-linejoin="round" stroke-miterlimit="10" />
<text x="275" y="10" style="text-anchor:middle" font-size="15">Staphylothermus hellenicus DSM 12710, complete genome.</text><text x="285" y="25" style="text-anchor:start">1,580,347</text><text x="525" y="265" style="text-anchor:start">0.39 Mbp</text><text x="285" y="530" style="text-anchor:start">0.79 Mbp</text><text x="-200" y="25" style="text-anchor:end" transform="rotate(-90)">1.18 Mbp</text><circle cx="367.925761" cy="53.720080" r="2.500000" fill="grey" stroke="black" stroke-width="1.0" />
<circle cx="446.355041" cy="106.959975" r="2.500000" fill="grey" stroke="black" stroke-width="1.0" />
<circle cx="498.052820" cy="186.414226" r="2.500000" fill="grey" stroke="black" stroke-width="1.0" />
<circle cx="514.954211" cy="279.687917" r="2.500000" fill="grey" stroke="black" stroke-width="1.0" />
<circle cx="494.422585" cy="372.230289" r="2.500000" fill="grey" stroke="black" stroke-width="1.0" />
<circle cx="439.660889" cy="449.604672" r="2.500000" fill="grey" stroke="black" stroke-width="1.0" />
<circle cx="359.211985" cy="499.740609" r="2.500000" fill="grey" stroke="black" stroke-width="1.0" />
<circle cx="265.625955" cy="514.816862" r="2.500000" fill="grey" stroke="black" stroke-width="1.0" />
<circle cx="173.502282" cy="492.481524" r="2.500000" fill="grey" stroke="black" stroke-width="1.0" />
<circle cx="97.212321" cy="436.218923" r="3.000000" fill="black" stroke="black" stroke-width="1.0" />
<circle cx="48.657357" cy="354.806063" r="2.500000" fill="grey" stroke="black" stroke-width="1.0" />
<circle cx="35.411995" cy="260.943404" r="2.500000" fill="grey" stroke="black" stroke-width="1.0" />
<circle cx="59.542522" cy="169.273583" r="2.500000" fill="grey" stroke="black" stroke-width="1.0" />
<circle cx="117.284559" cy="94.097154" r="2.500000" fill="grey" stroke="black" stroke-width="1.0" />
<circle cx="199.630311" cy="47.141689" r="2.500000" fill="grey" stroke="black" stroke-width="1.0" />

<circle cx="275" cy="275" r="185" fill="white" stroke="grey" stroke-width="0.5" />
<circle cx="275" cy="275" r="170" fill="none" stroke="black" stroke-width="0.5" />
<circle cx="275" cy="275" r="170" fill="aliceblue" stroke="black" stroke-width="0.5" />
<circle cx="275" cy="275" r="159" fill="white" stroke="none" stroke-width="0.5" />
<circle cx="275" cy="275" r="140" fill="none" stroke="black" stroke-width="0.5" />
<circle cx="275" cy="275" r="140" fill="aliceblue" stroke="black" stroke-width="0.5" />
<circle cx="275" cy="275" r="133" fill="white" stroke="none" stroke-width="0.5" />
<circle cx="275" cy="275" r="110" fill="none" stroke="black" stroke-width="0.5" />
<circle cx="275" cy="275" r="110" fill="white" stroke="black" stroke-width="0.5" />
<circle cx="275" cy="275" r="109" fill="aliceblue" stroke="none" stroke-width="0.5" />
<circle cx="275" cy="275" r="80" fill="none" stroke="black" stroke-width="0.5" />

<g style="fill:none;stroke-linejoin:round;stroke-miterlimit:10">
<path style="stroke:blue;stroke-width:1.0" d="M277.419167,122.876541L278.596630,124.245272L279.913902,120.549345L281.024632,123.540712L282.228709,123.594892L283.517586,122.128052L284.804200,121.081081L286.197264,118.799716L287.481396,118.360967L288.821959,117.376889L290.229202,115.879283L291.591270,115.067578L293.198124,112.201748L293.945068,116.915808L294.465348,122.826330L295.380057,125.152711L297.075173,121.820589L298.465991,120.861322L299.420385,122.739400L300.080784,126.198746L301.338425,125.977228L303.025253,123.473400L304.879460,120.335315L305.377403,124.206185L307.393693,120.551423L307.873488,124.240986L308.974945,124.932393L310.194000,125.092898L311.788022,123.719692L312.168168,127.282316L313.937125,125.292753L314.439346,128.164678L315.232585,129.829126L316.476278,129.836434L317.564788,130.389813L319.153940,129.278662L320.439284,129.223632L322.288376,127.432044L322.424957,130.957283L323.462537,131.653321L324.487082,132.371062L325.747759,132.409087L327.050923,132.348620L328.459155,132.030023L330.699951,129.572881L333.401640,126.075323L334.373034,127.069993L335.939273,126.592517L336.966608,127.440891L335.577103,133.903102L336.107923,135.732077L337.471633,135.646326L338.263576,136.833604L339.246121,137.585053L340.426525,137.912159L342.127398,137.178414L343.338238,137.480967L343.441165,139.978645L344.458457,140.631932L346.748983,138.865561L348.871222,137.500824L349.725535,138.524833L349.932612,140.693006L350.603100,141.988192L352.759334,140.691930L354.461418,140.234854L356.301407,139.586959L355.821723,142.779750L356.648497,143.783410L357.026018,145.484079L359.588589,143.758331L360.596730,144.485047L361.274544,145.705234L363.623687,144.445240L363.164849,147.317925L362.632832,150.222183L363.239617,151.458644L364.094065,152.336443L366.331295,151.336369L368.078556,151.045303L371.381271,148.750348L370.854834,151.488652L369.469084,155.252375L369.325116,157.370581L371.941930,156.057596L375.713060,153.417692L377.491998,153.253837L379.787919,152.516793L377.036952,157.634556L377.824742,158.610606L378.497393,159.709917L379.277914,160.682274L379.537231,162.212466L379.383398,164.159424L380.456391,164.789214L381.239159,165.724068L382.061793,166.615744L383.765218,166.628554L387.056864,165.110539L385.196468,168.640606L385.545629,169.988598L392.891502,164.780500L393.135992,166.299434L393.226985,167.939162L387.554370,174.693318L388.906008,175.102447L389.772134,175.946276L393.149578,174.659504L392.623308,176.705570L391.868017,178.904623L392.220546,180.166930L398.151087,176.978897L399.134073,177.798794L395.324832,182.315466L395.765499,183.496805L398.184576,183.196547L397.628901,185.118436L401.212511,184.025656L402.855415,184.377549L402.093479,186.427434L400.049500,189.321079L401.544732,189.767238L406.340354,188.047302L408.618007,188.059601L413.811561,186.243371L412.067349,188.886400L407.407209,193.275326L405.800483,195.696360L405.495678,197.293475L405.724796,198.558498L406.128883,199.714985L407.325283,200.420805L408.265673,201.280887L413.756851,199.678001L411.464750,202.321096L409.983391,204.482051L409.860886,205.905471L410.122233,207.122575L412.504538,207.289728L413.062614,208.373654L413.089013,209.709518L412.239326,211.441528L413.154669,212.346924L412.651916,213.889878L414.010248,214.605439L416.291081,214.945501L423.055963,213.455474L422.396892,215.099511L416.574842,218.773006L415.566294,220.463544L418.710457,220.554413L425.856332,219.214795L428.243868,219.713047L424.661479,222.346627L420.729170,225.028690L419.141173,226.850696L418.974057,228.175753L422.426797,228.345795L423.521102,229.295519L426.006399,229.841995L430.355977,229.883915L425.261179,232.656100L425.356833,233.916816L422.369421,235.989704L421.233319,237.532131L424.697253,237.910535L427.604551,238.475657L424.669466,240.434070L425.127875,241.583359L424.257876,243.020485L426.125571,243.875070L425.513093,245.246793L424.590980,246.663138L428.016804,247.272716L424.734286,249.095508L427.206299,249.912672L425.130199,251.479500L425.339723,252.669967L427.747827,253.552245L425.730078,255.056409L425.292305,256.329074L426.243198,257.430958L430.249138,258.215629L427.360935,259.752535L428.406027,260.879042L427.613017,262.174977L425.944434,263.523150L425.921839,264.731180L425.985847,265.932344L426.643565,267.102457L428.009517,268.250818L427.385184,269.492029L426.835721,270.720490L426.456669,271.936216L427.011283,273.134064L435.174148,274.307608L429.357390,275.560155L425.794065,276.746362L426.104945,277.951794L431.953718,279.314786L427.132206,280.393145L427.740301,281.631135L430.885724,283.010033L431.529753,284.291618L431.501095,285.539361L430.908115,286.745470L430.071707,287.923303L429.209454,289.087026L427.987210,290.202944L426.938883,291.319855L426.217754,292.459767L425.379845,293.575869L426.212204,294.900647L425.947699,296.088215L425.709055,297.278035L428.739552,298.976700L425.953072,299.773204L423.606214,300.603159L423.513764,301.804908L423.773052,303.075017L425.239191,304.590771L431.772912,307.174659L435.908191,309.358932L435.843631,310.684737L424.561166,309.431639L422.299089,310.146506L424.348318,311.893055L422.818038,312.764639L420.781088,313.481640L420.725764,314.709172L422.295449,316.397867L430.612215,320.073456L427.846255,320.592707L421.210548,319.882432L419.152637,320.508073L421.880783,322.656936L418.242082,322.738526L418.375933,324.053231L420.418335,326.047216L424.306229,328.749302L420.729617,328.774495L417.899359,329.024957L415.525000,329.408296L415.489456,330.683117L415.373250,331.932717L415.477902,333.280177L414.842956,334.324472L414.442830,335.467532L415.519220,337.266385L415.162609,338.446471L412.831418,338.716585L411.612599,339.476483L411.645192,340.825485L411.389386,342.043618L410.930282,343.165278L411.071368,344.595564L411.689139,346.288394L410.060643,346.810863L412.892477,349.728976L413.123980,351.281499L408.608066,350.180087L406.320826,350.274124L406.034870,351.500872L404.583024,352.041335L406.180272,354.409491L407.903083,356.903461L404.592436,356.292088L403.533845,357.059442L403.627652,358.566393L401.143137,358.386111L400.787864,359.596182L401.696515,361.678287L400.935966,362.636140L399.160593,362.874251L398.526661,363.908214L398.276913,365.225121L398.271616,366.735365L397.213440,367.466894L395.415061,367.620998L394.119945,368.141730L393.040458,368.819636L392.610742,370.013818L392.900810,371.807574L394.212483,374.482073L393.434793,375.441371L390.240794,374.318779L389.016597,374.854682L388.563367,376.064610L387.304678,376.556155L387.154501,378.053215L385.923355,378.560688L384.814239,379.171786L384.263174,380.312274L383.256776,381.015639L382.613117,382.074838L381.389255,382.554059L380.144373,382.999835L379.586669,384.150152L378.386975,384.630022L377.570052,385.511218L377.209080,386.893692L377.245158,388.736330L375.926530,389.081159L376.785018,391.911750L376.720177,393.730569L373.145194,391.418733L372.409516,392.428289L370.411399,391.898824L369.820920,393.079771L368.891582,393.845935L369.845319,397.035667L368.455275,397.240967L367.010052,397.354865L365.346758,397.153126L365.011734,398.746342L369.013621,406.432456L368.390419,407.779917L370.208249,412.678080L363.973703,405.874894L359.732414,401.793046L358.863578,402.679054L358.137635,403.794155L357.254034,404.676829L356.226972,405.337484L354.494288,404.846108L354.887526,407.849189L353.296381,407.578947L351.156989,406.330243L349.964890,406.676246L348.951494,407.332603L348.705455,409.390720L348.609026,411.783437L346.157335,409.785069L344.673797,409.555716L343.457161,409.820889L343.304796,412.212781L343.034731,414.438642L343.304167,417.862286L341.315833,416.585711L340.815209,418.476054L340.794711,421.494006L341.976406,427.355117L338.826384,423.381101L334.775292,417.064824L332.619931,415.047179L331.357870,415.136284L330.685141,416.708245L329.178513,416.161504L328.494192,417.761682L326.866335,416.839820L325.884637,417.662106L325.070640,418.988184L324.981636,422.502631L326.336672,430.560264L326.833119,436.364950L322.046944,425.566228L320.582702,425.061466L318.372307,421.977139L317.020641,421.683464L315.924540,422.270586L314.206174,420.564016L313.038584,420.837088L312.468423,423.475602L312.381107,428.256030L310.722869,426.686756L309.307397,426.049368L307.331872,422.782512L306.055414,422.558202L304.864839,422.719981L303.802746,423.537888L302.854798,425.022906L301.895687,426.562158L301.069483,429.015057L299.637456,427.935386L299.208678,433.278990L297.418104,429.798228L295.812376,427.234967L294.779889,428.784826L293.359631,427.304656L292.225509,428.134970L290.911568,427.350477L290.099907,431.623963L289.207586,435.739142L287.982329,436.510392L286.285536,430.914855L284.822112,427.531951L283.628769,427.956857L282.668253,433.305649L281.575702,437.474798L280.057989,430.583266L278.767226,428.440654L277.501242,425.707918L276.334034,429.336701L275.108975,432.524693L273.818991,437.673689L272.586167,433.672379L271.425643,429.284508L270.202236,429.145700L268.977811,429.073942L267.652261,431.159440L266.388086,431.508512L265.099783,432.134834L264.167119,427.593021L263.066893,426.074183L261.938268,425.143722L260.734171,425.147014L259.480666,425.611622L258.270243,425.603320L256.752292,428.159350L255.492928,428.340219L254.165772,428.981997L252.939912,428.826253L251.374969,430.906066L250.103919,430.914308L249.173740,428.871614L248.468175,425.723597L247.616966,423.627473L246.300414,424.109532L244.860136,425.149600L243.687515,424.807831L242.693854,423.649701L241.188592,424.825085L239.484687,426.746079L235.934989,436.127784L234.898352,434.842102L234.774543,430.099787L234.040687,427.915230L233.650862,424.600603L231.774972,426.680060L231.172529,424.280124L230.151521,423.382265L229.366797,421.754738L226.230009,427.553510L222.031128,436.255511L222.746082,429.913280L222.821425,425.721858L222.972155,421.507549L222.810062,418.339351L220.587683,420.825646L219.512847,420.171254L218.195390,420.146735L217.749214,417.927489L217.517138,415.265253L216.474593,414.634423L214.252576,416.763288L212.781456,417.065344L211.917312,415.977177L209.902421,417.431303L208.193009,418.149638L208.760872,414.037133L208.866771,411.018680L207.391452,411.286475L206.358043,410.649429L205.670101,409.346473L203.550295,410.793613L203.456097,408.387870L201.701101,409.089117L200.370632,408.980600L200.439767,406.387933L198.057141,408.109500L196.193721,408.865012L195.929757,406.902974L195.982398,404.469411L195.272542,403.326561L194.400927,402.457252L193.352803,401.870117L192.438239,401.076895L191.368368,400.521434L190.460431,399.723355L188.776164,400.055468L186.952138,400.552820L185.317276,400.745107L185.979506,397.740241L185.134787,396.854341L183.510755,397.013373L183.618623,394.871648L181.531297,395.608435L180.593918,394.837672L179.065848,394.805225L178.705904,393.314107L177.872069,392.419067L177.705715,390.733951L176.545600,390.240994L175.218426,389.931272L173.254668,390.327821L172.986677,388.794724L172.084874,387.980160L169.561200,388.917771L166.056051,390.843247L170.185694,384.691131L169.781330,383.375748L167.385888,384.093814L167.124147,382.633691L167.153358,380.906708L165.064363,381.254222L163.486558,381.077196L162.543251,380.283896L160.901325,380.131140L161.158839,378.232254L160.918429,376.808981L161.779162,374.434903L160.420651,374.025332L158.965928,373.681719L157.302988,373.493987L157.960067,371.372133L156.486453,371.014460L154.067763,371.391370L150.732199,372.444274L153.083553,369.044602L153.023948,367.552937L152.361901,366.527839L152.754419,364.730301L151.622276,364.060410L151.707619,362.516061L148.973241,362.958377L146.075662,363.464549L141.720954,364.902289L147.082389,359.813672L148.004807,357.755920L147.748762,356.488636L145.579583,356.433924L146.362896,354.520273L144.279989,354.378220L141.856190,354.407875L140.979507,353.492774L139.099787,353.149073L136.635005,353.109020L141.684320,348.866924L141.946639,347.344819L140.726595,346.630768L140.972383,345.136362L140.722428,343.912654L138.743112,343.565158L137.997801,342.580370L132.413367,343.930854L134.962002,341.330223L136.707414,339.162152L133.919592,339.097266L133.357214,337.998855L133.481243,336.600493L130.840099,336.391307L132.288659,334.438337L133.568316,332.589998L134.269125,331.004229L132.443045,330.421955L131.197279,329.594005L132.470619,327.817770L130.674824,327.181832L130.179199,326.062633L131.208035,324.417910L129.948303,323.564705L128.785944,322.664307L123.355233,323.104116L122.121400,322.160884L128.750165,318.845497L127.348690,317.989077L127.945536,316.549757L124.543965,316.221845L125.872493,314.585778L121.642739,314.405915L124.275851,312.454264L123.870320,311.281588L125.408803,309.656565L124.400682,308.630627L127.155313,306.783411L127.291672,305.527361L124.200759,304.917874L119.964228,304.479059L122.244954,302.788697L120.048601,301.917167L120.292699,300.609184L119.570579,299.460575L114.471930,298.956501L114.516504,297.646838L120.038320,295.612263L125.464873,293.681612L121.577026,292.929522L121.080167,291.748080L124.508268,290.165263L122.970376,289.100027L108.635939,289.096185L110.481792,287.623060L118.047748,285.787906L121.225077,284.341620L124.281263,282.953630L120.942055,281.901908L122.345818,280.623136L123.848258,279.364583L122.226449,278.195851L123.570651,276.963267L122.917219,275.762325L122.581280,274.552020L114.161950,273.248279L119.526393,272.070152L122.212011,270.905205L123.091855,269.719714L121.626442,268.447366L121.579017,267.222722L123.600828,266.117733L124.643431,264.978617L123.716010,263.707836L119.989335,262.189448L113.850726,260.391104L111.265725,258.843130L116.690670,258.106346L120.246001,257.240099L120.265816,255.994611L121.924883,254.961591L121.616576,253.679361L123.032302,252.643018L124.281114,251.600876L124.647601,250.431868L121.803586,248.714802L123.435737,247.752456L124.361894,246.680626L124.056073,245.378572L120.794005,243.462989L121.970476,242.433768L124.088170,241.627937L124.017160,240.350718L119.745997,238.068575L118.403433,236.431026L120.471928,235.634610L123.723194,235.179266L129.489593,235.457318L128.756691,234.006667L127.312272,232.332292L127.415551,231.087684L130.179263,230.653488L129.104115,229.052240L125.415158,226.579727L109.503545,219.971533L91.072150,212.214427L93.623812,211.470745L111.676693,216.331868L130.103166,221.646335L134.346652,221.935039L134.570127,220.739896L135.029610,219.634305L135.479215,218.525069L130.377219,215.117133L132.737584,214.764899L130.751688,212.566813L129.352212,210.581221L137.085666,212.685832L137.396747,211.504058L137.272476,210.113441L138.289376,209.259144L133.570892,205.600145L128.373502,201.597401L129.322042,200.617746L139.952470,204.686218L140.799942,203.765402L141.605285,202.827522L142.730323,202.070670L143.344337,201.038039L139.258241,197.316114L143.521230,198.361528L143.957676,197.213358L144.319314,196.016057L141.294452,192.729214L143.248721,192.480281L145.755033,192.611995L147.838339,192.510712L147.885729,191.097870L144.412604,187.306748L142.965959,184.803735L134.921690,177.665855L134.238239,175.521991L134.620724,174.109056L142.201632,177.946826L152.336513,183.848594L152.586856,182.514721L151.622065,180.235404L154.040388,180.554186L156.647922,181.065826L156.582078,179.469010L157.653851,178.783297L159.334514,178.613145L159.549331,177.226221L160.694057,176.624244L160.409984,174.782712L155.816355,169.080914L149.876870,162.009022L145.616525,156.280431L139.476309,148.646710L144.337047,151.221871L153.672345,158.220826L158.408667,160.979795L159.726877,160.461601L160.735999,159.644243L165.401394,162.580222L169.809295,165.370939L169.526621,163.312037L168.295079,160.192715L168.756557,158.850677L170.168073,158.547849L171.446644,158.112209L173.788967,158.909335L176.896519,160.650680L177.599052,159.625674L178.272189,158.557068L177.586550,155.816173L177.344457,153.561974L174.527719,148.004549L175.530057,147.195967L180.309882,151.320751L179.821724,148.613623L183.825844,151.905888L184.723128,151.068953L184.720943,148.972331L185.239497,147.567892L184.334654,144.084420L185.859983,144.074803L189.449789,147.174165L190.210760,146.105515L188.370084,140.998670L189.721879,140.760387L190.010867,138.835063L194.729754,144.089313L196.682742,144.965281L198.259853,145.260695L199.161763,144.427070L199.020300,141.755092L199.368398,139.879884L198.659451,136.032034L200.368564,136.545633L200.944349,134.959052L202.105662,134.462201L203.956930,135.325127L204.814489,134.252627L206.954489,135.783025L209.152725,137.520225L210.922785,138.439109L212.048782,138.016813L212.853009,136.882759L213.958666,136.405318L214.620139,134.897566L216.140027,135.380065L216.353932,132.737730L218.246909,134.161701L219.642885,134.411500L220.963333,134.497870L220.856802,130.809085L222.578466,131.947883L223.937281,132.150106L225.188149,132.073894L225.954621,130.588204L227.705552,132.019959L228.491685,130.554309L229.080168,128.396235L230.700194,129.522838L232.224789,130.413747L233.380939,130.095977L234.598363,129.998939L235.617286,129.181155L236.498854,127.805323L237.018760,124.928680L237.550701,121.923142L237.917402,118.024919L239.861190,120.782680L241.445156,122.132658L241.983086,118.657033L242.364745,114.148088L242.379554,107.392694L242.287830,99.490438L246.428626,114.638100L247.748773,114.675524L249.181466,115.434210L250.893210,118.111365L251.106326,110.811418L252.346549,110.145671L253.129355,105.882031L255.176716,111.502690L257.490552,120.301549L258.918781,122.046460L260.212903,122.720429L261.339990,121.662023L261.393783,107.177553L262.513769,104.133950L263.934218,104.983440L265.478143,108.257384L266.608510,104.201692L267.907632,102.700774L269.248568,101.766197L270.469427,95.513890L272.073798,105.724524L273.535173,118.057448L274.788490,121.909790L275.989692,124.365318L277.193770,123.942256Z" />
<line x1="50" y1="575" x2="100" y2="575" fill="none" stroke="blue" stroke-width="1.0" stroke-linejoin="round" stroke-miterlimit="10" />
<text x="125" y="578" style="text-anchor:start;fill:black">n1_4mer:GRV/n1_4mer:RV</text>
<path style="stroke:green;stroke-width:1.0" d="M276.419153,185.759992L277.107702,186.654505L277.942808,182.503525L278.573033,185.173927L279.443572,181.929506L280.452010,177.148411L281.524750,172.566104L282.345950,172.525018L282.982012,174.827343L284.026296,172.065758L284.908026,171.477034L286.138505,167.629797L287.280290,165.141983L287.676902,169.219548L288.059491,172.905210L287.538831,182.806452L288.369618,182.228351L289.474842,179.920567L289.451418,184.895703L290.230163,184.641287L291.091230,183.955845L292.306596,181.426904L294.033278,176.478274L294.075699,180.307988L294.877974,180.224613L295.331657,181.758277L295.297380,185.346307L297.582495,178.810979L298.965957,176.446801L299.176835,178.913852L300.197671,178.118839L300.347168,180.630798L299.675471,185.963719L300.871159,184.453069L300.291347,189.074836L302.119331,185.498018L303.189564,184.563446L303.806685,185.105949L303.918613,187.166170L304.448229,187.895484L304.738521,189.289275L305.464110,189.402026L306.586527,188.433588L306.518929,190.706476L309.832589,184.055521L311.490099,181.949940L311.021393,185.251430L310.680974,188.104911L311.091518,189.056418L311.510712,189.958822L311.754408,191.234919L314.275464,187.389354L315.796655,185.900915L314.422229,190.680458L314.229863,192.801882L316.652429,189.481956L317.303121,189.872193L317.622229,190.914477L320.654273,186.681360L322.066823,185.696776L324.658930,182.568038L325.472900,182.818694L324.201943,186.811895L324.012618,188.769977L323.036791,192.029527L323.995346,191.904768L324.932999,191.833183L324.765980,193.585374L325.810579,193.342761L326.673679,193.409253L329.899410,189.821960L328.567211,193.322557L329.403521,193.468528L333.060201,189.469418L332.125290,192.270027L332.292047,193.423536L330.040816,197.939182L330.003676,199.271650L330.696277,199.586596L332.439913,198.506044L337.265456,193.438593L335.649439,196.851682L333.798809,200.467491L333.227398,202.386732L334.192410,202.374176L338.125379,198.794100L341.079014,196.507371L342.829711,195.716046L342.016238,197.916254L340.822312,200.494401L338.202226,204.596392L336.609342,207.458949L335.402671,209.830220L335.941964,210.288153L338.646435,208.484130L339.228870,208.935192L341.128442,208.054718L344.094648,206.155502L347.116043,204.278825L344.441457,207.976516L342.421257,210.954042L346.769808,207.900742L348.510798,207.360450L347.234066,209.588202L343.603635,213.861521L342.016184,216.225639L345.357735,214.277982L349.255333,211.937423L349.912109,212.398096L347.673641,215.243695L344.475430,218.793400L348.335836,216.628940L349.388683,216.751128L344.400993,221.541386L345.308542,221.727697L348.803277,219.998020L345.987850,222.969043L346.154392,223.711708L346.385476,224.402794L349.685912,222.950730L348.499142,224.641325L350.778968,223.959940L353.808474,222.825560L356.484537,221.980962L357.059002,222.531169L353.851632,225.460865L350.984928,228.100413L353.424570,227.451599L352.164336,229.050797L355.694866,227.813568L354.769172,229.202132L352.237384,231.468622L355.678209,230.370907L359.233320,229.275252L357.243854,231.198262L354.047289,233.704159L358.575701,232.180886L356.436530,234.091100L361.638837,232.337123L360.487265,233.745500L359.296121,235.143575L358.929223,236.130579L358.334305,237.207933L358.233557,238.048732L359.367083,238.345775L360.566705,238.630644L367.691807,236.469480L367.233784,237.517196L362.454393,240.267151L360.991916,241.637134L363.944706,241.302753L368.044803,240.592936L368.674423,241.204367L366.622016,242.765866L366.927001,243.477741L359.549762,246.756771L360.194395,247.292485L362.906888,247.181272L359.870717,248.882687L364.575646,248.212675L366.465170,248.438097L368.732053,248.586120L367.498988,249.725771L362.175512,251.923689L359.727886,253.291040L365.388977,252.604941L362.248437,254.117976L363.000115,254.676510L362.086458,255.615612L366.321986,255.433643L370.138485,255.405840L370.390018,256.143441L364.743749,257.999936L365.412522,258.616873L365.887043,259.276262L370.465588,259.264931L364.895105,260.916372L364.556255,261.698165L368.454919,261.877730L363.459363,263.295652L363.612059,263.991657L368.133154,264.181264L367.953569,264.950558L366.482442,265.844928L369.254191,266.323943L366.938237,267.273857L366.085190,268.074465L369.116342,268.596263L363.906585,269.660596L366.961544,270.210676L365.605793,271.003419L368.136659,271.633570L366.127389,272.431562L366.027535,273.158624L365.158707,273.893303L366.863053,274.602900L364.263285,275.323932L368.606369,276.084065L370.540254,276.866353L371.629088,277.656412L367.309159,278.272395L368.847154,279.074322L371.525669,279.959875L374.338195,280.896723L373.363473,281.624159L370.811180,282.218017L372.388973,283.116163L363.864509,283.117769L365.950447,284.038106L368.902854,285.086167L369.123798,285.867636L371.136206,286.875352L370.157294,287.523406L370.727536,288.373658L368.996092,288.894641L369.736202,289.774738L369.760564,290.551342L366.170689,290.707672L362.435969,290.781117L366.490410,292.265189L368.333452,293.382745L374.941972,295.511189L375.440103,296.447104L377.223351,297.679253L365.229191,295.772364L368.932232,297.412832L371.161214,298.754409L367.320620,298.586126L361.777919,297.906652L363.389494,299.085470L365.847616,300.533019L368.267998,302.015302L364.413371,301.671230L362.390418,301.826344L363.530026,302.948368L370.836035,306.094958L366.197486,305.393538L365.480757,305.956196L364.638212,306.466329L369.822378,309.135459L365.499552,308.394500L360.571061,307.351250L363.443599,309.243483L360.958032,309.069540L361.881341,310.237417L363.659098,311.782069L360.588057,311.308345L361.277741,312.413197L361.828680,313.475221L360.610735,313.752839L356.851145,312.838074L356.691798,313.555739L357.969434,314.968499L357.573729,315.589973L356.314946,315.777197L356.383894,316.624907L359.809539,319.231282L356.974299,318.585200L362.203554,322.258795L365.092194,324.755065L356.521695,320.871543L352.476064,319.409886L354.050791,321.151490L354.218409,322.097928L356.367003,324.255213L362.563216,328.962107L359.765391,328.172514L354.755426,325.917996L355.445213,327.263383L353.904125,327.159065L351.224982,326.263630L353.040452,328.390678L354.351752,330.219184L351.609884,329.220394L350.498996,329.340341L349.736263,329.698712L350.160214,330.932175L348.953942,330.953677L349.101687,331.997622L348.005225,332.083916L348.553595,333.461071L345.261431,331.761880L347.413664,334.458380L346.352587,334.543288L344.939762,334.314036L342.146959,332.869733L343.571238,335.054056L344.570184,336.913306L343.413153,336.865426L341.739456,336.323580L342.803843,338.303284L340.856211,337.472401L340.164133,337.807831L338.814732,337.493637L338.553613,338.235719L340.372705,341.088438L338.873918,340.608575L337.102624,339.812379L337.157861,340.911278L334.629106,339.245703L334.433137,340.064602L336.703471,343.638227L333.629892,341.271634L332.924841,341.533314L335.422501,345.526792L334.289459,345.328494L333.093814,345.032759L334.104896,347.415800L335.701331,350.590907L333.775114,349.396270L334.828679,351.980423L331.937644,349.475332L330.758906,349.148132L331.252313,351.055811L333.862506,355.923003L338.462700,363.721809L336.667143,362.676641L336.497547,363.929944L330.471802,356.595639L327.582034,353.683422L327.527982,354.971820L327.509038,356.345315L327.891580,358.385726L327.131486,358.650622L324.822452,356.380080L322.617761,354.186091L320.572761,352.168173L319.206688,351.232991L319.370943,352.937807L319.124185,353.958084L318.632077,354.556475L317.276717,353.560401L316.116208,352.881655L316.430853,355.012262L316.169248,356.079533L315.541926,356.441872L314.972127,356.923732L315.824444,360.386788L314.840027,360.059303L313.485742,358.898274L313.394697,360.487008L314.181996,364.129560L311.790096,360.528187L310.072832,358.355773L309.547732,358.969425L309.489194,360.758875L310.069987,364.246542L307.838542,360.560451L308.365245,364.042910L306.750272,361.828052L305.019125,359.162762L303.836561,357.925325L304.998542,363.529793L306.561994,370.639081L306.327630,372.528018L304.815711,370.420419L303.719620,369.547013L301.742019,365.621543L300.254894,363.158468L300.686005,367.433367L298.743956,363.156157L297.575469,361.552660L297.654053,364.770905L297.587437,367.604560L296.094779,364.572832L294.876586,362.513073L293.905830,361.414762L293.852901,364.578588L293.180734,364.927078L292.025231,362.800374L291.795821,365.460463L290.705956,363.505960L290.290749,365.335720L289.739366,366.493647L289.053863,366.885698L288.400920,367.534084L287.423291,365.871858L287.091393,369.008253L286.554792,370.854247L285.635668,369.551208L284.638686,367.288729L283.860676,366.907460L284.264600,379.816106L283.296790,378.218589L282.089162,372.940032L281.066008,369.201747L280.120247,365.763458L279.766838,373.407980L279.052362,375.127225L278.132068,371.342112L277.257822,366.962007L276.511477,366.071358L275.829460,370.961677L275.065773,370.076194L274.248176,378.557161L273.475853,375.189216L272.716149,373.580785L271.915258,374.108605L271.136787,373.837899L270.494483,370.754482L269.669175,371.879691L268.770579,373.872487L268.420232,367.683245L267.841638,365.625494L267.194666,364.721787L266.699646,362.360740L265.552200,366.688763L264.165970,372.529261L263.301003,373.193743L263.093726,368.592244L262.234629,369.346539L260.932976,373.090159L259.332889,378.390240L258.894134,375.864668L258.614618,372.623320L258.360879,369.524526L257.587751,369.508832L255.669294,375.433242L254.976946,374.750073L254.802167,371.632177L254.614215,368.800753L253.035376,372.329624L252.404542,371.543487L249.092229,381.859354L249.009728,378.595236L249.625970,372.836220L250.055380,368.126863L250.339029,364.223047L248.604006,367.625641L248.305421,365.924026L247.540810,365.849386L245.227932,370.745898L242.239194,377.476459L240.727837,379.336284L240.267880,377.967716L241.608232,371.454711L242.350948,366.937934L244.081530,359.917391L242.123029,363.110666L242.118168,361.028864L240.777959,362.443917L242.633247,355.804110L240.595514,358.951177L238.056744,363.142066L235.260968,367.737032L234.563513,367.329762L235.492084,363.292282L233.239798,366.369910L230.817345,369.671696L234.948464,359.068902L234.534302,358.227311L234.116067,357.414535L231.542074,360.881042L233.352956,355.703038L227.295718,365.664291L232.070867,355.037926L230.369708,356.644289L230.662674,354.597907L231.239883,352.112840L225.223977,361.111456L223.406876,362.639135L224.675901,358.949387L226.087605,355.142384L225.874593,354.070557L225.845849,352.731079L226.627303,350.165468L225.263809,350.950227L225.166037,349.795031L224.384641,349.674114L223.468723,349.738823L223.930691,347.822845L220.017224,352.091939L220.009181,350.820589L218.315338,351.862581L218.194017,350.758517L219.741741,347.486307L218.365631,348.078821L216.589982,349.144805L214.156918,350.982525L215.682988,347.881304L218.807380,342.931901L218.139461,342.637014L215.301657,344.876982L212.999379,346.414089L211.171151,347.349679L212.932474,344.235634L212.462976,343.653105L214.029853,340.873126L210.896461,343.163144L213.508599,339.352488L208.535274,343.458995L207.621947,343.304506L208.431690,341.418877L210.068962,338.763066L208.930767,338.856773L210.144867,336.693466L211.147237,334.780029L208.730960,336.060654L209.204343,334.664131L204.952353,337.512109L206.656862,335.021578L201.457374,338.559298L200.973471,337.956208L197.902361,339.518663L199.997849,336.757702L198.450152,337.017318L197.051059,337.130706L194.054769,338.472993L199.107806,333.542152L196.459849,334.594663L196.465695,333.612089L201.654561,328.836779L198.532378,330.198277L202.565404,326.415914L199.820423,327.470393L197.718147,328.028810L194.232561,329.481015L198.230253,325.900921L200.104660,323.805255L200.312251,322.828240L200.963636,321.585166L197.217534,323.083195L196.536558,322.646020L190.667604,325.296415L189.322247,325.179524L191.187164,323.196359L190.488862,322.707747L198.086800,317.615703L193.904041,319.094132L190.536759,320.058564L193.488039,317.655033L195.957121,315.565632L190.512444,317.514568L192.546446,315.672644L186.962500,317.560091L188.362666,316.036531L190.561229,314.176165L177.286357,319.394381L174.725549,319.599346L176.673473,317.799715L175.070728,317.555444L180.677893,314.284539L185.196266,311.567456L188.150153,309.562130L192.490247,307.077367L191.194916,306.816194L186.359525,307.847910L184.322502,307.785118L187.932634,305.699243L188.829502,304.614770L189.515347,303.621085L187.424502,303.548729L180.728612,304.904374L179.383792,304.496247L186.672047,301.480598L189.870630,299.785646L190.612499,298.843412L189.378035,298.458650L186.474485,298.499027L184.413940,298.276541L185.090454,297.342112L180.140597,297.772825L179.888979,297.034861L186.400319,294.785367L186.241696,294.081117L185.912077,293.412091L180.836476,293.681609L176.954249,293.642772L180.254233,292.235839L181.752211,291.198410L183.525381,290.142080L183.387156,289.417495L181.077142,289.016633L178.742934,288.583442L182.824063,287.260803L185.284499,286.208271L182.853168,285.768587L185.951404,284.689414L184.783983,284.091194L180.371829,283.776314L174.780876,283.491662L174.791787,282.688719L180.649625,281.485048L182.920026,280.593735L185.830846,279.705576L184.970934,279.033367L189.145050,278.162534L185.614027,277.581065L183.311312,276.918025L182.959305,276.193299L182.210467,275.465114L180.343553,274.721792L177.644040,273.939675L182.460573,273.256125L184.032636,272.562029L182.156339,271.772779L169.460548,270.491000L166.509340,269.500348L171.287147,268.915388L179.247185,268.618000L181.182849,267.997285L182.929960,267.391052L178.762595,266.275653L178.471929,265.474862L185.351884,265.433386L185.909908,264.775830L186.439392,264.122450L184.724056,263.182362L177.514565,261.449306L181.624986,261.262979L181.302052,260.453383L183.448656,260.040176L185.533780,259.649528L186.558452,259.100375L186.559911,258.373610L185.797816,257.494850L185.126333,256.619736L185.722418,256.000826L186.081048,255.336804L187.057684,254.817984L184.560933,253.486586L177.690428,251.033125L177.689015,250.210427L183.664184,250.957588L185.638858,250.715969L186.961373,250.321970L186.777645,249.512130L184.872886,248.183555L185.369656,247.553702L182.150787,245.758508L181.101525,244.605277L175.898387,242.048177L176.096070,241.238175L184.081507,243.154672L184.479683,242.483772L183.210266,241.201341L187.170159,241.864016L191.383387,242.691731L193.109189,242.607851L191.254692,241.101750L188.039746,238.993022L190.699902,239.306631L191.113389,238.692411L188.064260,236.549061L193.329393,238.098572L191.889057,236.649107L190.068383,234.986790L194.935786,236.499042L190.941324,233.752056L187.859500,231.376649L189.908517,231.552821L193.924242,232.787135L192.954910,231.449728L196.748733,232.662582L195.409576,231.116349L194.978616,230.045318L191.396790,227.154575L196.656493,229.333870L194.404034,227.158285L197.152149,227.948440L193.707092,224.979402L194.590755,224.637314L196.330457,224.851612L194.990193,223.097941L197.557890,223.884118L192.946521,219.898692L192.400370,218.573809L189.363046,215.494715L187.534086,213.186799L185.147435,210.422732L190.928660,213.558053L197.933091,217.731473L201.255083,219.284420L199.422268,216.949967L202.837952,218.655545L203.422935,218.190415L201.118910,215.398096L205.120186,217.702804L202.971695,214.977066L203.688062,214.606780L206.548081,216.087846L202.864496,211.912265L197.052144,205.727361L194.542852,202.344114L193.355683,200.084884L191.309953,196.972958L194.362510,198.611419L198.060365,200.944773L200.336643,201.983156L201.767419,202.234186L202.720188,202.029577L204.880578,203.075638L212.597180,209.964191L212.137330,208.433407L213.970487,209.336368L214.386988,208.735578L216.593647,210.119523L215.028520,207.306067L212.859710,203.724099L216.058003,206.297267L216.841515,206.109541L218.393328,206.855722L218.045257,205.316766L217.909983,204.006601L216.108532,200.562071L218.121506,201.919623L218.237884,200.860311L219.051208,200.706102L218.031291,198.086619L215.012540,192.649909L216.663196,193.563046L218.111938,194.236575L219.742013,195.210624L220.859675,195.480913L223.128755,197.495981L221.518036,193.698054L218.837580,188.126559L219.089394,186.988937L219.771003,186.515124L225.246374,193.858086L226.531418,194.524782L226.280433,192.633169L230.205759,197.876434L231.838310,199.307738L229.223704,193.218070L227.204157,187.993931L226.540443,185.099046L226.819657,183.889858L227.750321,183.904230L228.957175,184.477086L229.820658,184.399054L231.282798,185.557265L234.763373,190.991628L236.558473,193.073699L236.708556,191.677005L237.069459,190.702085L238.900513,193.035919L238.320209,189.890032L239.563413,190.941959L238.151954,185.614867L239.693031,187.382332L240.581362,187.588207L242.060296,189.352627L242.761533,189.144449L242.808910,187.154355L244.202929,188.844024L244.267923,186.819860L243.349063,181.805314L247.293980,191.239476L247.057339,188.215583L247.398571,186.879611L248.976046,189.539334L249.569568,189.041549L250.016553,188.015771L250.626836,187.524963L251.409551,187.653759L252.018879,187.140313L251.363152,181.606185L251.895258,180.557609L252.265158,178.760690L252.903495,178.022788L254.442251,181.344119L254.386960,177.392337L253.808736,170.552973L254.696004,170.675917L255.597646,170.901170L257.400657,176.220568L258.073525,175.418124L259.181384,177.236512L260.187903,178.601862L260.333457,174.216885L261.597734,177.468650L261.698149,172.141489L262.724922,173.758340L264.375990,181.135373L265.289324,182.638700L265.929610,181.591868L266.657381,181.351437L266.555085,170.838323L267.285796,169.436079L267.706805,162.946106L268.783093,166.132231L269.671184,166.538603L270.463593,164.794304L271.363979,165.482621L272.091436,159.772446L273.049735,162.180699L274.072172,175.591920L274.868289,179.668064L275.593931,184.601610L276.288241,186.294844Z" />
<line x1="50" y1="625" x2="100" y2="625" fill="none" stroke="green" stroke-width="1.0" stroke-linejoin="round" stroke-miterlimit="10" />
<text x="125" y="628" style="text-anchor:start;fill:black">n0_4mer:PS</text>
<path style="stroke:red;stroke-width:1.0" d="M276.943609,152.780901L277.888782,153.915134L278.853697,153.873048L279.892426,152.004361L280.930935,150.776734L281.948841,150.283581L283.087675,148.029290L284.096588,148.103863L285.140658,147.736773L286.338911,145.693116L287.650879,142.818629L288.762298,142.337603L289.983783,140.956854L290.824018,142.958927L291.712075,144.350513L292.066493,149.516163L292.698230,152.192158L294.095692,149.568062L294.393967,154.079010L295.202829,155.139062L296.152001,155.322005L297.452777,153.602597L298.830937,151.644213L299.130542,155.215682L300.170993,154.988242L301.191220,154.886110L301.702783,157.053591L303.354362,154.225997L305.207999,150.778172L305.632200,153.258253L307.189096,151.237886L308.008032,152.108891L307.739228,156.867337L309.286859,154.998810L309.596018,157.463020L311.045511,156.038927L311.628593,157.489716L312.730079,157.259635L313.872798,156.932556L314.553544,158.005109L315.548307,158.133907L317.035091,156.889916L317.796818,157.710528L317.479519,161.393719L319.663341,158.388390L321.263955,157.026524L321.180740,159.939059L321.925225,160.721405L323.227852,160.156553L323.585846,161.833278L325.090863,160.840491L328.411344,155.856853L327.815496,159.652003L328.468321,160.637506L328.625779,162.638197L328.828921,164.481977L331.470934,161.361890L331.024378,164.474595L334.013220,160.838345L335.257981,160.668255L337.211911,159.202721L338.251074,159.481245L337.986273,162.105271L336.742628,166.373520L337.004835,167.903537L337.084357,169.706038L338.596908,169.075010L339.120204,170.102590L340.405755,169.886980L342.701088,168.102592L344.027538,167.901757L343.791175,170.109580L346.480062,167.876885L347.466836,168.246481L347.483923,170.027352L348.190297,170.786483L346.991947,174.206467L346.896420,176.013938L350.644080,172.577039L353.141540,170.937246L356.240030,168.583833L356.622679,169.827139L355.554918,172.889767L354.388860,175.997043L352.165284,180.322451L355.333728,178.019924L357.623533,176.854795L360.034603,175.605805L360.115209,177.098367L358.841782,180.097801L355.525545,185.299222L355.852028,186.363588L356.971654,186.558967L358.273666,186.575008L365.228907,180.703214L366.386398,181.001386L367.086915,181.775596L364.580892,185.743425L366.750564,185.024074L365.109908,188.027746L366.380066,188.194678L368.664678,187.430720L368.482023,188.984310L367.876599,190.895288L365.792092,194.087517L364.623794,196.398371L366.427009,196.094212L369.635110,194.629557L369.492352,196.035448L370.064023,196.833078L368.734199,199.167715L369.883257,199.478446L371.334176,199.567060L370.724803,201.264524L371.702598,201.729101L374.341877,200.965347L370.116674,205.283682L371.979333,205.097015L372.092510,206.181943L374.214700,205.856401L374.720015,206.675830L376.985398,206.308897L377.423892,207.191185L379.614077,206.931408L380.532077,207.522397L379.028090,209.643565L377.785074,211.558766L377.964829,212.572970L378.124208,213.592419L379.490825,213.898849L381.434985,213.892491L381.448120,215.005304L382.519392,215.523062L386.094520,214.694067L384.712467,216.568926L384.268444,217.916039L390.445552,215.852709L387.866556,218.302512L387.549389,219.578194L384.431647,222.190404L384.411968,223.268440L389.362369,222.036337L388.741405,223.418327L384.017110,226.602207L384.335292,227.498057L386.923734,227.427827L393.263226,225.839845L392.199300,227.371483L390.687690,229.054188L391.259654,229.893955L390.560029,231.219375L392.538147,231.535536L392.001908,232.788334L390.590337,234.333416L391.318980,235.113601L388.560158,237.066061L389.454018,237.776466L392.559846,237.797393L391.732152,239.077950L393.250650,239.637502L394.966106,240.161295L397.561067,240.462047L396.701634,241.746502L395.896219,242.997450L395.485315,244.129279L396.116190,244.991869L393.657756,246.600476L393.428081,247.649219L392.663311,248.809576L395.318368,249.220971L398.066215,249.654010L398.970701,250.493654L397.173299,251.856841L396.539688,252.976501L394.741578,254.284339L395.854532,255.080211L394.641150,256.256138L394.501333,257.250408L396.158789,257.987751L393.961029,259.259876L393.423367,260.288176L396.617234,260.872434L395.673017,261.953739L396.770413,262.813870L397.350101,263.737726L399.558520,264.532571L397.288826,265.701940L397.927725,266.635918L397.821487,267.623792L398.533227,268.566434L400.063922,269.483486L397.392710,270.576109L396.816521,271.566585L396.971516,272.532665L394.694336,273.530754L397.408838,274.470858L395.040892,275.435623L397.439363,276.417983L399.992518,277.441695L402.981643,278.518320L401.077459,279.469495L395.923966,280.249847L399.670194,281.406054L403.461729,282.625498L401.365399,283.509912L405.642093,284.842033L404.710560,285.809766L399.635253,286.385424L398.300089,287.252818L399.818434,288.406830L402.608264,289.733789L403.799088,290.910078L401.848455,291.694197L399.639203,292.412775L397.215943,293.066141L396.690804,293.978486L398.366109,295.245854L400.281987,296.584660L399.193867,297.415466L402.828843,299.122627L404.938205,300.592335L407.486301,302.190294L409.300142,303.677281L406.890351,304.261168L406.171165,305.197934L400.307987,304.899288L402.998048,306.618964L400.405490,307.038668L393.719396,306.338201L392.481130,307.012722L393.393004,308.274741L394.677313,309.664824L393.047007,310.212394L391.757045,310.841054L395.429579,313.018854L398.281997,315.000075L396.254127,315.410564L395.359878,316.178745L392.604848,316.283653L403.084279,321.109534L399.157437,320.814321L395.138124,320.419777L391.074740,319.941675L389.106145,320.226069L388.864845,321.181413L388.841255,322.229410L387.095139,322.553235L389.472591,324.639519L389.589795,325.776629L390.135620,327.117672L388.898625,327.652955L386.289279,327.524740L385.123026,328.049079L384.259147,328.707468L384.612717,329.967747L381.260413,329.348344L384.185807,331.944399L382.490389,332.151939L385.007102,334.616872L387.140214,336.931488L381.697208,335.037583L379.373750,334.827850L378.510564,335.431612L378.129088,336.313607L380.634419,338.945404L385.200424,342.912616L382.077469,342.168666L379.311453,341.595220L379.640261,342.982343L377.956986,343.059055L375.837268,342.816144L376.582415,344.496700L376.417441,345.574224L374.293262,345.274480L373.710990,346.047155L373.137877,346.826116L372.669197,347.682744L370.973970,347.614067L371.878428,349.517063L370.996570,350.061205L370.847923,351.180807L369.454478,351.306641L369.469377,352.568180L367.276594,352.004241L367.516697,353.460929L365.228792,352.762511L365.012950,353.832509L365.085312,355.170544L363.348275,354.892586L364.873943,357.580714L364.626624,358.677552L362.526588,358.029315L362.332760,359.174852L361.781538,359.984982L360.561185,360.133209L359.476178,360.401066L359.388826,361.680618L357.591566,361.195325L357.806268,362.806544L357.007420,363.356588L355.140228,362.733751L355.968924,365.068894L353.469203,363.696774L353.995645,365.735546L354.983705,368.359164L353.491732,368.106016L351.880885,367.680789L353.946346,371.725707L356.007085,375.877507L356.849189,378.602935L359.213936,383.356468L358.334448,384.002766L354.663471,380.936395L350.487856,377.063183L350.352036,378.592481L352.799211,383.764468L350.645118,382.550138L351.127440,385.085837L345.656350,378.931184L344.385591,378.828157L344.837349,381.324663L344.625101,382.860970L344.396151,384.405853L343.649932,385.156260L340.871179,382.594098L337.985880,379.742548L336.963048,379.921780L336.359377,380.812244L335.016998,380.420190L334.130999,380.812047L333.980704,382.542369L332.283472,381.446595L330.943832,380.967899L331.150988,383.440142L329.730972,382.788261L328.833067,383.141527L327.905533,383.431025L327.863233,385.566642L326.517321,384.990573L325.233576,384.508356L325.429070,387.281920L325.389415,389.623726L324.402112,389.848114L322.328276,387.482649L321.041410,386.905194L320.152470,387.273571L320.768349,391.471868L318.709289,388.884061L318.028787,389.832317L316.167584,387.581750L314.932202,386.955445L314.660131,389.050672L314.670897,392.074232L314.934477,396.009361L314.727863,398.679313L312.558461,395.199855L311.481310,395.099042L309.908080,393.294141L308.540170,392.080277L308.440173,395.337426L307.182428,394.486370L306.128523,394.344430L305.216889,394.740050L304.183640,394.647844L302.773174,392.930693L302.030226,394.009278L300.641171,392.200658L300.465866,395.999755L299.336555,395.375516L297.990988,393.566223L297.138973,394.238094L296.023745,393.472682L295.336172,395.143411L294.341337,395.060079L293.428687,395.488777L292.664893,396.977047L291.412672,395.052731L290.591023,396.217206L290.084060,400.131737L289.093492,400.291305L288.554307,404.780119L288.011337,409.960246L287.359231,414.827572L286.188761,414.196983L284.825560,410.744620L283.325939,404.297211L282.021603,399.467607L281.188692,402.761152L280.178422,402.950308L279.060489,399.900256L277.985243,396.590173L277.033808,397.543474L276.076931,399.591932L275.086724,400.360928L274.057156,404.868583L273.051688,403.071564L272.050357,402.319174L271.057165,401.677988L270.056853,401.467336L269.177725,398.739171L268.064214,401.047429L266.983759,402.232630L266.285547,397.752638L265.294945,397.866840L264.429583,396.506223L263.587017,395.120982L262.496082,396.347690L260.734700,403.417978L259.610996,404.165254L258.230197,406.823237L257.122881,407.126545L255.652142,409.913712L254.169769,412.462652L253.993187,406.557357L253.249556,404.588097L252.681444,401.788600L251.793179,400.960152L250.233401,403.675580L249.051947,404.267001L248.368432,402.412994L247.376099,402.105367L246.742816,400.213215L245.588155,400.667823L242.754853,407.998534L242.555160,404.322650L241.534160,404.036315L240.841495,402.525471L239.411263,403.759554L238.886508,401.725116L237.617007,402.329680L237.164031,400.181207L236.763288,397.967887L234.025762,403.168236L232.431122,404.594345L231.275831,404.625771L230.892127,402.409010L231.308252,398.033557L230.209141,398.017823L228.719843,399.031361L227.256365,399.911857L226.399348,399.184039L225.762880,397.921246L226.554661,393.212585L226.730285,390.165604L224.836365,392.064418L223.796512,391.914357L223.032256,391.137503L221.558287,391.928663L220.174470,392.476549L222.017630,386.210957L221.115827,385.825591L222.032177,381.773449L218.882145,385.899446L220.225967,381.140326L215.935348,387.255223L216.350586,384.347129L213.989371,386.609608L212.625163,386.980288L213.622990,383.156831L211.313185,385.176828L210.315157,384.877505L210.641845,382.360642L209.548660,382.241250L207.854862,383.074495L208.909680,379.513492L207.138133,380.449340L208.247960,376.934476L208.926390,374.168867L208.185630,373.572922L206.091604,374.941874L206.108492,373.236606L202.215386,377.052086L202.572288,374.862340L200.445508,376.093495L199.940947,375.101472L200.852838,372.264265L200.972171,370.522676L197.221792,373.730497L194.923631,375.001586L193.782959,374.789312L197.025426,369.264355L197.838613,366.785373L195.206588,368.398285L193.094555,369.341035L191.302456,369.870744L193.938298,365.423424L191.897041,366.230375L193.600074,362.945787L190.954650,364.367848L190.978196,362.931191L188.732332,363.856122L187.852518,363.345766L186.310089,363.490818L186.512251,361.896041L186.945847,360.105483L187.102644,358.612387L187.112911,357.281368L186.373878,356.660591L187.286808,354.539161L183.268061,356.863662L182.474082,356.259827L177.284903,359.450384L175.389885,359.713888L174.152451,359.393622L176.580057,356.040202L177.778951,353.764215L177.219418,352.937898L173.462176,354.620621L176.299940,351.135814L175.852387,350.231184L174.443894,350.047502L177.325249,346.694901L174.411254,347.610149L176.585752,344.856931L175.432275,344.491715L174.299085,344.098366L172.443909,344.178372L174.429657,341.681516L175.713582,339.699605L174.379168,339.435164L173.981350,338.562962L172.978165,338.067372L172.935107,336.977729L169.884159,337.691804L168.594251,337.319443L167.108139,337.042941L164.610397,337.316510L165.367890,335.744443L165.625919,334.469735L166.825934,332.707566L167.813802,331.090305L167.493815,330.173298L166.073481,329.812378L165.787172,328.872444L163.162351,329.065830L162.979456,328.059510L162.964615,326.979875L152.703651,330.563078L148.756496,331.149673L151.467855,328.771254L150.150711,328.167774L155.099210,324.937893L159.626623,321.979237L162.650544,319.709767L163.373063,318.397273L161.496869,318.090913L159.853583,317.670339L158.510386,317.117679L160.637230,315.323379L160.758675,314.262051L157.366615,314.384790L158.754856,312.894744L157.137381,312.387885L153.772511,312.396964L158.724240,309.859311L159.960635,308.494021L161.018358,307.205140L159.617776,306.612346L157.862205,306.094134L156.034857,305.568688L155.844193,304.609675L152.030277,304.521249L152.586799,303.360098L155.226856,301.746774L154.411550,300.923910L154.669402,299.869117L154.469312,298.912733L152.374909,298.316376L155.577516,296.724947L153.390007,296.125311L153.417490,295.125934L152.654763,294.253979L151.266187,293.465488L151.452075,292.434627L153.199173,291.201364L153.857541,290.134480L152.925816,289.265998L156.646814,287.878059L153.711789,287.222383L153.818070,286.239050L148.544623,285.714685L149.868993,284.600981L152.328097,283.431691L153.378109,282.388366L155.294046,281.317044L156.286604,280.318446L155.753441,279.392540L154.939442,278.466809L152.829768,277.555664L152.268270,276.591205L152.773249,275.612670L153.166956,274.641916L147.917344,273.615916L151.741020,272.677226L153.354212,271.739832L151.793545,270.717377L142.066466,269.320633L137.535479,268.031593L142.498832,267.226439L146.353225,266.425592L151.873695,265.809586L154.641854,265.053237L151.561195,263.809725L151.728899,262.835930L155.679641,262.266974L156.276396,261.375025L156.170838,260.404683L157.160378,259.574119L150.050943,257.631801L153.868780,257.179578L153.382810,256.118918L154.612690,255.328274L155.569506,254.508305L157.518338,253.879674L157.246653,252.862832L156.854630,251.815003L156.281574,250.720631L157.189247,249.928679L156.450225,248.784358L155.801398,247.644931L156.833352,246.890820L151.682749,244.627560L151.023513,243.417500L155.398645,243.517224L156.934531,242.915523L159.027361,242.491812L159.349710,241.588065L156.057984,239.609961L158.949132,239.463299L156.510324,237.683422L147.118482,233.605043L130.115181,226.825014L115.009321,220.385614L117.476847,219.825565L128.976406,222.546179L146.389660,227.643320L160.587085,231.834893L163.084619,231.757490L161.544341,230.122284L161.875738,229.209798L162.324460,228.345287L165.116417,228.474369L163.948874,226.935135L163.251622,225.574642L166.034768,225.765975L165.786857,224.604452L164.524691,222.952577L166.393172,222.773584L165.861321,221.445194L163.584596,219.224404L165.365253,219.021184L167.453218,219.004744L165.140385,216.685528L168.963445,217.629504L167.853809,215.922968L168.458049,215.146504L165.000366,212.048119L167.539661,212.361780L167.895664,211.422933L168.302708,210.511719L169.608608,210.151287L171.311679,210.056941L170.394323,208.318463L169.256360,206.404501L170.521516,206.038685L170.121318,204.570900L169.753436,203.103034L169.345729,201.585578L168.715082,199.887186L164.675753,195.709681L170.818357,198.860818L174.489663,200.310630L178.426072,202.036702L176.236700,199.141507L179.267727,200.251806L179.040660,198.838588L179.132401,197.660975L179.638965,196.809753L180.143385,195.953682L179.637013,194.238237L181.896802,194.872080L180.678725,192.509198L179.108434,189.780698L177.519911,186.971747L176.224044,184.365250L174.541992,181.339625L176.890979,182.060489L179.876590,183.442694L181.624441,183.683604L183.731268,184.312994L184.807990,183.946234L186.037827,183.747857L191.303584,187.772146L191.470717,186.549098L194.467182,188.352131L193.424932,185.819071L195.167833,186.318738L192.904911,182.333630L193.557887,181.584600L196.081959,183.013210L195.053737,180.301269L197.378619,181.557782L199.721980,182.898523L199.702861,181.365419L198.618841,178.455365L200.327888,179.057478L200.510408,177.705614L201.633158,177.576830L202.313187,176.865626L200.222094,172.345754L201.522334,172.426721L202.643346,172.275967L204.147340,172.692807L205.763499,173.308270L206.741566,173.010873L206.204940,170.419468L204.433123,165.845383L205.887872,166.207907L205.779801,164.099187L210.155038,169.246012L211.107902,168.916217L210.859386,166.561862L214.961646,171.630196L215.450314,170.568258L214.581138,167.058302L214.216615,164.351812L214.919993,163.541079L214.563386,160.712966L216.151977,161.543017L217.533193,162.016862L218.315973,161.327993L220.036013,162.547027L222.103813,164.560260L223.771432,165.822051L224.800778,165.765427L225.259611,164.455543L226.925573,165.846752L227.070963,163.787840L228.209911,164.010666L227.443906,159.639533L229.407124,161.856857L230.643368,162.349035L231.362848,161.537918L231.015431,157.862937L231.144149,155.322612L233.098890,157.780053L234.766343,159.556793L234.512945,155.787784L237.827183,162.619562L238.481932,161.582053L239.210772,160.739224L240.321221,161.117554L240.801280,159.403499L242.010377,160.140873L242.489182,158.319006L243.481717,158.300079L244.600917,158.780519L244.654404,155.098607L245.171040,153.071858L246.202001,153.094621L246.943979,151.867647L248.618438,154.812309L248.515988,149.591881L248.678089,145.265157L250.019325,146.646645L250.882302,145.602087L252.965901,151.329715L253.957319,151.201656L254.963391,151.168130L255.647997,149.055841L256.546302,148.192939L257.801699,149.844039L258.388420,146.548520L259.500076,147.160648L261.086439,152.071720L262.029630,151.634729L263.047321,151.909655L264.002554,151.550157L264.417464,144.472378L265.478986,144.711039L266.055460,137.574562L267.336735,140.804249L268.401585,140.697494L269.399362,138.940281L270.548578,140.922640L271.529154,137.496748L272.634326,138.150053L273.813209,147.846427L274.829294,151.443578L275.793079,154.290532L276.761527,153.705509Z" />
<line x1="50" y1="600" x2="100" y2="600" fill="none" stroke="red" stroke-width="1.0" stroke-linejoin="round" stroke-miterlimit="10" />
<text x="125" y="603" style="text-anchor:start;fill:black">n0_4mer:D</text>
<path style="stroke:black;stroke-width:1.0" d="M277.738961,102.767120L279.089909,103.569221L280.419132,104.669257L281.752986,105.229891L283.111654,105.101645L284.484611,104.772086L285.875241,104.266500L287.247693,104.146391L288.632671,103.912705L290.007941,103.852162L291.539874,102.184873L293.101839,100.506369L294.483210,100.705520L295.788180,101.536241L297.001865,102.996678L298.227345,104.217617L299.422326,105.533719L300.833050,105.313061L302.096380,106.054623L303.476306,106.053524L304.966751,105.448165L306.277628,105.888497L307.744650,105.504270L308.782766,107.301920L309.927827,108.469028L311.336135,108.361158L312.433669,109.655180L313.975822,108.984412L315.723007,107.538185L316.964839,108.218877L318.538282,107.602013L319.861496,107.977650L321.001194,109.014307L322.487877,108.796330L323.656166,109.694880L325.016191,109.931462L326.308563,110.394063L327.272462,111.878721L328.657800,112.026413L330.072116,112.102937L331.443523,112.321591L332.936490,112.210210L334.456210,112.053601L335.723739,112.601781L336.682252,113.953680L337.860461,114.705292L338.336798,117.194135L339.627589,117.610234L341.046458,117.725675L342.294947,118.255820L344.106799,117.502250L345.817230,117.030043L346.816076,118.155113L348.601038,117.575978L349.640476,118.606215L350.137199,120.733214L351.611840,120.831756L352.671382,121.769188L354.358093,121.480988L356.089242,121.143624L357.653243,121.154530L358.807899,121.937237L359.413237,123.700215L359.507843,126.321691L360.079803,128.047815L360.870982,129.364347L362.502498,129.258619L364.401900,128.743014L365.971541,128.800428L367.646230,128.715174L368.481404,129.960869L369.857987,130.363800L371.275693,130.717080L372.286518,131.683711L373.337790,132.585271L374.244365,133.688860L374.769048,135.316671L376.346792,135.467047L378.418606,134.970009L380.234429,134.857069L382.013026,134.823832L382.825337,136.064359L382.982031,138.123561L382.807841,140.556766L383.044160,142.435772L383.879514,143.559026L385.629746,143.587331L387.215699,143.834702L388.279728,144.702836L388.981129,145.982467L388.441717,148.632519L388.659420,150.397521L390.029032,150.892630L392.092173,150.664481L394.174790,150.452335L396.268115,150.265520L397.405470,151.082537L397.678462,152.765682L398.860758,153.534955L399.435888,154.897006L400.677007,155.614739L402.553807,155.746987L403.488823,156.773475L404.007845,158.176518L403.766055,160.245719L403.856749,161.990387L404.476816,163.255447L405.990174,163.754414L407.724380,164.086037L407.955147,165.676891L408.460624,167.028479L408.737844,168.552454L408.772914,170.251253L409.849202,171.127547L410.631030,172.233293L410.962744,173.673602L412.308639,174.358836L412.374359,175.980163L413.289972,176.981655L414.936806,177.476806L415.604714,178.663268L417.092122,179.295470L418.588744,179.938366L419.214350,181.164944L419.618884,182.530147L419.566245,184.175161L419.145574,186.030146L419.613283,187.321733L420.370339,188.436030L421.852665,189.127705L423.680068,189.638324L425.062036,190.424281L426.397103,191.251050L428.069070,191.908835L428.515286,193.240258L429.049745,194.521417L429.262007,195.965515L429.327015,197.475228L429.018907,199.157688L429.639621,200.373911L430.397656,201.525742L430.829506,202.832018L431.979088,203.810059L431.648954,205.456204L432.781758,206.449946L432.113783,208.220204L433.263192,209.212490L433.734976,210.491837L433.952429,211.871430L434.985510,212.929339L434.667354,214.509045L435.600600,215.611459L435.903120,216.949760L436.866723,218.052622L437.302601,219.345572L436.981130,220.891390L437.180374,222.254568L436.152458,224.002217L436.110777,225.421291L436.619687,226.668124L436.254547,228.170943L437.596479,229.179987L438.679249,230.276627L439.488937,231.457981L440.265938,232.655598L440.803706,233.919949L439.544552,235.617939L440.278832,236.829111L441.162865,238.014165L441.904001,239.239683L443.897315,240.214907L444.659140,241.462031L444.920456,242.812147L445.466258,244.110802L445.534026,245.497089L445.109468,246.961791L444.820650,248.394649L444.025198,249.894604L444.046160,251.263750L443.436369,252.713632L443.769536,254.033634L444.489729,255.311365L444.640926,256.659697L445.963143,257.890925L446.753575,259.190158L447.110554,260.536477L447.182724,261.908327L447.343743,263.273620L447.007249,264.669875L446.871713,266.048983L447.012391,267.412610L446.617522,268.796875L446.373999,270.169801L446.007020,271.540736L445.441592,272.907832L443.865156,274.270039L444.365681,275.614620L445.980533,276.980144L447.446785,278.368701L449.139111,279.787226L448.233473,281.141193L446.243246,282.434430L445.192394,283.745167L445.454425,285.118188L446.403866,286.542968L448.164131,288.045467L448.951928,289.496735L449.391395,290.930645L449.234327,292.314354L448.544220,293.640498L448.142131,294.991179L447.270482,296.279939L446.500882,297.570788L445.350244,298.798856L443.881801,299.964357L443.863240,301.335340L444.610745,302.835152L445.123252,304.310299L445.303106,305.737617L445.421851,307.160369L445.173004,308.516890L445.354226,309.961965L444.557348,311.205797L443.360940,312.352526L443.582470,313.810681L443.913025,315.303729L445.019342,316.999355L443.698893,318.099292L441.586074,318.973504L439.084153,319.711694L437.700440,320.727490L436.611213,321.811080L437.024558,323.330515L437.519518,324.888817L438.500591,326.616100L439.642753,328.419985L439.011151,329.660269L439.340180,331.225733L438.758147,332.485169L439.813246,334.331731L438.292415,335.255200L436.767385,336.158259L435.203409,337.027358L434.333226,338.151862L434.440036,339.665842L433.886159,340.917225L433.449061,342.217593L432.703113,343.385861L432.897283,344.966891L432.552337,346.318163L432.059699,347.605418L431.172154,348.707925L430.457232,349.887726L430.159765,351.270393L429.626617,352.540973L428.259430,353.386634L427.077057,354.313757L426.066279,355.320955L425.741572,356.692371L425.098168,357.894464L424.172797,358.938225L423.381334,360.053341L422.754317,361.262032L422.396848,362.632235L421.994826,363.982772L421.889270,365.522652L420.762395,366.435347L419.535482,367.275315L418.409293,368.169682L417.309331,369.072670L416.370079,370.075698L416.569180,371.853288L416.636012,373.561466L415.368209,374.345138L414.381035,375.319387L412.761783,375.826450L411.103215,376.284289L410.283573,377.355778L410.317605,379.083754L410.352353,380.834102L409.310791,381.751446L407.903398,382.368248L406.678299,383.120179L404.710585,383.242674L404.246234,384.610264L404.109226,386.271107L403.643576,387.664855L402.883731,388.808877L402.104544,389.939547L401.186576,390.946593L400.132697,391.826869L399.118155,392.740742L398.015986,393.567791L396.667361,394.148598L395.450234,394.847745L394.765991,396.077250L394.470947,397.715482L394.079537,399.275395L392.813118,399.927291L392.003126,401.061728L390.432131,401.369666L388.470856,401.223667L387.720384,402.412209L386.309667,402.851900L385.061783,403.467118L385.019853,405.504321L383.715266,406.057500L383.310012,407.702310L382.916745,409.387902L382.185733,410.673384L382.223585,412.962546L381.191512,413.900164L379.918380,414.520345L378.121730,414.425498L376.642127,414.735574L375.876910,416.027438L374.594105,416.600147L373.699663,417.726920L372.146952,417.897244L370.486660,417.885631L369.800454,419.330025L369.137967,420.835516L368.095903,421.769475L366.820118,422.335336L364.927639,421.887962L362.738883,420.905625L361.391573,421.286502L360.225634,421.968826L359.382121,423.217665L358.603397,424.604215L357.110585,424.716200L355.556130,424.692842L354.538387,425.660322L353.424113,426.454538L352.522972,427.675277L351.423508,428.521902L349.783719,428.270837L348.292986,428.296703L347.384576,429.542605L345.965783,429.704220L345.004861,430.868039L343.909154,431.751651L342.294999,431.444802L341.553130,433.173358L340.250489,433.593508L339.211260,434.664077L338.287139,436.053904L337.080660,436.750459L336.003085,437.800906L334.479084,437.658545L332.860421,437.219682L331.051319,436.186827L329.579290,436.070935L328.222359,436.274269L326.835063,436.371002L325.643486,437.076386L324.701943,438.622297L323.629308,439.791708L322.568746,441.050502L321.374074,441.881214L319.818049,441.399689L318.424079,441.484671L317.031595,441.558023L315.584409,441.389009L314.237146,441.609110L312.944329,442.062132L311.620067,442.382993L310.447583,443.427369L309.045267,443.397567L307.507640,442.644301L305.988722,441.901877L304.507705,441.281362L303.182488,441.498411L301.929254,442.161570L300.610546,442.444562L299.335627,443.038832L298.135848,444.230321L296.840504,444.805718L295.631729,446.153129L294.418269,447.628633L293.170951,448.983673L291.972886,451.051459L290.703449,452.662763L289.303276,452.944011L287.749802,451.144371L286.212204,449.119310L284.716075,447.230849L283.260372,445.529519L281.889978,445.240053L280.562895,446.114125L279.192581,445.765517L277.845797,446.468448L276.478590,446.060618L275.117712,445.154354L273.761265,445.624957L272.399244,445.959716L271.031531,446.296080L269.655972,446.696452L268.318716,445.936485L267.039625,444.179620L265.723481,443.586702L264.357305,443.919344L262.913545,445.250978L261.514882,445.722776L260.164295,445.535424L258.884419,444.615552L257.532374,444.519353L255.944819,446.537072L254.396557,447.931852L252.924314,448.531455L251.464706,448.945089L250.107159,448.579198L248.722100,448.412855L247.383451,447.951519L246.280174,446.111343L245.078693,444.978771L243.784670,444.428110L242.291941,444.935669L240.752270,445.614010L239.468321,444.993654L238.141623,444.595800L236.934590,443.675417L235.603106,443.330887L233.897653,444.530996L232.739528,443.447010L231.370061,443.226660L230.049948,442.814036L228.933467,441.668072L227.496586,441.693258L226.376874,440.614535L224.960240,440.557742L223.619394,440.238178L221.816034,441.360511L219.956495,442.571411L218.949433,441.168920L217.719876,440.458076L216.903884,438.595467L215.746025,437.740684L214.029925,438.400514L212.661147,438.097383L211.211330,437.992355L210.140432,436.922934L209.333750,435.233727L208.211524,434.349088L206.921940,433.870433L205.610671,433.438597L204.301967,432.995947L202.938755,432.667567L202.126148,431.149310L201.569685,429.131566L200.012965,429.228634L199.305655,427.585963L197.857678,427.447749L196.624986,426.873965L195.140408,426.777010L193.197438,427.514317L191.717456,427.352668L190.028051,427.548427L189.663046,425.378365L188.826615,424.078113L187.777122,423.161947L186.801019,422.131304L185.562242,421.542715L184.630735,420.455247L184.011527,418.886775L182.633486,418.526671L181.275981,418.122350L179.953739,417.653475L178.569910,417.265740L178.350057,415.177062L177.733765,413.697861L176.583161,412.991304L174.674302,413.327701L173.072987,413.209755L171.872227,412.534935L170.713656,411.800038L170.747240,409.523769L168.435318,410.271617L167.066129,409.790807L165.540037,409.490674L164.019890,409.165125L163.849535,407.216220L162.826084,406.299705L163.113317,403.874283L162.315409,402.727416L161.887482,401.175752L160.946694,400.207647L159.173447,400.140866L158.695918,398.669489L156.532996,398.979065L154.845539,398.759686L154.181311,397.479954L152.414735,397.310084L152.302354,395.490574L152.804390,393.103646L152.294868,391.723295L151.808671,390.333790L150.877094,389.367522L149.221482,389.057163L147.553678,388.735987L145.629459,388.618194L143.973419,388.239872L142.943800,387.307813L141.853616,386.422694L141.599148,384.843916L141.701311,382.992730L140.856590,381.921590L139.922097,380.920987L139.390990,379.606850L137.965941,378.978645L137.333839,377.743653L137.438319,375.972575L136.508003,374.970673L136.125233,373.576834L134.904964,372.777109L133.966980,371.773214L132.528273,371.103137L132.164542,369.704706L131.384585,368.586422L131.055555,367.178564L130.760970,365.758092L129.033651,365.232783L129.079460,363.608566L127.767488,362.810473L126.847372,361.769646L126.552250,360.364503L125.224961,359.550153L124.502713,358.386828L124.338651,356.918772L123.372157,355.888832L122.988519,354.547279L122.994773,353.010672L122.334602,351.822004L122.412487,350.268285L122.190237,348.873036L119.799942,348.511865L119.084228,347.338595L117.068448,346.753271L115.017941,346.155664L115.614934,344.377366L114.493213,343.352721L114.831862,341.708979L116.008520,339.740225L115.556838,338.450834L116.164283,336.750660L116.741864,335.081934L114.803804,334.364643L115.195066,332.778652L114.599206,331.556011L113.362438,330.551021L113.992759,328.906775L112.808505,327.872791L112.691121,326.486941L112.501879,325.128370L112.671242,323.665936L112.157368,322.412072L111.629119,321.159908L112.063016,319.641367L111.580284,318.379633L111.070999,317.122377L110.826171,315.796448L108.963132,314.860346L108.980261,313.462650L108.838285,312.105896L107.387367,311.033092L107.142875,309.691579L105.597023,308.608770L105.421107,307.244341L106.473843,305.657726L106.247711,304.314570L106.932645,302.820716L107.099576,301.423189L106.993696,300.072520L106.477789,298.781232L105.426550,297.555851L104.557869,296.293551L104.232519,294.956459L105.620330,293.430272L104.994031,292.131740L104.788493,290.786311L104.768003,289.423919L103.250155,288.177925L103.300466,286.801541L103.661281,285.408597L102.784945,284.088020L104.029474,282.659603L104.636107,281.275487L104.466630,279.924237L104.220385,278.572518L102.984828,277.230160L102.935028,275.862487L103.271151,274.495265L103.068079,273.127453L104.488331,271.786765L103.444523,270.402227L102.536961,269.005231L101.453476,267.585509L100.569019,266.157675L102.105016,264.856619L103.039362,263.538689L104.694294,262.288013L105.809944,261.017620L106.250188,259.702082L107.484427,258.470001L108.292435,257.210146L107.358619,255.761116L107.405223,254.414995L106.607332,252.956436L104.794352,251.341034L106.088650,250.150325L105.908623,248.748545L106.184398,247.414914L108.294271,246.396895L108.268591,245.025775L108.512204,243.700946L108.852217,242.394948L109.520916,241.157504L110.259903,239.941639L110.434020,238.608511L110.679853,237.289919L110.936253,235.972935L109.163892,234.155372L108.330907,232.541735L108.673786,231.217796L108.954798,229.876955L110.366116,228.851621L111.747145,227.835451L111.719936,226.417607L110.796500,224.718165L109.997167,223.034788L105.277399,220.061180L98.234082,216.224376L92.460141,212.688231L93.055778,211.271784L98.097989,211.454198L106.598040,212.991317L113.494584,214.068080L114.672213,213.051625L115.193119,211.787923L115.584924,210.472299L116.253218,209.268914L117.563728,208.340162L118.867449,207.423107L119.009566,206.006757L119.563102,204.768570L118.696199,202.874837L118.991916,201.501055L119.367214,200.159931L120.404934,199.139555L122.287438,198.550660L122.677475,197.225071L123.101128,195.912406L123.017049,194.326083L123.113568,192.822681L123.914129,191.696014L124.352416,190.368693L124.487612,188.863005L125.382507,187.788536L126.575216,186.895141L128.211307,186.280312L129.783848,185.646587L130.795597,184.680522L130.896368,183.140247L131.327198,181.799997L132.385836,180.867122L132.889763,179.568824L133.456949,178.307856L133.799088,176.885809L134.471411,175.686776L135.214791,174.536013L136.583284,173.840763L137.191347,172.594200L138.169587,171.622220L138.648920,170.270941L139.663357,169.328535L140.772278,168.465578L141.010643,166.907106L142.251414,166.154236L142.314368,164.429844L142.615825,162.885439L143.596777,161.909717L144.039068,160.465157L144.608188,159.120162L146.257445,158.740542L147.149114,157.686704L148.223139,156.801675L150.392244,156.958012L151.938283,156.551772L152.303056,155.008829L153.057086,153.834321L154.033196,152.877396L154.851002,151.758254L156.708966,151.717863L158.482670,151.617367L160.267464,151.555545L161.320171,150.720940L162.395621,149.913850L162.399004,147.899515L162.419150,145.867973L163.140184,144.616309L164.115959,143.654549L166.042578,143.834810L166.859557,142.691864L168.118726,142.089460L169.109142,141.155550L170.330332,140.515095L171.319410,139.577869L171.730175,137.868928L172.957784,137.232934L173.335115,135.435620L174.906739,135.271909L176.676087,135.410503L178.187741,135.208629L179.647113,134.949595L180.680308,134.071144L181.590910,133.001834L182.227502,131.497171L183.324583,130.690154L183.323190,128.120433L184.461336,127.342814L185.625405,126.606139L186.922757,126.093845L189.133027,127.160301L190.707630,127.177239L192.160493,127.002557L193.075080,125.866418L193.960991,124.658464L194.405106,122.593192L195.009380,120.780811L196.430894,120.528497L197.583564,119.752005L198.710682,118.916696L200.413225,119.273388L201.547644,118.458877L203.306303,118.992993L204.959454,119.339897L206.229644,118.856532L207.547622,118.486848L208.502895,117.264259L209.821184,116.890743L211.258020,116.818097L212.407904,116.037074L213.759152,115.766093L214.605358,114.160614L215.477551,112.570334L216.922492,112.525967L218.101052,111.738752L219.533703,111.682115L221.014687,111.792212L222.180048,110.951606L223.557159,110.763462L225.083231,111.077164L226.019408,109.438684L227.378843,109.198634L228.869860,109.439398L230.298612,109.488175L231.964095,110.468375L233.393364,110.604032L234.520665,109.537641L235.650810,108.430163L236.662707,106.745166L237.859752,105.798469L239.314836,106.022229L240.619829,105.547788L242.125955,106.089675L243.646476,106.779938L244.838160,105.711328L246.258546,105.908214L247.588024,105.586291L248.941692,105.410748L250.388234,105.876953L251.735508,105.698983L253.103296,105.680524L254.292346,104.208643L255.603256,103.627028L256.978318,103.590108L258.393821,103.987277L259.802975,104.408537L261.131638,103.944191L262.389280,102.430404L263.670938,100.938366L265.063912,101.003560L266.455746,101.092378L267.850166,101.304737L269.239009,101.478280L270.585207,100.100716L271.984281,100.546129L273.379331,101.360401L274.760556,101.690588L276.130841,102.881934L277.498869,102.933873Z" />
<line x1="50" y1="550" x2="100" y2="550" fill="none" stroke="black" stroke-width="1.0" stroke-linejoin="round" stroke-miterlimit="10" />
<text x="125" y="553" style="text-anchor:start;fill:black">GC-content</text>
</g>
<g style="fill:pink;stroke:black">
<a href="" title="CP002051 ADGW01000000 ADGW01000001 ADGW01000002 ADGW01000003:1 [21500-40099];"><path  d="M294.636527,45.839779L298.632934,46.217386L302.622142,46.664682L306.602936,47.181532L310.574103,47.767777L307.480703,67.527101L307.480703,67.527101L303.854854,66.991833L300.220216,66.519927L296.577896,66.111526L292.929003,65.766755Z" />
</a><a href="" title="CP002051 ADGW01000000 ADGW01000001 ADGW01000002 ADGW01000003:2 [439000-457099];"><path  d="M501.503445,314.952339L500.771683,318.899284L499.971149,322.832857L499.102086,326.751860L498.164760,330.655099L478.759128,325.815525L478.759128,325.815525L479.614948,322.251698L480.408440,318.673478L481.139363,315.081955L481.807493,311.478222Z" />
</a><a href="" title="CP002051 ADGW01000000 ADGW01000001 ADGW01000002 ADGW01000003:3 [624000-645099];"><path  d="M416.139851,456.602705L412.948950,459.038276L409.716029,461.417787L406.442072,463.740514L403.128077,466.005748L391.986505,449.396553L391.986505,449.396553L395.012327,447.328295L398.001592,445.207545L400.953389,443.034948L403.866820,440.811166Z" />
</a><a href="" title="CP002051 ADGW01000000 ADGW01000001 ADGW01000002 ADGW01000003:4 [760500-780599];"><path  d="M302.071736,503.401228L298.081461,503.838909L294.084156,504.206882L290.081038,504.505038L286.073326,504.733283L285.110428,484.756476L285.110428,484.756476L288.769643,484.548078L292.424664,484.275849L296.074378,483.939873L299.717672,483.540252Z" />
</a><a href="" title="CP002051 ADGW01000000 ADGW01000001 ADGW01000002 ADGW01000003:5 [840000-884099];"><path  d="M229.734084,500.501656L225.805432,499.677312L221.891764,498.784529L217.994274,497.823579L214.114149,496.794755L210.252570,495.698370L206.410714,494.534758L202.589750,493.304273L198.790844,492.007291L195.015152,490.644207L191.263823,489.215435L198.545230,470.588006L198.545230,470.588006L201.970356,471.892537L205.417727,473.137092L208.886294,474.321293L212.375000,475.444779L215.882781,476.507207L219.408571,477.508254L222.951294,478.447615L226.509872,479.325005L230.083220,480.140154L233.670251,480.892816Z" />
</a><a href="" title="CP002051 ADGW01000000 ADGW01000001 ADGW01000002 ADGW01000003:6 [1258000-1284599];"><path  d="M54.551404,209.407190L55.729732,205.569822L56.974852,201.753602L58.286384,197.959695L59.663929,194.189254L61.107068,190.443429L62.615361,186.723361L81.083590,194.399591L81.083590,194.399591L79.706453,197.796175L78.388805,201.216275L77.131046,204.658852L75.933560,208.122854L74.796712,211.607228L73.720848,215.110913Z" />
</a><a href="" title="CP002051 ADGW01000000 ADGW01000001 ADGW01000002 ADGW01000003:7 [1332000-1354099];"><path  d="M83.044748,148.298851L85.285223,144.968067L87.583488,141.676892L89.938842,138.426329L92.350566,135.217367L94.817928,132.050985L110.485934,144.481334L110.485934,144.481334L108.233126,147.372379L106.031116,150.302300L103.880576,153.270206L101.782160,156.275192L99.736509,159.316342Z" />
</a><a href="" title="CP002051 ADGW01000000 ADGW01000001 ADGW01000002 ADGW01000003:8 [1365500-1388599];"><path  d="M101.570339,123.929974L104.233289,120.926218L106.948256,117.969394L109.714413,115.060403L112.530917,112.200131L115.396912,109.389450L129.275441,123.790368L129.275441,123.790368L126.658664,126.356642L124.087073,128.968194L121.561451,131.624229L119.082568,134.323938L116.651179,137.066498Z" />
</a><a href="" title="CP002051 ADGW01000000 ADGW01000001 ADGW01000002 ADGW01000003:9 [1557000-1581499];"><path  d="M253.681213,45.990155L257.681233,45.652970L261.686528,45.385646L265.695879,45.188265L269.708064,45.060888L273.721861,45.003551L273.833003,65.003243L273.833003,65.003243L270.168232,65.055593L266.504933,65.171895L262.844221,65.352112L259.187213,65.596190L255.535021,65.904054Z" />
</a></g>
<path  style="fill:pink;stroke:black" d="M350,550L375,550L375,565L350,565Z" />
<text x="405" y="565" style="text-anchor:start;fill:black">Selected loci;</text>
</svg>