<svg xmlns="http://www.w3.org/2000/svg" viewbox="0 0 550 650">
<circle cx="275" cy="275" r="240" fill="none" stroke="black" stroke-width="1.0" />
<line x1="275" y1="15" x2="275" y2="55" fill="none" stroke="grey" stroke-width="1.0" stroke-linejoin="round" stroke-miterlimit="10" />
<line x1="495" y1="275" x2="535" y2="275" fill="none" stroke="grey" stroke-width="1.0" stroke-linejoin="round" stroke-miterlimit="10" />
<line x1="275" y1="495" x2="275" y2="535" fill="none" stroke="grey" stroke-width="1.0" stroke-linejoin="round" stroke-miterlimit="10" />
<line x1="15" y1="275" x2="55" y2="275" fill="none" stroke="grey" stroke-width="1.0" stroke-linejoin="round" stroke-miterlimit="10" />
<text x="275" y="10" style="text-anchor:middle" font-size="15">Streptococcus pyogenes M1 GAS, complete genome.</text><text x="285" y="25" style="text-anchor:start">1,852,433</text><text x="525" y="265" style="text-anchor:start">0.46 Mbp</text><text x="285" y="530" style="text-anchor:start">0.92 Mbp</text><text x="-200" y="25" style="text-anchor:end" transform="rotate(-90)">1.38 Mbp</text><circle cx="354.852600" cy="48.673770" r="2.500000" fill="grey" stroke="black" stroke-width="1.0" />
<circle cx="425.606150" cy="88.136981" r="2.500000" fill="grey" stroke="black" stroke-width="1.0" />
<circle cx="479.198416" cy="148.892876" r="2.500000" fill="grey" stroke="black" stroke-width="1.0" />
<circle cx="509.522664" cy="224.018436" r="2.500000" fill="grey" stroke="black" stroke-width="1.0" />
<circle cx="513.123504" cy="304.953247" r="2.500000" fill="grey" stroke="black" stroke-width="1.0" />
<circle cx="489.590625" cy="382.474943" r="2.500000" fill="grey" stroke="black" stroke-width="1.0" />
<circle cx="441.605556" cy="447.750076" r="2.500000" fill="grey" stroke="black" stroke-width="1.0" />
<circle cx="374.636103" cy="493.340667" r="2.500000" fill="grey" stroke="black" stroke-width="1.0" />
<circle cx="296.313306" cy="514.051758" r="2.500000" fill="grey" stroke="black" stroke-width="1.0" />
<circle cx="215.561899" cy="507.523358" r="3.000000" fill="black" stroke="black" stroke-width="1.0" />
<circle cx="141.583349" cy="474.499367" r="2.500000" fill="grey" stroke="black" stroke-width="1.0" />
<circle cx="82.807372" cy="418.742804" r="2.500000" fill="grey" stroke="black" stroke-width="1.0" />
<circle cx="45.931377" cy="346.607024" r="2.500000" fill="grey" stroke="black" stroke-width="1.0" />
<circle cx="35.157313" cy="266.311761" r="2.500000" fill="grey" stroke="black" stroke-width="1.0" />
<circle cx="51.712864" cy="187.006506" r="2.500000" fill="grey" stroke="black" stroke-width="1.0" />
<circle cx="93.711557" cy="117.727941" r="2.500000" fill="grey" stroke="black" stroke-width="1.0" />
<circle cx="156.367721" cy="66.370226" r="2.500000" fill="grey" stroke="black" stroke-width="1.0" />
<circle cx="232.541806" cy="38.785475" r="2.500000" fill="grey" stroke="black" stroke-width="1.0" />

<circle cx="275" cy="275" r="185" fill="white" stroke="grey" stroke-width="0.5" />
<circle cx="275" cy="275" r="170" fill="none" stroke="black" stroke-width="0.5" />
<circle cx="275" cy="275" r="170" fill="aliceblue" stroke="black" stroke-width="0.5" />
<circle cx="275" cy="275" r="158" fill="white" stroke="none" stroke-width="0.5" />
<circle cx="275" cy="275" r="140" fill="none" stroke="black" stroke-width="0.5" />
<circle cx="275" cy="275" r="140" fill="aliceblue" stroke="black" stroke-width="0.5" />
<circle cx="275" cy="275" r="133" fill="white" stroke="none" stroke-width="0.5" />
<circle cx="275" cy="275" r="110" fill="none" stroke="black" stroke-width="0.5" />
<circle cx="275" cy="275" r="110" fill="white" stroke="black" stroke-width="0.5" />
<circle cx="275" cy="275" r="109" fill="aliceblue" stroke="none" stroke-width="0.5" />
<circle cx="275" cy="275" r="80" fill="none" stroke="black" stroke-width="0.5" />

<g style="fill:none;stroke-linejoin:round;stroke-miterlimit:10">
<path style="stroke:blue;stroke-width:1.0" d="M277.101766,120.077436L278.176479,118.924899L279.248235,118.468514L280.336883,117.708417L281.435552,116.967875L282.453208,118.156420L283.567266,117.285423L285.603552,101.534337L288.752704,72.574729L290.068878,73.431048L291.853763,68.416048L291.980850,82.943413L290.871005,108.387207L291.092256,117.397520L292.069198,118.352860L292.746137,121.798608L293.699694,122.617626L294.844123,121.890400L296.141821,120.127515L297.148388,120.578120L298.213830,120.609505L299.538363,119.004922L300.251778,121.270643L301.087593,122.651135L302.344309,121.575718L303.687865,120.126784L304.083122,123.730188L304.954682,124.703316L305.900578,125.263602L306.870114,125.689895L307.979790,125.467270L309.147152,125.019174L310.437247,124.089725L311.395862,124.599272L312.284903,125.372891L313.176026,126.109127L314.495494,125.194482L317.052754,119.774223L322.462277,104.400388L326.442307,94.836533L325.405099,102.899881L322.759769,115.940111L321.303938,124.502920L321.196794,128.396967L322.326379,128.291691L323.500968,128.069424L324.579499,128.156228L325.583017,128.471253L326.031773,130.359860L326.653812,131.702465L327.621708,132.064306L328.519819,132.611609L329.742100,132.306476L330.891856,132.213524L331.702542,132.988272L332.722122,133.234908L333.974807,132.925501L336.297311,130.114078L336.256766,132.903925L336.654083,134.609747L337.346906,135.608303L338.459330,135.664982L339.673527,135.515367L340.948308,135.257930L341.286994,136.974021L341.981380,137.918880L342.788095,138.621164L343.942665,138.627256L345.307748,138.239159L346.456373,138.293568L347.477855,138.601243L347.661822,140.465514L348.796192,140.554512L351.322894,138.160218L351.731597,139.594883L351.480617,142.147006L352.258838,142.876235L353.671078,142.531597L355.305221,141.845751L356.002461,142.727002L356.359514,144.145439L357.053637,145.004035L357.639161,146.023184L358.638606,146.392371L359.354289,147.197273L360.228485,147.758758L361.206430,148.168086L362.472336,148.164915L362.861645,149.431613L363.328594,150.569843L364.328463,150.952752L364.913915,151.909285L365.734974,152.538094L366.442384,153.317764L367.846664,153.178652L368.740582,153.721171L368.919273,155.178752L370.239914,155.177017L371.204484,155.634869L371.914548,156.409486L373.180248,156.510329L374.030426,157.121174L374.250250,158.473754L375.292519,158.855477L375.863348,159.783806L376.759315,160.339184L377.038574,161.583673L377.835710,162.245468L379.488437,161.982798L380.704773,162.211848L381.749512,162.634616L382.200050,163.682486L382.403932,164.974443L383.028553,165.826114L384.550036,165.780448L387.464255,164.386078L386.908035,166.416799L386.259812,168.501530L386.502226,169.709605L386.861867,170.796366L388.097498,171.069339L388.824311,171.816840L389.753323,172.384191L390.334150,173.264362L390.590530,174.424198L390.603904,175.782441L391.115190,176.703636L391.510477,177.718064L392.030154,178.623961L394.298345,178.106671L400.774844,174.254817L412.233334,166.596619L421.616978,160.790920L407.288787,173.386422L401.042633,179.536702L398.803832,182.547229L399.201178,183.556309L399.570498,184.581067L400.003733,185.555035L401.260065,185.944887L400.928601,187.451858L400.899578,188.732972L401.991507,189.244879L402.467427,190.176789L403.443883,190.778545L404.050851,191.626870L403.744114,193.057540L404.186583,194.002025L404.365933,195.106982L405.488691,195.631323L406.055419,196.499580L406.009793,197.729637L406.285323,198.762779L406.774721,199.669275L407.288559,200.561630L408.638377,200.991179L409.455558,201.726027L410.130970,202.542525L410.824752,203.352546L410.989941,204.440433L410.944386,205.630461L411.744368,206.387408L412.180279,207.329631L411.821008,208.657038L412.160452,209.637918L412.556177,210.590714L413.085159,211.481531L414.307865,212.060536L414.946354,212.911732L416.263353,213.470923L418.326828,213.725506L420.507217,213.957484L418.933924,215.762510L418.247473,217.178226L418.312877,218.279351L420.420173,218.583299L419.410616,220.099108L417.638302,221.877528L419.560945,222.275365L421.760309,222.598454L421.305970,223.877021L421.539125,224.908384L420.841455,226.249280L420.205278,227.554571L420.353919,228.594918L420.821209,229.533427L421.104490,230.530308L421.803602,231.403426L423.506544,231.991786L423.345788,233.126957L423.123834,234.272438L422.778864,235.443577L423.621792,236.296451L424.825922,237.066281L426.259707,237.793291L427.777557,238.517224L425.976133,240.028245L425.318280,241.253389L425.576572,242.266738L425.598985,243.330205L425.710901,244.372757L425.801953,245.418048L426.197755,246.404157L425.666807,247.561874L425.153452,248.706458L425.041548,249.773874L425.818003,250.694174L426.494651,251.638378L427.018116,252.612339L426.531124,253.733264L426.921575,254.728374L426.777871,255.794567L427.037550,256.808718L428.121328,257.731807L429.537319,258.632993L434.027880,259.247533L438.528012,259.921249L448.878522,260.155685L447.675973,261.437605L444.692032,262.829615L440.263177,264.273588L431.932861,265.882885L431.009644,266.998015L432.084850,268.010932L439.778065,268.788342L440.618499,269.881494L432.682404,271.197248L430.446723,272.306127L428.415999,273.382256L429.068124,274.420590L428.320529,275.463488L428.226054,276.502691L428.353057,277.544424L427.785012,278.571867L427.439154,279.598629L428.007154,280.654894L427.912869,281.690419L427.669006,282.717718L427.022003,283.719291L426.676794,284.732225L426.652399,285.764127L426.689353,286.801465L427.779222,287.929507L426.348589,288.843103L426.390057,289.883132L426.817752,290.965730L426.151295,291.933106L426.852104,293.055474L426.750508,294.088238L427.104634,295.181854L427.186275,296.244212L426.500169,297.197206L427.315903,298.373238L426.478427,299.297621L426.425956,300.344028L426.805389,301.467404L426.752852,302.520258L426.235761,303.487486L425.018671,304.313385L424.236882,305.213069L424.216364,306.264109L423.891435,307.251923L425.875024,308.754705L424.162181,309.435650L422.952815,310.215291L423.547462,311.423357L430.085044,314.143529L429.778428,315.184934L429.988678,316.363788L428.455059,317.071673L427.153816,317.826756L425.758560,318.539888L425.826368,319.670167L427.941069,321.427281L428.572572,322.759141L426.977896,323.396308L426.825909,324.484767L425.773646,325.275786L425.616495,326.361321L427.387078,328.121757L425.168751,328.493673L420.872947,328.081255L418.431815,328.297541L418.173227,329.309617L416.847392,329.910257L416.639718,330.937618L416.163645,331.859565L416.488723,333.109119L415.870161,333.975024L415.949706,335.135288L415.246378,335.963067L414.578954,336.802069L414.059807,337.703904L415.521433,339.513583L418.877926,342.240011L418.562650,343.283053L416.905285,343.679016L413.662870,343.274582L411.459255,343.343566L416.114567,346.876611L414.532087,347.266841L412.423630,347.361321L410.903637,347.742745L409.358143,348.092379L408.649359,348.886120L408.097023,349.764065L407.677553,350.717028L406.954417,351.495647L407.073073,352.766220L407.228910,354.070836L407.006240,355.158361L405.888964,355.700274L404.670273,356.168036L403.146779,356.429499L402.614037,357.311504L402.260713,358.311458L402.472213,359.690780L401.754360,360.458896L401.643558,361.639583L400.728933,362.271814L399.388630,362.597787L399.305363,363.806672L399.105283,364.941541L400.322519,367.126789L401.448605,369.282578L404.468273,372.907621L403.468947,373.528877L398.905650,371.371025L396.489943,370.821892L395.168601,371.109158L394.467053,371.884167L393.447188,372.396435L392.979224,373.360661L392.719743,374.505697L391.838529,375.127590L390.498373,375.345997L389.340422,375.709188L388.962425,376.757361L388.708012,377.925016L388.207730,378.878019L387.696628,379.826068L387.492595,381.068711L386.871879,381.926305L386.227782,382.763964L385.883177,383.898039L385.096625,384.602657L385.856844,386.866978L384.614294,387.124270L381.760879,385.697912L380.824946,386.227736L380.142307,387.022248L378.774644,387.079156L378.227309,388.016332L377.707558,388.990664L377.030836,389.796065L376.419780,390.679501L375.607797,391.336022L374.553359,391.707587L374.859272,393.687532L372.532773,392.531665L371.396082,392.778651L370.551274,393.375820L369.708779,393.974457L369.137694,394.917595L368.383921,395.633361L367.876660,396.674412L366.689515,396.823858L365.781346,397.335713L365.023304,398.049782L364.123992,398.570963L363.116804,398.937995L362.240500,399.485062L361.636132,400.424505L360.876976,401.146930L360.481968,402.416279L360.016794,403.600012L359.070374,404.063114L357.897184,404.169638L356.463831,403.850851L355.867604,404.849669L354.660669,404.866704L353.885820,405.582808L353.123048,406.324849L352.117132,406.658432L351.483473,407.631563L350.650198,408.267513L349.774441,408.831372L349.097795,409.759179L347.765815,409.489646L347.123805,410.491140L346.645135,411.821599L347.428192,415.630236L347.802480,418.744220L347.528938,420.646982L344.481953,416.933134L343.964296,418.329735L343.156790,419.146148L342.308445,419.887307L342.135518,422.118842L340.202273,420.487501L338.340840,418.942574L336.408326,417.159066L335.471432,417.640486L334.939414,419.097990L334.599706,421.067803L334.489248,423.672462L332.864629,422.505618L331.108042,420.932039L329.640493,420.044931L328.395806,419.708996L327.129356,419.283037L326.101407,419.497666L325.205024,420.086682L324.232425,420.461663L323.361486,421.145725L322.482712,421.822134L321.514343,422.231752L320.179611,421.458287L318.904157,420.828416L317.876520,420.995621L317.234029,422.501580L316.114818,422.363049L314.975900,422.129519L313.967131,422.360358L312.975367,422.655427L312.039624,423.176774L311.325287,424.626145L310.591113,426.064674L309.346507,425.343942L308.150772,424.782505L307.133008,424.999613L306.088633,425.088190L304.845739,424.175867L303.780670,424.103309L302.772622,424.317050L301.810370,424.788644L300.844204,425.261065L299.920214,426.014221L298.832028,425.780051L297.918406,426.664638L297.148864,428.618712L297.101930,436.019196L297.018994,443.912370L296.765874,451.292570L294.039511,438.312871L292.155619,431.368922L290.776576,428.390911L289.661452,427.721404L288.660180,428.210747L287.576056,427.759584L286.539545,427.842013L285.539336,428.453825L284.409121,427.083343L283.456117,428.576502L282.497599,430.360313L281.459410,430.790960L280.410297,431.058155L279.331367,430.368121L278.243472,428.789799L277.193610,428.351801L276.152924,428.316667L275.112694,428.110147L274.075050,427.941125L273.038859,427.830952L272.007522,427.540315L270.970712,427.595938L269.953661,427.022401L268.923673,426.955550L267.878306,427.224876L266.861723,426.876443L265.813718,427.114374L264.771623,427.203524L263.661949,428.176479L262.548239,429.022197L261.478622,429.220118L260.529637,428.099824L259.570032,427.222331L258.634749,426.217990L257.651212,425.739455L256.611222,425.764428L255.540669,426.010585L254.436255,426.467739L253.350605,426.735591L252.399870,426.063274L251.299807,426.390815L250.125811,427.129009L249.181018,426.448641L248.454080,424.580455L247.418997,424.510725L246.130511,425.755656L244.949320,426.358100L244.123030,425.179073L243.162024,424.697932L242.149185,424.469736L240.699949,426.165138L239.082186,428.463067L238.521932,426.226120L237.964087,424.094462L237.237800,422.727726L236.101123,422.983309L235.155273,422.504556L234.175719,422.158236L232.640531,423.766867L232.089722,421.910111L230.970330,422.029019L229.590749,422.975690L227.703386,425.478656L226.600199,425.413782L225.817453,424.363773L225.872574,420.858141L225.320649,419.254352L224.400992,418.749897L223.446873,418.348100L222.106226,419.000781L220.990422,419.012402L220.194900,418.172043L219.396471,417.357786L218.427651,416.988340L216.990197,417.771725L216.029220,417.359949L214.800742,417.582189L213.940711,416.924588L212.758446,417.011130L212.213968,415.650494L211.463020,414.777540L210.583549,414.197947L209.572352,413.902993L208.735294,413.239608L207.867816,412.645911L206.744469,412.572611L205.986060,411.763068L204.968441,411.469966L204.181887,410.728036L203.689868,409.439335L202.303473,409.835452L201.512172,409.117088L200.633069,408.563382L199.719022,408.072994L198.934629,407.356369L197.731720,407.362877L196.246407,407.829419L195.649872,406.789345L194.570473,406.554239L193.926435,405.608448L193.693669,404.021831L193.073127,403.072076L192.187969,402.541466L190.973552,402.509593L189.989767,402.117191L188.385621,402.633612L187.613049,401.910580L186.826938,401.210656L185.883633,400.735419L184.747188,400.525138L184.143530,399.573010L183.840446,398.224019L183.129706,397.438764L182.120326,397.050460L180.190224,397.848457L179.774294,396.671899L178.504017,396.586457L178.400126,395.036013L178.043269,393.820100L177.354316,393.020828L176.571911,392.336690L175.407861,392.101742L174.653663,391.379505L174.323195,390.173648L173.754740,389.250470L172.505374,389.091620L172.164705,387.920513L171.561462,387.046561L170.586293,386.574669L169.909409,385.781994L169.133558,385.094377L168.459970,384.301028L167.782494,383.513504L167.216371,382.616411L166.630866,381.742852L165.685222,381.222951L165.002311,380.445252L164.132457,379.845188L163.487060,379.031647L161.554110,379.404577L161.206350,378.307699L160.669813,377.388620L160.416063,376.223590L159.679031,375.490148L158.723777,374.942954L158.318947,373.922569L157.666414,373.115523L156.206711,372.974490L156.131153,371.689451L155.937576,370.512171L155.296387,369.699135L152.944309,370.220864L150.416902,370.840234L151.634409,368.578374L150.547851,368.079347L149.805093,367.317175L148.567607,366.912216L144.274794,368.684121L144.711281,367.039995L142.474506,367.278866L141.117372,366.881602L141.061124,365.589835L134.886154,368.387298L145.005655,360.374671L145.935558,358.516309L145.606097,357.489608L144.832475,356.746235L144.186527,355.919739L143.119721,355.347831L142.384599,354.567211L142.156266,353.483577L142.395067,352.133786L142.148307,351.075884L141.409990,350.299907L140.719547,349.493304L141.106015,348.095509L140.553266,347.217751L139.078079,346.826346L137.238770,346.607062L137.599466,345.239798L137.121545,344.308416L137.442544,342.982069L137.424375,341.833692L136.451734,341.148317L135.539459,340.425892L133.521701,340.205214L131.881569,339.787675L134.068373,337.649294L134.902819,336.143570L134.336142,335.258245L134.295821,334.149114L134.064650,333.124456L132.905091,332.477925L132.202408,331.638031L131.775726,330.685827L131.552111,329.655488L131.336567,328.624422L131.170981,327.577386L130.067987,326.868772L130.171840,325.725964L129.812406,324.748725L129.455217,323.770401L128.292373,323.055581L129.016109,321.724359L129.220089,320.571181L127.084412,320.139643L127.431598,318.941645L126.903658,318.007317L127.685030,316.698900L128.109640,315.504456L127.350838,314.637921L126.618369,313.757382L124.878810,313.125804L123.762206,312.319120L122.034706,311.646361L123.770715,310.147426L122.839806,309.277511L122.757281,308.212559L121.326148,307.434273L112.982018,308.048959L99.734979,309.514407L98.299801,308.553506L109.861966,305.198806L121.426985,302.008593L122.361329,300.778045L124.466986,299.373323L124.258132,298.358878L123.140040,297.478317L123.926477,296.315650L122.702483,295.435630L122.184891,294.450707L123.413183,293.250271L123.922665,292.150045L123.620289,291.145005L123.554787,290.113679L122.267333,289.196441L120.643734,288.291849L121.724659,287.151878L121.646051,286.111809L122.297547,285.023771L122.021377,284.000112L122.336256,282.942775L122.651902,281.890419L122.533728,280.859663L122.710576,279.818507L122.242039,278.796235L122.117953,277.761729L122.465258,276.720477L122.032300,275.687603L122.614349,274.651241L122.520732,273.616614L120.969859,272.557482L121.194145,271.517273L120.981315,270.466923L119.755997,269.376590L121.068556,268.378265L121.344840,267.345548L121.783497,266.325076L122.445923,265.323967L122.200595,264.267225L122.232526,263.227512L121.652382,262.135799L121.930252,261.112809L121.002892,259.974739L120.824029,258.900731L121.267924,257.892074L120.060608,256.692818L120.129461,255.634818L119.690865,254.509006L122.146649,253.777090L123.828937,252.964395L123.437881,251.856337L122.109620,250.591045L123.945766,249.832205L124.436314,248.862999L124.859844,247.886068L123.037793,246.491213L122.922557,245.400258L122.499706,244.242811L123.211881,243.313390L123.957297,242.398185L124.608307,241.469375L124.613484,240.398000L125.187739,239.458354L124.831774,238.296120L125.860098,237.473501L126.234307,236.492731L126.346729,235.443936L126.738547,234.469255L127.387148,233.568351L127.020937,232.380551L127.289868,231.370724L128.431711,230.624783L127.736827,229.321575L128.362170,228.422772L128.680396,227.428742L127.278483,225.862463L130.134919,225.718673L131.195771,224.988606L130.747998,223.733353L129.133944,222.042518L130.174781,221.305689L130.659263,220.368727L130.784622,219.294815L131.203142,218.332494L131.225024,217.211284L132.368853,216.544059L133.336203,215.814946L133.691633,214.834309L133.063764,213.426260L133.307325,212.386437L133.356015,211.255978L133.259782,210.052852L135.711736,210.029506L136.808752,209.396152L137.177324,208.421747L136.301843,206.834541L138.312555,206.667654L138.670558,205.686727L139.172731,204.778419L139.010291,203.521221L140.232901,202.992857L141.130163,202.300613L140.708227,200.887434L141.586730,200.187122L141.560052,198.977734L143.011151,198.613835L143.657363,197.793702L143.800391,196.675409L143.566429,195.321429L143.513698,194.064634L144.425951,193.399633L145.330505,192.736516L145.922615,191.878788L146.854412,191.243624L146.956844,190.065359L147.413703,189.116417L147.401356,187.844508L147.342759,186.528535L147.431742,185.303099L148.203269,184.553998L147.659423,182.856326L145.958763,180.285404L137.184224,172.399217L124.125234,161.078231L131.161707,164.851311L148.533770,176.786378L154.123792,179.806074L154.538407,178.801469L152.185430,175.550510L149.408928,171.883802L150.407946,171.281137L151.755905,170.979770L157.488689,174.445426L159.138388,174.487626L159.833049,173.712902L161.055659,173.409071L161.765310,172.654602L162.668870,172.078177L163.743667,171.665921L163.485637,170.008245L163.811479,168.882974L164.143110,167.753087L164.921772,167.051184L165.172862,165.826081L166.175273,165.344827L167.276197,164.971264L168.031563,164.249753L168.837834,163.581782L169.007436,162.237917L169.180830,160.880920L170.723572,161.003287L171.934223,160.780539L172.849731,160.239389L173.379578,159.263210L173.374535,157.661480L174.612239,157.489114L175.007537,156.331166L175.727830,155.550878L175.672822,153.821741L175.066071,151.380478L176.044359,150.877744L177.933466,151.538264L178.940074,151.097852L180.084217,150.843347L182.594279,152.412014L183.846458,152.351029L185.266951,152.535775L185.833293,151.560972L186.004350,150.020331L184.890806,146.622236L185.466021,145.583567L185.478668,143.707143L186.537273,143.349774L187.195306,142.394667L188.171022,141.915726L189.335450,141.733673L188.814282,138.901935L190.578039,139.664646L192.899309,141.375711L192.712164,139.011432L193.272327,137.845098L193.613260,136.285939L194.224257,135.162512L196.931370,137.707043L199.221497,139.605155L200.018906,138.871259L201.396511,139.200483L202.467935,138.982807L203.729252,139.136240L204.889377,139.114907L205.468284,137.963460L206.397847,137.491634L208.038686,138.469836L208.776929,137.625691L209.583757,136.912385L210.269666,135.929667L211.038243,135.108131L212.327921,135.432896L213.417993,135.332685L214.135444,134.383490L213.915198,131.206622L214.618357,130.138941L215.056926,128.398527L216.121558,128.166738L217.723095,129.307368L218.968979,129.587163L220.417625,130.431237L221.523598,130.399624L222.000488,128.644939L223.294808,129.135881L224.042775,128.088731L224.871152,127.247160L226.270692,128.104499L227.433008,128.285333L228.242524,127.376132L228.928126,126.037708L230.240986,126.726686L231.338949,126.735818L232.506615,127.003390L233.980491,128.394543L234.978057,128.127364L235.857454,127.414872L236.376868,125.281782L237.184900,124.191737L237.882153,122.597493L239.074502,123.016140L240.621431,125.023045L241.888913,125.915757L242.841005,125.415458L243.716920,124.529492L244.505851,123.162922L245.497735,122.759184L246.789514,123.945903L247.775324,123.538038L248.602809,122.195588L249.929098,123.764036L251.044612,124.157884L252.197224,124.846974L253.199283,124.578079L254.126220,123.752722L254.972347,122.238880L255.943398,121.577676L256.981817,121.428204L258.114954,122.132855L259.197726,122.459933L260.151398,121.514103L261.206643,121.569378L262.134446,120.114926L262.985887,117.413866L263.977004,116.209925L265.144445,117.576529L266.327888,119.579840L267.388494,119.648860L268.516277,121.348738L269.565415,121.496718L270.482958,117.133330L271.571103,117.891062L272.633432,117.637162L273.707398,118.401939L274.771487,119.588417L275.829019,118.975577L276.876314,119.902531Z" />
<line x1="50" y1="575" x2="100" y2="575" fill="none" stroke="blue" stroke-width="1.0" stroke-linejoin="round" stroke-miterlimit="10" />
<text x="125" y="578" style="text-anchor:start;fill:black">n1_4mer:GRV/n1_4mer:RV</text>
<path style="stroke:green;stroke-width:1.0" d="M276.283155,180.417805L276.897750,181.754746L277.528900,181.819541L278.178906,181.309516L278.795978,181.785536L279.427152,181.836039L280.417526,175.268903L281.591091,167.174996L282.912437,158.537288L284.259796,151.136277L284.827083,154.545150L285.620459,154.880625L285.139557,168.555574L285.436534,172.787879L285.516719,178.486158L286.196195,178.343880L287.063344,176.696730L288.011530,174.608056L288.826342,173.716385L288.813858,178.687713L290.084091,174.678758L289.999675,179.644188L290.766524,179.015566L291.337065,179.593219L292.107008,179.015479L292.087436,182.752418L292.950414,181.634655L294.543361,176.941793L294.575002,180.144485L294.930756,181.625270L296.076545,179.437437L297.145384,177.733235L298.003387,177.039581L298.934629,176.093546L298.785225,179.548111L299.473790,179.549417L300.682738,177.585953L302.216531,174.537918L305.903959,163.918025L306.966261,163.046381L306.819065,166.358910L305.443806,173.609468L304.190051,180.126485L303.657501,184.056966L304.567006,183.344446L303.649950,188.206812L306.090150,182.917686L307.228132,181.641634L306.331984,186.195275L307.004296,186.213972L308.065642,185.184207L308.166094,186.762279L309.013600,186.338431L309.294163,187.388977L309.786982,187.875873L311.041249,186.482966L309.370903,192.198053L310.533263,191.011494L310.707949,192.168996L310.098647,195.078157L311.590006,193.194127L311.808260,194.181631L315.815496,186.971177L317.072447,185.850014L316.551379,188.479713L317.292359,188.446335L316.937591,190.628254L318.031810,189.880487L317.556844,192.219512L316.655849,195.306303L318.760975,192.644602L318.180665,195.050332L318.728558,195.333189L321.719963,191.235494L321.715781,192.562569L321.311834,194.552614L322.190107,194.298105L323.450719,193.417422L326.425010,189.732086L327.928966,188.569625L327.842419,190.010904L328.942059,189.540657L328.126090,192.084904L327.125138,194.849328L327.191374,195.926369L328.119574,195.695521L327.913292,197.150887L329.984733,195.272014L327.256962,200.316418L327.681158,200.787059L330.058883,198.541695L330.795235,198.617214L329.371798,201.616234L328.089816,204.353465L328.982176,204.171592L330.856647,202.734300L328.290526,207.012492L331.688286,203.679487L334.395016,201.305994L335.535209,200.925450L339.363513,197.322344L340.887710,196.571923L340.311645,198.319882L339.640986,200.142009L338.024337,203.007305L338.721593,203.199499L338.613780,204.293002L338.481889,205.395087L339.075525,205.694374L342.203224,203.293423L341.649874,204.843813L342.441398,204.968234L341.017679,207.370894L344.798993,204.460988L343.515959,206.690735L345.975486,205.192248L345.869121,206.236431L343.181586,209.736232L344.402772,209.463682L342.189317,212.410565L345.068863,210.610394L349.042326,207.879706L351.203372,206.856696L348.530519,210.139121L347.042766,212.315289L342.928612,216.699970L344.068815,216.530360L342.486730,218.651078L342.979248,219.018097L346.428502,216.986242L354.900542,210.999963L361.382236,206.764928L364.296506,205.441400L360.724052,209.153697L357.921060,212.196505L354.877767,215.349820L351.828475,218.434681L352.305676,218.888024L350.170161,221.212867L348.361896,223.255595L347.113011,224.865558L347.343154,225.430104L350.810250,223.806677L351.766296,223.915861L353.099086,223.789942L359.246940,220.572376L355.405855,223.823652L354.401162,225.216708L357.036374,224.336480L354.725056,226.507888L356.889016,225.949589L352.338233,229.385446L351.749447,230.431693L351.979279,230.993799L350.934709,232.271770L359.123080,228.412709L356.937016,230.346951L357.972095,230.510210L361.230828,229.513303L358.837263,231.500305L360.892460,231.170898L357.081125,233.815132L357.110981,234.495049L354.381944,236.508591L356.688549,236.072353L357.881346,236.191650L360.478607,235.680277L361.019763,236.136166L364.674415,235.215262L362.157485,237.037433L364.377619,236.789649L365.862012,236.881988L364.222207,238.279681L365.665588,238.402879L362.830727,240.238184L362.224685,241.160617L362.998068,241.545587L361.997021,242.599889L360.258561,243.904281L360.309806,244.539682L364.334866,243.784155L371.021066,242.177023L366.330059,244.470915L365.902535,245.297844L364.032025,246.576010L365.125998,246.899011L363.253192,248.138456L365.234244,248.202947L366.605322,248.470655L371.209400,247.843311L371.016039,248.599798L364.834872,250.953624L368.496056,250.652095L366.798444,251.757985L372.294787,251.067527L371.257297,252.014075L375.097750,251.813593L371.343864,253.370702L372.687123,253.764172L370.033696,255.015153L372.003612,255.287072L363.059935,257.725789L367.542918,257.497473L365.980553,258.431414L363.469026,259.508088L364.339905,259.979496L371.121012,259.509140L370.132264,260.329885L368.662139,261.206406L372.151523,261.365205L370.734159,262.225731L368.577638,263.159018L366.066874,264.103855L368.315836,264.476346L366.836539,265.273616L366.323806,265.953943L365.260673,266.677156L365.080518,267.309668L362.928347,268.093892L361.496721,268.796418L366.049532,269.090427L362.693666,269.905381L367.174673,270.272213L369.361745,270.801628L370.229430,271.410125L371.075065,272.030762L369.540776,272.720005L370.418545,273.346408L369.852703,273.999795L371.378280,274.637547L366.743160,275.277340L370.211011,275.933736L367.437028,276.533709L366.469615,277.138412L368.778691,277.829020L367.861659,278.432015L366.569965,279.006474L362.955552,279.446326L363.452126,280.073212L370.733946,281.142695L367.059707,281.534301L365.988788,282.078948L365.889057,282.691823L364.536505,283.189459L365.569106,283.903834L364.952886,284.459787L361.364240,284.675172L364.524086,285.644567L365.348086,286.364613L366.081135,287.085011L365.355951,287.613102L369.568074,288.855740L371.718037,289.841613L367.552260,289.845676L368.525400,290.653263L374.397208,292.329992L369.083891,292.062038L370.273844,292.946233L369.314679,293.428923L369.613420,294.154527L371.727587,295.266556L368.920125,295.344385L369.946184,296.241955L363.911579,295.526168L360.665669,295.389889L363.827157,296.780131L373.552824,299.874773L378.464328,301.862317L379.001376,302.756162L377.614509,303.133084L375.922350,303.406628L374.896668,303.850698L375.306309,304.707668L378.650022,306.464333L377.816071,306.974507L375.409946,306.974852L374.829202,307.537430L374.773659,308.269734L375.334017,309.214630L377.390722,310.693151L376.046057,310.995004L373.298285,310.769459L365.139695,308.494829L360.826074,307.556235L359.725181,307.797793L360.928033,308.935464L359.587335,309.071089L359.132332,309.552970L361.422230,311.180502L363.901985,312.929462L364.672207,313.979208L361.839450,313.450336L360.223086,313.428215L363.790485,315.763834L362.638402,315.956992L364.831727,317.726883L363.329654,317.749597L363.829546,318.737737L356.378891,315.757394L355.878684,316.195504L359.612960,318.822976L354.090694,316.645728L352.473371,316.467806L353.979671,317.965852L354.272712,318.824775L356.128495,320.571989L360.173664,323.607293L359.657904,324.077259L362.154991,326.317912L363.937782,328.183413L359.086628,326.060058L359.193000,326.909633L354.645066,324.854399L351.508333,323.616401L347.905268,322.024155L349.523716,323.787087L350.774631,325.343619L349.714482,325.373156L351.863032,327.583654L352.419349,328.738841L352.771033,329.768433L351.557916,329.694774L351.826566,330.677724L348.974243,329.379768L347.191963,328.827754L346.196914,328.841148L346.422710,329.777435L345.892254,330.138399L346.636175,331.501087L344.310440,330.433515L345.943896,332.533355L349.433065,336.204620L348.731056,336.470445L350.635568,338.932945L348.625870,338.095462L345.298387,336.075854L344.967376,336.626129L345.945623,338.347541L341.789037,335.455394L347.878037,341.871990L347.449240,342.389495L345.850858,341.804923L341.567334,338.624560L340.857850,338.806927L338.740833,337.599683L338.770258,338.484142L338.370000,338.947431L340.564405,342.065716L338.184783,340.514856L340.806101,344.165768L341.763535,346.132178L342.152895,347.526771L336.539701,342.375497L336.850883,343.645613L334.964376,342.466608L336.095912,344.686058L336.744020,346.396591L334.724758,345.016045L335.717242,347.165353L333.835841,345.900008L334.302526,347.457006L332.595574,346.353558L332.025633,346.636376L331.644581,347.156875L330.854525,347.152882L329.292596,346.126801L327.379717,344.594645L328.400850,346.962263L328.876346,348.641739L329.114335,350.029858L327.489329,348.827260L327.301652,349.630182L329.305163,353.618448L328.457263,353.524767L326.382431,351.588764L328.061024,355.262358L327.238610,355.195642L325.879223,354.279543L324.551641,353.375532L324.832457,355.016320L325.363082,357.104350L324.587273,357.083768L324.133448,357.593330L322.050584,355.327237L322.508625,357.385684L322.791134,359.190203L322.940910,360.804691L322.329384,361.076365L318.898794,356.136085L318.264430,356.276173L316.410144,354.081464L319.184826,360.791489L321.802728,367.409237L322.092905,369.568316L319.559492,366.023180L318.458172,365.319900L316.573188,362.923962L316.458302,364.242615L317.178732,367.429258L316.411905,367.403443L315.981028,368.129720L314.843904,367.237855L313.646582,366.159858L313.851366,368.401044L313.216871,368.662449L314.395154,373.454339L313.766042,373.820455L310.354239,366.953237L308.523214,363.988441L306.998925,361.720899L306.416057,361.953003L307.188349,366.017873L306.784817,366.854424L305.773496,365.923083L305.707778,367.797199L305.073388,367.990454L304.306876,367.764993L302.445295,363.969134L301.509659,363.052290L300.298189,361.140965L299.814187,361.663098L299.101638,361.384693L298.850975,362.782450L299.414503,367.327297L298.584668,366.701661L297.702979,365.823120L297.988763,369.692161L295.933039,363.849222L296.304738,368.256595L296.885589,373.883924L295.144712,369.037227L294.040825,366.924366L293.273824,366.336775L292.128748,363.738483L291.236664,362.294992L290.857856,363.597316L291.300789,369.774592L290.367842,368.127719L289.192278,364.791448L289.021123,367.786057L288.167213,366.324334L287.944446,369.304179L286.723373,364.932479L286.062002,364.596616L285.712904,366.890761L285.000440,366.151366L285.359099,375.718408L284.609869,375.101448L284.046371,376.462885L282.770673,369.389271L282.036470,368.198492L281.591423,370.971806L280.587469,365.312467L280.242228,370.207179L279.642295,371.194581L278.723349,364.801406L278.173053,366.525631L277.510473,365.051805L276.945159,367.230064L276.308709,366.489775L275.695056,367.429030L275.068926,368.644785L274.406595,373.119962L273.787695,369.474479L273.121358,370.763006L272.458156,371.263927L271.848445,369.941486L271.123800,371.935236L270.438389,372.503588L270.003536,368.243961L269.381758,368.031699L268.728027,368.330188L268.348674,364.859071L267.548114,367.176182L267.100119,365.103280L266.698639,362.830342L266.182452,361.988370L265.119627,366.296502L264.594728,365.408912L264.056749,364.720645L262.933470,368.640106L262.819810,364.716430L262.063785,365.666933L262.065225,361.458330L261.171661,363.331921L260.089934,366.189045L259.847489,363.881396L258.907141,365.679742L259.151361,360.912085L258.837117,359.402120L258.281682,359.206173L256.422703,365.356058L256.033366,364.178590L255.987576,361.505675L255.625564,360.385857L254.155480,364.060654L252.589044,367.908481L252.126270,367.082152L250.921423,369.196670L250.371591,368.694054L250.959544,363.997395L251.317185,360.368836L250.143581,362.295987L250.337578,359.435694L248.378447,363.897802L247.336440,365.147588L245.999377,367.268227L246.386338,363.923696L245.908357,363.349176L244.902228,364.359558L245.530466,360.570937L244.142050,362.666285L244.130193,360.836272L243.993442,359.413877L241.824001,363.461261L241.682649,362.037762L241.501419,360.764050L240.818191,360.791354L239.972880,361.207539L239.380222,360.988854L240.375330,357.008672L240.073842,356.181433L239.772887,355.374635L239.986849,353.434913L238.320407,355.692901L237.652186,355.705145L234.079034,361.875271L232.295104,364.089781L233.336749,360.425138L234.180622,357.273603L236.521370,351.252065L235.180364,352.596221L232.728417,356.016546L233.605230,353.040598L232.324893,354.152576L230.855756,355.564329L231.103011,353.839213L229.287590,355.805104L228.880333,355.249812L227.339711,356.643502L226.941643,356.057427L227.275501,354.263647L225.355225,356.201281L227.049651,352.247383L227.832385,349.848440L226.523186,350.781316L225.425989,351.350526L223.638866,352.940189L222.318656,353.775275L218.829267,357.772326L221.704027,352.400834L220.117278,353.558963L219.240103,353.672350L219.149010,352.678502L217.551035,353.768088L218.148745,351.848117L217.414113,351.746733L214.553723,354.430683L217.205133,349.886901L214.734335,352.002715L216.447727,348.776786L217.535068,346.406525L216.831625,346.285119L217.971117,343.928761L216.035679,345.291705L216.492796,343.793537L215.043118,344.536691L213.187456,345.713171L214.306382,343.489867L213.513424,343.443619L214.172182,341.793297L215.372447,339.589682L213.324178,340.905710L212.358240,341.034257L210.634715,341.935809L210.501255,341.170238L212.201444,338.557637L211.810176,338.091790L212.738135,336.327509L213.540969,334.720741L210.558967,336.774034L209.687518,336.764690L204.414268,340.850205L202.773406,341.470341L203.440233,339.965619L205.641567,337.114079L202.863975,338.725053L204.293327,336.613462L202.682338,337.159233L203.491547,335.625094L203.443085,334.836611L204.729064,332.955792L207.371635,330.009783L203.504339,332.353996L200.461419,333.968472L196.768834,336.031478L190.967585,339.645096L196.600805,334.469331L194.850681,334.944696L195.793913,333.405589L194.590347,333.455189L189.850235,336.022515L191.290559,334.134948L188.034592,335.554909L190.193659,333.201296L187.865983,333.933272L186.025541,334.302379L197.615821,325.822586L200.526034,323.191358L203.391894,320.650718L198.989709,322.735063L190.910454,327.016845L189.635601,327.008112L188.353158,326.986779L186.930711,327.031004L186.012404,326.762405L191.626418,322.742854L194.131906,320.582450L192.716193,320.647691L194.538078,318.925835L197.057373,316.866701L190.559603,319.621539L188.318858,320.056087L184.806838,321.107168L186.008781,319.733896L190.719243,316.652270L191.114531,315.751228L189.197835,315.965282L188.979289,315.355370L191.174182,313.634055L189.631505,313.645102L192.101368,311.851492L190.181311,312.018000L188.230292,312.170815L188.334840,311.432233L190.110954,310.009879L186.979880,310.604469L185.090902,310.660785L185.640026,309.743301L184.826872,309.357120L185.181129,308.526173L183.799337,308.338839L184.653567,307.333495L185.974323,306.181182L182.668730,306.637434L186.598189,304.622442L190.103154,302.808828L189.662096,302.313691L192.740793,300.714443L187.225497,301.786289L184.546841,301.934361L181.892683,302.038452L183.397027,300.929091L181.970808,300.652444L185.200298,299.107644L183.768685,298.829681L184.605085,297.957311L183.304357,297.626624L181.995204,297.281442L182.511988,296.495279L176.923279,297.093990L178.597819,296.030649L178.266918,295.416402L169.636847,296.492321L168.085539,296.054340L164.476302,295.987286L174.622667,293.356011L186.002917,290.651747L187.108407,289.843377L187.858761,289.109341L182.133104,289.390603L183.564601,288.534271L181.879178,288.138840L180.298177,287.707308L180.941616,286.971997L182.844547,286.095042L188.785031,284.786978L185.376222,284.558588L181.034295,284.377434L180.896219,283.746909L181.069061,283.088534L181.824104,282.387112L182.051546,281.734913L183.774151,280.988293L179.840313,280.598481L176.219668,280.139334L180.379080,279.279527L177.466297,278.748466L182.786519,277.917676L179.822850,277.365276L178.650338,276.740503L179.428351,276.077976L177.644246,275.437623L179.341041,274.781069L179.543895,274.133964L176.668796,273.440722L179.225012,272.831304L180.097111,272.206819L175.218996,271.385629L178.239744,270.837623L180.209773,270.277951L180.795366,269.666253L177.567446,268.820155L178.943716,268.252916L177.588041,267.493290L176.089457,266.702479L179.136974,266.302866L172.994316,265.047462L175.022661,264.560227L174.425435,263.807656L174.215964,263.091655L176.917762,262.735690L174.988172,261.804757L179.191564,261.697486L182.437508,261.507533L183.452989,261.020695L183.590157,260.406415L186.205159,260.205510L183.109716,259.048368L177.415589,257.377152L180.504947,257.272307L180.778454,256.661097L178.238155,255.484481L178.328456,254.819280L179.427770,254.371210L179.406432,253.686908L180.920769,253.353581L180.254946,252.522566L181.324243,252.103920L179.181407,250.890179L180.455889,250.527721L181.813945,250.203549L185.115093,250.427853L184.909035,249.713467L186.596416,249.538884L188.112638,249.336001L187.474219,248.500574L185.844438,247.345526L185.477540,246.564582L182.835544,245.035600L181.395818,243.863852L182.397729,243.497842L184.392193,243.488947L187.269633,243.820941L184.551469,242.162158L184.975798,241.623302L184.463398,240.732960L182.535926,239.284472L183.129892,238.795802L186.069905,239.255560L186.234845,238.620494L188.346558,238.797464L194.849870,240.874010L190.236884,238.228685L187.747272,236.443284L189.529934,236.535919L188.438898,235.336616L191.913929,236.244811L194.444230,236.757575L191.941936,234.876988L190.765675,233.601675L193.627642,234.320594L192.715100,233.164314L192.075930,232.128938L189.267285,229.937254L191.934555,230.617466L196.665059,232.459408L196.230166,231.528726L197.656095,231.628601L196.068080,230.031582L201.244929,232.315583L198.008364,229.742501L194.566381,226.982096L190.345576,223.680207L188.640963,221.842369L193.099531,223.817484L196.143424,224.972685L194.128768,222.921824L198.424642,224.950095L195.299202,222.132210L198.600007,223.572023L197.907738,222.342590L196.931035,220.895151L197.681269,220.634982L195.085214,217.995589L195.682789,217.606046L190.286248,212.821204L185.735535,208.544588L183.688499,206.052965L186.451276,207.191034L197.442368,214.768775L199.083226,215.213083L201.722542,216.481897L202.318202,216.145682L206.091759,218.423081L206.758943,218.191523L207.177016,217.756184L206.751760,216.599897L205.795429,214.963586L203.726300,212.316165L206.646722,214.057325L206.507592,213.094211L206.782260,212.496452L209.877856,214.515024L208.961447,212.824120L203.287255,206.558193L206.658498,208.883991L206.433091,207.759487L204.357783,204.777942L206.656518,206.134986L207.853618,206.416908L206.247975,203.817285L210.329734,207.127932L208.779515,204.550154L207.233686,201.918446L209.240332,203.110444L212.225339,205.431923L210.230739,202.235043L209.011469,199.844822L209.167186,198.988293L215.191499,204.989972L214.661478,203.391583L212.669056,200.000365L211.744442,197.828791L212.659278,197.883747L216.852286,202.064032L214.956275,198.628647L217.173176,200.412521L216.198628,198.083588L219.471086,201.333806L217.482485,197.608997L221.093670,201.430707L221.731815,201.257532L222.262167,200.938437L219.866060,196.451167L219.037759,194.109664L215.999722,188.469617L220.185794,193.425500L220.985347,193.425420L220.691551,191.760502L222.728557,193.682545L220.772356,189.367745L221.201170,188.756046L221.216350,187.463564L221.839527,187.147203L221.329095,184.929803L222.229972,185.059736L223.443593,185.746493L226.648075,189.967398L230.173062,194.906886L229.883135,193.089991L229.059317,190.238766L228.992108,188.722789L231.361656,191.812022L229.774576,187.346223L232.184996,190.618075L231.576210,187.959956L234.559633,192.544481L235.900295,193.890881L235.672340,191.982960L235.057815,189.185938L235.384873,188.357069L237.323499,191.096606L237.411400,189.749467L237.994171,189.504749L237.415696,186.526700L236.477145,182.580163L236.094169,179.848855L238.878509,184.918874L240.931338,188.341109L243.048314,192.078339L242.447548,188.780451L241.736233,185.054659L241.853935,183.469076L242.661639,183.771125L242.555851,181.462508L241.837093,177.253614L243.535680,180.150162L244.406000,180.636486L246.129379,183.848954L246.755068,183.676826L247.334670,183.352982L247.398196,181.269802L248.038412,181.097771L251.422836,190.734222L252.209230,191.362370L253.019660,192.124162L252.435783,187.532358L251.233934,180.219895L250.658431,175.055731L251.608764,176.042700L253.751190,182.301788L255.439506,186.927946L255.725328,185.345677L255.660402,181.977216L256.338231,182.078945L256.865661,181.421200L258.006985,184.010267L258.942548,185.665856L259.615971,185.947062L260.639446,188.372390L261.148618,187.780717L262.109655,190.118918L262.436433,188.313132L262.444892,184.028171L262.568013,180.174896L262.831576,177.033542L263.558672,177.483766L264.540508,180.305994L265.650501,184.748869L266.342718,185.512066L266.984425,185.838624L267.355622,182.971309L268.245056,186.397075L268.889211,186.971965L269.681666,190.049884L270.110530,187.371731L270.491091,182.972986L271.227884,185.608396L271.755412,183.354579L272.377049,183.330152L272.964100,181.716910L273.669645,186.539257L274.259003,185.228611L274.873250,188.797244L275.492201,182.365961L276.125625,181.955001Z" />
<line x1="50" y1="625" x2="100" y2="625" fill="none" stroke="green" stroke-width="1.0" stroke-linejoin="round" stroke-miterlimit="10" />
<text x="125" y="628" style="text-anchor:start;fill:black">n0_4mer:PS</text>
<path style="stroke:red;stroke-width:1.0" d="M276.672614,151.710498L277.500431,152.142261L278.383099,150.345504L279.167261,152.180168L280.012557,151.911086L280.858565,151.713706L281.922503,147.563823L283.310354,139.049226L285.235703,124.341268L286.917370,115.587210L288.532352,109.128043L288.087128,126.982132L287.999326,138.533908L288.004794,147.635146L288.475590,151.332054L289.136298,152.962142L290.367246,149.773486L291.603474,146.894001L293.154980,142.007343L294.165973,141.371969L294.678710,144.120875L296.086449,140.949400L296.413343,144.638511L296.356029,150.282984L297.340430,149.651635L297.921982,151.254257L297.786960,156.478367L299.650292,151.317927L300.731616,150.311086L302.349313,146.869654L303.132655,147.444528L304.690261,144.594689L305.691460,144.299757L306.701468,143.998187L305.998403,150.601085L307.076339,149.898604L308.026987,149.729382L309.278390,148.471077L313.781072,135.604330L314.884727,135.313990L314.325845,140.728216L313.198105,147.784428L312.090739,154.447664L312.134684,157.155085L313.263941,156.384586L315.301120,152.910338L318.005957,147.625638L319.626995,145.724643L316.892279,156.264069L317.893078,156.006413L318.825879,155.956308L318.616654,158.958778L318.943536,160.454559L320.368593,159.097217L320.732638,160.462436L320.928290,162.200469L320.995743,164.192988L322.160344,163.529043L323.924907,161.509887L323.482711,164.601795L325.672543,161.709186L325.844632,163.362550L326.751804,163.384295L328.552290,161.524642L328.803772,162.967188L330.099750,162.235296L330.423138,163.497484L329.806298,166.589841L329.870412,168.267472L330.769693,168.304469L332.644031,166.517564L332.950311,167.704105L331.913942,171.311415L335.671325,166.222011L336.700464,166.119711L338.351594,164.953178L340.350539,163.241146L339.026844,167.189939L342.447315,163.165470L344.023329,162.288329L340.940528,168.944562L342.784866,167.609770L342.638171,169.435570L344.399380,168.287440L345.860352,167.641544L344.809073,170.779057L344.509423,172.733694L346.936302,170.692200L346.306359,173.091773L347.950366,172.233443L348.046350,173.563142L349.234155,173.374627L348.770214,175.434852L348.638358,177.009553L348.239834,178.904191L347.572581,181.107713L347.796493,182.126979L348.620889,182.376286L350.562599,181.246163L353.802717,178.572220L356.647682,176.462797L358.242769,175.913686L358.466403,177.005017L358.674292,178.100343L356.100766,182.358603L356.902444,182.713598L356.713055,184.175577L358.270399,183.697914L358.350619,184.845969L361.560829,182.638646L363.366350,181.984878L363.034655,183.584008L363.719304,184.115144L364.596644,184.453440L363.864835,186.403247L365.916102,185.579707L369.176321,183.621696L369.381154,184.657870L367.796868,187.372880L367.375825,188.948364L365.200423,192.110549L368.703081,190.056987L372.155684,188.120520L372.138345,189.314784L368.825743,193.361830L365.629693,197.216667L368.107090,196.180955L364.859889,199.970318L366.656443,199.519581L369.350487,198.369157L377.583108,192.831312L384.072112,188.841736L388.671616,186.454111L381.680430,193.056697L374.891463,199.343309L373.224225,201.649268L371.807730,203.724862L372.117038,204.508037L371.293917,206.098009L371.795036,206.727479L371.209096,208.113466L371.443012,208.916760L372.666369,209.047627L377.070584,207.077120L378.080489,207.409481L383.011142,205.219545L380.650853,207.755833L378.882067,209.867562L378.966152,210.793223L378.428958,212.090184L379.243073,212.559812L378.143184,214.165530L376.544797,216.033064L379.639701,215.181360L377.980433,217.053223L381.909553,215.793579L383.865775,215.671639L386.771326,215.068009L387.603062,215.601969L386.377383,217.210874L385.252616,218.740427L386.725455,218.940850L386.465742,220.014488L384.040637,222.127426L388.531046,220.898213L388.291564,221.952374L387.330737,223.328434L390.329672,222.893913L389.561941,224.173721L388.083544,225.745003L393.340247,224.407666L394.376693,224.919641L395.655545,225.342967L396.098342,226.118712L394.805594,227.583109L403.322168,225.216581L404.218565,225.874702L397.592854,229.343010L396.178777,230.803368L390.768856,233.664117L390.548552,234.624435L394.979934,233.987139L397.507027,234.049327L393.178076,236.385635L389.297943,238.509719L389.745716,239.222664L388.065046,240.586494L389.644555,240.953766L394.546284,240.378817L397.140788,240.523750L397.230548,241.391957L394.857989,242.917244L395.186326,243.701512L394.515064,244.740544L397.862581,244.778387L397.216644,245.815069L398.939445,246.290960L397.787235,247.434137L398.315099,248.193004L397.956313,249.143244L400.613411,249.473031L391.644641,252.118491L395.793089,252.154553L395.577631,253.041452L392.064467,254.500708L395.430882,254.752245L400.130203,254.834019L397.686015,256.080888L398.456720,256.818567L403.627643,256.947668L398.314343,258.545574L397.696176,259.474461L396.801918,260.426409L397.531453,261.181567L399.385760,261.826337L396.643049,262.950678L398.568009,263.605920L403.935625,263.992539L403.744350,264.888103L403.466475,265.786330L404.703268,266.581605L400.602390,267.703049L402.829721,268.443408L401.275447,269.381714L403.727005,270.147363L402.570477,271.057384L398.660576,272.017736L399.989382,272.833949L398.689655,273.695715L401.721883,274.523432L401.780820,275.383258L400.185317,276.227695L393.221290,276.961520L391.403196,277.721318L396.889814,278.677048L394.650678,279.422093L393.087948,280.166719L394.740670,281.053126L394.872423,281.875337L398.969178,282.954387L395.323604,283.540442L396.490207,284.451965L394.955716,285.151696L395.891078,286.057306L394.821532,286.779636L392.181027,287.323201L391.395669,288.039519L399.381143,289.789130L396.180857,290.242974L397.491110,291.252613L396.071759,291.900829L398.832603,293.143463L404.124213,294.814418L398.386943,294.791658L397.375383,295.481859L397.587336,296.373211L396.350835,297.006876L400.411248,298.623058L396.767438,298.793144L394.951423,299.284216L394.862816,300.113896L397.647348,301.567095L397.428551,302.390482L394.705337,302.635229L392.896982,303.061490L394.440376,304.286394L397.492896,305.917258L402.110227,308.001473L403.058659,309.176634L401.848665,309.777189L401.292427,310.547547L401.850912,311.635230L402.772783,312.842399L403.200264,313.916883L402.261609,314.576762L400.454163,314.950009L402.500204,316.556267L400.783418,316.942742L402.680625,318.540022L403.219540,319.697013L404.321511,321.067392L403.565341,321.783244L397.956196,320.689047L392.964104,319.747090L389.835670,319.453804L386.948491,319.211694L386.605217,319.953671L385.558885,320.406300L384.721114,320.934535L386.880458,322.733080L388.691054,324.419853L391.723330,326.682170L391.423489,327.496889L390.085784,327.836042L391.019187,329.220488L393.308787,331.271497L393.023273,332.120651L392.021705,332.618944L383.268170,329.224485L385.326736,331.194849L385.281333,332.117211L382.868457,331.798849L378.294419,330.288584L380.472337,332.378168L380.388489,333.262505L379.332809,333.606456L382.916750,336.586421L385.932379,339.308905L385.784031,340.230975L385.263511,340.935868L384.268790,341.351462L381.414830,340.610619L378.159923,339.573693L374.583963,338.279563L373.801416,338.727262L375.690341,340.917116L376.607992,342.506948L377.125881,343.854160L373.433040,342.340160L375.387767,344.681834L375.362084,345.677653L374.576248,346.139611L374.910150,347.406852L374.316302,348.009162L372.391290,347.616870L374.456315,350.211718L370.588939,348.311653L370.112554,348.976403L369.338130,349.406637L366.610920,348.269126L369.526510,351.658141L371.138048,354.052135L372.254227,356.081989L373.593444,358.338692L372.552903,358.600308L369.074013,356.732325L365.465626,354.680655L364.890224,355.263227L362.996421,354.651670L365.110376,357.684172L366.967139,360.544294L365.313129,360.155802L362.323216,358.462877L363.228552,360.480968L361.569702,360.019848L360.471670,360.088187L360.372165,361.150082L360.036782,361.983977L358.376556,361.451243L359.343820,363.649912L359.021328,364.519227L360.109722,366.920584L354.670993,362.226175L354.881848,363.657398L353.767465,363.622179L354.014651,365.124189L355.328283,367.886169L353.065231,366.516799L354.683406,369.707548L354.029750,370.234636L354.249750,371.828922L353.917841,372.769122L353.567681,373.697791L349.747221,370.216979L349.691653,371.486687L347.728282,370.278739L346.185777,369.581436L347.359018,372.510033L348.400534,375.328684L347.512506,375.539035L345.771584,374.541606L345.246090,375.235428L344.864354,376.143736L344.106522,376.512374L341.734393,374.471834L341.878386,376.163086L342.054459,377.940630L340.764913,377.474288L340.064333,377.911864L339.864413,379.153236L339.773225,380.596467L340.237533,382.990261L338.375844,381.534799L337.488739,381.684069L337.016165,382.543506L335.514712,381.604416L335.372713,383.055144L334.850147,383.847457L333.820974,383.716050L333.102786,384.151378L332.959251,385.685497L334.152975,389.854404L335.150354,393.763342L335.045581,395.578875L332.663680,392.791548L330.811695,390.994447L330.471445,392.317661L328.380802,389.906840L329.045043,393.432752L327.677008,392.539556L327.483463,394.269097L326.251844,393.647010L324.436212,391.610523L324.980775,395.156817L326.553515,401.348084L324.083710,397.667480L323.196928,397.861197L319.417209,390.525220L317.818811,388.663899L317.211646,389.398590L316.442103,389.702982L316.176090,391.432194L315.126521,390.960981L314.454066,391.570612L312.999409,389.832104L313.980511,395.532327L313.621103,397.247296L311.773593,394.208584L310.949290,394.406186L308.544458,389.219719L308.037122,390.381550L306.844062,389.134960L306.462935,390.797932L306.826853,395.358269L305.151830,392.236032L304.169265,391.691456L304.651054,397.134556L303.754638,397.047601L302.881985,397.046981L302.655126,399.951965L301.928113,400.702722L301.009375,400.566793L299.316022,396.537069L298.342400,395.929394L296.929277,392.900823L295.813966,391.286936L295.783531,395.837756L294.520714,393.293745L293.471848,391.867355L293.497577,397.409398L292.601936,397.082409L292.012512,398.941264L291.485809,401.466131L290.354575,399.364289L289.272145,397.420418L288.159268,394.943247L287.848354,399.920691L287.125980,401.310591L286.480341,403.761964L285.090765,397.571102L284.393103,399.412258L283.879784,404.290573L282.681713,399.162569L281.981466,401.794510L281.049473,400.353203L280.051758,396.840581L279.189828,395.854139L278.492008,400.259910L277.613933,398.940087L276.714939,394.888633L275.908283,395.784108L275.087706,394.160791L274.244483,399.925263L273.371101,401.939480L272.571967,398.767975L271.756407,397.840365L270.917097,397.998621L270.020449,399.527601L269.146704,400.113111L268.397702,398.212012L267.358399,401.536213L266.983157,394.294764L266.116751,395.012229L265.338261,394.510988L264.645519,393.099593L263.699817,394.558577L263.127717,392.124460L261.952661,395.559854L261.563239,391.748786L260.394522,394.746217L258.905465,399.898704L257.824940,401.507476L256.801553,402.548698L256.649029,397.661147L255.272237,401.015943L253.955525,403.706714L253.639510,400.296079L254.097318,392.782042L253.274878,392.767241L252.377258,393.135319L251.739061,392.159796L250.505074,394.138155L250.183705,391.682921L250.168183,387.983654L248.794279,390.492291L247.431980,392.787592L246.652484,392.519515L245.244714,394.785041L244.447336,394.523641L243.229274,395.865627L243.298639,392.357944L242.826453,390.975159L242.349481,389.668943L241.469636,389.796493L239.823512,392.465442L239.012428,392.273149L238.771387,390.264762L237.570586,391.320720L236.683822,391.363410L236.056718,390.621661L235.428364,389.904494L234.284866,390.670179L234.195462,388.460683L234.116444,386.303533L233.107607,386.702857L231.020092,389.892469L229.130033,392.437636L228.847025,390.837231L228.153309,390.297459L229.957758,383.735397L229.987847,381.611468L228.973189,381.983497L228.172031,381.843296L228.081538,380.104664L225.113667,384.746937L225.472032,382.025323L222.836226,385.743770L219.207086,391.393644L221.136205,385.440785L221.557397,382.716377L220.435081,383.129830L220.154453,381.877100L219.305283,381.742952L218.991051,380.592369L218.230831,380.293841L216.704493,381.390731L214.911177,382.919830L213.538257,383.644951L213.207934,382.520327L210.858255,384.876730L210.375952,383.997881L210.427978,382.245000L210.347891,380.747968L210.215553,379.366894L209.692664,378.633653L209.149094,377.941342L207.350955,379.188465L205.145851,381.003221L204.725723,380.082275L202.936478,381.191694L202.853577,379.777021L203.239741,377.717419L203.786066,375.476648L201.904109,376.663002L201.384539,375.933919L201.729993,374.042001L202.220817,371.995371L199.616487,374.059268L200.459416,371.584932L198.103359,373.252465L198.572849,371.299414L200.351560,367.758932L199.232977,367.852194L199.917395,365.749646L199.543677,364.951916L198.175663,365.331062L196.186597,366.406075L194.435065,367.165792L195.128696,365.130976L193.647474,365.557348L193.232385,364.786693L193.499968,363.282360L191.656279,364.059648L188.698988,365.974826L190.928015,362.429526L190.526098,361.663054L192.139237,358.862348L191.385578,358.484701L193.389573,355.385710L189.687831,357.899224L185.567525,360.731164L187.266636,357.967664L184.348346,359.569924L184.078673,358.675156L184.820625,356.869452L184.556627,355.996737L182.905450,356.356438L182.007641,356.033103L180.887721,355.892370L182.319699,353.574655L178.854560,355.397782L180.996518,352.529154L184.042564,348.985950L183.182675,348.656085L176.358097,353.036934L172.433919,355.016186L168.455274,356.963538L167.592301,356.473592L170.920736,352.842206L171.161750,351.569041L170.383939,351.052456L169.798961,350.392246L171.097345,348.400060L166.975790,350.218370L167.821332,348.555082L166.226235,348.569360L163.674889,349.199315L171.497571,342.975924L170.965005,342.320004L173.958441,339.414771L170.954810,340.341202L170.183678,339.838195L167.430944,340.536261L166.680961,339.989765L165.592786,339.637370L162.876632,340.220046L166.410980,337.182163L169.591821,334.414818L167.506015,334.633267L167.837148,333.502428L170.463772,331.151392L166.580374,332.293081L162.988915,333.222365L161.448239,333.048194L164.513818,330.538933L164.684834,329.518697L166.090492,327.907807L163.512295,328.228555L162.384261,327.832042L163.964977,326.174367L162.772612,325.803740L165.952499,323.475626L166.499212,322.353740L163.075426,322.946775L162.232620,322.405064L162.699419,321.314925L159.229170,321.829736L159.656586,320.748838L156.330281,321.138977L158.115294,319.534574L158.042416,318.656084L158.994613,317.406324L159.365014,316.383850L157.178246,316.266989L156.020673,315.768427L158.018778,314.199077L157.212409,313.582528L157.141815,312.722301L158.560132,311.399408L153.522147,312.071596L149.017679,312.513929L145.895095,312.492186L148.181900,310.897067L149.410584,309.630802L149.624394,308.658358L151.922857,307.147832L149.136678,306.965110L149.214411,306.038587L148.792975,305.235801L153.522611,303.232743L152.418897,302.614154L155.821102,300.999511L153.052102,300.738220L142.477026,302.032471L138.184359,301.942688L137.637597,301.083673L144.469938,298.870043L152.372093,296.566336L154.526218,295.345948L155.569994,294.337327L152.994088,293.905969L154.818490,292.789272L152.770586,292.245903L156.338440,290.922280L153.863519,290.418568L156.031494,289.323195L154.895925,288.634012L153.225105,287.987581L152.097153,287.265255L147.726714,286.830002L151.635443,285.623106L149.126496,284.979423L154.221367,283.751448L153.857686,282.952084L151.590136,282.260509L150.680248,281.468096L150.419632,280.634537L150.223190,279.795487L152.405321,278.878951L151.956966,278.057780L152.034296,277.221307L151.523820,276.392718L147.604380,275.572654L146.489653,274.705884L145.564054,273.825678L142.878826,272.904901L144.537013,272.045841L143.219707,271.121443L142.677881,270.206890L148.848192,269.573274L151.383483,268.841947L151.135471,267.986948L150.454617,267.100472L149.970170,266.217787L147.797043,265.197552L148.289972,264.370403L148.642300,263.536249L147.315455,262.542016L150.259741,261.974449L151.421503,261.247686L150.637138,260.305651L149.285509,259.280522L150.215928,258.536386L152.805411,258.033903L151.958952,257.064795L153.329333,256.420787L153.689715,255.632809L154.076861,254.852476L153.725391,253.947416L147.532670,251.980572L146.762722,250.942115L149.942533,250.659317L150.405026,249.870926L148.842530,248.663930L149.797641,247.975694L150.055364,247.142931L155.388656,247.478971L152.469602,245.930737L155.118191,245.698678L152.370738,244.144094L152.079223,243.182561L152.878538,242.503948L157.335596,242.833676L159.418990,242.558978L157.979982,241.297065L159.005393,240.738568L157.929030,239.555432L158.515096,238.868448L157.408053,237.648746L155.469080,236.138247L158.808640,236.350537L157.214367,234.930770L158.603156,234.520186L162.035748,234.852908L155.609058,231.654455L160.728921,232.633712L157.647254,230.583364L156.324463,229.159932L158.417451,229.057117L157.827549,227.903866L158.081928,227.082304L158.984372,226.530374L162.969909,227.300292L161.071020,225.576163L157.776294,223.199200L162.393512,224.323718L158.936182,221.818101L161.391408,222.007694L168.055203,224.229851L163.374424,221.076828L166.360112,221.607165L168.841789,221.929730L167.192468,220.187974L164.338282,217.788802L159.183332,214.124555L163.832091,215.602094L163.658053,214.534615L166.970534,215.381002L167.997401,214.997180L166.732450,213.318737L169.912129,214.182291L167.301300,211.692165L171.023745,212.927425L168.853101,210.650891L165.585466,207.650738L169.897456,209.317682L171.570542,209.383429L171.174039,208.139801L174.905304,209.577779L173.470693,207.652744L175.698764,208.156255L174.629716,206.442676L175.675258,206.164066L176.570083,205.791102L175.049410,203.703751L174.383708,202.194025L169.386337,197.480940L164.442655,192.692513L158.343008,186.915218L163.131915,189.333501L172.465962,195.372108L176.226452,197.212634L177.506482,197.143374L174.819426,193.878461L177.603330,195.032737L177.016106,193.431572L178.086855,193.203565L180.792980,194.386937L180.539431,193.053479L182.995779,194.084074L186.166597,195.797577L183.395342,192.204567L185.752782,193.228488L183.340524,189.867341L185.056496,190.317398L182.123902,186.360137L183.754280,186.725633L184.391824,186.144597L184.040473,184.581474L185.554049,184.871484L187.049211,185.167354L186.352360,183.218271L189.529624,185.298015L186.416321,180.758671L184.491811,177.392816L189.142237,181.138875L191.641399,182.620408L189.239691,178.652672L188.498046,176.481825L187.383808,173.836829L191.951051,177.785404L191.932526,176.417367L191.273089,174.255694L190.574187,172.001272L190.685198,170.701534L190.723196,169.289735L191.387892,168.651338L193.058565,169.308477L193.198891,167.998282L197.843312,172.641803L199.741441,173.738056L203.232178,177.054027L204.700619,177.680187L205.736446,177.730796L204.133061,174.036505L203.114505,171.093479L200.250352,165.371438L203.509126,168.607284L200.890977,163.078287L204.774957,167.364864L206.410108,168.296317L206.167222,166.304406L206.068473,164.497087L206.731447,163.888428L206.625641,162.004791L206.763590,160.486057L208.747109,162.079792L210.335632,163.054229L212.175875,164.516315L213.860844,165.761547L213.217473,162.833357L211.947673,158.667531L211.938385,156.742456L214.648238,159.951154L216.911751,162.416103L218.601857,163.847754L218.506675,161.762960L221.028176,164.954640L220.534992,162.016824L221.861077,162.828668L220.860765,158.684189L222.373176,159.898959L224.421883,162.365451L223.682405,158.612258L224.668135,158.717361L223.710474,154.264661L222.345824,148.677839L221.786845,144.857744L223.977215,147.757471L227.602940,154.438274L230.242409,158.844197L230.966696,158.371870L230.673601,155.141264L231.270642,154.243928L232.433557,154.916958L233.405219,155.080951L233.219121,151.852476L235.040604,154.541581L236.471097,156.162230L237.738344,157.356572L238.991924,158.576573L239.932876,158.833038L239.562565,154.661568L240.438358,154.628186L241.494613,155.250334L243.453965,159.232273L244.234384,158.999692L244.712668,157.594571L244.556333,153.589332L244.508474,149.804564L246.234969,153.308703L247.431147,154.730516L248.354091,155.025529L249.809266,157.827670L249.908171,154.309188L251.029019,155.643212L251.875491,155.670382L252.743359,155.825986L253.461565,155.172913L253.908204,152.906726L254.330689,150.315885L255.203412,150.344986L256.023081,150.039695L257.730919,155.845738L258.810098,157.691174L259.575773,157.351557L260.027384,154.457338L260.832641,154.249379L261.801729,155.510722L262.618648,155.482247L263.297756,154.037135L263.912583,151.668949L264.967839,154.225411L265.446468,149.688695L266.532211,153.018557L267.415743,153.856127L268.113616,151.583372L268.949557,151.510222L269.947124,155.256956L270.613056,151.088002L271.462326,151.361398L272.289458,150.805466L273.153500,152.218632L273.991470,152.817091L274.821891,153.868217L275.654864,151.752185L276.483386,152.382253Z" />
<line x1="50" y1="600" x2="100" y2="600" fill="none" stroke="red" stroke-width="1.0" stroke-linejoin="round" stroke-miterlimit="10" />
<text x="125" y="603" style="text-anchor:start;fill:black">n0_4mer:D</text>
<path style="stroke:black;stroke-width:1.0" d="M277.293782,105.923797L278.435343,106.205726L279.555887,107.132695L280.691569,107.254924L281.815120,107.647147L283.062382,105.337097L284.464029,100.776925L285.882139,96.976870L287.364094,93.013597L288.738142,91.231642L290.010878,91.005101L291.066009,93.290435L291.914196,97.435856L292.775471,100.912644L293.559222,104.678636L294.799069,104.075762L296.277875,101.608224L297.599840,100.628349L299.089945,98.531295L300.242122,99.008147L301.400092,99.418319L302.827573,98.094784L303.729121,100.101056L304.471814,102.887633L305.320623,104.876125L306.004929,107.617969L307.286018,107.070990L308.746997,105.675495L310.066673,105.075756L311.453444,104.217193L312.694606,104.089957L313.914191,104.081425L314.969864,104.787477L316.126548,105.050385L317.012478,106.400778L318.093131,106.931852L319.445791,106.418120L321.186597,104.515317L323.250107,101.568592L324.857980,100.385232L325.665375,102.011209L326.151026,104.645817L326.540798,107.482077L327.202577,109.337938L328.904723,107.899304L330.342697,107.342842L331.814683,106.727175L332.963040,107.092824L333.381139,109.529439L333.955413,111.446429L334.441605,113.539504L335.970986,112.787930L337.253565,112.726713L338.826856,111.942041L339.963968,112.297500L340.161023,114.965023L340.919232,116.195886L341.069485,118.834287L342.379742,118.700581L343.745110,118.463028L345.142310,118.179779L346.857399,117.225688L347.831376,117.920926L348.916614,118.373380L350.004475,118.822062L350.996346,119.469249L352.238858,119.607735L354.148536,118.439427L355.494562,118.424028L356.444836,119.184186L357.458900,119.817544L357.683917,121.909451L358.173125,123.471159L359.345283,123.776829L359.845287,125.276986L361.488961,124.761708L363.597861,123.484870L364.974748,123.498185L366.936589,122.559755L367.524614,123.911897L367.874111,125.625938L368.678417,126.587125L369.487455,127.531283L370.805996,127.683076L371.630974,128.597225L371.613094,130.762191L372.209842,131.979225L372.979079,132.930115L373.876073,133.690228L375.954055,132.784119L377.194085,133.086723L377.623486,134.510085L377.971321,136.023113L378.889192,136.754815L378.907665,138.665841L379.814828,139.393635L381.688643,138.887720L382.313933,139.986485L384.035388,139.715004L385.757516,139.470391L387.184842,139.608765L388.349995,140.076171L387.852179,142.504204L387.343044,144.900275L387.819515,146.126278L388.691154,146.894573L390.753252,146.339748L392.609022,146.047224L393.744178,146.563446L394.920475,147.043539L396.164592,147.461187L397.581982,147.709747L398.233069,148.758931L398.295222,150.397586L398.818927,151.554602L399.528708,152.520117L400.392594,153.332872L401.549206,153.866443L402.677066,154.435871L402.924848,155.833081L403.076730,157.304212L404.048174,158.016217L405.248820,158.527660L406.251565,159.223695L406.779289,160.338291L406.871042,161.821098L406.767480,163.453318L407.098907,164.702302L408.114301,165.378431L411.474979,164.155923L413.794698,163.825963L416.272254,163.406194L416.976706,164.405517L415.195512,167.313114L414.427928,169.398827L412.947411,171.985253L413.421573,173.086478L413.887154,174.189387L414.201814,175.395763L414.792564,176.399998L415.858539,177.072260L416.787740,177.846322L417.205243,178.971312L418.071960,179.792751L418.662249,180.799768L420.421548,181.050602L420.886778,182.146656L421.640409,183.058748L422.175640,184.108173L421.539159,185.868758L422.623039,186.575800L423.047192,187.680877L424.068567,188.436071L425.216729,189.126663L425.534325,190.294794L426.346075,191.184671L426.054937,192.679898L426.059010,194.001881L427.047297,194.795165L427.721042,195.759356L429.279543,196.274420L430.648080,196.902318L431.465790,197.816181L432.075770,198.835732L432.498543,199.946057L432.743656,201.138132L433.150220,202.251706L434.175540,203.084296L435.071116,203.983228L436.076417,204.841088L436.698081,205.871503L437.151777,206.974835L437.701991,208.038319L438.419127,209.035948L439.595171,209.856204L441.921437,210.241744L441.398676,211.739860L438.766248,214.008893L437.778594,215.630977L436.670571,217.274666L438.097000,218.009814L441.520036,218.078289L441.866772,219.221104L440.815322,220.820295L439.976198,222.330392L439.697146,223.647972L440.460306,224.638996L441.888699,225.438713L443.337822,226.248551L443.881228,227.330490L444.610559,228.364531L444.536571,229.619625L443.183080,231.202371L442.046257,232.706346L442.062246,233.906198L442.008857,235.118837L443.517822,235.964929L445.584041,236.703704L445.546716,237.925505L446.809712,238.869754L446.879338,240.070939L446.413068,241.374884L446.514388,242.561697L446.226221,243.817772L446.347612,244.995124L446.818440,246.112578L447.862068,247.141553L447.861740,248.343411L448.360164,249.469302L447.873214,250.737994L447.104442,252.035277L446.586523,253.288050L445.985080,254.541647L445.796935,255.738448L444.245344,257.075270L442.646232,258.393844L440.925058,259.700220L439.169047,260.984600L438.836597,262.131871L439.556067,263.197969L441.104428,264.218987L444.281390,265.165490L445.293081,266.265394L445.098631,267.431919L443.709397,268.640142L442.724019,269.816422L445.642345,270.884699L447.203797,272.015729L449.995272,273.154706L451.103893,274.337719L450.004201,275.529038L450.621634,276.722324L450.243414,277.907628L449.119820,279.070640L448.550877,280.235506L448.986103,281.430241L449.338147,282.627842L449.095106,283.800850L448.719372,284.963753L447.986562,286.099550L447.184015,287.221439L448.206434,288.475499L448.036293,289.643837L448.132166,290.835538L447.933669,292.001081L447.441370,293.134588L448.308291,294.415300L448.545020,295.634799L448.401047,296.811594L448.311060,297.995608L448.336800,299.196688L448.094453,300.361115L448.758700,301.663687L448.178823,302.778433L446.938344,303.777168L446.197280,304.848398L444.662359,305.768132L444.363736,306.902157L444.437895,308.107868L444.331933,309.281321L445.037647,310.626626L444.498818,311.715765L443.379654,312.670951L441.938659,313.539536L442.123366,314.778208L442.262503,316.012224L442.756212,317.341737L443.796163,318.824341L442.262953,319.639579L441.871888,320.750068L442.087189,322.030054L441.872405,323.193654L441.949190,324.445255L442.495156,325.845367L442.409012,327.062101L442.123462,328.219308L442.923438,329.731451L442.536435,330.865372L442.721569,332.194276L442.955380,333.548828L442.071497,334.514833L440.254172,335.133829L438.670575,335.818021L436.874954,336.403706L436.571273,337.545529L436.585118,338.814633L436.763102,340.156859L436.016708,341.129221L434.826371,341.911005L434.081323,342.871026L433.227432,343.779170L433.225893,345.058467L432.348121,345.950346L431.306488,346.760523L431.008630,347.909183L430.995903,349.196712L429.633766,349.839319L429.571152,351.107475L427.855263,351.555260L425.694875,351.756334L425.281729,352.834325L425.391852,354.189823L425.027546,355.302601L425.939918,357.113056L426.035874,358.498004L425.847465,359.734950L426.105238,361.233423L425.484336,362.237675L425.772453,363.776641L425.413533,364.944958L425.323518,366.281190L424.296462,367.049513L423.435466,367.914243L421.176820,367.886495L419.408723,368.144135L418.595729,369.005206L416.903025,369.278413L416.996173,370.735059L416.756194,371.978462L416.639370,373.315674L416.326918,374.526180L414.763526,374.850348L412.736635,374.820450L410.656206,374.723265L409.094635,374.983609L407.805042,375.430982L407.944055,376.961047L408.403899,378.758549L408.580393,380.357906L408.672944,381.909742L408.362155,383.152675L408.233761,384.555098L408.457331,386.264940L408.749718,388.055453L408.217028,389.163539L406.580724,389.318484L405.314363,389.778776L404.215689,390.377043L403.374426,391.200606L402.712166,392.187112L401.465734,392.633560L400.355580,393.197155L398.439281,392.982341L396.836989,393.042783L395.569614,393.411061L394.754720,394.217420L393.652842,394.734014L393.772984,396.492678L393.961467,398.348424L393.190914,399.225037L394.065168,401.856146L392.836657,402.266475L390.975739,401.973692L389.935990,402.562470L388.752410,402.984142L387.725002,403.574249L387.103710,404.629115L386.124412,405.272471L384.505713,405.152790L384.714017,407.210648L384.733111,409.074098L384.355023,410.476902L383.223255,410.951527L381.734992,410.964701L380.075545,410.736602L379.144751,411.436339L379.472291,413.807774L378.714509,414.764269L378.103563,415.928741L377.093987,416.553941L375.754695,416.713433L374.640371,417.178665L373.630956,417.789602L372.878142,418.775755L372.005038,419.592144L371.139145,420.424153L370.286894,421.282487L368.637406,420.904954L367.585356,421.441699L366.774863,422.363530L365.773087,422.982709L365.827275,425.349971L364.530426,425.500653L363.336822,425.813278L362.505324,426.744781L361.122146,426.715191L360.292204,427.656074L358.802911,427.409548L356.874731,426.325229L355.482100,426.192958L354.071851,426.004489L353.452077,427.326515L352.902715,428.814336L351.573288,428.768533L350.484439,429.194615L349.577630,429.996027L348.503098,430.453162L347.841897,431.798544L347.233277,433.289924L345.845951,433.080383L345.048897,434.186688L344.681301,436.310842L343.478070,436.526605L342.788869,437.968557L341.965164,439.119170L340.246532,438.060770L338.636678,437.219437L336.691324,435.453659L335.341419,435.178220L334.283730,435.665970L333.451593,436.781653L332.661222,438.046628L331.517050,438.327702L330.483940,438.932329L329.669090,440.206955L328.985668,441.930039L327.961246,442.638122L326.498535,441.942280L324.997261,441.066766L323.594798,440.466501L322.120201,439.566447L321.261448,440.809516L320.397821,442.084657L319.384779,442.848049L318.114349,442.636762L316.651772,441.627641L315.305163,441.019505L313.934330,440.254787L313.277378,442.550426L312.631573,445.027756L311.736546,446.489321L310.701696,447.358910L309.193193,445.905443L307.817428,445.016442L306.711347,445.493258L305.518807,445.507559L304.528848,446.683996L303.530431,447.891809L302.204699,447.118206L301.002859,447.076291L299.503123,444.947234L297.941682,442.137042L296.521321,440.094613L295.308968,439.492366L294.417029,441.551057L293.474905,443.393868L292.687733,446.972518L291.652137,448.457427L290.501724,448.865250L289.318847,448.929030L288.068053,448.087206L286.944984,448.920203L285.713944,448.173703L284.521763,447.930332L283.268295,446.330171L282.049409,445.020817L280.900648,445.202161L279.732332,444.750901L278.608106,446.078971L277.460713,447.024532L276.296991,447.474808L275.127420,448.117218L273.949420,448.714163L272.778245,448.140515L271.612597,447.671490L270.432421,447.981962L269.259075,447.946997L268.075504,448.166397L266.869413,448.789786L265.694683,448.655730L264.509339,448.713398L263.357154,448.251560L262.286423,446.759770L261.127600,446.594808L260.008646,445.986149L258.833786,446.042317L257.576787,446.886428L256.421930,446.664848L255.162073,447.366983L253.914543,447.873742L252.614492,448.718651L251.379377,448.983988L250.317982,447.990543L249.113596,448.029316L247.880479,448.232615L246.582896,448.797261L245.396165,448.649785L244.588047,446.364708L243.755121,444.371813L242.849064,442.891281L241.800964,442.215615L240.418145,443.198853L239.329951,442.715830L238.351375,441.749599L237.442353,440.521819L236.497011,439.508530L234.997901,440.835597L233.539311,441.907165L231.971473,443.329877L230.541355,444.134379L229.809066,442.296133L228.802219,441.527953L227.748932,440.946211L226.806560,439.997850L225.645343,439.810838L224.913551,438.217334L224.287306,436.347238L223.305000,435.654390L222.169444,435.442505L220.499665,436.810176L218.682733,438.528924L217.321504,438.862458L216.346627,438.090971L215.241623,437.689334L214.398376,436.589589L213.375110,435.987963L211.797767,436.812212L211.215165,435.090627L210.511812,433.716104L209.125635,434.025726L207.917084,433.886160L206.776570,433.576727L205.737538,433.030123L205.018732,431.768945L204.153460,430.858132L202.887787,430.827771L201.251695,431.567760L199.980541,431.503534L199.430257,429.946041L198.686490,428.813893L197.960223,427.667652L197.171782,426.663258L196.185222,426.054223L194.851857,426.101432L193.650694,425.884380L192.334657,425.866279L190.857013,426.121229L189.883038,425.459906L188.839411,424.922396L188.322278,423.481532L187.642186,422.341692L186.451225,422.066998L185.579509,421.260274L184.477302,420.830878L182.976903,421.027848L181.678528,420.884668L180.296179,420.856394L178.985606,420.701223L177.818737,420.316731L176.828174,419.664488L175.884528,418.943712L174.774310,418.462752L173.926307,417.606162L172.786088,417.160838L171.588333,416.787399L171.312903,415.157999L170.679635,414.031411L170.177997,412.743525L170.567389,410.317112L168.819704,410.668810L167.629809,410.288131L166.643990,409.644310L164.626574,410.262208L164.365023,408.720519L163.886281,407.459302L163.873096,405.664468L162.662723,405.286336L161.584025,404.747179L160.432859,404.283580L158.672888,404.489215L158.403216,403.031612L157.800258,401.952955L156.207123,401.940000L155.563836,400.904482L155.024438,399.766965L154.154644,398.977078L154.115994,397.345199L152.988036,396.822673L151.549890,396.597509L150.387153,396.088333L149.406154,395.395937L148.946563,394.206179L148.113386,393.373917L147.313297,392.510438L146.158095,391.969275L145.172009,391.267708L144.667354,390.136019L143.842183,389.290303L144.150695,387.468963L143.753113,386.271529L142.838268,385.514967L142.863179,383.979537L141.923275,383.246322L140.509419,382.888677L139.506109,382.191036L137.717542,382.099916L136.617638,381.455837L135.599855,380.741308L135.406335,379.403879L134.771740,378.402584L133.790384,377.654773L134.143900,375.944419L133.064150,375.267890L132.766831,374.038420L132.417799,372.851986L131.446623,372.092623L131.883564,370.388555L131.845843,369.017467L131.778127,367.677441L131.426812,366.529011L130.015192,366.051606L128.507791,365.618428L126.433799,365.513700L125.855363,364.484500L125.230236,363.483412L124.957631,362.276814L125.291170,360.728915L124.397231,359.889390L123.136117,359.247872L122.227943,358.401441L122.524728,356.901738L121.519463,356.104991L121.704914,354.681422L120.923018,353.764877L119.867271,352.981753L119.263386,351.966364L118.115142,351.214041L118.887855,349.533994L118.521649,348.409551L119.105869,346.849254L119.305393,345.480731L117.094459,345.194823L115.533417,344.597091L113.961777,343.986311L113.739520,342.790556L113.699424,341.523468L112.614450,340.685565L112.033147,339.637796L110.899305,338.802613L111.007652,337.483190L111.993031,335.844673L112.887353,334.261054L113.371863,332.844039L111.921297,332.118204L109.940995,331.557691L109.229219,330.547904L107.573128,329.842381L108.086034,328.423348L108.001908,327.204041L105.618897,326.690309L105.607631,325.440198L104.981226,324.373612L105.780925,322.899065L106.809686,321.377837L106.293686,320.290927L105.192010,319.353961L103.913566,318.450281L103.076563,317.423465L101.820130,316.489229L103.941538,314.755955L104.492911,313.410562L105.482127,311.981226L105.063911,310.866567L101.088472,310.475043L98.116508,309.833128L98.461540,308.522794L100.808400,306.854432L103.292778,305.197822L105.581932,303.611796L105.564509,302.433889L104.146894,301.475304L103.822824,300.337652L104.075765,299.116477L102.813344,298.104400L102.697778,296.931078L102.776385,295.734836L102.055866,294.632327L101.640751,293.489174L101.407358,292.323912L101.418312,291.134350L102.334204,289.868510L102.723350,288.658328L102.859100,287.473085L102.416681,286.328800L101.507643,285.206986L101.529787,284.025292L101.197800,282.860748L101.473275,281.669069L102.006812,280.473583L101.048831,279.322913L101.310997,278.137595L101.593728,276.955892L99.721736,275.787891L100.107971,274.599732L99.714677,273.409704L98.029500,272.193707L98.477553,271.002886L98.346280,269.800729L97.611025,268.574432L98.970147,267.427649L99.375176,266.251112L99.912866,265.086789L101.805710,264.014822L101.235732,262.794634L101.746324,261.648815L100.806882,260.387087L100.760614,259.192202L100.137752,257.938960L100.667832,256.795993L101.192929,255.658047L100.769453,254.413432L102.240445,253.397956L102.452932,252.234687L104.035353,251.262428L104.682777,250.173535L105.015768,249.043265L105.936475,248.009002L104.138080,246.531961L103.756213,245.273050L102.854580,243.912119L101.336935,242.420035L101.647841,241.259432L101.929734,240.094133L103.125050,239.120153L104.606636,238.221441L105.067483,237.112645L105.584256,236.019620L105.937731,234.891459L106.359433,233.781139L106.315589,232.555723L105.723901,231.183713L106.327060,230.116779L106.466586,228.927439L108.275522,228.204142L110.518924,227.627806L110.916003,226.534361L111.272483,225.429631L111.660280,224.334915L111.435816,223.046379L111.031119,221.690629L110.578012,220.307280L110.881799,219.168998L111.630358,218.184261L112.914796,217.395497L113.626574,216.412482L113.324413,215.058373L112.682466,213.564720L111.796833,211.960518L112.751621,211.061114L113.409487,210.050532L113.148168,208.666655L113.498057,207.526860L113.717938,206.329992L113.556695,204.963846L113.955467,203.834910L114.818143,202.913382L114.856230,201.620114L116.728588,201.174887L119.299754,201.084065L120.412631,200.323196L122.067187,199.838688L121.372906,198.199240L120.660455,196.529944L120.474480,195.111577L120.134688,193.599845L121.704864,193.093178L122.989102,192.448924L124.526737,191.957239L124.820930,190.785525L125.743265,189.966729L125.371359,188.405124L125.186255,186.935949L126.474090,186.331815L126.587238,185.028186L127.818477,184.403563L128.531853,183.466846L129.219492,182.515545L129.986869,181.616739L130.791119,180.744603L131.235893,179.637208L131.699434,178.538496L131.748022,177.152591L132.466458,176.218676L134.264765,176.045019L134.969813,175.114376L136.126647,174.511207L134.080337,171.566794L132.157960,168.657275L131.216499,166.432668L131.787556,165.330574L134.628051,165.987202L137.904740,167.033046L141.170433,168.126038L143.589038,168.589554L145.705256,168.842912L147.062496,168.496158L147.701943,167.558153L146.666971,165.185269L146.489426,163.514386L146.929488,162.364471L147.631197,161.440039L148.089142,160.293612L148.188092,158.810368L148.356317,157.374262L148.028500,155.455214L149.068467,154.812416L149.374530,153.465436L149.211100,151.644428L149.740477,150.485484L150.561605,149.612011L152.167203,149.538987L153.012429,148.699626L153.406325,147.386264L153.855259,146.118003L154.239321,144.767477L155.665579,144.541640L156.946941,144.171347L157.828843,143.364188L158.361580,142.159020L158.897107,140.945591L160.198930,140.617328L161.177622,139.918130L161.768979,138.754907L162.133140,137.303452L162.291748,135.578480L163.045298,134.572734L164.796339,134.828771L165.864646,134.232613L167.156154,133.932513L169.673292,135.270675L171.272372,135.432337L172.797880,135.518465L174.361343,135.679637L174.046997,133.228207L174.723761,132.137338L175.396467,131.028583L175.847204,129.581544L176.759257,128.798129L177.428907,127.645152L179.072883,127.970851L180.924239,128.648549L181.678418,127.633510L183.083864,127.650868L183.954655,126.817697L184.502447,125.444083L185.871034,125.424291L186.603066,124.337893L188.239947,124.802586L189.007470,123.771924L189.662881,122.526601L190.343311,121.305143L190.512175,119.118723L191.642154,118.681546L193.261999,119.182468L194.659094,119.287057L196.067964,119.436845L197.409697,119.475497L198.449993,118.919057L199.407409,118.189393L200.339094,117.397758L201.251669,116.554891L202.650504,116.763163L203.602686,116.002301L204.405513,114.892480L205.011555,113.304400L205.112898,110.486044L206.076598,109.646483L206.911267,108.476866L208.112263,108.192859L209.739360,108.999506L211.096197,109.155560L212.522971,109.521184L213.924485,109.851596L214.973837,109.241253L216.400402,109.686258L217.555956,109.387032L218.624508,108.835419L219.977372,109.133157L221.535650,110.095640L223.240636,111.584046L224.527693,111.809970L225.516657,111.076389L226.230734,109.389343L226.955091,107.668456L228.327112,108.189129L229.712855,108.805111L230.915018,108.779649L231.996773,108.302837L233.055604,107.723926L234.209063,107.516118L235.248376,106.829605L236.432000,106.746596L237.438736,105.878626L238.479128,105.126601L239.520366,104.344211L240.661622,104.021658L241.931676,104.357221L243.312642,105.328865L244.676682,106.299033L246.023963,107.267525L247.037754,106.322493L247.906174,104.395784L249.081011,104.327153L250.234014,104.118138L251.455318,104.399896L252.824416,105.855516L253.850608,104.728884L255.000328,104.539666L256.185956,104.668863L257.326399,104.395934L258.574412,105.213228L259.754549,105.416993L261.017061,106.663010L262.238201,107.606655L263.374034,107.523935L264.488531,107.099562L265.535120,105.371993L266.629141,104.150437L267.785156,104.022641L268.958002,104.339950L270.169117,106.164861L271.308001,105.836009L272.464285,106.389862L273.607792,106.334828L274.751514,106.004184L275.896069,106.356469L277.044757,105.978860Z" />
<line x1="50" y1="550" x2="100" y2="550" fill="none" stroke="black" stroke-width="1.0" stroke-linejoin="round" stroke-miterlimit="10" />
<text x="125" y="553" style="text-anchor:start;fill:black">GC-content</text>
</g>
<g style="fill:pink;stroke:black">
<a href="" title="AE004092 AE006472-AE006638:1 [10500-31099];"><path  d="M283.189600,45.145850L287.199861,45.323786L291.206405,45.571683L295.208013,45.889467L299.203465,46.277040L297.098816,66.165993L297.098816,66.165993L293.450795,65.812122L289.797152,65.521972L286.139003,65.295630L282.477461,65.133167Z" />
</a><a href="" title="AE004092 AE006472-AE006638:2 [72500-97599];"><path  d="M330.990877,51.919249L334.875645,52.930400L338.742175,54.009197L342.589288,55.155309L346.415813,56.368388L340.205742,75.379833L340.205742,75.379833L336.711959,74.272239L333.199377,73.225788L329.669068,72.240800L326.122105,71.317575Z" />
</a><a href="" title="AE004092 AE006472-AE006638:3 [258500-282599];"><path  d="M451.799310,127.887784L454.339844,130.995763L456.825751,134.147608L459.256271,137.342357L461.630665,140.579038L445.401911,152.267818L445.401911,152.267818L443.233986,149.312587L441.014816,146.395642L438.745075,143.517871L436.425457,140.680151Z" />
</a><a href="" title="AE004092 AE006472-AE006638:4 [534500-560099];"><path  d="M498.289646,330.151918L497.293104,334.040459L496.228850,337.911017L495.097207,341.762411L493.898520,345.593469L474.863866,339.454906L474.863866,339.454906L475.958319,335.956984L476.991558,332.440494L477.963269,328.906506L478.873155,325.356099Z" />
</a><a href="" title="AE004092 AE006472-AE006638:5 [780000-802099];"><path  d="M384.448545,477.289436L380.901438,479.168767L377.322072,480.985906L373.711538,482.740300L370.070936,484.431414L361.803898,466.219987L361.803898,466.219987L365.127926,464.675926L368.424501,463.074088L371.692617,461.414961L374.931280,459.699051Z" />
</a><a href="" title="AE004092 AE006472-AE006638:6 [1206000-1228099];"><path  d="M88.050292,408.976888L85.740546,405.693761L83.488451,402.370823L81.294691,399.009086L79.159937,395.609575L96.189507,385.121786L96.189507,385.121786L98.138631,388.225687L100.141629,391.295099L102.197890,394.329086L104.306788,397.326724Z" />
</a><a href="" title="AE004092 AE006472-AE006638:7 [1323500-1349099];"><path  d="M50.708818,325.926079L49.854196,322.003901L49.068155,318.067406L48.350936,314.117793L47.702756,310.156263L67.467734,307.099197L67.467734,307.099197L68.059550,310.716245L68.714403,314.322415L69.432092,317.916606L70.212399,321.497724Z" />
</a><a href="" title="AE004092 AE006472-AE006638:8 [1570000-1594599];"><path  d="M86.853844,142.708564L89.191304,139.445109L91.585362,136.222946L94.035291,133.043056L96.540343,129.906407L112.058574,142.523241L112.058574,142.523241L109.771352,145.387138L107.534461,148.290516L105.348582,151.232491L103.214380,154.212167Z" />
</a><a href="" title="AE004092 AE006472-AE006638:9 [1645500-1663599];"><path  d="M126.498271,99.366186L129.586121,96.801224L132.718266,94.290542L135.893751,91.834906L147.989947,107.762306L147.989947,107.762306L145.090591,110.004408L142.230806,112.296769L139.411465,114.638692Z" />
</a><a href="" title="AE004092 AE006472-AE006638:10 [1670000-1692099];"><path  d="M141.589188,87.645910L144.879287,85.346105L148.209022,83.104070L151.577378,80.920489L154.983331,78.796027L165.419563,95.857242L165.419563,95.857242L162.309780,97.796969L159.234324,99.790673L156.194131,101.837748L153.190128,103.937570Z" />
</a><a href="" title="AE004092 AE006472-AE006638:11 [1728000-1750099];"><path  d="M180.782931,65.183070L184.459091,63.570712L188.162831,62.022757L191.893022,60.539677L195.648528,59.121923L202.548656,77.893930L202.548656,77.893930L199.119716,79.188401L195.713889,80.542517L192.332214,81.955867L188.975720,83.428021Z" />
</a></g>
<path  style="fill:pink;stroke:black" d="M350,550L375,550L375,565L350,565Z" />
<text x="405" y="565" style="text-anchor:start;fill:black">Selected loci;</text>
</svg>