<svg xmlns="http://www.w3.org/2000/svg" viewbox="0 0 550 650">
<circle cx="275" cy="275" r="240" fill="none" stroke="black" stroke-width="1.0" />
<line x1="275" y1="15" x2="275" y2="55" fill="none" stroke="grey" stroke-width="1.0" stroke-linejoin="round" stroke-miterlimit="10" />
<line x1="495" y1="275" x2="535" y2="275" fill="none" stroke="grey" stroke-width="1.0" stroke-linejoin="round" stroke-miterlimit="10" />
<line x1="275" y1="495" x2="275" y2="535" fill="none" stroke="grey" stroke-width="1.0" stroke-linejoin="round" stroke-miterlimit="10" />
<line x1="15" y1="275" x2="55" y2="275" fill="none" stroke="grey" stroke-width="1.0" stroke-linejoin="round" stroke-miterlimit="10" />
<text x="275" y="10" style="text-anchor:middle" font-size="15">Thermococcus gorgonarius strain W-12, complete genome.</text><text x="285" y="25" style="text-anchor:start">1,674,122</text><text x="525" y="265" style="text-anchor:start">0.41 Mbp</text><text x="285" y="530" style="text-anchor:start">0.83 Mbp</text><text x="-200" y="25" style="text-anchor:end" transform="rotate(-90)">1.25 Mbp</text><circle cx="362.975140" cy="51.705632" r="2.500000" fill="grey" stroke="black" stroke-width="1.0" />
<circle cx="438.702944" cy="99.496877" r="2.500000" fill="grey" stroke="black" stroke-width="1.0" />
<circle cx="491.641071" cy="171.720543" r="2.500000" fill="grey" stroke="black" stroke-width="1.0" />
<circle cx="514.419816" cy="258.322115" r="2.500000" fill="grey" stroke="black" stroke-width="1.0" />
<circle cx="503.868066" cy="347.245474" r="2.500000" fill="grey" stroke="black" stroke-width="1.0" />
<circle cx="461.454768" cy="426.111282" r="2.500000" fill="grey" stroke="black" stroke-width="1.0" />
<circle cx="393.084431" cy="483.940343" r="2.500000" fill="grey" stroke="black" stroke-width="1.0" />
<circle cx="308.275136" cy="512.682068" r="2.500000" fill="grey" stroke="black" stroke-width="1.0" />
<circle cx="218.833488" cy="508.335216" r="2.500000" fill="grey" stroke="black" stroke-width="1.0" />
<circle cx="137.210984" cy="471.504929" r="3.000000" fill="black" stroke="black" stroke-width="1.0" />
<circle cx="74.770584" cy="407.318483" r="2.500000" fill="grey" stroke="black" stroke-width="1.0" />
<circle cx="40.204842" cy="324.711505" r="2.500000" fill="grey" stroke="black" stroke-width="1.0" />
<circle cx="38.325779" cy="235.184009" r="2.500000" fill="grey" stroke="black" stroke-width="1.0" />
<circle cx="69.394987" cy="151.199441" r="2.500000" fill="grey" stroke="black" stroke-width="1.0" />
<circle cx="129.087208" cy="84.449594" r="2.500000" fill="grey" stroke="black" stroke-width="1.0" />
<circle cx="209.092475" cy="44.226955" r="2.500000" fill="grey" stroke="black" stroke-width="1.0" />

<circle cx="275" cy="275" r="185" fill="white" stroke="grey" stroke-width="0.5" />
<circle cx="275" cy="275" r="170" fill="none" stroke="black" stroke-width="0.5" />
<circle cx="275" cy="275" r="170" fill="aliceblue" stroke="black" stroke-width="0.5" />
<circle cx="275" cy="275" r="161" fill="white" stroke="none" stroke-width="0.5" />
<circle cx="275" cy="275" r="140" fill="none" stroke="black" stroke-width="0.5" />
<circle cx="275" cy="275" r="140" fill="aliceblue" stroke="black" stroke-width="0.5" />
<circle cx="275" cy="275" r="133" fill="white" stroke="none" stroke-width="0.5" />
<circle cx="275" cy="275" r="110" fill="none" stroke="black" stroke-width="0.5" />
<circle cx="275" cy="275" r="110" fill="white" stroke="black" stroke-width="0.5" />
<circle cx="275" cy="275" r="109" fill="aliceblue" stroke="none" stroke-width="0.5" />
<circle cx="275" cy="275" r="80" fill="none" stroke="black" stroke-width="0.5" />

<g style="fill:none;stroke-linejoin:round;stroke-miterlimit:10">
<path style="stroke:blue;stroke-width:1.0" d="M277.465023,110.793674L278.473258,120.774635L279.563166,123.057206L280.722118,122.601113L281.857222,122.840696L282.996349,122.949958L284.131192,123.118157L285.309416,122.622967L286.433466,122.962990L287.673207,121.858652L288.894294,121.161590L289.888140,122.909811L290.983251,123.462779L292.126314,123.533531L293.276966,123.548678L294.551070,122.616111L295.822640,121.823345L297.007709,121.734048L298.271375,121.150920L299.246227,122.458047L300.445723,122.313276L301.742884,121.638142L302.726081,122.761318L303.888563,122.865595L304.953395,123.472717L306.374686,122.316118L307.295334,123.608507L308.695987,122.656220L309.350645,125.043402L310.893754,123.539632L311.999138,123.937820L312.404091,127.098048L314.269099,124.485758L316.598775,120.318971L317.722064,120.767712L318.323439,123.039848L319.246116,124.108470L322.273680,118.153582L326.512258,108.621004L327.627694,109.427583L325.769932,119.329696L323.721820,129.328110L324.304660,131.183287L325.840409,130.254548L327.175922,129.943928L328.187170,130.546334L328.834963,132.104278L329.967865,132.351973L332.471858,129.126827L335.318891,125.207279L336.330557,125.934065L336.666528,128.257612L337.269947,129.881284L337.537558,132.224689L338.031484,133.986768L339.080278,134.481191L339.409982,136.521103L340.244093,137.437587L341.356347,137.762588L343.218709,136.571991L345.270460,135.067522L346.505497,135.234078L349.719648,131.616261L350.661132,132.431158L351.820474,132.834087L352.175473,134.705331L351.995860,137.486262L352.703537,138.633801L352.558693,141.232352L354.304739,140.556755L355.940895,140.107160L356.672374,141.175297L356.620027,143.491250L356.254719,146.246981L358.288980,145.192741L360.819704,143.431954L362.806909,142.568534L363.217620,144.093313L362.360063,147.442441L364.991241,145.693319L363.785705,149.446186L364.994317,149.742199L366.932528,149.050480L367.953778,149.638301L372.700484,145.283236L371.905750,148.328253L370.452580,152.149706L370.318002,154.205395L372.744374,153.024525L374.119171,153.193925L376.270340,152.441104L376.499153,154.025060L374.708849,157.954517L374.970544,159.416208L375.628411,160.405487L376.786849,160.826300L377.068814,162.225735L378.054166,162.840812L379.396987,163.077356L380.504170,163.578975L380.512722,165.232132L381.375724,165.984141L384.497538,164.457149L385.535928,165.071613L384.298988,167.921550L384.739715,169.092358L385.348557,170.093069L386.179613,170.880572L387.028575,171.652951L387.861992,172.441490L388.925446,173.025866L389.467822,174.077718L390.313779,174.860194L391.134689,175.666577L392.122060,176.334687L392.693985,177.353809L393.416581,178.245743L393.976717,179.268303L395.527521,179.502004L395.300100,181.143434L398.866768,179.847806L400.795107,179.859364L399.498844,182.300555L399.685060,183.608633L401.568682,183.680494L402.578550,184.400204L405.669978,183.672523L404.716230,185.780888L402.840525,188.477331L401.613892,190.686273L404.499256,190.161021L407.975958,189.302925L406.151416,191.865400L405.595926,193.585204L405.331569,195.102212L405.356057,196.427269L406.257981,197.220817L406.899965,198.172222L406.975560,199.449177L407.625472,200.393260L408.397650,201.271542L409.228309,202.122361L410.555486,202.713920L411.052124,203.755524L413.994970,203.538733L419.520615,202.064147L415.718298,205.303395L413.195278,207.840063L412.411044,209.491616L415.236066,209.432138L416.174603,210.280176L416.913877,211.225985L418.192345,211.939038L418.393804,213.131210L420.059500,213.699934L417.028693,216.233245L416.091306,217.857668L416.499179,218.925100L416.940397,219.979379L417.527116,220.978997L418.082613,221.993294L418.131172,223.193767L418.492589,224.277871L419.401060,225.172883L419.266649,226.427994L419.958547,227.403448L422.237143,227.876643L426.838633,227.657429L429.053707,228.232623L428.201774,229.744371L424.309209,232.110106L426.696256,232.654412L436.296309,231.276953L434.893519,232.943011L438.313117,233.351672L437.698673,234.806589L428.721103,238.246472L425.769972,240.146355L424.597148,241.598372L427.954909,242.052020L425.623464,243.735427L429.367965,244.164979L428.060784,245.619076L427.078184,246.989609L428.056520,247.995652L426.503698,249.440717L426.918450,250.542078L427.887907,251.561962L430.745305,252.319101L429.247069,253.718388L428.952599,254.935424L428.318644,256.187321L427.439288,257.455648L427.038320,258.657173L426.426464,259.871815L426.573212,261.005416L428.183627,262.015582L430.494305,262.994560L428.661066,264.295744L428.669996,265.453620L430.999183,266.483886L430.232486,267.693970L433.307065,268.739790L434.062131,269.905425L428.653094,271.232956L428.115307,272.395962L429.140521,273.535751L427.871233,274.695341L428.792395,275.847918L430.061388,277.018949L429.319564,278.167982L430.740885,279.366884L431.931071,280.579416L433.022462,281.806212L427.771250,282.729295L431.460506,284.093856L429.816014,285.164818L426.884852,286.117951L428.824074,287.421390L431.033587,288.779410L428.299627,289.698442L426.418095,290.665918L426.524622,291.827410L426.828153,293.015818L426.032924,294.072156L427.385008,295.406098L426.991623,296.515954L426.926103,297.671186L427.039264,298.856060L425.326605,299.744886L425.821150,300.990527L424.990371,302.008184L425.035731,303.180668L424.998718,304.341032L424.164288,305.342047L424.855635,306.655886L424.360557,307.724353L428.118751,309.754286L428.066300,310.952610L427.124148,311.938345L423.082596,312.136239L423.858261,313.520662L424.426676,314.866847L424.201754,316.008933L424.663900,317.346760L424.759973,318.590682L421.625984,318.874964L422.395387,320.313379L422.389870,321.525414L421.267047,322.381187L420.776805,323.434410L420.751935,324.644029L420.285160,325.705248L420.504401,327.010231L418.078094,327.357435L417.377746,328.316347L417.040269,329.409121L416.952321,330.600853L416.940403,331.828730L418.282711,333.617852L418.009112,334.762929L417.357403,335.749737L414.714412,335.865585L414.417195,336.985322L414.944320,338.482022L415.288681,339.912324L413.730215,340.459935L412.122526,340.964279L411.736645,342.047154L411.745366,343.329391L412.985269,345.248209L411.341533,345.705016L413.381562,348.086198L411.226865,348.261211L409.115724,348.429010L409.191543,349.785166L409.810472,351.461900L407.974944,351.745729L406.411736,352.164256L407.318946,354.038580L405.594118,354.344338L405.006500,355.329553L405.145300,356.771502L403.575012,357.137397L402.945436,358.094074L403.318646,359.712640L402.411961,360.494142L402.388348,361.872083L402.464234,363.332801L400.440299,363.331309L399.057620,363.758047L398.716823,364.925835L398.744035,366.373030L398.397625,367.556527L399.885072,370.145344L397.560475,369.836662L396.203329,370.249556L394.626840,370.471801L394.288852,371.676649L394.116941,373.027814L394.470804,374.832528L393.155645,375.249287L390.445377,374.449710L389.865398,375.461935L388.752622,376.005681L387.999196,376.863845L388.109036,378.512336L387.444349,379.465723L387.761853,381.348784L386.089824,381.358694L384.645705,381.564972L383.709094,382.253153L383.333668,383.499480L383.797837,385.612610L383.306984,386.779621L382.750995,387.889184L380.014444,386.688776L378.393849,386.632510L377.953924,387.844896L376.820830,388.299425L375.946784,389.037098L375.141497,389.853014L374.407005,390.753343L374.056384,392.112268L374.177680,394.056725L373.573312,395.153849L373.342984,396.725050L371.697868,396.543919L369.222261,395.274289L368.610743,396.359215L370.615313,400.900913L370.433680,402.639700L370.228835,404.379464L365.839546,400.376609L363.387334,398.939590L362.755099,400.027778L362.396812,401.526500L361.245240,401.885621L359.680746,401.617863L358.963056,402.607248L357.781302,402.891620L356.846760,403.552999L355.736106,403.934716L354.808278,404.605719L354.080095,405.608918L353.199349,406.369938L351.859539,406.352468L350.892162,406.961755L350.348062,408.321394L349.332158,408.859717L348.088706,408.980211L347.057077,409.480465L346.889009,411.620368L345.755843,411.951650L344.209046,411.459879L343.154431,411.918529L342.948457,414.112595L342.557317,415.985584L340.277340,413.893265L338.723865,413.274684L338.259890,415.023478L337.792460,416.816480L336.026588,415.671172L334.585137,415.222018L334.264656,417.428669L334.310608,420.611113L331.885122,417.713412L330.822954,418.163736L331.257254,422.540114L331.622502,426.913650L329.195758,423.806524L326.512183,419.809429L324.964838,418.870553L324.013038,419.623735L322.849338,419.755380L321.713892,419.962946L320.728915,420.642187L319.602364,420.876521L318.714417,421.907166L317.500776,421.852118L316.437736,422.310815L315.189129,422.099063L314.021813,422.162644L313.065486,423.032405L312.184312,424.241314L310.856045,423.658058L309.534735,423.046571L308.435405,423.358889L307.338877,423.688544L306.559922,425.539527L305.873075,427.972235L304.734316,428.252992L303.625305,428.698292L301.769360,424.978847L300.803486,426.116382L299.754204,426.831772L299.006272,429.539629L297.499799,427.373673L296.274599,426.960958L295.073741,426.665968L293.860735,426.218989L292.710770,426.233701L291.718209,427.669386L290.613318,428.198195L289.486264,428.558261L288.289938,428.163844L287.024849,426.806965L286.089046,429.739993L285.047374,431.692588L283.768759,429.958081L282.510259,428.080911L281.399224,429.053260L280.229346,428.704648L279.063807,428.299826L277.913478,428.351300L276.762166,428.355946L275.615037,429.378197L274.463980,427.177971L273.317180,427.581389L272.167946,427.779129L270.982014,429.259474L269.707227,432.711333L268.716174,427.978198L267.620667,426.844437L266.418737,427.895979L264.947722,432.910561L263.809127,432.178594L262.740171,430.686443L261.612220,430.122920L260.496215,429.506749L259.243467,430.314204L258.387448,427.354471L257.312526,426.640700L255.782743,429.658762L253.947731,434.625650L252.758112,434.406033L252.017626,431.140524L251.518964,426.619855L250.604783,425.066068L249.172569,426.678607L248.147855,425.845203L247.087518,425.256240L246.020931,424.730020L244.952794,424.235376L243.791646,424.205516L242.350287,425.452121L241.277012,424.957684L240.340546,423.891881L238.996344,424.572937L238.286680,422.641459L236.935484,423.312461L235.682710,423.553748L234.204876,424.588692L233.460807,422.933446L231.999641,423.835570L230.932098,423.345574L230.179670,421.831781L229.248623,420.949431L228.108715,420.743866L227.089783,420.164401L226.113364,419.470117L225.019595,419.130033L223.557818,419.824333L221.518337,422.056902L219.810873,423.277142L218.108604,424.410364L217.185674,423.473284L217.354913,419.814341L216.986040,417.616177L216.434789,415.931105L215.380384,415.483296L214.371602,414.930201L213.446526,414.191772L212.459577,413.601458L211.240380,413.520459L209.860153,413.767090L208.661242,413.606724L208.013201,412.304459L206.987394,411.791868L206.096118,411.013795L204.963840,410.712260L203.724342,410.606607L202.748924,409.992182L201.456194,409.962623L200.407867,409.474114L199.769748,408.256516L199.149184,407.030858L197.217604,408.070515L196.598304,406.848311L196.124438,405.406950L194.610006,405.685488L193.821010,404.775144L192.708892,404.382717L191.565900,404.030689L190.687965,403.266538L189.985385,402.244154L188.883024,401.822804L187.798968,401.367775L186.973991,400.536956L186.011779,399.904106L185.177350,399.093622L184.721549,397.772468L183.919974,396.934147L182.604676,396.777686L181.149823,396.785832L180.581971,395.638861L180.218912,394.247580L178.400191,394.680395L177.649482,393.775125L177.486232,392.169247L176.849310,391.150187L175.800749,390.619370L174.879960,389.935477L173.306844,389.987166L171.256045,390.546596L171.547489,388.496568L170.722917,387.690428L169.838233,386.948973L169.008104,386.148889L168.482773,385.034074L167.788625,384.100382L166.205775,384.061389L163.619737,384.990059L161.136579,385.766442L162.915232,382.410480L163.363674,380.384685L162.534231,379.582394L162.589739,377.968242L161.254601,377.631733L157.807131,379.157214L158.550007,376.942748L158.925648,375.084922L158.892044,373.604144L157.985543,372.871720L156.819823,372.348439L155.961706,371.564666L155.345487,370.584339L155.242725,369.202611L153.668579,368.975206L152.755471,368.222831L152.902678,366.669318L152.038595,365.882876L149.741450,366.134871L149.110880,365.156301L147.855721,364.619027L147.770854,363.256853L146.628263,362.629550L147.558989,360.598981L147.455547,359.286104L147.147422,358.117708L146.064739,357.451371L140.836870,359.382352L139.120209,359.045293L141.163286,356.399038L143.851304,353.421718L143.360614,352.379675L142.865653,351.341921L141.033909,351.064743L140.213788,350.198144L138.104772,350.032962L137.420991,349.070278L137.902751,347.488851L138.609055,345.810554L139.477580,344.073170L138.607197,343.231924L137.163777,342.665265L135.179985,342.341436L136.468696,340.444285L136.353877,339.230028L134.647233,338.745444L130.143129,339.483925L127.428690,339.369455L130.048418,336.935895L132.348531,334.690839L132.045610,333.560586L131.458060,332.546837L131.231343,331.388852L131.645257,329.988537L130.972044,329.010128L130.697896,327.880892L128.329957,327.503259L128.952137,326.047080L128.400587,325.008224L130.102427,323.216569L129.031730,322.358868L129.293196,321.068110L129.353412,319.849351L127.197054,319.301497L112.478518,322.386571L114.301737,320.549019L117.031617,318.496932L119.046763,316.685253L123.469230,314.286883L125.300037,312.615305L125.793570,311.302821L125.955964,310.080458L125.419232,309.023865L121.687376,308.664416L121.722134,307.452730L119.978805,306.607953L123.206403,304.764887L124.530985,303.333969L124.697264,302.136071L124.948712,300.929191L124.826279,299.790929L123.816989,298.793222L123.072133,297.743151L123.198943,296.560463L122.103846,295.546398L122.162039,294.371777L122.671431,293.146511L122.796639,291.973919L120.977856,291.007203L122.780215,289.665826L121.608615,288.617442L120.901523,287.515152L119.675620,286.441814L121.165861,285.171674L121.305502,284.004281L121.621298,282.831016L119.234637,281.781038L117.169546,280.684345L119.013422,279.445839L122.166360,278.208061L122.142238,277.060833L120.049174,275.925838L119.652584,274.762120L122.677166,273.623342L122.851038,272.482654L122.149715,271.323240L122.330233,270.180714L121.731114,269.009887L121.783860,267.859754L121.067516,266.667979L119.036879,265.383439L113.610822,263.832254L118.581259,262.995822L119.021907,261.851232L120.746693,260.829778L122.020753,259.788007L121.748091,258.598283L122.896547,257.565442L123.572811,256.490361L123.083013,255.272042L121.728012,253.925019L123.318638,252.982427L123.591645,251.860313L124.316628,250.812276L124.717580,249.718096L124.323824,248.487341L123.111520,247.097039L123.690382,246.027639L125.059722,245.121383L124.838945,243.903708L123.768414,242.496287L123.925146,241.341644L118.999128,239.012978L98.000248,232.767097L85.805722,228.353719L80.487812,225.490865L72.772663,221.907696L74.722849,220.809542L82.848022,221.456913L99.309848,224.619820L117.528012,228.561982L127.118001,230.180769L126.202685,228.681055L124.161607,226.800814L126.510588,226.320029L128.967309,225.908442L129.027944,224.706191L128.659759,223.347260L127.393557,221.650999L130.778189,221.646966L131.869313,220.825783L132.176893,219.713038L133.485231,218.994495L133.345741,217.705775L132.358217,216.056676L134.902018,215.872808L135.226481,214.769741L135.408016,213.601536L135.447359,212.364506L134.661930,210.742059L134.805658,209.530496L136.207626,208.911706L137.156540,208.089684L137.943821,207.195985L138.466038,206.173870L135.704211,203.465355L129.649660,198.971937L131.590161,198.610529L132.070894,197.483778L136.197900,198.368148L141.270744,199.853588L142.062664,198.980056L140.325237,196.639227L140.479223,195.371272L139.775473,193.577856L142.346395,193.762951L144.589632,193.784457L145.660868,193.097849L146.702798,192.401974L145.015770,189.929033L146.284458,189.372501L147.058392,188.495008L149.240688,188.587957L149.689806,187.504645L149.566766,186.010776L149.844840,184.788176L150.044193,183.498826L152.664821,183.999332L153.489658,183.188142L152.974281,181.351607L151.839087,179.002895L152.373374,177.930926L153.203409,177.091953L155.827480,177.719797L157.249117,177.398343L156.200100,175.014975L156.019944,173.327921L159.197421,174.529451L160.156128,173.840357L161.154204,173.191784L161.152257,171.641645L161.994872,170.848596L162.880583,170.097557L164.172042,169.734669L164.772865,168.720193L165.675938,167.995847L166.240157,166.937755L166.725392,165.792632L166.648038,164.061357L166.453583,162.180384L167.371866,161.440944L169.719220,162.234264L171.676496,162.651821L172.772493,162.155145L172.823616,160.495821L173.438206,159.450190L174.295464,158.676157L174.179614,156.760330L175.922912,157.022524L176.590545,156.015293L176.522553,154.096579L179.158134,155.511748L179.674075,154.309966L181.207080,154.400689L181.887486,153.402995L182.844550,152.762831L184.138783,152.578586L184.959071,151.761518L185.619970,150.718303L184.668719,147.385561L186.733663,148.296591L188.851491,149.335947L189.863174,148.790682L189.680638,146.449172L191.375437,146.926513L192.368929,146.348809L192.887504,145.020767L193.795287,144.295122L193.997843,142.411169L195.453629,142.569822L196.378303,141.855192L197.224240,141.000564L198.968662,141.711517L200.148939,141.461502L201.280819,141.134776L202.405803,140.803500L203.235818,139.924835L204.182590,139.257424L205.600742,139.505268L206.621005,138.990670L206.365540,135.890352L208.475390,137.576503L209.185217,136.399614L209.127026,133.546530L206.583950,125.156737L209.451696,128.537691L212.920729,133.448815L214.267934,133.645390L215.650317,133.953142L216.929546,134.042815L217.500760,132.399469L218.895118,132.788970L219.024214,129.935927L219.913874,128.987623L220.361869,126.816609L222.597323,129.524414L224.488059,131.401761L225.233474,130.054220L226.421153,129.978167L227.475263,129.507960L228.442985,128.760478L229.818727,129.307487L230.956486,129.114526L231.888886,128.230104L232.443878,125.992190L232.692252,122.537067L234.327493,124.041113L236.136563,126.321627L237.331057,126.339530L238.745952,127.275083L239.792356,126.739854L240.760919,125.846819L241.100203,122.069602L241.957609,120.456198L242.418095,116.811644L244.335452,120.250701L245.686417,121.015216L246.651244,119.748936L248.294446,122.268873L249.171864,120.458621L250.315102,120.159301L251.857254,122.477465L253.143725,123.286500L254.084774,121.672596L255.033947,119.948772L256.117087,119.132484L257.615509,121.883352L258.922620,123.241978L260.006340,122.557680L260.948071,120.213882L261.917273,117.793050L263.266092,119.925206L264.485084,120.643644L265.759093,122.468708L266.844160,121.270449L268.025073,121.801355L269.158347,121.309782L270.249315,119.210154L271.319362,114.850667L272.484735,112.446772L273.627297,102.683483L274.915620,91.469144L276.280982,93.212857L277.397551,110.262477Z" />
<line x1="50" y1="575" x2="100" y2="575" fill="none" stroke="blue" stroke-width="1.0" stroke-linejoin="round" stroke-miterlimit="10" />
<text x="125" y="578" style="text-anchor:start;fill:black">n1_4mer:GRV/n1_4mer:RV</text>
<path style="stroke:green;stroke-width:1.0" d="M276.402336,181.584026L277.138691,180.034286L277.728805,184.137154L278.411564,184.138797L279.076519,184.543486L279.876401,182.275560L280.494389,183.610185L281.459218,179.530335L282.312472,177.762089L283.217001,175.706855L284.449822,170.371036L284.151688,181.510687L284.681563,183.209094L285.405898,182.969417L286.513076,179.597374L287.455055,177.923488L288.326453,176.967209L289.537370,173.758940L289.758819,177.428167L290.056467,180.274212L290.741725,180.541988L291.788012,178.726137L291.583927,183.940784L292.496284,182.860190L293.096876,183.452100L294.143894,181.836865L295.747828,177.739983L297.187675,174.686742L296.762766,179.995370L296.901450,182.582759L297.500794,183.132482L298.019617,183.976633L298.332422,185.569328L301.337799,177.065436L301.689155,178.648629L301.627214,181.603086L301.705652,183.926318L303.320445,181.037350L303.566392,182.733658L303.605561,185.003811L302.942982,189.321482L302.283840,193.424874L305.283048,186.667408L305.844461,187.184116L307.384138,184.967746L308.050144,185.237478L306.112224,192.417911L306.601861,192.989481L310.618706,184.593775L313.451304,179.512080L316.225186,174.800829L315.811302,177.884952L315.002214,181.775737L314.695582,184.373675L312.309083,191.532595L316.753538,183.440511L313.487440,192.253537L313.843168,193.102013L315.508332,191.221146L317.459456,188.842140L319.565749,186.254378L323.026051,181.127424L324.998060,179.055907L326.198688,178.525925L327.721587,177.432098L326.478961,181.418146L326.215337,183.529986L324.765206,187.664311L324.968216,188.818419L326.823592,187.144824L326.776408,188.711521L327.871115,188.367752L326.952453,191.292576L324.914041,195.908182L327.261839,193.549056L325.807924,197.107639L328.116565,194.888940L329.360256,194.334472L329.489870,195.437388L332.280127,192.695289L327.740316,200.418762L327.823826,201.477621L331.783114,197.205925L333.758302,195.755877L337.376588,192.182712L337.314650,193.544507L333.357143,199.892631L333.858246,200.410118L340.115910,193.741676L339.777853,195.395461L343.663737,191.902107L343.861606,192.925141L338.201506,200.809485L333.239807,207.664388L333.509036,208.370562L339.132081,203.063429L340.417498,202.721210L340.262717,203.971204L337.638912,207.845643L339.463450,206.921329L337.900913,209.562402L338.142059,210.290821L347.921532,201.382326L347.888985,202.511637L342.994389,208.386997L338.823452,213.405241L340.674635,212.563983L341.369651,212.844989L342.290796,212.923827L346.194052,210.305449L340.697161,216.194778L343.115705,214.944761L345.294666,213.955307L346.226100,214.078217L344.673431,216.306096L347.379845,214.949216L344.292988,218.383000L347.509012,216.657401L351.580506,214.322698L346.867226,218.930130L354.106300,214.231982L355.943694,213.781128L355.490575,215.068266L349.758213,220.203897L349.663784,221.129961L356.128217,217.386867L360.384890,215.323044L359.867048,216.628255L351.293447,223.364475L351.062153,224.349289L356.549034,221.574699L363.680030,217.849675L356.093837,223.596028L355.634179,224.731853L354.537685,226.240631L353.126043,227.909157L351.476540,229.682506L349.638386,231.525377L352.869329,230.422869L355.803568,229.545000L356.536083,229.935266L359.653646,229.038325L355.797529,231.914052L358.281389,231.389223L357.235130,232.720581L363.893613,230.137670L361.115210,232.347851L356.529098,235.378610L354.237761,237.224741L361.716220,234.455529L364.790189,233.836752L360.748529,236.465868L365.202024,235.275625L366.889792,235.353167L366.845512,236.187402L365.622456,237.503438L359.720412,240.688021L356.626937,242.651951L357.039167,243.199005L362.682275,241.766433L364.170285,241.965776L360.283713,244.131616L356.842345,246.070158L357.198897,246.636399L359.727237,246.473851L361.635853,246.553468L359.236267,248.040120L360.286742,248.407996L364.758480,247.751265L364.800292,248.473096L361.847736,250.052509L363.290761,250.353880L365.540179,250.457018L365.924815,251.083934L365.064229,252.031701L369.254879,251.715083L366.885995,253.030769L365.963344,253.971913L362.507040,255.461676L365.766331,255.448047L364.753098,256.370152L371.098048,255.804402L369.422345,256.875071L365.524708,258.326784L372.986374,257.711888L367.699085,259.361292L367.158435,260.163067L370.522800,260.356154L381.246950,259.527454L379.391435,260.597017L372.170392,262.335825L368.330432,263.548063L367.596820,264.342963L369.160410,264.878556L366.970724,265.811711L368.777165,266.341660L367.674433,267.144568L365.907373,267.981202L365.901952,268.667636L368.097126,269.216564L370.832192,269.768448L370.710466,270.495379L370.437726,271.225941L373.935098,271.831224L366.266142,272.762469L365.779327,273.456112L364.816162,274.146797L362.327336,274.825964L361.940718,275.479338L369.634849,276.232176L370.427968,276.959013L365.388592,277.534444L370.062504,278.379785L365.639892,278.903966L367.113724,279.660394L372.998106,280.695882L375.944248,281.627737L369.667978,281.929683L367.730622,282.488056L368.222168,283.232500L368.908113,284.003955L366.848342,284.502752L366.020967,285.108239L367.550223,285.981942L367.911355,286.732672L365.413695,287.107429L365.672247,287.835575L366.318899,288.627071L368.435434,289.660695L365.119353,289.834321L370.948331,291.534470L367.913025,291.730488L370.756655,292.985626L368.294508,293.249204L359.907700,292.271382L364.406192,293.886392L365.747143,294.882368L362.471129,294.853849L363.266121,295.732176L363.482600,296.485088L362.579361,296.963203L365.741608,298.481578L363.195717,298.530505L363.181802,299.237259L363.842236,300.137530L362.614738,300.502049L359.757846,300.362131L370.262459,304.286289L376.570810,307.062068L370.480307,305.929525L364.985956,304.897875L360.830408,304.234379L363.253195,305.800807L363.390557,306.595012L359.949274,306.086003L360.736347,307.105782L358.113174,306.836850L362.374305,309.223363L357.932040,308.203530L361.688172,310.464673L362.395623,311.522277L360.094217,311.313189L357.840253,311.088764L360.474853,313.002388L358.155057,312.721082L361.309622,314.935925L362.866681,316.459946L361.950899,316.828673L359.830900,316.595802L360.466451,317.706168L359.624394,318.082223L354.732252,316.348150L357.828152,318.745675L356.603465,318.885387L353.803548,318.145325L351.801398,317.801544L356.529712,321.242080L361.703783,325.040593L350.013022,319.047238L355.581801,323.134235L351.583481,321.529397L349.421210,320.984028L351.670574,323.172835L349.906387,322.852343L350.777129,324.213404L357.454198,329.434122L353.454743,327.643573L356.128815,330.325540L355.003664,330.442594L353.019902,329.939283L351.030875,329.396916L347.880015,327.974171L347.766303,328.730894L349.742210,331.061690L355.611842,336.415198L353.566698,335.794504L353.034064,336.324305L347.540123,332.892829L347.952024,334.123356L347.836890,334.941441L349.419304,337.186467L348.568317,337.419120L344.181015,334.595560L343.799433,335.172378L344.578854,336.781957L343.922274,337.130423L349.097030,342.810291L341.698445,336.965775L340.661240,336.926909L338.131059,335.442413L340.172620,338.341454L342.055169,341.157099L344.292397,344.398453L340.952352,342.052453L345.689676,347.956192L344.971502,348.308147L338.929998,342.993154L336.022599,340.885021L335.638917,341.464608L334.279454,340.962221L336.113374,344.038275L334.428145,343.158573L333.722322,343.378532L332.258689,342.695737L334.882265,346.884989L336.541394,350.014577L339.540276,354.885396L341.549351,358.648886L333.096089,349.159394L330.740670,347.263543L336.242622,355.640869L340.303352,362.341285L339.831252,363.080807L328.463235,348.789879L322.959086,342.249788L323.272316,343.775268L325.902121,348.692245L326.471921,350.726459L325.718717,350.836549L326.817188,353.751883L327.174140,355.605585L323.943053,351.872638L322.687283,351.156092L321.359728,350.286499L322.162005,352.892906L320.807047,351.952928L321.223141,353.995057L321.154160,355.253136L320.314445,355.179700L318.509506,353.353304L319.296441,356.200595L317.342529,354.024063L316.746173,354.335876L319.279244,360.704803L320.730850,365.167784L321.694128,368.805953L320.868385,368.907504L318.866640,366.545434L314.756976,359.592543L313.844826,359.289552L314.399550,362.209479L314.016072,363.117618L313.273432,363.223325L310.951849,359.605677L310.736993,360.885463L309.911976,360.711002L308.130575,358.117997L307.600656,358.607752L310.489471,368.074585L312.126378,374.607106L312.029899,376.673835L308.957472,370.460178L306.701370,366.282064L303.843256,360.108362L303.191507,360.285868L301.979099,358.721770L301.781005,360.294922L302.452439,364.785966L299.828144,358.437745L299.009446,357.959378L299.008860,360.351303L298.075165,359.459036L297.079391,358.267825L298.348103,365.798154L297.838823,366.664894L296.351747,363.523683L294.925808,360.419722L294.740764,362.593312L293.501070,360.064707L294.411373,367.591450L294.815636,373.184003L293.279444,369.213683L292.545082,369.205077L291.349051,366.597700L291.098627,369.280527L290.141001,367.868469L290.021376,371.699643L288.605640,367.140437L288.200455,369.288676L287.523806,369.622879L286.320215,365.761655L285.722814,366.562984L285.178822,367.952216L284.766126,370.825430L283.803201,368.316277L282.665249,363.340440L282.332020,367.562641L281.624777,367.444187L280.594130,362.242567L280.116969,365.425075L279.657607,369.935571L279.132764,374.491086L278.180072,368.470927L277.394158,365.315295L276.777267,368.546674L276.045266,365.966336L275.383261,371.201118L274.659308,371.723808L273.910997,373.739978L273.230117,370.478785L272.557872,368.758754L271.758640,371.584373L271.200394,367.500461L270.494534,367.708899L269.597168,371.264535L268.772706,372.824148L268.067492,372.368791L267.234606,373.612025L267.077232,366.800349L266.586531,364.627489L265.987929,363.833158L265.378026,363.243562L264.510495,364.930073L262.888830,372.469614L261.031357,380.915126L260.241468,380.773356L259.930047,377.384129L260.027854,371.676939L260.268856,365.617963L259.249013,367.501948L257.773724,371.770707L257.193330,370.855440L257.089586,367.540125L256.378561,367.487054L255.801485,366.787100L255.455490,365.062445L254.952923,364.144333L254.804835,361.755438L253.373387,364.845210L253.256690,362.440035L252.096282,364.240773L250.452871,367.747188L248.728539,371.332922L248.435757,369.603184L247.602764,369.829053L246.439245,371.143938L246.112260,369.636481L245.347627,369.592715L245.365158,367.108722L246.139108,362.446359L245.682595,361.638993L244.233241,363.723052L241.396254,369.604079L240.552412,369.719485L238.783147,372.304156L236.712578,375.551895L237.060754,372.431984L240.273095,362.239938L241.202412,358.084877L240.165534,358.825529L239.945571,357.599689L239.001323,358.084862L236.778123,361.431690L232.006600,370.281542L233.215953,365.777600L231.489253,367.690727L232.477338,363.845902L232.998522,361.091444L231.333343,362.825537L232.934121,358.036538L232.137208,358.057185L231.871665,357.054482L229.619885,359.787121L229.816782,357.917188L229.683887,356.695534L228.259181,357.792739L231.312990,351.044448L230.313309,351.450216L229.040224,352.290660L227.013911,354.336608L224.909493,356.429317L225.907821,353.480215L226.993480,350.478555L227.412022,348.594724L227.594949,347.118788L224.773136,350.176190L222.622284,352.135649L220.916058,353.375992L220.513699,352.704810L217.575993,355.600490L217.268945,354.757786L218.683967,351.585921L221.024954,347.259545L221.390163,345.658142L222.066513,343.689788L220.995423,344.002189L219.500955,344.825394L215.228441,349.052774L214.606396,348.684845L214.038568,348.249197L218.480262,341.884686L217.801316,341.666590L217.440365,341.077122L215.033598,342.805612L212.314469,344.817078L213.292498,342.698596L208.559427,346.801170L209.585331,344.636572L205.422952,347.962291L211.326693,340.775590L205.434210,345.791502L205.164931,345.006561L204.385428,344.733189L201.119407,346.871109L205.310185,341.783530L206.231066,339.917870L205.033740,340.061921L205.384287,338.768267L202.052044,340.820466L197.193403,344.151976L202.986404,338.042201L203.566185,336.593692L203.807753,335.459686L201.854547,336.179375L203.096593,334.228922L202.344699,333.938470L200.080578,334.848336L204.682952,330.312293L200.578887,332.641618L199.610215,332.491728L201.369435,330.281013L200.360695,330.167186L195.231663,333.037372L193.081579,333.666403L190.942159,334.249083L186.378834,336.475105L186.284241,335.559452L193.110135,330.003401L194.950727,327.899528L195.248949,326.846624L199.444568,323.316100L191.952631,327.232922L189.716137,327.750356L191.448664,325.815641L193.786110,323.562685L199.228236,319.539819L196.122068,320.572502L193.446950,321.305089L190.195480,322.313018L187.209890,323.118200L184.384829,323.785719L185.762892,322.183262L188.471233,319.923437L192.036358,317.284972L191.713635,316.664874L186.124456,318.629948L180.509098,320.509600L184.968317,317.532330L184.088095,317.116390L184.222981,316.229122L178.125093,318.124459L173.069628,319.461234L173.168065,318.511440L186.771771,311.918071L186.231599,311.363553L190.759481,308.772537L184.156628,310.630531L182.732057,310.392475L185.083710,308.718387L187.897511,306.919544L186.333704,306.739743L190.440295,304.555558L186.223940,305.283430L190.002074,303.284176L188.138143,303.182010L187.034710,302.811979L186.517334,302.246709L185.248614,301.901499L179.411959,302.870712L176.316862,302.971180L172.277678,303.284811L172.945462,302.278493L180.981526,299.375860L181.145977,298.582823L186.107007,296.628199L185.972181,295.954456L178.826238,296.875828L174.410292,297.087508L170.467852,297.132051L168.772891,296.659112L174.602522,294.686730L185.329491,291.885346L182.916606,291.624990L182.401908,291.001153L182.770377,290.225420L178.829706,290.135306L184.322771,288.574112L182.209227,288.179171L180.813994,287.656847L182.472233,286.727631L183.815793,285.862540L185.716150,284.957053L178.487035,285.030393L185.853848,283.588909L186.935237,282.818019L180.321938,282.689306L168.887812,282.816647L172.943395,281.748089L183.204251,280.377907L182.717340,279.711652L187.618198,278.804050L180.375649,278.407945L181.975332,277.651335L185.507875,276.878488L188.631165,276.164428L182.525977,275.552536L181.432272,274.856722L187.457633,274.208813L186.669509,273.538548L183.831316,272.806969L180.006128,272.001354L179.295198,271.259628L174.166274,270.300902L173.400360,269.500639L174.252454,268.787987L167.935477,267.591391L169.582708,266.909870L172.446120,266.354830L171.729134,265.513195L178.558490,265.410022L176.393126,264.446643L185.976840,264.795896L184.784786,263.972581L181.552933,262.864953L177.458737,261.588024L182.305125,261.544714L181.020035,260.637074L186.403885,260.778535L185.828899,259.998810L186.382705,259.407090L184.101116,258.301248L183.311987,257.443825L187.302330,257.524475L182.302503,255.803621L175.787091,253.676492L185.606904,255.083882L186.798091,254.653165L187.861502,254.208379L187.521006,253.431854L189.424490,253.218488L190.510056,252.818203L189.897548,251.973205L184.655591,249.825560L177.761621,247.116325L181.781863,247.510250L186.770131,248.259796L180.115335,245.463462L176.333378,243.471881L181.338634,244.294561L184.145630,244.457643L187.236311,244.761540L184.816308,243.168463L186.818010,243.128620L183.886342,241.293655L187.130148,241.741720L187.921481,241.291821L193.218752,242.634473L188.095853,239.850293L189.304229,239.588261L191.774299,239.875283L193.947973,240.073609L188.166977,236.807161L183.118506,233.760775L184.789716,233.694550L185.963819,233.420899L192.925776,235.918995L192.219643,234.817753L192.335483,234.104462L192.281449,233.301966L183.231877,227.872947L174.187566,222.268276L175.123003,221.798971L175.178778,220.862923L186.855232,226.335773L196.303761,230.778263L197.890884,230.905310L192.337941,226.902920L191.426051,225.528926L186.527110,221.728212L186.104003,220.560104L186.802356,220.073236L192.315623,222.641304L194.309907,223.051537L192.824248,221.218317L190.791110,218.980373L195.627811,221.334185L197.833168,221.976939L196.368637,220.097212L196.713098,219.458973L195.155224,217.447895L198.039480,218.644252L197.265327,217.176018L200.011588,218.339593L197.520351,215.538399L195.347486,212.915280L190.748217,208.307775L193.561199,209.534178L203.955565,217.006621L209.147866,220.416312L204.047710,215.284743L204.817039,215.026524L209.520132,218.189535L207.132979,215.219678L203.953606,211.465756L203.246517,209.857540L201.482540,207.242485L203.394341,208.003500L208.197214,211.550149L211.320782,213.601189L210.161201,211.537111L213.407251,213.802314L215.053446,214.537021L206.749625,205.120287L207.083058,204.409339L205.278444,201.436390L207.849359,203.075272L206.860315,200.908731L209.885579,203.122796L213.871694,206.496435L214.345202,205.991271L216.246942,207.134324L213.362143,202.712637L212.810230,200.946632L212.928358,199.950543L212.492645,198.258033L216.010240,201.456113L216.473675,200.901122L218.133239,201.880491L220.946513,204.410755L219.943777,201.972124L220.656855,201.781030L220.510607,200.420694L221.617096,200.771810L219.010870,195.902025L221.381117,198.031865L222.355109,198.207373L224.092273,199.532898L221.519613,194.421009L223.252267,195.746820L220.957663,190.859604L224.978540,195.818983L225.935937,196.027830L226.619413,195.807967L226.798388,194.753120L226.291434,192.512685L227.053872,192.393875L229.215961,194.737239L230.818635,196.177963L230.659484,194.482922L230.525371,192.784895L232.699106,195.380892L231.792325,192.179672L231.675206,190.412910L233.386777,192.229163L232.605003,189.073002L234.475391,191.286116L233.532273,187.672462L233.729682,186.377468L230.971683,178.570189L232.358092,179.720154L237.018920,188.396746L237.063081,186.701368L238.399694,188.017932L239.743732,189.420779L237.532900,182.080019L238.303733,181.984673L238.895025,181.432136L241.684710,186.693832L241.109779,183.086756L242.715100,185.373571L243.881924,186.535752L244.986338,187.584743L247.611845,193.238479L246.571958,187.970505L246.532198,185.580227L246.885778,184.342270L248.447191,187.049045L248.946368,186.301554L248.563734,182.434936L248.339664,178.925091L249.257674,179.455533L251.597051,185.468227L251.657477,182.878742L253.083585,185.696853L253.819839,185.809890L254.706481,186.596840L254.561434,182.796556L255.854980,185.456112L256.221786,183.829920L256.396321,181.116134L256.249336,176.502421L257.220010,177.628450L258.658857,181.543744L259.895270,184.621593L260.661075,185.056378L261.335326,184.942812L261.364948,180.353431L262.395886,182.600516L262.817397,180.393044L262.943746,175.482598L263.909476,177.318462L265.122199,181.761199L265.885229,182.329046L266.803748,184.715877L267.192177,181.178279L267.795492,179.785558L268.375909,177.759992L269.243010,179.974570L269.745652,175.960716L270.667251,179.834676L271.490206,182.659533L271.943094,174.754453L272.530019,167.527948L273.347793,168.223328L274.209440,175.760338L274.955735,178.721034L275.636745,184.638088L276.336751,183.150805Z" />
<line x1="50" y1="625" x2="100" y2="625" fill="none" stroke="green" stroke-width="1.0" stroke-linejoin="round" stroke-miterlimit="10" />
<text x="125" y="628" style="text-anchor:start;fill:black">n0_4mer:PS</text>
<path style="stroke:red;stroke-width:1.0" d="M277.086337,136.019639L277.878472,147.185309L278.646435,153.582219L279.392910,158.002315L280.443242,154.216403L281.343140,154.385611L281.979185,158.913132L283.332224,151.846601L284.564058,147.821521L285.123572,152.668100L286.407608,148.694315L286.873540,153.705538L287.696629,154.623251L288.494776,155.651138L289.630100,153.768282L291.279659,148.113966L291.945115,150.347407L292.777343,151.195141L293.703188,151.351602L294.339272,153.329508L295.155662,154.056218L296.137582,153.782748L296.354250,157.747843L298.223951,152.696860L299.209009,152.532233L300.394018,151.420845L300.447118,155.711028L300.923681,157.795790L302.273238,155.939586L303.649059,154.109969L304.405279,154.942459L305.533279,154.266375L305.409607,158.443238L307.181520,155.336122L307.881944,156.291843L308.033609,159.132185L309.513891,157.298060L313.286882,147.970323L315.524760,144.109429L316.727530,143.720677L315.488167,150.855549L313.571838,159.675232L313.479641,162.758776L315.006308,161.099832L315.169177,163.324291L317.940348,158.376186L317.623521,161.863139L318.623088,161.792993L321.055141,158.104361L322.583140,156.834564L324.115221,155.623840L324.129709,158.090373L323.743842,161.403568L324.587217,161.790744L325.336158,162.388589L327.043450,160.876218L325.910093,165.545327L326.225105,166.995601L327.558948,166.298205L330.614881,162.147421L332.326300,160.843765L333.058588,161.517649L334.611768,160.607622L336.564633,158.993296L338.570076,157.355611L338.616581,159.353581L339.183649,160.368727L337.936152,164.549895L339.648673,163.498625L340.105726,164.627970L339.014602,168.315838L341.895940,165.387302L341.838245,167.308122L343.829122,165.936092L341.999977,170.579423L341.983185,172.309751L342.781221,172.771524L343.097677,173.949425L343.206800,175.408808L343.444594,176.653281L344.245511,177.078404L345.205281,177.285395L346.002768,177.724697L347.515392,177.202439L352.312335,172.352547L354.148984,171.539266L351.812233,176.140385L353.445500,175.587582L354.403634,175.911986L357.327319,173.829183L358.470317,173.982960L359.522506,174.259208L353.938978,182.335699L352.857436,184.982908L355.003952,183.892391L358.783803,181.020210L360.114369,180.958440L357.101956,185.644188L361.193113,182.593491L356.858426,188.550813L358.691555,187.933310L358.698862,189.223819L364.317636,184.829697L364.795842,185.697705L363.469113,188.328241L359.862010,193.101342L359.052099,195.092768L361.860578,193.655287L362.342871,194.425664L366.585841,191.775283L367.080384,192.579279L367.508750,193.438265L368.724962,193.608170L366.240533,196.959282L368.747657,196.025621L368.871545,197.118375L368.601872,198.521017L373.842203,195.469046L377.904923,193.464979L373.311599,198.298575L375.352034,197.911396L374.273379,199.918126L375.314817,200.307516L374.778514,201.864576L380.216473,199.086148L377.814182,201.986598L381.489966,200.572346L378.524287,203.795765L379.279443,204.423509L379.537685,205.387087L377.126768,208.093587L382.829368,205.508781L380.305524,208.248661L379.160639,210.065224L378.477340,211.564789L380.907656,211.163659L381.950374,211.624709L380.317624,213.655639L383.832699,212.697556L384.526866,213.387081L386.496314,213.376341L390.451273,212.317126L389.698273,213.836201L383.188544,218.346448L386.726462,217.558249L387.589531,218.178947L383.752240,221.135918L384.301562,221.881789L383.894709,223.086295L385.927783,223.135328L385.835064,224.188978L385.762839,225.224805L386.965032,225.691341L390.077111,225.348750L388.493334,227.039343L386.428312,228.894666L385.642060,230.189689L389.954662,229.444462L387.468908,231.403467L392.306673,230.538116L391.859034,231.708139L389.487103,233.561469L391.030478,233.985249L389.504888,235.488874L391.695524,235.710699L391.542926,236.733602L397.063923,235.933351L403.917146,234.804241L404.322353,235.740528L401.796676,237.544407L399.251365,239.308110L405.376534,238.605753L412.523154,237.721210L412.340556,238.875144L413.609675,239.651577L407.919117,242.163391L400.815563,244.918471L401.570352,245.740605L397.583122,247.629987L399.948160,248.084947L397.354742,249.603102L398.768898,250.277146L399.190273,251.160941L393.640604,253.148281L395.072372,253.815171L396.468274,254.507814L394.863241,255.702767L396.469296,256.378501L398.775667,256.974780L398.522594,257.957473L398.483786,258.906412L393.228284,260.493018L393.765625,261.331175L394.211902,262.185734L396.146034,262.896966L398.122004,263.632284L392.757591,265.018426L395.435806,265.701364L396.691268,266.522807L395.719568,267.500586L391.807424,268.623394L395.016026,269.351435L394.410189,270.277956L398.970637,271.029365L393.420871,272.096728L392.873073,272.995328L394.853717,273.861457L393.028176,274.764780L392.328584,275.646879L397.686992,276.597424L399.080503,277.547213L402.882447,278.585749L405.148749,279.627216L407.103849,280.689867L396.337083,281.138918L397.917989,282.144285L400.890203,283.265624L399.110435,284.084867L391.752774,284.427859L390.543877,285.203742L392.417493,286.258046L398.074328,287.733434L400.462407,288.933098L401.766805,290.042056L399.141493,290.676356L395.541412,291.141876L394.673539,291.941002L395.891235,293.040005L395.257984,293.869347L396.120128,294.937281L398.056730,296.205974L398.730146,297.279607L397.478580,298.004708L396.242549,298.716080L394.002561,299.206741L394.925725,300.333416L396.771361,301.679661L400.806161,303.554982L400.319023,304.435258L400.260929,305.415496L391.661460,304.256428L393.625299,305.697155L394.295048,306.827767L395.710086,308.177839L396.122983,309.271230L396.108919,310.251210L393.128073,310.347520L394.023915,311.591212L399.196821,314.204245L399.212289,315.236853L398.000602,315.867006L401.517834,318.092773L398.579449,318.129846L392.231000,316.903966L386.699839,315.875000L390.398483,318.213394L391.995682,319.815687L390.282486,320.154630L389.182223,320.715177L388.543301,321.451274L387.462301,321.997540L382.115511,320.710578L386.224898,323.454331L385.659484,324.199554L385.898773,325.306281L384.496054,325.664411L384.589122,326.709693L386.625040,328.698437L386.372557,329.610181L385.252607,330.091399L386.303116,331.664343L384.120857,331.588713L383.594026,332.353917L383.375051,333.282832L380.681789,332.861293L377.402848,332.069274L380.551652,334.866862L381.411124,336.414572L383.099357,338.475354L382.184536,339.024948L381.678422,339.814012L379.284177,339.436020L378.713931,340.164428L377.672467,340.590110L375.691612,340.394097L379.160328,343.763945L378.072533,344.162249L377.773551,345.086100L377.558510,346.073117L376.736764,346.639989L377.749312,348.512843L377.780565,349.707933L375.569350,349.260761L373.296978,348.729352L376.528049,352.350488L376.210199,353.315929L374.873897,353.487484L374.369443,354.304776L376.871723,357.561082L375.201660,357.461399L374.787051,358.384335L372.199982,357.469432L368.883982,355.875780L367.565431,355.958256L367.521423,357.153617L368.521169,359.305254L370.470202,362.370063L367.891534,361.300302L367.509414,362.248155L365.315493,361.469107L366.293119,363.728041L366.763674,365.534682L365.453371,365.591816L362.831332,364.296378L360.971723,363.728226L361.285409,365.399996L357.730941,362.989016L359.663544,366.409731L360.302110,368.497240L360.495865,370.134094L358.133798,368.914205L356.842271,368.865499L357.800063,371.415580L354.152372,368.580175L357.043022,373.487619L359.292036,377.745990L359.238525,379.267110L357.075938,378.164955L351.015754,372.033765L349.159078,371.141609L352.808476,377.453862L356.075236,383.435709L353.896641,382.190276L348.036071,375.804279L343.939363,371.669015L341.849840,370.243321L343.891395,374.735756L344.529031,377.292420L344.180253,378.440938L344.078746,379.986038L344.362254,382.160080L338.579761,374.861851L337.454431,374.739072L338.496088,378.115321L338.995919,380.695848L336.590663,378.468400L336.457481,380.030448L336.074471,381.196663L337.103037,384.885553L333.837173,380.955855L333.693003,382.591191L330.666185,378.890066L330.795560,381.035820L334.199621,389.583976L334.124243,391.575615L336.190877,397.929130L333.777973,395.337630L331.131472,392.140951L327.970560,387.707626L325.281903,384.106913L325.765627,387.367877L324.526155,386.854592L324.217195,388.449577L323.590875,389.349164L322.017756,387.996124L322.238940,390.974440L321.547520,391.778433L318.741428,387.179415L319.045456,390.513487L319.754923,395.073883L319.787602,397.974334L317.020371,393.126345L316.113066,393.382442L315.580520,394.741741L312.803916,389.365644L312.340286,390.874694L311.394496,390.912962L311.074098,392.983970L311.152852,396.495686L309.741905,395.043039L307.832352,391.718745L307.292016,393.194284L306.214882,392.720427L304.821969,390.974290L304.679783,394.121470L303.117757,391.575351L300.911997,386.081850L301.154636,391.052811L299.507438,387.680946L299.678402,392.714958L299.384280,395.821065L298.977154,398.580129L297.666646,396.704372L296.268802,394.161252L295.224122,393.441210L294.208412,392.816240L293.639915,394.993875L292.363527,392.589690L292.951299,403.223172L291.798234,401.918064L290.519892,399.433244L289.589267,399.578937L288.721128,400.300277L288.068657,403.229932L287.173188,404.039040L285.757953,398.983226L284.582089,395.968491L284.309740,404.910998L283.215088,403.117397L282.348059,404.852022L281.101454,399.365354L280.194011,400.039294L279.045265,393.901314L278.233978,396.996003L277.396595,401.145082L276.434678,399.855714L275.511616,403.419001L274.547597,403.438980L273.601680,401.785740L272.698864,399.138002L271.734548,400.368016L270.904707,397.029429L269.894523,399.291586L268.921116,400.085110L268.305637,394.276294L267.157827,398.192174L265.929821,402.392910L265.171327,399.813416L264.244358,399.624588L263.407682,398.491307L262.566138,397.562199L261.597975,397.910578L260.945083,395.497559L259.234669,401.877969L258.032180,403.655929L257.515589,400.309535L256.753853,398.962953L255.708986,399.564383L255.014389,397.940577L254.106509,397.702704L252.115050,403.558997L251.594523,400.994492L251.171243,398.119216L250.736488,395.509522L250.478408,392.236456L249.378442,393.065901L248.498720,392.844555L247.271509,394.117491L246.254883,394.418195L245.424474,393.937047L246.300577,386.822834L244.451084,390.423926L242.703640,393.425190L241.219237,395.303365L239.103500,399.247245L238.160638,399.012175L238.115208,395.834893L237.928219,393.261039L236.856019,393.556173L237.135367,389.727027L236.619333,388.422807L233.794873,393.824493L231.839486,396.509090L231.459804,394.721154L230.610622,394.261356L228.884778,396.109562L228.557657,394.268833L229.134752,390.221366L228.559009,389.166256L228.618165,386.613076L228.455717,384.673540L227.620709,384.351293L222.742278,393.171152L218.828646,399.486391L219.495577,395.585695L219.431492,393.377315L221.074731,387.670257L221.809972,384.024885L220.767361,384.076603L219.465054,384.623994L217.740782,385.953797L218.570159,382.361468L217.274888,382.852219L216.901795,381.617900L216.812278,379.900371L214.275053,382.563042L214.555192,380.214160L214.052933,379.268550L214.301914,377.076111L212.831935,377.784024L211.682633,377.931478L211.449618,376.593528L209.335245,378.241828L209.860149,375.738665L206.005898,379.962887L204.828525,380.027940L203.890469,379.721630L204.673546,376.913903L206.636465,372.495617L204.748773,373.604811L200.998819,377.235622L202.215315,373.982152L200.347287,374.941945L201.653097,371.671734L201.484243,370.398624L201.439922,368.988448L201.543713,367.418062L198.287692,370.041175L195.464185,372.039816L196.043923,369.870954L195.856833,368.656944L195.203226,368.005266L195.458963,366.311259L193.772404,366.846212L194.506324,364.651202L194.048591,363.810866L191.859089,364.848934L189.829879,365.667054L188.324590,365.892566L188.986801,363.853071L186.826799,364.726766L188.174225,362.038991L186.112957,362.777590L186.145745,361.437502L187.144525,359.191625L189.201484,355.993794L184.164105,359.468683L182.304062,359.909844L177.586811,362.895286L175.211945,363.688381L175.019763,362.524781L179.113544,357.677942L178.319968,357.105069L175.357530,358.341667L179.919316,353.320717L180.075662,352.003262L176.608746,353.598481L180.369287,349.437734L179.271755,349.144697L175.963551,350.524510L174.377789,350.546042L172.918575,350.450126L168.755402,352.300813L169.350675,350.661442L172.139065,347.502648L166.468214,350.286789L164.851006,350.190279L169.253422,346.027366L167.745317,345.877871L171.274355,342.432648L171.031868,341.485420L166.477583,343.255539L162.747980,344.430884L164.559313,342.169653L167.652866,339.189328L174.650868,333.986778L172.209517,334.388214L168.863250,335.263493L167.073946,335.212679L161.514354,337.202053L159.757617,337.044606L156.669592,337.566065L158.155379,335.662622L159.932856,333.647509L160.944686,332.057362L162.612257,330.172336L160.480712,330.155861L161.624003,328.560537L159.755249,328.388969L159.129906,327.625899L155.146517,328.353513L153.312828,328.078996L154.437808,326.514632L160.524310,322.901014L162.313008,321.161690L158.503960,321.703972L157.028641,321.270653L161.425133,318.565463L160.071598,318.097867L161.989654,316.413727L158.674962,316.640702L160.062786,315.173194L160.574722,314.032932L159.235221,313.522250L158.830314,312.690827L160.114130,311.323457L160.247511,310.336047L152.056299,311.850348L144.335776,313.097914L146.245645,311.494698L148.140350,309.931076L149.561282,308.528927L156.605619,305.695721L154.634959,305.244281L155.870220,303.984991L152.643243,303.799080L156.212656,302.019547L151.523606,302.112970L148.849655,301.709160L143.606835,301.790330L144.340006,300.620843L153.069193,297.960100L154.721315,296.715446L155.891976,295.582127L154.564815,294.881642L150.522337,294.590328L149.812187,293.740244L152.641588,292.378694L155.327568,291.081748L152.518616,290.524167L151.411601,289.722768L152.129207,288.702713L149.252603,288.068667L149.335033,287.107365L144.820026,286.556830L143.529226,285.677436L138.540286,285.052167L146.123841,283.521426L152.019581,282.204879L151.416519,281.309770L151.885806,280.359613L150.736849,279.475401L153.181826,278.471991L152.619320,277.568837L153.143432,276.642874L151.679207,275.736847L153.567130,274.814053L156.587893,273.929819L153.708709,272.993202L151.218914,272.022490L151.560688,271.103424L149.928603,270.111912L145.436461,268.962023L151.212849,268.299679L151.805602,267.403932L146.327922,266.096199L150.574354,265.451095L149.796471,264.445491L146.672511,263.211410L153.553507,262.923569L151.139726,261.743910L155.815902,261.338758L156.346686,260.496462L148.877018,258.621654L150.660586,257.903263L151.919861,257.134087L154.192621,256.537050L154.172059,255.604676L158.581146,255.414940L155.514543,253.975594L154.853153,252.928196L154.401303,251.908084L150.328453,250.156686L151.511511,249.427230L152.434469,248.657389L151.048009,247.384417L145.663355,245.164008L132.093528,240.901900L128.459653,238.870143L127.828759,237.540544L123.190497,235.144279L123.525721,234.014493L124.973143,233.195065L134.020487,234.573299L143.758264,236.297205L154.986823,238.627093L159.010698,238.893824L155.257824,236.737358L158.264208,236.729965L161.975396,237.004714L163.042043,236.425548L156.243112,233.083173L152.696531,230.796185L154.884647,230.564845L156.311696,230.077097L159.937800,230.459312L162.926726,230.646182L160.198173,228.566651L163.179161,228.792697L163.620157,227.993061L163.843088,227.101016L159.624494,224.252968L154.445338,220.891380L151.082760,218.260822L161.333416,221.918721L166.669958,223.416851L167.670400,222.901355L167.061061,221.600777L172.363308,223.261324L163.996856,217.994899L159.304525,214.483438L159.564419,213.511451L160.312864,212.800538L167.735617,215.779943L172.488897,217.395989L169.065457,214.421548L169.193023,213.436004L166.575324,210.818695L165.931823,209.327263L166.214443,208.379740L165.409529,206.750445L165.696800,205.785316L170.543841,207.750891L172.015838,207.599807L171.981850,206.467588L174.594029,207.112642L174.509404,205.950658L171.385952,202.653548L175.073908,204.106943L172.836271,201.360396L174.555474,201.447660L174.751104,200.428510L176.921434,200.892930L178.065565,200.607862L174.850711,196.939180L172.207187,193.631023L173.123674,193.105162L179.072280,196.694463L182.522266,198.346816L180.732213,195.661826L182.772236,196.188568L183.868794,195.934384L182.878587,193.855319L179.057627,189.202174L177.481022,186.465955L177.964312,185.566863L181.985206,187.972442L186.895416,191.317522L186.255547,189.433561L186.053211,187.940704L189.390624,189.939732L190.244792,189.514646L190.852037,188.843177L189.715898,186.358478L187.701884,182.891262L188.813672,182.686239L188.867105,181.343925L191.217237,182.515560L193.338763,183.486164L195.080075,184.072775L195.342439,182.987525L195.620888,181.906129L194.394972,179.018396L192.372832,175.097308L193.154158,174.515650L196.432396,177.047967L197.875991,177.355008L200.571867,179.300009L202.717614,180.605367L202.972296,179.460750L202.341350,177.103726L202.025407,175.120111L201.669844,173.035431L199.732151,168.666244L203.216320,171.956901L204.591295,172.295457L207.378623,174.756094L206.599863,171.941397L206.748912,170.471444L207.140415,169.347050L210.988245,173.673171L211.983466,173.570316L210.477274,169.385618L208.908411,164.969576L209.026318,163.274438L210.534569,163.932858L213.510541,167.204492L214.472740,167.015967L216.422239,168.629786L217.228589,168.204672L218.050380,167.808931L217.510258,164.803853L218.005799,163.724835L220.437010,166.471413L219.321373,162.149484L223.332016,168.266643L221.485011,162.301943L221.706944,160.560235L220.018304,154.580350L223.056988,158.937599L224.440102,159.714923L225.816389,160.524557L227.244050,161.506106L227.959337,160.815953L229.120655,161.217297L229.661843,160.079768L229.992325,158.360339L230.397234,156.775025L230.315395,153.811443L234.272665,161.936445L235.166191,161.758167L234.794105,157.899709L236.075817,158.800118L236.924593,158.436102L236.965571,155.530643L237.806835,155.066111L238.552058,154.273362L239.789632,155.127849L239.872994,152.004810L240.733816,151.516167L242.583359,154.683343L244.258468,157.393291L244.944773,156.387059L246.325653,158.160203L246.902221,156.679650L247.786726,156.452821L246.702059,147.340963L247.494487,146.352939L247.204165,140.048485L249.608031,146.858883L251.176498,149.854708L252.316444,150.774224L253.163340,150.114454L253.405543,145.790628L254.180074,144.403074L255.432617,146.040940L257.112923,150.838352L258.343573,152.893421L258.829978,149.427770L259.963081,150.878934L260.839461,150.278816L261.726781,149.711083L262.624408,149.175885L263.638874,149.853862L264.567094,149.634294L265.677339,151.792136L266.459649,149.629774L267.196648,146.197122L268.219854,147.200923L269.196699,147.535182L270.259437,150.278786L271.272225,152.754552L272.090517,148.404612L272.957707,143.013373L273.875196,133.802383L274.932490,128.160898L276.019564,130.311284L277.014268,136.598144Z" />
<line x1="50" y1="600" x2="100" y2="600" fill="none" stroke="red" stroke-width="1.0" stroke-linejoin="round" stroke-miterlimit="10" />
<text x="125" y="603" style="text-anchor:start;fill:black">n0_4mer:D</text>
<path style="stroke:black;stroke-width:1.0" d="M277.702644,94.964653L279.147112,90.853043L280.615924,88.002800L282.022214,87.975265L283.438239,87.758489L284.850034,87.702259L286.218884,88.392945L287.649653,88.033383L289.011452,88.682120L290.437430,88.456149L291.798991,89.000611L293.182482,89.256368L294.584062,89.323486L295.991277,89.351494L297.241904,90.693382L298.683580,90.406729L300.135860,90.094197L301.519534,90.312829L303.189280,88.638228L304.601087,88.768646L305.944706,89.316702L307.331163,89.591156L308.531566,90.884499L309.572119,92.934565L310.886849,93.456748L312.127749,94.319029L313.542914,94.321598L315.222019,93.151212L316.694741,92.982998L317.463072,95.819173L318.934723,95.620822L320.387216,95.531457L321.591039,96.421547L323.761327,93.685710L324.984103,94.550793L326.128096,95.664439L328.134113,93.797936L330.437963,91.065814L332.678543,88.704571L334.086645,89.107022L334.902760,91.326702L335.102035,95.302750L335.719412,97.887611L336.943565,98.643249L338.113256,99.536670L339.489010,99.851110L340.771039,100.422002L342.547095,99.707402L344.030525,99.789000L345.469828,99.998982L346.600677,100.972199L347.425454,102.655548L348.100848,104.640112L349.046497,105.949400L350.206200,106.749647L351.793788,106.602295L353.888682,105.392475L355.406000,105.469812L356.806865,105.808010L357.903230,106.774461L359.382426,106.965778L360.982983,106.936127L362.490505,107.109544L363.771697,107.726822L364.858369,108.705829L365.923305,109.713615L366.697235,111.229773L367.874425,112.009577L368.581050,113.598145L369.955067,114.025165L371.591662,114.024221L372.960068,114.487009L373.760004,115.874782L374.698105,117.022321L375.496285,118.374870L375.706079,120.610024L377.345709,120.640936L378.291879,121.724526L379.411225,122.545429L380.738307,123.066662L381.716969,124.089193L383.087444,124.559438L384.198891,125.395195L385.415574,126.088528L385.763050,127.940091L386.392834,129.391253L387.758792,129.876099L389.464478,129.941448L392.113620,128.853589L393.917481,128.864077L395.082722,129.674074L396.298747,130.426295L396.837356,131.978469L397.989250,132.802476L399.473841,133.250576L399.968623,134.823443L400.925012,135.867387L401.204564,137.645034L402.027365,138.815624L403.424218,139.373532L404.811167,139.953773L405.952155,140.797748L407.052588,141.686779L407.446770,143.281201L407.717328,144.978981L409.454176,145.240918L410.659956,146.029853L412.135202,146.573228L413.472074,147.258661L413.085456,149.520745L412.998783,151.477935L414.756657,151.781435L415.696498,152.817550L417.854210,152.812582L419.417503,153.340612L419.123966,155.425867L420.656394,155.988995L419.792396,158.496349L419.457584,160.541413L421.268753,160.883031L421.694909,162.311644L423.424049,162.744772L424.352721,163.794836L423.660701,166.035023L423.470739,167.878126L425.381652,168.206601L427.101245,168.693845L429.336963,168.846693L431.609935,169.006150L431.246115,170.953816L432.012245,172.136409L431.970787,173.839327L431.331915,175.903920L432.506307,176.809006L433.057719,178.105117L434.348045,178.952211L436.763815,179.144058L437.716427,180.222557L437.685489,181.868949L438.456235,183.049813L438.944875,184.388188L439.982965,185.424492L441.709676,186.100692L442.139698,187.476337L443.003203,188.624775L443.111100,190.158633L443.496737,191.544965L444.140907,192.801153L443.060422,194.880045L443.419260,196.254987L443.971497,197.537019L444.377141,198.884397L445.286943,200.006757L445.500697,201.435651L446.566280,202.498548L447.671692,203.554190L448.921526,204.561347L449.933484,205.675374L449.481433,207.365437L449.025610,209.040355L449.738549,210.265965L450.525167,211.468781L452.163997,212.375616L453.657223,213.352431L453.285563,214.974432L451.165525,217.156763L449.963537,219.002790L448.206784,220.994941L448.391952,222.361950L449.057934,223.583485L449.919597,224.753381L449.388738,226.319869L447.420468,228.261496L448.346773,229.404385L447.896738,230.907644L449.594279,231.867874L452.065236,232.665070L453.705678,233.688429L454.938022,234.823947L455.271185,236.167828L455.790160,237.473794L455.686704,238.907807L455.731535,240.307511L456.835189,241.508840L458.017125,242.709587L459.018643,243.955316L460.912741,245.069210L461.292813,246.440919L459.139060,248.184171L458.777865,249.643997L457.748136,251.182515L458.393289,252.497068L460.134320,253.692753L460.674369,255.041584L461.552888,256.362527L462.359754,257.701285L463.256650,259.042662L464.605107,260.360925L464.597407,261.792365L464.029897,263.256971L463.526017,264.708222L462.748791,266.163587L462.547502,267.583485L462.410461,268.997461L463.087625,270.388739L462.941943,271.803664L463.673198,273.207710L464.456431,274.622430L465.304021,276.049221L465.565795,277.481227L459.804794,278.793804L458.209029,280.137075L457.278257,281.480591L456.187809,282.803971L461.467961,284.434144L462.352892,285.889395L461.879160,287.270001L462.143373,288.698870L461.748671,290.080072L461.493233,291.469318L461.426580,292.874671L461.200111,294.264512L460.876310,295.642302L461.336852,297.110595L461.190443,298.511781L462.644321,300.127723L462.710362,301.572304L462.468524,302.975007L462.006248,304.342633L460.016744,305.455143L459.906130,306.864283L458.431373,308.029776L457.662236,309.308787L458.466969,310.887709L457.163364,312.054509L457.283738,313.506082L455.499719,314.546830L452.978942,315.396953L452.682871,316.734615L453.044917,318.232351L455.492261,320.263954L457.701129,322.278320L458.404059,323.931970L458.164200,325.343700L458.057826,326.795428L457.447821,328.105144L455.810448,329.103997L454.777860,330.268639L454.119505,331.541261L453.511654,332.826381L454.887742,334.767784L455.297926,336.410611L454.702051,337.716915L453.472809,338.794717L451.474442,339.578363L449.837388,340.471544L449.142557,341.706037L449.056001,343.175442L449.827619,344.995796L449.864259,346.538060L448.399566,347.462977L447.586299,348.649646L447.017149,349.938041L446.895317,351.425197L447.159300,353.095492L447.090162,354.627040L445.390923,355.399059L444.084155,356.339768L442.335138,357.050754L440.954083,357.924503L440.237834,359.122472L439.657231,360.389183L439.542262,361.902968L439.799178,363.627066L440.598675,365.666079L439.716891,366.796992L438.827470,367.919782L437.096757,368.553216L435.182556,369.058324L435.105249,370.636279L434.799559,372.088524L434.746943,373.705839L434.477888,375.201441L433.110218,376.005332L432.483899,377.277808L432.191669,378.773861L431.117625,379.755804L429.665887,380.473915L428.705418,381.517960L427.901546,382.668699L427.434746,384.060696L427.542165,385.878062L426.906737,387.168468L424.800384,387.360374L422.998111,387.754319L421.930070,388.693728L421.790078,390.357308L421.779918,392.142133L421.741474,393.925396L421.501073,395.563706L420.189061,396.323290L419.178970,397.328806L417.754684,397.975146L416.714667,398.944460L415.004427,399.315751L413.278070,399.651647L411.794389,400.188113L409.971596,400.394522L408.644580,401.043854L407.938522,402.276893L407.624893,403.898510L407.926227,406.145945L407.220739,407.423112L406.363288,408.554457L405.331006,409.509796L404.239994,410.402904L403.999284,412.198005L402.481603,412.639632L401.512271,413.666537L399.239467,413.245389L398.057405,414.014923L396.903662,414.812200L395.598282,415.429281L394.395476,416.158746L392.588403,416.157670L391.351093,416.823698L390.228266,417.624983L389.582531,419.023961L388.999359,420.519664L388.591049,422.262163L387.550522,423.200252L385.910910,423.340033L384.601641,423.906595L383.744891,425.089541L383.457241,427.082266L383.289397,429.283716L382.384049,430.462513L380.665935,430.457713L378.648180,429.978689L377.372015,430.585227L376.269213,431.454215L375.488121,432.832141L374.274035,433.539594L372.602692,433.503197L371.144716,433.792896L369.687905,434.069663L368.895310,435.466492L368.205476,437.066252L367.619908,438.882320L366.696696,440.130330L365.137307,440.232307L363.410345,440.000647L361.709431,439.785613L360.108565,439.732099L359.570852,441.748843L358.300111,442.345374L357.189783,443.269220L356.135099,444.321099L354.452411,444.054143L353.725396,445.826568L352.250482,445.991147L351.481080,447.732163L349.625116,447.016869L347.701115,446.087918L345.997014,445.624632L343.959723,444.300270L343.117472,445.893135L342.277877,447.541071L341.257010,448.765444L340.169142,449.843601L339.068809,450.915184L337.817783,451.591375L336.576616,452.305924L335.565001,453.710342L334.002141,453.495205L332.702841,454.063946L331.540635,455.076474L330.231221,455.639267L329.101948,456.815623L327.527155,456.496074L326.014384,456.355721L324.437496,455.949663L322.693360,454.865576L321.313893,455.109534L319.848825,455.003264L318.557982,455.590051L317.456814,457.007641L316.191132,457.772442L314.897756,458.442960L313.370900,458.027608L311.884687,457.759019L310.285616,456.864827L308.928669,457.173725L307.810704,458.826272L306.560409,459.831415L305.208353,460.285201L303.943372,461.322055L302.288322,459.802616L300.704527,458.603208L299.473276,459.906392L298.030492,459.650693L296.752881,460.749615L295.609758,463.206709L294.243364,463.816281L292.858410,464.303902L291.443443,464.507346L289.731262,460.973915L288.181195,458.934482L286.660983,456.857427L285.312552,457.239392L284.051546,459.496811L282.741660,461.370720L281.405848,463.285236L279.984414,463.028083L278.572665,463.047700L277.156161,462.644195L275.749702,463.180154L274.340074,462.355382L272.943560,461.457594L271.549132,461.161918L270.203622,459.143696L268.785901,460.164541L267.318209,462.011317L265.928643,461.661190L264.482251,462.399165L263.117990,461.653694L261.792736,460.499297L260.253505,462.264382L258.699939,463.867243L257.244170,464.150317L255.790807,464.347529L254.524556,462.781226L253.193826,461.951705L251.661659,462.824875L250.293336,462.334546L248.870590,462.267632L247.414689,462.412537L246.161777,461.211854L244.935357,459.941279L243.602564,459.389970L242.418764,458.029066L241.121183,457.373737L239.491904,458.464417L238.145399,458.045651L236.613776,458.522535L235.094137,458.888960L233.657358,458.840375L232.335272,458.281351L231.244523,456.776962L230.062316,455.715479L228.756825,455.179332L227.392876,454.875488L225.935495,454.911089L224.441107,455.055285L223.531686,453.145393L221.847067,453.928474L220.301105,454.194045L218.965063,453.754559L217.130947,454.864114L215.872603,454.151623L214.653747,453.335655L213.775572,451.554769L212.929075,449.747261L212.174601,447.749089L210.884047,447.260928L208.631921,449.298392L206.635968,450.566041L204.645026,451.743755L203.414551,450.979077L202.724097,448.924465L201.938321,447.157191L200.951317,445.904189L199.625061,445.446453L198.111260,445.400054L196.254155,446.078662L194.632241,446.207034L193.257645,445.790657L192.301376,444.509366L191.760453,442.417393L190.534382,441.732105L189.290975,441.082285L188.453895,439.659632L186.766122,439.854067L185.489312,439.263966L184.610557,437.953381L182.498778,438.848854L181.240368,438.204108L180.112602,437.333838L178.979833,436.477334L178.708617,434.200964L177.555640,433.409810L177.271000,431.232482L176.174847,430.378474L174.753379,430.031223L174.080059,428.532666L172.645711,428.197010L171.582946,427.300295L169.988244,427.178267L168.001993,427.593582L166.018147,427.967222L164.191306,428.086689L163.682253,426.384459L163.843360,423.811883L163.016627,422.594872L162.217147,421.354051L160.443719,421.369707L158.267024,421.866060L157.340654,420.771687L156.091285,420.077785L155.125612,419.037012L154.096237,418.075864L152.488418,417.790514L151.395424,416.895177L150.524302,415.747995L149.671780,414.586439L150.017124,412.117286L149.050854,411.111049L147.861541,410.344055L147.151171,409.069262L145.835397,408.429192L145.231801,407.054645L144.350181,405.970653L143.646526,404.713971L142.013460,404.369430L141.001006,403.410814L139.940908,402.495776L138.392634,402.031768L138.134356,400.369469L137.382801,399.171102L137.491851,397.212775L136.540749,396.210111L134.934195,395.771513L133.031066,395.566459L130.403971,395.941143L128.737937,395.480302L128.371695,393.945869L128.489062,392.038219L128.331972,390.370954L128.290453,388.631405L127.729933,387.307133L126.351222,386.603857L126.251599,384.942486L126.168500,383.285938L124.048731,383.104719L123.405024,381.853367L121.333498,381.596029L119.247041,381.320612L118.526013,380.099714L117.897973,378.818845L118.297027,376.873518L119.158720,374.657200L119.981270,372.499551L119.540856,371.155648L118.513720,370.174427L116.408879,369.831200L113.998682,369.639075L112.924798,368.640544L111.824241,367.649730L110.489265,366.781658L109.443197,365.742515L108.238366,364.781724L107.292852,363.673541L107.896847,361.755517L108.876540,359.669931L108.391020,358.347882L107.927202,357.017810L106.888264,355.967562L105.313127,355.162647L105.861880,353.355931L107.020025,351.293174L107.891140,349.389534L106.615556,348.447982L104.367565,347.908984L102.960157,346.988061L101.973476,345.879492L103.558205,343.732059L103.780337,342.155669L102.347294,341.226757L101.293180,340.139629L99.834853,339.190951L99.193177,337.933309L98.548719,336.673773L97.321670,335.609913L96.053246,334.546881L94.969185,333.410336L95.227177,331.838761L97.183236,329.755601L98.801050,327.812731L101.962127,325.452847L101.167324,324.271894L98.777475,323.523249L97.113839,322.547776L93.095209,322.161855L92.321965,320.901748L91.120114,319.739081L90.789475,318.357586L92.127081,316.596547L92.833486,315.000158L93.969331,313.328688L94.397202,311.823899L93.868257,310.517742L92.611620,309.344524L92.026790,308.034489L91.685430,306.677159L91.477489,305.296203L92.317313,303.750650L93.083392,302.232377L91.708258,301.033118L90.179872,299.836386L88.770821,298.604019L86.947858,297.402168L86.760152,295.992756L86.881441,294.550773L86.963980,293.116590L87.431015,291.651585L87.909415,290.194615L88.685845,288.724644L88.787663,287.312554L87.165429,286.004397L85.677281,284.666201L84.236187,283.304649L83.716967,281.889157L84.995272,280.415405L85.984879,278.967530L86.297934,277.544088L85.896612,276.129901L86.518536,274.711383L88.163650,273.311417L88.744081,271.918345L89.972263,270.549223L89.286154,269.137620L88.435964,267.708633L90.019488,266.379457L90.638671,265.020934L90.232132,263.607361L91.657329,262.313125L90.087426,260.809095L88.940960,259.315444L90.383541,258.040518L88.774414,256.482048L89.403452,255.136612L89.619879,253.751170L88.729817,252.231342L89.191112,250.870835L88.238041,249.320130L88.572151,247.938740L88.842320,246.549586L88.431597,245.052004L89.389019,243.774798L89.160759,242.300123L89.645065,240.949021L89.758538,239.530461L89.564097,238.048165L89.626336,236.611660L92.241973,235.720411L95.421725,234.991294L98.991775,234.397587L103.946699,234.185946L105.532374,233.217370L106.638269,232.146934L107.678090,231.071687L107.179872,229.591677L105.815369,227.856757L103.722484,225.885169L101.302063,223.776998L99.394327,221.778437L97.733733,219.818988L97.152622,218.170312L97.144665,216.692863L98.606431,215.702078L100.474862,214.868396L102.463677,214.101004L103.184314,212.901118L102.131033,211.049313L102.183321,209.589790L102.072925,208.059763L101.673564,206.404795L102.367176,205.176022L102.537978,203.734171L102.501880,202.198599L103.604287,201.143320L104.037618,199.803507L104.766548,198.594020L106.470163,197.833623L107.314662,196.692446L107.805591,195.387605L108.497859,194.178531L108.593765,192.676015L108.513098,191.074733L109.536975,190.027304L110.810882,189.117982L111.085002,187.688139L111.821924,186.501944L111.943584,184.977478L111.185273,182.947675L110.990949,181.211759L111.937282,180.121640L112.460405,178.785709L114.547348,178.387357L115.831444,177.525198L116.493308,176.286936L117.608401,175.334027L117.593604,173.661410L118.348244,172.475898L120.163095,171.995369L120.816350,170.752010L121.716538,169.675496L123.023950,168.885740L122.621594,166.894391L123.508337,165.804828L124.423021,164.737255L124.964024,163.393721L126.254836,162.609814L126.448087,160.994132L126.331863,159.121428L126.480493,157.434579L127.084577,156.095932L128.368644,155.305223L129.328975,154.255823L130.440267,153.334842L132.013366,152.813569L132.443515,151.317708L133.310244,150.193295L133.906258,148.824922L133.589246,146.618158L134.768319,145.755188L136.463584,145.380984L137.911783,144.792453L138.983002,143.853886L139.524528,142.399382L140.257618,141.121871L141.178307,140.025465L143.156076,140.008573L144.753794,139.626329L145.936998,138.824893L147.517334,138.453930L148.376611,137.316834L149.673845,136.657472L150.224710,135.170310L151.187025,134.134374L151.814199,132.708040L152.261160,131.054905L153.417452,130.223823L154.125144,128.852871L154.909750,127.561957L157.075821,127.981222L159.197777,128.385381L160.401327,127.648569L162.415072,127.973683L163.062771,126.523811L164.128257,125.617502L165.872186,125.637414L167.193480,125.096523L169.412363,125.832325L169.634619,123.751478L169.733770,121.449101L170.162229,119.585426L170.260203,117.188368L171.775787,116.909072L173.397742,116.811908L174.507869,115.926889L175.678341,115.134583L176.151155,113.198720L176.917841,111.711122L177.923797,110.602730L178.846744,109.338076L180.613263,109.533163L182.310279,109.636331L183.922005,109.613245L185.350388,109.275127L187.324199,109.975848L188.623194,109.433225L189.845604,108.745022L191.230712,108.378588L191.853176,106.476413L193.877639,107.421137L195.652603,107.901070L197.378819,108.318815L199.224076,109.037309L200.022550,107.469038L200.930703,106.109539L201.914281,104.892115L202.844097,103.518657L203.604714,101.698815L204.641073,100.506906L206.186817,100.576787L207.930058,101.184861L210.101556,102.978897L211.697350,103.317677L212.220955,100.718476L212.896211,98.447792L213.289454,95.267077L214.604561,94.702243L216.196397,94.978886L217.405210,94.089894L219.223940,95.143305L220.535802,94.598059L221.884418,94.170334L223.198623,93.620461L224.524778,93.104231L225.972849,93.032257L227.668917,93.927276L229.164526,94.110319L230.496789,93.662094L231.928520,93.625073L233.582060,94.574084L235.389358,96.306560L236.896449,96.784461L238.603451,98.291172L239.563952,96.171220L240.479435,93.662843L241.953838,94.023745L243.371347,94.113291L244.966994,95.298989L246.419052,95.720593L247.482369,93.644737L248.350646,90.015746L249.489849,87.987669L250.857592,87.516272L252.333217,87.898824L253.866610,88.864334L255.469833,90.650337L256.931237,91.292750L258.333291,91.411306L259.727361,91.478252L260.960077,89.449030L262.262338,88.014297L263.587620,86.626170L264.945612,85.484673L266.385488,85.789201L267.830196,86.366989L269.298514,88.030404L270.733698,89.367684L272.168018,91.978404L273.578196,96.519792L274.918710,98.189566L276.248085,97.881367L277.618472,95.082819Z" />
<line x1="50" y1="550" x2="100" y2="550" fill="none" stroke="black" stroke-width="1.0" stroke-linejoin="round" stroke-miterlimit="10" />
<text x="125" y="553" style="text-anchor:start;fill:black">GC-content</text>
</g>
<g style="fill:pink;stroke:black">
<a href="" title="CP014855:1 [72000-92599];"><path  d="M336.398068,53.346493L340.257103,54.451796L344.096261,55.624280L347.914372,56.863588L351.710272,58.169342L345.039814,77.024182L345.039814,77.024182L341.573992,75.831971L338.087891,74.700429L334.582573,73.629900L331.059105,72.620711Z" />
</a><a href="" title="CP014855:2 [122000-144099];"><path  d="M376.671121,68.692019L380.256206,70.497846L383.809230,72.365967L387.329109,74.295812L390.814772,76.286793L380.743922,93.566203L380.743922,93.566203L377.561361,91.748350L374.347558,89.986317L371.103493,88.280642L367.830154,86.631843Z" />
</a><a href="" title="CP014855:3 [334000-352099];"><path  d="M493.522044,203.249625L494.740979,207.074289L495.892978,210.919643L496.977692,214.784517L477.675284,220.020646L477.675284,220.020646L476.684893,216.491848L475.633068,212.980873L474.520127,209.488788Z" />
</a><a href="" title="CP014855:4 [1173000-1192599];"><path  d="M55.961598,345.158237L54.770528,341.324804L53.646543,337.471169L52.589984,333.598503L51.601173,329.707989L71.027158,324.950772L71.027158,324.950772L71.929985,328.502981L72.894669,332.038893L73.920917,335.557430L75.008415,339.057521Z" />
</a><a href="" title="CP014855:5 [1310000-1343599];"><path  d="M49.778672,228.359315L50.626967,224.435765L51.543607,220.527616L52.528315,216.636061L53.580790,212.762284L54.700711,208.907465L55.887737,205.072778L57.141507,201.259392L76.085724,207.671619L76.085724,207.671619L74.940978,211.153406L73.857171,214.654642L72.834634,218.174259L71.873679,221.711186L70.974598,225.264345L70.137665,228.832655L69.363135,232.415027Z" />
</a><a href="" title="CP014855:6 [1610000-1632099];"><path  d="M220.181465,51.628274L224.088188,50.705579L228.010420,49.851206L231.946965,49.065416L235.896624,48.348448L239.296917,68.057279L239.296917,68.057279L235.690707,68.711902L232.096470,69.429362L228.515302,70.209441L224.948294,71.051902Z" />
</a></g>
<text x="275" y="280" style="text-anchor:middle" font-size="25" font-weight="bold">CP014855</text>
<path  style="fill:pink;stroke:black" d="M350,550L375,550L375,565L350,565Z" />
<text x="405" y="565" style="text-anchor:start;fill:black">Selected loci;</text>
</svg>