<svg xmlns="http://www.w3.org/2000/svg" viewbox="0 0 550 650">
<circle cx="275" cy="275" r="240" fill="none" stroke="black" stroke-width="1.0" />
<line x1="275" y1="15" x2="275" y2="55" fill="none" stroke="grey" stroke-width="1.0" stroke-linejoin="round" stroke-miterlimit="10" />
<line x1="495" y1="275" x2="535" y2="275" fill="none" stroke="grey" stroke-width="1.0" stroke-linejoin="round" stroke-miterlimit="10" />
<line x1="275" y1="495" x2="275" y2="535" fill="none" stroke="grey" stroke-width="1.0" stroke-linejoin="round" stroke-miterlimit="10" />
<line x1="15" y1="275" x2="55" y2="275" fill="none" stroke="grey" stroke-width="1.0" stroke-linejoin="round" stroke-miterlimit="10" />
<text x="275" y="10" style="text-anchor:middle" font-size="15">Thermococcus peptonophilus strain OG-1, complete genome.</text><text x="285" y="25" style="text-anchor:start">1,927,439</text><text x="525" y="265" style="text-anchor:start">0.48 Mbp</text><text x="285" y="530" style="text-anchor:start">0.96 Mbp</text><text x="-200" y="25" style="text-anchor:end" transform="rotate(-90)">1.44 Mbp</text><circle cx="351.858371" cy="47.639513" r="2.500000" fill="grey" stroke="black" stroke-width="1.0" />
<circle cx="420.621305" cy="84.226743" r="2.500000" fill="grey" stroke="black" stroke-width="1.0" />
<circle cx="474.046052" cy="140.907982" r="2.500000" fill="grey" stroke="black" stroke-width="1.0" />
<circle cx="506.505422" cy="211.713036" r="2.500000" fill="grey" stroke="black" stroke-width="1.0" />
<circle cx="514.580493" cy="289.184061" r="2.500000" fill="grey" stroke="black" stroke-width="1.0" />
<circle cx="497.420723" cy="365.161089" r="2.500000" fill="grey" stroke="black" stroke-width="1.0" />
<circle cx="456.833539" cy="431.641514" r="2.500000" fill="grey" stroke="black" stroke-width="1.0" />
<circle cx="397.093960" cy="481.623002" r="2.500000" fill="grey" stroke="black" stroke-width="1.0" />
<circle cx="324.494312" cy="509.841038" r="2.500000" fill="grey" stroke="black" stroke-width="1.0" />
<circle cx="246.681464" cy="513.323437" r="3.000000" fill="black" stroke="black" stroke-width="1.0" />
<circle cx="171.851387" cy="491.703400" r="2.500000" fill="grey" stroke="black" stroke-width="1.0" />
<circle cx="107.885879" cy="447.258151" r="2.500000" fill="grey" stroke="black" stroke-width="1.0" />
<circle cx="61.522380" cy="384.669074" r="2.500000" fill="grey" stroke="black" stroke-width="1.0" />
<circle cx="37.644326" cy="310.528634" r="2.500000" fill="grey" stroke="black" stroke-width="1.0" />
<circle cx="38.766773" cy="232.645988" r="2.500000" fill="grey" stroke="black" stroke-width="1.0" />
<circle cx="64.771495" cy="159.224459" r="2.500000" fill="grey" stroke="black" stroke-width="1.0" />
<circle cx="112.919435" cy="97.997485" r="2.500000" fill="grey" stroke="black" stroke-width="1.0" />
<circle cx="178.139203" cy="55.414058" r="2.500000" fill="grey" stroke="black" stroke-width="1.0" />
<circle cx="253.561249" cy="35.959460" r="2.500000" fill="grey" stroke="black" stroke-width="1.0" />

<circle cx="275" cy="275" r="185" fill="white" stroke="grey" stroke-width="0.5" />
<circle cx="275" cy="275" r="170" fill="none" stroke="black" stroke-width="0.5" />
<circle cx="275" cy="275" r="170" fill="aliceblue" stroke="black" stroke-width="0.5" />
<circle cx="275" cy="275" r="160" fill="white" stroke="none" stroke-width="0.5" />
<circle cx="275" cy="275" r="140" fill="none" stroke="black" stroke-width="0.5" />
<circle cx="275" cy="275" r="140" fill="aliceblue" stroke="black" stroke-width="0.5" />
<circle cx="275" cy="275" r="133" fill="white" stroke="none" stroke-width="0.5" />
<circle cx="275" cy="275" r="110" fill="none" stroke="black" stroke-width="0.5" />
<circle cx="275" cy="275" r="110" fill="white" stroke="black" stroke-width="0.5" />
<circle cx="275" cy="275" r="109" fill="aliceblue" stroke="none" stroke-width="0.5" />
<circle cx="275" cy="275" r="80" fill="none" stroke="black" stroke-width="0.5" />

<g style="fill:none;stroke-linejoin:round;stroke-miterlimit:10">
<path style="stroke:blue;stroke-width:1.0" d="M277.021379,119.969125L278.003152,121.464900L279.061935,119.269953L280.234884,114.462803L281.219702,116.077406L282.352970,113.991291L283.293074,116.139517L284.067721,120.638258L285.015502,121.595382L285.982141,122.127443L287.016387,121.720118L288.124948,120.513081L289.097713,120.975161L290.177885,120.292833L291.013875,122.041101L291.906125,123.089110L292.884730,123.299651L293.877338,123.387747L294.904652,123.214724L295.981548,122.710971L297.198439,121.296817L298.058569,122.381320L299.132732,122.030152L300.113675,122.287176L301.043817,122.833714L302.151038,122.356277L303.027570,123.176167L303.971786,123.597451L304.833042,124.421604L305.815025,124.614944L306.682855,125.347962L307.830158,124.769289L308.909530,124.540090L309.578323,126.105417L310.637580,125.960781L311.551648,126.427426L312.527811,126.636094L313.689933,126.131166L315.174633,124.456963L315.479438,127.189884L316.517616,127.188628L317.309004,128.057777L318.235019,128.442172L319.303791,128.349213L320.190954,128.861111L321.173612,129.061372L322.023413,129.676691L323.062546,129.706208L324.093224,129.772887L325.244053,129.502293L326.103203,130.083586L326.974218,130.621812L328.065545,130.552346L328.714849,131.678684L329.585780,132.195015L330.513167,132.560333L332.153414,131.131084L333.012490,131.698668L333.354938,133.511907L334.513974,133.329248L336.372487,131.531917L337.422924,131.667879L337.515675,133.973727L338.268657,134.750366L338.950858,135.668769L339.853227,136.098664L341.245163,135.497366L341.721284,136.826822L342.339630,137.837288L343.273059,138.197876L344.346505,138.285140L345.508806,138.211628L348.007902,135.602511L348.674942,136.532967L352.243185,132.081567L353.676270,131.671970L353.095574,134.903012L353.708034,135.943872L352.696450,139.795035L353.485912,140.459393L354.063249,141.477484L354.659076,142.450078L355.016329,143.800662L355.528111,144.877585L356.771991,144.772746L357.212047,145.947914L358.137940,146.353171L359.802578,145.635345L360.828443,145.913865L361.465433,146.776902L361.871690,147.969033L362.323366,149.078401L363.691457,148.869681L364.093764,150.037081L364.480981,151.209398L365.539811,151.449275L366.191214,152.247046L367.564737,152.080432L368.786239,152.133592L369.333937,153.072541L370.092065,153.734531L371.289674,153.842427L372.509495,153.936478L372.504370,155.545502L372.385819,157.266085L373.734415,157.207886L376.525389,155.469864L378.834400,154.354431L378.834304,155.933499L378.233497,158.168965L377.558149,160.447166L378.029854,161.419163L378.366376,162.530482L379.312615,162.975709L380.433528,163.241847L380.832875,164.273775L381.306505,165.220183L381.980121,165.956223L382.779097,166.565147L383.836942,166.919416L384.578603,167.592750L385.545772,168.048968L386.491145,168.532812L386.321801,170.073597L387.063640,170.745681L388.664603,170.630407L391.610664,169.318223L393.182711,169.288663L396.039122,168.145984L391.268738,173.698421L391.441484,174.875847L391.805942,175.879701L392.376336,176.704775L393.677576,176.924312L394.377696,177.648581L394.239346,179.048979L395.360808,179.432667L395.794746,180.365578L396.282353,181.253153L396.920389,182.023436L398.156448,182.344459L398.134755,183.611865L398.614334,184.499794L399.620561,185.005190L401.409821,184.961172L403.288722,184.877813L402.560487,186.625831L401.853442,188.334199L401.733775,189.622534L402.743884,190.147607L403.006150,191.171016L403.650339,191.942556L404.794065,192.398084L405.501147,193.138599L406.239920,193.862673L409.510034,193.048279L411.411022,193.104766L410.424483,194.893537L409.683766,196.512496L408.869343,198.151889L408.446409,199.547120L408.706719,200.546148L409.330144,201.342221L409.620863,202.320346L410.171273,203.157363L410.786520,203.961830L411.596402,204.668609L411.835418,205.670422L412.066070,206.672913L413.252019,207.203445L413.967348,207.973000L415.546012,208.337540L415.306181,209.568407L414.495856,211.050228L414.880870,211.974101L415.150124,212.948819L415.819194,213.747519L415.610928,214.925235L416.104907,215.799071L416.578263,216.683058L417.315235,217.461886L417.360788,218.520513L417.527337,219.527177L419.147983,219.975854L419.328522,220.982370L424.129016,220.291488L421.651933,222.282449L421.828673,223.297387L421.138782,224.608805L420.148584,226.006728L420.472600,226.951555L420.994563,227.832585L421.009261,228.876943L421.080150,229.899852L421.277582,230.881407L422.331747,231.609363L422.704590,232.544085L422.197402,233.726918L422.481853,234.682419L422.911537,235.599537L423.025093,236.601073L423.833699,237.425232L425.254388,238.106920L426.242431,238.908170L424.488085,240.355356L424.183402,241.449312L424.459725,242.409405L425.770615,243.151832L426.815011,243.963768L428.813356,244.598593L431.771109,245.074672L431.991931,246.092056L431.250490,247.280585L426.008287,249.224930L426.659025,250.130323L427.591115,250.998002L427.137982,252.084691L427.202478,253.088826L426.922703,254.139191L427.483298,255.074216L426.860962,256.161695L426.777481,257.176028L429.105474,257.920457L429.618716,258.883305L429.666705,259.896966L429.300407,260.947691L429.266957,261.964270L429.403648,262.966033L430.180726,263.922847L430.927029,264.890895L429.090154,266.018420L428.811342,267.040518L428.490707,268.060183L428.142329,269.076140L427.977822,270.081131L427.766311,271.084761L428.202053,272.072932L428.112778,273.073145L428.568370,274.068726L428.979319,275.070148L430.363148,276.083721L433.223671,277.135360L430.814695,278.119007L428.655699,279.078129L428.357871,280.070967L429.565826,281.119969L427.814116,282.048751L427.557588,283.033982L427.600047,284.034244L428.606916,285.099240L428.771782,286.117409L427.550200,287.029360L427.512013,288.027397L427.363986,289.015943L427.279579,290.010016L427.030326,290.986931L427.348270,292.025320L428.024217,293.111746L429.203489,294.271572L428.976985,295.263678L428.125923,296.168192L426.464303,296.945788L427.254824,298.074799L428.416418,299.275076L427.629493,300.171645L428.724542,301.382865L428.707893,302.412828L427.614901,303.245765L426.615330,304.084365L425.553637,304.899678L424.847456,305.776259L424.683492,306.761023L424.570742,307.757590L425.025254,308.883653L426.521411,310.261379L423.645376,310.615260L423.493192,311.604126L423.962838,312.751779L423.739982,313.729051L423.229339,314.629794L422.818655,315.554437L423.249259,316.713747L424.135825,318.014454L423.372076,318.843976L424.573928,320.261519L423.393777,320.962583L425.631737,322.734241L425.147474,323.660251L421.492047,323.533239L421.594331,324.630097L420.698740,325.388042L419.692194,326.098525L421.521969,327.821634L421.691210,328.965887L420.428683,329.580503L422.088911,331.300355L421.761777,332.274932L417.886813,331.838914L416.836207,332.494854L416.321455,333.361827L417.490247,334.934890L417.040996,335.838850L415.216854,336.142468L414.904342,337.094881L414.499211,338.006904L414.603348,339.153043L413.751196,339.860408L413.269547,340.737099L412.695167,341.568111L413.137326,342.896509L413.992023,344.445351L415.874886,346.537611L414.164819,346.814316L411.413702,346.524671L410.306647,347.072772L409.334788,347.683356L408.941676,348.603579L409.362462,349.979463L408.874609,350.856047L410.341721,352.857371L408.585621,353.010690L407.251128,353.392103L407.091406,354.465745L405.877088,354.901910L405.893024,356.087801L405.030637,356.731444L404.725622,357.724524L403.830595,358.340223L404.035898,359.671438L402.843033,360.086228L402.694966,361.194250L401.478918,361.579060L401.218365,362.614651L400.302306,363.194862L399.873150,364.115902L399.616252,365.164566L398.860803,365.854109L398.392289,366.753744L398.087727,367.779587L397.166643,368.340523L398.002994,370.255997L396.760622,370.570279L395.777866,371.078032L396.384715,372.859730L396.390907,374.177469L395.542748,374.802052L393.995940,374.836138L392.157931,374.602750L391.532967,375.387642L390.769096,376.051956L389.613425,376.367338L389.276816,377.405196L388.264837,377.837642L387.577665,378.560755L386.830094,379.227287L386.131381,379.938297L385.492907,380.706577L385.156932,381.769322L384.204803,382.236127L383.739368,383.180646L383.167803,384.024419L382.071368,384.335882L381.548860,385.230887L380.694733,385.783603L379.942672,386.441098L379.127505,387.029989L378.341900,387.648722L378.412969,389.212128L377.249206,389.417363L376.112032,389.640475L376.361135,391.444538L375.737806,392.263551L374.493738,392.354728L373.428505,392.644717L373.080403,393.793844L372.486256,394.654694L371.570146,395.121139L371.542635,396.703354L370.289183,396.745121L369.817359,397.783273L369.499315,399.034743L368.615546,399.550964L367.128751,399.251310L365.314412,398.478959L364.802854,399.474612L364.408522,400.646432L363.151215,400.605096L362.906946,402.010099L366.392464,408.903291L369.343984,415.181888L369.832863,417.911042L364.636893,412.011411L359.176393,405.514426L357.449802,404.685907L356.331940,404.788877L355.505072,405.350446L354.888533,406.258679L353.916901,406.586369L353.191679,407.325460L354.605449,411.745828L355.133491,414.740403L353.671512,414.287498L352.718128,414.719064L349.445170,410.913474L348.614710,411.502073L347.297231,411.176781L346.390481,411.611976L346.221236,413.480170L345.759235,414.815640L344.599449,414.778483L342.390686,412.583446L341.628665,413.303039L341.475000,415.316431L339.939923,414.418257L338.639338,413.986401L337.810619,414.573416L337.022362,415.258224L336.148462,415.755958L335.292783,416.299992L334.199888,416.283451L333.175270,416.417884L332.279483,416.862145L331.535030,417.691071L330.399048,417.530542L329.490878,417.947093L328.600537,418.413799L327.635438,418.681186L326.687520,418.993317L325.833119,419.570371L324.744371,419.477241L323.839195,419.910724L323.066507,420.751011L323.092061,424.089533L321.760996,423.264715L320.315833,422.017189L319.723793,423.529753L318.396938,422.602118L317.394247,422.744431L316.312360,422.597038L315.838401,424.655975L315.307085,426.593657L314.303350,426.797085L313.206271,426.627140L311.618545,424.431278L310.449010,423.850083L309.527582,424.293279L308.520404,424.367723L307.516065,424.446138L307.033827,426.993151L306.332635,428.622761L305.346769,428.906804L304.105242,427.854302L302.728421,425.973762L301.714137,425.985202L300.787310,426.497581L299.700667,426.060830L298.770287,426.569451L297.710425,426.247205L296.793757,426.879165L295.738600,426.546763L294.786895,426.961154L293.890082,427.850332L293.088854,429.643371L292.057344,429.550526L290.968438,428.878631L289.843015,427.725761L288.814728,427.463381L287.901295,428.512512L286.918612,428.831401L285.863361,428.171709L284.826705,427.652165L283.818684,427.495635L282.841150,427.878917L281.860769,428.295615L280.870452,428.579516L279.849869,428.009748L278.843519,427.693575L277.864312,428.594154L276.873372,429.475858L275.871148,430.367291L274.859511,428.916536L273.860808,428.269134L272.863725,428.103838L271.856530,428.528791L270.788871,430.978068L269.733365,432.100755L268.753864,430.948716L267.765891,430.290100L266.830674,428.788767L265.787734,429.410414L264.820838,428.748715L263.850289,428.244399L262.862692,428.026357L261.913629,427.380835L260.908206,427.424540L259.908660,427.390882L258.893639,427.495685L257.901250,427.374142L256.916952,427.185626L255.935569,426.981313L254.746921,428.354418L252.671722,435.975128L250.121490,446.153769L249.020991,445.890313L248.335011,443.022780L249.134012,431.394290L248.805488,427.209618L247.956730,426.235659L247.054024,425.610287L246.087289,425.348954L244.982689,425.785105L243.821295,426.455532L242.575064,427.469040L241.334092,428.382523L240.443201,427.680845L239.425803,427.549650L238.555607,426.799561L238.086645,424.453582L236.842231,425.276268L235.190280,427.604168L233.666775,429.317978L232.885291,428.231154L231.987546,427.597208L231.325954,426.163119L231.145188,423.159464L230.193475,422.826495L228.628475,424.472245L227.666648,424.129881L226.888713,423.222474L226.729351,420.476622L225.815788,420.058924L224.962510,419.471237L223.998779,419.206658L223.009492,419.010104L221.755987,419.525043L220.770525,419.292807L220.295772,417.723421L219.330152,417.456553L218.378763,417.150329L217.031642,417.816729L215.847688,418.050178L214.571962,418.479084L214.600426,415.837469L213.453501,415.967472L212.586413,415.449197L211.776811,414.807647L209.767708,416.781017L209.401524,415.163014L208.839062,413.997122L208.269080,412.871041L207.562350,412.045455L206.508411,411.926497L205.385815,411.932082L204.461847,411.538597L203.083214,412.009204L203.108029,409.818633L202.220601,409.365482L201.355030,408.871947L200.401831,408.535679L199.028433,408.935680L198.215784,408.335150L197.682081,407.260422L196.154131,407.878114L194.452163,408.751632L194.636040,406.498695L193.667513,406.154022L193.412272,404.670371L192.482456,404.270636L191.295215,404.264522L190.499904,403.646511L190.068629,402.483954L189.151819,402.056963L188.624723,401.057538L187.462915,400.983623L186.044797,401.259873L184.401194,401.828387L183.064968,401.940964L182.302979,401.252160L182.021769,399.919688L178.566381,402.813801L173.046356,408.313346L162.898281,419.619052L156.664617,425.622501L153.937523,427.042603L158.587455,419.262499L161.010316,414.390595L158.838066,415.172000L159.359517,412.705426L166.929342,402.000616L172.216187,394.204257L173.226214,391.488508L171.281852,392.163439L170.492790,391.515287L170.043825,390.492037L170.140621,388.884816L170.075902,387.474589L169.837974,386.266362L169.119885,385.573052L168.040545,385.252191L167.160565,384.718799L166.399471,384.061647L165.739811,383.302640L165.248595,382.380030L162.754958,383.396516L159.772947,384.833482L157.295337,385.739501L156.379654,385.151943L158.507004,381.770525L157.853257,380.972678L157.866956,379.579796L157.507202,378.532293L157.216051,377.432432L154.568606,378.363552L144.322006,385.686600L128.891898,397.129134L111.432121,409.921718L111.326471,408.225261L129.613042,391.772948L138.042288,383.541354L146.089207,375.802703L148.371115,372.694684L146.647509,372.696200L148.981817,369.628212L149.724704,367.799273L149.408270,366.771617L144.274706,369.221595L139.468056,371.349626L138.948738,370.389654L145.184590,364.760819L145.691971,363.169447L146.619262,361.316423L147.613721,359.447086L146.768736,358.808967L142.562860,360.330752L142.423329,359.202561L142.962581,357.656936L143.732973,355.988273L144.213061,354.519494L143.680831,353.675041L142.585917,353.162392L141.924662,352.387265L140.924859,351.803338L140.355348,350.967992L139.817376,350.113846L139.684744,349.037096L139.968416,347.742014L139.292937,346.968341L138.359384,346.325936L137.089200,345.848693L134.797443,345.874551L132.575779,345.835591L132.187673,344.870940L134.742031,342.491478L135.941406,340.801269L136.370950,339.495202L136.007085,338.565466L134.924311,337.959655L133.339078,337.565221L132.350791,336.893433L133.285846,335.392933L133.895725,334.048986L132.381354,333.593004L128.660725,334.009409L128.181564,333.092668L127.101717,332.407572L128.618367,330.723474L130.685150,328.862119L130.570824,327.834571L130.812408,326.682853L129.734249,326.003011L128.751169,325.279560L128.842541,324.184980L129.273535,322.984552L126.599655,322.794851L119.570579,323.942543L121.167449,322.339563L123.323178,320.595784L124.673621,319.123246L123.847754,318.297310L122.968848,317.478523L123.939391,316.147502L121.368468,315.773737L122.215581,314.484465L124.442259,312.863612L122.464247,312.305387L123.822801,310.930188L123.973199,309.855765L122.527799,309.143884L120.133149,308.621339L112.890374,309.088558L117.465900,307.055371L117.597918,305.961200L123.324848,303.808865L124.216290,302.622258L124.032488,301.639831L123.943040,300.641251L122.192883,299.914485L121.217275,299.045357L123.673142,297.651644L123.312266,296.695513L122.066816,295.857101L117.860283,295.388139L116.989679,294.454441L116.855780,293.425065L116.548509,292.414562L115.799722,291.447115L115.721734,290.406330L117.980659,289.155169L118.943628,288.043233L119.729457,286.958701L120.378687,285.895125L118.997286,284.970773L117.214540,284.052212L119.049943,282.927183L120.308045,281.852398L121.469467,280.798284L116.150212,279.962280L116.814967,278.909380L118.837735,277.840782L120.278815,276.805599L122.003503,275.787903L122.061036,274.790480L121.979078,273.792689L119.105357,272.753495L117.676099,271.706867L118.124292,270.692860L118.677628,269.687908L121.857392,268.796125L121.482304,267.778116L119.221573,266.653558L119.864944,265.673319L120.650904,264.710210L121.613644,263.769459L122.005343,262.794815L122.450703,261.828900L122.898013,260.867888L122.542016,259.831625L122.916622,258.866875L123.108728,257.885113L122.990032,256.867341L123.260951,255.895489L121.372306,254.639363L121.037409,253.572656L121.699041,252.644958L121.437013,251.583282L121.810687,250.617256L121.772335,249.585762L120.565700,248.349928L123.220755,247.787911L124.759058,247.051496L123.967713,245.884270L122.901354,244.648897L125.023803,244.054351L125.423430,243.118707L124.774601,241.955051L122.663614,240.447940L122.383989,239.336750L124.705465,238.844254L124.895726,237.853109L124.606853,236.739352L125.937594,236.041419L126.089970,235.042290L125.866601,233.938193L126.897909,233.181480L127.491488,232.308764L128.511448,231.566922L126.665150,229.965332L125.323696,228.490140L126.986509,227.946488L125.779564,226.489365L127.990856,226.146221L128.975463,225.413935L130.097523,224.738943L128.580362,223.140792L127.969607,221.843112L127.694051,220.654981L130.788102,220.725674L131.734587,220.012897L129.992570,218.256873L129.208442,216.851146L129.360763,215.808435L130.943363,215.354372L130.938340,214.249040L129.121809,212.359684L132.673614,212.782708L134.971291,212.696593L135.736771,211.946299L135.289452,210.642901L136.363494,210.038670L136.860342,209.169722L136.638499,207.953597L135.130381,206.093179L136.328736,205.556385L138.445250,205.499059L138.771389,204.543066L138.283902,203.157320L137.128230,201.398966L137.631103,200.512543L139.703113,200.490552L141.212339,200.180787L141.735313,199.328484L141.332543,197.943017L142.294152,197.340262L142.947137,196.562156L143.327485,195.622192L144.608075,195.230527L144.554798,194.024476L145.705285,193.566093L146.154052,192.670613L146.659171,191.810043L147.293150,191.033508L146.333283,189.195697L146.411050,188.031050L148.307620,188.104581L148.946149,187.328637L150.072912,186.898303L150.435113,185.932067L150.928411,185.056562L151.635890,184.336611L152.298532,183.585593L153.050263,182.903207L153.204852,181.766810L153.078026,180.402695L154.361829,180.132339L155.518452,179.774662L155.018123,178.090081L155.664474,177.319703L157.199375,177.286568L158.079536,176.722856L157.874217,175.239930L159.084102,174.959139L158.871027,173.446674L159.677974,172.817869L159.231374,171.066950L159.323283,169.779388L161.715075,170.597228L162.819410,170.254201L163.840281,169.842505L164.465637,169.060016L165.035134,168.221653L165.774390,167.547084L166.475341,166.835329L165.773133,164.706603L164.830881,162.294877L167.460289,163.540247L168.664181,163.340195L170.250953,163.560526L171.035063,162.939608L171.827853,162.329676L172.532867,161.624288L172.531943,160.126506L173.746554,159.987367L174.669437,159.526350L175.363794,158.803978L174.835312,156.634623L174.371517,154.502095L177.141322,156.253714L178.180153,155.941103L178.696492,154.985963L179.576757,154.481597L180.438870,153.957192L181.765483,154.037939L182.061302,152.781974L182.211395,151.313926L183.767785,151.722373L184.895760,151.571694L185.685166,150.962950L186.390151,150.234601L186.877120,149.190782L187.970181,149.011168L188.750921,148.384024L188.979280,146.932655L189.922946,146.535936L190.512017,145.600668L191.726626,145.626129L192.756650,145.377189L193.975603,145.438757L194.804628,144.885036L195.669133,144.388815L196.530861,143.888579L197.313375,143.254350L197.724354,141.976691L197.899035,140.262505L198.489178,139.248259L198.078604,136.415124L199.435367,136.742838L202.014046,139.367108L203.264587,139.582615L204.079386,138.984313L204.598901,137.806184L205.967686,138.286511L206.923909,137.967025L207.661155,137.203580L208.706847,137.070982L209.295964,135.982532L210.387983,135.953678L211.522233,136.030899L212.196672,135.101098L213.091154,134.651658L213.363306,132.764455L213.258730,129.938072L214.629890,130.553337L216.629130,132.737038L217.912791,133.240819L218.847057,132.893985L219.538721,131.922039L220.483715,131.592407L221.378087,131.127988L221.646082,128.944199L223.006445,129.736537L223.712831,128.710973L224.771364,128.681748L225.764701,128.471430L226.847595,128.538400L227.799112,128.213926L228.898704,128.359688L229.685226,127.507270L231.034253,128.502678L231.839375,127.704070L233.002945,128.133373L233.969337,127.891285L234.783309,127.089935L236.653652,130.247743L239.016632,135.499770L240.644877,138.128592L241.489234,137.707868L242.457596,137.798181L243.472735,138.109691L244.283379,137.537821L245.020532,136.603202L245.895122,136.275561L246.863771,136.402005L247.830019,136.537656L248.820738,136.824821L249.690173,136.482057L250.511429,135.851928L250.346780,129.360159L250.566201,124.708451L251.034525,121.267694L252.274816,122.706302L253.345530,123.103784L254.297202,122.678127L254.621494,117.369757L255.968754,119.842034L257.210430,121.700595L258.215908,121.639378L258.729798,116.804637L259.491682,113.898756L260.457732,112.857715L261.810957,116.325072L262.932903,117.380886L264.029952,118.293601L265.139105,119.600316L266.280850,121.795089L267.260106,121.348921L268.145559,118.645014L269.124259,117.509277L270.246563,120.573292L271.258037,120.733596L272.251572,120.018229L273.262323,120.026866L274.273330,120.145784L275.282729,120.262818L276.282108,121.400256Z" />
<line x1="50" y1="575" x2="100" y2="575" fill="none" stroke="blue" stroke-width="1.0" stroke-linejoin="round" stroke-miterlimit="10" />
<text x="125" y="578" style="text-anchor:start;fill:black">n1_4mer:GRV/n1_4mer:RV</text>
<path style="stroke:green;stroke-width:1.0" d="M276.230177,180.650861L276.751735,185.443143L277.437480,181.549732L278.330074,172.877254L278.907621,175.154494L279.607976,174.098688L280.144455,176.453851L280.485285,181.622825L281.118322,181.287389L281.575354,183.470383L282.437935,180.122413L283.469808,175.306309L284.006429,176.600085L284.531292,177.848183L284.848292,180.932579L284.936870,185.711723L285.196519,188.511948L285.932530,187.196017L286.631178,186.305073L287.597626,183.563454L288.803436,179.424265L289.667619,177.918838L290.648167,175.811160L291.113671,177.014971L291.431030,178.998371L291.522820,182.108352L292.246902,181.574464L293.003946,180.913863L293.355324,182.353891L293.799056,183.255889L293.566449,187.302507L294.640816,185.123681L295.644873,183.396674L295.130877,188.316255L296.191339,186.376119L296.856243,186.160277L296.827883,188.704800L298.313794,185.294565L300.187376,180.617458L299.617805,185.108421L299.950521,186.170942L299.399177,190.259898L301.346852,185.689588L301.785805,186.335815L302.719057,185.361878L303.778943,184.039833L302.477417,190.082531L302.665196,191.367702L303.413461,190.947568L304.893470,188.433908L304.982114,189.977921L305.073451,191.459535L307.664074,186.086394L307.971388,187.026138L307.269066,190.579047L307.813346,190.805163L309.732612,187.569647L310.788848,186.595079L310.662914,188.531265L312.403466,185.962473L314.904115,181.717697L314.703590,183.834779L313.752746,187.579441L315.925833,184.278412L315.145178,187.534760L316.004104,187.178236L318.526519,183.339511L316.688771,188.666680L314.322040,194.905743L315.042119,194.765614L315.114364,195.915557L317.135250,193.256845L319.652245,189.743326L321.919886,186.817272L326.601333,179.525149L325.909023,182.256788L325.687731,184.070410L325.713945,185.401970L321.946135,193.305784L321.699486,194.947707L322.422387,194.912772L323.226702,194.752451L320.968191,199.627931L322.796873,197.766790L324.001410,196.962044L324.784428,196.851060L326.224575,195.735598L328.478901,193.418994L328.982728,193.809878L327.854932,196.619277L327.495070,198.237369L325.424268,202.287452L328.558206,198.833548L328.723652,199.647202L327.684583,202.114609L330.042041,199.889571L329.671952,201.405810L330.119104,201.805642L332.802994,199.274112L330.409730,203.382427L333.077014,200.937708L335.261881,199.174805L335.571978,199.796482L331.397595,205.906211L332.397488,205.609703L333.273892,205.478093L338.519527,200.215773L344.055613,194.764031L342.802598,197.250954L339.648083,201.836709L338.547173,204.020669L337.832673,205.732818L336.587410,207.988786L339.331967,205.912067L338.215572,207.992325L337.917238,209.173684L336.310634,211.686187L337.400447,211.395842L338.022074,211.594483L340.068751,210.383442L342.921699,208.424203L342.107188,210.075011L342.758947,210.294372L341.383219,212.430474L340.552119,214.015978L345.504516,210.261045L351.217864,205.925362L352.873532,205.344167L353.900748,205.345977L347.148933,212.138727L346.105393,213.858841L342.949578,217.338699L341.775790,219.079518L349.210397,213.672191L347.982742,215.483241L347.095982,216.984896L345.949705,218.665432L348.078885,217.747691L350.169713,216.896546L349.749970,217.995627L349.298205,219.102477L349.456852,219.739624L348.198158,221.410354L347.412074,222.707579L351.976364,220.171494L354.703809,219.008472L350.781865,222.498168L350.282635,223.567183L353.119359,222.372885L353.127488,223.104723L346.947312,227.882966L347.959895,227.896647L349.309761,227.708711L350.354665,227.731156L354.147566,226.068075L360.389231,222.975670L366.097193,220.309215L361.153666,224.038274L356.246392,227.653340L356.031169,228.483806L355.990897,229.206363L357.271212,229.187728L359.325771,228.761317L355.873920,231.337462L358.491607,230.624763L358.202562,231.471690L363.644868,229.358118L362.395979,230.719605L358.689887,233.280804L359.289166,233.665956L359.075173,234.448700L361.175919,234.125850L360.708478,235.029970L357.897440,236.996919L358.460544,237.395317L355.742568,239.251393L358.257900,238.785101L359.300416,238.983399L362.913025,238.115863L362.314814,239.034501L364.294874,238.898042L367.194590,238.423192L361.081228,241.496472L362.747791,241.504927L363.990536,241.693639L370.465856,239.978010L363.125673,243.321115L362.568403,244.164638L363.810549,244.376577L362.070095,245.610469L356.208802,248.177377L356.648850,248.621174L356.769171,249.169830L361.091641,248.420443L361.724981,248.842990L365.373479,248.384128L365.969206,248.851992L362.263181,250.532038L365.032611,250.387500L365.205619,250.971156L362.989289,252.174855L365.989896,252.028561L369.722409,251.742101L369.268183,252.504254L365.212219,254.092847L365.175124,254.720013L372.072474,253.832761L376.105282,253.642934L373.615292,254.839628L368.219426,256.575061L367.643288,257.315742L366.355319,258.178151L369.136385,258.299857L369.549240,258.861725L363.862079,260.428027L364.524125,260.918198L362.883338,261.762846L362.938160,262.340362L364.437846,262.719111L365.672985,263.151290L364.490168,263.898773L368.029752,264.075061L368.842405,264.599426L373.453597,264.737681L371.709485,265.556425L370.871428,266.268883L368.757495,267.077387L371.129990,267.507786L375.328598,267.838317L375.865774,268.460642L371.508275,269.374742L372.655863,269.946471L367.964485,270.796771L368.187972,271.395298L364.105343,272.134895L365.924108,272.669711L367.163790,273.239125L371.275519,273.788416L366.875999,274.442843L372.547175,275.044439L373.965892,275.690327L374.467851,276.342402L370.426316,276.910188L370.019296,277.521878L369.922342,278.138724L370.830336,278.794362L366.234676,279.208319L366.698267,279.829011L366.052584,280.390504L366.370017,281.007332L364.109537,281.442451L363.834492,282.005052L364.740841,282.665557L364.007456,283.187784L364.540217,283.825872L363.733200,284.330846L365.952495,285.164181L375.198634,286.859379L373.883453,287.357954L375.068850,288.169260L372.684047,288.503884L369.599719,288.706632L366.524422,288.870875L370.993910,290.189114L370.391011,290.731879L369.180651,291.163687L371.304367,292.175273L367.969008,292.206581L369.114624,293.054006L363.720138,292.619658L364.020995,293.283482L364.437675,293.977591L361.787694,294.007432L363.482226,294.983976L369.458433,296.981941L366.138150,296.836595L364.672132,297.104515L366.251692,298.125994L366.692511,298.874979L364.396080,298.900452L365.742270,299.895380L367.730819,301.092204L370.429780,302.524305L367.533349,302.343622L367.535664,303.001569L368.244221,303.880896L367.725960,304.384268L364.476427,303.997793L359.539095,303.008047L365.815803,305.746054L363.287797,305.533203L367.857986,307.793103L370.896493,309.570989L369.998691,309.948847L367.541987,309.731719L367.467258,310.393147L364.973507,310.112865L359.401695,308.574132L358.827492,308.980389L356.492177,308.654001L357.043213,309.509386L359.686966,311.273032L358.776783,311.531409L359.699023,312.592656L357.318564,312.180410L359.225436,313.704788L357.917669,313.760558L357.308563,314.131727L358.280626,315.261645L358.076776,315.833446L360.518598,317.728129L363.312592,319.845977L362.287194,320.043497L356.675730,317.824362L356.526821,318.426278L354.886818,318.223667L354.269010,318.559877L355.302672,319.812004L355.897080,320.837913L359.233657,323.456684L359.503702,324.348066L354.399605,322.064264L355.475448,323.413759L352.422609,322.267359L356.678069,325.599297L352.293639,323.583326L352.180208,324.216923L355.264625,326.923006L358.879702,330.040614L354.860968,328.151653L353.592127,328.049777L352.142888,327.806893L354.309991,330.053139L351.083852,328.552126L350.456080,328.849339L349.742842,329.079270L351.460327,331.085014L351.369140,331.787621L348.378199,330.310137L350.256674,332.499307L354.303576,336.414287L354.428073,337.343334L353.115578,337.140450L354.181978,338.836101L357.164113,342.128823L354.382779,340.724105L352.087483,339.675455L347.527058,336.659458L347.168851,337.170054L349.244146,339.805863L345.066262,336.968574L346.621486,339.181104L343.770522,337.439487L341.762862,336.415489L340.956138,336.472088L341.589935,337.879038L340.948873,338.092101L340.882546,338.856487L341.107897,339.916146L342.406554,342.060208L341.256739,341.781448L335.366933,336.643668L336.211335,338.326626L335.931405,338.865062L333.772879,337.412306L335.017103,339.571944L333.902132,339.206772L335.821692,342.173150L335.145714,342.303350L336.011778,344.174945L336.301016,345.423132L337.171160,347.370159L334.934982,345.694433L334.909561,346.605714L335.448612,348.214657L335.109359,348.778266L334.172488,348.603147L333.637906,348.919981L337.587258,354.963885L338.223470,356.870921L336.106397,355.204986L334.508135,354.172700L334.632191,355.424165L331.523458,352.279557L330.523914,351.961003L331.985411,355.082003L327.337275,349.574452L327.562955,350.944239L327.756102,352.295384L327.466110,352.957258L328.189141,355.154866L328.054438,356.094549L325.828016,353.808192L326.191956,355.520209L322.216515,350.347747L321.857897,350.870348L322.346088,352.790700L322.161054,353.636538L322.556772,355.481348L323.037646,357.518819L323.966467,360.389937L322.742925,359.528598L321.945393,359.396864L319.743105,356.686842L319.593014,357.687806L317.241447,354.564656L318.748345,358.716313L321.800362,365.997047L321.224672,366.336941L320.303152,365.983563L317.068682,360.886561L316.636063,361.425175L317.408656,364.516831L316.061448,363.154023L315.668000,363.817689L315.419573,364.817581L315.007065,365.472528L313.848625,364.424578L312.596962,363.110886L310.115393,358.804617L309.653633,359.239291L308.666828,358.381487L309.246563,361.436299L307.129651,357.663092L307.529152,360.334425L307.216942,361.199771L307.082636,362.577333L306.689130,363.280942L306.555756,364.745178L304.997207,362.123700L304.974393,363.936989L304.035506,363.043725L305.455108,369.413459L304.084132,367.216825L302.834557,365.303060L302.418819,366.059147L301.470116,365.030435L300.927969,365.359266L299.448223,362.346385L300.314646,367.767787L300.293565,370.128291L299.096326,368.064637L299.161596,370.888806L297.123320,365.279830L295.758822,362.166113L295.881074,365.287353L295.497528,366.337475L294.127982,362.913559L293.973965,365.027104L294.054764,368.424809L294.321375,372.990369L294.052849,375.061353L291.886143,366.940486L290.776837,364.168849L290.407259,365.515934L289.254944,362.178364L288.986984,364.186954L289.034392,368.466440L288.544773,369.392572L287.656284,367.485454L287.300757,369.468447L286.494235,368.006349L286.380759,372.295210L285.890594,373.675797L284.659900,368.086889L284.118999,368.829059L283.721369,371.251586L283.387113,374.798259L282.435263,370.965619L281.677419,369.150583L281.042785,368.871161L280.405170,368.468005L279.816171,368.900889L279.301179,371.104665L278.615521,369.587265L277.911210,366.846522L277.389223,369.917977L276.745096,368.577974L276.149699,369.802700L275.544278,372.070708L274.914567,368.597945L274.291444,370.330606L273.595948,375.626444L273.113552,367.135121L272.376746,372.163981L271.668394,374.379943L271.060351,373.362127L270.535743,370.831417L270.243530,364.541238L269.312627,370.328283L268.965965,366.139633L268.358595,366.281122L267.674018,367.365486L267.125099,366.697234L266.212072,370.055030L265.699409,368.916460L264.641076,373.078711L264.191192,371.321822L263.611091,370.848231L263.131194,369.617916L263.103127,365.082013L262.193914,367.325136L261.901040,365.115377L261.601574,363.135046L260.834400,364.260998L260.521249,362.543299L259.629861,364.311952L259.015646,364.390234L258.785927,362.383106L258.164300,362.547302L256.838160,366.231853L255.421819,370.104136L254.470013,371.536424L252.911827,375.634142L252.110071,376.133605L251.660131,375.086275L251.233343,373.993778L252.323622,366.811374L252.544668,363.435554L251.467310,365.208787L249.501856,370.197557L247.005582,376.855553L245.008937,381.400637L245.115166,378.436369L245.854207,373.466392L246.510275,368.993814L245.525747,370.006209L245.236192,368.774748L243.938464,370.695168L244.913435,365.673980L245.795176,361.133743L244.550053,362.916912L244.647122,360.823183L243.109127,363.335508L241.524196,365.866403L240.646988,366.405873L241.375521,362.726321L240.459905,363.386498L240.540347,361.512610L239.372249,362.776144L238.234823,363.910558L237.959314,362.948638L238.548222,359.996892L237.747941,360.322944L236.900865,360.734424L235.387327,362.596888L232.411408,367.565410L233.671482,363.305857L234.085122,360.957825L233.559789,360.618556L235.520529,355.229399L232.282968,360.398713L231.530506,360.505106L230.479612,361.176785L229.546755,361.593317L234.026398,351.837578L233.472878,351.667462L231.881564,353.380763L230.494176,354.668381L226.290989,360.872581L225.672441,360.656895L225.292448,360.029989L223.323107,362.090524L219.953096,366.406715L223.430278,359.382989L221.365577,361.489060L221.866357,359.447250L222.789852,356.791564L221.572682,357.507311L222.126113,355.497436L222.894194,353.212022L220.193258,356.115036L220.587230,354.410915L221.024528,352.681655L219.995812,353.071002L215.151227,358.781715L212.478472,361.327735L213.623431,358.594104L215.187599,355.360171L215.324908,354.093789L217.822971,349.763989L214.633180,352.877416L216.455592,349.517907L214.696764,350.734952L213.859045,350.768011L212.708209,351.172593L212.480175,350.442347L213.168095,348.629828L215.129954,345.357051L215.092569,344.478068L214.126612,344.674623L212.434218,345.676369L209.480191,348.048159L206.150622,350.760715L204.700618,351.350178L210.847236,343.769291L211.877312,341.786768L211.885513,340.911917L210.701961,341.277448L208.682604,342.473138L208.201889,342.081736L207.869543,341.542131L207.212593,341.322739L201.767218,345.721862L196.667866,349.665548L198.037630,347.408129L196.503901,347.892198L198.274504,345.322009L197.753870,344.877992L198.226103,343.545973L199.427874,341.592639L194.954334,344.612815L197.918961,341.156919L202.286306,336.589800L206.302273,332.423194L209.578814,328.963767L208.601891,329.046036L206.384870,330.110797L202.436621,332.507732L198.021289,335.194045L195.039623,336.689746L196.629942,334.651798L197.334234,333.319937L193.908496,335.069566L195.882885,332.811972L196.017340,331.927562L197.525469,330.076625L198.579669,328.580605L195.291264,330.114577L192.461749,331.279196L196.981521,327.455502L197.407982,326.437406L194.626253,327.530409L188.111183,330.983451L191.469991,328.051873L192.267042,326.791779L195.833186,323.843824L195.420558,323.384930L195.263992,322.770891L189.872213,325.249878L192.889199,322.749872L192.316781,322.364092L195.074681,320.094743L193.020373,320.551750L191.750736,320.549437L192.446559,319.471844L190.856626,319.623020L189.241375,319.765710L183.006904,322.259465L188.778439,318.586326L183.503506,320.506363L183.406961,319.811900L186.102497,317.777062L184.013589,318.053947L187.200199,315.847614L187.741786,314.905696L192.074752,312.272314L188.032801,313.409477L189.496181,312.098873L192.404083,310.199093L193.421757,309.138672L189.696732,310.045731L182.883552,312.144759L175.264183,314.463161L174.346610,314.069194L177.173212,312.239976L179.893123,310.496402L188.489750,306.646874L188.320466,306.069564L188.500834,305.369980L190.642366,304.001700L191.624748,303.057481L188.253756,303.563649L179.999514,305.596520L172.660704,307.225208L175.008445,305.770838L173.846544,305.407884L177.988812,303.474368L176.665556,303.167738L174.178836,303.170109L177.933981,301.439879L174.362290,301.709201L176.826247,300.371292L180.851921,298.677204L177.648078,298.809179L180.995083,297.342089L175.425525,297.980984L174.405608,297.526619L177.455036,296.176852L171.573258,296.748669L174.218815,295.507168L173.415745,294.981759L184.732411,292.145239L183.644051,291.735611L184.468649,290.975224L176.372933,291.741508L174.844832,291.329831L170.842397,291.286009L181.645508,288.973942L178.498453,288.802372L176.576308,288.423070L171.851317,288.383057L170.307539,287.889875L171.128386,287.101873L173.586953,286.145769L171.515095,285.691113L169.549167,285.199824L171.872422,284.296869L174.825239,283.372633L180.213000,282.300351L180.409902,281.665129L177.076694,281.258680L175.910413,280.684807L174.486054,280.109280L178.078906,279.293319L180.807225,278.557315L172.218652,278.210768L173.459822,277.509461L174.529975,276.827673L181.146622,276.095271L185.445899,275.461187L182.793298,274.873681L179.527621,274.246738L178.315521,273.606738L169.940184,272.800868L175.037193,272.255446L176.339213,271.647344L186.325234,271.407746L179.297646,270.497905L175.340674,269.660360L174.664596,268.967861L179.150262,268.610110L180.596360,268.088017L182.470116,267.618407L185.102265,267.238233L187.329442,266.854346L183.350414,265.881584L184.006836,265.347373L184.432179,264.794950L183.070960,264.034153L185.782559,263.767192L182.565557,262.749448L182.865932,262.177480L181.467535,261.360671L179.769080,260.478300L177.897261,259.544410L178.398543,258.977747L175.623148,257.850958L180.400994,258.039601L178.145787,256.982738L176.069360,255.928331L174.772826,254.999787L179.670418,255.329973L181.611205,255.094774L181.830624,254.505614L181.864101,253.875453L175.780198,251.814356L178.100550,251.689293L181.318528,251.816280L178.517843,250.454534L183.329358,251.041189L185.864204,251.081784L186.076121,250.516047L186.090078,249.895146L184.118195,248.697405L184.908316,248.288294L183.230726,247.138720L180.389408,245.601056L179.442606,244.622289L175.417503,242.626350L175.602294,241.968357L185.303031,244.541285L180.913813,242.365146L174.265025,239.321479L176.979250,239.561898L177.738670,239.117751L181.317276,239.742391L181.618964,239.159161L181.286951,238.328973L179.558455,236.933211L180.543154,236.610287L181.234274,236.176967L179.521767,234.736725L179.260537,233.889330L185.438175,235.848481L193.133770,238.575005L194.064578,238.355166L193.568124,237.488736L197.583525,238.724726L193.557755,236.188802L192.237485,234.895427L189.031892,232.647778L188.554117,231.709744L187.295049,230.361665L190.710427,231.405744L188.718800,229.660258L187.726282,228.410072L188.567760,228.132639L188.783433,227.519611L193.256465,229.285867L189.133437,226.242500L190.415412,226.238444L193.791760,227.476769L193.016542,226.302793L195.728271,227.211621L194.551720,225.784400L194.537500,225.051876L198.301428,226.692810L201.277762,227.893305L198.887619,225.664292L200.967053,226.323779L196.404218,222.586629L197.661455,222.693390L198.380376,222.448345L193.876766,218.578205L193.234732,217.337095L195.653666,218.264799L196.733766,218.262320L198.844121,219.031128L201.138983,219.972451L200.427933,218.682960L199.691998,217.352341L197.164965,214.609044L200.552962,216.456205L197.722134,213.410482L196.609572,211.683687L199.550436,213.241896L200.544758,213.240759L205.117216,216.260236L203.531512,214.127823L207.480188,216.727233L198.619301,208.206040L202.784763,211.013032L198.703616,206.503758L196.578971,203.667506L201.184497,206.972033L206.664597,211.193540L208.166030,211.774823L209.044047,211.785517L211.260568,213.107584L208.807527,209.881808L208.995091,209.214036L202.733389,202.027752L201.921899,200.239701L208.816848,206.404337L211.710432,208.541671L214.522002,210.659212L211.366558,206.411602L214.158848,208.557724L213.018568,206.420069L211.814024,204.164326L211.357913,202.709680L217.008495,208.255724L217.138148,207.521346L211.619515,200.102796L210.416782,197.664616L214.987009,202.177436L215.496097,201.828339L217.334275,203.136611L219.463886,204.858558L219.611553,204.100116L220.832948,204.723900L218.351740,200.505321L215.467782,195.644283L214.847382,193.718711L219.270482,198.659531L222.087984,201.517801L223.196174,202.058616L222.593622,200.181685L224.551265,201.967823L224.213687,200.444321L222.221515,196.423577L222.796877,196.174688L222.371402,194.395573L225.116457,197.500714L225.865219,197.559229L227.428054,198.930561L229.296604,200.847394L226.863073,195.746850L228.041466,196.538580L226.354298,192.503694L227.851234,193.837496L229.510695,195.505340L228.964940,193.320842L227.908563,190.158053L228.356885,189.659220L231.478555,194.122254L232.934611,195.591731L232.946611,194.347558L232.810865,192.784117L233.727056,193.261929L234.270823,193.014676L235.068924,193.288481L236.542134,194.984863L235.437821,191.293819L236.004887,191.081755L237.674690,193.285331L236.237062,188.652785L237.588711,190.188011L235.848031,184.651193L234.706769,180.330521L235.595958,180.718535L238.218783,185.355887L240.663429,189.735292L240.928693,188.775888L240.529194,186.072865L240.679142,184.717408L242.600678,188.069947L242.041476,184.776379L243.328593,186.514067L242.817356,183.203791L243.987219,184.658388L244.578067,184.461659L244.834940,183.249172L244.738850,180.893394L246.260414,183.584307L245.655466,179.487983L249.085589,188.651147L248.941372,186.068716L250.693867,189.999758L250.676868,187.793399L252.880656,193.648860L254.859507,198.972373L255.605010,199.809551L256.095640,199.684700L256.587073,199.563050L257.079289,199.444607L257.572267,199.329376L258.065985,199.217361L258.560423,199.108567L259.055561,199.002999L259.551375,198.900662L260.047847,198.801559L260.544954,198.705696L261.042676,198.613075L261.540990,198.523701L262.039877,198.437578L261.841977,194.065408L260.871070,184.366578L261.111792,181.927637L261.217998,178.325547L262.308922,181.624760L262.017967,174.582383L263.047644,177.554817L264.208274,182.003644L264.664272,180.559758L265.002434,177.793551L265.272317,173.948310L266.014867,174.818242L266.730477,175.510902L267.317055,174.646210L267.720519,171.013104L268.643045,174.819554L269.232576,173.660118L269.935170,174.453848L270.340698,168.717809L271.083499,170.023862L271.926431,175.147790L272.609150,176.434670L273.302211,179.262959L273.925667,179.186613L274.556311,180.449414L275.171831,180.957139L275.751307,184.991594Z" />
<line x1="50" y1="625" x2="100" y2="625" fill="none" stroke="green" stroke-width="1.0" stroke-linejoin="round" stroke-miterlimit="10" />
<text x="125" y="628" style="text-anchor:start;fill:black">n0_4mer:PS</text>
<path style="stroke:red;stroke-width:1.0" d="M276.586790,153.300175L277.337933,155.474021L278.100324,156.137049L279.027083,151.502206L279.747449,153.695647L280.589076,152.615445L281.362647,153.118392L282.132767,153.577389L283.041487,151.830820L283.895144,151.178655L284.692676,151.361153L285.650473,149.638829L286.704675,147.120343L287.232599,150.313943L288.071728,150.143454L288.437106,154.260170L289.462177,152.330142L290.177053,153.106376L291.162813,151.748556L291.717090,153.663410L292.925791,150.880857L293.947934,149.588543L295.044831,147.942080L295.828347,148.345670L296.418546,149.857798L296.674793,153.143848L297.688057,152.100019L298.498034,152.202523L299.220207,152.751657L299.479789,155.532485L300.697709,153.618434L301.274520,154.767869L302.219099,154.226190L302.478289,156.678227L303.702863,154.962323L303.922970,157.435938L305.016191,156.332827L305.951582,155.906334L306.670640,156.323264L307.061391,157.928270L308.657035,155.173937L308.755648,157.764202L310.372940,155.093003L310.716977,156.772582L312.283007,154.433896L312.904537,155.197025L312.740917,158.363742L313.211832,159.485064L314.006421,159.611574L313.993349,162.082299L314.865309,161.951553L315.205659,163.313467L316.479295,162.090825L317.676174,161.131942L317.586597,163.586763L318.866074,162.445280L321.295962,158.461908L322.263948,158.249509L323.822091,156.625364L324.321997,157.590863L324.319060,159.708746L325.544125,158.943331L325.552616,160.960648L326.347321,161.176768L325.958281,163.976000L327.138225,163.331400L329.750864,159.702681L328.834374,163.514339L328.400704,166.229200L329.279036,166.238396L331.546451,163.520119L333.195111,162.100421L333.925406,162.490897L334.731177,162.739324L336.226732,161.715850L336.229876,163.454836L337.789122,162.361518L338.146400,163.437134L337.607935,166.051603L338.960007,165.359710L337.735122,169.052528L338.535360,169.279378L339.090877,169.912941L340.860565,168.578334L341.321572,169.378550L342.560505,168.947123L343.598186,168.851844L342.321064,172.303048L344.581145,170.349831L343.564196,173.323372L343.278862,175.157004L346.085134,172.494174L346.147203,173.819799L346.495936,174.719796L346.953419,175.457539L345.545822,178.733094L347.880741,176.894867L349.936634,175.489333L351.126772,175.268705L351.706548,175.856099L350.899942,178.209148L353.665145,176.018690L352.821157,178.380656L350.375917,182.655499L352.210584,181.656796L352.811228,182.169663L354.418282,181.497497L357.380268,179.282066L356.540247,181.498031L357.539897,181.588251L359.738852,180.350518L356.943939,184.664424L357.855428,184.847762L358.448095,185.382712L358.950064,186.014036L358.227649,187.924189L356.337594,191.004893L358.345740,190.046513L357.729249,191.767405L358.343004,192.236185L361.838630,189.882120L361.924319,190.902296L362.180774,191.747722L362.525989,192.502349L362.041641,194.023985L367.761525,189.824119L373.449070,185.777691L370.187251,189.857500L373.874584,187.712962L370.304959,191.963554L367.043931,195.854490L367.640003,196.386663L366.842189,198.088001L367.156982,198.841052L369.292431,198.105384L370.603205,198.068808L372.079268,197.918374L372.687532,198.468500L373.126384,199.151875L372.697286,200.495990L371.469461,202.422151L370.240379,204.314509L369.693096,205.673535L371.554347,205.273223L372.914978,205.257398L375.148154,204.646422L373.900443,206.481569L374.849754,206.783018L377.676996,205.829002L377.934347,206.627055L376.537096,208.505136L375.238945,210.285126L376.822076,210.199668L376.036964,211.621037L377.808087,211.440273L382.287600,209.633847L382.933682,210.201320L382.836184,211.212603L379.113646,214.327357L380.155842,214.634963L382.109334,214.438552L382.967567,214.878853L386.877367,213.653841L383.458326,216.445082L385.919006,216.047282L384.801864,217.555981L388.469416,216.576340L384.856720,219.339557L384.468931,220.430017L385.573141,220.776719L384.026037,222.414351L384.463760,223.080181L389.400006,221.649716L385.704852,224.249030L386.452454,224.783047L383.996371,226.742080L386.537255,226.484358L386.140716,227.516120L387.935938,227.617435L390.919091,227.252226L391.395663,227.941181L393.618089,227.940069L389.324471,230.503967L390.973514,230.730608L392.578608,230.994023L392.013731,232.073095L392.976752,232.590430L396.101134,232.356796L394.194629,233.899617L391.684848,235.614342L393.062797,236.004795L390.964724,237.534521L391.131918,238.314936L390.340724,239.390208L392.457114,239.573911L390.513797,240.980059L391.997331,241.370519L394.615331,241.460730L392.963598,242.751918L394.182513,243.252333L390.538857,245.028270L392.542917,245.324948L391.689148,246.348444L392.867540,246.872607L394.920521,247.207793L391.926638,248.703715L395.181937,248.793603L399.613058,248.677247L400.548552,249.333539L404.320624,249.439613L410.863115,249.065704L407.985192,250.512572L408.223866,251.365593L397.129664,254.154120L395.709188,255.205606L398.173632,255.625260L396.474408,256.703296L396.165196,257.556974L397.274296,258.210272L395.533821,259.249220L394.721644,260.148567L399.371332,260.394466L397.641365,261.407631L396.944348,262.289121L395.301803,263.252661L394.187621,264.145451L393.690644,264.970508L397.209955,265.475156L400.761726,266.022842L402.788955,266.715150L402.854899,267.547616L400.923012,268.483692L400.620878,269.320269L399.902759,270.168505L393.841959,271.178740L393.707921,271.957642L393.392782,272.737996L395.101668,273.488575L399.998762,274.241978L397.536547,275.055823L398.355059,275.860451L399.505624,276.680307L400.005357,277.502284L398.031122,278.265331L398.627894,279.087908L397.826618,279.863269L395.115492,280.540484L394.774064,281.307537L397.078317,282.227293L400.166023,283.229328L399.607364,284.008876L397.498586,284.659637L397.627890,285.474730L394.503927,285.993151L396.254577,286.951919L394.773514,287.594928L392.050074,288.080654L396.760019,289.411356L401.481646,290.807037L401.836469,291.691932L402.897151,292.680556L402.987253,293.544179L403.071522,294.409727L402.676616,295.202268L398.383290,295.348364L398.060046,296.120092L402.237824,297.692059L403.890259,298.854839L399.376289,298.859100L394.748022,298.781739L393.038500,299.243211L392.964035,300.030538L394.828419,301.243704L392.980592,301.646270L394.095029,302.715258L394.644119,303.666592L394.573373,304.475283L393.297935,304.980346L394.481731,306.110761L390.681423,305.927959L395.122219,307.955847L391.911092,307.895946L393.733225,309.245593L394.576620,310.334913L393.290641,310.795103L394.881099,312.131240L394.137695,312.753979L391.702722,312.821374L393.180396,314.153508L392.190816,314.675420L390.912964,315.087013L391.557474,316.162656L393.195667,317.609912L392.167316,318.104411L390.144130,318.214477L390.512987,319.214225L388.268053,319.203744L388.072867,319.979231L388.243981,320.904683L386.242904,320.940223L388.036955,322.546114L388.812339,323.747981L386.900891,323.795109L384.292034,323.507972L386.161551,325.207776L386.693828,326.327559L385.151914,326.491434L383.776061,326.715095L384.343479,327.861615L386.813891,329.958158L385.823309,330.371261L388.599107,332.686710L386.443320,332.508973L383.411293,331.842399L383.573554,332.833057L381.529814,332.639161L381.936000,333.763431L383.621567,335.615045L383.198542,336.307471L383.881615,337.635795L381.748116,337.338253L378.558971,336.384774L377.025238,336.378040L379.995143,339.100696L379.017976,339.438796L378.723984,340.196259L377.921535,340.631868L378.337223,341.848618L380.572942,344.275395L376.443184,342.515747L375.757669,343.011544L374.799663,343.316216L375.103313,344.486852L374.600169,345.104242L372.664321,344.698282L375.040415,347.383020L374.144487,347.724250L377.125231,350.939691L377.744740,352.445695L377.066671,352.983287L378.133453,354.868625L378.149056,355.962005L377.611364,356.626694L373.864043,354.703680L374.258689,356.095247L372.812609,355.982882L372.334993,356.662868L375.119932,360.117759L372.128827,358.671893L371.301273,359.058979L368.989361,358.126835L367.695224,358.065602L365.620308,357.277775L364.279429,357.128591L364.339459,358.265686L363.019637,358.114514L361.846950,358.084915L363.733193,361.004418L363.027538,361.440632L361.598928,361.153967L361.848176,362.535955L356.458434,358.181245L357.824316,360.686491L357.078258,361.030069L354.044968,358.939715L357.467568,363.726228L356.748513,364.110665L358.459956,367.175472L356.592989,366.302955L355.494640,366.264547L355.617072,367.613582L355.154937,368.304122L354.310920,368.548716L354.148030,369.600112L355.550093,372.561337L355.295301,373.554504L354.228242,373.549988L354.504836,375.225203L354.093835,376.053321L352.067478,374.798152L351.595957,375.535753L349.825369,374.551541L350.380487,376.663424L348.792305,375.889734L348.776688,377.260944L347.297583,376.600308L344.153272,373.535266L346.943452,378.945653L347.358601,381.015905L348.342224,383.976226L349.322694,387.002667L345.102654,382.153017L342.708988,379.981924L340.703480,378.345493L339.470048,377.880801L337.495206,376.189625L337.950221,378.428646L336.766530,377.989770L336.364907,378.849151L335.169916,378.359570L335.942108,381.273602L335.103655,381.413205L334.137621,381.315647L332.862998,380.639642L333.308034,383.119254L330.696443,379.908062L331.404115,382.934244L330.998904,383.882382L331.129103,385.907452L330.670736,386.805066L329.121098,385.492527L329.119031,387.336433L328.996795,388.977249L326.829991,386.272798L327.530475,389.724979L326.470350,389.373853L324.896943,387.837636L324.130992,388.093275L323.411807,388.456165L321.019444,384.827671L320.951670,386.703614L321.276949,389.612544L319.936142,388.416164L318.694415,387.416890L316.687347,384.359315L316.654818,386.451787L316.142602,387.308705L316.263621,389.953972L314.377874,386.991435L313.263241,386.131521L313.923134,390.488791L313.190798,390.805117L313.256114,393.597251L311.693738,391.344543L310.894099,391.450459L309.636435,390.029177L310.357467,395.258186L308.584079,392.040895L308.070720,393.152057L308.011576,395.973876L306.693174,394.197015L305.860219,394.188091L304.741982,393.035380L303.382892,390.823604L302.960216,392.404702L302.050944,391.965162L301.520143,393.174393L300.937289,394.209619L300.077847,393.988621L299.124671,393.282377L298.489212,394.127990L297.935213,395.450673L297.714751,398.675683L296.789522,398.151850L295.638242,396.247381L294.371490,393.469405L293.097916,390.400001L292.563716,391.971078L292.127169,394.358045L291.479237,395.421583L290.883192,396.981148L290.188335,397.897406L289.782729,401.378985L289.120465,402.940509L288.331460,403.467590L287.327111,401.838609L286.377671,400.567312L285.451481,399.362173L284.289170,394.893668L283.507996,394.961438L282.829996,396.634445L282.215512,399.773042L281.239071,396.643182L280.658808,401.439255L279.791013,400.339837L278.828271,395.779114L278.202801,402.239442L277.347553,400.883801L276.510771,399.576260L275.690262,398.106741L274.890171,395.326283L274.078936,398.921863L273.230159,401.841979L272.440865,399.989534L271.529294,403.553170L270.738755,402.110541L270.087230,397.658259L269.312672,397.086318L268.519682,396.992931L267.521487,400.350287L266.952493,396.551640L266.212348,395.779672L265.319928,397.045696L264.713133,394.782742L263.577235,398.554863L262.729533,398.905979L261.680573,401.108878L261.017348,399.605280L260.444701,397.496344L259.587338,397.869475L258.013194,403.622505L256.044295,411.660652L254.486198,416.126399L253.235819,418.165109L252.368804,417.604839L252.677085,409.971700L253.604703,399.322604L253.666538,394.304364L253.131816,392.855015L251.868025,395.288556L251.297175,394.065728L249.553197,398.611903L247.979870,402.054476L247.095481,402.133527L246.244536,402.049051L245.852149,399.992126L244.956811,400.137024L243.800396,401.319935L241.610389,406.497890L239.884819,409.608406L238.737224,410.387411L238.722270,406.993751L238.922449,402.993942L237.902790,403.399598L238.683323,397.692565L239.086991,393.484847L238.573173,392.416875L238.305474,390.610876L236.166638,394.638807L236.088136,392.271398L236.043533,389.894249L234.496719,391.943498L234.198188,390.367688L232.513722,392.684045L230.212479,396.570822L229.721877,395.475212L230.613962,390.803247L229.121281,392.401508L228.557688,391.595651L227.487709,392.056102L226.400422,392.530119L226.889758,389.231964L226.273227,388.619266L225.736986,387.833105L225.512735,386.361116L224.296127,387.123247L222.010830,390.170848L220.728379,390.961139L221.539192,387.315495L222.363212,383.751515L220.731260,385.283857L218.611181,387.730972L214.156726,394.679576L215.155299,390.839601L213.737717,391.711232L216.615727,384.487718L217.202681,381.705534L217.658393,379.235667L215.637394,381.263009L212.979612,384.340155L211.772697,384.793684L211.221097,384.100512L210.241661,384.136547L209.223738,384.223074L207.681765,385.152113L206.903190,384.810615L206.253810,384.260842L208.155538,379.717442L205.180514,382.821584L205.662922,380.561694L203.409129,382.459555L201.650593,383.558537L204.587298,377.761487L205.567837,374.926969L204.467207,375.111754L200.979361,378.620773L196.427534,383.490359L196.245691,382.262364L197.477911,379.153791L192.721515,384.052486L188.961564,387.502814L187.708646,387.611947L185.184913,389.320609L184.203907,389.030992L182.409113,389.741867L181.709434,389.078986L183.058153,385.945748L182.506586,385.141748L185.260484,380.458540L188.981426,374.760652L195.430117,366.074306L192.031156,368.724341L190.364007,369.360829L187.149271,371.669487L187.729832,369.781670L190.382599,365.706592L190.632722,364.264542L191.276790,362.434084L190.337397,362.268932L188.083816,363.430909L188.388958,361.978793L187.573680,361.660122L187.482397,360.626629L184.991405,361.922486L182.168400,363.486319L181.629085,362.845700L182.957444,360.471563L183.912574,358.485297L182.550671,358.631031L180.694254,359.198919L179.714395,358.963761L178.390466,359.017811L174.713009,361.074065L168.840624,364.918891L163.124170,368.514994L160.321457,369.594527L159.183820,369.270839L161.236549,366.373351L163.548129,363.327535L166.491529,359.848964L167.961612,357.580538L170.530484,354.517542L174.690873,350.323045L173.223538,350.392212L171.103581,350.918552L161.554446,356.767046L158.979235,357.479133L159.929381,355.679491L163.749622,351.924034L172.025527,345.213755L172.978056,343.594163L169.680051,344.818844L167.495675,345.262323L166.969993,344.604960L167.732037,343.128405L169.810135,340.850060L171.413888,338.909883L166.946558,340.697347L167.187483,339.591896L162.566103,341.368336L165.699231,338.561647L167.158327,336.775810L168.197330,335.259240L166.054242,335.535405L167.849660,333.626797L164.662873,334.439019L161.050660,335.429758L157.698405,336.231033L154.609352,336.848094L153.567177,336.386161L149.934003,337.202368L150.984996,335.674349L160.114035,330.282588L160.670995,329.099451L164.736536,326.298514L162.630113,326.389988L165.267865,324.321174L163.342814,324.313928L164.172050,323.086648L163.680958,322.439746L162.205727,322.201883L162.316503,321.294540L160.806211,321.047160L158.612373,321.051899L157.480394,320.615913L158.040073,319.523438L159.923772,317.949492L162.075503,316.309641L159.958128,316.235810L157.555553,316.234912L157.381696,315.436539L157.681337,314.480135L157.143114,313.807706L156.194439,313.263349L153.312274,313.317757L155.855175,311.664958L152.420264,311.848868L153.224238,310.743174L152.006619,310.231250L154.289703,308.727267L157.285325,307.064381L153.987802,307.116581L153.923014,306.290232L154.636833,305.270010L152.342588,304.998096L153.619643,303.848392L151.914222,303.407203L152.800493,302.364764L153.102538,301.463739L147.487002,301.813548L147.770107,300.889007L147.488872,300.081610L148.168757,299.090064L152.809805,297.384176L152.228255,296.664386L150.151610,296.192462L150.735192,295.260795L148.852020,294.724408L152.594908,293.322436L152.618431,292.503927L150.544674,291.973277L151.372561,291.040079L150.333938,290.349051L148.886263,289.693258L150.484642,288.684822L148.846454,288.033029L146.744290,287.405646L148.146655,286.435729L150.832850,285.377923L155.116724,284.233228L151.849490,283.677589L150.668269,282.946551L147.406843,282.320068L146.155586,281.549361L146.999827,280.670030L150.215035,279.712670L149.448950,278.922067L149.719351,278.096182L150.870316,277.258071L151.836142,276.437325L152.425947,275.631233L151.881660,274.831333L151.313278,274.024131L150.373730,273.204085L148.828557,272.358956L151.199605,271.600967L151.517620,270.803865L154.117572,270.103000L153.600122,269.289024L154.528619,268.545272L152.191301,267.616772L152.612855,266.840976L152.693035,266.045010L153.265829,265.288628L155.631201,264.693703L153.748498,263.734271L153.566634,262.918332L151.454951,261.894243L150.250493,260.943408L149.383408,260.015701L151.555395,259.457865L151.266702,258.601337L150.039521,257.608950L151.041044,256.923742L150.639458,256.036343L150.157272,255.129108L152.624283,254.702845L150.224600,253.468039L150.151042,252.616169L152.501424,252.212257L151.336992,251.160470L154.228389,250.900169L154.244409,250.083645L152.276448,248.842257L153.490700,248.271706L155.079095,247.800232L151.135428,246.055376L150.556582,245.063153L150.673712,244.232488L149.654305,243.111529L150.418395,242.439661L153.089185,242.287113L155.327551,242.049855L157.601389,241.851001L156.532995,240.713823L157.218486,240.078407L158.267491,239.559847L154.158272,237.450089L156.376865,237.289687L154.118724,235.702249L154.600239,234.988997L148.233199,231.953352L148.881512,231.254381L150.266416,230.821603L152.980544,230.885484L156.353640,231.228253L159.652879,231.588969L160.819435,231.176035L159.764251,229.906885L158.784408,228.647498L161.281618,228.781899L160.970922,227.787070L161.317204,227.059840L161.182859,226.126747L165.428820,227.101488L165.399425,226.235077L167.358966,226.263764L169.246785,226.285209L168.858175,225.264802L168.672634,224.329829L166.734610,222.537394L166.912265,221.750536L166.068099,220.449224L164.887724,218.957227L165.094741,218.157406L162.887814,216.086383L159.870785,213.539781L160.295426,212.802136L162.086882,212.817534L166.886295,214.538652L166.934102,213.637080L170.289203,214.636032L172.748728,215.162343L170.404123,212.871283L169.961286,211.678184L168.169776,209.644798L170.147771,209.911641L171.844599,210.029461L172.138521,209.274049L171.194624,207.713815L171.492510,206.944443L169.436442,204.602560L169.934108,203.940471L172.952212,205.007745L173.808134,204.620327L171.351974,201.904828L169.877705,199.834151L171.490401,199.962602L172.663481,199.790317L175.175452,200.629237L175.689762,200.000622L175.419808,198.772177L175.192589,197.561030L178.739999,199.302888L177.010016,196.903177L178.259244,196.862043L177.529614,195.217084L181.126731,197.133866L180.011841,195.157988L180.307325,194.346982L185.754933,197.977318L181.919158,193.601974L183.992635,194.362096L182.184282,191.673273L181.980740,190.388820L180.945030,188.319449L183.306344,189.383360L186.388578,191.173275L186.562777,190.238685L188.162694,190.679031L187.096855,188.523493L185.982770,186.278049L187.292556,186.436150L186.631056,184.596874L187.103500,183.899494L188.565974,184.238425L188.982047,183.487995L191.250036,184.728663L191.374729,183.676066L193.224386,184.518612L192.911140,182.972938L193.900609,182.880129L196.619648,184.789549L196.579219,183.545466L194.808074,180.236589L194.048491,178.064353L196.526321,179.776376L196.214017,178.117259L198.509103,179.676563L199.766609,179.981135L200.655622,179.835610L201.686611,179.883525L202.565806,179.746199L201.327949,176.796059L200.515347,174.352534L200.925168,173.529402L204.191346,176.663630L205.261517,176.806066L206.110789,176.649858L207.520523,177.313246L206.011576,173.723131L204.778417,170.454354L204.481421,168.518842L204.920502,167.668283L206.563945,168.677452L208.013070,169.422660L209.472871,170.219506L211.322211,171.684396L210.890375,169.449229L212.102218,169.906231L212.763895,169.456270L213.738253,169.543227L214.082234,168.543393L214.126946,166.994064L215.193112,167.249354L215.709270,166.518456L216.885856,167.004022L218.076460,167.543493L219.221366,168.024484L219.783817,167.397717L219.100168,164.294439L221.931234,168.175844L222.706112,167.990284L222.792712,166.377923L223.130074,165.252924L224.164027,165.599994L224.526882,164.501409L225.246368,164.170228L225.216123,162.139156L224.737818,159.012777L225.138896,157.850679L225.519065,156.607704L228.248394,161.055803L230.117472,163.547532L230.045387,161.233550L229.163885,156.752855L230.735074,158.559079L232.181680,160.114919L233.054085,160.173489L233.243342,158.337142L231.921119,152.123894L234.020275,155.624236L234.769845,155.271530L235.548237,155.002496L236.376328,154.887487L236.969594,154.031804L237.250701,152.131745L240.768151,160.936788L241.089028,159.270718L241.746126,158.708884L242.581208,158.767737L239.671661,145.068452L239.046952,139.282126L239.707826,138.179387L240.600602,137.952201L241.494841,137.730841L242.390504,137.515315L243.287553,137.305634L244.185949,137.101805L245.085656,136.903838L245.986634,136.711742L246.888846,136.525523L247.792252,136.345190L248.696815,136.170751L249.602496,136.002214L250.509257,135.839584L251.417059,135.682870L252.569897,137.033124L254.800762,145.427126L256.950753,154.042280L257.714208,153.748061L258.107992,150.716204L258.650934,148.537968L259.671633,150.030870L260.304654,148.364686L261.458821,151.270718L262.172231,150.275454L262.973017,150.063053L263.882609,151.044158L264.596621,149.838884L265.386724,149.432424L265.744597,142.787193L266.677382,143.842316L267.647969,145.816865L268.644113,148.823984L269.424256,147.813074L270.268360,148.175230L271.194611,151.372871L272.006274,151.580446L272.831628,152.727160L273.631266,152.930763L274.413311,149.975867L275.223491,152.683689L276.020949,152.687746Z" />
<line x1="50" y1="600" x2="100" y2="600" fill="none" stroke="red" stroke-width="1.0" stroke-linejoin="round" stroke-miterlimit="10" />
<text x="125" y="603" style="text-anchor:start;fill:black">n0_4mer:D</text>
<path style="stroke:black;stroke-width:1.0" d="M277.438088,88.009393L278.655688,88.104258L279.891386,87.469706L281.081732,88.492681L282.282414,88.923548L283.549599,87.788570L284.784314,87.573629L286.057384,86.767799L287.268073,87.093391L288.414969,88.262208L289.557898,89.300851L290.793686,89.100750L292.025865,88.983579L293.313949,88.327143L294.560547,88.164538L295.728459,88.743332L296.951134,88.807940L298.229455,88.433969L299.485949,88.279497L300.646479,88.851797L301.829182,89.233304L302.735329,91.427058L303.863390,92.043994L305.228025,91.187513L306.533341,90.760055L307.981248,89.578712L309.277945,89.318221L310.504250,89.459697L311.630551,90.112065L312.747349,90.783463L313.973472,90.911174L314.943310,92.219527L316.117639,92.557003L317.241191,93.109037L318.562809,92.816838L319.991571,92.121420L321.259565,92.115641L322.583002,91.912941L323.504892,93.241682L324.246385,95.177497L325.279117,95.995857L326.455475,96.291424L327.881263,95.743384L329.323605,95.182443L330.406163,95.827082L331.509026,96.394747L332.506777,97.278422L333.738840,97.431613L335.083446,97.261716L336.412353,97.160911L337.387567,98.083838L338.205161,99.423592L339.408873,99.675114L340.414556,100.461664L341.881408,100.027717L343.147860,100.141331L343.889500,101.588528L345.107755,101.821179L345.920739,103.044713L347.171055,103.199550L348.358441,103.512817L349.220345,104.579284L350.461581,104.769646L351.790877,104.775234L352.940775,105.188609L353.898144,106.017542L354.740772,107.077586L355.632739,108.017576L357.215547,107.536837L358.004151,108.680455L358.696520,109.994451L359.558593,110.954783L360.144902,112.428756L361.778488,111.905747L363.351159,111.529150L364.318807,112.283990L365.170807,113.241045L366.475987,113.386301L367.789325,113.530879L369.759793,112.562694L371.479265,112.065206L372.513738,112.740544L373.595582,113.337058L374.252746,114.621136L375.635304,114.731684L375.730980,116.877879L376.060839,118.619454L377.345540,118.873903L378.022087,120.054593L380.022608,119.257714L381.896718,118.686782L382.763952,119.602771L383.242672,121.065415L384.040766,122.059414L384.647418,123.310560L385.464093,124.260577L386.593621,124.783263L387.081787,126.163139L387.564309,127.533031L387.796604,129.209379L388.821857,129.849499L390.294696,129.929143L391.394899,130.489186L392.990723,130.447272L394.026271,131.104009L395.347378,131.423194L397.138767,131.200862L397.763802,132.360290L398.551474,133.323877L399.282138,134.347874L399.721189,135.692048L400.735973,136.387776L401.958472,136.860706L402.634893,137.929251L403.671678,138.609713L404.998702,138.990603L405.386963,140.352953L406.314578,141.152352L407.325440,141.869458L407.418844,143.501395L407.675185,144.953838L408.681951,145.665133L409.422878,146.634418L410.830059,146.973331L413.034831,146.584331L412.506278,148.738403L412.057460,150.787724L412.883007,151.667265L413.187448,153.007344L415.469138,152.613314L417.676464,152.317262L418.101533,153.565537L417.883822,155.343876L418.574175,156.349650L419.654715,157.035402L420.508390,157.910474L422.717697,157.711103L423.341468,158.784605L423.967417,159.853606L425.172246,160.478553L425.905707,161.467577L426.592500,162.491100L427.363149,163.452285L428.421624,164.206485L429.415632,165.013273L430.160117,166.000792L430.805801,167.057419L430.453345,168.794852L430.437423,170.285584L431.554194,171.010693L432.479846,171.869209L433.831567,172.457371L434.876424,173.253445L435.218668,174.497247L434.807159,176.201359L435.543983,177.186809L436.167563,178.242017L437.440571,178.912947L438.203992,179.892221L438.603753,181.082759L439.277881,182.114480L439.312011,183.503759L440.266783,184.378612L440.447066,185.677771L440.142765,187.227713L439.902864,188.729303L439.794930,190.149620L440.935673,190.926371L441.883064,191.809218L442.433119,192.893505L442.874786,194.030309L443.037662,195.297960L443.100519,196.606556L443.028467,197.969883L443.869048,198.912944L444.670166,199.878881L446.142231,200.557831L447.509146,201.297006L448.251144,202.312034L448.825398,203.400268L448.396070,204.895890L449.453705,205.788134L449.784733,206.972331L450.025984,208.189108L450.317349,209.384226L446.621831,212.039918L446.887489,213.210924L447.239513,214.349497L448.529493,215.164011L453.452550,214.765349L454.589329,215.683070L455.578941,216.659184L454.560718,218.278330L454.221941,219.667800L454.219810,220.945744L453.980795,222.288409L455.377979,223.152511L455.796436,224.305993L456.303988,225.436355L456.297105,226.706337L456.015160,228.043178L456.038668,229.294720L456.296381,230.484949L456.607072,231.662085L457.068443,232.804688L457.851944,233.877405L458.262738,235.038454L458.739549,236.187609L459.000937,237.383853L455.256374,239.372097L453.372693,240.951243L453.480235,242.135275L454.220012,243.205706L459.586970,243.493503L462.675268,244.224229L463.575861,245.337740L463.171860,246.657200L462.696825,247.979035L462.051571,249.315576L461.843164,250.584234L460.856981,251.944500L460.072127,253.266075L460.147765,254.480033L460.750113,255.638322L461.631382,256.775650L461.796033,257.988279L461.230286,259.263333L460.456463,260.545827L460.746275,261.741009L460.217479,262.991928L460.054704,264.213563L459.734064,265.440318L459.879886,266.640975L460.467620,267.825731L461.460080,269.004538L461.982607,270.207834L461.734892,271.432256L460.416622,272.666616L460.540406,273.874840L461.131372,275.084795L462.564508,276.308338L464.352053,277.555464L464.556351,278.794427L463.915223,280.013941L463.053866,281.218232L462.534641,282.425356L461.870318,283.619638L461.897539,284.842391L461.754520,286.056260L462.189927,287.307232L462.679284,288.568857L462.861014,289.813798L463.109214,291.068068L462.963110,292.290702L461.390757,293.372314L461.528107,294.614587L460.998687,295.785843L461.616526,297.087687L463.589821,298.569002L463.357782,299.788259L462.189080,300.877097L459.170747,301.684652L457.744455,302.695619L457.127827,303.818082L457.602158,305.114735L457.611403,306.340551L456.443217,307.359247L455.626042,308.430030L456.054968,309.731770L457.063151,311.157410L457.362368,312.454300L457.799143,313.787762L456.785223,314.812905L456.826652,316.066094L456.615931,317.264840L456.567510,318.503365L457.141837,319.898642L457.329979,321.208042L457.448278,322.506047L456.482498,323.520179L454.595016,324.272365L454.017240,325.371110L453.733080,326.551033L453.429152,327.725848L455.271331,329.550645L454.744661,330.673014L455.081002,332.066526L455.085683,333.362717L454.167324,334.358654L453.634421,335.477398L453.035477,336.571289L452.300202,337.614150L452.582090,339.018906L452.841434,340.425671L452.095082,341.465145L451.190966,342.439577L448.965681,342.891469L448.252179,343.917947L447.660144,344.989673L448.401884,346.610151L448.979976,348.180242L447.315511,348.805998L447.678658,350.297647L447.161218,351.411713L445.884633,352.182599L445.786739,353.482996L443.663237,353.843042L443.303688,355.016146L443.645088,356.530712L444.489956,358.306784L445.352324,360.114072L445.105895,361.381396L444.416896,362.425534L442.282164,362.709677L441.055772,363.451677L439.661913,364.092191L439.811633,365.567227L440.058255,367.108905L439.356335,368.127606L437.965456,368.748342L435.655879,368.819049L434.363277,369.462881L434.311783,370.841433L434.473137,372.360114L433.537420,373.213414L434.047426,374.970101L432.791450,375.621776L432.509956,376.892838L432.908426,378.617163L431.428159,379.111125L430.994749,380.296637L429.613756,380.838300L428.263170,381.387839L428.261471,382.874106L427.188573,383.609593L425.899919,384.181792L425.426812,385.340751L423.380003,385.334454L422.377976,386.088799L422.097605,387.388841L420.996025,388.062264L420.619653,389.297304L420.096398,390.423271L419.700898,391.657116L419.721436,393.238722L418.803040,394.060157L417.554463,394.601450L416.171615,395.018176L415.120927,395.707555L414.293302,396.585649L414.153157,398.070968L414.018158,399.576289L413.425143,400.681682L413.062833,402.004688L411.957509,402.646406L410.649726,403.090294L409.658168,403.825048L408.932108,404.813349L408.020480,405.622470L408.025716,407.342207L407.582701,408.632666L406.726135,409.512087L406.906362,411.464672L405.185396,411.453415L403.924462,411.907926L402.867415,412.571579L401.240973,412.610052L400.408244,413.504315L399.602540,414.430853L399.129126,415.737177L398.364880,416.722629L397.226465,417.277362L395.471650,417.098568L394.261879,417.545395L392.398742,417.191992L391.706093,418.245133L390.871530,419.129638L389.540921,419.392311L389.020888,420.677467L388.030490,421.368277L387.801140,423.056738L387.073823,424.108809L386.456708,425.318351L385.673582,426.314263L384.465277,426.728450L383.763657,427.846340L382.463208,428.122411L382.821532,430.783179L383.769859,434.363709L383.684822,436.490356L382.899228,437.601767L380.529566,436.303615L377.585192,434.057034L374.869189,432.084990L373.909306,432.838701L372.970115,433.629114L371.764830,433.986819L371.484960,435.879424L370.631184,436.838707L369.555146,437.426340L368.506607,438.061047L367.570625,438.895805L366.311721,439.157173L365.311597,439.880582L364.703502,441.335152L363.189202,441.110396L361.693244,440.895159L360.335366,440.923211L358.568725,440.126357L357.802427,441.294385L357.002440,442.414504L356.202208,443.553762L355.470879,444.859143L354.303677,445.255520L353.093093,445.552969L352.169307,446.480299L351.241796,447.414250L349.941745,447.506337L348.570145,447.416341L346.937190,446.681652L345.730743,446.938903L344.561447,447.280467L343.542669,447.997643L342.703183,449.186591L341.561650,449.612611L340.500599,450.253647L339.365210,450.700442L338.036714,450.610391L337.072913,451.536563L335.831095,451.677454L334.701878,452.141379L333.702321,453.001755L332.433097,453.047552L331.222181,453.263219L330.235525,454.199432L329.141722,454.807125L327.746126,454.400674L326.827081,455.617964L325.840480,456.638237L324.638721,456.905537L323.615534,457.841470L322.293957,457.658341L320.946293,457.344545L319.705905,457.433806L318.379420,457.149809L317.244462,457.660179L315.937705,457.419394L314.763467,457.755712L313.607208,458.182332L312.234714,457.560440L310.978389,457.468152L309.699130,457.232167L308.587081,457.872581L307.583591,459.158673L306.558458,460.402435L305.338936,460.542557L304.062758,460.316493L302.824235,460.304227L301.535613,459.924827L300.373468,460.415939L299.319040,461.767529L298.200527,462.728578L297.116989,464.080288L295.919434,464.543544L294.604512,463.917381L293.224881,462.523143L291.814631,460.571186L290.598127,460.602122L289.384833,460.662479L288.204138,461.176306L287.085617,462.743049L285.819474,462.093972L284.580881,461.798465L283.311948,460.720455L282.077058,460.146077L280.908232,461.400325L279.723665,462.659649L278.526657,464.111387L277.289544,463.792843L276.053299,462.853654L274.829319,461.993921L273.609068,462.138849L272.380640,462.725820L271.153457,462.867239L269.916558,463.288060L268.672334,463.750698L267.440374,463.742906L266.164034,464.676162L264.920963,464.739363L263.662546,465.031520L262.420539,465.003462L261.260063,463.845110L260.035076,463.676742L258.859837,462.939924L257.661342,462.544386L256.458694,462.228306L255.267308,461.829930L254.095662,461.287330L252.967128,460.427056L251.852031,459.535207L250.894938,457.521276L250.179529,453.942529L249.385657,451.215994L248.284302,450.736263L247.080343,450.928761L245.446397,453.690823L243.760428,456.525176L242.379555,457.425219L240.867027,458.954096L239.798278,458.052436L238.639755,457.647388L237.754732,455.924829L236.864608,454.320837L235.492611,454.996423L234.068798,455.844599L232.459067,457.424482L231.256030,457.204033L230.644600,454.584689L230.145435,451.650173L229.354432,449.974954L228.072305,450.204981L226.235266,452.426760L224.682715,453.512884L223.485237,453.301141L222.281287,453.105341L221.019681,453.092840L219.548563,453.740095L218.225568,453.875233L217.635651,451.729543L216.539770,451.185674L215.408396,450.753430L214.026502,451.046335L212.650771,451.293305L211.838087,449.954121L210.716071,449.491684L209.799713,448.483746L208.110753,449.514157L206.633125,449.947655L206.303549,447.465734L205.260518,446.817266L204.590861,445.272971L203.787934,444.084457L201.898685,445.454911L201.019030,444.447661L199.900628,443.996001L198.645889,443.844515L198.048332,442.252835L196.832350,442.019329L195.299142,442.443060L194.078446,442.189944L192.377454,442.903899L191.485869,441.959149L191.005332,440.218695L190.050443,439.434320L189.224223,438.412071L187.160650,439.724668L186.005206,439.302379L185.098593,438.422924L184.144785,437.636870L183.555145,436.214640L181.963247,436.557545L180.785736,436.163395L179.558379,435.846760L178.298905,435.574507L177.019377,435.324654L176.061846,434.544326L175.263448,433.514963L174.602060,432.281771L173.741850,431.372020L172.504879,431.042896L171.240180,430.745893L169.842025,430.635831L169.493808,428.977519L169.169849,427.311057L168.359086,426.362346L167.723324,425.175576L167.179150,423.875595L166.129434,423.280322L165.336688,422.336711L166.049991,419.403112L166.447470,416.941970L167.339554,413.889500L167.872860,411.356154L167.118521,410.488562L165.821379,410.297967L164.387614,410.260716L163.954821,408.997638L162.665501,408.768639L159.608262,410.604077L156.465262,412.471504L152.569276,415.132080L149.172311,417.139106L148.031252,416.557697L147.077409,415.763901L146.518048,414.540627L145.994769,413.288635L145.963220,411.526973L144.946157,410.818235L143.863216,410.173816L143.300191,408.994999L141.856008,408.709322L141.280095,407.547993L142.393612,404.741191L143.007387,402.467005L142.142952,401.638249L142.003027,400.126890L139.806772,400.541673L136.650250,401.803122L135.418549,401.267446L133.712369,401.145715L132.367685,400.684731L132.994585,398.496963L136.034505,394.270953L138.684515,390.461656L141.282224,386.772283L143.449547,383.511606L142.424925,382.912068L138.829359,384.370520L136.512363,384.753847L133.416493,385.712221L130.371628,386.581359L129.318952,385.885925L127.429472,385.812065L125.444402,385.785217L126.612859,383.428540L128.860354,380.331647L129.317926,378.565351L128.410376,377.778419L124.925918,378.768671L121.288160,379.809330L119.664011,379.439709L119.153117,378.314228L118.629360,377.200208L117.913826,376.212405L116.877384,375.427391L116.173008,374.427516L115.932449,373.140459L114.398691,372.646866L115.084554,370.807446L115.324588,369.254417L113.913751,368.676443L114.239345,367.089815L111.802279,367.077947L110.866664,366.200228L111.174872,364.636137L110.913133,363.394202L110.991949,361.976956L110.683271,360.772772L110.917073,359.294058L111.430906,357.686695L111.947486,356.095204L111.062889,355.206242L109.056450,354.851260L107.465844,354.275648L105.479015,353.867237L104.615988,352.921520L104.214210,351.762888L103.305679,350.829614L102.792006,349.718563L102.193518,348.643246L101.371086,347.659821L100.207236,346.811319L99.719575,345.679551L100.227339,344.153509L100.234717,342.836153L100.660751,341.366172L99.458752,340.516637L97.896493,339.787379L97.277801,338.703055L95.521551,338.015137L94.523408,337.046880L94.596663,335.709420L95.463377,334.117500L96.926208,332.351689L98.523598,330.569942L96.922398,329.800598L94.557552,329.243059L92.924220,328.442214L92.531590,327.267773L93.097730,325.824714L94.145313,324.263131L94.275057,322.964315L93.276264,321.963326L93.446778,320.658634L91.671431,319.836329L92.222239,318.440674L93.623931,316.860131L93.476866,315.649409L95.451409,313.979704L96.840447,312.463552L95.975206,311.428343L96.072706,310.195238L94.078442,309.363867L92.308833,308.467425L91.675933,307.349491L90.581502,306.304225L91.504144,304.918140L90.176650,303.898847L89.930348,302.702498L90.471456,301.392651L90.043181,300.224500L89.151196,299.113008L87.446952,298.091781L86.021378,297.017519L84.900135,295.892866L85.103716,294.618345L85.315821,293.347368L85.959748,292.041829L86.226403,290.777748L86.838034,289.491949L87.109199,288.239402L86.116120,287.072344L85.504742,285.871415L85.974765,284.608445L87.627175,283.300064L89.625839,282.000901L91.645887,280.727766L91.624939,279.531926L90.961815,278.347879L90.218858,277.156400L88.633550,275.959752L88.343718,274.744289L87.711792,273.522325L86.587883,272.284906L88.659396,271.099484L87.938975,269.864099L89.413286,268.693457L89.733156,267.494758L87.650619,266.186583L88.211408,264.992067L86.483646,263.666444L87.746562,262.516619L88.417934,261.338958L89.258683,260.182443L89.496244,258.983613L88.870179,257.706292L88.750522,256.469636L88.427747,255.208268L88.486210,253.983898L89.458901,252.867546L90.289341,251.744240L91.163692,250.635745L91.660766,249.484238L90.371272,248.076601L91.527065,247.022334L91.207178,245.746175L91.759469,244.607848L92.688359,243.539254L91.666813,242.130690L91.098401,240.789787L91.165767,239.560771L91.756262,238.433931L91.325155,237.101070L92.285309,236.055528L92.323323,234.816771L92.150280,233.527082L93.179319,232.512215L94.444729,231.564552L96.175873,230.745695L96.771088,229.657817L96.586681,228.370338L97.232567,227.298851L97.077273,226.011451L96.798887,224.682636L96.842518,223.438480L95.432538,221.759201L96.393550,220.774832L94.888475,219.032812L96.329454,218.200605L98.165922,217.512341L97.642845,216.061032L99.913068,215.545115L99.572121,214.150863L98.464181,212.474181L98.663959,211.248044L99.611146,210.294463L100.294142,209.249235L100.726528,208.111606L100.374670,206.667038L101.102578,205.641144L101.211025,204.367651L102.356706,203.518269L103.160470,202.535082L102.809485,201.061132L103.398296,199.985144L103.022944,198.481716L103.309090,197.264136L103.933099,196.198724L104.959913,195.323798L105.844129,194.388985L105.957021,193.086147L106.775029,192.123903L107.017117,190.877751L108.059364,190.033850L110.537910,189.940815L111.748895,189.213490L113.436570,188.751485L114.090236,187.747650L112.888486,185.723449L113.223028,184.528086L112.979230,182.999955L113.257562,181.758275L114.365237,180.996202L114.702067,179.784918L114.576787,178.290045L116.138503,177.813784L116.456858,176.582321L116.371979,175.091048L117.627197,174.442655L117.929466,173.187576L118.857737,172.337394L121.537764,172.660246L122.912422,172.138153L122.369746,170.314383L122.778397,169.128777L121.367272,166.654370L120.866763,164.789739L121.659427,163.838545L122.810517,163.152119L124.124424,162.595466L125.808219,162.329936L127.429461,162.035959L128.435770,161.283164L128.993569,160.183201L129.041338,158.672724L129.880660,157.786435L130.135217,156.423114L130.892134,155.465200L131.703235,154.552335L132.206042,153.377461L133.560406,152.930991L134.575711,152.200726L135.192169,151.121999L136.356286,150.530491L136.791565,149.284329L137.678479,148.445231L139.009059,148.021887L139.031532,146.373338L139.611286,145.238740L140.621606,144.515570L141.555386,143.721145L142.839139,143.277531L143.489611,142.205498L144.349445,141.341975L144.329556,139.566352L145.025645,138.518133L145.866851,137.618987L147.054367,137.091603L148.724497,137.099392L150.078902,136.779890L151.440408,136.481495L152.197435,135.509969L152.920887,134.495249L152.724653,132.402148L153.309687,131.197627L153.889218,129.975500L155.242786,129.681009L156.823768,129.679260L158.000624,129.194642L159.046839,128.552558L159.719329,127.435181L160.607535,126.587708L161.554865,125.815207L162.454891,124.978748L163.390752,124.187885L164.324773,123.392753L165.125621,122.410635L166.723616,122.543513L166.866385,120.622323L167.690437,119.653170L168.677377,118.915519L168.533163,116.492549L169.706900,116.010249L171.114774,115.892415L172.546759,115.828205L174.383704,116.419798L175.446249,115.809581L176.794528,115.664104L178.185889,115.604215L179.220736,114.965678L180.583645,114.883068L180.844602,112.919665L181.158226,111.007170L181.842694,109.712711L182.843422,108.966769L184.215656,108.896027L185.721136,109.089302L186.845682,108.588089L188.019208,108.183166L189.114356,107.630747L190.105946,106.873485L191.209443,106.334772L192.371245,105.915623L193.572858,105.583321L194.876786,105.474244L196.073302,105.148204L197.442068,105.205809L198.269123,104.076487L198.885617,102.447478L199.554908,100.899587L200.334188,99.571690L201.889280,100.069069L203.752644,101.354141L205.395303,102.157346L206.463935,101.556072L207.731742,101.462619L208.877907,101.062797L210.170503,101.057117L211.859285,102.152942L213.021237,101.839121L214.271454,101.780849L215.134179,100.608199L216.141027,99.830534L217.338990,99.616782L218.188976,98.328172L219.195802,97.496420L220.218408,96.694207L221.123333,95.478714L222.147253,94.627391L223.530574,95.007829L226.082211,99.613288L230.214873,110.288015L234.222144,121.069130L238.005622,131.580286L240.365825,137.016845L241.147591,136.308173L242.043881,136.053922L242.986940,136.000386L244.019263,136.355856L244.929130,136.181254L245.839957,136.012623L246.634807,135.274138L247.539156,135.055373L248.473078,134.989859L249.381969,134.795292L250.359442,134.988308L249.593146,124.908035L248.873057,114.293979L248.174824,102.923455L247.732677,92.266988L248.651136,90.174751L249.715269,88.966329L250.896629,88.557467L252.095944,88.267789L253.195697,87.104136L254.408940,86.854126L255.569519,86.077207L256.726179,85.170568L257.998814,85.441462L259.314774,86.293961L260.742952,88.775981L262.069995,90.295752L263.289524,90.452431L264.450344,89.631123L265.636471,89.116796L266.879231,89.759115L268.095038,89.922486L269.308754,90.106323L270.506440,89.748203L271.690377,88.372887L272.931657,90.536727L274.132816,90.202085L275.338160,89.925290L276.551251,89.156262Z" />
<line x1="50" y1="550" x2="100" y2="550" fill="none" stroke="black" stroke-width="1.0" stroke-linejoin="round" stroke-miterlimit="10" />
<text x="125" y="553" style="text-anchor:start;fill:black">GC-content</text>
</g>
<g style="fill:pink;stroke:black">
<a href="" title="CP014750:1 [774000-796099];"><path  d="M408.349541,462.397705L405.058690,464.696434L401.728223,466.937379L398.359152,469.119859L394.952505,471.243208L384.521853,454.178581L384.521853,454.178581L387.632269,452.239871L390.708377,450.247172L393.749239,448.201092L396.753929,446.102253Z" />
</a><a href="" title="CP014750:2 [999500-1023599];"><path  d="M248.233704,503.437224L244.251001,502.935296L240.277665,502.363936L236.314906,501.723319L232.363930,501.013640L236.071415,481.360280L236.071415,481.360280L239.678827,482.008248L243.296999,482.593159L246.924827,483.114835L250.561208,483.573118Z" />
</a><a href="" title="CP014750:3 [1156000-1192099];"><path  d="M140.090633,461.277918L136.860183,458.895054L133.671811,456.456173L130.526489,453.962020L127.425175,451.413353L124.368814,448.810948L121.358336,446.155599L134.718481,431.272504L134.718481,431.272504L137.467178,433.696953L140.257768,436.073061L143.089403,438.400105L145.961218,440.677376L148.872341,442.904180L151.821882,445.079838Z" />
</a><a href="" title="CP014750:4 [1222000-1253599];"><path  d="M103.431702,428.180675L100.784461,425.163065L98.190288,422.099714L95.649973,418.991555L93.164290,415.839535L90.733996,412.644614L106.757126,400.675517L106.757126,400.675517L108.976091,403.592619L111.245628,406.470550L113.565046,409.308434L115.933639,412.105407L118.350684,414.860616Z" />
</a></g>
<text x="275" y="280" style="text-anchor:middle" font-size="25" font-weight="bold">CP014750</text>
<path  style="fill:pink;stroke:black" d="M350,550L375,550L375,565L350,565Z" />
<text x="405" y="565" style="text-anchor:start;fill:black">Selected loci;</text>
</svg>