<svg xmlns="http://www.w3.org/2000/svg" viewbox="0 0 550 650">
<circle cx="275" cy="275" r="240" fill="none" stroke="black" stroke-width="1.0" />
<line x1="275" y1="15" x2="275" y2="55" fill="none" stroke="grey" stroke-width="1.0" stroke-linejoin="round" stroke-miterlimit="10" />
<line x1="495" y1="275" x2="535" y2="275" fill="none" stroke="grey" stroke-width="1.0" stroke-linejoin="round" stroke-miterlimit="10" />
<line x1="275" y1="495" x2="275" y2="535" fill="none" stroke="grey" stroke-width="1.0" stroke-linejoin="round" stroke-miterlimit="10" />
<line x1="15" y1="275" x2="55" y2="275" fill="none" stroke="grey" stroke-width="1.0" stroke-linejoin="round" stroke-miterlimit="10" />
<text x="275" y="10" style="text-anchor:middle" font-size="15">Thermococcus celer Vu 13 = JCM 8558, complete genome.</text><text x="285" y="25" style="text-anchor:start">1,866,819</text><text x="525" y="265" style="text-anchor:start">0.46 Mbp</text><text x="285" y="530" style="text-anchor:start">0.93 Mbp</text><text x="-200" y="25" style="text-anchor:end" transform="rotate(-90)">1.4 Mbp</text><circle cx="354.260753" cy="48.465824" r="2.500000" fill="grey" stroke="black" stroke-width="1.0" />
<circle cx="424.627245" cy="87.352224" r="2.500000" fill="grey" stroke="black" stroke-width="1.0" />
<circle cx="478.203286" cy="147.295557" r="2.500000" fill="grey" stroke="black" stroke-width="1.0" />
<circle cx="508.976830" cy="221.569269" r="2.500000" fill="grey" stroke="black" stroke-width="1.0" />
<circle cx="513.494618" cy="301.838721" r="2.500000" fill="grey" stroke="black" stroke-width="1.0" />
<circle cx="491.249686" cy="379.096461" r="2.500000" fill="grey" stroke="black" stroke-width="1.0" />
<circle cx="444.738253" cy="444.672996" r="2.500000" fill="grey" stroke="black" stroke-width="1.0" />
<circle cx="379.179608" cy="491.209642" r="2.500000" fill="grey" stroke="black" stroke-width="1.0" />
<circle cx="301.930428" cy="513.484280" r="2.500000" fill="grey" stroke="black" stroke-width="1.0" />
<circle cx="221.659245" cy="508.997359" r="3.000000" fill="black" stroke="black" stroke-width="1.0" />
<circle cx="147.373705" cy="478.252377" r="2.500000" fill="grey" stroke="black" stroke-width="1.0" />
<circle cx="87.409775" cy="424.699390" r="2.500000" fill="grey" stroke="black" stroke-width="1.0" />
<circle cx="48.496319" cy="354.347857" r="2.500000" fill="grey" stroke="black" stroke-width="1.0" />
<circle cx="35.000018" cy="275.092288" r="2.500000" fill="grey" stroke="black" stroke-width="1.0" />
<circle cx="48.435362" cy="195.826363" r="2.500000" fill="grey" stroke="black" stroke-width="1.0" />
<circle cx="87.294702" cy="125.444923" r="2.500000" fill="grey" stroke="black" stroke-width="1.0" />
<circle cx="147.217428" cy="71.845836" r="2.500000" fill="grey" stroke="black" stroke-width="1.0" />
<circle cx="221.479301" cy="41.043733" r="2.500000" fill="grey" stroke="black" stroke-width="1.0" />

<circle cx="275" cy="275" r="185" fill="white" stroke="grey" stroke-width="0.5" />
<circle cx="275" cy="275" r="170" fill="none" stroke="black" stroke-width="0.5" />
<circle cx="275" cy="275" r="170" fill="aliceblue" stroke="black" stroke-width="0.5" />
<circle cx="275" cy="275" r="158" fill="white" stroke="none" stroke-width="0.5" />
<circle cx="275" cy="275" r="140" fill="none" stroke="black" stroke-width="0.5" />
<circle cx="275" cy="275" r="140" fill="aliceblue" stroke="black" stroke-width="0.5" />
<circle cx="275" cy="275" r="133" fill="white" stroke="none" stroke-width="0.5" />
<circle cx="275" cy="275" r="110" fill="none" stroke="black" stroke-width="0.5" />
<circle cx="275" cy="275" r="110" fill="white" stroke="black" stroke-width="0.5" />
<circle cx="275" cy="275" r="109" fill="aliceblue" stroke="none" stroke-width="0.5" />
<circle cx="275" cy="275" r="80" fill="none" stroke="black" stroke-width="0.5" />

<g style="fill:none;stroke-linejoin:round;stroke-miterlimit:10">
<path style="stroke:blue;stroke-width:1.0" d="M277.591663,82.483058L279.020731,75.908271L280.121266,84.834440L280.644448,107.350782L281.343147,118.025993L282.231400,121.640524L283.375510,119.615706L284.346207,120.913164L285.306195,122.122023L286.343745,122.077539L287.339663,122.567543L288.424342,121.982941L289.604644,120.483543L290.581796,121.203495L291.539017,122.030422L292.586854,121.984124L293.654657,121.792309L294.699298,121.814318L295.835756,121.169624L296.794006,121.852822L297.749284,122.506542L298.571352,123.969651L299.600251,124.053263L300.620966,124.191718L301.640626,124.338803L302.833492,123.545833L303.663180,124.728418L304.684196,124.873534L305.795096,124.583357L306.696119,125.317262L307.778135,125.190490L308.790490,125.393842L309.842427,125.428740L310.861153,125.613788L312.015438,125.253677L312.937701,125.840030L314.280199,124.801357L315.948697,122.619305L317.363462,121.485280L317.911085,123.485642L318.673447,124.661120L319.487573,125.619567L320.548488,125.737641L322.789590,122.088360L322.621848,126.151665L323.236452,127.655519L324.928081,125.890356L325.229775,128.277138L325.581414,130.433106L326.411999,131.172451L327.751938,130.500199L329.508925,128.751052L330.140701,130.045175L330.711134,131.460702L331.400835,132.534246L332.372915,132.881544L333.272013,133.407656L334.102254,134.092908L335.380492,133.719275L336.148685,134.545707L337.079106,134.991278L338.401490,134.567678L340.414801,132.670747L341.491028,132.858551L341.672284,134.935457L342.605404,135.404356L343.810063,135.321585L345.111736,135.063418L347.178169,133.328311L348.197022,133.688336L349.056144,134.356021L349.993397,134.872277L349.717545,137.618678L349.437106,140.302555L349.858585,141.667905L350.992644,141.757095L352.322802,141.520779L353.571744,141.445642L354.347523,142.180852L354.297228,144.271860L355.530535,144.231943L356.246638,145.036641L357.022029,145.740299L358.204173,145.807945L359.279986,146.052626L360.483628,146.113925L362.185169,145.450196L361.804393,147.871922L362.188875,149.136584L363.293964,149.356596L364.506653,149.436226L365.109950,150.373358L365.619260,151.429412L366.163464,152.426133L367.068413,152.933953L368.262553,153.066769L368.990639,153.814107L369.492818,154.845558L370.525955,155.200328L371.110344,156.118021L371.803732,156.895378L372.639689,157.497757L374.150384,157.300654L374.689070,158.265064L375.592664,158.800061L375.818627,160.111075L376.912773,160.429131L377.314109,161.525411L378.082291,162.209412L378.980427,162.753391L380.000478,163.171684L380.644133,163.993159L381.632192,164.454657L383.104649,164.427512L383.841263,165.163001L388.928848,161.566357L400.248631,151.963518L395.377889,158.330057L387.079489,167.826532L386.097253,170.188289L387.940370,169.877313L388.536531,170.739943L388.877984,171.830707L389.105050,173.015054L390.993124,172.723689L393.893739,171.580272L397.618699,169.781626L399.005164,170.032974L395.406577,174.462472L394.874154,176.268914L395.665116,176.973205L399.126478,175.540706L398.165135,177.665101L396.714842,180.135227L398.069545,180.404120L400.520733,179.857272L401.751650,180.260886L399.699904,183.096268L399.934229,184.214967L400.828427,184.853164L401.929675,185.350978L402.831983,185.997349L403.529856,186.790083L403.928677,187.787171L403.353934,189.429615L403.344709,190.678138L403.412273,191.865829L403.947448,192.745834L405.202193,193.173269L405.592219,194.149278L405.913323,195.164447L407.778615,195.248122L412.374590,193.740895L422.577043,189.041682L430.701755,185.707547L438.827740,182.507299L445.347153,180.333089L446.593939,181.146402L443.459771,184.328471L438.508672,188.407746L428.250379,195.156664L417.126861,202.164185L413.275951,205.308887L412.788138,206.713944L413.045895,207.739849L413.385771,208.723175L414.144303,209.507689L416.173580,209.709732L416.483840,210.718767L416.948257,211.657022L415.956002,213.234194L415.606167,214.512405L416.374403,215.306447L416.333881,216.441392L416.643553,217.427140L417.147236,218.334325L417.575247,219.272994L418.873812,219.878957L418.911793,220.972490L419.481334,221.865532L419.328861,223.021838L419.971048,223.890344L419.853673,225.025413L419.766910,226.143314L420.021838,227.142222L421.635521,227.701852L422.537039,228.505167L422.241848,229.685487L422.436974,230.709668L425.105071,231.007565L429.379445,230.881093L438.762492,229.389701L442.678861,229.512951L430.291279,233.993620L424.445881,236.611400L423.216335,237.988958L423.677539,238.935241L424.075035,239.899639L424.983922,240.749546L424.593351,241.896617L425.410337,242.776321L425.216492,243.873926L425.289432,244.912458L426.273180,245.773202L426.400305,246.804468L426.682085,247.807135L426.000919,248.977124L426.532683,249.934608L427.185977,250.877850L433.319510,250.997002L432.207083,252.247124L428.892417,253.783465L428.272640,254.919308L427.303893,256.088144L427.433630,257.113098L427.360653,258.160584L428.030565,259.128482L427.294433,260.240310L427.481882,261.257546L427.726303,262.271323L428.091582,263.277997L428.441625,264.289613L428.068240,265.350594L431.514106,266.190686L430.964565,267.274425L429.944097,268.370195L427.785777,269.492616L427.854658,270.520166L427.691791,271.553470L427.758638,272.580629L427.761247,273.609054L427.805670,274.637289L427.656484,275.665245L427.875172,276.695332L428.173747,277.729942L428.129567,278.760403L427.860898,279.783585L428.073024,280.821866L428.002054,281.850860L427.572712,282.861054L427.798453,283.904341L428.031893,284.951989L428.374019,286.011501L430.087312,287.184372L429.979563,288.226152L431.191077,289.389216L428.599178,290.193817L427.915125,291.166270L428.843830,292.312379L428.335519,293.301224L429.059405,294.440299L429.627869,295.570388L428.963876,296.537757L427.121292,297.325033L426.308775,298.247296L426.194749,299.272654L426.032486,300.290616L427.300845,301.558160L429.469177,303.008966L430.565144,304.290635L432.485532,305.751312L430.780002,306.508337L427.947348,307.008550L426.184190,307.703333L424.473169,308.388016L424.029334,309.343712L423.793169,310.345726L423.682323,311.378427L423.292299,312.342738L423.427607,313.441120L423.465904,314.519339L422.711639,315.385256L422.322595,316.346692L422.100579,317.354613L421.833725,318.350217L421.260439,319.253469L421.586924,320.431540L421.585498,321.514887L421.473119,322.566822L420.559826,323.355782L419.696072,324.152783L419.280923,325.097548L418.913535,326.058081L418.902174,327.147274L419.309854,328.396690L419.765584,329.675997L419.914173,330.849604L418.589183,331.451987L417.391097,332.090561L416.443667,332.818880L416.032844,333.762008L415.790939,334.776614L415.606677,335.818703L415.814143,337.036969L415.912774,338.216459L416.694754,339.716533L416.205326,340.645351L415.524676,341.482924L415.343054,342.556872L414.442366,343.283231L415.861468,345.157627L415.916253,346.372789L416.927352,348.089486L417.335456,349.516104L416.227133,350.151388L415.267929,350.856909L411.974005,350.271620L409.909327,350.323797L408.644092,350.801905L407.721387,351.463917L407.485995,352.520778L406.873974,353.359023L406.002591,354.039245L405.735539,355.083424L405.091683,355.898322L404.291875,356.612926L403.802193,357.521507L404.037309,358.902615L405.185860,360.901766L403.630254,361.123734L402.183771,361.400806L401.392496,362.112442L400.962306,363.072480L400.352322,363.908257L399.253809,364.392336L399.278522,365.685883L398.296004,366.247118L397.264065,366.763586L396.581636,367.537353L396.022578,368.405071L395.505329,369.307007L394.726766,370.004141L393.997012,370.737492L393.359153,371.543910L392.819373,372.431704L392.208105,373.262198L391.833497,374.294976L391.070167,374.999665L390.021727,375.453240L389.378867,376.257032L388.700877,377.030232L388.097338,377.871364L387.665188,378.872699L387.183568,379.834457L387.685134,381.733120L387.848086,383.337865L385.811163,382.825101L384.448772,382.943225L383.600000,383.557883L382.640286,384.056961L382.083224,384.963367L381.086029,385.416738L380.251693,386.034795L379.398512,386.630230L378.850745,387.553737L378.115986,388.277970L377.304861,388.917993L376.696171,389.785170L375.694701,390.207976L375.217574,391.231890L374.401087,391.866454L373.711968,392.651869L373.052332,393.476260L371.800898,393.580271L370.850930,394.043433L370.251012,394.942300L370.194996,396.542830L369.168063,396.913367L367.814822,396.848091L367.083457,397.591178L366.003230,397.866755L365.227036,398.549029L364.530688,399.344344L363.679183,399.926629L362.847406,400.536682L361.978337,401.093216L360.981064,401.460343L360.351974,402.370691L359.472497,402.911811L358.998328,404.074925L357.677272,403.935183L357.190392,405.094875L356.851929,406.511383L356.013532,407.138831L354.612817,406.837608L353.134661,406.380309L352.200913,406.821999L351.453927,407.585121L351.142582,409.123469L349.865989,408.967252L348.849417,409.262563L347.712055,409.328187L346.864612,409.924279L345.872289,410.247594L344.997210,410.793241L344.283329,411.659351L343.442198,412.283787L342.756298,413.230526L341.455854,412.918876L340.603097,413.525965L339.535792,413.677882L338.954039,414.881690L338.098022,415.502813L336.923027,415.407869L336.609785,417.284084L336.364483,419.375117L334.782790,418.326166L333.173397,417.153472L332.291793,417.732683L331.375287,418.230907L330.230828,418.143125L329.174224,418.268884L328.110845,418.366431L327.112880,418.633302L326.203167,419.145016L325.462132,420.149200L324.449575,420.384574L323.422448,420.571744L322.502998,421.083668L321.801756,422.291322L320.616181,421.981026L319.905160,423.206894L318.943586,423.631227L318.626844,426.298375L319.383890,432.908981L320.346970,440.606876L317.344743,433.832471L315.409145,430.777493L314.596638,431.985615L314.407038,435.790366L313.344804,436.140236L311.213492,431.864870L309.346732,428.485339L307.755575,426.141964L306.488797,425.173236L305.447958,425.237461L304.427456,425.395542L303.409220,425.562663L302.409942,425.832263L301.432735,426.234911L300.420077,426.444930L299.316883,426.095737L298.326445,426.432555L297.305046,426.575814L296.373989,427.362396L295.284289,427.026107L294.228829,426.909134L293.197303,426.963879L292.198875,427.303533L291.200753,427.674833L290.155797,427.610504L289.159649,428.049271L288.113770,427.962373L287.024671,427.297974L286.016045,427.608513L285.042516,428.504419L283.943768,427.456736L282.942385,427.996314L282.029860,430.648601L281.026810,431.859429L279.961507,431.603361L278.926366,432.400039L277.806808,429.130932L276.752661,427.702763L275.727333,428.261507L274.692743,429.729049L273.650385,429.817967L272.615164,429.359571L271.601013,428.219910L270.571274,428.139415L269.529160,428.425117L268.498288,428.343131L267.457772,428.467850L266.376372,429.281655L265.350815,429.016184L264.318547,428.886425L263.390746,427.395608L262.368793,427.270393L261.248307,428.249312L260.117850,429.180884L259.103201,428.855919L258.117892,428.291473L257.067960,428.332129L256.090077,427.772909L254.866150,429.142575L253.497308,431.416472L252.472381,431.077758L251.603533,429.723879L251.059441,426.420169L250.093874,425.933446L249.086916,425.713118L248.035930,425.742488L247.049745,425.407379L246.079306,425.001216L245.042192,424.943551L244.047108,424.672905L243.008206,424.611264L241.943320,424.657461L241.031514,424.015470L239.968536,424.041549L238.678770,424.988787L237.601084,425.017178L236.862676,423.707022L236.031234,422.807068L234.891993,423.077398L234.039681,422.287891L232.995360,422.197359L231.928256,422.175113L230.614794,422.961073L229.823547,421.996045L228.949828,421.324015L227.959515,421.030564L227.123327,420.268420L226.117077,420.030308L225.156528,419.655606L224.272507,419.065242L222.964647,419.663663L221.914565,419.521034L220.594461,420.089753L219.961641,418.824963L219.364539,417.504037L218.337689,417.299242L217.191112,417.382544L215.305903,419.232624L212.957352,422.097050L211.329934,423.162258L211.843119,419.282802L211.709624,416.978347L211.706261,414.453966L210.849626,413.850191L209.583114,414.124088L209.002813,412.939210L207.913935,412.824345L207.048882,412.246080L204.645144,414.727730L202.563230,416.483382L201.464342,416.277205L201.542843,413.836381L201.309407,412.038023L200.628157,411.100528L199.480858,411.016180L198.918488,409.881597L198.051467,409.298002L197.390473,408.362388L196.366406,408.053722L195.575726,407.349469L195.456497,405.548316L194.450475,405.218551L192.198662,406.866491L191.328561,406.281554L191.612189,403.913641L191.154512,402.727564L189.716568,403.031086L188.297254,403.281804L188.089231,401.742228L187.587036,400.652672L186.623239,400.231403L185.797805,399.611952L185.009820,398.941457L184.282801,398.189979L183.423438,397.619624L181.964088,397.840185L180.581464,397.937487L180.179466,396.755459L179.157205,396.373816L178.700177,395.278999L177.970606,394.532088L175.994242,395.302709L176.619452,392.916257L175.597068,392.524310L174.433488,392.289572L174.674156,390.427328L173.289735,390.441400L172.358874,389.928905L171.520035,389.309987L170.824537,388.532778L169.336925,388.609278L169.042130,387.399462L168.933658,386.007857L168.677870,384.786389L167.225716,384.797185L165.683321,384.879123L164.336406,384.745476L162.612593,384.964359L160.999572,385.050370L160.804544,383.763154L162.113618,381.076365L162.879869,378.944106L162.259757,378.116567L161.367686,377.536261L160.722803,376.730976L160.056931,375.945087L159.251167,375.280721L158.605824,374.476170L157.877170,373.742422L157.480720,372.730934L156.796024,371.961846L155.521909,371.668932L153.767586,371.745346L153.606873,370.543189L153.530286,369.286252L152.796921,368.544107L152.062609,367.800462L151.756395,366.735850L150.736248,366.201731L150.921599,364.786863L150.514148,363.811114L149.360181,363.364268L148.980599,362.369289L148.663178,361.335989L147.392170,360.950185L145.691506,360.836039L146.331222,359.169146L146.167276,358.043471L144.518635,357.868249L144.516207,356.642399L144.688270,355.319250L144.358442,354.314046L143.359733,353.712551L142.994829,352.729280L141.273392,352.535405L134.737024,355.068535L125.386104,359.076260L113.397313,364.387448L115.066254,362.063531L129.763963,352.799747L136.429417,348.033064L139.300910,345.356579L137.834733,344.949290L138.284157,343.564422L137.661643,342.723491L136.682556,342.052628L134.096521,342.138680L134.670186,340.709937L134.398868,339.686625L134.324044,338.577186L135.107778,337.092394L134.514061,336.227296L134.327011,335.185302L133.485843,334.421444L127.559513,335.745693L112.790322,340.556885L104.830981,342.444660L109.369916,339.359048L124.797099,332.203770L129.454421,329.311079L129.256013,328.270225L129.511429,327.069395L130.780581,325.522638L130.160573,324.647768L129.901131,323.647710L129.421076,322.720988L129.178595,321.715788L129.237377,320.617374L128.707277,319.704320L127.156965,319.092157L125.565370,318.473626L121.955420,318.408601L126.757313,315.970497L127.053175,314.818739L126.125683,313.995564L125.506191,313.084356L125.663102,311.975706L125.539291,310.940359L125.891624,309.795582L126.001902,308.713902L125.824635,307.700025L125.491059,306.719917L125.234020,305.722418L124.106070,304.896770L124.116157,303.840626L124.286495,302.757817L121.558451,302.193646L123.584377,300.784581L123.766681,299.707181L122.411385,298.875185L121.873069,297.904510L122.491747,296.763441L122.854122,295.667700L121.530467,294.796319L120.896526,293.824393L118.605429,293.036654L117.985451,292.037978L118.445033,290.922621L120.166246,289.695233L121.712049,288.508028L122.253727,287.424707L121.572177,286.441076L120.033247,285.507395L119.925311,284.466502L120.504058,283.387730L121.101314,282.316656L122.205960,281.233605L121.123153,280.240514L120.127732,279.230917L117.605426,278.239720L114.747734,277.219489L116.585854,276.127556L117.387324,275.060873L119.582042,274.013826L121.983522,272.998942L121.535371,271.959761L121.533083,270.926105L121.780406,269.900355L121.345239,268.850161L121.087455,267.801836L121.040716,266.760674L121.477031,265.747245L121.766097,264.729000L122.178687,263.722845L122.085640,262.680511L122.050984,261.640892L121.564166,260.557021L122.579724,259.616845L122.506929,258.571825L122.444801,257.525528L121.756257,256.400752L122.648436,255.467518L122.894037,254.457369L123.522157,253.502978L123.943398,252.524444L124.019969,251.495969L124.239761,250.489652L124.054796,249.415487L123.904079,248.342418L123.623442,247.240942L124.029672,246.263700L124.256426,245.254012L124.853277,244.320317L125.141721,243.326913L125.595173,242.370605L125.757376,241.351930L125.679897,240.276609L125.638166,239.205438L126.345286,238.315044L126.671930,237.334607L126.631773,236.259442L126.826577,235.242993L124.885569,233.636984L118.302537,230.686065L123.875345,231.161295L122.744368,229.719885L126.322458,229.692461L126.931246,228.786451L127.714540,227.940596L128.508192,227.105050L129.612239,226.380326L130.336877,225.537504L130.690407,224.570888L130.787087,223.512782L130.952057,222.475784L131.331423,221.515724L131.715370,220.557701L132.406993,219.719227L132.527392,218.659813L131.739589,217.230136L130.049021,215.410916L131.515154,214.881400L132.901349,214.334555L133.770110,213.578239L135.042968,213.008201L135.687865,212.168724L136.055861,211.205707L136.373747,210.218272L136.513284,209.144086L137.031680,208.248185L137.349556,207.254744L137.397762,206.124012L137.991674,205.264044L138.178874,204.195715L138.460142,203.171931L138.128526,201.816970L138.075428,200.599080L137.269067,198.955636L138.712324,198.550932L140.925667,198.601477L142.591035,198.365170L142.241154,196.964970L142.801771,196.092382L144.037389,195.629419L144.947157,194.978873L144.674629,193.596733L144.974139,192.561917L146.199012,192.117742L146.920542,191.357556L146.336368,189.735129L146.329963,188.478769L147.415862,187.956119L149.247307,187.959368L150.008121,187.235664L150.308543,186.187461L150.988811,185.407642L150.375182,183.681304L151.023027,182.867007L152.141283,182.407814L152.027498,181.017473L151.996244,179.675173L153.279242,179.351117L155.189983,179.541137L156.201799,179.032902L155.790280,177.367094L155.857235,176.074526L156.366751,175.140859L157.336336,174.596033L159.449122,175.046925L159.645019,173.850884L160.165466,172.931763L160.793301,172.105376L161.779738,171.604892L162.720844,171.069619L163.289288,170.190744L164.162626,169.598341L164.619104,168.608342L165.725209,168.246239L166.461017,167.527674L167.155575,166.768040L167.856262,166.013722L168.443858,165.141905L169.347083,164.595692L170.055827,163.848001L170.328714,162.631273L170.235842,161.002537L170.839216,160.116426L172.489101,160.395217L173.641614,160.136977L174.250396,159.265802L175.319210,158.925001L176.130528,158.289356L176.573405,157.213628L176.695960,155.737826L177.881550,155.546888L179.158101,155.482288L180.131523,155.050658L181.059783,154.566937L181.777912,153.814236L182.657702,153.271107L183.419292,152.572188L183.874884,151.456064L184.658269,150.776299L185.796581,150.589487L186.726739,150.120131L187.019816,148.740121L188.149294,148.554880L188.953305,147.900584L189.412917,146.727915L189.668363,145.227099L191.286683,145.802086L192.547544,145.851257L193.701001,145.747878L194.540088,145.150616L195.333375,144.476620L196.090942,143.738971L197.059994,143.352148L197.731259,142.458821L198.205802,141.211041L198.411235,139.463880L199.731339,139.681353L200.801225,139.465087L202.083937,139.653067L203.123785,139.405127L204.344200,139.511242L205.199573,138.925133L206.174187,138.571470L206.870089,137.659694L207.592743,136.787184L208.689452,136.680371L209.328355,135.613812L210.475908,135.623777L211.651381,135.711105L212.695077,135.522118L213.564238,134.943723L214.499872,134.513541L214.809668,132.601885L215.244292,130.933546L213.747119,124.468644L211.903971,116.898834L213.666874,118.259514L217.318595,124.616397L220.680768,130.480071L221.959818,130.946063L223.155867,131.216759L224.087112,130.763976L225.102716,130.550583L226.015897,130.039548L226.589143,128.491518L227.837896,128.978461L228.928383,129.001767L229.873200,128.568409L230.979067,128.664068L231.873015,128.057282L232.856314,127.746527L233.948534,127.824852L234.687907,126.623400L235.146528,124.309552L236.736382,126.278022L237.953483,126.883932L238.871280,126.308385L239.805119,125.780758L240.942869,126.126429L241.893137,125.663154L242.919355,125.537905L243.953367,125.456355L244.919106,125.043373L245.903092,124.709418L246.963010,124.771982L247.945456,124.422849L248.726316,122.893237L249.352358,120.316783L250.028376,117.845574L251.231419,118.632399L252.694725,121.302467L254.053098,123.493975L255.055468,123.219808L255.996042,122.434146L256.827740,120.647330L257.755918,119.525544L258.942533,120.754597L260.031014,121.162140L261.108565,121.525238L262.221975,122.390622L263.245694,122.258134L264.278281,122.241691L265.299796,122.062567L266.323889,121.901803L267.385127,122.457426L268.397730,122.076247L269.418736,121.801097L270.442877,121.523620L271.472653,121.346754L272.515756,121.864282L273.534446,120.567360L274.557299,114.497035L275.711317,95.973553L276.999732,88.197759Z" />
<line x1="50" y1="575" x2="100" y2="575" fill="none" stroke="blue" stroke-width="1.0" stroke-linejoin="round" stroke-miterlimit="10" />
<text x="125" y="578" style="text-anchor:start;fill:black">n1_4mer:GRV/n1_4mer:RV</text>
<path style="stroke:green;stroke-width:1.0" d="M276.328277,176.331368L276.862016,182.799828L277.412854,185.404635L278.214553,179.522586L279.254969,169.702176L279.645795,176.474587L280.101199,180.361436L280.575052,183.086551L281.169512,183.483923L281.716245,184.459817L282.389274,183.719937L283.314313,180.229492L284.453363,174.983861L285.019256,176.107263L285.309825,179.644298L286.217597,177.400370L286.942430,176.918749L287.598026,177.035232L288.874249,172.566423L288.823715,177.860312L289.464689,178.040006L288.743259,186.941867L289.472340,186.197956L290.348614,184.656097L290.978704,184.635355L292.757859,178.371746L291.816276,186.837819L292.554252,186.220173L293.374074,185.253030L294.279332,183.954685L296.125334,178.448566L297.303319,176.252872L298.107946,175.802415L297.321368,182.016246L298.901464,178.306388L299.505507,178.651498L301.940983,171.983743L304.048500,166.903017L303.631991,171.244739L303.439898,174.581826L301.862141,182.531362L301.961278,184.469385L303.540633,181.472368L307.468863,171.109864L307.191875,174.380072L306.019731,180.246220L307.163767,178.943278L306.281856,183.624647L304.771726,189.909338L305.389809,189.983042L307.242291,186.680883L309.672775,181.971990L309.675930,183.843318L307.976570,190.036126L307.150863,193.788490L310.379809,187.360671L310.900708,187.766607L310.017596,191.513716L313.236075,185.533679L312.721341,188.356692L312.201530,191.098363L314.586957,187.316124L316.655898,184.365270L318.080785,182.903887L317.169596,186.410488L317.951032,186.312165L319.814733,184.030008L322.439583,180.314951L324.397459,178.042409L326.486187,175.602531L326.434142,177.318673L325.056142,181.468391L323.008765,186.727458L320.862005,192.010544L318.667318,197.223283L321.129163,194.118702L321.764570,194.272217L321.964922,195.170157L320.997198,198.005679L320.075410,200.689401L326.566802,191.264179L323.587982,197.277924L324.100910,197.621167L325.792514,196.133892L326.394640,196.366813L330.629477,191.125869L333.409312,188.208692L327.013960,198.823732L326.057350,201.295041L329.239860,197.816008L330.040658,197.786603L328.583246,200.891647L327.525859,203.374485L329.535311,201.674530L329.757754,202.401131L330.335973,202.652699L333.665474,199.360256L331.925049,202.615690L334.300547,200.630829L333.264716,202.930497L331.318521,206.289037L332.502732,205.799657L335.552447,203.119457L337.088340,202.295154L337.637804,202.643739L336.895850,204.465934L336.983392,205.317949L335.784527,207.585063L337.190158,206.952768L337.655504,207.363541L335.990954,210.043003L337.336159,209.499532L339.847202,207.773058L342.136530,206.330862L342.765509,206.614538L344.640012,205.662687L345.053401,206.183886L347.795620,204.446671L346.433185,206.693638L344.438405,209.490207L342.828027,211.867000L341.336666,214.083355L342.491809,213.854887L344.821070,212.595242L348.473404,210.215223L350.721117,209.133980L350.210345,210.462452L348.290660,212.961433L349.955018,212.413782L348.104345,214.789594L349.458880,214.510560L351.193540,213.948113L352.570681,213.697470L352.156687,214.863935L356.465421,212.382615L358.800351,211.480661L362.074210,209.917348L362.709639,210.358064L358.028468,214.666317L355.753801,217.145826L359.983813,214.976876L361.489450,214.781969L357.461677,218.406631L360.655234,217.059165L356.159603,220.892905L354.149494,222.999160L353.472901,224.196604L349.818343,227.274198L355.797828,224.221884L354.381145,225.854477L356.579795,225.249769L358.519303,224.835135L361.382866,223.903255L361.824454,224.427879L365.573388,223.057618L362.679556,225.498500L359.014590,228.310627L356.533092,230.405337L353.895766,232.535264L356.613013,231.778716L362.107503,229.617054L363.269580,229.764450L360.614000,231.850523L360.351745,232.700757L363.029128,232.109536L362.769149,232.964894L363.965480,233.125811L367.410759,232.261669L369.083806,232.254319L369.232974,232.949486L361.995274,236.879358L359.442268,238.673644L357.769729,240.051529L361.867872,239.008194L362.116087,239.590536L360.112086,241.070858L359.563261,241.947577L359.903420,242.471738L357.107178,244.175240L355.065222,245.555207L358.081002,245.079457L362.270165,244.232835L364.400148,244.156906L361.754286,245.721714L361.029212,246.610021L365.224113,245.897683L368.687264,245.475389L367.929187,246.400516L371.561908,245.992629L377.121304,245.070532L375.350336,246.321654L374.406134,247.313907L374.297739,248.063026L370.799416,249.703104L370.744266,250.405890L362.363597,253.184471L362.599732,253.750905L358.552429,255.327220L364.330259,254.600467L361.393804,255.881990L364.354698,255.856787L368.803600,255.563134L362.473803,257.487979L367.183288,257.189690L367.040899,257.859070L377.868658,256.558181L369.093243,258.784358L368.311636,259.565094L362.443417,261.139832L375.027434,259.834729L366.762309,261.719069L371.480098,261.698673L368.702000,262.723830L367.075323,263.566837L363.245481,264.645079L363.122254,265.260430L366.803378,265.478641L367.201048,266.064290L368.083901,266.610799L368.746583,267.186873L368.111791,267.870564L366.475614,268.614906L366.209782,269.250145L374.177987,269.417819L372.772249,270.156933L365.701684,271.119023L362.603066,271.842221L363.279441,272.412724L364.387375,272.982365L367.139117,273.540713L368.260947,274.150826L373.318721,274.766623L374.658435,275.434291L373.726995,276.094848L375.770325,276.795981L371.714677,277.375023L368.492245,277.925719L368.065196,278.539573L367.941178,279.161558L366.679029,279.723609L365.183458,280.255448L366.632688,280.959068L369.996721,281.820298L377.685383,283.067436L377.152385,283.717814L377.363435,284.430306L369.897612,284.387140L371.492100,285.201197L373.686454,286.105400L375.266777,286.967252L376.386732,287.793691L381.503010,289.168262L374.197212,288.876537L369.776695,288.909249L365.529198,288.909035L368.480799,290.007314L367.219878,290.442357L372.147559,291.940552L373.875233,292.928451L372.036544,293.270558L374.165372,294.363463L373.137403,294.849443L371.041980,295.099496L366.828229,294.863778L362.563862,294.559254L364.331206,295.586318L366.429163,296.718942L364.249143,296.836782L363.657202,297.325520L373.335881,300.467913L371.524555,300.693352L368.862378,300.662542L366.262641,300.613236L361.264110,299.837992L360.923012,300.367341L358.707402,300.327033L362.441167,302.100554L362.098078,302.638186L363.050926,303.594344L358.128878,302.615875L361.631354,304.428388L359.749719,304.426989L361.255486,305.601984L361.196032,306.235720L362.561186,307.398879L360.927447,307.453631L361.929874,308.502583L358.349394,307.768756L356.748104,307.776242L357.884887,308.881413L357.603715,309.417233L356.317130,309.525394L358.707897,311.207425L360.126415,312.503227L363.755114,314.817426L364.665481,315.953098L361.546549,315.234875L361.597882,315.969889L364.881817,318.266369L364.534865,318.844135L369.571868,322.102575L369.515421,322.871193L362.948155,320.291379L367.353443,323.349294L366.694273,323.793399L368.609136,325.623829L366.496718,325.280388L362.611668,323.916140L357.111832,321.573202L355.620252,321.447226L355.099447,321.868134L352.367432,320.971440L355.711242,323.696408L354.427916,323.654402L353.435231,323.775437L349.668657,322.133105L346.700681,320.937481L355.204261,327.150400L363.659114,333.500781L358.872023,331.156088L351.394768,326.897891L352.280899,328.263667L348.492173,326.385515L348.555472,327.170464L353.448875,331.438738L358.594809,335.999028L354.877982,334.114938L349.619967,331.004974L348.249424,330.751082L347.281104,330.786464L344.147375,329.114470L341.464229,327.739894L343.944746,330.468595L343.530110,330.899054L343.655592,331.775309L345.064499,333.739041L347.591697,336.694557L344.691034,335.041958L341.256577,332.864614L342.009814,334.322278L342.069654,335.185396L342.932454,336.790174L342.452213,337.188184L341.664044,337.296903L343.474608,339.857788L344.228187,341.461331L341.949725,340.145611L338.956689,338.076918L340.055260,340.030030L337.052193,337.868874L334.959836,336.572534L336.214987,338.713943L337.946125,341.404729L338.491983,342.890092L335.943561,341.050807L338.431449,344.682559L336.760165,343.770868L335.970303,343.817602L337.772716,346.820240L334.372109,343.859503L332.762251,342.911424L332.600127,343.651884L333.766974,346.007911L334.329652,347.678316L333.084129,347.138415L333.008700,348.045910L336.253318,353.206860L332.604583,349.576968L330.639812,348.044420L330.923674,349.451473L327.258068,345.555510L327.872050,347.398371L330.084831,351.504351L328.580235,350.481054L329.448834,352.809081L326.623619,349.839189L326.869918,351.289909L324.615748,349.041545L324.516127,349.979404L324.778647,351.491702L324.642819,352.417964L328.810475,360.173788L327.545695,359.425096L324.956984,356.483394L324.118287,356.339132L322.391375,354.686702L320.609170,352.878507L320.081774,353.180058L323.592383,360.594404L318.748230,353.284281L318.884782,354.785103L316.580857,351.816439L316.861521,353.594114L315.941201,353.129251L317.364336,357.185998L317.128644,358.097525L316.345491,357.932252L316.590445,359.849222L314.367339,356.700841L313.823795,356.979418L314.926244,360.795600L316.978301,366.815869L315.609074,365.425800L310.801656,356.178755L309.733666,355.215308L312.183519,362.483421L310.344876,359.737524L308.549792,356.982825L310.251968,362.824237L309.800699,363.417034L308.745284,362.458500L306.575038,358.503189L306.777403,360.779333L306.369611,361.460792L305.829766,361.790668L306.286354,364.992020L304.653058,362.181682L304.372729,363.302833L302.311081,358.988443L302.895607,362.791166L302.081328,362.259418L302.056543,364.298562L303.413069,371.102065L302.488773,370.331367L303.804275,377.479837L304.376454,382.282645L299.718025,367.715759L298.316270,364.884359L299.753823,373.139495L301.680715,383.863852L300.305970,381.345828L297.639342,373.066145L295.809734,367.992519L295.381300,369.044134L295.821805,374.301279L294.913794,373.259391L293.749440,370.823174L292.482674,367.654358L291.691438,366.850152L291.185963,367.607997L290.218090,365.664658L289.533515,365.305661L290.061303,372.776218L289.285956,372.081414L287.965576,367.423844L286.571954,361.729153L285.759522,360.000997L285.999683,366.857267L285.277164,366.008763L284.722422,366.623474L284.074654,366.376751L283.486097,366.724805L283.044951,368.838368L282.108026,365.026407L281.870055,370.172890L281.317036,371.558763L280.351678,366.225459L279.814275,367.738676L279.542751,375.581344L279.046368,380.314590L278.152580,374.507005L277.623524,380.171755L276.732708,370.148626L276.040158,365.625033L275.432149,366.061119L274.801938,374.740291L274.139818,373.673823L273.463756,374.434078L272.864331,371.271931L272.269397,369.420584L271.597826,370.411112L271.329432,361.570489L270.382812,368.949679L269.676654,370.237716L268.694576,375.644497L268.779266,364.621382L267.988068,367.046192L267.619181,363.976477L266.433638,370.463822L265.740372,370.930871L265.251897,369.346252L264.691804,368.599603L264.083799,368.341541L263.219761,370.172328L263.002891,366.848564L262.101773,368.825231L261.622335,367.684269L260.882586,368.360296L260.471785,366.888617L259.688166,367.791144L260.051256,361.943408L258.707940,366.080673L258.952330,361.356562L258.817489,358.932852L257.572928,362.225243L255.809595,367.795323L255.180926,367.684915L253.845779,370.771474L254.272704,365.928039L254.481553,362.295842L253.953672,361.910966L251.997848,367.267858L251.306230,367.387971L252.247594,361.299022L250.250981,366.372537L250.702425,362.370867L250.317497,361.495188L249.805365,361.089461L248.838850,362.209955L247.719437,363.766041L246.604824,365.225422L245.737665,365.840802L245.496962,364.518746L244.134252,366.575312L243.924586,365.186993L243.659887,364.005401L243.447238,362.719941L243.272535,361.375594L241.303958,364.861263L241.398578,362.806455L242.612230,357.957668L242.120869,357.571206L240.282726,360.508196L239.983805,359.605981L237.953553,362.833501L237.447421,362.386041L238.285926,358.873829L237.115598,359.985507L236.613192,359.576970L238.733862,353.496193L236.250028,357.410748L237.339559,353.713225L236.037110,355.046950L234.817311,356.160055L229.351588,365.659683L227.971991,366.855030L226.998012,367.221744L228.053254,363.730855L229.986182,358.709526L229.679591,357.936382L228.077987,359.510400L228.338575,357.724008L227.006065,358.763644L226.056835,359.102786L226.508244,357.051555L226.330434,356.101040L227.429253,353.074018L223.406107,358.408089L220.582628,361.663189L219.741242,361.701695L222.601800,356.005158L224.175370,352.424634L222.857832,353.278023L222.052420,353.339054L222.895099,350.984729L220.997706,352.626158L219.248208,354.001256L221.721715,349.427666L220.818127,349.623478L220.823281,348.569610L220.804384,347.567105L219.572303,348.184090L216.704419,350.903658L213.469661,354.008780L212.769907,353.807216L211.584519,354.206279L212.112775,352.471795L211.058331,352.696047L214.056334,348.045426L214.409568,346.636205L211.597504,348.945606L215.013242,344.016227L211.118533,347.505622L212.420446,345.071325L208.443653,348.522011L212.178323,343.464486L210.320542,344.543562L208.099930,345.967186L211.666785,341.283840L212.706881,339.322795L209.437555,341.793039L207.170969,343.178018L203.000598,346.402061L205.487327,343.013995L204.604178,342.956642L201.629101,344.880630L204.404962,341.336301L210.771849,334.544505L208.057312,336.228360L206.410681,336.891658L206.387792,336.079438L203.367348,337.909094L207.404280,333.562556L204.665424,335.111377L202.839430,335.836213L204.614153,333.534009L203.842186,333.370228L198.871283,336.595241L192.392536,340.922036L196.603213,336.702662L199.238018,333.807361L198.548981,333.521785L196.449860,334.294323L198.329641,332.069253L196.825346,332.375250L199.926832,329.325202L203.211632,326.215498L201.161095,326.931950L202.542684,325.234680L200.609630,325.836850L197.199485,327.402495L191.513772,330.418843L196.011663,326.670506L195.705106,326.112194L195.604277,325.423940L192.230514,326.788037L194.420259,324.666322L192.609952,325.019980L196.565358,321.898954L195.203094,321.987220L193.651491,322.166302L187.452462,324.976147L192.186575,321.537409L189.185711,322.466539L187.214739,322.787881L192.979599,318.936523L190.823965,319.364638L196.988604,315.446955L197.033740,314.759953L197.641677,313.796006L193.098119,315.386979L191.307005,315.572144L183.656092,318.524188L185.286538,317.008650L185.114378,316.353846L182.080090,316.994286L188.662551,313.321636L182.454515,315.333644L186.050870,313.055850L185.619604,312.530607L180.518282,313.926604L186.400798,310.807282L185.272849,310.562391L184.128306,310.310106L177.206733,312.243911L180.165736,310.387892L182.162866,308.932481L181.418093,308.492344L188.297334,305.373492L190.021013,304.128927L191.692674,302.930684L190.273415,302.773500L192.068143,301.568301L189.691277,301.697927L184.977967,302.509050L179.869643,303.371324L185.054358,301.167049L171.369072,304.393224L180.780898,301.039756L185.875731,298.987105L184.357703,298.742493L181.093340,298.923229L180.553218,298.384954L182.062266,297.348452L182.670518,296.545792L183.210389,295.769298L185.274281,294.668350L184.905899,294.114425L185.879050,293.281930L182.094084,293.407545L177.699788,293.598406L177.261940,293.001009L176.831943,292.397813L181.404943,290.938311L181.426163,290.287278L175.092026,290.632368L174.853966,289.979702L177.105015,288.969944L180.803177,287.795823L183.530328,286.798842L177.427621,286.918880L172.472877,286.824235L175.620914,285.783833L179.419436,284.721142L175.548488,284.438918L179.050597,283.455245L189.300702,281.970963L182.627698,281.888180L175.160059,281.769566L177.068201,280.978226L178.526302,280.237648L178.365313,279.594209L183.817346,278.720019L183.162963,278.127652L182.661803,277.522564L170.504929,277.150867L175.179442,276.382512L178.587301,275.686244L182.827991,275.035598L184.686703,274.426935L186.643252,273.844524L183.686842,273.191024L185.608541,272.627036L183.356828,271.949818L179.352972,271.171848L179.875541,270.551231L178.027819,269.810411L181.060436,269.338308L180.023103,268.633865L186.790166,268.490725L182.385302,267.538531L180.230555,266.722501L175.927972,265.674308L179.093419,265.320541L180.238770,264.791313L183.736368,264.546185L176.032735,262.988308L179.786781,262.793033L179.071576,262.044412L183.302820,261.986768L184.667616,261.559538L184.717957,260.945214L181.924206,259.867893L185.113160,259.764597L182.258267,258.637743L180.812782,257.728181L181.669226,257.235045L178.365156,255.931201L173.522925,254.265052L179.094215,254.729967L183.261476,254.964687L183.852319,254.449949L184.134079,253.869738L180.338889,252.314466L181.803371,252.000970L184.165546,251.934134L178.639631,249.839260L179.656377,249.417969L178.040554,248.283481L174.464099,246.568516L176.691225,246.482288L171.214416,244.134651L175.373130,244.640013L174.019074,243.482973L173.965144,242.718198L173.580184,241.841169L180.230443,243.307752L185.898790,244.534957L191.022203,245.653886L188.532130,244.129047L185.597701,242.401231L187.671400,242.489711L187.241783,241.655467L193.502062,243.404699L193.295808,242.690425L187.362908,239.660280L180.148703,236.006804L185.181181,237.366885L188.612612,238.119078L188.001627,237.163865L194.799725,239.476531L196.449308,239.572790L193.194242,237.440010L195.746102,237.963693L192.419719,235.729808L190.795364,234.260123L185.786081,231.092988L184.083422,229.492243L186.602107,230.006300L187.782741,229.865481L188.658995,229.579507L184.155767,226.427014L181.562927,224.228950L179.268494,222.144470L186.689000,225.462919L189.624369,226.351075L198.861351,230.932951L194.887138,227.910034L195.711763,227.673754L196.367988,227.344655L196.137938,226.476408L193.378062,224.017660L196.304419,225.105980L198.946667,226.060376L200.546629,226.378136L199.267251,224.812212L196.578084,222.266972L197.484921,222.115579L202.482842,224.806727L201.638047,223.488149L203.613665,224.154482L202.448898,222.585179L196.591669,217.546383L198.518565,218.163127L200.467625,218.828849L200.304761,217.913682L195.410233,213.319925L197.008694,213.713976L199.599773,214.924723L206.046089,219.297921L200.075210,213.636505L199.169715,212.037328L201.427363,213.070479L201.108786,211.947646L206.987789,216.168516L203.736025,212.512121L204.668764,212.487574L202.944096,210.081171L207.581349,213.431880L206.039394,211.167118L208.842809,212.929982L211.746087,214.848202L210.972209,213.286215L212.561611,214.002099L211.475165,212.099450L211.405874,211.177351L212.327718,211.249949L211.162272,209.184073L213.463156,210.695739L211.239413,207.467745L206.170165,201.108475L200.730399,194.184707L200.711231,193.063603L205.527626,197.331514L208.159038,199.253382L211.588162,202.156853L214.758113,204.850306L218.829701,208.693671L217.555590,206.256703L215.046575,202.264680L216.183835,202.657680L216.856397,202.493191L217.833027,202.719502L219.255531,203.534579L220.240183,203.813971L221.277862,204.181572L221.208598,203.090056L219.826399,200.197749L220.373854,199.886739L220.803598,199.413187L222.220380,200.332860L222.592404,199.790147L226.258674,204.037966L224.873222,200.957828L224.055458,198.647794L221.549822,193.712626L223.307574,195.221132L227.277590,200.250387L229.170520,202.138617L228.670461,200.231561L228.796735,199.301973L226.287598,193.969505L225.868585,192.012513L227.961211,194.313082L227.680893,192.561819L226.733234,189.584205L225.591184,186.172405L226.858488,187.062488L229.571279,190.675123L232.475067,194.776481L233.687147,195.778943L233.179008,193.470614L234.911217,195.534846L233.487441,191.316527L233.860823,190.647637L235.444501,192.489719L235.422240,190.997337L236.406442,191.635413L238.797565,195.399257L237.795129,191.711933L238.111405,190.904367L236.924061,186.584421L235.101899,180.609187L236.186305,181.423141L235.583061,178.131327L235.628431,176.345758L234.655438,171.897048L236.252327,173.979321L240.259846,182.571509L240.797258,182.107416L244.534943,190.508962L244.862827,189.621499L245.184563,188.686235L245.305722,187.124634L243.959952,181.061767L247.198592,188.922322L247.284068,187.169849L247.931230,187.164767L248.925205,188.321252L249.552541,188.295151L249.454349,185.741413L250.013326,185.419342L248.524004,177.549883L247.316402,170.325212L251.467809,183.535726L252.972724,186.932517L253.734355,187.478962L253.490048,183.802116L254.408095,184.986826L254.744691,183.633328L255.147860,182.509890L256.093690,183.933169L256.879237,184.665966L257.654053,185.405172L258.628757,187.279478L258.391498,182.562263L258.100788,177.165056L258.511157,175.554315L259.048299,174.610838L259.805247,175.037488L261.320231,180.737687L261.936933,180.516654L262.557660,180.312357L263.035972,178.951475L262.901161,172.234127L263.148501,168.145642L264.180542,171.070061L265.398384,176.323171L265.965863,175.189432L267.257322,182.528330L267.893061,182.648552L268.495747,182.330276L269.109692,182.130967L269.815390,183.512633L270.468163,184.217380L271.123733,185.216739L271.636337,182.671529L272.218129,181.311186L272.837091,180.782469L273.479733,181.286494L274.074658,177.492184L274.709530,169.689211L275.374836,180.660210L276.006026,181.023424Z" />
<line x1="50" y1="625" x2="100" y2="625" fill="none" stroke="green" stroke-width="1.0" stroke-linejoin="round" stroke-miterlimit="10" />
<text x="125" y="628" style="text-anchor:start;fill:black">n0_4mer:PS</text>
<path style="stroke:red;stroke-width:1.0" d="M277.018609,125.051324L278.071042,122.933354L279.005702,126.258152L279.799214,132.455588L280.273840,144.488159L280.841740,151.111655L281.733219,150.083842L282.528836,150.875357L283.266569,152.377020L283.974030,154.023126L284.937781,152.238102L285.779189,152.133664L286.809446,150.056611L287.556769,151.061323L288.217996,152.746585L289.016335,153.049718L290.014184,151.690926L290.954380,150.935547L291.977330,149.656376L292.375293,152.903256L293.341983,152.049649L293.767841,154.747516L294.521265,155.217838L295.400309,154.921172L296.237916,154.892844L297.431890,152.938305L297.992465,154.458104L298.622787,155.528835L299.216119,156.717942L300.411638,154.995292L301.430829,154.200281L302.856980,151.664239L303.772773,151.484494L304.560092,151.862012L305.689199,150.846541L306.858590,149.741322L307.755829,149.749080L308.824997,149.128438L309.508789,149.948677L310.263838,150.487237L311.290918,150.074300L311.414157,152.728494L311.924760,153.997588L313.916077,150.480808L313.689343,154.071381L313.872394,156.259243L314.813163,156.098443L315.146212,157.731567L314.958421,160.794716L315.781270,160.912428L317.714500,157.995072L318.680282,157.804600L319.395229,158.293057L319.602403,160.082261L320.369353,160.399231L321.472582,159.882761L321.560997,161.863689L322.068722,162.782340L323.805579,160.802724L324.096932,162.227749L324.765605,162.762257L326.701981,160.481725L327.771572,160.179833L328.889415,159.797697L329.154143,161.233458L329.830946,161.781812L330.843688,161.642194L332.764561,159.707244L334.600120,158.016571L336.025856,157.185574L336.360795,158.466437L335.829661,161.337701L334.946836,164.777218L334.491016,167.348208L334.124264,169.692613L335.739112,168.502118L337.559275,167.006457L338.300217,167.403814L338.987978,167.891064L338.667048,170.039524L340.083427,169.315450L339.741971,171.437758L339.926638,172.681173L340.706495,172.976787L342.285645,172.053765L345.133954,169.257061L346.883659,168.186949L344.706383,172.912557L345.006861,173.940058L346.063492,173.875772L346.577173,174.588469L347.059998,175.337359L347.097833,176.685673L347.290876,177.801278L347.405835,179.002971L348.837548,178.463389L349.665007,178.731418L349.778156,179.914175L351.342746,179.258105L350.631039,181.449533L351.263867,181.954877L352.143440,182.163498L353.696845,181.580622L354.694027,181.679066L355.447231,182.071122L356.499503,182.126385L356.294515,183.608283L355.538987,185.675776L356.907435,185.378517L359.133025,184.178612L359.908927,184.569723L360.926976,184.711199L361.369247,185.461204L363.640794,184.335693L364.591416,184.588956L371.226683,179.191578L378.960287,172.875865L375.367181,177.724384L367.152309,186.881446L364.133873,190.909048L364.964905,191.262427L366.038688,191.399606L366.351574,192.238812L366.634635,193.098688L369.053446,192.068882L372.699984,190.015661L377.122239,187.369516L378.385529,187.486939L374.180319,192.186051L372.010847,195.099654L371.464167,196.633747L372.475782,196.895210L373.607470,197.072523L373.239721,198.431780L375.623693,197.656846L379.648532,195.678070L381.519221,195.383390L379.740373,197.806427L378.109041,200.074515L377.431153,201.615594L379.161140,201.432142L380.361839,201.642122L380.514909,202.585220L381.623118,202.875598L382.071423,203.618138L378.919802,206.725186L378.860323,207.760774L376.744671,210.098188L380.138947,208.924490L379.977222,210.007735L381.242794,210.209404L383.572230,209.787396L390.614814,206.612125L399.438338,202.519145L403.206311,201.475742L404.671092,201.791216L408.771125,200.659461L408.898482,201.763997L407.628551,203.614212L407.165881,205.006516L402.431200,208.608437L392.314932,214.879565L388.601205,217.744965L387.230730,219.379872L386.584691,220.632550L386.111972,221.785362L387.292748,222.146155L388.842671,222.349791L388.589118,223.392349L389.322557,223.984712L387.630949,225.646008L387.786100,226.480365L389.261777,226.754410L389.394394,227.603181L389.429251,228.488746L389.965633,229.170018L389.553128,230.225728L390.153518,230.882297L390.696887,231.564958L390.740581,232.435234L390.180810,233.519129L392.195399,233.682671L392.341559,234.517105L391.077749,235.825480L390.862531,236.764908L393.243586,236.859837L393.211353,237.746866L393.826225,238.430556L394.877550,238.988569L398.767145,238.726621L402.881081,238.453855L412.805719,236.619050L414.685476,237.106850L405.867004,240.443120L397.676465,243.487738L394.752339,245.096691L394.020395,246.129184L392.429366,247.350749L393.735217,247.885526L392.624006,248.971086L393.457879,249.621766L393.934836,250.355739L392.328323,251.511184L395.684664,251.683069L397.762618,252.137712L399.510713,252.678293L396.718770,254.023489L398.859013,254.512177L397.113976,255.644395L405.585127,255.201843L405.343153,256.135191L400.886367,257.644548L399.248485,258.721846L397.251210,259.819841L396.022268,260.798977L396.802466,261.537978L397.823826,262.261365L397.328159,263.144506L396.640765,264.037107L397.749306,264.769697L397.410015,265.627241L395.063426,266.619447L398.674109,267.203597L402.836077,267.804814L402.653915,268.676769L399.614906,269.667932L396.310269,270.627196L396.712957,271.432861L396.662037,272.253868L396.104094,273.081970L399.207030,273.869050L401.446005,274.699858L403.721116,275.560940L403.216703,276.421879L403.390379,277.288240L399.452033,278.056169L396.739820,278.809691L395.291383,279.575073L395.428673,280.392346L396.581150,281.264265L397.143139,282.117901L397.884907,282.991466L398.908443,283.896018L399.482130,284.779888L400.806676,285.736501L400.561292,286.567425L398.801741,287.246296L400.008773,288.215995L404.685810,289.593824L400.875923,290.023809L400.451513,290.830354L401.475811,291.825275L399.636239,292.435161L396.888260,292.888091L397.598822,293.836258L397.424231,294.653864L398.878079,295.743570L398.548483,296.544335L399.989593,297.663610L399.733385,298.485467L401.023128,299.607825L399.372391,300.155778L397.820470,300.703651L396.645671,301.313723L394.819327,301.764199L393.296117,302.261263L392.640443,302.945415L392.759690,303.812519L394.751726,305.155695L396.528611,306.474575L394.915044,306.919540L393.960777,307.524596L394.767124,308.613136L393.256545,309.049562L393.822729,310.080436L390.743553,310.020090L392.319855,311.360826L391.460377,311.955506L391.266798,312.757386L388.922210,312.845590L388.265530,313.475930L389.633559,314.803323L389.141012,315.495295L390.244746,316.762394L391.268825,318.021112L390.937499,318.788020L390.324575,319.445838L388.544666,319.640005L388.386200,320.461281L387.117439,320.831000L387.118548,321.714729L387.469566,322.752006L387.197891,323.530627L387.296359,324.473196L387.848280,325.626131L386.454254,325.904728L385.771411,326.496841L385.672985,327.359940L386.838110,328.835460L387.606123,330.141849L392.419106,333.481897L393.927762,335.235820L394.049945,336.308121L393.634559,337.108103L394.330775,338.499649L391.484224,337.994679L387.487834,336.815682L384.013709,335.865521L382.381979,335.906235L380.333278,335.684983L381.257146,337.173640L382.524999,338.890953L380.979843,338.941993L381.522283,340.251340L377.866914,338.968431L377.360088,339.612770L376.311764,339.908828L377.946273,341.937707L381.191257,345.069181L379.608982,345.040414L377.019918,344.306036L375.862803,344.516825L373.259516,343.702770L373.991126,345.211132L375.339121,347.187312L378.991481,350.882455L377.137535,350.588465L374.538668,349.707357L372.672954,349.340146L370.263295,348.524090L369.679443,349.095768L369.505936,349.991212L370.387451,351.742728L368.773407,351.489660L368.683906,352.472681L367.222702,352.315518L368.706582,354.639769L367.509168,354.700806L365.863035,354.354453L366.069349,355.621642L365.417128,356.136406L365.248378,357.088350L365.439640,358.381652L364.665330,358.791382L364.802713,360.059345L365.384796,361.772370L362.541130,360.182133L361.649235,360.457312L361.534235,361.500675L360.405505,361.529544L359.343952,361.612492L359.719872,363.178359L360.214416,364.896561L358.758678,364.560668L357.723619,364.656097L358.102970,366.292690L356.323799,365.555267L356.135703,366.578428L356.960200,368.773244L357.068992,370.183246L355.793747,369.989693L354.637198,369.917215L353.807509,370.222814L352.105105,369.453093L351.503302,370.014370L350.769835,370.411146L351.126279,372.196321L349.710769,371.723253L349.212255,372.426483L348.552477,372.920789L346.109609,371.007658L346.541843,372.963157L346.644539,374.503236L346.012710,375.039019L345.122031,375.206569L344.622826,375.932788L344.001650,376.487140L343.333859,376.974569L342.321330,376.940792L341.461587,377.127323L341.088476,378.064961L342.266364,381.472411L343.001745,384.258311L342.499091,385.095818L340.617263,383.661185L337.176906,379.547983L337.099642,381.036297L336.758382,382.100354L336.429981,383.207547L333.900379,380.397952L332.739094,379.973052L332.099904,380.486314L331.672551,381.401507L330.598789,381.100742L330.351630,382.381098L330.163612,383.808620L329.472312,384.262494L328.983099,385.131639L327.717692,384.407440L328.229014,387.397141L326.677674,386.047686L327.627389,390.107791L327.360371,391.592868L324.898528,388.142820L324.111633,388.420354L323.830089,389.884857L322.246765,388.271690L321.271674,388.070225L320.980827,389.553350L320.162760,389.743594L318.910631,388.804285L318.006499,388.734775L317.394364,389.438562L316.581605,389.607045L315.679470,389.519144L315.938289,392.754831L314.127956,390.038426L313.505011,390.757090L312.729634,391.028113L312.283736,392.336852L311.588782,392.893620L310.631302,392.599058L310.406618,394.756478L310.496615,398.102651L312.480127,408.346777L312.499859,411.949271L311.491017,411.875512L310.078443,410.227605L309.439658,411.540150L308.820054,412.994099L307.699524,412.416506L305.692591,407.950156L303.839422,403.874806L301.971732,399.453943L301.039802,399.186430L300.088549,398.792864L298.947511,397.389066L298.008990,396.942627L297.107462,396.653615L296.241617,396.533927L295.820553,399.042395L294.996576,399.251012L294.234942,399.870995L293.285529,399.260851L292.056997,396.589137L290.976336,394.738982L290.100300,394.293458L289.666495,397.478450L288.767952,396.921217L287.954559,397.082922L287.137360,397.216512L286.290597,397.038168L285.441917,396.797188L284.544956,395.891242L283.905782,398.374415L283.142817,399.466654L282.121888,396.400713L281.361853,397.550107L280.770444,402.763775L279.979579,404.603216L279.029812,402.195661L278.197301,403.173316L277.243540,398.200050L276.393643,396.422853L275.579225,397.052616L274.754580,398.588796L273.913388,399.648200L273.072186,399.778631L272.275695,397.806500L271.462060,397.337210L270.605739,398.233347L269.799325,397.658116L268.889109,399.343281L268.041006,399.500396L267.009474,402.541369L266.420017,398.610793L265.679919,397.345446L265.066715,394.746686L264.013657,397.432168L263.257304,396.655762L262.496844,396.010814L261.618502,396.505535L260.590820,398.209087L259.698767,398.618367L258.878310,398.425912L257.502951,402.278325L256.123874,405.779176L256.008071,400.596094L255.574869,397.860818L254.958000,396.456389L254.643085,393.397876L253.471234,395.356450L253.004492,393.363382L252.378003,392.332144L251.334857,393.447771L250.393411,393.985316L249.254565,395.399843L248.093938,396.811777L247.507660,395.605433L246.930308,394.422654L246.045685,394.567054L245.011713,395.291140L244.261188,394.858360L243.979116,392.661051L242.684160,394.308984L242.326657,392.489021L241.671036,391.795085L240.839708,391.724896L239.425916,393.588603L238.810401,392.754441L238.490796,391.007675L237.704906,390.777372L236.255626,392.559005L234.931187,393.879805L235.205046,390.492821L234.272038,390.666738L233.664123,389.918014L233.095877,389.080768L231.900668,389.938142L230.715122,390.724215L230.597664,388.731639L229.379077,389.570384L228.693226,389.052985L226.756846,391.564903L224.629557,394.423393L223.354260,395.181271L223.030960,393.724018L223.993480,389.422157L224.141504,387.055617L224.075213,385.224087L223.048234,385.487407L222.684495,384.343439L221.512295,384.887321L220.733352,384.606508L217.850551,388.501232L215.721605,390.782465L215.082163,390.114555L214.596507,389.164538L216.202966,384.341354L215.951113,383.059507L213.589064,385.606142L214.298243,382.615501L213.988901,381.482454L212.526262,382.353405L212.243872,381.187902L211.958682,380.049560L211.110634,379.856447L209.166972,381.427463L207.144765,383.063854L206.226920,382.905839L207.336737,379.604228L207.382695,378.006065L206.596063,377.690876L205.534016,377.779002L205.750550,375.986675L203.859380,377.261823L202.528527,377.693333L203.955467,374.246414L203.034515,374.116448L202.555959,373.375832L203.011735,371.391193L200.380170,373.524469L199.359925,373.487025L196.597531,375.673643L196.863531,373.950802L194.774369,375.202247L195.739643,372.642122L193.968684,373.461817L194.814487,371.108181L195.037992,369.539262L194.274816,369.148859L193.725148,368.508697L193.238209,367.799834L192.931761,366.893115L190.425511,368.425898L192.262110,365.169626L191.688070,364.577255L189.471042,365.728597L190.400443,363.540958L189.425716,363.362523L187.342330,364.302987L186.539515,363.915622L184.523893,364.725474L185.532471,362.538629L183.898240,362.945129L183.531174,362.117634L184.932173,359.634369L187.019962,356.564356L185.856091,356.534451L185.461602,355.795086L182.788421,357.087890L182.760401,356.006488L180.522863,356.851671L180.935882,355.391807L180.106365,355.001716L180.875868,353.275150L180.218903,352.748232L178.592953,353.002304L175.420936,354.465636L176.787229,352.298951L178.769392,349.695354L176.663653,350.274582L175.507167,350.103115L175.756718,348.871312L175.433247,348.075696L176.005589,346.635333L176.670090,345.150854L175.674866,344.856777L175.016406,344.318656L173.651720,344.259332L170.695020,345.254563L167.660294,346.252977L170.229272,343.536150L170.555942,342.322935L168.834985,342.425022L168.621887,341.559718L170.162286,339.618025L168.998910,339.354524L169.500797,338.081849L170.067359,336.788024L167.638840,337.248576L157.527354,342.058770L146.992254,346.934578L141.693170,348.736134L144.850734,345.849680L154.136764,339.743774L159.989409,335.615866L169.949822,329.465886L167.872815,329.630962L166.678769,329.324227L165.245489,329.121505L165.102483,328.275401L160.403799,329.603604L162.468228,327.693405L162.288670,326.855312L159.892398,327.021807L161.579946,325.342489L160.174300,325.043920L161.764865,323.446335L160.229172,323.191986L151.820124,325.750286L141.892222,328.795380L139.516173,328.697557L140.496528,327.264150L150.015536,322.599497L156.102141,319.367346L158.361384,317.632053L158.159334,316.816500L159.325639,315.522795L160.378198,314.289831L161.326775,313.111545L160.729800,312.457941L160.719065,311.611387L160.957493,310.690355L157.569366,310.884605L155.877656,310.526605L154.152675,310.156988L149.349463,310.638727L156.415102,307.773841L158.332570,306.400133L156.863107,305.944321L154.853293,305.608023L152.982890,305.211347L154.130716,304.065066L153.771297,303.289646L154.421158,302.283457L153.412569,301.652605L152.143147,301.065392L154.077195,299.805640L151.646835,299.440090L150.865592,298.727617L152.136135,297.628581L149.850298,297.179629L153.041258,295.768366L153.207965,294.897321L150.505329,294.479391L150.921911,293.559426L152.285592,292.511759L151.327123,291.799889L147.810199,291.406448L148.170320,290.492784L146.113658,289.864188L143.247647,289.296724L143.789457,288.344935L147.799188,287.072598L151.218109,285.907897L154.885376,284.770379L152.283626,284.150930L149.954044,283.478639L150.813814,282.580919L151.311939,281.715141L151.045614,280.893043L153.696655,279.948866L150.704097,279.233089L150.332782,278.405752L144.705617,277.681905L141.996837,276.842090L142.029246,275.946455L145.137783,275.050155L149.126118,274.201292L153.712507,273.413875L152.517887,272.573546L152.419248,271.746001L151.893288,270.902610L149.353367,269.971151L150.631187,269.183534L150.976694,268.362736L152.268202,267.603014L151.380577,266.714007L151.727142,265.903317L150.533766,264.972423L149.937887,264.076633L147.869342,263.033138L150.788093,262.463801L153.614176,261.923028L153.538855,261.087204L151.387178,259.997067L152.109049,259.244564L151.570233,258.330226L152.832630,257.662582L155.259672,257.183960L153.550161,256.093123L153.215134,255.200419L154.224036,254.529034L155.090487,253.844580L153.662201,252.749375L154.281304,252.021918L152.120056,250.752298L146.664770,248.777089L150.305191,248.645303L153.180427,248.395110L153.069454,247.509680L152.772449,246.576801L151.399864,245.379229L151.554096,244.536065L152.936754,244.004113L152.806262,243.093886L153.475192,242.393190L151.510555,240.973319L144.678552,238.145184L151.406906,239.147735L149.775419,237.758794L154.386840,238.244715L153.099108,236.953669L152.120149,235.738470L151.567406,234.644174L155.474155,235.028908L158.715626,235.240625L160.148060,234.864890L158.320303,233.342753L159.645717,232.938357L159.347479,231.945412L160.453296,231.476938L163.048083,231.598233L162.003619,230.316062L160.442819,228.804735L158.338564,227.040696L161.453584,227.425279L162.279607,226.876863L162.585190,226.110097L164.751152,226.166981L164.417342,225.126028L164.116753,224.089480L164.627194,223.421450L164.084725,222.255397L163.060465,220.841429L160.976405,218.882799L162.308105,218.592737L162.822420,217.902661L163.165436,217.126142L160.816927,214.932927L163.230937,215.238836L163.665792,214.504156L162.758317,213.028828L165.096743,213.350981L167.828416,213.931259L169.590225,213.991592L170.602730,213.635772L169.820779,212.219720L169.368410,210.981418L170.248321,210.546603L169.624307,209.180693L172.425165,209.966224L171.603135,208.465063L174.627047,209.451322L174.006350,208.071915L173.645664,206.846589L174.200889,206.230120L175.034750,205.808332L176.224202,205.643555L175.730806,204.294681L176.821908,204.070862L175.113250,201.808095L176.178491,201.561190L177.488289,201.510525L176.789692,199.942139L176.297055,198.507692L177.794118,198.615050L178.958330,198.478613L180.965278,199.037239L178.871345,196.270514L179.114075,195.384921L180.672486,195.600130L181.584840,195.287604L183.456923,195.813998L181.455110,192.975081L182.486484,192.771325L182.330720,191.509533L184.345385,192.212312L185.445666,192.104685L187.247092,192.668442L187.607793,191.893704L187.594692,190.753577L189.134062,191.115036L188.990575,189.835825L189.410245,189.102681L189.665415,188.197925L189.169661,186.509957L190.521222,186.722067L190.546110,185.550358L189.725738,183.454738L187.880826,180.202648L186.680807,177.588823L189.329582,179.222481L191.346389,180.200674L193.076644,180.892097L194.697207,181.490041L196.927331,182.838979L196.784434,181.400016L196.393981,179.635408L197.059270,179.134975L198.198390,179.226098L199.153594,179.101692L200.011164,178.862952L201.334161,179.236741L201.895483,178.631032L201.642282,176.933223L202.960397,177.331470L202.812715,175.739429L203.522364,175.311340L204.409961,175.136523L205.079436,174.657382L206.416898,175.150512L205.612276,172.507519L205.978995,171.556024L206.760383,171.220752L207.853075,171.369621L209.605159,172.569316L210.320417,172.170034L210.307599,170.596849L211.587892,171.107526L211.691578,169.689801L212.763873,169.877447L212.648118,168.046116L213.414875,167.707913L213.271143,165.760874L213.173037,163.846954L214.077742,163.716586L215.682414,164.894585L217.165214,165.894359L218.185576,166.053307L219.086708,165.997892L220.124628,166.224440L220.532196,165.200578L220.941083,164.156813L221.923320,164.285387L222.036581,162.586658L222.965279,162.601630L224.188671,163.277693L225.499764,164.187117L226.629916,164.729799L226.678959,162.794420L226.157203,159.447852L226.196616,157.338764L223.937961,149.513038L221.343178,140.550871L223.064940,142.276837L226.788486,149.305746L230.302629,156.079673L231.633218,157.218435L233.385913,159.588517L234.708832,160.855270L235.507871,160.672834L236.171304,160.092817L236.288811,157.846166L237.426302,158.665724L237.819187,157.176201L238.985782,158.137752L240.009666,158.683903L240.631852,157.900482L241.244187,157.054439L241.853092,156.163782L242.352923,154.836003L242.358135,151.577446L244.666604,157.100989L245.338295,156.409225L246.434194,157.434367L247.054388,156.516206L247.800046,156.101133L248.462034,155.293817L249.321051,155.363083L250.047401,154.809748L250.889895,154.808424L251.602720,154.148984L252.535946,154.632934L252.897844,151.986298L253.398500,149.942006L253.838057,147.370435L254.443647,145.632291L255.123651,144.238429L256.616586,148.326582L258.015046,152.150196L258.951287,152.867440L259.713655,152.279555L260.137128,148.756812L260.844425,147.371848L261.738088,147.608244L262.857545,150.210696L263.746462,150.669138L264.841702,153.678316L265.508452,151.661645L266.190991,149.493139L267.187788,151.829443L268.025888,151.935182L268.848949,151.780972L269.731132,152.960905L270.556478,153.030725L271.383014,153.185879L272.185022,152.377975L272.998546,151.624774L273.800232,148.574530L274.622813,138.249567L275.583333,128.184989L276.583586,127.071416Z" />
<line x1="50" y1="600" x2="100" y2="600" fill="none" stroke="red" stroke-width="1.0" stroke-linejoin="round" stroke-miterlimit="10" />
<text x="125" y="603" style="text-anchor:start;fill:black">n0_4mer:D</text>
<path style="stroke:black;stroke-width:1.0" d="M277.369166,99.010820L278.527764,100.318154L279.745267,98.796226L281.111721,93.472027L282.510689,89.132810L284.014861,83.817873L285.500077,80.200272L286.758128,81.148869L287.993796,82.255216L289.272445,82.596395L290.529941,83.157877L291.810026,83.391299L293.158257,82.886490L294.359045,83.921039L295.584360,84.614992L296.768380,85.602413L297.923423,86.733618L299.276302,86.222619L300.625350,85.808052L302.033915,85.031814L303.537092,83.709597L304.716138,84.597738L306.021266,84.654018L307.232757,85.273870L308.450372,85.827525L309.544496,87.028335L310.619292,88.259819L311.911879,88.319856L312.939480,89.687077L314.639256,87.806347L315.997298,87.625547L317.152997,88.369148L318.433852,88.547544L319.358197,90.217789L320.493035,90.957474L322.143795,89.644355L323.725710,88.683849L324.459669,90.947779L325.424776,92.273073L326.578692,92.881268L327.081517,95.717678L328.322838,95.952505L329.731202,95.645894L331.026765,95.731997L333.070302,93.493653L335.095909,91.429271L336.608093,91.008133L337.642760,92.018393L338.559282,93.341021L339.776451,93.784751L341.157724,93.778639L342.389194,94.192935L343.875885,93.937887L345.142881,94.277419L346.399221,94.649058L347.073426,96.466905L348.168896,97.210442L349.001343,98.571636L349.730362,100.142865L351.444652,99.411929L352.518456,100.170485L354.094789,99.807508L355.611633,99.605543L356.838128,100.050229L357.750642,101.158187L358.766390,102.034194L360.006136,102.444973L361.008944,103.334051L362.327124,103.593863L363.685946,103.785952L365.022831,104.032833L366.242424,104.510416L367.477582,104.963731L368.529365,105.754214L369.305407,107.030788L371.146192,106.420554L372.842771,106.097988L373.895089,106.900509L375.377026,106.979745L375.390573,109.497708L376.109031,110.815923L377.450497,111.118625L378.303492,112.202534L380.040065,111.903109L381.368102,112.258072L382.405891,113.061111L383.856487,113.248447L384.618551,114.459788L385.383493,115.653483L386.259541,116.676297L387.271961,117.500074L388.476110,118.056771L389.626093,118.693122L389.966891,120.421228L390.312233,122.116855L391.665324,122.469542L391.869615,124.315327L393.314056,124.555134L394.939807,124.582770L395.100762,126.443501L396.953924,126.211086L397.784930,127.237295L398.567382,128.315746L400.274521,128.304748L401.324604,129.075728L402.180328,130.070322L402.745889,131.387408L403.659477,132.306276L405.038782,132.714157L406.775229,132.748973L408.354475,132.973919L409.255775,133.929133L409.377806,135.690843L408.774332,138.171835L406.682882,142.112416L404.704044,145.859730L403.412158,148.855865L405.865278,148.165707L410.393524,145.533015L414.326436,143.556226L417.733748,142.146220L418.422226,143.296052L418.749637,144.768081L418.234177,146.979989L417.067257,149.732963L415.549154,152.743307L414.405028,155.377377L414.663201,156.778869L417.970026,155.622360L420.729291,154.974033L422.882672,154.862012L425.551415,154.367096L425.379189,156.158388L424.509348,158.472138L423.991898,160.479225L423.494113,162.443813L424.188326,163.490841L427.401164,162.680461L430.085436,162.305212L431.775477,162.681873L432.967073,163.429608L433.386206,164.724059L433.929083,165.927124L434.038395,167.419680L434.374087,168.749249L435.566314,169.508697L436.325250,170.557951L438.004836,171.021000L439.621944,171.541869L439.570576,173.112997L438.246087,175.446789L436.715538,177.867507L434.148449,180.861335L431.235250,183.998588L430.065732,186.072296L428.657728,188.249012L428.123593,189.904727L427.771608,191.441309L428.550778,192.353065L430.915487,192.429007L434.250623,192.030541L438.955397,190.977706L442.888741,190.384033L445.392369,190.555700L446.114276,191.627929L446.457380,192.884254L446.316262,194.365022L446.684963,195.598760L448.217161,196.301170L449.736220,197.025725L451.356383,197.722027L452.205611,198.767631L453.440316,199.655834L452.442013,201.480776L452.759158,202.747484L454.112453,203.598484L455.054776,204.623734L457.228847,205.184347L458.197945,206.223643L458.339956,207.574882L457.989847,209.098586L458.334987,210.365108L458.021381,211.857535L457.553881,213.390771L457.097817,214.907003L454.523718,217.093572L455.183681,218.216902L456.852268,219.033934L458.278501,219.942809L457.553238,221.497734L453.858393,223.885444L449.898995,226.288018L448.738876,227.869021L453.282734,227.922472L457.748795,228.056783L461.699385,228.379371L462.920170,229.416144L464.025895,230.493036L464.711216,231.677388L464.961921,232.963492L465.326150,234.224818L464.102845,235.816359L463.381655,237.286497L462.637011,238.747514L462.237696,240.130411L463.157276,241.268031L462.874958,242.622404L461.879919,244.087735L461.392312,245.455994L458.113713,247.237925L457.974752,248.517721L460.439987,249.434127L461.562343,250.557927L465.518969,251.342907L467.151446,252.452521L467.410701,253.734117L467.176445,255.068479L466.733868,256.418018L466.742546,257.719173L466.705026,259.022717L468.067204,260.217121L467.700904,261.549274L463.944227,263.088976L461.835808,264.484045L461.690096,265.752461L462.510013,266.976753L465.783082,268.122948L468.761658,269.321272L468.133080,270.640637L467.258049,271.955043L467.961747,273.243014L467.269117,274.543615L467.342842,275.838190L468.145393,277.141915L467.414124,278.429304L467.636636,279.730578L467.375510,281.020144L466.368703,282.278376L466.727513,283.584841L465.816401,284.831496L464.435457,286.039365L463.820421,287.279393L463.957936,288.566252L464.959094,289.924059L466.099959,291.308712L466.707882,292.661228L466.472687,293.940211L464.476013,295.031506L461.479556,295.984947L462.761621,297.410121L462.073178,298.606209L463.248415,300.042982L466.307020,301.761628L464.935112,302.874518L464.458973,304.108747L463.295945,305.228843L462.656651,306.423388L463.647816,307.896330L465.746990,309.587003L467.205275,311.189435L468.331537,312.750759L466.455589,313.724143L464.355113,314.627903L463.436468,315.761541L462.328157,316.843733L462.590449,318.230096L463.024986,319.665220L462.744354,320.935819L462.103565,322.116131L461.068135,323.189603L460.413353,324.354182L459.715161,325.502242L459.647866,326.822183L460.760494,328.485948L460.312321,329.710382L459.604803,330.855179L456.191573,331.156524L454.462947,331.947644L454.087435,333.158249L454.498646,334.630446L457.135353,336.870784L457.139907,338.243029L455.838197,339.158325L455.026110,340.237866L455.239472,341.691158L456.131415,343.410877L457.288277,345.253502L456.764705,346.460666L456.279557,347.682575L454.038815,348.186902L453.138211,349.222137L453.474593,350.776231L452.650667,351.841892L452.804380,353.333359L451.691338,354.267481L449.720931,354.800646L449.111785,355.943330L447.839737,356.771340L446.305382,357.461194L444.803299,358.150611L442.169509,358.260640L440.902646,359.028168L440.044289,359.994203L439.357665,361.045271L439.337588,362.449187L439.514967,363.969709L440.906385,366.170892L441.697013,368.071786L441.730060,369.568012L442.021297,371.224904L438.888048,370.894883L438.002387,371.855410L437.881932,373.273361L437.312670,374.426327L438.433867,376.632367L438.486050,378.197318L438.366639,379.666394L436.819924,380.218521L432.789759,379.115909L431.680204,379.904436L431.156641,381.083185L431.128683,382.607266L433.679374,385.948159L432.572046,386.760641L431.156541,387.344226L430.214992,388.260187L429.177756,389.101637L428.216226,389.994298L428.005716,391.454626L427.050104,392.352077L426.778508,393.781277L426.386814,395.126640L425.136444,395.790315L423.942143,396.490028L422.822315,397.242885L422.149387,398.363671L421.363274,399.391875L420.475273,400.333485L420.042618,401.671729L419.486194,402.910370L417.942673,403.270550L417.806600,404.894390L417.103630,406.013740L416.620406,407.342896L416.316312,408.852003L415.899091,410.267750L414.277532,410.524379L413.362110,411.458839L412.449260,412.395954L411.415897,413.211294L411.110428,414.771295L409.438934,414.927084L407.547930,414.830837L406.253563,415.345539L405.458466,416.391262L403.838924,416.535879L403.768703,418.385877L403.322890,419.838932L402.015931,420.322924L402.218550,422.547498L401.068575,423.219579L399.834969,423.787099L398.790744,424.575886L396.650568,424.020904L395.676056,424.875354L394.026934,424.881495L392.891990,425.521842L392.968924,427.726818L391.953339,428.537342L390.984744,429.411083L389.310249,429.334406L387.730547,429.363372L386.681608,430.108562L385.490255,430.652934L385.450627,432.837390L384.655404,433.968349L383.849948,435.095736L383.389197,436.749122L382.015486,437.047353L381.120006,438.067911L379.115670,437.368359L376.411139,435.518392L374.515803,434.891906L373.084401,434.982633L372.754917,436.880648L372.934680,439.673250L372.443124,441.385951L371.689365,442.677079L370.212845,442.715313L368.886575,443.003208L367.627027,443.401357L366.235454,443.548299L364.951898,443.882771L364.056755,444.949525L363.191412,446.089645L362.043397,446.690569L361.136713,447.776073L360.048773,448.509135L358.944010,449.212848L358.106514,450.485771L356.079432,449.227721L355.019161,450.019681L354.115787,451.170190L353.074420,452.030476L352.780118,454.628491L351.593658,455.205516L350.215260,455.324720L348.725098,455.155865L347.520043,455.671259L345.995461,455.375920L344.761672,455.803077L343.348483,455.754060L341.999924,455.858354L340.780979,456.305259L339.458622,456.461219L338.506623,457.670351L337.452689,458.614470L336.152160,458.840903L335.052445,459.676373L333.683024,459.683245L332.360704,459.823344L331.209540,460.516349L329.165521,458.205075L327.089391,455.646580L325.009604,452.924145L323.163667,450.893440L321.943145,451.080787L320.785066,451.501699L319.828299,452.727162L318.633910,453.037034L317.168232,452.207816L316.190956,453.425602L315.395751,455.516607L314.624552,457.837048L314.031736,461.146268L312.976482,462.384986L311.867901,463.421585L310.770258,464.574562L309.479937,464.737250L308.251467,465.248291L306.812802,464.530799L305.464766,464.296310L304.294529,465.176662L303.128377,466.148753L301.985195,467.361333L300.740981,467.922767L299.284767,466.851409L298.001710,467.085010L296.678732,466.974617L295.424241,467.476716L294.155324,467.883527L292.850759,467.945857L291.578258,468.373043L290.118775,466.486212L288.878969,467.269445L287.550954,466.847043L286.228524,466.403018L285.016340,467.947465L283.731411,468.322739L282.410204,467.864947L281.130790,468.510232L279.801249,467.472317L278.488918,466.587813L277.206506,467.244495L275.910189,466.792440L274.619164,466.781720L273.328217,466.774811L272.033868,466.984214L270.743557,466.872409L269.447388,467.001862L268.114536,468.097055L266.793168,468.558436L265.624214,465.776752L264.422562,464.236432L263.202134,463.312501L261.958171,462.892087L260.507571,465.243268L259.078477,466.935467L257.735450,467.396715L256.536834,466.280643L255.339609,465.281551L254.309637,462.870862L253.128248,462.019565L251.872914,461.843287L250.814883,460.158637L249.712074,458.951295L248.479758,458.739785L247.166900,459.063907L245.420920,462.082907L243.525181,465.740339L242.186869,465.844489L240.911770,465.570062L239.705116,464.930676L238.484222,464.394178L237.215063,464.119567L236.018836,463.493662L234.868533,462.676860L233.576457,462.536749L232.128854,463.070318L230.549200,464.116165L229.071230,464.663191L227.892345,463.961561L226.823306,462.853051L225.833975,461.484889L224.756280,460.498104L223.227399,461.167428L221.776436,461.511966L220.423840,461.485425L218.986576,461.724521L218.010047,460.435047L217.089610,459.009753L216.342923,457.092642L215.298521,456.147499L214.216261,455.338732L212.783787,455.563746L211.212672,456.154958L209.842363,456.144969L208.314129,456.547180L206.926780,456.538994L205.692909,456.111682L204.534452,455.489654L203.395101,454.825400L202.242685,454.200327L200.378318,455.300592L198.520164,456.326211L197.192731,456.059978L196.246415,454.913694L195.617397,453.077797L195.009500,451.241642L193.819718,450.710551L192.564308,450.318501L191.369853,449.793455L190.288160,449.035456L189.002094,448.696561L187.947268,447.890421L186.665806,447.534204L185.604538,446.747166L184.386155,446.263072L182.980776,446.122690L181.687093,445.762688L180.776409,444.704429L179.943296,443.521890L178.761343,442.964986L177.664326,442.259336L176.248059,442.095419L175.453589,440.880203L175.184875,438.818488L174.807837,436.973373L174.298180,435.374168L173.328427,434.523993L171.313111,435.295063L169.488663,435.732634L167.646730,436.163258L166.081274,436.151651L165.232281,435.074585L164.021597,434.527058L163.361144,433.194195L162.851847,431.666552L161.667593,431.090182L161.079066,429.699634L159.539102,429.600386L157.550010,430.075371L156.577332,429.192023L155.572815,428.351928L155.217290,426.690950L154.878684,425.032172L154.501799,423.443692L154.720749,421.152304L153.243114,420.934503L152.126284,420.273871L150.784989,419.870547L149.148332,419.795409L149.226096,417.753690L149.233996,415.822200L147.861028,415.445102L145.819734,415.783579L143.963994,415.890335L142.212486,415.860185L141.111854,415.125849L140.823930,413.547885L139.710446,412.828912L138.053902,412.650698L137.139301,411.716940L135.274942,411.712617L133.899128,411.211796L133.818274,409.465682L133.736274,407.741809L133.350172,406.320437L133.714774,404.224908L132.152001,403.899072L130.643271,403.508148L129.922405,402.409774L128.803484,401.659523L128.552929,400.160848L128.593082,398.430877L128.284590,397.010907L127.186308,396.250477L126.402629,395.229149L124.961538,394.733018L124.512625,393.441991L123.738507,392.410988L122.961523,391.382530L122.101728,390.416719L120.175012,390.243316L119.543871,389.094962L118.911039,387.950666L118.968429,386.316567L118.273778,385.227777L116.836717,384.654653L115.431267,384.045994L113.643227,383.681768L113.248604,382.371903L113.690785,380.521006L114.360657,378.545499L115.872898,376.061055L114.804096,375.232970L113.185844,374.736161L111.705986,374.137741L109.443618,373.992242L108.662515,372.945352L112.387113,369.283824L115.382415,366.117033L119.012240,362.658083L123.786105,358.641086L121.755183,358.422262L116.337269,359.992131L111.455532,361.195450L105.429651,362.917979L101.946063,363.251204L102.071129,361.725633L101.637026,360.487740L101.605474,359.057067L101.935166,357.463149L101.553823,356.216793L100.783906,355.151923L100.385026,353.915608L99.000779,353.118803L97.940278,352.167068L98.447797,350.535806L99.972024,348.493813L104.197330,345.370946L108.097219,342.453598L109.541334,340.577762L108.206391,339.811161L102.937147,340.528986L98.775316,340.759144L95.037207,340.777386L93.892284,339.817251L92.905547,338.790939L91.782531,337.802916L91.280960,336.596004L90.003286,335.642198L90.254076,334.185765L91.136470,332.541305L92.749922,330.692215L94.056383,328.963951L94.777582,327.430431L94.945902,326.069411L92.003451,325.575578L90.894547,324.550553L90.952168,323.208778L90.886233,321.903978L92.225052,320.254942L91.730084,319.070355L89.927947,318.187981L88.653766,317.164690L87.739157,316.048563L87.100205,314.864946L86.909596,313.584144L89.327505,311.787483L89.145477,310.525081L88.689249,309.313977L91.269111,307.561667L88.305803,306.792172L87.392762,305.649635L86.684295,304.465320L85.229090,303.385665L84.918553,302.125262L87.700951,300.442953L88.600228,299.044051L87.822135,297.864571L89.249710,296.422186L91.334437,294.929935L90.669634,293.747554L88.767887,292.675244L86.934572,291.572686L81.494221,290.740172L81.454987,289.432605L81.549314,288.116767L81.278228,286.825705L81.802206,285.488890L81.623591,284.193507L82.440469,282.855935L85.328116,281.459570L85.963764,280.164233L87.258169,278.864370L89.748983,277.565721L90.223458,276.315197L89.493701,275.071646L88.047269,273.813728L84.809361,272.512801L80.605713,271.148917L79.848720,269.819562L79.563152,268.495228L79.861197,267.189814L81.029616,265.928416L82.156189,264.679719L82.953805,263.425469L83.796957,262.183996L82.441309,260.790502L81.544426,259.414323L80.943836,258.050448L79.979477,256.642636L81.077659,255.428212L83.252260,254.342894L83.606801,253.076820L84.577802,251.888389L85.221292,250.669109L83.791180,249.176344L84.377800,247.947795L85.034105,246.735171L85.698075,245.530153L86.110509,244.290661L86.469414,243.044939L85.580759,241.581104L85.748524,240.295533L86.305728,239.083173L87.103700,237.922724L87.859727,236.761375L87.717731,235.417218L88.269335,234.218797L89.072484,233.080997L88.652623,231.666164L89.349733,230.508916L89.180066,229.143425L88.414541,227.619794L91.048041,226.968143L90.614837,225.526876L94.061556,225.143636L97.144046,224.702458L95.133354,222.823730L96.195638,221.824416L93.292930,219.627145L90.805666,217.511343L92.149496,216.577154L91.715123,215.075693L92.668033,214.025674L92.585779,212.629836L92.584887,211.254881L95.702515,210.986810L96.020023,209.738514L97.142909,208.788182L97.464085,207.543614L94.623461,205.071224L95.330776,203.950570L95.279767,202.527687L96.315121,201.542972L97.078836,200.452955L96.641869,198.854482L97.697296,197.889947L97.477390,196.369110L98.717267,195.494585L99.506390,194.424519L99.837558,193.144468L100.844129,192.181991L100.516518,190.581424L100.886824,189.309455L102.037729,188.424756L103.448881,187.682086L105.239658,187.149826L106.686788,186.457260L106.845632,185.090498L106.553914,183.471185L106.462470,181.946617L106.471177,180.465617L107.133067,179.345705L107.878136,178.274256L108.371356,177.056461L109.012957,175.924224L109.341512,174.601801L111.149717,174.183408L112.807553,173.692059L113.176421,172.401751L113.797124,171.267424L112.991758,169.200323L112.404983,167.248937L114.171407,166.854482L115.171524,165.957519L115.981108,164.933928L117.421335,164.354516L117.324538,162.694326L118.053682,161.613533L119.264188,160.884758L119.223102,159.235021L120.644850,158.670600L121.868451,157.968227L124.003596,157.981572L125.374669,157.423542L125.563303,155.936022L126.076407,154.697126L125.322756,152.414154L126.141702,151.401410L127.512663,150.853027L128.646491,150.114608L130.171221,149.721144L130.876806,148.625451L131.880251,147.791050L132.293965,146.428875L132.433378,144.805184L133.138685,143.687110L133.551729,142.290363L134.874040,141.746132L135.747194,140.779882L137.002593,140.186270L138.108639,139.453927L139.068274,138.579808L139.770544,137.445016L140.995481,136.842959L142.118661,136.142761L143.322429,135.533226L145.099281,135.546488L145.677189,134.279427L146.686144,133.476925L148.250124,133.296608L149.115866,132.343505L150.489415,131.970825L150.738281,130.301319L150.098973,127.560361L150.220495,125.677298L150.640053,124.126876L152.107984,123.846088L153.519293,123.509930L155.441382,123.833059L156.669256,123.297839L157.616878,122.405657L158.503152,121.429722L159.359811,120.408760L160.269470,119.452749L161.017648,118.269444L161.987828,117.383818L163.015282,116.575618L163.934142,115.609998L164.478720,114.093117L165.634436,113.456324L166.543920,112.453423L167.942756,112.186657L170.176415,113.221814L171.483054,112.857062L172.763219,112.460227L174.261326,112.423950L175.051853,111.247990L176.098425,110.482480L176.870546,109.250309L177.793308,108.258710L178.986368,107.727418L180.526593,107.814133L181.690588,107.247536L182.671826,106.349088L183.862536,105.830467L184.728156,104.701672L186.055744,104.441506L187.080325,103.601935L187.954520,102.455914L189.101286,101.840289L189.989352,100.692936L191.240266,100.282469L192.343658,99.564280L193.284861,98.490001L194.624961,98.273962L196.361971,98.958281L197.619064,98.593207L198.981345,98.478196L201.096097,100.158358L202.662664,100.600202L205.157579,103.359513L207.296909,105.354811L208.417612,104.844709L208.646699,102.007532L208.647102,98.463701L209.296996,96.554603L209.808472,94.199425L211.101889,93.976889L212.546370,94.200771L213.564707,93.192286L214.927198,93.198321L216.325240,93.333408L217.500529,92.787574L218.573737,91.902873L219.458185,90.365948L220.748055,90.152200L222.113959,90.211863L223.490032,90.329687L224.881782,90.530028L226.178995,90.402305L227.179730,89.133488L228.295448,88.270044L229.724657,88.664478L230.807786,87.633872L232.111839,87.523444L233.445139,87.556330L234.692094,87.207516L236.035889,87.319900L237.216520,86.645119L238.487641,86.407325L239.581354,85.219537L240.864063,85.010029L242.562930,87.211421L244.291942,89.796961L245.802201,91.248903L247.034125,91.019445L248.086473,89.548681L248.886843,86.127171L250.031767,84.988862L251.254196,84.366085L252.402022,83.055892L253.689071,82.858423L255.085195,83.701639L256.321287,83.036879L257.648823,83.301465L259.006372,83.986321L260.243600,83.247289L261.646734,84.748575L262.965676,85.261871L264.197880,84.386344L265.417018,83.031890L266.666308,81.972538L267.930337,80.946339L269.236005,80.878154L270.547722,81.056223L271.879694,82.655637L273.208136,86.182546L274.490146,90.150741L275.711697,95.877883L276.895203,97.962132Z" />
<line x1="50" y1="550" x2="100" y2="550" fill="none" stroke="black" stroke-width="1.0" stroke-linejoin="round" stroke-miterlimit="10" />
<text x="125" y="553" style="text-anchor:start;fill:black">GC-content</text>
</g>
<g style="fill:pink;stroke:black">
<a href="" title="CP014854:1 [-8000-22099];"><path  d="M268.807828,45.083369L272.821370,45.010319L276.835575,45.007325L280.849221,45.074389L284.861085,45.211491L288.869946,45.418588L287.663864,65.382189L287.663864,65.382189L284.003600,65.193100L280.340593,65.067920L276.675960,65.006688L273.010816,65.009421L269.346278,65.076120Z" />
</a><a href="" title="CP014854:2 [227500-268599];"><path  d="M434.399733,109.193712L437.269174,112.000874L440.089187,114.857687L442.858912,117.763281L445.577505,120.716771L448.244139,123.717257L450.858001,126.763825L453.418295,129.855548L437.903661,142.476805L437.903661,142.476805L435.566001,139.653928L433.179431,136.872278L430.744679,134.132704L428.262485,131.436039L425.733606,128.783106L423.158811,126.174711L420.538887,123.611650Z" />
</a><a href="" title="CP014854:3 [301500-336599];"><path  d="M470.351860,153.601273L472.440807,157.029123L474.469611,160.492908L476.437655,163.991572L478.344340,167.524051L480.189083,171.089268L481.971324,174.686138L463.973818,183.409082L463.973818,183.409082L462.346554,180.124984L460.662223,176.869786L458.921337,173.644479L457.124428,170.450046L455.272041,167.287460L453.364742,164.157684Z" />
</a><a href="" title="CP014854:4 [378000-401599];"><path  d="M494.825371,207.347902L495.972582,211.194687L497.052483,215.060908L498.064745,218.945388L499.009059,222.846941L479.530010,227.381990L479.530010,227.381990L478.667811,223.819702L477.743572,220.273003L476.757575,216.742975L475.710121,213.230693Z" />
</a><a href="" title="CP014854:5 [601000-621099];"><path  d="M481.902349,375.456051L480.117637,379.051695L478.270444,382.615644L476.361333,386.146812L458.851652,376.481871L458.851652,376.481871L460.594753,373.257762L462.281320,370.003721L463.910840,366.720742Z" />
</a><a href="" title="CP014854:6 [845000-877099];"><path  d="M342.433618,494.892490L338.585695,496.035878L334.718402,497.111937L330.832919,498.120338L326.930429,499.060774L323.012120,499.932960L319.079186,500.736628L315.246213,481.107356L315.246213,481.107356L318.837153,480.373572L322.414739,479.577229L325.977883,478.718569L329.525498,477.797855L333.056504,476.815367L336.569825,475.771404Z" />
</a><a href="" title="CP014854:7 [1239000-1268099];"><path  d="M77.995354,393.697807L75.953796,390.241523L73.972870,386.750136L72.053178,383.224709L70.195307,379.666315L68.399820,376.076039L86.365053,367.286818L86.365053,367.286818L88.004410,370.564896L89.700728,373.813864L91.453490,377.032733L93.262161,380.220521L95.126192,383.376258Z" />
</a><a href="" title="CP014854:8 [1278000-1303599];"><path  d="M64.154186,366.891472L62.582571,363.197710L61.075661,359.477082L59.633915,355.730721L58.257771,351.959769L77.104921,345.267615L77.104921,345.267615L78.361400,348.710658L79.677778,352.131249L81.053652,355.528344L82.488605,358.900910Z" />
</a><a href="" title="CP014854:9 [1472000-1494099];"><path  d="M51.699142,219.893497L52.694892,216.004753L53.758360,212.133979L54.889219,208.282355L56.087127,204.451053L75.123029,210.585744L75.123029,210.585744L74.029287,214.083889L72.996763,217.600590L72.025771,221.134774L71.116608,224.685367Z" />
</a><a href="" title="CP014854:10 [1745000-1769099];"><path  d="M183.318096,64.062975L187.013419,62.495032L190.735542,60.991820L194.483334,59.553797L198.255652,58.181401L204.929073,77.035192L204.929073,77.035192L201.484783,78.288249L198.062887,79.601227L194.664426,80.973725L191.290436,82.405325Z" />
</a></g>
<text x="275" y="280" style="text-anchor:middle" font-size="25" font-weight="bold">CP014854</text>
<path  style="fill:pink;stroke:black" d="M350,550L375,550L375,565L350,565Z" />
<text x="405" y="565" style="text-anchor:start;fill:black">Selected loci;</text>
</svg>