<svg xmlns="http://www.w3.org/2000/svg" viewbox="0 0 550 650">
<circle cx="275" cy="275" r="240" fill="none" stroke="black" stroke-width="1.0" />
<line x1="275" y1="15" x2="275" y2="55" fill="none" stroke="grey" stroke-width="1.0" stroke-linejoin="round" stroke-miterlimit="10" />
<line x1="495" y1="275" x2="535" y2="275" fill="none" stroke="grey" stroke-width="1.0" stroke-linejoin="round" stroke-miterlimit="10" />
<line x1="275" y1="495" x2="275" y2="535" fill="none" stroke="grey" stroke-width="1.0" stroke-linejoin="round" stroke-miterlimit="10" />
<line x1="15" y1="275" x2="55" y2="275" fill="none" stroke="grey" stroke-width="1.0" stroke-linejoin="round" stroke-miterlimit="10" />
<text x="275" y="10" style="text-anchor:middle" font-size="15">Thermoplasma volcanium GSS1 DNA, complete genome.</text><text x="285" y="25" style="text-anchor:start">1,584,804</text><text x="525" y="265" style="text-anchor:start">0.39 Mbp</text><text x="285" y="530" style="text-anchor:start">0.79 Mbp</text><text x="-200" y="25" style="text-anchor:end" transform="rotate(-90)">1.18 Mbp</text><circle cx="367.678282" cy="53.616315" r="2.500000" fill="grey" stroke="black" stroke-width="1.0" />
<circle cx="445.978830" cy="106.577199" r="2.500000" fill="grey" stroke="black" stroke-width="1.0" />
<circle cx="497.754413" cy="185.666516" r="2.500000" fill="grey" stroke="black" stroke-width="1.0" />
<circle cx="514.972778" cy="278.614668" r="2.500000" fill="grey" stroke="black" stroke-width="1.0" />
<circle cx="494.962736" cy="371.002055" r="2.500000" fill="grey" stroke="black" stroke-width="1.0" />
<circle cx="440.828565" cy="448.496072" r="2.500000" fill="grey" stroke="black" stroke-width="1.0" />
<circle cx="360.968421" cy="499.074609" r="2.500000" fill="grey" stroke="black" stroke-width="1.0" />
<circle cx="267.771484" cy="514.891118" r="2.500000" fill="grey" stroke="black" stroke-width="1.0" />
<circle cx="175.695949" cy="493.491889" r="2.500000" fill="grey" stroke="black" stroke-width="1.0" />
<circle cx="99.026044" cy="438.196712" r="3.000000" fill="black" stroke="black" stroke-width="1.0" />
<circle cx="49.656026" cy="357.583856" r="2.500000" fill="grey" stroke="black" stroke-width="1.0" />
<circle cx="35.244961" cy="264.159276" r="2.500000" fill="grey" stroke="black" stroke-width="1.0" />
<circle cx="58.028524" cy="172.416481" r="2.500000" fill="grey" stroke="black" stroke-width="1.0" />
<circle cx="114.472163" cy="96.588079" r="2.500000" fill="grey" stroke="black" stroke-width="1.0" />
<circle cx="195.819443" cy="48.437780" r="2.500000" fill="grey" stroke="black" stroke-width="1.0" />

<circle cx="275" cy="275" r="185" fill="white" stroke="grey" stroke-width="0.5" />
<circle cx="275" cy="275" r="170" fill="none" stroke="black" stroke-width="0.5" />
<circle cx="275" cy="275" r="170" fill="aliceblue" stroke="black" stroke-width="0.5" />
<circle cx="275" cy="275" r="156" fill="white" stroke="none" stroke-width="0.5" />
<circle cx="275" cy="275" r="140" fill="none" stroke="black" stroke-width="0.5" />
<circle cx="275" cy="275" r="140" fill="aliceblue" stroke="black" stroke-width="0.5" />
<circle cx="275" cy="275" r="133" fill="white" stroke="none" stroke-width="0.5" />
<circle cx="275" cy="275" r="110" fill="none" stroke="black" stroke-width="0.5" />
<circle cx="275" cy="275" r="110" fill="white" stroke="black" stroke-width="0.5" />
<circle cx="275" cy="275" r="109" fill="aliceblue" stroke="none" stroke-width="0.5" />
<circle cx="275" cy="275" r="80" fill="none" stroke="black" stroke-width="0.5" />

<g style="fill:none;stroke-linejoin:round;stroke-miterlimit:10">
<path style="stroke:blue;stroke-width:1.0" d="M277.445400,120.793181L278.672394,120.635300L279.898576,120.596529L281.049360,122.489691L282.281348,122.061606L283.434924,123.183830L284.741155,121.638374L285.839210,123.366625L287.084911,122.907246L288.241380,123.569667L289.480997,123.267512L290.664138,123.575829L291.843417,123.892308L293.072315,123.769006L294.361884,123.203660L295.665432,122.620669L297.470759,118.629822L298.754001,118.522690L299.427282,122.259538L300.226882,124.901923L301.372209,125.356555L302.774568,124.395697L303.747774,125.763221L305.236464,124.471157L306.661002,123.606699L308.474064,121.040196L309.586499,121.785750L310.107501,125.024290L311.282261,125.362334L312.038739,127.364271L313.151506,127.881258L314.414554,127.823528L315.760218,127.489589L316.861934,128.051360L318.180750,127.859929L319.290510,128.390944L320.310108,129.202070L321.257684,130.214026L322.401359,130.594224L323.991285,129.650241L325.629014,128.636089L328.064559,125.444239L328.875146,126.896741L329.728096,128.186207L330.065211,130.786153L330.639115,132.679867L331.439807,133.940394L332.556422,134.392599L334.282770,133.388492L335.994894,132.481823L338.207314,130.490982L339.290660,131.132115L340.102942,132.361663L344.946711,124.911286L354.009441,108.917212L359.988599,99.940489L360.866611,101.644271L358.084097,110.553274L356.262879,117.277736L351.033017,130.258816L348.418430,137.887980L348.398215,140.499506L348.903291,142.091214L350.408645,141.880260L351.838394,141.829707L352.053002,143.870825L353.081171,144.501224L354.485080,144.514397L355.585893,145.038017L357.553110,144.192814L358.432471,145.093222L358.489530,147.243736L359.296651,148.215466L360.642780,148.380037L362.267596,148.156824L362.409743,150.083047L363.388080,150.793285L364.971720,150.666735L366.127848,151.148799L367.221762,151.721889L369.644569,150.552774L369.676104,152.538863L369.666115,154.537960L370.692765,155.199159L370.898341,156.874858L372.067182,157.353885L372.912435,158.228067L373.822379,159.023230L374.472999,160.117523L375.473406,160.804622L377.905556,159.893677L377.994327,161.616733L378.787743,162.547893L379.388676,163.680928L380.693944,164.065152L383.065491,163.362034L383.826778,164.344958L384.593906,165.318290L384.309448,167.324234L384.654677,168.684095L385.587913,169.467512L385.962449,170.778610L388.739909,169.854871L395.016291,165.804859L399.747541,163.295272L405.449793,160.039870L408.597261,159.135140L402.539567,166.148682L398.976596,170.877298L395.922470,175.066696L395.051642,177.378041L395.980065,178.206506L395.418989,180.211622L396.118884,181.206535L396.170250,182.694375L397.413334,183.272169L399.780783,183.034056L403.520593,181.841274L402.220495,184.313683L399.600739,187.662794L400.283259,188.657713L401.054811,189.592260L402.268364,190.234600L402.238593,191.703277L402.831194,192.755893L405.209089,192.678465L406.189421,193.507474L405.946852,195.090098L406.504692,196.173872L406.728672,197.452738L406.858502,198.777679L407.243304,199.947875L409.489115,200.076904L408.510133,202.003410L409.682436,202.743675L410.597570,203.631535L410.310865,205.146907L410.647040,206.330068L411.556496,207.224549L413.419857,207.662332L412.797795,209.311005L416.479771,208.927399L419.111807,209.085030L423.781485,208.370587L420.549837,211.198524L417.335642,213.948312L416.096083,215.800156L416.081663,217.117481L416.608235,218.209073L417.083675,219.322106L419.028274,219.873442L417.742491,221.659332L417.839257,222.910158L419.195776,223.707186L419.523236,224.878069L419.929597,226.021045L421.137698,226.900455L422.874706,227.624949L429.609685,226.815621L426.273125,229.168240L423.501506,231.290512L423.662582,232.521058L424.850993,233.463829L423.882843,235.000659L426.608581,235.554559L433.695626,235.051443L440.159928,234.814023L441.278900,235.935630L439.924709,237.631152L433.414100,240.424592L430.280613,242.396223L426.831877,244.375275L425.266778,245.928988L424.748222,247.259287L425.842384,248.291924L426.505808,249.411743L426.082231,250.713807L427.783514,251.681542L427.931877,252.898313L427.214085,254.232821L428.495297,255.296471L430.173813,256.330454L428.787743,257.733144L426.522812,259.203001L426.909390,260.379344L427.564297,261.536339L428.665642,262.666262L427.207527,263.997221L427.042751,265.220354L427.100679,266.427077L427.442028,267.619918L426.983516,268.849623L426.901938,270.059010L427.068493,271.260377L427.008824,272.467685L427.395610,273.669832L427.071629,274.878514L429.805150,276.103844L433.449743,277.386387L432.076663,278.611671L430.818477,279.819176L430.234079,281.033503L427.887741,282.156830L428.093597,283.383527L428.184768,284.607363L427.766439,285.797851L426.849261,286.943800L427.193899,288.185946L426.602964,289.346733L426.645956,290.564952L427.710851,291.898920L427.148679,293.059013L426.660903,294.221797L425.843357,295.334722L426.269047,296.614694L426.061124,297.808659L427.198421,299.216223L426.767456,300.383111L425.835984,301.458459L424.610964,302.468115L427.156821,304.184535L426.867588,305.379490L426.031320,306.459702L424.320804,307.340853L423.272207,308.346729L423.448743,309.625299L425.350724,311.328321L425.249769,312.567304L424.515403,313.645884L423.657973,314.684373L422.175067,315.541345L422.624314,316.927258L427.620109,319.656895L427.583243,320.962651L431.117646,323.380809L425.055692,322.809556L419.795759,322.401585L419.398745,323.542629L419.351071,324.803988L419.222654,326.042933L417.874259,326.844121L417.544417,328.007252L417.196036,329.164954L417.360829,330.524280L418.644134,332.341159L422.002892,335.037631L419.092171,335.186345L417.287184,335.761922L415.955000,336.519041L414.465564,337.190096L414.835692,338.689161L415.244225,340.222845L414.579738,341.264973L415.524343,343.084003L415.019603,344.215650L413.015347,344.592060L410.846864,344.855130L409.940156,345.747356L410.677948,347.511476L411.185950,349.177201L411.629092,350.829470L411.184254,352.001323L410.669665,353.136474L411.728643,355.196802L408.362170,354.650169L408.720697,356.309701L404.468861,355.137350L403.714267,356.088905L403.264716,357.233558L402.637115,358.266589L402.041514,359.321597L401.248350,360.244876L400.943726,361.500989L403.266998,364.601734L402.043056,365.254057L401.067272,366.073525L397.584019,365.044991L397.105003,366.192516L397.017030,367.642976L396.657015,368.899630L394.617009,368.847947L394.662966,370.426534L394.134613,371.560460L392.620316,371.888460L391.992859,372.939008L391.288364,373.928041L391.160903,375.418091L390.177114,376.174454L388.477131,376.286462L388.356249,377.805033L389.226607,380.257077L386.972427,379.833784L386.435572,381.001728L386.203447,382.473355L384.346010,382.368090L383.478000,383.218545L383.117751,384.583329L384.001973,387.245979L382.052561,387.001964L381.106011,387.788718L379.347026,387.696266L378.657304,388.747427L377.439690,389.217422L376.363392,389.836420L376.094816,391.379255L375.172781,392.181806L374.040699,392.734931L373.677874,394.209774L372.390215,394.571863L370.766390,394.500969L369.235611,394.520660L368.152397,395.093234L367.818445,396.642217L366.565540,396.994047L367.153951,399.827469L366.806985,401.443578L367.121043,404.015579L365.235396,403.517460L364.530699,404.688362L361.870441,402.993871L360.419850,403.029713L358.551602,402.406259L357.553611,403.087817L356.620415,403.872637L355.943407,405.074060L354.770571,405.484570L354.084973,406.698411L352.367760,406.184518L351.443123,406.997588L352.324555,410.994795L352.289593,413.477368L351.266623,414.227294L348.719754,412.147736L349.045239,415.411747L347.769858,415.685705L344.842889,412.691635L342.818652,411.370535L341.997438,412.441945L341.910938,415.073623L340.341688,414.624363L339.851842,416.489268L339.159720,417.961215L337.730411,417.796838L336.577436,418.246162L335.125215,417.982120L335.294104,421.626763L333.662170,420.937448L332.336440,420.973556L329.829841,417.911808L329.475050,420.424624L328.970664,422.631177L328.038282,423.727231L325.688443,420.781369L323.826647,419.100214L323.136192,420.857539L321.472441,419.660469L320.425383,420.349013L319.288245,420.759895L318.011723,420.702121L317.150031,422.067759L316.487823,424.214518L316.271576,428.131171L315.078005,428.537642L314.863849,432.827730L314.033259,434.867689L314.161303,441.096891L316.018635,455.365740L312.818662,447.613340L309.410498,438.238442L306.696551,431.502220L304.120317,424.881052L303.272892,426.944839L301.812726,425.733656L300.738694,426.660435L299.932713,429.319284L298.556702,428.524130L297.404774,429.161162L295.889319,427.203669L294.632062,426.979418L293.535508,428.031377L292.232751,427.388660L291.241645,429.593193L289.927038,428.807331L288.560620,427.277113L287.412651,428.118689L286.223881,428.564338L285.252889,432.441454L284.335027,438.305576L283.008244,437.732208L281.411402,430.369093L280.137966,429.176314L278.864759,427.221224L277.703012,429.846100L276.452351,427.472250L275.244709,428.348459L274.037158,427.021192L272.826529,427.376935L271.625249,427.044951L270.421918,426.941753L269.175590,427.995911L267.974117,427.695417L266.810977,426.756650L265.609134,426.667408L264.376600,427.020723L263.030371,428.744840L261.531195,431.912684L260.622695,428.227774L259.461442,427.585863L258.240189,427.565786L257.023284,427.493473L255.345883,431.068880L253.904776,432.432231L252.378138,434.223665L251.595752,430.846868L250.939919,426.997517L250.019055,425.097954L248.522007,426.657425L247.384803,426.089884L246.327333,425.134755L244.870905,426.242367L243.281884,427.882070L241.756587,429.081420L241.379037,425.050019L240.414066,423.815968L239.314615,423.207062L238.209615,422.642376L236.999582,422.503230L235.466166,423.569061L234.155280,423.739231L232.989650,423.366649L231.673631,423.511880L230.168982,424.257115L228.591336,425.176984L227.640290,424.054347L227.144954,421.575864L225.496876,422.645352L223.929803,423.404498L222.903345,422.573761L221.744674,422.128867L221.439890,419.383224L220.133495,419.383555L219.247128,418.284111L218.374968,417.179133L216.874603,417.645412L215.075473,418.787431L214.665166,416.599382L213.541985,416.121821L211.267217,418.231903L205.470600,427.981572L200.054785,436.486004L196.442413,440.813686L197.888833,434.480032L194.999623,437.161706L194.932641,434.105272L193.589643,433.628952L189.125409,439.111002L189.634344,435.036366L190.436712,430.549298L190.333712,427.838139L192.739097,420.757308L194.384546,415.232235L195.365720,411.017850L193.531073,411.654664L193.586784,409.131602L190.246224,412.171241L188.513343,412.525122L189.472257,408.637121L190.528066,404.710518L190.572760,402.420944L189.660951,401.605247L188.904690,400.567366L187.734203,400.135341L185.130887,401.714957L183.344872,402.085574L182.404909,401.266404L182.519315,399.035882L182.547975,396.967221L180.310743,397.882389L180.565984,395.561713L180.031720,394.283202L179.226642,393.356189L178.271975,392.616417L177.177846,392.042642L174.541517,393.278225L172.773220,393.443795L171.645007,392.848716L173.417404,388.991630L172.972711,387.678997L171.399371,387.608947L168.883945,388.523203L167.683911,387.997491L165.065226,388.931844L163.025228,389.219486L166.490584,383.943064L166.400692,382.317809L164.931029,382.058445L164.623242,380.667616L163.945787,379.641221L163.566148,378.343193L162.293915,377.872857L160.413738,377.935379L160.000600,376.670409L158.625032,376.253921L158.215796,374.994074L157.798756,373.751348L156.980401,372.851282L155.633810,372.381025L154.201503,371.964398L154.974388,369.788943L154.558798,368.576125L154.179122,367.344159L153.155996,366.604810L151.157461,366.579392L149.649210,366.166183L149.753134,364.580848L150.047883,362.880823L148.374739,362.565158L149.072855,360.614394L148.618218,359.465992L147.826497,358.543967L146.584904,357.909461L146.612687,356.456461L145.422294,355.777850L144.517702,354.912094L143.918382,353.856782L142.806662,353.104776L142.900124,351.643001L141.608037,350.985354L141.417733,349.697122L141.316084,348.368603L140.777454,347.285328L140.145948,346.251831L139.879516,345.027782L139.215738,344.011492L138.835378,342.851647L137.856475,341.987280L135.496051,341.775402L135.322389,340.502344L133.759189,339.874212L132.210554,339.219387L132.163980,337.883462L133.967362,335.759106L134.449764,334.234440L134.393111,332.949721L132.942196,332.234216L132.390648,331.146245L132.750223,329.705929L132.047370,328.679000L131.718064,327.510157L130.727507,326.579286L128.479035,326.076516L129.068243,324.576922L127.118473,323.934868L126.310092,322.897657L127.915911,321.096331L128.395917,319.672391L128.595002,318.346081L128.645713,317.071786L128.344547,315.902228L127.391955,314.909195L126.121884,313.988477L123.849539,313.305478L123.391928,312.144635L121.577057,311.302200L121.174467,310.111828L122.786351,308.476341L125.517549,306.635185L125.613872,305.379269L125.295518,304.209833L125.437955,302.952847L124.955148,301.813571L124.528035,300.660376L124.223555,299.483617L123.033173,298.441717L124.048770,297.061110L123.861113,295.865906L123.321930,294.716036L123.027653,293.530130L121.504677,292.481792L122.312222,291.164490L122.937934,289.879988L119.770496,288.948228L118.467326,287.814975L118.667087,286.551487L120.486581,285.185869L119.551978,284.010152L119.191703,282.791978L122.462568,281.416319L122.853475,280.191705L121.972875,279.007247L118.034546,277.865133L120.333485,276.596517L120.737080,275.369100L121.240752,274.148684L118.916035,272.898059L120.751304,271.699314L122.377419,270.523136L123.082108,269.337864L123.091620,268.131637L122.227561,266.878256L123.016505,265.711136L123.304751,264.520813L121.918990,263.204774L122.647959,262.044958L122.588720,260.821823L122.825583,259.625856L123.598014,258.490133L122.998917,257.204130L123.908739,256.095027L123.866101,254.871312L123.160151,253.550630L122.827617,252.271552L121.962520,250.900295L124.785189,250.122611L122.830977,248.557628L122.167858,247.192206L114.080034,244.400471L114.006781,243.061796L117.090197,242.370024L120.123224,241.714130L122.224150,240.896109L122.237274,239.625097L123.210416,238.579962L122.345572,237.089860L125.058351,236.498778L127.181360,235.791961L127.594190,234.647743L128.378976,233.610108L127.831979,232.192913L128.114164,231.008804L127.217788,229.460366L123.886631,227.118612L122.925966,225.483945L126.470236,225.331980L129.478581,225.051615L130.508582,224.120935L130.476792,222.818050L129.732682,221.243583L128.311579,219.391369L131.988801,219.484499L133.710483,218.859682L133.535211,217.487094L132.177274,215.611059L134.254975,215.161681L134.776384,214.066040L135.479235,213.051682L135.914714,211.920079L136.369688,210.796268L137.605093,210.040398L137.851369,208.821217L138.510156,207.799690L139.006417,206.699018L138.427471,205.046717L137.546066,203.213760L138.932313,202.558800L140.285096,201.902206L141.064204,200.944288L141.462448,199.775795L143.090661,199.308931L143.438238,198.115335L143.106586,196.511963L141.903390,194.360057L142.880538,193.512966L143.172265,192.242837L142.494638,190.345350L143.618684,189.589008L144.705126,188.817872L148.605974,189.949734L148.942535,188.716252L148.150043,186.688642L149.971386,186.476546L151.027307,185.740000L150.527394,183.872802L150.187272,182.094765L150.931156,181.110514L154.034172,181.941125L154.544276,180.803790L155.351403,179.896494L156.647209,179.385363L157.437509,178.473268L158.169683,177.513334L159.025095,176.656802L159.907384,175.825491L160.699955,174.918273L160.927301,173.508138L161.741929,172.612511L162.838020,171.975495L163.225121,170.684971L164.346478,170.077615L164.136151,168.196058L164.499512,166.843690L164.634244,165.248617L165.240054,164.106286L167.504870,164.658130L169.125321,164.583234L170.652241,164.433897L171.184871,163.236031L172.196546,162.550052L172.639979,161.236708L174.169874,161.134030L174.862255,160.092938L175.814891,159.347274L176.855032,158.706626L177.614584,157.732605L177.798469,156.047479L178.793653,155.341344L180.346094,155.341548L181.375096,154.694019L182.241680,153.837491L183.466248,153.452288L182.521745,150.150170L183.755610,149.751625L185.390097,149.923278L185.639369,148.158766L187.769594,149.073440L189.273960,149.124494L189.820649,147.770440L190.937232,147.258708L192.285521,147.110669L193.259056,146.390975L193.823299,145.013340L193.630759,142.375850L195.893580,143.740329L197.088215,143.372921L198.292479,143.031306L199.152568,142.096525L200.300668,141.663327L201.009232,140.436796L202.043875,139.790097L201.977341,137.060645L203.618767,137.536247L204.871312,137.289395L206.317146,137.442031L206.811024,135.677876L208.257476,135.849586L209.860093,136.382714L211.243356,136.483428L212.518471,136.370041L213.381478,135.339120L213.733282,133.100406L214.921691,132.764273L216.005747,132.181858L214.386893,124.900828L218.376906,131.515018L219.793984,131.790607L221.472000,132.793946L222.350298,131.690868L223.559754,131.477318L224.617462,130.839522L225.537665,129.785581L226.813816,129.769148L227.765942,128.769508L229.191450,129.241291L230.109253,128.099272L231.306723,127.853194L232.678656,128.218205L233.426480,126.395355L233.812446,123.144220L235.126412,123.235659L236.994545,125.533686L238.750552,127.554154L239.868593,127.051416L241.039408,126.762641L242.119098,126.059628L243.188608,125.274079L244.528197,125.767919L245.736474,125.653614L246.712545,124.312676L247.705640,122.964448L248.595226,120.904024L249.829618,120.771208L251.392743,122.765290L252.688074,123.178200L253.952264,123.435685L255.033140,122.344097L255.868144,119.126659L256.954756,117.672596L257.907149,114.762826L259.144637,114.291731L260.607043,116.240565L261.968781,117.370676L263.423434,120.008472L264.772038,121.709239L266.025516,122.274239L267.250313,122.473976L268.448031,122.138867L269.678873,122.623427L270.879484,122.297660L272.073326,121.372374L273.305598,122.616240L274.514329,122.731400L275.722096,122.651660L276.944819,121.498430Z" />
<line x1="50" y1="575" x2="100" y2="575" fill="none" stroke="blue" stroke-width="1.0" stroke-linejoin="round" stroke-miterlimit="10" />
<text x="125" y="578" style="text-anchor:start;fill:black">n1_4mer:GRV/n1_4mer:RV</text>
<path style="stroke:green;stroke-width:1.0" d="M276.526411,178.744637L277.254393,180.239299L278.118329,176.710056L278.699977,181.719932L279.483510,180.827759L279.977306,185.415837L281.076214,179.338033L281.700192,181.268756L282.624479,179.043307L283.454099,178.317704L284.179256,178.819380L284.752002,180.728051L285.091402,184.466802L286.097332,182.136379L286.658197,183.600236L287.648115,181.737426L289.091683,176.938379L290.694073,171.616732L290.722649,176.688420L290.198520,184.569933L290.762412,185.559572L291.607959,184.945314L292.656638,183.340045L295.051137,175.177663L296.367700,172.826142L297.877781,169.776483L298.136745,172.506856L297.440744,179.135399L298.314122,178.846378L297.358352,185.880023L297.901049,186.689631L299.269195,184.377271L300.012536,184.480135L301.357692,182.476160L303.201033,178.903892L302.733604,183.197097L304.595176,179.769254L302.912108,187.635450L303.180102,189.150784L304.684162,186.931564L307.927313,179.810109L310.862715,173.925466L310.823621,176.520543L312.002347,175.737367L308.987265,185.988553L309.090890,187.798397L308.901619,190.269928L310.531031,188.199505L312.900461,184.465409L314.717768,182.197085L317.219893,178.473905L317.312103,180.315131L318.153290,180.452605L316.443264,186.072786L315.802112,189.231407L316.562838,189.388869L317.492011,189.213062L315.873607,194.099669L315.681305,196.042085L316.038557,196.876448L317.593453,195.454928L317.921297,196.347738L318.156641,197.386450L320.517258,194.647867L323.286432,191.313735L322.163806,194.736404L322.691727,195.291769L323.740823,194.985288L324.193596,195.664808L327.019373,192.574180L327.482070,193.283894L327.371210,194.861207L325.498312,199.049118L326.250772,199.227462L327.310751,198.966487L329.377127,197.289842L327.632494,201.038565L332.374488,195.713336L330.656696,199.357386L332.578260,198.031843L335.538752,195.398183L334.474932,198.070686L333.133083,201.026015L334.755939,200.189624L332.656615,203.980046L332.445867,205.375200L331.911312,207.126662L332.244918,207.818044L332.677578,208.387521L336.186305,205.457287L339.155893,203.237607L337.197321,206.528894L336.989011,207.836049L335.922690,210.032635L338.701952,208.139344L344.736300,202.958327L347.801742,200.975206L346.851200,203.091234L344.796654,206.246491L341.361849,210.658741L342.527420,210.559534L342.501448,211.599320L341.808162,213.240211L339.054929,216.720520L340.275928,216.548909L340.421451,217.346719L341.941049,216.944055L336.383906,222.610618L342.467003,218.337317L343.286939,218.565994L347.419565,216.110844L349.358848,215.507118L347.833297,217.668925L349.195325,217.543752L350.885536,217.191570L348.455733,219.957508L352.584706,217.818513L359.114768,214.029035L353.841567,218.799532L351.147455,221.625470L352.804029,221.379286L353.457990,221.841223L351.555784,224.011039L353.279609,223.754267L355.148967,223.433712L358.663240,222.105948L359.168549,222.716000L354.082444,226.740189L356.908401,225.902725L356.199390,227.198786L353.179566,229.807404L354.278712,230.006903L358.227509,228.634443L356.229566,230.587781L359.121290,229.869429L356.776073,231.959164L355.751569,233.312683L355.484470,234.255557L355.327028,235.132247L362.111085,232.622718L359.821441,234.565135L359.565246,235.507105L356.027731,237.938912L356.163053,238.652422L353.909634,240.410122L358.185141,239.319595L359.222755,239.662563L358.111826,240.901154L359.416566,241.145366L357.477662,242.679731L359.530110,242.646255L358.565593,243.772826L360.220540,243.922238L363.700772,243.447673L362.900466,244.515345L364.419040,244.780837L367.209979,244.650145L367.947964,245.221989L377.247759,243.134307L371.692083,245.704854L362.919041,249.122173L358.611964,251.108664L361.100747,251.134323L367.483456,250.153099L374.019889,249.237058L380.329657,248.485294L387.831891,247.546248L388.354467,248.369316L387.090238,249.602453L382.086885,251.627253L381.138709,252.714392L376.890402,254.448548L368.446699,256.921552L365.016762,258.324482L369.657582,258.239977L370.769948,258.825135L368.219766,260.015093L373.557158,259.957795L371.899147,260.996153L370.590340,261.958226L373.754744,262.323279L369.121246,263.675918L365.268231,264.864936L363.753536,265.747007L365.724679,266.268122L370.861558,266.540304L374.316522,267.028511L370.422323,268.102110L370.756917,268.840754L368.338680,269.739107L366.703532,270.560413L367.064924,271.274372L363.912398,272.107902L367.245791,272.731519L368.107043,273.448930L366.294685,274.203145L368.611860,274.925216L376.534346,275.723994L377.350757,276.541489L374.267833,277.282470L369.708876,277.929169L372.036312,278.771523L370.566667,279.473572L371.906025,280.306651L370.874814,281.013027L366.012734,281.432970L364.180078,282.014515L370.970478,283.314798L367.863486,283.788005L371.303470,284.884595L372.788341,285.821218L372.960272,286.627218L367.827602,286.765150L369.916963,287.795459L366.585238,288.086530L363.366366,288.342403L370.018055,290.118281L369.484016,290.802454L368.719286,291.439498L368.462977,292.159516L368.340355,292.903206L369.049831,293.813665L365.461261,293.843007L367.998117,295.142126L364.561319,295.142528L366.542418,296.352041L368.680027,297.635329L366.641234,297.913274L366.400162,298.624590L367.059836,299.575452L361.689396,298.879756L364.476956,300.412639L376.239979,304.622984L376.125652,305.462081L377.183062,306.666499L374.164152,306.594897L368.213189,305.515072L368.071039,306.287757L366.050557,306.414251L365.028324,306.862607L363.440438,307.091973L362.870598,307.675983L362.842489,308.460739L363.075437,309.351621L363.493337,310.325567L372.669867,314.889470L367.892074,313.800404L365.373153,313.592699L362.966669,313.392573L361.463930,313.555755L366.364524,316.612623L364.062274,316.419851L368.250276,319.270229L366.121749,319.148461L364.285155,319.136177L362.841711,319.292796L360.252161,318.838338L355.892150,317.410694L359.027837,319.907684L363.391851,323.144908L358.808154,321.513724L360.599559,323.399717L362.814148,325.574960L364.956308,327.762962L362.709759,327.384399L361.504419,327.599550L355.409443,324.771038L354.296236,324.955961L351.725229,324.190368L349.279726,323.457844L352.064384,326.150146L354.320204,328.558252L354.501282,329.603272L359.708270,334.173505L357.625492,333.698886L356.488357,333.868822L348.472807,328.969990L346.759934,328.592963L347.986229,330.415719L346.623779,330.282027L346.074949,330.763290L346.918011,332.351800L348.779882,334.799743L346.511110,333.906502L345.389667,333.925768L344.678895,334.276753L345.332592,335.800703L341.998089,333.852794L343.429637,336.078349L341.507237,335.316734L344.071173,338.647429L343.473031,339.107630L342.660499,339.361224L340.478326,338.281989L340.721122,339.532316L336.406002,336.259132L339.089284,339.958039L342.333282,344.337186L343.172658,346.324512L341.770866,345.976189L340.815118,346.081259L338.407380,344.579528L335.785547,342.774205L334.515162,342.425803L335.895135,345.101819L336.781200,347.271455L336.482620,348.087651L337.219670,350.165714L338.135534,352.515318L333.076543,347.470134L330.941073,345.951033L329.359795,345.081327L328.774579,345.473698L329.925833,348.178454L330.614065,350.332233L330.475472,351.405049L333.758492,357.291305L331.820120,355.925865L334.006931,360.473612L330.194875,356.323470L330.228545,357.778122L326.241798,353.137649L325.690629,353.650128L323.979106,352.334410L323.668324,353.208797L323.253234,353.930141L325.770025,359.546171L320.426224,352.024556L320.664373,353.850613L322.386763,358.341612L324.130053,363.024794L322.587347,361.872307L317.783653,354.594421L317.353426,355.314665L316.581192,355.388769L317.830237,359.437592L315.551772,356.541975L315.282059,357.636659L317.146627,363.231176L315.878480,362.350540L315.926291,364.290153L317.267034,369.179752L315.831478,367.947038L314.067486,365.881788L312.479469,364.128894L311.356177,363.413100L312.244592,367.655638L311.613900,368.215785L309.526659,364.992368L309.145432,366.153412L310.230870,371.370405L311.378438,377.010551L306.840302,366.573592L303.581963,359.352854L302.990604,359.814367L304.741139,367.578894L304.580655,369.650142L304.077680,370.699425L301.851999,365.961090L300.251249,363.105382L298.814789,360.651934L298.125125,360.801847L297.233473,360.175770L298.367465,367.515749L296.335815,362.384644L295.454744,361.755779L294.189322,359.378631L293.166346,357.915510L292.416312,357.620471L292.506250,361.437385L292.234567,363.705595L292.898051,371.188126L290.995099,364.919977L290.462961,366.112606L290.431547,370.512481L289.007942,366.292791L289.004915,371.364013L287.887805,368.903072L287.006098,367.943871L286.337926,368.607279L285.308648,366.159043L284.897821,369.210641L283.620140,363.821424L282.977710,364.584593L282.665278,369.556536L282.001279,370.790997L281.650589,377.125200L281.273616,384.749715L280.386798,384.462903L279.064211,373.489034L278.272729,373.205672L277.316596,366.243746L276.659973,370.094030L275.844472,363.655241L275.146057,366.527334L274.461423,360.034802L273.740567,363.295926L273.038732,363.362354L272.284915,365.110827L271.401595,369.523107L270.828694,365.656124L270.136051,365.137312L269.505475,363.739455L268.481173,368.284342L267.327195,373.553942L266.112441,378.540787L265.614582,375.026175L265.158364,371.643111L264.572639,369.921033L263.702693,370.833159L262.329568,375.613021L261.105311,378.695125L260.165073,379.415431L259.940628,375.279059L259.957443,370.030073L260.784720,360.412479L258.705458,368.329895L257.905225,368.529934L258.424005,361.794610L256.899027,365.863467L254.346485,374.550432L252.596797,378.837632L253.828670,369.487432L253.968172,365.495513L253.396684,364.721998L252.893587,363.714574L251.510656,366.176735L250.840965,365.790212L248.115983,372.900243L248.408185,368.913488L247.552277,369.083880L246.061202,371.346720L243.976213,375.392003L243.672235,373.597300L245.307076,365.946857L245.230945,363.787581L241.207027,373.198744L242.072566,368.273268L242.019344,366.115894L242.062017,363.791681L242.200143,361.314226L241.426067,361.284544L241.514199,359.079107L239.670281,361.702587L237.742635,364.398131L239.829389,357.541650L238.155646,359.603162L238.307941,357.461070L237.208485,358.150516L238.668610,353.283996L238.809392,351.388524L238.469778,350.551196L236.944120,352.139715L236.444227,351.615826L235.839839,351.303992L235.976314,349.576381L234.646514,350.651328L234.810542,348.926194L233.573124,349.783090L230.963199,353.028387L227.860933,356.999374L228.886739,353.762897L227.396946,354.848595L226.834525,354.354589L227.718806,351.523080L228.999961,348.146092L227.607913,349.050149L226.651415,349.241463L224.381023,351.396170L222.954317,352.212679L227.101090,344.859089L225.234722,346.361234L219.248954,353.608670L216.949656,355.490437L219.232193,351.047233L218.885125,350.261748L221.508536,345.568549L217.899709,349.101544L215.565870,350.878172L216.337105,348.682475L215.620963,348.380287L214.294240,348.815153L215.576935,346.098746L210.516229,350.922169L210.787889,349.398568L210.271455,348.805587L211.599256,346.145594L213.239270,343.208585L211.430215,344.097328L206.266800,348.530937L205.806495,347.856666L200.023324,352.702720L200.285093,351.212687L202.936941,347.351053L207.637797,341.567312L203.340694,344.699333L205.756496,341.289281L207.469217,338.631117L209.399944,335.837161L209.363006,334.910386L209.243575,334.070454L207.765317,334.441855L206.236213,334.829044L204.532140,335.336657L200.966687,337.378941L200.455143,336.805919L202.319054,334.294387L203.255643,332.588866L202.261440,332.444499L204.428703,329.829978L200.018188,332.309072L201.025628,330.615443L194.711003,334.372310L194.997967,333.184556L195.054531,332.179738L198.180699,329.028243L197.617558,328.512275L197.147415,327.929826L199.350495,325.559585L197.408433,325.972154L198.067911,324.670157L198.362915,323.623074L195.885431,324.319477L194.416095,324.352507L191.826776,325.035794L187.660386,326.603516L195.035516,321.394578L192.695956,321.883648L192.425037,321.174633L193.150591,319.920713L191.640789,319.892964L190.273793,319.766155L189.240452,319.445895L189.295818,318.558608L190.191913,317.260378L189.428708,316.797002L184.993735,318.082684L188.738910,315.452464L183.382336,317.081490L182.656130,316.531548L185.279092,314.499570L184.505441,313.986497L186.066193,312.480864L185.078010,312.060448L183.305979,311.942958L185.471382,310.248009L185.852296,309.284117L186.800926,308.118930L187.073436,307.223446L183.177786,307.827631L177.854034,308.864625L182.017449,306.588660L179.244811,306.685956L179.282278,305.833664L182.203381,304.082572L185.281624,302.338491L185.299518,301.557593L187.179205,300.245435L185.797181,299.878680L186.262715,298.992145L186.381765,298.207508L185.650940,297.643387L187.150541,296.523499L182.816244,296.812078L183.467186,295.893049L183.927349,295.029604L186.801751,293.665522L186.766823,292.943162L184.086364,292.738761L187.935845,291.272117L187.559221,290.625991L182.120310,290.839015L185.906868,289.467261L182.746046,289.230679L183.972627,288.303402L182.961467,287.706640L176.530168,287.799706L173.299132,287.400482L167.893830,287.198468L167.999467,286.327751L174.480974,284.836259L174.767377,284.006455L173.714385,283.292024L179.218771,282.077305L180.971039,281.198599L181.932023,280.394450L186.189087,279.441437L185.498561,278.764779L183.096645,278.136024L179.294791,277.506186L173.396620,276.854594L183.344028,275.946102L186.019988,275.212900L182.365047,274.487110L180.075183,273.721673L178.129379,272.927117L181.540868,272.258572L179.403397,271.437016L183.503491,270.863091L179.143043,269.904017L182.611060,269.353411L178.192007,268.312453L176.527263,267.412461L176.719292,266.642838L181.632813,266.314445L182.803775,265.685438L182.938551,264.961015L180.039816,263.882322L181.702873,263.326395L183.488515,262.812091L181.734607,261.825040L185.565203,261.642030L183.021858,260.515665L187.223666,260.463178L182.540225,258.933289L175.738928,256.939457L166.355044,254.340758L163.492182,252.878824L169.476587,253.194980L176.361584,253.800789L177.053576,253.135588L181.803166,253.418630L185.536475,253.534331L190.087245,253.912800L188.371425,252.755974L184.234890,250.925079L186.234039,250.700368L182.192747,248.801287L185.325572,248.916201L184.381059,247.860313L181.810298,246.283249L183.344450,245.958262L177.790111,243.347981L183.725582,244.478039L182.890064,243.384431L185.892266,243.622924L186.335997,242.986730L186.498790,242.249977L181.428556,239.527671L186.632860,240.696770L191.204174,241.704364L191.706394,241.136751L187.697047,238.697445L191.179638,239.363433L191.185729,238.578636L194.860601,239.417476L194.120166,238.318237L193.047946,237.045619L192.284881,235.892719L194.561238,236.185618L189.799908,233.052025L193.804738,234.220751L191.822728,232.396093L190.563102,230.902263L193.851945,231.797513L195.926565,232.093881L196.645040,231.676015L195.654371,230.303121L198.180806,230.920278L197.614912,229.776172L195.761933,227.846468L192.765344,225.176056L191.935293,223.768360L191.217804,222.404263L188.068154,219.461229L185.785002,217.001330L190.399327,219.041804L199.620506,224.277302L200.764704,224.187463L195.548589,219.686919L196.915129,219.713915L200.438046,221.315597L198.080862,218.687003L197.145325,217.048323L194.901306,214.385063L203.645062,220.106727L204.496348,219.866241L202.791599,217.604659L201.274075,215.438434L202.815142,215.731364L199.625541,212.105326L199.401663,210.894905L204.358999,214.129139L207.544368,215.935490L204.364530,212.154767L204.429019,211.202467L204.835783,210.551836L207.314837,211.832142L210.664495,213.996658L206.163401,208.684243L206.241526,207.700182L204.474553,204.867147L206.417082,205.708653L208.219563,206.451050L210.106867,207.322913L212.954643,209.257205L212.033736,207.212582L214.154073,208.444635L210.963955,203.830112L212.376002,204.279644L212.163609,202.895869L216.930327,207.289069L216.562938,205.757091L215.904633,203.839860L216.307185,203.173371L216.536359,202.284625L216.235409,200.711677L217.886291,201.610117L218.779181,201.563402L220.810279,203.041444L214.437182,193.237454L215.340236,193.106872L219.288604,197.238518L215.930896,191.155493L219.405892,194.743870L222.859984,198.440405L221.142470,194.554801L221.928699,194.353160L223.869384,195.944188L225.220133,196.677683L225.703613,196.062663L222.426473,189.310135L227.682473,196.486991L227.189546,194.227234L227.670199,193.573147L227.928865,192.519720L227.675593,190.526968L229.690681,192.598272L230.163360,191.904060L229.629959,189.296271L231.286921,190.818714L232.542246,191.626375L231.988590,188.856780L233.138486,189.469532L233.031921,187.501428L234.457531,188.725897L237.764480,194.102759L236.188773,188.888170L238.651516,192.614687L240.221399,194.449425L241.477596,195.635524L241.466530,193.819416L240.369200,189.242073L241.318084,189.648798L241.871451,189.061552L243.573137,191.509300L243.163664,188.343524L242.241269,183.600343L243.130699,183.811785L242.589904,179.848542L244.905027,184.295193L246.065993,185.424083L246.662177,184.831583L247.089287,183.664831L248.208359,184.773202L248.482280,183.029419L248.574413,180.541679L248.710919,178.073902L249.581990,178.255573L250.601596,179.046945L252.826254,184.807545L253.205004,183.214927L252.879631,178.444998L254.028779,180.006821L254.471622,178.379572L256.267592,183.260228L257.649729,186.452901L258.541595,187.326048L258.089603,180.805394L258.053375,176.100963L257.881234,170.106615L260.113188,179.000304L261.196725,181.075431L261.703933,179.255295L262.265646,177.639955L262.657127,174.438673L262.921881,169.696951L263.498104,167.175311L264.009199,163.598413L265.063757,165.399707L266.199302,168.544262L267.246144,171.188384L268.625170,179.457743L269.437479,180.338259L270.211516,180.755114L270.762400,176.134383L271.628080,178.441206L272.431042,179.796902L273.233254,182.259557L273.959351,181.410571L274.711925,184.681983L275.427926,184.715889L276.228613,178.027440Z" />
<line x1="50" y1="625" x2="100" y2="625" fill="none" stroke="green" stroke-width="1.0" stroke-linejoin="round" stroke-miterlimit="10" />
<text x="125" y="628" style="text-anchor:start;fill:black">n0_4mer:PS</text>
<path style="stroke:red;stroke-width:1.0" d="M276.958114,151.521445L277.892824,153.403610L278.947288,150.581202L279.777769,154.547745L280.914166,150.778083L281.609457,156.039527L282.873911,151.035660L283.680875,153.560301L284.560616,154.676368L285.762054,151.923588L286.447043,155.057416L287.219756,156.872433L288.165076,156.891885L289.353968,154.884510L290.348205,154.670731L291.346731,154.465188L292.696876,151.850457L294.292265,147.913967L294.826909,151.025043L295.701034,151.830379L295.597337,158.124828L296.231263,159.875996L297.592774,157.715344L299.682812,152.119389L302.201811,144.929195L303.976736,141.725100L304.540565,144.138663L303.502873,153.238595L304.647622,152.725344L304.093430,159.034128L305.261734,158.305570L307.257639,154.547909L308.670415,153.147443L311.026693,148.534904L312.283355,147.955531L313.255196,148.368852L314.099457,149.186575L311.673119,160.213595L312.021849,162.214861L313.069102,162.054712L316.679028,154.509692L321.252336,144.643631L321.799800,146.346929L323.368152,145.247415L321.146338,154.144369L320.521960,158.558688L319.276288,164.340591L321.586576,161.191373L323.725904,158.606170L326.160270,155.461002L329.367396,150.701427L329.212491,153.684767L330.561094,153.267530L330.784545,155.299867L331.597979,156.027506L332.247769,157.081048L332.344059,159.228327L333.230106,159.746291L335.053349,158.443088L335.053920,160.677620L333.316327,166.091796L331.550156,171.373174L332.965306,170.754325L334.558439,169.860811L335.779787,169.661229L338.230302,167.394363L337.713214,170.186029L342.075963,164.885655L343.776326,164.083468L345.370755,163.496018L347.452148,162.189904L344.307736,168.944816L343.970990,171.265691L343.572758,173.617489L345.561043,172.439745L348.351094,170.174213L351.030740,168.158348L349.908446,171.482898L349.578635,173.640715L349.997568,174.746455L353.913296,171.237672L355.519068,170.850631L352.659091,176.179292L353.597742,176.600966L351.296804,181.019533L350.721484,183.225023L351.346643,183.947775L353.226540,183.194262L352.858690,185.080130L358.556221,180.032241L358.693103,181.384011L354.880626,187.061891L357.100939,186.045145L356.793198,187.776526L359.079891,186.750952L364.811045,182.219943L365.387736,183.093772L366.596368,183.330247L367.484301,183.897921L366.066560,186.706240L367.907710,186.339481L363.867802,191.530989L363.987194,192.737142L366.404735,191.836682L369.361888,190.503993L370.997983,190.400857L371.368538,191.422485L366.556724,196.858994L370.794510,194.546241L368.665590,197.592452L368.821421,198.707574L370.003061,198.990136L368.368694,201.504390L371.026263,200.638054L372.599041,200.650558L373.114217,201.480196L376.658072,200.075958L382.255721,197.255212L380.414587,199.857543L378.982838,202.114633L378.096619,203.948226L378.638325,204.780426L376.553645,207.361546L382.322568,204.741300L383.650416,205.096433L385.368357,205.222287L386.126262,205.970350L380.003885,210.921711L381.845784,210.954837L378.966107,213.796263L378.612638,215.105525L381.595745,214.503650L387.214699,212.485850L380.704891,217.205910L385.280969,215.834916L382.120484,218.619753L380.275244,220.652543L379.994193,221.847759L382.214360,221.787580L390.056026,219.028230L384.920994,222.600035L385.783678,223.262810L385.346580,224.528830L386.664718,224.992739L383.862232,227.280462L384.769330,227.916902L385.193974,228.765789L384.939000,229.894590L388.993132,229.283904L387.402939,230.953005L389.523503,231.166339L385.006770,233.892166L387.805096,233.862852L389.820312,234.156522L388.155702,235.756606L388.477379,236.650322L389.560591,237.293697L396.571996,236.051625L401.547493,235.561252L395.526099,238.483777L387.800311,241.798695L386.896569,243.026602L389.571685,243.242659L394.006714,243.027275L398.911893,242.760669L405.174674,242.231041L411.078192,241.890061L412.008532,242.812200L413.540915,243.609225L406.953418,246.199891L405.826336,247.530810L401.448313,249.495180L398.920745,251.025962L398.340523,252.151287L398.780969,253.083405L403.664796,253.269428L399.640669,254.964240L402.195296,255.586923L400.148440,256.913570L401.964926,257.677665L401.892122,258.711406L396.651717,260.363624L392.256546,261.834764L392.918390,262.706428L394.445685,263.503843L399.206538,264.038886L403.285355,264.703372L396.854743,266.191363L397.320797,267.132121L396.971695,268.125251L395.435614,269.169425L394.906922,270.147679L394.266451,271.120560L394.234093,272.067831L393.837940,273.020279L396.915666,273.935873L397.454759,274.902174L404.511200,275.923484L403.445797,276.934502L401.400355,277.906329L398.516677,278.820141L399.713865,279.847270L400.027445,280.852661L399.169163,281.799602L399.422517,282.803467L398.216366,283.709190L398.698479,284.729582L401.058036,285.921558L402.386435,287.055036L403.136078,288.151896L406.274263,289.526756L404.629009,290.386081L400.400893,290.893552L397.372310,291.496629L391.226339,291.607474L391.883748,292.648231L395.662342,294.198532L395.498998,295.153460L401.813668,297.244653L396.850878,297.371448L394.861604,297.990131L396.648214,299.334427L393.326432,299.647300L393.548081,300.675900L390.110594,300.888613L392.612721,302.432874L396.215874,304.288646L392.602210,304.404358L391.236964,305.044264L390.966393,305.957328L388.749140,306.333726L393.652927,308.699001L399.722985,311.494150L398.391932,312.169352L399.121489,313.465210L399.739166,314.743405L396.979075,314.932119L396.109764,315.713556L394.112964,316.096339L394.910051,317.438275L390.773623,317.010239L391.654513,318.379708L390.467478,318.983579L390.336406,319.984080L391.010256,321.310018L396.144184,324.476645L391.692919,323.741859L391.248150,324.642286L389.408492,324.932962L390.514108,326.509730L392.730025,328.620978L389.204836,328.112806L395.452661,332.184462L391.007109,331.205410L388.048954,330.883295L388.066283,332.011888L384.356004,331.233009L381.835675,331.012545L386.390159,334.531154L385.947218,335.430272L386.503091,336.884480L384.205989,336.747269L386.845741,339.415519L387.855437,341.194214L387.072090,341.934731L387.286289,343.276376L380.082102,340.042676L379.764052,341.000471L375.044104,339.140653L375.123027,340.317231L376.791470,342.562319L377.999807,344.547093L378.760735,346.265211L382.580147,350.150802L379.741733,349.410729L377.782458,349.252108L374.564014,348.135477L373.285088,348.402926L372.563987,349.076693L375.828589,352.823439L371.353655,350.596211L370.565483,351.209734L371.128904,352.913974L368.617255,352.116199L366.226880,351.369363L363.696028,350.454877L363.909248,351.859741L361.456530,350.945575L364.108092,354.535350L365.883131,357.423716L364.888253,357.829868L366.184935,360.371569L364.687582,360.314218L364.542081,361.538576L363.551164,361.949393L360.667418,360.462520L358.615869,359.749315L363.330101,365.958891L362.918977,366.983770L360.910132,366.320874L358.186099,364.842165L355.901056,363.776059L353.469728,362.491577L351.044314,361.151978L354.287475,366.274881L353.937489,367.340828L355.888478,371.156423L352.827715,369.021323L354.433164,372.524904L350.946279,369.768675L348.225276,367.872887L345.320844,365.658511L346.428075,368.609298L347.474993,371.559444L347.716742,373.498727L347.993293,375.531927L350.097025,380.173430L349.900581,381.676901L348.331185,381.222797L344.939451,378.047952L344.004803,378.426372L339.868817,373.917233L340.389453,376.456401L338.899750,375.893010L337.219186,374.984699L338.685688,379.173751L337.796524,379.573626L337.840256,381.551731L336.033580,380.389276L336.942555,383.941655L337.024685,386.127705L334.590188,383.783899L330.573074,378.387775L331.420578,381.990158L331.194588,383.640795L331.097047,385.592419L328.780454,383.142363L329.368755,386.534824L331.704802,393.707753L331.768649,396.305199L330.724590,396.576059L330.318106,398.260258L326.831013,392.985913L325.920235,393.454563L325.390874,394.833151L324.540743,395.476106L323.262739,395.066152L321.535709,393.475842L319.273252,390.396477L322.828036,402.679997L323.356192,407.273369L323.078833,409.820200L317.012891,395.830239L313.437713,388.439752L313.069782,390.355295L314.115629,396.760018L315.133038,403.414932L312.719386,399.140703L309.972591,393.469577L308.148579,390.660345L307.357711,391.377287L307.189255,394.432761L306.424978,395.388153L305.722097,396.633984L304.975007,397.768000L304.513379,400.176644L302.963484,397.960075L302.434068,400.215592L300.252132,394.792471L298.548490,391.271040L296.764992,387.023502L297.665889,396.811554L295.967360,392.872642L295.614605,396.467704L294.623582,396.458789L293.015893,392.413482L292.525274,395.586650L291.428263,394.699545L290.298880,393.434576L289.230770,392.490941L288.350430,393.057424L287.546544,394.422032L286.220610,390.616513L285.432570,392.151109L284.977782,398.082892L283.999896,398.135927L283.417369,404.255552L282.658689,408.979967L281.551578,408.131917L280.106724,398.752508L279.082282,397.498147L277.987430,392.665877L277.152808,398.326823L276.122038,392.794956L275.186253,391.716328L274.239574,395.062042L273.272885,396.083991L272.279070,397.587921L271.373978,395.343890L270.367617,396.683698L269.480703,394.952386L268.548549,394.556456L267.611315,394.331130L266.318106,399.237804L264.965079,403.894327L263.671007,406.983695L262.823870,404.768505L262.108155,401.595616L261.135560,401.209010L260.003156,402.215712L258.752824,404.015135L257.584434,404.971189L256.687028,403.895608L255.977557,401.668811L255.483286,398.295181L255.189972,394.028508L253.847170,396.156602L252.801739,396.452427L253.106643,389.637185L251.621117,392.357578L249.404965,398.368679L247.114015,404.250033L246.998971,399.968310L246.257662,398.672207L245.966095,395.582412L244.472406,397.509358L244.485369,393.446239L243.862118,392.016880L240.421047,400.921953L239.510638,400.336677L237.376549,403.963712L237.042772,401.372023L235.941114,401.393334L234.933399,401.100880L234.649009,398.591594L232.608361,401.435022L232.713502,397.880015L230.317097,401.572887L230.103177,399.036772L230.827688,394.076322L228.463569,397.462610L230.218214,390.088572L229.595462,389.005726L229.813426,385.892274L227.679050,388.545457L228.351582,384.478832L226.355683,386.698607L226.802415,383.318380L224.433843,386.257831L221.959470,389.287527L220.260341,390.540521L219.142337,390.523889L216.996456,392.573866L216.639978,390.969695L215.600244,390.741061L213.104612,393.285444L213.967954,389.417757L212.006035,390.873771L212.344659,388.104353L212.281682,386.129988L211.295189,385.815826L212.286340,382.116901L210.055271,383.937240L209.628778,382.701761L209.186551,381.516935L210.308134,377.868547L210.490909,375.795472L209.993489,374.820471L209.614064,373.683052L204.887730,379.015470L209.791111,370.105161L207.191905,372.233846L203.799133,375.392833L202.662290,375.300764L202.878946,373.347180L202.935606,371.653379L204.601991,367.872488L200.152303,372.133129L197.292516,374.207338L198.667624,370.875910L197.115959,371.248670L194.808618,372.508690L194.637808,371.152077L190.139157,374.913812L189.136173,374.485061L188.506666,373.622506L191.638944,368.544200L192.539117,366.069846L190.970186,366.336403L185.823138,370.401615L184.614505,370.170578L181.744169,371.646479L182.160449,369.700669L183.303632,367.062824L188.495666,360.483561L182.552346,364.919093L184.888058,361.267384L185.514347,359.318170L188.571625,355.153239L188.059414,354.355311L187.731133,353.395558L187.184562,352.637200L184.768398,353.507463L181.786058,354.812522L179.810702,355.204537L177.874785,355.527531L178.487521,353.736567L179.579815,351.593344L180.618360,349.536890L182.826520,346.613675L178.150667,349.022556L173.591282,351.241144L171.790220,351.321828L171.452449,350.308939L174.378715,346.967789L175.815006,344.758393L168.573128,348.597368L169.527656,346.707738L172.258185,343.666458L171.208182,343.183859L170.583489,342.415101L169.469274,341.954899L166.018672,342.938210L164.362894,342.758178L162.149774,342.889043L159.192736,343.423270L165.749017,338.386306L166.243198,336.952189L167.796349,334.946611L170.799541,332.187449L167.166388,333.073612L167.608512,331.741641L163.879711,332.589398L164.405995,331.208703L164.236194,330.194268L164.362332,329.040586L160.334921,329.885950L162.033911,327.975875L161.583676,327.093970L158.763975,327.277017L161.661871,324.897036L162.006098,323.679572L159.427782,323.707536L160.136482,322.339849L156.748832,322.642669L162.197703,319.411010L164.371162,317.545257L161.869003,317.480917L161.933016,316.436941L155.491629,317.725791L151.378353,318.093922L154.091080,316.075995L150.083280,316.335678L151.964003,314.633732L157.951023,311.683291L157.947877,310.667480L158.473078,309.500088L160.279325,307.978219L155.774016,308.252145L157.499120,306.769037L155.398142,306.321556L156.635914,304.996553L155.839392,304.194866L153.357766,303.782401L154.074217,302.602214L152.728128,301.891248L158.241664,299.709734L155.808846,299.238798L154.469203,298.517562L159.139081,296.654174L157.516796,295.994684L155.568475,295.366969L156.605112,294.225384L157.021316,293.198860L157.027630,292.241340L156.916690,291.302325L150.835674,291.139633L144.462803,290.916523L142.054216,290.141377L140.277343,289.262589L147.165070,287.509249L150.441406,286.192277L146.316892,285.534994L150.064888,284.231494L148.899327,283.312837L148.718801,282.319571L152.015941,281.150437L159.298920,279.866838L157.446282,279.011292L153.403465,278.184190L150.353779,277.275201L154.058604,276.248396L158.276434,275.279281L155.575797,274.338786L152.704759,273.353083L151.148253,272.349762L153.184049,271.426784L150.983305,270.377770L155.035838,269.575958L149.233781,268.313970L150.165084,267.370391L148.696506,266.274889L144.276947,264.927503L146.868422,264.104511L146.323171,263.029738L144.228535,261.788191L148.993993,261.259477L149.084786,260.258192L148.225957,259.137667L150.982690,258.482820L153.550561,257.843674L156.149985,257.248577L154.930524,256.091959L157.068944,255.469191L154.367804,254.037774L149.381516,252.143728L140.093394,249.347008L137.723377,247.766749L144.391995,248.011580L148.710708,247.858107L154.334753,248.064104L157.162904,247.712743L153.831441,245.927099L161.659427,246.853047L158.815962,245.166878L156.659610,243.610896L158.516062,243.112588L152.335605,240.372865L158.102606,240.997797L158.802573,240.199750L157.904519,238.916595L159.673341,238.457896L154.383292,235.726606L156.127661,235.249356L149.151400,231.804061L149.981005,230.977665L154.488440,231.487762L160.949923,232.795575L160.274712,231.508385L164.194055,231.986253L163.496885,230.695083L162.833920,229.398566L162.753490,228.325346L165.668483,228.517262L167.585998,228.323408L171.575742,229.078815L169.029282,226.938665L167.493913,225.210802L166.308249,223.611102L160.508047,219.753819L164.659320,220.674142L168.954412,221.740003L168.580589,220.491328L166.811806,218.497990L170.434711,219.330390L169.868071,217.954255L171.908853,217.998895L172.629248,217.332637L172.774225,216.341695L170.037934,213.660192L167.714323,211.155704L162.763761,206.998839L165.309396,207.346364L170.696742,209.521808L165.983156,205.351628L164.715250,203.303885L167.243749,203.725799L174.402316,207.308036L173.490394,205.518758L168.628361,200.945392L173.175159,202.905410L171.593282,200.547446L170.952983,198.826508L174.097013,199.892150L171.475517,196.657523L180.243152,202.103663L180.420647,201.039077L179.818758,199.344539L179.468850,197.822468L175.671822,193.444869L177.045483,193.263859L177.674018,192.470522L179.984819,193.126078L184.161158,195.461027L181.200833,191.545745L182.069259,190.988810L184.635418,191.997130L179.277702,185.666204L186.178506,190.778886L184.288303,187.610225L186.246708,188.129538L185.543406,186.041384L185.604046,184.680628L188.182683,185.883543L191.722964,188.150329L191.186299,186.191631L191.322217,184.915238L192.685296,184.961350L191.078059,181.728855L191.598801,180.816259L192.099490,179.872493L196.408368,183.359868L197.937035,183.686993L197.686508,181.902366L198.398945,181.257768L199.567942,181.179801L200.530691,180.858273L201.598644,180.680842L202.384928,180.148947L201.558446,177.476926L200.235228,174.064174L199.709104,171.650497L202.143575,173.307636L202.285242,171.786431L200.214558,167.039097L202.731870,168.885366L203.348405,167.976399L202.966866,165.538870L205.558525,167.632778L206.388153,167.047947L206.310432,165.008741L204.789476,160.563501L207.917692,163.691693L208.325947,162.358366L210.344083,163.765055L209.903502,160.934822L213.110310,164.528257L213.272851,162.740009L214.485708,162.848601L212.969964,157.825642L212.912328,155.433498L212.279054,151.835862L215.741417,156.316953L220.345860,163.331937L217.242474,154.582266L218.612706,155.008214L221.257525,158.240036L224.396495,162.724230L227.014350,166.238578L227.581049,165.173161L228.606468,165.163056L228.611598,162.699139L228.680735,160.297363L230.016790,161.010907L229.907392,158.025701L231.524105,159.499037L230.795242,154.677467L231.430100,153.436257L231.535723,150.634868L233.710385,153.779529L234.198309,152.025658L234.503840,149.629164L235.810801,150.303474L236.922267,150.394219L237.951638,150.231420L239.750366,152.744797L239.262871,147.257551L240.026213,146.053967L242.447551,151.100918L243.312086,150.379055L245.610938,155.459003L247.043373,157.266504L247.387632,154.472523L247.857694,152.053702L248.935237,152.321600L250.364741,154.351707L251.699003,156.083378L252.909728,157.325078L252.459614,149.445123L253.295393,148.333792L253.755199,144.824783L255.743610,150.822463L257.233987,154.110930L257.797937,151.128295L258.368621,147.845391L258.978554,144.468160L259.141935,136.741510L259.835561,132.840754L260.803629,131.107101L262.275467,134.643869L263.861554,140.266198L265.009858,141.248121L266.538244,148.180108L267.649038,149.902969L268.431372,145.719084L269.464621,145.856480L270.467298,145.200878L271.545103,146.964837L272.568064,147.342261L273.656795,154.200674L274.616267,154.691189L275.575862,153.504191L276.552282,152.480800Z" />
<line x1="50" y1="600" x2="100" y2="600" fill="none" stroke="red" stroke-width="1.0" stroke-linejoin="round" stroke-miterlimit="10" />
<text x="125" y="603" style="text-anchor:start;fill:black">n0_4mer:D</text>
<path style="stroke:black;stroke-width:1.0" d="M277.769516,100.354500L279.172961,99.594574L280.557709,99.820606L281.964406,99.420478L283.370662,99.181522L284.760339,99.328316L286.177535,99.024461L287.512808,99.954095L288.797407,101.354892L290.242449,100.685149L291.613459,100.923495L293.000943,100.986087L294.432797,100.662156L295.722576,101.591344L297.057373,102.071136L298.421148,102.301022L299.964045,101.279467L301.385758,101.186234L302.707855,101.746568L304.194710,101.293640L305.391056,102.552474L306.741601,102.884931L308.133716,102.994717L309.695961,102.270053L311.363896,101.118885L312.706964,101.571498L314.069918,101.924715L315.002226,104.114515L316.090827,105.530530L317.485010,105.655537L319.077494,105.029630L320.695496,104.370088L322.263448,103.954531L323.628492,104.298600L324.980490,104.689552L326.293192,105.210885L327.433816,106.279546L328.480833,107.605659L329.592013,108.688272L330.829156,109.363306L332.708839,108.168953L334.924467,106.110454L336.560901,105.768530L337.870271,106.343978L338.750739,108.039064L339.130356,110.959992L340.029655,112.471850L341.330538,112.957884L342.685731,113.315949L344.713297,112.110758L346.508681,111.511811L347.588544,112.563336L347.519446,116.112355L346.897034,120.726365L346.732442,124.213918L347.041299,126.609337L347.549788,128.529547L349.244468,128.049378L350.596289,128.275961L353.193322,126.146325L356.182871,123.387560L358.053204,122.806966L360.095766,121.962500L360.690374,123.729808L361.980851,124.251595L363.464775,124.450214L364.918906,124.716558L367.102770,123.800737L368.608407,124.036429L370.002650,124.466249L371.598624,124.593140L371.844415,126.807996L371.486710,129.881275L372.095040,131.448257L372.918456,132.675831L375.047333,132.022713L377.526087,130.925952L378.621283,131.804199L379.768273,132.610197L380.302416,134.236229L381.914723,134.418868L383.270745,134.954541L383.651677,136.741420L384.650914,137.724504L384.577664,140.025015L385.509208,141.062053L386.864956,141.588068L387.870642,142.536356L389.596642,142.651059L390.749816,143.441864L391.914312,144.224003L392.560919,145.580823L393.134031,147.003955L393.999848,148.099715L395.502492,148.522312L397.092835,148.870968L398.124164,149.807379L400.332395,149.567192L401.225069,150.661426L402.422419,151.457346L403.343744,152.523373L402.132988,155.590443L401.294899,158.248601L400.108364,161.171907L399.293333,163.701990L399.515384,165.269624L400.655434,166.022846L402.951465,165.797140L405.144006,165.697551L407.028079,165.888748L408.752348,166.237087L409.844828,167.113613L411.609612,167.467097L413.485938,167.757631L414.849057,168.465148L415.119143,170.004698L416.380002,170.800098L417.181536,171.939079L418.462535,172.735904L419.012969,174.056053L419.108873,175.683542L419.891843,176.829333L419.302655,178.889137L421.179376,179.303697L422.375145,180.181695L423.967694,180.818793L425.559352,181.475219L425.431808,183.199465L426.090648,184.433720L426.577776,185.767782L426.890911,187.197715L427.919390,188.213563L428.701021,189.374063L428.453731,191.099259L428.838766,192.466418L430.329130,193.246311L430.728098,194.606682L432.264113,195.386645L433.696709,196.235962L434.855867,197.234270L434.180983,199.117517L431.911882,201.720434L430.509827,203.871716L429.608491,205.761055L431.389223,206.447102L433.409992,207.053579L435.281019,207.750711L436.214023,208.857643L436.431727,210.259009L437.021475,211.509142L437.636570,212.751151L438.031356,214.077696L438.955605,215.209563L439.365649,216.532430L439.989443,217.780209L440.295841,219.138273L441.279829,220.270904L442.827677,221.232557L443.189057,222.583586L442.654196,224.205209L441.576567,225.970353L440.601783,227.680840L440.634456,229.088919L442.840521,229.907428L444.668843,230.855650L446.504710,231.827004L447.521887,233.022744L447.472033,234.480660L447.495277,235.915803L448.007400,237.239463L448.081146,238.658702L449.160422,239.871573L449.237104,241.291624L448.281958,242.899685L447.903226,244.385843L447.561168,245.855642L447.601688,247.254594L448.767862,248.478823L450.135755,249.689412L448.918846,251.271554L449.163525,252.643379L448.205824,254.160955L447.148113,255.671693L448.029575,256.960815L448.080064,258.341753L449.140697,259.632241L450.091996,260.946508L449.474722,262.387570L449.307252,263.788264L449.103592,265.186916L449.375720,266.558055L450.711292,267.889422L450.587221,269.288587L450.127076,270.693327L449.593227,272.091452L448.873237,273.482367L449.979942,274.860213L450.788130,276.253463L450.160158,277.638060L450.558675,279.036628L449.858882,280.408060L450.247728,281.811376L450.350553,283.208337L448.744563,284.514390L448.838338,285.902703L447.985726,287.226993L448.730826,288.664908L450.946080,290.243814L450.396515,291.598403L450.694657,293.033312L451.105301,294.487740L450.610053,295.843719L450.873340,297.290528L449.712295,298.552419L447.688424,299.675289L447.623315,301.064326L448.114956,302.544244L448.125385,303.955225L449.170961,305.551696L447.693631,306.706022L445.128580,307.631619L444.398658,308.886394L443.610608,310.121453L444.805233,311.777501L445.923119,313.440966L445.783386,314.834799L444.708743,316.005680L442.462009,316.870921L441.882666,318.134875L441.632023,319.482561L442.190074,321.054748L442.793742,322.655642L442.830542,324.107492L443.178039,325.660272L442.400876,326.877479L442.055736,328.225975L442.056165,329.688943L441.143277,330.852504L440.825185,332.212984L440.566668,333.596955L439.497494,334.690445L439.253377,336.080050L438.985868,337.465082L438.590238,338.804280L439.077694,340.498011L438.483748,341.768598L438.226043,343.178436L437.151443,344.244700L435.692121,345.133199L435.450668,346.547715L434.992078,347.869530L434.103188,348.993510L433.771227,350.376062L433.123561,351.610819L432.286986,352.751405L432.491579,354.412642L431.868067,355.664646L431.489259,357.045269L430.569168,358.142103L429.850133,359.343131L428.979735,360.459118L427.383146,361.160503L427.453503,362.802820L426.644669,363.945646L426.138560,365.267066L426.368747,367.040707L424.688108,367.652458L423.229471,368.383319L421.789750,369.110397L420.609624,369.991309L420.112241,371.315728L419.934541,372.862087L420.339099,374.822168L419.706997,376.086001L418.809193,377.165073L417.913513,378.243587L416.959400,379.277319L416.027937,380.324860L415.457194,381.643904L415.131694,383.159109L413.541833,383.695801L412.636510,384.759732L411.703603,385.800400L410.540915,386.650360L408.721512,386.943176L408.134395,388.259180L406.834937,388.967886L406.161928,390.215913L406.176905,392.084777L405.420339,393.280796L404.349657,394.192605L402.396621,394.274631L401.166064,395.013929L399.149731,394.985383L398.131998,395.904707L397.125196,396.833099L396.506526,398.153595L396.310041,399.920347L396.015386,401.610339L394.827775,402.374697L393.567713,403.054809L392.085480,403.482717L390.729150,404.034803L390.389028,405.726316L389.373440,406.665464L388.309595,407.549210L387.303309,408.500899L386.289052,409.444960L385.709003,410.924145L384.494847,411.631863L383.632492,412.780473L382.191787,413.192991L380.175034,412.836013L379.363973,414.045577L377.508236,413.852903L376.778621,415.177276L376.048954,416.519123L374.665027,416.947580L374.218194,418.721039L372.906986,419.254985L372.016800,420.411554L370.901886,421.238973L369.265232,421.259232L367.875121,421.642991L366.233872,421.610582L365.831423,423.577339L365.023752,424.914512L364.365682,426.528156L363.537286,427.881092L361.902091,427.839314L360.139109,427.541103L358.086051,426.676390L356.436844,426.504560L354.434064,425.630557L353.242929,426.266775L353.500128,429.758932L353.072161,431.988411L352.537033,434.063406L352.092412,436.387866L350.354601,436.020297L348.757719,435.919494L347.622761,436.818632L345.673671,435.878537L344.124263,435.802172L342.532067,435.596149L340.044155,433.178219L339.137580,434.558959L338.135478,435.737399L337.494864,437.890384L337.973015,443.110484L337.123099,444.931321L335.274019,444.017315L333.455689,443.120182L331.081695,440.511760L329.242551,439.360424L328.698511,442.153947L327.550426,443.147234L326.248210,443.666285L324.739313,443.491819L322.826543,441.873955L321.170318,441.055514L319.439009,439.883392L318.044965,439.903976L316.586041,439.646179L314.846291,438.197607L313.470682,438.167724L311.723796,436.480618L310.559953,437.304055L309.895925,440.541235L309.038826,443.067242L308.251129,446.142166L307.078305,447.395980L305.622756,447.152582L304.361349,448.006250L302.920828,447.814012L301.445390,447.350337L300.045593,447.331922L298.663051,447.413627L297.453762,448.823292L295.998110,448.362914L294.634058,448.623342L293.145716,447.716750L291.650047,446.561119L290.392308,447.845810L289.087963,448.784830L287.750553,449.452147L286.406692,450.159046L285.026736,450.406241L283.586431,449.481315L282.204209,449.581386L280.810530,449.358140L279.432268,449.573697L278.052480,449.865846L276.663812,449.672036L275.279726,450.292313L273.895727,449.351422L272.501169,450.187205L271.100223,450.699319L269.732792,449.813153L268.347779,449.740907L266.982543,449.245575L265.562769,449.888079L264.142348,450.356769L262.738305,450.464702L261.347395,450.361960L259.979795,449.986622L258.598602,449.799789L257.154832,450.236356L255.727685,450.437300L254.312330,450.490036L252.887120,450.593361L251.578514,449.792963L250.265380,449.094286L248.995267,448.163274L247.449081,449.050590L246.063707,448.863657L244.838675,447.754365L243.678855,446.366080L242.496930,445.191369L241.104505,445.148986L239.304376,447.053753L237.574765,448.463938L236.246978,447.954348L234.947556,447.337204L233.983248,445.349077L232.730533,444.630311L231.327570,444.519834L229.978355,444.192380L228.237644,445.288765L226.783275,445.285511L225.413554,444.969846L224.236411,444.008584L222.790861,443.947139L221.282530,444.064007L219.761314,444.191314L217.888962,445.336307L216.942858,443.707810L215.461308,443.654758L214.164176,443.071565L212.959507,442.243990L211.497679,442.109074L210.600768,440.505136L209.489369,439.489882L208.965548,437.055009L208.144338,435.418518L207.050867,434.469326L206.048100,433.329515L205.501280,431.190163L205.387479,428.164459L205.048818,425.725258L204.332262,424.160361L202.972175,423.966747L202.125113,422.718253L200.905538,422.236274L200.020098,421.099141L199.217569,419.824336L197.506766,420.277809L196.339351,419.691733L194.588737,420.157040L192.451023,421.267743L190.178551,422.548650L188.360688,422.982665L187.266847,422.162174L186.290839,421.151970L185.844446,419.295375L185.235526,417.737281L183.398958,418.126652L181.011655,419.323403L178.620408,420.459907L176.561673,421.038758L176.043055,419.325666L175.566827,417.582826L174.952868,416.065909L173.917913,415.156644L173.386410,413.564393L172.133973,412.964792L170.454207,412.921910L169.196008,412.306467L167.131568,412.713119L165.778254,412.186012L164.819736,411.160164L163.632386,410.417421L162.177311,409.990542L160.519703,409.787287L159.070637,409.320123L158.363680,407.992516L157.737005,406.587501L157.335028,404.949262L156.663832,403.625776L154.870788,403.514511L153.321781,403.119965L152.370482,402.088151L151.340373,401.138583L151.120443,399.374630L150.262637,398.265431L148.823156,397.725747L147.727578,396.842440L146.410614,396.163800L146.178072,394.468807L145.945813,392.794643L145.983061,390.898776L145.751853,389.267656L144.736687,388.337700L143.832608,387.309383L142.927087,386.281910L141.894878,385.358847L141.266177,384.102391L140.697763,382.803788L138.983819,382.417324L137.741476,381.642250L136.105592,381.157872L134.029139,380.984771L133.585215,379.573761L132.174071,378.875651L131.273562,377.798071L131.383288,376.007930L130.144746,375.171744L129.830588,373.696681L129.717774,372.097914L128.158334,371.464554L127.145997,370.459927L126.193156,369.411813L124.324674,368.929961L123.552637,367.751860L122.800525,366.560976L122.229989,365.262245L121.962431,363.790837L121.752025,362.296126L121.348352,360.919607L120.726706,359.668496L120.621552,358.140255L119.690830,357.059549L119.500125,355.589641L119.010883,354.280482L117.671039,353.397964L117.031885,352.158979L115.895055,351.157677L114.854754,350.100718L114.911848,348.531103L114.094406,347.367103L114.509646,345.655771L113.724819,344.479916L112.441672,343.509679L113.186537,341.689798L111.955483,340.689634L112.160955,339.110808L111.879427,337.732348L110.263587,336.858854L110.142156,335.417325L108.738300,334.440712L107.422258,333.416809L107.236581,331.993722L105.745500,331.007311L106.020692,329.433506L107.133285,327.609631L106.924708,326.214979L107.482874,324.596741L107.347192,323.194373L106.934194,321.873579L107.412583,320.311073L107.542320,318.854128L107.321041,317.494231L107.183645,316.115735L106.777746,314.803942L105.894581,313.599576L105.459526,312.287029L104.753356,311.029541L104.080997,309.758210L103.712603,308.421018L103.391542,307.073278L103.585659,305.632378L103.212597,304.295353L103.220167,302.894222L103.202075,301.500773L102.180915,300.257038L101.936544,298.892764L101.628561,297.535872L100.586644,296.266384L101.032143,294.813437L100.097285,293.516303L100.267017,292.098443L100.846663,290.648639L100.341800,289.298871L101.518072,287.818633L101.596527,286.431143L102.472346,285.000130L102.910401,283.606207L101.436142,282.300772L100.571580,280.952031L100.267426,279.575637L100.199139,278.190687L102.091972,276.784812L102.258277,275.413314L101.722871,274.040619L101.760926,272.667036L100.972455,271.276076L101.069935,269.898126L100.641127,268.501465L100.673158,267.118012L100.029552,265.698157L99.597200,264.279804L99.974569,262.909152L98.866874,261.428558L98.930195,260.028152L98.780593,258.607053L98.256889,257.143687L99.534970,255.866140L99.704619,254.476897L100.852844,253.210207L101.514387,251.894410L101.987759,250.559752L103.633626,249.404740L103.138049,247.935896L103.580053,246.610784L102.357141,244.999895L100.804700,243.305181L99.919312,241.707757L99.207790,240.125938L100.457030,238.932999L102.044082,237.828590L105.089542,237.071180L107.721871,236.263800L108.763669,235.113643L109.752479,233.962496L108.896411,232.348800L107.572270,230.590763L107.459405,229.135857L106.107852,227.323156L107.787639,226.362572L108.789328,225.221162L109.308732,223.941624L110.648367,222.923971L110.270006,221.363102L110.925751,220.133939L111.011221,218.712928L111.663150,217.484984L112.241919,216.234116L112.384715,214.823938L112.644870,213.452221L113.137999,212.166808L112.979077,210.622215L113.459892,209.325416L113.962631,208.036996L114.165014,206.620353L114.402690,205.212683L115.738060,204.286445L116.212686,202.984538L116.028653,201.375743L116.560922,200.090823L115.865054,198.212088L116.860264,197.140439L118.555085,196.427606L120.217820,195.719623L121.793231,194.986736L122.465594,193.792068L122.762682,192.394351L123.597514,191.286614L124.200701,190.051929L123.491077,188.062468L123.613126,186.529544L123.223577,184.679846L123.057064,182.941534L125.068650,182.527166L125.573661,181.195005L126.532859,180.147734L127.331555,179.000745L127.179818,177.225947L128.830984,176.643185L129.275031,175.254249L129.331795,173.587613L130.844506,172.934226L130.927865,171.268457L132.027258,170.328733L133.653952,169.788072L134.253390,168.489562L135.558159,167.727549L136.747959,166.887095L137.580195,165.770928L138.479788,164.708300L139.059084,163.383343L139.900395,162.268900L141.256189,161.589309L141.619828,160.067231L143.024436,159.441494L143.150975,157.692326L143.742147,156.340359L144.926533,155.523199L145.219922,153.881439L146.755896,153.398112L147.562076,152.228937L148.986269,151.659548L150.287347,150.981585L151.476907,150.200972L152.793123,149.556779L154.302121,149.124110L155.312592,148.180121L156.364477,147.280880L157.355612,146.316528L157.451498,144.356176L158.822613,143.802594L159.669434,142.659328L160.746831,141.777477L162.322802,141.487180L163.736421,141.021109L165.007937,140.394784L166.180542,139.653525L167.210618,138.736099L167.641845,137.047088L168.678281,136.120747L169.451922,134.842659L170.588900,134.040290L171.312375,132.671179L172.640773,132.127883L173.424051,130.819967L174.513527,129.936869L176.046924,129.702627L176.687463,128.153837L178.315374,128.078605L179.293282,127.022666L180.382458,126.131279L181.122169,124.675270L182.284387,123.882339L183.246784,122.755756L184.507787,122.119078L185.961588,121.817069L187.098452,120.974729L188.401946,120.424368L189.256871,119.063381L190.460401,118.322395L191.348594,116.983008L192.540799,116.202642L193.927337,115.798883L195.398855,115.574886L196.670968,114.959952L197.590996,113.611215L198.979455,113.228787L200.714094,113.607735L203.008111,115.269073L204.998545,116.338861L207.071507,117.671095L208.428152,117.390783L209.665642,116.833212L211.539741,117.850288L211.787394,114.816954L212.618829,113.177609L213.331385,111.167044L213.834825,108.512293L215.380416,108.656267L216.684766,108.141554L217.957254,107.530565L219.259389,107.000467L220.328101,105.742922L221.859304,105.911060L223.051922,105.004825L224.465537,104.813980L226.076325,105.319549L226.756410,102.553174L228.161291,102.308784L229.624194,102.293464L231.127520,102.460088L233.007375,104.193588L234.550792,104.656607L235.746414,103.658824L236.812491,102.022330L238.354146,102.519830L239.762947,102.430661L241.221336,102.610610L242.856868,103.773477L244.162552,103.228674L245.405182,102.287205L246.803779,102.230707L248.310606,102.889692L249.683414,102.732952L251.019198,102.314738L252.259501,101.138339L253.459086,99.499294L254.687519,97.905694L256.067180,97.514010L257.395315,96.560792L258.801720,96.327206L260.298272,97.163731L261.710697,97.077682L263.216778,98.399918L264.640915,98.711399L266.012426,98.110413L267.439393,98.606763L268.841780,98.652311L270.239259,98.571534L271.641680,98.714321L273.045234,99.200665L274.441278,99.828348L275.832105,99.441832L277.212078,100.404110Z" />
<line x1="50" y1="550" x2="100" y2="550" fill="none" stroke="black" stroke-width="1.0" stroke-linejoin="round" stroke-miterlimit="10" />
<text x="125" y="553" style="text-anchor:start;fill:black">GC-content</text>
</g>
<g style="fill:pink;stroke:black">
<a href="" title="BA000011 AP000991-AP000996:1 [47000-69099];"><path  d="M317.610225,48.981486L321.548302,49.759561L325.472200,50.606246L329.380724,51.521283L333.272683,52.504395L337.146892,53.555280L331.742814,72.811343L331.742814,72.811343L328.205493,71.851839L324.651966,70.954215L321.083313,70.118746L317.500624,69.345686L313.904988,68.635270Z" />
</a><a href="" title="BA000011 AP000991-AP000996:2 [78500-116599];"><path  d="M345.431674,56.049368L349.242162,57.311917L353.030036,58.640777L356.794140,60.035541L360.533330,61.495786L364.246465,63.021066L367.932415,64.610917L371.590057,66.264854L375.218276,67.982375L366.503643,85.983907L366.503643,85.983907L363.190921,84.415737L359.851335,82.905620L356.485903,81.454017L353.095649,80.061370L349.681606,78.728103L346.244815,77.454622L342.786322,76.241316L339.307180,75.088553Z" />
</a><a href="" title="BA000011 AP000991-AP000996:3 [327000-357599];"><path  d="M496.397884,212.686462L497.451685,216.559878L498.437725,220.451096L499.355704,224.358930L500.205342,228.282190L500.986381,232.219681L501.698581,236.170202L481.985661,239.546706L481.985661,239.546706L481.335391,235.939708L480.622269,232.344608L479.846513,228.762501L479.008358,225.194479L478.108060,221.641628L477.145894,218.105030Z" />
</a><a href="" title="BA000011 AP000991-AP000996:4 [677000-694599];"><path  d="M376.598287,481.343859L372.981616,483.085566L369.335099,484.763889L365.659846,486.378315L357.776382,467.997592L357.776382,467.997592L361.132047,466.523551L364.461475,464.991169L367.763653,463.400915Z" />
</a><a href="" title="BA000011 AP000991-AP000996:5 [696500-716599];"><path  d="M360.358138,488.574315L356.617752,490.031492L352.852504,491.423168L349.063542,492.748919L345.252019,494.008342L339.143148,474.964138L339.143148,474.964138L342.623234,473.814230L346.082721,472.603762L349.520556,471.333101L352.935692,470.002636Z" />
</a><a href="" title="BA000011 AP000991-AP000996:6 [768000-790099];"><path  d="M297.216717,503.924480L293.218050,504.277349L289.213834,504.560378L285.205288,504.773480L281.193634,504.916591L277.180093,504.989668L276.990519,484.990566L276.990519,484.990566L280.655057,484.923844L284.317872,484.793177L287.977848,484.598606L291.633872,484.340188L295.284829,484.018003Z" />
</a><a href="" title="BA000011 AP000991-AP000996:7 [862000-880099];"><path  d="M212.338067,496.299530L208.485401,495.172224L204.652996,493.977851L200.842020,492.716775L197.053633,491.389380L203.831578,472.572912L203.831578,472.572912L207.290540,473.784881L210.770127,474.936298L214.269279,476.026813L217.786930,477.056093Z" />
</a><a href="" title="BA000011 AP000991-AP000996:8 [904000-926099];"><path  d="M176.525127,482.852590L172.912597,481.102310L169.331164,479.289249L165.781919,477.413959L162.265943,475.477012L158.784306,473.478998L168.890019,456.219954L168.890019,456.219954L172.068904,458.044228L175.279143,459.812745L178.519758,461.524966L181.789762,463.180370L185.088159,464.778452Z" />
</a><a href="" title="BA000011 AP000991-AP000996:9 [976000-998099];"><path  d="M121.980087,446.711695L119.006610,444.014977L116.080651,441.266775L113.203100,438.467926L110.374833,435.619284L107.596713,432.721716L122.153521,419.006784L122.153521,419.006784L124.690065,421.652390L127.272395,424.253324L129.899725,426.808794L132.571253,429.318022L135.286166,431.780243Z" />
</a><a href="" title="BA000011 AP000991-AP000996:10 [1229000-1249099];"><path  d="M47.943582,238.320536L48.618309,234.363442L49.361993,230.418726L50.174410,226.487589L51.055310,222.571231L70.528761,227.130254L70.528761,227.130254L69.724461,230.706060L68.982690,234.295358L68.303673,237.897056L67.687618,241.510055Z" />
</a><a href="" title="BA000011 AP000991-AP000996:11 [1508000-1530099];"><path  d="M206.042140,55.580736L209.882037,54.410674L213.741769,53.307805L217.620161,52.272467L221.516032,51.304973L225.428194,50.405619L229.738786,69.935565L229.738786,69.935565L226.166812,70.756714L222.609712,71.640078L219.068572,72.585388L215.544468,73.592354L212.038475,74.660672Z" />
</a><a href="" title="BA000011 AP000991-AP000996:12 [1548000-1565599];"><path  d="M241.558560,47.444139L245.535051,46.895163L249.520517,46.415670L253.513744,46.005806L255.382114,65.918345L255.382114,65.918345L251.736124,66.292568L248.097220,66.730366L244.466511,67.231605Z" />
</a></g>
<path  style="fill:pink;stroke:black" d="M350,550L375,550L375,565L350,565Z" />
<text x="405" y="565" style="text-anchor:start;fill:black">Selected loci;</text>
</svg>