<svg xmlns="http://www.w3.org/2000/svg" viewbox="0 0 550 650">
<circle cx="275" cy="275" r="240" fill="none" stroke="black" stroke-width="1.0" />
<line x1="275" y1="15" x2="275" y2="55" fill="none" stroke="grey" stroke-width="1.0" stroke-linejoin="round" stroke-miterlimit="10" />
<line x1="495" y1="275" x2="535" y2="275" fill="none" stroke="grey" stroke-width="1.0" stroke-linejoin="round" stroke-miterlimit="10" />
<line x1="275" y1="495" x2="275" y2="535" fill="none" stroke="grey" stroke-width="1.0" stroke-linejoin="round" stroke-miterlimit="10" />
<line x1="15" y1="275" x2="55" y2="275" fill="none" stroke="grey" stroke-width="1.0" stroke-linejoin="round" stroke-miterlimit="10" />
<text x="275" y="10" style="text-anchor:middle" font-size="15">Thermococcus paralvinellae strain ES1 chromosome, complete genome.</text><text x="285" y="25" style="text-anchor:start">1,957,742</text><text x="525" y="265" style="text-anchor:start">0.48 Mbp</text><text x="285" y="530" style="text-anchor:start">0.97 Mbp</text><text x="-200" y="25" style="text-anchor:end" transform="rotate(-90)">1.46 Mbp</text><circle cx="350.710183" cy="47.254598" r="2.500000" fill="grey" stroke="black" stroke-width="1.0" />
<circle cx="418.688718" cy="82.766932" r="2.500000" fill="grey" stroke="black" stroke-width="1.0" />
<circle cx="471.993523" cy="137.910424" r="2.500000" fill="grey" stroke="black" stroke-width="1.0" />
<circle cx="505.181025" cy="207.053730" r="2.500000" fill="grey" stroke="black" stroke-width="1.0" />
<circle cx="514.862061" cy="283.135821" r="2.500000" fill="grey" stroke="black" stroke-width="1.0" />
<circle cx="500.047988" cy="358.387069" r="2.500000" fill="grey" stroke="black" stroke-width="1.0" />
<circle cx="462.251643" cy="425.122691" r="2.500000" fill="grey" stroke="black" stroke-width="1.0" />
<circle cx="405.332851" cy="476.527537" r="2.500000" fill="grey" stroke="black" stroke-width="1.0" />
<circle cx="335.104253" cy="507.352058" r="2.500000" fill="grey" stroke="black" stroke-width="1.0" />
<circle cx="258.737710" cy="514.448403" r="3.000000" fill="black" stroke="black" stroke-width="1.0" />
<circle cx="184.031899" cy="497.091883" r="2.500000" fill="grey" stroke="black" stroke-width="1.0" />
<circle cx="118.615900" cy="457.054973" r="2.500000" fill="grey" stroke="black" stroke-width="1.0" />
<circle cx="69.170104" cy="398.426309" r="2.500000" fill="grey" stroke="black" stroke-width="1.0" />
<circle cx="40.743996" cy="327.193147" r="2.500000" fill="grey" stroke="black" stroke-width="1.0" />
<circle cx="36.240498" cy="250.629934" r="2.500000" fill="grey" stroke="black" stroke-width="1.0" />
<circle cx="56.119514" cy="176.555433" r="2.500000" fill="grey" stroke="black" stroke-width="1.0" />
<circle cx="98.350966" cy="112.534253" r="2.500000" fill="grey" stroke="black" stroke-width="1.0" />
<circle cx="158.622109" cy="65.104344" r="2.500000" fill="grey" stroke="black" stroke-width="1.0" />
<circle cx="230.777955" cy="39.109325" r="2.500000" fill="grey" stroke="black" stroke-width="1.0" />

<circle cx="275" cy="275" r="185" fill="white" stroke="grey" stroke-width="0.5" />
<circle cx="275" cy="275" r="170" fill="none" stroke="black" stroke-width="0.5" />
<circle cx="275" cy="275" r="170" fill="aliceblue" stroke="black" stroke-width="0.5" />
<circle cx="275" cy="275" r="162" fill="white" stroke="none" stroke-width="0.5" />
<circle cx="275" cy="275" r="140" fill="none" stroke="black" stroke-width="0.5" />
<circle cx="275" cy="275" r="140" fill="aliceblue" stroke="black" stroke-width="0.5" />
<circle cx="275" cy="275" r="133" fill="white" stroke="none" stroke-width="0.5" />
<circle cx="275" cy="275" r="110" fill="none" stroke="black" stroke-width="0.5" />
<circle cx="275" cy="275" r="110" fill="white" stroke="black" stroke-width="0.5" />
<circle cx="275" cy="275" r="109" fill="aliceblue" stroke="none" stroke-width="0.5" />
<circle cx="275" cy="275" r="80" fill="none" stroke="black" stroke-width="0.5" />

<g style="fill:none;stroke-linejoin:round;stroke-miterlimit:10">
<path style="stroke:blue;stroke-width:1.0" d="M277.078365,113.092198L278.000222,119.202608L278.900362,123.112424L279.935033,121.277212L281.073096,117.381269L282.219511,114.424810L283.012119,119.104131L283.844710,122.062042L284.716959,123.821566L285.651113,124.396436L286.682087,123.632097L287.872155,121.095169L289.026323,119.332506L290.144781,118.187850L290.467908,124.916361L291.664683,122.885147L292.515248,124.076476L293.481101,124.212647L294.451701,124.310266L295.572176,123.305363L296.381530,124.593575L297.401985,124.360905L298.477290,123.806810L299.782783,121.887828L300.241639,125.157277L301.322477,124.639469L302.186620,125.364365L302.923860,126.724359L304.003270,126.248943L305.473304,123.880110L307.585570,118.593082L308.888749,117.410817L309.040723,121.504319L309.604232,123.568505L310.219852,125.305440L311.694725,123.408099L313.142658,121.735479L314.950636,118.756992L315.923335,119.128490L315.905347,123.171581L315.772570,127.441707L316.151376,129.710068L317.348069,129.064125L318.684594,127.990604L319.339128,129.221528L320.052342,130.221231L321.277991,129.579252L322.359061,129.422507L323.431410,129.311672L326.709956,122.721608L331.589304,111.800779L334.626975,106.541545L336.327052,105.211200L337.785431,104.604709L339.596762,103.098127L337.455798,111.981091L333.663284,124.773605L333.505071,127.971111L335.055232,126.850736L336.918844,125.025666L336.423813,128.890564L335.238264,134.246429L335.875351,135.244672L337.242421,134.575070L337.539313,136.315073L339.077277,135.304317L342.662184,129.952911L343.647532,130.272735L342.470156,135.081522L341.917769,138.473944L342.465043,139.564094L345.066273,136.575605L346.180931,136.585643L346.442860,138.241884L347.987788,137.443231L347.765953,139.962000L348.080444,141.438465L348.833104,142.095950L349.994773,142.022732L350.434850,143.226423L351.556454,143.236007L352.131936,144.185833L352.983077,144.661783L354.233834,144.480164L356.121273,143.284463L355.439352,146.249890L356.358291,146.620252L356.996891,147.431012L358.911457,146.276472L364.384035,139.786492L363.851311,142.449751L365.094493,142.442801L363.887775,146.007057L363.705160,148.024239L365.193865,147.642391L366.749768,147.192735L374.828808,137.806158L375.658779,138.515642L377.840748,137.414677L377.436429,139.774375L375.424881,144.182906L374.990273,146.465608L373.853066,149.596720L375.785802,148.819295L379.614267,145.736479L380.254282,146.639348L380.393323,148.139362L379.134318,151.279148L378.145951,154.037982L376.197764,157.854080L375.738136,159.888107L377.214026,159.703406L377.802058,160.528811L377.106816,162.760615L380.215322,160.824610L380.618086,161.853622L381.643648,162.215052L384.708135,160.455882L385.210343,161.400294L382.490832,165.617122L383.873903,165.622994L383.451499,167.437115L384.042392,168.230721L385.449613,168.232840L384.511201,170.491370L384.941173,171.421230L386.817912,170.999782L386.436621,172.680574L387.503341,173.024293L389.683887,172.381000L391.261180,172.305746L391.605450,173.326602L390.214880,175.833679L390.032209,177.269227L391.825119,177.030143L392.424470,177.804455L393.843593,177.908509L394.054514,179.003799L393.263815,180.887577L394.670037,181.016749L395.587780,181.541173L395.223143,183.052897L398.127611,182.078065L401.713694,180.642171L401.283102,182.216901L398.976290,185.131390L398.204666,186.891532L398.558675,187.831616L399.315364,188.487517L402.061281,187.781797L407.657368,185.187732L410.649856,184.426078L411.198114,185.318614L413.289425,185.208741L409.157628,189.110627L404.763176,193.093537L404.280179,194.554175L407.578108,193.677831L405.901291,195.858222L405.057880,197.503716L406.242491,197.935042L410.937190,196.347357L411.171094,197.374386L407.871693,200.381172L407.097461,201.927299L409.313182,201.823597L411.278692,201.883208L411.956045,202.648071L412.596285,203.435732L413.647732,204.015817L412.729351,205.598152L410.469103,207.823933L410.912708,208.687441L411.281761,209.587018L412.345709,210.157725L414.600381,210.185767L413.602235,211.727428L413.535941,212.829116L413.451644,213.931568L413.739141,214.865566L414.750963,215.489622L417.057431,215.581719L420.162011,215.375031L417.264776,217.629507L418.358383,218.255579L420.769549,218.380721L418.749628,220.224572L419.030801,221.173605L417.681547,222.719112L417.877587,223.685088L418.982366,224.329325L419.343607,225.241126L419.374915,226.264900L421.294320,226.660775L422.349332,227.359037L422.944035,228.213494L423.798302,228.991852L425.242933,229.599675L424.878758,230.757593L425.640415,231.581973L423.813922,233.141074L423.497784,234.256753L424.431792,235.030070L422.661807,236.517402L425.375784,236.839188L429.309021,236.893618L424.595520,239.074795L422.212824,240.644899L425.887146,240.807170L426.711134,241.642784L423.765028,243.290214L423.138543,244.416482L423.815607,245.271329L424.136107,246.201521L424.391992,247.145566L424.264104,248.159645L424.771004,249.059801L424.743598,250.053471L425.361731,250.941376L429.637894,251.274142L426.085678,252.810809L424.960668,253.958451L426.130586,254.782596L432.790299,254.921778L434.956416,255.688664L435.882624,256.623774L433.358776,257.941047L430.257484,259.282579L429.677627,260.343664L430.356757,261.284874L434.580559,261.943720L437.209545,262.776252L440.519535,263.594788L439.717280,264.711922L440.571164,265.725092L436.451719,266.995074L427.534468,268.418397L427.427559,269.402977L435.854934,270.127189L442.102492,271.011320L437.065996,272.172258L429.270013,273.298717L428.332737,274.293330L427.326191,275.275727L429.120623,276.268274L436.153048,277.360694L433.695714,278.343662L431.255069,279.295805L429.086804,280.226184L426.916680,281.129051L426.644974,282.093320L427.809587,283.131106L431.356375,284.326654L428.365828,285.136588L426.641852,286.000684L426.075507,286.934895L431.285377,288.356425L431.628198,289.399002L426.690189,289.927537L426.451966,290.886284L427.256704,291.959434L428.406123,293.085093L425.195460,293.684816L431.566292,295.498720L436.679836,297.224704L431.264691,297.503234L427.016665,297.888424L425.092213,298.584889L425.311846,299.609059L424.027306,300.382019L425.348172,301.601137L425.195446,302.569515L425.067453,303.542919L426.384363,304.801500L424.717873,305.472965L427.099762,306.975854L425.826424,307.720454L424.572293,308.455057L425.076272,309.580755L425.167017,310.618253L421.944594,310.851730L421.149065,311.653154L421.182219,312.660423L423.036016,314.152985L421.790009,314.833292L423.156472,316.226910L423.125283,317.244488L422.656990,318.137698L422.155378,319.018274L420.657931,319.590927L419.649619,320.299754L419.193744,321.175375L419.875855,322.421228L419.978732,323.487380L420.219866,324.606671L419.996443,325.571955L418.634019,326.133216L417.474913,326.753372L417.213837,327.694257L418.415186,329.188840L417.424739,329.861873L418.649956,331.395340L420.461224,333.186753L422.341154,335.038681L419.685798,335.042443L415.974285,334.565788L414.647363,335.064412L418.259243,337.710637L420.234139,339.689141L414.277077,338.110230L413.821923,338.981165L419.480436,342.716835L423.632660,345.830099L423.598681,346.987949L413.964590,343.425534L411.800676,343.454502L410.377085,343.832202L409.768437,344.615001L410.453358,346.073920L410.746451,347.342707L410.269516,348.207244L409.910195,349.136296L413.421884,352.226972L411.234224,352.157241L412.348764,353.957136L409.602565,353.532223L406.008918,352.566977L404.410162,352.746539L404.264432,353.792572L404.946944,355.357116L404.035589,355.943106L402.713660,356.260849L402.031565,356.977061L401.243284,357.620944L400.927583,358.573732L403.380904,361.394017L404.512648,363.368671L399.826569,361.350721L399.240956,362.129993L399.477439,363.493204L398.700428,364.141613L397.406799,364.408679L397.004487,365.321428L398.154226,367.402203L398.236752,368.706463L396.450736,368.584763L397.545059,370.687890L396.797037,371.368620L396.153097,372.130091L400.283166,376.769119L400.838170,378.567716L396.592648,376.389676L394.745386,376.159418L392.665611,375.703810L390.948456,375.530724L390.283993,376.258151L389.828256,377.170966L390.033176,378.683859L388.895778,378.991416L387.122165,378.699490L385.795329,378.799739L384.866876,379.262124L383.830421,379.614366L383.360956,380.509664L383.190721,381.705281L384.352837,384.244971L383.043384,384.331423L381.899488,384.571782L383.388438,387.534090L384.201750,389.844836L385.225195,392.421357L380.474089,388.815363L377.806828,387.375443L378.529924,389.634703L379.660923,392.393182L378.861609,393.012972L379.279136,395.032199L375.134111,391.766488L372.921961,390.681333L372.138614,391.261051L372.162859,392.818891L371.321230,393.337697L369.868741,393.093456L369.048797,393.624315L368.196621,394.112034L367.611652,394.942855L368.126423,397.223382L367.581650,398.140057L366.713959,398.630171L366.388211,399.858029L363.663072,397.780714L362.591431,397.951851L361.945409,398.717847L361.245304,399.411577L360.816239,400.505597L360.644756,401.996743L358.535366,400.600561L357.958763,401.486857L358.167794,403.597982L357.073345,403.709986L356.943134,405.343852L358.823558,410.254010L356.900159,409.064748L356.260610,409.957492L353.669041,407.571665L351.808788,406.350650L350.850519,406.643840L349.532330,406.297155L348.969691,407.276537L348.420658,408.296060L350.257233,413.730156L347.667469,411.032222L346.365940,410.684262L346.650785,413.374452L349.619721,421.401996L350.888734,426.284118L345.858185,418.547395L344.114837,417.309841L340.883439,412.901788L340.122919,413.589976L339.503498,414.592677L339.004760,415.881203L336.847923,413.487416L335.687479,413.265828L334.778568,413.605764L334.576769,415.613049L334.179476,417.209686L333.423179,417.972616L331.643734,416.199567L330.358330,415.600415L329.731789,416.670055L329.194996,418.004481L328.828532,419.836184L327.586324,419.323988L326.626849,419.568919L325.112139,418.223376L324.449459,419.293967L322.991700,418.027223L322.174514,418.642480L321.517386,419.769695L320.410701,419.503698L319.404965,419.540697L318.468426,419.796593L317.885169,421.256219L316.833409,421.136902L316.265465,422.730362L314.666031,420.604951L313.717943,420.808857L313.184722,422.614180L311.993237,421.890562L311.080439,422.250769L310.307048,423.203492L309.202454,422.767848L308.245106,422.948041L307.300270,423.183583L306.451953,423.877794L305.366101,423.443104L304.339294,423.264241L303.549533,424.299382L302.427644,423.596554L301.517856,424.020086L300.607995,424.462774L299.628918,424.507618L298.651208,424.551664L297.730913,424.965141L296.777453,425.174152L295.855775,425.619237L294.968295,426.354408L294.032167,426.764865L293.411114,429.857061L291.957113,425.882314L291.139028,427.411608L290.059297,426.494958L289.392908,429.884996L288.252912,428.290914L287.166955,427.100890L286.182573,427.069353L285.199079,427.031179L284.271502,427.893053L284.962135,458.801731L284.799533,480.161669L283.091576,470.763814L280.923199,444.693862L279.359758,428.081784L278.352818,427.007012L277.367896,426.439806L276.425307,429.654577L275.428049,428.038390L274.448728,427.208245L273.484902,425.891737L272.495874,427.125555L271.529118,426.684624L270.549483,426.866641L269.575865,426.804523L268.543098,428.153718L267.598577,427.318782L266.652321,426.699517L265.525192,429.141293L264.111800,435.323294L263.116880,434.793801L262.562518,428.885787L261.602467,428.488306L260.883758,425.559724L259.910460,425.537661L258.909912,425.761836L258.023978,424.936159L256.946072,425.791722L255.940933,425.970682L254.945096,426.049987L254.169189,424.531047L252.974334,426.008712L251.496473,429.203881L249.180102,437.396482L248.813614,433.148642L248.670966,427.913309L248.157126,425.128555L247.166154,425.103542L246.304653,424.393855L245.502592,423.420285L244.519941,423.376775L242.846480,426.580332L242.649011,422.830193L241.546827,423.302035L239.823806,426.406228L238.719775,426.733205L238.104960,425.039801L237.769120,422.320975L236.689626,422.597698L235.782143,422.201909L233.123754,428.219702L231.307018,430.924416L228.902223,435.533074L227.073225,437.952276L229.500045,426.111055L230.445943,419.601025L229.627769,418.965991L226.934354,424.165585L225.808422,424.368560L225.386519,422.457138L224.997464,420.516374L224.230401,419.719402L223.834061,417.905974L223.128369,416.998272L222.268131,416.527806L220.778372,417.719412L220.388340,416.013004L219.406797,415.856018L218.466585,415.588875L217.372156,415.694758L216.691381,414.791826L214.235717,418.087148L214.582698,414.769628L213.347667,415.149858L212.997760,413.525973L211.054072,415.443987L210.559357,414.155111L209.748006,413.567613L209.347015,412.128527L207.949280,412.770469L206.938787,412.595124L206.950944,410.377001L205.859123,410.376538L204.639400,410.608753L203.820221,410.059817L201.929383,411.515851L199.187436,414.479253L199.666796,411.501768L199.772900,409.265015L199.166331,408.333326L198.199842,408.038209L196.926103,408.261747L195.748191,408.303081L195.413687,406.930453L193.953738,407.421341L192.995960,407.074700L193.064307,405.093750L193.496505,402.584074L192.823501,401.835652L190.782051,403.176075L188.189275,405.292079L190.187465,400.539202L185.420007,405.778416L184.007895,406.028035L187.395841,399.436903L186.376130,399.184205L186.339924,397.563445L185.053543,397.675818L183.963060,397.506254L182.610858,397.673222L181.747604,397.179535L179.933073,397.913008L179.443026,396.921392L179.944892,394.690659L178.612189,394.781920L178.107368,393.839362L177.725284,392.756519L176.405579,392.805827L174.493257,393.536495L171.055678,396.007456L169.745646,395.953088L172.237121,391.570527L173.280229,388.904951L173.048432,387.700031L172.208493,387.172778L171.916076,386.052308L171.187426,385.407444L170.372241,384.852891L169.147942,384.719429L167.023859,385.492874L167.447808,383.654976L166.749246,382.965724L166.947295,381.393487L166.834460,380.145729L165.862571,379.736420L165.472131,378.768846L164.287215,378.551071L160.852318,380.398294L158.277608,381.395828L155.370024,382.648430L157.866965,379.048719L160.430123,375.463635L159.907969,374.622005L158.791658,374.290669L159.395837,372.497677L158.649171,371.856218L158.129961,371.025155L155.480019,371.924088L156.789127,369.611204L155.446273,369.433423L154.536362,368.902799L153.959450,368.109677L151.062057,369.078403L150.646256,368.141986L151.631876,366.173517L151.162677,365.297022L148.855802,365.744672L150.694597,363.216643L150.168077,362.390923L147.994085,362.703519L149.516631,360.467825L148.986510,359.649941L146.357469,360.222790L142.835094,361.340778L142.907229,360.088957L144.243530,358.045476L143.052174,357.618352L142.715639,356.651780L142.955823,355.337650L144.221236,353.422033L143.612868,352.644620L141.962516,352.472083L143.123656,350.666576L142.970690,349.631994L141.740932,349.202524L141.767826,348.071172L141.090136,347.328669L140.172072,346.710473L139.585611,345.911091L137.521387,345.871360L132.104809,347.506498L131.803989,346.507077L131.281575,345.619078L127.839730,346.141311L132.639590,342.697061L136.619748,339.718570L137.112892,338.412484L136.046063,337.825714L135.392158,337.045171L131.798075,337.544849L133.309961,335.804558L135.584828,333.771543L133.808457,333.455914L127.917462,334.791888L121.990983,336.059638L130.335092,331.656131L131.490820,330.143710L130.374855,329.509741L131.088982,328.188155L126.239743,328.897647L129.960054,326.498968L130.480859,325.271818L129.937368,324.419386L129.295416,323.596552L129.919206,322.355859L129.513245,321.457167L124.892822,321.872973L125.841175,320.528147L125.655417,319.538955L124.964565,318.698274L124.615741,317.754638L124.192289,316.830671L125.604695,315.408003L123.802016,314.855866L122.947244,314.039118L121.913138,313.258921L122.481299,312.078446L123.622506,310.773510L124.885274,309.459250L123.685557,308.713700L122.692095,307.910333L119.081947,307.644306L119.247859,306.567389L124.667345,304.465680L126.390994,303.138532L123.660849,302.650437L124.600490,301.482304L125.970348,300.255948L124.188172,299.563207L124.069243,298.589107L125.743337,297.346979L124.294083,296.575863L121.145035,296.019802L117.601814,295.475601L121.067732,294.020769L119.656391,293.183606L120.599270,292.069330L124.953605,290.613737L124.523938,289.682751L124.090817,288.747732L123.558944,287.816606L121.876975,286.969569L118.661145,286.211801L122.396196,284.959810L123.149505,283.932190L118.722013,283.186402L115.087455,282.347860L117.547101,281.222332L117.494921,280.212063L118.751361,279.166657L123.659327,278.063813L123.544507,277.093688L122.085817,276.132212L122.449137,275.150306L123.103458,274.174659L121.506807,273.180663L122.639588,272.215892L120.368201,271.181373L121.519191,270.223862L121.084052,269.221197L116.568295,268.033016L107.603170,266.561893L103.879273,265.272625L101.160908,263.998230L102.139829,262.945715L102.303368,261.842708L106.248578,261.053265L111.841524,260.460492L110.139349,259.241569L115.681890,258.738737L117.262291,257.876324L121.163922,257.300085L121.040046,256.283757L118.075815,254.900444L117.168843,253.753705L119.487658,253.048665L118.163297,251.834017L116.224707,250.505286L115.851928,249.400872L117.534417,248.633524L120.450438,248.100841L125.446934,247.980323L126.478876,247.181160L125.996870,246.099696L126.714186,245.249955L125.099517,243.923794L122.861719,242.439983L124.964866,241.881534L126.850681,241.299099L125.835860,240.059760L127.036529,239.337623L124.322590,237.658552L128.307694,237.645130L128.984990,236.817936L127.141490,235.320180L129.248384,234.880920L126.677830,233.147347L127.278518,232.291280L128.890677,231.739238L128.416664,230.573552L130.150678,230.081939L130.569993,229.193710L131.122387,228.350400L131.441061,227.433238L129.289581,225.680172L124.974631,223.143992L125.345854,222.194531L125.542194,221.182564L124.854172,219.843562L131.587302,221.269747L132.032528,220.387524L131.684598,219.197865L131.479476,218.054430L132.653812,217.460128L132.503053,216.332290L133.970663,215.875018L134.266112,214.933885L134.467890,213.950692L134.682328,212.970194L134.833417,211.958385L132.441497,209.779231L136.515826,210.565105L138.215946,210.284866L138.229317,209.213488L138.431068,208.227750L133.974572,204.923695L130.159686,201.865072L130.991201,201.121105L132.342606,200.653873L135.421923,201.115568L133.311074,198.829912L134.820738,198.477634L137.513376,198.797992L134.282110,195.822119L137.344637,196.377757L139.910031,196.688758L142.837350,197.248061L144.376825,197.020815L144.688303,196.067840L145.630076,195.498772L145.455188,194.241205L147.409649,194.317779L147.602123,193.290076L148.067522,192.433887L148.100887,191.291528L148.420423,190.331303L146.636452,187.940260L147.235337,187.143853L148.242620,186.632816L147.322763,184.768230L149.375672,185.004436L150.529123,184.616165L148.454279,181.863130L151.799729,183.100392L154.005094,183.530838L154.615097,182.771707L155.384640,182.136801L153.098280,179.101423L153.270550,177.965585L156.207709,179.053443L157.670165,178.983726L154.163762,174.812371L156.724810,175.647833L157.407662,174.927035L157.974126,174.106791L159.628087,174.234546L160.228555,173.452989L162.150728,173.854882L158.166089,168.923289L160.295883,169.505905L163.701574,171.311603L164.858980,171.061334L163.960985,168.858213L165.899374,169.362636L163.449855,165.594878L161.782771,162.525038L163.553711,162.853871L167.103530,165.023042L169.531691,166.108593L170.679442,165.900948L171.277240,165.122746L171.782696,164.242527L170.933567,161.884257L169.117306,158.417002L169.915079,157.792494L172.327621,158.993771L174.762362,160.269205L175.315660,159.413427L175.546308,158.172957L175.810762,156.956854L177.234530,157.123245L176.762230,154.994449L176.784766,153.438353L174.656440,149.160255L175.315595,148.327332L178.442231,150.666515L181.549348,153.059693L183.870197,154.493797L184.117806,153.204048L184.941601,152.677731L185.152111,151.308528L185.662845,150.336580L186.566914,149.910056L187.767457,149.912557L189.349969,150.485951L190.117486,149.889412L190.581783,148.838264L189.632838,145.631089L187.230882,140.115603L189.882970,142.336323L192.546259,144.654023L194.776651,146.359621L195.862978,146.268589L196.476929,145.410145L197.557918,145.323339L198.339957,144.740707L199.312997,144.484738L200.101156,143.912093L198.805606,139.634799L196.936614,134.207762L200.800359,139.127005L203.340092,141.751514L203.581450,140.132144L203.783436,138.400651L205.854270,140.270051L206.842087,140.069712L206.308843,136.817210L208.439996,138.919964L208.337558,136.464597L208.459175,134.414883L210.353392,136.118500L209.461740,131.807666L210.261530,131.121739L210.467454,129.083567L209.946174,125.314788L209.932100,122.614073L211.556658,123.737585L216.312343,132.518905L218.215072,134.585652L219.036369,134.019604L220.272913,134.511635L220.457145,132.282804L222.029853,133.684458L222.673337,132.627217L223.298070,131.488749L223.451281,128.981496L224.989148,130.387289L225.315012,128.287507L226.043810,127.326277L226.848868,126.571709L227.367626,124.894995L230.061201,130.165143L230.978118,129.834599L231.947856,129.680077L232.481326,128.023365L233.706753,128.749218L234.238776,127.007380L234.861144,125.525848L235.532835,124.168438L236.513533,123.964260L237.740240,124.754448L237.508660,119.556564L238.545209,119.481321L239.905764,120.838811L241.099964,121.539986L243.006504,125.624781L244.254030,126.810901L245.247064,126.821840L245.835587,124.762878L246.726423,124.183502L247.451208,122.656635L247.633943,117.915592L249.743337,124.309419L250.970176,125.759402L251.469605,122.636079L252.366014,121.933210L253.747020,124.607729L254.790431,125.050482L255.431711,122.415960L256.551436,123.442964L256.903317,117.935213L258.095321,119.509848L259.160340,120.056187L260.276287,121.222221L261.419307,122.874452L262.392581,122.748583L263.362570,122.572076L264.210781,120.634440L264.963582,116.813127L265.874717,114.919885L266.522958,107.360454L267.354206,101.758982L268.263836,96.342179L269.379727,95.311197L270.709852,102.385524L271.874936,105.455249L273.019325,110.105561L274.095800,113.317627L275.136015,110.416485L276.195942,109.936743Z" />
<line x1="50" y1="575" x2="100" y2="575" fill="none" stroke="blue" stroke-width="1.0" stroke-linejoin="round" stroke-miterlimit="10" />
<text x="125" y="578" style="text-anchor:start;fill:black">n1_4mer:GRV/n1_4mer:RV</text>
<path style="stroke:green;stroke-width:1.0" d="M276.208897,180.825069L276.757092,183.756623L277.292062,185.742697L278.029340,180.638204L278.835806,175.447004L279.628344,172.057122L279.953959,178.608297L280.255572,184.123486L280.807672,184.643051L281.136148,188.236696L281.993089,184.388690L282.832187,181.355121L283.561401,179.983520L284.339755,178.294275L284.440208,183.402565L285.119804,182.626658L285.438336,185.056061L285.700971,187.690750L286.429608,186.456351L287.385907,183.669082L287.936866,183.996793L288.415897,184.786631L289.367388,182.474363L291.089606,175.595726L290.855898,180.874140L291.699714,179.607084L292.017680,181.334389L291.656256,186.555317L292.820014,183.605272L293.646360,182.530999L295.092732,178.557240L296.107663,176.845318L295.017119,184.739246L297.067222,178.431685L298.298935,175.972789L299.354750,174.386550L300.354472,173.120865L301.018335,173.244852L301.809083,172.887790L301.310991,177.341470L300.706335,181.967283L299.643506,187.993107L302.083013,181.669106L301.461107,185.951871L301.391584,188.229579L302.649675,186.145887L303.517402,185.388896L303.914584,186.119170L304.539035,186.142527L306.963722,180.871430L308.892162,177.257600L309.237429,178.272228L311.317402,174.452395L312.088893,174.343325L313.437344,172.712342L314.364677,172.252346L313.000116,177.688357L314.085453,176.774484L315.287044,175.616553L315.282027,177.432447L313.058916,184.468877L312.708421,186.889974L311.814818,190.481933L313.381858,188.406812L314.313066,187.820761L315.872243,185.893907L319.933966,178.675278L319.647707,180.870753L318.270959,185.265412L316.149282,191.046974L315.666323,193.362457L318.250122,189.554155L319.150616,189.147243L318.681517,191.383499L320.824269,188.637081L319.901356,191.672714L319.989963,192.776518L320.477899,193.137033L321.425014,192.681309L321.267355,194.177743L320.840322,196.102616L320.848886,197.241238L323.113819,194.584228L324.423363,193.586179L326.802519,190.888935L324.327097,196.047733L326.469427,193.783544L326.011489,195.637429L327.537721,194.405037L332.881711,187.440861L332.592550,189.082227L333.766284,188.536402L331.953571,192.349616L330.823770,195.091845L331.023571,195.892312L333.406584,193.639731L342.653888,182.023864L344.082787,181.329881L345.412260,180.799076L343.825587,184.143816L344.258416,184.781475L341.679712,189.285300L340.301883,192.159166L341.561289,191.667326L342.097464,192.093006L344.318150,190.464504L346.689093,188.708727L344.944147,191.900119L343.166752,195.059025L340.659840,198.992566L334.900514,206.552619L337.414357,204.597111L338.115743,204.719946L337.365183,206.446008L341.679000,202.642661L342.487379,202.702227L345.311346,200.639627L345.408002,201.488383L345.235335,202.604676L343.511316,205.282753L343.005402,206.680347L341.984389,208.564457L341.119826,210.258517L342.125264,210.112730L341.076017,211.942396L341.617529,212.237692L341.883147,212.792955L341.961118,213.517311L345.107056,211.453295L346.965385,210.605463L349.820370,208.910682L349.607352,209.946582L346.581108,213.389598L344.567991,215.895393L346.862048,214.736294L347.029734,215.378958L346.888426,216.269409L348.107601,216.051778L344.716193,219.520986L346.550024,218.807957L348.275827,218.209231L347.674140,219.418550L351.859962,216.995330L354.774170,215.595864L355.174218,216.094159L353.382568,218.181616L350.116562,221.281214L347.017446,224.193009L348.920459,223.557908L354.412097,220.489450L358.947250,218.165668L360.685108,217.787730L363.463181,216.750289L365.791138,216.049357L358.212220,221.726508L354.005734,225.131614L351.936052,227.125808L356.274966,225.146698L355.041532,226.607588L354.010116,227.921035L354.321586,228.422747L360.265593,225.665714L356.517614,228.530117L352.041611,231.734542L354.302991,231.131755L357.367664,230.124514L358.300591,230.307232L357.306807,231.518485L357.846097,231.911480L360.969999,230.985503L356.181811,234.092469L354.508363,235.573600L353.903259,236.502665L355.331089,236.442411L358.040384,235.795809L361.625611,234.781109L358.206903,237.015658L356.440679,238.451802L354.972056,239.725821L355.022711,240.315336L357.334958,239.939172L358.982202,239.872812L364.791867,238.118193L362.551098,239.693652L360.380168,241.204640L362.973535,240.829639L361.835477,241.911563L369.037908,239.856672L362.375834,242.984043L360.515754,244.286762L360.548040,244.893696L360.891021,245.391204L364.179830,244.896516L365.556434,245.077937L364.189777,246.163175L365.510910,246.376411L370.692554,245.412046L371.582895,245.814635L371.080676,246.638140L373.874331,246.502147L371.737249,247.789391L366.586564,249.871450L373.496273,248.654274L368.362497,250.668513L371.876645,250.415647L375.483722,250.185695L373.188866,251.420048L367.802397,253.342676L365.007113,254.603313L367.047229,254.761279L363.149857,256.210550L364.102891,256.604519L363.681541,257.284222L364.137091,257.787450L367.197391,257.809613L366.870035,258.480125L368.461726,258.812516L368.351560,259.448100L362.707228,260.966408L366.742829,260.924036L365.329274,261.733795L361.683297,262.837139L368.288411,262.520399L375.239740,262.244870L378.434394,262.512496L377.301571,263.314979L372.443775,264.503021L370.310662,265.351268L368.918048,266.100882L370.082216,266.606000L376.274688,266.714087L375.606715,267.418503L378.450992,267.871654L378.507243,268.535040L378.571870,269.198147L378.577494,269.864531L366.023787,271.072478L365.077860,271.692410L376.853118,271.914543L383.072298,272.420351L375.724829,273.242544L367.595676,273.978859L369.434709,274.564775L369.983769,275.171931L371.890955,275.797325L379.123692,276.525284L375.410032,277.115604L368.826745,277.579509L365.976044,278.085647L366.742306,278.701327L364.361918,279.179978L365.280736,279.803902L367.916889,280.542490L362.783703,280.801992L362.971776,281.381811L365.926398,282.183143L373.298632,283.400775L373.805392,284.083288L364.562563,283.813678L364.021834,284.337786L362.648248,284.762885L364.640094,285.567697L363.566073,286.017914L369.945329,287.430886L374.195896,288.635586L371.447513,288.889132L363.712728,288.357052L362.975284,288.824084L366.459566,289.973762L364.199847,290.192331L369.050306,291.640343L364.868492,291.496044L369.582921,292.989728L369.738583,293.650222L369.067325,294.146080L372.012841,295.394959L369.860564,295.579157L361.360040,294.316279L365.664146,295.890942L367.017638,296.825748L361.135963,296.015562L360.271213,296.385418L366.008603,298.446234L363.324513,298.360317L369.489137,300.640801L368.571015,301.037633L369.067032,301.827382L367.423537,302.001354L364.977758,301.914854L361.666012,301.531462L361.268567,302.016628L362.579342,303.045662L361.916585,303.449814L359.656554,303.312942L359.189742,303.758964L362.447654,305.500050L360.084911,305.289935L360.950986,306.221310L357.261117,305.480075L363.683182,308.508577L359.657028,307.609806L356.682517,307.067628L354.556461,306.823822L358.380772,308.976058L358.009067,309.447522L355.575965,309.045719L361.050387,312.011554L365.767419,314.732743L365.945810,315.508425L359.280833,313.189937L362.542093,315.346978L367.447642,318.329477L371.671130,321.068110L367.893298,320.001732L359.600940,316.657119L357.004966,316.034951L355.375355,315.866685L358.149948,317.951331L357.876274,318.486125L359.906512,320.248821L360.426532,321.232449L356.099632,319.566138L358.356616,321.505501L356.761096,321.305990L354.561077,320.736959L353.766854,320.955559L351.053543,320.029327L351.308783,320.844497L347.927048,319.452365L353.246153,323.386172L352.076600,323.349602L354.087966,325.321596L353.292078,325.524092L353.054376,326.083321L353.304626,326.968041L358.182348,330.977618L359.441113,332.615600L352.483664,328.600530L350.891626,328.222682L349.479532,327.948811L351.255882,329.951890L350.635971,330.246214L349.029144,329.804689L349.336975,330.774783L349.172134,331.398828L350.719287,333.346057L352.035022,335.151905L350.737895,334.925566L350.828764,335.792955L355.985043,340.785187L352.982319,339.181247L350.372850,337.849432L349.919561,338.291117L347.720813,337.237921L347.479134,337.841542L344.701153,336.221074L345.516530,337.743633L345.228240,338.299434L344.076191,338.069335L345.233371,339.957403L343.359340,339.043148L340.793398,337.437011L339.071831,336.589709L336.992278,335.361081L337.849563,336.986650L342.438562,342.372041L342.114402,342.914507L341.703596,343.371065L341.356977,343.895005L344.958344,348.573497L342.325788,346.721219L338.109071,343.099965L336.714237,342.458212L341.214941,348.317257L340.992731,349.020910L340.376947,349.284695L339.846237,349.642318L336.131981,346.286065L332.815084,343.300573L331.704933,342.867709L335.636097,348.526838L335.506305,349.336435L330.868280,344.545334L330.554348,345.071034L331.340374,347.007080L331.299685,347.914636L331.658571,349.361303L332.766494,351.833468L330.332483,349.588038L331.132801,351.690755L328.373018,348.911011L326.720584,347.600041L327.904748,350.280128L325.918877,348.452090L324.929847,348.022022L325.200467,349.438834L324.333961,349.176645L325.128838,351.431217L325.670035,353.348409L326.011794,354.998290L323.831886,352.675040L328.486106,361.302830L328.720277,362.936281L327.941551,362.925244L324.701110,358.755424L323.738865,358.348297L322.764965,357.899412L319.692066,353.730145L319.296940,354.214144L317.355243,351.896437L319.935310,357.834331L317.286567,354.159708L316.693177,354.269018L317.187941,356.474797L315.367662,354.200327L314.847118,354.435190L316.008887,358.077472L315.725338,358.854879L315.902504,360.613754L316.125097,362.519513L315.189245,361.973956L314.415604,361.757887L311.582870,356.914911L311.491902,358.140430L311.176267,358.880214L311.558398,361.285106L311.685902,363.157093L312.326829,366.345841L309.188355,360.223564L307.389232,357.262948L308.020074,360.470544L308.149248,362.471010L310.498833,370.516546L308.582803,367.168528L306.827564,364.125650L306.278508,364.395775L304.949403,362.392627L303.405866,359.656557L303.442156,361.604005L301.974903,358.950299L301.809709,360.312538L301.062173,359.833861L300.765671,360.827385L301.085167,363.961241L299.419203,360.303750L299.997724,364.491850L298.626938,361.729101L297.565417,359.979659L297.952018,363.727720L296.782641,361.493224L296.686660,363.507164L296.248085,364.190137L295.031374,361.543295L294.614142,362.287253L294.458512,364.269597L293.790973,363.947055L293.468974,365.284619L292.321780,362.534502L292.489823,366.462783L291.009116,361.733645L290.817772,363.889758L290.745383,366.898977L290.438270,368.716619L289.449736,366.368777L288.931217,366.909940L288.058353,365.048504L287.260871,363.547321L287.151716,367.106798L286.185073,364.191162L286.196833,369.177280L284.975129,363.757471L284.600597,365.664844L284.521509,370.785388L284.061785,372.515706L283.538826,373.765046L282.581894,369.782369L281.868510,368.403362L281.056288,365.277228L280.788870,370.462204L280.805686,382.115108L280.171941,383.279041L279.264870,378.182270L278.578207,377.512135L277.633688,367.475253L276.905404,361.385490L276.417663,365.667262L275.862477,368.584116L275.257436,367.040083L274.670603,365.947638L274.096365,364.994867L273.549059,363.144624L272.926971,365.595592L272.356496,365.205265L271.756462,365.776445L271.160357,366.073965L270.414982,369.358117L269.819609,369.141474L269.130065,370.495279L268.011470,377.902609L267.490274,375.984224L267.235975,371.062297L266.742377,369.603132L266.757287,362.914378L265.806627,366.715778L265.496920,364.042509L264.943126,363.824638L264.256884,364.729667L263.507909,366.031152L262.494805,369.186913L262.600350,364.009144L262.115095,363.339345L261.730695,362.058353L259.794869,370.633987L259.113131,370.946296L258.801003,369.080257L258.124719,369.381158L258.218150,365.501872L257.576335,365.711171L257.560815,362.747672L256.558391,364.773663L254.532572,371.488955L255.726598,363.071211L254.872170,364.229148L253.670945,366.805036L252.209314,370.316493L252.050101,368.329573L251.366788,368.515596L251.263907,366.447625L251.049790,364.895700L249.817318,367.140137L248.073759,371.089995L246.065509,375.762836L244.716105,377.966027L245.868628,371.748941L246.963049,365.994448L247.401219,362.570873L245.286361,367.212478L244.383775,367.965129L244.438560,365.832218L243.266882,367.349080L242.529587,367.557333L243.236819,363.714257L243.440708,361.393369L244.076473,357.996090L241.994281,361.875974L243.106478,357.352400L242.547572,357.224437L241.461937,358.403391L240.858551,358.354202L240.562863,357.561212L237.528137,363.238381L239.122671,357.998757L237.858803,359.430437L236.595782,360.803055L234.882018,363.110838L234.827634,361.749446L234.586039,360.822146L234.451194,359.693757L235.294303,356.584098L233.950649,357.986921L234.100637,356.365319L234.791441,353.727603L232.377806,357.147432L230.992199,358.502443L230.389462,358.344657L229.986313,357.815765L230.796407,355.095738L231.350934,352.904672L227.801675,357.985695L226.605862,358.831461L223.870967,362.270452L221.486545,365.010671L222.767935,361.585239L222.525837,360.737439L221.155778,361.720844L222.222850,358.797149L224.124290,354.639902L224.808799,352.467814L226.468468,348.862892L223.039826,352.985745L223.779701,350.816098L217.674768,358.689480L216.992038,358.531086L221.688464,350.726113L220.375513,351.542566L222.784550,347.182494L219.504638,350.688794L221.417021,347.105346L220.199283,347.763751L216.942002,351.067742L213.753683,354.185994L211.030316,356.619086L213.964331,351.854358L215.552907,348.875388L217.334347,345.727250L215.560187,346.955239L214.956102,346.743623L212.863230,348.283391L209.923841,350.758833L211.138630,348.386322L213.661114,344.580634L210.954597,346.717509L212.908737,343.637367L213.745819,341.844546L212.339714,342.503924L211.197088,342.856100L210.038664,343.205518L211.610760,340.705206L207.394147,344.181626L209.986349,340.680267L209.088372,340.738079L208.304184,340.671659L209.722495,338.455061L208.525460,338.793928L211.374554,335.279992L208.562032,337.140273L204.502394,340.093985L200.268238,343.120157L197.838842,344.433079L199.113017,342.410047L207.315659,334.350809L208.007418,332.987814L204.408033,335.315150L205.295672,333.786897L206.148114,332.315735L206.576652,331.219392L202.637211,333.682216L201.524544,333.806785L202.280341,332.440002L201.683657,332.150937L201.833073,331.283196L197.244422,334.022447L198.024874,332.655008L200.725586,329.891485L201.471963,328.613584L198.945295,329.711667L200.449308,327.906886L200.080156,327.449039L195.605259,329.825778L199.426968,326.473455L195.401564,328.470488L194.666247,328.219309L193.348369,328.341432L192.167461,328.357457L196.066341,325.131999L192.515115,326.647423L190.595605,327.098140L193.771894,324.420394L193.872260,323.648589L193.852105,322.955210L190.878437,323.986740L192.189758,322.513961L194.871090,320.294339L192.515088,320.929998L193.771201,319.549927L195.690884,317.837194L190.506699,319.939166L190.021988,319.499581L190.615204,318.501059L181.812424,322.284340L183.065221,320.909012L182.340969,320.529968L183.303527,319.328590L188.954298,315.917564L186.485527,316.397020L191.006913,313.627326L192.585901,312.262166L190.598890,312.509936L188.234384,312.895736L188.543214,312.101879L192.072240,309.958838L187.325964,311.298675L175.929820,315.273939L173.773764,315.395249L183.823960,310.707911L186.009662,309.194728L187.480915,307.986260L185.613628,308.036360L183.432905,308.175870L184.104060,307.274192L183.568189,306.805083L186.247959,305.235708L186.143720,304.636053L185.073373,304.352973L184.802454,303.802089L177.212823,305.535353L181.725723,303.470357L180.793248,303.095229L178.898164,302.989950L175.954102,303.159008L176.482462,302.326551L178.201986,301.181642L175.222293,301.301455L175.668207,300.503159L172.949559,300.504081L175.344904,299.226905L176.771483,298.213350L178.819311,297.078543L176.473349,296.952286L175.167976,296.571469L174.953147,295.946645L176.705399,294.922063L181.301328,293.365239L187.267890,291.611731L182.886119,291.829677L180.566372,291.627847L186.710670,289.962329L186.695531,289.382433L187.550815,288.667514L188.290654,287.982281L183.683997,288.073286L182.958520,287.574789L179.346091,287.443417L185.248831,286.090178L183.202557,285.745267L180.750521,285.419481L185.337144,284.330263L181.774532,284.096505L183.158538,283.366699L180.488880,282.998569L182.928370,282.197205L179.031173,281.882380L176.813401,281.408227L179.098071,280.641169L173.286004,280.328144L170.393559,279.806587L171.953439,279.072265L173.493083,278.359006L177.372972,277.603404L184.723902,276.827592L186.809691,276.219124L184.674144,275.668793L186.872997,275.086830L181.797035,274.493575L181.549202,273.892338L180.723406,273.277268L179.956494,272.652904L183.134754,272.141264L181.026899,271.471762L179.526394,270.801578L174.829810,269.950640L171.226650,269.100994L167.996568,268.228064L165.884148,267.390881L163.925325,266.537519L164.494660,265.867107L174.930491,266.082526L177.961897,265.724480L179.181316,265.219989L182.734135,264.983811L179.088533,263.964716L178.755280,263.299947L174.741535,262.158445L170.161899,260.887316L177.127730,261.184846L178.824549,260.794149L175.608547,259.666599L177.574266,259.328972L177.402359,258.657979L174.950054,257.586432L185.911564,258.904437L185.278914,258.194737L185.976493,257.733205L187.540414,257.453300L183.331548,255.996007L181.876064,255.069993L184.036029,254.920788L185.823912,254.714287L183.570440,253.583521L185.972784,253.542527L181.834955,251.911484L186.521205,252.469071L184.591009,251.358582L183.820070,250.530640L187.731753,250.978848L185.907169,249.860324L186.856285,249.516197L187.409852,249.065881L186.698330,248.237548L187.020960,247.717526L186.229144,246.846130L188.850639,247.067696L191.953900,247.483538L181.343329,243.299241L174.043760,240.104651L177.713668,240.672516L180.217404,240.870259L182.738248,241.107419L190.567361,243.366908L189.011238,242.152953L186.374850,240.492386L184.281600,239.005072L187.786918,239.746301L189.719064,239.888811L191.614605,240.041600L189.362332,238.449301L186.949247,236.749400L187.200439,236.186716L183.359306,233.783490L178.337627,230.776792L181.376335,231.438119L188.946260,234.286341L188.783735,233.530094L190.275366,233.575832L184.848068,230.203013L178.798285,226.424398L181.438352,227.001328L185.181369,228.190879L188.398239,229.158116L189.463136,229.016516L188.009279,227.512693L189.983030,227.879316L181.143378,222.189597L186.834231,224.643876L191.883866,226.817831L196.451065,228.789274L197.462613,228.711872L194.006503,225.940769L197.204527,227.192632L194.639385,224.902845L199.118457,227.016032L200.038559,226.921541L198.524663,225.254880L199.320759,225.078503L198.293265,223.691097L194.991052,220.735699L193.596673,219.023782L193.961107,218.504838L195.740814,218.986126L199.694660,221.052276L200.332533,220.780634L198.345429,218.582708L201.413297,220.108975L202.248189,220.001427L200.333070,217.796785L204.116080,219.969379L199.688156,215.753103L197.959567,213.588622L201.521128,215.652337L201.844836,215.133843L199.691984,212.560688L204.689159,215.938295L207.735259,217.756627L206.676405,216.095191L206.074477,214.800672L205.461126,213.473679L206.868652,213.934890L200.992739,207.806778L203.182364,208.948870L209.553577,214.028475L210.151775,213.803563L210.149631,213.009770L211.051778,213.081734L206.588268,207.903773L205.270222,205.727380L206.093815,205.661111L208.073055,206.782552L213.499924,211.503867L211.673421,208.772692L211.761135,208.008794L209.236915,204.432829L210.342201,204.719749L211.239769,204.796281L209.602909,202.058708L211.240707,202.960419L214.872959,206.179313L213.407346,203.581723L211.368565,200.252927L212.953804,201.160052L214.414354,201.951311L215.765985,202.640757L214.951609,200.677708L211.659765,195.565715L211.842346,194.743229L215.097967,197.866605L219.213702,202.206518L221.938263,204.833400L219.504626,200.627765L219.808133,200.035371L217.812094,196.270757L217.765925,195.134063L219.146374,195.994197L220.228748,196.460552L224.923582,202.201222L224.475631,200.530793L225.526889,201.063191L223.164268,196.445999L222.659871,194.563203L223.045175,194.023042L224.639112,195.387613L226.793530,197.699581L227.692637,198.045580L227.792014,197.090718L227.471445,195.413500L228.229242,195.528015L229.427858,196.415041L229.866270,196.006975L229.275861,193.767551L227.577483,189.470501L231.731179,195.766944L233.630811,198.075791L232.826872,195.359636L232.492843,193.467704L233.147988,193.451661L234.499378,194.822067L233.304768,191.123651L235.617213,194.483012L233.317089,188.376127L234.463905,189.356762L235.179966,189.453886L234.664592,186.872526L236.215671,188.803619L235.589436,185.887619L235.189024,183.397172L236.468372,184.760759L235.368388,180.509812L239.883294,189.744139L241.315041,191.705863L242.502297,193.133635L242.305958,191.072046L242.738459,190.584239L243.550352,191.097569L243.612391,189.599155L243.516585,187.610143L244.003766,187.199104L245.346698,189.253724L246.824264,191.801177L246.114161,187.867415L245.830816,185.084521L245.661123,182.543716L247.592329,186.666838L247.440293,184.119835L248.808800,186.593180L249.533835,186.969709L250.934737,189.766606L250.063556,184.462738L250.441785,183.547013L250.094174,179.817472L251.167976,181.473947L251.984993,182.194718L251.327428,176.850775L252.029131,177.004672L253.637713,181.160215L254.543395,182.396239L256.500966,188.629404L256.133079,184.065417L256.673987,183.731194L257.185461,183.230448L258.104335,184.875393L258.323726,182.781085L258.540371,180.519784L259.776616,184.171666L260.323065,183.846835L260.325975,179.982813L260.701145,178.301178L262.453298,186.215889L263.247619,187.800520L263.464799,185.054093L263.763647,182.692095L263.077753,171.524399L263.991954,173.747395L264.694418,174.190632L265.604161,176.867739L266.745708,182.538685L267.499796,184.425024L267.803003,180.733199L268.110084,176.423291L268.603850,174.188437L269.475707,178.090193L270.364501,183.329705L271.067169,185.888573L271.746802,188.718062L272.133789,183.362817L272.685583,181.879237L273.209055,177.835511L273.809621,175.898977L274.445681,175.880727L275.081794,176.026806L275.722363,175.299844Z" />
<line x1="50" y1="625" x2="100" y2="625" fill="none" stroke="green" stroke-width="1.0" stroke-linejoin="round" stroke-miterlimit="10" />
<text x="125" y="628" style="text-anchor:start;fill:black">n0_4mer:PS</text>
<path style="stroke:red;stroke-width:1.0" d="M276.607094,149.804920L277.368428,152.010777L278.162037,151.864206L278.955807,151.779410L279.835026,149.513655L280.740945,147.310824L281.387058,150.723754L281.978476,154.331956L282.874293,152.490148L283.510156,154.668931L284.416680,152.985583L285.454749,149.998673L286.235018,150.311079L287.018245,150.560645L287.399559,154.688262L288.406097,152.629443L288.993973,154.418225L289.884883,153.554194L290.442081,155.372259L291.654426,152.193976L292.295573,153.335868L293.321252,151.801235L294.196014,151.378124L295.206457,150.161132L295.363387,154.116197L296.202418,153.886518L297.085759,153.439592L297.505796,155.494271L298.512117,154.411799L299.487318,153.565160L300.810733,151.111504L301.334930,152.537525L301.600157,155.055157L304.096724,147.669898L306.265968,142.110594L307.344989,141.377570L308.650960,139.783983L307.688756,147.157490L307.850945,149.875144L307.849874,153.071090L307.973695,155.666286L307.634661,159.779367L309.555020,155.919789L310.229864,156.442849L309.965955,160.038707L311.459262,157.835678L311.825571,159.281881L312.830580,158.712200L314.311049,156.746968L316.844274,151.774622L321.320092,141.416401L325.421744,132.548214L327.653953,129.223362L329.017716,128.399677L328.233090,133.338597L327.125790,138.943947L323.802691,150.024855L324.237171,151.262238L324.904778,151.890724L326.195743,150.998210L325.314739,155.315829L324.215471,160.002441L324.207962,162.030223L325.265088,161.597095L325.924393,162.071902L326.723818,162.236251L330.060576,156.966916L330.260849,158.495426L330.128691,160.675046L328.526583,165.794726L329.716692,165.156377L330.448781,165.454229L331.534399,165.066449L332.065670,165.763143L333.371333,164.990200L333.140645,167.103434L334.046930,167.086060L334.925549,167.130390L335.274258,168.124470L335.626768,169.093963L334.813341,172.053163L336.307711,171.023392L338.440455,168.967819L339.290327,169.096216L340.482952,168.676198L340.161054,170.704121L341.335813,170.325052L342.009394,170.748234L342.900024,170.838650L346.773924,166.425756L347.087514,167.458335L348.340216,167.093587L347.748183,169.428652L346.853356,172.146518L349.094160,170.375864L350.616927,169.665754L356.413520,163.114124L358.475614,161.814486L357.941523,164.036822L357.211280,166.473455L357.205597,167.916007L357.442331,169.022943L355.510447,172.865847L356.970831,172.375057L358.405144,171.942904L358.906802,172.673220L360.246396,172.389968L360.100345,173.893205L361.111636,174.014579L357.412075,179.600281L354.659766,183.974030L355.765008,183.897725L357.181230,183.490323L358.335188,183.395045L360.826468,181.864606L361.147928,182.711583L363.155919,181.767436L363.317390,182.789541L365.387374,181.832890L363.607976,184.832353L362.773492,186.820909L362.259236,188.455736L361.395585,190.405429L362.702892,190.221172L365.155939,188.962466L364.175887,190.984809L365.398084,190.922053L368.319682,189.315275L369.178495,189.634370L368.419400,191.408437L371.451728,189.803563L370.249438,191.947844L367.734985,195.182294L366.897801,196.924101L367.974639,197.031219L368.219959,197.839211L369.161005,198.073410L371.364706,197.299076L372.140856,197.696885L371.761408,199.008116L372.498052,199.436344L372.301281,200.583621L375.617956,199.065649L376.853334,199.154532L376.209930,200.638737L376.437356,201.469535L374.450073,203.879369L371.996176,206.570972L374.954800,205.440312L378.941133,203.652075L383.878953,201.286298L382.445612,203.258159L383.964217,203.251121L387.664400,201.847058L384.064851,205.175333L380.096687,208.663015L378.552195,210.563659L381.466210,209.694625L380.627023,211.138823L379.593587,212.676869L379.805751,213.458568L383.902383,211.989574L382.005186,214.000687L380.897190,215.529664L382.496747,215.535741L382.378529,216.498114L382.242417,217.461867L383.897437,217.471034L384.777335,217.904457L385.302992,218.527617L384.544644,219.800432L383.307405,221.292805L383.033573,222.289825L383.487201,222.927945L384.639230,223.238230L386.717017,223.131569L385.779320,224.428720L385.848274,225.254533L384.386638,226.751599L385.042490,227.303706L385.049147,228.137594L389.405126,227.147833L391.439979,227.172541L388.785269,229.114313L389.377833,229.726722L388.931726,230.747053L388.583186,231.719417L394.804733,230.227237L394.264798,231.299397L391.358429,233.209523L388.475352,235.065438L390.181413,235.294068L390.380204,236.052335L392.247641,236.258508L390.784394,237.564608L390.341414,238.523898L395.240638,237.821826L395.455097,238.600946L394.903506,239.605926L397.426404,239.713899L395.506210,241.103571L396.606733,241.634835L399.074150,241.812718L395.231620,243.666068L398.632975,243.625702L400.488013,244.010923L401.218900,244.688665L395.129878,246.965254L394.118945,248.006224L393.774966,248.884565L393.108684,249.824721L394.372407,250.355312L393.005298,251.426259L393.916561,252.036975L395.816560,252.473512L397.096607,253.044847L397.408136,253.799024L395.014760,255.006145L391.984234,256.281942L395.681692,256.483990L395.876560,257.247470L395.263989,258.125305L398.566228,258.470002L404.854300,258.476529L407.939870,258.950338L407.043462,259.917821L402.178733,261.299869L397.939092,262.554316L398.637103,263.284880L400.567176,263.914743L404.386510,264.414083L401.693815,265.452638L404.607865,266.069301L404.951005,266.883389L405.181507,267.707537L405.825664,268.513542L399.970096,269.607753L398.710786,270.457435L406.169904,271.026444L409.954935,271.778671L402.470044,272.775891L398.389921,273.639261L396.724183,274.439005L398.941312,275.224347L398.557601,276.016768L404.646235,276.899158L402.177839,277.679592L397.676625,278.372658L395.726566,279.094700L396.892692,279.917739L396.643480,280.689975L396.853475,281.483909L398.037037,282.339156L397.065584,283.067824L394.507108,283.669506L396.466055,284.595762L402.658876,285.909953L404.093118,286.867672L397.973441,287.101578L394.702860,287.556018L393.414384,288.189836L394.475525,289.085005L394.000205,289.804022L397.566748,291.047269L400.768350,292.288268L399.297230,292.899691L396.467221,293.288740L394.085364,293.712597L394.007545,294.483918L393.276617,295.144626L396.353917,296.471177L392.205543,296.513968L395.500370,297.919242L398.653945,299.342495L398.167477,300.069006L400.222580,301.325478L396.904995,301.446207L392.009296,301.171643L393.109163,302.214856L395.275757,303.528317L394.467973,304.147949L394.086010,304.865930L394.287020,305.731505L391.468236,305.803849L394.057716,307.307790L394.825257,308.343296L393.447851,308.780653L394.838884,310.010693L392.086787,310.023921L392.542404,310.983792L390.875732,311.288670L388.691878,311.407717L392.226330,313.370897L395.422985,315.274838L392.684130,315.200546L392.102580,315.843115L390.134745,315.987573L387.578648,315.893688L385.629135,315.991230L391.704674,319.096383L391.900508,320.029963L392.046940,320.951298L394.680638,322.874118L394.055963,323.513011L390.459916,322.914140L386.077828,321.933655L385.050587,322.334398L389.375729,325.067100L388.907040,325.735651L389.472123,326.870431L387.654414,326.920911L390.880372,329.312212L393.389417,331.417843L390.449036,330.928756L384.072528,328.706818L382.590212,328.837704L380.792475,328.789968L383.743280,331.171636L382.893674,331.613040L383.778488,332.970799L384.361165,334.185763L384.108157,334.957475L383.547826,335.559932L382.752478,336.026397L382.736890,336.934276L379.816024,336.153630L381.269685,337.919520L378.988334,337.473711L376.784914,337.042551L379.445542,339.587456L377.996565,339.609012L376.604257,339.648121L376.630080,340.584764L376.880419,341.676469L379.071204,344.068417L380.271448,345.842493L381.354823,347.567695L377.400368,345.837047L374.739447,344.947122L375.692679,346.584199L378.573946,349.637968L375.616711,348.492709L373.544034,347.953365L374.016691,349.291891L371.945221,348.714972L372.507119,350.134832L373.791815,352.140445L373.196852,352.695610L372.006292,352.771268L375.204760,356.397609L374.325760,356.747391L373.059006,356.766217L369.453874,354.793462L368.948364,355.405466L367.282698,355.011816L366.686313,355.531445L367.911992,357.670488L366.790049,357.733928L366.663098,358.692088L365.096281,358.328202L364.290717,358.652923L363.591596,359.072182L364.096142,360.644586L361.879695,359.593637L360.092071,358.923772L362.927706,362.840974L361.266520,362.294947L362.493360,364.680536L364.113749,367.522181L366.767357,371.509507L367.949725,374.018041L363.390507,370.380749L360.129128,368.052413L358.804540,367.793544L358.452350,368.604534L358.044514,369.359504L357.559793,370.031795L354.243724,367.406187L351.964540,365.923022L350.888760,365.828010L352.626421,369.129166L352.067140,369.682635L348.973146,367.082433L348.549579,367.768528L349.056235,369.649234L349.417036,371.378712L349.555987,372.850691L350.768965,375.778012L350.488601,376.758432L349.646424,376.984766L346.687546,374.272989L344.825543,373.013923L345.120472,374.777020L344.539933,375.313551L344.041765,375.973056L343.040473,375.892556L341.886140,375.567425L341.080719,375.752979L341.223650,377.398145L341.930170,379.961987L341.571796,380.893245L343.780802,385.981680L342.877923,386.111344L343.698182,389.093831L342.235564,388.304174L341.710034,389.080779L338.975947,386.034695L335.844522,382.184527L334.776304,381.895167L334.228392,382.529837L333.923420,383.620194L331.849711,381.421658L331.410808,382.250867L332.318747,385.695929L331.421728,385.697997L332.219520,389.067057L330.600610,387.637979L329.740288,387.712147L328.971710,387.969138L328.312965,388.456870L326.884666,387.284135L326.472320,388.295985L324.886609,386.704116L323.548999,385.610420L322.925552,386.122731L325.255922,393.613992L325.939402,397.408592L325.862266,399.469627L322.314844,392.944826L319.239594,387.360782L318.225393,386.886418L318.934365,390.929726L319.940652,395.921605L319.287737,396.548387L317.235288,393.270048L315.571207,390.954844L314.146250,389.229109L312.918229,388.005768L313.044465,390.842238L311.910009,389.869971L311.328247,390.601958L310.017916,388.985317L309.740206,390.722234L309.650529,393.172682L308.189395,390.940717L307.536001,391.478883L306.582102,390.930694L305.521679,389.942344L305.118235,391.430822L304.015936,390.214767L303.501055,391.317938L303.036244,392.683848L301.688548,390.304862L301.059715,390.971470L300.651553,392.681341L300.108866,393.852799L299.582857,395.172019L298.234488,392.413995L297.534646,392.844617L296.565845,391.838698L296.206660,394.173223L296.012672,397.641863L295.142119,397.270909L293.939006,394.755399L293.613303,397.799584L292.431836,395.207405L291.621026,395.036117L291.335758,398.820730L290.436271,398.090746L289.526760,397.185511L288.512410,395.231762L287.849609,396.347427L287.442698,400.172249L286.744922,401.389485L286.074011,403.088478L285.529999,406.637059L284.714762,407.108906L283.771745,405.754814L283.189916,410.057003L283.328640,428.663681L282.694205,436.084813L281.452468,431.107992L279.916105,415.841602L278.549874,399.644769L277.635128,394.469043L276.886483,395.650883L276.133586,398.001134L275.339942,396.537969L274.563219,395.596828L273.791422,395.364847L273.004301,396.238639L272.211748,396.852273L271.415055,397.330402L270.680312,395.894533L269.918731,395.524560L269.064620,397.148118L268.243957,397.775273L267.234878,401.327194L266.184542,404.803217L265.442335,403.523124L264.763679,401.651384L263.840056,402.853454L263.080468,402.130257L262.482326,399.879976L262.127895,395.609792L261.429234,394.860151L260.693847,394.489203L259.851923,394.990951L258.667297,398.015031L258.391015,394.225262L257.745507,393.297388L256.733759,394.842661L255.266296,399.116838L254.665378,397.807811L253.966962,397.155313L253.176327,397.056844L252.616523,395.710562L251.662565,396.499469L250.967133,395.924692L250.448042,394.518808L248.705256,398.960488L249.797832,390.163138L248.487958,392.531145L246.970954,395.643298L245.903235,396.690131L244.446054,399.252691L244.164327,397.015418L243.343329,396.963095L243.296507,393.997187L241.460505,397.716621L240.734677,397.280515L239.464007,398.752220L238.508883,399.070743L238.631600,395.784016L238.918466,392.103291L238.613895,390.453033L237.070501,392.709349L236.147313,392.974868L235.891502,391.235086L234.536582,392.755825L233.321905,393.803952L233.593752,390.647250L233.340407,389.042881L232.866496,388.082704L231.054569,390.670927L231.514496,387.284107L230.251603,388.378628L229.046896,389.277462L228.443215,388.665462L228.827317,385.696562L226.715409,388.700090L225.732475,388.975690L225.494851,387.536531L224.266452,388.349357L224.218668,386.530679L223.184688,386.891582L222.313017,386.884849L222.349752,384.969881L220.442066,387.101288L220.047798,386.093451L219.458028,385.495371L219.201056,384.253285L216.504118,387.741416L213.921374,390.893419L216.350796,384.572716L213.808193,387.580119L213.524990,386.391087L214.293376,383.348931L213.397417,383.311749L211.431196,385.118001L210.401939,385.260288L208.247373,387.279215L208.728344,384.858709L208.231655,384.092677L206.142630,385.900836L207.996554,381.385011L209.017621,378.287604L208.969270,376.915399L208.456510,376.276314L207.283004,376.634771L206.939788,375.742475L203.754688,379.011495L202.425807,379.506363L203.857622,376.053845L203.737213,374.856986L204.336767,372.684658L203.892175,371.982258L203.588902,371.096223L202.867855,370.776218L200.356452,372.798173L197.916756,374.661720L192.754579,379.937148L192.576170,378.785716L192.846173,377.093232L193.449634,375.021986L195.368467,371.398453L195.926268,369.481475L195.138175,369.188116L191.433115,372.284931L192.614848,369.672935L194.310074,366.531760L192.629432,367.237875L192.643621,366.038976L191.980550,365.596224L190.217009,366.336713L190.692382,364.663403L189.551811,364.715489L190.713080,362.366395L187.139572,364.908299L188.183053,362.707123L185.298405,364.465406L187.617561,361.040625L187.900195,359.668117L187.456666,359.013116L189.099798,356.383532L187.039383,357.270680L183.306824,359.664920L179.569357,361.987785L177.479424,362.753398L180.062227,359.332773L186.055527,352.993320L185.496745,352.472729L182.532268,354.006229L182.984537,352.603554L182.719175,351.819149L182.827924,350.732309L180.732558,351.445677L180.195139,350.877979L180.621793,349.547715L179.447915,349.483955L178.702252,349.076433L173.655718,351.928082L173.980548,350.664408L172.744892,350.570232L171.694074,350.326382L171.884422,349.178516L175.847519,345.366201L171.595325,347.390378L171.319347,346.596336L173.976975,343.807669L173.438598,343.224177L173.314616,342.364285L171.081270,342.888097L168.594088,343.542495L171.500516,340.734138L171.171986,340.011297L167.761832,341.192158L171.072256,338.231192L170.274815,337.798895L168.556472,337.903932L166.342749,338.274675L168.765490,335.954083L169.945412,334.384036L166.273516,335.542068L167.377943,334.025306L167.135931,333.260566L164.797665,333.612942L163.304060,333.490689L162.784831,332.847846L158.321926,334.203661L157.827692,333.511750L155.297768,333.818215L155.555422,332.742785L158.463007,330.417177L161.985788,327.855217L163.641591,326.212281L166.093556,324.240239L165.225566,323.786468L162.187911,324.271789L163.785416,322.726387L165.293583,321.247588L160.595043,322.365771L154.407708,324.023092L149.257945,325.178509L156.073409,321.576053L158.940612,319.596068L158.041553,319.082062L159.876839,317.548435L158.225981,317.308645L158.314660,316.431170L157.226765,315.968100L159.530621,314.337669L156.920233,314.382903L157.030863,313.506336L155.663130,313.106925L150.000174,314.032867L151.953022,312.557958L149.427931,312.449291L146.306133,312.482478L145.299520,311.874186L144.857972,311.098474L144.689126,310.246102L145.320519,309.183577L144.510900,308.502710L144.545975,307.602604L147.621694,305.966626L146.355506,305.401250L146.997134,304.383411L146.263500,303.683209L146.342411,302.800029L148.768322,301.428919L150.395444,300.254488L152.633041,298.984314L158.284172,297.099684L155.574497,296.819651L152.740916,296.527346L155.572455,295.239301L154.667450,294.598949L156.100829,293.582861L155.597244,292.877198L155.052952,292.172259L154.905890,291.407364L150.312458,291.220342L155.368892,289.782318L152.850292,289.298124L151.471007,288.656394L155.765985,287.407420L152.778132,286.925838L153.861171,286.035671L152.906185,285.332920L153.085342,284.530023L153.478930,283.714852L151.180227,283.081197L149.801314,282.364470L144.181659,281.852734L141.853063,281.118001L144.687778,280.149768L147.795552,279.209373L150.756928,278.313170L155.469715,277.419828L153.920866,276.673772L154.269667,275.893915L152.617140,275.120582L152.001125,274.331676L151.197536,273.532584L153.226842,272.774818L149.555137,271.902144L151.877546,271.168578L149.712850,270.296070L142.220629,269.161069L135.785307,267.982492L131.855303,266.862926L124.404566,265.469254L126.504244,264.644751L130.021029,263.954442L134.449803,263.384001L133.420790,262.383481L134.136582,261.535377L141.854567,261.410127L146.897280,261.093437L147.715513,260.355031L149.274950,259.716152L146.205008,258.503358L145.538409,257.572648L148.515052,257.146025L150.768444,256.650047L148.922711,255.549700L149.839148,254.867751L151.759688,254.364298L148.706402,253.018757L153.858534,253.113433L154.625438,252.453169L156.414000,251.999332L155.513826,251.027922L155.964289,250.322439L154.634310,249.239824L155.814932,248.691318L155.682303,247.857696L155.423039,246.990267L155.456524,246.187452L153.459949,244.879483L156.297606,244.772699L154.947796,243.607057L154.330683,242.616766L156.174883,242.292614L158.061841,242.003097L158.657174,241.363368L159.413483,240.776580L159.223314,239.910426L158.660587,238.922918L156.965888,237.565225L159.068609,237.411435L158.268552,236.322248L151.771099,233.289680L148.688098,231.340511L151.322592,231.360424L153.967528,231.418086L155.707447,231.177588L162.954447,233.021598L162.680873,232.094956L160.460483,230.402215L157.962286,228.562187L159.077228,228.141130L158.913959,227.205978L162.124038,227.678008L158.859419,225.430464L160.885030,225.426703L157.514785,223.063669L152.909118,220.088150L149.702785,217.676301L154.019770,218.709464L157.821220,219.560494L161.540222,220.426001L162.615868,220.052354L159.798666,217.755828L155.018161,214.416984L158.082157,215.019213L162.450189,216.344488L165.353600,216.959639L164.235799,215.454634L163.948708,214.378283L164.478912,213.743650L158.477858,209.436366L163.345172,211.228034L166.080980,211.859977L168.628120,212.420899L168.623213,211.495379L169.178456,210.901970L171.682904,211.508922L170.688169,209.971554L172.444196,210.148466L174.007542,210.225874L173.147385,208.747653L172.704234,207.521023L172.310356,206.311207L172.401576,205.414886L171.991051,204.166883L172.740743,203.711349L172.825531,202.791488L173.650498,202.394592L175.687059,202.884460L172.664643,199.681808L177.066217,201.947593L180.028264,203.203713L178.165048,200.813602L179.587843,200.926920L177.352508,198.181924L175.786780,195.913989L179.497462,197.864188L178.590979,196.104167L179.029570,195.429087L182.593108,197.377424L184.970808,198.383714L183.738838,196.319695L182.068707,193.834111L184.896473,195.278569L185.705477,194.966652L181.743762,190.330104L182.927412,190.320264L185.421880,191.546783L185.600779,190.635103L186.836521,190.724854L189.337776,192.057016L185.922716,187.635603L185.427860,186.015107L186.636091,186.081199L188.077907,186.401852L191.447998,188.736219L189.496610,185.580053L191.410678,186.450821L190.779075,184.626618L190.762277,183.437213L193.721830,185.508012L192.614302,183.110297L193.866922,183.330336L195.087193,183.532762L192.052195,178.819872L192.983539,178.656260L194.817781,179.576730L197.230154,181.232158L197.068943,179.800776L197.539136,179.126175L195.378806,175.147944L195.695411,174.224720L197.876948,175.691805L200.181116,177.371600L202.621146,179.289260L201.501573,176.500938L201.416238,175.054488L201.682891,174.066064L201.523436,172.468866L202.523333,172.480653L204.035511,173.240196L206.986766,176.125510L205.554507,172.642445L206.335869,172.382505L205.884689,170.259814L204.601736,166.811293L207.072752,169.128372L209.374704,171.257062L211.514503,173.199235L210.884039,170.703200L211.155372,169.634583L211.937616,169.402124L211.647974,167.353437L212.493770,167.213767L214.719281,169.496726L215.089139,168.563747L214.094362,165.152843L216.601679,168.062087L217.232919,167.584622L217.531038,166.474754L217.806980,165.298985L220.158152,168.141061L220.903958,167.907599L220.230123,164.822000L220.223759,163.011532L220.422722,161.579536L220.948193,160.801240L223.617245,164.613480L223.277219,161.992641L224.424584,162.598474L224.569429,160.969957L224.389744,158.548634L225.630126,159.378105L224.887026,155.520015L228.821553,162.888596L230.298571,164.465001L231.569403,165.592109L231.998948,164.613210L232.220767,163.063576L232.474652,161.549444L233.338647,161.645880L233.460069,159.695844L233.987836,158.827671L234.806607,158.775715L234.953527,156.748629L235.934528,157.161100L236.784404,157.198500L237.225910,155.961634L237.898392,155.423905L239.880520,159.190924L240.687381,159.179819L240.700711,156.435766L241.832058,157.527101L242.517544,157.065273L242.941547,155.616675L243.247959,153.653309L244.310205,154.561408L245.149386,154.630945L244.638937,149.119517L245.247071,148.071932L246.092598,148.016200L246.581857,146.355635L248.258060,150.143898L249.790011,153.493162L250.617315,153.567230L250.889642,150.798259L252.102998,152.863148L252.715986,151.770576L253.436417,151.222481L254.961174,155.440959L255.541608,154.150923L256.128269,152.801847L256.547406,150.210695L258.170380,155.908712L259.253848,158.167828L259.504476,154.173409L259.975596,151.572825L260.270587,147.160435L261.174772,147.834805L262.070265,148.521122L262.773252,147.301087L263.690438,148.314755L264.580539,149.171091L265.296952,147.908754L266.235027,149.596123L266.816570,146.018604L267.766566,148.107622L268.509650,146.648709L269.405609,148.240380L270.084406,144.627690L270.892455,143.675453L271.796174,146.093783L272.640371,146.982539L273.464720,147.185385L274.277969,145.891633L275.104892,148.077359L275.935262,145.915673Z" />
<line x1="50" y1="600" x2="100" y2="600" fill="none" stroke="red" stroke-width="1.0" stroke-linejoin="round" stroke-miterlimit="10" />
<text x="125" y="603" style="text-anchor:start;fill:black">n0_4mer:D</text>
<path style="stroke:black;stroke-width:1.0" d="M277.221432,101.946999L278.335061,101.814832L279.420633,102.852099L280.553999,101.996867L281.711521,100.811836L282.834509,100.746103L283.932310,101.199504L285.030387,101.559955L286.121801,101.964758L287.301917,101.054548L288.544197,99.504246L289.671426,99.582340L290.757822,100.115915L291.786296,101.191269L292.916968,101.153369L294.150924,100.190788L295.330236,99.820585L296.493795,99.632063L297.546976,100.331580L298.630707,100.752442L299.824333,100.375495L300.907917,100.785745L302.085089,100.572672L303.134226,101.182051L304.191196,101.711399L305.266245,102.111684L306.218917,103.170531L307.348971,103.227030L308.680553,102.260242L309.865242,102.100086L310.946280,102.462066L311.848011,103.649680L312.562757,105.622843L313.936030,104.612135L315.232192,104.001548L316.484846,103.619327L317.454220,104.410794L318.350112,105.461973L319.392999,105.913005L320.451397,106.298005L321.683151,106.050972L322.688275,106.630753L323.956152,106.291983L325.062967,106.525811L326.157883,106.802781L326.883565,108.268628L327.736613,109.284126L328.679326,109.994581L330.668067,107.542813L333.048217,104.056340L335.110848,101.644915L337.085817,99.594810L338.397290,99.479582L339.526930,99.878400L340.227499,101.419639L340.562097,103.873191L340.695114,106.766320L341.191230,108.655050L341.919444,109.917523L343.316419,109.530027L344.144570,110.525123L344.731589,112.064193L345.391581,113.397671L345.925894,114.984314L346.607212,116.206426L347.541601,116.851138L348.386105,117.682568L349.828346,117.241934L351.105489,117.173714L352.083957,117.732823L353.097404,118.219656L353.661755,119.594192L354.531866,120.346892L355.331886,121.226237L356.475478,121.446867L357.186625,122.479253L358.571985,122.264165L359.757058,122.432174L360.820585,122.826903L362.162025,122.740775L363.112424,123.346622L364.128484,123.839936L365.270213,124.125490L366.152445,124.846946L366.943911,125.711888L367.323968,127.227538L367.882448,128.435648L369.030845,128.708846L369.899646,129.420151L371.983445,128.290671L373.660992,127.815463L374.659922,128.369061L375.726743,128.826480L376.784633,129.301810L377.912818,129.682682L379.207981,129.838465L380.564214,129.924040L381.218697,130.976886L381.916418,131.962048L382.500194,133.089733L382.875984,134.476829L383.583844,135.418840L384.067362,136.639041L385.483769,136.677740L386.896286,136.738667L388.280844,136.850723L389.572687,137.090275L389.964465,138.411968L390.335904,139.742498L390.670502,141.100526L391.461724,141.921008L392.172542,142.830320L392.726135,143.910692L393.565141,144.669048L394.026501,145.837280L394.878706,146.576528L396.009766,147.021630L396.724969,147.909342L397.529521,148.702256L396.830525,151.025022L397.191624,152.243732L397.639754,153.365113L398.212524,154.355981L399.937154,154.228322L401.261475,154.506264L402.378068,154.993425L402.971809,155.975276L404.101509,156.460941L405.248757,156.939426L406.553544,157.286052L407.400109,158.050125L408.374199,158.705195L408.416757,160.167185L408.074504,161.940586L409.123153,162.523965L409.274150,163.857500L410.304269,164.460653L411.594927,164.860589L412.181686,165.833042L413.705460,166.067219L413.967039,167.296745L414.595917,168.236528L415.617609,168.878714L416.576634,169.574427L417.129524,170.574171L417.250295,171.884829L417.024548,173.432700L417.254732,174.641889L419.250475,174.614446L420.994701,174.785401L423.022138,174.785408L424.140603,175.418256L424.390394,176.631988L424.997747,177.606533L425.040725,178.942072L424.829611,180.427612L425.306190,181.470540L424.379553,183.371983L424.312020,184.727255L424.415842,185.969082L423.809167,187.619974L424.550927,188.470510L425.505108,189.203147L426.466929,189.938355L428.005283,190.361664L428.852789,191.178044L428.638554,192.569225L429.540324,193.358546L430.005722,194.381029L430.998504,195.132654L432.188960,195.792451L431.943727,197.175153L432.327677,198.238960L432.817147,199.250390L433.243590,200.291628L434.570293,200.914055L435.019801,201.950209L435.542423,202.953250L435.338145,204.277841L435.008800,205.646546L434.852556,206.929728L433.867591,208.550543L434.325534,209.557396L434.719123,210.590768L434.803787,211.746125L436.546644,212.252639L437.530186,213.068288L438.849494,213.767072L439.743908,214.635096L440.563315,215.537441L440.634972,216.709280L440.473859,217.956997L440.860285,219.012313L440.207261,220.411476L440.030857,221.642250L440.775218,222.574478L441.299409,223.580543L442.080783,224.511623L443.204750,225.347980L442.354771,226.764512L441.962933,228.036053L441.658143,229.274107L442.709065,230.141276L443.634714,231.051589L444.591913,231.962718L445.580746,232.875340L445.349227,234.090814L445.011756,235.324305L444.616724,236.562824L444.493652,237.732884L444.998361,238.764255L445.998780,239.696938L446.344452,240.770776L446.806128,241.823895L447.052407,242.920487L446.233524,244.209151L446.476908,245.300359L447.231265,246.307139L447.621746,247.379663L448.796393,248.334682L449.335037,249.396293L449.433889,250.524521L449.277618,251.686116L449.845328,252.751589L450.207939,253.847367L449.358860,255.084500L449.035633,256.252282L449.214575,257.363466L449.585553,258.457306L450.597219,259.498016L451.577760,260.553073L451.031077,261.734693L451.399453,262.845102L451.374021,263.983853L451.228904,265.128070L451.575822,266.245206L451.166251,267.398725L451.598701,268.515431L452.261477,269.630183L452.092325,270.772866L452.103310,271.909885L450.981923,273.059278L449.603096,274.195300L449.992212,275.316754L449.724050,276.437821L449.973727,277.563150L449.303733,278.672518L449.251575,279.790570L449.454629,280.917002L449.987660,282.059846L450.737966,283.220290L450.344516,284.330205L450.355892,285.459975L449.586576,286.539156L449.284474,287.643267L449.735627,288.804033L450.340967,289.984949L450.925869,291.173058L450.992614,292.319092L450.281021,293.385790L449.227542,294.406702L448.515853,295.455835L448.269324,296.555281L447.606774,297.598849L447.941180,298.772701L448.675948,300.010580L448.462384,301.117404L449.168021,302.368065L448.001779,303.323856L446.201955,304.158759L445.038746,305.084995L445.272500,306.254811L446.308795,307.583035L446.684898,308.797860L447.027939,310.013865L446.139006,310.978464L444.817197,311.840334L443.540220,312.697642L443.599334,313.848862L443.419484,314.947572L442.953130,315.977419L443.887123,317.355698L443.333328,318.367137L442.652659,319.341250L443.112634,320.619451L443.021097,321.754561L442.861796,322.873229L443.259048,324.156548L442.999943,325.253464L442.673917,326.330781L442.853982,327.566638L442.703607,328.703973L443.400991,330.121550L443.778786,331.447183L443.708747,332.630402L442.945818,333.576253L441.047071,334.112186L439.806447,334.865202L439.149169,335.821919L437.422201,336.370563L435.951660,336.998425L434.607802,337.660209L432.971934,338.191232L432.458874,339.161457L432.863615,340.511041L433.718116,342.063080L435.259687,343.930080L436.302749,345.609044L436.348682,346.866764L435.405805,347.684231L434.436394,348.482099L434.323682,349.673747L433.829801,350.689492L433.104428,351.592965L431.902953,352.258302L430.911899,353.017680L429.839575,353.727865L430.375129,355.259444L430.033885,356.348046L428.879675,357.006359L428.811903,358.242299L426.882975,358.463234L426.060263,359.278052L425.102823,360.011822L424.293940,360.824012L423.815568,361.824627L423.405799,362.867219L423.385276,364.146334L422.799335,365.090441L423.068645,366.563287L422.509643,367.531748L422.144710,368.624316L422.307534,370.061717L420.983007,370.539766L420.116761,371.308918L419.433356,372.196526L418.207549,372.712933L417.865279,373.829279L416.828792,374.464316L415.932703,375.191541L415.337406,376.130635L414.836811,377.139952L414.660612,378.392476L414.704071,379.819495L414.416488,381.009171L413.188520,381.482187L412.630285,382.467015L411.319998,382.859521L410.351755,383.513349L409.865923,384.553315L408.986198,385.273731L409.024537,386.755970L407.884243,387.258962L406.980480,387.955155L406.545542,389.053857L404.880857,389.079110L404.239331,389.993537L404.009291,391.281073L402.890963,391.769582L402.478396,392.902152L402.047421,394.025677L401.126646,394.692417L400.851474,395.976029L400.726226,397.418004L399.626334,397.915237L399.188575,399.066075L398.820249,400.296372L398.249164,401.330170L398.077509,402.784989L397.797469,404.143124L397.205574,405.183887L395.262756,404.773571L393.988490,405.063193L393.000370,405.657270L391.818185,406.029404L391.726331,407.630540L391.192361,408.745110L389.493256,408.510702L388.116989,408.632169L386.487399,408.434499L385.732019,409.272745L385.301926,410.514008L384.696023,411.550589L384.337650,412.908238L383.165160,413.242911L382.321425,413.993720L382.328672,415.863063L382.075899,417.418419L380.943539,417.811607L380.231429,418.771157L377.747502,417.284848L376.128484,416.953776L374.819882,417.037412L373.635471,417.284784L373.143524,418.534158L371.765846,418.487445L371.542087,420.156967L370.800346,421.066362L370.539710,422.728026L369.844928,423.738783L369.334054,425.053622L368.586278,426.006707L367.517314,426.444279L367.297820,428.288072L365.546421,427.587215L364.016106,427.226375L362.762551,427.317998L360.814107,426.171284L359.829803,426.697167L358.709590,426.975737L357.511808,427.103332L356.763521,428.059870L355.046116,427.187419L353.619234,426.832159L351.978825,426.030497L350.626640,425.761633L350.526154,428.003956L350.077731,429.587646L350.102488,432.198344L349.432192,433.401310L348.581725,434.238963L347.682197,434.981154L346.281674,434.611097L345.391361,435.374430L344.098107,435.214542L342.526944,434.377046L341.613021,435.072670L340.522704,435.346501L339.547982,435.903006L338.550494,436.407069L337.819507,437.604645L337.195370,439.115091L336.637162,440.846828L335.806753,441.885084L334.675443,442.107123L333.234137,441.436513L331.576951,440.092051L330.567798,440.605882L329.281326,440.282134L328.112217,440.293886L327.462414,441.943313L326.331023,442.085413L325.379698,442.818556L324.463282,443.690313L323.059510,442.886581L322.202874,443.986288L320.943063,443.646506L319.830738,443.829184L319.021654,445.178543L317.702483,444.560498L316.574557,444.673252L315.614982,445.483869L314.395810,445.205154L313.510796,446.381523L312.460533,446.857264L311.304969,446.849542L310.188632,447.017796L309.057070,447.105218L308.047936,447.823719L306.822212,447.405297L305.820058,448.196799L304.739382,448.575888L303.626658,448.775538L302.487211,448.807528L301.447829,449.487157L300.345234,449.777047L299.236577,450.035198L298.184515,450.732505L296.964273,450.145841L295.771708,449.712166L294.559089,449.034378L293.482411,449.541731L292.348085,449.519927L291.258757,449.963780L290.052456,449.105494L288.735234,446.706174L287.553962,445.718561L286.460411,445.833045L285.815394,453.352836L285.123686,461.782354L284.085013,465.202579L282.839694,464.669903L281.390079,458.069533L280.005954,450.771335L278.804286,447.475239L277.701820,447.796106L276.587212,447.222340L275.485676,448.641651L274.368747,449.291268L273.249523,449.333630L272.121294,449.881297L271.007697,449.471769L269.899238,449.055167L268.792392,448.731488L267.621559,450.012054L266.481361,450.310719L265.304741,451.188630L264.119571,452.008707L263.053925,450.899977L262.013188,449.635296L260.882441,449.672949L259.811554,449.005839L258.729974,448.531354L257.564084,448.945794L256.522221,448.134159L255.370507,448.372232L254.197143,448.751592L253.002444,449.247043L251.928872,448.767651L250.927818,447.798771L249.979746,446.539709L249.090165,444.991387L247.899451,445.451246L246.703812,445.890464L245.431418,446.727900L244.041497,448.146706L242.953540,447.821504L241.896780,447.342148L240.720567,447.481707L239.817916,446.266208L238.817901,445.572135L237.926900,444.408223L236.856778,444.093599L235.738242,443.991410L234.546767,444.185793L232.986986,445.852894L231.832988,445.809992L230.589870,446.098122L229.408867,446.123624L228.687137,444.452703L227.853407,443.249101L226.746823,443.039140L225.605719,442.941836L224.510735,442.681180L223.479643,442.210279L222.629130,441.172655L221.889496,439.821655L220.684039,439.928576L219.467053,440.050492L218.323461,439.938922L217.071418,440.126176L215.932637,439.974573L214.990739,439.274984L213.911344,438.956704L212.775844,438.783258L211.703266,438.438771L210.430605,438.598919L209.531084,437.809928L208.312070,437.814388L207.210625,437.521436L206.022236,437.428173L204.713209,437.601744L203.952855,436.506416L202.820608,436.263858L202.216955,434.852884L200.955996,434.892904L199.521101,435.285230L198.763750,434.233654L197.272748,434.707754L196.526365,433.645270L196.127287,431.909619L194.769199,432.090401L193.555253,431.971668L192.555195,431.434600L190.862528,432.191756L189.425431,432.439300L188.869671,431.065872L187.814699,430.607964L187.305950,429.186651L186.824335,427.743600L185.555026,427.670661L184.410806,427.372783L183.770418,426.231531L182.919048,425.450901L182.126690,424.580613L181.987961,422.680266L180.941000,422.238232L180.494081,420.865546L179.703914,420.036520L178.359013,420.046077L177.590952,419.184514L176.307167,419.082310L174.920864,419.113301L173.544509,419.111960L173.006469,417.918444L172.772646,416.318813L172.104207,415.337106L171.921378,413.710460L170.100555,414.284256L168.859779,414.065198L167.923447,413.440377L166.235007,413.773539L165.082148,413.405398L163.725770,413.281394L162.706169,412.729019L162.564889,411.109030L162.207064,409.770963L161.586873,408.758136L161.276430,407.392032L160.625941,406.433002L159.958268,405.499219L159.381134,404.469041L157.898316,404.447380L155.845149,405.029523L155.327664,403.923003L154.271382,403.398109L153.889435,402.158852L152.893448,401.567791L151.227277,401.657646L150.478405,400.798375L149.806274,399.864084L149.711117,398.364992L149.665875,396.834995L148.868387,396.045308L148.511488,394.837691L147.251847,394.484466L145.109795,394.934157L144.471991,393.980047L143.013995,393.766940L143.488121,391.821378L143.944135,389.919811L143.379334,388.928954L142.308594,388.374120L142.051879,387.125139L141.748063,385.925540L140.256401,385.710795L140.111732,384.386918L138.241138,384.456265L136.266041,384.583557L135.171114,383.998233L134.494179,383.083214L133.902889,382.103528L132.928150,381.412995L132.268144,380.484017L131.614210,379.550951L130.529989,378.927759L131.109682,377.115600L130.252363,376.333291L129.440316,375.515763L129.883045,373.840433L129.386508,372.816300L130.502128,370.726598L130.455830,369.427912L129.631991,368.640342L129.413840,367.464044L128.622013,366.653712L127.877152,365.810753L126.442878,365.384373L125.168876,364.846861L124.153986,364.144052L123.520080,363.211717L123.249763,362.069602L121.692759,361.659735L120.790152,360.868528L120.527151,359.720619L119.194560,359.155115L118.480998,358.247231L117.739454,357.351048L116.736287,356.586251L115.836816,355.761046L114.281543,355.257173L113.455536,354.378278L112.758013,353.432226L113.443372,351.825495L115.807293,349.452273L116.718361,347.791663L116.265781,346.769040L117.030767,345.205426L116.262607,344.330117L114.924769,343.694339L114.325857,342.733427L112.427458,342.308044L111.280739,341.555037L110.810466,340.521325L110.998598,339.229017L111.581629,337.793859L111.942323,336.457029L112.477581,335.066754L112.001344,334.056392L111.272204,333.134416L110.512775,332.217831L110.953588,330.886708L109.969699,330.042219L108.669037,329.292131L107.478427,328.493376L105.348523,327.975942L105.597869,326.707065L105.233523,325.629366L105.032070,324.503673L104.417194,323.497138L103.808248,322.484745L103.893155,321.280477L103.261135,320.270453L103.107289,319.132971L102.888194,318.013567L102.409134,316.958141L102.520530,315.760326L102.530515,314.590847L101.413576,313.676021L102.256440,312.326021L102.730114,311.067863L103.617124,309.735381L104.783995,308.362880L103.996038,307.378929L103.287510,306.372751L102.400193,305.391326L102.023786,304.314155L101.962579,303.183161L102.946294,301.890432L102.604143,300.811422L102.231635,299.734441L102.249841,298.601280L100.701036,297.674188L101.688141,296.415424L101.653585,295.290908L100.657104,294.273979L101.432258,293.061354L100.287177,292.047660L99.670901,290.972370L100.045357,289.806584L100.340291,288.653084L100.804913,287.492356L100.079615,286.416319L99.248661,285.338092L98.049839,284.269285L97.132288,283.172887L97.845493,282.000914L98.279005,280.847945L98.957444,279.694498L99.455896,278.553799L99.999218,277.419173L100.712366,276.290466L100.520150,275.171913L98.722442,274.042183L98.619715,272.909385L98.474275,271.774315L97.761249,270.623095L98.467752,269.506529L97.182418,268.323805L94.381329,267.057351L91.714147,265.760962L90.341864,264.503090L88.304499,263.184586L89.494129,262.063876L90.839994,260.969344L92.179756,259.890524L93.612893,258.836088L92.861688,257.590060L94.705927,256.597764L95.747472,255.540720L97.589978,254.587739L99.908849,253.714929L100.272285,252.620088L100.394756,251.495677L100.895830,250.424337L102.862799,249.574016L102.770085,248.429604L102.660295,247.278984L102.841780,246.173347L101.540073,244.809516L101.725130,243.694517L102.580899,242.704935L102.853109,241.610785L103.438693,240.580277L104.495566,239.652342L104.994911,238.616201L105.122083,237.501476L104.854290,236.295376L104.315046,235.018720L104.563039,233.921028L105.534026,233.002298L106.521872,232.097419L106.558826,230.953626L106.301675,229.727536L105.884599,228.449887L106.259068,227.385704L107.252722,226.501492L107.627414,225.443507L108.044666,224.399211L107.405710,223.028679L108.207502,222.101398L108.479129,221.008751L108.318831,219.771927L108.274146,218.566901L107.245565,217.015971L108.187088,216.140060L108.850626,215.172190L110.235529,214.473368L111.856654,213.877566L113.069842,213.143923L114.541983,212.523115L115.364644,211.660444L115.368828,210.473107L115.740059,209.430763L115.945156,208.318025L115.905027,207.097257L116.286824,206.052557L115.291950,204.398348L114.916108,203.000335L113.880938,201.287742L115.105489,200.603152L116.151349,199.845686L116.479294,198.751757L117.061827,197.779750L116.463575,196.222385L116.470313,194.952830L117.632529,194.267886L119.284781,193.848767L120.350283,193.137527L120.944992,192.182070L120.173960,190.482115L120.577503,189.411279L120.084113,187.833318L120.863921,186.964750L121.529515,186.033628L122.459312,185.259561L123.489317,184.551428L124.179935,183.645549L125.536307,183.150622L125.937985,182.074096L127.794908,181.914327L129.005777,181.362828L129.651737,180.454921L131.127751,180.095269L131.137195,178.770604L131.157742,177.442167L131.004019,175.982543L130.514455,174.273867L132.052183,173.976239L133.984092,173.978117L135.343545,173.589242L136.541055,173.095070L136.526620,171.707619L136.205197,170.074556L137.030408,169.299869L137.247590,168.056131L137.730539,167.011811L137.908403,165.719930L138.243100,164.543727L139.293532,163.945301L140.038033,163.100459L140.577193,162.083697L141.333307,161.247502L141.744284,160.114322L142.023076,158.858387L142.761938,157.998948L144.027688,157.611472L144.441412,156.462278L146.263155,156.599917L147.464851,156.185066L148.457430,155.583401L150.374239,155.870692L150.512776,154.464466L151.833475,154.201872L152.141332,152.946810L152.301625,151.531126L153.516917,151.174447L153.783669,149.849449L154.174765,148.640259L155.348758,148.249131L155.968774,147.273376L157.637499,147.432003L158.971453,147.245829L158.950976,145.563573L159.270485,144.240931L159.166274,142.418111L159.554285,141.137705L160.772459,140.818296L161.949749,140.461137L162.775747,139.690152L163.599067,138.914557L164.105598,137.745263L164.739477,136.723501L166.232347,136.784912L168.087924,137.333698L169.353996,137.146429L170.225941,136.451209L170.384720,134.799625L170.782774,133.446433L172.024144,133.235565L172.623086,132.140556L173.722595,131.741571L174.508353,130.899614L175.513306,130.370851L177.650939,131.514636L179.067557,131.630430L180.327177,131.528907L181.372764,131.112793L181.953972,129.978161L182.278572,128.422478L182.824409,127.193869L183.545893,126.232507L184.191707,125.135338L185.270901,124.748747L186.497150,124.617634L187.414070,123.966136L188.633404,123.841242L189.347884,122.832429L190.011146,121.717245L191.002775,121.185851L191.784558,120.264500L193.657054,121.390765L194.846991,121.259799L195.795507,120.670627L196.658100,119.908760L196.942899,117.976178L197.875504,117.321161L198.688629,116.412553L199.804406,116.129391L200.925946,115.865344L201.959326,115.415893L203.462230,116.010610L204.367921,115.291734L205.763246,115.690105L206.718515,115.088010L207.596462,114.295636L208.634135,113.877858L209.608777,113.304524L210.790996,113.248331L211.689893,112.478404L212.801329,112.250546L213.812157,111.761011L214.701641,110.937460L216.077995,111.447679L217.470271,112.039501L218.599180,111.909888L220.060210,112.770846L220.894154,111.792619L221.622672,110.461695L222.332027,109.026196L223.102082,107.736350L224.093334,107.131513L225.434674,107.695222L226.790987,108.353261L227.827677,107.926940L228.768265,107.145483L229.535382,105.693104L230.657871,105.537804L231.937914,106.007768L233.363556,107.105987L234.700031,107.911662L235.759096,107.595570L236.834434,107.347140L237.835838,106.763815L238.816980,106.064208L239.543985,104.109475L240.555483,103.456420L241.535790,102.612967L242.564671,101.983944L243.913923,103.095631L245.127403,103.527758L246.044739,102.242212L247.152239,102.047572L248.001549,100.179738L249.009026,99.230916L250.295219,100.181779L251.651618,101.761342L252.997844,103.437844L254.061749,102.989903L255.077554,102.089046L256.041911,100.622471L257.183203,100.715800L258.252215,100.082354L259.514269,101.534962L260.606354,101.177499L261.687163,100.627475L262.918266,102.141921L264.073962,102.791567L265.254259,104.035520L266.445282,105.824356L267.581516,106.909467L268.684154,107.489946L269.739559,106.815589L270.789074,105.573011L271.831055,103.074583L272.908934,100.915284L274.025617,100.767916L275.144963,99.589957L276.260367,101.044826Z" />
<line x1="50" y1="550" x2="100" y2="550" fill="none" stroke="black" stroke-width="1.0" stroke-linejoin="round" stroke-miterlimit="10" />
<text x="125" y="553" style="text-anchor:start;fill:black">GC-content</text>
</g>
<g style="fill:pink;stroke:black">
<a href="" title="CP006965:1 [96000-126099];"><path  d="M344.747804,55.830559L348.562215,57.081207L352.354218,58.398234L356.122659,59.781241L359.866389,61.229806L363.584268,62.743486L355.881288,81.200575L355.881288,81.200575L352.486703,79.818518L349.068515,78.495916L345.627765,77.233170L342.165501,76.030667L338.682777,74.888771Z" />
</a><a href="" title="CP006965:2 [188500-216599];"><path  d="M405.810110,85.820944L409.091817,88.132708L412.332678,90.501394L415.531706,92.926280L418.687927,95.406627L421.800379,97.941680L409.035129,113.338056L409.035129,113.338056L406.193324,111.023442L403.311558,108.758777L400.390706,106.544751L397.431659,104.382038L394.435318,102.271297Z" />
</a><a href="" title="CP006965:3 [302000-319599];"><path  d="M464.624852,144.836966L466.867629,148.166200L469.051962,151.534069L471.177185,154.939548L454.118299,165.379587L454.118299,165.379587L452.177878,162.270237L450.183488,159.195226L448.135734,156.155490Z" />
</a><a href="" title="CP006965:4 [472000-494099];"><path  d="M504.640000,262.136475L504.829524,266.146205L504.949040,270.158632L504.998512,274.172533L504.977923,278.186687L484.979843,277.909584L484.979843,277.909584L484.998641,274.244487L484.953472,270.579620L484.844348,266.916100L484.671305,263.255043Z" />
</a><a href="" title="CP006965:5 [954500-979099];"><path  d="M292.971432,504.296811L288.966914,504.575533L284.958141,504.784324L280.946335,504.923120L276.932718,504.991879L276.764655,484.992586L276.764655,484.992586L280.429262,484.929805L284.092216,484.803078L287.752399,484.612443L291.408699,484.357958Z" />
</a><a href="" title="CP006965:6 [1340000-1362099];"><path  d="M64.226418,367.057032L62.651903,363.364505L61.142071,359.645061L59.697383,355.899834L58.318278,352.129964L77.160167,345.423010L77.160167,345.423010L78.419350,348.865066L79.738413,352.284621L81.116955,355.680635L82.554556,359.052073Z" />
</a><a href="" title="CP006965:7 [1476500-1507599];"><path  d="M45.079517,268.952559L45.220078,264.940814L45.430631,260.932134L45.711114,256.927738L46.061440,252.928848L46.481503,248.936681L66.352677,251.203056L66.352677,251.203056L65.969141,254.848079L65.649278,258.499239L65.393185,262.155426L65.200940,265.815526L65.072603,269.478423Z" />
</a></g>
<text x="275" y="280" style="text-anchor:middle" font-size="25" font-weight="bold">CP006965</text>
<path  style="fill:pink;stroke:black" d="M350,550L375,550L375,565L350,565Z" />
<text x="405" y="565" style="text-anchor:start;fill:black">Selected loci;</text>
</svg>