<svg xmlns="http://www.w3.org/2000/svg" viewbox="0 0 550 650">
<circle cx="275" cy="275" r="240" fill="none" stroke="black" stroke-width="1.0" />
<line x1="275" y1="15" x2="275" y2="55" fill="none" stroke="grey" stroke-width="1.0" stroke-linejoin="round" stroke-miterlimit="10" />
<line x1="495" y1="275" x2="535" y2="275" fill="none" stroke="grey" stroke-width="1.0" stroke-linejoin="round" stroke-miterlimit="10" />
<line x1="275" y1="495" x2="275" y2="535" fill="none" stroke="grey" stroke-width="1.0" stroke-linejoin="round" stroke-miterlimit="10" />
<line x1="15" y1="275" x2="55" y2="275" fill="none" stroke="grey" stroke-width="1.0" stroke-linejoin="round" stroke-miterlimit="10" />
<text x="275" y="10" style="text-anchor:middle" font-size="15">Thermococcus argininiproducens strain IOH2 chromosome, complete</text><text x="285" y="25" style="text-anchor:start">1,946,248</text><text x="525" y="265" style="text-anchor:start">0.48 Mbp</text><text x="285" y="530" style="text-anchor:start">0.97 Mbp</text><text x="-200" y="25" style="text-anchor:end" transform="rotate(-90)">1.45 Mbp</text><circle cx="351.141712" cy="47.398507" r="2.500000" fill="grey" stroke="black" stroke-width="1.0" />
<circle cx="419.416395" cy="83.313003" r="2.500000" fill="grey" stroke="black" stroke-width="1.0" />
<circle cx="472.769847" cy="139.032770" r="2.500000" fill="grey" stroke="black" stroke-width="1.0" />
<circle cx="505.689542" cy="208.800793" r="2.500000" fill="grey" stroke="black" stroke-width="1.0" />
<circle cx="514.774189" cy="285.408576" r="2.500000" fill="grey" stroke="black" stroke-width="1.0" />
<circle cx="499.085152" cy="360.940937" r="2.500000" fill="grey" stroke="black" stroke-width="1.0" />
<circle cx="460.243438" cy="427.593803" r="2.500000" fill="grey" stroke="black" stroke-width="1.0" />
<circle cx="402.262207" cy="478.480541" r="2.500000" fill="grey" stroke="black" stroke-width="1.0" />
<circle cx="331.132131" cy="508.343489" r="2.500000" fill="grey" stroke="black" stroke-width="1.0" />
<circle cx="254.202434" cy="514.097179" r="3.000000" fill="black" stroke="black" stroke-width="1.0" />
<circle cx="179.421559" cy="495.147136" r="2.500000" fill="grey" stroke="black" stroke-width="1.0" />
<circle cx="114.515935" cy="453.451295" r="2.500000" fill="grey" stroke="black" stroke-width="1.0" />
<circle cx="66.191666" cy="393.317707" r="2.500000" fill="grey" stroke="black" stroke-width="1.0" />
<circle cx="39.441661" cy="320.959428" r="2.500000" fill="grey" stroke="black" stroke-width="1.0" />
<circle cx="37.029753" cy="243.852580" r="2.500000" fill="grey" stroke="black" stroke-width="1.0" />
<circle cx="59.205144" cy="169.963911" r="2.500000" fill="grey" stroke="black" stroke-width="1.0" />
<circle cx="103.676651" cy="106.927665" r="2.500000" fill="grey" stroke="black" stroke-width="1.0" />
<circle cx="165.849439" cy="61.256801" r="2.500000" fill="grey" stroke="black" stroke-width="1.0" />
<circle cx="239.299760" cy="37.670076" r="2.500000" fill="grey" stroke="black" stroke-width="1.0" />

<circle cx="275" cy="275" r="185" fill="white" stroke="grey" stroke-width="0.5" />
<circle cx="275" cy="275" r="170" fill="none" stroke="black" stroke-width="0.5" />
<circle cx="275" cy="275" r="170" fill="aliceblue" stroke="black" stroke-width="0.5" />
<circle cx="275" cy="275" r="159" fill="white" stroke="none" stroke-width="0.5" />
<circle cx="275" cy="275" r="140" fill="none" stroke="black" stroke-width="0.5" />
<circle cx="275" cy="275" r="140" fill="aliceblue" stroke="black" stroke-width="0.5" />
<circle cx="275" cy="275" r="133" fill="white" stroke="none" stroke-width="0.5" />
<circle cx="275" cy="275" r="110" fill="none" stroke="black" stroke-width="0.5" />
<circle cx="275" cy="275" r="110" fill="white" stroke="black" stroke-width="0.5" />
<circle cx="275" cy="275" r="109" fill="aliceblue" stroke="none" stroke-width="0.5" />
<circle cx="275" cy="275" r="80" fill="none" stroke="black" stroke-width="0.5" />

<g style="fill:none;stroke-linejoin:round;stroke-miterlimit:10">
<path style="stroke:blue;stroke-width:1.0" d="M277.202279,104.446440L278.204088,109.593191L279.106103,116.039687L280.024026,119.424585L280.992546,120.385862L281.849551,123.549024L282.782587,124.460869L283.757592,124.459492L284.712422,124.781763L285.845458,122.551788L286.983910,120.636569L287.806958,122.777890L288.805004,122.693136L289.707193,123.618348L290.528545,125.218874L291.513405,125.158058L292.524110,124.894604L293.405326,125.721368L294.422465,125.429938L295.378526,125.626332L296.384464,125.467990L297.293435,125.983913L298.228680,126.300206L299.355137,125.428710L300.762138,122.982237L303.069902,115.618291L304.758082,112.193694L305.950035,111.642973L304.820077,122.980307L305.032312,126.965004L306.028779,126.965059L306.954520,127.304492L308.544045,124.660884L309.411724,125.325609L309.919845,127.483841L310.987011,127.238427L311.836958,127.886608L312.991785,127.327850L313.758718,128.279367L314.827307,128.082378L317.040085,123.792680L317.921863,124.395840L317.920190,128.009009L319.227352,127.088629L320.547604,126.180913L322.139906,124.458607L322.432552,126.884423L324.877920,122.642323L325.471328,124.131168L325.926939,125.974376L325.999921,128.851483L325.801176,132.387789L326.987477,131.985478L329.191358,128.868268L330.210677,129.017816L330.467371,131.153047L330.796529,133.036837L333.267133,129.517099L335.976626,125.554962L337.709732,124.100216L338.778501,124.281947L339.691266,124.833939L339.307529,128.338089L337.079679,135.868630L337.721173,136.835266L338.641277,137.179605L341.523198,133.348770L348.043306,122.039818L348.514024,123.576186L347.042839,129.013271L343.726896,137.969321L344.255338,139.112259L345.065766,139.688766L345.559214,140.864000L347.865628,138.623861L354.053329,129.313884L356.561128,126.980234L357.271063,127.946208L354.470400,135.080151L355.301768,135.718275L354.573604,139.017941L352.919171,143.795981L355.638818,141.191976L354.517076,144.960026L355.774927,144.799345L356.254936,145.893965L359.346491,142.881828L358.109972,146.653374L358.015288,148.596012L359.959687,147.438050L362.166636,145.938453L362.499093,147.232647L363.513992,147.524078L363.126162,149.815719L364.038860,150.238436L364.496414,151.294372L365.252488,151.930417L365.618370,153.089970L366.238868,153.896275L367.380345,154.014525L369.929161,152.326760L372.042649,151.254683L370.817643,154.428170L372.970700,153.339931L374.854576,152.626473L376.437527,152.312321L375.091059,155.520199L374.588320,157.667693L375.619907,157.992094L374.815010,160.432790L376.266894,160.270457L377.361071,160.529119L377.023968,162.378058L377.397308,163.422369L378.174788,164.022169L378.704344,164.886912L381.142035,163.746647L383.156917,163.090460L382.130116,165.575651L381.478230,167.637074L383.390721,167.110957L383.889258,168.005450L384.012203,169.259382L384.698431,169.959919L387.363873,168.789833L388.567848,169.031825L392.506767,166.767279L390.474121,170.009497L391.316877,170.607138L390.055898,173.072403L390.551804,173.957148L392.268146,173.784960L397.923168,170.281346L408.974328,162.351505L420.874434,153.944734L413.712536,161.392478L403.441900,171.182607L399.797628,175.453529L395.068623,180.487714L394.213266,182.401379L396.150365,182.144684L399.623643,180.753678L404.855906,178.108362L402.509785,181.134439L400.170980,184.096419L397.937385,186.925313L397.938334,188.120308L400.218705,187.715576L401.203069,188.234797L404.564235,187.150521L408.068290,186.023371L402.254835,191.094471L402.297450,192.240639L405.551455,191.319341L405.550143,192.504540L407.431407,192.507419L406.604546,194.197211L405.329181,196.134424L404.662759,197.677015L405.609119,198.251497L406.699375,198.750501L410.900587,197.485395L410.301266,198.980813L411.436553,199.497799L412.253633,200.199129L411.991793,201.485045L411.004636,203.141932L410.385388,204.583492L410.249276,205.760093L409.970958,206.998836L410.654053,207.749342L412.036882,208.162568L416.469866,207.127641L417.585198,207.721600L414.688904,210.187611L415.078501,211.102731L417.466458,211.121476L420.528672,210.873753L425.895501,209.669075L425.609156,210.944571L425.981450,211.934276L422.868601,214.352855L426.028994,214.192840L425.262497,215.626012L424.176683,217.165813L425.667445,217.704117L419.702504,221.039278L416.639529,223.220699L421.071738,222.667096L429.225968,220.866724L427.099223,222.713785L421.050754,225.845156L418.827767,227.624943L419.440084,228.454867L419.755636,229.382756L425.471971,228.647236L434.052645,227.126160L431.457983,229.006742L432.804989,229.715638L425.151778,232.959232L425.720063,233.847685L430.386473,233.649776L430.910678,234.586404L437.062694,234.106589L434.888751,235.751458L430.176047,237.968940L422.494065,240.807187L423.002661,241.694759L423.392573,242.612218L422.803004,243.739285L424.315437,244.425256L427.049044,244.887070L425.573433,246.188378L424.495491,247.394008L425.109549,248.281700L429.889984,248.461415L430.576726,249.376626L432.340891,250.128438L433.445825,251.001324L431.577372,252.317498L431.898870,253.304284L428.706828,254.756203L429.161052,255.708174L427.340241,256.934260L425.493999,258.137824L425.636677,259.105968L425.725289,260.079987L425.153510,261.114973L426.737154,261.956055L430.355067,262.654994L429.062064,263.758257L427.417976,264.867132L427.483543,265.851257L428.017360,266.810405L427.250979,267.836952L427.763465,268.801088L426.946419,269.816689L426.443329,270.812613L426.819946,271.783046L428.932534,272.732505L429.607444,273.720955L433.211090,274.712696L426.512347,275.703138L426.219139,276.678220L428.746033,277.699165L428.392456,278.683801L426.549820,279.618793L426.687758,280.603518L426.961210,281.596377L427.812200,282.622132L428.034875,283.624133L426.860733,284.541972L427.105516,285.543746L425.589568,286.416100L425.944857,287.423737L426.393751,288.445350L425.061995,289.304199L426.779935,290.457484L427.362552,291.511451L427.419866,292.514063L429.216341,293.730131L427.864339,294.568286L428.587428,295.669618L428.063556,296.606192L426.985453,297.455817L427.976284,298.612476L430.471929,300.026483L434.882406,301.796623L439.892190,303.732043L436.536982,304.223298L431.402590,304.338578L428.016768,304.727458L425.698754,305.288150L424.271383,306.005322L423.534995,306.854149L423.512516,307.853738L425.414242,309.294616L424.685962,310.146802L426.825383,311.685070L425.458632,312.384634L423.465582,312.908850L422.998828,313.809253L422.620288,314.730415L421.635563,315.482534L424.398868,317.285432L425.252542,318.576842L425.209132,319.617676L423.583477,320.180823L423.124553,321.088175L426.723323,323.284565L425.051161,323.821585L429.010736,326.211902L425.027211,325.965414L425.326798,327.152209L425.659131,328.359809L419.882963,327.369272L417.577047,327.579082L416.473777,328.212396L418.237414,329.934019L419.737853,331.584127L419.577892,332.600500L423.722920,335.367464L424.144333,336.663124L420.034033,336.063204L419.346777,336.874074L417.687531,337.256453L416.302800,337.741396L415.367021,338.414018L413.052696,338.444918L412.283498,339.168240L415.536860,341.797923L414.716284,342.517227L419.155202,345.814050L415.833568,345.314708L416.140063,346.609898L414.121013,346.718723L412.941722,347.241908L411.243604,347.477363L409.219832,347.516491L409.458247,348.770823L408.662869,349.461254L407.975862,350.207654L407.213734,350.907491L406.759596,351.782138L405.524349,352.195536L404.874026,352.947148L405.873482,354.700880L406.959998,356.535207L404.038663,355.886052L403.861268,356.938520L401.927853,356.864785L402.115684,358.152979L402.462791,359.560202L404.706198,362.259768L406.571559,364.754096L410.813552,368.938541L415.113074,373.255897L410.313343,371.199304L404.631244,368.425551L401.406764,367.347578L396.610127,365.053353L395.500265,365.441970L395.476438,366.646113L394.633058,367.230008L394.455358,368.328885L402.853046,376.226056L418.096097,389.805392L422.827298,395.178262L420.017977,394.457790L399.854506,379.208660L393.908485,375.555543L392.399798,375.586970L389.714852,374.578105L388.758105,375.042838L388.200244,375.855842L387.389618,376.442862L386.455803,376.913592L385.743547,377.583017L385.355473,378.555450L385.326709,379.876255L385.464153,381.373053L385.345431,382.640481L387.508654,386.177376L383.239583,383.349012L381.138793,382.627045L381.156805,384.044697L381.026123,385.326787L382.761425,388.591460L382.396500,389.680761L379.303348,387.829209L377.553791,387.383766L376.331224,387.494266L375.155328,387.642949L374.196481,388.025820L374.544211,389.910157L374.381452,391.230283L373.139120,391.289149L372.795415,392.411635L372.133977,393.160672L371.470081,393.909931L370.377449,394.127075L369.689172,394.845306L371.774566,399.123946L371.590361,400.551107L371.308615,401.871532L368.511080,399.851970L367.862687,400.669236L365.353356,398.939771L365.324716,400.596092L366.235809,403.606706L362.666642,400.281889L363.613864,403.392405L360.261077,400.256884L359.377758,400.696328L358.456649,401.075702L357.518884,401.425019L358.415248,404.619143L357.157814,404.494945L355.094081,403.062595L354.773144,404.400431L354.970181,406.614883L354.379719,407.564350L353.953690,408.805476L351.192219,406.051517L350.648861,407.072150L351.275510,410.182553L351.413779,412.494393L348.865453,409.953915L348.962932,412.228423L346.005147,408.802026L345.789998,410.502361L344.503181,410.158432L344.790100,412.898480L342.212025,409.960255L341.978189,411.695455L341.754047,413.494050L340.741515,413.675519L339.502033,413.361918L341.228386,419.494000L341.599723,422.816501L339.805527,421.350066L335.610537,414.299059L334.966190,415.287153L334.390163,416.459836L333.916948,417.910982L332.432824,416.904359L333.153357,421.395635L332.064419,421.402476L332.667555,425.820604L330.429059,422.820266L328.971450,421.809492L326.696778,418.475799L325.306088,417.494456L324.974085,419.519869L325.018670,422.730246L324.323614,423.834167L323.390974,424.240081L321.910344,422.922229L320.851235,422.889663L319.608450,422.235499L318.397802,421.645044L318.307237,424.888937L320.167017,435.197374L319.708938,437.584676L319.739647,441.904179L319.247485,444.435109L318.908227,447.689213L317.781065,447.923643L314.276999,438.274879L313.129376,438.128935L310.823355,432.855003L309.972274,433.850107L310.343685,440.622701L308.998474,439.516247L307.399786,437.052683L305.841388,434.611872L303.277607,426.591775L302.080012,425.557905L301.037115,425.324147L300.199345,426.289818L299.605020,428.844278L298.563916,428.691635L297.263461,426.743840L296.148979,425.926318L294.997818,424.740077L294.277853,426.813363L293.097425,425.275447L292.076838,424.950732L291.339553,427.212117L291.057716,434.270246L289.958504,433.622774L289.050156,435.038934L288.048092,435.514406L287.068711,436.361149L286.638796,445.398560L285.594754,446.382624L283.824547,434.459385L282.428488,427.017076L281.384022,425.580907L280.433414,426.225091L279.457631,426.282171L278.486740,426.567762L277.511968,426.824276L276.535310,427.201560L275.553227,427.391481L274.569278,427.390485L273.586343,427.277790L272.607474,426.991732L271.524156,431.568009L270.540143,430.606427L269.458739,432.760842L268.663167,427.361847L267.714475,426.591048L266.781499,425.703830L265.784005,426.051158L264.393854,432.137848L263.006409,437.108728L261.990966,436.642860L261.417226,431.155949L260.872428,426.110893L259.774490,427.242005L258.598263,428.957486L257.803363,427.090052L257.066197,424.932001L255.872059,426.607920L254.892867,426.486597L254.179517,424.456168L252.993399,425.837253L252.235787,424.276672L251.129282,425.026263L250.275033,424.181638L249.374220,423.659860L248.189593,424.749795L247.069627,425.400895L246.133457,425.038950L244.525654,428.062196L243.597031,427.575515L242.309633,428.794700L242.090638,425.054349L241.568966,422.863915L240.751634,422.058098L239.180172,424.431526L238.358462,423.619661L237.215077,424.108302L236.755712,421.930330L235.926505,421.236179L234.929377,421.176900L233.783523,421.636897L232.168608,423.690126L231.653175,421.906677L230.666176,421.754076L229.895677,420.895088L229.212431,419.785599L228.134881,419.931251L227.271421,419.409798L226.332210,419.121717L224.604225,421.119547L223.460012,421.364239L221.368987,424.219965L221.660624,420.451091L221.904093,416.945109L220.033415,419.103778L219.695032,417.226268L218.591401,417.336756L218.420307,415.120236L217.190036,415.546364L215.915109,416.050281L213.897232,418.264645L214.146491,415.165344L213.626177,413.901753L212.939437,413.038112L211.446964,413.951831L211.079418,412.402975L209.943459,412.516111L208.381224,413.497939L206.764405,414.545479L202.441916,420.988995L202.380730,418.775387L201.655924,417.909937L204.164782,410.854900L203.515076,409.968030L203.587423,407.751977L202.643446,407.449811L201.594419,407.332037L200.327397,407.590657L198.305613,409.147406L198.558648,406.723605L197.891880,405.918065L197.116284,405.303554L195.133954,406.681913L195.609114,404.012413L195.008823,403.127045L193.945725,402.982891L192.135495,403.991079L191.388614,403.324065L190.440045,402.965809L189.650575,402.364935L189.438767,400.915323L188.992482,399.830607L183.959944,405.325636L180.891421,407.882408L179.082096,408.599831L182.611175,401.946118L183.778266,398.656415L184.768508,395.675257L182.935085,396.483776L181.921927,396.187176L181.689114,394.880008L180.822061,394.395434L179.812582,394.085807L177.683612,395.150376L173.711957,398.416080L171.969242,398.899503L174.403273,394.395864L176.242350,390.688875L175.644986,389.878224L174.881568,389.261441L174.450953,388.268990L173.636445,387.712227L172.575488,387.423466L171.118812,387.553921L170.073634,387.223766L169.253465,386.647171L169.029557,385.446418L169.463423,383.582092L168.304795,383.365359L167.297306,382.985051L167.319145,381.577923L165.785769,381.708479L166.436388,379.711226L165.302241,379.446371L164.074372,379.258286L163.646916,378.314080L163.068645,377.513759L159.441075,379.472173L160.777775,376.931199L161.265221,375.184576L159.640659,375.300275L156.404991,376.776446L158.303709,373.845792L158.876544,372.079851L157.263172,372.144059L154.703173,372.957700L152.415206,373.511335L150.945950,373.380585L154.502330,369.299318L153.023535,369.193062L153.253773,367.766632L153.347377,366.459851L146.097835,370.613706L137.865715,375.353834L139.740248,372.647331L145.183711,367.448432L147.712180,364.414767L151.108876,360.839440L150.701688,359.939006L149.849471,359.341160L148.910038,358.795498L147.673268,358.437264L146.369136,358.109669L143.917251,358.499138L139.877078,359.851258L141.100112,357.882626L143.618233,355.155273L144.203972,353.643595L144.740816,352.180114L143.325906,351.874171L141.536752,351.767587L135.446697,354.075814L128.722484,356.642801L129.140387,355.178821L134.223894,351.204986L140.203099,346.846844L139.031141,346.348031L139.756637,344.857409L139.314390,343.979691L136.403527,344.337022L134.562527,344.127962L132.097766,344.198577L131.815365,343.197582L134.654688,340.736893L135.967645,339.030557L134.788705,338.479429L135.278793,337.173644L135.885595,335.830615L133.500311,335.788365L135.996245,333.655888L135.560907,332.781825L134.031987,332.351736L130.247439,332.804963L129.944918,331.842613L133.099431,329.552203L131.780892,329.000321L130.661031,328.360685L130.031227,327.532087L125.497170,328.085568L128.083954,326.101284L128.949844,324.745366L128.247224,323.929521L125.494194,323.777085L124.928856,322.891662L125.310976,321.706963L125.616687,320.555254L127.850577,318.837584L127.237572,317.983451L126.940443,317.034940L124.630585,316.643478L127.222910,314.900041L126.748063,314.003021L125.703148,313.248969L127.345029,311.814052L127.680793,310.721620L127.968428,309.648274L128.135757,308.609430L128.081044,307.625117L127.549099,306.745662L126.874093,305.891625L126.817014,304.906469L122.043150,304.843434L126.015903,303.070985L125.514702,302.167171L118.324918,302.430020L103.507927,303.884174L107.003128,302.181199L100.571067,302.067350L102.913085,300.567174L101.354930,299.653828L102.230856,298.392484L117.504648,295.289798L125.181140,293.318263L124.641999,292.399615L122.887053,291.608126L120.430792,290.867099L120.182342,289.883111L122.108600,288.702238L123.300674,287.608614L122.662700,286.671764L122.600832,285.687205L122.077416,284.732113L123.415350,283.664652L124.743127,282.615766L124.849012,281.638731L124.751807,280.671286L123.073468,279.752518L121.637991,278.806425L123.082319,277.789227L124.217967,276.794593L123.479769,275.824979L123.992517,274.847167L124.628579,273.876884L122.522912,272.876540L122.271848,271.886627L122.761790,270.913104L124.085156,269.973331L123.441280,268.972004L124.708969,268.050239L123.292752,267.002818L116.610036,265.624658L113.852769,264.416910L118.046793,263.674127L123.934445,263.118047L124.752871,262.205806L125.071508,261.257324L124.893949,260.263121L122.153356,258.997014L123.884464,258.191174L121.443424,256.915179L124.713125,256.315680L124.241986,255.267851L125.598408,254.463376L125.632832,253.484577L123.837610,252.228781L123.967185,251.250010L125.439768,250.491008L125.161314,249.450864L124.507299,248.338292L121.920998,246.859504L123.823780,246.198992L126.331154,245.680687L125.946295,244.603672L125.014648,243.403652L126.065305,242.619300L125.770557,241.544706L125.554217,240.481296L126.169787,239.609732L126.864304,238.762760L127.657404,237.946882L126.488832,236.631807L129.312668,236.356214L128.254467,235.059612L127.325199,233.780744L128.554866,233.102894L129.612896,232.388139L129.901755,231.453522L130.823672,230.713468L130.200214,229.496768L122.855282,226.107054L129.097003,227.071365L129.530232,226.170841L129.947725,225.266616L131.906430,224.903356L132.235266,223.981348L131.493685,222.668993L131.397465,221.580915L131.394674,220.521795L131.136889,219.358814L134.120266,219.464359L133.890330,218.318327L132.470823,216.676581L131.409006,215.156828L133.778882,215.071399L136.161268,215.021592L136.489820,214.099320L135.590694,212.626776L136.212485,211.826349L137.663911,211.413378L138.531935,210.742026L138.465091,209.630229L135.554206,207.126368L129.136851,202.834183L128.804098,201.490770L130.643561,201.244141L131.818426,200.674721L133.578995,200.425548L128.404571,196.483085L133.990188,198.299031L137.038331,198.798619L142.168441,200.508843L143.138996,199.929899L144.407219,199.531284L142.406556,197.228792L145.215325,197.745675L145.803987,196.961950L145.256203,195.483219L144.824649,194.057908L146.368961,193.861851L143.067432,190.583629L143.204796,189.467179L148.908932,192.007150L148.235183,190.385595L143.842028,186.223727L145.794437,186.323439L150.085701,188.076883L150.818146,187.391115L150.991742,186.308882L152.166439,185.944666L151.402905,184.167848L153.758888,184.687898L153.776352,183.478000L154.404199,182.723523L154.677375,181.694669L155.181760,180.840701L155.880039,180.138977L156.091935,179.046574L157.535256,178.952380L157.386411,177.556810L158.379928,177.103251L159.464679,176.735245L158.092598,174.260194L158.419087,173.222514L159.938542,173.232444L160.865941,172.731718L161.033970,171.547896L161.831792,170.931450L162.289333,170.001006L164.083488,170.326624L162.914767,167.847051L162.855405,166.395828L162.296759,164.435761L161.568868,162.275254L166.433586,165.707398L169.313430,167.223561L169.681629,166.202647L170.416894,165.556931L171.113919,164.871452L170.200005,162.455605L171.405256,162.299571L172.830837,162.399828L171.456762,159.394255L170.716534,157.044110L172.649595,157.713169L174.860050,158.739400L175.151140,157.552229L177.266136,158.524340L174.160865,153.235517L172.570343,149.676468L176.969060,153.465248L180.379103,156.130394L181.851009,156.416171L181.337182,154.164021L180.183889,151.031266L183.187391,153.338349L184.377606,153.289027L185.858563,153.650138L186.513784,152.897512L185.304438,149.531690L184.000631,145.954799L188.258077,150.290278L189.126343,149.822095L189.849348,149.141628L190.982630,149.072410L190.860530,147.108443L191.774983,146.701880L191.898550,145.062442L191.802377,143.042649L192.608632,142.431818L192.905065,140.986437L193.154276,139.435916L194.517195,139.727011L197.680157,143.112686L198.622884,142.771262L199.918436,143.054471L201.149949,143.246855L201.640880,142.118330L202.113880,140.936529L200.519772,135.871151L200.568241,133.777777L203.004062,136.234508L206.188773,140.251511L207.213635,140.115274L207.324559,138.140650L207.110373,135.446935L207.752485,134.467424L206.315378,129.051372L206.840276,127.705744L207.002134,125.530891L208.958148,127.307879L211.930475,131.475349L215.027926,136.095872L213.769961,130.627819L215.728511,132.696645L217.770331,135.059928L218.043591,133.120300L218.256507,130.967675L220.000590,132.707488L220.536263,131.341920L221.458714,130.976482L223.267101,133.041318L223.631964,131.162349L223.225043,127.013015L224.063371,126.336668L225.321316,126.896351L225.953213,125.587418L226.359307,123.531129L229.323168,129.541069L230.491439,129.992448L231.445176,129.763257L232.470363,129.780536L231.397854,122.474127L233.442272,125.991823L235.250327,128.834143L235.411229,125.623589L233.453125,114.045703L235.887960,119.331947L238.726895,126.582764L239.723848,126.511253L239.985892,123.264205L240.198396,119.612505L241.909761,122.647800L243.713677,126.331656L244.723494,126.374574L245.668554,126.105044L246.520752,125.341879L247.438896,124.895651L248.347534,124.375461L249.235935,123.709217L250.553459,125.624450L251.423581,124.865675L252.272266,123.911042L253.405563,124.861039L254.470141,125.414965L255.394240,124.962966L256.186006,123.410278L257.082183,122.586113L258.074806,122.547126L259.192480,123.713745L260.230590,124.237256L261.075851,122.740200L262.001848,121.977903L263.055834,122.734729L264.073800,123.141539L265.006226,122.336311L266.031304,122.939080L266.977883,122.209825L267.916819,121.123956L268.664729,114.869451L269.809500,118.177370L270.960974,123.358748L271.958346,124.237470L272.932746,124.287518L273.898049,123.197039L274.878145,123.107310L275.890828,117.457611L277.054875,105.340750Z" />
<line x1="50" y1="575" x2="100" y2="575" fill="none" stroke="blue" stroke-width="1.0" stroke-linejoin="round" stroke-miterlimit="10" />
<text x="125" y="578" style="text-anchor:start;fill:black">n1_4mer:GRV/n1_4mer:RV</text>
<path style="stroke:green;stroke-width:1.0" d="M276.328134,172.143845L277.007827,171.348608L277.474277,179.212863L278.050861,180.526166L278.594722,182.252294L279.061894,185.187136L279.604682,185.931313L280.050348,188.185956L280.710771,186.673741L281.492377,183.740488L282.277963,181.253356L282.842404,181.786038L283.881095,177.017287L283.948532,182.892451L283.996983,188.219282L284.808847,185.994938L285.835198,182.189489L286.267454,183.613951L287.112481,181.723243L287.781310,181.313578L287.530364,187.380761L288.223008,186.613402L288.526027,188.412324L289.737596,184.492552L291.178168,179.535528L292.776799,174.062824L293.484201,173.873033L294.111059,174.130137L292.625595,185.146523L292.645757,188.020698L293.510316,186.689287L294.317450,185.713708L296.200906,179.980883L296.549528,181.269955L295.743642,187.370103L296.791678,185.524032L296.599793,188.738296L297.823209,186.287339L298.261299,186.944649L299.219720,185.656682L300.446255,183.476397L301.361360,182.503304L300.820832,186.570064L302.882754,181.750546L304.400544,178.938700L306.070222,175.777179L303.880922,184.814794L304.829811,183.881513L303.962184,188.426275L304.471592,188.758366L307.151082,182.865879L306.439116,186.742164L307.613884,185.281104L309.898970,180.891877L311.622869,178.165716L311.140127,181.275580L308.950582,188.619503L310.656763,185.971261L313.391190,180.908654L314.191034,180.693766L315.469070,179.365590L315.726245,180.463285L314.713679,184.427650L311.762548,192.608729L311.051110,195.585157L311.329727,196.325003L312.247766,195.686437L314.925819,191.391236L315.884955,190.785376L313.838095,196.298958L314.750750,195.743223L316.111023,194.334968L318.046078,191.869274L317.941257,193.366885L318.270155,194.015085L322.891652,186.741240L324.101011,185.889901L325.445104,184.832893L324.099455,188.552867L324.325145,189.446575L322.550689,193.741389L322.883332,194.371759L323.301778,194.850445L323.102672,196.334253L326.260316,192.373783L325.616106,194.576027L330.644588,187.839750L328.143988,192.929805L322.951943,201.985535L325.288777,199.494373L325.613221,200.060542L325.751272,200.892310L329.068556,197.131644L326.196388,202.274910L329.797918,198.216965L331.245370,197.255334L331.546005,197.893059L330.432614,200.425809L330.315342,201.578506L329.612525,203.476969L334.145246,198.568912L338.053632,194.596262L335.008128,199.488960L335.265375,200.162424L334.773103,201.747018L334.895769,202.556663L338.551141,199.138302L337.180764,201.740279L336.368990,203.635821L335.356925,205.722599L339.383803,202.056869L342.421345,199.602384L337.276474,206.254415L337.414901,206.989356L340.663787,204.370103L339.985630,205.998373L340.509728,206.335621L341.233355,206.468606L338.998113,209.631343L339.697959,209.764485L339.780070,210.519759L338.991075,212.122390L340.370744,211.591109L343.490512,209.417941L349.220503,204.844248L349.059752,205.896139L353.900521,202.326585L350.697230,206.175139L350.970993,206.817036L345.405771,212.627786L350.785679,208.730147L348.828338,211.278193L350.916383,210.326582L350.449500,211.560438L345.202621,216.741697L352.857681,211.233462L354.919944,210.402074L356.365939,210.097388L349.294316,216.519063L345.949123,219.890438L350.934061,216.800578L348.040208,219.763523L353.339077,216.547507L349.091705,220.457837L348.505389,221.617793L344.627130,225.117797L348.021085,223.396491L352.236529,221.161830L354.281730,220.493438L355.417165,220.474104L360.943282,217.533690L353.708914,223.103245L353.392654,224.034910L356.340984,222.862189L356.834053,223.288546L357.030143,223.902769L356.090706,225.211787L351.064614,228.971324L349.386459,230.640439L351.476015,230.061181L355.981132,228.114654L359.017256,227.078467L363.060124,225.523308L364.811749,225.299355L364.254804,226.357666L366.246601,226.033638L363.473630,228.254945L357.831086,231.917981L353.623870,234.749068L352.680958,235.862724L358.147234,233.779660L360.529178,233.284583L367.133065,230.797735L369.535152,230.393871L366.863939,232.377278L365.398927,233.764232L364.757056,234.755101L369.110917,233.530647L374.751136,231.812271L373.150858,233.255557L370.615646,235.060855L365.675547,237.810137L367.653078,237.696100L368.699696,237.975961L369.372806,238.412684L373.674118,237.476162L367.625741,240.459120L360.744289,243.654376L362.253003,243.739997L369.311147,241.896811L365.820816,243.779086L364.327893,244.935803L362.675838,246.120682L366.514469,245.509896L367.497290,245.851073L369.479707,245.895606L371.179601,246.050549L370.424490,246.948487L368.257712,248.238387L361.823965,250.690290L363.023130,250.966334L365.823338,250.830809L367.499334,251.023254L371.758896,250.584749L370.915394,251.455258L370.697197,252.162915L362.959470,254.608795L362.450584,255.320876L359.560443,256.544055L362.714840,256.448086L364.626028,256.647625L363.733468,257.426560L363.381412,258.088571L369.379301,257.571820L373.519415,257.464332L381.136905,256.814684L378.870330,257.892632L377.223417,258.841098L376.717949,259.593497L377.890763,260.094782L378.584841,260.676459L376.339366,261.653205L377.015597,262.233694L374.252141,263.229877L366.443480,264.754169L367.756718,265.213019L365.664039,266.025337L363.249963,266.839331L366.371401,267.145342L369.869807,267.461345L370.031991,268.065618L369.803711,268.697374L374.119129,269.053027L374.969310,269.649573L371.901022,270.441037L375.305963,270.929735L371.836086,271.696654L366.539795,272.468938L371.474385,272.955778L373.939256,273.542580L373.946604,274.181429L374.381828,274.819527L366.333300,275.423859L365.580496,276.005257L366.351382,276.603765L367.296377,277.216546L367.462656,277.817990L370.731522,278.536431L373.055997,279.256444L367.951190,279.636320L371.876768,280.459397L369.137022,280.914978L370.123194,281.593810L368.213465,282.066454L362.883938,282.233416L363.957753,282.900379L362.676800,283.357522L369.041112,284.577280L374.383543,285.770143L371.312111,286.066906L374.819772,287.123471L372.884029,287.530213L374.288549,288.362138L370.778114,288.519876L367.186213,288.620492L369.913312,289.650234L372.107592,290.631513L372.795266,291.390689L373.652653,292.189973L374.867502,293.066809L372.380659,293.267025L368.374076,293.140325L367.569492,293.605055L366.348575,293.974113L363.263021,293.928492L361.434356,294.120891L367.900550,296.181429L368.173744,296.877530L368.389857,297.565485L369.145553,298.392457L363.145483,297.506859L363.644523,298.244966L365.995536,299.490471L363.573085,299.452887L371.696817,302.368793L367.206503,301.742098L365.699904,301.941231L364.497164,302.214032L361.895640,302.037121L368.543459,304.769353L367.493809,305.094365L372.089982,307.284520L365.693242,305.809202L367.987541,307.259755L368.356650,308.064660L361.242901,306.173285L361.975823,307.074650L356.656317,305.713312L362.822671,308.681510L361.910668,308.977043L361.023362,309.272105L368.356152,312.893784L368.813329,313.786743L366.348528,313.460172L364.510054,313.368378L365.464647,314.470919L363.632659,314.354752L356.476983,311.809094L355.262356,311.886195L358.895783,314.214070L363.725139,317.171534L361.518201,316.809508L368.925383,321.139416L359.711964,317.294583L359.595983,317.921263L362.705636,320.213416L360.383984,319.716724L356.566571,318.390881L354.834935,318.133338L355.726141,319.290581L356.909154,320.630161L361.768668,324.074079L360.774096,324.245235L355.944565,322.169974L352.364611,320.755468L350.921973,320.566473L352.200948,322.014746L357.404619,325.916018L352.217590,323.402749L352.553629,324.313729L349.512671,323.058513L352.432155,325.652399L356.772198,329.248566L358.179161,330.958732L358.169315,331.735564L358.035679,332.433521L357.466214,332.830376L358.419612,334.306115L354.360462,332.195277L352.957413,331.952476L348.389730,329.345731L347.039960,329.069888L346.685802,329.531203L346.490939,330.115283L348.218234,332.204434L354.691146,338.094472L351.833071,336.642847L358.935872,343.236837L359.418234,344.539073L357.059585,343.490275L354.160367,341.942352L351.169673,340.261412L346.643540,337.190099L346.190340,337.607264L346.167029,338.406317L344.741185,337.948389L342.187052,336.434879L344.386466,339.273478L342.229281,338.086662L342.411258,339.080950L343.407640,340.874126L342.018103,340.375256L344.819499,343.993348L340.935397,341.002057L336.808403,337.675065L339.083482,340.826810L340.314296,342.963595L341.930855,345.551902L338.728008,343.050416L341.818406,347.280210L340.551784,346.835046L338.456146,345.446722L335.955098,343.555135L336.977124,345.617579L335.980405,345.393525L333.353919,343.247065L334.779088,345.834742L333.593652,345.346615L335.231072,348.269356L333.516533,347.128030L332.144966,346.374447L332.607870,347.912590L329.961621,345.494279L330.493812,347.132556L332.070755,350.181790L331.343855,350.227891L333.098772,353.623918L331.259754,352.172795L330.450867,352.104169L330.864096,353.746464L327.773015,350.416405L330.141093,354.893791L327.087966,351.522331L326.677197,351.982774L328.779955,356.243923L327.628660,355.630990L327.273255,356.227529L326.284838,355.833788L323.624619,352.746005L322.642508,352.281160L322.121722,352.552906L321.828215,353.203248L323.024298,356.388394L321.806110,355.507063L323.888482,360.352335L324.117690,362.050939L325.079860,365.110711L322.108520,361.068371L319.548670,357.654157L316.703017,353.585121L316.834040,355.076442L316.397609,355.503307L317.337010,358.653832L314.713333,354.743490L315.929917,358.533666L315.184738,358.370932L315.111104,359.610588L314.814241,360.404669L315.130435,362.554709L315.812000,365.581264L313.985670,363.041183L311.570199,359.047998L312.131332,361.866431L310.936974,360.597314L309.848847,359.530566L308.685790,358.230460L311.445887,366.749111L309.633210,363.853752L309.830220,366.093073L310.293696,369.122536L309.903458,369.942029L308.386916,367.659826L306.097757,363.085918L306.919802,367.308756L308.014200,372.507507L307.044895,371.695575L307.457022,375.099010L305.778777,372.054613L304.485463,370.103113L303.801065,370.061344L301.603123,364.894325L302.677444,370.793289L303.976354,377.772691L302.909506,376.493309L303.467843,381.201150L303.843839,385.450549L303.621760,387.568181L302.448335,385.947825L300.549149,381.208069L299.839552,381.271072L298.876898,380.213144L298.125256,380.038906L297.149141,378.792250L296.847171,380.716937L295.486572,377.466847L294.008343,373.372915L292.565903,369.168023L292.310727,371.243192L291.551381,370.558675L291.143320,371.919978L291.073553,375.500802L290.136793,373.727156L288.974714,370.249196L288.196886,369.177470L286.868699,363.870688L286.474734,365.363694L285.802652,364.701900L285.032260,363.092695L284.631065,364.718784L285.403900,378.192235L285.238746,383.573574L284.428450,382.395181L283.504621,379.621745L282.809669,379.416884L282.470678,384.374953L281.805818,385.092125L280.600209,376.195655L279.485658,366.794815L278.668764,361.535701L278.076373,360.622926L277.651888,364.999216L277.095832,366.105313L276.547852,368.552748L275.921364,366.338544L275.327042,365.086674L274.734386,368.974910L274.140650,367.568404L273.524268,368.749897L272.808179,373.729703L272.159914,374.091897L271.565819,372.771835L271.239234,365.423282L270.567181,367.234344L270.191707,363.170352L269.406085,366.684868L268.637871,369.259628L267.604516,374.959431L267.031434,374.012864L266.401183,373.857301L266.483593,366.092921L265.358024,371.411472L264.353574,374.934348L264.073329,371.637386L264.123471,365.931057L263.585645,365.470098L263.427183,362.189290L263.137921,360.149841L261.297961,368.916272L261.281351,364.960248L259.933796,369.690337L259.264470,369.942581L259.045192,367.556775L258.659832,366.268171L257.598436,368.704828L257.719922,364.816254L256.995138,365.432250L257.162202,361.667320L255.802028,365.318544L255.537933,363.739728L254.477249,365.771179L253.479447,367.406499L252.607107,368.417652L252.427648,366.554435L252.394920,364.205026L252.063987,363.117629L251.415043,363.268890L251.061077,362.328753L249.963856,364.071721L249.302976,364.207787L249.309824,362.066549L248.294845,363.399555L247.619400,363.565680L249.002025,357.208609L247.061764,361.399515L246.162080,362.253346L245.402682,362.647627L243.759934,365.578709L240.998299,371.558678L240.306268,371.529921L240.129939,370.087133L241.442171,364.712559L242.346103,360.607465L242.463882,358.672241L241.528875,359.458245L241.326098,358.393791L240.119159,359.801563L239.971558,358.621574L238.027616,361.687325L239.144748,357.586260L237.728481,359.353215L236.908857,359.724166L236.121801,360.002972L235.635767,359.616920L233.962743,361.744297L233.278036,361.738400L232.417580,362.083349L227.711461,370.145929L227.839032,368.371725L228.890392,364.843945L231.432788,358.557577L232.161575,355.881639L233.518034,352.112650L231.169825,355.231825L230.844979,354.600539L227.700663,358.985960L226.001098,360.704782L228.193796,355.656370L228.948754,353.188135L227.672571,354.181278L226.908258,354.292927L227.284252,352.539426L226.867150,352.097501L225.610218,352.985363L222.746322,356.340718L223.736907,353.676945L222.147189,354.982928L221.292208,355.146872L223.316488,351.059517L224.274347,348.622798L217.457065,357.373846L213.209584,362.248787L212.587795,361.931217L218.065886,353.229860L219.412690,350.351862L224.111923,343.057523L221.158458,346.046325L217.594690,349.741420L218.940659,347.021546L213.517577,352.945224L212.807038,352.807542L211.975189,352.812739L206.942144,357.926213L208.706127,354.721610L211.564580,350.289992L214.486031,345.888615L216.578782,342.548939L214.215528,344.371056L216.264276,341.166078L212.291415,344.729444L214.352985,341.567538L211.861390,343.409865L212.266584,342.096388L208.043191,345.692986L209.740358,343.016077L209.706092,342.178123L209.148720,341.882083L208.476087,341.698314L209.714970,339.616342L206.502235,341.926190L206.828053,340.752862L211.249552,335.698623L204.926727,340.861420L204.561709,340.353082L204.932736,339.171997L199.402460,343.344693L202.099570,340.055888L208.040816,333.981760L208.632689,332.703689L204.577619,335.435424L204.600077,334.631168L205.156167,333.389831L201.111771,335.964802L198.916965,336.954411L196.428650,338.141344L198.852594,335.388406L200.989529,332.919268L199.933266,332.968277L202.323661,330.376987L201.768276,330.056458L194.457034,334.743073L192.912087,335.071315L192.843703,334.310645L197.624728,330.102658L197.624062,329.353602L202.154563,325.471828L200.841065,325.676362L199.318801,326.002902L198.731423,325.685743L198.696307,325.001844L198.992277,324.109339L197.606238,324.299488L195.739393,324.772179L192.409125,326.122885L192.061754,325.600155L194.660456,323.305676L196.105089,321.746172L195.470295,321.431154L195.755105,320.581382L192.974826,321.478351L184.494186,325.514586L184.201140,324.912004L189.892760,321.070290L197.823015,316.135388L194.285789,317.353816L194.152499,316.760252L193.991744,316.182882L192.608305,316.218905L190.405930,316.639995L187.537386,317.352651L187.314002,316.764069L187.437387,316.013797L189.116116,314.553333L183.158117,316.580604L181.837698,316.455695L185.970828,313.929824L187.468612,312.603545L190.797488,310.531221L191.635450,309.545232L188.266547,310.286829L190.149898,308.883732L192.785761,307.217224L197.098140,304.948563L195.235328,305.075023L190.247254,306.332249L190.373320,305.666026L182.601672,307.808862L182.711452,307.100396L182.274245,306.582826L184.459372,305.187569L186.662785,303.820498L185.939704,303.421490L182.361125,303.905797L180.110346,303.937116L178.879766,303.635375L176.887976,303.540363L178.479450,302.402726L176.536197,302.268679L180.550054,300.501630L181.881920,299.498071L183.809489,298.362469L184.135893,297.654679L185.142817,296.788362L184.215059,296.393647L186.653269,295.217878L190.433173,293.779078L187.488026,293.841021L185.820461,293.598373L182.249042,293.719110L175.289176,294.454594L182.001924,292.522324L190.777125,290.306503L190.618635,289.773137L182.101591,290.646751L182.903775,289.900789L181.586019,289.495697L179.965742,289.119362L178.937355,288.638809L175.845798,288.425216L184.401080,286.671670L184.946508,286.010787L182.359976,285.720419L181.398370,285.219693L177.143228,285.045358L173.742215,284.734231L175.424764,283.924005L178.675772,283.006067L178.763747,282.373420L186.732809,281.189860L186.183550,280.652348L186.753612,280.044206L186.011216,279.510394L184.929469,278.982351L185.168211,278.390801L182.081140,277.906659L178.640523,277.391630L185.128292,276.650055L189.390239,276.018919L184.455351,275.492987L186.502723,274.910433L187.493825,274.346421L185.006078,273.746707L185.038309,273.166125L184.829424,272.579335L185.309854,272.012602L183.288411,271.352324L184.297076,270.805714L180.963773,270.042921L175.542684,269.112971L172.409712,268.262545L176.897431,267.920837L183.161067,267.776475L184.762770,267.315909L191.076537,267.307446L188.264676,266.484634L183.652859,265.435989L185.048840,264.994586L181.006294,263.930078L185.574466,263.882228L184.588282,263.166351L184.141528,262.510666L184.210837,261.922379L180.619877,260.782506L183.296187,260.579527L187.003902,260.579752L191.625207,260.783685L190.346123,260.002482L183.020227,258.091369L183.669436,257.600357L185.505255,257.350543L187.536791,257.163742L182.005838,255.409581L182.404087,254.868220L181.154050,253.960963L175.702729,252.064505L178.521900,252.058517L180.644727,251.918631L184.549064,252.253766L183.175662,251.276977L190.080619,252.475005L189.798096,251.810217L191.669755,251.740712L189.098418,250.424054L190.835935,250.332149L188.220014,248.955834L188.002566,248.277065L190.636963,248.488975L182.024472,245.121556L187.377137,246.216190L190.693402,246.701197L190.102705,245.891668L187.349991,244.313986L192.435815,245.494720L189.381170,243.778241L186.040668,241.907784L185.956375,241.220355L182.367322,239.172942L187.456544,240.489842L194.252159,242.564783L188.511270,239.608521L184.268921,237.186796L188.102246,238.124064L192.185285,239.223998L188.402210,236.924356L186.157835,235.251059L187.417537,235.133994L189.261019,235.302843L198.117639,238.798821L195.115308,236.753049L192.064244,234.631977L183.939856,229.947979L185.358685,229.927163L185.068579,229.051449L185.813793,228.703612L188.383703,229.325294L182.724723,225.577108L186.406427,226.810354L187.050790,226.422367L194.179690,229.676445L196.235026,230.158126L196.445220,229.603705L198.257391,229.987477L197.455113,228.841408L195.463650,226.957792L194.723671,225.800613L194.260112,224.796521L199.207866,227.191683L196.258136,224.617426L194.067117,222.475950L201.691930,226.748797L200.067686,224.983337L193.063753,219.540202L193.496986,219.062726L196.378595,220.290350L196.682528,219.747915L194.610212,217.504956L192.066110,214.872253L194.594951,215.909909L198.935522,218.339823L202.377483,220.171111L201.703748,218.915793L204.013639,219.952947L200.557147,216.499000L201.650619,216.588318L201.966907,216.065600L202.462726,215.688310L205.597658,217.499964L207.140367,218.035214L205.351936,215.763137L206.218318,215.730414L206.934580,215.577517L202.332341,210.728173L204.768821,212.070301L207.682798,213.893140L206.764177,212.250901L206.030206,210.749124L211.113931,214.709874L206.814125,209.814628L204.222698,206.457148L203.906899,205.256180L200.994346,201.455212L210.616847,210.186196L212.327610,211.088313L209.625373,207.465853L212.456601,209.550218L211.920897,208.130503L210.317446,205.537602L212.247137,206.731338L212.728139,206.370464L216.022084,209.151317L211.038411,202.652518L212.555188,203.442353L216.140138,206.664806L214.794073,204.182448L216.638132,205.446452L215.602781,203.277135L212.572257,198.619140L216.475177,202.443318L219.474455,205.244799L218.597213,203.196125L215.493205,198.229281L213.711967,194.868050L218.946918,200.723595L219.557992,200.538264L223.812938,205.318120L222.314322,202.298820L220.091166,198.192202L218.244916,194.516242L223.630628,201.145746L222.589354,198.601077L223.570378,198.983571L223.194673,197.352723L222.781621,195.628335L223.518168,195.636578L220.094012,189.148910L220.407191,188.411920L221.280069,188.564323L220.638840,186.259657L220.471743,184.682843L222.395016,186.583183L224.728391,189.249858L227.882681,193.427613L230.932360,197.557180L232.670173,199.480921L230.140906,193.742873L230.719672,193.552745L230.441432,191.764725L229.486752,188.645973L230.379583,188.998285L235.432386,197.517351L235.589519,196.579037L233.486914,191.048512L232.829683,188.315225L233.119200,187.478303L231.781178,183.163902L232.360072,182.854431L231.615171,179.633892L233.540783,182.283042L234.118790,181.968358L238.634097,190.771229L237.718006,187.094080L237.996966,186.160391L239.842456,189.031492L238.926574,185.140282L239.507521,184.909241L240.844608,186.634389L240.825394,184.858218L242.747400,188.242037L242.876693,186.851406L241.815349,182.078358L242.458657,181.987942L242.460803,180.031300L242.818307,179.058927L243.332870,178.531548L243.718099,177.587033L246.166344,183.178553L246.733670,182.909146L247.821391,184.370944L248.067900,183.039067L247.123515,177.484495L249.207393,182.518782L250.902475,186.389573L251.206984,185.224154L249.475178,176.115793L250.675250,178.186168L253.034898,185.126254L255.258546,191.901826L254.692964,186.998207L255.452362,187.720734L256.522968,189.929098L257.945754,193.960549L257.620368,189.684503L256.959584,183.421599L257.876784,185.017698L258.151690,183.240082L258.309169,180.672943L258.736125,179.495879L259.994722,183.313340L260.390116,181.964450L260.987145,181.845633L262.841132,190.463424L262.494610,183.882998L263.075681,183.746744L263.414989,181.656263L264.075119,182.069957L264.456193,180.027166L265.600486,185.041721L266.036049,183.498049L266.279848,179.645615L267.060804,181.534989L267.292472,176.743768L268.244416,181.107102L268.720167,179.070032L269.337589,178.995917L270.057750,180.869337L270.374616,174.517476L270.921027,171.899720L271.730291,176.210993L272.471729,180.078581L273.163892,183.991537L273.819772,188.955814L274.342348,184.402952L274.928932,186.413634L275.533191,180.705560L276.233809,173.131448Z" />
<line x1="50" y1="625" x2="100" y2="625" fill="none" stroke="green" stroke-width="1.0" stroke-linejoin="round" stroke-miterlimit="10" />
<text x="125" y="628" style="text-anchor:start;fill:black">n0_4mer:PS</text>
<path style="stroke:red;stroke-width:1.0" d="M276.670103,145.660371L277.489606,146.477376L278.198942,151.158762L279.102005,147.976143L279.818134,150.686964L280.482249,153.781549L281.168109,155.689826L281.935827,155.775119L282.736035,155.349779L283.957534,149.089233L284.890835,147.597244L285.497256,150.230759L286.248869,150.894287L286.511499,156.511733L287.396175,155.432267L288.105829,156.078264L289.171277,153.613801L289.664089,156.065128L290.818880,153.180715L291.750592,152.218919L291.942631,156.527743L292.988564,154.758981L294.069107,152.927968L294.957221,152.437467L296.287679,149.385218L297.314850,148.295641L298.387935,147.044734L298.810213,149.327585L298.128009,157.095779L298.791781,157.725771L299.389504,158.640321L300.472597,157.264286L302.535481,151.590321L303.291527,151.945512L303.703632,153.743749L305.404556,150.159819L305.823035,151.904025L306.334699,153.203606L306.651272,155.184510L306.853473,157.496785L308.872413,153.169684L309.591456,153.625557L309.913833,155.428794L311.538247,152.803624L312.515470,152.424552L314.067340,150.238364L312.642030,157.456861L313.674785,156.863550L313.762896,159.129997L315.491758,156.510463L317.700491,152.634841L316.743945,157.813811L317.899301,156.986521L320.913355,151.190627L321.145736,152.986365L321.460133,154.512073L320.743586,158.614552L321.486091,158.932313L323.370380,156.451078L325.324398,153.903312L326.124806,154.184505L327.008850,154.273284L326.245645,158.127460L323.926175,165.347923L323.870844,167.345330L324.128718,168.607741L325.699211,167.043591L330.263460,159.272641L331.520345,158.579681L331.003831,161.514522L329.374139,166.586473L331.050494,165.021835L332.607400,163.748403L334.005998,162.827144L333.464334,165.577487L336.763753,161.176568L337.372718,161.803979L338.981665,160.637233L337.893648,164.266069L339.657442,162.853029L338.618862,166.282744L338.172642,168.626889L337.565515,171.181912L338.724916,170.786077L340.421617,169.547260L340.474295,170.967838L344.824430,165.628811L342.674166,170.490870L341.590716,173.605036L344.010102,171.385410L343.432653,173.676553L343.550246,174.902008L345.942671,172.829912L343.085727,178.283399L345.388641,176.371188L347.189058,175.217313L347.679052,175.893807L347.739532,177.142595L348.870718,176.949472L349.066783,177.998794L352.989554,174.217151L355.564848,172.266585L353.338014,176.423606L352.222128,179.105519L353.048360,179.350371L352.009110,181.858248L357.166194,176.917308L357.788482,177.460814L356.708832,179.983222L356.948242,180.940185L358.128415,180.820306L360.045350,179.893374L356.712055,184.799918L357.399484,185.213077L359.575162,184.028472L357.154850,187.768125L361.723587,184.100200L360.912407,186.106768L360.550864,187.617032L359.834892,189.460241L360.370168,190.024961L360.702076,190.789168L362.397761,190.225149L364.814300,188.999669L370.066196,185.140188L371.043141,185.383822L373.298156,184.459880L371.788851,186.998376L371.174824,188.684365L367.255972,193.270774L369.564325,192.309391L370.367867,192.687260L379.352977,186.101354L390.475357,177.905837L401.873136,169.713139L396.477062,175.508574L383.645247,187.183903L379.430561,191.699588L371.457847,199.072989L369.735957,201.414070L373.854072,199.233608L379.646738,195.861163L390.243059,189.011699L383.768902,194.930427L379.000076,199.471476L373.045724,204.758174L373.344847,205.500360L382.709842,199.920230L383.789579,200.206653L390.084673,196.968215L389.482566,198.450787L383.420637,203.512808L381.256947,205.919614L380.450237,207.408679L383.092499,206.695668L380.784368,209.106073L381.262654,209.756671L377.169409,213.174634L375.896287,214.831590L377.223038,214.931721L381.943304,213.083431L383.612392,213.049961L386.768960,212.202468L391.027055,210.792147L388.534564,213.125614L390.575623,212.977768L389.419254,214.546571L384.135030,218.236800L381.746324,220.351977L380.731977,221.730040L382.513817,221.699897L383.971472,221.850999L390.452043,219.610095L392.494549,219.560548L390.428644,221.443805L388.976686,223.009160L388.557021,224.083770L392.324220,223.301859L397.515294,221.956420L396.019519,223.529309L395.813004,224.535790L391.522229,227.209323L392.640452,227.635705L392.803670,228.451634L395.376522,228.331324L397.157601,228.545853L391.894737,231.409017L387.820066,233.756258L391.589971,233.229485L395.357695,232.754480L392.906802,234.467903L392.601578,235.420011L388.513229,237.610171L394.243451,236.574363L395.207676,237.118622L396.546985,237.557553L396.442647,238.446532L395.512669,239.573426L393.752472,240.922307L388.096579,243.334260L390.451507,243.477343L394.445718,243.214047L397.065707,243.359356L401.490716,243.082495L400.000745,244.315559L399.302859,245.336487L398.680922,246.327669L399.689544,246.940942L396.818486,248.412210L392.894740,250.064960L396.005800,250.222111L395.909858,251.054108L393.545880,252.316722L394.289659,252.971848L396.372176,253.396723L403.871719,252.919340L404.854154,253.613115L403.543651,254.680543L401.281235,255.873069L402.659073,256.506733L405.768302,256.917575L404.295853,257.971225L405.948177,258.613050L402.438501,259.887310L400.886149,260.895023L398.883730,261.928735L396.102095,263.012331L394.047704,263.991396L392.536305,264.896100L400.989709,264.988459L398.045932,266.021471L398.165778,266.811841L399.577009,267.525599L399.894958,268.315535L399.842334,269.126464L401.010479,269.886684L397.921264,270.806817L395.141159,271.678114L399.148882,272.369376L402.585705,273.120605L401.497339,273.953506L406.237397,274.761679L398.335868,275.572377L396.700824,276.350628L396.718265,277.136886L398.301644,277.961154L396.974588,278.717427L402.620133,279.714433L400.214120,280.435331L397.625047,281.116425L399.173476,281.997676L396.554709,282.637733L399.194455,283.608990L397.376116,284.277256L395.890518,284.950071L397.081721,285.842134L395.966251,286.530737L396.831595,287.407502L399.894997,288.534806L398.250932,289.162357L403.627638,290.622291L401.915512,291.246556L403.557413,292.301108L400.856720,292.765721L397.246872,293.061948L396.503635,293.754552L399.185463,294.990267L401.183970,296.148695L401.871881,297.107101L402.609131,298.085486L402.358678,298.890413L400.257634,299.334529L401.434552,300.411415L397.853345,300.518003L394.465611,300.620060L397.240341,302.041843L400.162479,303.537185L399.291018,304.183978L401.799302,305.638100L400.714420,306.236410L400.134676,306.951592L400.758686,307.977293L400.286765,308.719587L396.877738,308.647497L400.006602,310.381514L398.011278,310.676222L396.794720,311.177543L395.727894,311.710580L392.103622,311.436175L397.527596,313.993291L394.482433,313.875552L398.396104,316.031874L394.778994,315.689859L399.510115,318.195742L404.443637,320.845795L402.100176,320.941520L397.465188,320.162299L391.831581,318.943750L396.335805,321.534375L392.484085,320.929480L394.458227,322.592709L395.677675,323.983742L395.239525,324.712547L394.360514,325.253966L390.894190,324.677906L395.345856,327.508486L393.915649,327.801033L389.060131,326.529278L385.223755,325.655563L384.829385,326.335801L389.447012,329.397278L387.193916,329.217174L396.025725,334.452047L389.919140,332.376276L390.326981,333.513176L387.567763,333.030171L387.247945,333.785736L385.415316,333.737516L385.242100,334.561767L383.552991,334.557845L382.012760,334.614943L386.097695,337.833937L384.407747,337.813956L383.665109,338.323960L381.604902,338.048946L376.273502,335.781828L379.911591,338.890300L381.657849,340.901561L377.065364,338.978223L375.959857,339.196957L375.223652,339.641350L377.740631,342.207989L380.378008,344.908916L381.109229,346.384922L380.278587,346.817834L381.211352,348.463504L381.228314,349.493821L381.458614,350.685400L377.154724,348.623156L373.635302,347.058891L370.463401,345.691477L371.095392,347.124792L371.804186,348.638693L370.468588,348.600631L371.173174,350.138824L381.093869,358.998499L399.545480,374.922310L401.475645,377.820138L398.200483,376.485745L383.593964,365.636949L372.864565,357.759648L370.208462,356.573656L366.135842,354.110371L368.382006,357.123388L366.676485,356.679233L366.530724,357.615625L364.735043,357.052440L365.145682,358.502978L363.568593,358.111061L364.621573,360.194012L365.945902,362.577671L362.974648,360.818083L365.695531,364.622361L360.094289,360.180319L357.683320,358.842685L360.268644,362.588294L359.572063,363.002500L361.614624,366.300589L359.076075,364.778609L359.410396,366.310187L359.012551,367.065313L357.249349,366.310257L355.466072,365.498786L354.752275,365.870827L355.869396,368.352641L355.325585,368.943742L355.883588,370.842347L358.542078,375.299302L357.751478,375.664778L352.606064,370.657966L348.901286,367.303202L349.762888,369.625193L348.687098,369.511748L349.676744,372.067116L350.020310,373.827521L350.296898,375.533179L350.844534,377.638906L348.823343,376.265174L348.423533,377.095078L348.236124,378.234210L344.651213,374.536554L345.527422,377.187005L343.138007,375.101415L342.482266,375.527357L343.756743,378.868952L342.057072,377.736383L342.149567,379.343865L343.511868,382.986571L341.869572,381.917900L339.038974,378.877953L338.903492,380.172334L338.518011,381.075253L338.283972,382.249479L336.995086,381.632281L341.023775,390.268119L337.855640,386.398611L338.138974,388.608500L335.802097,386.086856L333.183862,382.952449L331.244448,380.986979L329.734933,379.770629L330.514319,382.955180L332.421294,388.458918L331.546781,388.544682L329.439053,386.104395L328.262555,385.503368L328.027479,386.856462L326.279369,384.998268L326.127180,386.546893L326.142811,388.510251L324.691220,387.217485L322.525571,384.226343L323.316975,388.034543L322.386144,387.867786L321.921698,388.814890L322.036550,391.217363L321.417645,391.852080L320.740381,392.349920L320.735182,394.613322L322.032877,400.429017L320.986825,400.090255L318.351441,395.314705L315.939768,390.963897L315.262871,391.436046L315.918590,395.853142L314.805607,395.113548L315.248752,399.129080L314.236045,398.722889L313.162272,398.089501L311.663472,396.012154L310.567788,395.186729L310.504101,397.881817L310.771197,401.872490L310.132025,402.758098L310.036552,405.706148L310.393981,410.532743L309.841740,412.031099L308.561614,410.658067L306.674687,406.671991L305.392698,405.029102L304.363531,404.389896L303.623147,405.011276L302.540505,404.056515L301.724082,404.315971L300.368052,401.882350L299.436655,401.465779L297.843253,397.459064L296.983505,397.222636L296.384939,398.465011L295.829008,400.051536L295.287467,401.848537L294.106987,399.622075L292.920703,397.144367L291.907633,395.658624L290.763474,393.034066L290.004654,393.161859L289.218244,393.063923L288.402059,392.682711L288.040970,396.483961L288.205021,405.975465L287.624515,408.872723L286.574752,406.842732L285.651153,406.027860L284.847743,406.666354L284.125525,408.602850L283.440248,411.530948L282.185828,404.847770L281.080069,399.422946L280.014582,393.279730L279.258772,393.531944L278.562894,395.916743L277.782430,395.951575L277.025643,397.430656L276.227796,396.716477L275.440533,396.348735L274.651620,398.257771L273.878973,395.755926L273.104736,395.401781L272.187708,401.678550L271.368406,401.707960L270.586642,400.649211L270.007146,395.047414L269.039931,399.012084L268.460508,394.915611L267.601175,396.267547L266.618771,399.174074L265.616535,401.829538L264.648168,403.625971L263.912403,402.469852L263.768910,395.129631L262.592201,399.067323L261.505580,401.667495L260.867795,399.987683L260.345730,397.514118L259.439132,398.335328L258.862166,396.582003L258.755686,391.606948L256.968230,398.593035L256.432393,396.757366L255.246356,399.150662L254.270350,400.075318L253.348630,400.603577L252.569715,400.284579L251.503158,401.526987L251.220848,398.596339L251.205169,394.513278L250.992383,391.644208L249.526613,394.841785L248.422866,396.181767L247.514394,396.567562L246.884666,395.723641L246.017128,395.909427L245.639000,394.089484L245.344842,392.026312L244.403686,392.547661L243.745382,391.973307L243.336037,390.509560L242.060810,392.188587L240.853970,393.538699L240.698534,391.251060L240.044110,390.711186L238.920471,391.703360L239.595716,386.952449L238.182579,388.858558L237.873792,387.330772L235.962376,390.603551L235.162965,390.505110L232.318280,396.208361L230.949231,397.564424L230.902429,395.249622L231.481984,391.339844L232.813403,385.598977L232.596892,384.046908L231.253919,385.385214L229.639370,387.336104L228.352694,388.407945L227.419042,388.587542L227.286252,386.872071L226.593502,386.495846L226.208130,385.426172L224.445720,387.445279L225.511516,383.201211L224.626274,383.282804L222.403072,386.179059L221.720536,385.766009L219.307471,388.894231L216.548460,392.606215L215.550935,392.700333L215.241088,391.439428L218.199537,383.937637L218.118679,382.395509L219.258740,378.619877L217.634498,380.008454L217.859202,378.010670L214.994543,381.547284L213.705962,382.210405L210.717175,385.772053L211.667521,382.529085L211.629864,381.021570L211.348525,379.947576L211.740280,377.798817L211.195663,377.199535L210.268373,377.209793L208.969857,377.785861L208.801154,376.599859L207.513576,377.128186L206.911499,376.606865L207.285286,374.651673L207.461595,373.024688L199.737463,382.739806L195.344106,387.475049L194.443786,387.203209L200.662718,377.142542L202.633079,373.097611L202.877795,371.455965L200.652921,373.104298L196.812824,376.799304L196.888818,375.352376L191.896280,380.355935L192.709695,377.950659L193.753881,375.309433L190.804455,377.589445L191.313764,375.636773L192.265471,373.195647L193.916022,369.985191L193.510960,369.220873L193.381929,368.147667L194.249425,365.965915L192.747306,366.461712L194.275160,363.605414L191.500112,365.471047L193.372955,362.304028L190.126634,364.609283L190.995503,362.552676L191.337189,361.077105L190.838540,360.478882L189.533354,360.690708L187.518154,361.585805L186.026805,361.931843L184.558369,362.232305L189.074329,356.812287L185.217221,359.386258L184.263935,359.185482L182.653346,359.576861L178.750450,362.015344L180.958561,358.921991L184.182482,354.997646L184.063158,354.065901L180.973444,355.692171L180.514631,355.032373L179.493374,354.844068L178.824861,354.353619L178.242171,353.789896L175.375063,355.060383L176.254541,353.309704L176.751198,351.887752L176.892899,350.760584L177.963954,348.938285L176.737225,348.875092L171.645906,351.663320L168.877306,352.659786L168.855169,351.628556L174.774570,346.375356L174.920601,345.301904L176.385703,343.326089L174.050755,343.983467L173.083809,343.683128L174.357667,341.883789L173.501789,341.511823L171.151818,342.097334L169.570857,342.157903L168.641135,341.788695L166.180358,342.358217L166.133632,341.418755L170.915806,337.582598L172.501732,335.731442L171.529239,335.408458L170.817912,334.925167L168.816209,335.167474L162.001240,338.068718L163.256477,336.425255L165.411616,334.322434L170.875635,330.498360L170.862588,329.644860L167.260477,330.650819L168.329831,329.228855L165.864175,329.598454L166.106221,328.601114L162.513870,329.469968L161.108545,329.245498L158.863209,329.397769L160.763002,327.611198L155.254979,329.213504L156.847983,327.575708L159.094800,325.681916L161.446748,323.782557L164.512453,321.622806L164.909778,320.620018L162.603585,320.727604L160.531399,320.711476L162.323118,319.154595L165.750944,316.999667L165.260472,316.376949L162.855313,316.458778L162.198674,315.875624L152.382345,318.539162L152.612088,317.569750L155.362433,315.749115L158.022145,314.002127L157.581749,313.308345L154.294825,313.520206L151.781292,313.447519L152.139616,312.466942L152.072190,311.621674L151.659156,310.879318L154.356883,309.251259L152.692934,308.871859L153.772246,307.731680L156.360067,306.212515L157.307956,305.152005L157.818943,304.216148L157.235252,303.555323L158.722598,302.400995L156.526591,302.112275L156.746288,301.259655L158.417116,300.099886L155.700552,299.879874L155.064095,299.205609L152.156544,298.968005L156.369291,297.351921L158.472534,296.177478L157.525387,295.566965L150.878038,295.905692L151.843595,294.926197L147.533928,294.779796L146.550044,294.083975L145.981923,293.317764L146.925849,292.340901L150.659658,291.018508L153.877969,289.809519L154.255329,288.972724L152.740972,288.348590L151.600885,287.667374L149.714553,287.044086L147.981289,286.383509L150.842354,285.319465L151.944530,284.428252L154.413027,283.456331L155.442280,282.608747L153.181975,281.963178L156.622462,280.999962L152.342337,280.423149L152.410266,279.627286L149.220019,278.934610L146.980636,278.177424L147.091929,277.348408L149.791645,276.490218L151.463716,275.672615L156.714539,274.880284L156.445110,274.114520L154.243405,273.318293L154.708754,272.547856L151.470511,271.683801L150.246622,270.844717L149.200551,269.996536L151.271195,269.278530L151.647505,268.497527L150.137660,267.609209L148.018427,266.660685L147.466568,265.797082L152.543306,265.368257L152.493651,264.568054L152.463520,263.768118L152.717128,262.994702L149.885432,261.900552L152.860954,261.414276L150.364328,260.321281L155.553112,260.149842L155.274390,259.329566L154.638746,258.455237L156.331907,257.906590L153.017565,256.624472L155.017222,256.132645L154.043954,255.178483L157.003889,254.880372L157.772163,254.231589L156.405471,253.198781L153.496536,251.852032L156.281516,251.587264L155.682845,250.667808L155.091131,249.739651L155.060396,248.923280L154.986199,248.094472L152.267901,246.651573L153.717060,246.160185L154.372798,245.491941L157.307684,245.403214L156.743950,244.448285L161.153723,244.802102L159.107762,243.457091L159.293105,242.703683L160.835530,242.338206L162.467312,242.017520L159.562351,240.355177L158.327403,239.161768L160.703909,239.082533L153.519096,235.961121L157.577725,236.427185L160.842807,236.681387L160.237337,235.651871L160.473469,234.904593L157.558872,233.031035L157.360399,232.101548L157.034545,231.117720L156.340805,229.985374L155.268642,228.692127L160.069555,229.693725L159.751890,228.706534L158.080769,227.156257L155.298954,225.113234L155.412175,224.251704L158.107166,224.502232L158.731244,223.878514L159.921790,223.512770L160.713790,222.978915L164.164597,223.683198L165.822610,223.592237L169.910638,224.685633L166.663296,222.268359L160.722384,218.461131L161.904002,218.133838L162.100997,217.316650L162.354787,216.526087L163.178989,216.034286L160.127292,213.473862L163.754333,214.488959L164.046852,213.716434L163.487272,212.464318L164.217635,211.930229L169.162549,213.837227L173.031996,215.191803L175.732524,215.911037L171.859603,212.700280L170.979208,211.248216L168.370512,208.698556L170.876466,209.320745L169.483374,207.485733L169.403840,206.469908L174.697540,208.981152L173.269767,207.095960L171.065952,204.650655L170.557983,203.319194L172.354112,203.572625L175.110017,204.528754L173.524316,202.424254L171.380764,199.875208L172.191781,199.445702L178.355793,203.010051L181.525677,204.428316L180.438916,202.644548L182.654576,203.389857L180.405067,200.662466L179.017802,198.564704L179.954477,198.302565L180.257241,197.531509L181.660079,197.667612L183.161595,197.906228L184.065765,197.658887L185.018207,197.462151L184.963947,196.396712L181.925864,192.679408L183.704510,193.195909L184.935928,193.244781L183.743780,191.081534L180.922007,187.358831L184.767191,189.846108L185.235894,189.185942L182.889752,185.797687L180.266157,182.064117L179.381969,179.977425L185.909156,185.313238L187.379348,185.646718L190.064245,187.258561L193.512825,189.726127L192.760282,187.818535L192.366445,186.260077L191.416329,184.069561L192.583801,184.169480L195.297604,186.012491L190.902373,179.876479L193.882033,182.044146L196.787950,184.197279L196.069829,182.157953L197.312050,182.414331L196.186002,179.831139L195.712268,177.990805L198.200875,179.787584L200.144500,180.961114L197.650433,176.529713L197.382249,174.864032L196.208207,171.982498L200.350249,176.080996L202.228967,177.264410L204.101984,178.485240L203.989754,177.012673L202.996398,174.279629L202.225667,171.799523L205.483053,175.054798L206.121697,174.596199L206.863889,174.290262L209.407248,176.687744L207.026318,171.680356L206.316339,169.118561L203.390438,163.031175L204.137838,162.607569L204.277894,161.207728L206.116096,162.552412L206.224209,161.084127L206.961160,160.642439L208.836858,162.143083L210.851802,163.942714L213.074921,166.175185L212.501753,163.499189L214.891107,166.119604L215.427422,165.424864L215.743305,164.308666L216.285261,163.598279L217.726184,164.610033L221.654642,170.537303L221.727696,168.996084L221.697588,167.207079L220.702723,163.387199L220.907246,161.957993L220.691047,159.598374L221.298669,158.950562L220.812982,155.889125L222.751905,158.155428L223.492987,157.787668L227.814802,165.712156L227.218617,162.337937L227.748385,161.554844L229.071262,162.693377L229.067549,160.581228L229.862505,160.427244L231.425883,162.266598L231.549256,160.390705L232.797737,161.477914L232.789602,159.171726L231.747654,153.887410L231.547134,150.799827L231.468455,147.949100L232.586347,148.555088L234.697219,152.224526L235.203372,151.071866L237.135157,154.418528L238.146111,154.931140L239.491019,156.592709L240.187705,156.131769L240.019089,152.632306L241.900982,156.321128L242.615218,155.916015L243.252423,155.209992L242.618664,149.553377L243.817487,150.891896L245.716574,155.182159L246.971788,157.020180L246.980654,153.576438L247.636633,152.823877L249.111411,155.805230L250.286445,157.564553L250.241659,153.462893L249.871603,147.440944L251.560953,151.828076L252.624970,153.140247L252.804605,149.564286L253.960696,151.453783L255.373070,155.073692L255.985278,153.914502L256.537993,152.268648L257.935578,156.356733L258.407319,154.102099L259.193841,154.040177L259.937165,153.634439L260.693449,153.304535L261.544420,153.799511L262.537542,155.727743L263.182673,154.371437L263.882053,153.425856L264.660568,153.277956L265.313708,151.518309L266.016438,150.141422L266.856545,150.601566L267.621468,149.899726L268.395116,149.202604L269.145783,147.822149L269.816989,143.994037L270.866148,150.102318L271.680682,150.379502L272.570782,154.593454L273.393923,157.909479L274.120855,153.890454L274.904962,156.535125L275.692250,152.576072L276.554816,146.627721Z" />
<line x1="50" y1="600" x2="100" y2="600" fill="none" stroke="red" stroke-width="1.0" stroke-linejoin="round" stroke-miterlimit="10" />
<text x="125" y="603" style="text-anchor:start;fill:black">n0_4mer:D</text>
<path style="stroke:black;stroke-width:1.0" d="M277.246173,101.047130L278.377030,100.665284L279.519691,100.028361L280.669507,99.436437L281.788904,99.838976L282.890348,100.535879L283.994696,101.014947L285.080119,101.725633L286.249501,101.008372L287.503970,99.239066L288.674343,98.862294L289.798744,99.103747L290.855144,100.074500L291.969743,100.329834L293.067526,100.729046L294.210163,100.687792L295.293199,101.175559L296.197872,103.072089L297.322001,103.100964L298.352006,103.830853L299.403607,104.356467L300.708355,103.157554L301.894529,102.833055L303.178385,101.949135L304.422549,101.382805L305.358614,102.622923L306.430502,103.043892L307.444697,103.754018L308.400500,104.727674L309.638390,104.260769L310.686217,104.744925L311.811190,104.856700L313.205728,103.767957L314.254497,104.261882L315.433833,104.190430L316.692639,103.811293L317.712054,104.423617L318.865471,104.497126L319.834526,105.279470L320.726623,106.320586L321.727709,106.932506L322.798186,107.285806L323.995698,107.201904L325.421913,106.371903L326.579153,106.473846L327.569065,107.120577L327.919860,109.749442L328.332280,112.090597L329.176778,113.054839L329.861479,114.460876L331.757745,112.351507L333.498918,110.778210L335.027838,109.866912L337.079522,107.597146L338.101602,108.153475L338.759264,109.649170L339.427698,111.076547L340.061782,112.552041L341.043179,113.137562L342.187643,113.324923L343.405515,113.347627L344.180731,114.412668L345.467160,114.290228L346.610316,114.508812L347.019776,116.351927L347.591884,117.796334L347.521282,120.576743L347.520204,123.135247L348.226238,124.168965L349.193046,124.656117L351.826807,121.819367L353.705484,120.569876L355.701187,119.149605L356.950222,119.209220L356.970544,121.582996L358.120385,121.818772L358.956861,122.632380L360.360064,122.424835L361.158188,123.305274L361.798647,124.449576L362.907801,124.775766L364.009971,125.120762L365.356553,125.066852L366.851006,124.789467L367.818951,125.385650L368.510008,126.421870L369.622104,126.786373L370.298501,127.830645L371.562422,127.968345L372.253334,128.979867L372.998193,129.900924L373.876497,130.619208L374.143543,132.215631L375.077780,132.838299L375.601424,134.036930L376.839230,134.233623L377.760776,134.873937L379.066113,134.998551L379.636892,136.112729L380.015550,137.466890L381.521091,137.346962L382.345935,138.116302L383.344179,138.665442L384.943559,138.472028L385.380177,139.727165L386.203492,140.500483L387.928601,140.195884L388.375962,141.423459L389.073035,142.347851L390.099605,142.889203L390.462100,144.188108L390.554310,145.775056L391.084107,146.857390L392.162649,147.333256L393.537802,147.497260L395.078549,147.500809L396.201306,147.962190L396.575937,149.205853L396.572255,150.824228L396.966531,152.020085L398.732676,151.840011L399.355874,152.807958L400.510152,153.256555L401.934694,153.455595L401.753787,155.187995L403.959786,154.669876L405.478854,154.818995L405.789611,156.084463L407.057097,156.480498L406.677949,158.346989L406.844912,159.709841L410.028252,158.456075L413.204628,157.263020L416.602879,155.937254L420.014282,154.658539L418.737858,157.276669L416.237867,160.839845L414.030281,164.100666L411.708011,167.389983L412.715902,168.029500L415.606471,167.232613L418.682492,166.340470L421.234730,165.887347L420.748184,167.708351L420.072307,169.643373L418.036101,172.526209L417.091872,174.584632L419.685870,174.145875L419.643816,175.556696L421.379688,175.749005L421.674519,176.925513L420.655644,178.961890L420.476119,180.422216L420.441718,181.775005L420.829242,182.849582L421.304463,183.865782L422.198795,184.622627L422.255173,185.892066L423.901174,186.204394L424.816304,186.964976L426.625790,187.213778L427.504356,188.014982L427.419766,189.362762L428.461747,190.076279L428.436056,191.379987L429.093937,192.307390L429.724126,193.251486L428.596157,195.111725L428.852822,196.236140L428.922747,197.450532L429.610662,198.351580L431.360802,198.737651L432.210631,199.575766L433.474468,200.224296L433.420970,201.496370L433.698896,202.608976L434.664918,203.410101L434.792057,204.588687L435.931697,205.323856L435.779995,206.618821L435.249164,208.063104L435.608614,209.127639L435.868226,210.231377L437.585265,210.756854L438.474579,211.622674L438.518138,212.817249L438.236833,214.127678L438.074609,215.384656L437.749984,216.691806L438.417969,217.640334L439.198703,218.554421L438.836972,219.859026L439.177710,220.921928L439.463957,222.002269L439.766947,223.076536L440.230188,224.100979L440.842688,225.082400L442.037099,225.896846L441.797897,227.134996L442.404434,228.128686L442.269413,229.329082L441.545995,230.680092L443.305080,231.373651L443.292334,232.534659L444.764981,233.327100L445.991159,234.194837L446.226703,235.305368L447.613710,236.156501L447.775413,237.290482L446.987887,238.624120L445.749477,240.036291L444.745329,241.382366L445.192146,242.434416L445.657032,243.486296L446.189267,244.529679L447.158722,245.502619L446.161392,246.809843L447.265957,247.769167L447.215696,248.915699L448.011517,249.936774L449.420492,250.881422L449.386664,252.032587L450.734589,253.008446L450.140458,254.230425L449.115495,255.491142L448.827553,256.659044L447.971972,257.877830L448.153610,258.988103L448.589686,260.077523L449.068748,261.167946L449.727975,262.250288L449.245323,263.416033L450.202502,264.488159L450.166852,265.624948L450.386073,266.748501L450.910363,267.861822L450.490496,269.013536L449.638219,270.171278L449.390784,271.304787L450.236021,272.418695L449.911504,273.552982L450.417263,274.681450L450.278148,275.813430L449.406687,276.935554L449.640547,278.065989L449.842074,279.198925L449.986259,280.333067L449.760782,281.455862L449.290803,282.565666L449.125946,283.685242L448.554487,284.780496L448.188273,285.882061L448.476078,287.025125L447.347693,288.065570L446.574472,289.121688L446.865746,290.263477L447.099631,291.404869L448.146785,292.633514L449.483491,293.908686L449.481966,295.049146L449.721189,296.220519L448.948114,297.267237L447.685628,298.239832L446.702594,299.237247L446.183871,300.292379L445.868735,301.374244L445.633170,302.467004L445.181017,303.522691L443.749393,304.404151L444.294135,305.626627L445.038979,306.896542L446.437136,308.306090L447.824113,309.735009L447.987928,310.931512L447.678982,312.031961L447.961157,313.262233L448.405264,314.536594L448.061181,315.635387L448.329886,316.881133L447.825340,317.942116L446.805586,318.868431L447.026654,320.109992L445.741905,320.953350L444.405276,321.768701L443.402091,322.664050L440.821547,323.092227L440.759240,324.236634L441.012000,325.480437L441.303332,326.744406L442.705046,328.370602L442.368842,329.456174L443.911813,331.166833L443.888920,332.372884L444.790548,333.904682L445.278717,335.308590L443.439654,335.884053L441.764530,336.498860L440.088542,337.094595L439.392362,338.047307L439.098294,339.152939L439.365872,340.484123L439.414567,341.736791L438.737628,342.696663L437.432971,343.388622L436.057297,344.037019L434.175893,344.450543L433.152862,345.223175L432.297407,346.062708L431.630830,346.982876L432.182087,348.469121L431.975430,349.611263L433.212609,351.455488L434.275355,353.241595L433.252346,354.011472L433.541601,355.438875L432.007743,355.939569L431.470796,356.945830L431.126067,358.054215L430.245593,358.876321L429.229502,359.618366L428.275848,360.387302L428.026024,361.547498L426.900253,362.210056L426.496021,363.283425L425.965888,364.285200L424.818140,364.917107L424.255806,365.895564L423.665812,366.857365L422.338734,367.357191L421.412310,368.098634L421.491036,369.482471L421.359191,370.741157L420.946322,371.822377L420.795274,373.083685L419.043577,373.262126L417.162038,373.329616L416.176182,374.001413L415.574776,374.939853L414.987419,375.889271L415.423316,377.587493L414.557078,378.343227L413.207012,378.731842L412.673668,379.728001L411.608471,380.317046L412.275262,382.251340L417.029526,387.450107L421.341857,392.409451L421.317965,393.951229L419.688097,394.186053L413.780717,390.832043L408.629289,388.004263L407.279791,388.335999L406.554702,389.195919L405.983613,390.191550L404.910431,390.743795L403.881994,391.328879L403.617191,392.605720L403.625565,394.147335L403.017683,395.129327L403.444482,397.098958L402.779523,398.047140L401.382806,398.284724L400.388530,398.904848L398.587495,398.712440L396.802992,398.510883L395.837294,399.124553L394.851431,399.712881L394.052307,400.493192L393.572827,401.615133L392.837706,402.469879L392.332439,403.578975L391.081449,403.869432L390.404792,404.793756L389.745772,405.742894L389.046556,406.651129L389.047211,408.382431L388.538393,409.536393L387.947405,410.602874L387.283855,411.590060L385.415060,411.098643L383.737043,410.813297L382.346356,410.865131L380.844253,410.756810L380.788790,412.507506L380.034803,413.366919L379.251639,414.192303L378.484480,415.043498L377.335078,415.375375L376.791546,416.540665L375.853842,417.164360L374.675801,417.443834L373.711404,418.022705L372.230160,417.840641L371.326761,418.496586L370.901986,419.876536L370.169561,420.806790L369.679433,422.122585L368.961946,423.100301L367.539716,422.961947L365.808305,422.300624L364.699541,422.627458L363.673841,423.085558L363.027158,424.182588L362.652750,425.763766L362.050306,426.977451L360.551176,426.621751L359.436815,426.930564L358.015920,426.672033L356.673079,426.533579L355.921522,427.488432L354.900535,427.941254L354.597432,429.788083L353.754423,430.611114L352.697894,431.015647L351.743940,431.626328L350.427081,431.487921L349.431184,432.005557L348.632471,432.947424L347.611121,433.419553L346.412139,433.497542L345.265801,433.680980L344.259737,434.177209L343.721913,435.770618L343.297044,437.674896L342.802774,439.464750L341.819199,440.096105L340.461074,439.792131L338.955308,439.081499L337.617735,438.767038L336.659995,439.437157L335.273467,438.951815L334.035639,438.843586L332.810053,438.749804L331.935421,439.651332L330.979384,440.335227L329.926432,440.740688L328.997826,441.531881L327.328137,440.006137L326.254251,440.316681L325.454032,441.529539L324.360016,441.791895L323.580497,443.140005L322.778830,444.460895L321.786438,445.139532L320.680454,445.413920L319.588671,445.741599L318.420626,445.771497L317.302094,445.987612L316.074396,445.746676L315.010920,446.178749L313.838440,446.140921L312.700374,446.241610L311.713955,447.043869L310.584648,447.191632L309.352024,446.817113L308.308351,447.379018L307.025019,446.681057L305.893733,446.761212L304.752079,446.772330L303.445197,445.777009L302.385389,446.228693L301.271672,446.352514L300.173832,446.580415L299.133128,447.222221L298.129866,448.192293L297.009563,448.325623L295.848145,448.116586L294.629519,447.365677L293.452153,446.892178L292.400858,447.592344L291.428143,449.207106L290.449510,450.978336L289.358534,451.635141L288.193516,451.400032L287.051729,451.444124L285.875210,450.919328L284.687321,450.049694L283.510508,449.159607L282.338181,448.086796L281.215076,447.980646L280.113533,448.542007L278.990910,448.483918L277.868423,448.368571L276.744818,447.970947L275.625787,447.378537L274.511581,447.804035L273.392138,448.197313L272.281174,447.720820L271.163532,447.812152L270.039583,448.071197L268.906424,448.485340L267.779141,448.617251L266.669704,448.329753L265.567763,447.960279L264.503744,447.034766L263.365409,447.375024L262.237924,447.495790L261.122436,447.434716L259.941122,448.126155L258.810816,448.162236L257.639607,448.588997L256.589353,447.814434L255.509045,447.381400L254.371200,447.462983L253.314429,446.879678L252.249524,446.401471L251.139865,446.275770L250.068783,445.883101L248.915081,446.052251L247.681545,446.695117L246.663476,445.972486L245.587761,445.625804L244.422807,445.789213L243.229411,446.079883L242.023905,446.399071L241.027775,445.630841L240.017505,444.967121L238.926010,444.713251L237.686360,445.136207L236.470076,445.416072L235.413093,444.981108L234.497084,443.968221L233.544615,443.144832L232.582660,442.388923L231.427191,442.401922L230.256880,442.455277L229.292286,441.740908L228.162522,441.634875L227.049527,441.461132L225.795305,441.759577L224.723235,441.426435L223.719879,440.871413L222.634893,440.584535L221.801491,439.517376L220.548132,439.752094L219.189538,440.273573L218.205107,439.673410L217.018479,439.657027L215.893126,439.455698L214.681873,439.481440L213.603608,439.135394L212.861456,437.906228L211.851696,437.396760L210.956465,436.602115L209.942473,436.115686L208.442265,436.813759L207.186348,436.887999L206.363206,435.929303L205.469950,435.150228L204.634413,434.251990L203.602516,433.805745L202.381054,433.773461L201.220318,433.595986L200.101623,433.319723L199.313985,432.348390L198.425924,431.598123L197.210547,431.514663L196.212877,430.986822L195.538438,429.829774L194.563529,429.269148L193.580843,428.724486L192.578147,428.217604L191.266940,428.274684L190.188078,427.894836L189.245597,427.267796L188.394544,426.483020L187.179830,426.331564L186.229940,425.718296L185.592176,424.583992L184.855133,423.629475L183.884256,423.065636L183.095659,422.209130L181.852782,422.077377L180.587517,421.967246L179.858957,421.019413L178.863003,420.485515L178.489367,419.020543L177.055590,419.138899L176.084417,418.565267L174.321892,419.122698L171.919481,420.550892L171.966140,418.511334L171.571344,417.115309L170.989877,415.991827L171.384329,413.575208L170.182171,413.311817L168.781117,413.296443L168.166835,412.252589L166.965429,411.962378L165.872609,411.525643L164.607826,411.294219L163.595293,410.742896L162.425416,410.376418L160.740109,410.612350L160.491875,409.139646L160.012530,407.953091L159.255359,407.095052L158.778350,405.924255L157.784965,405.338440L156.407013,405.170350L156.086231,403.841527L156.144780,402.121341L155.042781,401.650808L154.218884,400.882665L153.347625,400.162950L151.980680,399.945004L151.935754,398.386875L151.692541,397.044470L150.576259,396.569031L150.396797,395.181651L149.922203,394.090145L149.228760,393.211581L148.468128,392.397053L147.141177,392.101134L145.720060,391.876790L145.163998,390.864835L144.578081,389.883634L143.867337,389.014539L143.285708,388.035217L141.633303,387.966202L140.810784,387.182927L140.571399,385.916356L139.528451,385.314476L139.501151,383.889301L139.133950,382.748046L138.293411,381.984127L138.258550,380.594927L137.927643,379.444640L136.336821,379.248584L135.425632,378.529856L134.709639,377.663427L133.745614,376.975005L134.189927,375.277634L133.381726,374.481356L131.930553,374.127369L131.407042,373.123964L130.382531,372.460276L129.548037,371.662887L129.637987,370.255792L129.803018,368.813201L130.075481,367.316285L130.318836,365.853415L129.501383,365.062118L127.983762,364.693775L127.118426,363.916604L126.547403,362.959928L125.874606,362.062616L125.228886,361.147814L123.816514,360.665885L122.513320,360.108362L122.065581,359.067832L121.503982,358.090535L120.871403,357.150651L121.185520,355.712307L120.989706,354.551114L120.735596,353.424756L120.579043,352.253693L119.466560,351.558696L118.964236,350.558320L118.107172,349.726674L117.016612,348.998461L116.439924,348.023938L114.138152,347.828785L113.488525,346.869955L114.093107,345.359826L113.871900,344.220745L114.246107,342.833867L114.319643,341.583941L113.267768,340.799497L113.740268,339.396877L114.165902,338.025922L114.194069,336.820173L113.634501,335.842362L111.685478,335.375759L110.441038,334.630950L109.340815,333.822378L109.058932,332.718689L109.624603,331.327634L110.153842,329.962119L110.242151,328.753147L110.708386,327.429789L110.003331,326.483356L109.483033,325.475299L108.525578,324.594734L108.100795,323.550256L107.983222,322.417002L107.849220,321.290929L107.602097,320.197691L106.733432,319.268592L106.293676,318.221561L105.448004,317.273524L105.713170,316.048278L104.964933,315.069092L104.929122,313.920197L104.864436,312.780643L104.342950,311.741865L104.476425,310.562654L103.956256,309.520255L103.381100,308.484589L103.819604,307.253122L105.263136,305.847651L107.074725,304.399657L108.860870,302.982586L108.955162,301.865368L108.525734,300.832969L107.546265,299.878816L106.646475,298.902544L105.331132,297.972715L104.541589,296.959802L103.001121,296.030201L101.800914,295.042814L102.395921,293.845407L101.668466,292.793120L101.893188,291.641305L101.938769,290.509873L101.269138,289.439784L102.052079,288.250906L102.082365,287.126092L102.095010,286.003808L102.526814,284.858651L101.705137,283.783446L101.614569,282.666011L101.418774,281.552017L100.955243,280.444414L100.311330,279.335750L100.524467,278.203392L100.594925,277.075752L100.347632,275.950926L101.245245,274.824144L100.862464,273.699376L100.811990,272.574184L101.206253,271.457204L100.307967,270.310322L100.654254,269.192895L101.282492,268.090675L100.881149,266.948393L101.286323,265.842759L100.113577,264.648207L100.021890,263.508589L99.750597,262.353858L100.209795,261.252002L100.252378,260.119483L100.551289,259.009763L101.280257,257.944813L101.282095,256.811801L102.260472,255.785902L101.581108,254.575934L101.729000,253.458194L101.623784,252.307440L102.405556,251.275305L102.302485,250.123984L102.590322,249.028073L103.058004,247.962031L103.162141,246.840291L104.616882,245.947814L103.749365,244.660758L104.366873,243.632532L104.020328,242.426180L103.265250,241.131809L104.099978,240.148581L103.802543,238.935049L103.281568,237.665764L104.148340,236.697287L104.898624,235.710307L105.459911,234.685140L106.573791,233.799255L106.576591,232.645565L107.265111,231.665316L107.923000,230.682572L108.622759,229.716362L108.677783,228.575843L108.668492,227.413518L108.535325,226.210463L108.434725,225.010897L109.095573,224.039264L109.237244,222.909170L109.791270,221.908827L110.042489,220.812022L111.012090,219.954942L111.075272,218.795908L110.544830,217.424721L109.872256,215.989664L109.387577,214.607781L110.425403,213.779463L110.917625,212.753609L111.777684,211.871355L111.444335,210.525370L110.727171,209.014028L110.601270,207.727486L111.835280,206.999256L112.795609,206.166936L113.461475,205.215269L114.430409,204.400155L114.296199,203.099390L115.480618,202.389566L116.508650,201.618490L118.399560,201.262404L119.476542,200.538949L120.084202,199.596522L120.294158,198.459259L120.288969,197.209250L120.827862,196.229018L121.162143,195.143065L121.581435,194.098967L122.051882,193.080568L122.452212,192.023057L122.170403,190.586508L122.489635,189.473084L122.490955,188.174714L123.769128,187.604666L124.832605,186.920987L125.672994,186.113102L126.357029,185.215436L127.046427,184.322895L128.059646,183.633551L128.768943,182.760076L130.104686,182.289483L130.339272,181.117674L130.781374,180.075632L131.282897,179.070093L131.698222,178.004007L132.152253,176.960514L132.377776,175.754611L133.052190,174.857435L133.356006,173.695745L133.921955,172.717266L133.920433,171.319888L134.883549,170.627721L135.600276,169.755342L135.826002,168.508016L137.830424,168.630540L138.431610,167.677577L139.459904,167.062824L140.597449,166.543225L140.952108,165.392806L141.393050,164.306265L142.072248,163.413765L143.214506,162.914197L144.225070,162.310461L145.699387,162.117959L146.337281,161.202637L146.795395,160.123995L147.632350,159.382641L147.516505,157.767230L147.736403,156.443788L148.195403,155.332828L147.723656,153.324422L148.377220,152.374721L149.126989,151.515941L149.554474,150.335679L151.102081,150.273343L152.776527,150.359654L153.809911,149.806637L154.992159,149.415411L156.080029,148.934183L157.228736,148.525799L158.123936,147.850861L158.871726,147.015556L159.183374,145.691051L159.118126,143.925055L160.057267,143.283189L161.260944,142.951092L162.504590,142.676655L163.706843,142.364869L164.549596,141.629793L164.985807,140.396725L165.943526,139.796242L166.670835,138.909077L167.474562,138.114156L168.812503,138.005722L169.524561,137.094569L170.567782,136.616001L172.038345,136.716705L172.222830,135.087567L173.304404,134.669835L173.899961,133.578833L174.159558,131.999284L175.834511,132.428795L176.403509,131.276040L177.396591,130.735620L178.496614,130.358020L178.669842,128.578660L179.372318,127.582166L179.948944,126.378018L180.897193,125.746252L182.047611,125.439076L183.302552,125.311086L184.606949,125.278665L185.505221,124.579966L186.990436,124.878835L188.205418,124.735907L189.393834,124.558931L190.238602,123.780325L191.065693,122.962587L191.959529,122.259071L192.794052,121.439527L193.851373,121.033606L194.893235,120.601640L195.908861,120.121037L197.247331,120.283819L198.563763,120.423782L199.607156,120.023415L200.744266,119.821783L201.614666,119.062783L202.271270,117.832047L203.064965,116.876425L203.883287,115.958759L204.987088,115.674576L206.086635,115.386531L207.382229,115.566407L208.403435,115.110063L209.276286,114.289979L210.352567,113.961786L211.256214,113.198791L212.333790,112.872217L213.625650,113.113913L214.515351,112.299164L215.276045,111.113304L215.978066,109.730370L216.695471,108.349712L217.999613,108.639023L219.182284,108.594477L220.320259,108.427596L221.423658,108.161340L222.415853,107.544564L223.523832,107.292195L224.596966,106.927402L225.816726,107.061379L226.805864,106.410758L227.918903,106.187392L229.236216,106.719301L230.185988,105.907699L231.325564,105.803447L232.431106,105.573481L233.709942,106.055095L235.211940,107.519172L236.538692,108.325551L237.867022,109.203032L238.858690,108.600231L239.588851,106.731044L240.578724,106.028164L241.527875,105.085756L242.506464,104.246839L243.677369,104.409478L244.783826,104.235415L245.696041,102.922382L246.799624,102.687413L247.889504,102.360722L248.872710,101.311541L250.113949,101.975539L251.291125,102.251956L252.368120,101.804968L253.583861,102.444053L254.724718,102.532862L255.881466,102.790729L256.958686,102.335162L258.004426,101.513080L259.085080,100.971225L260.152978,100.211890L261.331698,100.755298L262.444463,100.496107L263.570623,100.406203L264.732015,100.910121L265.817597,100.110875L266.942966,99.967814L268.062880,99.657114L269.162899,98.641390L270.325344,99.494674L271.483587,100.705552L272.611765,100.886487L273.742236,101.732497L274.861123,101.890528L275.982655,101.218082L277.103173,101.353071Z" />
<line x1="50" y1="550" x2="100" y2="550" fill="none" stroke="black" stroke-width="1.0" stroke-linejoin="round" stroke-miterlimit="10" />
<text x="125" y="553" style="text-anchor:start;fill:black">GC-content</text>
</g>
<g style="fill:pink;stroke:black">
<a href="" title="CP080572:1 [246000-289099];"><path  d="M439.055867,113.799278L441.844221,116.687000L444.581752,119.622945L447.267628,122.606219L449.901029,125.635914L452.481153,128.711107L455.007215,131.830860L457.478445,134.994225L441.610754,147.168640L441.610754,147.168640L439.354414,144.280351L437.048009,141.431880L434.692243,138.624095L432.287834,135.857852L429.835513,133.133993L427.336027,130.453348Z" />
</a><a href="" title="CP080572:2 [297000-316599];"><path  d="M463.258584,142.868605L465.535922,146.174294L467.755221,149.519225L469.915805,152.902379L452.966604,163.519563L452.966604,163.519563L450.993897,160.430597L448.967581,157.376529L446.888272,154.358291Z" />
</a><a href="" title="CP080572:3 [350000-372099];"><path  d="M483.007473,176.852706L484.688699,180.497885L486.306051,184.171851L487.859038,187.873483L489.347186,191.601656L470.708300,198.853686L470.708300,198.853686L469.349557,195.449702L467.931612,192.069951L466.454899,188.715460L464.919866,185.387253Z" />
</a><a href="" title="CP080572:4 [582000-604099];"><path  d="M494.169076,344.748950L492.918409,348.563355L491.601361,352.355352L490.218334,356.123785L488.769750,359.867507L470.181076,352.487724L470.181076,352.487724L471.503697,349.069543L472.766460,345.628799L473.968982,342.166542L475.110896,338.683824Z" />
</a><a href="" title="CP080572:5 [618000-640099];"><path  d="M484.602503,369.693141L482.917956,373.336787L481.170075,376.950478L479.359393,380.533115L477.486462,384.083605L459.878943,374.598074L459.878943,374.598074L461.589011,371.356322L463.242243,368.085219L464.838134,364.785762L466.376198,361.458955Z" />
</a><a href="" title="CP080572:6 [687500-714599];"><path  d="M458.280097,413.954690L455.827089,417.132205L453.318999,420.266426L450.756592,423.356397L448.140647,426.401177L445.471962,429.399839L430.648313,415.973766L430.648313,415.973766L433.084939,413.235857L435.473410,410.455840L437.812999,407.634563L440.102994,404.772883L442.342698,401.871674Z" />
</a><a href="" title="CP080572:7 [882000-900599];"><path  d="M341.689887,495.119193L337.838120,496.249566L333.967212,497.312545L330.078343,498.307806L325.288921,478.889736L325.288921,478.889736L328.839629,477.981020L332.373936,477.010474L335.890767,475.978393Z" />
</a><a href="" title="CP080572:8 [936500-954599];"><path  d="M302.130822,503.394217L298.140661,503.832930L294.143451,504.201938L290.140410,504.501128L288.823853,484.544509L288.823853,484.544509L292.478803,484.271334L296.128430,483.934414L299.771620,483.533851Z" />
</a><a href="" title="CP080572:9 [1156000-1176099];"><path  d="M146.962592,466.066539L143.647522,463.802877L140.372463,461.481705L137.138413,459.103729L149.126377,443.094709L149.126377,443.094709L152.079206,445.265905L155.069477,447.385236L158.096280,449.452057Z" />
</a><a href="" title="CP080572:10 [1694500-1712599];"><path  d="M107.981213,116.871177L110.766379,113.980381L113.601573,111.138633L116.485929,108.346799L130.269762,122.838382L130.269762,122.838382L127.636218,125.387447L125.047564,127.982087L122.504586,130.621509Z" />
</a></g>
<text x="275" y="280" style="text-anchor:middle" font-size="25" font-weight="bold">CP080572</text>
<path  style="fill:pink;stroke:black" d="M350,550L375,550L375,565L350,565Z" />
<text x="405" y="565" style="text-anchor:start;fill:black">Selected loci;</text>
</svg>