<svg xmlns="http://www.w3.org/2000/svg" viewbox="0 0 550 650">
<circle cx="275" cy="275" r="240" fill="none" stroke="black" stroke-width="1.0" />
<line x1="275" y1="15" x2="275" y2="55" fill="none" stroke="grey" stroke-width="1.0" stroke-linejoin="round" stroke-miterlimit="10" />
<line x1="495" y1="275" x2="535" y2="275" fill="none" stroke="grey" stroke-width="1.0" stroke-linejoin="round" stroke-miterlimit="10" />
<line x1="275" y1="495" x2="275" y2="535" fill="none" stroke="grey" stroke-width="1.0" stroke-linejoin="round" stroke-miterlimit="10" />
<line x1="15" y1="275" x2="55" y2="275" fill="none" stroke="grey" stroke-width="1.0" stroke-linejoin="round" stroke-miterlimit="10" />
<text x="275" y="10" style="text-anchor:middle" font-size="15">Thermococcus kodakarensis strain TS901 chromosome, complete genome.</text><text x="285" y="25" style="text-anchor:start">2,078,475</text><text x="525" y="265" style="text-anchor:start">0.51 Mbp</text><text x="285" y="530" style="text-anchor:start">1.03 Mbp</text><text x="-200" y="25" style="text-anchor:end" transform="rotate(-90)">1.55 Mbp</text><circle cx="346.451515" cy="45.882823" r="2.500000" fill="grey" stroke="black" stroke-width="1.0" />
<circle cx="411.423079" cy="77.544325" r="2.500000" fill="grey" stroke="black" stroke-width="1.0" />
<circle cx="464.022409" cy="127.113121" r="2.500000" fill="grey" stroke="black" stroke-width="1.0" />
<circle cx="499.479260" cy="190.093805" r="2.500000" fill="grey" stroke="black" stroke-width="1.0" />
<circle cx="514.578044" cy="260.774648" r="2.500000" fill="grey" stroke="black" stroke-width="1.0" />
<circle cx="507.949451" cy="332.745591" r="2.500000" fill="grey" stroke="black" stroke-width="1.0" />
<circle cx="480.194628" cy="399.479576" r="2.500000" fill="grey" stroke="black" stroke-width="1.0" />
<circle cx="433.830665" cy="454.924484" r="2.500000" fill="grey" stroke="black" stroke-width="1.0" />
<circle cx="373.062319" cy="494.052007" r="2.500000" fill="grey" stroke="black" stroke-width="1.0" />
<circle cx="303.400683" cy="513.313661" r="3.000000" fill="black" stroke="black" stroke-width="1.0" />
<circle cx="231.163384" cy="510.962605" r="2.500000" fill="grey" stroke="black" stroke-width="1.0" />
<circle cx="162.901635" cy="487.212056" r="2.500000" fill="grey" stroke="black" stroke-width="1.0" />
<circle cx="104.806109" cy="444.215955" r="2.500000" fill="grey" stroke="black" stroke-width="1.0" />
<circle cx="62.145498" cy="385.873627" r="2.500000" fill="grey" stroke="black" stroke-width="1.0" />
<circle cx="38.788703" cy="317.476149" r="2.500000" fill="grey" stroke="black" stroke-width="1.0" />
<circle cx="36.853955" cy="245.226501" r="2.500000" fill="grey" stroke="black" stroke-width="1.0" />
<circle cx="56.516717" cy="175.677017" r="2.500000" fill="grey" stroke="black" stroke-width="1.0" />
<circle cx="95.993769" cy="115.135154" r="2.500000" fill="grey" stroke="black" stroke-width="1.0" />
<circle cx="151.704929" cy="69.091463" r="2.500000" fill="grey" stroke="black" stroke-width="1.0" />
<circle cx="218.597744" cy="41.721657" r="3.000000" fill="black" stroke="black" stroke-width="1.0" />

<circle cx="275" cy="275" r="185" fill="white" stroke="grey" stroke-width="0.5" />
<circle cx="275" cy="275" r="170" fill="none" stroke="black" stroke-width="0.5" />
<circle cx="275" cy="275" r="170" fill="aliceblue" stroke="black" stroke-width="0.5" />
<circle cx="275" cy="275" r="160" fill="white" stroke="none" stroke-width="0.5" />
<circle cx="275" cy="275" r="140" fill="none" stroke="black" stroke-width="0.5" />
<circle cx="275" cy="275" r="140" fill="aliceblue" stroke="black" stroke-width="0.5" />
<circle cx="275" cy="275" r="133" fill="white" stroke="none" stroke-width="0.5" />
<circle cx="275" cy="275" r="110" fill="none" stroke="black" stroke-width="0.5" />
<circle cx="275" cy="275" r="110" fill="white" stroke="black" stroke-width="0.5" />
<circle cx="275" cy="275" r="109" fill="aliceblue" stroke="none" stroke-width="0.5" />
<circle cx="275" cy="275" r="80" fill="none" stroke="black" stroke-width="0.5" />

<g style="fill:none;stroke-linejoin:round;stroke-miterlimit:10">
<path style="stroke:blue;stroke-width:1.0" d="M276.878251,119.656998L277.780684,121.695859L278.692242,122.346231L279.610703,122.516985L280.547575,122.132749L281.492726,121.672478L282.375447,122.627002L283.315253,122.330931L284.331923,120.834438L285.433803,118.341545L286.234324,120.422320L287.054710,121.940194L287.970123,122.130835L288.892965,122.224754L289.815901,122.316461L290.892303,120.920024L292.130914,118.205873L293.042290,118.626712L293.805777,120.233209L294.502925,122.215893L295.332230,123.039586L296.304628,122.779255L297.256913,122.689394L298.105187,123.300629L299.053494,123.243930L300.104629,122.578131L300.937847,123.246700L301.626433,124.695751L302.549021,124.781248L303.429370,125.094807L304.306545,125.415513L305.300565,125.149448L306.139959,125.652097L307.229607,124.971349L308.286974,124.486646L309.645376,122.716997L311.454073,119.129597L311.841599,121.659461L312.397531,123.386964L313.179130,124.146712L313.882940,125.179966L314.740405,125.596831L315.189844,127.502763L316.104886,127.662346L317.143360,127.393670L318.276603,126.823952L319.887224,124.692236L320.062912,127.365327L320.677065,128.530667L321.644314,128.550347L322.327511,129.454312L323.478629,128.923437L323.991336,130.310693L324.989013,130.251081L325.887590,130.486805L326.789414,130.716208L327.490399,131.497802L328.395372,131.714923L329.239062,132.097338L330.079233,132.486908L330.932663,132.840781L331.854079,133.024335L332.711242,133.371084L334.109294,132.413145L334.534946,133.805576L335.179946,134.652164L336.227277,134.560054L337.102618,134.871035L338.223664,134.638602L338.748328,135.728623L340.777282,133.561875L342.721707,131.653881L342.839509,133.623964L343.943366,133.522966L344.292280,134.963335L344.042061,137.565723L344.611653,138.495627L345.537199,138.722844L346.394541,139.085720L348.444319,137.213493L349.748079,136.787197L349.634637,138.968944L350.727830,138.933719L351.529552,139.428666L352.217409,140.121605L352.408509,141.663956L352.743815,142.931828L353.395243,143.648269L354.476199,143.648251L355.752920,143.342003L357.559654,142.204506L357.035474,144.809718L357.082482,146.464691L358.176598,146.471140L359.934677,145.478057L360.396435,146.475197L360.601901,147.840602L361.360539,148.373069L361.919213,149.194694L363.981908,147.859767L367.140677,145.026313L368.606098,144.636941L369.708004,144.771495L371.255123,144.312570L370.680782,146.723848L368.579970,151.110341L369.148851,151.911665L371.378423,150.563081L373.798244,149.019548L374.602932,149.562724L373.649653,152.294007L374.826917,152.355550L375.513574,153.025674L376.925011,152.825506L378.293507,152.696008L375.968549,156.904734L375.040899,159.411977L376.096743,159.609357L378.267931,158.559092L378.634934,159.558848L377.969818,161.685444L378.882243,162.060862L380.172038,162.037014L380.510783,163.038166L380.841023,164.039542L381.760756,164.421698L381.738611,165.773977L382.988683,165.823147L384.403761,165.721925L384.445042,166.994653L385.805561,166.966547L385.759011,168.310494L385.899815,169.460021L386.238363,170.412165L387.315189,170.671840L387.763508,171.518335L388.754882,171.868540L388.868649,173.012882L389.181196,173.970383L390.188026,174.314583L392.445919,173.586997L394.586532,172.994168L393.005513,175.569007L392.520192,177.186764L392.738424,178.204071L394.696077,177.801453L394.692013,178.999742L395.164640,179.808795L396.055837,180.288342L396.660064,180.995834L397.097417,181.831357L397.813404,182.454505L398.081605,183.413821L398.408072,184.324962L398.783794,185.196239L399.191957,186.041192L399.692470,186.818463L400.607840,187.305506L401.687590,187.686184L402.202948,188.460675L402.338140,189.490315L404.163640,189.392954L404.561769,190.252018L409.214837,188.362487L419.012193,183.266878L435.881315,173.883671L444.412172,169.945379L425.277495,183.064303L411.396935,192.685179L409.795905,194.759151L409.051451,196.296047L408.368525,197.777473L409.020490,198.478151L409.194377,199.451013L408.641204,200.822923L408.798157,201.790433L409.792106,202.302034L410.522314,202.962482L410.251684,204.151765L411.918227,204.330415L412.194342,205.235091L415.987653,204.375697L413.395576,206.717678L414.000307,207.461183L415.412541,207.821282L415.369324,208.881893L418.101265,208.649221L418.578837,209.479545L418.951229,210.358291L419.678886,211.079810L420.321301,211.843306L420.689719,212.727663L419.327321,214.339365L417.647014,216.057825L419.547866,216.292992L422.435090,216.156259L426.080739,215.757616L424.070669,217.583222L420.531970,219.954281L419.590282,221.307446L419.614643,222.291084L420.151964,223.087233L421.893794,223.463840L425.828988,223.105213L427.851756,223.440654L428.593882,224.222513L427.891315,225.478148L423.548969,227.875061L421.354075,229.543406L422.471415,230.172165L421.719346,231.368035L423.082342,231.935442L422.083021,233.188843L421.930057,234.190809L423.086492,234.832401L422.992609,235.816893L423.096503,236.746017L423.617741,237.568384L423.651297,238.514243L423.279690,239.554555L423.527879,240.443175L423.937305,241.295808L424.073731,242.211101L424.418230,243.081162L426.804639,243.529837L427.272344,244.391885L426.053330,245.585938L425.249411,246.684232L425.444488,247.588293L425.654934,248.490017L425.889243,249.388316L426.684482,250.195878L426.708490,251.132783L426.741187,252.066884L425.954492,253.118450L426.562017,253.965170L426.624189,254.890140L426.697158,255.813014L428.124441,256.572375L428.733530,257.441328L429.220371,258.329656L429.141145,259.280435L427.534734,260.375507L427.423299,261.315679L427.221814,262.261021L427.777737,263.144195L428.347098,264.032298L429.215194,264.906965L429.598000,265.820248L430.137603,266.729143L436.116035,267.386981L457.092394,267.498890L476.865830,267.906597L463.049575,269.530205L452.787123,270.904335L440.041900,272.196185L435.703539,273.241686L431.128220,274.235753L428.417474,275.176583L428.426439,276.104222L427.918498,277.025205L428.154475,277.954543L428.688917,278.894515L428.009567,279.803137L429.138325,280.771590L428.046641,281.657545L430.564166,282.709631L432.079172,283.737037L437.418960,285.019405L436.248658,285.926200L434.036019,286.742619L433.007214,287.627610L431.084188,288.424102L427.646415,289.058650L426.779131,289.904734L427.994888,290.958609L428.266827,291.924303L427.149574,292.732672L426.721043,293.613153L427.087695,294.592193L426.412394,295.436561L426.231701,296.343941L426.577338,297.328217L428.608496,298.577138L430.236104,299.788523L427.393039,300.280314L429.314508,301.558692L428.503130,302.375619L429.171305,303.457589L428.836707,304.358694L425.626538,304.691006L425.161260,305.543573L424.561835,306.364474L424.455264,307.286673L424.235482,308.184819L424.793388,309.260594L423.678611,309.952873L423.208907,310.789396L423.902917,311.911147L425.755076,313.339204L424.951083,314.101467L422.517756,314.420996L422.508988,315.375731L423.413761,316.589524L422.549118,317.311000L422.004978,318.118516L421.451789,318.919597L421.462006,319.889566L421.226340,320.786270L420.757018,321.608804L420.512274,322.502152L420.951365,323.623888L419.714069,324.185699L419.165907,324.973713L419.049979,325.911158L418.789789,326.799243L418.795760,327.785757L417.834830,328.415146L418.085966,329.497383L417.575681,330.292372L417.084473,331.092444L416.905491,332.015839L416.958368,333.036352L416.628708,333.903466L415.584373,334.468641L415.485983,335.430957L414.678453,336.086965L414.771490,337.137017L415.953149,338.685721L414.914282,339.237744L414.286377,339.971942L414.007224,340.867934L418.901889,344.255693L418.737566,345.250063L415.168084,344.558521L412.617334,344.332770L410.663141,344.379789L410.299446,345.228964L409.975817,346.100180L409.674774,346.985109L409.217933,347.787634L409.025080,348.735132L409.046498,349.806191L409.255022,350.990667L411.562567,353.390704L412.219245,354.874499L410.698615,355.091659L408.317399,354.776947L405.700912,354.288326L405.405381,355.191604L405.033177,356.050246L405.655132,357.538907L404.401042,357.845448L403.504341,358.371014L402.988102,359.139951L402.656826,360.031961L401.833934,360.595391L400.833180,361.031841L400.492320,361.916811L399.876069,362.611872L399.277655,363.318048L398.728405,364.058439L400.246742,366.305919L400.530370,367.680145L400.504343,368.838612L397.141577,367.480836L395.919753,367.711218L395.404416,368.477393L394.887594,369.243365L395.255291,370.714387L393.687774,370.644609L393.206023,371.440946L392.972347,372.444233L392.457488,373.219622L391.959711,374.011093L391.259599,374.631263L391.023689,375.652084L389.598471,375.636393L388.949661,376.293382L388.611917,377.229485L388.556665,378.429020L387.206983,378.447785L386.702889,379.239438L386.429317,380.251687L386.311423,381.421075L387.218866,383.594851L387.461588,385.154169L384.776616,383.832503L382.939536,383.313060L382.511085,384.195626L382.950854,385.976440L381.226332,385.532847L379.928578,385.512129L380.144465,387.088966L378.921665,387.136476L378.651411,388.210117L377.577286,388.406010L377.472826,389.676608L377.875103,391.537278L376.141161,390.978901L374.611465,390.628702L374.063907,391.409025L373.291068,391.925855L372.506754,392.426941L372.223256,393.536430L371.621072,394.265568L370.215776,393.994656L369.534811,394.619024L370.030328,396.752020L370.906601,399.418307L369.532457,399.181202L367.036237,397.430913L365.984810,397.568133L366.390523,399.682743L365.885783,400.579475L364.450512,400.182915L363.249865,400.094666L362.301577,400.352597L361.651639,401.037438L360.597358,401.130689L360.122363,402.077558L359.265067,402.457620L358.945228,403.657963L358.378747,404.493803L358.484029,406.395864L357.255081,406.207488L355.428614,405.034388L354.710959,405.632983L354.178986,406.543274L352.823965,406.079278L352.397717,407.175283L352.048234,408.421881L351.683361,409.663560L350.269562,409.059237L349.695977,409.942365L348.224144,409.191842L347.745975,410.253989L351.009439,418.393092L354.460502,427.119061L355.460389,431.329144L350.301620,423.505780L346.209471,417.565906L346.080610,419.486618L344.847714,419.174679L344.040320,419.731755L341.972505,417.609341L339.592117,414.730056L338.238638,414.002501L337.352698,414.283146L336.529214,414.702422L335.661901,415.022107L335.471922,416.929934L333.894757,415.579204L333.093393,416.053241L332.649259,417.414057L331.574999,417.226582L331.533641,419.663207L330.168894,418.728161L329.516267,419.635729L328.571805,419.776190L327.180612,418.679631L326.324670,419.030895L325.421129,419.247581L324.510064,419.438828L323.550567,419.481599L322.688479,419.809913L321.922502,420.437786L320.954998,420.442392L320.040443,420.606425L319.566385,422.220859L319.428726,425.031231L318.709935,425.950140L317.469738,425.057097L315.846250,422.723541L314.856410,422.612363L314.039369,423.139558L313.045664,422.994188L312.664730,425.274341L311.429190,424.163223L310.419137,423.928492L309.621570,424.587053L308.680487,424.633436L307.616176,424.107345L306.765808,424.545293L306.216995,426.461435L305.097416,425.630010L303.995522,424.824124L303.077912,424.936585L302.167479,425.084735L301.327755,425.636302L300.645268,427.149743L299.872183,428.209166L298.882198,427.951727L297.816905,427.158885L296.767581,426.397074L295.805146,426.186531L294.898403,426.368127L293.986888,426.517644L293.075028,426.667856L292.134842,426.571933L291.208734,426.584830L290.287372,426.634459L289.377905,426.804172L288.576212,428.201466L287.805174,430.164422L287.026046,432.321863L285.924183,430.252980L284.795648,427.365701L283.872567,427.392757L282.959515,427.605905L282.019772,427.283428L281.119587,427.838483L280.191721,427.763681L279.317240,429.554010L278.406187,430.648712L277.470764,431.025083L276.511099,429.371542L275.582490,430.643501L274.646430,428.491774L273.717207,428.634149L272.806420,427.369846L271.879638,427.627995L270.953507,427.735115L270.020198,428.013868L269.117708,427.397285L268.188958,427.526350L267.276215,427.299105L266.335455,427.603858L265.406601,427.650237L264.471798,427.764539L263.553707,427.627170L262.662722,427.165704L261.724976,427.294722L260.843894,426.788809L259.873906,427.229250L258.920412,427.451727L258.089730,426.538624L257.110080,426.975332L256.253796,426.362012L255.185386,427.427730L254.344585,426.714587L253.295709,427.514487L252.571554,426.050097L251.396866,427.604788L250.345802,428.260337L249.381199,428.338640L248.676694,426.899310L247.952755,425.657051L247.112491,425.113424L246.067557,425.660009L244.853664,427.012950L244.022416,426.401431L242.746346,427.924294L242.229252,425.853483L241.134558,426.472207L240.743962,423.983264L239.959565,423.283735L239.012182,423.281419L238.133253,422.993248L237.180560,422.997010L236.302704,422.703697L235.083886,423.683293L234.427210,422.560844L232.851973,424.742369L232.157439,423.755564L231.412799,422.971221L230.546617,422.613196L228.543821,425.952251L227.579327,425.836244L227.750386,422.176081L227.273986,420.628884L225.890964,421.843011L224.149297,424.048822L222.821641,424.967199L222.414796,423.242572L221.364069,423.351827L221.982499,418.914125L221.405974,417.811270L220.507930,417.577775L219.567587,417.449564L218.753528,416.995274L217.963523,416.485277L217.168935,415.992113L215.747147,417.006972L215.077248,416.204117L214.221886,415.845616L213.276230,415.692640L210.521267,419.589807L208.422458,421.902055L205.829333,425.201767L205.526779,423.489239L204.972080,422.347336L205.474894,419.036627L206.135933,415.491038L205.455736,414.734680L202.995748,417.510916L202.428633,416.501333L202.930108,413.455598L203.577221,410.210092L202.665645,409.953815L201.161235,410.782519L200.901641,409.318523L198.895134,411.005026L195.712960,414.702986L195.998191,412.260521L193.466098,414.699428L196.734169,407.256672L196.321454,406.138583L195.627306,405.500580L194.498976,405.571058L192.788054,406.558946L192.892493,404.641103L192.673768,403.264269L191.259046,403.749323L189.427805,404.840487L188.866813,403.987625L188.254566,403.219106L187.330225,402.912216L186.803779,402.026537L186.251278,401.186885L185.595936,400.499284L185.714436,398.742912L184.924072,398.260849L184.305449,397.545167L183.412594,397.199552L182.727770,396.574666L182.142667,395.821689L181.286993,395.421130L179.907373,395.681417L179.325914,394.920745L177.620006,395.556607L175.671681,396.458975L174.687410,396.160301L174.637496,394.739389L175.176920,392.643683L174.659648,391.814292L174.739594,390.303459L173.395161,390.432681L172.042899,390.552781L170.125486,391.281642L170.894745,389.034837L171.147780,387.385479L170.707531,386.501810L169.583449,386.346504L167.332165,387.355945L166.202892,387.168892L166.555173,385.461481L167.412031,383.271424L166.886709,382.492396L165.981511,382.089517L163.823824,382.896052L162.180617,383.173942L159.749410,384.175335L158.931666,383.626083L161.801229,379.663886L161.384596,378.782024L159.374949,379.342407L157.681147,379.590960L157.459412,378.520002L157.765751,376.998277L157.825497,375.708103L155.921993,376.098812L154.681379,375.906689L153.147567,375.944470L151.948423,375.689569L151.481278,374.831128L151.209296,373.819621L151.131111,372.661762L152.046295,370.740442L153.642656,368.324313L153.559224,367.225443L152.755434,366.675838L151.273051,366.624039L151.382686,365.390750L150.983871,364.536728L150.782649,363.544478L149.871551,363.057890L149.539635,362.162076L148.894159,361.484801L147.360506,361.406606L145.322915,361.647299L145.834539,360.180391L146.908778,358.365132L146.626595,357.448208L145.750636,356.911281L144.992922,356.293963L144.353555,355.599156L143.730375,354.891958L142.199118,354.727606L142.621789,353.388958L143.240974,351.950185L142.724642,351.182990L140.812563,351.207568L137.344005,352.080487L137.291482,351.019944L137.008978,350.090973L137.175873,348.923649L137.094343,347.897202L134.511362,348.179295L131.337287,348.731848L136.519272,345.017780L137.888754,343.287620L135.967202,343.198684L133.739032,343.235216L136.221427,341.004286L136.423066,339.883968L133.519179,340.203636L131.667349,340.009344L130.486741,339.494227L131.674058,337.927996L134.008562,335.888949L134.464199,334.686647L133.221431,334.205236L132.548064,333.477516L132.159182,332.630500L133.031167,331.283048L132.814078,330.376718L132.548396,329.490615L132.017416,328.705043L130.449418,328.298997L127.458613,328.390709L121.671609,329.438715L120.660554,328.749166L123.093256,326.874314L126.752540,324.625944L128.761224,322.972280L129.412552,321.785600L129.513225,320.784674L129.251932,319.900274L128.731907,319.094007L128.535691,318.188912L127.572452,317.505817L127.044942,316.690692L126.214558,315.955342L126.539216,314.901970L126.453939,313.963460L126.990584,312.867776L126.875191,311.944584L126.130463,311.175709L124.432943,310.625537L122.548331,310.099514L121.305890,309.408430L123.086530,308.046583L123.159632,307.070469L116.396796,307.498440L115.780404,306.622918L118.066999,305.183706L118.442890,304.130985L120.620894,302.761106L115.187532,302.741763L102.097723,303.938273L81.048252,306.257009L69.886678,306.784702L63.191408,306.512087L80.574362,302.725474L101.516675,298.669766L110.909831,296.378451L118.221325,294.462655L118.789170,293.433871L118.061143,292.558398L115.588590,291.859818L113.137577,291.130104L115.674754,289.905001L119.195507,288.625926L121.531710,287.487136L121.456242,286.559260L121.484513,285.624136L121.690153,284.678939L121.886778,283.737463L122.382214,282.783774L121.360950,281.904824L121.911632,280.952881L121.962359,280.024457L122.616259,279.080862L122.467328,278.162121L120.806468,277.264009L119.293091,276.344702L120.702531,275.399622L121.355298,274.468999L122.224634,273.548288L122.432472,272.627699L122.212253,271.700205L120.551703,270.729985L119.666017,269.765470L119.499209,268.818426L120.192819,267.908326L120.588608,266.990662L121.054745,266.081286L120.978663,265.142208L120.350809,264.162816L119.482149,263.156660L119.543664,262.215565L121.516629,261.443112L119.858168,260.350808L119.955282,259.413675L120.902990,258.567283L121.058523,257.641942L122.770400,256.902246L123.197718,256.021605L123.669817,255.150677L123.361670,254.176935L123.452289,253.255063L123.267943,252.291536L123.869773,251.446556L124.182414,250.560404L124.154609,249.619016L124.203925,248.688830L122.528682,247.445616L123.372608,246.650410L124.634070,245.944302L124.609819,244.995298L125.578358,244.248031L125.036417,243.190230L124.899511,242.211628L125.673721,241.433585L126.463168,240.666322L126.613964,239.754776L126.360874,238.743918L125.222785,237.505462L125.496144,236.611887L126.905819,236.017950L125.837895,234.770984L126.483856,233.980379L127.075470,233.179589L126.553048,232.060982L126.218836,230.987804L128.336225,230.648108L129.243780,229.958960L128.881178,228.877299L128.028811,227.629251L128.540533,226.814788L128.452335,225.801877L128.992244,224.998876L130.376248,224.493863L131.133858,223.780474L131.385927,222.889752L131.571226,221.973484L131.881106,221.102272L132.267597,220.260221L132.264301,219.266741L133.069368,218.589804L132.814574,217.490684L132.875050,216.512827L132.961588,215.541735L133.284200,214.667268L134.649083,214.243388L135.421580,213.573129L135.689879,212.683119L136.230380,211.915278L136.371866,210.965447L135.169069,209.381176L134.653609,208.100937L134.235674,206.854261L134.443033,205.902589L136.432255,205.837133L135.994435,204.565621L135.854453,203.434169L139.023130,204.021057L139.120922,203.023418L139.740851,202.301191L140.484700,201.649349L141.445093,201.122003L141.723961,200.220376L141.998359,199.313450L142.862204,198.743758L143.075494,197.799865L143.795200,197.152329L144.248129,196.348389L144.396257,195.358211L143.349223,193.623745L143.225990,192.442330L144.550260,192.169541L143.127477,190.143059L144.748034,190.067916L144.714884,188.919230L146.170445,188.757517L146.864171,188.095467L148.484076,188.072754L147.584764,186.316088L146.995019,184.751910L149.765243,185.566619L150.872114,185.218942L152.058980,184.940254L151.935144,183.701124L152.322635,182.833478L152.421428,181.742983L151.944388,180.199996L152.338273,179.316150L154.135721,179.537293L155.671374,179.573042L155.492348,178.239490L153.269875,175.215592L154.146228,174.706209L155.990798,175.015776L157.726429,175.258267L158.886182,175.028545L159.696017,174.505539L160.686227,174.145974L161.109429,173.288215L161.497852,172.394848L162.122977,171.712977L163.170468,171.422319L163.181338,170.169287L163.288929,168.993883L164.013770,168.399082L164.962502,168.023812L166.243355,167.982454L166.964082,167.398308L167.537761,166.667613L167.898211,165.717364L168.456654,164.964188L169.415253,164.626645L170.010244,163.911746L169.995332,162.541685L170.241324,161.436418L170.407234,160.231687L172.845210,161.536472L173.489869,160.872357L173.898416,159.938286L174.000650,158.643357L175.492343,158.951925L175.221888,157.202661L175.535656,156.123199L175.711627,154.865114L177.476935,155.537516L179.146579,156.122814L178.893477,154.322985L179.285130,153.312250L180.306064,153.100701L181.452604,153.061999L182.283038,152.619419L182.327027,151.128637L183.927693,151.721273L184.919159,151.508052L185.770486,151.108779L186.454342,150.477612L187.337287,150.127555L188.011933,149.481623L188.859933,149.085949L189.549387,148.458778L190.431896,148.118337L190.727691,146.890518L190.959005,145.544206L192.223063,145.787487L193.179510,145.564211L194.120669,145.323788L195.011351,145.008118L195.805599,144.538199L196.636061,144.129004L197.199533,143.269543L197.486620,141.924688L196.961755,139.141587L197.595478,138.338405L198.798535,138.545148L200.778439,140.182208L202.244667,140.933278L202.939047,140.276167L203.609296,139.566745L204.424713,139.128538L205.344005,138.892954L205.517450,137.183624L206.458603,136.980826L206.876034,135.713749L207.286167,134.404912L209.030420,135.881251L210.324871,136.453526L211.142726,136.019403L212.010579,135.694298L212.740769,135.061595L213.772493,135.109346L214.638439,134.785999L215.343572,134.084201L213.855730,128.102138L212.444099,122.111735L213.732776,122.639493L216.951112,128.082994L219.797459,132.776809L220.276602,131.444250L220.707175,129.944863L221.587166,129.624728L223.050729,130.923183L223.765211,130.166379L223.977522,127.944704L225.314230,128.951933L225.955730,127.927294L227.319042,129.081681L228.277048,129.030145L228.383182,126.270567L229.129827,125.491410L229.979741,125.034133L230.358321,122.963323L230.891406,121.348326L231.758177,120.859883L232.675527,120.545215L234.413590,123.295364L236.495427,127.510997L236.980773,125.682177L237.260039,122.940079L238.766848,125.141569L240.074744,126.629640L240.982637,126.465819L241.703877,125.466124L242.666817,125.536870L243.368987,124.381950L243.050932,118.158918L241.682450,106.230291L242.836394,106.727591L245.295983,114.333894L247.839959,122.957653L249.039231,124.417657L249.860692,123.725358L250.806318,123.767238L251.780897,124.012564L252.420818,122.022883L252.984591,119.332869L254.134603,120.743732L255.058727,120.551630L256.176022,121.923249L256.939853,120.425678L257.677568,118.538517L258.947181,121.527943L259.821297,120.884834L260.903907,122.425572L261.877460,122.932321L262.732829,122.054575L263.699201,122.542426L264.463694,120.162922L265.543468,122.416634L266.464996,122.341646L267.392713,122.385140L268.266413,121.219761L269.247008,122.526358L270.163325,122.316584L271.082246,122.123136L272.005855,122.064285L272.929653,121.982877L273.859512,122.600139L274.777349,120.104294L275.720329,118.697666L276.667630,118.486929Z" />
<line x1="50" y1="575" x2="100" y2="575" fill="none" stroke="blue" stroke-width="1.0" stroke-linejoin="round" stroke-miterlimit="10" />
<text x="125" y="578" style="text-anchor:start;fill:black">n1_4mer:GRV/n1_4mer:RV</text>
<path style="stroke:green;stroke-width:1.0" d="M276.163291,178.788610L276.654920,183.761237L277.206615,183.768675L277.724480,184.897256L278.332017,183.183970L278.841548,184.280787L279.317664,185.799248L280.152461,180.400172L280.924205,177.130741L281.705542,174.319559L282.283113,174.788656L282.684637,177.427427L283.100367,179.527022L283.825906,177.945126L284.526269,176.828144L285.952790,168.809876L286.998098,165.184996L287.371949,167.771799L287.383863,173.083934L287.492397,177.135718L288.850110,171.486096L288.527447,178.346912L288.880031,180.014865L289.333499,180.892004L289.497028,183.536699L290.157825,182.969800L290.872393,182.136164L290.721238,186.254773L290.452882,190.738836L291.873670,186.026845L292.493545,185.710629L293.331945,184.339907L293.976574,183.987948L295.103007,181.420608L296.134924,179.434443L297.851256,174.557799L300.060424,167.846587L299.360972,173.605799L298.372704,180.244905L298.884878,180.626128L298.574980,184.163136L299.648593,182.334162L298.203853,189.841564L299.144023,188.457399L299.757523,188.287238L300.797925,186.669718L302.798178,181.916008L302.551676,184.735469L302.550836,186.654733L304.435579,182.580797L303.510954,187.320628L304.834424,185.102449L303.080086,192.069252L303.419180,192.709006L303.465957,194.160912L304.970261,191.503729L305.975105,190.317930L306.051635,191.673753L307.408653,189.613516L308.548880,188.194968L308.443398,189.999805L309.975556,187.659250L310.421449,188.072372L310.375349,189.665540L310.452840,190.919243L311.958830,188.806970L313.489928,186.713802L314.095083,186.785466L313.799598,188.861908L313.101411,191.759606L315.354550,188.227306L317.240977,185.588785L317.907228,185.582286L318.834891,185.047468L319.447446,185.173657L315.690254,194.002482L316.184988,194.238651L318.524305,190.911482L317.652961,193.801263L320.358821,189.903786L321.926383,188.230854L319.933680,193.102692L322.127523,190.322191L320.974807,193.556089L322.139852,192.659144L322.241229,193.627052L323.359826,192.848206L321.372049,197.303335L322.873810,195.878089L325.413262,192.807193L327.881929,189.940511L327.399323,191.842283L324.485827,197.508727L324.651939,198.275209L329.061529,192.558357L329.160448,193.486516L325.803493,199.532732L325.132275,201.493092L325.814157,201.452502L327.615656,199.821046L331.687658,195.036360L331.456042,196.374969L332.236821,196.296350L333.259255,195.900290L332.941151,197.320159L328.004639,204.827647L326.580098,207.565206L331.105931,202.560039L333.393636,200.540613L332.559899,202.510598L333.466903,202.275573L334.023181,202.485834L335.012769,202.173845L336.686674,201.058009L338.135695,200.244599L334.897807,204.942071L333.898151,206.948624L335.715419,205.700129L339.520188,202.249543L338.674117,204.072050L338.235737,205.411361L338.064558,206.437206L340.056856,205.123853L342.964992,202.879550L339.897078,206.963909L342.319748,205.273036L338.053380,210.477239L339.773899,209.513411L343.786095,206.292928L346.681668,204.261269L348.475940,203.362264L350.161618,202.599969L344.408652,208.945898L342.399525,211.630042L344.451193,210.487664L345.735697,210.086733L350.222339,206.802578L346.121003,211.300061L343.890714,214.044233L343.387287,215.222931L347.165231,212.686275L349.280999,211.639228L345.389921,215.689723L344.982092,216.753202L343.140603,218.979775L348.453388,215.352577L348.779624,215.824264L345.623022,219.054336L346.246895,219.257859L348.285422,218.373900L348.892480,218.615006L348.003973,219.988181L347.832269,220.804825L347.759200,221.539614L347.127893,222.672018L345.249289,224.680373L349.723284,222.156280L352.392836,220.967341L354.120236,220.469878L359.173177,217.734897L360.769810,217.404142L361.801462,217.469748L360.439003,219.113274L362.800381,218.323653L363.555881,218.591530L356.446170,223.809856L355.310553,225.198415L356.553300,225.107902L352.929277,227.970098L357.077815,226.140997L358.873088,225.756642L358.615728,226.585145L357.332452,227.990536L357.773887,228.399811L355.642958,230.239412L352.745954,232.460194L351.976426,233.483996L354.769529,232.598135L359.380970,230.799125L358.747014,231.774442L354.422883,234.612545L355.604895,234.622957L358.016675,234.040806L361.890009,232.781040L365.322931,231.786064L361.738845,234.143437L361.911257,234.702455L365.270990,233.805932L364.529132,234.796688L366.669182,234.499885L363.656725,236.469753L365.866792,236.160695L365.018225,237.165426L359.208397,240.204837L360.661359,240.209296L367.145300,238.223313L371.475295,237.169721L376.350945,235.963181L362.337378,241.965686L366.756776,240.926786L364.931336,242.221969L362.722719,243.626473L367.375654,242.590963L373.642383,241.060732L373.677192,241.714602L374.677000,242.047206L370.626865,244.026236L368.749094,245.259502L363.955373,247.371058L367.890022,246.763622L358.858370,250.061874L361.610836,249.812274L363.273219,249.906652L359.851966,251.432731L362.593075,251.240888L360.282243,252.420337L362.172613,252.482928L364.525349,252.451693L361.307173,253.816313L361.878628,254.232142L360.843236,255.027523L365.081606,254.614726L368.070258,254.529115L365.420933,255.684210L372.044054,254.882089L376.188151,254.660269L369.698128,256.559780L365.299603,257.982279L368.509750,257.962075L364.952247,259.171560L368.512643,259.127323L372.135263,259.116009L368.890224,260.228919L368.345351,260.892428L361.474017,262.465192L363.704880,262.688920L365.117261,263.047781L368.348207,263.193116L364.746304,264.199561L366.543942,264.544310L371.895150,264.526186L375.416556,264.759356L366.056493,266.269824L363.171130,267.084136L367.590639,267.251372L373.835678,267.330188L369.629633,268.231893L375.607769,268.415449L376.165858,268.992953L371.280786,269.866979L367.861526,270.612128L376.575601,270.815697L379.371945,271.332454L379.290589,271.966501L379.120686,272.601382L382.940946,273.166245L382.975474,273.818602L379.371571,274.489101L381.808480,275.122937L376.447319,275.730125L372.273141,276.288255L368.104546,276.796104L374.189942,277.513498L370.264982,277.990472L372.145816,278.637550L365.630085,278.942418L370.364309,279.726176L380.247972,280.854089L382.603711,281.637927L383.876010,282.377433L382.105800,282.908288L378.264145,283.252657L374.236680,283.534902L367.974076,283.562861L365.340553,283.871456L368.575769,284.760712L371.853941,285.694979L370.777692,286.162663L370.792544,286.751839L374.332890,287.796230L370.706412,287.917766L368.197957,288.153405L367.169603,288.577114L371.163988,289.760066L372.281895,290.534237L370.698495,290.875318L368.496730,291.091493L367.663769,291.525578L372.136080,292.929787L370.398969,293.206247L365.773650,292.893002L365.227952,293.352829L360.646096,292.960763L356.511340,292.608814L365.012569,295.015688L365.819030,295.772038L363.217604,295.739088L364.960039,296.723495L366.430584,297.664483L367.700028,298.574962L366.543352,298.870981L358.486656,297.310041L359.318571,298.079434L365.740483,300.427921L359.061842,299.105468L358.723520,299.557223L359.892214,300.458425L359.777244,300.983624L357.957126,300.975467L356.277450,300.990136L359.819563,302.689154L364.802824,304.917928L360.224549,303.966286L358.919185,304.089771L362.448159,305.906544L359.342434,305.383759L357.638139,305.335503L355.632054,305.153520L361.350613,307.888497L359.783682,307.880017L358.476167,307.954919L357.874473,308.297920L362.396480,310.730003L357.493167,309.308959L354.666419,308.699718L358.975136,311.122450L355.110838,310.035668L357.080673,311.489904L361.255451,313.972103L360.606335,314.303764L359.994766,314.646914L358.708456,314.664867L365.066716,318.346428L371.234850,322.033663L363.739155,319.036875L358.594927,317.115827L350.765665,313.747487L349.082517,313.453509L352.382917,315.762408L352.056603,316.187580L354.338310,318.025904L356.247925,319.699294L359.320117,322.055812L357.780675,321.855296L366.772229,327.679807L367.656518,328.934803L361.612270,326.120053L355.914624,323.419199L353.012759,322.325616L355.933059,324.769049L354.365275,324.468722L355.697808,325.979313L352.427054,324.570536L350.651166,324.080945L353.988281,326.927250L353.835064,327.511882L351.999272,326.963875L349.998199,326.276088L348.621215,325.990540L344.483227,323.748777L351.400423,329.294042L347.945587,327.505487L351.696780,330.912592L347.799519,328.748507L350.068565,331.128177L347.127405,329.612056L349.340695,331.998267L344.634850,329.061840L344.762970,329.840513L346.508248,331.915318L347.013814,333.032372L346.346544,333.209624L345.856138,333.526614L341.630703,330.717541L341.793756,331.543597L343.744056,333.911756L342.279495,333.365851L344.252130,335.814813L342.382500,334.898391L344.141503,337.214426L345.718299,339.411230L343.409090,338.068881L344.615301,339.963940L344.723218,340.857770L345.490336,342.393418L347.093736,344.765529L346.395235,344.930390L345.727468,345.119190L341.579488,341.809886L339.394136,340.403098L340.592515,342.430905L338.128959,340.688266L334.752676,337.932288L340.071674,344.369478L333.097628,337.690137L336.424802,342.089381L335.577615,341.972581L335.278854,342.457635L337.636865,345.955260L335.358055,344.212780L331.794924,340.927385L335.043854,345.556943L334.313612,345.558749L334.513758,346.672149L336.631408,350.142176L334.754718,348.759069L334.003327,348.738627L331.699471,346.744317L333.907557,350.471844L335.252735,353.165040L336.295457,355.519895L331.233435,349.804350L330.843269,350.227999L334.349184,355.969216L334.981139,357.877648L332.405313,355.336761L331.159125,354.605866L326.207784,348.527065L327.159030,350.866891L324.598987,348.085835L324.842235,349.408526L323.104234,347.761481L323.584715,349.462964L324.952185,352.579702L326.765274,356.473582L328.416020,360.205457L324.452740,354.953595L325.252605,357.355648L323.670229,355.857833L319.670614,350.238929L320.708990,353.059133L323.640448,359.229057L324.159532,361.328997L322.153880,358.983659L318.888048,354.286157L319.398066,356.364669L318.351526,355.601942L319.107353,358.209267L318.727031,358.710960L319.947362,362.329712L319.372574,362.509189L319.758832,364.610039L320.414852,367.315448L318.018229,363.795165L319.014421,367.269046L316.984622,364.400857L315.375097,362.342153L314.000785,360.726176L314.561815,363.372984L313.659700,362.777065L312.262750,361.011297L312.001077,361.842956L310.499806,359.736481L309.257692,358.179140L311.063664,364.090004L310.840645,365.101502L310.779391,366.555424L310.027862,366.255956L311.462583,371.737957L309.827425,369.120067L306.783618,362.516384L307.729867,366.848851L304.801954,360.259093L304.390330,360.742261L304.084593,361.552820L303.805896,362.471427L303.669323,363.861478L302.336440,361.516753L301.670160,361.219103L303.630052,369.576681L304.009133,372.960854L302.503225,369.981053L301.353986,368.115776L299.595000,363.949672L299.371471,365.262281L299.312151,367.255366L296.876588,360.097948L298.418338,368.434238L296.836953,364.413744L295.892161,362.846239L296.268083,366.891554L295.707475,366.997797L294.256544,363.032765L293.914949,364.046741L294.491284,369.569569L292.940597,364.788186L291.912080,362.387206L290.598266,358.295038L291.099411,363.940013L290.996790,366.526883L291.435164,372.507503L290.901003,372.947954L290.057580,371.435130L288.583491,365.584100L287.668441,363.111072L286.900458,361.478077L286.513772,362.585826L285.841814,361.518978L285.601755,363.959497L285.232644,365.516249L284.730241,365.997664L283.844218,362.725227L283.337242,363.025909L282.669533,361.547242L283.115041,373.332576L282.979828,379.390208L282.154689,376.681451L281.018533,368.614842L280.350011,366.890301L279.565105,362.525684L278.986498,361.481100L278.734387,368.267412L278.263090,371.014728L277.834170,376.461202L277.197152,375.400784L276.536707,372.040758L275.913863,368.358852L275.359664,371.103376L274.795056,363.970303L274.230838,367.118950L273.737874,362.669459L273.204478,362.825397L272.620235,364.824355L272.085751,364.545829L271.407829,368.065277L270.950109,365.693190L270.198676,369.673439L269.661675,369.020982L269.095986,368.944712L268.117160,374.870224L267.543574,374.425487L266.876865,375.189251L266.292980,374.889325L266.374441,367.487539L265.648725,369.111386L265.266078,367.288015L265.396058,361.064154L264.468321,364.466880L264.469609,360.025277L263.690904,361.997401L261.998226,370.498383L261.127454,372.481379L261.235787,367.698608L260.339546,369.786373L259.364419,372.197011L258.328210,374.787246L258.743620,368.807856L258.486652,366.981728L258.084036,366.055579L257.552205,365.855962L256.416512,368.707267L254.779554,373.826443L253.074811,378.953928L253.783895,372.664029L254.305697,367.560783L255.634488,359.222733L254.383315,362.245466L254.110979,361.069505L252.812787,364.065566L251.428338,367.241858L251.610779,364.274310L250.344363,366.839633L249.173004,368.931262L247.581805,372.410621L248.645219,366.507610L249.130205,362.823606L245.731643,372.189358L243.788940,376.415568L244.599260,371.699038L244.754543,369.210458L244.181550,369.037950L242.192113,373.100256L240.732425,375.441910L240.560094,373.984644L241.408180,369.698458L240.759920,369.704769L242.779851,362.460451L243.940934,357.762670L242.007468,361.324522L242.710505,357.977166L242.580709,356.843108L241.546404,357.985337L242.590137,354.015233L239.092020,361.058026L239.489141,358.679059L237.542166,361.803809L236.560247,362.619249L233.941918,367.070359L232.938372,367.808166L230.248187,372.177050L227.702977,376.090735L227.816342,374.280206L228.076902,372.211571L231.157378,364.444259L228.373286,368.686648L224.785628,374.384354L225.326217,371.855093L225.748821,369.617895L231.313166,357.703319L228.116378,362.470519L226.586664,364.027556L227.500024,361.103481L225.410288,363.620484L224.189599,364.527427L226.611814,359.071335L228.393404,354.855307L227.346235,355.527202L225.040499,358.270707L224.265008,358.415915L224.119528,357.527113L220.251972,362.610052L223.880118,355.714152L223.571536,355.125547L222.178043,356.212249L219.981662,358.480478L223.561739,352.030693L220.896568,354.970708L221.206751,353.485587L220.849181,352.991903L220.510231,352.475981L219.981368,352.231377L223.285434,346.672404L221.053519,348.820933L220.381391,348.799875L220.197875,348.119170L220.607047,346.666254L222.521178,343.283028L220.212748,345.401570L215.918404,349.980058L219.056391,345.121383L217.174805,346.587695L216.268394,346.817189L213.547146,349.224445L212.239640,349.877437L213.942272,346.957867L214.438515,345.504506L213.977223,345.178623L212.269383,346.267899L208.759574,349.344220L204.986258,352.629087L208.116806,348.262528L210.733982,344.546584L213.379066,340.880554L213.459502,340.002309L209.884722,342.950550L207.345701,344.751006L210.744556,340.450347L212.696894,337.698887L209.606390,340.018054L211.674364,337.205153L207.870485,340.148937L202.298202,344.708235L201.069277,345.033580L201.507024,343.780638L204.100184,340.554159L203.148427,340.632840L200.428889,342.294493L198.973629,342.778289L197.633810,343.137724L202.793547,337.822374L205.589048,334.656710L198.974704,339.546488L195.116195,341.995535L192.853208,343.051693L193.793966,341.448564L194.408425,340.136262L193.238104,340.268871L193.763101,339.049487L195.660131,336.779627L198.599018,333.752680L200.431238,331.629555L199.656439,331.502995L195.118768,334.154785L196.646686,332.293065L197.194694,331.173601L201.765002,327.203292L200.792524,327.222767L199.350986,327.556240L196.732444,328.676769L193.792487,329.974094L190.883389,331.204819L191.082636,330.340753L197.736671,325.285004L199.405097,323.551055L194.007095,326.328938L192.060441,326.862449L190.162119,327.338673L190.617989,326.355705L191.888879,324.896135L196.359946,321.567421L197.093082,320.499363L196.386271,320.276982L187.553562,324.662476L181.315338,327.458735L183.651469,325.427601L183.701735,324.682041L184.619984,323.476423L187.103614,321.462202L180.798207,324.068885L177.627754,324.974245L186.003210,319.998013L192.622482,316.027740L190.341253,316.527001L189.634009,316.235502L191.298976,314.808929L193.292584,313.256737L186.753459,315.669790L179.329827,318.391755L180.782891,317.047766L185.704543,314.205632L190.913596,311.313785L193.015475,309.819465L189.409606,310.741646L189.575195,310.067480L189.569017,309.467951L189.279492,308.983596L188.388775,308.732210L185.412930,309.268863L187.110844,308.011649L182.556833,309.085840L183.742603,308.023257L184.794083,307.027299L178.849512,308.484691L182.172521,306.699460L181.524631,306.290947L180.656930,305.948373L184.552863,304.065854L185.744539,303.088685L189.240061,301.419868L185.074797,302.108868L187.813586,300.709242L185.567632,300.784841L183.064863,300.905431L184.817218,299.824114L186.092404,298.895793L179.459208,300.060239L181.898981,298.819623L184.087120,297.675057L186.400865,296.529834L185.237636,296.238593L174.448104,298.150436L173.272411,297.774371L177.002633,296.317913L181.716447,294.702582L186.350587,293.164624L182.802132,293.311600L182.946855,292.705040L176.977780,293.239247L180.734127,291.951289L179.544045,291.570150L179.470675,290.988532L187.752483,289.060695L186.291845,288.746363L187.194991,288.063299L183.783683,288.007624L179.811738,287.987323L180.503658,287.311435L177.513526,287.102064L173.609689,286.964701L165.835296,287.213402L167.073555,286.414617L165.539636,285.908073L174.754485,284.378046L178.691686,283.422671L178.262534,282.871163L183.302528,281.903276L178.681544,281.665780L178.051135,281.120691L175.740608,280.664274L179.181460,279.886913L179.445658,279.294390L183.451117,278.559902L176.360871,278.238472L181.250918,277.510616L181.165455,276.945263L172.747754,276.501360L169.059554,275.914913L176.875683,275.254136L181.328003,274.676266L185.965704,274.153973L185.171929,273.603246L178.998822,272.926639L172.424334,272.164102L170.042876,271.463097L172.673526,270.932248L177.697525,270.542601L181.859319,270.168782L176.561740,269.297046L171.909831,268.401944L175.032133,267.994660L171.253756,267.099286L172.278655,266.552391L179.711726,266.583372L176.107961,265.662167L177.278934,265.176303L183.810005,265.275610L177.817381,264.041930L178.945429,263.580592L179.970381,263.119351L173.584232,261.697734L177.745671,261.644978L183.853687,261.921803L182.065953,261.091341L187.475731,261.359460L184.616020,260.353512L179.776972,258.977938L181.081579,258.612945L182.174480,258.224714L179.920833,257.223163L187.391680,258.071159L187.470707,257.536823L186.366352,256.758605L184.427051,255.787971L183.948922,255.110547L186.567121,255.121552L189.862761,255.320877L190.795209,254.999353L179.732031,251.762220L183.198648,252.018873L182.543295,251.259887L183.548783,250.927778L180.693995,249.565673L183.295312,249.671498L182.965045,248.980383L183.412956,248.507993L180.150493,246.941777L181.627480,246.763662L180.832616,245.900748L179.826670,244.958347L176.458022,243.238623L181.907026,244.372382L185.639845,245.000533L181.727117,243.058210L185.389244,243.705741L189.470999,244.549785L189.967260,244.145940L187.608527,242.690825L190.433765,243.152857L186.494715,241.057043L185.446748,240.032612L188.316952,240.547904L180.044517,236.593639L185.997745,238.373846L184.724236,237.209939L186.337990,237.253882L190.428048,238.389585L190.379534,237.759498L187.884001,236.030847L190.377121,236.530407L188.588461,235.085127L186.986824,233.697828L184.626452,231.921545L184.732230,231.300264L186.275399,231.383235L191.433824,233.289887L191.434357,232.657133L189.830983,231.195569L194.622428,233.043488L198.033171,234.229858L191.083487,229.896725L192.938311,230.252092L197.143193,231.932283L196.514682,230.962808L196.075482,230.086836L199.100165,231.198481L195.933329,228.731434L193.117908,226.416944L192.883165,225.603985L195.606471,226.586053L187.562689,220.953066L189.890528,221.678106L193.990787,223.562333L195.671168,223.953718L197.368643,224.379705L196.774863,223.315815L194.054436,220.812539L193.927775,220.015037L199.348602,223.021028L202.702962,224.679612L199.082497,221.475445L204.288835,224.503327L202.388437,222.480432L202.310891,221.752006L203.957555,222.295307L203.271640,221.111058L199.145279,217.290199L198.230466,215.858023L196.521956,213.782197L202.391770,217.651557L206.845404,220.496852L201.757160,215.698236L195.610788,209.923212L196.416418,209.785276L200.496575,212.406797L203.135138,213.878591L207.110994,216.549052L207.577394,216.237082L208.286494,216.141601L209.332338,216.354451L208.541134,214.921647L210.821296,216.273901L206.845239,211.874349L205.071075,209.441184L204.033731,207.657895L206.406596,209.116873L207.969456,209.834287L208.717936,209.777836L210.827256,211.085184L211.948729,211.438187L209.241675,207.902679L212.677704,210.634794L212.464780,209.628607L212.520725,208.891516L212.733640,208.313728L210.874661,205.484963L209.858039,203.520554L209.682004,202.451173L212.497902,204.729013L211.453163,202.678601L210.922477,201.179273L212.406741,202.002329L210.166083,198.457533L211.728233,199.379482L209.498766,195.746176L212.438285,198.363997L215.473954,201.175938L219.085476,204.790428L216.462618,200.578102L214.899653,197.632953L216.523637,198.776705L217.967836,199.721117L218.715832,199.767746L222.647734,204.134104L222.507964,203.038596L220.683725,199.584262L220.963927,199.008687L220.093004,196.786919L218.100890,192.898118L220.643308,195.544858L221.755268,196.151491L222.679332,196.500742L224.728621,198.578214L224.868660,197.778253L226.191059,198.810591L225.025175,195.942408L228.382468,200.256738L228.810792,199.936573L228.764292,198.833077L226.035341,193.227009L228.342292,195.999945L229.432682,196.769828L226.471544,190.515795L226.713906,189.748461L225.627503,186.588094L230.073141,193.393796L232.624192,196.913824L232.877297,196.248169L231.319625,192.135215L233.313217,194.744653L233.050413,193.030970L231.765601,189.245977L232.399784,189.217585L230.101424,183.200378L231.436614,184.548790L232.439835,185.247770L236.943174,193.475014L237.392549,193.150186L237.303425,191.631274L236.836998,189.222042L235.897308,185.659417L236.126621,184.700944L236.531250,184.132093L238.492650,187.291837L235.754350,179.082601L235.875077,177.703391L238.542127,182.728094L240.576722,186.312263L241.172396,186.260134L239.826662,181.026748L239.558365,178.537466L242.942602,186.091575L243.955393,187.241214L242.134353,180.275720L244.492180,185.324262L243.160181,179.519562L245.334010,184.212993L246.553660,186.129157L244.646279,178.157447L245.710693,179.534849L245.003437,175.079194L247.160745,180.187531L248.082794,181.234288L248.610140,180.930512L248.490858,178.260134L248.851792,177.262743L251.703087,185.762848L250.877962,180.262402L251.734848,181.261240L252.633518,182.493392L255.383873,191.666268L255.858745,191.421190L255.378360,186.878632L255.606073,185.349776L256.012629,184.587444L256.938403,186.333862L256.678991,182.195115L257.405835,182.951475L258.372375,185.062809L259.200989,186.556879L258.891083,181.562151L259.813930,183.618518L259.423847,177.634718L260.869770,183.115001L260.316527,175.517415L260.601498,173.190695L261.707318,176.728224L261.923090,173.717231L263.625030,182.498652L263.591640,177.357410L264.559761,180.700584L265.254791,181.831485L265.446242,177.997042L266.705124,185.217255L267.174892,184.320452L267.855358,185.921571L268.541849,187.873949L268.474567,179.105006L269.455106,185.531826L269.656088,179.417993L270.600171,186.732098L270.989188,183.401921L271.621956,185.470467L272.123204,184.185736L272.753811,187.350233L273.299613,188.147186L273.812600,187.240532L274.357029,189.081824L274.863221,179.844924L275.447855,177.821026L276.050593,176.398041Z" />
<line x1="50" y1="625" x2="100" y2="625" fill="none" stroke="green" stroke-width="1.0" stroke-linejoin="round" stroke-miterlimit="10" />
<text x="125" y="628" style="text-anchor:start;fill:black">n0_4mer:PS</text>
<path style="stroke:red;stroke-width:1.0" d="M276.509839,150.126939L277.183719,154.607639L277.960678,152.592352L278.591849,156.212030L279.515104,150.583199L280.214506,151.857989L280.959497,151.879796L281.759162,150.900946L282.583189,149.723947L283.589731,146.029390L284.133909,149.322795L284.755731,151.130549L285.348941,153.024750L286.136672,152.534583L287.580613,145.351957L288.764441,141.550187L289.397905,143.220286L290.058386,144.488338L290.662144,146.104514L291.395626,146.558187L293.043600,140.144508L293.096993,145.697680L293.439150,148.815470L293.701879,152.210974L295.151183,147.864032L295.704261,149.294813L296.307410,150.337769L296.082404,155.991388L295.893611,161.071733L297.257498,157.638467L299.127912,151.847939L301.060803,146.117066L302.326322,143.942380L302.145362,148.638482L302.675935,149.858022L303.416077,150.097748L304.646935,148.235575L305.257422,149.063842L306.565004,147.032564L306.829438,149.235601L306.859176,152.243262L306.980040,154.771751L306.665099,158.788684L307.769671,157.539355L308.500615,157.664722L309.968696,155.269640L311.823571,151.693898L311.564312,155.208358L311.158689,159.052554L312.153625,158.348363L312.189304,160.632208L312.936704,160.688532L314.011468,159.784889L314.677997,160.107811L315.823672,159.066837L314.313294,165.474312L315.913379,163.147929L317.390255,161.246864L318.124000,161.381986L320.039235,158.464596L318.535960,164.348412L321.081958,159.924410L321.645709,160.526963L322.619190,160.130239L323.815671,159.227651L325.428584,157.393667L326.948088,155.844174L326.140459,159.606159L325.030903,163.927548L323.998215,167.953288L325.420230,166.583498L326.955275,165.026592L327.652915,165.272490L328.879706,164.434742L330.123846,163.597119L329.758101,165.999199L332.136505,162.958660L332.071929,164.737610L331.372143,167.683961L332.338429,167.429232L334.119365,165.685442L334.404501,166.727793L334.486886,168.115129L334.410356,169.755149L336.757373,167.126200L336.548030,168.983608L336.944695,169.770759L335.485438,173.656263L337.837226,171.147782L340.995310,167.402525L341.382044,168.225857L342.176515,168.390883L342.519914,169.268634L340.354976,174.010049L343.366286,170.744183L344.791210,169.961641L344.514833,171.737524L345.826613,171.149829L344.658218,174.177948L347.063409,172.033466L346.981148,173.463355L348.586257,172.518112L349.652087,172.349440L349.958635,173.227222L352.270712,171.405637L349.670516,176.144393L349.626117,177.435300L351.036498,176.827118L350.863237,178.264628L351.148616,179.100464L352.185063,178.992872L353.925354,178.034603L355.622852,177.163284L356.489262,177.321233L357.522948,177.289250L354.654460,181.834210L354.251635,183.432051L356.462223,182.019969L358.704648,180.617890L359.493901,180.880451L357.667743,184.027142L360.216080,182.354421L366.196934,177.047368L361.642406,183.060178L361.853414,183.945564L362.073543,184.812885L360.925305,187.072312L364.295393,184.722113L365.967258,184.137248L368.276363,182.950642L367.033544,185.268930L368.390001,185.041333L362.842358,191.403100L363.271960,192.005492L363.776515,192.536616L364.397073,192.961420L373.694349,185.522589L369.828103,190.066658L369.868680,191.058452L370.018045,191.945086L368.232705,194.494788L369.953165,194.006125L370.486935,194.543075L369.198512,196.597633L366.236396,199.992102L372.739828,195.630906L372.661664,196.669419L372.452418,197.800808L374.668218,197.021586L373.639539,198.783309L372.369368,200.700541L372.386108,201.615131L373.332758,201.829671L374.724595,201.726581L372.115095,204.544082L369.728588,207.145829L374.931495,204.329231L378.909089,202.454727L381.087396,201.883957L385.550310,199.789878L385.868693,200.549823L385.412768,201.820652L381.716223,205.195577L385.826403,203.460041L391.467366,200.812427L397.128985,198.240093L399.683794,197.682010L394.506042,201.889443L388.281797,206.635041L386.427589,208.669763L385.741463,209.981748L383.534613,212.156709L383.178877,213.232969L382.537388,214.458412L380.554347,216.412433L381.684604,216.626000L382.130508,217.220874L383.414377,217.371833L382.932785,218.462092L389.997571,215.644640L388.084363,217.495294L395.233882,214.771789L389.061592,218.723704L393.156212,217.589114L396.117274,217.052875L395.316207,218.327505L392.607004,220.469969L391.048416,222.042717L390.256840,223.243588L390.912946,223.788813L390.599461,224.760429L391.319836,225.281269L388.558055,227.271658L390.356375,227.334399L395.055961,226.240192L393.339557,227.768759L394.710747,228.058543L395.109787,228.737935L385.865266,233.066545L388.610803,232.811452L391.250792,232.629096L388.260681,234.492967L394.168930,233.190820L398.623698,232.465568L399.980068,232.842220L401.706158,233.111480L402.031202,233.854298L397.976898,235.987418L396.516707,237.257726L395.085843,238.496733L396.895268,238.750315L395.903941,239.839327L390.569691,242.147109L389.455634,243.210440L396.145862,242.139890L396.579806,242.810051L395.455245,243.885876L396.013031,244.521046L393.879024,245.821706L390.300160,247.438131L394.765904,247.135000L395.931546,247.633451L396.469326,248.282714L397.982246,248.728438L398.256179,249.448132L397.932577,250.289443L394.515528,251.727179L394.707044,252.440198L397.983253,252.591862L394.611097,253.952643L397.518591,254.203902L403.123850,254.048617L398.619374,255.551844L397.857840,256.432114L397.582404,257.231115L396.880419,258.084588L400.027667,258.417627L396.832313,259.590384L398.166607,260.177624L398.676654,260.874273L396.948781,261.818031L397.050094,262.553133L395.357583,263.460539L397.537817,263.998750L399.674068,264.566407L401.706300,265.167381L400.317064,266.037064L401.720262,266.706446L400.416279,267.553006L404.952614,268.071831L414.760155,268.396084L420.832336,268.992586L422.668467,269.811049L422.403657,270.712472L416.065079,271.750297L410.450490,272.698899L408.047299,273.544283L407.616259,274.350844L411.218944,275.156788L410.286772,275.973670L401.381087,276.673752L398.882444,277.389849L402.166259,278.222425L398.598940,278.879905L400.890500,279.713872L400.596301,280.463452L401.105576,281.249688L403.267136,282.134458L401.983668,282.833450L403.452471,283.703933L402.805903,284.436706L401.772923,285.131430L398.873626,285.653816L394.934537,286.045904L392.080698,286.497343L397.158190,287.742091L400.747686,288.885535L402.060087,289.808552L402.093129,290.591798L400.683163,291.190717L402.661328,292.230812L403.195604,293.092764L398.406666,293.178514L396.950067,293.717933L396.177881,294.350013L396.064589,295.083272L404.586123,297.302751L407.345283,298.602346L406.404685,299.255231L405.667062,299.936924L394.014843,298.459813L395.009952,299.410642L393.851493,299.924236L394.916862,300.905521L395.413150,301.775727L394.629903,302.361632L397.221286,303.733017L394.802873,303.929924L394.067443,304.515311L392.783463,304.954044L394.101920,306.057194L390.097115,305.757267L394.104901,307.601047L395.757704,308.839553L393.223926,308.901745L392.884554,309.577108L394.245960,310.760809L392.532319,311.022822L392.421026,311.766774L391.500301,312.253367L389.586878,312.406627L389.654236,313.197209L388.626948,313.619748L384.524578,312.965632L390.388878,315.781550L392.271126,317.246085L389.606079,317.070564L385.914850,316.478209L386.574783,317.495667L386.382857,318.195462L385.512165,318.628254L386.452890,319.780368L388.226730,321.290095L386.644640,321.433074L385.534085,321.757059L386.003470,322.748863L385.696286,323.411906L383.414030,323.196699L383.781375,324.149808L386.673282,326.271676L382.896748,325.329841L385.850226,327.525869L391.550784,331.092421L391.559446,331.967073L391.615454,332.870510L383.889458,329.859425L375.718935,326.508894L380.032537,329.518525L380.061501,330.342444L381.918038,332.148836L379.611134,331.731592L384.762898,335.387069L385.353320,336.583940L383.930833,336.656738L386.492193,338.999613L384.642869,338.822456L382.381837,338.378609L383.014753,339.635878L380.326881,338.895439L379.540527,339.286247L380.050004,340.478125L379.181087,340.814431L376.898978,340.238010L381.087085,343.827152L380.128273,344.111797L375.694016,342.072087L377.591245,344.234923L374.400789,342.960079L374.111238,343.645099L372.909578,343.692436L372.971137,344.623293L374.688214,346.754555L374.930441,347.850125L374.073604,348.146889L373.332021,348.522081L371.242386,347.870979L373.153862,350.256225L373.014188,351.094475L371.082587,350.530303L370.811711,351.259091L370.073632,351.615140L371.632945,353.840083L372.374148,355.430282L370.240490,354.641452L368.993497,354.569271L366.927365,353.779211L366.743594,354.588781L366.265232,355.145954L365.532698,355.477319L364.879677,355.874906L366.931841,358.732824L366.111133,358.998737L367.494124,361.314110L366.334608,361.271027L364.096256,360.181908L365.129761,362.219096L365.033141,363.185895L364.396205,363.627369L359.531803,359.824324L362.775716,364.151033L360.848008,363.254108L357.460453,360.803477L354.283181,358.502067L356.662888,362.056496L353.996766,360.241311L354.754542,362.109485L355.367965,363.852129L355.707666,365.319373L354.307551,364.839873L354.660856,366.347364L352.206440,364.621013L355.286351,369.343703L354.348199,369.391649L353.186570,369.159731L354.348634,371.743352L355.165415,373.953297L353.809469,373.491091L351.652136,371.991295L353.387019,375.428759L351.585836,374.353746L353.252138,377.794795L350.180861,375.009102L349.510553,375.375209L349.366378,376.456953L349.823103,378.385213L348.956305,378.499306L346.671230,376.594359L343.346949,373.136457L342.199045,372.743050L343.460844,375.879439L340.985583,373.508623L342.764771,377.499609L341.836047,377.435718L340.316956,376.442410L340.473653,378.049258L343.194460,383.778980L340.792511,381.371209L341.309243,383.669803L342.366034,386.917936L338.473129,381.908095L338.873234,384.078963L338.665054,385.246670L337.825374,385.327566L336.508883,384.550710L334.217465,381.979587L333.833645,382.819564L332.797533,382.460884L337.703311,393.290857L339.888876,399.223164L338.755493,398.872651L335.200710,393.724582L330.345090,385.804403L330.097369,386.997245L328.551893,385.538006L328.757172,387.693131L326.921028,385.559155L326.309475,385.996141L325.307448,385.578932L325.698088,388.249137L325.290213,389.184208L322.648099,384.983154L323.898818,389.767413L322.382108,388.099014L321.170341,387.103563L321.552942,390.002230L320.409425,389.156914L321.098992,392.962118L320.608271,393.820453L320.140550,394.761250L318.565170,392.733561L317.060990,390.815189L316.265479,390.802086L314.801408,388.866091L314.903029,391.411620L313.957997,390.935077L313.959196,393.302740L312.419000,390.981381L311.767651,391.365473L311.028028,391.471153L310.850963,393.430281L311.869690,399.505145L311.227931,400.111402L309.880151,398.241028L308.557930,396.364782L307.270626,394.517622L306.608520,394.942310L304.777294,390.830979L305.198158,395.484293L303.619049,392.183763L302.972429,392.616973L302.495909,393.799697L302.223209,395.945469L300.583659,391.957656L300.065318,393.001101L299.222012,392.522543L298.676579,393.495333L297.853851,393.089210L296.873672,391.805828L296.504338,393.799130L295.989956,395.095671L295.808251,398.452408L295.192072,399.380337L294.019107,396.806427L293.234343,396.599199L292.276264,395.159229L291.327285,393.646879L291.011076,396.797035L290.071758,395.274437L289.298932,394.982569L288.241430,392.131472L288.128056,397.774184L286.909502,393.129590L286.919970,400.852907L286.133467,400.636181L285.587562,403.292910L284.800302,403.205213L283.757937,399.466592L282.901465,397.902763L282.260653,399.706955L281.376405,397.253305L280.664747,397.888185L279.866055,396.531159L279.155417,397.270993L278.531881,401.438722L277.720970,399.337108L276.957139,398.590399L276.182964,395.849781L275.458192,397.430607L274.725514,394.159521L273.986880,396.336692L273.289792,393.794000L272.523104,396.153822L271.753528,397.538266L271.130843,393.887174L270.338639,395.765644L269.541758,397.231761L268.701185,399.201267L267.967373,398.861797L267.205113,399.032301L265.924738,406.682327L265.154306,406.284465L264.299253,406.981033L263.918285,402.132472L263.547132,397.803353L262.340978,402.400603L262.057421,397.709522L261.468606,396.259373L261.077581,393.271308L260.524802,391.876730L259.380477,395.156189L258.540333,395.896706L257.512539,397.883125L256.850003,397.235793L256.067344,397.408062L255.711142,394.907238L255.167242,393.706884L254.504138,393.271895L253.284400,395.959021L252.809588,394.446980L252.199701,393.728073L249.726907,402.439611L249.426514,399.989167L249.210456,397.275998L248.941027,394.957191L248.131272,395.177544L248.371933,390.808381L247.647448,390.750238L247.237842,389.389046L245.169329,394.748506L243.658128,397.648650L244.109282,392.906775L241.540414,399.633409L241.005138,398.637310L240.193319,398.660234L237.298784,405.904072L237.268243,403.092973L237.895759,398.209421L236.365456,400.537045L237.312599,394.876535L236.797327,393.996098L236.438734,392.664008L235.479092,393.173143L234.283590,394.344130L233.444648,394.435334L232.292622,395.396064L232.445616,392.701335L233.145365,388.612921L233.017140,386.871156L233.192936,384.387628L231.145991,387.695519L231.209102,385.550943L228.325823,390.780446L229.029673,387.075639L228.862842,385.573546L227.216727,387.598215L228.058620,383.780730L224.948769,389.086352L221.319219,395.376027L217.757828,401.303743L216.233302,402.609901L218.375404,396.027110L218.848434,393.149786L218.932178,391.156889L216.957116,393.414515L217.240747,391.055160L216.761719,390.265286L216.935451,388.215602L216.891111,386.634704L215.870198,386.938321L215.188847,386.589344L214.134558,386.925802L213.337414,386.776126L210.781327,389.763521L208.861257,391.535815L207.314995,392.598308L205.608521,393.894713L211.107070,382.968780L210.520204,382.472614L210.843095,380.483546L212.027260,377.140530L208.600645,381.254986L208.078074,380.664300L209.155865,377.585162L208.291818,377.561923L207.010189,378.162367L207.266191,376.433879L206.989928,375.526221L205.973504,375.711244L206.257807,374.007448L201.748052,379.152881L201.237897,378.542174L200.490525,378.264392L199.397351,378.455462L198.555810,378.290285L199.093465,376.277512L202.029017,371.144018L203.351422,368.225834L201.541575,369.394011L200.434483,369.630599L198.529639,370.850225L198.960597,369.136917L196.226883,371.324010L195.623028,370.873686L193.913203,371.742141L194.996804,369.285515L194.998256,368.136479L194.723639,367.321012L192.337881,368.911965L192.441277,367.658884L191.577582,367.496217L191.112800,366.888380L192.962150,363.778680L194.330212,361.246183L193.653707,360.922232L190.407806,363.275536L189.203980,363.454967L190.757046,360.809548L189.610480,360.931958L188.646341,360.857729L185.803434,362.618324L186.634110,360.758757L184.551553,361.724149L182.071344,363.030067L183.658277,360.484931L184.203412,358.950767L182.675545,359.333800L179.845264,360.869577L178.437787,361.086203L179.056738,359.498868L181.779797,356.105140L181.063935,355.735337L178.353035,357.054559L176.889980,357.281174L173.565732,359.029740L173.518646,358.039275L173.983113,356.644545L173.538172,355.994930L174.301974,354.393194L175.837828,352.214673L176.170793,351.000080L180.007830,347.139649L174.894730,350.072740L175.097568,348.981169L176.475603,347.042450L173.117236,348.556959L173.957625,347.024917L176.380834,344.402248L174.560561,344.779089L172.366504,345.387203L172.240541,344.563861L172.065967,343.778195L171.126791,343.500979L172.050403,342.002302L172.912665,340.565900L169.638300,341.772567L170.288188,340.476729L168.971204,340.411894L166.438115,341.071809L165.090237,340.984820L164.476761,340.447338L167.327317,337.883228L164.757914,338.493094L165.001299,337.470331L164.991590,336.599220L164.752320,335.860596L162.302160,336.327109L159.404132,337.001252L161.976756,334.744309L160.799217,334.486182L159.194227,334.434863L165.858059,330.183682L168.900113,327.842556L163.396599,329.743954L162.182800,329.495634L163.570721,327.996726L166.410633,325.843303L165.838571,325.308742L159.653822,327.315919L159.859454,326.385600L162.392876,324.440740L163.773803,323.034450L163.512999,322.349396L161.381995,322.445681L162.072807,321.357403L161.822382,320.662597L161.882591,319.845002L159.944071,319.810482L162.915637,317.874532L158.653388,318.700426L158.857930,317.824150L149.247998,320.505798L137.653643,323.764349L135.092203,323.723302L137.113737,322.086489L144.848992,318.568144L148.152077,316.611290L152.004471,314.525520L153.230955,313.320706L153.883364,312.312125L154.916389,311.200428L151.096146,311.536360L152.253549,310.389846L155.848311,308.574495L157.207322,307.424136L151.915423,308.081579L149.115294,308.019413L151.594071,306.573046L152.422868,305.572604L155.169009,304.119262L154.003877,303.628784L150.685658,303.621353L149.058923,303.195191L143.837846,303.532434L146.147639,302.215132L137.978734,303.076213L138.352194,302.139890L140.909080,300.790375L141.957343,299.755590L147.548272,297.918910L142.464734,298.006728L134.651243,298.489862L126.490153,298.933652L123.642124,298.454668L123.544573,297.532970L124.182266,296.506902L133.494800,294.306726L135.525640,293.171386L145.372509,291.092081L148.728993,289.900781L146.729709,289.350944L147.694030,288.464252L145.891803,287.866042L150.756175,286.623107L154.186128,285.565811L153.616814,284.876492L155.208443,284.018287L150.858148,283.591315L149.959302,282.894218L150.117256,282.126480L150.130311,281.368572L147.663794,280.722726L151.990397,279.783260L143.537536,279.316111L145.969679,278.455453L143.992186,277.715894L144.068031,276.922462L146.119968,276.113022L148.955788,275.326447L147.350275,274.558838L154.293686,273.853017L154.656312,273.128753L150.596221,272.313221L143.780489,271.372189L142.619080,270.538955L146.073184,269.874813L147.519155,269.160138L148.633903,268.445375L149.202254,267.711993L147.466648,266.837512L148.958866,266.167552L148.883127,265.395669L148.023837,264.557721L149.163666,263.885121L143.995496,262.629963L143.291664,261.759633L147.276748,261.379748L147.998535,260.679631L148.735996,259.989156L146.765898,258.968111L140.722071,257.387347L141.768942,256.704633L149.195214,256.948806L150.373328,256.348171L153.128925,256.006556L156.298039,255.764658L154.596554,254.741125L153.534773,253.806529L156.678226,253.617070L152.457013,252.088286L155.921761,251.990124L156.756442,251.408947L156.836674,250.681200L155.725625,249.699921L156.916916,249.205600L156.548875,248.373879L159.806191,248.373425L157.713148,247.141574L151.270706,244.819928L151.164802,243.999667L148.876302,242.615211L157.001424,243.939857L153.558213,242.247153L155.294800,241.937858L155.629497,241.252227L150.920067,239.109264L152.506841,238.764278L154.322620,238.506530L154.076022,237.632526L153.824170,236.750605L156.133556,236.687781L159.850778,237.115869L160.223938,236.468053L157.499884,234.761467L160.183459,234.903267L159.716720,233.956604L161.977831,233.989999L161.688301,233.107955L164.175445,233.264129L165.224244,232.899534L161.104823,230.527948L158.931292,228.868601L159.267868,228.190169L157.530475,226.659013L159.449901,226.629927L157.439952,224.951107L162.792656,226.426480L166.192538,227.115076L165.548718,226.039720L166.850411,225.835155L162.389895,222.983590L162.549132,222.229889L162.091346,221.179713L162.019704,220.304851L165.428296,221.134857L164.319143,219.756224L161.464204,217.471200L158.782164,215.226431L164.919661,217.538859L167.503566,218.058004L168.440927,217.726849L169.678200,217.568447L172.984546,218.568548L169.889132,216.023523L171.018374,215.827718L172.301808,215.733246L171.079502,214.187368L169.258963,212.260729L168.027944,210.652741L167.897121,209.688970L163.258216,205.929934L165.561696,206.435861L170.803965,208.839612L166.005713,204.864678L172.690700,208.288208L169.661359,205.401633L172.698190,206.516009L175.732478,207.674587L173.805375,205.470649L176.858724,206.691432L175.613350,204.928857L179.852040,207.052379L180.628718,206.741740L177.509627,203.583981L182.331995,206.251821L178.442567,202.457174L178.320205,201.446611L172.330077,195.904793L176.013405,197.784239L178.720295,198.955023L181.343813,200.103260L179.805176,197.924603L178.984641,196.294456L178.092775,194.578903L181.452718,196.407317L182.386033,196.231378L184.525902,197.103782L181.967521,193.916515L183.326641,194.120618L181.819580,191.783745L182.982258,191.816602L184.512439,192.200236L182.508937,189.333812L184.672192,190.317101L186.594098,191.108884L188.948190,192.348288L187.911387,190.334245L187.498056,188.897278L186.313535,186.669990L188.727029,188.028455L184.875828,183.040687L187.013168,184.128981L190.790801,186.971643L190.390276,185.475584L188.389503,182.241547L191.247377,184.208017L192.827033,184.832647L192.543766,183.415697L193.095002,182.914370L191.288087,179.729127L194.238021,181.957888L192.044445,178.255360L191.484518,176.402208L194.885240,179.249241L196.286314,179.759647L197.397853,179.939973L197.695674,179.127358L197.604812,177.818040L194.418949,172.552734L195.638983,172.838733L196.819765,173.092925L197.350474,172.507490L197.038291,170.792453L202.497653,176.858234L203.441924,176.900936L203.784197,176.120017L203.914544,175.032018L203.001958,172.441327L203.643814,172.037456L203.996960,171.212288L207.392228,174.881701L206.895461,172.819429L207.689012,172.674860L206.181617,168.992943L206.917520,168.725128L208.918807,170.462965L210.994843,172.378648L212.998144,174.238979L211.808189,170.900248L210.431691,167.168272L210.326077,165.495189L211.408524,165.825875L215.343768,171.143217L215.875317,170.612384L213.846048,165.490906L217.396157,170.367023L216.449333,167.108308L217.829020,168.114186L217.797317,166.482432L219.457065,168.068804L220.554998,168.615067L220.619220,167.137494L221.472227,167.213184L219.302696,161.121300L219.662010,160.101031L220.034205,159.086383L222.497542,162.529712L223.853947,163.684428L224.658730,163.666607L225.478904,163.692759L225.400769,161.677261L226.444581,162.210512L226.984890,161.582420L225.523170,156.132924L224.879008,152.502978L222.984845,145.647716L225.018514,148.500931L226.538744,150.144978L228.865360,153.975116L230.312059,155.606408L231.330225,156.142697L233.128846,158.873970L234.335275,160.046479L234.211978,157.442115L235.434883,158.700929L235.918859,157.804472L236.361987,156.755858L237.168921,156.809756L237.102815,154.090270L237.296716,152.110452L238.638217,153.876168L240.566381,157.729029L241.375221,157.868552L242.032212,157.482783L242.493109,156.372537L243.210915,156.178171L244.651863,158.753638L244.908726,156.818651L246.697658,160.965652L247.165125,159.876403L249.192045,165.361988L248.533775,159.437276L249.368383,159.887646L249.625185,157.702571L249.049131,151.429209L249.480953,149.724518L248.674462,141.648256L249.779288,143.051174L251.138511,145.935554L252.798045,150.713094L253.852230,152.334883L255.279883,156.335093L255.726024,154.519927L256.908344,157.354940L257.042494,153.335382L257.555203,151.650871L258.486014,152.913376L259.099376,151.847112L259.924686,152.407420L259.971480,146.372962L260.579307,144.747907L261.524771,146.170849L262.113034,144.153713L263.364643,149.060286L264.585799,154.317306L265.516831,156.765128L266.268163,157.199954L266.858492,155.355865L267.567915,155.081569L268.165630,152.759439L269.149424,157.627692L269.734385,154.745008L270.443234,154.230364L271.034228,149.809106L271.915841,154.651317L272.641522,154.533025L273.351740,153.178885L274.119006,157.275545L274.826038,153.976778L275.565249,152.348135L276.349619,148.333396Z" />
<line x1="50" y1="600" x2="100" y2="600" fill="none" stroke="red" stroke-width="1.0" stroke-linejoin="round" stroke-miterlimit="10" />
<text x="125" y="603" style="text-anchor:start;fill:black">n0_4mer:D</text>
<path style="stroke:black;stroke-width:1.0" d="M277.252314,88.719704L278.385763,88.336742L279.519391,88.148159L280.636909,88.578765L281.724903,89.690680L282.847261,89.684763L284.019499,88.661717L285.159518,88.469993L286.399627,86.675496L287.566260,86.323746L288.616133,87.650036L289.678896,88.620653L290.737821,89.510043L291.836347,89.857586L293.020598,89.290833L294.263620,88.234233L295.487485,87.484180L296.649475,87.363090L297.753357,87.745616L298.715688,89.213503L299.722449,90.227662L300.783666,90.776697L301.828304,91.406017L302.898278,91.831114L303.975837,92.188344L304.978987,92.983639L306.161039,92.687625L307.687952,90.478924L308.669904,91.405418L309.916721,90.887664L310.923453,91.641939L311.900044,92.511919L313.319098,91.220792L314.479401,91.223594L315.619472,91.331369L316.476804,92.689605L317.205327,94.538375L318.155427,95.380315L319.566946,94.321495L320.848671,93.842840L322.137805,93.373107L323.511415,92.622412L324.300943,94.064914L325.558574,93.776246L327.075475,92.606624L328.366518,92.276790L329.677756,91.908008L330.615832,92.791952L331.266084,94.575628L332.120661,95.657647L332.917828,96.886044L334.218083,96.563148L335.688736,95.764000L336.730464,96.252363L337.884771,96.416594L338.473397,98.164972L339.202098,99.479480L339.768810,101.194598L341.035814,101.016650L342.438026,100.509523L343.624488,100.583066L345.226145,99.631690L346.337018,99.932126L347.485122,100.147201L348.633230,100.369767L349.180230,102.001592L349.845104,103.324190L350.557494,104.511318L351.006696,106.259289L352.561423,105.551067L353.489588,106.227137L354.978480,105.710047L356.909152,104.303140L358.125875,104.419377L359.399624,104.432053L360.070155,105.660397L360.575586,107.191288L361.439167,108.000403L362.464694,108.492857L363.928462,108.164195L365.203131,108.210059L365.873128,109.372243L367.249775,109.247412L367.555770,111.038380L368.004999,112.544859L369.224006,112.699286L369.734235,114.069163L371.134747,113.925617L372.074474,114.563264L372.526317,115.994981L373.499068,116.566289L374.115245,117.704124L375.750742,117.231528L377.164620,117.129846L376.711857,119.893538L377.211892,121.167311L378.161028,121.756975L379.261736,122.125274L382.195165,119.847645L384.314014,118.808595L385.885354,118.585061L387.543579,118.263147L388.422964,119.037436L389.430553,119.635439L390.330411,120.380222L390.750739,121.758665L392.161202,121.825776L393.115760,122.497388L393.943043,123.332341L395.091062,123.760520L395.525429,125.083684L396.311230,125.960547L397.066987,126.870371L398.272669,127.236701L398.937921,128.252126L398.726138,130.286906L398.682491,132.096299L398.514424,134.022078L398.991231,135.192305L399.291388,136.549185L400.210254,137.210650L400.347038,138.724675L400.393448,140.317639L401.771315,140.477741L402.763514,141.056679L404.786655,140.572440L406.042636,140.903577L407.888368,140.649497L409.450038,140.704422L409.182830,142.582278L410.714963,142.680322L410.387002,144.587385L410.412282,146.132252L411.407523,146.747776L411.008001,148.663885L412.312776,148.989777L412.960972,149.923025L414.087153,150.425783L415.727232,150.481963L416.750452,151.096467L416.815696,152.544016L417.001802,153.874221L417.626360,154.823576L417.879499,156.079958L419.532596,156.175861L420.927692,156.500214L422.275362,156.876223L423.751189,157.163298L424.352594,158.149527L424.571599,159.429180L424.233987,161.124306L424.111020,162.638053L423.664318,164.377484L424.703171,165.004434L426.033317,165.427015L425.971436,166.859028L426.755180,167.679927L427.134741,168.785458L427.403555,169.962593L428.738687,170.407753L429.731486,171.095226L430.752840,171.770171L430.045420,173.582841L428.176959,176.122178L426.336272,178.601574L423.709205,181.534025L423.474731,182.928950L425.980223,182.634393L429.907490,181.514158L432.854662,181.032812L436.050408,180.444486L437.452191,180.937562L436.845410,182.590921L438.152823,183.147936L439.109607,183.911543L440.381155,184.509346L442.289635,184.775012L443.406095,185.482955L441.153530,187.964600L439.554869,190.065915L439.240744,191.481682L437.417747,193.640817L439.778948,193.700515L440.065066,194.796585L439.791372,196.157519L440.909690,196.851625L441.152302,197.961305L442.115461,198.738893L442.949823,199.581653L443.105411,200.729799L443.184472,201.906963L443.416394,203.013572L444.551564,203.737640L445.418366,204.582619L444.856459,206.014101L445.653599,206.889375L446.225213,207.858484L447.852960,208.423120L449.597024,208.960774L450.696277,209.756461L450.359289,211.085324L450.624794,212.188800L451.496793,213.077936L449.870123,214.833530L449.271179,216.215539L450.050711,217.128976L450.218997,218.246160L452.155710,218.800001L453.220529,219.645899L451.410891,221.375246L452.486802,222.218290L453.919067,222.967661L454.555059,223.958047L456.269705,224.653119L454.579964,226.289980L454.109814,227.578178L454.889524,228.533739L454.779233,229.719893L456.992299,230.330851L457.623809,231.344783L458.566282,232.291063L459.138166,233.329929L457.958199,234.758183L458.198154,235.865069L457.733659,237.118035L458.118684,238.191493L459.785865,239.017325L459.643763,240.202326L459.924566,241.305858L460.543520,242.350850L459.529647,243.678251L458.580575,244.980086L459.400900,245.989519L459.399869,247.131077L460.913568,248.050970L463.004830,248.907383L461.969416,250.202316L459.709790,251.637504L457.675561,253.016071L457.357986,254.171986L457.928028,255.226522L460.855008,256.046204L462.795545,256.994824L463.013034,258.120489L463.510306,259.224147L463.402815,260.379630L463.587523,261.511830L463.865223,262.639199L462.351596,263.875398L459.306956,265.174036L456.153674,266.440167L452.042622,267.706910L451.009009,268.815185L452.155353,269.847085L454.070505,270.874770L457.117114,271.906102L458.907607,272.987802L460.879133,274.090122L460.943745,275.214021L461.064065,276.339118L461.865098,277.474783L462.421686,278.615601L463.271229,279.770840L462.826595,280.896081L461.063508,281.967004L460.106233,283.052141L459.954278,284.166181L460.806685,285.334915L462.113368,286.542770L461.316730,287.624812L461.374140,288.761163L460.527363,289.826964L460.446785,290.949447L461.467365,292.173540L460.626066,293.228508L459.505303,294.245401L459.161906,295.335855L459.122514,296.459042L459.944866,297.689055L461.676574,299.047991L461.961393,300.234710L460.716067,301.210860L461.370498,302.453450L461.250538,303.587316L461.000227,304.701021L458.597314,305.456757L455.021703,305.983095L455.311079,307.156526L454.953548,308.216584L454.405595,309.238343L457.163576,310.907483L456.979905,312.015649L457.046435,313.176789L459.977191,314.960439L458.853561,315.882684L458.066805,316.870857L456.739370,317.725131L456.988131,318.946382L457.580644,320.259428L458.006394,321.541182L458.411197,322.826576L457.635579,323.805491L457.626559,324.988011L456.514462,325.865230L456.732376,327.113348L457.217725,328.446884L456.232651,329.350070L456.354947,330.584005L456.278045,331.761631L455.907740,332.848971L455.744833,334.003741L455.752479,335.217925L454.236955,335.919405L453.014900,336.707138L452.402829,337.698957L451.797042,338.689870L452.617537,340.201340L451.049132,340.836114L450.974995,342.023880L449.191179,342.553199L448.721433,343.582158L449.858048,345.255762L449.071364,346.164998L449.168905,347.436954L448.773829,348.508123L447.648664,349.265944L446.291631,349.912670L446.258256,351.134820L444.883408,351.757046L443.939060,352.563662L444.192123,353.921866L442.921055,354.568619L438.798371,353.831277L439.318407,355.308709L438.751474,356.261796L439.072200,357.660954L442.331538,360.575394L441.910960,361.637338L440.665153,362.266167L440.079394,363.236704L439.279156,364.090115L438.748475,365.087731L439.117821,366.587839L438.365255,367.467563L438.681439,368.957689L438.218431,370.008469L437.716397,371.038019L437.068420,371.981518L435.666784,372.466806L434.765745,373.246493L433.850553,374.012242L432.266094,374.349879L431.378285,375.116883L430.665251,375.992462L430.595025,377.288866L430.951788,378.879180L430.072191,379.652315L429.405677,380.566789L428.055477,381.007235L427.555044,382.031180L427.200677,383.161573L427.112160,384.488775L427.134364,385.907220L426.692367,386.995771L426.503082,388.277665L426.154319,389.448152L423.753187,389.051582L422.438802,389.465858L422.225646,390.733746L420.007108,390.415017L420.377434,392.152487L420.102381,393.384923L419.114100,394.037116L419.744019,396.037006L418.990510,396.893750L418.507221,397.981721L417.317224,398.462073L415.375189,398.272611L414.515204,399.019385L413.335355,399.475958L413.005409,400.697284L413.042584,402.266586L412.691058,403.491203L411.520898,403.952193L410.350211,404.403745L409.206020,404.871949L408.936375,406.188349L407.963212,406.819686L406.978493,407.435203L406.377120,408.435607L404.539379,408.170036L404.693425,409.951317L404.055916,410.923353L402.710044,411.144940L402.105529,412.152981L400.759022,412.356486L400.035297,413.234834L399.655405,414.500973L399.000005,415.467641L398.370332,416.469164L397.333256,417.004091L395.848610,417.008016L394.682144,417.372419L394.090723,418.420418L393.316576,419.253803L392.733439,420.325912L392.563429,421.923339L390.797073,421.523093L390.009087,422.348630L389.841199,423.981899L388.635474,424.275605L388.692433,426.238999L386.740216,425.528310L384.542113,424.446689L383.607250,425.065731L382.051108,424.814344L382.195548,426.950274L381.817907,428.375259L380.902825,429.038872L380.643515,430.669400L379.839569,431.513001L379.339533,432.821847L378.731847,433.983762L377.701069,434.502900L376.801892,435.226426L374.682536,434.006531L373.081483,433.574978L371.723740,433.514097L370.525065,433.699681L370.604143,436.026516L369.925749,437.108627L368.818881,437.463057L367.606037,437.625353L366.229415,437.484613L365.051636,437.683204L364.180197,438.433183L362.616054,437.901394L359.767651,434.915608L357.618476,433.164683L356.494804,433.338942L356.536727,435.802320L357.183053,439.535718L357.428452,442.553546L356.533844,443.296357L355.261870,443.255902L354.833015,444.994144L353.420852,444.645313L352.171147,444.627030L351.179941,445.170373L350.109401,445.536312L349.489466,446.939419L348.791592,448.191714L347.646527,448.404076L346.615856,448.886360L345.694588,449.640633L344.327844,449.286564L343.318358,449.818970L341.964492,449.458516L340.727725,449.380564L339.767680,450.032703L338.580237,450.068566L337.428303,450.190690L336.273096,450.293493L335.317561,450.968220L334.543264,452.194758L333.736778,453.358962L332.519173,453.282504L331.278279,453.114413L330.237328,453.570844L329.352288,454.547669L328.823069,456.754959L328.210014,458.758203L326.917615,458.439008L325.594378,457.978382L324.076571,456.760189L322.460669,455.095189L321.402087,455.499920L320.398093,456.128832L319.533521,457.347275L318.791816,459.133480L317.815887,459.991677L316.435861,459.088498L315.282047,459.152459L314.115988,459.148061L312.873225,458.756733L311.815444,459.252056L310.489391,458.378902L309.274197,458.024870L308.329572,459.126764L307.400850,460.383987L306.418658,461.402446L305.164901,460.811573L303.786366,459.360101L302.522899,458.541705L301.419834,458.754249L300.405533,459.616559L299.486049,461.266571L298.361003,461.423612L297.132874,460.717310L296.096706,461.617921L294.914876,461.244831L293.859969,462.070826L292.774582,462.666821L291.640742,462.783308L290.420801,461.858829L289.263153,461.587156L288.142698,461.782217L286.996344,461.596271L285.941369,462.925912L284.789356,462.688998L283.643486,462.507476L282.512674,462.631256L281.334397,461.386330L280.224160,462.021061L279.080768,461.474294L277.930917,460.083058L276.812233,460.134898L275.691111,459.667415L274.573059,460.343301L273.438196,462.049987L272.296178,462.812142L271.150253,463.304820L270.009199,463.378080L268.898430,462.482312L267.806506,461.367661L266.686008,461.183384L265.549746,461.341969L264.366616,462.279944L263.146709,463.609651L261.948158,464.382634L260.759462,464.886191L259.703622,463.662702L258.688106,462.134524L257.649874,461.036680L256.641624,459.758994L255.496072,459.918141L254.292468,460.567158L253.225000,459.979184L252.087053,460.005441L251.181670,458.227093L249.969767,458.847752L248.830514,458.891091L247.642083,459.248882L246.289769,460.624444L245.301055,459.620498L244.241020,459.104639L243.126365,458.927626L241.984009,458.903826L241.034868,457.828174L240.073943,456.870571L239.198740,455.527914L237.990156,455.883810L236.499907,457.540543L235.219174,458.122952L233.766337,459.428539L232.769710,458.664160L231.884314,457.456496L230.864544,456.852319L229.850500,456.242493L228.582215,456.644501L227.297921,457.074054L225.779841,458.339872L225.000407,456.845574L224.474333,454.506219L223.666768,453.236404L222.738466,452.419121L221.190913,453.680020L219.902010,454.032495L218.783107,453.815365L217.825317,453.091312L216.870328,452.374108L215.561097,452.730786L214.733875,451.646427L213.720392,451.125340L212.819670,450.292121L211.650489,450.218656L210.125555,451.099379L208.881967,451.183820L207.759962,450.932666L206.493501,451.047197L205.932223,449.362896L204.926044,448.826183L203.904850,448.329946L203.281848,446.881642L201.731185,447.653258L200.802600,446.943121L200.829176,444.064349L200.302271,442.505310L199.863738,440.786706L198.841860,440.374829L196.688469,442.379881L195.184240,442.942152L193.664933,443.503573L193.087852,442.110705L192.468922,440.828972L191.744090,439.780213L190.669492,439.429578L189.024643,440.169797L188.243661,439.237976L187.222747,438.765545L186.658279,437.452087L185.248973,437.692204L185.402476,435.117404L185.392502,432.887531L184.040445,433.036329L183.912146,431.069080L180.735485,434.291876L179.008767,434.994749L178.043206,434.411470L176.431662,434.875883L175.831247,433.693928L174.338483,433.936382L173.426675,433.251239L173.017061,431.795855L172.469962,430.570978L171.073060,430.634426L169.909839,430.334592L169.311869,429.201412L168.324472,428.641764L168.138280,426.940753L167.279640,426.210442L165.965077,426.114001L164.441225,426.289794L163.164144,426.110992L162.147615,425.572132L161.178867,424.966749L160.586602,423.869450L159.765419,423.076334L158.384812,422.995555L156.720309,423.255282L155.040576,423.509982L154.034090,422.917488L153.731974,421.470852L154.502952,418.761288L154.016141,417.582123L153.123729,416.885991L152.825936,415.505039L150.814028,416.086978L150.495558,414.736204L150.523776,413.015416L149.211178,412.786588L148.371946,412.032742L146.828424,412.031589L144.884948,412.434359L143.943964,411.762523L143.163024,410.922800L142.404962,410.060793L142.234088,408.609310L141.809934,407.425154L141.894667,405.750170L142.353604,403.732818L142.074027,402.452624L142.267935,400.735301L141.199833,400.220959L139.187651,400.572461L137.027918,401.030638L134.273020,401.994901L132.919898,401.665868L132.616389,400.399677L132.351275,399.109844L131.963801,397.935485L130.336860,397.820930L129.127577,397.337699L127.774458,396.963952L126.710806,396.340786L126.057683,395.379157L125.283751,394.515461L125.359103,392.981148L125.408051,391.482860L125.162405,390.225748L125.304803,388.682622L124.280171,388.030518L124.031560,386.797295L123.630873,385.683274L122.528612,385.080755L121.764059,384.229478L120.707743,383.581627L120.536636,382.311559L121.323743,380.392902L120.523715,379.573993L119.821529,378.686748L118.404311,378.269728L116.546421,378.125752L116.662152,376.692962L116.134695,375.680269L116.058887,374.386535L115.492828,373.404081L115.509516,372.067445L114.357497,371.442448L113.304041,370.749728L112.371854,369.978433L111.475596,369.180641L111.626649,367.782798L112.006759,366.268081L111.403215,365.311178L109.520511,365.049451L107.811312,364.673689L107.216946,363.690453L107.859077,362.062236L108.748288,360.325174L107.900760,359.487697L105.848723,359.245009L103.703777,359.024612L102.500965,358.324567L103.151895,356.732441L104.178032,354.981616L104.083622,353.769470L102.768003,353.116808L102.287447,352.079174L101.229353,351.294901L100.931934,350.173512L101.136509,348.841176L100.785538,347.750123L100.823047,346.500858L100.973618,345.212615L101.319324,343.855098L101.174139,342.699429L100.487776,341.754450L100.298031,340.619018L100.948432,339.176663L102.326938,337.485092L104.002216,335.712172L104.051495,334.533320L102.854701,333.785536L100.819029,333.307206L98.889818,332.771319L97.793924,331.946479L96.093419,331.301883L95.433710,330.318576L95.150419,329.217488L95.569359,327.909916L95.168664,326.848369L95.448095,325.594033L96.712413,324.076234L95.163359,323.334894L95.479041,322.088140L94.434610,321.197127L92.593840,320.494875L92.188487,319.423703L92.592358,318.159309L92.907347,316.923868L93.645373,315.600957L94.905768,314.176901L95.124773,312.991761L98.021377,311.263638L97.952509,310.163752L96.834683,309.267423L95.708966,308.361145L94.107864,307.528791L95.626617,306.137333L99.448911,304.381599L103.804109,302.589705L104.826428,301.370380L104.731932,300.331844L101.970478,299.674346L99.062205,299.004650L97.259120,298.156930L94.008374,297.468474L92.870191,296.492475L90.519673,295.639751L89.316655,294.638414L91.589786,293.277410L91.034535,292.210113L90.846668,291.105182L89.793214,290.069578L86.376991,289.200137L85.795716,288.094002L88.040679,286.803338L88.858903,285.622211L89.147674,284.478793L89.318564,283.344869L87.085384,282.307109L85.932600,281.207368L86.748328,280.041411L87.371230,278.889690L86.638630,277.765692L86.362829,276.629091L85.331302,275.491231L84.706725,274.342340L85.676756,273.201001L86.228595,272.064758L86.399775,270.926754L85.465596,269.759963L84.551161,268.582150L84.418560,267.423876L84.243055,266.261477L85.123369,265.151076L87.008558,264.108844L88.687250,263.075468L90.009848,262.036645L91.250893,261.006731L91.376232,259.899129L90.399922,258.694634L91.584696,257.681099L91.456418,256.548743L91.322706,255.412877L91.692942,254.330752L90.418459,253.056099L89.921849,251.861440L89.705659,250.695746L89.732134,249.558908L89.394342,248.368233L89.299107,247.207705L89.458178,246.083555L89.636396,244.962312L90.080283,243.885729L90.567349,242.819860L90.826790,241.716499L92.260247,240.833369L91.623215,239.565507L91.068425,238.303374L89.897729,236.904720L88.602750,235.462043L89.443665,234.466553L90.082429,233.433171L91.847488,232.665050L93.432574,231.873404L94.328197,230.930501L96.089603,230.212395L96.218350,229.094226L95.145109,227.657745L95.965716,226.714458L95.899407,225.533065L96.538595,224.546371L97.387312,223.624648L97.701169,222.551755L97.207794,221.234708L96.365565,219.799057L97.274814,218.900687L97.605335,217.823365L98.073017,216.790966L98.771872,215.837726L98.683347,214.619434L98.544116,213.377307L99.732549,212.600913L100.336297,211.623420L100.347432,210.429851L100.659114,209.344254L101.070922,208.295880L101.174611,207.127313L101.355789,205.985271L101.695094,204.903881L101.451523,203.581437L103.431767,203.180347L104.306215,202.330457L103.750561,200.867704L103.595437,199.566806L103.792161,198.414476L104.929785,197.686015L106.035887,196.952772L106.397669,195.879546L105.897306,194.393640L105.701344,193.040441L108.567209,193.182106L110.574977,192.931074L112.278546,192.548736L113.057946,191.709389L110.926829,189.354991L110.840026,188.042728L110.796150,186.744053L110.619313,185.363874L110.934522,184.244602L111.191850,183.089166L111.044276,181.698570L111.676332,180.746505L112.680762,180.013348L113.634313,179.256987L115.437370,179.017757L116.596962,178.406280L117.747459,177.798729L117.395128,176.259049L117.520068,175.006431L120.387812,175.510607L120.793175,174.447913L122.238364,174.068753L122.030675,172.597608L119.765936,169.716849L119.653129,168.263431L118.792949,166.276328L119.473574,165.348307L120.098667,164.380949L121.408456,163.908031L123.222535,163.816280L123.877436,162.885780L124.108255,161.636240L124.000443,160.120474L123.836150,158.545875L125.656849,158.502963L126.942733,158.059349L128.404243,157.767550L130.067881,157.654328L129.445755,155.686526L130.641169,155.199897L130.851230,153.895053L131.662240,153.090550L132.629288,152.421934L133.429534,151.612696L134.056241,150.651507L134.530886,149.551825L135.514477,148.906058L135.587651,147.432085L137.379541,147.534493L138.772884,147.286205L139.357084,146.284208L140.263996,145.587715L140.618615,144.357187L140.502015,142.652738L141.588082,142.124301L142.631590,141.559770L144.123309,141.458350L144.985261,140.723408L144.926641,139.027397L144.892395,137.334887L144.856828,135.618751L146.244393,135.422558L148.000069,135.644590L149.254798,135.334555L150.483692,135.006558L151.588165,134.547430L152.169153,133.492306L153.539617,133.350160L154.188156,132.370385L154.451015,130.923468L154.663262,129.397451L155.964772,129.185837L156.817140,128.429897L157.191433,127.072621L158.907205,127.404636L158.605261,125.165303L159.026269,123.829519L159.919705,123.101220L160.091275,121.407211L161.735107,121.680596L163.172486,121.695508L164.305971,121.306252L166.019648,121.740156L166.847674,120.940823L167.731233,120.217832L168.612524,119.489578L169.771556,119.170388L171.367362,119.514884L173.113153,120.113166L174.493918,120.181571L175.222720,119.250421L175.718638,117.942013L176.061349,116.368748L176.832231,115.464700L178.395382,115.857279L179.192329,114.997255L180.434815,114.883801L181.926852,115.211610L182.122492,113.307602L182.978544,112.531469L183.877164,111.825275L184.485530,110.587384L185.689911,110.427721L186.645260,109.813601L187.371588,108.762654L188.585701,108.635289L189.296945,107.537177L190.564241,107.524421L192.468002,108.808493L193.924690,109.233433L194.695122,108.261966L195.618971,107.598762L196.235911,106.272285L196.620686,104.413267L197.993420,104.694328L198.836457,103.809246L199.547036,102.607475L200.595629,102.165926L202.480216,103.699376L204.804701,106.357225L206.213789,106.884693L207.198808,106.390697L207.378754,103.856136L207.197873,100.315381L207.850017,98.845622L208.780408,98.079901L210.036655,98.187363L211.094116,97.762550L212.208540,97.497278L213.401694,97.463405L214.290977,96.549803L215.394711,96.257179L216.472582,95.888194L217.735669,96.097221L219.046430,96.481963L220.167094,96.278404L220.935908,94.908447L221.729861,93.577277L222.648329,92.633681L223.640424,91.923283L224.986114,92.484223L226.319904,93.042634L227.550367,93.247585L228.761145,93.400171L229.736460,92.626462L230.810523,92.234621L231.936367,92.055978L233.138108,92.213289L234.442338,92.854334L235.486165,92.343639L236.169834,90.101592L236.632144,86.648461L237.074281,82.887657L238.419541,83.619655L239.788648,84.545261L241.529941,87.634065L243.071153,89.800537L244.132004,89.253242L245.291126,89.292214L246.363138,88.782370L247.529678,88.884724L248.711439,89.118151L249.902776,89.458159L251.252323,91.070422L252.497528,92.009712L253.668119,92.423360L254.861772,93.105393L255.783687,91.283542L256.924181,91.469312L257.960517,90.566675L258.966267,89.196588L260.101906,89.252584L261.166048,88.367995L262.217428,87.152750L263.358784,87.166244L264.507186,87.323972L265.646409,87.351366L266.804058,87.822808L267.952835,88.226413L269.030329,86.550336L270.156338,85.992795L271.280307,85.004529L272.425352,84.710504L273.591915,86.841978L274.731308,88.074712L275.857242,88.989222L276.980901,89.085322Z" />
<line x1="50" y1="550" x2="100" y2="550" fill="none" stroke="black" stroke-width="1.0" stroke-linejoin="round" stroke-miterlimit="10" />
<text x="125" y="553" style="text-anchor:start;fill:black">GC-content</text>
</g>
<g style="fill:pink;stroke:black">
<a href="" title="CP116886:1 [324500-351099];"><path  d="M466.136854,147.067585L468.340472,150.422867L470.485196,153.816098L472.570373,157.246242L474.595369,160.712255L457.239250,170.650319L457.239250,170.650319L455.390341,167.485699L453.486483,164.353828L451.528257,161.255662L449.516258,158.192142Z" />
</a><a href="" title="CP116886:2 [405000-422599];"><path  d="M491.331212,196.892340L492.661431,200.679736L493.925347,204.489771L495.122577,208.321284L475.981483,214.119434L475.981483,214.119434L474.888360,210.621095L473.734350,207.142368L472.519802,203.684310Z" />
</a><a href="" title="CP116886:3 [497500-524599];"><path  d="M504.486042,259.632620L504.719288,263.640045L504.882559,267.650929L504.975806,271.664052L504.999000,275.678192L484.999087,275.619218L484.999087,275.619218L484.977910,271.954135L484.892772,268.289979L484.743698,264.627867Z" />
</a><a href="" title="CP116886:4 [871500-895599];"><path  d="M386.691512,476.059708L383.165525,477.978371L379.606590,479.835205L376.015791,481.629645L372.394221,483.361143L363.925158,465.242782L363.925158,465.242782L367.231809,463.661849L370.510365,462.023448L373.759827,460.328078L376.979207,458.576255Z" />
</a><a href="" title="CP116886:5 [1173000-1194599];"><path  d="M184.510749,486.451402L180.834195,484.839942L177.186325,483.164562L173.568250,481.425774L182.388402,463.475707L182.388402,463.475707L185.691862,465.063296L189.022526,466.592990L192.379379,468.064324Z" />
</a><a href="" title="CP116886:6 [1200000-1221099];"><path  d="M167.572400,478.369887L164.039468,476.464042L160.540336,474.496830L157.076069,472.468849L167.330324,455.297645L167.330324,455.297645L170.493350,457.149280L173.688210,458.945430L176.913931,460.685549Z" />
</a><a href="" title="CP116886:7 [1438500-1460099];"><path  d="M60.055984,356.847846L58.660279,353.084090L57.330473,349.296549L56.066972,345.486376L75.104626,339.357126L75.104626,339.357126L76.258258,342.835979L77.472429,346.294169L78.746768,349.730642Z" />
</a><a href="" title="CP116886:8 [1485000-1514599];"><path  d="M50.708706,325.925587L49.854093,322.003408L49.068061,318.066911L48.350850,314.117296L47.702679,310.155765L47.123745,306.183526L66.939071,303.471915L66.939071,303.471915L67.467663,307.098742L68.059472,310.715792L68.714316,314.321963L69.431998,317.916155L70.212297,321.497275Z" />
</a><a href="" title="CP116886:9 [1944000-1963599];"><path  d="M184.055520,63.743991L187.756297,62.188966L191.483649,60.698765L195.236441,59.273843L202.172403,78.032639L202.172403,78.032639L198.745941,79.333655L195.342706,80.694273L191.963736,82.114078Z" />
</a><a href="" title="CP116886:10 [2007000-2026599];"><path  d="M225.690272,50.347934L229.618501,49.521576L233.560554,48.763901L237.515230,48.075140L240.774775,67.807737L240.774775,67.807737L237.163984,68.436606L233.564718,69.128396L229.978074,69.882896Z" />
</a></g>
<text x="275" y="280" style="text-anchor:middle" font-size="25" font-weight="bold">CP116886</text>
<path  style="fill:pink;stroke:black" d="M350,550L375,550L375,565L350,565Z" />
<text x="405" y="565" style="text-anchor:start;fill:black">Selected loci;</text>
</svg>