<svg xmlns="http://www.w3.org/2000/svg" viewbox="0 0 550 650">
<circle cx="275" cy="275" r="240" fill="none" stroke="black" stroke-width="1.0" />
<line x1="275" y1="15" x2="275" y2="55" fill="none" stroke="grey" stroke-width="1.0" stroke-linejoin="round" stroke-miterlimit="10" />
<line x1="495" y1="275" x2="535" y2="275" fill="none" stroke="grey" stroke-width="1.0" stroke-linejoin="round" stroke-miterlimit="10" />
<line x1="275" y1="495" x2="275" y2="535" fill="none" stroke="grey" stroke-width="1.0" stroke-linejoin="round" stroke-miterlimit="10" />
<line x1="15" y1="275" x2="55" y2="275" fill="none" stroke="grey" stroke-width="1.0" stroke-linejoin="round" stroke-miterlimit="10" />
<text x="275" y="10" style="text-anchor:middle" font-size="15">Thermococcus guaymasensis DSM 11113, complete genome.</text><text x="285" y="25" style="text-anchor:start">1,920,914</text><text x="525" y="265" style="text-anchor:start">0.48 Mbp</text><text x="285" y="530" style="text-anchor:start">0.96 Mbp</text><text x="-200" y="25" style="text-anchor:end" transform="rotate(-90)">1.44 Mbp</text><circle cx="352.110084" cy="47.724759" r="2.500000" fill="grey" stroke="black" stroke-width="1.0" />
<circle cx="421.043440" cy="84.549708" r="2.500000" fill="grey" stroke="black" stroke-width="1.0" />
<circle cx="474.490399" cy="141.569941" r="2.500000" fill="grey" stroke="black" stroke-width="1.0" />
<circle cx="506.783465" cy="212.739053" r="2.500000" fill="grey" stroke="black" stroke-width="1.0" />
<circle cx="514.498290" cy="290.510294" r="2.500000" fill="grey" stroke="black" stroke-width="1.0" />
<circle cx="496.816797" cy="366.636829" r="2.500000" fill="grey" stroke="black" stroke-width="1.0" />
<circle cx="455.613927" cy="433.046226" r="2.500000" fill="grey" stroke="black" stroke-width="1.0" />
<circle cx="395.258817" cy="482.696454" r="2.500000" fill="grey" stroke="black" stroke-width="1.0" />
<circle cx="322.151503" cy="510.322621" r="2.500000" fill="grey" stroke="black" stroke-width="1.0" />
<circle cx="244.044259" cy="512.995256" r="3.000000" fill="black" stroke="black" stroke-width="1.0" />
<circle cx="169.219552" cy="490.430956" r="2.500000" fill="grey" stroke="black" stroke-width="1.0" />
<circle cx="105.611767" cy="445.022430" r="2.500000" fill="grey" stroke="black" stroke-width="1.0" />
<circle cx="59.965854" cy="381.584783" r="2.500000" fill="grey" stroke="black" stroke-width="1.0" />
<circle cx="37.122088" cy="306.844921" r="2.500000" fill="grey" stroke="black" stroke-width="1.0" />
<circle cx="39.502816" cy="228.728236" r="2.500000" fill="grey" stroke="black" stroke-width="1.0" />
<circle cx="66.855585" cy="155.518192" r="2.500000" fill="grey" stroke="black" stroke-width="1.0" />
<circle cx="116.279917" cy="94.977959" r="2.500000" fill="grey" stroke="black" stroke-width="1.0" />
<circle cx="182.534874" cy="53.527202" r="2.500000" fill="grey" stroke="black" stroke-width="1.0" />
<circle cx="258.594801" cy="35.561345" r="2.500000" fill="grey" stroke="black" stroke-width="1.0" />

<circle cx="275" cy="275" r="185" fill="white" stroke="grey" stroke-width="0.5" />
<circle cx="275" cy="275" r="170" fill="none" stroke="black" stroke-width="0.5" />
<circle cx="275" cy="275" r="170" fill="aliceblue" stroke="black" stroke-width="0.5" />
<circle cx="275" cy="275" r="161" fill="white" stroke="none" stroke-width="0.5" />
<circle cx="275" cy="275" r="140" fill="none" stroke="black" stroke-width="0.5" />
<circle cx="275" cy="275" r="140" fill="aliceblue" stroke="black" stroke-width="0.5" />
<circle cx="275" cy="275" r="133" fill="white" stroke="none" stroke-width="0.5" />
<circle cx="275" cy="275" r="110" fill="none" stroke="black" stroke-width="0.5" />
<circle cx="275" cy="275" r="110" fill="white" stroke="black" stroke-width="0.5" />
<circle cx="275" cy="275" r="109" fill="aliceblue" stroke="none" stroke-width="0.5" />
<circle cx="275" cy="275" r="80" fill="none" stroke="black" stroke-width="0.5" />

<g style="fill:none;stroke-linejoin:round;stroke-miterlimit:10">
<path style="stroke:blue;stroke-width:1.0" d="M276.999782,122.144771L278.005875,121.846074L279.006439,121.917809L280.003464,122.079511L281.003246,122.128009L282.061587,120.895921L283.202461,118.408169L284.252814,118.021843L285.087195,121.021815L286.091765,121.125943L287.161141,120.400951L288.076777,121.603648L288.966458,122.928646L289.949641,123.138481L291.038152,122.331601L292.019775,122.589903L292.929435,123.440061L293.964317,123.210118L294.908084,123.708359L295.914037,123.721358L296.972273,123.384976L297.897016,123.971422L298.891620,124.079643L299.933026,123.908160L300.876721,124.331783L301.993758,123.765055L303.016514,123.761440L303.943416,124.270181L305.049230,123.857229L305.997376,124.251379L306.863930,125.017297L307.910280,124.928580L308.942843,124.919256L309.892364,125.279913L310.923725,125.291899L311.971884,125.248349L313.208636,124.477446L314.655519,122.955381L314.922040,125.933670L315.896863,126.196160L318.008285,122.426786L319.523222,120.919636L320.096801,122.678194L320.626591,124.512484L321.441437,125.357575L321.737484,127.812043L322.370478,129.133660L323.922438,127.643232L324.668341,128.606112L326.092277,127.585842L326.919508,128.307579L327.043292,130.960665L328.511712,129.874273L330.200771,128.258108L331.286056,128.292626L331.192110,131.354453L331.490356,133.330790L333.031457,132.188582L334.056162,132.349769L335.354641,131.869887L335.802132,133.403193L336.850585,133.521590L338.195879,132.982937L338.589087,134.579679L339.070462,135.944660L339.907377,136.519083L340.828078,136.912736L341.600182,137.614146L342.439349,138.170779L343.404558,138.472098L344.475347,138.570787L345.197626,139.354247L346.077259,139.828228L346.915138,140.380088L348.509208,139.535904L350.256919,138.453674L352.250661,136.979859L352.564084,138.522483L351.654620,142.153380L353.030146,141.790264L355.047363,140.373752L360.669259,133.041012L369.345180,120.951653L378.366228,108.674813L371.974571,121.212801L365.443700,133.628139L363.177995,139.135809L361.489462,143.627514L360.704472,146.655882L361.483274,147.306360L363.402215,146.294546L364.601341,146.360128L364.157096,148.766803L364.163343,150.494487L364.739674,151.405823L365.647232,151.858397L366.415638,152.501232L367.212703,153.104977L369.214287,152.137931L369.844560,152.977476L370.773022,153.432686L370.372533,155.556805L371.028243,156.336037L372.360442,156.286427L373.351613,156.665211L373.886898,157.592217L376.144694,156.493700L375.888426,158.348091L378.199928,157.241296L377.610448,159.447791L377.921704,160.613283L380.321710,159.474887L380.088777,161.234227L380.263623,162.530101L380.149916,164.114549L381.880490,163.756235L382.299539,164.772571L382.794807,165.703502L382.946634,166.972302L384.418707,166.922507L384.849426,167.907705L385.138321,169.022481L386.244780,169.350625L386.432135,170.550614L387.554673,170.873255L387.816587,171.992408L388.682075,172.557780L390.044494,172.685838L393.177931,171.275724L390.976932,174.543058L391.395466,175.505773L394.288230,174.376125L395.951034,174.320336L393.747903,177.462212L393.644544,178.839992L396.160875,178.106910L397.659178,178.217472L396.259702,180.602253L396.291722,181.845227L397.458124,182.216698L400.799112,180.974347L403.027941,180.607560L404.703519,180.675656L401.885834,183.987836L400.834398,185.982914L400.423218,187.499245L400.846013,188.422700L402.895346,188.239998L402.321271,189.840289L403.025643,190.576112L403.153589,191.689516L403.825141,192.446804L406.107011,192.189401L408.431706,191.937190L409.890624,192.248448L408.541332,194.273802L408.951955,195.217399L410.980630,195.209586L408.141135,198.042160L407.768151,199.412141L408.393312,200.207441L409.324880,200.835902L409.586194,201.836348L411.932296,201.717386L413.521389,202.028626L414.562412,202.642600L412.981181,204.603836L411.986735,206.236857L412.483430,207.109886L412.594982,208.170831L412.731064,209.214794L413.310634,210.045754L415.046724,210.345260L414.793523,211.568255L414.450066,212.820951L414.690945,213.805901L415.688651,214.462708L415.683724,215.552518L415.966778,216.516779L417.714636,216.883010L417.477689,218.063267L416.948534,219.348837L417.328907,220.271190L418.001068,221.083864L418.198729,222.076678L419.174570,222.785455L419.875533,223.601140L421.548307,224.084560L422.068279,224.979711L421.632573,226.195757L421.791273,227.207303L423.261795,227.798986L423.667274,228.738821L424.802895,229.458161L426.009256,230.168473L427.918990,230.687964L425.491951,232.456421L424.913484,233.677102L424.348986,234.882082L423.766390,236.080196L424.127153,237.026390L424.005433,238.093653L424.476096,239.013255L427.512143,239.336218L431.467375,239.489246L430.546890,240.766562L430.205435,241.904709L428.050171,243.409604L426.280127,244.805392L424.740813,246.129926L424.933717,247.108774L425.357767,248.046327L426.341888,248.890603L425.812222,249.996807L425.678454,251.030714L425.870047,252.011147L426.587909,252.915460L426.697365,253.912011L427.013481,254.880830L428.078158,255.758011L427.520471,256.840828L428.521275,257.739447L427.349826,258.879678L427.818204,259.840343L427.412214,260.886852L427.162452,261.913348L429.441187,262.734616L429.412079,263.752930L427.348157,264.904728L427.732657,265.882373L427.299360,266.907737L427.415556,267.901128L427.769563,268.885915L428.401828,269.865505L429.263596,270.846757L428.355664,271.874999L428.783914,272.872604L431.884524,273.856148L429.914412,274.883962L428.658530,275.890127L433.329264,276.953043L441.706083,278.147212L464.093405,279.807494L489.914068,281.871060L497.784156,283.581916L492.131000,284.787080L473.877961,285.268413L450.296821,285.201109L440.972047,285.748344L430.404896,286.085365L428.898159,286.990278L428.769527,287.992833L427.557963,288.896171L427.561282,289.903405L426.857361,290.838207L428.672849,292.044508L430.338300,293.258697L432.172566,294.517524L431.750058,295.507170L429.463771,296.236734L426.824674,296.886810L425.798217,297.746806L427.789818,299.070523L429.693296,300.408582L431.054964,301.681814L432.266914,302.949126L431.138366,303.803502L430.759426,304.788519L427.565529,305.213576L425.149942,305.757324L424.758406,306.699314L424.324857,307.629606L423.880815,308.554516L424.124136,309.635987L424.200323,310.683966L425.691974,312.084567L426.294773,313.284313L425.159219,314.043937L423.199377,314.571172L422.683659,315.470302L424.393406,316.991436L423.419300,317.767229L424.628507,319.177807L425.267888,320.437394L422.684280,320.712744L421.953119,321.542034L421.459633,322.442171L422.323654,323.789227L426.060074,326.125611L425.572428,327.060877L423.187902,327.324212L421.717965,327.887176L418.639960,327.841950L419.039187,329.061222L418.886736,330.080548L420.284645,331.708135L418.254121,331.998280L416.428688,332.346462L416.194791,333.330041L416.027852,334.344058L415.993201,335.418171L415.871807,336.460024L417.202240,338.150994L415.735642,338.605164L418.767170,341.111242L416.648919,341.263169L414.118483,341.192112L415.240202,342.854475L412.928312,342.852976L411.991555,343.508818L412.516930,344.899871L412.424925,345.988190L411.041291,346.404736L410.082839,347.032715L409.559274,347.888076L409.178174,348.821027L408.788651,349.751007L408.282857,350.616730L407.749947,351.466642L407.725238,352.613162L407.092405,353.407195L409.606896,356.095242L407.836102,356.217520L405.667710,356.070833L405.073412,356.885406L404.754210,357.874615L404.911481,359.176663L403.866210,359.701454L402.645062,360.099786L401.381143,360.456640L402.990454,362.770394L402.219857,363.471118L402.446425,364.871289L399.903793,364.307411L399.350182,365.146736L398.492744,365.763478L399.511374,367.772754L397.776791,367.735556L396.107466,367.725144L395.747786,368.709056L398.421798,372.084607L396.915360,372.197371L394.831461,371.824909L393.216562,371.805133L392.538478,372.541333L391.790914,373.218220L391.807238,374.543749L391.139359,375.293504L392.081111,377.451494L391.404801,378.212047L389.584624,377.944903L388.194201,378.041855L387.110717,378.404770L386.439453,379.143059L386.770859,380.830980L388.433241,383.821165L390.934934,387.686803L388.130580,386.409532L385.727633,385.479273L384.223847,385.414103L383.805187,386.439659L382.739102,386.801699L381.412816,386.881072L380.809819,387.714559L379.390208,387.670412L377.918960,387.550461L377.279404,388.330951L376.700390,389.182383L376.552379,390.529106L375.459557,390.804940L375.102959,391.930545L374.387486,392.643987L373.603850,393.277367L372.321944,393.304733L371.616668,394.026007L370.520985,394.262257L370.432332,395.762264L370.109904,396.986307L369.705072,398.119683L368.919817,398.765845L367.444167,398.490624L366.658910,399.126015L367.033608,401.354926L366.233471,401.993855L364.526795,401.354510L363.192699,401.213916L362.373042,401.799619L361.476732,402.272910L361.428650,404.009689L360.482548,404.420484L360.644233,406.528281L359.265598,406.281264L357.828937,405.919219L356.816228,406.210518L355.315702,405.700759L354.306968,405.972360L353.397201,406.402433L352.726252,407.236309L352.704281,409.200911L356.367258,417.671403L353.850765,415.385096L350.804978,412.054630L348.865159,410.634944L348.458875,412.015392L347.167396,411.747242L345.512773,410.756102L344.517070,411.006895L343.532274,411.272684L342.678794,411.797851L341.736902,412.144088L341.410062,413.772503L341.045382,415.361303L340.674932,416.977592L339.561344,417.000825L337.786517,415.529959L337.137385,416.556275L335.512286,415.341537L334.750747,416.107163L334.077717,417.099587L334.447676,420.670535L332.515287,418.613866L332.363622,420.995276L331.872952,422.575654L330.187686,421.042829L329.433346,421.946658L327.557616,419.783778L326.473475,419.742446L325.311608,419.461941L324.511132,420.215154L323.502046,420.361947L322.473866,420.442651L321.763269,421.507903L321.226581,423.165657L320.734948,425.035056L320.124355,426.580271L318.782229,425.669306L317.603691,425.275438L315.971551,423.206366L314.953655,423.294997L314.157406,424.219027L312.942976,423.542495L311.794257,423.078543L310.994079,424.017039L310.405408,425.898473L309.325025,425.720807L308.157578,425.123887L306.988259,424.466040L306.013705,424.690982L304.996880,424.706458L304.101861,425.338470L303.127915,425.580051L302.251223,426.366150L301.265109,426.568192L300.179842,426.177368L299.206626,426.440824L298.393055,427.755960L297.624327,429.483558L296.587085,429.441138L295.460947,428.712498L294.341127,427.942992L293.207625,426.959894L292.212100,427.066554L291.273828,427.709737L290.295353,428.021755L289.236359,427.501254L288.330663,428.654371L287.240856,427.686249L286.314741,428.754966L285.408797,430.319922L285.043528,441.154976L284.155954,444.921365L283.009102,444.236789L281.636019,437.766228L280.279984,429.299078L279.264966,429.131279L278.261685,429.397788L277.224840,427.582472L276.229987,428.012071L275.229490,428.355932L274.228092,427.990617L273.192663,430.968882L272.202991,429.265433L271.186992,429.522699L270.147609,430.410604L269.112615,430.863422L268.101802,430.625462L267.066567,430.917171L266.192944,428.317005L265.255285,427.238668L264.180594,428.290676L263.087544,429.389284L262.203465,427.807586L261.220826,427.535420L260.185861,427.827853L259.279336,426.830139L258.121021,428.225583L256.724955,431.486094L256.112716,428.032499L255.270512,426.687038L254.308639,426.335198L253.261739,426.596434L252.294294,426.292354L251.128702,427.265446L250.278128,426.219034L249.260760,426.222384L248.418966,425.220434L247.400978,425.238434L246.370206,425.309453L244.783479,428.181105L244.240874,425.731700L243.490584,424.412391L242.422801,424.621138L241.538548,423.986978L240.532414,423.904015L239.396790,424.356020L238.230496,424.894450L237.341348,424.291340L236.120719,424.986156L235.542683,423.217347L234.227873,424.222543L233.026554,424.758994L232.279955,423.673112L231.622311,422.323903L230.605284,422.216675L229.698981,421.742310L228.711007,421.534561L227.841222,420.956784L226.884431,420.654167L225.854349,420.568114L224.942660,420.128859L224.169758,419.300254L223.352626,418.614924L221.193269,421.600579L220.076608,421.669452L217.371985,425.879132L216.905228,424.166220L218.348544,417.692833L217.675540,416.678421L215.890234,418.385799L214.184876,419.826448L214.042585,417.545778L213.357810,416.577961L213.077017,414.718456L212.169472,414.298975L210.715805,415.069735L209.419662,415.462686L208.372673,415.303387L207.732826,414.291825L207.462617,412.546242L206.713876,411.801743L205.642771,411.702214L204.880469,410.992477L204.100419,410.324552L203.273588,409.750908L202.436319,409.199808L200.670381,410.342016L199.612523,410.164955L198.360731,410.320746L197.440124,409.880840L196.968576,408.669671L195.809727,408.639116L194.630306,408.628434L193.818268,408.000830L192.378633,408.389257L192.001818,407.059855L191.595871,405.798650L190.765636,405.213690L189.097882,405.905981L186.202591,408.407223L184.105371,409.640099L185.103647,406.300911L185.916003,403.305646L185.460309,402.177904L184.814619,401.331168L182.719132,402.494463L180.194658,404.194341L178.616023,404.560038L180.677445,400.072151L180.968999,398.003387L179.296776,398.507824L176.223757,400.765666L176.833490,398.319939L177.211055,396.209769L177.838987,393.832235L177.566820,392.586877L176.230889,392.624335L174.906735,392.630030L173.407912,392.821017L174.605765,389.903263L173.808538,389.297920L172.988919,388.716063L172.372330,387.908617L171.330020,387.566957L169.530454,388.028101L167.860198,388.322670L166.948709,387.799377L166.303266,386.997215L167.242423,384.585920L166.773569,383.631991L166.393682,382.596274L165.773729,381.803699L164.962892,381.197363L164.177040,380.564293L163.566469,379.764057L162.788123,379.121342L162.030777,378.457029L161.133843,377.916944L160.750357,376.913533L160.464279,375.831024L159.551410,375.301747L158.115964,375.214626L158.185181,373.836709L157.612267,373.010999L157.213949,372.042957L156.542839,371.301882L155.513944,370.846914L154.878577,370.071841L154.315075,369.240365L153.878203,368.312450L152.807454,367.869919L152.192293,367.076244L151.435288,366.387216L151.370650,365.189870L150.769457,364.389132L150.379705,363.438016L149.975681,362.500604L149.097035,361.894042L148.514702,361.079833L147.768693,360.375085L147.671977,359.237224L146.975776,358.498900L145.660608,358.155730L144.009819,358.010988L144.347982,356.603658L144.472173,355.343893L143.675232,354.654562L142.547511,354.157979L140.507280,354.187841L139.928065,353.343475L138.573708,352.940783L138.630626,351.729370L138.878000,350.422058L138.944799,349.225927L139.199505,347.938250L139.555175,346.609533L139.411851,345.554267L138.338674,344.980444L137.959335,344.046874L137.175558,343.314958L136.112374,342.713774L131.938941,343.593824L132.864247,342.010129L133.377403,340.639265L134.872096,338.836236L134.548067,337.877629L133.115208,337.408111L131.489924,337.005735L132.739424,335.364582L132.155344,334.512734L133.328025,332.939436L132.673565,332.123165L129.671813,332.226938L130.520342,330.803871L132.197440,329.085238L131.885170,328.135601L131.531617,327.201511L129.985776,326.692249L130.342043,325.501139L130.018421,324.552483L129.219573,323.762796L129.919348,322.475723L129.096239,321.690624L127.847538,321.031188L126.724352,320.319779L127.099338,319.149327L128.495386,317.690803L128.205044,316.735519L127.925840,315.776903L127.484653,314.861883L126.270793,314.147709L123.354152,313.856441L124.713909,312.462067L126.505465,310.985354L125.903318,310.100244L124.825978,309.318584L124.114943,308.443990L124.968868,307.226488L124.824458,306.231178L124.425413,305.287905L124.799338,304.191669L124.143670,303.296225L124.778592,302.161061L124.592387,301.179801L124.421835,300.195720L123.666570,299.305472L124.105602,298.223413L124.082942,297.217237L123.753407,296.255829L123.481021,295.284229L121.714724,294.500822L120.442365,293.636070L121.311287,292.512058L121.063515,291.520929L122.938032,290.314214L122.699257,289.332472L117.071436,288.820415L109.089987,288.425812L107.545865,287.448697L112.697157,285.998617L120.307295,284.466717L122.535615,283.329600L122.027201,282.354005L121.546639,281.371217L121.657302,280.362004L121.989932,279.348392L121.576599,278.355824L122.140185,277.343158L122.044481,276.343861L122.027293,275.343250L119.263827,274.330640L120.880253,273.329295L121.574868,272.332934L122.330064,271.346885L121.333630,270.317030L122.420908,269.350871L122.077166,268.336115L122.130739,267.336199L121.320802,266.287374L121.048118,265.261154L120.307036,264.197808L118.846674,263.068831L116.743016,261.866221L118.059020,260.941102L117.234571,259.826259L118.543704,258.918520L119.555157,257.994134L117.463917,256.721672L120.545439,256.054393L121.279971,255.122910L118.133264,253.671761L116.814557,252.437552L116.395249,251.318060L116.744602,250.310806L116.279034,249.173468L116.532123,248.149377L112.125721,246.305436L117.340729,246.159555L120.614282,245.713349L122.180140,244.973384L124.330344,244.370818L124.149729,243.305094L123.871977,242.212995L124.851565,241.395556L125.171435,240.436367L124.992432,239.359942L125.581414,238.465601L126.789697,237.731839L126.966358,236.744901L127.275769,235.792169L127.560203,234.833373L127.395095,233.749250L127.280096,232.673349L126.220760,231.314618L126.779701,230.423459L125.580374,228.994756L123.401634,227.235978L122.253100,225.773381L122.834398,224.859545L126.233721,224.898439L129.492228,224.933627L130.732026,224.302303L131.152548,223.390388L131.065935,222.293994L130.914544,221.166996L130.385143,219.888433L131.676687,219.304160L133.057707,218.769295L133.535606,217.885142L133.012166,216.590655L133.654684,215.770895L134.614394,215.090421L134.680523,214.030463L134.365148,212.796588L134.253965,211.643331L134.339061,210.571706L135.367159,209.934175L134.614803,208.462364L134.391850,207.226697L136.722217,207.231639L137.545473,206.516316L137.717248,205.477199L137.689801,204.330895L139.372053,204.070608L140.150604,203.350456L140.611585,202.464094L140.657680,201.350052L140.400491,200.059738L140.322478,198.857913L141.358269,198.285498L143.214318,198.200386L143.702881,197.330051L144.025082,196.359483L143.762260,195.029004L142.392958,193.000211L138.864183,189.581994L141.183287,189.812010L142.633257,189.513105L145.896230,190.418492L146.266401,189.452185L147.646385,189.162923L148.772238,188.715521L149.061917,187.699258L149.512594,186.790714L150.080544,185.963285L150.371844,184.935644L151.773415,184.715534L152.249052,183.823970L153.115897,183.224523L152.760996,181.698010L152.083111,179.901623L150.985526,177.748919L150.334033,175.914138L153.140962,176.837511L155.797347,177.684685L156.617988,177.057103L156.636470,175.760936L158.306400,175.853832L158.469187,174.672154L159.555073,174.284553L160.458776,173.745742L161.193500,173.061198L161.571950,172.054907L162.404787,171.459422L162.404386,170.091339L162.244653,168.556058L161.367096,166.313013L160.628153,164.164493L161.697126,163.753925L163.757745,164.338594L165.330514,164.466365L167.185074,164.904300L167.548289,163.829595L168.307615,163.160250L168.801900,162.210172L169.225697,161.177461L171.878226,162.565691L172.543629,161.813589L173.281246,161.140139L173.465758,159.839140L174.251589,159.212204L171.263621,154.191258L169.424338,150.409397L171.437942,151.152034L176.131418,155.180685L178.340928,156.284858L179.054964,155.574605L178.954308,153.834342L180.435214,154.086030L181.544020,153.879254L181.976492,152.795073L182.130166,151.326532L183.956781,152.092659L184.515262,151.160960L184.298150,149.143599L185.157220,148.600488L186.796126,149.171122L187.551307,148.495744L188.211401,147.677941L189.237988,147.398298L189.827301,146.466835L191.219207,146.753150L192.290320,146.565513L193.041366,145.883956L193.763138,145.151343L194.519201,144.468405L195.620706,144.349382L196.396516,143.698286L197.150340,143.005787L197.720586,141.991766L198.038217,140.520789L199.441727,140.946534L200.481485,140.745511L201.809781,141.081408L202.246704,139.786399L202.635904,138.375196L203.286935,137.436111L204.677170,137.922681L206.290081,138.881381L206.864888,137.796207L207.337678,136.480828L207.899176,135.320668L208.439676,134.091466L209.372404,133.679524L209.872518,132.320427L210.982459,132.287912L211.973878,132.000258L212.494086,130.628737L213.890763,131.283321L215.098404,131.524146L217.031617,133.559061L218.099477,133.534261L218.907780,132.865140L219.641064,131.990418L220.568351,131.606458L221.181170,130.376330L222.250246,130.361383L223.157630,129.907603L224.021218,129.323839L225.276265,129.871897L226.453473,130.225899L227.274567,129.524200L227.135740,125.812949L228.713518,127.418630L229.877169,127.762489L230.969250,127.897801L232.024863,127.928964L233.055556,127.888283L234.106921,127.933834L234.862632,126.904794L235.778667,126.442233L236.770947,126.265095L237.982811,126.970134L238.852145,126.320475L239.801016,125.983302L240.862845,126.132286L241.832838,125.891453L242.454845,124.034924L243.630750,124.724059L244.621782,124.558125L245.689146,124.785673L246.626936,124.355496L247.299303,122.445318L248.393299,122.813146L249.661624,124.261523L250.304432,121.968318L251.035829,120.062847L252.163825,120.679180L253.403169,122.155993L254.583343,123.353708L255.543813,122.973267L256.543032,122.884439L257.595383,123.262522L258.596202,123.224146L259.562849,122.857968L260.563091,122.809000L261.524229,122.323799L262.554262,122.618010L263.455685,121.265435L264.411759,120.465252L265.195200,116.723172L266.308968,118.073312L267.409502,119.530609L268.518256,121.649961L269.511997,121.342427L270.547763,122.353707L271.536482,121.887511L272.506392,119.890116L273.472263,114.749516L274.529491,117.706341L275.545302,121.420307L276.548346,121.589262Z" />
<line x1="50" y1="575" x2="100" y2="575" fill="none" stroke="blue" stroke-width="1.0" stroke-linejoin="round" stroke-miterlimit="10" />
<text x="125" y="578" style="text-anchor:start;fill:black">n1_4mer:GRV/n1_4mer:RV</text>
<path style="stroke:green;stroke-width:1.0" d="M276.212549,182.317671L276.803078,183.130428L277.356949,184.943253L277.951444,184.795246L278.609570,183.082703L279.248111,182.294035L280.201285,175.703123L280.943356,174.168289L281.081887,182.161716L281.465409,185.306544L282.093483,184.823781L283.123678,179.705677L283.364945,183.919745L284.116353,182.394212L284.723234,182.443792L285.395686,181.907845L285.581129,185.556287L286.140014,185.835630L286.816779,185.198295L287.433281,185.065671L287.735454,187.121691L288.056030,188.882503L289.019128,186.442933L289.340612,188.097213L290.649888,183.877917L292.799841,175.274796L292.867523,178.547658L293.553663,178.377327L293.137278,183.772422L292.931533,187.794109L292.892842,190.778848L293.662103,189.900504L295.014181,186.505844L296.499361,182.748117L295.951832,187.685586L297.457853,184.036267L299.340100,179.112409L300.506591,177.204283L300.753308,178.838806L302.162459,176.168993L303.738985,173.047567L305.671121,168.857244L305.309818,172.623644L304.825662,176.627764L305.124100,177.934886L304.270994,182.818363L303.815250,186.270156L304.845176,185.104875L304.884214,186.918415L305.204753,187.851639L306.460850,186.111095L304.938256,192.140397L309.012929,182.755689L309.232050,183.999898L311.201207,180.642989L311.463424,181.787475L309.308955,188.958364L308.768251,191.898660L309.981036,190.503266L310.293170,191.302785L310.228569,192.959244L310.042001,194.844144L312.645778,190.400452L311.438938,194.533874L311.667361,195.418987L310.303390,199.679659L312.267836,196.823427L314.600257,193.310807L315.692169,192.438736L315.933154,193.301969L317.739355,191.072438L315.598317,196.550205L313.220413,202.314010L315.026020,200.074200L321.697019,188.945890L325.618798,183.157138L328.110505,180.109947L328.744079,180.434860L328.687979,181.955816L327.943305,184.617449L327.102233,187.372777L330.021959,183.825386L330.090366,185.047554L330.679770,185.406443L329.585890,188.434922L330.477203,188.284005L330.432594,189.589750L329.539008,192.158404L325.743698,199.010322L328.457240,196.069714L330.290647,194.501929L331.768566,193.497861L329.295203,198.126062L331.923156,195.513897L331.742529,196.851220L330.276647,199.908298L332.653934,197.742585L332.004178,199.646764L335.614321,195.954654L335.154447,197.608135L332.737802,201.711830L331.486269,204.257406L329.894291,207.166059L332.389073,205.024332L333.464624,204.656477L337.523790,200.765903L339.737007,199.150810L336.942859,203.378774L339.588214,201.300100L339.211583,202.689720L337.548344,205.484053L344.061440,199.247995L340.358148,204.245344L338.208411,207.464384L336.921846,209.700548L337.465116,209.984817L343.388879,204.744989L342.464272,206.595883L338.244091,211.708415L341.220429,209.591277L343.828338,207.899197L339.238446,213.188353L341.949985,211.417475L343.424351,210.863371L343.792103,211.358948L343.393450,212.553114L343.182992,213.558325L342.941229,214.576857L347.144137,211.679392L341.941668,217.016441L345.932805,214.367014L352.891460,209.295776L352.100801,210.821278L346.042625,216.646629L343.118735,219.790566L345.955433,218.256508L351.073652,214.975137L343.574539,221.616379L343.272651,222.565067L348.104082,219.610959L352.844376,216.817012L355.107085,215.938648L358.526742,214.256813L351.761211,219.941026L354.379585,218.845725L351.220739,221.825059L351.144768,222.615278L355.970526,220.072255L357.988380,219.492649L356.237572,221.429547L353.950829,223.675399L353.221498,224.874422L356.526071,223.506013L358.937124,222.748151L362.668506,221.217871L359.786232,223.746429L362.934768,222.625516L365.405427,221.952103L356.855971,227.685857L353.520305,230.296645L355.377315,229.933085L358.054848,229.143358L356.665553,230.605030L363.144644,227.827272L366.071800,227.024489L364.492235,228.601938L362.971493,230.118114L359.844439,232.410692L358.268781,233.881393L355.908098,235.703356L355.384235,236.605659L357.259019,236.369040L357.836035,236.757461L360.020935,236.421486L357.404251,238.256970L357.402610,238.902074L357.462784,239.516870L357.012945,240.344512L358.698935,240.275625L358.647754,240.936530L355.904891,242.668901L357.440800,242.678945L356.497983,243.662110L361.938150,242.221440L359.815415,243.653957L365.265772,242.309171L363.967941,243.436004L367.016022,243.030772L366.676896,243.819212L365.803060,244.777694L366.888990,245.082536L368.290070,245.299929L369.068011,245.728614L366.867719,247.071135L372.235831,246.132691L373.759717,246.381945L371.677158,247.669686L369.457591,248.963240L367.751436,250.085238L364.180431,251.668891L365.914852,251.849520L365.884180,252.489391L368.453949,252.500727L373.891714,251.874940L378.188458,251.581061L373.882358,253.237539L368.308172,255.103396L368.092525,255.785192L364.722108,257.092004L364.472818,257.749613L363.389655,258.557428L367.498946,258.418307L368.957423,258.790531L369.527208,259.328313L365.782132,260.558766L362.252547,261.704876L364.865226,261.907714L365.008901,262.487543L364.084761,263.209523L370.545809,262.989851L371.836411,263.470603L370.746893,264.235079L369.864244,264.962298L370.783169,265.498252L366.174399,266.557384L366.324166,267.145713L372.145869,267.284886L371.324970,267.983880L368.107482,268.830281L364.101753,269.680925L364.847860,270.226030L363.107652,270.896318L367.317755,271.305294L366.553534,271.935622L369.935724,272.444043L366.448624,273.136508L365.603486,273.746622L375.463339,274.267517L374.219117,274.925680L373.503270,275.570619L376.075698,276.246801L380.773569,276.996879L378.043459,277.619768L370.486258,278.052810L365.569194,278.488835L366.225682,279.111956L368.159338,279.809978L374.091853,280.766487L374.096303,281.417473L374.168924,282.073932L372.185479,282.571766L370.863284,283.100016L370.788151,283.725133L372.435840,284.518311L366.383514,284.530990L368.697472,285.392385L376.089574,286.882220L382.857204,288.393594L382.575227,289.073765L374.074005,288.621371L367.568620,288.344549L363.198051,288.304030L372.715382,290.394091L377.283241,291.800160L378.292786,292.660694L380.769350,293.797093L377.771142,293.958625L378.631787,294.819266L371.200839,294.051298L366.283027,293.698786L363.873037,293.811727L368.604788,295.453978L365.158450,295.319765L364.449735,295.775845L359.622161,295.238926L364.405356,297.002226L369.923880,299.019968L362.133758,297.656251L360.564600,297.846867L362.339691,298.934020L374.460535,302.956325L369.742847,302.300284L370.498767,303.196004L372.873071,304.594462L367.450372,303.616182L368.557575,304.630945L368.119889,305.164009L368.338100,305.910812L373.924499,308.480557L374.290658,309.330049L367.199855,307.555186L364.373222,307.216213L356.878100,305.121134L360.366467,307.040000L362.159870,308.365225L365.315281,310.252254L361.273465,309.326685L361.387349,310.028317L358.717296,309.585081L362.115557,311.657941L363.973158,313.126629L368.282074,315.697416L365.170507,315.044075L364.226359,315.325657L367.029182,317.319561L365.072719,317.135893L360.670431,315.761706L361.789489,316.992632L358.243389,315.951068L355.660333,315.337845L359.276030,317.837516L363.016468,320.465767L361.813211,320.566125L358.963908,319.773624L359.506552,320.775515L357.681526,320.489031L355.634960,320.052733L355.440287,320.637013L353.381247,320.149176L352.896113,320.550972L352.416024,320.952478L359.807617,326.093179L356.373160,324.752485L354.002369,324.015842L351.036945,322.867708L352.881618,324.743350L359.022590,329.442773L356.041231,328.266951L350.114365,325.078055L350.914989,326.332341L352.564281,328.190275L356.239764,331.495683L355.706854,331.911984L352.122614,330.143409L352.077123,330.876485L349.378664,329.666096L353.206489,333.271234L348.705379,330.671021L348.387671,331.188793L347.951580,331.615727L353.399425,336.669636L351.561876,336.039175L349.051772,334.834504L346.186159,333.292895L345.616983,333.602722L346.028874,334.733495L349.312814,338.329775L346.029214,336.338110L350.321160,340.909568L349.607590,341.151929L347.801477,340.406166L346.309753,339.914007L344.614068,339.208194L340.772664,336.466261L342.572576,338.981543L341.343075,338.645635L339.655036,337.843606L344.874807,343.811806L345.368655,345.210820L342.098437,342.829636L344.167781,345.842523L343.618861,346.206322L341.093678,344.490046L339.916854,344.153077L336.078897,340.923659L332.749030,338.153377L333.210586,339.500386L333.769672,340.982650L336.163339,344.581293L336.071738,345.400559L337.318226,347.794094L335.525629,346.643590L335.978090,348.144486L334.649761,347.510359L332.470270,345.799965L332.767684,347.125558L337.836269,354.514457L337.304830,354.911090L340.239830,359.813907L338.132224,358.194509L331.766062,350.830381L333.133644,353.725544L335.164156,357.600668L332.195200,354.613752L329.781227,352.316016L328.617872,351.733354L327.888083,351.753523L329.434911,355.115071L331.797865,359.780623L329.296105,357.204244L326.823963,354.588742L326.903788,355.863306L327.713435,358.318729L327.071173,358.507707L324.216795,355.092340L321.988381,352.599476L320.173105,350.715150L324.222273,358.742256L323.058724,358.000891L323.726142,360.437646L320.541953,356.082427L321.850294,359.704856L322.609413,362.422814L324.105208,366.590966L322.192292,364.422872L319.740753,361.138013L317.955026,359.039499L315.901398,356.330197L313.911961,353.652002L313.403663,353.919387L316.143838,360.975427L316.157773,362.469532L315.332263,362.191222L314.099654,360.998568L315.032468,364.601419L312.745713,360.989177L311.447445,359.529784L311.305919,360.739938L310.260938,359.813106L311.624899,364.745621L309.128776,360.218482L308.812568,361.055850L308.187938,361.117065L309.650762,366.696096L308.699745,365.974841L308.125913,366.254039L308.394893,368.905812L306.069182,364.210314L306.112570,366.252542L305.385952,366.067524L304.062084,364.035651L303.350174,363.820235L302.454850,362.998416L301.817410,362.975427L303.139819,369.526367L304.806582,377.574427L303.652854,376.066836L301.557855,371.067711L299.261870,365.052185L298.205205,363.429203L296.765379,360.209017L297.274936,364.645514L296.346943,363.377266L296.085417,364.866417L295.041897,363.003747L294.816479,364.720873L294.052623,364.023916L293.516499,364.371871L292.368579,361.681965L291.990567,362.772251L291.142606,361.417866L291.873180,368.721604L291.474671,370.070462L290.925309,370.614038L290.045354,369.126326L289.343759,368.664324L289.496696,373.986419L288.373477,370.678277L287.664754,370.143736L287.028907,370.120466L285.861528,365.649744L285.616825,368.798196L284.922171,368.107292L284.358619,368.627936L283.303725,363.950300L283.499058,372.963423L282.608430,369.903704L282.011707,370.281436L281.056914,365.381184L280.636928,368.254448L280.026319,368.281270L279.301341,365.889737L278.660310,364.778961L277.939331,360.897237L277.495431,365.182191L276.957153,367.645380L276.273207,362.318255L275.743607,367.505690L275.139190,368.012969L274.547854,364.614330L273.861566,373.244112L273.227746,372.746388L272.465013,377.730741L271.940735,372.981026L271.139595,377.200876L270.731085,371.308041L270.150359,370.310867L269.764847,366.135787L269.355641,363.180076L268.514408,366.888673L267.694578,369.680635L267.293555,367.025157L266.656857,367.358577L265.913077,368.743885L265.496586,366.783954L264.864101,367.012616L263.614125,372.495307L263.733297,366.287432L263.466322,363.674854L262.254577,368.219148L262.232684,364.035623L260.822846,369.465023L259.627699,373.053751L259.846601,367.690483L259.906805,363.675070L259.677169,361.595666L259.108087,361.509449L258.485116,361.704891L255.661383,373.036131L256.108039,367.577968L255.268838,368.561876L253.199519,375.125639L252.936700,373.236755L252.011521,374.312926L252.532856,369.250019L252.272463,367.651007L251.788238,367.019096L250.858704,368.130842L250.942358,365.370054L250.070913,366.238353L248.447669,369.737285L248.023499,368.882867L249.157110,362.770362L246.425862,369.754286L246.370796,367.737771L244.806945,370.580522L245.056953,367.673963L244.203258,368.227074L243.355255,368.730895L245.205801,361.380899L244.101067,362.717934L244.796463,358.986431L243.310601,361.340207L241.581842,364.241081L235.084163,379.505887L236.076636,374.941025L241.650545,359.000105L242.356413,355.679205L237.157151,366.797473L236.293412,367.176704L237.244506,363.289280L236.727341,362.903512L237.323766,360.009879L238.284862,356.399620L235.942110,360.103785L234.402937,361.952472L233.691309,361.987570L231.198159,365.701571L232.311321,361.939515L233.023021,359.095034L233.306319,357.177713L231.088664,360.163310L232.656075,355.820967L232.871496,354.145937L233.951465,350.915464L230.044791,356.856043L227.090690,360.898349L224.081880,364.905321L224.208898,363.328486L226.170982,358.645260L227.624306,354.949791L226.052036,356.384405L223.180808,359.895892L221.400534,361.534431L223.307008,357.249621L222.507543,357.321375L223.445154,354.696057L218.003564,361.856698L215.160489,364.901530L213.625384,365.912791L214.741666,363.012182L216.961019,358.592218L215.639543,359.312761L212.779915,362.157540L212.080950,361.928425L210.594526,362.767448L210.144578,362.179126L215.472374,353.933912L215.545434,352.773425L216.078459,351.039981L213.720465,353.023433L213.852200,351.815840L215.846682,348.320763L216.867602,346.098505L221.130635,340.012046L214.240157,347.359021L212.607039,348.324473L209.643850,350.796532L216.806365,341.603810L211.929053,346.239982L210.109025,347.336712L213.341948,342.834779L210.950464,344.546279L210.604239,344.010731L208.482539,345.356078L205.737631,347.305958L206.856731,345.212379L210.173004,340.926927L209.372876,340.873050L210.239047,339.158673L210.634317,337.938091L208.534130,339.146544L205.220447,341.468439L206.113015,339.763990L207.802775,337.352270L205.893526,338.287595L203.538153,339.590174L204.149993,338.199975L201.723962,339.508242L204.940578,335.867633L204.736883,335.242546L206.802505,332.701719L206.513219,332.181936L205.122232,332.571717L202.999991,333.533703L201.907255,333.632063L201.461977,333.202734L203.340865,330.957139L205.335392,328.669739L201.455144,330.896248L199.079699,331.921967L198.257998,331.757611L194.977258,333.378053L198.013292,330.395194L201.545484,327.127719L201.292000,326.585920L203.074908,324.640308L200.646742,325.601264L198.052234,326.633692L199.913668,324.675350L197.981508,325.232364L196.147528,325.696348L190.595926,328.488480L191.219793,327.328096L192.356896,325.869374L191.884431,325.413447L199.065781,320.380795L189.945404,325.079215L186.718994,326.204128L180.436655,329.024346L176.645922,330.339746L179.723810,327.790337L183.741067,324.786990L188.653631,321.376511L190.103623,319.884623L193.588222,317.363203L190.482616,318.278989L191.902200,316.868181L191.818085,316.230488L185.144780,318.808338L181.567241,319.798426L176.166358,321.595279L176.237082,320.774654L181.491917,317.598254L186.389773,314.669094L185.773878,314.246164L189.626995,311.886720L191.070222,310.613422L184.402561,312.745209L191.354704,309.208327L189.754623,309.213501L183.615455,310.985158L186.570231,309.155143L187.099628,308.291508L192.376408,305.676445L190.046421,305.910679L184.657806,307.203677L191.904605,304.009203L189.463816,304.234958L185.864761,304.815275L192.586204,301.968824L191.077962,301.855869L181.126043,304.364985L180.225908,303.967271L182.837830,302.511018L185.902396,300.962651L190.128131,299.130063L188.331157,299.029286L186.006056,299.048116L186.034047,298.417144L181.938701,298.845235L181.678987,298.262286L185.058290,296.795983L186.634069,295.803050L187.294487,295.042941L186.712199,294.569177L183.418097,294.671671L181.300251,294.486219L181.206427,293.866469L184.178587,292.651245L185.318313,291.821656L189.069780,290.536773L187.312244,290.262844L184.054290,290.217629L181.904874,289.951891L181.669467,289.364042L188.559732,287.725294L191.826890,286.688947L188.116678,286.631290L184.319755,286.536263L177.640102,286.739348L181.221793,285.685557L179.693486,285.228583L182.479154,284.317807L179.861089,283.953179L175.141593,283.738664L179.265431,282.747057L179.667494,282.087108L180.931597,281.374641L180.730803,280.768985L179.780464,280.202137L179.228535,279.604112L182.562889,278.837889L185.423135,278.132275L187.393091,277.489700L186.075634,276.945039L187.396258,276.342860L187.946178,275.764851L186.002132,275.199699L178.481266,274.585159L182.032740,273.992207L181.460348,273.373953L184.264516,272.828865L180.174777,272.110209L186.788675,271.734041L182.853161,270.984537L174.522982,269.962782L175.412167,269.354008L173.779983,268.596921L176.074210,268.092023L178.612021,267.635307L174.508225,266.660168L176.417721,266.168921L172.762227,265.166860L176.248677,264.849770L167.781306,263.270136L166.120747,262.367144L170.643413,262.199479L179.361353,262.633245L173.658661,261.221219L171.166379,260.189910L170.543131,259.403107L170.647398,258.720103L164.893484,257.083845L167.129581,256.722554L172.393757,256.923227L180.917197,257.789532L183.240001,257.593318L178.291697,255.998392L184.689556,256.641061L184.787896,256.045681L188.253901,256.180560L191.446371,256.300017L192.152410,255.888066L187.870454,254.299031L192.154770,254.743480L189.631903,253.533801L189.590538,252.928345L188.016799,251.913587L185.284775,250.559123L182.458058,249.137550L183.176173,248.689428L180.914954,247.374229L178.771450,246.059727L179.174939,245.496142L184.507947,246.488714L189.466469,247.434619L183.968926,245.004131L185.436707,244.836842L186.349464,244.497088L189.067291,244.802096L193.357236,245.708196L190.178299,243.939854L190.398424,243.391279L188.231516,241.933224L186.140345,240.468889L189.511905,241.133731L192.578977,241.723322L190.201138,240.116406L191.696506,240.092643L191.800461,239.494584L191.112988,238.550660L188.869657,236.904172L185.054823,234.511280L190.721837,236.397256L186.265240,233.651558L184.149288,231.939965L185.941426,232.073656L192.148415,234.395385L190.075428,232.688207L185.339434,229.594050L184.504627,228.424967L186.692068,228.817572L191.485950,230.626471L193.489569,231.004891L191.910890,229.448393L186.904705,225.951645L190.286960,227.106130L191.609962,227.131529L198.946404,230.678897L198.842052,229.948106L198.764780,229.226526L198.914238,228.636399L196.116642,226.221152L192.609225,223.304158L190.542588,221.234241L188.780955,219.316840L195.344114,222.813956L195.105799,221.907611L194.558081,220.781679L198.102497,222.435803L193.967709,218.828118L200.797306,222.840450L199.681163,221.316274L197.263824,218.822818L199.501359,219.684383L198.802339,218.402472L201.085768,219.344555L201.435400,218.849971L199.666001,216.715568L197.975451,214.598013L199.272527,214.810984L201.059984,215.438262L206.518113,219.092382L203.384550,215.749236L203.362436,214.937202L202.542222,213.437831L203.738510,213.647027L204.326876,213.343975L206.663584,214.590718L204.799950,212.120384L204.161016,210.707916L202.700003,208.514194L204.104838,208.944883L202.340740,206.407794L202.578142,205.730332L201.592668,203.862399L204.858290,206.131580L206.474639,206.832443L209.118964,208.599850L212.411899,211.087878L209.774601,207.517278L209.710531,206.560646L207.545637,203.358737L209.367205,204.373286L215.378319,209.994112L215.864427,209.671283L214.852114,207.672888L214.541301,206.427313L216.426798,207.683187L211.955270,201.579716L216.858632,206.386951L214.849671,203.067325L214.949144,202.224075L217.322051,204.160856L219.315681,205.688215L220.231513,205.907263L219.424344,203.938948L218.734309,202.078583L219.197888,201.692798L218.946896,200.354859L223.461910,205.424147L218.366638,197.490563L216.371769,193.648428L218.387349,195.351847L219.528027,195.865424L222.144094,198.538055L222.693153,198.263936L224.861933,200.401671L223.126529,196.718326L222.982090,195.373956L224.329936,196.317751L223.900731,194.499202L228.244373,200.266003L228.528849,199.628563L228.170150,197.922610L230.178034,200.127989L229.787321,198.341836L231.137123,199.506107L231.227063,198.513337L231.548061,197.908733L230.674670,195.142336L228.821642,190.505915L229.524509,190.482800L229.260581,188.643097L229.265032,187.268705L233.230806,193.581076L234.037079,193.849908L234.626256,193.699322L234.764030,192.628408L233.975806,189.602658L234.104472,188.423966L233.964696,186.635819L234.213547,185.646113L234.911261,185.631563L235.434910,185.230909L234.326802,181.056233L235.801192,182.812258L236.433090,182.624825L238.629671,186.257598L241.760281,192.359610L241.332865,189.689177L240.745270,186.509233L240.627496,184.449829L239.201092,178.800037L241.945098,184.364217L244.887584,190.723710L245.065023,189.458284L246.863833,192.879286L246.916722,191.250832L246.631252,188.526897L245.115480,181.853604L243.356230,174.105943L245.796373,179.707458L246.457412,179.642154L246.974319,179.089521L248.734205,182.877996L251.182680,189.344383L251.191484,187.153504L251.831562,187.245425L252.400106,187.072291L253.741306,189.987558L253.433271,186.294017L253.878600,185.581474L254.581259,185.956514L255.689894,188.188178L255.723335,185.582598L255.733169,182.701296L256.502711,183.395983L257.099273,183.261096L256.793098,178.331916L256.650894,173.946874L258.111520,178.400097L259.680288,183.862744L258.621458,173.506654L259.118612,172.321003L260.856845,179.424306L262.065576,183.461148L262.646917,183.246523L263.020495,181.394561L264.149278,185.572333L264.758901,185.715733L265.311550,185.357787L265.470884,181.085067L266.131191,181.506794L266.615631,180.007765L267.505270,183.236709L268.249557,185.104986L268.652146,182.353440L268.731190,173.803922L269.493966,175.582149L270.391213,180.602324L271.094387,182.598036L271.526116,177.735360L272.352708,184.236791L273.002096,186.678198L273.431843,177.455944L273.978441,167.844535L274.687747,170.612285L275.332945,181.228908L275.923607,183.488631Z" />
<line x1="50" y1="625" x2="100" y2="625" fill="none" stroke="green" stroke-width="1.0" stroke-linejoin="round" stroke-miterlimit="10" />
<text x="125" y="628" style="text-anchor:start;fill:black">n0_4mer:PS</text>
<path style="stroke:red;stroke-width:1.0" d="M276.606432,152.210849L277.422816,151.553805L278.210347,152.335748L279.000508,152.732789L279.764915,153.661953L280.624983,152.246736L281.458645,151.699072L282.293893,151.255813L282.992267,153.000294L284.216429,147.142144L285.071183,146.969644L285.614038,150.492663L286.652428,148.124559L287.210347,150.964793L287.821738,152.948890L288.499167,154.116537L289.742154,150.382575L290.159951,153.660168L290.986383,153.511359L292.105094,151.272791L292.773075,152.360655L293.052013,155.929032L294.199976,153.716168L294.687040,155.698355L296.079019,152.266593L297.143097,150.941316L297.407766,154.038548L298.417212,153.049219L298.592021,156.335950L299.358942,156.535878L300.241863,156.187198L301.047998,156.220698L301.505716,157.803055L302.397781,157.438513L303.094468,157.919450L305.149074,152.883592L306.673215,150.223673L307.861802,149.003409L308.270307,150.770813L308.298922,153.841383L310.635156,148.583186L311.497996,148.692328L311.936681,150.240331L311.396997,154.953914L311.920973,156.034175L311.715703,159.373122L312.019912,161.005815L315.565935,152.813427L316.999890,151.208326L318.087702,150.681069L318.353759,152.509088L316.570157,159.946982L319.606695,154.025007L321.894433,150.339098L321.923671,152.695311L322.786814,152.841158L320.359401,161.245529L320.126317,163.947242L321.320503,163.112767L321.069451,165.746998L322.899634,163.450701L322.644564,166.016761L323.937265,165.025635L325.136155,164.287056L325.420195,165.570519L325.167280,167.967314L325.752909,168.535851L326.211018,169.359605L327.673425,168.129695L328.659384,167.901828L330.393560,166.223289L330.949933,166.885649L330.643384,169.179729L332.271622,167.791686L335.382612,163.725832L337.793310,161.067674L341.832601,155.593321L344.091865,153.429736L343.045875,157.072801L341.960811,160.687361L342.381463,161.675673L346.153245,157.094898L349.189981,153.861391L352.431478,150.406067L352.154707,152.644146L351.091053,156.062654L348.598155,161.600349L343.903203,170.340024L343.393376,172.579586L344.579541,172.264933L347.555171,169.366378L348.935517,168.851417L350.116475,168.646235L350.020463,170.243259L348.760810,173.412752L351.179411,171.512506L350.773669,173.461780L350.431915,175.287328L353.315977,172.870447L351.224262,176.933471L350.082496,179.695736L351.602566,179.064043L350.773418,181.365318L351.307686,181.956481L352.009549,182.343576L355.558871,179.352966L357.013935,178.908277L358.859207,178.038070L363.076752,174.497952L360.284787,178.958655L358.342425,182.373605L361.822759,179.765988L360.110103,182.862506L358.923915,185.330711L359.225174,186.180657L358.319837,188.278726L360.851412,186.805955L361.372511,187.424233L359.450282,190.486299L360.501696,190.546352L361.496905,190.674096L360.181942,193.036059L361.011128,193.315072L366.113515,189.595994L366.246784,190.585641L366.342619,191.599292L364.265861,194.559939L363.845890,195.985417L364.757309,196.220385L363.522335,198.323691L366.323268,196.937354L371.077900,193.954866L370.064704,195.868122L367.090366,199.358323L367.707015,199.862054L367.986313,200.638279L372.443357,198.113667L369.116004,201.732965L367.610635,203.872947L370.828524,202.393246L374.927793,200.311270L376.077603,200.477505L376.678486,201.056312L373.659790,204.233700L378.866230,201.523516L376.659033,204.078187L376.917119,204.884875L378.778599,204.600007L380.944958,204.137983L382.548378,204.079425L380.950914,206.123099L381.047651,207.042981L380.723471,208.222306L382.062949,208.352053L383.231934,208.602794L384.007221,209.104757L385.398942,209.245717L385.362333,210.241834L383.038900,212.551679L382.432868,213.836080L378.704415,216.853767L382.040667,215.900193L383.844186,215.830201L386.190850,215.493540L389.820099,214.514175L389.403625,215.686401L386.177293,218.278824L386.992821,218.783036L383.402265,221.470333L384.723747,221.707745L387.360547,221.332646L386.545492,222.615356L388.906095,222.413486L389.207642,223.177927L386.724040,225.183641L384.249400,227.141361L385.418125,227.487893L385.245779,228.414412L388.567752,227.883878L388.629295,228.727292L389.587734,229.208611L387.373248,230.943878L385.561588,232.486471L386.706178,232.883074L385.696055,234.089001L391.607736,232.769113L398.333433,231.243834L406.521435,229.305363L399.899283,232.519743L398.266491,233.972774L392.612997,236.707245L393.044224,237.419131L395.249629,237.581613L392.947559,239.142557L396.455757,238.942296L398.979362,239.073932L398.841633,239.990378L401.139055,240.230404L397.808638,242.011314L395.289680,243.530185L395.168186,244.400477L394.619146,245.372183L397.775054,245.441598L400.030895,245.762495L400.883888,246.430263L397.086582,248.130652L394.599849,249.497080L395.646594,250.097881L392.401665,251.567330L393.361692,252.179830L395.582685,252.568762L395.521337,253.394912L401.106933,253.244119L399.512047,254.357119L393.149372,256.205302L391.433901,257.258361L392.384761,257.898448L399.693894,257.665859L396.269627,258.949816L401.736241,259.069201L398.395135,260.308507L398.466764,261.118506L394.429739,262.362993L401.415303,262.459527L396.860758,263.715872L400.758383,264.184216L400.831925,265.006702L396.768304,266.130638L397.810536,266.862023L396.160929,267.767100L394.801084,268.634498L393.698579,269.471522L395.510945,270.176957L396.506380,270.933074L397.436622,271.703635L400.844867,272.435599L399.205313,273.281785L403.285089,274.064668L397.579851,274.908182L399.017321,275.718419L406.531139,276.622479L414.587449,277.635245L425.964284,278.838103L430.790457,279.980807L432.665151,281.073453L430.574738,282.012459L426.580363,282.826356L418.440950,283.347309L411.129465,283.815739L399.554541,283.884743L401.000131,284.816729L398.173903,285.407641L400.133177,286.398108L402.511203,287.456313L403.508997,288.403052L403.882739,289.294932L402.640545,290.003061L404.306262,291.057116L403.512015,291.812867L398.544006,291.985674L394.786706,292.268266L392.921792,292.787638L397.877520,294.358137L401.169338,295.723483L403.186535,296.916953L404.171016,297.955985L401.197625,298.280207L400.011892,298.908146L394.597892,298.684773L392.927891,299.156828L392.337319,299.836752L394.045650,301.013168L392.361440,301.450730L394.042993,302.649257L388.938088,302.250362L393.180224,304.083582L395.022140,305.370945L395.581295,306.353177L393.823567,306.727446L393.597572,307.499734L395.921320,308.988514L396.984589,310.150030L400.725204,312.120358L402.120539,313.438192L394.308306,311.929523L393.639896,312.574855L391.274636,312.664448L391.161364,313.469200L395.632766,315.827624L395.596769,316.696701L391.326976,316.074321L391.980998,317.167942L387.639334,316.437509L389.392566,317.934163L388.975839,318.630510L389.967542,319.874631L388.900653,320.319054L388.876697,321.174689L389.450700,322.281589L391.407721,323.983988L393.367470,325.722631L393.989944,326.913331L396.369411,328.899284L388.579197,326.331868L392.833452,329.185638L389.689498,328.651589L384.513608,327.106210L386.460313,328.929479L384.902194,329.065701L384.958938,329.989936L385.532352,331.183607L386.465810,332.578755L387.444068,334.019133L387.957318,335.234315L387.589845,335.987675L386.355665,336.264730L387.276318,337.731538L385.515913,337.700126L382.242030,336.773568L378.482371,335.512938L376.917295,335.495902L381.239717,339.005158L378.573378,338.325954L377.769389,338.761735L378.247462,339.997606L379.111943,341.496780L380.528326,343.377500L379.564523,343.728390L380.538988,345.361871L380.417795,346.281604L377.262199,345.127054L376.056967,345.276945L376.264105,346.408324L376.916616,347.871359L377.336298,349.187935L374.759146,348.319992L376.220331,350.418724L375.277595,350.741502L373.327252,350.283621L374.021966,351.848241L373.897141,352.793309L371.366945,351.828823L369.635757,351.466551L369.256778,352.184954L370.263477,354.056040L368.205231,353.383254L371.684082,357.394688L371.197060,358.072099L372.156630,360.016634L369.978632,359.214216L368.007455,358.559583L366.024590,357.860628L366.251980,359.165816L365.073202,359.175744L365.378386,360.575375L371.322949,367.406559L374.581403,371.791447L370.759478,369.302695L364.395813,364.195300L361.387691,362.329093L359.436589,361.481031L358.209470,361.347110L356.999104,361.212808L358.738515,364.202966L357.279379,363.805757L354.816855,362.286384L355.252760,363.924273L354.515833,364.275049L356.498331,367.715004L356.667738,369.142637L359.959130,374.240996L357.939436,373.174592L355.969053,372.124061L353.754230,370.733787L350.958621,368.576518L350.420398,369.165768L352.269142,372.778146L350.918394,372.371610L352.450518,375.688199L351.551040,375.877583L348.880970,373.693161L349.976621,376.534583L349.925409,377.866711L349.145082,378.207405L347.321641,377.071849L345.116606,375.344943L343.264663,374.068696L343.547640,375.885606L344.393812,378.582250L342.918316,377.828255L343.347464,379.964738L341.718524,378.943868L343.263787,382.897578L343.623395,385.052875L341.935454,383.926579L340.487206,383.149564L338.241280,380.999423L339.389602,384.546557L340.290413,387.761263L344.094262,396.151623L342.401552,395.001035L340.000914,392.520992L335.633331,386.337991L334.610317,386.185082L333.196995,385.275263L332.514869,385.731631L331.841764,386.208253L330.303361,384.967713L329.931190,386.031363L327.626570,383.147408L327.840570,385.417276L327.367410,386.292535L327.127253,387.689906L326.250225,387.723401L324.906572,386.701825L325.742729,390.597907L323.210269,386.810407L322.839856,387.978443L321.939445,387.903411L321.652415,389.317038L320.603301,388.870009L321.304081,392.847809L321.883580,396.654928L319.841786,393.664539L319.203867,394.331458L317.638616,392.459283L317.482345,394.459557L315.192871,390.407564L314.624980,391.219269L313.649948,390.834942L312.850432,390.959950L312.709182,393.141723L313.350997,397.922798L312.270484,397.267093L311.087334,396.223402L311.584454,400.899355L309.956808,398.302689L307.758642,393.497817L306.193766,390.781132L305.662996,391.848966L305.194367,393.207561L304.623143,394.218383L304.232190,396.022526L302.969210,394.205267L302.418159,395.392833L301.455794,394.780962L300.661293,394.903114L299.586545,393.669601L298.836689,393.962583L297.990075,393.765350L297.190446,393.794386L296.327169,393.461159L296.047091,396.456551L295.270148,396.700032L294.314006,395.831746L294.059583,399.458517L293.155024,398.966232L291.962620,396.356186L291.134292,396.208580L290.507838,397.630657L289.674556,397.473083L289.173985,400.225224L288.247934,399.315466L287.193410,396.988485L286.426784,397.404816L285.785352,399.316136L284.746184,396.568976L284.248683,400.679496L283.235275,397.886650L282.685132,402.138887L282.103051,406.822428L281.123662,404.396388L280.127307,400.761020L279.093290,394.619852L278.238938,392.051736L277.582913,397.266901L276.754732,395.341888L275.999326,399.317573L275.184528,398.310494L274.365763,400.704562L273.444507,409.235346L272.554344,409.887003L271.602459,412.685853L270.876882,407.053698L270.015587,406.958014L269.308160,403.409659L268.508454,402.579514L267.869979,399.122466L267.443159,393.058192L266.625359,393.652953L265.487518,398.284841L264.799050,396.812855L263.782420,399.178579L262.946452,399.348630L262.114003,399.452931L261.253806,399.786490L260.227454,401.494786L260.056443,396.078804L259.441144,394.621793L258.667864,394.452126L257.674649,395.822055L257.043636,394.646601L255.487776,399.460656L254.731614,398.977895L254.211411,397.136472L254.428592,391.257547L253.934541,389.672237L252.660528,392.284600L250.771945,397.822885L249.923937,397.882480L248.607006,400.151174L247.266354,402.375582L246.348195,402.572044L246.157317,399.603775L246.158178,395.991893L245.957632,393.394030L243.944713,398.113420L242.434112,400.630725L242.056773,398.747840L241.120506,398.996088L240.818663,396.957170L239.677132,397.929661L238.968368,397.374447L236.241215,403.527445L235.140309,404.116370L232.946024,408.127997L232.437521,406.731202L234.883885,396.438433L235.691395,391.431044L234.785452,391.592121L234.478126,390.036177L233.594435,390.135710L232.758827,390.089326L232.080055,389.615004L228.176866,397.590268L228.993002,393.129218L230.733161,386.498646L230.037676,386.125183L227.050110,391.314675L226.062613,391.540550L225.379044,391.036052L223.827035,392.532555L225.027242,387.754849L225.619007,384.480564L224.468427,385.103954L223.065860,386.234693L222.193166,386.200284L220.867125,387.094303L220.791244,385.401237L219.623579,385.938950L216.972411,389.371637L217.549895,386.420913L218.318985,383.185872L218.335320,381.454747L219.197649,378.201280L214.953160,384.335423L212.116881,387.745437L210.644188,388.632041L211.203161,385.946170L210.700332,385.146848L209.698252,385.201259L207.962116,386.462008L207.108434,386.227421L207.565558,383.870507L208.658684,380.556825L207.505788,380.847900L206.695423,380.588629L202.391900,385.647266L202.135407,384.470120L201.952672,383.203307L202.900792,380.306738L203.993286,377.269347L201.190756,379.835129L197.805821,383.133165L197.132300,382.581352L193.641216,385.870277L191.651792,387.037263L194.116394,382.252041L196.009236,378.329024L199.841151,371.994704L197.117733,374.162662L196.706804,373.354441L198.866395,369.367892L198.368932,368.723200L197.087887,369.027948L195.230764,369.997346L191.566684,373.051188L191.027497,372.386774L194.629061,366.986190L191.778235,369.000763L193.414107,365.947243L191.420273,366.952505L186.361470,371.245504L185.692513,370.707775L187.657724,367.382660L187.849583,365.980058L188.117246,364.520872L190.461195,360.973190L189.035832,361.286304L186.228868,362.945557L186.472550,361.563965L187.058611,359.872674L184.623525,361.088016L187.961235,356.829357L184.250038,359.206842L181.387465,360.730205L178.635688,362.098051L177.575955,361.904679L178.551887,359.907676L181.582049,356.161525L184.152238,352.891513L181.933308,353.743481L182.887878,351.907534L180.906803,352.522609L176.551960,355.035107L174.247583,355.819541L175.961314,353.385604L180.404681,348.867531L179.588336,348.505318L177.639747,348.996648L177.289637,348.259273L178.420427,346.429279L177.307163,346.268710L174.559604,347.271115L174.716267,346.167336L176.264980,344.101547L176.054704,343.288755L176.205122,342.235059L172.030816,344.094652L175.210195,341.018586L174.025715,340.856612L173.056330,340.542293L165.366723,344.476709L168.367661,341.601259L170.577878,339.275029L170.695178,338.265712L170.344848,337.545372L165.397437,339.532789L163.052759,339.930852L160.836615,340.221912L159.100365,340.211900L157.638160,340.027486L158.932347,338.321571L162.523565,335.410932L160.799886,335.377477L164.165168,332.673701L163.139820,332.280471L165.112906,330.365758L164.733373,329.655472L161.839724,330.170569L155.060471,332.507689L156.957996,330.651092L157.817773,329.311638L158.824970,327.924339L161.670612,325.735387L159.294200,325.893266L156.552858,326.176909L159.235073,324.121841L159.986346,322.917628L163.250432,320.702101L163.295480,319.832962L160.913668,319.924606L161.078373,319.001127L160.207213,318.476778L163.041473,316.567904L162.183337,316.048767L159.526201,316.162171L162.558529,314.254130L160.281711,314.208954L161.408467,312.995778L163.157085,311.599114L160.455347,311.655404L157.769166,311.671317L157.673646,310.860267L156.314903,310.428288L156.892743,309.415937L159.740647,307.769579L156.749074,307.785545L157.231963,306.823507L158.854094,305.571306L157.427115,305.125875L157.269871,304.346787L160.204179,302.818992L160.409714,301.976771L159.143013,301.476268L159.031295,300.704707L156.958629,300.355130L156.451014,299.653977L153.685230,299.402326L156.775027,297.977158L155.617415,297.392674L157.046821,296.326744L155.675677,295.769474L154.951689,295.087266L154.367167,294.374688L151.234562,294.048128L156.651628,292.422642L156.578271,291.642702L156.455594,290.869839L158.256504,289.852008L150.426902,290.020629L149.730814,289.273796L148.634933,288.561881L151.008924,287.487185L151.843406,286.589822L138.814646,286.917655L133.849143,286.422246L132.243261,285.612669L134.391521,284.528476L146.572651,282.859358L152.092430,281.714820L148.703455,281.071572L151.954712,280.108707L153.318633,279.254888L156.495306,278.367784L158.035828,277.558353L158.142456,276.791286L157.869520,276.029103L157.227953,275.264265L151.965221,274.471192L153.438214,273.682233L152.889098,272.877285L155.305935,272.135938L155.601821,271.361350L156.863558,270.626085L152.311280,269.653620L145.500552,268.507799L148.036223,267.801967L150.964799,267.153654L153.616770,266.523823L152.946195,265.674265L152.040648,264.795579L149.860870,263.789937L150.505668,263.026244L150.936457,262.248034L145.446089,260.826635L143.232965,259.711559L146.040716,259.181678L146.866220,258.431394L147.685102,257.689749L147.360485,256.794406L145.428227,255.653096L143.342667,254.460331L138.219530,252.743550L140.637829,252.233821L140.097028,251.233313L144.308880,251.092811L146.519339,250.627485L150.762707,250.589394L157.967599,251.208835L155.738383,249.942135L158.219082,249.664550L159.347064,249.115930L157.794967,247.962220L156.664696,246.884905L157.817169,246.347579L155.763835,245.017519L153.233582,243.532921L155.980446,243.410744L154.148705,242.076807L158.335352,242.396041L156.977165,241.182544L156.288901,240.143391L155.835467,239.161840L153.053096,237.453412L146.284454,234.445657L140.308520,231.592205L142.458313,231.325869L147.506032,232.062536L158.679187,234.976288L159.933569,234.564116L160.236757,233.825225L162.525860,233.814040L163.080774,233.184897L161.241447,231.647524L161.435303,230.868441L159.422675,229.213827L159.352756,228.308562L161.215525,228.192632L161.666052,227.508732L161.109969,226.397412L159.989145,225.027190L162.378674,225.187094L159.766010,223.127549L156.980782,220.942513L160.748370,221.761259L160.056464,220.520815L161.618021,220.349745L166.956049,222.048894L165.440925,220.414610L158.903766,216.206486L158.514106,215.048489L160.710222,215.229837L162.428262,215.187246L163.237766,214.676534L163.788953,214.031217L164.473406,213.462689L166.743652,213.795545L166.403007,212.661955L169.599666,213.576749L170.164523,212.983665L170.464126,212.234126L171.158478,211.723156L171.242858,210.840031L171.022541,209.759658L169.639328,207.927183L167.311087,205.450877L167.579939,204.624435L171.104008,205.957612L171.270862,205.085958L174.175289,206.080077L173.851641,204.883586L173.489922,203.645178L177.417415,205.447721L173.862162,201.911265L176.336886,202.712461L175.978263,201.449376L175.004325,199.705925L175.455350,199.020046L176.276100,198.619263L175.230072,196.761283L177.348386,197.385439L178.598442,197.344563L179.461772,197.003977L180.016385,196.415676L180.208309,195.524180L182.271114,196.214927L182.338811,195.222838L184.527048,196.070384L184.584280,195.072649L182.072373,191.762830L181.711601,190.333263L184.483744,191.762843L184.069453,190.277323L185.596495,190.600797L184.359824,188.304973L182.861413,185.710308L185.893895,187.511448L187.344565,187.802256L190.799878,190.136417L189.511623,187.703156L191.214792,188.315150L191.324767,187.287863L189.866482,184.582235L193.010605,186.772133L195.026760,187.804681L193.899087,185.405559L194.805395,185.233401L195.663234,185.015675L194.911954,182.956679L187.190198,172.738944L185.324910,169.173777L186.304611,168.930811L192.056872,174.480820L199.293590,182.018586L199.287516,180.758613L200.987578,181.630234L199.907574,178.984096L200.527230,178.481859L200.547899,177.192319L200.664758,176.008791L203.089757,177.921966L202.805793,176.193710L200.591505,171.751991L201.252611,171.245042L200.797582,169.145159L203.466187,171.518387L202.919203,169.254826L205.200111,171.147670L207.204233,172.690168L208.902665,173.821977L209.051331,172.592598L210.149626,172.835977L212.401705,174.943148L212.036819,172.880182L209.716374,167.549485L213.759265,172.701564L213.785022,171.209914L215.069793,171.852077L214.730638,169.688298L215.194241,168.894223L215.460349,167.731822L215.488803,166.110373L213.281438,160.294696L213.606246,159.087412L215.996416,161.816125L218.222791,164.326588L220.101771,166.243198L220.012868,164.272316L221.772936,166.032874L220.693042,161.952810L222.400579,163.646766L223.044534,163.120674L223.745599,162.713209L223.512044,160.219683L223.408678,157.944634L222.256705,153.177669L223.132172,153.017262L225.463847,156.351377L227.930889,160.152923L230.151221,163.497235L230.520585,162.291404L230.485318,160.004543L231.295096,159.864761L229.816821,153.582325L231.892181,156.799348L234.106483,160.550402L234.592920,159.533369L236.770259,163.419286L236.994446,161.660896L237.409581,160.417565L237.302251,157.500724L237.211782,154.514779L237.975025,154.186103L239.249841,155.562402L239.782298,154.476732L240.228010,153.044225L241.878802,155.884302L243.401801,158.411840L244.664475,160.098807L245.381226,159.764460L246.125047,159.530524L245.984125,155.654982L246.597495,154.756543L247.188227,153.716458L247.959571,153.435211L248.648881,152.766792L249.389569,152.311968L250.224258,152.303238L250.858037,151.275571L252.005564,152.912887L252.165704,149.245808L252.875308,148.449652L254.355779,152.187139L254.383226,147.243486L255.398310,148.267890L256.539047,150.245773L257.408604,150.503055L258.314322,151.065844L259.305382,152.365412L260.142385,152.548990L261.163520,154.370363L261.911036,153.894589L262.274277,149.580663L262.842333,146.836315L263.913375,149.392064L264.563123,147.213927L265.560168,149.290638L266.223870,146.912907L267.123468,147.850808L268.143796,151.203277L268.992114,151.945829L269.876594,153.786546L270.517675,149.500227L271.488862,154.619593L272.341181,157.461015L273.035264,152.787544L273.771527,146.140451L274.624275,149.393298L275.440206,151.019840L276.251696,150.981421Z" />
<line x1="50" y1="600" x2="100" y2="600" fill="none" stroke="red" stroke-width="1.0" stroke-linejoin="round" stroke-miterlimit="10" />
<text x="125" y="603" style="text-anchor:start;fill:black">n0_4mer:D</text>
<path style="stroke:black;stroke-width:1.0" d="M277.444734,88.134506L278.673010,87.854518L279.928931,86.670314L281.196412,85.619534L282.451852,85.239396L283.701657,85.104879L284.896647,86.064747L286.051500,87.506321L287.171574,89.204357L288.288784,90.647101L289.505288,90.600885L290.802606,89.628473L292.134988,88.428654L293.427399,87.810697L294.728626,87.201695L295.977559,87.148410L297.223626,87.140681L298.408697,87.637428L299.519720,88.662202L300.753592,88.715139L301.889205,89.456727L303.218604,88.870262L304.427809,89.108237L305.580151,89.687104L306.740994,90.186827L308.063557,89.758458L309.550201,88.491335L310.915734,87.960156L312.309191,87.340803L313.553651,87.503171L314.730036,87.991738L315.995408,88.060264L317.057507,89.039678L317.915607,90.852878L319.008499,91.599510L319.946634,92.947261L320.995141,93.802584L322.302565,93.635575L323.510646,93.864369L324.837026,93.667246L326.164664,93.491780L327.229497,94.250731L328.055912,95.794999L329.288769,95.942532L330.362626,96.611945L331.785705,96.167696L333.143588,95.960381L333.108225,99.975194L334.336312,100.110459L335.221217,101.246538L336.452530,101.373154L338.542894,99.133413L339.151396,101.019062L340.041683,102.097710L341.193778,102.468541L342.639838,102.090289L344.871578,99.772722L346.901173,98.056167L348.219756,98.137589L349.482056,98.366940L350.428792,99.340434L351.521227,99.963637L352.385106,101.096168L353.433427,101.799729L354.324143,102.838831L355.119739,104.063268L356.628978,103.767259L357.458377,104.901146L358.563843,105.455428L359.323981,106.698698L359.748078,108.579622L361.334844,108.171637L362.546544,108.507628L363.733975,108.896449L364.115108,110.777070L364.517704,112.578873L365.273026,113.713410L366.425036,114.133510L368.662573,112.677673L369.450745,113.757717L369.947682,115.313912L369.252721,118.817712L368.594406,122.177529L368.701297,124.226522L370.292428,123.880427L372.868966,122.021762L375.426191,120.263852L378.010537,118.532957L378.691727,119.719616L379.025314,121.405318L380.006643,122.120034L380.654393,123.312901L381.932930,123.598863L383.947401,122.868512L385.212059,123.210183L386.091515,124.085438L387.039010,124.865504L387.920716,125.731268L388.773071,126.631898L390.285954,126.678546L391.779862,126.768130L393.176102,126.997941L394.086727,127.842222L395.403607,128.189425L396.217605,129.153285L395.542303,131.880893L396.127000,133.081409L396.194131,134.869687L396.424358,136.445883L398.672909,135.728823L400.241942,135.806671L401.773109,135.945311L403.833727,135.528698L404.768995,136.347107L405.724875,137.144572L406.805792,137.813386L406.357517,140.058121L407.105794,141.053840L407.625754,142.274649L408.891425,142.749767L410.371375,143.026336L411.366954,143.784713L411.932344,144.955098L411.530554,147.024955L412.952140,147.377512L413.331696,148.695746L414.795807,149.025936L416.382933,149.261898L416.817236,150.527605L418.072607,151.073315L419.098819,151.825093L419.194392,153.366889L420.899804,153.552975L421.826414,154.398935L422.175175,155.716251L423.518641,156.228738L424.125599,157.334508L424.803372,158.381695L425.781189,159.196652L426.585350,160.147765L426.542375,161.733138L427.692660,162.422755L428.233751,163.563756L428.837566,164.656006L428.851911,166.162917L429.683648,167.085883L430.375993,168.107191L430.575348,169.462794L431.958649,170.017124L432.548140,171.108106L433.213930,172.147795L433.409724,173.488534L434.059835,174.533670L434.119328,175.946343L433.506489,177.760788L434.609961,178.515225L435.141065,179.619005L436.074294,180.485182L438.572443,180.452346L439.698076,181.233725L439.359266,182.845079L439.444231,184.206262L440.001718,185.301882L440.959737,186.182652L442.532677,186.745834L443.439393,187.671067L443.650727,188.956642L443.774255,190.280497L445.255242,190.926975L445.520456,192.179099L445.393038,193.614285L444.711008,195.299328L443.401356,197.254905L444.509720,198.084438L446.219563,198.655327L447.963493,199.230271L449.994264,199.701254L449.642468,201.202870L449.209266,202.725390L449.956226,203.753423L449.478241,205.275251L450.070303,206.363392L451.063992,207.299257L451.187271,208.571567L452.157476,209.526219L451.712175,211.001572L450.289062,212.811045L449.463990,214.385783L450.271035,215.387500L452.211155,216.018179L454.055359,216.702676L455.886215,217.412590L455.554789,218.816301L455.296495,220.187748L455.087935,221.535614L455.109631,222.808808L454.665246,224.209226L454.957510,225.395618L454.771073,226.710143L454.950090,227.922013L455.423825,229.057033L455.926808,230.187221L456.884579,231.210832L457.775807,232.259296L458.953671,233.251146L459.674595,234.356010L459.215154,235.718811L458.892740,237.043529L459.529421,238.169032L459.754139,239.379346L460.081535,240.570446L459.749064,241.881220L459.308830,243.203168L459.549895,244.403431L460.783195,245.446402L462.060138,246.496675L462.960115,247.616465L462.714227,248.905179L461.629176,250.299400L459.318383,251.831101L459.478420,253.035897L459.966010,254.204083L461.602386,255.255372L463.842445,256.266717L462.989986,257.592402L462.041116,258.913627L462.192197,260.133602L462.796655,261.321263L463.106656,262.535210L463.371363,263.754862L463.453380,264.986732L463.477389,266.221520L463.730648,267.446695L463.413679,268.693627L461.238928,269.985884L460.830280,271.213248L460.401063,272.435223L459.913825,273.651785L461.606398,274.860224L462.090873,276.083797L460.217188,277.284714L457.323431,278.442049L453.147835,279.529215L447.853923,280.526346L445.952720,281.585307L445.706160,282.694501L449.085527,283.988336L454.177427,285.426934L456.276107,286.739434L460.472599,288.230159L461.690779,289.545166L461.541804,290.761943L462.916252,292.116881L462.315005,293.298426L461.358206,294.436528L460.618225,295.587706L460.976215,296.859923L461.548796,298.165434L462.013056,299.466394L462.455867,300.772713L461.788310,301.927114L461.756501,303.170850L462.395616,304.522324L462.432865,305.786100L463.139340,307.167505L463.072585,308.423841L462.739260,309.633052L462.263099,310.813502L460.957891,311.826489L459.806703,312.856555L457.940662,313.722991L458.000976,314.988317L458.125725,316.272578L458.326727,317.579977L459.491134,319.124404L460.084706,320.548452L460.291797,321.887074L460.767556,323.302707L459.577948,324.284726L457.117489,324.906333L455.427139,325.714384L453.938286,326.561318L452.494082,327.405116L452.111560,328.554274L453.811545,330.347573L453.576744,331.557663L453.785697,332.913443L454.055736,334.297951L453.095584,335.275660L453.666312,336.774423L454.225012,338.283219L454.454033,339.687491L453.757164,340.760789L452.644292,341.673992L451.912438,342.722948L450.999786,343.697003L451.208721,345.110332L450.572521,346.191093L450.426568,347.471788L448.197230,347.880827L447.153693,348.771013L445.624687,349.440710L443.534479,349.844952L445.046265,351.852035L443.301830,352.393490L442.995762,353.588185L443.866591,355.346162L442.830959,356.204116L443.496434,357.890773L443.900983,359.466570L443.367092,360.581012L443.625566,362.105186L442.941437,363.148340L443.254718,364.721569L442.993949,365.998973L442.197896,366.987542L442.203714,368.420824L441.284536,369.339911L439.721360,369.882819L439.075545,370.945745L437.681100,371.563983L436.317746,372.187455L436.403794,373.684134L436.370903,375.120171L436.664654,376.773112L436.016485,377.841974L434.385525,378.274487L432.296171,378.387959L430.794716,378.866902L430.753990,380.318028L430.989602,381.971015L429.742502,382.610891L428.769582,383.433567L427.853549,384.291755L426.517889,384.841762L427.014969,386.726461L426.651740,387.994895L425.131195,388.396838L424.971808,389.824940L423.555722,390.290036L422.660773,391.151186L422.552709,392.636821L421.361862,393.261714L421.184769,394.707728L420.706385,395.916957L418.783237,395.918083L417.779804,396.677707L416.403583,397.110721L414.491567,397.061700L413.923929,398.178966L413.924211,399.812029L413.298880,400.894904L413.731306,402.958140L413.000865,403.965388L409.975556,402.802501L407.368404,401.986444L405.234978,401.586205L405.214663,403.233716L406.169516,405.875305L407.297516,408.739216L406.952535,410.147469L406.013552,410.953775L404.690573,411.355007L403.641773,412.036437L403.167379,413.333581L402.563392,414.501201L402.058486,415.787475L401.492303,417.017082L401.031006,418.376744L399.754488,418.810967L399.209409,420.089357L398.217263,420.851059L397.324536,421.730823L395.528100,421.514180L394.133713,421.765672L393.069451,422.415034L391.637489,422.595755L391.499630,424.420397L390.733078,425.456776L389.345806,425.682846L388.005499,425.957275L386.384310,425.838479L384.467765,425.290657L383.117544,425.495904L382.520998,426.750802L382.270674,428.516696L382.242992,430.635769L380.583196,430.393020L379.112104,430.405298L378.045012,431.010035L376.176332,430.381730L376.501528,433.133915L375.431452,433.741713L374.662047,434.830258L374.596114,437.076498L373.637314,437.895672L372.364599,438.193903L370.629763,437.695699L367.577613,434.888230L364.535406,431.993640L364.100318,433.633295L363.702041,435.372389L364.115887,438.639101L364.018155,441.036541L361.978978,439.813144L360.973851,440.522844L360.042813,441.382285L359.497381,443.018427L358.706869,444.195091L357.127795,443.772318L355.806097,443.854900L355.274597,445.601588L354.718429,447.337149L353.558278,447.786682L351.793900,446.881546L349.959331,445.766177L349.112848,446.884287L348.357301,448.240356L347.692751,449.847818L346.084455,449.185289L344.469367,448.462826L342.519336,446.842430L340.989126,446.230577L340.229926,447.617546L339.129695,448.122637L338.789223,450.724192L338.086506,452.398073L337.043888,453.149354L336.139372,454.320548L334.612819,453.661236L333.307001,453.631433L331.852075,453.115825L330.227679,452.016022L328.820614,451.560358L327.882018,452.639561L326.861827,453.473909L325.839796,454.326546L325.141934,456.378386L324.162456,457.475077L323.158075,458.518314L321.814176,458.272247L320.442402,457.883015L319.218624,458.067009L318.140025,458.863546L317.313837,460.799592L316.186439,461.475268L314.677876,460.395992L313.479417,460.725040L312.162911,460.470217L310.749228,459.678369L309.765293,461.112605L308.431848,460.696256L306.902558,459.100244L305.738603,459.551639L304.422113,459.069810L303.236256,459.381920L302.308436,461.467612L301.126086,461.914655L299.818637,461.449563L298.584270,461.496307L297.308710,461.187328L295.953841,460.124326L294.701274,459.872075L293.576004,460.842892L292.336615,460.711488L291.128916,460.908111L289.984324,461.906879L288.716334,461.389980L287.694823,464.431961L286.700469,468.566560L285.518694,470.211875L284.236109,470.164121L282.912329,469.071177L281.538687,466.082683L280.251518,464.784214L279.008550,464.752013L277.748184,463.474152L276.505011,462.225480L275.278892,461.368712L274.058118,461.679084L272.857776,459.868824L271.638924,460.375833L270.425375,460.387372L269.233769,459.678723L268.020566,459.774469L266.775416,460.549151L265.546515,460.791027L264.292590,461.399181L262.940863,463.396168L261.833653,461.542431L260.596296,461.676669L259.426518,460.968008L258.134924,461.696358L256.815044,462.602380L255.583021,462.529143L254.286842,463.031854L253.322587,460.619986L251.993908,461.404761L250.739499,461.523008L249.614655,460.666674L248.306550,461.152509L247.224791,460.071395L246.169583,458.897678L244.930867,458.927219L243.665360,459.096306L242.222095,460.241517L240.782844,461.265004L239.572081,461.000333L238.319766,460.948568L237.441557,459.051002L236.338940,458.324295L235.018147,458.629366L233.765681,458.595639L232.348430,459.259786L231.094667,459.183558L229.968147,458.576714L229.177920,456.653867L228.119169,455.854055L226.982081,455.374368L225.799837,455.068443L224.487959,455.224239L223.223732,455.190326L222.434482,453.528581L221.289361,453.109071L219.660708,454.259003L218.654903,453.368626L217.393162,453.293611L216.298614,452.699270L215.173383,452.204851L214.202931,451.266042L212.394869,452.727587L211.055860,452.808319L210.910602,449.616497L209.300558,450.446213L208.604751,448.833118L207.650465,447.929082L205.215136,450.773062L203.794792,450.984936L203.235875,449.082170L202.398689,447.894330L201.878720,445.990349L201.280718,444.316270L199.121040,446.207694L197.545182,446.721885L196.350461,446.370584L195.157024,446.010994L194.297423,444.942957L193.290707,444.197484L192.372937,443.277796L191.530696,442.219131L190.755324,441.045182L188.994839,441.801670L187.615403,441.789159L186.479174,441.302220L185.583426,440.367673L185.995996,437.061658L184.937721,436.475942L184.025001,435.633119L182.782926,435.370504L181.370230,435.390005L180.418588,434.612737L179.498877,433.787036L178.149525,433.671086L176.363141,434.245699L175.296885,433.639366L174.241063,433.015354L173.508283,431.890969L172.758453,430.805588L171.699826,430.195849L169.819399,430.801577L168.413981,430.677522L167.404976,429.966655L166.623816,428.932361L166.498039,426.988928L166.202432,425.313795L166.234707,423.218023L165.819602,421.761080L163.935984,422.271407L162.253647,422.485225L159.484105,424.076659L156.897484,425.372612L156.173237,424.274016L155.026560,423.707535L155.354085,421.332269L155.348559,419.400904L154.213533,418.844850L153.429042,417.870707L153.182767,416.277048L151.487962,416.362064L150.317230,415.831854L149.548865,414.845682L147.989232,414.734343L148.585325,412.263606L148.662386,410.391695L147.375714,409.989280L145.500861,410.189705L143.687621,410.299564L141.911268,410.346873L141.116934,409.384769L140.507112,408.242098L139.861806,407.140911L139.459026,405.811272L139.185516,404.369944L137.768283,404.018180L136.056613,403.925496L134.432515,403.731472L133.138929,403.219905L132.611037,402.014508L133.556656,399.519033L133.773769,397.697364L133.002599,396.746450L132.390525,395.661498L130.567818,395.591326L129.502212,394.874428L127.809289,394.661338L126.844351,393.844510L126.422961,392.593451L125.952463,391.388143L126.016247,389.777351L125.139191,388.898610L124.177240,388.080797L123.199483,387.270132L123.367150,385.618936L122.677188,384.602708L121.892079,383.654540L120.150083,383.374605L118.538998,382.984184L118.321688,381.627751L116.880068,381.102052L116.960901,379.554949L117.002819,378.047614L116.794772,376.714342L117.463285,374.834036L116.400031,374.059607L114.541709,373.767015L113.054594,373.227399L110.848719,373.102222L110.544425,371.829642L110.217299,370.576105L109.660712,369.458871L110.854940,367.357593L110.571386,366.106099L110.845897,364.555492L110.968419,363.101126L109.102504,362.709827L108.099763,361.847737L106.177638,361.449212L105.894828,360.202327L106.550785,358.494631L107.648809,356.591003L109.542281,354.332404L107.375892,354.026655L105.637508,353.496156L104.274374,352.775240L102.719486,352.126672L105.022280,349.764803L106.246770,347.912428L104.829714,347.207343L103.507022,346.448357L101.631594,345.902291L100.637781,344.980827L100.055756,343.889069L100.553455,342.378292L99.414942,341.501326L98.092951,340.681959L97.949010,339.420668L96.342017,338.685014L95.929223,337.514903L95.464945,336.362332L95.221492,335.134977L95.117104,333.864297L94.723967,332.690086L94.994723,331.307973L94.773685,330.085355L94.177598,328.976685L94.332461,327.645729L92.969803,326.753310L92.659231,325.554712L93.020329,324.174900L92.690439,322.986551L92.864834,321.668765L92.151000,320.579078L90.896901,319.614539L89.367752,318.701424L88.366782,317.650437L88.274844,316.388023L89.425928,314.861064L90.760294,313.315313L90.942547,312.022945L90.765647,310.806156L90.817960,309.547152L89.451805,308.548386L89.322522,307.318838L89.090411,306.107604L88.014508,305.031505L88.711687,303.670716L87.959174,302.535194L87.287850,301.380610L87.020161,300.165336L87.938496,298.797805L90.145034,297.289226L90.301286,296.045493L91.087395,294.738057L88.499357,293.782545L87.409643,292.653450L91.843869,291.028093L94.309866,289.621853L95.190517,288.367205L94.271231,287.247268L90.613730,286.283872L87.373190,285.250631L86.948020,284.040399L87.479971,282.785629L86.620946,281.587136L85.932066,280.373120L85.501007,279.144904L85.140444,277.910320L85.950539,276.660981L86.168746,275.423712L87.882713,274.195763L87.179431,272.963968L86.159297,271.717288L85.747383,270.471528L85.843536,269.235472L86.722325,268.029157L87.271544,266.819398L87.466422,265.598372L86.096564,264.290385L86.520012,263.076940L85.828830,261.790199L85.881898,260.550100L86.279483,259.338047L85.327584,258.008994L87.110310,256.928934L87.531013,255.730857L90.506957,254.816223L91.723332,253.735087L90.662735,252.388940L90.628621,251.159474L87.951770,249.568162L88.023132,248.330947L89.054747,247.235736L90.043245,246.145166L92.099197,245.239008L93.074332,244.174714L94.338706,243.171788L94.686059,242.015360L94.009073,240.666396L92.839111,239.208350L90.957731,237.586600L90.753747,236.288318L89.263853,234.704813L88.567651,233.274920L88.406059,231.955040L87.621302,230.480996L88.875909,229.490724L91.068971,228.749699L93.106330,227.994737L93.876884,226.927693L94.134931,225.727416L93.702600,224.333298L92.812101,222.797125L93.253463,221.634578L94.468433,220.706000L97.109557,220.228793L99.451007,219.689866L101.720418,219.156196L102.421906,218.133376L101.565447,216.590649L99.787954,214.712968L98.570244,213.000222L97.508719,211.319650L97.400836,209.966454L98.157979,208.928535L98.126711,207.595002L99.119121,206.652198L99.325926,205.406387L100.526867,204.558188L101.661988,203.694174L102.547253,202.735690L102.759222,201.496222L103.874385,200.645037L104.718891,199.683919L105.283638,198.602371L106.548571,197.842559L105.141870,195.849856L104.454521,194.167454L103.917107,192.537833L104.347962,191.365387L106.644323,191.120501L108.021969,190.438900L109.412408,189.777438L108.378216,187.861750L107.991348,186.263275L108.124366,184.929176L109.144693,184.073814L111.021023,183.702286L111.153829,182.366951L112.197013,181.546032L111.720928,179.847252L112.196256,178.692034L112.443921,177.397389L111.868873,175.594457L112.054810,174.240108L111.976176,172.711195L115.106025,173.211173L118.831356,174.141036L119.609529,173.196928L120.289244,172.189488L120.343121,170.760365L119.201575,168.502146L120.826293,168.126220L122.449223,167.766966L122.543168,166.335938L123.247158,165.333594L123.614866,164.084599L124.434018,163.163727L124.999074,162.053306L125.035594,160.535901L125.303108,159.182462L125.109733,157.457346L125.715508,156.347068L128.782801,157.216005L130.553924,157.076320L131.694477,156.436733L133.076699,156.007811L131.466839,153.050185L131.547659,151.493916L132.735502,150.886859L132.857352,149.346128L135.060594,149.653422L136.503827,149.303566L137.237052,148.315616L138.644986,147.954005L138.606309,146.240855L139.135344,145.048907L139.970413,144.145484L140.401144,142.844532L141.374919,142.072639L141.542951,140.491367L141.752224,138.933430L142.818965,138.244438L144.208296,137.898262L145.450789,137.409655L146.821716,137.068789L147.135270,135.588293L147.706035,134.374806L148.662020,133.582372L150.011506,133.237160L152.976705,134.761477L155.973535,136.384814L157.763828,136.648745L158.703484,135.923129L157.873288,133.053568L156.665278,129.663168L156.953046,128.063748L157.652764,126.961553L158.600611,126.167513L159.286531,125.033120L160.171627,124.150034L161.431165,123.761960L162.609001,123.273391L164.968430,124.408814L166.738015,124.777444L167.404380,123.624077L168.368254,122.882497L167.979444,120.182869L168.184762,118.298127L169.288874,117.716847L170.582469,117.424675L171.704418,116.881025L172.551491,115.914369L173.848986,115.648652L174.316737,114.068296L175.634123,113.838746L177.164407,113.972104L177.282402,111.769473L178.244351,110.950656L178.842290,109.499686L179.163241,107.539589L180.985129,108.201331L182.454469,108.267572L184.200690,108.861466L186.930313,111.320549L188.254571,111.222962L189.270037,110.548137L190.142257,109.590389L190.200855,107.007626L190.778971,105.403968L191.758553,104.587044L193.264911,104.857488L194.636001,104.869019L195.908653,104.687090L197.154283,104.457653L198.481392,104.419715L199.583809,103.888475L201.425025,105.062286L202.758436,105.102320L203.486102,103.710446L204.243126,102.355564L204.800234,100.469763L205.755326,99.537483L206.800853,98.820105L207.892737,98.214098L208.823950,97.169614L209.671732,95.871387L210.664082,94.941631L212.140680,95.374202L213.325209,94.990485L214.794265,95.456134L216.032449,95.256179L217.114084,94.576672L218.475199,94.774428L219.790947,94.850765L221.275344,95.511460L222.622490,95.751831L223.703669,95.088416L224.754450,94.299000L225.535399,92.490019L226.516593,91.360480L227.793658,91.337832L229.129598,91.566584L230.631817,92.509497L231.703010,91.699983L232.986880,91.786222L233.931172,90.368189L234.950191,89.223577L236.424376,90.201569L237.636594,89.965423L239.001089,90.510247L240.218014,90.327839L241.683703,91.518802L243.013897,92.043665L244.002139,90.593144L245.145426,89.999367L245.928265,87.040579L246.971821,85.592996L248.332176,86.267817L249.749220,87.447885L251.156023,88.687960L252.412999,88.846227L253.581406,88.267746L254.752387,87.659316L255.932939,87.083111L257.211071,87.472672L258.529452,88.393924L259.767849,88.501991L261.073401,89.540784L262.228830,88.605529L263.393583,87.640058L264.562820,86.544581L265.724558,85.019392L266.979190,85.237568L268.226109,85.339081L269.480832,85.773683L270.713464,85.504158L271.942152,84.792674L273.197539,85.932573L274.434947,86.099870L275.663918,88.013182L276.876035,89.121745Z" />
<line x1="50" y1="550" x2="100" y2="550" fill="none" stroke="black" stroke-width="1.0" stroke-linejoin="round" stroke-miterlimit="10" />
<text x="125" y="553" style="text-anchor:start;fill:black">GC-content</text>
</g>
<g style="fill:pink;stroke:black">
<a href="" title="CP007140:1 [159000-186099];"><path  d="M389.298141,75.410584L392.764048,77.435760L396.194083,79.521116L399.587202,81.666017L402.942370,83.869809L406.258565,86.131821L394.844777,102.555141L394.844777,102.555141L391.816946,100.489825L388.753532,98.477667L385.655467,96.519280L382.523696,94.615259L379.359172,92.766185Z" />
</a><a href="" title="CP007140:2 [478500-510599];"><path  d="M504.996324,273.699630L504.983989,277.713818L504.901599,281.727178L504.749178,285.738490L504.526774,289.746530L504.234453,293.750079L503.872306,297.747916L483.970366,295.769836L483.970366,295.769836L484.301022,292.119637L484.567924,288.464223L484.770989,284.804708L484.910155,281.142206L484.985381,277.477834L484.996644,273.812706Z" />
</a><a href="" title="CP007140:3 [710000-729099];"><path  d="M443.042454,432.040547L440.276125,434.949375L437.459451,437.809480L434.593291,440.619991L420.715613,426.218253L420.715613,426.218253L423.332543,423.652134L425.904288,421.040733L428.430067,418.384848Z" />
</a><a href="" title="CP007140:4 [792000-814099];"><path  d="M395.416423,470.958886L391.978129,473.030597L388.504202,475.041986L384.995700,476.992440L381.453693,478.881365L372.196850,461.152551L372.196850,461.152551L375.430857,459.427880L378.634271,457.647031L381.806117,455.810545L384.945429,453.918983Z" />
</a><a href="" title="CP007140:5 [1148500-1166099];"><path  d="M142.285174,462.847744L139.026991,460.502941L135.810228,458.101631L132.635863,455.644548L145.015353,439.936326L145.015353,439.936326L147.913687,442.179750L150.850731,444.372250L153.825593,446.513157Z" />
</a><a href="" title="CP007140:6 [1409000-1431099];"><path  d="M46.234167,298.794828L45.853733,294.798690L45.543098,290.796521L45.302358,286.789540L45.131586,282.778967L65.120144,282.102535L65.120144,282.102535L65.276066,285.764362L65.495872,289.422910L65.779495,293.077065L66.126849,296.725713Z" />
</a><a href="" title="CP007140:7 [1484000-1501599];"><path  d="M47.304527,242.522754L47.906012,238.553867L48.576672,234.596081L49.316303,230.650603L68.940973,234.507072L68.940973,234.507072L68.265657,238.109466L67.653315,241.723096L67.104133,245.346863Z" />
</a><a href="" title="CP007140:8 [1698500-1719599];"><path  d="M122.048630,103.227247L125.069773,100.584040L128.136587,97.993961L131.248136,95.457800L143.748298,111.070165L143.748298,111.070165L140.907318,113.385790L138.107184,115.750645L135.348749,118.164009Z" />
</a></g>
<text x="275" y="280" style="text-anchor:middle" font-size="25" font-weight="bold">CP007140</text>
<path  style="fill:pink;stroke:black" d="M350,550L375,550L375,565L350,565Z" />
<text x="405" y="565" style="text-anchor:start;fill:black">Selected loci;</text>
</svg>