<svg xmlns="http://www.w3.org/2000/svg" viewbox="0 0 550 650">
<circle cx="275" cy="275" r="240" fill="none" stroke="black" stroke-width="1.0" />
<line x1="275" y1="15" x2="275" y2="55" fill="none" stroke="grey" stroke-width="1.0" stroke-linejoin="round" stroke-miterlimit="10" />
<line x1="495" y1="275" x2="535" y2="275" fill="none" stroke="grey" stroke-width="1.0" stroke-linejoin="round" stroke-miterlimit="10" />
<line x1="275" y1="495" x2="275" y2="535" fill="none" stroke="grey" stroke-width="1.0" stroke-linejoin="round" stroke-miterlimit="10" />
<line x1="15" y1="275" x2="55" y2="275" fill="none" stroke="grey" stroke-width="1.0" stroke-linejoin="round" stroke-miterlimit="10" />
<text x="275" y="10" style="text-anchor:middle" font-size="15">Ureaplasma parvum serovar 3 str. ATCC 700970, complete genome.</text><text x="285" y="25" style="text-anchor:start">751,719</text><text x="525" y="265" style="text-anchor:start">0.18 Mbp</text><text x="285" y="530" style="text-anchor:start">0.37 Mbp</text><text x="-200" y="25" style="text-anchor:end" transform="rotate(-90)">0.56 Mbp</text><circle cx="453.046778" cy="114.067266" r="2.500000" fill="grey" stroke="black" stroke-width="1.0" />
<circle cx="513.779623" cy="299.172126" r="2.500000" fill="grey" stroke="black" stroke-width="1.0" />
<circle cx="417.182034" cy="468.350120" r="2.500000" fill="grey" stroke="black" stroke-width="1.0" />
<circle cx="226.901573" cy="510.130903" r="2.500000" fill="grey" stroke="black" stroke-width="1.0" />
<circle cx="68.312871" cy="396.985371" r="2.500000" fill="grey" stroke="black" stroke-width="1.0" />
<circle cx="45.909054" cy="203.464424" r="2.500000" fill="grey" stroke="black" stroke-width="1.0" />
<circle cx="174.451861" cy="57.077831" r="2.500000" fill="grey" stroke="black" stroke-width="1.0" />

<circle cx="275" cy="275" r="185" fill="white" stroke="grey" stroke-width="0.5" />
<circle cx="275" cy="275" r="170" fill="none" stroke="black" stroke-width="0.5" />
<circle cx="275" cy="275" r="170" fill="aliceblue" stroke="black" stroke-width="0.5" />
<circle cx="275" cy="275" r="158" fill="white" stroke="none" stroke-width="0.5" />
<circle cx="275" cy="275" r="140" fill="none" stroke="black" stroke-width="0.5" />
<circle cx="275" cy="275" r="140" fill="aliceblue" stroke="black" stroke-width="0.5" />
<circle cx="275" cy="275" r="133" fill="white" stroke="none" stroke-width="0.5" />
<circle cx="275" cy="275" r="110" fill="none" stroke="black" stroke-width="0.5" />
<circle cx="275" cy="275" r="110" fill="white" stroke="black" stroke-width="0.5" />
<circle cx="275" cy="275" r="109" fill="aliceblue" stroke="none" stroke-width="0.5" />
<circle cx="275" cy="275" r="80" fill="none" stroke="black" stroke-width="0.5" />

<g style="fill:none;stroke-linejoin:round;stroke-miterlimit:10">
<path style="stroke:blue;stroke-width:1.0" d="M280.123367,121.798292L282.680755,121.961662L285.174862,123.052524L287.690855,123.513012L290.299441,122.970314L292.924013,122.521052L295.594153,121.921792L298.068223,122.827816L300.367453,124.664511L303.100827,123.905681L305.512681,124.937135L307.959861,125.726382L310.884231,124.478957L313.049634,126.449498L315.930000,125.637474L318.686379,125.434094L322.072574,123.310352L324.288828,125.069981L325.244716,130.358095L327.595234,131.382868L330.625985,130.627843L333.609196,130.150233L336.350898,130.375632L339.733846,129.228138L341.881786,130.933192L343.364108,133.962228L343.972490,138.565929L346.748981,138.778230L348.993164,140.038363L350.961011,141.781369L354.230960,141.291600L356.248304,142.970545L358.104332,144.878926L359.993197,146.700855L361.633187,148.857066L363.463670,150.696660L365.706797,151.951835L367.466882,153.857524L369.676154,155.170584L371.494126,156.980158L373.639492,158.389739L375.581125,160.047867L377.304471,161.948742L378.929938,163.941825L381.186208,165.266466L382.679758,167.382552L385.736881,167.966927L388.168262,169.218214L391.928423,169.309973L392.047271,172.705222L393.617606,174.780242L395.358625,176.709845L396.608592,179.032413L398.483390,180.859388L399.684712,183.198138L401.177312,185.312649L402.059465,187.845543L403.788377,189.789925L407.045090,190.774424L407.913262,193.313848L406.659034,197.086353L407.571141,199.509837L410.873993,200.608887L411.568360,203.169415L413.037993,205.316957L414.517764,207.472375L414.008875,210.564092L415.284936,212.799956L416.459137,215.088410L417.618623,217.389614L421.016446,218.837520L438.110707,215.372911L455.945371,212.261784L437.087773,221.818304L423.515971,229.006512L420.841291,232.493138L422.483534,234.676664L425.092039,236.648080L425.111674,239.305176L424.919166,241.988596L426.793751,244.226857L428.590304,246.526931L427.874756,249.295071L428.498895,251.821539L429.472915,254.309235L431.800737,256.659964L427.399557,259.752437L428.917531,262.195237L432.962919,264.514164L431.694536,267.226670L428.088774,269.969118L428.463666,272.523826L427.871938,275.089124L428.020326,277.647492L429.902630,280.271308L428.417119,282.790078L427.178616,285.280101L430.403735,288.110876L431.190698,290.810829L430.627807,293.386815L429.466470,295.873269L428.308221,298.332534L424.966535,300.395770L424.862894,302.962854L424.400485,305.469360L424.604168,308.124986L423.402192,310.471201L422.850120,312.962763L422.695868,315.566535L422.021458,318.036886L421.427656,320.533941L422.917620,323.723520L422.506133,326.336755L423.755487,329.576076L420.837841,331.289075L418.197005,333.038326L416.839169,335.267690L414.916236,337.231884L413.473963,339.384215L412.304988,341.654339L410.917335,343.811495L409.577570,345.983943L408.334803,348.203105L408.265199,351.091291L407.266133,353.481294L405.159850,355.203194L404.161760,357.598464L401.977702,359.225113L400.866960,361.552462L399.610893,363.792821L397.954998,365.749596L396.560676,367.899104L396.084263,370.783132L394.642855,372.938387L393.383352,375.258642L394.244776,379.460800L393.629497,382.479203L395.505619,387.903799L393.780973,390.076304L391.616135,391.820764L386.654117,390.653654L384.099755,391.855382L379.774464,391.052416L376.147994,390.872345L374.565814,392.984073L373.637009,395.928223L371.300263,397.177606L368.186466,397.380820L365.553885,398.141094L363.024442,398.991949L361.987633,401.976031L360.689292,404.678077L358.080294,405.418409L355.433834,406.048023L352.829437,406.693104L351.337154,409.241822L349.760684,411.739556L347.130767,412.334755L344.412275,412.702548L341.710718,413.036598L339.183253,413.677171L337.008239,415.074254L335.106286,417.151213L333.368488,419.740025L331.213667,421.406037L329.053497,423.133748L327.021442,425.321883L324.190602,425.221392L320.959446,423.715005L317.941695,422.655890L319.454732,437.970314L323.546197,465.453981L324.131429,482.158614L308.298590,426.647345L305.066699,423.757606L303.514575,429.319728L301.116998,430.885160L297.962679,427.677062L295.289104,427.153120L292.714815,427.229949L290.177607,427.604872L287.609692,427.657587L285.031379,427.471363L282.450381,426.987913L279.948420,428.321888L277.379449,428.039717L274.819542,429.213898L272.237254,429.438854L269.639456,429.849839L266.999524,430.754864L264.340706,431.425963L261.890215,429.309139L259.326174,428.935162L256.702283,429.097074L254.141595,428.676464L251.582365,428.262326L248.800540,429.162539L246.582510,426.805048L244.198438,425.577754L241.818371,424.444193L239.496069,423.154323L237.035354,422.497858L234.436362,422.346500L232.112143,421.193915L229.550340,420.854531L227.007775,420.410125L224.263923,420.504923L222.161053,418.759567L219.923287,417.447720L217.509838,416.605623L215.113964,415.711336L212.634533,414.995137L210.575723,413.347583L208.197710,412.404337L206.081690,410.930198L203.235478,410.864074L201.608547,408.492003L199.448472,407.139614L196.043345,407.889401L193.537704,407.029570L191.668007,405.140377L188.483871,405.265521L186.747120,403.178484L185.315124,400.706544L183.138664,399.308441L181.454312,397.257884L179.979989,394.974715L178.430868,392.828932L176.593768,391.057815L174.476020,389.614941L172.571023,387.922013L170.080515,386.852016L168.585361,384.711483L167.271264,382.413817L164.938577,381.130488L162.975919,379.466056L161.970746,376.924693L160.458642,374.867695L157.924894,373.681102L156.650523,371.417944L154.847982,369.589368L152.294619,368.319828L150.085554,366.744987L150.138706,363.531387L147.960384,361.921633L146.197230,360.002291L145.980387,357.082760L145.238115,354.539577L142.409932,353.254525L138.309087,352.623658L134.624391,351.641622L134.655554,348.606406L135.200406,345.366427L136.241349,341.959196L135.847689,339.303976L134.690534,337.013856L133.925442,334.553419L132.318844,332.440839L131.327022,330.067512L131.097209,327.413908L130.292451,324.983380L129.674597,322.492927L129.576041,319.848841L128.189318,317.602410L126.817656,315.327429L125.688321,312.965782L124.209027,310.669310L122.219896,308.453298L120.410350,306.150995L123.739162,302.857526L124.638883,300.100742L121.592276,297.980463L114.502995,296.305824L116.268399,293.376945L120.562578,290.268292L115.973237,288.041783L114.620544,285.457091L111.133863,282.936200L108.513618,280.275443L112.491834,277.431220L113.818769,274.716747L115.180113,272.047119L115.910977,269.399178L114.993913,266.686953L116.815455,264.127554L120.114880,261.749674L120.800024,259.207724L121.099214,256.633943L121.025092,254.009003L120.900531,251.361850L122.706481,249.026159L124.318486,246.701245L124.641491,244.151294L124.878481,241.575476L126.445694,239.307966L127.003711,236.814391L124.854066,233.570835L121.604410,229.901600L123.015199,227.542164L125.946255,225.708134L128.082445,223.674577L129.460324,221.409749L131.007183,219.228671L132.345808,216.986538L134.351006,215.042927L136.245286,213.089452L137.268822,210.764326L137.979312,208.284729L137.545553,205.207388L137.026903,202.017824L138.103455,199.632079L141.237362,198.416246L142.639726,196.252536L142.685290,193.254465L144.501298,191.330478L147.036602,189.904508L149.248361,188.309154L151.154967,186.533433L153.025208,184.752401L151.905643,180.699638L154.084707,179.119463L156.115761,177.449218L156.124563,174.084643L155.342125,169.928702L158.561069,169.256216L161.111750,168.044703L163.889688,167.101874L166.417621,165.971311L169.026209,164.971853L171.063111,163.412079L172.491095,161.188585L174.728667,159.859278L176.694092,158.230955L178.466687,156.366724L180.511407,154.830881L182.221766,152.857976L184.620932,151.793740L186.988504,150.717339L189.166310,149.392264L190.870062,147.356125L192.606494,145.323886L194.531703,143.549820L196.577540,141.946971L198.581661,140.247382L201.061571,139.386254L202.516984,136.599997L205.210303,136.143253L207.871783,135.682152L210.946732,136.176211L213.521014,135.679515L215.935957,134.855096L218.175954,133.611351L220.411030,132.324927L222.763104,131.320899L224.882092,129.626420L227.548562,129.512285L229.978010,128.709633L232.250671,127.359179L235.023564,127.766229L237.294074,126.344861L239.781149,125.722101L242.388404,125.644253L244.872812,125.036413L247.455081,124.941956L250.114006,125.384423L252.623894,125.025701L255.107627,124.473046L257.478809,122.878192L259.913513,121.480878L262.303059,119.054115L264.944194,119.367575L267.583014,119.970606L270.192795,120.423381L272.811589,122.744659L275.356484,122.951573L277.919822,121.838614Z" />
<line x1="50" y1="575" x2="100" y2="575" fill="none" stroke="blue" stroke-width="1.0" stroke-linejoin="round" stroke-miterlimit="10" />
<text x="125" y="578" style="text-anchor:start;fill:black">n1_4mer:GRV/n1_4mer:RV</text>
<path style="stroke:green;stroke-width:1.0" d="M278.271745,177.166504L279.798938,179.381589L281.094806,183.982514L282.577392,184.550910L284.919982,176.425695L286.527383,176.936958L287.504391,182.053726L289.423090,179.856431L290.649823,182.254236L292.261263,182.188539L293.275543,185.119979L295.092241,184.003210L297.296269,181.475417L297.904348,185.578579L298.636894,188.743802L300.129932,188.964464L301.226279,190.486775L303.041140,189.702604L304.959168,188.755088L306.559521,188.823220L310.700407,182.342860L312.128133,183.239632L313.163610,185.035743L317.466497,179.371196L318.356004,181.608937L316.785944,188.793997L317.119900,191.682877L319.601796,190.319554L319.688788,193.488795L320.858621,194.574231L322.475196,194.881919L324.927960,193.866474L327.672743,192.527358L327.860290,195.206202L329.551111,195.570426L331.388770,195.766203L331.707386,198.073683L330.962842,201.682104L329.684955,205.786519L334.662216,202.028456L336.010924,202.873718L334.693148,206.777909L337.744118,205.664796L338.130984,207.539054L337.742475,210.161508L337.374543,212.661550L342.345853,209.906659L346.436422,208.226223L353.583087,203.969805L351.924894,207.770624L351.099264,210.703897L348.062500,215.333944L351.204095,214.863434L354.782012,214.176213L355.098180,216.025953L356.731018,216.905257L349.183656,224.114879L350.190995,225.251486L352.250913,225.725145L351.253260,228.136088L354.105693,228.186554L353.167638,230.488897L356.776721,230.227184L357.895263,231.399746L362.482627,230.837842L363.563867,232.134437L361.783579,234.772506L364.775188,235.195151L363.929623,237.336013L362.458115,239.671544L368.714865,238.954339L378.388759,237.204991L382.901371,237.587938L369.677069,243.936046L366.784270,246.575591L363.043680,249.338813L366.125206,250.085542L370.646916,250.560044L371.242933,252.114541L368.374384,254.439457L364.587095,256.838011L362.460281,258.786329L367.664990,259.418964L366.621687,261.165049L369.211275,262.380938L371.917831,263.664106L371.211698,265.374028L370.663307,267.041544L369.522808,268.725422L367.334284,270.419465L366.681862,271.987104L367.757563,273.503334L362.462845,275.050991L368.514620,276.617950L373.341297,278.346536L368.741796,279.759937L366.571229,281.185898L375.851199,283.508467L379.802729,285.608942L378.115333,287.182672L380.665163,289.278681L374.829199,290.193368L364.916872,290.226785L368.577256,292.460541L363.036871,292.954608L360.809616,293.999754L365.670940,296.672234L365.731195,298.296612L367.676942,300.454893L365.449508,301.476851L370.177663,304.596964L375.990269,308.265823L375.580650,310.005217L373.664679,311.198537L369.063626,311.305765L363.773017,310.980063L364.617712,313.078709L362.981153,314.132220L362.122020,315.507853L360.864643,316.682761L359.559988,317.810574L358.521057,319.053805L353.541642,318.120715L353.437328,319.785867L355.690696,322.878547L353.560918,323.408450L347.645907,321.456787L350.846383,325.309386L356.573873,331.094304L354.803949,331.865155L353.133870,332.668392L351.068664,333.133197L350.410095,334.652798L347.908309,334.681977L348.452679,337.206938L350.138317,340.822664L354.323656,346.867820L356.390100,351.255792L353.329145,350.886132L351.470579,351.604763L349.015407,351.666696L347.155823,352.285200L345.638187,353.241701L339.017785,348.337005L335.793642,347.039601L333.099532,346.229585L330.066526,344.863738L328.074382,344.702036L325.966570,344.307675L327.433522,348.858288L327.553921,351.713069L327.275148,354.110710L325.752952,354.671351L325.176352,356.750570L325.594549,360.609681L323.697205,360.635908L322.215214,361.358056L319.680897,360.071050L318.118681,360.540377L316.138496,360.123025L314.319632,359.955733L313.120132,361.111929L309.899484,357.537191L307.672423,356.019869L307.329907,359.201829L306.604713,361.612797L304.382014,359.902678L303.510410,362.066906L302.438255,363.784364L302.464446,369.437054L303.759775,380.432862L303.713533,387.647480L301.875540,388.318495L296.014881,370.705282L292.580104,361.979092L290.875468,360.917390L289.688874,362.673840L288.164368,362.528859L287.001151,364.999662L285.726639,367.177972L284.652404,372.051132L282.961764,371.388058L281.034516,366.721284L279.446052,365.699530L277.851729,363.357985L276.367819,362.974404L274.891827,367.441695L273.277727,371.275893L271.756421,368.697147L270.147955,369.460581L268.334331,372.819210L266.381945,376.439088L264.684411,376.311058L262.965840,376.347557L261.809103,372.185304L260.309281,371.146934L258.403013,372.659785L257.561604,368.155184L256.489934,365.489053L254.869347,365.664903L252.854274,367.411879L249.886885,372.567898L248.554363,371.063182L248.943497,363.820063L247.718920,362.548930L246.586578,361.088931L244.429791,362.671657L244.705040,357.423868L242.919812,357.970631L239.292149,362.953003L235.938974,366.779813L234.385526,366.169506L234.520457,361.927587L232.072153,363.297456L232.883877,358.067227L231.019104,358.264314L231.818548,353.542913L230.421240,352.968247L229.772351,351.121198L227.938709,351.274330L227.446267,349.265123L224.122047,351.605866L222.772854,350.854707L218.490008,354.207065L217.462558,352.860719L219.655825,347.331091L218.394150,346.472005L219.774489,342.383468L214.956793,345.813437L214.850433,343.581039L214.989282,341.158340L212.076462,342.081196L211.492351,340.475187L213.180050,336.639234L209.002623,338.640226L206.282799,339.080999L206.776898,336.520522L206.403344,334.808877L201.838342,336.667021L206.857309,330.515059L205.356795,329.826435L202.362209,330.242452L201.135724,329.250548L200.457125,327.853722L194.758319,329.902071L192.939590,329.155068L197.455619,324.334025L200.674435,320.559017L198.678745,320.044728L192.477041,321.862910L193.362609,319.572003L195.161588,316.872826L195.508692,315.010984L191.580856,315.254635L188.229869,315.097534L189.620989,312.735741L189.818825,310.958505L189.269069,309.513714L189.186034,307.891095L186.970893,307.062961L182.355240,307.000392L184.447729,304.592847L188.305728,301.736568L187.101183,300.507010L184.150253,299.724516L179.665755,299.240831L180.975588,297.241291L179.555235,295.898939L178.046642,294.536842L185.108292,291.555247L188.191937,289.491425L183.674380,288.680570L176.699091,288.049352L179.908543,286.009090L181.030868,284.290159L179.944667,282.795487L182.766235,281.013843L179.300546,279.634819L172.378718,278.251754L174.323966,276.506174L172.035924,274.819055L171.774078,273.092766L170.734199,271.329262L170.791936,269.585915L176.427529,268.224851L178.363425,266.732801L180.447997,265.316527L180.158841,263.681941L181.017050,262.187550L179.227808,260.308986L180.911291,258.953059L185.328157,258.159171L188.804342,257.315437L184.969237,254.954670L186.456332,253.726274L188.194189,252.602595L183.277805,249.691463L177.661207,246.382334L176.634671,244.285049L177.674914,242.814730L181.109774,242.199593L183.112739,241.165506L185.016058,240.147400L188.997188,240.025067L190.967880,239.178059L192.149550,238.033207L190.104713,235.406162L188.474682,232.870887L190.836836,232.266082L195.717160,233.062591L197.796250,232.495742L197.974802,230.900401L195.002200,227.405479L196.439164,226.464221L196.075612,224.397460L195.976939,222.449768L195.456683,220.164313L199.536626,221.094038L203.347611,221.985307L204.393239,220.909437L202.861878,217.797625L198.092239,211.893130L197.292462,209.032764L195.321779,205.034741L200.138828,207.014975L204.246747,208.553854L207.427707,209.381214L207.762806,207.486439L208.765974,206.231986L209.775777,204.974473L206.867500,199.355291L210.286818,200.690401L213.246903,201.648863L215.658186,202.072701L218.645703,203.329484L219.998535,202.590880L224.082534,205.588457L222.646232,201.070276L222.930161,198.801778L222.119432,194.768387L222.920932,193.034667L224.174713,191.973598L225.511111,191.036214L228.700732,193.357981L230.999114,194.296026L229.652814,188.413500L230.831140,187.119632L232.701669,187.214077L234.111419,186.381449L235.831359,186.238061L237.969061,187.134402L238.861092,185.079767L241.137346,186.495735L243.281260,187.756683L243.588336,183.886340L246.405466,187.328190L247.950000,187.106187L248.794812,184.496696L251.394804,188.061734L253.326087,189.550869L254.516286,188.178148L255.781360,186.981790L257.705028,188.911114L258.711305,186.263136L259.826304,183.775144L260.894595,180.459504L262.330542,179.129340L263.595854,175.987360L265.500174,178.330377L267.309602,180.545287L268.812463,179.236270L270.397001,178.788390L272.008566,178.809854L273.703383,184.789849L275.206953,186.729830L276.736385,183.916665Z" />
<line x1="50" y1="625" x2="100" y2="625" fill="none" stroke="green" stroke-width="1.0" stroke-linejoin="round" stroke-miterlimit="10" />
<text x="125" y="628" style="text-anchor:start;fill:black">n0_4mer:PS</text>
<path style="stroke:red;stroke-width:1.0" d="M279.259019,147.644506L281.344234,148.591715L283.448292,148.836469L285.363646,151.292219L287.690252,148.897682L289.797594,149.117392L291.326926,153.640476L293.539669,152.700943L295.253434,154.971797L297.820787,152.295737L299.703554,153.506704L301.486869,155.042249L304.039320,153.190818L304.566370,159.569216L307.453633,156.569592L309.244553,157.759393L311.852746,156.243375L313.914827,156.626303L315.543134,158.286509L316.678445,161.192375L320.417809,157.122231L323.200953,155.873698L324.478856,158.361964L329.207596,152.931829L330.980854,154.414361L330.625238,160.243003L332.827655,160.611461L333.167596,164.563688L334.961789,165.631233L334.858737,170.021157L337.630779,169.305696L341.025992,167.706982L344.714798,165.843665L343.157511,172.114702L345.205496,172.776735L348.117836,172.259618L347.773516,176.279201L348.370828,178.875597L348.544731,181.916136L353.782661,178.642661L355.721872,179.571704L354.123725,184.571096L356.594292,184.834465L359.568335,184.631381L357.973908,189.254211L360.024891,190.024309L363.272518,189.679927L367.315599,188.709826L372.765001,186.631532L371.221765,190.905907L371.834104,193.185075L370.353684,197.129981L373.991081,196.881052L376.400585,197.694760L378.736968,198.621375L381.078652,199.598859L379.531458,203.298278L379.459191,205.886811L380.224877,207.881822L380.832582,209.957158L381.948556,211.709607L379.591794,215.442154L382.355094,216.223006L384.485761,217.413995L387.346311,218.286391L387.523376,220.537858L388.216264,222.519950L390.158987,223.940390L389.832796,226.365352L389.907969,228.583254L394.677916,228.968140L407.042894,226.730126L414.823073,226.519898L404.336969,232.563983L398.084928,236.882179L389.882544,241.516366L391.830423,243.057503L397.186638,243.778543L399.648666,245.359986L394.834842,248.613005L393.079456,251.061755L392.995929,253.125532L395.917219,254.668530L396.490088,256.654896L399.455091,258.329951L407.357531,259.518939L400.586565,262.435075L400.577561,264.552906L399.665405,266.724507L395.505195,269.021958L395.032569,271.055428L396.062221,273.046631L395.188330,275.070070L398.718238,277.140520L400.362569,279.266065L399.163137,281.304645L398.556251,283.346578L403.496719,285.840824L407.250347,288.387402L405.873611,290.462204L406.398326,292.756039L403.174807,294.507389L398.166020,295.857293L398.813824,298.102369L392.348173,298.932477L389.562835,300.366220L392.387175,303.057969L392.342385,305.129439L395.897170,308.205935L394.141529,309.875728L397.036441,312.949116L400.273803,316.264730L401.371030,318.981078L401.946897,321.574844L395.642741,321.564514L390.453392,321.793727L389.710879,323.740836L389.037125,325.721384L390.098395,328.515619L388.332864,330.017135L389.038886,332.734992L384.928223,332.982461L381.949742,333.717252L382.981258,336.654755L381.526922,338.208702L379.474276,339.376001L373.793002,338.177757L376.581573,342.379700L379.456113,346.829285L380.332016,350.055452L379.518163,352.141891L376.880677,352.859254L374.074357,353.372300L374.721755,356.631183L374.053008,358.887810L373.815555,361.564396L376.295442,366.774421L377.565324,371.095226L377.738067,374.533762L375.709933,375.886651L374.543073,378.108783L371.556870,378.420856L366.461201,376.306109L357.089673,369.039660L355.173714,370.004711L351.868318,369.239973L348.993108,368.876180L347.640132,370.397532L345.831681,371.321552L346.189685,375.278373L346.817450,379.832082L345.473032,381.650518L341.920592,380.051111L340.276830,381.353249L339.508311,384.152784L337.804621,385.444343L336.255181,387.037582L332.836656,385.119208L330.823998,385.745638L328.120373,384.915704L326.462423,386.191985L324.477866,386.768619L321.047464,383.902134L320.377573,387.525633L318.667806,388.730890L316.892256,389.805836L314.603624,389.439183L313.141286,391.478288L311.308296,392.485933L310.186246,395.988620L311.723843,409.629001L311.131258,416.748322L310.618403,425.182054L304.651259,410.036790L299.840266,397.899374L297.045811,394.311041L295.138524,395.201293L292.962530,394.431465L291.431276,398.222290L289.315435,398.017823L287.357112,399.245911L285.150322,397.883548L282.829301,394.001011L280.819675,393.721465L278.804630,392.882681L276.862009,394.759391L274.857158,397.068618L272.728070,402.001993L270.629896,401.239035L268.511989,401.309883L266.156816,404.774404L264.202682,402.090167L262.093056,401.761175L259.959222,401.668254L258.124022,399.335516L256.087680,398.776215L253.719778,400.216819L252.394137,395.759576L250.741322,393.591949L248.711922,393.396858L246.357160,394.523682L242.548841,401.077207L239.286699,404.727759L239.103825,397.361030L237.514578,395.296139L235.860638,393.587117L234.879019,390.062113L233.480892,387.961545L231.802581,386.723693L228.701310,389.039597L225.075410,392.305407L223.672753,390.217046L223.192136,386.254530L219.757200,388.627846L219.145550,385.163852L216.919949,384.956731L216.531667,381.348280L215.258877,379.487217L213.639377,378.274087L210.775001,379.092316L208.531522,378.804462L205.703781,379.337862L205.104482,376.516251L201.773303,377.637986L198.409582,378.643555L202.333386,369.970347L200.178564,369.471473L200.173419,366.299735L196.402102,367.696369L194.703582,366.551978L192.403325,366.058049L192.061585,363.418551L190.679626,361.932713L189.023468,360.725200L185.426608,361.374204L183.551677,360.278501L185.847742,355.393493L183.228584,355.014765L179.507629,355.489292L181.702452,351.008428L181.620533,348.512746L180.131148,347.149606L178.677613,345.745189L176.485889,344.850236L170.467844,346.521829L165.473075,347.281362L172.929070,339.937907L173.133445,337.440698L170.998232,336.381739L166.672555,336.516691L164.221937,335.482091L165.034859,332.673381L165.603199,330.063551L165.790609,327.699943L163.741109,326.414088L162.980431,324.510312L161.078779,323.090869L161.359896,320.749439L160.979175,318.702325L160.141089,316.835216L156.619849,315.889643L157.970825,313.245605L158.613378,310.893708L158.854894,308.703688L154.893609,307.686633L153.501806,305.893591L154.173075,303.581373L153.682563,301.564116L149.935547,300.201443L153.916265,297.299845L155.734188,294.909804L153.348482,293.223386L148.380818,291.808576L150.999686,289.355975L152.044642,287.155851L153.118072,284.995536L153.896111,282.896239L149.206836,281.092288L142.807361,279.188779L144.120429,276.958037L144.267736,274.770256L143.845105,272.576742L142.125783,270.322086L145.392624,268.266305L150.808156,266.463963L151.502047,264.434827L150.911479,262.291566L149.444799,260.016620L151.355554,258.143876L150.195688,255.855592L154.499419,254.448483L159.976687,253.398036L159.828992,251.370632L157.733658,248.890674L157.881768,246.860877L159.817254,245.280854L152.183116,241.111630L151.214929,238.607111L153.452105,237.046204L155.907985,235.616437L156.630682,233.647860L157.196166,231.622571L158.305379,229.801814L159.723381,228.120230L162.187776,226.909427L163.598279,225.294002L160.477601,221.588539L160.450239,219.225806L163.444750,218.357727L169.813601,219.360658L171.440280,217.985553L170.758437,215.318087L170.397937,212.767224L171.005617,210.751085L171.106928,208.388735L171.881367,206.426244L171.610457,203.725168L171.294494,200.919757L171.889044,198.709513L179.751332,202.031717L182.925093,201.988627L176.507377,194.181613L172.562067,188.038716L169.950746,182.756497L176.124919,185.206791L182.967665,188.570138L185.883044,188.459404L187.677400,187.318475L187.037359,183.672076L187.880370,181.467295L187.595473,177.958353L191.865600,179.537473L196.246587,181.455665L199.314354,181.987176L201.517103,181.545596L203.083445,180.322259L206.075344,181.040753L206.785080,178.672450L206.830604,175.241928L206.649519,171.297080L207.958853,169.486401L209.473365,167.957993L211.318041,166.955985L212.699145,165.141511L216.591260,167.869944L215.224318,160.863545L217.081564,159.762853L219.450404,159.712412L221.245553,158.497029L223.339301,157.929208L226.862172,160.780401L228.891297,160.273090L231.454948,161.189581L232.810817,158.957425L234.143630,156.490729L236.685191,157.525499L238.618573,156.785494L241.358892,158.815703L243.006404,157.167140L245.422997,158.393038L247.074562,156.635813L249.518553,158.299163L252.193693,161.477439L253.692985,158.924547L254.828482,153.728038L256.916671,153.797744L258.741256,151.968967L260.453101,148.701471L262.398269,146.765589L264.797103,149.686360L266.735535,147.091931L268.927469,148.072320L271.187373,152.404223L273.258873,153.863767L275.284180,153.790932L277.287156,155.025527Z" />
<line x1="50" y1="600" x2="100" y2="600" fill="none" stroke="red" stroke-width="1.0" stroke-linejoin="round" stroke-miterlimit="10" />
<text x="125" y="603" style="text-anchor:start;fill:black">n0_4mer:D</text>
<path style="stroke:black;stroke-width:1.0" d="M280.403821,113.411997L283.166220,112.288807L285.872441,112.635153L288.480657,114.085375L291.257509,113.450052L293.939662,113.880963L296.550283,114.814789L299.157484,115.642379L301.672335,116.931374L304.052591,118.788177L306.759419,118.805614L309.344374,119.455990L311.925164,120.112630L314.577356,120.485082L316.896995,122.108699L319.488944,122.686413L321.821320,124.120008L324.407175,124.709985L327.326857,124.364133L329.833286,125.271619L333.011691,124.435963L336.092492,124.012887L338.466285,125.388967L341.805659,124.562697L344.063630,126.233388L346.208143,128.094874L348.106767,130.387941L349.354533,133.831359L351.511608,135.444787L353.778000,136.841001L356.446108,137.553366L359.197487,138.178087L361.748739,139.172676L363.475490,141.444255L366.035375,142.447226L368.107938,144.170839L369.925813,146.228537L372.322998,147.495441L373.867256,149.866003L375.968930,151.507124L378.116023,153.097645L379.851215,155.167668L382.443653,156.269705L384.985668,157.470752L386.569798,159.703027L388.967859,161.098089L391.736848,162.167642L393.524453,164.211620L395.879205,165.738914L397.594599,167.857073L397.764173,171.276817L399.354985,173.446241L400.995934,175.570135L402.242730,177.993362L403.826386,180.148739L404.680648,182.822464L405.131203,185.738533L406.407025,188.057352L408.094963,190.104758L409.868262,192.112340L412.386165,193.697131L415.040545,195.256524L416.518459,197.518538L418.435609,199.557462L420.346281,201.627656L420.708510,204.476009L422.139250,206.795354L422.447376,209.624247L421.884942,212.790442L423.437530,215.039083L428.187934,216.079142L434.200347,216.802391L436.084064,219.148188L436.044897,222.160476L433.717146,225.847339L430.039800,229.812143L431.219683,232.288122L431.778594,234.939514L430.954687,237.915775L430.563863,240.745664L429.705708,243.636516L429.815019,246.299889L432.960753,248.439893L434.482830,250.917960L437.068685,253.291826L439.296286,255.783255L436.770802,258.814845L436.171571,261.591757L435.262989,264.361482L434.556882,267.084675L434.042161,269.773475L434.294805,272.429739L433.565419,275.092444L433.816711,277.747779L435.122965,280.448955L435.633781,283.156519L436.111122,285.883517L436.230571,288.602466L436.503060,291.348588L436.244456,294.050400L436.572482,296.833515L435.393945,299.410936L433.767850,301.886210L432.435972,304.375912L431.714685,306.961048L430.340727,309.395161L430.339865,312.129448L429.709611,314.724041L428.794917,317.241716L428.475248,319.926073L428.490704,322.730304L429.060650,325.747012L428.958284,328.582306L429.343850,331.626360L427.384361,333.815837L425.557287,336.021478L423.641757,338.158120L421.834183,340.308845L421.368119,343.054646L420.255048,345.513674L418.699126,347.751218L416.887936,349.839850L415.606124,352.195185L413.818392,354.262033L412.355781,356.501282L410.825203,358.694127L408.996436,360.690222L408.920494,363.830310L408.683922,366.927799L407.535822,369.439814L405.646943,371.426802L404.215473,373.749053L401.007375,374.677536L399.691155,377.070872L398.692550,379.754992L396.839543,381.733869L396.622598,385.190975L395.995251,388.362543L394.774740,391.039077L392.844785,393.051569L390.646568,394.789118L388.414719,396.477087L385.463477,397.353796L381.413222,396.904045L378.094755,397.165818L374.102265,396.498623L372.459857,398.648801L371.545653,401.792405L369.701538,403.781344L368.114539,406.161903L364.820935,406.111807L361.741415,406.270311L359.817077,408.144789L357.945785,410.140657L356.762832,413.348697L355.223593,416.076274L352.872135,417.430493L350.433872,418.623765L347.634229,419.094375L344.927078,419.691832L342.152069,420.091728L339.363087,420.393766L336.363778,420.125177L333.485102,420.029201L330.877849,420.531415L328.445900,421.468627L326.190388,422.920459L323.994588,424.622792L321.697040,426.101702L320.498290,431.446792L319.380264,437.697317L317.512834,441.784198L314.802582,442.824302L310.747579,437.800449L306.842283,432.542465L303.556956,429.549094L300.872424,429.425364L298.499388,431.245600L295.930560,431.963558L293.370294,432.862721L290.879829,434.665446L288.179816,434.559729L285.619100,436.404396L282.871827,435.585401L280.123459,433.745321L277.472450,434.021285L274.815386,432.765238L272.170595,433.165093L269.530120,433.008239L266.888966,432.907212L264.162970,434.034246L261.483833,434.092463L258.807326,434.030856L256.154166,433.713129L253.596218,432.694586L250.778126,433.525863L247.915841,434.368278L245.368329,433.291152L242.811647,432.357280L240.239945,431.553144L237.694857,430.670599L234.674063,431.671799L231.997716,431.204827L229.491131,430.128284L226.725833,429.918784L224.468157,428.104835L222.018809,426.943636L219.456122,426.118908L217.068513,424.831168L214.280452,424.560013L211.157340,425.008026L208.953778,423.257527L207.001913,421.022142L204.362784,420.292321L202.283138,418.422227L200.222822,416.567611L197.613855,415.757964L195.582007,413.902061L194.133282,411.104167L191.994180,409.531229L189.797393,408.061732L188.318176,405.515004L185.730304,404.655307L183.081721,403.836988L181.082083,402.091444L178.499731,401.119321L176.218713,399.723799L173.592908,398.731974L170.883878,397.791915L169.051910,395.799376L167.467385,393.548478L165.654697,391.570268L163.991205,389.447971L161.535865,388.132450L158.481695,387.356757L156.747815,385.273964L155.004548,383.206496L153.683671,380.774738L152.467783,378.280831L151.213990,375.847024L150.400111,373.090943L149.016645,370.812791L147.603925,368.567651L145.007228,367.169799L140.575101,366.974710L138.451244,365.114189L137.849987,362.255351L138.094635,358.918285L139.305652,355.086667L139.312138,352.054048L138.372236,349.595391L136.812247,347.475285L135.530719,345.200169L132.507711,343.760896L130.129881,341.946245L129.122520,339.474802L128.007551,337.051606L128.057759,334.156274L127.404614,331.570907L125.492876,329.455182L123.823599,327.217784L121.819186,325.060107L120.071965,322.779904L119.571064,320.103307L119.188653,317.403642L119.349723,314.577510L119.366845,311.814719L119.029651,309.151846L117.978095,306.641113L118.282575,303.862459L118.783818,301.078166L118.011176,298.516912L118.792535,295.736392L117.834381,293.195645L116.295649,290.690138L117.114623,287.948178L116.783015,285.316094L116.819981,282.660815L117.763628,279.982338L117.139805,277.361684L117.009870,274.722354L117.186579,272.084191L116.770111,269.429424L117.110063,266.796897L117.506218,264.175032L117.385317,261.516162L118.179942,258.939390L118.420670,256.314294L118.767286,253.701203L119.083363,251.083104L119.073618,248.406570L119.171339,245.734584L119.008759,242.995639L119.968233,240.482210L120.202227,237.807895L120.567144,235.153645L121.483769,232.640882L121.529641,229.879618L122.448520,227.365216L123.705268,224.967043L124.432939,222.399627L125.497489,219.950564L126.496877,217.481738L127.293816,214.932035L128.088549,212.373313L127.626114,209.243689L128.609933,206.725956L130.075141,204.436193L132.679457,202.736624L134.691909,200.782706L136.379244,198.682821L137.544145,196.301751L138.663999,193.887185L141.570451,192.565704L142.240901,189.881220L142.422700,186.836269L143.070968,184.050574L143.724692,181.225744L145.370870,179.089054L147.984648,177.695835L149.168543,175.221160L149.230409,171.799424L149.924732,168.821502L151.641943,166.679581L154.756281,165.800905L158.366376,165.466453L161.639655,164.916888L162.851660,162.390693L163.474859,159.208119L164.744365,156.628196L166.044050,154.030696L168.418023,152.612819L170.720291,151.135197L173.357727,150.088139L175.993145,149.084625L178.255465,147.636363L180.368424,145.996649L181.996206,143.667624L184.042335,141.893915L186.121818,140.151979L188.160415,138.326366L190.653006,137.213718L192.790295,135.521459L195.108646,134.123226L197.612355,133.059893L200.024848,131.841482L202.248720,130.250752L204.542858,128.773302L206.756109,127.093798L209.561068,126.705692L212.340422,126.323746L215.076880,125.900287L217.760777,125.398161L219.863728,123.346080L222.479831,122.658348L225.130635,122.098838L227.844276,121.776471L230.603394,121.670078L233.143189,120.840783L235.851993,120.659472L238.537902,120.452499L240.990413,119.241686L243.620992,118.805253L246.051257,117.294262L248.437168,115.303203L251.182329,115.363714L253.780444,114.430159L256.600538,115.252896L259.340698,115.651940L261.999457,115.325220L264.706681,115.691612L267.339466,114.879982L270.013517,114.658664L272.697725,114.822746L275.377544,113.968935L278.088362,112.997677Z" />
<line x1="50" y1="550" x2="100" y2="550" fill="none" stroke="black" stroke-width="1.0" stroke-linejoin="round" stroke-miterlimit="10" />
<text x="125" y="553" style="text-anchor:start;fill:black">GC-content</text>
</g>
<g style="fill:pink;stroke:black">
<a href="" title="AF222894 AE002100-AE002158:1 [40000-62099];"><path  d="M350.472861,57.735536L354.253154,59.085810L358.009306,60.501853L361.740172,61.983234L365.444616,63.529502L369.121510,65.140186L372.769733,66.814796L376.388175,68.552821L379.975734,70.353731L383.531315,72.216979L387.053837,74.141996L377.310025,91.607910L377.310025,91.607910L374.093809,89.850285L370.847409,88.149059L367.571812,86.504749L364.268017,84.917857L360.937031,83.388866L357.579867,81.918241L354.197548,80.506431L350.791105,79.153866L347.361575,77.860957L343.910004,76.628098Z" />
</a><a href="" title="AF222894 AE002100-AE002158:2 [139000-163099];"><path  d="M486.031601,183.535999L487.595727,187.232939L489.095094,190.956613L490.529245,194.705888L491.897745,198.479621L493.200175,202.276663L494.436139,206.095858L495.605261,209.936041L496.707184,213.796043L497.741574,217.674689L498.708114,221.570796L499.606510,225.483178L480.075509,229.788989L480.075509,229.788989L479.255234,226.216814L478.372741,222.659498L477.428299,219.118126L476.422195,215.593776L475.354736,212.087522L474.226247,208.600432L473.037071,205.133567L471.787572,201.687985L470.478129,198.264734L469.109142,194.864857L467.681027,191.489391Z" />
</a><a href="" title="AF222894 AE002100-AE002158:3 [220000-242099];"><path  d="M496.786105,335.917351L495.689171,339.778775L494.525014,343.620466L493.293987,347.441254L491.996465,351.239976L490.632845,355.015475L489.203540,358.766601L487.708987,362.492210L486.149641,366.191168L484.525977,369.862348L482.838488,373.504633L464.765576,364.939013L464.765576,364.939013L466.306326,361.613449L467.788803,358.261501L469.212554,354.884192L470.577145,351.482548L471.882163,348.057608L473.127208,344.610413L474.311901,341.142015L475.435882,337.653469L476.498809,334.145838L477.500357,330.620190Z" />
</a><a href="" title="AF222894 AE002100-AE002158:4 [268500-296099];"><path  d="M454.786561,418.446131L452.255699,421.561991L449.670842,424.633208L447.032780,427.658844L444.342314,430.637979L441.600265,433.569706L438.807468,436.453131L435.964774,439.287375L433.073048,442.071576L430.133172,444.804885L427.146040,447.486470L424.112564,450.115514L421.033666,452.691216L417.910285,455.212792L405.483304,439.542114L405.483304,439.542114L408.335086,437.239806L411.146254,434.888078L413.915950,432.487647L416.643331,430.039243L419.327566,427.543613L421.967837,425.001516L424.563341,422.413728L427.113286,419.781036L429.616895,417.104242L432.073408,414.384162L434.482074,411.621624L436.842160,408.817470L439.152947,405.972554Z" />
</a><a href="" title="AF222894 AE002100-AE002158:5 [337000-360099];"><path  d="M348.398329,492.974047L344.582978,494.221826L340.746432,495.402828L336.889859,496.516693L333.014433,497.563082L329.121336,498.541676L325.211753,499.452177L321.286875,500.294308L317.347897,501.067812L313.396020,501.772453L309.432447,502.408018L305.458386,502.974312L302.809830,483.150458L302.809830,483.150458L306.438321,482.633408L310.057236,482.053110L313.665471,481.409741L317.261929,480.703499L320.845513,479.934597L324.415133,479.103270L327.969700,478.209771L331.508132,477.254372L335.029351,476.237365L338.532284,475.159059L342.015865,474.019782Z" />
</a><a href="" title="AF222894 AE002100-AE002158:6 [644000-662599];"><path  d="M94.783216,132.094748L97.304705,128.971297L99.880321,125.892327L102.509280,122.858777L105.190782,119.871571L107.924009,116.931618L110.708129,114.039815L113.542294,111.197041L116.425641,108.404164L130.214715,122.890758L130.214715,122.890758L127.582095,125.440777L124.994379,128.036353L122.452356,130.676695L119.956801,133.361000L117.508473,136.088449L115.108119,138.858212L112.756470,141.669445L110.454241,144.521292Z" />
</a></g>
<path  style="fill:pink;stroke:black" d="M350,550L375,550L375,565L350,565Z" />
<text x="405" y="565" style="text-anchor:start;fill:black">Selected loci;</text>
</svg>